G04 Layer_Color=16711935*
%FSLAX44Y44*%
%MOMM*%
G71*
G01*
G75*
%ADD11C,0.2540*%
%ADD26R,1.7032X1.7032*%
%ADD27C,1.7032*%
%ADD28R,1.7032X1.7032*%
%ADD29R,2.0032X2.0032*%
%ADD30C,2.0032*%
%ADD31C,2.6032*%
%ADD32R,2.6032X2.6032*%
%ADD33C,1.9032*%
%ADD34C,3.2032*%
%ADD35C,1.4732*%
D11*
X0Y520000D02*
X520000D01*
Y0D02*
Y520000D01*
X0Y0D02*
X520000D01*
X0D02*
Y520000D01*
D26*
X231140Y354800D02*
D03*
X458470Y233680D02*
D03*
X67310Y411480D02*
D03*
D27*
X231140Y329400D02*
D03*
Y304000D02*
D03*
Y278600D02*
D03*
Y253200D02*
D03*
Y227800D02*
D03*
Y202400D02*
D03*
X307340Y354800D02*
D03*
Y329400D02*
D03*
Y304000D02*
D03*
Y278600D02*
D03*
Y253200D02*
D03*
Y227800D02*
D03*
Y202400D02*
D03*
X228600Y33020D02*
D03*
X254000D02*
D03*
X279400D02*
D03*
X304800D02*
D03*
X330200D02*
D03*
X355600D02*
D03*
X203200Y109220D02*
D03*
X228600D02*
D03*
X254000D02*
D03*
X279400D02*
D03*
X304800D02*
D03*
X330200D02*
D03*
X355600D02*
D03*
X458470Y259080D02*
D03*
Y284480D02*
D03*
Y309880D02*
D03*
Y335280D02*
D03*
Y360680D02*
D03*
Y386080D02*
D03*
X382270Y233680D02*
D03*
Y259080D02*
D03*
Y284480D02*
D03*
Y309880D02*
D03*
Y335280D02*
D03*
Y360680D02*
D03*
Y386080D02*
D03*
X67310D02*
D03*
Y360680D02*
D03*
Y335280D02*
D03*
Y309880D02*
D03*
Y284480D02*
D03*
Y259080D02*
D03*
X143510Y411480D02*
D03*
Y386080D02*
D03*
Y360680D02*
D03*
Y335280D02*
D03*
Y309880D02*
D03*
Y284480D02*
D03*
Y259080D02*
D03*
D28*
X203200Y33020D02*
D03*
D29*
X227330Y472910D02*
D03*
D30*
X252730D02*
D03*
X278130D02*
D03*
X303530D02*
D03*
X328930D02*
D03*
X354330D02*
D03*
X379730D02*
D03*
X405130D02*
D03*
D31*
X52070Y173990D02*
D03*
D32*
Y123190D02*
D03*
D33*
X491490Y286550D02*
D03*
Y386550D02*
D03*
X127000Y56680D02*
D03*
Y156680D02*
D03*
X190500Y157010D02*
D03*
Y257010D02*
D03*
X356870Y214160D02*
D03*
Y314160D02*
D03*
X307810Y413220D02*
D03*
X207810D02*
D03*
X142710Y458470D02*
D03*
X42710D02*
D03*
D34*
X30000Y30000D02*
D03*
X490000D02*
D03*
Y490000D02*
D03*
D35*
X252730Y398780D02*
D03*
X359410Y152400D02*
D03*
X271780D02*
D03*
X440690Y175260D02*
D03*
X321310D02*
D03*
X86360Y472440D02*
D03*
X87630Y271780D02*
D03*
M02*
