G04 Layer_Physical_Order=1*
G04 Layer_Color=255*
%FSLAX44Y44*%
%MOMM*%
G71*
G01*
G75*
%ADD10R,0.6000X2.0000*%
%ADD11O,0.6000X2.0000*%
%ADD12C,0.6000*%
%ADD13C,1.0000*%
%ADD14C,0.3000*%
%ADD15C,1.7000*%
%ADD16R,2.4000X2.4000*%
%ADD17C,2.4000*%
%ADD18C,1.8000*%
%ADD19R,1.8000X1.8000*%
%ADD20C,0.6000*%
G36*
X452120Y6350D02*
X5080D01*
Y495300D01*
X452120D01*
Y6350D01*
D02*
G37*
%LPC*%
G36*
X325120Y465216D02*
X322509Y464873D01*
X320077Y463865D01*
X318032Y462296D01*
X317932Y462257D01*
X317386Y461739D01*
X316868Y461316D01*
X316336Y460947D01*
X315790Y460631D01*
X315226Y460364D01*
X314643Y460147D01*
X314038Y459977D01*
X313409Y459854D01*
X312752Y459780D01*
X312008Y459753D01*
X311933Y459718D01*
X216387D01*
X216312Y459753D01*
X215568Y459780D01*
X214911Y459854D01*
X214282Y459977D01*
X213677Y460147D01*
X213094Y460364D01*
X212531Y460631D01*
X211984Y460947D01*
X211452Y461316D01*
X210934Y461739D01*
X210388Y462257D01*
X210288Y462296D01*
X208243Y463865D01*
X205811Y464873D01*
X203200Y465216D01*
X200590Y464873D01*
X198157Y463865D01*
X196112Y462296D01*
X196012Y462257D01*
X195466Y461739D01*
X194948Y461316D01*
X194416Y460947D01*
X193869Y460631D01*
X193306Y460364D01*
X192723Y460147D01*
X192118Y459977D01*
X191489Y459854D01*
X190832Y459780D01*
X190088Y459753D01*
X190013Y459718D01*
X156697D01*
X156622Y459753D01*
X155878Y459780D01*
X155221Y459854D01*
X154592Y459977D01*
X153987Y460147D01*
X153404Y460364D01*
X152841Y460631D01*
X152294Y460947D01*
X151762Y461316D01*
X151244Y461739D01*
X150698Y462257D01*
X150598Y462296D01*
X148553Y463865D01*
X146121Y464873D01*
X143510Y465216D01*
X140899Y464873D01*
X138467Y463865D01*
X136378Y462262D01*
X134775Y460173D01*
X133767Y457741D01*
X133424Y455130D01*
X133767Y452519D01*
X134775Y450087D01*
X136378Y447998D01*
X138467Y446395D01*
X140899Y445387D01*
X143510Y445044D01*
X146121Y445387D01*
X148553Y446395D01*
X150598Y447964D01*
X150698Y448003D01*
X151244Y448521D01*
X151762Y448944D01*
X152294Y449313D01*
X152840Y449629D01*
X153404Y449896D01*
X153987Y450113D01*
X154592Y450284D01*
X155221Y450406D01*
X155878Y450480D01*
X156622Y450508D01*
X156697Y450542D01*
X190013D01*
X190088Y450508D01*
X190832Y450480D01*
X191489Y450406D01*
X192118Y450284D01*
X192723Y450113D01*
X193306Y449896D01*
X193869Y449629D01*
X194416Y449313D01*
X194948Y448944D01*
X195466Y448521D01*
X196012Y448003D01*
X196112Y447964D01*
X198157Y446395D01*
X200590Y445387D01*
X203200Y445044D01*
X205811Y445387D01*
X208243Y446395D01*
X210288Y447964D01*
X210388Y448003D01*
X210935Y448521D01*
X211452Y448944D01*
X211984Y449313D01*
X212530Y449629D01*
X213094Y449896D01*
X213677Y450113D01*
X214282Y450284D01*
X214911Y450406D01*
X215568Y450480D01*
X216312Y450508D01*
X216387Y450542D01*
X311933D01*
X312008Y450508D01*
X312752Y450480D01*
X313409Y450406D01*
X314038Y450284D01*
X314643Y450113D01*
X315226Y449896D01*
X315789Y449629D01*
X316336Y449313D01*
X316868Y448944D01*
X317386Y448521D01*
X317932Y448003D01*
X317976Y447986D01*
X317993Y447942D01*
X318511Y447396D01*
X318934Y446878D01*
X319303Y446346D01*
X319619Y445799D01*
X319886Y445236D01*
X320103Y444653D01*
X320274Y444048D01*
X320396Y443419D01*
X320470Y442762D01*
X320498Y442018D01*
X320532Y441943D01*
Y387350D01*
X320881Y385594D01*
X321876Y384106D01*
X356092Y349889D01*
Y304665D01*
X356441Y302909D01*
X357436Y301421D01*
X408805Y250052D01*
X408834Y249974D01*
X409340Y249431D01*
X409761Y248912D01*
X410135Y248374D01*
X410465Y247815D01*
X410750Y247236D01*
X410993Y246633D01*
X411194Y246005D01*
X411352Y245351D01*
X411467Y244667D01*
X411544Y243902D01*
X411686Y243638D01*
X411897Y242029D01*
X412905Y239597D01*
X414508Y237508D01*
X416597Y235905D01*
X419030Y234897D01*
X421640Y234554D01*
X424250Y234897D01*
X426683Y235905D01*
X428772Y237508D01*
X430375Y239597D01*
X431383Y242029D01*
X431726Y244640D01*
X431383Y247250D01*
X430375Y249683D01*
X428772Y251772D01*
X426683Y253375D01*
X424250Y254383D01*
X421640Y254726D01*
X421043Y254648D01*
X420816Y254729D01*
X420083Y254694D01*
X419445Y254716D01*
X418834Y254791D01*
X418247Y254918D01*
X417681Y255097D01*
X417133Y255328D01*
X416598Y255614D01*
X416075Y255958D01*
X415561Y256362D01*
X415013Y256870D01*
X414976Y256883D01*
X414958Y256918D01*
X414896Y256938D01*
X365268Y306566D01*
Y351790D01*
X364919Y353546D01*
X363924Y355034D01*
X329708Y389250D01*
Y441943D01*
X329743Y442018D01*
X329770Y442762D01*
X329844Y443419D01*
X329967Y444048D01*
X330137Y444653D01*
X330354Y445236D01*
X330621Y445799D01*
X330937Y446346D01*
X331306Y446878D01*
X331729Y447396D01*
X332247Y447942D01*
X332286Y448042D01*
X333855Y450087D01*
X334863Y452519D01*
X335206Y455130D01*
X334863Y457741D01*
X333855Y460173D01*
X332252Y462262D01*
X330163Y463865D01*
X327730Y464873D01*
X325120Y465216D01*
D02*
G37*
G36*
X413500Y478900D02*
X386500D01*
Y462289D01*
X386427Y462169D01*
X386458Y462039D01*
X386407Y461916D01*
X386500Y461691D01*
Y459328D01*
X386147Y458711D01*
X385554Y457857D01*
X383771Y455750D01*
X382620Y454558D01*
X382588Y454476D01*
X370136Y442024D01*
X369141Y440536D01*
X368792Y438780D01*
Y367030D01*
X369141Y365274D01*
X370136Y363786D01*
X380222Y353699D01*
Y318457D01*
X380187Y318382D01*
X380160Y317638D01*
X380086Y316981D01*
X379963Y316352D01*
X379793Y315747D01*
X379576Y315164D01*
X379309Y314601D01*
X378993Y314054D01*
X378624Y313522D01*
X378201Y313004D01*
X377683Y312458D01*
X377644Y312358D01*
X376075Y310313D01*
X375067Y307880D01*
X374724Y305270D01*
X375067Y302659D01*
X376075Y300227D01*
X377678Y298138D01*
X379767Y296535D01*
X382200Y295527D01*
X384810Y295184D01*
X387421Y295527D01*
X389853Y296535D01*
X391942Y298138D01*
X393545Y300227D01*
X394553Y302659D01*
X394896Y305270D01*
X394553Y307880D01*
X393545Y310313D01*
X391976Y312358D01*
X391937Y312458D01*
X391419Y313004D01*
X390996Y313522D01*
X390628Y314054D01*
X390311Y314601D01*
X390045Y315164D01*
X389827Y315747D01*
X389656Y316352D01*
X389534Y316981D01*
X389460Y317638D01*
X389432Y318382D01*
X389398Y318457D01*
Y355600D01*
X389049Y357356D01*
X388054Y358844D01*
X377968Y368931D01*
Y436880D01*
X389058Y447969D01*
X389135Y447998D01*
X391467Y450164D01*
X392439Y450941D01*
X393311Y451547D01*
X393928Y451900D01*
X396291D01*
X396516Y451807D01*
X396639Y451858D01*
X396769Y451827D01*
X396889Y451900D01*
X413500D01*
Y478900D01*
D02*
G37*
G36*
X63500Y418100D02*
X36500D01*
Y401489D01*
X36427Y401369D01*
X36458Y401239D01*
X36407Y401116D01*
X36500Y400891D01*
Y398528D01*
X36147Y397911D01*
X35554Y397057D01*
X33771Y394950D01*
X32620Y393758D01*
X32587Y393676D01*
X24696Y385784D01*
X23701Y384296D01*
X23352Y382540D01*
Y334967D01*
X23317Y334892D01*
X23290Y334148D01*
X23216Y333491D01*
X23094Y332862D01*
X22923Y332257D01*
X22706Y331674D01*
X22439Y331111D01*
X22123Y330564D01*
X21754Y330032D01*
X21331Y329514D01*
X20813Y328968D01*
X20774Y328868D01*
X19205Y326823D01*
X18197Y324390D01*
X17854Y321780D01*
X18197Y319170D01*
X19205Y316737D01*
X20808Y314648D01*
X22897Y313045D01*
X25329Y312037D01*
X27940Y311694D01*
X30550Y312037D01*
X32983Y313045D01*
X35072Y314648D01*
X36675Y316737D01*
X37683Y319170D01*
X38026Y321780D01*
X37683Y324390D01*
X36675Y326823D01*
X35106Y328868D01*
X35067Y328968D01*
X34549Y329515D01*
X34126Y330032D01*
X33758Y330564D01*
X33441Y331110D01*
X33175Y331674D01*
X32957Y332257D01*
X32787Y332862D01*
X32664Y333491D01*
X32590Y334148D01*
X32562Y334892D01*
X32528Y334967D01*
Y380639D01*
X39058Y387169D01*
X39135Y387198D01*
X41467Y389364D01*
X42439Y390141D01*
X43311Y390747D01*
X43928Y391100D01*
X46291D01*
X46516Y391007D01*
X46639Y391058D01*
X46769Y391027D01*
X46889Y391100D01*
X63500D01*
Y418100D01*
D02*
G37*
G36*
X400000Y428217D02*
X396476Y427752D01*
X393192Y426392D01*
X390372Y424228D01*
X388208Y421408D01*
X386847Y418124D01*
X386384Y414600D01*
X386847Y411076D01*
X388208Y407792D01*
X390372Y404972D01*
X390422Y404933D01*
X390436Y404898D01*
X391432Y403874D01*
X392291Y402892D01*
X393040Y401930D01*
X393679Y400987D01*
X394212Y400065D01*
X394639Y399167D01*
X394966Y398291D01*
X395194Y397436D01*
X395330Y396601D01*
X395379Y395693D01*
X395412Y395624D01*
Y366280D01*
X395761Y364524D01*
X396756Y363036D01*
X409071Y350721D01*
X409100Y350643D01*
X409607Y350098D01*
X410019Y349580D01*
X410377Y349049D01*
X410684Y348501D01*
X410942Y347935D01*
X411153Y347348D01*
X411315Y346738D01*
X411431Y346101D01*
X411498Y345436D01*
X411517Y344683D01*
X411561Y344585D01*
X411897Y342029D01*
X412905Y339597D01*
X414508Y337508D01*
X416597Y335905D01*
X419030Y334897D01*
X421640Y334554D01*
X424250Y334897D01*
X426683Y335905D01*
X428772Y337508D01*
X430375Y339597D01*
X431383Y342029D01*
X431726Y344640D01*
X431383Y347251D01*
X430375Y349683D01*
X428772Y351772D01*
X426683Y353375D01*
X424250Y354383D01*
X421695Y354719D01*
X421597Y354763D01*
X420844Y354782D01*
X420179Y354849D01*
X419542Y354965D01*
X418932Y355127D01*
X418345Y355337D01*
X417779Y355596D01*
X417231Y355903D01*
X416699Y356261D01*
X416183Y356673D01*
X415637Y357180D01*
X415559Y357209D01*
X404588Y368181D01*
Y395624D01*
X404621Y395693D01*
X404670Y396602D01*
X404806Y397436D01*
X405034Y398291D01*
X405361Y399166D01*
X405788Y400065D01*
X406320Y400987D01*
X406946Y401910D01*
X408584Y403890D01*
X409564Y404898D01*
X409578Y404933D01*
X409628Y404972D01*
X411792Y407792D01*
X413153Y411076D01*
X413616Y414600D01*
X413153Y418124D01*
X411792Y421408D01*
X409628Y424228D01*
X406808Y426392D01*
X403524Y427752D01*
X400000Y428217D01*
D02*
G37*
G36*
X199390Y336716D02*
Y332590D01*
X203516D01*
X203339Y333482D01*
X202114Y335314D01*
X200282Y336539D01*
X199390Y336716D01*
D02*
G37*
G36*
X196850D02*
X195958Y336539D01*
X194126Y335314D01*
X192901Y333482D01*
X192724Y332590D01*
X196850D01*
Y336716D01*
D02*
G37*
G36*
X203516Y330050D02*
X199390D01*
Y325924D01*
X200282Y326102D01*
X202114Y327326D01*
X203339Y329159D01*
X203516Y330050D01*
D02*
G37*
G36*
X196850D02*
X192724D01*
X192901Y329159D01*
X194126Y327326D01*
X195958Y326102D01*
X196850Y325924D01*
Y330050D01*
D02*
G37*
G36*
X256540Y342356D02*
X253930Y342013D01*
X251497Y341005D01*
X249408Y339402D01*
X247805Y337313D01*
X246797Y334880D01*
X246454Y332270D01*
X246797Y329660D01*
X247805Y327227D01*
X249374Y325182D01*
X249413Y325082D01*
X249931Y324535D01*
X250354Y324018D01*
X250723Y323486D01*
X251039Y322939D01*
X251306Y322376D01*
X251523Y321793D01*
X251693Y321188D01*
X251816Y320559D01*
X251890Y319902D01*
X251917Y319158D01*
X251952Y319083D01*
Y311528D01*
X219936D01*
X219858Y311563D01*
X218762Y311592D01*
X217848Y311672D01*
X217083Y311799D01*
X216474Y311962D01*
X216025Y312145D01*
X215732Y312323D01*
X215570Y312473D01*
X215488Y312595D01*
X215439Y312732D01*
X215408Y313027D01*
Y313940D01*
X215059Y315696D01*
X214064Y317184D01*
X212576Y318179D01*
X210820Y318528D01*
X209064Y318179D01*
X207576Y317184D01*
X206581Y315696D01*
X206232Y313940D01*
Y299940D01*
X206581Y298184D01*
X207576Y296696D01*
X209064Y295701D01*
X210820Y295352D01*
X212576Y295701D01*
X214064Y296696D01*
X215059Y298184D01*
X215408Y299940D01*
Y300854D01*
X215439Y301148D01*
X215488Y301285D01*
X215570Y301407D01*
X215732Y301557D01*
X216025Y301735D01*
X216474Y301918D01*
X217083Y302081D01*
X217848Y302208D01*
X218762Y302288D01*
X219858Y302317D01*
X219936Y302352D01*
X255040D01*
X268932Y288459D01*
Y150347D01*
X268897Y150272D01*
X268870Y149528D01*
X268796Y148871D01*
X268673Y148242D01*
X268503Y147637D01*
X268286Y147054D01*
X268019Y146491D01*
X267703Y145944D01*
X267334Y145412D01*
X266911Y144894D01*
X266393Y144348D01*
X266354Y144248D01*
X264785Y142203D01*
X263777Y139770D01*
X263434Y137160D01*
X263777Y134550D01*
X264785Y132117D01*
X266388Y130028D01*
X268477Y128425D01*
X270910Y127417D01*
X273520Y127074D01*
X276131Y127417D01*
X278563Y128425D01*
X280652Y130028D01*
X282255Y132117D01*
X283263Y134550D01*
X283606Y137160D01*
X283263Y139770D01*
X282255Y142203D01*
X280686Y144248D01*
X280647Y144348D01*
X280129Y144895D01*
X279706Y145412D01*
X279338Y145944D01*
X279021Y146490D01*
X278755Y147054D01*
X278537Y147637D01*
X278367Y148242D01*
X278244Y148871D01*
X278170Y149528D01*
X278143Y150272D01*
X278108Y150347D01*
Y290360D01*
X277759Y292116D01*
X276764Y293604D01*
X261128Y309240D01*
Y319083D01*
X261162Y319158D01*
X261190Y319902D01*
X261264Y320559D01*
X261387Y321188D01*
X261557Y321793D01*
X261774Y322376D01*
X262041Y322939D01*
X262357Y323486D01*
X262726Y324018D01*
X263149Y324536D01*
X263667Y325082D01*
X263706Y325182D01*
X265275Y327227D01*
X266283Y329660D01*
X266626Y332270D01*
X266283Y334880D01*
X265275Y337313D01*
X263672Y339402D01*
X261583Y341005D01*
X259151Y342013D01*
X256540Y342356D01*
D02*
G37*
G36*
X50000Y469016D02*
X46476Y468553D01*
X43192Y467192D01*
X40372Y465028D01*
X38208Y462208D01*
X36848Y458924D01*
X36384Y455400D01*
X36848Y451876D01*
X38208Y448592D01*
X40372Y445772D01*
X43192Y443608D01*
X46476Y442248D01*
X50000Y441783D01*
X50063Y441792D01*
X50097Y441777D01*
X51526Y441757D01*
X52828Y441671D01*
X54037Y441519D01*
X55157Y441305D01*
X56185Y441030D01*
X57123Y440696D01*
X57973Y440308D01*
X58738Y439865D01*
X59424Y439370D01*
X60102Y438763D01*
X60174Y438738D01*
X75422Y423489D01*
Y333697D01*
X75388Y333622D01*
X75360Y332878D01*
X75286Y332221D01*
X75163Y331592D01*
X74993Y330987D01*
X74776Y330404D01*
X74509Y329841D01*
X74193Y329294D01*
X73824Y328762D01*
X73401Y328244D01*
X72883Y327698D01*
X72844Y327598D01*
X71275Y325553D01*
X70267Y323120D01*
X69924Y320510D01*
X70267Y317899D01*
X71275Y315467D01*
X72878Y313378D01*
X74967Y311775D01*
X77400Y310767D01*
X80010Y310424D01*
X82620Y310767D01*
X85053Y311775D01*
X87142Y313378D01*
X88745Y315467D01*
X89753Y317899D01*
X90096Y320510D01*
X89753Y323120D01*
X88745Y325553D01*
X87176Y327598D01*
X87137Y327698D01*
X86619Y328245D01*
X86196Y328762D01*
X85828Y329294D01*
X85511Y329841D01*
X85245Y330404D01*
X85027Y330987D01*
X84857Y331592D01*
X84734Y332221D01*
X84660Y332878D01*
X84633Y333622D01*
X84598Y333697D01*
Y425390D01*
X84249Y427146D01*
X83254Y428634D01*
X66662Y445226D01*
X66637Y445298D01*
X66029Y445976D01*
X65535Y446662D01*
X65092Y447427D01*
X64704Y448277D01*
X64370Y449215D01*
X64095Y450243D01*
X63885Y451339D01*
X63643Y453896D01*
X63623Y455303D01*
X63608Y455337D01*
X63616Y455400D01*
X63152Y458924D01*
X61792Y462208D01*
X59628Y465028D01*
X56808Y467192D01*
X53524Y468553D01*
X50000Y469016D01*
D02*
G37*
G36*
X199390Y319336D02*
Y308210D01*
X203769D01*
Y313940D01*
X203339Y316102D01*
X202114Y317934D01*
X200282Y319159D01*
X199390Y319336D01*
D02*
G37*
G36*
X196850D02*
X195958Y319159D01*
X194126Y317934D01*
X192901Y316102D01*
X192472Y313940D01*
Y308210D01*
X196850D01*
Y319336D01*
D02*
G37*
G36*
X185420Y318528D02*
X183664Y318179D01*
X182176Y317184D01*
X181181Y315696D01*
X180832Y313940D01*
Y299940D01*
X181181Y298184D01*
X182176Y296696D01*
X183664Y295701D01*
X185420Y295352D01*
X187176Y295701D01*
X188664Y296696D01*
X189659Y298184D01*
X190008Y299940D01*
Y313940D01*
X189659Y315696D01*
X188664Y317184D01*
X187176Y318179D01*
X185420Y318528D01*
D02*
G37*
G36*
X203769Y305670D02*
X199390D01*
Y294544D01*
X200282Y294721D01*
X202114Y295946D01*
X203339Y297778D01*
X203769Y299940D01*
Y305670D01*
D02*
G37*
G36*
X196850D02*
X192472D01*
Y299940D01*
X192901Y297778D01*
X194126Y295946D01*
X195958Y294721D01*
X196850Y294544D01*
Y305670D01*
D02*
G37*
G36*
X203200Y365216D02*
X200590Y364873D01*
X198157Y363865D01*
X196068Y362262D01*
X194465Y360173D01*
X193457Y357741D01*
X193121Y355185D01*
X193077Y355087D01*
X193058Y354334D01*
X192991Y353669D01*
X192875Y353032D01*
X192713Y352422D01*
X192502Y351835D01*
X192244Y351269D01*
X191937Y350721D01*
X191579Y350189D01*
X191167Y349673D01*
X190660Y349127D01*
X190631Y349049D01*
X169476Y327894D01*
X168481Y326406D01*
X168132Y324650D01*
Y313940D01*
Y306940D01*
Y299940D01*
Y293635D01*
X168099Y293565D01*
X168044Y292524D01*
X167902Y291720D01*
X167684Y291066D01*
X167404Y290547D01*
X167066Y290134D01*
X166653Y289795D01*
X166134Y289516D01*
X165480Y289298D01*
X164676Y289156D01*
X163635Y289101D01*
X163565Y289068D01*
X163421D01*
X163402Y289072D01*
X163396Y289068D01*
X90640D01*
X88884Y288719D01*
X87396Y287724D01*
X34021Y234349D01*
X33943Y234320D01*
X33398Y233813D01*
X32880Y233401D01*
X32349Y233043D01*
X31801Y232736D01*
X31235Y232477D01*
X30648Y232267D01*
X30038Y232105D01*
X29401Y231989D01*
X28736Y231922D01*
X27983Y231903D01*
X27885Y231859D01*
X25329Y231523D01*
X22897Y230515D01*
X20808Y228912D01*
X19205Y226823D01*
X18197Y224391D01*
X17854Y221780D01*
X18197Y219170D01*
X19205Y216737D01*
X20808Y214648D01*
X22897Y213045D01*
X25329Y212037D01*
X27940Y211694D01*
X30550Y212037D01*
X32983Y213045D01*
X35072Y214648D01*
X36675Y216737D01*
X37683Y219170D01*
X38019Y221725D01*
X38063Y221823D01*
X38082Y222576D01*
X38149Y223241D01*
X38265Y223878D01*
X38427Y224488D01*
X38637Y225075D01*
X38896Y225641D01*
X39203Y226189D01*
X39562Y226721D01*
X39973Y227237D01*
X40480Y227783D01*
X40509Y227861D01*
X92541Y279892D01*
X172396D01*
X172402Y279888D01*
X172421Y279892D01*
X173019D01*
X173038Y279888D01*
X173044Y279892D01*
X239073D01*
X239148Y279858D01*
X239892Y279830D01*
X240549Y279756D01*
X241178Y279634D01*
X241783Y279463D01*
X242366Y279246D01*
X242929Y278979D01*
X243476Y278663D01*
X244008Y278294D01*
X244526Y277871D01*
X245072Y277353D01*
X245172Y277314D01*
X247217Y275745D01*
X249650Y274737D01*
X252260Y274394D01*
X254870Y274737D01*
X257303Y275745D01*
X259392Y277348D01*
X260995Y279437D01*
X262003Y281870D01*
X262346Y284480D01*
X262003Y287090D01*
X260995Y289523D01*
X259392Y291612D01*
X257303Y293215D01*
X254870Y294223D01*
X252260Y294566D01*
X249650Y294223D01*
X247217Y293215D01*
X245172Y291646D01*
X245072Y291607D01*
X244526Y291089D01*
X244008Y290666D01*
X243476Y290298D01*
X242929Y289981D01*
X242366Y289715D01*
X241783Y289497D01*
X241178Y289326D01*
X240549Y289204D01*
X239892Y289130D01*
X239148Y289102D01*
X239073Y289068D01*
X182044D01*
X182038Y289072D01*
X182019Y289068D01*
X181875D01*
X181805Y289101D01*
X180764Y289156D01*
X179960Y289298D01*
X179306Y289516D01*
X178787Y289795D01*
X178374Y290134D01*
X178035Y290547D01*
X177756Y291066D01*
X177538Y291720D01*
X177396Y292524D01*
X177341Y293565D01*
X177308Y293635D01*
Y306940D01*
Y313940D01*
Y322749D01*
X197119Y342561D01*
X197197Y342590D01*
X197742Y343097D01*
X198260Y343509D01*
X198791Y343867D01*
X199339Y344174D01*
X199905Y344432D01*
X200492Y344643D01*
X201102Y344805D01*
X201739Y344921D01*
X202404Y344988D01*
X203157Y345007D01*
X203255Y345051D01*
X205811Y345387D01*
X208243Y346395D01*
X210332Y347998D01*
X211935Y350087D01*
X212943Y352519D01*
X213286Y355130D01*
X212943Y357741D01*
X211935Y360173D01*
X210332Y362262D01*
X208243Y363865D01*
X205811Y364873D01*
X203200Y365216D01*
D02*
G37*
G36*
X325120D02*
X322509Y364873D01*
X320077Y363865D01*
X317988Y362262D01*
X316385Y360173D01*
X315377Y357741D01*
X315034Y355130D01*
X315377Y352519D01*
X316385Y350087D01*
X317954Y348042D01*
X317993Y347942D01*
X318511Y347396D01*
X318934Y346878D01*
X319303Y346346D01*
X319619Y345799D01*
X319886Y345236D01*
X320103Y344653D01*
X320274Y344048D01*
X320396Y343419D01*
X320470Y342762D01*
X320498Y342018D01*
X320532Y341943D01*
Y311620D01*
X320881Y309864D01*
X321876Y308376D01*
X339691Y290561D01*
X339720Y290483D01*
X340227Y289938D01*
X340639Y289421D01*
X340997Y288889D01*
X341304Y288341D01*
X341562Y287775D01*
X341773Y287188D01*
X341935Y286578D01*
X342051Y285941D01*
X342118Y285276D01*
X342137Y284523D01*
X342181Y284425D01*
X342517Y281870D01*
X343525Y279437D01*
X345128Y277348D01*
X347217Y275745D01*
X349650Y274737D01*
X352260Y274394D01*
X354870Y274737D01*
X357303Y275745D01*
X359392Y277348D01*
X360995Y279437D01*
X362003Y281870D01*
X362346Y284480D01*
X362003Y287090D01*
X360995Y289523D01*
X359392Y291612D01*
X357303Y293215D01*
X354870Y294223D01*
X352315Y294559D01*
X352217Y294603D01*
X351464Y294622D01*
X350799Y294689D01*
X350162Y294805D01*
X349552Y294967D01*
X348965Y295177D01*
X348399Y295436D01*
X347851Y295743D01*
X347319Y296101D01*
X346802Y296513D01*
X346257Y297020D01*
X346179Y297049D01*
X329708Y313521D01*
Y341943D01*
X329743Y342018D01*
X329770Y342762D01*
X329844Y343419D01*
X329967Y344048D01*
X330137Y344653D01*
X330354Y345236D01*
X330621Y345799D01*
X330937Y346346D01*
X331306Y346878D01*
X331729Y347396D01*
X332247Y347942D01*
X332286Y348042D01*
X333855Y350087D01*
X334863Y352519D01*
X335206Y355130D01*
X334863Y357741D01*
X333855Y360173D01*
X332252Y362262D01*
X330163Y363865D01*
X327730Y364873D01*
X325120Y365216D01*
D02*
G37*
G36*
X177220Y268440D02*
X168220D01*
Y262667D01*
X168160Y262541D01*
X168120Y261777D01*
X168014Y261089D01*
X167837Y260391D01*
X167586Y259680D01*
X167257Y258954D01*
X166847Y258213D01*
X166354Y257458D01*
X165776Y256690D01*
X165111Y255910D01*
X164331Y255089D01*
X164300Y255009D01*
X141879Y232588D01*
X141847Y232580D01*
X141809Y232518D01*
X141786Y232494D01*
X141709Y232466D01*
X141158Y231957D01*
X140647Y231559D01*
X140132Y231227D01*
X139609Y230956D01*
X139078Y230745D01*
X138533Y230590D01*
X137969Y230489D01*
X137383Y230443D01*
X136769Y230453D01*
X136058Y230530D01*
X135770Y230445D01*
X134620Y230596D01*
X132009Y230253D01*
X129577Y229245D01*
X127532Y227676D01*
X127432Y227637D01*
X126885Y227119D01*
X126368Y226696D01*
X125836Y226327D01*
X125289Y226011D01*
X124726Y225744D01*
X124143Y225527D01*
X123538Y225357D01*
X122909Y225234D01*
X122252Y225160D01*
X121508Y225133D01*
X121433Y225098D01*
X93197D01*
X93122Y225133D01*
X92378Y225160D01*
X91721Y225234D01*
X91092Y225357D01*
X90487Y225527D01*
X89904Y225744D01*
X89341Y226011D01*
X88794Y226327D01*
X88262Y226696D01*
X87744Y227119D01*
X87198Y227637D01*
X87098Y227676D01*
X85053Y229245D01*
X82620Y230253D01*
X80010Y230596D01*
X77400Y230253D01*
X74967Y229245D01*
X72878Y227642D01*
X71275Y225553D01*
X70267Y223120D01*
X69924Y220510D01*
X70267Y217899D01*
X71275Y215467D01*
X72878Y213378D01*
X74967Y211775D01*
X77400Y210767D01*
X80010Y210424D01*
X82620Y210767D01*
X85053Y211775D01*
X87098Y213344D01*
X87198Y213383D01*
X87745Y213901D01*
X88262Y214324D01*
X88794Y214692D01*
X89340Y215009D01*
X89904Y215275D01*
X90487Y215493D01*
X91092Y215664D01*
X91721Y215786D01*
X92378Y215860D01*
X93122Y215888D01*
X93197Y215922D01*
X121433D01*
X121508Y215888D01*
X122252Y215860D01*
X122909Y215786D01*
X123538Y215664D01*
X124143Y215493D01*
X124726Y215276D01*
X125289Y215009D01*
X125836Y214693D01*
X126368Y214324D01*
X126886Y213901D01*
X127432Y213383D01*
X127476Y213366D01*
X127493Y213322D01*
X128011Y212775D01*
X128434Y212258D01*
X128802Y211726D01*
X129119Y211180D01*
X129385Y210616D01*
X129603Y210033D01*
X129774Y209428D01*
X129896Y208799D01*
X129970Y208142D01*
X129998Y207398D01*
X130032Y207323D01*
Y176060D01*
X130381Y174304D01*
X131376Y172816D01*
X160951Y143241D01*
X160980Y143163D01*
X161487Y142618D01*
X161899Y142100D01*
X162257Y141569D01*
X162564Y141021D01*
X162822Y140455D01*
X163033Y139868D01*
X163195Y139258D01*
X163311Y138621D01*
X163378Y137956D01*
X163397Y137203D01*
X163441Y137105D01*
X163777Y134550D01*
X164785Y132117D01*
X166388Y130028D01*
X168477Y128425D01*
X170910Y127417D01*
X173520Y127074D01*
X176131Y127417D01*
X178563Y128425D01*
X180652Y130028D01*
X182255Y132117D01*
X183263Y134550D01*
X183606Y137160D01*
X183263Y139770D01*
X182255Y142203D01*
X180652Y144292D01*
X178563Y145895D01*
X176131Y146903D01*
X173575Y147239D01*
X173477Y147283D01*
X172724Y147302D01*
X172059Y147369D01*
X171422Y147485D01*
X170812Y147647D01*
X170225Y147858D01*
X169659Y148116D01*
X169111Y148423D01*
X168579Y148781D01*
X168062Y149193D01*
X167517Y149700D01*
X167439Y149729D01*
X139208Y177960D01*
Y180728D01*
X140478Y180980D01*
X141050Y179600D01*
X142900Y177190D01*
X145310Y175340D01*
X148118Y174177D01*
X149860Y173948D01*
Y185420D01*
Y196892D01*
X148118Y196663D01*
X145310Y195500D01*
X142900Y193650D01*
X141050Y191240D01*
X140478Y189860D01*
X139208Y190112D01*
Y207323D01*
X139242Y207398D01*
X139270Y208142D01*
X139344Y208799D01*
X139466Y209428D01*
X139637Y210033D01*
X139854Y210616D01*
X140121Y211179D01*
X140437Y211726D01*
X140806Y212258D01*
X141229Y212776D01*
X141747Y213322D01*
X141786Y213422D01*
X143355Y215467D01*
X144363Y217899D01*
X144494Y218900D01*
X144652Y219157D01*
X144775Y219925D01*
X144930Y220617D01*
X145123Y221281D01*
X145354Y221918D01*
X145624Y222529D01*
X145932Y223116D01*
X146279Y223679D01*
X146666Y224221D01*
X147094Y224743D01*
X147600Y225283D01*
X147630Y225361D01*
X166554Y244285D01*
X166636Y244317D01*
X167192Y244855D01*
X168220Y245440D01*
X169524D01*
X169747Y245347D01*
X169819Y245376D01*
X169893Y245353D01*
X170060Y245440D01*
X177220D01*
Y256497D01*
X177308Y256940D01*
X177220Y257383D01*
Y268440D01*
D02*
G37*
G36*
X210820Y268528D02*
X209064Y268179D01*
X207576Y267184D01*
X206581Y265696D01*
X206232Y263940D01*
Y249940D01*
X206581Y248184D01*
X207576Y246696D01*
X209064Y245701D01*
X210820Y245352D01*
X212576Y245701D01*
X214064Y246696D01*
X215031Y248142D01*
X236220D01*
X237976Y248491D01*
X239464Y249486D01*
X240459Y250974D01*
X240808Y252730D01*
X240459Y254486D01*
X239464Y255974D01*
X237976Y256969D01*
X236220Y257318D01*
X216931D01*
X215408Y258841D01*
Y263940D01*
X215059Y265696D01*
X214064Y267184D01*
X212576Y268179D01*
X210820Y268528D01*
D02*
G37*
G36*
X301460Y225598D02*
Y215900D01*
X311158D01*
X310946Y217512D01*
X309833Y220198D01*
X308064Y222504D01*
X305758Y224273D01*
X303072Y225386D01*
X301460Y225598D01*
D02*
G37*
G36*
X298920D02*
X297308Y225386D01*
X294622Y224273D01*
X292316Y222504D01*
X290547Y220198D01*
X289434Y217512D01*
X289222Y215900D01*
X298920D01*
Y225598D01*
D02*
G37*
G36*
X311158Y213360D02*
X301460D01*
Y203662D01*
X303072Y203874D01*
X305758Y204987D01*
X308064Y206756D01*
X309833Y209062D01*
X310946Y211748D01*
X311158Y213360D01*
D02*
G37*
G36*
X298920D02*
X289222D01*
X289434Y211748D01*
X290547Y209062D01*
X292316Y206756D01*
X294622Y204987D01*
X297308Y203874D01*
X298920Y203662D01*
Y213360D01*
D02*
G37*
G36*
X256540Y442356D02*
X253930Y442013D01*
X251497Y441005D01*
X249408Y439402D01*
X247805Y437313D01*
X246797Y434880D01*
X246454Y432270D01*
X246797Y429660D01*
X247805Y427227D01*
X249374Y425182D01*
X249413Y425082D01*
X249931Y424535D01*
X250354Y424018D01*
X250723Y423486D01*
X251039Y422939D01*
X251306Y422376D01*
X251523Y421793D01*
X251693Y421188D01*
X251816Y420559D01*
X251890Y419902D01*
X251917Y419158D01*
X251952Y419083D01*
Y381265D01*
X251919Y381195D01*
X251864Y380154D01*
X251722Y379350D01*
X251504Y378696D01*
X251224Y378177D01*
X250886Y377764D01*
X250473Y377425D01*
X249954Y377146D01*
X249300Y376928D01*
X248496Y376786D01*
X247455Y376731D01*
X247385Y376698D01*
X160490D01*
X158734Y376349D01*
X157246Y375354D01*
X149591Y367699D01*
X149513Y367670D01*
X148968Y367163D01*
X148450Y366751D01*
X147919Y366393D01*
X147371Y366086D01*
X146805Y365827D01*
X146218Y365617D01*
X145608Y365455D01*
X144971Y365339D01*
X144306Y365272D01*
X143553Y365253D01*
X143455Y365209D01*
X140899Y364873D01*
X138467Y363865D01*
X136378Y362262D01*
X134775Y360173D01*
X133767Y357741D01*
X133424Y355130D01*
X133615Y353679D01*
X133543Y353506D01*
X133579Y353420D01*
X133553Y353331D01*
X133584Y353036D01*
X133574Y352840D01*
X133524Y352592D01*
X133422Y352287D01*
X133257Y351929D01*
X133023Y351522D01*
X132730Y351091D01*
X131865Y350047D01*
X131327Y349485D01*
X131258Y349308D01*
X130381Y347996D01*
X130032Y346240D01*
Y333697D01*
X129998Y333622D01*
X129970Y332878D01*
X129896Y332221D01*
X129774Y331592D01*
X129603Y330987D01*
X129386Y330404D01*
X129119Y329841D01*
X128803Y329294D01*
X128434Y328762D01*
X128011Y328244D01*
X127493Y327698D01*
X127454Y327598D01*
X125885Y325553D01*
X124877Y323120D01*
X124534Y320510D01*
X124877Y317899D01*
X125885Y315467D01*
X127488Y313378D01*
X129577Y311775D01*
X132009Y310767D01*
X134620Y310424D01*
X137231Y310767D01*
X139663Y311775D01*
X141752Y313378D01*
X143355Y315467D01*
X144363Y317899D01*
X144706Y320510D01*
X144363Y323120D01*
X143355Y325553D01*
X141786Y327598D01*
X141747Y327698D01*
X141229Y328245D01*
X140806Y328762D01*
X140437Y329294D01*
X140121Y329841D01*
X139854Y330404D01*
X139637Y330987D01*
X139466Y331592D01*
X139344Y332221D01*
X139270Y332878D01*
X139242Y333622D01*
X139208Y333697D01*
Y344146D01*
X139452Y344337D01*
X139902Y344643D01*
X140309Y344877D01*
X140667Y345042D01*
X140971Y345144D01*
X141220Y345194D01*
X141417Y345204D01*
X141711Y345173D01*
X141800Y345199D01*
X141886Y345163D01*
X142059Y345235D01*
X143510Y345044D01*
X146121Y345387D01*
X148553Y346395D01*
X150642Y347998D01*
X152245Y350087D01*
X153253Y352519D01*
X153589Y355075D01*
X153633Y355173D01*
X153652Y355926D01*
X153719Y356591D01*
X153835Y357228D01*
X153997Y357838D01*
X154207Y358425D01*
X154466Y358991D01*
X154773Y359539D01*
X155132Y360071D01*
X155543Y360588D01*
X156050Y361133D01*
X156079Y361211D01*
X162390Y367522D01*
X249164D01*
X249239Y367487D01*
X250361Y367447D01*
X251385Y367334D01*
X252371Y367146D01*
X253320Y366884D01*
X254236Y366548D01*
X255121Y366138D01*
X255978Y365652D01*
X256807Y365088D01*
X257612Y364444D01*
X258434Y363679D01*
X258511Y363650D01*
X287512Y334650D01*
Y297980D01*
X287861Y296224D01*
X288856Y294736D01*
X372241Y211351D01*
X372270Y211273D01*
X372777Y210728D01*
X373189Y210210D01*
X373547Y209679D01*
X373854Y209131D01*
X374113Y208565D01*
X374323Y207978D01*
X374485Y207368D01*
X374601Y206731D01*
X374668Y206066D01*
X374687Y205313D01*
X374731Y205215D01*
X375067Y202659D01*
X376075Y200227D01*
X377678Y198138D01*
X379767Y196535D01*
X382200Y195527D01*
X384810Y195184D01*
X387421Y195527D01*
X389853Y196535D01*
X391942Y198138D01*
X393545Y200227D01*
X394553Y202659D01*
X394896Y205270D01*
X394553Y207880D01*
X393545Y210313D01*
X391942Y212402D01*
X389853Y214005D01*
X387421Y215013D01*
X384865Y215349D01*
X384767Y215393D01*
X384014Y215412D01*
X383349Y215479D01*
X382712Y215595D01*
X382102Y215757D01*
X381515Y215968D01*
X380949Y216226D01*
X380401Y216533D01*
X379869Y216891D01*
X379352Y217303D01*
X378807Y217810D01*
X378729Y217839D01*
X296688Y299881D01*
Y336550D01*
X296339Y338306D01*
X295344Y339794D01*
X265000Y370139D01*
X264971Y370216D01*
X264206Y371038D01*
X263563Y371842D01*
X262999Y372672D01*
X262512Y373529D01*
X262102Y374414D01*
X261766Y375330D01*
X261504Y376279D01*
X261316Y377265D01*
X261203Y378289D01*
X261162Y379411D01*
X261128Y379486D01*
Y419083D01*
X261162Y419158D01*
X261190Y419902D01*
X261264Y420559D01*
X261387Y421188D01*
X261557Y421793D01*
X261774Y422376D01*
X262041Y422939D01*
X262357Y423486D01*
X262726Y424018D01*
X263149Y424536D01*
X263667Y425082D01*
X263706Y425182D01*
X265275Y427227D01*
X266283Y429660D01*
X266626Y432270D01*
X266283Y434880D01*
X265275Y437313D01*
X263672Y439402D01*
X261583Y441005D01*
X259151Y442013D01*
X256540Y442356D01*
D02*
G37*
G36*
X152400Y196892D02*
Y186690D01*
X162602D01*
X162373Y188433D01*
X161210Y191240D01*
X159360Y193650D01*
X156950Y195500D01*
X154143Y196663D01*
X152400Y196892D01*
D02*
G37*
G36*
X185420Y268528D02*
X183664Y268179D01*
X182176Y267184D01*
X181181Y265696D01*
X180832Y263940D01*
Y256940D01*
Y249940D01*
Y233041D01*
X173286Y225494D01*
X172291Y224006D01*
X171942Y222250D01*
Y200510D01*
X171907Y200432D01*
X171878Y199336D01*
X171798Y198423D01*
X171671Y197658D01*
X171508Y197048D01*
X171325Y196599D01*
X171147Y196306D01*
X170997Y196144D01*
X170875Y196062D01*
X170738Y196014D01*
X170359Y195974D01*
X170261Y195920D01*
X166030D01*
Y174920D01*
X187030D01*
Y195920D01*
X182799D01*
X182701Y195974D01*
X182322Y196014D01*
X182185Y196062D01*
X182063Y196144D01*
X181913Y196306D01*
X181735Y196599D01*
X181552Y197048D01*
X181389Y197658D01*
X181262Y198423D01*
X181182Y199336D01*
X181153Y200432D01*
X181118Y200510D01*
Y220350D01*
X188664Y227896D01*
X189659Y229384D01*
X190008Y231140D01*
Y256940D01*
Y263940D01*
X189659Y265696D01*
X188664Y267184D01*
X187176Y268179D01*
X185420Y268528D01*
D02*
G37*
G36*
X162602Y184150D02*
X152400D01*
Y173948D01*
X154143Y174177D01*
X156950Y175340D01*
X159360Y177190D01*
X161210Y179600D01*
X162373Y182407D01*
X162602Y184150D01*
D02*
G37*
G36*
X316230Y130968D02*
Y121270D01*
X325928D01*
X325716Y122882D01*
X324603Y125568D01*
X322834Y127874D01*
X320528Y129643D01*
X317842Y130756D01*
X316230Y130968D01*
D02*
G37*
G36*
X129540D02*
Y121270D01*
X139238D01*
X139026Y122882D01*
X137913Y125568D01*
X136144Y127874D01*
X133838Y129643D01*
X131152Y130756D01*
X129540Y130968D01*
D02*
G37*
G36*
X313690D02*
X312078Y130756D01*
X309392Y129643D01*
X307086Y127874D01*
X305317Y125568D01*
X304204Y122882D01*
X303992Y121270D01*
X313690D01*
Y130968D01*
D02*
G37*
G36*
X127000D02*
X125388Y130756D01*
X122702Y129643D01*
X120396Y127874D01*
X118627Y125568D01*
X117514Y122882D01*
X117302Y121270D01*
X127000D01*
Y130968D01*
D02*
G37*
G36*
X325928Y118730D02*
X316230D01*
Y109032D01*
X317842Y109244D01*
X320528Y110357D01*
X322834Y112126D01*
X324603Y114432D01*
X325716Y117118D01*
X325928Y118730D01*
D02*
G37*
G36*
X139238D02*
X129540D01*
Y109032D01*
X131152Y109244D01*
X133838Y110357D01*
X136144Y112126D01*
X137913Y114432D01*
X139026Y117118D01*
X139238Y118730D01*
D02*
G37*
G36*
X313690D02*
X303992D01*
X304204Y117118D01*
X305317Y114432D01*
X307086Y112126D01*
X309392Y110357D01*
X312078Y109244D01*
X313690Y109032D01*
Y118730D01*
D02*
G37*
G36*
X127000D02*
X117302D01*
X117514Y117118D01*
X118627Y114432D01*
X120396Y112126D01*
X122702Y110357D01*
X125388Y109244D01*
X127000Y109032D01*
Y118730D01*
D02*
G37*
G36*
X51270Y99898D02*
Y86670D01*
X64498D01*
X64166Y89196D01*
X62701Y92733D01*
X60370Y95770D01*
X57333Y98101D01*
X53796Y99566D01*
X51270Y99898D01*
D02*
G37*
G36*
X48730D02*
X46204Y99566D01*
X42667Y98101D01*
X39630Y95770D01*
X37299Y92733D01*
X35834Y89196D01*
X35502Y86670D01*
X48730D01*
Y99898D01*
D02*
G37*
G36*
X414540Y99940D02*
X401270D01*
Y86670D01*
X414540D01*
Y99940D01*
D02*
G37*
G36*
X398730D02*
X385460D01*
Y86670D01*
X398730D01*
Y99940D01*
D02*
G37*
G36*
X64498Y84130D02*
X51270D01*
Y70902D01*
X53796Y71234D01*
X57333Y72699D01*
X60370Y75030D01*
X62701Y78067D01*
X64166Y81604D01*
X64498Y84130D01*
D02*
G37*
G36*
X48730D02*
X35502D01*
X35834Y81604D01*
X37299Y78067D01*
X39630Y75030D01*
X42667Y72699D01*
X46204Y71234D01*
X48730Y70902D01*
Y84130D01*
D02*
G37*
G36*
X414540Y84130D02*
X401270D01*
Y70860D01*
X414540D01*
Y84130D01*
D02*
G37*
G36*
X398730D02*
X385460D01*
Y70860D01*
X398730D01*
Y84130D01*
D02*
G37*
G36*
X198120Y268528D02*
X196364Y268179D01*
X194876Y267184D01*
X193881Y265696D01*
X193532Y263940D01*
Y256940D01*
Y249940D01*
Y240030D01*
X193881Y238274D01*
X194876Y236786D01*
X195602Y236059D01*
Y228740D01*
X195567Y228659D01*
X195537Y226966D01*
X195466Y226341D01*
X195343Y225712D01*
X195173Y225107D01*
X194956Y224524D01*
X194689Y223961D01*
X194373Y223414D01*
X194004Y222882D01*
X193581Y222364D01*
X193063Y221818D01*
X193024Y221718D01*
X191455Y219673D01*
X190447Y217241D01*
X190104Y214630D01*
X190447Y212020D01*
X191455Y209587D01*
X192940Y207651D01*
X192970Y207548D01*
X193055Y207442D01*
X193095Y207365D01*
X193174Y207150D01*
X193263Y206809D01*
X193340Y206405D01*
X193557Y203541D01*
X193566Y202640D01*
X193634Y202482D01*
Y129246D01*
X123634Y59246D01*
X122592Y57888D01*
X121937Y56307D01*
X121714Y54610D01*
Y32161D01*
X121647Y32008D01*
X121610Y30225D01*
X121503Y28813D01*
X121429Y28273D01*
X121343Y27821D01*
X121254Y27480D01*
X121175Y27264D01*
X121135Y27188D01*
X121111Y27159D01*
X121082Y27135D01*
X121005Y27095D01*
X120790Y27016D01*
X120449Y26927D01*
X120045Y26850D01*
X117181Y26632D01*
X116280Y26623D01*
X116122Y26556D01*
X67316D01*
X63500Y30372D01*
Y48100D01*
X36500D01*
Y21100D01*
X54228D01*
X59964Y15364D01*
X61322Y14322D01*
X62903Y13667D01*
X64600Y13444D01*
X116109D01*
X116262Y13377D01*
X118045Y13340D01*
X119457Y13233D01*
X119997Y13159D01*
X120449Y13074D01*
X120790Y12984D01*
X121005Y12905D01*
X121082Y12865D01*
X121188Y12780D01*
X121291Y12750D01*
X123227Y11265D01*
X125660Y10257D01*
X128270Y9914D01*
X130880Y10257D01*
X133313Y11265D01*
X135249Y12750D01*
X135352Y12780D01*
X135458Y12865D01*
X135534Y12905D01*
X135750Y12984D01*
X136091Y13074D01*
X136495Y13150D01*
X139359Y13368D01*
X140260Y13376D01*
X140418Y13444D01*
X302799D01*
X302952Y13377D01*
X304735Y13340D01*
X306147Y13233D01*
X306687Y13159D01*
X307139Y13074D01*
X307480Y12984D01*
X307696Y12905D01*
X307772Y12865D01*
X307878Y12780D01*
X307981Y12750D01*
X309917Y11265D01*
X312349Y10257D01*
X314960Y9914D01*
X317570Y10257D01*
X320003Y11265D01*
X321939Y12750D01*
X322042Y12780D01*
X322148Y12865D01*
X322225Y12905D01*
X322440Y12984D01*
X322781Y13074D01*
X323185Y13150D01*
X326049Y13368D01*
X326950Y13376D01*
X327108Y13444D01*
X385400D01*
X387097Y13667D01*
X388678Y14322D01*
X390036Y15364D01*
X391693Y17021D01*
X391846Y17080D01*
X392692Y17880D01*
X393503Y18559D01*
X394309Y19149D01*
X395111Y19652D01*
X395908Y20071D01*
X396700Y20407D01*
X397489Y20663D01*
X398277Y20842D01*
X399067Y20946D01*
X399940Y20978D01*
X399962Y20989D01*
X400000Y20984D01*
X403524Y21448D01*
X406808Y22808D01*
X409628Y24972D01*
X411792Y27792D01*
X413153Y31076D01*
X413616Y34600D01*
X413153Y38124D01*
X411792Y41408D01*
X409628Y44228D01*
X406808Y46392D01*
X403524Y47752D01*
X400000Y48217D01*
X396476Y47752D01*
X393192Y46392D01*
X390372Y44228D01*
X388208Y41408D01*
X386847Y38124D01*
X386384Y34600D01*
X386389Y34562D01*
X386378Y34540D01*
X386346Y33667D01*
X386242Y32877D01*
X386063Y32089D01*
X385807Y31300D01*
X385471Y30508D01*
X385052Y29711D01*
X384549Y28909D01*
X383959Y28103D01*
X383279Y27292D01*
X382584Y26556D01*
X327121D01*
X326968Y26623D01*
X325185Y26660D01*
X323773Y26767D01*
X323233Y26841D01*
X322781Y26927D01*
X322440Y27016D01*
X322225Y27095D01*
X322148Y27135D01*
X322042Y27220D01*
X321939Y27250D01*
X320003Y28735D01*
X317570Y29743D01*
X314960Y30086D01*
X312349Y29743D01*
X309917Y28735D01*
X307981Y27250D01*
X307878Y27220D01*
X307772Y27135D01*
X307696Y27095D01*
X307480Y27016D01*
X307139Y26927D01*
X306735Y26850D01*
X303871Y26632D01*
X302970Y26623D01*
X302812Y26556D01*
X140431D01*
X140278Y26623D01*
X138495Y26660D01*
X137083Y26767D01*
X136543Y26841D01*
X136091Y26927D01*
X135750Y27016D01*
X135534Y27095D01*
X135458Y27135D01*
X135429Y27159D01*
X135405Y27188D01*
X135365Y27264D01*
X135286Y27480D01*
X135197Y27821D01*
X135120Y28225D01*
X134902Y31089D01*
X134894Y31990D01*
X134826Y32148D01*
Y51894D01*
X204826Y121894D01*
X205868Y123252D01*
X206523Y124833D01*
X206746Y126530D01*
Y202469D01*
X206813Y202622D01*
X206850Y204405D01*
X206957Y205817D01*
X207031Y206357D01*
X207117Y206809D01*
X207206Y207150D01*
X207285Y207365D01*
X207325Y207442D01*
X207410Y207548D01*
X207440Y207651D01*
X208925Y209587D01*
X209933Y212020D01*
X210276Y214630D01*
X209933Y217241D01*
X208925Y219673D01*
X207356Y221718D01*
X207317Y221818D01*
X206799Y222365D01*
X206376Y222882D01*
X206007Y223414D01*
X205691Y223960D01*
X205424Y224524D01*
X205207Y225107D01*
X205037Y225712D01*
X204940Y226206D01*
X204811Y228713D01*
X204778Y228783D01*
Y237960D01*
X204429Y239716D01*
X203434Y241204D01*
X202708Y241931D01*
Y256940D01*
Y263940D01*
X202359Y265696D01*
X201364Y267184D01*
X199876Y268179D01*
X198120Y268528D01*
D02*
G37*
%LPD*%
G36*
X319050Y449180D02*
X318459Y449740D01*
X317845Y450242D01*
X317207Y450685D01*
X316545Y451068D01*
X315858Y451393D01*
X315148Y451658D01*
X314414Y451865D01*
X313655Y452012D01*
X312873Y452100D01*
X312067Y452130D01*
Y458130D01*
X312873Y458159D01*
X313655Y458248D01*
X314414Y458396D01*
X315148Y458602D01*
X315858Y458867D01*
X316545Y459192D01*
X317207Y459576D01*
X317845Y460018D01*
X318459Y460519D01*
X319050Y461080D01*
Y449180D01*
D02*
G37*
G36*
X209860Y460519D02*
X210475Y460018D01*
X211113Y459576D01*
X211775Y459192D01*
X212462Y458867D01*
X213172Y458602D01*
X213906Y458396D01*
X214664Y458248D01*
X215447Y458159D01*
X216253Y458130D01*
Y452130D01*
X215447Y452100D01*
X214664Y452012D01*
X213906Y451865D01*
X213172Y451658D01*
X212462Y451393D01*
X211775Y451068D01*
X211113Y450685D01*
X210475Y450242D01*
X209860Y449740D01*
X209270Y449180D01*
Y461080D01*
X209860Y460519D01*
D02*
G37*
G36*
X197130Y449180D02*
X196539Y449740D01*
X195925Y450242D01*
X195287Y450685D01*
X194625Y451068D01*
X193938Y451393D01*
X193228Y451658D01*
X192494Y451865D01*
X191735Y452012D01*
X190953Y452100D01*
X190147Y452130D01*
Y458130D01*
X190953Y458159D01*
X191735Y458248D01*
X192494Y458396D01*
X193228Y458602D01*
X193938Y458867D01*
X194625Y459192D01*
X195287Y459576D01*
X195925Y460018D01*
X196539Y460519D01*
X197130Y461080D01*
Y449180D01*
D02*
G37*
G36*
X150170Y460519D02*
X150785Y460018D01*
X151423Y459576D01*
X152085Y459192D01*
X152772Y458867D01*
X153482Y458602D01*
X154216Y458396D01*
X154974Y458248D01*
X155757Y458159D01*
X156563Y458130D01*
Y452130D01*
X155757Y452100D01*
X154974Y452012D01*
X154216Y451865D01*
X153482Y451658D01*
X152772Y451393D01*
X152085Y451068D01*
X151423Y450685D01*
X150785Y450242D01*
X150170Y449740D01*
X149580Y449180D01*
Y461080D01*
X150170Y460519D01*
D02*
G37*
G36*
X330509Y448470D02*
X330008Y447855D01*
X329566Y447217D01*
X329182Y446555D01*
X328857Y445868D01*
X328592Y445158D01*
X328386Y444424D01*
X328238Y443666D01*
X328149Y442883D01*
X328120Y442077D01*
X322120D01*
X322090Y442883D01*
X322002Y443666D01*
X321855Y444424D01*
X321648Y445158D01*
X321382Y445868D01*
X321058Y446555D01*
X320675Y447217D01*
X320232Y447855D01*
X319730Y448470D01*
X319170Y449060D01*
X331070D01*
X330509Y448470D01*
D02*
G37*
G36*
X414506Y255126D02*
X415126Y254639D01*
X415768Y254217D01*
X416433Y253861D01*
X417120Y253571D01*
X417830Y253347D01*
X418562Y253189D01*
X419317Y253096D01*
X420094Y253069D01*
X420894Y253107D01*
X413159Y244064D01*
X413077Y244883D01*
X412943Y245676D01*
X412758Y246444D01*
X412522Y247185D01*
X412233Y247899D01*
X411894Y248588D01*
X411503Y249251D01*
X411060Y249887D01*
X410566Y250498D01*
X410021Y251082D01*
X413909Y255679D01*
X414506Y255126D01*
D02*
G37*
G36*
X396516Y453430D02*
X396049Y453770D01*
X395498Y453940D01*
X394861D01*
X394140Y453770D01*
X393334Y453430D01*
X392443Y452921D01*
X391467Y452243D01*
X390406Y451394D01*
X388031Y449188D01*
X383788Y453430D01*
X384976Y454661D01*
X386842Y456867D01*
X387521Y457843D01*
X388031Y458734D01*
X388370Y459540D01*
X388540Y460261D01*
Y460897D01*
X388370Y461449D01*
X388031Y461916D01*
X396516Y453430D01*
D02*
G37*
G36*
X387840Y317517D02*
X387928Y316735D01*
X388075Y315976D01*
X388282Y315242D01*
X388548Y314532D01*
X388872Y313845D01*
X389255Y313183D01*
X389698Y312545D01*
X390200Y311931D01*
X390760Y311340D01*
X378860D01*
X379421Y311931D01*
X379922Y312545D01*
X380364Y313183D01*
X380748Y313845D01*
X381073Y314532D01*
X381338Y315242D01*
X381544Y315976D01*
X381692Y316735D01*
X381781Y317517D01*
X381810Y318323D01*
X387810D01*
X387840Y317517D01*
D02*
G37*
G36*
X46516Y392631D02*
X46049Y392970D01*
X45497Y393140D01*
X44861D01*
X44140Y392970D01*
X43334Y392631D01*
X42443Y392121D01*
X41467Y391442D01*
X40406Y390594D01*
X38031Y388388D01*
X33788Y392631D01*
X34976Y393861D01*
X36843Y396067D01*
X37521Y397043D01*
X38031Y397934D01*
X38370Y398740D01*
X38540Y399461D01*
Y400098D01*
X38370Y400649D01*
X38031Y401116D01*
X46516Y392631D01*
D02*
G37*
G36*
X30970Y334027D02*
X31058Y333245D01*
X31205Y332486D01*
X31412Y331752D01*
X31677Y331042D01*
X32002Y330355D01*
X32385Y329693D01*
X32828Y329055D01*
X33330Y328441D01*
X33890Y327850D01*
X21990D01*
X22550Y328441D01*
X23052Y329055D01*
X23495Y329693D01*
X23878Y330355D01*
X24202Y331042D01*
X24468Y331752D01*
X24674Y332486D01*
X24822Y333245D01*
X24911Y334027D01*
X24940Y334833D01*
X30940D01*
X30970Y334027D01*
D02*
G37*
G36*
X407374Y404975D02*
X405646Y402885D01*
X404944Y401850D01*
X404350Y400821D01*
X403864Y399800D01*
X403486Y398785D01*
X403216Y397777D01*
X403054Y396776D01*
X403000Y395781D01*
X397000D01*
X396946Y396776D01*
X396784Y397777D01*
X396514Y398785D01*
X396136Y399800D01*
X395650Y400821D01*
X395056Y401850D01*
X394354Y402885D01*
X393544Y403927D01*
X392626Y404975D01*
X391600Y406030D01*
X408400D01*
X407374Y404975D01*
D02*
G37*
G36*
X415122Y355442D02*
X415738Y354951D01*
X416379Y354520D01*
X417044Y354146D01*
X417734Y353832D01*
X418448Y353576D01*
X419188Y353379D01*
X419952Y353240D01*
X420741Y353161D01*
X421555Y353140D01*
X413140Y344725D01*
X413119Y345539D01*
X413040Y346328D01*
X412901Y347092D01*
X412704Y347831D01*
X412448Y348546D01*
X412134Y349236D01*
X411760Y349901D01*
X411329Y350542D01*
X410838Y351158D01*
X410289Y351749D01*
X414532Y355991D01*
X415122Y355442D01*
D02*
G37*
G36*
X261929Y325610D02*
X261428Y324995D01*
X260986Y324357D01*
X260602Y323695D01*
X260278Y323008D01*
X260012Y322298D01*
X259806Y321564D01*
X259658Y320806D01*
X259569Y320023D01*
X259540Y319217D01*
X253540D01*
X253510Y320023D01*
X253422Y320806D01*
X253274Y321564D01*
X253068Y322298D01*
X252803Y323008D01*
X252478Y323695D01*
X252094Y324357D01*
X251652Y324995D01*
X251150Y325610D01*
X250590Y326200D01*
X262490D01*
X261929Y325610D01*
D02*
G37*
G36*
X213845Y312370D02*
X214026Y311860D01*
X214327Y311410D01*
X214750Y311020D01*
X215292Y310690D01*
X215956Y310420D01*
X216740Y310210D01*
X217644Y310060D01*
X218669Y309970D01*
X219815Y309940D01*
Y303940D01*
X218669Y303910D01*
X217644Y303820D01*
X216740Y303670D01*
X215956Y303460D01*
X215292Y303190D01*
X214750Y302860D01*
X214327Y302470D01*
X214026Y302020D01*
X213845Y301510D01*
X213785Y300940D01*
Y312940D01*
X213845Y312370D01*
D02*
G37*
G36*
X276549Y149407D02*
X276638Y148624D01*
X276786Y147866D01*
X276992Y147132D01*
X277257Y146422D01*
X277582Y145735D01*
X277966Y145073D01*
X278408Y144435D01*
X278909Y143820D01*
X279470Y143230D01*
X267570D01*
X268130Y143820D01*
X268632Y144435D01*
X269074Y145073D01*
X269458Y145735D01*
X269783Y146422D01*
X270048Y147132D01*
X270254Y147866D01*
X270402Y148624D01*
X270490Y149407D01*
X270520Y150213D01*
X276520D01*
X276549Y149407D01*
D02*
G37*
G36*
X62020Y453808D02*
X62276Y451108D01*
X62512Y449880D01*
X62819Y448733D01*
X63197Y447667D01*
X63648Y446682D01*
X64170Y445778D01*
X64763Y444956D01*
X65428Y444214D01*
X61186Y439972D01*
X60444Y440637D01*
X59622Y441230D01*
X58718Y441752D01*
X57733Y442202D01*
X56667Y442581D01*
X55520Y442888D01*
X54292Y443124D01*
X52982Y443288D01*
X51592Y443380D01*
X50120Y443401D01*
X61999Y455280D01*
X62020Y453808D01*
D02*
G37*
G36*
X83040Y332757D02*
X83128Y331974D01*
X83275Y331216D01*
X83482Y330482D01*
X83748Y329772D01*
X84072Y329085D01*
X84455Y328423D01*
X84898Y327785D01*
X85400Y327170D01*
X85960Y326580D01*
X74060D01*
X74620Y327170D01*
X75122Y327785D01*
X75564Y328423D01*
X75948Y329085D01*
X76273Y329772D01*
X76538Y330482D01*
X76744Y331216D01*
X76892Y331974D01*
X76981Y332757D01*
X77010Y333563D01*
X83010D01*
X83040Y332757D01*
D02*
G37*
G36*
X203115Y346630D02*
X202301Y346609D01*
X201512Y346530D01*
X200748Y346391D01*
X200009Y346194D01*
X199294Y345938D01*
X198604Y345624D01*
X197939Y345251D01*
X197298Y344819D01*
X196682Y344328D01*
X196091Y343779D01*
X191849Y348022D01*
X192398Y348612D01*
X192889Y349228D01*
X193321Y349869D01*
X193694Y350534D01*
X194008Y351224D01*
X194264Y351939D01*
X194461Y352678D01*
X194600Y353442D01*
X194679Y354231D01*
X194700Y355045D01*
X203115Y346630D01*
D02*
G37*
G36*
X175780Y292340D02*
X175960Y291320D01*
X176260Y290420D01*
X176680Y289640D01*
X177220Y288980D01*
X177880Y288440D01*
X178660Y288020D01*
X179560Y287720D01*
X180580Y287540D01*
X181720Y287480D01*
X172720Y281480D01*
X163720Y287480D01*
X164860Y287540D01*
X165880Y287720D01*
X166780Y288020D01*
X167560Y288440D01*
X168220Y288980D01*
X168760Y289640D01*
X169180Y290420D01*
X169480Y291320D01*
X169660Y292340D01*
X169720Y293480D01*
X175720D01*
X175780Y292340D01*
D02*
G37*
G36*
X246190Y278530D02*
X245599Y279090D01*
X244985Y279592D01*
X244347Y280035D01*
X243685Y280418D01*
X242998Y280742D01*
X242288Y281008D01*
X241554Y281215D01*
X240795Y281362D01*
X240013Y281451D01*
X239207Y281480D01*
Y287480D01*
X240013Y287509D01*
X240795Y287598D01*
X241554Y287745D01*
X242288Y287952D01*
X242998Y288218D01*
X243685Y288542D01*
X244347Y288925D01*
X244985Y289368D01*
X245599Y289869D01*
X246190Y290430D01*
Y278530D01*
D02*
G37*
G36*
X39291Y228888D02*
X38742Y228298D01*
X38251Y227682D01*
X37819Y227041D01*
X37446Y226376D01*
X37132Y225686D01*
X36876Y224972D01*
X36679Y224232D01*
X36540Y223468D01*
X36461Y222679D01*
X36440Y221865D01*
X28025Y230280D01*
X28839Y230301D01*
X29628Y230380D01*
X30392Y230519D01*
X31131Y230716D01*
X31846Y230972D01*
X32536Y231286D01*
X33201Y231660D01*
X33842Y232091D01*
X34458Y232582D01*
X35048Y233131D01*
X39291Y228888D01*
D02*
G37*
G36*
X330509Y348470D02*
X330008Y347855D01*
X329566Y347217D01*
X329182Y346555D01*
X328857Y345868D01*
X328592Y345158D01*
X328386Y344424D01*
X328238Y343666D01*
X328149Y342883D01*
X328120Y342077D01*
X322120D01*
X322090Y342883D01*
X322002Y343666D01*
X321855Y344424D01*
X321648Y345158D01*
X321382Y345868D01*
X321058Y346555D01*
X320675Y347217D01*
X320232Y347855D01*
X319730Y348470D01*
X319170Y349060D01*
X331070D01*
X330509Y348470D01*
D02*
G37*
G36*
X345742Y295282D02*
X346358Y294791D01*
X346999Y294359D01*
X347664Y293986D01*
X348354Y293672D01*
X349068Y293416D01*
X349808Y293219D01*
X350572Y293080D01*
X351361Y293001D01*
X352175Y292980D01*
X343760Y284565D01*
X343739Y285379D01*
X343660Y286168D01*
X343521Y286932D01*
X343324Y287672D01*
X343068Y288386D01*
X342754Y289076D01*
X342380Y289741D01*
X341949Y290382D01*
X341458Y290998D01*
X340909Y291588D01*
X345151Y295831D01*
X345742Y295282D01*
D02*
G37*
G36*
X169750Y246971D02*
X169708Y247452D01*
X169581Y247793D01*
X169369Y247995D01*
X169072Y248056D01*
X168690Y247978D01*
X168223Y247759D01*
X167672Y247401D01*
X167035Y246902D01*
X166314Y246264D01*
X165508Y245485D01*
Y253971D01*
X166318Y254823D01*
X167043Y255675D01*
X167684Y256525D01*
X168239Y257375D01*
X168708Y258224D01*
X169093Y259072D01*
X169393Y259919D01*
X169607Y260766D01*
X169737Y261611D01*
X169781Y262456D01*
X169750Y246971D01*
D02*
G37*
G36*
X146416Y226393D02*
X145873Y225814D01*
X145377Y225209D01*
X144926Y224578D01*
X144520Y223920D01*
X144161Y223235D01*
X143847Y222524D01*
X143579Y221786D01*
X143357Y221022D01*
X143180Y220231D01*
X143049Y219413D01*
X135885Y228915D01*
X136669Y228831D01*
X137432Y228818D01*
X138176Y228877D01*
X138899Y229006D01*
X139602Y229206D01*
X140284Y229478D01*
X140946Y229820D01*
X141588Y230233D01*
X142210Y230718D01*
X142811Y231274D01*
X146416Y226393D01*
D02*
G37*
G36*
X128550Y214560D02*
X127959Y215121D01*
X127345Y215622D01*
X126707Y216064D01*
X126045Y216448D01*
X125358Y216772D01*
X124648Y217038D01*
X123914Y217244D01*
X123155Y217392D01*
X122373Y217481D01*
X121567Y217510D01*
Y223510D01*
X122373Y223540D01*
X123155Y223628D01*
X123914Y223776D01*
X124648Y223982D01*
X125358Y224247D01*
X126045Y224572D01*
X126707Y224956D01*
X127345Y225398D01*
X127959Y225900D01*
X128550Y226460D01*
Y214560D01*
D02*
G37*
G36*
X86671Y225900D02*
X87285Y225398D01*
X87923Y224956D01*
X88585Y224572D01*
X89272Y224247D01*
X89982Y223982D01*
X90716Y223776D01*
X91475Y223628D01*
X92257Y223540D01*
X93063Y223510D01*
Y217510D01*
X92257Y217481D01*
X91475Y217392D01*
X90716Y217244D01*
X89982Y217038D01*
X89272Y216772D01*
X88585Y216448D01*
X87923Y216064D01*
X87285Y215622D01*
X86671Y215121D01*
X86080Y214560D01*
Y226460D01*
X86671Y225900D01*
D02*
G37*
G36*
X140009Y213850D02*
X139508Y213235D01*
X139066Y212597D01*
X138682Y211935D01*
X138357Y211248D01*
X138092Y210538D01*
X137886Y209804D01*
X137738Y209046D01*
X137649Y208263D01*
X137620Y207457D01*
X131620D01*
X131590Y208263D01*
X131502Y209046D01*
X131355Y209804D01*
X131148Y210538D01*
X130883Y211248D01*
X130558Y211935D01*
X130175Y212597D01*
X129732Y213235D01*
X129230Y213850D01*
X128670Y214440D01*
X140570D01*
X140009Y213850D01*
D02*
G37*
G36*
X167002Y147962D02*
X167618Y147471D01*
X168259Y147039D01*
X168924Y146666D01*
X169614Y146352D01*
X170329Y146096D01*
X171068Y145899D01*
X171832Y145760D01*
X172621Y145681D01*
X173435Y145660D01*
X165020Y137245D01*
X164999Y138059D01*
X164920Y138848D01*
X164781Y139612D01*
X164584Y140351D01*
X164328Y141066D01*
X164014Y141756D01*
X163640Y142421D01*
X163209Y143062D01*
X162718Y143678D01*
X162169Y144269D01*
X166411Y148511D01*
X167002Y147962D01*
D02*
G37*
G36*
X261929Y425610D02*
X261428Y424995D01*
X260986Y424357D01*
X260602Y423695D01*
X260278Y423008D01*
X260012Y422298D01*
X259806Y421564D01*
X259658Y420806D01*
X259569Y420023D01*
X259540Y419217D01*
X253540D01*
X253510Y420023D01*
X253422Y420806D01*
X253274Y421564D01*
X253068Y422298D01*
X252803Y423008D01*
X252478Y423695D01*
X252094Y424357D01*
X251652Y424995D01*
X251150Y425610D01*
X250590Y426200D01*
X262490D01*
X261929Y425610D01*
D02*
G37*
G36*
X259540Y379353D02*
X259582Y378170D01*
X259710Y377023D01*
X259922Y375911D01*
X260219Y374834D01*
X260601Y373792D01*
X261067Y372785D01*
X261619Y371814D01*
X262255Y370877D01*
X262976Y369976D01*
X263783Y369110D01*
X259540Y364867D01*
X258674Y365673D01*
X257773Y366395D01*
X256836Y367031D01*
X255865Y367583D01*
X254858Y368049D01*
X253816Y368431D01*
X252739Y368728D01*
X251627Y368940D01*
X250480Y369068D01*
X249297Y369110D01*
X247540Y375110D01*
X248680Y375170D01*
X249700Y375350D01*
X250600Y375650D01*
X251380Y376070D01*
X252040Y376610D01*
X252580Y377270D01*
X253000Y378050D01*
X253300Y378950D01*
X253480Y379970D01*
X253540Y381110D01*
X259540Y379353D01*
D02*
G37*
G36*
X154861Y362239D02*
X154312Y361648D01*
X153821Y361032D01*
X153390Y360391D01*
X153016Y359726D01*
X152702Y359036D01*
X152446Y358321D01*
X152249Y357582D01*
X152110Y356818D01*
X152031Y356029D01*
X152010Y355215D01*
X143595Y363630D01*
X144409Y363651D01*
X145198Y363730D01*
X145962Y363869D01*
X146701Y364066D01*
X147416Y364322D01*
X148106Y364636D01*
X148771Y365009D01*
X149412Y365441D01*
X150028Y365932D01*
X150618Y366481D01*
X154861Y362239D01*
D02*
G37*
G36*
X141886Y346787D02*
X141461Y346833D01*
X141017Y346809D01*
X140552Y346716D01*
X140068Y346553D01*
X139563Y346321D01*
X139039Y346020D01*
X138494Y345649D01*
X137930Y345208D01*
X137346Y344698D01*
X136741Y344119D01*
X132499Y348361D01*
X133078Y348966D01*
X134029Y350114D01*
X134400Y350659D01*
X134701Y351183D01*
X134934Y351688D01*
X135096Y352172D01*
X135189Y352637D01*
X135213Y353081D01*
X135167Y353506D01*
X141886Y346787D01*
D02*
G37*
G36*
X137649Y332757D02*
X137738Y331974D01*
X137886Y331216D01*
X138092Y330482D01*
X138357Y329772D01*
X138682Y329085D01*
X139066Y328423D01*
X139508Y327785D01*
X140009Y327170D01*
X140570Y326580D01*
X128670D01*
X129230Y327170D01*
X129732Y327785D01*
X130175Y328423D01*
X130558Y329085D01*
X130883Y329772D01*
X131148Y330482D01*
X131355Y331216D01*
X131502Y331974D01*
X131590Y332757D01*
X131620Y333563D01*
X137620D01*
X137649Y332757D01*
D02*
G37*
G36*
X378292Y216072D02*
X378908Y215581D01*
X379549Y215149D01*
X380214Y214776D01*
X380904Y214462D01*
X381618Y214206D01*
X382358Y214009D01*
X383122Y213870D01*
X383911Y213791D01*
X384725Y213770D01*
X376310Y205355D01*
X376289Y206169D01*
X376210Y206958D01*
X376071Y207722D01*
X375874Y208461D01*
X375618Y209176D01*
X375304Y209866D01*
X374930Y210531D01*
X374499Y211172D01*
X374008Y211788D01*
X373459Y212379D01*
X377701Y216621D01*
X378292Y216072D01*
D02*
G37*
G36*
X179560Y199244D02*
X179650Y198218D01*
X179800Y197314D01*
X180010Y196530D01*
X180280Y195867D01*
X180610Y195324D01*
X181000Y194902D01*
X181450Y194600D01*
X181960Y194419D01*
X182530Y194359D01*
X170530D01*
X171100Y194419D01*
X171610Y194600D01*
X172060Y194902D01*
X172450Y195324D01*
X172780Y195867D01*
X173050Y196530D01*
X173260Y197314D01*
X173410Y198218D01*
X173500Y199244D01*
X173530Y200389D01*
X179530D01*
X179560Y199244D01*
D02*
G37*
G36*
X203325Y226009D02*
X203456Y225336D01*
X203662Y224602D01*
X203927Y223892D01*
X204252Y223205D01*
X204636Y222543D01*
X205078Y221905D01*
X205579Y221290D01*
X206140Y220700D01*
X203597D01*
X203728Y218163D01*
X196652D01*
X196754Y218365D01*
X196846Y218754D01*
X196926Y219331D01*
X197029Y220700D01*
X194240D01*
X194800Y221290D01*
X195302Y221905D01*
X195744Y222543D01*
X196128Y223205D01*
X196453Y223892D01*
X196718Y224602D01*
X196924Y225336D01*
X197072Y226094D01*
X197159Y226860D01*
X197190Y228630D01*
X203190D01*
X203325Y226009D01*
D02*
G37*
G36*
X205959Y208333D02*
X205798Y208026D01*
X205655Y207637D01*
X205532Y207168D01*
X205427Y206618D01*
X205342Y205987D01*
X205228Y204484D01*
X205190Y202656D01*
X195190D01*
X195180Y203610D01*
X194953Y206618D01*
X194848Y207168D01*
X194725Y207637D01*
X194582Y208026D01*
X194421Y208333D01*
X194240Y208560D01*
X206140D01*
X205959Y208333D01*
D02*
G37*
G36*
X133279Y31020D02*
X133507Y28012D01*
X133612Y27462D01*
X133736Y26993D01*
X133878Y26604D01*
X134039Y26297D01*
X134220Y26070D01*
X122320D01*
X122500Y26297D01*
X122662Y26604D01*
X122804Y26993D01*
X122928Y27462D01*
X123033Y28012D01*
X123118Y28642D01*
X123232Y30147D01*
X123270Y31974D01*
X133270D01*
X133279Y31020D01*
D02*
G37*
G36*
X399880Y22601D02*
X398932Y22566D01*
X397991Y22442D01*
X397057Y22230D01*
X396131Y21929D01*
X395212Y21539D01*
X394301Y21061D01*
X393397Y20494D01*
X392501Y19838D01*
X391612Y19093D01*
X390731Y18260D01*
X383660Y25331D01*
X384493Y26212D01*
X385238Y27101D01*
X385894Y27997D01*
X386461Y28901D01*
X386939Y29812D01*
X387329Y30731D01*
X387630Y31657D01*
X387842Y32591D01*
X387966Y33532D01*
X388001Y34480D01*
X399880Y22601D01*
D02*
G37*
G36*
X321257Y25770D02*
X321564Y25608D01*
X321953Y25466D01*
X322422Y25342D01*
X322972Y25238D01*
X323602Y25152D01*
X325107Y25038D01*
X326934Y25000D01*
Y15000D01*
X325980Y14991D01*
X322972Y14763D01*
X322422Y14658D01*
X321953Y14534D01*
X321564Y14392D01*
X321257Y14231D01*
X321030Y14050D01*
Y25950D01*
X321257Y25770D01*
D02*
G37*
G36*
X308890Y14050D02*
X308663Y14231D01*
X308356Y14392D01*
X307967Y14534D01*
X307498Y14658D01*
X306948Y14763D01*
X306318Y14848D01*
X304813Y14962D01*
X302986Y15000D01*
Y25000D01*
X303940Y25010D01*
X306948Y25238D01*
X307498Y25342D01*
X307967Y25466D01*
X308356Y25608D01*
X308663Y25770D01*
X308890Y25950D01*
Y14050D01*
D02*
G37*
G36*
X134567Y25770D02*
X134874Y25608D01*
X135263Y25466D01*
X135732Y25342D01*
X136282Y25238D01*
X136912Y25152D01*
X138417Y25038D01*
X140244Y25000D01*
Y15000D01*
X139290Y14991D01*
X136282Y14763D01*
X135732Y14658D01*
X135263Y14534D01*
X134874Y14392D01*
X134567Y14231D01*
X134340Y14050D01*
Y25950D01*
X134567Y25770D01*
D02*
G37*
G36*
X122200Y14050D02*
X121973Y14231D01*
X121666Y14392D01*
X121277Y14534D01*
X120808Y14658D01*
X120258Y14763D01*
X119628Y14848D01*
X118124Y14962D01*
X116296Y15000D01*
Y25000D01*
X117250Y25010D01*
X120258Y25238D01*
X120808Y25342D01*
X121277Y25466D01*
X121666Y25608D01*
X121973Y25770D01*
X122200Y25950D01*
Y14050D01*
D02*
G37*
D10*
X172720Y256940D02*
D03*
D11*
X185420D02*
D03*
X198120D02*
D03*
X210820D02*
D03*
X172720Y306940D02*
D03*
X185420D02*
D03*
X198120D02*
D03*
X210820D02*
D03*
D12*
X273520Y137160D02*
Y290360D01*
X256740Y307140D02*
X273520Y290360D01*
X256540Y306940D02*
Y332270D01*
X210820Y306940D02*
X256540D01*
X210820Y256940D02*
X215030Y252730D01*
X236220D01*
X198120Y240030D02*
Y256940D01*
Y240030D02*
X200190Y237960D01*
Y214630D02*
Y237960D01*
X134620Y220510D02*
X136290D01*
X172720Y256940D01*
X185420Y231140D02*
Y256940D01*
X176530Y222250D02*
X185420Y231140D01*
X176530Y185420D02*
Y222250D01*
X198120Y306940D02*
Y331320D01*
X172720Y284480D02*
X252260D01*
X90640D02*
X172720D01*
Y306940D01*
Y324650D02*
X203200Y355130D01*
X172720Y306940D02*
Y324650D01*
X27940Y321780D02*
Y382540D01*
X50000Y404600D01*
X80010Y320510D02*
Y425390D01*
X50000Y455400D02*
X80010Y425390D01*
X325120Y387350D02*
X360680Y351790D01*
Y304665D02*
Y351790D01*
Y304665D02*
X420705Y244640D01*
X292100Y297980D02*
X384810Y205270D01*
X420705Y244640D02*
X421640D01*
X400000Y366280D02*
X421640Y344640D01*
X400000Y366280D02*
Y414600D01*
X384810Y305270D02*
Y355600D01*
X373380Y367030D02*
X384810Y355600D01*
X373380Y367030D02*
Y438780D01*
X400000Y465400D01*
X325120Y387350D02*
Y455130D01*
Y311620D02*
X352260Y284480D01*
X325120Y311620D02*
Y355130D01*
X256540Y372110D02*
Y432270D01*
X160490Y372110D02*
X256540D01*
X143510Y355130D02*
X160490Y372110D01*
X256540D02*
X292100Y336550D01*
Y297980D02*
Y336550D01*
X134620Y346240D02*
X143510Y355130D01*
X134620Y320510D02*
Y346240D01*
X143510Y455130D02*
X203200D01*
X325120D01*
X27940Y221780D02*
X90640Y284480D01*
X134620Y176060D02*
X173520Y137160D01*
X134620Y176060D02*
Y220510D01*
X80010D02*
X134620D01*
D13*
X200190Y126530D02*
Y214630D01*
X128270Y54610D02*
X200190Y126530D01*
X128270Y20000D02*
Y54610D01*
X50000Y34600D02*
X64600Y20000D01*
X128270D01*
X385400D02*
X400000Y34600D01*
X314960Y20000D02*
X385400D01*
X128270D02*
X314960D01*
D14*
X0Y0D02*
Y500000D01*
X460000D01*
Y0D02*
Y500000D01*
X0Y0D02*
X460000D01*
D15*
X203200Y455130D02*
D03*
Y355130D02*
D03*
X352260Y284480D02*
D03*
X252260D02*
D03*
X421640Y244640D02*
D03*
Y344640D02*
D03*
X27940Y221780D02*
D03*
Y321780D02*
D03*
X325120Y455130D02*
D03*
Y355130D02*
D03*
X256540Y432270D02*
D03*
Y332270D02*
D03*
X143510Y355130D02*
D03*
Y455130D02*
D03*
X80010Y220510D02*
D03*
Y320510D02*
D03*
X384810Y305270D02*
D03*
Y205270D02*
D03*
X273520Y137160D02*
D03*
X173520D02*
D03*
X134620Y320510D02*
D03*
Y220510D02*
D03*
X300190Y214630D02*
D03*
X200190D02*
D03*
X314960Y120000D02*
D03*
Y20000D02*
D03*
X128270Y120000D02*
D03*
Y20000D02*
D03*
D16*
X50000Y404600D02*
D03*
X400000Y465400D02*
D03*
Y85400D02*
D03*
X50000Y34600D02*
D03*
D17*
Y455400D02*
D03*
X400000Y414600D02*
D03*
Y34600D02*
D03*
X50000Y85400D02*
D03*
D18*
X151130Y185420D02*
D03*
D19*
X176530D02*
D03*
D20*
X236220Y252730D02*
D03*
X198120Y331320D02*
D03*
M02*
