G04 Layer_Color=2752767*
%FSLAX44Y44*%
%MOMM*%
G71*
G01*
G75*
%ADD14C,0.3000*%
%ADD35C,0.0508*%
%ADD36C,0.0677*%
D14*
X0Y0D02*
Y500000D01*
X460000D01*
Y0D02*
Y500000D01*
X0Y0D02*
X460000D01*
D35*
X201168Y453098D02*
Y457162D01*
X205232D01*
Y453098D01*
X201168D01*
Y353098D02*
Y357162D01*
X205232D01*
Y353098D01*
X201168D01*
X350228Y282448D02*
Y286512D01*
X354292D01*
Y282448D01*
X350228D01*
X250228D02*
Y286512D01*
X254292D01*
Y282448D01*
X250228D01*
X419608Y242608D02*
Y246672D01*
X423672D01*
Y242608D01*
X419608D01*
Y342608D02*
Y346672D01*
X423672D01*
Y342608D01*
X419608D01*
X25908Y219748D02*
Y223812D01*
X29972D01*
Y219748D01*
X25908D01*
Y319748D02*
Y323812D01*
X29972D01*
Y319748D01*
X25908D01*
X323088Y453098D02*
Y457162D01*
X327152D01*
Y453098D01*
X323088D01*
Y353098D02*
Y357162D01*
X327152D01*
Y353098D01*
X323088D01*
X254508Y430238D02*
Y434302D01*
X258572D01*
Y430238D01*
X254508D01*
Y330238D02*
Y334302D01*
X258572D01*
Y330238D01*
X254508D01*
X141478Y353098D02*
Y357162D01*
X145542D01*
Y353098D01*
X141478D01*
Y453098D02*
Y457162D01*
X145542D01*
Y453098D01*
X141478D01*
X77978Y218478D02*
Y222542D01*
X82042D01*
Y218478D01*
X77978D01*
Y318478D02*
Y322542D01*
X82042D01*
Y318478D01*
X77978D01*
X382778Y303238D02*
Y307302D01*
X386842D01*
Y303238D01*
X382778D01*
Y203238D02*
Y207302D01*
X386842D01*
Y203238D01*
X382778D01*
X271488Y135128D02*
Y139192D01*
X275552D01*
Y135128D01*
X271488D01*
X171488D02*
Y139192D01*
X175552D01*
Y135128D01*
X171488D01*
X132588Y318478D02*
Y322542D01*
X136652D01*
Y318478D01*
X132588D01*
Y218478D02*
Y222542D01*
X136652D01*
Y218478D01*
X132588D01*
X298158Y212598D02*
Y216662D01*
X302222D01*
Y212598D01*
X298158D01*
X198158D02*
Y216662D01*
X202222D01*
Y212598D01*
X198158D01*
X312928Y117968D02*
Y122032D01*
X316992D01*
Y117968D01*
X312928D01*
Y17968D02*
Y22032D01*
X316992D01*
Y17968D01*
X312928D01*
X126238Y117968D02*
Y122032D01*
X130302D01*
Y117968D01*
X126238D01*
Y17968D02*
Y22032D01*
X130302D01*
Y17968D01*
X126238D01*
X151130Y183388D02*
X149098Y187452D01*
X153162D01*
X151130Y183388D01*
X176530D02*
X174498Y187452D01*
X178562D01*
X176530Y183388D01*
X236220Y250698D02*
X237236Y251714D01*
X238252D01*
X237236Y252730D01*
X238252Y253746D01*
X237236D01*
X236220Y254762D01*
X235204Y253746D01*
X234188D01*
X235204Y252730D01*
X234188Y251714D01*
X235204D01*
X236220Y250698D01*
X198120Y329288D02*
X199136Y330304D01*
X200152D01*
X199136Y331320D01*
X200152Y332336D01*
X199136D01*
X198120Y333352D01*
X197104Y332336D01*
X196088D01*
X197104Y331320D01*
X196088Y330304D01*
X197104D01*
X198120Y329288D01*
D36*
X52032Y404600D02*
G03*
X52032Y404600I-2032J0D01*
G01*
Y455400D02*
G03*
X52032Y455400I-2032J0D01*
G01*
X402032Y465400D02*
G03*
X402032Y465400I-2032J0D01*
G01*
Y414600D02*
G03*
X402032Y414600I-2032J0D01*
G01*
Y85400D02*
G03*
X402032Y85400I-2032J0D01*
G01*
Y34600D02*
G03*
X402032Y34600I-2032J0D01*
G01*
X52032D02*
G03*
X52032Y34600I-2032J0D01*
G01*
Y85400D02*
G03*
X52032Y85400I-2032J0D01*
G01*
M02*
