M48
;Layer_Color=9474304
;FILE_FORMAT=4:4
METRIC,LZ
;TYPE=PLATED
T2F00S00C0.7110
T3F00S00C0.8128
T4F00S00C0.9000
T5F00S00C1.4000
;TYPE=NON_PLATED
T1F00S00C3.0000
%
T02
X0016891Y0011684
X0016449Y0016703
T03
X0018923Y0005969
X0023749
T04
X0013716Y0001477
X0029845
X0033911Y000254
Y000508
X0041781
Y000254
Y000762
Y001016
X0033911
Y000762
X0029845Y0011477
X0026209Y0022987
X0026082Y002794
X0016082
X0013081Y0028495
X0016209Y0022987
X0013081Y0018495
X0013716Y0011477
T05
X0033401Y0025019
X0038481
X0005207Y0026416
Y0021336
T01
X004Y0015
X0006Y0012
M30
