G04 Layer_Color=2752767*
%FSLAX44Y44*%
%MOMM*%
G71*
G01*
G75*
%ADD15C,0.2540*%
%ADD44C,0.0508*%
%ADD45C,0.0677*%
D15*
X0Y0D02*
X440000D01*
Y300000D01*
X0D02*
X440000D01*
X0Y0D02*
Y300000D01*
D44*
X135128Y12738D02*
Y16802D01*
X139192D01*
Y12738D01*
X135128D01*
Y112738D02*
Y116802D01*
X139192D01*
Y112738D01*
X135128D01*
X296418Y12738D02*
Y16802D01*
X300482D01*
Y12738D01*
X296418D01*
Y112738D02*
Y116802D01*
X300482D01*
Y112738D01*
X296418D01*
X128778Y282918D02*
Y286982D01*
X132842D01*
Y282918D01*
X128778D01*
Y182918D02*
Y186982D01*
X132842D01*
Y182918D01*
X128778D01*
X258788Y277368D02*
Y281432D01*
X262852D01*
Y277368D01*
X258788D01*
X158788D02*
Y281432D01*
X162852D01*
Y277368D01*
X158788D01*
X260058Y227838D02*
Y231902D01*
X264122D01*
Y227838D01*
X260058D01*
X160058D02*
Y231902D01*
X164122D01*
Y227838D01*
X160058D01*
X52070Y211328D02*
X50038Y215392D01*
X54102D01*
X52070Y211328D01*
Y262128D02*
X50038Y266192D01*
X54102D01*
X52070Y262128D01*
X189230Y57658D02*
X190246Y58674D01*
X191262D01*
X190246Y59690D01*
X191262Y60706D01*
X190246D01*
X189230Y61722D01*
X188214Y60706D01*
X187198D01*
X188214Y59690D01*
X187198Y58674D01*
X188214D01*
X189230Y57658D01*
X237490D02*
X238506Y58674D01*
X239522D01*
X238506Y59690D01*
X239522Y60706D01*
X238506D01*
X237490Y61722D01*
X236474Y60706D01*
X235458D01*
X236474Y59690D01*
X235458Y58674D01*
X236474D01*
X237490Y57658D01*
X337078Y99568D02*
Y103632D01*
X341142D01*
Y99568D01*
X337078D01*
Y74168D02*
Y78232D01*
X341142D01*
Y74168D01*
X337078D01*
Y48768D02*
Y52832D01*
X341142D01*
Y48768D01*
X337078D01*
Y23368D02*
Y27432D01*
X341142D01*
Y23368D01*
X337078D01*
X415778D02*
Y27432D01*
X419842D01*
Y23368D01*
X415778D01*
Y48768D02*
Y52832D01*
X419842D01*
Y48768D01*
X415778D01*
Y74168D02*
Y78232D01*
X419842D01*
Y74168D01*
X415778D01*
Y99568D02*
Y103632D01*
X419842D01*
Y99568D01*
X415778D01*
X334010Y248158D02*
X331978Y252222D01*
X336042D01*
X334010Y248158D01*
X384810D02*
X382778Y252222D01*
X386842D01*
X384810Y248158D01*
X166878Y114808D02*
X167894Y116840D01*
X166878Y118872D01*
X168910Y117856D01*
X170942Y118872D01*
X169926Y116840D01*
X170942Y114808D01*
X168910Y115824D01*
X166878Y114808D01*
X162458Y164998D02*
X163474Y167030D01*
X162458Y169062D01*
X164490Y168046D01*
X166522Y169062D01*
X165506Y167030D01*
X166522Y164998D01*
X164490Y166014D01*
X162458Y164998D01*
D45*
X402032Y150000D02*
G03*
X402032Y150000I-2032J0D01*
G01*
X62032Y120000D02*
G03*
X62032Y120000I-2032J0D01*
G01*
M02*
