G04 Layer_Color=32768*
%FSLAX44Y44*%
%MOMM*%
G71*
G01*
G75*
%ADD15C,0.2540*%
%ADD27C,0.1524*%
D15*
X440000Y-29210D02*
Y-3810D01*
X0Y-29210D02*
Y-3810D01*
X255548Y-26670D02*
X440000D01*
X0D02*
X176324D01*
X424760Y-21590D02*
X440000Y-26670D01*
X424760Y-31750D02*
X440000Y-26670D01*
X0D02*
X15240Y-31750D01*
X0Y-26670D02*
X15240Y-21590D01*
X443810Y300000D02*
X462280D01*
X443810Y0D02*
X462280D01*
X459740Y185548D02*
Y300000D01*
Y0D02*
Y106323D01*
X454660Y284760D02*
X459740Y300000D01*
X464820Y284760D01*
X459740Y0D02*
X464820Y15240D01*
X454660D02*
X459740Y0D01*
X0D02*
X440000D01*
Y300000D01*
X0D02*
X440000D01*
X0Y0D02*
Y300000D01*
D27*
X188005Y-38351D02*
Y-23116D01*
X180387Y-30733D01*
X190544D01*
X203240Y-38351D02*
Y-23116D01*
X195623Y-30733D01*
X205779D01*
X213397Y-40890D02*
X215936Y-38351D01*
Y-35812D01*
X213397D01*
Y-38351D01*
X215936D01*
X213397Y-40890D01*
X210858Y-43429D01*
X226093Y-25655D02*
X228632Y-23116D01*
X233710D01*
X236249Y-25655D01*
Y-35812D01*
X233710Y-38351D01*
X228632D01*
X226093Y-35812D01*
Y-25655D01*
X241328D02*
X243867Y-23116D01*
X248945D01*
X251485Y-25655D01*
Y-35812D01*
X248945Y-38351D01*
X243867D01*
X241328Y-35812D01*
Y-25655D01*
X458725Y110387D02*
X456186Y112927D01*
Y118005D01*
X458725Y120544D01*
X461264D01*
X463803Y118005D01*
Y115466D01*
Y118005D01*
X466342Y120544D01*
X468881D01*
X471421Y118005D01*
Y112927D01*
X468881Y110387D01*
X458725Y125623D02*
X456186Y128162D01*
Y133240D01*
X458725Y135779D01*
X468881D01*
X471421Y133240D01*
Y128162D01*
X468881Y125623D01*
X458725D01*
X473960Y143397D02*
X471421Y145936D01*
X468881D01*
Y143397D01*
X471421D01*
Y145936D01*
X473960Y143397D01*
X476499Y140858D01*
X458725Y156093D02*
X456186Y158632D01*
Y163710D01*
X458725Y166249D01*
X468881D01*
X471421Y163710D01*
Y158632D01*
X468881Y156093D01*
X458725D01*
Y171328D02*
X456186Y173867D01*
Y178945D01*
X458725Y181485D01*
X468881D01*
X471421Y178945D01*
Y173867D01*
X468881Y171328D01*
X458725D01*
M02*
