G04 Layer_Color=8388736*
%FSLAX44Y44*%
%MOMM*%
G71*
G01*
G75*
%ADD15C,0.2540*%
G04:AMPARAMS|DCode=31|XSize=1.7032mm|YSize=2.2032mm|CornerRadius=0.1766mm|HoleSize=0mm|Usage=FLASHONLY|Rotation=0.000|XOffset=0mm|YOffset=0mm|HoleType=Round|Shape=RoundedRectangle|*
%AMROUNDEDRECTD31*
21,1,1.7032,1.8500,0,0,0.0*
21,1,1.3500,2.2032,0,0,0.0*
1,1,0.3532,0.6750,-0.9250*
1,1,0.3532,-0.6750,-0.9250*
1,1,0.3532,-0.6750,0.9250*
1,1,0.3532,0.6750,0.9250*
%
%ADD31ROUNDEDRECTD31*%
G04:AMPARAMS|DCode=32|XSize=2.7032mm|YSize=2.7032mm|CornerRadius=0.2266mm|HoleSize=0mm|Usage=FLASHONLY|Rotation=90.000|XOffset=0mm|YOffset=0mm|HoleType=Round|Shape=RoundedRectangle|*
%AMROUNDEDRECTD32*
21,1,2.7032,2.2500,0,0,90.0*
21,1,2.2500,2.7032,0,0,90.0*
1,1,0.4532,1.1250,1.1250*
1,1,0.4532,1.1250,-1.1250*
1,1,0.4532,-1.1250,-1.1250*
1,1,0.4532,-1.1250,1.1250*
%
%ADD32ROUNDEDRECTD32*%
%ADD33O,1.8532X0.5532*%
%ADD34R,1.8532X0.5532*%
%ADD35C,1.9032*%
%ADD36C,3.2032*%
%ADD37R,2.6032X2.6032*%
%ADD38C,2.6032*%
%ADD39C,1.4224*%
%ADD40R,1.7032X1.7032*%
%ADD41C,1.7032*%
%ADD42R,2.6032X2.6032*%
%ADD43C,1.4732*%
D15*
X0Y0D02*
X440000D01*
Y300000D01*
X0D02*
X440000D01*
X0Y0D02*
Y300000D01*
D31*
X223520Y109780D02*
D03*
Y179780D02*
D03*
D32*
Y144780D02*
D03*
D33*
X253520Y122530D02*
D03*
Y128905D02*
D03*
Y135255D02*
D03*
Y141605D02*
D03*
Y147955D02*
D03*
Y154305D02*
D03*
Y160655D02*
D03*
Y167030D02*
D03*
X193520Y122530D02*
D03*
Y128905D02*
D03*
Y135255D02*
D03*
Y141605D02*
D03*
Y147955D02*
D03*
Y154305D02*
D03*
Y160655D02*
D03*
D34*
Y167030D02*
D03*
D35*
X137160Y14770D02*
D03*
Y114770D02*
D03*
X298450Y14770D02*
D03*
Y114770D02*
D03*
X130810Y284950D02*
D03*
Y184950D02*
D03*
X260820Y279400D02*
D03*
X160820D02*
D03*
X262090Y229870D02*
D03*
X162090D02*
D03*
D36*
X400000Y150000D02*
D03*
X60000Y120000D02*
D03*
D37*
X52070Y213360D02*
D03*
D38*
Y264160D02*
D03*
X384810Y250190D02*
D03*
D39*
X189230Y59690D02*
D03*
X237490D02*
D03*
D40*
X339110Y101600D02*
D03*
D41*
Y76200D02*
D03*
Y50800D02*
D03*
Y25400D02*
D03*
X417810D02*
D03*
Y50800D02*
D03*
Y76200D02*
D03*
Y101600D02*
D03*
D42*
X334010Y250190D02*
D03*
D43*
X168910Y116840D02*
D03*
X164490Y167030D02*
D03*
M02*
