G04 ================== begin FILE IDENTIFICATION RECORD ==================*
G04 Layout Name:  X:/project/SMSC_MAIN_DIRECTORY/smc_6695/6695ra.brd*
G04 Film Name:    6695ra_BP*
G04 File Format:  Gerber RS274X*
G04 File Origin:  15.7-s001*
G04 Origin Date:  Fri Apr 20 09:09:53 2012*
G04 *
G04 Layer:  PACKAGE GEOMETRY/PASTE_BOTTOM*
G04 Layer:  PIN/PASTEMASK_BOTTOM*
G04 Layer:  BOARD GEOMETRY/OUTLINE*
G04 Layer:  BOARD GEOMETRY/TOOLING_CORNERS*
G04 *
G04 Offset:    (0.00 0.00)*
G04 Mirror:    No*
G04 Mode:      Positive*
G04 Rotation:  0*
G04 FullContactRelief:  No*
G04 UndefLineWidth:     8.00*
G04 ================== end FILE IDENTIFICATION RECORD ====================*
%FSLAX25Y25*MOIN*%
%IR0*IPPOS*OFA0.00000B0.00000*MIA0B0*SFA1.00000B1.00000*%
%ADD13R,.045X.04*%
%ADD10R,.03X.038*%
%ADD11R,.038X.03*%
%ADD12R,.045X.025*%
%ADD14C,.005*%
%ADD15C,.006*%
%ADD16C,.008*%
G75*
%LPD*%
G75*
G54D10*
X41500Y17100D03*
Y10900D03*
X48500Y127900D03*
Y134100D03*
X143000Y61400D03*
X161000Y56600D03*
Y50400D03*
X143000Y67600D03*
X161000Y69100D03*
Y62900D03*
X161500Y116900D03*
X135500D03*
X161500Y123100D03*
X135500D03*
G54D11*
X148900Y76000D03*
X155100D03*
X148900Y68000D03*
X155100D03*
X152100Y130000D03*
X145900D03*
X181900Y33000D03*
X188100D03*
X190400Y95500D03*
X189900Y125500D03*
X198900Y61000D03*
X205100D03*
X196600Y95500D03*
X196100Y125500D03*
G54D12*
X154000Y116250D03*
X144000Y123750D03*
X154000D03*
G54D13*
X144000Y117000D03*
G54D14*
G01X0Y145000D02*
Y0D01*
X300000D01*
Y145000D01*
X0D01*
G54D15*
G01X-19105Y-147834D02*
X-17865Y-148875D01*
X-16470Y-149500D01*
X-15230D01*
X-13990Y-148875D01*
X-13060Y-147834D01*
X-12595Y-146375D01*
X-12905Y-144917D01*
X-13680Y-143667D01*
X-15075Y-142833D01*
X-16935Y-142417D01*
X-18020Y-141583D01*
X-18485Y-140125D01*
X-18175Y-138667D01*
X-17400Y-137625D01*
X-16315Y-137000D01*
X-15230D01*
X-14145Y-137417D01*
X-13215Y-138458D01*
G01X-7480Y-149500D02*
Y-137000D01*
X-3450Y-147417D01*
X580Y-137000D01*
Y-149500D01*
G01X5695Y-147834D02*
X6935Y-148875D01*
X8330Y-149500D01*
X9570D01*
X10810Y-148875D01*
X11740Y-147834D01*
X12205Y-146375D01*
X11895Y-144917D01*
X11120Y-143667D01*
X9725Y-142833D01*
X7865Y-142417D01*
X6780Y-141583D01*
X6315Y-140125D01*
X6625Y-138667D01*
X7400Y-137625D01*
X8485Y-137000D01*
X9570D01*
X10655Y-137417D01*
X11585Y-138458D01*
G01X24760Y-138042D02*
X23830Y-137417D01*
X22745Y-137000D01*
X21505D01*
X20110Y-137625D01*
X19025Y-138667D01*
X18250Y-139917D01*
X17630Y-142000D01*
X17475Y-143875D01*
X17785Y-145750D01*
X18250Y-147000D01*
X19180Y-148250D01*
X20265Y-149083D01*
X21350Y-149500D01*
X22435D01*
X23520Y-149083D01*
X24450Y-148459D01*
X25225Y-147625D01*
G01X43050Y-137000D02*
Y-149500D01*
X49250D01*
G01X54675D02*
X58550Y-137000D01*
X62425Y-149500D01*
G01X61030Y-145125D02*
X56070D01*
G01X67385Y-149500D02*
Y-137000D01*
X74515Y-149500D01*
Y-137000D01*
G01X83350Y-149500D02*
X84435Y-149292D01*
X85675Y-148667D01*
X86450Y-147625D01*
X86760Y-146167D01*
X86450Y-144709D01*
X85520Y-143458D01*
X84125Y-142833D01*
X82575D01*
X81645Y-142417D01*
X80870Y-141375D01*
X80560Y-139917D01*
X81025Y-138458D01*
X82110Y-137417D01*
X83350Y-137000D01*
X84590Y-137417D01*
X85675Y-138458D01*
X86140Y-139917D01*
X85830Y-141375D01*
X85055Y-142417D01*
X84125Y-142833D01*
X82575D01*
X81180Y-143458D01*
X80250Y-144709D01*
X79940Y-146167D01*
X80250Y-147625D01*
X81025Y-148667D01*
X82265Y-149292D01*
X83350Y-149500D01*
G01X95440D02*
X95750Y-146792D01*
X96215Y-144500D01*
X96835Y-142417D01*
X97610Y-140125D01*
X98850Y-137000D01*
X92650D01*
G01X110010Y-149500D02*
Y-137000D01*
X104275Y-145958D01*
X112025D01*
G01X120550Y-137000D02*
X119310Y-137417D01*
X118380Y-138458D01*
X117760Y-139708D01*
X117295Y-141375D01*
X117140Y-143250D01*
X117295Y-145125D01*
X117760Y-146792D01*
X118380Y-148042D01*
X119310Y-149083D01*
X120550Y-149500D01*
X121790Y-149083D01*
X122720Y-148042D01*
X123340Y-146792D01*
X123805Y-145125D01*
X123960Y-143250D01*
X123805Y-141375D01*
X123340Y-139708D01*
X122720Y-138458D01*
X121790Y-137417D01*
X120550Y-137000D01*
G01X130160Y-149917D02*
X135740Y-137000D01*
G01X145350Y-149500D02*
X146435Y-149292D01*
X147675Y-148667D01*
X148450Y-147625D01*
X148760Y-146167D01*
X148450Y-144709D01*
X147520Y-143458D01*
X146125Y-142833D01*
X144575D01*
X143645Y-142417D01*
X142870Y-141375D01*
X142560Y-139917D01*
X143025Y-138458D01*
X144110Y-137417D01*
X145350Y-137000D01*
X146590Y-137417D01*
X147675Y-138458D01*
X148140Y-139917D01*
X147830Y-141375D01*
X147055Y-142417D01*
X146125Y-142833D01*
X144575D01*
X143180Y-143458D01*
X142250Y-144709D01*
X141940Y-146167D01*
X142250Y-147625D01*
X143025Y-148667D01*
X144265Y-149292D01*
X145350Y-149500D01*
G01X157440D02*
X157750Y-146792D01*
X158215Y-144500D01*
X158835Y-142417D01*
X159610Y-140125D01*
X160850Y-137000D01*
X154650D01*
G01X172010Y-149500D02*
Y-137000D01*
X166275Y-145958D01*
X174025D01*
G01X182550Y-149500D02*
Y-137000D01*
X180690Y-139500D01*
G01Y-149500D02*
X184410D01*
G01X203320D02*
Y-137000D01*
X207350Y-147417D01*
X211380Y-137000D01*
Y-149500D01*
G01X217890Y-137000D02*
X221610D01*
G01X219750D02*
Y-149500D01*
G01X217890D02*
X221610D01*
G01X230290Y-137000D02*
X234010D01*
G01X232150D02*
Y-149500D01*
G01X230290D02*
X234010D01*
G01X253850D02*
Y-137000D01*
X257570D01*
X258810Y-137625D01*
X259740Y-139083D01*
X260050Y-140750D01*
X259740Y-142417D01*
X258965Y-143667D01*
X257570Y-144292D01*
X253850D01*
G01X266095Y-149500D02*
Y-137000D01*
G01X272605D02*
Y-149500D01*
G01Y-143250D02*
X266095D01*
G01X281750Y-149500D02*
Y-143875D01*
X278650Y-137000D01*
G01X284850D02*
X281750Y-143875D01*
G01X309960Y-138042D02*
X309030Y-137417D01*
X307945Y-137000D01*
X306705D01*
X305310Y-137625D01*
X304225Y-138667D01*
X303450Y-139917D01*
X302830Y-142000D01*
X302675Y-143875D01*
X302985Y-145750D01*
X303450Y-147000D01*
X304380Y-148250D01*
X305465Y-149083D01*
X306550Y-149500D01*
X307635D01*
X308720Y-149083D01*
X309650Y-148459D01*
X310425Y-147625D01*
G01X322050Y-149500D02*
X315850D01*
Y-137000D01*
X322050D01*
G01X319570Y-143042D02*
X315850D01*
G01X332590Y-142833D02*
X333210Y-142208D01*
X333675Y-141167D01*
X333985Y-139708D01*
X333675Y-138458D01*
X333055Y-137625D01*
X331970Y-137000D01*
X327785D01*
Y-149500D01*
X332900D01*
X333985Y-148667D01*
X334605Y-147417D01*
X334915Y-145958D01*
X334605Y-144500D01*
X333675Y-143250D01*
X332590Y-142833D01*
X327785D01*
G01X37725Y-176500D02*
X41600Y-164000D01*
X45475Y-176500D01*
G01X44080Y-172125D02*
X39120D01*
G01X50745Y-174834D02*
X51985Y-175875D01*
X53380Y-176500D01*
X54620D01*
X55860Y-175875D01*
X56790Y-174834D01*
X57255Y-173375D01*
X56945Y-171917D01*
X56170Y-170667D01*
X54775Y-169833D01*
X52915Y-169417D01*
X51830Y-168583D01*
X51365Y-167125D01*
X51675Y-165667D01*
X52450Y-164625D01*
X53535Y-164000D01*
X54620D01*
X55705Y-164417D01*
X56635Y-165458D01*
G01X63145Y-174834D02*
X64385Y-175875D01*
X65780Y-176500D01*
X67020D01*
X68260Y-175875D01*
X69190Y-174834D01*
X69655Y-173375D01*
X69345Y-171917D01*
X68570Y-170667D01*
X67175Y-169833D01*
X65315Y-169417D01*
X64230Y-168583D01*
X63765Y-167125D01*
X64075Y-165667D01*
X64850Y-164625D01*
X65935Y-164000D01*
X67020D01*
X68105Y-164417D01*
X69035Y-165458D01*
G01X81900Y-176500D02*
X75700D01*
Y-164000D01*
X81900D01*
G01X79420Y-170042D02*
X75700D01*
G01X87170Y-176500D02*
Y-164000D01*
X91200Y-174417D01*
X95230Y-164000D01*
Y-176500D01*
G01X104840Y-169833D02*
X105460Y-169208D01*
X105925Y-168167D01*
X106235Y-166708D01*
X105925Y-165458D01*
X105305Y-164625D01*
X104220Y-164000D01*
X100035D01*
Y-176500D01*
X105150D01*
X106235Y-175667D01*
X106855Y-174417D01*
X107165Y-172958D01*
X106855Y-171500D01*
X105925Y-170250D01*
X104840Y-169833D01*
X100035D01*
G01X112900Y-164000D02*
Y-176500D01*
X119100D01*
G01X128400D02*
Y-170875D01*
X125300Y-164000D01*
G01X131500D02*
X128400Y-170875D01*
G01X150255Y-171292D02*
X151340Y-169833D01*
X152270Y-169000D01*
X153510Y-168583D01*
X154595Y-169000D01*
X155370Y-169833D01*
X155990Y-171083D01*
X156145Y-172542D01*
X155990Y-173792D01*
X155370Y-175042D01*
X154440Y-176083D01*
X153355Y-176500D01*
X152115Y-176083D01*
X151030Y-174834D01*
X150410Y-172958D01*
X150255Y-170875D01*
X150565Y-168167D01*
X151030Y-166708D01*
X151805Y-165250D01*
X152890Y-164208D01*
X153975Y-164000D01*
X155060Y-164417D01*
X155835Y-165458D01*
G01X162655Y-171292D02*
X163740Y-169833D01*
X164670Y-169000D01*
X165910Y-168583D01*
X166995Y-169000D01*
X167770Y-169833D01*
X168390Y-171083D01*
X168545Y-172542D01*
X168390Y-173792D01*
X167770Y-175042D01*
X166840Y-176083D01*
X165755Y-176500D01*
X164515Y-176083D01*
X163430Y-174834D01*
X162810Y-172958D01*
X162655Y-170875D01*
X162965Y-168167D01*
X163430Y-166708D01*
X164205Y-165250D01*
X165290Y-164208D01*
X166375Y-164000D01*
X167460Y-164417D01*
X168235Y-165458D01*
G01X175365Y-175042D02*
X176450Y-176083D01*
X177690Y-176500D01*
X178930Y-176083D01*
X180015Y-174834D01*
X180790Y-172958D01*
X181100Y-171083D01*
Y-168792D01*
X180790Y-166917D01*
X180015Y-165250D01*
X179085Y-164417D01*
X178000Y-164000D01*
X176760Y-164417D01*
X175830Y-165250D01*
X175210Y-166500D01*
X174900Y-168167D01*
X175210Y-169625D01*
X175985Y-171083D01*
X176915Y-171917D01*
X178000Y-172125D01*
X179240Y-171709D01*
X180170Y-170667D01*
X181100Y-168792D01*
G01X186990Y-174625D02*
X187920Y-175667D01*
X189005Y-176292D01*
X190400Y-176500D01*
X191795Y-176083D01*
X192880Y-175250D01*
X193655Y-173792D01*
X193810Y-172125D01*
X193500Y-170458D01*
X192725Y-169417D01*
X191640Y-168583D01*
X190555Y-168375D01*
X189470Y-168583D01*
X188075Y-169417D01*
X188540Y-164000D01*
X192725D01*
G01X212100Y-176500D02*
Y-164000D01*
X215975D01*
X217215Y-164625D01*
X217990Y-165458D01*
X218300Y-167125D01*
X217990Y-168792D01*
X217060Y-169833D01*
X215975Y-170458D01*
X212100D01*
G01X215975D02*
X218300Y-176500D01*
G01X230700D02*
X224500D01*
Y-164000D01*
X230700D01*
G01X228220Y-170042D02*
X224500D01*
G01X236125Y-164000D02*
X240000Y-176500D01*
X243875Y-164000D01*
G01X260925Y-176500D02*
X264800Y-164000D01*
X268675Y-176500D01*
G01X267280Y-172125D02*
X262320D01*
G01X55390Y-197333D02*
X56010Y-196708D01*
X56475Y-195667D01*
X56785Y-194208D01*
X56475Y-192958D01*
X55855Y-192125D01*
X54770Y-191500D01*
X50585D01*
Y-204000D01*
X55700D01*
X56785Y-203167D01*
X57405Y-201917D01*
X57715Y-200458D01*
X57405Y-199000D01*
X56475Y-197750D01*
X55390Y-197333D01*
X50585D01*
G01X66550Y-204000D02*
X65310Y-203792D01*
X64225Y-202959D01*
X63295Y-201708D01*
X62675Y-200250D01*
X62365Y-198583D01*
Y-196917D01*
X62675Y-195250D01*
X63295Y-193792D01*
X64225Y-192542D01*
X65310Y-191708D01*
X66550Y-191500D01*
X67790Y-191708D01*
X68875Y-192542D01*
X69805Y-193792D01*
X70425Y-195250D01*
X70735Y-196917D01*
Y-198583D01*
X70425Y-200250D01*
X69805Y-201708D01*
X68875Y-202959D01*
X67790Y-203792D01*
X66550Y-204000D01*
G01X78950Y-191500D02*
Y-204000D01*
G01X75385Y-191500D02*
X82515D01*
G01X91350D02*
Y-204000D01*
G01X87785Y-191500D02*
X94915D01*
G01X103750Y-204000D02*
X102510Y-203792D01*
X101425Y-202959D01*
X100495Y-201708D01*
X99875Y-200250D01*
X99565Y-198583D01*
Y-196917D01*
X99875Y-195250D01*
X100495Y-193792D01*
X101425Y-192542D01*
X102510Y-191708D01*
X103750Y-191500D01*
X104990Y-191708D01*
X106075Y-192542D01*
X107005Y-193792D01*
X107625Y-195250D01*
X107935Y-196917D01*
Y-198583D01*
X107625Y-200250D01*
X107005Y-201708D01*
X106075Y-202959D01*
X104990Y-203792D01*
X103750Y-204000D01*
G01X112120D02*
Y-191500D01*
X116150Y-201917D01*
X120180Y-191500D01*
Y-204000D01*
G01X137695Y-202334D02*
X138935Y-203375D01*
X140330Y-204000D01*
X141570D01*
X142810Y-203375D01*
X143740Y-202334D01*
X144205Y-200875D01*
X143895Y-199417D01*
X143120Y-198167D01*
X141725Y-197333D01*
X139865Y-196917D01*
X138780Y-196083D01*
X138315Y-194625D01*
X138625Y-193167D01*
X139400Y-192125D01*
X140485Y-191500D01*
X141570D01*
X142655Y-191917D01*
X143585Y-192958D01*
G01X151490Y-191500D02*
X155210D01*
G01X153350D02*
Y-204000D01*
G01X151490D02*
X155210D01*
G01X162340D02*
Y-191500D01*
X165440D01*
X166680Y-192125D01*
X167610Y-192958D01*
X168385Y-194208D01*
X169005Y-195667D01*
X169160Y-197750D01*
X169005Y-199833D01*
X168385Y-201292D01*
X167610Y-202542D01*
X166680Y-203375D01*
X165440Y-204000D01*
X162340D01*
G01X181250D02*
X175050D01*
Y-191500D01*
X181250D01*
G01X178770Y-197542D02*
X175050D01*
G01X199850Y-204000D02*
Y-191500D01*
X203570D01*
X204810Y-192125D01*
X205740Y-193583D01*
X206050Y-195250D01*
X205740Y-196917D01*
X204965Y-198167D01*
X203570Y-198792D01*
X199850D01*
G01X211475Y-204000D02*
X215350Y-191500D01*
X219225Y-204000D01*
G01X217830Y-199625D02*
X212870D01*
G01X224495Y-202334D02*
X225735Y-203375D01*
X227130Y-204000D01*
X228370D01*
X229610Y-203375D01*
X230540Y-202334D01*
X231005Y-200875D01*
X230695Y-199417D01*
X229920Y-198167D01*
X228525Y-197333D01*
X226665Y-196917D01*
X225580Y-196083D01*
X225115Y-194625D01*
X225425Y-193167D01*
X226200Y-192125D01*
X227285Y-191500D01*
X228370D01*
X229455Y-191917D01*
X230385Y-192958D01*
G01X240150Y-191500D02*
Y-204000D01*
G01X236585Y-191500D02*
X243715D01*
G01X255650Y-204000D02*
X249450D01*
Y-191500D01*
X255650D01*
G01X253170Y-197542D02*
X249450D01*
G54D16*
G01X-61467Y-357000D02*
Y-347000D01*
X-60133D01*
X-59600Y-347500D01*
X-59200Y-348167D01*
X-58867Y-349167D01*
X-58600Y-350334D01*
X-58533Y-352000D01*
X-58600Y-353667D01*
X-58867Y-354833D01*
X-59200Y-355834D01*
X-59600Y-356500D01*
X-60133Y-357000D01*
X-61467D01*
G01X-56000Y-352500D02*
X-53867D01*
X-54067Y-351333D01*
X-54400Y-350667D01*
X-54867Y-350334D01*
X-55333Y-350500D01*
X-55733Y-351000D01*
X-56000Y-352167D01*
X-56133Y-353167D01*
Y-354167D01*
X-56000Y-355167D01*
X-55667Y-356167D01*
X-55267Y-356833D01*
X-54800Y-357000D01*
X-54333Y-356667D01*
X-53867Y-355667D01*
G01X-51000Y-355834D02*
X-50667Y-356500D01*
X-50200Y-357000D01*
X-49800D01*
X-49400Y-356667D01*
X-49133Y-356167D01*
X-49000Y-355500D01*
X-49067Y-354500D01*
X-49333Y-354000D01*
X-50533Y-353000D01*
X-50800Y-351833D01*
X-50667Y-351000D01*
X-50400Y-350500D01*
X-50000Y-350334D01*
X-49600Y-350500D01*
X-49200Y-351000D01*
G01X-45000Y-350334D02*
Y-357000D01*
G01Y-347667D02*
X-45133Y-347500D01*
Y-347167D01*
X-45000Y-347000D01*
X-44867Y-347167D01*
Y-347500D01*
X-45000Y-347667D01*
G01X-40933Y-359500D02*
X-40467Y-360167D01*
X-39933Y-360333D01*
X-39467Y-360167D01*
X-39067Y-359333D01*
X-38800Y-358167D01*
Y-350334D01*
G01Y-351667D02*
X-39067Y-351000D01*
X-39467Y-350500D01*
X-39933Y-350334D01*
X-40467Y-350667D01*
X-40800Y-351333D01*
X-41067Y-352500D01*
X-41200Y-353667D01*
X-41133Y-354667D01*
X-40867Y-355834D01*
X-40467Y-356667D01*
X-39933Y-357000D01*
X-39533Y-356833D01*
X-39067Y-356167D01*
X-38800Y-355500D01*
G01X-36133Y-357000D02*
Y-350334D01*
G01Y-352000D02*
X-35867Y-351167D01*
X-35467Y-350500D01*
X-34933Y-350334D01*
X-34467Y-350500D01*
X-34067Y-351167D01*
X-33867Y-352333D01*
Y-357000D01*
G01X-26667D02*
X-25000Y-347000D01*
X-23333Y-357000D01*
G01X-23933Y-353500D02*
X-26067D01*
G01X-21133Y-357000D02*
Y-350334D01*
G01Y-352000D02*
X-20867Y-351167D01*
X-20467Y-350500D01*
X-19933Y-350334D01*
X-19467Y-350500D01*
X-19067Y-351167D01*
X-18867Y-352333D01*
Y-357000D01*
G01X-13800Y-347000D02*
Y-357000D01*
G01Y-355500D02*
X-14067Y-356333D01*
X-14467Y-356833D01*
X-14933Y-357000D01*
X-15467Y-356667D01*
X-15867Y-355834D01*
X-16133Y-354833D01*
X-16200Y-353667D01*
X-16133Y-352500D01*
X-15867Y-351500D01*
X-15467Y-350667D01*
X-14933Y-350334D01*
X-14467Y-350500D01*
X-14133Y-350833D01*
X-13800Y-351500D01*
G01X-6400Y-355667D02*
X-5867Y-356500D01*
X-5267Y-357000D01*
X-4733D01*
X-4200Y-356500D01*
X-3800Y-355667D01*
X-3600Y-354500D01*
X-3733Y-353334D01*
X-4067Y-352333D01*
X-4667Y-351667D01*
X-5467Y-351333D01*
X-5933Y-350667D01*
X-6133Y-349500D01*
X-6000Y-348333D01*
X-5667Y-347500D01*
X-5200Y-347000D01*
X-4733D01*
X-4267Y-347333D01*
X-3867Y-348167D01*
G01X-1133Y-350334D02*
Y-355000D01*
X-867Y-356167D01*
X-467Y-356833D01*
X0Y-357000D01*
X467Y-356833D01*
X867Y-356167D01*
X1133Y-355000D01*
G01Y-357000D02*
Y-350334D01*
G01X3800Y-360333D02*
Y-350334D01*
G01Y-351833D02*
X4133Y-351000D01*
X4467Y-350500D01*
X5000Y-350334D01*
X5467Y-350500D01*
X5933Y-351333D01*
X6133Y-352500D01*
X6200Y-353667D01*
X6133Y-354833D01*
X5933Y-356000D01*
X5533Y-356667D01*
X5000Y-357000D01*
X4533Y-356833D01*
X4067Y-356333D01*
X3800Y-355667D01*
G01X8800Y-360333D02*
Y-350334D01*
G01Y-351833D02*
X9133Y-351000D01*
X9467Y-350500D01*
X10000Y-350334D01*
X10467Y-350500D01*
X10933Y-351333D01*
X11133Y-352500D01*
X11200Y-353667D01*
X11133Y-354833D01*
X10933Y-356000D01*
X10533Y-356667D01*
X10000Y-357000D01*
X9533Y-356833D01*
X9067Y-356333D01*
X8800Y-355667D01*
G01X15000Y-357000D02*
Y-347000D01*
G01X18600Y-360000D02*
X19000Y-360333D01*
X19533Y-360000D01*
X19867Y-359333D01*
X20133Y-358500D01*
X20533Y-355834D01*
X21400Y-350334D01*
G01X19267D02*
X20533Y-355834D01*
G01X30000Y-347000D02*
Y-357000D01*
G01X28467Y-347000D02*
X31533D01*
G01X33867Y-357000D02*
Y-347000D01*
G01Y-351833D02*
X34200Y-351000D01*
X34533Y-350500D01*
X35067Y-350334D01*
X35467Y-350500D01*
X35933Y-351167D01*
X36133Y-352167D01*
Y-357000D01*
G01X39000Y-352500D02*
X41133D01*
X40933Y-351333D01*
X40600Y-350667D01*
X40133Y-350334D01*
X39667Y-350500D01*
X39267Y-351000D01*
X39000Y-352167D01*
X38867Y-353167D01*
Y-354167D01*
X39000Y-355167D01*
X39333Y-356167D01*
X39733Y-356833D01*
X40200Y-357000D01*
X40667Y-356667D01*
X41133Y-355667D01*
G01X50533Y-351667D02*
X50800Y-351167D01*
X51000Y-350334D01*
X51133Y-349167D01*
X51000Y-348167D01*
X50733Y-347500D01*
X50267Y-347000D01*
X48467D01*
Y-357000D01*
X50667D01*
X51133Y-356333D01*
X51400Y-355333D01*
X51533Y-354167D01*
X51400Y-353000D01*
X51000Y-352000D01*
X50533Y-351667D01*
X48467D01*
G01X54000Y-352500D02*
X56133D01*
X55933Y-351333D01*
X55600Y-350667D01*
X55133Y-350334D01*
X54667Y-350500D01*
X54267Y-351000D01*
X54000Y-352167D01*
X53867Y-353167D01*
Y-354167D01*
X54000Y-355167D01*
X54333Y-356167D01*
X54733Y-356833D01*
X55200Y-357000D01*
X55667Y-356667D01*
X56133Y-355667D01*
G01X59000Y-355834D02*
X59333Y-356500D01*
X59800Y-357000D01*
X60200D01*
X60600Y-356667D01*
X60867Y-356167D01*
X61000Y-355500D01*
X60933Y-354500D01*
X60667Y-354000D01*
X59467Y-353000D01*
X59200Y-351833D01*
X59333Y-351000D01*
X59600Y-350500D01*
X60000Y-350334D01*
X60400Y-350500D01*
X60800Y-351000D01*
G01X65000Y-347000D02*
Y-357000D01*
G01X64067Y-350334D02*
X65933D01*
G01X73667Y-357000D02*
Y-347000D01*
X75267D01*
X75800Y-347500D01*
X76200Y-348667D01*
X76333Y-350000D01*
X76200Y-351333D01*
X75867Y-352333D01*
X75267Y-352834D01*
X73667D01*
G01X79067Y-357000D02*
Y-350334D01*
G01Y-351667D02*
X79400Y-351000D01*
X79733Y-350500D01*
X80200Y-350334D01*
X80533Y-350500D01*
X80933Y-351000D01*
G01X85000Y-357000D02*
X84600Y-356833D01*
X84200Y-356167D01*
X83933Y-355000D01*
X83800Y-353667D01*
X83933Y-352333D01*
X84200Y-351167D01*
X84600Y-350500D01*
X85000Y-350334D01*
X85400Y-350500D01*
X85800Y-351167D01*
X86067Y-352333D01*
X86133Y-353667D01*
X86067Y-355000D01*
X85800Y-356167D01*
X85400Y-356833D01*
X85000Y-357000D01*
G01X91200Y-347000D02*
Y-357000D01*
G01Y-355500D02*
X90933Y-356333D01*
X90533Y-356833D01*
X90067Y-357000D01*
X89533Y-356667D01*
X89133Y-355834D01*
X88867Y-354833D01*
X88800Y-353667D01*
X88867Y-352500D01*
X89133Y-351500D01*
X89533Y-350667D01*
X90067Y-350334D01*
X90533Y-350500D01*
X90867Y-350833D01*
X91200Y-351500D01*
G01X93867Y-350334D02*
Y-355000D01*
X94133Y-356167D01*
X94533Y-356833D01*
X95000Y-357000D01*
X95467Y-356833D01*
X95867Y-356167D01*
X96133Y-355000D01*
G01Y-357000D02*
Y-350334D01*
G01X101067Y-351167D02*
X100600Y-350500D01*
X100200Y-350334D01*
X99667Y-350667D01*
X99267Y-351333D01*
X99000Y-352500D01*
X98933Y-353667D01*
X99000Y-354833D01*
X99267Y-355834D01*
X99667Y-356667D01*
X100200Y-357000D01*
X100667Y-356667D01*
X101067Y-356000D01*
G01X105000Y-347000D02*
Y-357000D01*
G01X104067Y-350334D02*
X105933D01*
G01X113667Y-357000D02*
Y-347000D01*
X115267D01*
X115800Y-347500D01*
X116200Y-348667D01*
X116333Y-350000D01*
X116200Y-351333D01*
X115867Y-352333D01*
X115267Y-352834D01*
X113667D01*
G01X120000Y-357000D02*
X119600Y-356833D01*
X119200Y-356167D01*
X118933Y-355000D01*
X118800Y-353667D01*
X118933Y-352333D01*
X119200Y-351167D01*
X119600Y-350500D01*
X120000Y-350334D01*
X120400Y-350500D01*
X120800Y-351167D01*
X121067Y-352333D01*
X121133Y-353667D01*
X121067Y-355000D01*
X120800Y-356167D01*
X120400Y-356833D01*
X120000Y-357000D01*
G01X124000Y-355834D02*
X124333Y-356500D01*
X124800Y-357000D01*
X125200D01*
X125600Y-356667D01*
X125867Y-356167D01*
X126000Y-355500D01*
X125933Y-354500D01*
X125667Y-354000D01*
X124467Y-353000D01*
X124200Y-351833D01*
X124333Y-351000D01*
X124600Y-350500D01*
X125000Y-350334D01*
X125400Y-350500D01*
X125800Y-351000D01*
G01X129000Y-355834D02*
X129333Y-356500D01*
X129800Y-357000D01*
X130200D01*
X130600Y-356667D01*
X130867Y-356167D01*
X131000Y-355500D01*
X130933Y-354500D01*
X130667Y-354000D01*
X129467Y-353000D01*
X129200Y-351833D01*
X129333Y-351000D01*
X129600Y-350500D01*
X130000Y-350334D01*
X130400Y-350500D01*
X130800Y-351000D01*
G01X135000Y-350334D02*
Y-357000D01*
G01Y-347667D02*
X134867Y-347500D01*
Y-347167D01*
X135000Y-347000D01*
X135133Y-347167D01*
Y-347500D01*
X135000Y-347667D01*
G01X138800Y-357000D02*
Y-347000D01*
G01Y-352000D02*
X139133Y-351000D01*
X139533Y-350500D01*
X139933Y-350334D01*
X140533Y-350667D01*
X140933Y-351333D01*
X141200Y-352500D01*
Y-353833D01*
X141067Y-355167D01*
X140800Y-356167D01*
X140333Y-356833D01*
X139933Y-357000D01*
X139533Y-356833D01*
X139133Y-356333D01*
X138800Y-355500D01*
G01X145000Y-357000D02*
Y-347000D01*
G01X149000Y-352500D02*
X151133D01*
X150933Y-351333D01*
X150600Y-350667D01*
X150133Y-350334D01*
X149667Y-350500D01*
X149267Y-351000D01*
X149000Y-352167D01*
X148867Y-353167D01*
Y-354167D01*
X149000Y-355167D01*
X149333Y-356167D01*
X149733Y-356833D01*
X150200Y-357000D01*
X150667Y-356667D01*
X151133Y-355667D01*
G01X155000Y-357333D02*
X154867Y-357167D01*
Y-356833D01*
X155000Y-356667D01*
X155133Y-356833D01*
Y-357167D01*
X155000Y-357333D01*
G01X-60000Y-342000D02*
X-60533Y-341833D01*
X-61000Y-341167D01*
X-61400Y-340167D01*
X-61667Y-339000D01*
X-61800Y-337667D01*
Y-336333D01*
X-61667Y-335000D01*
X-61400Y-333833D01*
X-61000Y-332833D01*
X-60533Y-332167D01*
X-60000Y-332000D01*
X-59467Y-332167D01*
X-59000Y-332833D01*
X-58600Y-333833D01*
X-58333Y-335000D01*
X-58200Y-336333D01*
Y-337667D01*
X-58333Y-339000D01*
X-58600Y-340167D01*
X-59000Y-341167D01*
X-59467Y-341833D01*
X-60000Y-342000D01*
G01X-55000Y-332000D02*
Y-342000D01*
G01X-55933Y-335334D02*
X-54067D01*
G01X-51133Y-342000D02*
Y-332000D01*
G01Y-336833D02*
X-50800Y-336000D01*
X-50467Y-335500D01*
X-49933Y-335334D01*
X-49533Y-335500D01*
X-49067Y-336167D01*
X-48867Y-337167D01*
Y-342000D01*
G01X-46000Y-337500D02*
X-43867D01*
X-44067Y-336333D01*
X-44400Y-335667D01*
X-44867Y-335334D01*
X-45333Y-335500D01*
X-45733Y-336000D01*
X-46000Y-337167D01*
X-46133Y-338167D01*
Y-339167D01*
X-46000Y-340167D01*
X-45667Y-341167D01*
X-45267Y-341833D01*
X-44800Y-342000D01*
X-44333Y-341667D01*
X-43867Y-340667D01*
G01X-40933Y-342000D02*
Y-335334D01*
G01Y-336667D02*
X-40600Y-336000D01*
X-40267Y-335500D01*
X-39800Y-335334D01*
X-39467Y-335500D01*
X-39067Y-336000D01*
G01X-36000Y-340834D02*
X-35667Y-341500D01*
X-35200Y-342000D01*
X-34800D01*
X-34400Y-341667D01*
X-34133Y-341167D01*
X-34000Y-340500D01*
X-34067Y-339500D01*
X-34333Y-339000D01*
X-35533Y-338000D01*
X-35800Y-336833D01*
X-35667Y-336000D01*
X-35400Y-335500D01*
X-35000Y-335334D01*
X-34600Y-335500D01*
X-34200Y-336000D01*
G01X-30000Y-342333D02*
X-30133Y-342167D01*
Y-341833D01*
X-30000Y-341667D01*
X-29867Y-341833D01*
Y-342167D01*
X-30000Y-342333D01*
G01X-21400Y-340667D02*
X-20867Y-341500D01*
X-20267Y-342000D01*
X-19733D01*
X-19200Y-341500D01*
X-18800Y-340667D01*
X-18600Y-339500D01*
X-18733Y-338334D01*
X-19067Y-337333D01*
X-19667Y-336667D01*
X-20467Y-336333D01*
X-20933Y-335667D01*
X-21133Y-334500D01*
X-21000Y-333333D01*
X-20667Y-332500D01*
X-20200Y-332000D01*
X-19733D01*
X-19267Y-332333D01*
X-18867Y-333167D01*
G01X-16733Y-342000D02*
Y-332000D01*
X-15000Y-340333D01*
X-13267Y-332000D01*
Y-342000D01*
G01X-11400Y-340667D02*
X-10867Y-341500D01*
X-10267Y-342000D01*
X-9733D01*
X-9200Y-341500D01*
X-8800Y-340667D01*
X-8600Y-339500D01*
X-8733Y-338334D01*
X-9067Y-337333D01*
X-9667Y-336667D01*
X-10467Y-336333D01*
X-10933Y-335667D01*
X-11133Y-334500D01*
X-11000Y-333333D01*
X-10667Y-332500D01*
X-10200Y-332000D01*
X-9733D01*
X-9267Y-332333D01*
X-8867Y-333167D01*
G01X-3533Y-332833D02*
X-3933Y-332333D01*
X-4400Y-332000D01*
X-4933D01*
X-5533Y-332500D01*
X-6000Y-333333D01*
X-6333Y-334333D01*
X-6600Y-336000D01*
X-6667Y-337500D01*
X-6533Y-339000D01*
X-6333Y-340000D01*
X-5933Y-341000D01*
X-5467Y-341667D01*
X-5000Y-342000D01*
X-4533D01*
X-4067Y-341667D01*
X-3667Y-341167D01*
X-3333Y-340500D01*
G01X3667Y-342000D02*
Y-332000D01*
X5333D01*
X5867Y-332500D01*
X6200Y-333167D01*
X6333Y-334500D01*
X6200Y-335833D01*
X5800Y-336667D01*
X5333Y-337167D01*
X3667D01*
G01X5333D02*
X6333Y-342000D01*
G01X9000Y-337500D02*
X11133D01*
X10933Y-336333D01*
X10600Y-335667D01*
X10133Y-335334D01*
X9667Y-335500D01*
X9267Y-336000D01*
X9000Y-337167D01*
X8867Y-338167D01*
Y-339167D01*
X9000Y-340167D01*
X9333Y-341167D01*
X9733Y-341833D01*
X10200Y-342000D01*
X10667Y-341667D01*
X11133Y-340667D01*
G01X14000Y-340834D02*
X14333Y-341500D01*
X14800Y-342000D01*
X15200D01*
X15600Y-341667D01*
X15867Y-341167D01*
X16000Y-340500D01*
X15933Y-339500D01*
X15667Y-339000D01*
X14467Y-338000D01*
X14200Y-336833D01*
X14333Y-336000D01*
X14600Y-335500D01*
X15000Y-335334D01*
X15400Y-335500D01*
X15800Y-336000D01*
G01X19000Y-337500D02*
X21133D01*
X20933Y-336333D01*
X20600Y-335667D01*
X20133Y-335334D01*
X19667Y-335500D01*
X19267Y-336000D01*
X19000Y-337167D01*
X18867Y-338167D01*
Y-339167D01*
X19000Y-340167D01*
X19333Y-341167D01*
X19733Y-341833D01*
X20200Y-342000D01*
X20667Y-341667D01*
X21133Y-340667D01*
G01X24067Y-342000D02*
Y-335334D01*
G01Y-336667D02*
X24400Y-336000D01*
X24733Y-335500D01*
X25200Y-335334D01*
X25533Y-335500D01*
X25933Y-336000D01*
G01X28800Y-335334D02*
X30000Y-342000D01*
X31200Y-335334D01*
G01X34000Y-337500D02*
X36133D01*
X35933Y-336333D01*
X35600Y-335667D01*
X35133Y-335334D01*
X34667Y-335500D01*
X34267Y-336000D01*
X34000Y-337167D01*
X33867Y-338167D01*
Y-339167D01*
X34000Y-340167D01*
X34333Y-341167D01*
X34733Y-341833D01*
X35200Y-342000D01*
X35667Y-341667D01*
X36133Y-340667D01*
G01X39000Y-340834D02*
X39333Y-341500D01*
X39800Y-342000D01*
X40200D01*
X40600Y-341667D01*
X40867Y-341167D01*
X41000Y-340500D01*
X40933Y-339500D01*
X40667Y-339000D01*
X39467Y-338000D01*
X39200Y-336833D01*
X39333Y-336000D01*
X39600Y-335500D01*
X40000Y-335334D01*
X40400Y-335500D01*
X40800Y-336000D01*
G01X50000Y-332000D02*
Y-342000D01*
G01X48467Y-332000D02*
X51533D01*
G01X53867Y-342000D02*
Y-332000D01*
G01Y-336833D02*
X54200Y-336000D01*
X54533Y-335500D01*
X55067Y-335334D01*
X55467Y-335500D01*
X55933Y-336167D01*
X56133Y-337167D01*
Y-342000D01*
G01X59000Y-337500D02*
X61133D01*
X60933Y-336333D01*
X60600Y-335667D01*
X60133Y-335334D01*
X59667Y-335500D01*
X59267Y-336000D01*
X59000Y-337167D01*
X58867Y-338167D01*
Y-339167D01*
X59000Y-340167D01*
X59333Y-341167D01*
X59733Y-341833D01*
X60200Y-342000D01*
X60667Y-341667D01*
X61133Y-340667D01*
G01X68667Y-342000D02*
Y-332000D01*
X70333D01*
X70867Y-332500D01*
X71200Y-333167D01*
X71333Y-334500D01*
X71200Y-335833D01*
X70800Y-336667D01*
X70333Y-337167D01*
X68667D01*
G01X70333D02*
X71333Y-342000D01*
G01X75000Y-335334D02*
Y-342000D01*
G01Y-332667D02*
X74867Y-332500D01*
Y-332167D01*
X75000Y-332000D01*
X75133Y-332167D01*
Y-332500D01*
X75000Y-332667D01*
G01X79067Y-344500D02*
X79533Y-345167D01*
X80067Y-345333D01*
X80533Y-345167D01*
X80933Y-344333D01*
X81200Y-343167D01*
Y-335334D01*
G01Y-336667D02*
X80933Y-336000D01*
X80533Y-335500D01*
X80067Y-335334D01*
X79533Y-335667D01*
X79200Y-336333D01*
X78933Y-337500D01*
X78800Y-338667D01*
X78867Y-339667D01*
X79133Y-340834D01*
X79533Y-341667D01*
X80067Y-342000D01*
X80467Y-341833D01*
X80933Y-341167D01*
X81200Y-340500D01*
G01X83867Y-342000D02*
Y-332000D01*
G01Y-336833D02*
X84200Y-336000D01*
X84533Y-335500D01*
X85067Y-335334D01*
X85467Y-335500D01*
X85933Y-336167D01*
X86133Y-337167D01*
Y-342000D01*
G01X90000Y-332000D02*
Y-342000D01*
G01X89067Y-335334D02*
X90933D01*
G01X100000Y-332000D02*
Y-342000D01*
G01X98467Y-332000D02*
X101533D01*
G01X105000Y-342000D02*
X104600Y-341833D01*
X104200Y-341167D01*
X103933Y-340000D01*
X103800Y-338667D01*
X103933Y-337333D01*
X104200Y-336167D01*
X104600Y-335500D01*
X105000Y-335334D01*
X105400Y-335500D01*
X105800Y-336167D01*
X106067Y-337333D01*
X106133Y-338667D01*
X106067Y-340000D01*
X105800Y-341167D01*
X105400Y-341833D01*
X105000Y-342000D01*
G01X113267D02*
Y-332000D01*
X115000Y-340333D01*
X116733Y-332000D01*
Y-342000D01*
G01X121200D02*
Y-335334D01*
G01Y-336500D02*
X120933Y-335833D01*
X120533Y-335500D01*
X120067Y-335334D01*
X119600Y-335667D01*
X119200Y-336333D01*
X118933Y-337333D01*
X118800Y-338667D01*
X118933Y-340000D01*
X119200Y-341000D01*
X119600Y-341667D01*
X120067Y-342000D01*
X120533Y-341833D01*
X120933Y-341333D01*
X121200Y-340667D01*
G01X123867Y-342000D02*
Y-332000D01*
G01X126000Y-335334D02*
X123867Y-339167D01*
G01X124733Y-337667D02*
X126133Y-342000D01*
G01X129000Y-337500D02*
X131133D01*
X130933Y-336333D01*
X130600Y-335667D01*
X130133Y-335334D01*
X129667Y-335500D01*
X129267Y-336000D01*
X129000Y-337167D01*
X128867Y-338167D01*
Y-339167D01*
X129000Y-340167D01*
X129333Y-341167D01*
X129733Y-341833D01*
X130200Y-342000D01*
X130667Y-341667D01*
X131133Y-340667D01*
G01X141467Y-332833D02*
X141067Y-332333D01*
X140600Y-332000D01*
X140067D01*
X139467Y-332500D01*
X139000Y-333333D01*
X138667Y-334333D01*
X138400Y-336000D01*
X138333Y-337500D01*
X138467Y-339000D01*
X138667Y-340000D01*
X139067Y-341000D01*
X139533Y-341667D01*
X140000Y-342000D01*
X140467D01*
X140933Y-341667D01*
X141333Y-341167D01*
X141667Y-340500D01*
G01X143867Y-342000D02*
Y-332000D01*
G01Y-336833D02*
X144200Y-336000D01*
X144533Y-335500D01*
X145067Y-335334D01*
X145467Y-335500D01*
X145933Y-336167D01*
X146133Y-337167D01*
Y-342000D01*
G01X151200D02*
Y-335334D01*
G01Y-336500D02*
X150933Y-335833D01*
X150533Y-335500D01*
X150067Y-335334D01*
X149600Y-335667D01*
X149200Y-336333D01*
X148933Y-337333D01*
X148800Y-338667D01*
X148933Y-340000D01*
X149200Y-341000D01*
X149600Y-341667D01*
X150067Y-342000D01*
X150533Y-341833D01*
X150933Y-341333D01*
X151200Y-340667D01*
G01X153867Y-342000D02*
Y-335334D01*
G01Y-337000D02*
X154133Y-336167D01*
X154533Y-335500D01*
X155067Y-335334D01*
X155533Y-335500D01*
X155933Y-336167D01*
X156133Y-337333D01*
Y-342000D01*
G01X159067Y-344500D02*
X159533Y-345167D01*
X160067Y-345333D01*
X160533Y-345167D01*
X160933Y-344333D01*
X161200Y-343167D01*
Y-335334D01*
G01Y-336667D02*
X160933Y-336000D01*
X160533Y-335500D01*
X160067Y-335334D01*
X159533Y-335667D01*
X159200Y-336333D01*
X158933Y-337500D01*
X158800Y-338667D01*
X158867Y-339667D01*
X159133Y-340834D01*
X159533Y-341667D01*
X160067Y-342000D01*
X160467Y-341833D01*
X160933Y-341167D01*
X161200Y-340500D01*
G01X164000Y-337500D02*
X166133D01*
X165933Y-336333D01*
X165600Y-335667D01*
X165133Y-335334D01*
X164667Y-335500D01*
X164267Y-336000D01*
X164000Y-337167D01*
X163867Y-338167D01*
Y-339167D01*
X164000Y-340167D01*
X164333Y-341167D01*
X164733Y-341833D01*
X165200Y-342000D01*
X165667Y-341667D01*
X166133Y-340667D01*
G01X169000Y-340834D02*
X169333Y-341500D01*
X169800Y-342000D01*
X170200D01*
X170600Y-341667D01*
X170867Y-341167D01*
X171000Y-340500D01*
X170933Y-339500D01*
X170667Y-339000D01*
X169467Y-338000D01*
X169200Y-336833D01*
X169333Y-336000D01*
X169600Y-335500D01*
X170000Y-335334D01*
X170400Y-335500D01*
X170800Y-336000D01*
G01X178333Y-342000D02*
X180000Y-332000D01*
X181667Y-342000D01*
G01X181067Y-338500D02*
X178933D01*
G01X185000Y-332000D02*
Y-342000D01*
G01X184067Y-335334D02*
X185933D01*
G01X193333Y-342000D02*
X195000Y-332000D01*
X196667Y-342000D01*
G01X196067Y-338500D02*
X193933D01*
G01X198867Y-342000D02*
Y-335334D01*
G01Y-337000D02*
X199133Y-336167D01*
X199533Y-335500D01*
X200067Y-335334D01*
X200533Y-335500D01*
X200933Y-336167D01*
X201133Y-337333D01*
Y-342000D01*
G01X203600Y-345000D02*
X204000Y-345333D01*
X204533Y-345000D01*
X204867Y-344333D01*
X205133Y-343500D01*
X205533Y-340834D01*
X206400Y-335334D01*
G01X204267D02*
X205533Y-340834D01*
G01X215000Y-332000D02*
Y-342000D01*
G01X213467Y-332000D02*
X216533D01*
G01X220000Y-335334D02*
Y-342000D01*
G01Y-332667D02*
X219867Y-332500D01*
Y-332167D01*
X220000Y-332000D01*
X220133Y-332167D01*
Y-332500D01*
X220000Y-332667D01*
G01X223000Y-342000D02*
Y-335334D01*
G01Y-337167D02*
X223200Y-336333D01*
X223533Y-335667D01*
X224000Y-335334D01*
X224467Y-335667D01*
X224800Y-336333D01*
X225000Y-337167D01*
Y-342000D01*
G01Y-337167D02*
X225200Y-336333D01*
X225533Y-335667D01*
X226000Y-335334D01*
X226467Y-335667D01*
X226800Y-336333D01*
X227000Y-337333D01*
Y-342000D01*
G01X229000Y-337500D02*
X231133D01*
X230933Y-336333D01*
X230600Y-335667D01*
X230133Y-335334D01*
X229667Y-335500D01*
X229267Y-336000D01*
X229000Y-337167D01*
X228867Y-338167D01*
Y-339167D01*
X229000Y-340167D01*
X229333Y-341167D01*
X229733Y-341833D01*
X230200Y-342000D01*
X230667Y-341667D01*
X231133Y-340667D01*
G01X239200Y-332000D02*
X240800D01*
G01X240000D02*
Y-342000D01*
G01X239200D02*
X240800D01*
G01X243867D02*
Y-335334D01*
G01Y-337000D02*
X244133Y-336167D01*
X244533Y-335500D01*
X245067Y-335334D01*
X245533Y-335500D01*
X245933Y-336167D01*
X246133Y-337333D01*
Y-342000D01*
G01X255000D02*
X254467Y-341833D01*
X254000Y-341167D01*
X253600Y-340167D01*
X253333Y-339000D01*
X253200Y-337667D01*
Y-336333D01*
X253333Y-335000D01*
X253600Y-333833D01*
X254000Y-332833D01*
X254467Y-332167D01*
X255000Y-332000D01*
X255533Y-332167D01*
X256000Y-332833D01*
X256400Y-333833D01*
X256667Y-335000D01*
X256800Y-336333D01*
Y-337667D01*
X256667Y-339000D01*
X256400Y-340167D01*
X256000Y-341167D01*
X255533Y-341833D01*
X255000Y-342000D01*
G01X259067D02*
Y-335334D01*
G01Y-336667D02*
X259400Y-336000D01*
X259733Y-335500D01*
X260200Y-335334D01*
X260533Y-335500D01*
X260933Y-336000D01*
G01X266200Y-332000D02*
Y-342000D01*
G01Y-340500D02*
X265933Y-341333D01*
X265533Y-341833D01*
X265067Y-342000D01*
X264533Y-341667D01*
X264133Y-340834D01*
X263867Y-339833D01*
X263800Y-338667D01*
X263867Y-337500D01*
X264133Y-336500D01*
X264533Y-335667D01*
X265067Y-335334D01*
X265533Y-335500D01*
X265867Y-335833D01*
X266200Y-336500D01*
G01X269000Y-337500D02*
X271133D01*
X270933Y-336333D01*
X270600Y-335667D01*
X270133Y-335334D01*
X269667Y-335500D01*
X269267Y-336000D01*
X269000Y-337167D01*
X268867Y-338167D01*
Y-339167D01*
X269000Y-340167D01*
X269333Y-341167D01*
X269733Y-341833D01*
X270200Y-342000D01*
X270667Y-341667D01*
X271133Y-340667D01*
G01X274067Y-342000D02*
Y-335334D01*
G01Y-336667D02*
X274400Y-336000D01*
X274733Y-335500D01*
X275200Y-335334D01*
X275533Y-335500D01*
X275933Y-336000D01*
G01X285000Y-332000D02*
Y-342000D01*
G01X283467Y-332000D02*
X286533D01*
G01X290000Y-342000D02*
X289600Y-341833D01*
X289200Y-341167D01*
X288933Y-340000D01*
X288800Y-338667D01*
X288933Y-337333D01*
X289200Y-336167D01*
X289600Y-335500D01*
X290000Y-335334D01*
X290400Y-335500D01*
X290800Y-336167D01*
X291067Y-337333D01*
X291133Y-338667D01*
X291067Y-340000D01*
X290800Y-341167D01*
X290400Y-341833D01*
X290000Y-342000D01*
G01X299200Y-332000D02*
X300800D01*
G01X300000D02*
Y-342000D01*
G01X299200D02*
X300800D01*
G01X303000D02*
Y-335334D01*
G01Y-337167D02*
X303200Y-336333D01*
X303533Y-335667D01*
X304000Y-335334D01*
X304467Y-335667D01*
X304800Y-336333D01*
X305000Y-337167D01*
Y-342000D01*
G01Y-337167D02*
X305200Y-336333D01*
X305533Y-335667D01*
X306000Y-335334D01*
X306467Y-335667D01*
X306800Y-336333D01*
X307000Y-337333D01*
Y-342000D01*
G01X308800Y-345333D02*
Y-335334D01*
G01Y-336833D02*
X309133Y-336000D01*
X309467Y-335500D01*
X310000Y-335334D01*
X310467Y-335500D01*
X310933Y-336333D01*
X311133Y-337500D01*
X311200Y-338667D01*
X311133Y-339833D01*
X310933Y-341000D01*
X310533Y-341667D01*
X310000Y-342000D01*
X309533Y-341833D01*
X309067Y-341333D01*
X308800Y-340667D01*
G01X314067Y-342000D02*
Y-335334D01*
G01Y-336667D02*
X314400Y-336000D01*
X314733Y-335500D01*
X315200Y-335334D01*
X315533Y-335500D01*
X315933Y-336000D01*
G01X320000Y-342000D02*
X319600Y-341833D01*
X319200Y-341167D01*
X318933Y-340000D01*
X318800Y-338667D01*
X318933Y-337333D01*
X319200Y-336167D01*
X319600Y-335500D01*
X320000Y-335334D01*
X320400Y-335500D01*
X320800Y-336167D01*
X321067Y-337333D01*
X321133Y-338667D01*
X321067Y-340000D01*
X320800Y-341167D01*
X320400Y-341833D01*
X320000Y-342000D01*
G01X323800Y-335334D02*
X325000Y-342000D01*
X326200Y-335334D01*
G01X329000Y-337500D02*
X331133D01*
X330933Y-336333D01*
X330600Y-335667D01*
X330133Y-335334D01*
X329667Y-335500D01*
X329267Y-336000D01*
X329000Y-337167D01*
X328867Y-338167D01*
Y-339167D01*
X329000Y-340167D01*
X329333Y-341167D01*
X329733Y-341833D01*
X330200Y-342000D01*
X330667Y-341667D01*
X331133Y-340667D01*
G01X-60000Y-317000D02*
Y-327000D01*
G01X-61533Y-317000D02*
X-58467D01*
G01X-56133Y-327000D02*
Y-317000D01*
G01Y-321833D02*
X-55800Y-321000D01*
X-55467Y-320500D01*
X-54933Y-320334D01*
X-54533Y-320500D01*
X-54067Y-321167D01*
X-53867Y-322167D01*
Y-327000D01*
G01X-51000Y-322500D02*
X-48867D01*
X-49067Y-321333D01*
X-49400Y-320667D01*
X-49867Y-320334D01*
X-50333Y-320500D01*
X-50733Y-321000D01*
X-51000Y-322167D01*
X-51133Y-323167D01*
Y-324167D01*
X-51000Y-325167D01*
X-50667Y-326167D01*
X-50267Y-326833D01*
X-49800Y-327000D01*
X-49333Y-326667D01*
X-48867Y-325667D01*
G01X-41400D02*
X-40867Y-326500D01*
X-40267Y-327000D01*
X-39733D01*
X-39200Y-326500D01*
X-38800Y-325667D01*
X-38600Y-324500D01*
X-38733Y-323334D01*
X-39067Y-322333D01*
X-39667Y-321667D01*
X-40467Y-321333D01*
X-40933Y-320667D01*
X-41133Y-319500D01*
X-41000Y-318333D01*
X-40667Y-317500D01*
X-40200Y-317000D01*
X-39733D01*
X-39267Y-317333D01*
X-38867Y-318167D01*
G01X-36000Y-322500D02*
X-33867D01*
X-34067Y-321333D01*
X-34400Y-320667D01*
X-34867Y-320334D01*
X-35333Y-320500D01*
X-35733Y-321000D01*
X-36000Y-322167D01*
X-36133Y-323167D01*
Y-324167D01*
X-36000Y-325167D01*
X-35667Y-326167D01*
X-35267Y-326833D01*
X-34800Y-327000D01*
X-34333Y-326667D01*
X-33867Y-325667D01*
G01X-32000Y-327000D02*
Y-320334D01*
G01Y-322167D02*
X-31800Y-321333D01*
X-31467Y-320667D01*
X-31000Y-320334D01*
X-30533Y-320667D01*
X-30200Y-321333D01*
X-30000Y-322167D01*
Y-327000D01*
G01Y-322167D02*
X-29800Y-321333D01*
X-29467Y-320667D01*
X-29000Y-320334D01*
X-28533Y-320667D01*
X-28200Y-321333D01*
X-28000Y-322333D01*
Y-327000D01*
G01X-25000Y-320334D02*
Y-327000D01*
G01Y-317667D02*
X-25133Y-317500D01*
Y-317167D01*
X-25000Y-317000D01*
X-24867Y-317167D01*
Y-317500D01*
X-25000Y-317667D01*
G01X-18933Y-321167D02*
X-19400Y-320500D01*
X-19800Y-320334D01*
X-20333Y-320667D01*
X-20733Y-321333D01*
X-21000Y-322500D01*
X-21067Y-323667D01*
X-21000Y-324833D01*
X-20733Y-325834D01*
X-20333Y-326667D01*
X-19800Y-327000D01*
X-19333Y-326667D01*
X-18933Y-326000D01*
G01X-15000Y-327000D02*
X-15400Y-326833D01*
X-15800Y-326167D01*
X-16067Y-325000D01*
X-16200Y-323667D01*
X-16067Y-322333D01*
X-15800Y-321167D01*
X-15400Y-320500D01*
X-15000Y-320334D01*
X-14600Y-320500D01*
X-14200Y-321167D01*
X-13933Y-322333D01*
X-13867Y-323667D01*
X-13933Y-325000D01*
X-14200Y-326167D01*
X-14600Y-326833D01*
X-15000Y-327000D01*
G01X-11133D02*
Y-320334D01*
G01Y-322000D02*
X-10867Y-321167D01*
X-10467Y-320500D01*
X-9933Y-320334D01*
X-9467Y-320500D01*
X-9067Y-321167D01*
X-8867Y-322333D01*
Y-327000D01*
G01X-3800Y-317000D02*
Y-327000D01*
G01Y-325500D02*
X-4067Y-326333D01*
X-4467Y-326833D01*
X-4933Y-327000D01*
X-5467Y-326667D01*
X-5867Y-325834D01*
X-6133Y-324833D01*
X-6200Y-323667D01*
X-6133Y-322500D01*
X-5867Y-321500D01*
X-5467Y-320667D01*
X-4933Y-320334D01*
X-4467Y-320500D01*
X-4133Y-320833D01*
X-3800Y-321500D01*
G01X-1133Y-320334D02*
Y-325000D01*
X-867Y-326167D01*
X-467Y-326833D01*
X0Y-327000D01*
X467Y-326833D01*
X867Y-326167D01*
X1133Y-325000D01*
G01Y-327000D02*
Y-320334D01*
G01X6067Y-321167D02*
X5600Y-320500D01*
X5200Y-320334D01*
X4667Y-320667D01*
X4267Y-321333D01*
X4000Y-322500D01*
X3933Y-323667D01*
X4000Y-324833D01*
X4267Y-325834D01*
X4667Y-326667D01*
X5200Y-327000D01*
X5667Y-326667D01*
X6067Y-326000D01*
G01X10000Y-317000D02*
Y-327000D01*
G01X9067Y-320334D02*
X10933D01*
G01X15000Y-327000D02*
X14600Y-326833D01*
X14200Y-326167D01*
X13933Y-325000D01*
X13800Y-323667D01*
X13933Y-322333D01*
X14200Y-321167D01*
X14600Y-320500D01*
X15000Y-320334D01*
X15400Y-320500D01*
X15800Y-321167D01*
X16067Y-322333D01*
X16133Y-323667D01*
X16067Y-325000D01*
X15800Y-326167D01*
X15400Y-326833D01*
X15000Y-327000D01*
G01X19067D02*
Y-320334D01*
G01Y-321667D02*
X19400Y-321000D01*
X19733Y-320500D01*
X20200Y-320334D01*
X20533Y-320500D01*
X20933Y-321000D01*
G01X28533Y-327000D02*
Y-317000D01*
X29867D01*
X30400Y-317500D01*
X30800Y-318167D01*
X31133Y-319167D01*
X31400Y-320334D01*
X31467Y-322000D01*
X31400Y-323667D01*
X31133Y-324833D01*
X30800Y-325834D01*
X30400Y-326500D01*
X29867Y-327000D01*
X28533D01*
G01X34000Y-322500D02*
X36133D01*
X35933Y-321333D01*
X35600Y-320667D01*
X35133Y-320334D01*
X34667Y-320500D01*
X34267Y-321000D01*
X34000Y-322167D01*
X33867Y-323167D01*
Y-324167D01*
X34000Y-325167D01*
X34333Y-326167D01*
X34733Y-326833D01*
X35200Y-327000D01*
X35667Y-326667D01*
X36133Y-325667D01*
G01X38800Y-320334D02*
X40000Y-327000D01*
X41200Y-320334D01*
G01X45000D02*
Y-327000D01*
G01Y-317667D02*
X44867Y-317500D01*
Y-317167D01*
X45000Y-317000D01*
X45133Y-317167D01*
Y-317500D01*
X45000Y-317667D01*
G01X51067Y-321167D02*
X50600Y-320500D01*
X50200Y-320334D01*
X49667Y-320667D01*
X49267Y-321333D01*
X49000Y-322500D01*
X48933Y-323667D01*
X49000Y-324833D01*
X49267Y-325834D01*
X49667Y-326667D01*
X50200Y-327000D01*
X50667Y-326667D01*
X51067Y-326000D01*
G01X54000Y-322500D02*
X56133D01*
X55933Y-321333D01*
X55600Y-320667D01*
X55133Y-320334D01*
X54667Y-320500D01*
X54267Y-321000D01*
X54000Y-322167D01*
X53867Y-323167D01*
Y-324167D01*
X54000Y-325167D01*
X54333Y-326167D01*
X54733Y-326833D01*
X55200Y-327000D01*
X55667Y-326667D01*
X56133Y-325667D01*
G01X59000Y-325834D02*
X59333Y-326500D01*
X59800Y-327000D01*
X60200D01*
X60600Y-326667D01*
X60867Y-326167D01*
X61000Y-325500D01*
X60933Y-324500D01*
X60667Y-324000D01*
X59467Y-323000D01*
X59200Y-321833D01*
X59333Y-321000D01*
X59600Y-320500D01*
X60000Y-320334D01*
X60400Y-320500D01*
X60800Y-321000D01*
G01X68533Y-327000D02*
Y-317000D01*
X69867D01*
X70400Y-317500D01*
X70800Y-318167D01*
X71133Y-319167D01*
X71400Y-320334D01*
X71467Y-322000D01*
X71400Y-323667D01*
X71133Y-324833D01*
X70800Y-325834D01*
X70400Y-326500D01*
X69867Y-327000D01*
X68533D01*
G01X74000Y-322500D02*
X76133D01*
X75933Y-321333D01*
X75600Y-320667D01*
X75133Y-320334D01*
X74667Y-320500D01*
X74267Y-321000D01*
X74000Y-322167D01*
X73867Y-323167D01*
Y-324167D01*
X74000Y-325167D01*
X74333Y-326167D01*
X74733Y-326833D01*
X75200Y-327000D01*
X75667Y-326667D01*
X76133Y-325667D01*
G01X79000Y-325834D02*
X79333Y-326500D01*
X79800Y-327000D01*
X80200D01*
X80600Y-326667D01*
X80867Y-326167D01*
X81000Y-325500D01*
X80933Y-324500D01*
X80667Y-324000D01*
X79467Y-323000D01*
X79200Y-321833D01*
X79333Y-321000D01*
X79600Y-320500D01*
X80000Y-320334D01*
X80400Y-320500D01*
X80800Y-321000D01*
G01X86067Y-321167D02*
X85600Y-320500D01*
X85200Y-320334D01*
X84667Y-320667D01*
X84267Y-321333D01*
X84000Y-322500D01*
X83933Y-323667D01*
X84000Y-324833D01*
X84267Y-325834D01*
X84667Y-326667D01*
X85200Y-327000D01*
X85667Y-326667D01*
X86067Y-326000D01*
G01X89067Y-327000D02*
Y-320334D01*
G01Y-321667D02*
X89400Y-321000D01*
X89733Y-320500D01*
X90200Y-320334D01*
X90533Y-320500D01*
X90933Y-321000D01*
G01X95000Y-320334D02*
Y-327000D01*
G01Y-317667D02*
X94867Y-317500D01*
Y-317167D01*
X95000Y-317000D01*
X95133Y-317167D01*
Y-317500D01*
X95000Y-317667D01*
G01X98800Y-327000D02*
Y-317000D01*
G01Y-322000D02*
X99133Y-321000D01*
X99533Y-320500D01*
X99933Y-320334D01*
X100533Y-320667D01*
X100933Y-321333D01*
X101200Y-322500D01*
Y-323833D01*
X101067Y-325167D01*
X100800Y-326167D01*
X100333Y-326833D01*
X99933Y-327000D01*
X99533Y-326833D01*
X99133Y-326333D01*
X98800Y-325500D01*
G01X104000Y-322500D02*
X106133D01*
X105933Y-321333D01*
X105600Y-320667D01*
X105133Y-320334D01*
X104667Y-320500D01*
X104267Y-321000D01*
X104000Y-322167D01*
X103867Y-323167D01*
Y-324167D01*
X104000Y-325167D01*
X104333Y-326167D01*
X104733Y-326833D01*
X105200Y-327000D01*
X105667Y-326667D01*
X106133Y-325667D01*
G01X111200Y-317000D02*
Y-327000D01*
G01Y-325500D02*
X110933Y-326333D01*
X110533Y-326833D01*
X110067Y-327000D01*
X109533Y-326667D01*
X109133Y-325834D01*
X108867Y-324833D01*
X108800Y-323667D01*
X108867Y-322500D01*
X109133Y-321500D01*
X109533Y-320667D01*
X110067Y-320334D01*
X110533Y-320500D01*
X110867Y-320833D01*
X111200Y-321500D01*
G01X118333Y-327000D02*
X120000Y-317000D01*
X121667Y-327000D01*
G01X121067Y-323500D02*
X118933D01*
G01X123867Y-327000D02*
Y-320334D01*
G01Y-322000D02*
X124133Y-321167D01*
X124533Y-320500D01*
X125067Y-320334D01*
X125533Y-320500D01*
X125933Y-321167D01*
X126133Y-322333D01*
Y-327000D01*
G01X128600Y-330000D02*
X129000Y-330333D01*
X129533Y-330000D01*
X129867Y-329333D01*
X130133Y-328500D01*
X130533Y-325834D01*
X131400Y-320334D01*
G01X129267D02*
X130533Y-325834D01*
G01X138667Y-317000D02*
Y-327000D01*
X141333D01*
G01X145000Y-320334D02*
Y-327000D01*
G01Y-317667D02*
X144867Y-317500D01*
Y-317167D01*
X145000Y-317000D01*
X145133Y-317167D01*
Y-317500D01*
X145000Y-317667D01*
G01X151067Y-321167D02*
X150600Y-320500D01*
X150200Y-320334D01*
X149667Y-320667D01*
X149267Y-321333D01*
X149000Y-322500D01*
X148933Y-323667D01*
X149000Y-324833D01*
X149267Y-325834D01*
X149667Y-326667D01*
X150200Y-327000D01*
X150667Y-326667D01*
X151067Y-326000D01*
G01X154000Y-322500D02*
X156133D01*
X155933Y-321333D01*
X155600Y-320667D01*
X155133Y-320334D01*
X154667Y-320500D01*
X154267Y-321000D01*
X154000Y-322167D01*
X153867Y-323167D01*
Y-324167D01*
X154000Y-325167D01*
X154333Y-326167D01*
X154733Y-326833D01*
X155200Y-327000D01*
X155667Y-326667D01*
X156133Y-325667D01*
G01X158867Y-327000D02*
Y-320334D01*
G01Y-322000D02*
X159133Y-321167D01*
X159533Y-320500D01*
X160067Y-320334D01*
X160533Y-320500D01*
X160933Y-321167D01*
X161133Y-322333D01*
Y-327000D01*
G01X164000Y-325834D02*
X164333Y-326500D01*
X164800Y-327000D01*
X165200D01*
X165600Y-326667D01*
X165867Y-326167D01*
X166000Y-325500D01*
X165933Y-324500D01*
X165667Y-324000D01*
X164467Y-323000D01*
X164200Y-321833D01*
X164333Y-321000D01*
X164600Y-320500D01*
X165000Y-320334D01*
X165400Y-320500D01*
X165800Y-321000D01*
G01X169000Y-322500D02*
X171133D01*
X170933Y-321333D01*
X170600Y-320667D01*
X170133Y-320334D01*
X169667Y-320500D01*
X169267Y-321000D01*
X169000Y-322167D01*
X168867Y-323167D01*
Y-324167D01*
X169000Y-325167D01*
X169333Y-326167D01*
X169733Y-326833D01*
X170200Y-327000D01*
X170667Y-326667D01*
X171133Y-325667D01*
G01X178533Y-317000D02*
Y-324167D01*
X178800Y-325667D01*
X179333Y-326667D01*
X180000Y-327000D01*
X180667Y-326667D01*
X181200Y-325667D01*
X181467Y-324167D01*
Y-317000D01*
G01X183867Y-327000D02*
Y-320334D01*
G01Y-322000D02*
X184133Y-321167D01*
X184533Y-320500D01*
X185067Y-320334D01*
X185533Y-320500D01*
X185933Y-321167D01*
X186133Y-322333D01*
Y-327000D01*
G01X191200Y-317000D02*
Y-327000D01*
G01Y-325500D02*
X190933Y-326333D01*
X190533Y-326833D01*
X190067Y-327000D01*
X189533Y-326667D01*
X189133Y-325834D01*
X188867Y-324833D01*
X188800Y-323667D01*
X188867Y-322500D01*
X189133Y-321500D01*
X189533Y-320667D01*
X190067Y-320334D01*
X190533Y-320500D01*
X190867Y-320833D01*
X191200Y-321500D01*
G01X194000Y-322500D02*
X196133D01*
X195933Y-321333D01*
X195600Y-320667D01*
X195133Y-320334D01*
X194667Y-320500D01*
X194267Y-321000D01*
X194000Y-322167D01*
X193867Y-323167D01*
Y-324167D01*
X194000Y-325167D01*
X194333Y-326167D01*
X194733Y-326833D01*
X195200Y-327000D01*
X195667Y-326667D01*
X196133Y-325667D01*
G01X199067Y-327000D02*
Y-320334D01*
G01Y-321667D02*
X199400Y-321000D01*
X199733Y-320500D01*
X200200Y-320334D01*
X200533Y-320500D01*
X200933Y-321000D01*
G01X210000Y-317000D02*
Y-327000D01*
G01X208467Y-317000D02*
X211533D01*
G01X213867Y-327000D02*
Y-317000D01*
G01Y-321833D02*
X214200Y-321000D01*
X214533Y-320500D01*
X215067Y-320334D01*
X215467Y-320500D01*
X215933Y-321167D01*
X216133Y-322167D01*
Y-327000D01*
G01X219000Y-322500D02*
X221133D01*
X220933Y-321333D01*
X220600Y-320667D01*
X220133Y-320334D01*
X219667Y-320500D01*
X219267Y-321000D01*
X219000Y-322167D01*
X218867Y-323167D01*
Y-324167D01*
X219000Y-325167D01*
X219333Y-326167D01*
X219733Y-326833D01*
X220200Y-327000D01*
X220667Y-326667D01*
X221133Y-325667D01*
G01X228667Y-327000D02*
Y-317000D01*
X230267D01*
X230800Y-317500D01*
X231200Y-318667D01*
X231333Y-320000D01*
X231200Y-321333D01*
X230867Y-322333D01*
X230267Y-322834D01*
X228667D01*
G01X236200Y-327000D02*
Y-320334D01*
G01Y-321500D02*
X235933Y-320833D01*
X235533Y-320500D01*
X235067Y-320334D01*
X234600Y-320667D01*
X234200Y-321333D01*
X233933Y-322333D01*
X233800Y-323667D01*
X233933Y-325000D01*
X234200Y-326000D01*
X234600Y-326667D01*
X235067Y-327000D01*
X235533Y-326833D01*
X235933Y-326333D01*
X236200Y-325667D01*
G01X240000Y-317000D02*
Y-327000D01*
G01X239067Y-320334D02*
X240933D01*
G01X244000Y-322500D02*
X246133D01*
X245933Y-321333D01*
X245600Y-320667D01*
X245133Y-320334D01*
X244667Y-320500D01*
X244267Y-321000D01*
X244000Y-322167D01*
X243867Y-323167D01*
Y-324167D01*
X244000Y-325167D01*
X244333Y-326167D01*
X244733Y-326833D01*
X245200Y-327000D01*
X245667Y-326667D01*
X246133Y-325667D01*
G01X248867Y-327000D02*
Y-320334D01*
G01Y-322000D02*
X249133Y-321167D01*
X249533Y-320500D01*
X250067Y-320334D01*
X250533Y-320500D01*
X250933Y-321167D01*
X251133Y-322333D01*
Y-327000D01*
G01X255000Y-317000D02*
Y-327000D01*
G01X254067Y-320334D02*
X255933D01*
G01X263667Y-327000D02*
Y-317000D01*
X265333D01*
X265867Y-317500D01*
X266200Y-318167D01*
X266333Y-319500D01*
X266200Y-320833D01*
X265800Y-321667D01*
X265333Y-322167D01*
X263667D01*
G01X265333D02*
X266333Y-327000D01*
G01X270000Y-320334D02*
Y-327000D01*
G01Y-317667D02*
X269867Y-317500D01*
Y-317167D01*
X270000Y-317000D01*
X270133Y-317167D01*
Y-317500D01*
X270000Y-317667D01*
G01X274067Y-329500D02*
X274533Y-330167D01*
X275067Y-330333D01*
X275533Y-330167D01*
X275933Y-329333D01*
X276200Y-328167D01*
Y-320334D01*
G01Y-321667D02*
X275933Y-321000D01*
X275533Y-320500D01*
X275067Y-320334D01*
X274533Y-320667D01*
X274200Y-321333D01*
X273933Y-322500D01*
X273800Y-323667D01*
X273867Y-324667D01*
X274133Y-325834D01*
X274533Y-326667D01*
X275067Y-327000D01*
X275467Y-326833D01*
X275933Y-326167D01*
X276200Y-325500D01*
G01X278867Y-327000D02*
Y-317000D01*
G01Y-321833D02*
X279200Y-321000D01*
X279533Y-320500D01*
X280067Y-320334D01*
X280467Y-320500D01*
X280933Y-321167D01*
X281133Y-322167D01*
Y-327000D01*
G01X285000Y-317000D02*
Y-327000D01*
G01X284067Y-320334D02*
X285933D01*
G01X289000Y-325834D02*
X289333Y-326500D01*
X289800Y-327000D01*
X290200D01*
X290600Y-326667D01*
X290867Y-326167D01*
X291000Y-325500D01*
X290933Y-324500D01*
X290667Y-324000D01*
X289467Y-323000D01*
X289200Y-321833D01*
X289333Y-321000D01*
X289600Y-320500D01*
X290000Y-320334D01*
X290400Y-320500D01*
X290800Y-321000D01*
G01X300000Y-327000D02*
X299467Y-326833D01*
X299000Y-326167D01*
X298600Y-325167D01*
X298333Y-324000D01*
X298200Y-322667D01*
Y-321333D01*
X298333Y-320000D01*
X298600Y-318833D01*
X299000Y-317833D01*
X299467Y-317167D01*
X300000Y-317000D01*
X300533Y-317167D01*
X301000Y-317833D01*
X301400Y-318833D01*
X301667Y-320000D01*
X301800Y-321333D01*
Y-322667D01*
X301667Y-324000D01*
X301400Y-325167D01*
X301000Y-326167D01*
X300533Y-326833D01*
X300000Y-327000D01*
G01X304600D02*
Y-318500D01*
X304733Y-317667D01*
X305000Y-317167D01*
X305400Y-317000D01*
X305800Y-317333D01*
X306000Y-318167D01*
G01X305200Y-321000D02*
X303867D01*
G01X313600Y-325667D02*
X314133Y-326500D01*
X314733Y-327000D01*
X315267D01*
X315800Y-326500D01*
X316200Y-325667D01*
X316400Y-324500D01*
X316267Y-323334D01*
X315933Y-322333D01*
X315333Y-321667D01*
X314533Y-321333D01*
X314067Y-320667D01*
X313867Y-319500D01*
X314000Y-318333D01*
X314333Y-317500D01*
X314800Y-317000D01*
X315267D01*
X315733Y-317333D01*
X316133Y-318167D01*
G01X318267Y-327000D02*
Y-317000D01*
X320000Y-325333D01*
X321733Y-317000D01*
Y-327000D01*
G01X323600Y-325667D02*
X324133Y-326500D01*
X324733Y-327000D01*
X325267D01*
X325800Y-326500D01*
X326200Y-325667D01*
X326400Y-324500D01*
X326267Y-323334D01*
X325933Y-322333D01*
X325333Y-321667D01*
X324533Y-321333D01*
X324067Y-320667D01*
X323867Y-319500D01*
X324000Y-318333D01*
X324333Y-317500D01*
X324800Y-317000D01*
X325267D01*
X325733Y-317333D01*
X326133Y-318167D01*
G01X331467Y-317833D02*
X331067Y-317333D01*
X330600Y-317000D01*
X330067D01*
X329467Y-317500D01*
X329000Y-318333D01*
X328667Y-319333D01*
X328400Y-321000D01*
X328333Y-322500D01*
X328467Y-324000D01*
X328667Y-325000D01*
X329067Y-326000D01*
X329533Y-326667D01*
X330000Y-327000D01*
X330467D01*
X330933Y-326667D01*
X331333Y-326167D01*
X331667Y-325500D01*
G01X340000Y-327000D02*
X339467Y-326833D01*
X339000Y-326167D01*
X338600Y-325167D01*
X338333Y-324000D01*
X338200Y-322667D01*
Y-321333D01*
X338333Y-320000D01*
X338600Y-318833D01*
X339000Y-317833D01*
X339467Y-317167D01*
X340000Y-317000D01*
X340533Y-317167D01*
X341000Y-317833D01*
X341400Y-318833D01*
X341667Y-320000D01*
X341800Y-321333D01*
Y-322667D01*
X341667Y-324000D01*
X341400Y-325167D01*
X341000Y-326167D01*
X340533Y-326833D01*
X340000Y-327000D01*
G01X344067D02*
Y-320334D01*
G01Y-321667D02*
X344400Y-321000D01*
X344733Y-320500D01*
X345200Y-320334D01*
X345533Y-320500D01*
X345933Y-321000D01*
G01X-61267Y-312000D02*
Y-302000D01*
X-58733D01*
G01X-59667Y-306833D02*
X-61267D01*
G01X-55000Y-312000D02*
X-55400Y-311833D01*
X-55800Y-311167D01*
X-56067Y-310000D01*
X-56200Y-308667D01*
X-56067Y-307333D01*
X-55800Y-306167D01*
X-55400Y-305500D01*
X-55000Y-305334D01*
X-54600Y-305500D01*
X-54200Y-306167D01*
X-53933Y-307333D01*
X-53867Y-308667D01*
X-53933Y-310000D01*
X-54200Y-311167D01*
X-54600Y-311833D01*
X-55000Y-312000D01*
G01X-50933D02*
Y-305334D01*
G01Y-306667D02*
X-50600Y-306000D01*
X-50267Y-305500D01*
X-49800Y-305334D01*
X-49467Y-305500D01*
X-49067Y-306000D01*
G01X-40800Y-302000D02*
X-39200D01*
G01X-40000D02*
Y-312000D01*
G01X-40800D02*
X-39200D01*
G01X-36133D02*
Y-305334D01*
G01Y-307000D02*
X-35867Y-306167D01*
X-35467Y-305500D01*
X-34933Y-305334D01*
X-34467Y-305500D01*
X-34067Y-306167D01*
X-33867Y-307333D01*
Y-312000D01*
G01X-28800D02*
Y-305334D01*
G01Y-306500D02*
X-29067Y-305833D01*
X-29467Y-305500D01*
X-29933Y-305334D01*
X-30400Y-305667D01*
X-30800Y-306333D01*
X-31067Y-307333D01*
X-31200Y-308667D01*
X-31067Y-310000D01*
X-30800Y-311000D01*
X-30400Y-311667D01*
X-29933Y-312000D01*
X-29467Y-311833D01*
X-29067Y-311333D01*
X-28800Y-310667D01*
G01X-23933Y-306167D02*
X-24400Y-305500D01*
X-24800Y-305334D01*
X-25333Y-305667D01*
X-25733Y-306333D01*
X-26000Y-307500D01*
X-26067Y-308667D01*
X-26000Y-309833D01*
X-25733Y-310834D01*
X-25333Y-311667D01*
X-24800Y-312000D01*
X-24333Y-311667D01*
X-23933Y-311000D01*
G01X-18933Y-306167D02*
X-19400Y-305500D01*
X-19800Y-305334D01*
X-20333Y-305667D01*
X-20733Y-306333D01*
X-21000Y-307500D01*
X-21067Y-308667D01*
X-21000Y-309833D01*
X-20733Y-310834D01*
X-20333Y-311667D01*
X-19800Y-312000D01*
X-19333Y-311667D01*
X-18933Y-311000D01*
G01X-16133Y-305334D02*
Y-310000D01*
X-15867Y-311167D01*
X-15467Y-311833D01*
X-15000Y-312000D01*
X-14533Y-311833D01*
X-14133Y-311167D01*
X-13867Y-310000D01*
G01Y-312000D02*
Y-305334D01*
G01X-10933Y-312000D02*
Y-305334D01*
G01Y-306667D02*
X-10600Y-306000D01*
X-10267Y-305500D01*
X-9800Y-305334D01*
X-9467Y-305500D01*
X-9067Y-306000D01*
G01X-3800Y-312000D02*
Y-305334D01*
G01Y-306500D02*
X-4067Y-305833D01*
X-4467Y-305500D01*
X-4933Y-305334D01*
X-5400Y-305667D01*
X-5800Y-306333D01*
X-6067Y-307333D01*
X-6200Y-308667D01*
X-6067Y-310000D01*
X-5800Y-311000D01*
X-5400Y-311667D01*
X-4933Y-312000D01*
X-4467Y-311833D01*
X-4067Y-311333D01*
X-3800Y-310667D01*
G01X1067Y-306167D02*
X600Y-305500D01*
X200Y-305334D01*
X-333Y-305667D01*
X-733Y-306333D01*
X-1000Y-307500D01*
X-1067Y-308667D01*
X-1000Y-309833D01*
X-733Y-310834D01*
X-333Y-311667D01*
X200Y-312000D01*
X667Y-311667D01*
X1067Y-311000D01*
G01X5000Y-305334D02*
Y-312000D01*
G01Y-302667D02*
X4867Y-302500D01*
Y-302167D01*
X5000Y-302000D01*
X5133Y-302167D01*
Y-302500D01*
X5000Y-302667D01*
G01X9000Y-307500D02*
X11133D01*
X10933Y-306333D01*
X10600Y-305667D01*
X10133Y-305334D01*
X9667Y-305500D01*
X9267Y-306000D01*
X9000Y-307167D01*
X8867Y-308167D01*
Y-309167D01*
X9000Y-310167D01*
X9333Y-311167D01*
X9733Y-311833D01*
X10200Y-312000D01*
X10667Y-311667D01*
X11133Y-310667D01*
G01X14000Y-310834D02*
X14333Y-311500D01*
X14800Y-312000D01*
X15200D01*
X15600Y-311667D01*
X15867Y-311167D01*
X16000Y-310500D01*
X15933Y-309500D01*
X15667Y-309000D01*
X14467Y-308000D01*
X14200Y-306833D01*
X14333Y-306000D01*
X14600Y-305500D01*
X15000Y-305334D01*
X15400Y-305500D01*
X15800Y-306000D01*
G01X20000Y-312333D02*
X19867Y-312167D01*
Y-311833D01*
X20000Y-311667D01*
X20133Y-311833D01*
Y-312167D01*
X20000Y-312333D01*
G01X28733Y-312000D02*
Y-302000D01*
X31267D01*
G01X30333Y-306833D02*
X28733D01*
G01X33867Y-305334D02*
Y-310000D01*
X34133Y-311167D01*
X34533Y-311833D01*
X35000Y-312000D01*
X35467Y-311833D01*
X35867Y-311167D01*
X36133Y-310000D01*
G01Y-312000D02*
Y-305334D01*
G01X39067Y-312000D02*
Y-305334D01*
G01Y-306667D02*
X39400Y-306000D01*
X39733Y-305500D01*
X40200Y-305334D01*
X40533Y-305500D01*
X40933Y-306000D01*
G01X45000Y-302000D02*
Y-312000D01*
G01X44067Y-305334D02*
X45933D01*
G01X48867Y-312000D02*
Y-302000D01*
G01Y-306833D02*
X49200Y-306000D01*
X49533Y-305500D01*
X50067Y-305334D01*
X50467Y-305500D01*
X50933Y-306167D01*
X51133Y-307167D01*
Y-312000D01*
G01X54000Y-307500D02*
X56133D01*
X55933Y-306333D01*
X55600Y-305667D01*
X55133Y-305334D01*
X54667Y-305500D01*
X54267Y-306000D01*
X54000Y-307167D01*
X53867Y-308167D01*
Y-309167D01*
X54000Y-310167D01*
X54333Y-311167D01*
X54733Y-311833D01*
X55200Y-312000D01*
X55667Y-311667D01*
X56133Y-310667D01*
G01X59067Y-312000D02*
Y-305334D01*
G01Y-306667D02*
X59400Y-306000D01*
X59733Y-305500D01*
X60200Y-305334D01*
X60533Y-305500D01*
X60933Y-306000D01*
G01X63000Y-312000D02*
Y-305334D01*
G01Y-307167D02*
X63200Y-306333D01*
X63533Y-305667D01*
X64000Y-305334D01*
X64467Y-305667D01*
X64800Y-306333D01*
X65000Y-307167D01*
Y-312000D01*
G01Y-307167D02*
X65200Y-306333D01*
X65533Y-305667D01*
X66000Y-305334D01*
X66467Y-305667D01*
X66800Y-306333D01*
X67000Y-307333D01*
Y-312000D01*
G01X70000D02*
X69600Y-311833D01*
X69200Y-311167D01*
X68933Y-310000D01*
X68800Y-308667D01*
X68933Y-307333D01*
X69200Y-306167D01*
X69600Y-305500D01*
X70000Y-305334D01*
X70400Y-305500D01*
X70800Y-306167D01*
X71067Y-307333D01*
X71133Y-308667D01*
X71067Y-310000D01*
X70800Y-311167D01*
X70400Y-311833D01*
X70000Y-312000D01*
G01X74067D02*
Y-305334D01*
G01Y-306667D02*
X74400Y-306000D01*
X74733Y-305500D01*
X75200Y-305334D01*
X75533Y-305500D01*
X75933Y-306000D01*
G01X79000Y-307500D02*
X81133D01*
X80933Y-306333D01*
X80600Y-305667D01*
X80133Y-305334D01*
X79667Y-305500D01*
X79267Y-306000D01*
X79000Y-307167D01*
X78867Y-308167D01*
Y-309167D01*
X79000Y-310167D01*
X79333Y-311167D01*
X79733Y-311833D01*
X80200Y-312000D01*
X80667Y-311667D01*
X81133Y-310667D01*
G01X84867Y-313833D02*
X85133Y-311667D01*
G01X93600Y-310667D02*
X94133Y-311500D01*
X94733Y-312000D01*
X95267D01*
X95800Y-311500D01*
X96200Y-310667D01*
X96400Y-309500D01*
X96267Y-308334D01*
X95933Y-307333D01*
X95333Y-306667D01*
X94533Y-306333D01*
X94067Y-305667D01*
X93867Y-304500D01*
X94000Y-303333D01*
X94333Y-302500D01*
X94800Y-302000D01*
X95267D01*
X95733Y-302333D01*
X96133Y-303167D01*
G01X98867Y-305334D02*
Y-310000D01*
X99133Y-311167D01*
X99533Y-311833D01*
X100000Y-312000D01*
X100467Y-311833D01*
X100867Y-311167D01*
X101133Y-310000D01*
G01Y-312000D02*
Y-305334D01*
G01X106067Y-306167D02*
X105600Y-305500D01*
X105200Y-305334D01*
X104667Y-305667D01*
X104267Y-306333D01*
X104000Y-307500D01*
X103933Y-308667D01*
X104000Y-309833D01*
X104267Y-310834D01*
X104667Y-311667D01*
X105200Y-312000D01*
X105667Y-311667D01*
X106067Y-311000D01*
G01X108867Y-312000D02*
Y-302000D01*
G01Y-306833D02*
X109200Y-306000D01*
X109533Y-305500D01*
X110067Y-305334D01*
X110467Y-305500D01*
X110933Y-306167D01*
X111133Y-307167D01*
Y-312000D01*
G01X119200Y-302000D02*
X120800D01*
G01X120000D02*
Y-312000D01*
G01X119200D02*
X120800D01*
G01X123867D02*
Y-305334D01*
G01Y-307000D02*
X124133Y-306167D01*
X124533Y-305500D01*
X125067Y-305334D01*
X125533Y-305500D01*
X125933Y-306167D01*
X126133Y-307333D01*
Y-312000D01*
G01X129600D02*
Y-303500D01*
X129733Y-302667D01*
X130000Y-302167D01*
X130400Y-302000D01*
X130800Y-302333D01*
X131000Y-303167D01*
G01X130200Y-306000D02*
X128867D01*
G01X135000Y-312000D02*
X134600Y-311833D01*
X134200Y-311167D01*
X133933Y-310000D01*
X133800Y-308667D01*
X133933Y-307333D01*
X134200Y-306167D01*
X134600Y-305500D01*
X135000Y-305334D01*
X135400Y-305500D01*
X135800Y-306167D01*
X136067Y-307333D01*
X136133Y-308667D01*
X136067Y-310000D01*
X135800Y-311167D01*
X135400Y-311833D01*
X135000Y-312000D01*
G01X139067D02*
Y-305334D01*
G01Y-306667D02*
X139400Y-306000D01*
X139733Y-305500D01*
X140200Y-305334D01*
X140533Y-305500D01*
X140933Y-306000D01*
G01X143000Y-312000D02*
Y-305334D01*
G01Y-307167D02*
X143200Y-306333D01*
X143533Y-305667D01*
X144000Y-305334D01*
X144467Y-305667D01*
X144800Y-306333D01*
X145000Y-307167D01*
Y-312000D01*
G01Y-307167D02*
X145200Y-306333D01*
X145533Y-305667D01*
X146000Y-305334D01*
X146467Y-305667D01*
X146800Y-306333D01*
X147000Y-307333D01*
Y-312000D01*
G01X151200D02*
Y-305334D01*
G01Y-306500D02*
X150933Y-305833D01*
X150533Y-305500D01*
X150067Y-305334D01*
X149600Y-305667D01*
X149200Y-306333D01*
X148933Y-307333D01*
X148800Y-308667D01*
X148933Y-310000D01*
X149200Y-311000D01*
X149600Y-311667D01*
X150067Y-312000D01*
X150533Y-311833D01*
X150933Y-311333D01*
X151200Y-310667D01*
G01X155000Y-302000D02*
Y-312000D01*
G01X154067Y-305334D02*
X155933D01*
G01X160000D02*
Y-312000D01*
G01Y-302667D02*
X159867Y-302500D01*
Y-302167D01*
X160000Y-302000D01*
X160133Y-302167D01*
Y-302500D01*
X160000Y-302667D01*
G01X165000Y-312000D02*
X164600Y-311833D01*
X164200Y-311167D01*
X163933Y-310000D01*
X163800Y-308667D01*
X163933Y-307333D01*
X164200Y-306167D01*
X164600Y-305500D01*
X165000Y-305334D01*
X165400Y-305500D01*
X165800Y-306167D01*
X166067Y-307333D01*
X166133Y-308667D01*
X166067Y-310000D01*
X165800Y-311167D01*
X165400Y-311833D01*
X165000Y-312000D01*
G01X168867D02*
Y-305334D01*
G01Y-307000D02*
X169133Y-306167D01*
X169533Y-305500D01*
X170067Y-305334D01*
X170533Y-305500D01*
X170933Y-306167D01*
X171133Y-307333D01*
Y-312000D01*
G01X178533D02*
Y-302000D01*
X179867D01*
X180400Y-302500D01*
X180800Y-303167D01*
X181133Y-304167D01*
X181400Y-305334D01*
X181467Y-307000D01*
X181400Y-308667D01*
X181133Y-309833D01*
X180800Y-310834D01*
X180400Y-311500D01*
X179867Y-312000D01*
X178533D01*
G01X185000D02*
X184600Y-311833D01*
X184200Y-311167D01*
X183933Y-310000D01*
X183800Y-308667D01*
X183933Y-307333D01*
X184200Y-306167D01*
X184600Y-305500D01*
X185000Y-305334D01*
X185400Y-305500D01*
X185800Y-306167D01*
X186067Y-307333D01*
X186133Y-308667D01*
X186067Y-310000D01*
X185800Y-311167D01*
X185400Y-311833D01*
X185000Y-312000D01*
G01X189000Y-307500D02*
X191133D01*
X190933Y-306333D01*
X190600Y-305667D01*
X190133Y-305334D01*
X189667Y-305500D01*
X189267Y-306000D01*
X189000Y-307167D01*
X188867Y-308167D01*
Y-309167D01*
X189000Y-310167D01*
X189333Y-311167D01*
X189733Y-311833D01*
X190200Y-312000D01*
X190667Y-311667D01*
X191133Y-310667D01*
G01X194000Y-310834D02*
X194333Y-311500D01*
X194800Y-312000D01*
X195200D01*
X195600Y-311667D01*
X195867Y-311167D01*
X196000Y-310500D01*
X195933Y-309500D01*
X195667Y-309000D01*
X194467Y-308000D01*
X194200Y-306833D01*
X194333Y-306000D01*
X194600Y-305500D01*
X195000Y-305334D01*
X195400Y-305500D01*
X195800Y-306000D01*
G01X203467Y-312000D02*
Y-302000D01*
X206533Y-312000D01*
Y-302000D01*
G01X210000Y-312000D02*
X209600Y-311833D01*
X209200Y-311167D01*
X208933Y-310000D01*
X208800Y-308667D01*
X208933Y-307333D01*
X209200Y-306167D01*
X209600Y-305500D01*
X210000Y-305334D01*
X210400Y-305500D01*
X210800Y-306167D01*
X211067Y-307333D01*
X211133Y-308667D01*
X211067Y-310000D01*
X210800Y-311167D01*
X210400Y-311833D01*
X210000Y-312000D01*
G01X215000Y-302000D02*
Y-312000D01*
G01X214067Y-305334D02*
X215933D01*
G01X226467Y-302833D02*
X226067Y-302333D01*
X225600Y-302000D01*
X225067D01*
X224467Y-302500D01*
X224000Y-303333D01*
X223667Y-304333D01*
X223400Y-306000D01*
X223333Y-307500D01*
X223467Y-309000D01*
X223667Y-310000D01*
X224067Y-311000D01*
X224533Y-311667D01*
X225000Y-312000D01*
X225467D01*
X225933Y-311667D01*
X226333Y-311167D01*
X226667Y-310500D01*
G01X230000Y-312000D02*
X229600Y-311833D01*
X229200Y-311167D01*
X228933Y-310000D01*
X228800Y-308667D01*
X228933Y-307333D01*
X229200Y-306167D01*
X229600Y-305500D01*
X230000Y-305334D01*
X230400Y-305500D01*
X230800Y-306167D01*
X231067Y-307333D01*
X231133Y-308667D01*
X231067Y-310000D01*
X230800Y-311167D01*
X230400Y-311833D01*
X230000Y-312000D01*
G01X233867D02*
Y-305334D01*
G01Y-307000D02*
X234133Y-306167D01*
X234533Y-305500D01*
X235067Y-305334D01*
X235533Y-305500D01*
X235933Y-306167D01*
X236133Y-307333D01*
Y-312000D01*
G01X238800Y-305334D02*
X240000Y-312000D01*
X241200Y-305334D01*
G01X244000Y-307500D02*
X246133D01*
X245933Y-306333D01*
X245600Y-305667D01*
X245133Y-305334D01*
X244667Y-305500D01*
X244267Y-306000D01*
X244000Y-307167D01*
X243867Y-308167D01*
Y-309167D01*
X244000Y-310167D01*
X244333Y-311167D01*
X244733Y-311833D01*
X245200Y-312000D01*
X245667Y-311667D01*
X246133Y-310667D01*
G01X248600Y-315000D02*
X249000Y-315333D01*
X249533Y-315000D01*
X249867Y-314333D01*
X250133Y-313500D01*
X250533Y-310834D01*
X251400Y-305334D01*
G01X249267D02*
X250533Y-310834D01*
G01X260000Y-302000D02*
Y-312000D01*
G01X258467Y-302000D02*
X261533D01*
G01X265000Y-312000D02*
X264600Y-311833D01*
X264200Y-311167D01*
X263933Y-310000D01*
X263800Y-308667D01*
X263933Y-307333D01*
X264200Y-306167D01*
X264600Y-305500D01*
X265000Y-305334D01*
X265400Y-305500D01*
X265800Y-306167D01*
X266067Y-307333D01*
X266133Y-308667D01*
X266067Y-310000D01*
X265800Y-311167D01*
X265400Y-311833D01*
X265000Y-312000D01*
G01X275000Y-302000D02*
Y-312000D01*
G01X273467Y-302000D02*
X276533D01*
G01X278867Y-312000D02*
Y-302000D01*
G01Y-306833D02*
X279200Y-306000D01*
X279533Y-305500D01*
X280067Y-305334D01*
X280467Y-305500D01*
X280933Y-306167D01*
X281133Y-307167D01*
Y-312000D01*
G01X284000Y-307500D02*
X286133D01*
X285933Y-306333D01*
X285600Y-305667D01*
X285133Y-305334D01*
X284667Y-305500D01*
X284267Y-306000D01*
X284000Y-307167D01*
X283867Y-308167D01*
Y-309167D01*
X284000Y-310167D01*
X284333Y-311167D01*
X284733Y-311833D01*
X285200Y-312000D01*
X285667Y-311667D01*
X286133Y-310667D01*
G01X293667Y-312000D02*
Y-302000D01*
X295267D01*
X295800Y-302500D01*
X296200Y-303667D01*
X296333Y-305000D01*
X296200Y-306333D01*
X295867Y-307333D01*
X295267Y-307834D01*
X293667D01*
G01X298867Y-305334D02*
Y-310000D01*
X299133Y-311167D01*
X299533Y-311833D01*
X300000Y-312000D01*
X300467Y-311833D01*
X300867Y-311167D01*
X301133Y-310000D01*
G01Y-312000D02*
Y-305334D01*
G01X304067Y-312000D02*
Y-305334D01*
G01Y-306667D02*
X304400Y-306000D01*
X304733Y-305500D01*
X305200Y-305334D01*
X305533Y-305500D01*
X305933Y-306000D01*
G01X311067Y-306167D02*
X310600Y-305500D01*
X310200Y-305334D01*
X309667Y-305667D01*
X309267Y-306333D01*
X309000Y-307500D01*
X308933Y-308667D01*
X309000Y-309833D01*
X309267Y-310834D01*
X309667Y-311667D01*
X310200Y-312000D01*
X310667Y-311667D01*
X311067Y-311000D01*
G01X313867Y-312000D02*
Y-302000D01*
G01Y-306833D02*
X314200Y-306000D01*
X314533Y-305500D01*
X315067Y-305334D01*
X315467Y-305500D01*
X315933Y-306167D01*
X316133Y-307167D01*
Y-312000D01*
G01X321200D02*
Y-305334D01*
G01Y-306500D02*
X320933Y-305833D01*
X320533Y-305500D01*
X320067Y-305334D01*
X319600Y-305667D01*
X319200Y-306333D01*
X318933Y-307333D01*
X318800Y-308667D01*
X318933Y-310000D01*
X319200Y-311000D01*
X319600Y-311667D01*
X320067Y-312000D01*
X320533Y-311833D01*
X320933Y-311333D01*
X321200Y-310667D01*
G01X324000Y-310834D02*
X324333Y-311500D01*
X324800Y-312000D01*
X325200D01*
X325600Y-311667D01*
X325867Y-311167D01*
X326000Y-310500D01*
X325933Y-309500D01*
X325667Y-309000D01*
X324467Y-308000D01*
X324200Y-306833D01*
X324333Y-306000D01*
X324600Y-305500D01*
X325000Y-305334D01*
X325400Y-305500D01*
X325800Y-306000D01*
G01X329000Y-307500D02*
X331133D01*
X330933Y-306333D01*
X330600Y-305667D01*
X330133Y-305334D01*
X329667Y-305500D01*
X329267Y-306000D01*
X329000Y-307167D01*
X328867Y-308167D01*
Y-309167D01*
X329000Y-310167D01*
X329333Y-311167D01*
X329733Y-311833D01*
X330200Y-312000D01*
X330667Y-311667D01*
X331133Y-310667D01*
G01X334067Y-312000D02*
Y-305334D01*
G01Y-306667D02*
X334400Y-306000D01*
X334733Y-305500D01*
X335200Y-305334D01*
X335533Y-305500D01*
X335933Y-306000D01*
G01X345000Y-312000D02*
X344467Y-311833D01*
X344000Y-311167D01*
X343600Y-310167D01*
X343333Y-309000D01*
X343200Y-307667D01*
Y-306333D01*
X343333Y-305000D01*
X343600Y-303833D01*
X344000Y-302833D01*
X344467Y-302167D01*
X345000Y-302000D01*
X345533Y-302167D01*
X346000Y-302833D01*
X346400Y-303833D01*
X346667Y-305000D01*
X346800Y-306333D01*
Y-307667D01*
X346667Y-309000D01*
X346400Y-310167D01*
X346000Y-311167D01*
X345533Y-311833D01*
X345000Y-312000D01*
G01X349600D02*
Y-303500D01*
X349733Y-302667D01*
X350000Y-302167D01*
X350400Y-302000D01*
X350800Y-302333D01*
X351000Y-303167D01*
G01X350200Y-306000D02*
X348867D01*
G01X-58533Y-287833D02*
X-58933Y-287333D01*
X-59400Y-287000D01*
X-59933D01*
X-60533Y-287500D01*
X-61000Y-288333D01*
X-61333Y-289333D01*
X-61600Y-291000D01*
X-61667Y-292500D01*
X-61533Y-294000D01*
X-61333Y-295000D01*
X-60933Y-296000D01*
X-60467Y-296667D01*
X-60000Y-297000D01*
X-59533D01*
X-59067Y-296667D01*
X-58667Y-296167D01*
X-58333Y-295500D01*
G01X-56133Y-297000D02*
Y-287000D01*
G01Y-291833D02*
X-55800Y-291000D01*
X-55467Y-290500D01*
X-54933Y-290334D01*
X-54533Y-290500D01*
X-54067Y-291167D01*
X-53867Y-292167D01*
Y-297000D01*
G01X-51000Y-292500D02*
X-48867D01*
X-49067Y-291333D01*
X-49400Y-290667D01*
X-49867Y-290334D01*
X-50333Y-290500D01*
X-50733Y-291000D01*
X-51000Y-292167D01*
X-51133Y-293167D01*
Y-294167D01*
X-51000Y-295167D01*
X-50667Y-296167D01*
X-50267Y-296833D01*
X-49800Y-297000D01*
X-49333Y-296667D01*
X-48867Y-295667D01*
G01X-43933Y-291167D02*
X-44400Y-290500D01*
X-44800Y-290334D01*
X-45333Y-290667D01*
X-45733Y-291333D01*
X-46000Y-292500D01*
X-46067Y-293667D01*
X-46000Y-294833D01*
X-45733Y-295834D01*
X-45333Y-296667D01*
X-44800Y-297000D01*
X-44333Y-296667D01*
X-43933Y-296000D01*
G01X-41133Y-297000D02*
Y-287000D01*
G01X-39000Y-290334D02*
X-41133Y-294167D01*
G01X-40267Y-292667D02*
X-38867Y-297000D01*
G01X-36000Y-292500D02*
X-33867D01*
X-34067Y-291333D01*
X-34400Y-290667D01*
X-34867Y-290334D01*
X-35333Y-290500D01*
X-35733Y-291000D01*
X-36000Y-292167D01*
X-36133Y-293167D01*
Y-294167D01*
X-36000Y-295167D01*
X-35667Y-296167D01*
X-35267Y-296833D01*
X-34800Y-297000D01*
X-34333Y-296667D01*
X-33867Y-295667D01*
G01X-28800Y-287000D02*
Y-297000D01*
G01Y-295500D02*
X-29067Y-296333D01*
X-29467Y-296833D01*
X-29933Y-297000D01*
X-30467Y-296667D01*
X-30867Y-295834D01*
X-31133Y-294833D01*
X-31200Y-293667D01*
X-31133Y-292500D01*
X-30867Y-291500D01*
X-30467Y-290667D01*
X-29933Y-290334D01*
X-29467Y-290500D01*
X-29133Y-290833D01*
X-28800Y-291500D01*
G01X-21667Y-297000D02*
X-20000Y-287000D01*
X-18333Y-297000D01*
G01X-18933Y-293500D02*
X-21067D01*
G01X-16133Y-297000D02*
Y-290334D01*
G01Y-292000D02*
X-15867Y-291167D01*
X-15467Y-290500D01*
X-14933Y-290334D01*
X-14467Y-290500D01*
X-14067Y-291167D01*
X-13867Y-292333D01*
Y-297000D01*
G01X-8800Y-287000D02*
Y-297000D01*
G01Y-295500D02*
X-9067Y-296333D01*
X-9467Y-296833D01*
X-9933Y-297000D01*
X-10467Y-296667D01*
X-10867Y-295834D01*
X-11133Y-294833D01*
X-11200Y-293667D01*
X-11133Y-292500D01*
X-10867Y-291500D01*
X-10467Y-290667D01*
X-9933Y-290334D01*
X-9467Y-290500D01*
X-9133Y-290833D01*
X-8800Y-291500D01*
G01X-800Y-287000D02*
X800D01*
G01X0D02*
Y-297000D01*
G01X-800D02*
X800D01*
G01X4000Y-295834D02*
X4333Y-296500D01*
X4800Y-297000D01*
X5200D01*
X5600Y-296667D01*
X5867Y-296167D01*
X6000Y-295500D01*
X5933Y-294500D01*
X5667Y-294000D01*
X4467Y-293000D01*
X4200Y-291833D01*
X4333Y-291000D01*
X4600Y-290500D01*
X5000Y-290334D01*
X5400Y-290500D01*
X5800Y-291000D01*
G01X15533Y-291667D02*
X15800Y-291167D01*
X16000Y-290334D01*
X16133Y-289167D01*
X16000Y-288167D01*
X15733Y-287500D01*
X15267Y-287000D01*
X13467D01*
Y-297000D01*
X15667D01*
X16133Y-296333D01*
X16400Y-295333D01*
X16533Y-294167D01*
X16400Y-293000D01*
X16000Y-292000D01*
X15533Y-291667D01*
X13467D01*
G01X19000Y-292500D02*
X21133D01*
X20933Y-291333D01*
X20600Y-290667D01*
X20133Y-290334D01*
X19667Y-290500D01*
X19267Y-291000D01*
X19000Y-292167D01*
X18867Y-293167D01*
Y-294167D01*
X19000Y-295167D01*
X19333Y-296167D01*
X19733Y-296833D01*
X20200Y-297000D01*
X20667Y-296667D01*
X21133Y-295667D01*
G01X25000Y-297000D02*
Y-287000D01*
G01X30000Y-290334D02*
Y-297000D01*
G01Y-287667D02*
X29867Y-287500D01*
Y-287167D01*
X30000Y-287000D01*
X30133Y-287167D01*
Y-287500D01*
X30000Y-287667D01*
G01X34000Y-292500D02*
X36133D01*
X35933Y-291333D01*
X35600Y-290667D01*
X35133Y-290334D01*
X34667Y-290500D01*
X34267Y-291000D01*
X34000Y-292167D01*
X33867Y-293167D01*
Y-294167D01*
X34000Y-295167D01*
X34333Y-296167D01*
X34733Y-296833D01*
X35200Y-297000D01*
X35667Y-296667D01*
X36133Y-295667D01*
G01X38800Y-290334D02*
X40000Y-297000D01*
X41200Y-290334D01*
G01X44000Y-292500D02*
X46133D01*
X45933Y-291333D01*
X45600Y-290667D01*
X45133Y-290334D01*
X44667Y-290500D01*
X44267Y-291000D01*
X44000Y-292167D01*
X43867Y-293167D01*
Y-294167D01*
X44000Y-295167D01*
X44333Y-296167D01*
X44733Y-296833D01*
X45200Y-297000D01*
X45667Y-296667D01*
X46133Y-295667D01*
G01X51200Y-287000D02*
Y-297000D01*
G01Y-295500D02*
X50933Y-296333D01*
X50533Y-296833D01*
X50067Y-297000D01*
X49533Y-296667D01*
X49133Y-295834D01*
X48867Y-294833D01*
X48800Y-293667D01*
X48867Y-292500D01*
X49133Y-291500D01*
X49533Y-290667D01*
X50067Y-290334D01*
X50533Y-290500D01*
X50867Y-290833D01*
X51200Y-291500D01*
G01X60000Y-287000D02*
Y-297000D01*
G01X58467Y-287000D02*
X61533D01*
G01X65000Y-297000D02*
X64600Y-296833D01*
X64200Y-296167D01*
X63933Y-295000D01*
X63800Y-293667D01*
X63933Y-292333D01*
X64200Y-291167D01*
X64600Y-290500D01*
X65000Y-290334D01*
X65400Y-290500D01*
X65800Y-291167D01*
X66067Y-292333D01*
X66133Y-293667D01*
X66067Y-295000D01*
X65800Y-296167D01*
X65400Y-296833D01*
X65000Y-297000D01*
G01X75533Y-291667D02*
X75800Y-291167D01*
X76000Y-290334D01*
X76133Y-289167D01*
X76000Y-288167D01*
X75733Y-287500D01*
X75267Y-287000D01*
X73467D01*
Y-297000D01*
X75667D01*
X76133Y-296333D01*
X76400Y-295333D01*
X76533Y-294167D01*
X76400Y-293000D01*
X76000Y-292000D01*
X75533Y-291667D01*
X73467D01*
G01X79000Y-292500D02*
X81133D01*
X80933Y-291333D01*
X80600Y-290667D01*
X80133Y-290334D01*
X79667Y-290500D01*
X79267Y-291000D01*
X79000Y-292167D01*
X78867Y-293167D01*
Y-294167D01*
X79000Y-295167D01*
X79333Y-296167D01*
X79733Y-296833D01*
X80200Y-297000D01*
X80667Y-296667D01*
X81133Y-295667D01*
G01X91333Y-297000D02*
X88667D01*
Y-287000D01*
X91333D01*
G01X90267Y-291833D02*
X88667D01*
G01X93867Y-297000D02*
Y-290334D01*
G01Y-292000D02*
X94133Y-291167D01*
X94533Y-290500D01*
X95067Y-290334D01*
X95533Y-290500D01*
X95933Y-291167D01*
X96133Y-292333D01*
Y-297000D01*
G01X100000Y-287000D02*
Y-297000D01*
G01X99067Y-290334D02*
X100933D01*
G01X105000D02*
Y-297000D01*
G01Y-287667D02*
X104867Y-287500D01*
Y-287167D01*
X105000Y-287000D01*
X105133Y-287167D01*
Y-287500D01*
X105000Y-287667D01*
G01X109067Y-297000D02*
Y-290334D01*
G01Y-291667D02*
X109400Y-291000D01*
X109733Y-290500D01*
X110200Y-290334D01*
X110533Y-290500D01*
X110933Y-291000D01*
G01X114000Y-292500D02*
X116133D01*
X115933Y-291333D01*
X115600Y-290667D01*
X115133Y-290334D01*
X114667Y-290500D01*
X114267Y-291000D01*
X114000Y-292167D01*
X113867Y-293167D01*
Y-294167D01*
X114000Y-295167D01*
X114333Y-296167D01*
X114733Y-296833D01*
X115200Y-297000D01*
X115667Y-296667D01*
X116133Y-295667D01*
G01X120000Y-297000D02*
Y-287000D01*
G01X123600Y-300000D02*
X124000Y-300333D01*
X124533Y-300000D01*
X124867Y-299333D01*
X125133Y-298500D01*
X125533Y-295834D01*
X126400Y-290334D01*
G01X124267D02*
X125533Y-295834D01*
G01X133667Y-297000D02*
Y-287000D01*
X135333D01*
X135867Y-287500D01*
X136200Y-288167D01*
X136333Y-289500D01*
X136200Y-290833D01*
X135800Y-291667D01*
X135333Y-292167D01*
X133667D01*
G01X135333D02*
X136333Y-297000D01*
G01X139000Y-292500D02*
X141133D01*
X140933Y-291333D01*
X140600Y-290667D01*
X140133Y-290334D01*
X139667Y-290500D01*
X139267Y-291000D01*
X139000Y-292167D01*
X138867Y-293167D01*
Y-294167D01*
X139000Y-295167D01*
X139333Y-296167D01*
X139733Y-296833D01*
X140200Y-297000D01*
X140667Y-296667D01*
X141133Y-295667D01*
G01X145000Y-297000D02*
Y-287000D01*
G01X150000Y-290334D02*
Y-297000D01*
G01Y-287667D02*
X149867Y-287500D01*
Y-287167D01*
X150000Y-287000D01*
X150133Y-287167D01*
Y-287500D01*
X150000Y-287667D01*
G01X156200Y-297000D02*
Y-290334D01*
G01Y-291500D02*
X155933Y-290833D01*
X155533Y-290500D01*
X155067Y-290334D01*
X154600Y-290667D01*
X154200Y-291333D01*
X153933Y-292333D01*
X153800Y-293667D01*
X153933Y-295000D01*
X154200Y-296000D01*
X154600Y-296667D01*
X155067Y-297000D01*
X155533Y-296833D01*
X155933Y-296333D01*
X156200Y-295667D01*
G01X158800Y-297000D02*
Y-287000D01*
G01Y-292000D02*
X159133Y-291000D01*
X159533Y-290500D01*
X159933Y-290334D01*
X160533Y-290667D01*
X160933Y-291333D01*
X161200Y-292500D01*
Y-293833D01*
X161067Y-295167D01*
X160800Y-296167D01*
X160333Y-296833D01*
X159933Y-297000D01*
X159533Y-296833D01*
X159133Y-296333D01*
X158800Y-295500D01*
G01X165000Y-297000D02*
Y-287000D01*
G01X169000Y-292500D02*
X171133D01*
X170933Y-291333D01*
X170600Y-290667D01*
X170133Y-290334D01*
X169667Y-290500D01*
X169267Y-291000D01*
X169000Y-292167D01*
X168867Y-293167D01*
Y-294167D01*
X169000Y-295167D01*
X169333Y-296167D01*
X169733Y-296833D01*
X170200Y-297000D01*
X170667Y-296667D01*
X171133Y-295667D01*
G01X175000Y-297333D02*
X174867Y-297167D01*
Y-296833D01*
X175000Y-296667D01*
X175133Y-296833D01*
Y-297167D01*
X175000Y-297333D01*
G01X183600Y-297000D02*
Y-287000D01*
G01X186400D02*
Y-297000D01*
G01Y-292000D02*
X183600D01*
G01X190000Y-297000D02*
X189600Y-296833D01*
X189200Y-296167D01*
X188933Y-295000D01*
X188800Y-293667D01*
X188933Y-292333D01*
X189200Y-291167D01*
X189600Y-290500D01*
X190000Y-290334D01*
X190400Y-290500D01*
X190800Y-291167D01*
X191067Y-292333D01*
X191133Y-293667D01*
X191067Y-295000D01*
X190800Y-296167D01*
X190400Y-296833D01*
X190000Y-297000D01*
G01X193333Y-290334D02*
X194133Y-297000D01*
X195000Y-290334D01*
X195867Y-297000D01*
X196667Y-290334D01*
G01X199000Y-292500D02*
X201133D01*
X200933Y-291333D01*
X200600Y-290667D01*
X200133Y-290334D01*
X199667Y-290500D01*
X199267Y-291000D01*
X199000Y-292167D01*
X198867Y-293167D01*
Y-294167D01*
X199000Y-295167D01*
X199333Y-296167D01*
X199733Y-296833D01*
X200200Y-297000D01*
X200667Y-296667D01*
X201133Y-295667D01*
G01X203800Y-290334D02*
X205000Y-297000D01*
X206200Y-290334D01*
G01X209000Y-292500D02*
X211133D01*
X210933Y-291333D01*
X210600Y-290667D01*
X210133Y-290334D01*
X209667Y-290500D01*
X209267Y-291000D01*
X209000Y-292167D01*
X208867Y-293167D01*
Y-294167D01*
X209000Y-295167D01*
X209333Y-296167D01*
X209733Y-296833D01*
X210200Y-297000D01*
X210667Y-296667D01*
X211133Y-295667D01*
G01X214067Y-297000D02*
Y-290334D01*
G01Y-291667D02*
X214400Y-291000D01*
X214733Y-290500D01*
X215200Y-290334D01*
X215533Y-290500D01*
X215933Y-291000D01*
G01X219867Y-298833D02*
X220133Y-296667D01*
G01X228467Y-297000D02*
Y-287000D01*
X231533Y-297000D01*
Y-287000D01*
G01X235000Y-297000D02*
X234600Y-296833D01*
X234200Y-296167D01*
X233933Y-295000D01*
X233800Y-293667D01*
X233933Y-292333D01*
X234200Y-291167D01*
X234600Y-290500D01*
X235000Y-290334D01*
X235400Y-290500D01*
X235800Y-291167D01*
X236067Y-292333D01*
X236133Y-293667D01*
X236067Y-295000D01*
X235800Y-296167D01*
X235400Y-296833D01*
X235000Y-297000D01*
G01X243667D02*
Y-287000D01*
X245333D01*
X245867Y-287500D01*
X246200Y-288167D01*
X246333Y-289500D01*
X246200Y-290833D01*
X245800Y-291667D01*
X245333Y-292167D01*
X243667D01*
G01X245333D02*
X246333Y-297000D01*
G01X249000Y-292500D02*
X251133D01*
X250933Y-291333D01*
X250600Y-290667D01*
X250133Y-290334D01*
X249667Y-290500D01*
X249267Y-291000D01*
X249000Y-292167D01*
X248867Y-293167D01*
Y-294167D01*
X249000Y-295167D01*
X249333Y-296167D01*
X249733Y-296833D01*
X250200Y-297000D01*
X250667Y-296667D01*
X251133Y-295667D01*
G01X254000Y-295834D02*
X254333Y-296500D01*
X254800Y-297000D01*
X255200D01*
X255600Y-296667D01*
X255867Y-296167D01*
X256000Y-295500D01*
X255933Y-294500D01*
X255667Y-294000D01*
X254467Y-293000D01*
X254200Y-291833D01*
X254333Y-291000D01*
X254600Y-290500D01*
X255000Y-290334D01*
X255400Y-290500D01*
X255800Y-291000D01*
G01X258800Y-300333D02*
Y-290334D01*
G01Y-291833D02*
X259133Y-291000D01*
X259467Y-290500D01*
X260000Y-290334D01*
X260467Y-290500D01*
X260933Y-291333D01*
X261133Y-292500D01*
X261200Y-293667D01*
X261133Y-294833D01*
X260933Y-296000D01*
X260533Y-296667D01*
X260000Y-297000D01*
X259533Y-296833D01*
X259067Y-296333D01*
X258800Y-295667D01*
G01X265000Y-297000D02*
X264600Y-296833D01*
X264200Y-296167D01*
X263933Y-295000D01*
X263800Y-293667D01*
X263933Y-292333D01*
X264200Y-291167D01*
X264600Y-290500D01*
X265000Y-290334D01*
X265400Y-290500D01*
X265800Y-291167D01*
X266067Y-292333D01*
X266133Y-293667D01*
X266067Y-295000D01*
X265800Y-296167D01*
X265400Y-296833D01*
X265000Y-297000D01*
G01X268867D02*
Y-290334D01*
G01Y-292000D02*
X269133Y-291167D01*
X269533Y-290500D01*
X270067Y-290334D01*
X270533Y-290500D01*
X270933Y-291167D01*
X271133Y-292333D01*
Y-297000D01*
G01X274000Y-295834D02*
X274333Y-296500D01*
X274800Y-297000D01*
X275200D01*
X275600Y-296667D01*
X275867Y-296167D01*
X276000Y-295500D01*
X275933Y-294500D01*
X275667Y-294000D01*
X274467Y-293000D01*
X274200Y-291833D01*
X274333Y-291000D01*
X274600Y-290500D01*
X275000Y-290334D01*
X275400Y-290500D01*
X275800Y-291000D01*
G01X280000Y-290334D02*
Y-297000D01*
G01Y-287667D02*
X279867Y-287500D01*
Y-287167D01*
X280000Y-287000D01*
X280133Y-287167D01*
Y-287500D01*
X280000Y-287667D01*
G01X283800Y-297000D02*
Y-287000D01*
G01Y-292000D02*
X284133Y-291000D01*
X284533Y-290500D01*
X284933Y-290334D01*
X285533Y-290667D01*
X285933Y-291333D01*
X286200Y-292500D01*
Y-293833D01*
X286067Y-295167D01*
X285800Y-296167D01*
X285333Y-296833D01*
X284933Y-297000D01*
X284533Y-296833D01*
X284133Y-296333D01*
X283800Y-295500D01*
G01X290000Y-290334D02*
Y-297000D01*
G01Y-287667D02*
X289867Y-287500D01*
Y-287167D01*
X290000Y-287000D01*
X290133Y-287167D01*
Y-287500D01*
X290000Y-287667D01*
G01X295000Y-297000D02*
Y-287000D01*
G01X300000Y-290334D02*
Y-297000D01*
G01Y-287667D02*
X299867Y-287500D01*
Y-287167D01*
X300000Y-287000D01*
X300133Y-287167D01*
Y-287500D01*
X300000Y-287667D01*
G01X305000Y-287000D02*
Y-297000D01*
G01X304067Y-290334D02*
X305933D01*
G01X308600Y-300000D02*
X309000Y-300333D01*
X309533Y-300000D01*
X309867Y-299333D01*
X310133Y-298500D01*
X310533Y-295834D01*
X311400Y-290334D01*
G01X309267D02*
X310533Y-295834D01*
G01X319200Y-287000D02*
X320800D01*
G01X320000D02*
Y-297000D01*
G01X319200D02*
X320800D01*
G01X324000Y-295834D02*
X324333Y-296500D01*
X324800Y-297000D01*
X325200D01*
X325600Y-296667D01*
X325867Y-296167D01*
X326000Y-295500D01*
X325933Y-294500D01*
X325667Y-294000D01*
X324467Y-293000D01*
X324200Y-291833D01*
X324333Y-291000D01*
X324600Y-290500D01*
X325000Y-290334D01*
X325400Y-290500D01*
X325800Y-291000D01*
G01X333333Y-297000D02*
X335000Y-287000D01*
X336667Y-297000D01*
G01X336067Y-293500D02*
X333933D01*
G01X339000Y-295834D02*
X339333Y-296500D01*
X339800Y-297000D01*
X340200D01*
X340600Y-296667D01*
X340867Y-296167D01*
X341000Y-295500D01*
X340933Y-294500D01*
X340667Y-294000D01*
X339467Y-293000D01*
X339200Y-291833D01*
X339333Y-291000D01*
X339600Y-290500D01*
X340000Y-290334D01*
X340400Y-290500D01*
X340800Y-291000D01*
G01X344000Y-295834D02*
X344333Y-296500D01*
X344800Y-297000D01*
X345200D01*
X345600Y-296667D01*
X345867Y-296167D01*
X346000Y-295500D01*
X345933Y-294500D01*
X345667Y-294000D01*
X344467Y-293000D01*
X344200Y-291833D01*
X344333Y-291000D01*
X344600Y-290500D01*
X345000Y-290334D01*
X345400Y-290500D01*
X345800Y-291000D01*
G01X348867Y-290334D02*
Y-295000D01*
X349133Y-296167D01*
X349533Y-296833D01*
X350000Y-297000D01*
X350467Y-296833D01*
X350867Y-296167D01*
X351133Y-295000D01*
G01Y-297000D02*
Y-290334D01*
G01X353000Y-297000D02*
Y-290334D01*
G01Y-292167D02*
X353200Y-291333D01*
X353533Y-290667D01*
X354000Y-290334D01*
X354467Y-290667D01*
X354800Y-291333D01*
X355000Y-292167D01*
Y-297000D01*
G01Y-292167D02*
X355200Y-291333D01*
X355533Y-290667D01*
X356000Y-290334D01*
X356467Y-290667D01*
X356800Y-291333D01*
X357000Y-292333D01*
Y-297000D01*
G01X359000Y-292500D02*
X361133D01*
X360933Y-291333D01*
X360600Y-290667D01*
X360133Y-290334D01*
X359667Y-290500D01*
X359267Y-291000D01*
X359000Y-292167D01*
X358867Y-293167D01*
Y-294167D01*
X359000Y-295167D01*
X359333Y-296167D01*
X359733Y-296833D01*
X360200Y-297000D01*
X360667Y-296667D01*
X361133Y-295667D01*
G01X366200Y-287000D02*
Y-297000D01*
G01Y-295500D02*
X365933Y-296333D01*
X365533Y-296833D01*
X365067Y-297000D01*
X364533Y-296667D01*
X364133Y-295834D01*
X363867Y-294833D01*
X363800Y-293667D01*
X363867Y-292500D01*
X364133Y-291500D01*
X364533Y-290667D01*
X365067Y-290334D01*
X365533Y-290500D01*
X365867Y-290833D01*
X366200Y-291500D01*
G01X-58533Y-272833D02*
X-58933Y-272333D01*
X-59400Y-272000D01*
X-59933D01*
X-60533Y-272500D01*
X-61000Y-273333D01*
X-61333Y-274333D01*
X-61600Y-276000D01*
X-61667Y-277500D01*
X-61533Y-279000D01*
X-61333Y-280000D01*
X-60933Y-281000D01*
X-60467Y-281667D01*
X-60000Y-282000D01*
X-59533D01*
X-59067Y-281667D01*
X-58667Y-281167D01*
X-58333Y-280500D01*
G01X-55000Y-282000D02*
X-55400Y-281833D01*
X-55800Y-281167D01*
X-56067Y-280000D01*
X-56200Y-278667D01*
X-56067Y-277333D01*
X-55800Y-276167D01*
X-55400Y-275500D01*
X-55000Y-275334D01*
X-54600Y-275500D01*
X-54200Y-276167D01*
X-53933Y-277333D01*
X-53867Y-278667D01*
X-53933Y-280000D01*
X-54200Y-281167D01*
X-54600Y-281833D01*
X-55000Y-282000D01*
G01X-51133D02*
Y-275334D01*
G01Y-277000D02*
X-50867Y-276167D01*
X-50467Y-275500D01*
X-49933Y-275334D01*
X-49467Y-275500D01*
X-49067Y-276167D01*
X-48867Y-277333D01*
Y-282000D01*
G01X-46000Y-280834D02*
X-45667Y-281500D01*
X-45200Y-282000D01*
X-44800D01*
X-44400Y-281667D01*
X-44133Y-281167D01*
X-44000Y-280500D01*
X-44067Y-279500D01*
X-44333Y-279000D01*
X-45533Y-278000D01*
X-45800Y-276833D01*
X-45667Y-276000D01*
X-45400Y-275500D01*
X-45000Y-275334D01*
X-44600Y-275500D01*
X-44200Y-276000D01*
G01X-40000Y-272000D02*
Y-282000D01*
G01X-40933Y-275334D02*
X-39067D01*
G01X-35933Y-282000D02*
Y-275334D01*
G01Y-276667D02*
X-35600Y-276000D01*
X-35267Y-275500D01*
X-34800Y-275334D01*
X-34467Y-275500D01*
X-34067Y-276000D01*
G01X-31133Y-275334D02*
Y-280000D01*
X-30867Y-281167D01*
X-30467Y-281833D01*
X-30000Y-282000D01*
X-29533Y-281833D01*
X-29133Y-281167D01*
X-28867Y-280000D01*
G01Y-282000D02*
Y-275334D01*
G01X-23933Y-276167D02*
X-24400Y-275500D01*
X-24800Y-275334D01*
X-25333Y-275667D01*
X-25733Y-276333D01*
X-26000Y-277500D01*
X-26067Y-278667D01*
X-26000Y-279833D01*
X-25733Y-280834D01*
X-25333Y-281667D01*
X-24800Y-282000D01*
X-24333Y-281667D01*
X-23933Y-281000D01*
G01X-20000Y-272000D02*
Y-282000D01*
G01X-20933Y-275334D02*
X-19067D01*
G01X-15000D02*
Y-282000D01*
G01Y-272667D02*
X-15133Y-272500D01*
Y-272167D01*
X-15000Y-272000D01*
X-14867Y-272167D01*
Y-272500D01*
X-15000Y-272667D01*
G01X-10000Y-282000D02*
X-10400Y-281833D01*
X-10800Y-281167D01*
X-11067Y-280000D01*
X-11200Y-278667D01*
X-11067Y-277333D01*
X-10800Y-276167D01*
X-10400Y-275500D01*
X-10000Y-275334D01*
X-9600Y-275500D01*
X-9200Y-276167D01*
X-8933Y-277333D01*
X-8867Y-278667D01*
X-8933Y-280000D01*
X-9200Y-281167D01*
X-9600Y-281833D01*
X-10000Y-282000D01*
G01X-6133D02*
Y-275334D01*
G01Y-277000D02*
X-5867Y-276167D01*
X-5467Y-275500D01*
X-4933Y-275334D01*
X-4467Y-275500D01*
X-4067Y-276167D01*
X-3867Y-277333D01*
Y-282000D01*
G01X3667D02*
Y-272000D01*
X5267D01*
X5800Y-272500D01*
X6200Y-273667D01*
X6333Y-275000D01*
X6200Y-276333D01*
X5867Y-277333D01*
X5267Y-277834D01*
X3667D01*
G01X8867Y-275334D02*
Y-280000D01*
X9133Y-281167D01*
X9533Y-281833D01*
X10000Y-282000D01*
X10467Y-281833D01*
X10867Y-281167D01*
X11133Y-280000D01*
G01Y-282000D02*
Y-275334D01*
G01X14067Y-282000D02*
Y-275334D01*
G01Y-276667D02*
X14400Y-276000D01*
X14733Y-275500D01*
X15200Y-275334D01*
X15533Y-275500D01*
X15933Y-276000D01*
G01X18800Y-285333D02*
Y-275334D01*
G01Y-276833D02*
X19133Y-276000D01*
X19467Y-275500D01*
X20000Y-275334D01*
X20467Y-275500D01*
X20933Y-276333D01*
X21133Y-277500D01*
X21200Y-278667D01*
X21133Y-279833D01*
X20933Y-281000D01*
X20533Y-281667D01*
X20000Y-282000D01*
X19533Y-281833D01*
X19067Y-281333D01*
X18800Y-280667D01*
G01X25000Y-282000D02*
X24600Y-281833D01*
X24200Y-281167D01*
X23933Y-280000D01*
X23800Y-278667D01*
X23933Y-277333D01*
X24200Y-276167D01*
X24600Y-275500D01*
X25000Y-275334D01*
X25400Y-275500D01*
X25800Y-276167D01*
X26067Y-277333D01*
X26133Y-278667D01*
X26067Y-280000D01*
X25800Y-281167D01*
X25400Y-281833D01*
X25000Y-282000D01*
G01X29000Y-280834D02*
X29333Y-281500D01*
X29800Y-282000D01*
X30200D01*
X30600Y-281667D01*
X30867Y-281167D01*
X31000Y-280500D01*
X30933Y-279500D01*
X30667Y-279000D01*
X29467Y-278000D01*
X29200Y-276833D01*
X29333Y-276000D01*
X29600Y-275500D01*
X30000Y-275334D01*
X30400Y-275500D01*
X30800Y-276000D01*
G01X34000Y-277500D02*
X36133D01*
X35933Y-276333D01*
X35600Y-275667D01*
X35133Y-275334D01*
X34667Y-275500D01*
X34267Y-276000D01*
X34000Y-277167D01*
X33867Y-278167D01*
Y-279167D01*
X34000Y-280167D01*
X34333Y-281167D01*
X34733Y-281833D01*
X35200Y-282000D01*
X35667Y-281667D01*
X36133Y-280667D01*
G01X39000Y-280834D02*
X39333Y-281500D01*
X39800Y-282000D01*
X40200D01*
X40600Y-281667D01*
X40867Y-281167D01*
X41000Y-280500D01*
X40933Y-279500D01*
X40667Y-279000D01*
X39467Y-278000D01*
X39200Y-276833D01*
X39333Y-276000D01*
X39600Y-275500D01*
X40000Y-275334D01*
X40400Y-275500D01*
X40800Y-276000D01*
G01X49200Y-272000D02*
X50800D01*
G01X50000D02*
Y-282000D01*
G01X49200D02*
X50800D01*
G01X54000Y-280834D02*
X54333Y-281500D01*
X54800Y-282000D01*
X55200D01*
X55600Y-281667D01*
X55867Y-281167D01*
X56000Y-280500D01*
X55933Y-279500D01*
X55667Y-279000D01*
X54467Y-278000D01*
X54200Y-276833D01*
X54333Y-276000D01*
X54600Y-275500D01*
X55000Y-275334D01*
X55400Y-275500D01*
X55800Y-276000D01*
G01X63467Y-282000D02*
Y-272000D01*
X66533Y-282000D01*
Y-272000D01*
G01X70000Y-282000D02*
X69600Y-281833D01*
X69200Y-281167D01*
X68933Y-280000D01*
X68800Y-278667D01*
X68933Y-277333D01*
X69200Y-276167D01*
X69600Y-275500D01*
X70000Y-275334D01*
X70400Y-275500D01*
X70800Y-276167D01*
X71067Y-277333D01*
X71133Y-278667D01*
X71067Y-280000D01*
X70800Y-281167D01*
X70400Y-281833D01*
X70000Y-282000D01*
G01X75000Y-272000D02*
Y-282000D01*
G01X74067Y-275334D02*
X75933D01*
G01X83467Y-282000D02*
Y-272000D01*
X86533Y-282000D01*
Y-272000D01*
G01X89000Y-277500D02*
X91133D01*
X90933Y-276333D01*
X90600Y-275667D01*
X90133Y-275334D01*
X89667Y-275500D01*
X89267Y-276000D01*
X89000Y-277167D01*
X88867Y-278167D01*
Y-279167D01*
X89000Y-280167D01*
X89333Y-281167D01*
X89733Y-281833D01*
X90200Y-282000D01*
X90667Y-281667D01*
X91133Y-280667D01*
G01X96067Y-276167D02*
X95600Y-275500D01*
X95200Y-275334D01*
X94667Y-275667D01*
X94267Y-276333D01*
X94000Y-277500D01*
X93933Y-278667D01*
X94000Y-279833D01*
X94267Y-280834D01*
X94667Y-281667D01*
X95200Y-282000D01*
X95667Y-281667D01*
X96067Y-281000D01*
G01X99000Y-277500D02*
X101133D01*
X100933Y-276333D01*
X100600Y-275667D01*
X100133Y-275334D01*
X99667Y-275500D01*
X99267Y-276000D01*
X99000Y-277167D01*
X98867Y-278167D01*
Y-279167D01*
X99000Y-280167D01*
X99333Y-281167D01*
X99733Y-281833D01*
X100200Y-282000D01*
X100667Y-281667D01*
X101133Y-280667D01*
G01X104000Y-280834D02*
X104333Y-281500D01*
X104800Y-282000D01*
X105200D01*
X105600Y-281667D01*
X105867Y-281167D01*
X106000Y-280500D01*
X105933Y-279500D01*
X105667Y-279000D01*
X104467Y-278000D01*
X104200Y-276833D01*
X104333Y-276000D01*
X104600Y-275500D01*
X105000Y-275334D01*
X105400Y-275500D01*
X105800Y-276000D01*
G01X109000Y-280834D02*
X109333Y-281500D01*
X109800Y-282000D01*
X110200D01*
X110600Y-281667D01*
X110867Y-281167D01*
X111000Y-280500D01*
X110933Y-279500D01*
X110667Y-279000D01*
X109467Y-278000D01*
X109200Y-276833D01*
X109333Y-276000D01*
X109600Y-275500D01*
X110000Y-275334D01*
X110400Y-275500D01*
X110800Y-276000D01*
G01X116200Y-282000D02*
Y-275334D01*
G01Y-276500D02*
X115933Y-275833D01*
X115533Y-275500D01*
X115067Y-275334D01*
X114600Y-275667D01*
X114200Y-276333D01*
X113933Y-277333D01*
X113800Y-278667D01*
X113933Y-280000D01*
X114200Y-281000D01*
X114600Y-281667D01*
X115067Y-282000D01*
X115533Y-281833D01*
X115933Y-281333D01*
X116200Y-280667D01*
G01X119067Y-282000D02*
Y-275334D01*
G01Y-276667D02*
X119400Y-276000D01*
X119733Y-275500D01*
X120200Y-275334D01*
X120533Y-275500D01*
X120933Y-276000D01*
G01X125000Y-275334D02*
Y-282000D01*
G01Y-272667D02*
X124867Y-272500D01*
Y-272167D01*
X125000Y-272000D01*
X125133Y-272167D01*
Y-272500D01*
X125000Y-272667D01*
G01X130000Y-282000D02*
Y-272000D01*
G01X133600Y-285000D02*
X134000Y-285333D01*
X134533Y-285000D01*
X134867Y-284333D01*
X135133Y-283500D01*
X135533Y-280834D01*
X136400Y-275334D01*
G01X134267D02*
X135533Y-280834D01*
G01X145400Y-277000D02*
X146733D01*
Y-280000D01*
X146333Y-281000D01*
X145867Y-281667D01*
X145200Y-282000D01*
X144533Y-281667D01*
X144067Y-281000D01*
X143667Y-280000D01*
X143400Y-278833D01*
X143267Y-277500D01*
Y-276333D01*
X143400Y-275334D01*
X143667Y-274167D01*
X144067Y-273167D01*
X144467Y-272500D01*
X145000Y-272000D01*
X145467D01*
X146000Y-272333D01*
X146400Y-273000D01*
G01X150000Y-275334D02*
Y-282000D01*
G01Y-272667D02*
X149867Y-272500D01*
Y-272167D01*
X150000Y-272000D01*
X150133Y-272167D01*
Y-272500D01*
X150000Y-272667D01*
G01X153800Y-275334D02*
X155000Y-282000D01*
X156200Y-275334D01*
G01X159000Y-277500D02*
X161133D01*
X160933Y-276333D01*
X160600Y-275667D01*
X160133Y-275334D01*
X159667Y-275500D01*
X159267Y-276000D01*
X159000Y-277167D01*
X158867Y-278167D01*
Y-279167D01*
X159000Y-280167D01*
X159333Y-281167D01*
X159733Y-281833D01*
X160200Y-282000D01*
X160667Y-281667D01*
X161133Y-280667D01*
G01X163867Y-282000D02*
Y-275334D01*
G01Y-277000D02*
X164133Y-276167D01*
X164533Y-275500D01*
X165067Y-275334D01*
X165533Y-275500D01*
X165933Y-276167D01*
X166133Y-277333D01*
Y-282000D01*
G01X170000Y-282333D02*
X169867Y-282167D01*
Y-281833D01*
X170000Y-281667D01*
X170133Y-281833D01*
Y-282167D01*
X170000Y-282333D01*
G01X180000Y-272000D02*
Y-282000D01*
G01X178467Y-272000D02*
X181533D01*
G01X183867Y-282000D02*
Y-272000D01*
G01Y-276833D02*
X184200Y-276000D01*
X184533Y-275500D01*
X185067Y-275334D01*
X185467Y-275500D01*
X185933Y-276167D01*
X186133Y-277167D01*
Y-282000D01*
G01X189000Y-277500D02*
X191133D01*
X190933Y-276333D01*
X190600Y-275667D01*
X190133Y-275334D01*
X189667Y-275500D01*
X189267Y-276000D01*
X189000Y-277167D01*
X188867Y-278167D01*
Y-279167D01*
X189000Y-280167D01*
X189333Y-281167D01*
X189733Y-281833D01*
X190200Y-282000D01*
X190667Y-281667D01*
X191133Y-280667D01*
G01X199200Y-272000D02*
X200800D01*
G01X200000D02*
Y-282000D01*
G01X199200D02*
X200800D01*
G01X203867D02*
Y-275334D01*
G01Y-277000D02*
X204133Y-276167D01*
X204533Y-275500D01*
X205067Y-275334D01*
X205533Y-275500D01*
X205933Y-276167D01*
X206133Y-277333D01*
Y-282000D01*
G01X209600D02*
Y-273500D01*
X209733Y-272667D01*
X210000Y-272167D01*
X210400Y-272000D01*
X210800Y-272333D01*
X211000Y-273167D01*
G01X210200Y-276000D02*
X208867D01*
G01X215000Y-282000D02*
X214600Y-281833D01*
X214200Y-281167D01*
X213933Y-280000D01*
X213800Y-278667D01*
X213933Y-277333D01*
X214200Y-276167D01*
X214600Y-275500D01*
X215000Y-275334D01*
X215400Y-275500D01*
X215800Y-276167D01*
X216067Y-277333D01*
X216133Y-278667D01*
X216067Y-280000D01*
X215800Y-281167D01*
X215400Y-281833D01*
X215000Y-282000D01*
G01X219067D02*
Y-275334D01*
G01Y-276667D02*
X219400Y-276000D01*
X219733Y-275500D01*
X220200Y-275334D01*
X220533Y-275500D01*
X220933Y-276000D01*
G01X223000Y-282000D02*
Y-275334D01*
G01Y-277167D02*
X223200Y-276333D01*
X223533Y-275667D01*
X224000Y-275334D01*
X224467Y-275667D01*
X224800Y-276333D01*
X225000Y-277167D01*
Y-282000D01*
G01Y-277167D02*
X225200Y-276333D01*
X225533Y-275667D01*
X226000Y-275334D01*
X226467Y-275667D01*
X226800Y-276333D01*
X227000Y-277333D01*
Y-282000D01*
G01X231200D02*
Y-275334D01*
G01Y-276500D02*
X230933Y-275833D01*
X230533Y-275500D01*
X230067Y-275334D01*
X229600Y-275667D01*
X229200Y-276333D01*
X228933Y-277333D01*
X228800Y-278667D01*
X228933Y-280000D01*
X229200Y-281000D01*
X229600Y-281667D01*
X230067Y-282000D01*
X230533Y-281833D01*
X230933Y-281333D01*
X231200Y-280667D01*
G01X235000Y-272000D02*
Y-282000D01*
G01X234067Y-275334D02*
X235933D01*
G01X240000D02*
Y-282000D01*
G01Y-272667D02*
X239867Y-272500D01*
Y-272167D01*
X240000Y-272000D01*
X240133Y-272167D01*
Y-272500D01*
X240000Y-272667D01*
G01X245000Y-282000D02*
X244600Y-281833D01*
X244200Y-281167D01*
X243933Y-280000D01*
X243800Y-278667D01*
X243933Y-277333D01*
X244200Y-276167D01*
X244600Y-275500D01*
X245000Y-275334D01*
X245400Y-275500D01*
X245800Y-276167D01*
X246067Y-277333D01*
X246133Y-278667D01*
X246067Y-280000D01*
X245800Y-281167D01*
X245400Y-281833D01*
X245000Y-282000D01*
G01X248867D02*
Y-275334D01*
G01Y-277000D02*
X249133Y-276167D01*
X249533Y-275500D01*
X250067Y-275334D01*
X250533Y-275500D01*
X250933Y-276167D01*
X251133Y-277333D01*
Y-282000D01*
G01X258600D02*
Y-272000D01*
G01X261400D02*
Y-282000D01*
G01Y-277000D02*
X258600D01*
G01X266200Y-282000D02*
Y-275334D01*
G01Y-276500D02*
X265933Y-275833D01*
X265533Y-275500D01*
X265067Y-275334D01*
X264600Y-275667D01*
X264200Y-276333D01*
X263933Y-277333D01*
X263800Y-278667D01*
X263933Y-280000D01*
X264200Y-281000D01*
X264600Y-281667D01*
X265067Y-282000D01*
X265533Y-281833D01*
X265933Y-281333D01*
X266200Y-280667D01*
G01X269000Y-280834D02*
X269333Y-281500D01*
X269800Y-282000D01*
X270200D01*
X270600Y-281667D01*
X270867Y-281167D01*
X271000Y-280500D01*
X270933Y-279500D01*
X270667Y-279000D01*
X269467Y-278000D01*
X269200Y-276833D01*
X269333Y-276000D01*
X269600Y-275500D01*
X270000Y-275334D01*
X270400Y-275500D01*
X270800Y-276000D01*
G01X280533Y-276667D02*
X280800Y-276167D01*
X281000Y-275334D01*
X281133Y-274167D01*
X281000Y-273167D01*
X280733Y-272500D01*
X280267Y-272000D01*
X278467D01*
Y-282000D01*
X280667D01*
X281133Y-281333D01*
X281400Y-280333D01*
X281533Y-279167D01*
X281400Y-278000D01*
X281000Y-277000D01*
X280533Y-276667D01*
X278467D01*
G01X284000Y-277500D02*
X286133D01*
X285933Y-276333D01*
X285600Y-275667D01*
X285133Y-275334D01*
X284667Y-275500D01*
X284267Y-276000D01*
X284000Y-277167D01*
X283867Y-278167D01*
Y-279167D01*
X284000Y-280167D01*
X284333Y-281167D01*
X284733Y-281833D01*
X285200Y-282000D01*
X285667Y-281667D01*
X286133Y-280667D01*
G01X289000Y-277500D02*
X291133D01*
X290933Y-276333D01*
X290600Y-275667D01*
X290133Y-275334D01*
X289667Y-275500D01*
X289267Y-276000D01*
X289000Y-277167D01*
X288867Y-278167D01*
Y-279167D01*
X289000Y-280167D01*
X289333Y-281167D01*
X289733Y-281833D01*
X290200Y-282000D01*
X290667Y-281667D01*
X291133Y-280667D01*
G01X293867Y-282000D02*
Y-275334D01*
G01Y-277000D02*
X294133Y-276167D01*
X294533Y-275500D01*
X295067Y-275334D01*
X295533Y-275500D01*
X295933Y-276167D01*
X296133Y-277333D01*
Y-282000D01*
G01X306467Y-272833D02*
X306067Y-272333D01*
X305600Y-272000D01*
X305067D01*
X304467Y-272500D01*
X304000Y-273333D01*
X303667Y-274333D01*
X303400Y-276000D01*
X303333Y-277500D01*
X303467Y-279000D01*
X303667Y-280000D01*
X304067Y-281000D01*
X304533Y-281667D01*
X305000Y-282000D01*
X305467D01*
X305933Y-281667D01*
X306333Y-281167D01*
X306667Y-280500D01*
G01X311200Y-282000D02*
Y-275334D01*
G01Y-276500D02*
X310933Y-275833D01*
X310533Y-275500D01*
X310067Y-275334D01*
X309600Y-275667D01*
X309200Y-276333D01*
X308933Y-277333D01*
X308800Y-278667D01*
X308933Y-280000D01*
X309200Y-281000D01*
X309600Y-281667D01*
X310067Y-282000D01*
X310533Y-281833D01*
X310933Y-281333D01*
X311200Y-280667D01*
G01X314067Y-282000D02*
Y-275334D01*
G01Y-276667D02*
X314400Y-276000D01*
X314733Y-275500D01*
X315200Y-275334D01*
X315533Y-275500D01*
X315933Y-276000D01*
G01X319000Y-277500D02*
X321133D01*
X320933Y-276333D01*
X320600Y-275667D01*
X320133Y-275334D01*
X319667Y-275500D01*
X319267Y-276000D01*
X319000Y-277167D01*
X318867Y-278167D01*
Y-279167D01*
X319000Y-280167D01*
X319333Y-281167D01*
X319733Y-281833D01*
X320200Y-282000D01*
X320667Y-281667D01*
X321133Y-280667D01*
G01X324600Y-282000D02*
Y-273500D01*
X324733Y-272667D01*
X325000Y-272167D01*
X325400Y-272000D01*
X325800Y-272333D01*
X326000Y-273167D01*
G01X325200Y-276000D02*
X323867D01*
G01X328867Y-275334D02*
Y-280000D01*
X329133Y-281167D01*
X329533Y-281833D01*
X330000Y-282000D01*
X330467Y-281833D01*
X330867Y-281167D01*
X331133Y-280000D01*
G01Y-282000D02*
Y-275334D01*
G01X335000Y-282000D02*
Y-272000D01*
G01X340000Y-282000D02*
Y-272000D01*
G01X343600Y-285000D02*
X344000Y-285333D01*
X344533Y-285000D01*
X344867Y-284333D01*
X345133Y-283500D01*
X345533Y-280834D01*
X346400Y-275334D01*
G01X344267D02*
X345533Y-280834D01*
G01X-61400Y-265667D02*
X-60867Y-266500D01*
X-60267Y-267000D01*
X-59733D01*
X-59200Y-266500D01*
X-58800Y-265667D01*
X-58600Y-264500D01*
X-58733Y-263334D01*
X-59067Y-262333D01*
X-59667Y-261667D01*
X-60467Y-261333D01*
X-60933Y-260667D01*
X-61133Y-259500D01*
X-61000Y-258333D01*
X-60667Y-257500D01*
X-60200Y-257000D01*
X-59733D01*
X-59267Y-257333D01*
X-58867Y-258167D01*
G01X-56000Y-262500D02*
X-53867D01*
X-54067Y-261333D01*
X-54400Y-260667D01*
X-54867Y-260334D01*
X-55333Y-260500D01*
X-55733Y-261000D01*
X-56000Y-262167D01*
X-56133Y-263167D01*
Y-264167D01*
X-56000Y-265167D01*
X-55667Y-266167D01*
X-55267Y-266833D01*
X-54800Y-267000D01*
X-54333Y-266667D01*
X-53867Y-265667D01*
G01X-52000Y-267000D02*
Y-260334D01*
G01Y-262167D02*
X-51800Y-261333D01*
X-51467Y-260667D01*
X-51000Y-260334D01*
X-50533Y-260667D01*
X-50200Y-261333D01*
X-50000Y-262167D01*
Y-267000D01*
G01Y-262167D02*
X-49800Y-261333D01*
X-49467Y-260667D01*
X-49000Y-260334D01*
X-48533Y-260667D01*
X-48200Y-261333D01*
X-48000Y-262333D01*
Y-267000D01*
G01X-45000Y-260334D02*
Y-267000D01*
G01Y-257667D02*
X-45133Y-257500D01*
Y-257167D01*
X-45000Y-257000D01*
X-44867Y-257167D01*
Y-257500D01*
X-45000Y-257667D01*
G01X-38933Y-261167D02*
X-39400Y-260500D01*
X-39800Y-260334D01*
X-40333Y-260667D01*
X-40733Y-261333D01*
X-41000Y-262500D01*
X-41067Y-263667D01*
X-41000Y-264833D01*
X-40733Y-265834D01*
X-40333Y-266667D01*
X-39800Y-267000D01*
X-39333Y-266667D01*
X-38933Y-266000D01*
G01X-35000Y-267000D02*
X-35400Y-266833D01*
X-35800Y-266167D01*
X-36067Y-265000D01*
X-36200Y-263667D01*
X-36067Y-262333D01*
X-35800Y-261167D01*
X-35400Y-260500D01*
X-35000Y-260334D01*
X-34600Y-260500D01*
X-34200Y-261167D01*
X-33933Y-262333D01*
X-33867Y-263667D01*
X-33933Y-265000D01*
X-34200Y-266167D01*
X-34600Y-266833D01*
X-35000Y-267000D01*
G01X-31133D02*
Y-260334D01*
G01Y-262000D02*
X-30867Y-261167D01*
X-30467Y-260500D01*
X-29933Y-260334D01*
X-29467Y-260500D01*
X-29067Y-261167D01*
X-28867Y-262333D01*
Y-267000D01*
G01X-23800Y-257000D02*
Y-267000D01*
G01Y-265500D02*
X-24067Y-266333D01*
X-24467Y-266833D01*
X-24933Y-267000D01*
X-25467Y-266667D01*
X-25867Y-265834D01*
X-26133Y-264833D01*
X-26200Y-263667D01*
X-26133Y-262500D01*
X-25867Y-261500D01*
X-25467Y-260667D01*
X-24933Y-260334D01*
X-24467Y-260500D01*
X-24133Y-260833D01*
X-23800Y-261500D01*
G01X-21133Y-260334D02*
Y-265000D01*
X-20867Y-266167D01*
X-20467Y-266833D01*
X-20000Y-267000D01*
X-19533Y-266833D01*
X-19133Y-266167D01*
X-18867Y-265000D01*
G01Y-267000D02*
Y-260334D01*
G01X-13933Y-261167D02*
X-14400Y-260500D01*
X-14800Y-260334D01*
X-15333Y-260667D01*
X-15733Y-261333D01*
X-16000Y-262500D01*
X-16067Y-263667D01*
X-16000Y-264833D01*
X-15733Y-265834D01*
X-15333Y-266667D01*
X-14800Y-267000D01*
X-14333Y-266667D01*
X-13933Y-266000D01*
G01X-10000Y-257000D02*
Y-267000D01*
G01X-10933Y-260334D02*
X-9067D01*
G01X-5000Y-267000D02*
X-5400Y-266833D01*
X-5800Y-266167D01*
X-6067Y-265000D01*
X-6200Y-263667D01*
X-6067Y-262333D01*
X-5800Y-261167D01*
X-5400Y-260500D01*
X-5000Y-260334D01*
X-4600Y-260500D01*
X-4200Y-261167D01*
X-3933Y-262333D01*
X-3867Y-263667D01*
X-3933Y-265000D01*
X-4200Y-266167D01*
X-4600Y-266833D01*
X-5000Y-267000D01*
G01X-933D02*
Y-260334D01*
G01Y-261667D02*
X-600Y-261000D01*
X-267Y-260500D01*
X200Y-260334D01*
X533Y-260500D01*
X933Y-261000D01*
G01X8333Y-267000D02*
X10000Y-257000D01*
X11667Y-267000D01*
G01X11067Y-263500D02*
X8933D01*
G01X13800Y-270333D02*
Y-260334D01*
G01Y-261833D02*
X14133Y-261000D01*
X14467Y-260500D01*
X15000Y-260334D01*
X15467Y-260500D01*
X15933Y-261333D01*
X16133Y-262500D01*
X16200Y-263667D01*
X16133Y-264833D01*
X15933Y-266000D01*
X15533Y-266667D01*
X15000Y-267000D01*
X14533Y-266833D01*
X14067Y-266333D01*
X13800Y-265667D01*
G01X18800Y-270333D02*
Y-260334D01*
G01Y-261833D02*
X19133Y-261000D01*
X19467Y-260500D01*
X20000Y-260334D01*
X20467Y-260500D01*
X20933Y-261333D01*
X21133Y-262500D01*
X21200Y-263667D01*
X21133Y-264833D01*
X20933Y-266000D01*
X20533Y-266667D01*
X20000Y-267000D01*
X19533Y-266833D01*
X19067Y-266333D01*
X18800Y-265667D01*
G01X25000Y-267000D02*
Y-257000D01*
G01X30000Y-260334D02*
Y-267000D01*
G01Y-257667D02*
X29867Y-257500D01*
Y-257167D01*
X30000Y-257000D01*
X30133Y-257167D01*
Y-257500D01*
X30000Y-257667D01*
G01X36067Y-261167D02*
X35600Y-260500D01*
X35200Y-260334D01*
X34667Y-260667D01*
X34267Y-261333D01*
X34000Y-262500D01*
X33933Y-263667D01*
X34000Y-264833D01*
X34267Y-265834D01*
X34667Y-266667D01*
X35200Y-267000D01*
X35667Y-266667D01*
X36067Y-266000D01*
G01X41200Y-267000D02*
Y-260334D01*
G01Y-261500D02*
X40933Y-260833D01*
X40533Y-260500D01*
X40067Y-260334D01*
X39600Y-260667D01*
X39200Y-261333D01*
X38933Y-262333D01*
X38800Y-263667D01*
X38933Y-265000D01*
X39200Y-266000D01*
X39600Y-266667D01*
X40067Y-267000D01*
X40533Y-266833D01*
X40933Y-266333D01*
X41200Y-265667D01*
G01X45000Y-257000D02*
Y-267000D01*
G01X44067Y-260334D02*
X45933D01*
G01X50000D02*
Y-267000D01*
G01Y-257667D02*
X49867Y-257500D01*
Y-257167D01*
X50000Y-257000D01*
X50133Y-257167D01*
Y-257500D01*
X50000Y-257667D01*
G01X55000Y-267000D02*
X54600Y-266833D01*
X54200Y-266167D01*
X53933Y-265000D01*
X53800Y-263667D01*
X53933Y-262333D01*
X54200Y-261167D01*
X54600Y-260500D01*
X55000Y-260334D01*
X55400Y-260500D01*
X55800Y-261167D01*
X56067Y-262333D01*
X56133Y-263667D01*
X56067Y-265000D01*
X55800Y-266167D01*
X55400Y-266833D01*
X55000Y-267000D01*
G01X58867D02*
Y-260334D01*
G01Y-262000D02*
X59133Y-261167D01*
X59533Y-260500D01*
X60067Y-260334D01*
X60533Y-260500D01*
X60933Y-261167D01*
X61133Y-262333D01*
Y-267000D01*
G01X64000Y-265834D02*
X64333Y-266500D01*
X64800Y-267000D01*
X65200D01*
X65600Y-266667D01*
X65867Y-266167D01*
X66000Y-265500D01*
X65933Y-264500D01*
X65667Y-264000D01*
X64467Y-263000D01*
X64200Y-261833D01*
X64333Y-261000D01*
X64600Y-260500D01*
X65000Y-260334D01*
X65400Y-260500D01*
X65800Y-261000D01*
G01X70000Y-267333D02*
X69867Y-267167D01*
Y-266833D01*
X70000Y-266667D01*
X70133Y-266833D01*
Y-267167D01*
X70000Y-267333D01*
G01Y-262834D02*
X69867Y-262667D01*
Y-262333D01*
X70000Y-262167D01*
X70133Y-262333D01*
Y-262667D01*
X70000Y-262834D01*
G01X81467Y-257833D02*
X81067Y-257333D01*
X80600Y-257000D01*
X80067D01*
X79467Y-257500D01*
X79000Y-258333D01*
X78667Y-259333D01*
X78400Y-261000D01*
X78333Y-262500D01*
X78467Y-264000D01*
X78667Y-265000D01*
X79067Y-266000D01*
X79533Y-266667D01*
X80000Y-267000D01*
X80467D01*
X80933Y-266667D01*
X81333Y-266167D01*
X81667Y-265500D01*
G01X85000Y-267000D02*
X84600Y-266833D01*
X84200Y-266167D01*
X83933Y-265000D01*
X83800Y-263667D01*
X83933Y-262333D01*
X84200Y-261167D01*
X84600Y-260500D01*
X85000Y-260334D01*
X85400Y-260500D01*
X85800Y-261167D01*
X86067Y-262333D01*
X86133Y-263667D01*
X86067Y-265000D01*
X85800Y-266167D01*
X85400Y-266833D01*
X85000Y-267000D01*
G01X88867D02*
Y-260334D01*
G01Y-262000D02*
X89133Y-261167D01*
X89533Y-260500D01*
X90067Y-260334D01*
X90533Y-260500D01*
X90933Y-261167D01*
X91133Y-262333D01*
Y-267000D01*
G01X94000Y-265834D02*
X94333Y-266500D01*
X94800Y-267000D01*
X95200D01*
X95600Y-266667D01*
X95867Y-266167D01*
X96000Y-265500D01*
X95933Y-264500D01*
X95667Y-264000D01*
X94467Y-263000D01*
X94200Y-261833D01*
X94333Y-261000D01*
X94600Y-260500D01*
X95000Y-260334D01*
X95400Y-260500D01*
X95800Y-261000D01*
G01X99000Y-262500D02*
X101133D01*
X100933Y-261333D01*
X100600Y-260667D01*
X100133Y-260334D01*
X99667Y-260500D01*
X99267Y-261000D01*
X99000Y-262167D01*
X98867Y-263167D01*
Y-264167D01*
X99000Y-265167D01*
X99333Y-266167D01*
X99733Y-266833D01*
X100200Y-267000D01*
X100667Y-266667D01*
X101133Y-265667D01*
G01X106200Y-270333D02*
Y-260334D01*
G01Y-261833D02*
X105867Y-261000D01*
X105467Y-260500D01*
X105000Y-260334D01*
X104600Y-260500D01*
X104133Y-261333D01*
X103867Y-262500D01*
X103800Y-263667D01*
X103867Y-264833D01*
X104133Y-266000D01*
X104600Y-266833D01*
X105000Y-267000D01*
X105467Y-266833D01*
X105867Y-266333D01*
X106200Y-265500D01*
G01X108867Y-260334D02*
Y-265000D01*
X109133Y-266167D01*
X109533Y-266833D01*
X110000Y-267000D01*
X110467Y-266833D01*
X110867Y-266167D01*
X111133Y-265000D01*
G01Y-267000D02*
Y-260334D01*
G01X114000Y-262500D02*
X116133D01*
X115933Y-261333D01*
X115600Y-260667D01*
X115133Y-260334D01*
X114667Y-260500D01*
X114267Y-261000D01*
X114000Y-262167D01*
X113867Y-263167D01*
Y-264167D01*
X114000Y-265167D01*
X114333Y-266167D01*
X114733Y-266833D01*
X115200Y-267000D01*
X115667Y-266667D01*
X116133Y-265667D01*
G01X118867Y-267000D02*
Y-260334D01*
G01Y-262000D02*
X119133Y-261167D01*
X119533Y-260500D01*
X120067Y-260334D01*
X120533Y-260500D01*
X120933Y-261167D01*
X121133Y-262333D01*
Y-267000D01*
G01X125000Y-257000D02*
Y-267000D01*
G01X124067Y-260334D02*
X125933D01*
G01X130000Y-267000D02*
Y-257000D01*
G01X133600Y-270000D02*
X134000Y-270333D01*
X134533Y-270000D01*
X134867Y-269333D01*
X135133Y-268500D01*
X135533Y-265834D01*
X136400Y-260334D01*
G01X134267D02*
X135533Y-265834D01*
G01X146467Y-257833D02*
X146067Y-257333D01*
X145600Y-257000D01*
X145067D01*
X144467Y-257500D01*
X144000Y-258333D01*
X143667Y-259333D01*
X143400Y-261000D01*
X143333Y-262500D01*
X143467Y-264000D01*
X143667Y-265000D01*
X144067Y-266000D01*
X144533Y-266667D01*
X145000Y-267000D01*
X145467D01*
X145933Y-266667D01*
X146333Y-266167D01*
X146667Y-265500D01*
G01X150000Y-267000D02*
X149600Y-266833D01*
X149200Y-266167D01*
X148933Y-265000D01*
X148800Y-263667D01*
X148933Y-262333D01*
X149200Y-261167D01*
X149600Y-260500D01*
X150000Y-260334D01*
X150400Y-260500D01*
X150800Y-261167D01*
X151067Y-262333D01*
X151133Y-263667D01*
X151067Y-265000D01*
X150800Y-266167D01*
X150400Y-266833D01*
X150000Y-267000D01*
G01X153000D02*
Y-260334D01*
G01Y-262167D02*
X153200Y-261333D01*
X153533Y-260667D01*
X154000Y-260334D01*
X154467Y-260667D01*
X154800Y-261333D01*
X155000Y-262167D01*
Y-267000D01*
G01Y-262167D02*
X155200Y-261333D01*
X155533Y-260667D01*
X156000Y-260334D01*
X156467Y-260667D01*
X156800Y-261333D01*
X157000Y-262333D01*
Y-267000D01*
G01X158800Y-270333D02*
Y-260334D01*
G01Y-261833D02*
X159133Y-261000D01*
X159467Y-260500D01*
X160000Y-260334D01*
X160467Y-260500D01*
X160933Y-261333D01*
X161133Y-262500D01*
X161200Y-263667D01*
X161133Y-264833D01*
X160933Y-266000D01*
X160533Y-266667D01*
X160000Y-267000D01*
X159533Y-266833D01*
X159067Y-266333D01*
X158800Y-265667D01*
G01X165000Y-267000D02*
Y-257000D01*
G01X169000Y-262500D02*
X171133D01*
X170933Y-261333D01*
X170600Y-260667D01*
X170133Y-260334D01*
X169667Y-260500D01*
X169267Y-261000D01*
X169000Y-262167D01*
X168867Y-263167D01*
Y-264167D01*
X169000Y-265167D01*
X169333Y-266167D01*
X169733Y-266833D01*
X170200Y-267000D01*
X170667Y-266667D01*
X171133Y-265667D01*
G01X175000Y-257000D02*
Y-267000D01*
G01X174067Y-260334D02*
X175933D01*
G01X179000Y-262500D02*
X181133D01*
X180933Y-261333D01*
X180600Y-260667D01*
X180133Y-260334D01*
X179667Y-260500D01*
X179267Y-261000D01*
X179000Y-262167D01*
X178867Y-263167D01*
Y-264167D01*
X179000Y-265167D01*
X179333Y-266167D01*
X179733Y-266833D01*
X180200Y-267000D01*
X180667Y-266667D01*
X181133Y-265667D01*
G01X189200Y-257000D02*
X190800D01*
G01X190000D02*
Y-267000D01*
G01X189200D02*
X190800D01*
G01X193867D02*
Y-260334D01*
G01Y-262000D02*
X194133Y-261167D01*
X194533Y-260500D01*
X195067Y-260334D01*
X195533Y-260500D01*
X195933Y-261167D01*
X196133Y-262333D01*
Y-267000D01*
G01X199600D02*
Y-258500D01*
X199733Y-257667D01*
X200000Y-257167D01*
X200400Y-257000D01*
X200800Y-257333D01*
X201000Y-258167D01*
G01X200200Y-261000D02*
X198867D01*
G01X205000Y-267000D02*
X204600Y-266833D01*
X204200Y-266167D01*
X203933Y-265000D01*
X203800Y-263667D01*
X203933Y-262333D01*
X204200Y-261167D01*
X204600Y-260500D01*
X205000Y-260334D01*
X205400Y-260500D01*
X205800Y-261167D01*
X206067Y-262333D01*
X206133Y-263667D01*
X206067Y-265000D01*
X205800Y-266167D01*
X205400Y-266833D01*
X205000Y-267000D01*
G01X209067D02*
Y-260334D01*
G01Y-261667D02*
X209400Y-261000D01*
X209733Y-260500D01*
X210200Y-260334D01*
X210533Y-260500D01*
X210933Y-261000D01*
G01X213000Y-267000D02*
Y-260334D01*
G01Y-262167D02*
X213200Y-261333D01*
X213533Y-260667D01*
X214000Y-260334D01*
X214467Y-260667D01*
X214800Y-261333D01*
X215000Y-262167D01*
Y-267000D01*
G01Y-262167D02*
X215200Y-261333D01*
X215533Y-260667D01*
X216000Y-260334D01*
X216467Y-260667D01*
X216800Y-261333D01*
X217000Y-262333D01*
Y-267000D01*
G01X221200D02*
Y-260334D01*
G01Y-261500D02*
X220933Y-260833D01*
X220533Y-260500D01*
X220067Y-260334D01*
X219600Y-260667D01*
X219200Y-261333D01*
X218933Y-262333D01*
X218800Y-263667D01*
X218933Y-265000D01*
X219200Y-266000D01*
X219600Y-266667D01*
X220067Y-267000D01*
X220533Y-266833D01*
X220933Y-266333D01*
X221200Y-265667D01*
G01X225000Y-257000D02*
Y-267000D01*
G01X224067Y-260334D02*
X225933D01*
G01X230000D02*
Y-267000D01*
G01Y-257667D02*
X229867Y-257500D01*
Y-257167D01*
X230000Y-257000D01*
X230133Y-257167D01*
Y-257500D01*
X230000Y-257667D01*
G01X235000Y-267000D02*
X234600Y-266833D01*
X234200Y-266167D01*
X233933Y-265000D01*
X233800Y-263667D01*
X233933Y-262333D01*
X234200Y-261167D01*
X234600Y-260500D01*
X235000Y-260334D01*
X235400Y-260500D01*
X235800Y-261167D01*
X236067Y-262333D01*
X236133Y-263667D01*
X236067Y-265000D01*
X235800Y-266167D01*
X235400Y-266833D01*
X235000Y-267000D01*
G01X238867D02*
Y-260334D01*
G01Y-262000D02*
X239133Y-261167D01*
X239533Y-260500D01*
X240067Y-260334D01*
X240533Y-260500D01*
X240933Y-261167D01*
X241133Y-262333D01*
Y-267000D01*
G01X248600Y-265667D02*
X249133Y-266500D01*
X249733Y-267000D01*
X250267D01*
X250800Y-266500D01*
X251200Y-265667D01*
X251400Y-264500D01*
X251267Y-263334D01*
X250933Y-262333D01*
X250333Y-261667D01*
X249533Y-261333D01*
X249067Y-260667D01*
X248867Y-259500D01*
X249000Y-258333D01*
X249333Y-257500D01*
X249800Y-257000D01*
X250267D01*
X250733Y-257333D01*
X251133Y-258167D01*
G01X253867Y-260334D02*
Y-265000D01*
X254133Y-266167D01*
X254533Y-266833D01*
X255000Y-267000D01*
X255467Y-266833D01*
X255867Y-266167D01*
X256133Y-265000D01*
G01Y-267000D02*
Y-260334D01*
G01X259600Y-267000D02*
Y-258500D01*
X259733Y-257667D01*
X260000Y-257167D01*
X260400Y-257000D01*
X260800Y-257333D01*
X261000Y-258167D01*
G01X260200Y-261000D02*
X258867D01*
G01X264600Y-267000D02*
Y-258500D01*
X264733Y-257667D01*
X265000Y-257167D01*
X265400Y-257000D01*
X265800Y-257333D01*
X266000Y-258167D01*
G01X265200Y-261000D02*
X263867D01*
G01X270000Y-260334D02*
Y-267000D01*
G01Y-257667D02*
X269867Y-257500D01*
Y-257167D01*
X270000Y-257000D01*
X270133Y-257167D01*
Y-257500D01*
X270000Y-257667D01*
G01X276067Y-261167D02*
X275600Y-260500D01*
X275200Y-260334D01*
X274667Y-260667D01*
X274267Y-261333D01*
X274000Y-262500D01*
X273933Y-263667D01*
X274000Y-264833D01*
X274267Y-265834D01*
X274667Y-266667D01*
X275200Y-267000D01*
X275667Y-266667D01*
X276067Y-266000D01*
G01X280000Y-260334D02*
Y-267000D01*
G01Y-257667D02*
X279867Y-257500D01*
Y-257167D01*
X280000Y-257000D01*
X280133Y-257167D01*
Y-257500D01*
X280000Y-257667D01*
G01X284000Y-262500D02*
X286133D01*
X285933Y-261333D01*
X285600Y-260667D01*
X285133Y-260334D01*
X284667Y-260500D01*
X284267Y-261000D01*
X284000Y-262167D01*
X283867Y-263167D01*
Y-264167D01*
X284000Y-265167D01*
X284333Y-266167D01*
X284733Y-266833D01*
X285200Y-267000D01*
X285667Y-266667D01*
X286133Y-265667D01*
G01X288867Y-267000D02*
Y-260334D01*
G01Y-262000D02*
X289133Y-261167D01*
X289533Y-260500D01*
X290067Y-260334D01*
X290533Y-260500D01*
X290933Y-261167D01*
X291133Y-262333D01*
Y-267000D01*
G01X295000Y-257000D02*
Y-267000D01*
G01X294067Y-260334D02*
X295933D01*
G01X303733Y-267000D02*
Y-257000D01*
X306267D01*
G01X305333Y-261833D02*
X303733D01*
G01X310000Y-267000D02*
X309600Y-266833D01*
X309200Y-266167D01*
X308933Y-265000D01*
X308800Y-263667D01*
X308933Y-262333D01*
X309200Y-261167D01*
X309600Y-260500D01*
X310000Y-260334D01*
X310400Y-260500D01*
X310800Y-261167D01*
X311067Y-262333D01*
X311133Y-263667D01*
X311067Y-265000D01*
X310800Y-266167D01*
X310400Y-266833D01*
X310000Y-267000D01*
G01X314067D02*
Y-260334D01*
G01Y-261667D02*
X314400Y-261000D01*
X314733Y-260500D01*
X315200Y-260334D01*
X315533Y-260500D01*
X315933Y-261000D01*
G01X-58533Y-242833D02*
X-58933Y-242333D01*
X-59400Y-242000D01*
X-59933D01*
X-60533Y-242500D01*
X-61000Y-243333D01*
X-61333Y-244333D01*
X-61600Y-246000D01*
X-61667Y-247500D01*
X-61533Y-249000D01*
X-61333Y-250000D01*
X-60933Y-251000D01*
X-60467Y-251667D01*
X-60000Y-252000D01*
X-59533D01*
X-59067Y-251667D01*
X-58667Y-251167D01*
X-58333Y-250500D01*
G01X-55000Y-245334D02*
Y-252000D01*
G01Y-242667D02*
X-55133Y-242500D01*
Y-242167D01*
X-55000Y-242000D01*
X-54867Y-242167D01*
Y-242500D01*
X-55000Y-242667D01*
G01X-50933Y-252000D02*
Y-245334D01*
G01Y-246667D02*
X-50600Y-246000D01*
X-50267Y-245500D01*
X-49800Y-245334D01*
X-49467Y-245500D01*
X-49067Y-246000D01*
G01X-43933Y-246167D02*
X-44400Y-245500D01*
X-44800Y-245334D01*
X-45333Y-245667D01*
X-45733Y-246333D01*
X-46000Y-247500D01*
X-46067Y-248667D01*
X-46000Y-249833D01*
X-45733Y-250834D01*
X-45333Y-251667D01*
X-44800Y-252000D01*
X-44333Y-251667D01*
X-43933Y-251000D01*
G01X-41133Y-245334D02*
Y-250000D01*
X-40867Y-251167D01*
X-40467Y-251833D01*
X-40000Y-252000D01*
X-39533Y-251833D01*
X-39133Y-251167D01*
X-38867Y-250000D01*
G01Y-252000D02*
Y-245334D01*
G01X-35000D02*
Y-252000D01*
G01Y-242667D02*
X-35133Y-242500D01*
Y-242167D01*
X-35000Y-242000D01*
X-34867Y-242167D01*
Y-242500D01*
X-35000Y-242667D01*
G01X-30000Y-242000D02*
Y-252000D01*
G01X-30933Y-245334D02*
X-29067D01*
G01X-21467Y-252000D02*
Y-242000D01*
X-20133D01*
X-19600Y-242500D01*
X-19200Y-243167D01*
X-18867Y-244167D01*
X-18600Y-245334D01*
X-18533Y-247000D01*
X-18600Y-248667D01*
X-18867Y-249833D01*
X-19200Y-250834D01*
X-19600Y-251500D01*
X-20133Y-252000D01*
X-21467D01*
G01X-15000Y-245334D02*
Y-252000D01*
G01Y-242667D02*
X-15133Y-242500D01*
Y-242167D01*
X-15000Y-242000D01*
X-14867Y-242167D01*
Y-242500D01*
X-15000Y-242667D01*
G01X-8800Y-252000D02*
Y-245334D01*
G01Y-246500D02*
X-9067Y-245833D01*
X-9467Y-245500D01*
X-9933Y-245334D01*
X-10400Y-245667D01*
X-10800Y-246333D01*
X-11067Y-247333D01*
X-11200Y-248667D01*
X-11067Y-250000D01*
X-10800Y-251000D01*
X-10400Y-251667D01*
X-9933Y-252000D01*
X-9467Y-251833D01*
X-9067Y-251333D01*
X-8800Y-250667D01*
G01X-5933Y-254500D02*
X-5467Y-255167D01*
X-4933Y-255333D01*
X-4467Y-255167D01*
X-4067Y-254333D01*
X-3800Y-253167D01*
Y-245334D01*
G01Y-246667D02*
X-4067Y-246000D01*
X-4467Y-245500D01*
X-4933Y-245334D01*
X-5467Y-245667D01*
X-5800Y-246333D01*
X-6067Y-247500D01*
X-6200Y-248667D01*
X-6133Y-249667D01*
X-5867Y-250834D01*
X-5467Y-251667D01*
X-4933Y-252000D01*
X-4533Y-251833D01*
X-4067Y-251167D01*
X-3800Y-250500D01*
G01X-933Y-252000D02*
Y-245334D01*
G01Y-246667D02*
X-600Y-246000D01*
X-267Y-245500D01*
X200Y-245334D01*
X533Y-245500D01*
X933Y-246000D01*
G01X6200Y-252000D02*
Y-245334D01*
G01Y-246500D02*
X5933Y-245833D01*
X5533Y-245500D01*
X5067Y-245334D01*
X4600Y-245667D01*
X4200Y-246333D01*
X3933Y-247333D01*
X3800Y-248667D01*
X3933Y-250000D01*
X4200Y-251000D01*
X4600Y-251667D01*
X5067Y-252000D01*
X5533Y-251833D01*
X5933Y-251333D01*
X6200Y-250667D01*
G01X8000Y-252000D02*
Y-245334D01*
G01Y-247167D02*
X8200Y-246333D01*
X8533Y-245667D01*
X9000Y-245334D01*
X9467Y-245667D01*
X9800Y-246333D01*
X10000Y-247167D01*
Y-252000D01*
G01Y-247167D02*
X10200Y-246333D01*
X10533Y-245667D01*
X11000Y-245334D01*
X11467Y-245667D01*
X11800Y-246333D01*
X12000Y-247333D01*
Y-252000D01*
G01X14000Y-250834D02*
X14333Y-251500D01*
X14800Y-252000D01*
X15200D01*
X15600Y-251667D01*
X15867Y-251167D01*
X16000Y-250500D01*
X15933Y-249500D01*
X15667Y-249000D01*
X14467Y-248000D01*
X14200Y-246833D01*
X14333Y-246000D01*
X14600Y-245500D01*
X15000Y-245334D01*
X15400Y-245500D01*
X15800Y-246000D01*
G01X23867Y-245334D02*
Y-250000D01*
X24133Y-251167D01*
X24533Y-251833D01*
X25000Y-252000D01*
X25467Y-251833D01*
X25867Y-251167D01*
X26133Y-250000D01*
G01Y-252000D02*
Y-245334D01*
G01X30000Y-242000D02*
Y-252000D01*
G01X29067Y-245334D02*
X30933D01*
G01X35000D02*
Y-252000D01*
G01Y-242667D02*
X34867Y-242500D01*
Y-242167D01*
X35000Y-242000D01*
X35133Y-242167D01*
Y-242500D01*
X35000Y-242667D01*
G01X40000Y-252000D02*
Y-242000D01*
G01X45000Y-245334D02*
Y-252000D01*
G01Y-242667D02*
X44867Y-242500D01*
Y-242167D01*
X45000Y-242000D01*
X45133Y-242167D01*
Y-242500D01*
X45000Y-242667D01*
G01X49000Y-245334D02*
X51000D01*
X49000Y-252000D01*
X51000D01*
G01X55000Y-245334D02*
Y-252000D01*
G01Y-242667D02*
X54867Y-242500D01*
Y-242167D01*
X55000Y-242000D01*
X55133Y-242167D01*
Y-242500D01*
X55000Y-242667D01*
G01X58867Y-252000D02*
Y-245334D01*
G01Y-247000D02*
X59133Y-246167D01*
X59533Y-245500D01*
X60067Y-245334D01*
X60533Y-245500D01*
X60933Y-246167D01*
X61133Y-247333D01*
Y-252000D01*
G01X64067Y-254500D02*
X64533Y-255167D01*
X65067Y-255333D01*
X65533Y-255167D01*
X65933Y-254333D01*
X66200Y-253167D01*
Y-245334D01*
G01Y-246667D02*
X65933Y-246000D01*
X65533Y-245500D01*
X65067Y-245334D01*
X64533Y-245667D01*
X64200Y-246333D01*
X63933Y-247500D01*
X63800Y-248667D01*
X63867Y-249667D01*
X64133Y-250834D01*
X64533Y-251667D01*
X65067Y-252000D01*
X65467Y-251833D01*
X65933Y-251167D01*
X66200Y-250500D01*
G01X73600Y-250667D02*
X74133Y-251500D01*
X74733Y-252000D01*
X75267D01*
X75800Y-251500D01*
X76200Y-250667D01*
X76400Y-249500D01*
X76267Y-248334D01*
X75933Y-247333D01*
X75333Y-246667D01*
X74533Y-246333D01*
X74067Y-245667D01*
X73867Y-244500D01*
X74000Y-243333D01*
X74333Y-242500D01*
X74800Y-242000D01*
X75267D01*
X75733Y-242333D01*
X76133Y-243167D01*
G01X78267Y-252000D02*
Y-242000D01*
X80000Y-250333D01*
X81733Y-242000D01*
Y-252000D01*
G01X83600Y-250667D02*
X84133Y-251500D01*
X84733Y-252000D01*
X85267D01*
X85800Y-251500D01*
X86200Y-250667D01*
X86400Y-249500D01*
X86267Y-248334D01*
X85933Y-247333D01*
X85333Y-246667D01*
X84533Y-246333D01*
X84067Y-245667D01*
X83867Y-244500D01*
X84000Y-243333D01*
X84333Y-242500D01*
X84800Y-242000D01*
X85267D01*
X85733Y-242333D01*
X86133Y-243167D01*
G01X91467Y-242833D02*
X91067Y-242333D01*
X90600Y-242000D01*
X90067D01*
X89467Y-242500D01*
X89000Y-243333D01*
X88667Y-244333D01*
X88400Y-246000D01*
X88333Y-247500D01*
X88467Y-249000D01*
X88667Y-250000D01*
X89067Y-251000D01*
X89533Y-251667D01*
X90000Y-252000D01*
X90467D01*
X90933Y-251667D01*
X91333Y-251167D01*
X91667Y-250500D01*
G01X98667Y-252000D02*
Y-242000D01*
X100267D01*
X100800Y-242500D01*
X101200Y-243667D01*
X101333Y-245000D01*
X101200Y-246333D01*
X100867Y-247333D01*
X100267Y-247834D01*
X98667D01*
G01X104067Y-252000D02*
Y-245334D01*
G01Y-246667D02*
X104400Y-246000D01*
X104733Y-245500D01*
X105200Y-245334D01*
X105533Y-245500D01*
X105933Y-246000D01*
G01X110000Y-252000D02*
X109600Y-251833D01*
X109200Y-251167D01*
X108933Y-250000D01*
X108800Y-248667D01*
X108933Y-247333D01*
X109200Y-246167D01*
X109600Y-245500D01*
X110000Y-245334D01*
X110400Y-245500D01*
X110800Y-246167D01*
X111067Y-247333D01*
X111133Y-248667D01*
X111067Y-250000D01*
X110800Y-251167D01*
X110400Y-251833D01*
X110000Y-252000D01*
G01X116200Y-242000D02*
Y-252000D01*
G01Y-250500D02*
X115933Y-251333D01*
X115533Y-251833D01*
X115067Y-252000D01*
X114533Y-251667D01*
X114133Y-250834D01*
X113867Y-249833D01*
X113800Y-248667D01*
X113867Y-247500D01*
X114133Y-246500D01*
X114533Y-245667D01*
X115067Y-245334D01*
X115533Y-245500D01*
X115867Y-245833D01*
X116200Y-246500D01*
G01X118867Y-245334D02*
Y-250000D01*
X119133Y-251167D01*
X119533Y-251833D01*
X120000Y-252000D01*
X120467Y-251833D01*
X120867Y-251167D01*
X121133Y-250000D01*
G01Y-252000D02*
Y-245334D01*
G01X126067Y-246167D02*
X125600Y-245500D01*
X125200Y-245334D01*
X124667Y-245667D01*
X124267Y-246333D01*
X124000Y-247500D01*
X123933Y-248667D01*
X124000Y-249833D01*
X124267Y-250834D01*
X124667Y-251667D01*
X125200Y-252000D01*
X125667Y-251667D01*
X126067Y-251000D01*
G01X130000Y-242000D02*
Y-252000D01*
G01X129067Y-245334D02*
X130933D01*
G01X134000Y-250834D02*
X134333Y-251500D01*
X134800Y-252000D01*
X135200D01*
X135600Y-251667D01*
X135867Y-251167D01*
X136000Y-250500D01*
X135933Y-249500D01*
X135667Y-249000D01*
X134467Y-248000D01*
X134200Y-246833D01*
X134333Y-246000D01*
X134600Y-245500D01*
X135000Y-245334D01*
X135400Y-245500D01*
X135800Y-246000D01*
G01X143333Y-252000D02*
X145000Y-242000D01*
X146667Y-252000D01*
G01X146067Y-248500D02*
X143933D01*
G01X149067Y-252000D02*
Y-245334D01*
G01Y-246667D02*
X149400Y-246000D01*
X149733Y-245500D01*
X150200Y-245334D01*
X150533Y-245500D01*
X150933Y-246000D01*
G01X154000Y-247500D02*
X156133D01*
X155933Y-246333D01*
X155600Y-245667D01*
X155133Y-245334D01*
X154667Y-245500D01*
X154267Y-246000D01*
X154000Y-247167D01*
X153867Y-248167D01*
Y-249167D01*
X154000Y-250167D01*
X154333Y-251167D01*
X154733Y-251833D01*
X155200Y-252000D01*
X155667Y-251667D01*
X156133Y-250667D01*
G01X164200Y-242000D02*
X165800D01*
G01X165000D02*
Y-252000D01*
G01X164200D02*
X165800D01*
G01X168867D02*
Y-245334D01*
G01Y-247000D02*
X169133Y-246167D01*
X169533Y-245500D01*
X170067Y-245334D01*
X170533Y-245500D01*
X170933Y-246167D01*
X171133Y-247333D01*
Y-252000D01*
G01X176067Y-246167D02*
X175600Y-245500D01*
X175200Y-245334D01*
X174667Y-245667D01*
X174267Y-246333D01*
X174000Y-247500D01*
X173933Y-248667D01*
X174000Y-249833D01*
X174267Y-250834D01*
X174667Y-251667D01*
X175200Y-252000D01*
X175667Y-251667D01*
X176067Y-251000D01*
G01X180000Y-252000D02*
Y-242000D01*
G01X183867Y-245334D02*
Y-250000D01*
X184133Y-251167D01*
X184533Y-251833D01*
X185000Y-252000D01*
X185467Y-251833D01*
X185867Y-251167D01*
X186133Y-250000D01*
G01Y-252000D02*
Y-245334D01*
G01X191200Y-242000D02*
Y-252000D01*
G01Y-250500D02*
X190933Y-251333D01*
X190533Y-251833D01*
X190067Y-252000D01*
X189533Y-251667D01*
X189133Y-250834D01*
X188867Y-249833D01*
X188800Y-248667D01*
X188867Y-247500D01*
X189133Y-246500D01*
X189533Y-245667D01*
X190067Y-245334D01*
X190533Y-245500D01*
X190867Y-245833D01*
X191200Y-246500D01*
G01X194000Y-247500D02*
X196133D01*
X195933Y-246333D01*
X195600Y-245667D01*
X195133Y-245334D01*
X194667Y-245500D01*
X194267Y-246000D01*
X194000Y-247167D01*
X193867Y-248167D01*
Y-249167D01*
X194000Y-250167D01*
X194333Y-251167D01*
X194733Y-251833D01*
X195200Y-252000D01*
X195667Y-251667D01*
X196133Y-250667D01*
G01X201200Y-242000D02*
Y-252000D01*
G01Y-250500D02*
X200933Y-251333D01*
X200533Y-251833D01*
X200067Y-252000D01*
X199533Y-251667D01*
X199133Y-250834D01*
X198867Y-249833D01*
X198800Y-248667D01*
X198867Y-247500D01*
X199133Y-246500D01*
X199533Y-245667D01*
X200067Y-245334D01*
X200533Y-245500D01*
X200867Y-245833D01*
X201200Y-246500D01*
G01X208333Y-252000D02*
X210000Y-242000D01*
X211667Y-252000D01*
G01X211067Y-248500D02*
X208933D01*
G01X214000Y-250834D02*
X214333Y-251500D01*
X214800Y-252000D01*
X215200D01*
X215600Y-251667D01*
X215867Y-251167D01*
X216000Y-250500D01*
X215933Y-249500D01*
X215667Y-249000D01*
X214467Y-248000D01*
X214200Y-246833D01*
X214333Y-246000D01*
X214600Y-245500D01*
X215000Y-245334D01*
X215400Y-245500D01*
X215800Y-246000D01*
G01X223333Y-252000D02*
X225000Y-242000D01*
X226667Y-252000D01*
G01X226067Y-248500D02*
X223933D01*
G01X233267Y-252000D02*
Y-242000D01*
X235000Y-250333D01*
X236733Y-242000D01*
Y-252000D01*
G01X239000Y-247500D02*
X241133D01*
X240933Y-246333D01*
X240600Y-245667D01*
X240133Y-245334D01*
X239667Y-245500D01*
X239267Y-246000D01*
X239000Y-247167D01*
X238867Y-248167D01*
Y-249167D01*
X239000Y-250167D01*
X239333Y-251167D01*
X239733Y-251833D01*
X240200Y-252000D01*
X240667Y-251667D01*
X241133Y-250667D01*
G01X246200Y-252000D02*
Y-245334D01*
G01Y-246500D02*
X245933Y-245833D01*
X245533Y-245500D01*
X245067Y-245334D01*
X244600Y-245667D01*
X244200Y-246333D01*
X243933Y-247333D01*
X243800Y-248667D01*
X243933Y-250000D01*
X244200Y-251000D01*
X244600Y-251667D01*
X245067Y-252000D01*
X245533Y-251833D01*
X245933Y-251333D01*
X246200Y-250667D01*
G01X248867Y-252000D02*
Y-245334D01*
G01Y-247000D02*
X249133Y-246167D01*
X249533Y-245500D01*
X250067Y-245334D01*
X250533Y-245500D01*
X250933Y-246167D01*
X251133Y-247333D01*
Y-252000D01*
G01X254000Y-250834D02*
X254333Y-251500D01*
X254800Y-252000D01*
X255200D01*
X255600Y-251667D01*
X255867Y-251167D01*
X256000Y-250500D01*
X255933Y-249500D01*
X255667Y-249000D01*
X254467Y-248000D01*
X254200Y-246833D01*
X254333Y-246000D01*
X254600Y-245500D01*
X255000Y-245334D01*
X255400Y-245500D01*
X255800Y-246000D01*
G01X265000Y-252000D02*
X264467Y-251833D01*
X264000Y-251167D01*
X263600Y-250167D01*
X263333Y-249000D01*
X263200Y-247667D01*
Y-246333D01*
X263333Y-245000D01*
X263600Y-243833D01*
X264000Y-242833D01*
X264467Y-242167D01*
X265000Y-242000D01*
X265533Y-242167D01*
X266000Y-242833D01*
X266400Y-243833D01*
X266667Y-245000D01*
X266800Y-246333D01*
Y-247667D01*
X266667Y-249000D01*
X266400Y-250167D01*
X266000Y-251167D01*
X265533Y-251833D01*
X265000Y-252000D01*
G01X269600D02*
Y-243500D01*
X269733Y-242667D01*
X270000Y-242167D01*
X270400Y-242000D01*
X270800Y-242333D01*
X271000Y-243167D01*
G01X270200Y-246000D02*
X268867D01*
G01X279200Y-242000D02*
X280800D01*
G01X280000D02*
Y-252000D01*
G01X279200D02*
X280800D01*
G01X285000D02*
Y-242000D01*
G01X290000Y-252000D02*
Y-242000D01*
G01X293867Y-245334D02*
Y-250000D01*
X294133Y-251167D01*
X294533Y-251833D01*
X295000Y-252000D01*
X295467Y-251833D01*
X295867Y-251167D01*
X296133Y-250000D01*
G01Y-252000D02*
Y-245334D01*
G01X299000Y-250834D02*
X299333Y-251500D01*
X299800Y-252000D01*
X300200D01*
X300600Y-251667D01*
X300867Y-251167D01*
X301000Y-250500D01*
X300933Y-249500D01*
X300667Y-249000D01*
X299467Y-248000D01*
X299200Y-246833D01*
X299333Y-246000D01*
X299600Y-245500D01*
X300000Y-245334D01*
X300400Y-245500D01*
X300800Y-246000D01*
G01X305000Y-242000D02*
Y-252000D01*
G01X304067Y-245334D02*
X305933D01*
G01X309067Y-252000D02*
Y-245334D01*
G01Y-246667D02*
X309400Y-246000D01*
X309733Y-245500D01*
X310200Y-245334D01*
X310533Y-245500D01*
X310933Y-246000D01*
G01X316200Y-252000D02*
Y-245334D01*
G01Y-246500D02*
X315933Y-245833D01*
X315533Y-245500D01*
X315067Y-245334D01*
X314600Y-245667D01*
X314200Y-246333D01*
X313933Y-247333D01*
X313800Y-248667D01*
X313933Y-250000D01*
X314200Y-251000D01*
X314600Y-251667D01*
X315067Y-252000D01*
X315533Y-251833D01*
X315933Y-251333D01*
X316200Y-250667D01*
G01X320000Y-242000D02*
Y-252000D01*
G01X319067Y-245334D02*
X320933D01*
G01X325000D02*
Y-252000D01*
G01Y-242667D02*
X324867Y-242500D01*
Y-242167D01*
X325000Y-242000D01*
X325133Y-242167D01*
Y-242500D01*
X325000Y-242667D01*
G01X328867Y-252000D02*
Y-245334D01*
G01Y-247000D02*
X329133Y-246167D01*
X329533Y-245500D01*
X330067Y-245334D01*
X330533Y-245500D01*
X330933Y-246167D01*
X331133Y-247333D01*
Y-252000D01*
G01X334067Y-254500D02*
X334533Y-255167D01*
X335067Y-255333D01*
X335533Y-255167D01*
X335933Y-254333D01*
X336200Y-253167D01*
Y-245334D01*
G01Y-246667D02*
X335933Y-246000D01*
X335533Y-245500D01*
X335067Y-245334D01*
X334533Y-245667D01*
X334200Y-246333D01*
X333933Y-247500D01*
X333800Y-248667D01*
X333867Y-249667D01*
X334133Y-250834D01*
X334533Y-251667D01*
X335067Y-252000D01*
X335467Y-251833D01*
X335933Y-251167D01*
X336200Y-250500D01*
G01X345000Y-242000D02*
Y-252000D01*
G01X343467Y-242000D02*
X346533D01*
G01X348600Y-255000D02*
X349000Y-255333D01*
X349533Y-255000D01*
X349867Y-254333D01*
X350133Y-253500D01*
X350533Y-250834D01*
X351400Y-245334D01*
G01X349267D02*
X350533Y-250834D01*
G01X353800Y-255333D02*
Y-245334D01*
G01Y-246833D02*
X354133Y-246000D01*
X354467Y-245500D01*
X355000Y-245334D01*
X355467Y-245500D01*
X355933Y-246333D01*
X356133Y-247500D01*
X356200Y-248667D01*
X356133Y-249833D01*
X355933Y-251000D01*
X355533Y-251667D01*
X355000Y-252000D01*
X354533Y-251833D01*
X354067Y-251333D01*
X353800Y-250667D01*
G01X360000Y-245334D02*
Y-252000D01*
G01Y-242667D02*
X359867Y-242500D01*
Y-242167D01*
X360000Y-242000D01*
X360133Y-242167D01*
Y-242500D01*
X360000Y-242667D01*
G01X366067Y-246167D02*
X365600Y-245500D01*
X365200Y-245334D01*
X364667Y-245667D01*
X364267Y-246333D01*
X364000Y-247500D01*
X363933Y-248667D01*
X364000Y-249833D01*
X364267Y-250834D01*
X364667Y-251667D01*
X365200Y-252000D01*
X365667Y-251667D01*
X366067Y-251000D01*
G01X371200Y-252000D02*
Y-245334D01*
G01Y-246500D02*
X370933Y-245833D01*
X370533Y-245500D01*
X370067Y-245334D01*
X369600Y-245667D01*
X369200Y-246333D01*
X368933Y-247333D01*
X368800Y-248667D01*
X368933Y-250000D01*
X369200Y-251000D01*
X369600Y-251667D01*
X370067Y-252000D01*
X370533Y-251833D01*
X370933Y-251333D01*
X371200Y-250667D01*
G01X375000Y-252000D02*
Y-242000D01*
M02*
