%FSLAX44Y44*%
%MOMM*%
G71*
G01*
G75*
G04 Layer_Physical_Order=1*
G04 Layer_Color=255*
%ADD10C,0.2540*%
G04:AMPARAMS|DCode=11|XSize=1.27mm|YSize=0.3556mm|CornerRadius=0.0356mm|HoleSize=0mm|Usage=FLASHONLY|Rotation=270.000|XOffset=0mm|YOffset=0mm|HoleType=Round|Shape=RoundedRectangle|*
%AMROUNDEDRECTD11*
21,1,1.2700,0.2845,0,0,270.0*
21,1,1.1989,0.3556,0,0,270.0*
1,1,0.0711,-0.1422,-0.5994*
1,1,0.0711,-0.1422,0.5994*
1,1,0.0711,0.1422,0.5994*
1,1,0.0711,0.1422,-0.5994*
%
%ADD11ROUNDEDRECTD11*%
G04:AMPARAMS|DCode=12|XSize=0.3556mm|YSize=1.27mm|CornerRadius=0.0356mm|HoleSize=0mm|Usage=FLASHONLY|Rotation=270.000|XOffset=0mm|YOffset=0mm|HoleType=Round|Shape=RoundedRectangle|*
%AMROUNDEDRECTD12*
21,1,0.3556,1.1989,0,0,270.0*
21,1,0.2845,1.2700,0,0,270.0*
1,1,0.0711,-0.5994,-0.1422*
1,1,0.0711,-0.5994,0.1422*
1,1,0.0711,0.5994,0.1422*
1,1,0.0711,0.5994,-0.1422*
%
%ADD12ROUNDEDRECTD12*%
G04:AMPARAMS|DCode=13|XSize=3.302mm|YSize=3.302mm|CornerRadius=0.3302mm|HoleSize=0mm|Usage=FLASHONLY|Rotation=270.000|XOffset=0mm|YOffset=0mm|HoleType=Round|Shape=RoundedRectangle|*
%AMROUNDEDRECTD13*
21,1,3.3020,2.6416,0,0,270.0*
21,1,2.6416,3.3020,0,0,270.0*
1,1,0.6604,-1.3208,-1.3208*
1,1,0.6604,-1.3208,1.3208*
1,1,0.6604,1.3208,1.3208*
1,1,0.6604,1.3208,-1.3208*
%
%ADD13ROUNDEDRECTD13*%
%ADD14R,1.5240X1.3208*%
%ADD15R,2.4130X2.8194*%
%ADD16R,1.8034X1.6002*%
%ADD17R,1.5240X1.5240*%
%ADD18R,1.3208X1.5240*%
%ADD19R,1.5240X1.5240*%
%ADD20R,1.6002X1.8034*%
%ADD21C,0.6096*%
%ADD22C,0.4064*%
%ADD23C,0.3048*%
%ADD24C,0.0864*%
%ADD25C,0.0500*%
%ADD26C,1.2192*%
%ADD27O,3.0480X1.5240*%
%ADD28O,1.5240X3.0480*%
%ADD29C,0.7580*%
%ADD30C,0.8596*%
G36*
X272066Y142780D02*
X272984Y142167D01*
X274066Y141952D01*
X280877D01*
X281558Y140307D01*
X282980Y138454D01*
X284833Y137032D01*
X286991Y136138D01*
X289306Y135834D01*
X298450D01*
Y128327D01*
X289306D01*
X286991Y128022D01*
X284833Y127128D01*
X282980Y125706D01*
X281558Y123853D01*
X280664Y121695D01*
X280359Y119380D01*
X280664Y117065D01*
X281558Y114907D01*
X282980Y113054D01*
X284833Y111632D01*
X286991Y110738D01*
X289306Y110434D01*
X298450D01*
Y102927D01*
X289306D01*
X286991Y102622D01*
X284833Y101728D01*
X282980Y100306D01*
X281558Y98453D01*
X280664Y96295D01*
X280359Y93980D01*
X280664Y91664D01*
X281558Y89507D01*
X282980Y87654D01*
X284833Y86232D01*
X286991Y85338D01*
X289306Y85034D01*
X298450D01*
Y77526D01*
X289306D01*
X286991Y77222D01*
X284833Y76328D01*
X282980Y74906D01*
X281558Y73053D01*
X280664Y70896D01*
X280359Y68580D01*
X280664Y66265D01*
X281558Y64107D01*
X282980Y62254D01*
X284833Y60832D01*
X286991Y59938D01*
X289306Y59633D01*
X298450D01*
Y52126D01*
X289306D01*
X286991Y51822D01*
X284833Y50928D01*
X282980Y49506D01*
X281558Y47653D01*
X280877Y46008D01*
X279483D01*
X279400Y47244D01*
X279400Y47278D01*
Y55118D01*
X270510D01*
Y47244D01*
X274784D01*
X274909Y45974D01*
X274000Y45793D01*
X273082Y45180D01*
X272992Y45090D01*
X260370D01*
Y33325D01*
X259197Y32839D01*
X250780Y41256D01*
Y54082D01*
X235072D01*
Y36342D01*
X247694D01*
X248821Y35215D01*
X248695Y34825D01*
X248162Y34079D01*
X246126Y34346D01*
X243811Y34042D01*
X241653Y33148D01*
X239800Y31726D01*
X238378Y29873D01*
X237484Y27715D01*
X237180Y25400D01*
Y16256D01*
X229673D01*
Y25400D01*
X229368Y27715D01*
X228474Y29873D01*
X227052Y31726D01*
X225199Y33148D01*
X223668Y33782D01*
X223921Y35052D01*
X232918D01*
Y43942D01*
X214630D01*
Y35052D01*
X217531D01*
X217784Y33782D01*
X216253Y33148D01*
X214400Y31726D01*
X212978Y29873D01*
X212084Y27715D01*
X211779Y25400D01*
Y16256D01*
X204272D01*
Y25400D01*
X203968Y27715D01*
X203074Y29873D01*
X201652Y31726D01*
X199799Y33148D01*
X197642Y34042D01*
X195326Y34346D01*
X193011Y34042D01*
X190853Y33148D01*
X189000Y31726D01*
X187578Y29873D01*
X186684Y27715D01*
X186380Y25400D01*
Y16256D01*
X178873D01*
Y25400D01*
X178568Y27715D01*
X177674Y29873D01*
X176252Y31726D01*
X174399Y33148D01*
X172241Y34042D01*
X171914Y34085D01*
X171997Y35355D01*
X192106D01*
Y50374D01*
X51186D01*
Y35355D01*
X66255D01*
X66338Y34085D01*
X66010Y34042D01*
X63853Y33148D01*
X62000Y31726D01*
X60578Y29873D01*
X59684Y27715D01*
X59380Y25400D01*
Y16256D01*
X16002D01*
Y34234D01*
X25146D01*
X27462Y34538D01*
X29619Y35432D01*
X31472Y36854D01*
X32894Y38707D01*
X33788Y40865D01*
X34093Y43180D01*
X33788Y45496D01*
X32894Y47653D01*
X31472Y49506D01*
X29619Y50928D01*
X27462Y51822D01*
X25146Y52126D01*
X16002D01*
Y59633D01*
X25146D01*
X27462Y59938D01*
X29619Y60832D01*
X31472Y62254D01*
X32894Y64107D01*
X33788Y66265D01*
X34093Y68580D01*
X33788Y70896D01*
X32894Y73053D01*
X31472Y74906D01*
X29619Y76328D01*
X27462Y77222D01*
X25146Y77526D01*
X16002D01*
Y85034D01*
X25146D01*
X27462Y85338D01*
X29619Y86232D01*
X31472Y87654D01*
X32894Y89507D01*
X33788Y91664D01*
X33977Y93099D01*
X35317Y93554D01*
X37548Y91323D01*
X37062Y90150D01*
X34818D01*
Y72410D01*
X50526D01*
Y89770D01*
X51671Y90452D01*
X52680Y90075D01*
Y82550D01*
X70968D01*
Y91440D01*
X70968Y91440D01*
X70968D01*
X70968Y91440D01*
X71548Y92470D01*
X79110Y100032D01*
X119590D01*
Y71628D01*
X119595Y71601D01*
X119590Y71573D01*
X119722Y70962D01*
X119844Y70347D01*
X119860Y70324D01*
X119866Y70297D01*
X120222Y69782D01*
X120570Y69262D01*
X120593Y69246D01*
X120609Y69223D01*
X128483Y61603D01*
X129009Y61264D01*
X129529Y60916D01*
X129557Y60911D01*
X129580Y60896D01*
X130196Y60784D01*
X130810Y60662D01*
X199136D01*
X199750Y60784D01*
X200366Y60896D01*
X200389Y60911D01*
X200417Y60916D01*
X200936Y61264D01*
X201463Y61603D01*
X209337Y69223D01*
X209353Y69246D01*
X209376Y69262D01*
X209724Y69782D01*
X210080Y70297D01*
X210086Y70324D01*
X210102Y70347D01*
X210224Y70962D01*
X210356Y71573D01*
X210351Y71601D01*
X210356Y71628D01*
Y76454D01*
X210102Y77735D01*
X209376Y78820D01*
X186480Y101716D01*
Y114808D01*
X186328Y115572D01*
X186853Y117278D01*
X186896Y117697D01*
X186978Y118110D01*
Y121033D01*
X187808Y122163D01*
X199796D01*
X200423Y122287D01*
X200582Y122394D01*
X211427D01*
X224314Y109506D01*
X225232Y108893D01*
X225826Y108775D01*
Y102610D01*
X242697D01*
X243566Y102610D01*
X243967Y101506D01*
X243967Y101506D01*
Y94357D01*
X254254D01*
Y104898D01*
Y115439D01*
X244836D01*
X243967Y115439D01*
X243566Y116543D01*
Y120350D01*
X225826D01*
Y117653D01*
X224653Y117167D01*
X218330Y123490D01*
X218856Y124760D01*
X235946D01*
Y142500D01*
X218206D01*
Y134654D01*
X201736D01*
X201590Y134831D01*
X201173Y135924D01*
X201309Y136127D01*
X201434Y136754D01*
Y139598D01*
X201321Y140164D01*
X201317Y140238D01*
X202029Y141434D01*
X203200D01*
X204481Y141688D01*
X205566Y142414D01*
X211916Y148764D01*
X212642Y149849D01*
X212778Y150534D01*
X214126Y150802D01*
X214298Y150544D01*
X215965Y149430D01*
X217932Y149039D01*
X219898Y149430D01*
X221566Y150544D01*
X222104Y151350D01*
X236699D01*
X237617Y150499D01*
X237617Y150080D01*
Y141228D01*
X260731D01*
Y150080D01*
X260731Y150499D01*
X261649Y151349D01*
X261649Y151350D01*
X263496D01*
X272066Y142780D01*
D02*
G37*
G36*
X280434Y348549D02*
X280359Y347980D01*
X280664Y345664D01*
X281558Y343507D01*
X282980Y341654D01*
X284833Y340232D01*
X286991Y339338D01*
X289306Y339034D01*
X298450D01*
Y331526D01*
X289306D01*
X286991Y331222D01*
X284833Y330328D01*
X282980Y328906D01*
X281558Y327053D01*
X280664Y324896D01*
X280359Y322580D01*
X280664Y320265D01*
X281558Y318107D01*
X282980Y316254D01*
X284833Y314832D01*
X286991Y313938D01*
X289306Y313633D01*
X298450D01*
Y306126D01*
X289306D01*
X286991Y305822D01*
X284833Y304928D01*
X282980Y303506D01*
X281558Y301653D01*
X280877Y300008D01*
X263144D01*
X262600Y299900D01*
X262067Y299795D01*
X262065Y299794D01*
X262062Y299793D01*
X261609Y299491D01*
X261148Y299184D01*
X202794Y241080D01*
X136506D01*
X135968Y241886D01*
X134300Y243000D01*
X132334Y243391D01*
X130367Y243000D01*
X128700Y241886D01*
X127586Y240219D01*
X127195Y238252D01*
X127586Y236285D01*
X128700Y234618D01*
X130367Y233504D01*
X132334Y233113D01*
X134300Y233504D01*
X135968Y234618D01*
X136506Y235424D01*
X203212D01*
X203738Y234154D01*
X193393Y223808D01*
X167748D01*
X167210Y224614D01*
X165543Y225728D01*
X163576Y226119D01*
X161609Y225728D01*
X159942Y224614D01*
X158828Y222946D01*
X158437Y220980D01*
X158828Y219014D01*
X158970Y218802D01*
Y200023D01*
X157795Y199541D01*
X145582Y211936D01*
X145865Y213360D01*
X145434Y215525D01*
X144208Y217360D01*
X142373Y218586D01*
X140208Y219017D01*
X138043Y218586D01*
X136208Y217360D01*
X134982Y215525D01*
X134551Y213360D01*
X134982Y211195D01*
X136208Y209360D01*
X138043Y208134D01*
X140208Y207703D01*
X141548Y207970D01*
X154398Y194929D01*
Y188953D01*
X153128Y188567D01*
X152876Y188944D01*
X130590Y211229D01*
Y220980D01*
X130375Y222062D01*
X129762Y222980D01*
X124936Y227806D01*
X124018Y228419D01*
X122936Y228634D01*
X113749D01*
X112966Y229806D01*
X111131Y231032D01*
X108966Y231463D01*
X106801Y231032D01*
X104966Y229806D01*
X103740Y227971D01*
X103309Y225806D01*
X103740Y223641D01*
X104330Y222758D01*
X103651Y221488D01*
X103632D01*
Y212598D01*
X121920D01*
Y221026D01*
X123145Y221597D01*
X124934Y219809D01*
Y210058D01*
X125149Y208976D01*
X125762Y208058D01*
X148048Y185772D01*
Y184081D01*
X146778Y183402D01*
X146628Y183502D01*
X145498Y183727D01*
X145346D01*
Y174780D01*
Y165833D01*
X145498D01*
X146628Y166058D01*
X147586Y166698D01*
X148142Y167530D01*
X148527Y167273D01*
X149154Y167148D01*
X151998D01*
X152625Y167273D01*
X153107Y167595D01*
X153167Y167628D01*
X154485D01*
X154545Y167595D01*
X155027Y167273D01*
X155654Y167148D01*
X158498D01*
X159125Y167273D01*
X159607Y167595D01*
X159667Y167628D01*
X160985D01*
X161045Y167595D01*
X161527Y167273D01*
X162154Y167148D01*
X164998D01*
X165625Y167273D01*
X166156Y167628D01*
X167600D01*
X168131Y167273D01*
X168758Y167148D01*
X171602D01*
X172229Y167273D01*
X172760Y167628D01*
X174204D01*
X174735Y167273D01*
X175362Y167148D01*
X178008D01*
X178093Y167148D01*
X178206Y167148D01*
X178207Y167149D01*
X178823Y167271D01*
X178825Y167272D01*
X178825Y167272D01*
X178833Y167273D01*
X178833Y167273D01*
X179627Y167538D01*
X179799Y167543D01*
X179668Y167551D01*
X179682Y167556D01*
X179850Y167544D01*
X179799Y167543D01*
X180157Y167519D01*
X180327Y167492D01*
X180968Y167352D01*
X181085Y167273D01*
X181711Y167149D01*
X181712Y167148D01*
X181910Y167148D01*
X184556D01*
X185183Y167273D01*
X185714Y167628D01*
X186629Y166828D01*
X186295Y166329D01*
X186171Y165702D01*
Y162906D01*
X186171Y162858D01*
X186171Y162857D01*
X186295Y162231D01*
X186488Y161943D01*
X186588Y161793D01*
X186588Y161793D01*
X186618Y161739D01*
X186637Y161030D01*
X186618Y160321D01*
X186588Y160267D01*
X186588Y160267D01*
X186488Y160117D01*
X186295Y159829D01*
X186171Y159202D01*
X186171Y159202D01*
X186171Y159153D01*
Y156358D01*
X186295Y155731D01*
X186552Y155346D01*
X185720Y154790D01*
X185080Y153832D01*
X184855Y152702D01*
Y152550D01*
X193802D01*
Y150010D01*
X184855D01*
Y149858D01*
X185080Y148728D01*
X185720Y147770D01*
X186552Y147214D01*
X186295Y146829D01*
X186171Y146202D01*
Y143358D01*
X186295Y142731D01*
X186600Y142274D01*
X186514Y141873D01*
X186154Y141004D01*
X185674D01*
X184592Y140789D01*
X183674Y140176D01*
X182695Y139197D01*
X181425Y139723D01*
Y157988D01*
X181072Y159764D01*
X180066Y161270D01*
X178560Y162276D01*
X176784Y162629D01*
X150368D01*
X148592Y162276D01*
X147086Y161270D01*
X146080Y159764D01*
X145727Y157988D01*
Y131572D01*
X146080Y129796D01*
X147086Y128290D01*
X148592Y127284D01*
X150368Y126931D01*
X176784D01*
X178560Y127284D01*
X180066Y128290D01*
X181322Y127884D01*
Y122108D01*
X181085Y122061D01*
X180707Y121808D01*
X180548Y121706D01*
X179370D01*
X179211Y121808D01*
X178833Y122061D01*
X178206Y122185D01*
X175362D01*
X174735Y122061D01*
X174204Y121706D01*
X172760D01*
X172229Y122061D01*
X171602Y122185D01*
X168758D01*
X168131Y122061D01*
X167674Y121756D01*
X167086Y122636D01*
X166128Y123276D01*
X164998Y123501D01*
X164846D01*
Y114554D01*
Y105607D01*
X164998D01*
X165310Y105669D01*
X166580Y104722D01*
Y80816D01*
X150192D01*
X149501Y81347D01*
X147714Y82087D01*
X145796Y82339D01*
X143878Y82087D01*
X142091Y81347D01*
X140557Y80169D01*
X139379Y78635D01*
X138639Y76848D01*
X138387Y74930D01*
X138639Y73012D01*
X139379Y71225D01*
X140557Y69691D01*
X141947Y68624D01*
X141922Y68120D01*
X141591Y67354D01*
X132164D01*
X126282Y73046D01*
Y100032D01*
X131826D01*
X131843Y100035D01*
X131861Y100032D01*
X132483Y100162D01*
X133107Y100286D01*
X133121Y100296D01*
X133138Y100300D01*
X133664Y100659D01*
X134192Y101012D01*
X134202Y101026D01*
X134216Y101036D01*
X140165Y107108D01*
X141496Y107402D01*
X142027Y107047D01*
X142654Y106923D01*
X145498D01*
X146125Y107047D01*
X146607Y107369D01*
X146667Y107402D01*
X147985D01*
X148045Y107369D01*
X148527Y107047D01*
X149154Y106923D01*
X151998D01*
X152625Y107047D01*
X153010Y107304D01*
X153566Y106472D01*
X154524Y105832D01*
X155654Y105607D01*
X155806D01*
Y114554D01*
Y123501D01*
X155654D01*
X154524Y123276D01*
X153566Y122636D01*
X153010Y121804D01*
X152625Y122061D01*
X151998Y122185D01*
X149154D01*
X148527Y122061D01*
X148045Y121739D01*
X147985Y121706D01*
X146667D01*
X146607Y121739D01*
X146125Y122061D01*
X145498Y122185D01*
X143398D01*
X143379Y122194D01*
X142463Y123333D01*
X142448Y123423D01*
X142523Y123800D01*
Y123952D01*
X134846D01*
Y120847D01*
X139570D01*
X139790Y120891D01*
X139976Y120839D01*
X141017Y119872D01*
Y117542D01*
X130420Y106724D01*
X77724D01*
X76443Y106470D01*
X75358Y105744D01*
X72756Y103143D01*
X71680Y103862D01*
X71888Y104365D01*
X72193Y106680D01*
X71964Y108414D01*
X72845Y109684D01*
X96774D01*
X97556Y108544D01*
Y108224D01*
X115296D01*
Y114351D01*
X123533Y122799D01*
X124069Y122747D01*
X124987Y122471D01*
X125494Y121712D01*
X126452Y121072D01*
X127582Y120847D01*
X132306D01*
Y125222D01*
X133576D01*
Y126492D01*
X142523D01*
Y126644D01*
X142298Y127774D01*
X141658Y128732D01*
X140895Y129242D01*
X141083Y129523D01*
X141208Y130150D01*
Y132994D01*
X141083Y133621D01*
X140728Y134152D01*
Y135596D01*
X141083Y136127D01*
X141208Y136754D01*
Y139598D01*
X141083Y140225D01*
X140728Y140756D01*
Y142200D01*
X141083Y142731D01*
X141208Y143358D01*
Y146202D01*
X141083Y146829D01*
X140761Y147311D01*
X140728Y147371D01*
Y148689D01*
X140761Y148749D01*
X141083Y149231D01*
X141208Y149858D01*
Y152702D01*
X141083Y153329D01*
X140761Y153811D01*
X140728Y153871D01*
Y155189D01*
X140761Y155249D01*
X141083Y155731D01*
X141208Y156358D01*
Y159202D01*
X141083Y159829D01*
X140761Y160311D01*
X140728Y160371D01*
Y161689D01*
X140761Y161749D01*
X141083Y162231D01*
X141208Y162858D01*
Y164858D01*
X142386Y165869D01*
X142438Y165876D01*
X142654Y165833D01*
X142806D01*
Y173510D01*
X139701D01*
Y168786D01*
X139744Y168570D01*
X139737Y168518D01*
X138726Y167339D01*
X135605D01*
X117810Y184893D01*
X117358Y185192D01*
X116906Y185493D01*
X116897Y185495D01*
X116889Y185500D01*
X116357Y185602D01*
X116205Y185633D01*
Y192528D01*
X104648D01*
Y195068D01*
X116205D01*
Y201168D01*
X121920D01*
Y210058D01*
X103632D01*
Y204339D01*
X101478D01*
Y220198D01*
X70124D01*
Y202458D01*
X73807D01*
Y185708D01*
X71675D01*
X70994Y187353D01*
X69572Y189206D01*
X67719Y190628D01*
X65561Y191522D01*
X63246Y191826D01*
X62020D01*
Y202458D01*
X66680D01*
Y220198D01*
X50972D01*
Y202458D01*
X55328D01*
Y191826D01*
X48006D01*
X45690Y191522D01*
X43533Y190628D01*
X41680Y189206D01*
X41192Y188571D01*
X39922Y189002D01*
Y235342D01*
X47751Y243170D01*
X48792Y243102D01*
X50645Y241680D01*
X52803Y240786D01*
X55118Y240481D01*
X70358D01*
X72674Y240786D01*
X74831Y241680D01*
X76684Y243102D01*
X78106Y244955D01*
X78144Y245046D01*
X121178D01*
Y244774D01*
X138918D01*
Y260482D01*
X121178D01*
Y253810D01*
X78144D01*
X78106Y253901D01*
X76684Y255754D01*
X74831Y257176D01*
X72674Y258070D01*
X70358Y258375D01*
X55118D01*
X52803Y258070D01*
X50645Y257176D01*
X48792Y255754D01*
X47370Y253901D01*
X46476Y251744D01*
X46418Y251303D01*
X34210Y239094D01*
X33484Y238009D01*
X33230Y236728D01*
Y227102D01*
X31960Y226671D01*
X31472Y227306D01*
X29619Y228728D01*
X27462Y229622D01*
X25146Y229926D01*
X16002D01*
Y237433D01*
X25146D01*
X27462Y237738D01*
X29619Y238632D01*
X31472Y240054D01*
X32894Y241907D01*
X33788Y244065D01*
X34093Y246380D01*
X33788Y248696D01*
X32894Y250853D01*
X31472Y252706D01*
X29619Y254128D01*
X27462Y255022D01*
X25146Y255326D01*
X16002D01*
Y262833D01*
X25146D01*
X27462Y263138D01*
X29619Y264032D01*
X31472Y265454D01*
X32894Y267307D01*
X33788Y269464D01*
X34093Y271780D01*
X33788Y274095D01*
X32894Y276253D01*
X31472Y278106D01*
X29619Y279528D01*
X27462Y280422D01*
X25146Y280727D01*
X16002D01*
Y288234D01*
X25146D01*
X27462Y288538D01*
X29619Y289432D01*
X31472Y290854D01*
X32894Y292707D01*
X33788Y294865D01*
X34093Y297180D01*
X33788Y299496D01*
X32894Y301653D01*
X31472Y303506D01*
X29619Y304928D01*
X27462Y305822D01*
X25146Y306126D01*
X16002D01*
Y313633D01*
X25146D01*
X27462Y313938D01*
X29619Y314832D01*
X31472Y316254D01*
X32894Y318107D01*
X33788Y320265D01*
X34093Y322580D01*
X33788Y324896D01*
X32894Y327053D01*
X31472Y328906D01*
X29619Y330328D01*
X27462Y331222D01*
X25146Y331526D01*
X16002D01*
Y349504D01*
X59380D01*
Y340360D01*
X59684Y338045D01*
X60578Y335887D01*
X62000Y334034D01*
X63853Y332612D01*
X65508Y331926D01*
X65713Y330896D01*
X66326Y329978D01*
X75724Y320580D01*
X76642Y319967D01*
X77724Y319752D01*
X130641D01*
X136373Y313927D01*
X135882Y312756D01*
X121178D01*
Y304610D01*
X78144D01*
X78106Y304701D01*
X76684Y306554D01*
X74831Y307976D01*
X72674Y308870D01*
X70358Y309174D01*
X55118D01*
X52803Y308870D01*
X50645Y307976D01*
X48792Y306554D01*
X47370Y304701D01*
X46476Y302544D01*
X46171Y300228D01*
X46476Y297913D01*
X47370Y295755D01*
X48792Y293902D01*
X50645Y292480D01*
X52803Y291586D01*
X55118Y291282D01*
X70358D01*
X72674Y291586D01*
X74831Y292480D01*
X76684Y293902D01*
X78106Y295755D01*
X78144Y295846D01*
X119120D01*
X119888Y294894D01*
X119888Y294576D01*
Y287020D01*
X128778D01*
Y294894D01*
X127709D01*
X127584Y296164D01*
X127661Y296179D01*
X128961Y297048D01*
X138918D01*
Y309666D01*
X140093Y310147D01*
X144746Y305420D01*
Y259950D01*
X143940Y259412D01*
X142826Y257745D01*
X142435Y255778D01*
X142826Y253811D01*
X143940Y252144D01*
X145608Y251030D01*
X147574Y250639D01*
X149541Y251030D01*
X151208Y252144D01*
X152322Y253811D01*
X152713Y255778D01*
X152322Y257745D01*
X151208Y259412D01*
X150402Y259950D01*
Y306578D01*
X150297Y307108D01*
X150196Y307639D01*
X150189Y307649D01*
X150187Y307660D01*
X149888Y308108D01*
X149590Y308562D01*
X133842Y324564D01*
X133832Y324570D01*
X133826Y324580D01*
X133378Y324879D01*
X132929Y325184D01*
X132918Y325187D01*
X132908Y325193D01*
X132378Y325299D01*
X131849Y325408D01*
X131837Y325406D01*
X131826Y325408D01*
X78896D01*
X72884Y331420D01*
X73189Y332911D01*
X74652Y334034D01*
X76074Y335887D01*
X76968Y338045D01*
X77273Y340360D01*
Y349504D01*
X83478D01*
Y349250D01*
X103974D01*
Y349504D01*
X108878D01*
Y349250D01*
X129374D01*
Y349504D01*
X135580D01*
Y340360D01*
X135884Y338045D01*
X136778Y335887D01*
X138200Y334034D01*
X140053Y332612D01*
X142211Y331718D01*
X144526Y331413D01*
X146841Y331718D01*
X148999Y332612D01*
X150852Y334034D01*
X152274Y335887D01*
X153168Y338045D01*
X153472Y340360D01*
Y349504D01*
X160979D01*
Y344528D01*
X159178Y342726D01*
X158452Y341641D01*
X158198Y340360D01*
Y330942D01*
X152700D01*
Y313202D01*
X170440D01*
Y330336D01*
X170440Y330942D01*
X171433Y331612D01*
X172241Y331718D01*
X174399Y332612D01*
X176252Y334034D01*
X177674Y335887D01*
X178568Y338045D01*
X178873Y340360D01*
Y349504D01*
X185078D01*
Y349250D01*
X205574D01*
Y349504D01*
X211779D01*
Y340360D01*
X212084Y338045D01*
X212978Y335887D01*
X214400Y334034D01*
X214953Y333609D01*
X214522Y332339D01*
X209955D01*
Y325418D01*
X205466D01*
Y330942D01*
X201828D01*
X201397Y332212D01*
X202572Y333114D01*
X204201Y335236D01*
X205224Y337708D01*
X205574Y340360D01*
Y346710D01*
X185078D01*
Y340360D01*
X185427Y337708D01*
X186451Y335236D01*
X188080Y333114D01*
X189255Y332212D01*
X188824Y330942D01*
X187726D01*
Y313202D01*
X205466D01*
Y318726D01*
X209955D01*
Y311805D01*
X228457D01*
Y332339D01*
X226930D01*
X226499Y333609D01*
X227052Y334034D01*
X228474Y335887D01*
X229368Y338045D01*
X229673Y340360D01*
Y349504D01*
X237180D01*
Y340360D01*
X237484Y338045D01*
X238378Y335887D01*
X239136Y334899D01*
X238510Y333629D01*
X237109D01*
Y323342D01*
X258191D01*
Y333629D01*
X253742D01*
X253116Y334899D01*
X253874Y335887D01*
X254768Y338045D01*
X255072Y340360D01*
Y349504D01*
X279597D01*
X280434Y348549D01*
D02*
G37*
G36*
X281558Y267307D02*
X282980Y265454D01*
X284833Y264032D01*
X286991Y263138D01*
X289306Y262833D01*
X298450D01*
Y255326D01*
X289306D01*
X286991Y255022D01*
X284833Y254128D01*
X282980Y252706D01*
X281558Y250853D01*
X280664Y248696D01*
X280359Y246380D01*
X280664Y244065D01*
X281558Y241907D01*
X282980Y240054D01*
X284833Y238632D01*
X286991Y237738D01*
X289306Y237433D01*
X298450D01*
Y229926D01*
X289306D01*
X286991Y229622D01*
X284833Y228728D01*
X282980Y227306D01*
X281558Y225453D01*
X280664Y223295D01*
X280359Y220980D01*
X280664Y218664D01*
X281522Y216594D01*
X281273Y216172D01*
X280715Y215519D01*
X267716D01*
Y198882D01*
Y182245D01*
X281051D01*
Y189681D01*
X282321Y190112D01*
X282980Y189254D01*
X284833Y187832D01*
X286991Y186938D01*
X289306Y186633D01*
X298450D01*
Y179126D01*
X289306D01*
X286991Y178822D01*
X284833Y177928D01*
X282980Y176506D01*
X281558Y174653D01*
X280664Y172495D01*
X280359Y170180D01*
X280664Y167864D01*
X281558Y165707D01*
X282980Y163854D01*
X284833Y162432D01*
X286991Y161538D01*
X289306Y161234D01*
X298450D01*
Y153727D01*
X289306D01*
X286991Y153422D01*
X284833Y152528D01*
X282980Y151106D01*
X281558Y149253D01*
X280877Y147608D01*
X275238D01*
X266668Y156178D01*
X265750Y156791D01*
X264668Y157006D01*
X222104D01*
X221566Y157812D01*
X220511Y158516D01*
X220897Y159786D01*
X235946D01*
Y165828D01*
X238907D01*
Y159151D01*
X259441D01*
Y177653D01*
X238907D01*
Y171484D01*
X235946D01*
Y177526D01*
X218206D01*
Y160557D01*
X218009Y159667D01*
X217191Y159169D01*
X215965Y158926D01*
X214298Y157812D01*
X214166Y157614D01*
X212896Y157999D01*
Y183535D01*
X216511D01*
Y214229D01*
X189881D01*
Y183535D01*
X206204D01*
Y152516D01*
X204019Y150331D01*
X202749Y150857D01*
Y152702D01*
X202524Y153832D01*
X201884Y154790D01*
X201052Y155346D01*
X201309Y155731D01*
X201434Y156358D01*
Y159153D01*
X201434Y159202D01*
X201433Y159202D01*
X201309Y159829D01*
X201116Y160117D01*
X201016Y160267D01*
X201016Y160267D01*
X200986Y160321D01*
X200967Y161030D01*
X200986Y161739D01*
X201016Y161793D01*
X201016Y161793D01*
X201116Y161943D01*
X201309Y162231D01*
X201433Y162857D01*
X201434Y162858D01*
X201434Y162906D01*
Y165702D01*
X201309Y166329D01*
X200954Y166860D01*
X200423Y167215D01*
X200332Y167233D01*
X200063Y168581D01*
X200161Y168647D01*
X200943Y169816D01*
X201217Y171196D01*
X200943Y172576D01*
X200161Y173745D01*
X198992Y174527D01*
X197612Y174801D01*
X196232Y174527D01*
X196086Y174429D01*
X194740Y174687D01*
X193626Y176354D01*
X191959Y177468D01*
X189992Y177859D01*
X188025Y177468D01*
X187463Y177092D01*
X186194Y177771D01*
Y180774D01*
X186069Y181401D01*
X185714Y181932D01*
X185183Y182287D01*
X184556Y182411D01*
X181910D01*
X181712Y182411D01*
X181711Y182411D01*
X181085Y182287D01*
X180891Y182157D01*
X180779Y182083D01*
X180779Y182083D01*
X180552Y182077D01*
X179515Y182363D01*
X179358Y182428D01*
Y186870D01*
X180588Y187903D01*
X180594Y187901D01*
X182561Y188292D01*
X184228Y189406D01*
X185342Y191073D01*
X185733Y193040D01*
X185342Y195007D01*
X184228Y196674D01*
X182561Y197788D01*
X180594Y198179D01*
X178627Y197788D01*
X176960Y196674D01*
X175846Y195007D01*
X175780Y194675D01*
X174486D01*
X174420Y195007D01*
X173306Y196674D01*
X171639Y197788D01*
X169672Y198179D01*
X167705Y197788D01*
X166038Y196674D01*
X165896Y196461D01*
X164626Y196846D01*
Y216050D01*
X165543Y216232D01*
X167210Y217346D01*
X167748Y218152D01*
X194564D01*
X195646Y218367D01*
X196564Y218980D01*
X246535Y268952D01*
X280877D01*
X281558Y267307D01*
D02*
G37*
%LPC*%
G36*
X247904Y138688D02*
X237617D01*
Y129417D01*
X247904D01*
Y138688D01*
D02*
G37*
G36*
X162306Y123501D02*
X162154D01*
X161024Y123276D01*
X160326Y122810D01*
X159628Y123276D01*
X158498Y123501D01*
X158346D01*
Y114554D01*
Y105607D01*
X158498D01*
X159628Y105832D01*
X160326Y106298D01*
X161024Y105832D01*
X162154Y105607D01*
X162306D01*
Y114554D01*
Y123501D01*
D02*
G37*
G36*
X256794Y115439D02*
Y106168D01*
X267081D01*
Y115439D01*
X256794D01*
D02*
G37*
G36*
X142806Y183727D02*
X142654D01*
X141524Y183502D01*
X140566Y182862D01*
X139926Y181904D01*
X139701Y180774D01*
Y176050D01*
X142806D01*
Y183727D01*
D02*
G37*
G36*
X265176Y197612D02*
X251841D01*
Y182245D01*
X265176D01*
Y197612D01*
D02*
G37*
G36*
X260731Y138688D02*
X250444D01*
Y129417D01*
X260731D01*
Y138688D01*
D02*
G37*
G36*
X267081Y103628D02*
X256794D01*
Y94357D01*
X267081D01*
Y103628D01*
D02*
G37*
G36*
X267970Y55118D02*
X259080D01*
Y47244D01*
X267970D01*
Y55118D01*
D02*
G37*
G36*
Y65532D02*
X259080D01*
Y57658D01*
X267970D01*
Y65532D01*
D02*
G37*
G36*
X222504Y55372D02*
X214630D01*
Y46482D01*
X222504D01*
Y55372D01*
D02*
G37*
G36*
X232918D02*
X225044D01*
Y46482D01*
X232918D01*
Y55372D01*
D02*
G37*
G36*
X70968Y80010D02*
X63094D01*
Y71120D01*
X70968D01*
Y80010D01*
D02*
G37*
G36*
X265791Y85705D02*
X245257D01*
Y79282D01*
X243566D01*
Y85324D01*
X225826D01*
Y67584D01*
X243566D01*
Y73626D01*
X245257D01*
Y67203D01*
X265791D01*
Y85705D01*
D02*
G37*
G36*
X279400Y65532D02*
X270510D01*
Y57658D01*
X279400D01*
Y65532D01*
D02*
G37*
G36*
X60554Y80010D02*
X52680D01*
Y71120D01*
X60554D01*
Y80010D01*
D02*
G37*
G36*
X265176Y215519D02*
X251841D01*
Y200152D01*
X265176D01*
Y215519D01*
D02*
G37*
G36*
X246380Y320802D02*
X237109D01*
Y310515D01*
X246380D01*
Y320802D01*
D02*
G37*
G36*
X258191D02*
X248920D01*
Y310515D01*
X258191D01*
Y320802D01*
D02*
G37*
G36*
X219456Y291889D02*
X217538Y291637D01*
X215751Y290897D01*
X214217Y289719D01*
X213039Y288185D01*
X212299Y286398D01*
X212047Y284480D01*
X212299Y282562D01*
X213039Y280775D01*
X214217Y279241D01*
X215751Y278063D01*
X217538Y277323D01*
X219456Y277071D01*
X221374Y277323D01*
X223161Y278063D01*
X224695Y279241D01*
X225873Y280775D01*
X226613Y282562D01*
X226865Y284480D01*
X226613Y286398D01*
X225873Y288185D01*
X224695Y289719D01*
X223161Y290897D01*
X221374Y291637D01*
X219456Y291889D01*
D02*
G37*
G36*
X140208Y294894D02*
X131318D01*
Y287020D01*
X140208D01*
Y294894D01*
D02*
G37*
G36*
X117856Y346710D02*
X108878D01*
Y340360D01*
X109228Y337708D01*
X110251Y335236D01*
X111880Y333114D01*
X114002Y331485D01*
X116474Y330462D01*
X117856Y330280D01*
Y346710D01*
D02*
G37*
G36*
X129374D02*
X120396D01*
Y330280D01*
X121778Y330462D01*
X124250Y331485D01*
X126372Y333114D01*
X128001Y335236D01*
X129024Y337708D01*
X129374Y340360D01*
Y346710D01*
D02*
G37*
G36*
X92456D02*
X83478D01*
Y340360D01*
X83827Y337708D01*
X84851Y335236D01*
X86480Y333114D01*
X88602Y331485D01*
X91074Y330462D01*
X92456Y330280D01*
Y346710D01*
D02*
G37*
G36*
X103974D02*
X94996D01*
Y330280D01*
X96378Y330462D01*
X98850Y331485D01*
X100972Y333114D01*
X102601Y335236D01*
X103624Y337708D01*
X103974Y340360D01*
Y346710D01*
D02*
G37*
G36*
X171196Y291889D02*
X169278Y291637D01*
X167491Y290897D01*
X165957Y289719D01*
X164779Y288185D01*
X164039Y286398D01*
X163787Y284480D01*
X164039Y282562D01*
X164779Y280775D01*
X165957Y279241D01*
X167491Y278063D01*
X169278Y277323D01*
X171196Y277071D01*
X173114Y277323D01*
X174901Y278063D01*
X176435Y279241D01*
X177613Y280775D01*
X178353Y282562D01*
X178605Y284480D01*
X178353Y286398D01*
X177613Y288185D01*
X176435Y289719D01*
X174901Y290897D01*
X173114Y291637D01*
X171196Y291889D01*
D02*
G37*
G36*
X140208Y270510D02*
X131318D01*
Y262636D01*
X140208D01*
Y270510D01*
D02*
G37*
G36*
X61468Y273558D02*
X45037D01*
X45219Y272176D01*
X46243Y269704D01*
X47872Y267582D01*
X49994Y265953D01*
X52466Y264930D01*
X55118Y264580D01*
X61468D01*
Y273558D01*
D02*
G37*
G36*
X270764Y243391D02*
X268797Y243000D01*
X267130Y241886D01*
X266592Y241080D01*
X246996D01*
X246458Y241886D01*
X244790Y243000D01*
X242824Y243391D01*
X240858Y243000D01*
X239190Y241886D01*
X238076Y240219D01*
X237685Y238252D01*
X238076Y236285D01*
X239190Y234618D01*
X240858Y233504D01*
X242824Y233113D01*
X244790Y233504D01*
X246458Y234618D01*
X246996Y235424D01*
X266592D01*
X267130Y234618D01*
X268797Y233504D01*
X270764Y233113D01*
X272731Y233504D01*
X274398Y234618D01*
X275512Y236285D01*
X275903Y238252D01*
X275512Y240219D01*
X274398Y241886D01*
X272731Y243000D01*
X270764Y243391D01*
D02*
G37*
G36*
X128778Y270510D02*
X119888D01*
Y262636D01*
X128778D01*
Y270510D01*
D02*
G37*
G36*
X61468Y285076D02*
X55118D01*
X52466Y284727D01*
X49994Y283703D01*
X47872Y282074D01*
X46243Y279952D01*
X45219Y277480D01*
X45037Y276098D01*
X61468D01*
Y285076D01*
D02*
G37*
G36*
X70358D02*
X64008D01*
Y276098D01*
X80438D01*
X80257Y277480D01*
X79233Y279952D01*
X77604Y282074D01*
X75482Y283703D01*
X73010Y284727D01*
X70358Y285076D01*
D02*
G37*
G36*
X80438Y273558D02*
X64008D01*
Y264580D01*
X70358D01*
X73010Y264930D01*
X75482Y265953D01*
X77604Y267582D01*
X79233Y269704D01*
X80257Y272176D01*
X80438Y273558D01*
D02*
G37*
G36*
X140208Y284480D02*
X119888D01*
Y276606D01*
Y273050D01*
X140208D01*
Y276606D01*
Y284480D01*
D02*
G37*
%LPD*%
D10*
X198628Y171196D02*
G03*
X198628Y171196I-1016J0D01*
G01*
D11*
X183134Y174780D02*
D03*
X176784D02*
D03*
X170180D02*
D03*
X163576D02*
D03*
X157076D02*
D03*
X150576D02*
D03*
X144076D02*
D03*
Y114554D02*
D03*
X150576D02*
D03*
X157076D02*
D03*
X163576D02*
D03*
X170180D02*
D03*
X176784D02*
D03*
X183134D02*
D03*
D12*
X133576Y164280D02*
D03*
Y157780D02*
D03*
Y151280D02*
D03*
Y144780D02*
D03*
Y138176D02*
D03*
Y131572D02*
D03*
Y125222D02*
D03*
X193802D02*
D03*
Y131572D02*
D03*
Y138176D02*
D03*
Y144780D02*
D03*
Y151280D02*
D03*
Y157780D02*
D03*
Y164280D02*
D03*
D13*
X163576Y144780D02*
D03*
D14*
X130048Y304902D02*
D03*
Y285750D02*
D03*
Y252628D02*
D03*
Y271780D02*
D03*
X106426Y135230D02*
D03*
Y116078D02*
D03*
X85598Y144628D02*
D03*
Y125476D02*
D03*
X269240Y37236D02*
D03*
Y56388D02*
D03*
D15*
X203196Y198882D02*
D03*
X266446D02*
D03*
D16*
X104648Y165354D02*
D03*
Y193798D02*
D03*
X249174Y168402D02*
D03*
Y139958D02*
D03*
X255524Y76454D02*
D03*
Y104898D02*
D03*
X84074Y193802D02*
D03*
Y165358D02*
D03*
D17*
X227076Y168656D02*
D03*
Y133630D02*
D03*
X234696Y76454D02*
D03*
Y111480D02*
D03*
D18*
X58826Y211328D02*
D03*
X77978D02*
D03*
X93624D02*
D03*
X112776D02*
D03*
X61824Y81280D02*
D03*
X42672D02*
D03*
X242926Y45212D02*
D03*
X223774D02*
D03*
D19*
X196596Y322072D02*
D03*
X161570D02*
D03*
D20*
X247650D02*
D03*
X219206D02*
D03*
D21*
X62738Y300228D02*
X125984D01*
X62738Y249428D02*
X122174D01*
D22*
X161544Y322072D02*
Y340360D01*
X169672Y348488D01*
Y348234D02*
Y348488D01*
Y348234D02*
X169926Y347980D01*
X125984Y300228D02*
X130810Y305054D01*
X130048D02*
X130810D01*
X42926Y81280D02*
Y90678D01*
X36576Y97028D02*
X42926Y90678D01*
X36576Y97028D02*
Y138430D01*
X42926Y144780D01*
X81026D01*
X144018Y114808D02*
X150622D01*
X131826Y103378D02*
X144018Y115824D01*
X124460Y103378D02*
X131826D01*
X77724D02*
X124460D01*
X68326Y93980D02*
X77724Y103378D01*
X46228Y93980D02*
X68326D01*
X42926Y90678D02*
X46228Y93980D01*
X49276Y249428D02*
X62738D01*
X36576Y236728D02*
X49276Y249428D01*
X36576Y151130D02*
Y236728D01*
Y151130D02*
X42926Y144780D01*
X183134Y100330D02*
Y114808D01*
Y100330D02*
X207010Y76454D01*
Y71628D02*
Y76454D01*
X199136Y64008D02*
X207010Y71628D01*
X130810Y64008D02*
X199136D01*
X122936Y71628D02*
X130810Y64008D01*
X122936Y71628D02*
Y101854D01*
X124460Y103378D01*
X169926Y77470D02*
Y114808D01*
X148844Y77470D02*
X169926D01*
X146304Y74676D02*
X148844Y77470D01*
X145796Y74676D02*
X146304D01*
X145796D02*
Y74930D01*
X176530Y76454D02*
Y114808D01*
Y76454D02*
X192532D01*
X194056Y74930D01*
X193548Y144780D02*
X203200D01*
X209550Y151130D01*
Y189484D01*
X103124Y160528D02*
X104648Y165354D01*
X63500D02*
X84074D01*
X55626Y157480D02*
X63500Y165354D01*
X61976Y125730D02*
X85598D01*
X55626Y132080D02*
X61976Y125730D01*
X96774Y113030D02*
X100076Y116078D01*
X61976Y113030D02*
X96774D01*
X55626Y106680D02*
X61976Y113030D01*
X58674Y185928D02*
Y211328D01*
X55626Y182880D02*
X58674Y185928D01*
X196596Y322072D02*
X219202D01*
X242824Y45212D02*
X243078D01*
D23*
X68326Y331978D02*
Y347980D01*
Y331978D02*
X77724Y322580D01*
X131826D01*
X147574Y306578D01*
Y255778D02*
Y306578D01*
X106426Y144780D02*
X133604D01*
X106426Y135128D02*
Y144780D01*
X81026D02*
X106426D01*
X81026D02*
X85598D01*
X144018Y114808D02*
Y115824D01*
X122174Y249428D02*
X130048Y252730D01*
X134874Y249428D01*
X185674Y138176D02*
X193548D01*
X184150Y136652D02*
X185674Y138176D01*
X184150Y118110D02*
Y136652D01*
X183134Y114808D02*
X184150Y118110D01*
X156972Y174752D02*
X157226Y171958D01*
Y196088D01*
X140208Y213360D02*
X157226Y196088D01*
X245364Y271780D02*
X296926D01*
X194564Y220980D02*
X245364Y271780D01*
X163576Y174752D02*
Y183642D01*
X161798Y185166D02*
X163576Y183642D01*
X161798Y185166D02*
Y219202D01*
X163576Y220980D01*
X194564D01*
X169926Y174752D02*
Y191262D01*
X169672Y193040D02*
X169926Y191262D01*
X132334Y238252D02*
X203962D01*
X263144Y297180D01*
X296672D01*
X296926D01*
X203200Y198882D02*
X209550Y189484D01*
X189992Y167894D02*
X193548Y164338D01*
X189992Y167894D02*
Y172720D01*
X150876Y170180D02*
Y171450D01*
X150622Y174752D02*
X150876Y171450D01*
Y186944D01*
X127762Y210058D02*
X150876Y186944D01*
X127762Y210058D02*
Y220980D01*
X122936Y225806D02*
X127762Y220980D01*
X108966Y225806D02*
X122936D01*
X103124Y160528D02*
X112776Y151130D01*
X137160D01*
X138176D01*
X136906D02*
X137160D01*
X133604D02*
X136906D01*
X121920Y157734D02*
X133604D01*
X119126Y160528D02*
X121920Y157734D01*
X119126Y160528D02*
Y173228D01*
X115824Y176530D02*
X119126Y173228D01*
X84074Y176530D02*
X115824D01*
X81026Y173228D02*
X84074Y176530D01*
X81026Y173228D02*
X84074Y165354D01*
X122174Y138176D02*
X133604D01*
X117602Y133604D02*
X122174Y138176D01*
X117602Y127254D02*
Y133604D01*
X115824Y125730D02*
X117602Y127254D01*
X81026Y125730D02*
X115824D01*
X81026D02*
X85598D01*
X127000Y131826D02*
X133604D01*
X106426Y116078D02*
X113030D01*
X100076D02*
X106426D01*
X113030D02*
X122936Y126238D01*
Y127762D01*
X127000Y131826D01*
X227076Y168656D02*
X247650D01*
X249174Y166878D01*
Y168402D01*
X193548Y131826D02*
X225298D01*
X227076Y133604D01*
X193548Y125222D02*
X213360D01*
X226314Y111506D02*
X234696D01*
X213360Y124460D02*
X226314Y111506D01*
X213360Y124460D02*
Y125222D01*
X234696Y76454D02*
X249174D01*
X255524D01*
X133604Y164338D02*
X134620D01*
X115824Y182880D02*
X134620Y164338D01*
X55626Y182880D02*
X115824D01*
X84074Y193802D02*
Y208280D01*
X77724Y211328D02*
X84074Y208280D01*
X77724Y211328D02*
X93726D01*
X176530Y174752D02*
Y189230D01*
X180594Y193040D01*
X274066Y144780D02*
X296926D01*
X264668Y154178D02*
X274066Y144780D01*
X217932Y154178D02*
X264668D01*
X176530Y174752D02*
Y188976D01*
X180594Y193040D01*
X242824Y238252D02*
X270764D01*
X270256Y17780D02*
X296926D01*
X242824Y45212D02*
X270256Y17780D01*
X275082Y43180D02*
X296926D01*
X269240Y37338D02*
X275082Y43180D01*
D24*
X53299Y37469D02*
Y44663D01*
X56897Y48260D01*
X60494Y44663D01*
Y37469D01*
Y42864D01*
X53299D01*
X64091Y48260D02*
Y37469D01*
X69487D01*
X71285Y39267D01*
Y46461D01*
X69487Y48260D01*
X64091D01*
X82077Y46461D02*
X80278Y48260D01*
X76681D01*
X74882Y46461D01*
Y44663D01*
X76681Y42864D01*
X80278D01*
X82077Y41066D01*
Y39267D01*
X80278Y37469D01*
X76681D01*
X74882Y39267D01*
X103660Y46461D02*
X101861Y48260D01*
X98264D01*
X96466Y46461D01*
Y39267D01*
X98264Y37469D01*
X101861D01*
X103660Y39267D01*
X109056Y37469D02*
X112653D01*
X114451Y39267D01*
Y42864D01*
X112653Y44663D01*
X109056D01*
X107257Y42864D01*
Y39267D01*
X109056Y37469D01*
X118048D02*
Y44663D01*
X119847D01*
X121646Y42864D01*
Y37469D01*
Y42864D01*
X123444Y44663D01*
X125243Y42864D01*
Y37469D01*
X136034Y46461D02*
X134236Y48260D01*
X130639D01*
X128840Y46461D01*
Y44663D01*
X130639Y42864D01*
X134236D01*
X136034Y41066D01*
Y39267D01*
X134236Y37469D01*
X130639D01*
X128840Y39267D01*
X139632Y44663D02*
Y37469D01*
Y41066D01*
X141430Y42864D01*
X143229Y44663D01*
X145027D01*
X150423D02*
X154020Y37469D01*
X157617Y44663D01*
X172006Y48260D02*
Y41066D01*
X175603Y37469D01*
X179200Y41066D01*
Y48260D01*
X189992Y37469D02*
X182798D01*
X189992Y44663D01*
Y46461D01*
X188193Y48260D01*
X184596D01*
X182798Y46461D01*
D25*
X0Y365506D02*
X314960D01*
X0Y0D02*
X314960D01*
X0D02*
X314960D01*
Y365506D01*
X0D02*
X314960D01*
X0Y0D02*
Y365506D01*
D26*
X219456Y284480D02*
D03*
X171196D02*
D03*
X145796Y74930D02*
D03*
X194056D02*
D03*
D27*
X62738Y300228D02*
D03*
Y274828D02*
D03*
Y249428D02*
D03*
X55626Y106680D02*
D03*
Y132080D02*
D03*
Y157480D02*
D03*
Y182880D02*
D03*
X17526Y43180D02*
D03*
Y68580D02*
D03*
Y93980D02*
D03*
Y119380D02*
D03*
Y144780D02*
D03*
Y170180D02*
D03*
Y195580D02*
D03*
Y220980D02*
D03*
Y246380D02*
D03*
Y271780D02*
D03*
Y297180D02*
D03*
Y322580D02*
D03*
X296926Y17780D02*
D03*
Y43180D02*
D03*
Y68580D02*
D03*
Y93980D02*
D03*
Y119380D02*
D03*
Y144780D02*
D03*
Y170180D02*
D03*
Y195580D02*
D03*
Y220980D02*
D03*
Y246380D02*
D03*
Y271780D02*
D03*
Y297180D02*
D03*
Y322580D02*
D03*
Y347980D02*
D03*
D28*
X68326Y17780D02*
D03*
X93726D02*
D03*
X119126D02*
D03*
X144526D02*
D03*
X169926D02*
D03*
X195326D02*
D03*
X220726D02*
D03*
X246126D02*
D03*
X68326Y347980D02*
D03*
X93726D02*
D03*
X119126D02*
D03*
X144526D02*
D03*
X169926D02*
D03*
X195326D02*
D03*
X220726D02*
D03*
X246126D02*
D03*
D29*
X53086Y60706D02*
D03*
X255270Y217932D02*
D03*
X126238Y113792D02*
D03*
X253746Y126238D02*
D03*
X130810Y74676D02*
D03*
X222504Y99568D02*
D03*
X154178Y56134D02*
D03*
X234950Y57658D02*
D03*
X147574Y255778D02*
D03*
X163576Y220980D02*
D03*
X169672Y193040D02*
D03*
X132334Y238252D02*
D03*
X189992Y172720D02*
D03*
X180594Y193040D02*
D03*
X217932Y154178D02*
D03*
X242824Y238252D02*
D03*
X270764D02*
D03*
D30*
X140208Y213360D02*
D03*
X108966Y225806D02*
D03*
M02*
