%FSLAX44Y44*%
%MOMM*%
G71*
G01*
G75*
%ADD10C,0.2540*%
G04:AMPARAMS|DCode=11|XSize=1.27mm|YSize=0.3556mm|CornerRadius=0.0356mm|HoleSize=0mm|Usage=FLASHONLY|Rotation=270.000|XOffset=0mm|YOffset=0mm|HoleType=Round|Shape=RoundedRectangle|*
%AMROUNDEDRECTD11*
21,1,1.2700,0.2845,0,0,270.0*
21,1,1.1989,0.3556,0,0,270.0*
1,1,0.0711,-0.1422,-0.5994*
1,1,0.0711,-0.1422,0.5994*
1,1,0.0711,0.1422,0.5994*
1,1,0.0711,0.1422,-0.5994*
%
%ADD11ROUNDEDRECTD11*%
G04:AMPARAMS|DCode=12|XSize=0.3556mm|YSize=1.27mm|CornerRadius=0.0356mm|HoleSize=0mm|Usage=FLASHONLY|Rotation=270.000|XOffset=0mm|YOffset=0mm|HoleType=Round|Shape=RoundedRectangle|*
%AMROUNDEDRECTD12*
21,1,0.3556,1.1989,0,0,270.0*
21,1,0.2845,1.2700,0,0,270.0*
1,1,0.0711,-0.5994,-0.1422*
1,1,0.0711,-0.5994,0.1422*
1,1,0.0711,0.5994,0.1422*
1,1,0.0711,0.5994,-0.1422*
%
%ADD12ROUNDEDRECTD12*%
G04:AMPARAMS|DCode=13|XSize=3.302mm|YSize=3.302mm|CornerRadius=0.3302mm|HoleSize=0mm|Usage=FLASHONLY|Rotation=270.000|XOffset=0mm|YOffset=0mm|HoleType=Round|Shape=RoundedRectangle|*
%AMROUNDEDRECTD13*
21,1,3.3020,2.6416,0,0,270.0*
21,1,2.6416,3.3020,0,0,270.0*
1,1,0.6604,-1.3208,-1.3208*
1,1,0.6604,-1.3208,1.3208*
1,1,0.6604,1.3208,1.3208*
1,1,0.6604,1.3208,-1.3208*
%
%ADD13ROUNDEDRECTD13*%
%ADD14R,1.5240X1.3208*%
%ADD15R,2.4130X2.8194*%
%ADD16R,1.8034X1.6002*%
%ADD17R,1.5240X1.5240*%
%ADD18R,1.3208X1.5240*%
%ADD19R,1.5240X1.5240*%
%ADD20R,1.6002X1.8034*%
%ADD21C,0.6096*%
%ADD22C,0.4064*%
%ADD23C,0.3048*%
%ADD24C,0.0864*%
%ADD25C,0.0500*%
%ADD26C,1.2192*%
%ADD27O,3.0480X1.5240*%
%ADD28O,1.5240X3.0480*%
%ADD29C,0.7580*%
%ADD30C,0.8596*%
%ADD31R,0.5080X1.5240*%
%ADD32R,1.5240X0.5080*%
%ADD33C,0.1524*%
%ADD34C,0.1270*%
%ADD35C,0.2032*%
%ADD36R,0.3250X0.4318*%
%ADD37R,0.3302X0.4318*%
%ADD38R,0.3528X0.3556*%
%ADD39R,0.4318X0.3250*%
%ADD40R,0.4318X0.3302*%
%ADD41R,0.3556X0.3528*%
G36*
X1016Y319326D02*
X-8837D01*
X-8818Y319308D01*
X-8745Y319217D01*
X-8636Y319107D01*
X-8509Y318925D01*
X-8345Y318725D01*
X-8163Y318470D01*
X-7962Y318179D01*
X-7762Y317851D01*
Y317833D01*
X-7744Y317814D01*
X-7671Y317705D01*
X-7580Y317523D01*
X-7471Y317304D01*
X-7343Y317050D01*
X-7216Y316776D01*
X-7088Y316503D01*
X-6979Y316230D01*
X-8472D01*
Y316248D01*
X-8509Y316285D01*
X-8527Y316357D01*
X-8582Y316448D01*
X-8636Y316558D01*
X-8709Y316685D01*
X-8891Y316995D01*
X-9092Y317359D01*
X-9347Y317723D01*
X-9638Y318106D01*
X-9948Y318488D01*
X-9966Y318507D01*
X-9984Y318525D01*
X-10039Y318579D01*
X-10093Y318652D01*
X-10275Y318816D01*
X-10494Y319035D01*
X-10749Y319253D01*
X-11040Y319490D01*
X-11332Y319690D01*
X-11641Y319872D01*
Y320874D01*
X1016D01*
Y319326D01*
D02*
G37*
G36*
X326136Y14526D02*
X316283D01*
X316302Y14508D01*
X316374Y14417D01*
X316484Y14308D01*
X316611Y14125D01*
X316775Y13925D01*
X316957Y13670D01*
X317158Y13379D01*
X317358Y13051D01*
Y13033D01*
X317376Y13014D01*
X317449Y12905D01*
X317540Y12723D01*
X317649Y12505D01*
X317777Y12249D01*
X317904Y11976D01*
X318032Y11703D01*
X318141Y11430D01*
X316648D01*
Y11448D01*
X316611Y11485D01*
X316593Y11558D01*
X316538Y11648D01*
X316484Y11758D01*
X316411Y11885D01*
X316229Y12195D01*
X316028Y12559D01*
X315774Y12923D01*
X315482Y13306D01*
X315173Y13688D01*
X315154Y13707D01*
X315136Y13725D01*
X315081Y13779D01*
X315027Y13852D01*
X314845Y14016D01*
X314626Y14235D01*
X314371Y14453D01*
X314080Y14690D01*
X313788Y14890D01*
X313479Y15072D01*
Y16074D01*
X326136D01*
Y14526D01*
D02*
G37*
G36*
X1016Y324626D02*
X816D01*
X670Y324644D01*
X506Y324662D01*
X324Y324698D01*
X142Y324735D01*
X-58Y324808D01*
X-77D01*
X-95Y324826D01*
X-204Y324862D01*
X-368Y324935D01*
X-587Y325045D01*
X-842Y325190D01*
X-1133Y325372D01*
X-1424Y325573D01*
X-1734Y325828D01*
X-1752D01*
X-1770Y325864D01*
X-1880Y325955D01*
X-2044Y326119D01*
X-2280Y326356D01*
X-2553Y326629D01*
X-2881Y326975D01*
X-3246Y327394D01*
X-3628Y327849D01*
X-3646Y327867D01*
X-3701Y327940D01*
X-3792Y328050D01*
X-3901Y328177D01*
X-4047Y328341D01*
X-4211Y328541D01*
X-4393Y328741D01*
X-4593Y328978D01*
X-5030Y329434D01*
X-5467Y329889D01*
X-5686Y330107D01*
X-5904Y330308D01*
X-6105Y330490D01*
X-6305Y330635D01*
X-6323D01*
X-6342Y330672D01*
X-6396Y330708D01*
X-6469Y330745D01*
X-6669Y330872D01*
X-6906Y331018D01*
X-7197Y331146D01*
X-7507Y331273D01*
X-7853Y331346D01*
X-8181Y331382D01*
X-8217D01*
X-8327Y331364D01*
X-8509Y331346D01*
X-8709Y331291D01*
X-8964Y331218D01*
X-9219Y331091D01*
X-9474Y330927D01*
X-9729Y330708D01*
X-9765Y330672D01*
X-9838Y330581D01*
X-9929Y330453D01*
X-10057Y330253D01*
X-10166Y329998D01*
X-10275Y329707D01*
X-10348Y329361D01*
X-10366Y328978D01*
Y328960D01*
Y328924D01*
Y328869D01*
X-10348Y328796D01*
X-10330Y328578D01*
X-10275Y328323D01*
X-10202Y328050D01*
X-10075Y327740D01*
X-9911Y327449D01*
X-9693Y327175D01*
X-9656Y327139D01*
X-9565Y327066D01*
X-9419Y326957D01*
X-9201Y326847D01*
X-8946Y326720D01*
X-8618Y326611D01*
X-8254Y326538D01*
X-7835Y326502D01*
X-7999Y324917D01*
X-8017D01*
X-8072Y324935D01*
X-8163D01*
X-8290Y324953D01*
X-8436Y324990D01*
X-8600Y325026D01*
X-8800Y325081D01*
X-9000Y325136D01*
X-9438Y325281D01*
X-9875Y325500D01*
X-10093Y325627D01*
X-10312Y325791D01*
X-10512Y325955D01*
X-10694Y326137D01*
X-10712Y326155D01*
X-10731Y326192D01*
X-10785Y326246D01*
X-10840Y326338D01*
X-10913Y326447D01*
X-10986Y326574D01*
X-11077Y326720D01*
X-11168Y326902D01*
X-11259Y327102D01*
X-11350Y327321D01*
X-11423Y327558D01*
X-11495Y327813D01*
X-11550Y328086D01*
X-11605Y328377D01*
X-11623Y328687D01*
X-11641Y329015D01*
Y329033D01*
Y329087D01*
Y329197D01*
X-11623Y329324D01*
X-11605Y329470D01*
X-11587Y329652D01*
X-11550Y329852D01*
X-11514Y330053D01*
X-11386Y330526D01*
X-11204Y331000D01*
X-11095Y331236D01*
X-10967Y331473D01*
X-10804Y331692D01*
X-10621Y331892D01*
X-10603Y331910D01*
X-10585Y331947D01*
X-10512Y331983D01*
X-10439Y332056D01*
X-10348Y332147D01*
X-10221Y332238D01*
X-10093Y332329D01*
X-9929Y332439D01*
X-9583Y332621D01*
X-9146Y332803D01*
X-8928Y332876D01*
X-8673Y332912D01*
X-8418Y332948D01*
X-8145Y332967D01*
X-8017D01*
X-7871Y332948D01*
X-7671Y332930D01*
X-7452Y332894D01*
X-7197Y332821D01*
X-6924Y332748D01*
X-6651Y332639D01*
X-6615Y332621D01*
X-6524Y332584D01*
X-6378Y332511D01*
X-6178Y332402D01*
X-5959Y332256D01*
X-5686Y332074D01*
X-5413Y331856D01*
X-5103Y331601D01*
X-5067Y331564D01*
X-4958Y331473D01*
X-4866Y331382D01*
X-4775Y331291D01*
X-4666Y331182D01*
X-4520Y331036D01*
X-4375Y330891D01*
X-4211Y330708D01*
X-4029Y330526D01*
X-3828Y330308D01*
X-3628Y330071D01*
X-3391Y329816D01*
X-3155Y329525D01*
X-2900Y329233D01*
X-2881Y329215D01*
X-2845Y329179D01*
X-2790Y329106D01*
X-2717Y329015D01*
X-2608Y328905D01*
X-2499Y328778D01*
X-2262Y328487D01*
X-1989Y328177D01*
X-1716Y327886D01*
X-1479Y327631D01*
X-1388Y327521D01*
X-1297Y327430D01*
X-1279Y327412D01*
X-1224Y327357D01*
X-1151Y327285D01*
X-1042Y327193D01*
X-914Y327102D01*
X-787Y326993D01*
X-477Y326775D01*
Y332985D01*
X1016D01*
Y324626D01*
D02*
G37*
G36*
X244165Y377129D02*
X244311Y377111D01*
X244475Y377093D01*
X244657Y377074D01*
X244839Y377020D01*
X245276Y376910D01*
X245713Y376746D01*
X245932Y376637D01*
X246150Y376510D01*
X246350Y376346D01*
X246551Y376182D01*
X246569Y376164D01*
X246587Y376146D01*
X246642Y376091D01*
X246715Y376018D01*
X246787Y375909D01*
X246879Y375799D01*
X247061Y375526D01*
X247243Y375180D01*
X247407Y374780D01*
X247534Y374324D01*
X247552Y374088D01*
X247571Y373833D01*
Y373814D01*
Y373796D01*
Y373687D01*
X247552Y373523D01*
X247516Y373323D01*
X247461Y373068D01*
X247370Y372813D01*
X247261Y372558D01*
X247097Y372303D01*
X247079Y372266D01*
X247006Y372194D01*
X246897Y372084D01*
X246751Y371939D01*
X246551Y371775D01*
X246314Y371611D01*
X246041Y371447D01*
X245713Y371301D01*
X245731D01*
X245768Y371283D01*
X245822Y371265D01*
X245895Y371228D01*
X246114Y371137D01*
X246369Y371010D01*
X246642Y370828D01*
X246933Y370627D01*
X247206Y370372D01*
X247461Y370081D01*
Y370063D01*
X247480Y370045D01*
X247552Y369935D01*
X247662Y369753D01*
X247771Y369516D01*
X247880Y369225D01*
X247990Y368879D01*
X248062Y368497D01*
X248081Y368078D01*
Y368060D01*
Y368005D01*
Y367914D01*
X248062Y367804D01*
X248044Y367677D01*
X248026Y367513D01*
X247990Y367331D01*
X247935Y367131D01*
X247807Y366712D01*
X247716Y366475D01*
X247589Y366256D01*
X247461Y366020D01*
X247316Y365801D01*
X247134Y365583D01*
X246933Y365364D01*
X246915Y365346D01*
X246879Y365309D01*
X246824Y365255D01*
X246733Y365200D01*
X246605Y365109D01*
X246478Y365018D01*
X246314Y364927D01*
X246132Y364818D01*
X245932Y364709D01*
X245695Y364618D01*
X245440Y364526D01*
X245185Y364435D01*
X244893Y364381D01*
X244584Y364326D01*
X244274Y364290D01*
X243928Y364272D01*
X243746D01*
X243619Y364290D01*
X243455Y364308D01*
X243273Y364326D01*
X243072Y364362D01*
X242854Y364417D01*
X242362Y364545D01*
X242107Y364636D01*
X241870Y364727D01*
X241615Y364854D01*
X241360Y365000D01*
X241124Y365164D01*
X240905Y365364D01*
X240887Y365382D01*
X240851Y365419D01*
X240796Y365473D01*
X240723Y365564D01*
X240650Y365674D01*
X240541Y365801D01*
X240450Y365947D01*
X240341Y366129D01*
X240231Y366311D01*
X240140Y366530D01*
X239958Y366985D01*
X239885Y367258D01*
X239831Y367531D01*
X239794Y367823D01*
X239776Y368114D01*
Y368132D01*
Y368169D01*
Y368242D01*
X239794Y368315D01*
Y368424D01*
X239812Y368551D01*
X239849Y368843D01*
X239922Y369170D01*
X240031Y369498D01*
X240195Y369844D01*
X240395Y370172D01*
Y370190D01*
X240432Y370209D01*
X240504Y370300D01*
X240650Y370445D01*
X240851Y370627D01*
X241105Y370810D01*
X241415Y371010D01*
X241761Y371174D01*
X242180Y371301D01*
X242162D01*
X242143Y371319D01*
X242089Y371338D01*
X242016Y371374D01*
X241852Y371447D01*
X241634Y371556D01*
X241397Y371702D01*
X241160Y371884D01*
X240942Y372084D01*
X240741Y372303D01*
X240723Y372339D01*
X240668Y372412D01*
X240595Y372558D01*
X240523Y372740D01*
X240432Y372977D01*
X240359Y373250D01*
X240304Y373559D01*
X240286Y373887D01*
Y373905D01*
Y373942D01*
Y374015D01*
X240304Y374124D01*
X240322Y374233D01*
X240341Y374379D01*
X240413Y374689D01*
X240523Y375053D01*
X240705Y375435D01*
X240814Y375636D01*
X240942Y375836D01*
X241105Y376018D01*
X241269Y376200D01*
X241288Y376218D01*
X241324Y376237D01*
X241379Y376291D01*
X241451Y376346D01*
X241542Y376419D01*
X241670Y376492D01*
X241816Y376583D01*
X241961Y376674D01*
X242143Y376765D01*
X242344Y376856D01*
X242562Y376929D01*
X242799Y377001D01*
X243309Y377111D01*
X243601Y377129D01*
X243892Y377147D01*
X244056D01*
X244165Y377129D01*
D02*
G37*
G36*
X46736Y42466D02*
X36883D01*
X36902Y42448D01*
X36974Y42357D01*
X37084Y42248D01*
X37211Y42065D01*
X37375Y41865D01*
X37557Y41610D01*
X37758Y41319D01*
X37958Y40991D01*
Y40973D01*
X37976Y40954D01*
X38049Y40845D01*
X38140Y40663D01*
X38249Y40444D01*
X38377Y40189D01*
X38504Y39916D01*
X38632Y39643D01*
X38741Y39370D01*
X37248D01*
Y39388D01*
X37211Y39425D01*
X37193Y39497D01*
X37138Y39588D01*
X37084Y39698D01*
X37011Y39825D01*
X36829Y40135D01*
X36628Y40499D01*
X36374Y40863D01*
X36082Y41246D01*
X35773Y41628D01*
X35754Y41646D01*
X35736Y41665D01*
X35681Y41719D01*
X35627Y41792D01*
X35445Y41956D01*
X35226Y42175D01*
X34971Y42393D01*
X34680Y42630D01*
X34388Y42830D01*
X34079Y43012D01*
Y44014D01*
X46736D01*
Y42466D01*
D02*
G37*
G36*
X303276Y250746D02*
X293423D01*
X293442Y250728D01*
X293514Y250637D01*
X293624Y250527D01*
X293751Y250345D01*
X293915Y250145D01*
X294097Y249890D01*
X294298Y249599D01*
X294498Y249271D01*
Y249253D01*
X294516Y249234D01*
X294589Y249125D01*
X294680Y248943D01*
X294789Y248724D01*
X294917Y248470D01*
X295044Y248196D01*
X295172Y247923D01*
X295281Y247650D01*
X293788D01*
Y247668D01*
X293751Y247705D01*
X293733Y247778D01*
X293678Y247868D01*
X293624Y247978D01*
X293551Y248105D01*
X293369Y248415D01*
X293169Y248779D01*
X292913Y249143D01*
X292622Y249526D01*
X292313Y249908D01*
X292294Y249926D01*
X292276Y249945D01*
X292221Y249999D01*
X292167Y250072D01*
X291985Y250236D01*
X291766Y250455D01*
X291511Y250673D01*
X291220Y250910D01*
X290928Y251110D01*
X290619Y251292D01*
Y252294D01*
X303276D01*
Y250746D01*
D02*
G37*
G36*
X300253Y370250D02*
X303276D01*
Y368702D01*
X300253D01*
Y363220D01*
X298832D01*
X290673Y368993D01*
Y370250D01*
X298832D01*
Y371962D01*
X300253D01*
Y370250D01*
D02*
G37*
G36*
X276446Y248371D02*
X276591Y248353D01*
X276755Y248335D01*
X276956Y248298D01*
X277156Y248262D01*
X277630Y248153D01*
X278121Y247970D01*
X278376Y247861D01*
X278613Y247715D01*
X278868Y247570D01*
X279105Y247388D01*
X279123Y247369D01*
X279178Y247333D01*
X279250Y247260D01*
X279342Y247169D01*
X279451Y247041D01*
X279597Y246896D01*
X279724Y246714D01*
X279870Y246513D01*
X280015Y246295D01*
X280143Y246040D01*
X280270Y245767D01*
X280398Y245475D01*
X280489Y245166D01*
X280562Y244820D01*
X280616Y244456D01*
X280634Y244073D01*
Y244055D01*
Y244000D01*
Y243909D01*
X280616Y243782D01*
X280598Y243636D01*
X280580Y243472D01*
X280562Y243272D01*
X280507Y243071D01*
X280398Y242616D01*
X280234Y242161D01*
X280125Y241924D01*
X279997Y241687D01*
X279851Y241469D01*
X279688Y241250D01*
X279669Y241232D01*
X279651Y241196D01*
X279578Y241159D01*
X279505Y241086D01*
X279414Y240995D01*
X279305Y240904D01*
X279159Y240795D01*
X278995Y240704D01*
X278832Y240595D01*
X278631Y240485D01*
X278194Y240285D01*
X277684Y240121D01*
X277411Y240066D01*
X277120Y240030D01*
X276992Y241651D01*
X277047D01*
X277101Y241669D01*
X277192Y241687D01*
X277393Y241742D01*
X277666Y241815D01*
X277939Y241924D01*
X278249Y242070D01*
X278522Y242252D01*
X278777Y242470D01*
X278795Y242507D01*
X278868Y242580D01*
X278959Y242725D01*
X279068Y242926D01*
X279178Y243144D01*
X279269Y243417D01*
X279342Y243727D01*
X279360Y244073D01*
Y244091D01*
Y244128D01*
Y244182D01*
X279342Y244255D01*
X279323Y244474D01*
X279250Y244729D01*
X279159Y245038D01*
X279014Y245348D01*
X278795Y245676D01*
X278668Y245821D01*
X278522Y245967D01*
X278504Y245985D01*
X278486Y246003D01*
X278431Y246040D01*
X278376Y246094D01*
X278176Y246222D01*
X277921Y246368D01*
X277611Y246495D01*
X277229Y246623D01*
X276774Y246714D01*
X276537Y246750D01*
X276154D01*
X276063Y246732D01*
X275954D01*
X275827Y246714D01*
X275535Y246659D01*
X275189Y246568D01*
X274843Y246441D01*
X274515Y246258D01*
X274206Y246003D01*
X274188D01*
X274169Y245967D01*
X274078Y245876D01*
X273951Y245712D01*
X273805Y245494D01*
X273678Y245202D01*
X273550Y244874D01*
X273459Y244492D01*
X273423Y244273D01*
Y244055D01*
Y244018D01*
Y243927D01*
X273441Y243782D01*
X273459Y243599D01*
X273514Y243381D01*
X273568Y243162D01*
X273659Y242926D01*
X273769Y242689D01*
X273787Y242671D01*
X273823Y242598D01*
X273914Y242489D01*
X274005Y242343D01*
X274133Y242197D01*
X274297Y242052D01*
X274461Y241888D01*
X274661Y241760D01*
X274461Y240303D01*
X267977Y241523D01*
Y247788D01*
X269452D01*
Y242744D01*
X272858Y242070D01*
X272840Y242088D01*
X272822Y242124D01*
X272785Y242179D01*
X272731Y242270D01*
X272676Y242379D01*
X272603Y242507D01*
X272457Y242798D01*
X272312Y243162D01*
X272184Y243563D01*
X272093Y244000D01*
X272057Y244219D01*
Y244456D01*
Y244474D01*
Y244528D01*
Y244619D01*
X272075Y244729D01*
X272093Y244874D01*
X272111Y245038D01*
X272148Y245220D01*
X272202Y245421D01*
X272330Y245858D01*
X272421Y246094D01*
X272549Y246331D01*
X272676Y246568D01*
X272822Y246805D01*
X273004Y247023D01*
X273204Y247242D01*
X273222Y247260D01*
X273259Y247297D01*
X273313Y247351D01*
X273405Y247424D01*
X273532Y247515D01*
X273659Y247606D01*
X273823Y247715D01*
X274005Y247825D01*
X274206Y247916D01*
X274424Y248025D01*
X274679Y248116D01*
X274934Y248207D01*
X275207Y248280D01*
X275517Y248335D01*
X275827Y248371D01*
X276154Y248389D01*
X276318D01*
X276446Y248371D01*
D02*
G37*
G36*
Y121371D02*
X276591Y121353D01*
X276755Y121335D01*
X276956Y121298D01*
X277156Y121262D01*
X277630Y121152D01*
X278121Y120970D01*
X278376Y120861D01*
X278613Y120715D01*
X278868Y120570D01*
X279105Y120388D01*
X279123Y120369D01*
X279178Y120333D01*
X279250Y120260D01*
X279342Y120169D01*
X279451Y120042D01*
X279597Y119896D01*
X279724Y119714D01*
X279870Y119513D01*
X280015Y119295D01*
X280143Y119040D01*
X280270Y118767D01*
X280398Y118475D01*
X280489Y118166D01*
X280562Y117820D01*
X280616Y117456D01*
X280634Y117073D01*
Y117055D01*
Y117000D01*
Y116909D01*
X280616Y116782D01*
X280598Y116636D01*
X280580Y116472D01*
X280562Y116272D01*
X280507Y116071D01*
X280398Y115616D01*
X280234Y115161D01*
X280125Y114924D01*
X279997Y114687D01*
X279851Y114469D01*
X279688Y114250D01*
X279669Y114232D01*
X279651Y114196D01*
X279578Y114159D01*
X279505Y114086D01*
X279414Y113995D01*
X279305Y113904D01*
X279159Y113795D01*
X278995Y113704D01*
X278832Y113595D01*
X278631Y113485D01*
X278194Y113285D01*
X277684Y113121D01*
X277411Y113066D01*
X277120Y113030D01*
X276992Y114651D01*
X277047D01*
X277101Y114669D01*
X277192Y114687D01*
X277393Y114742D01*
X277666Y114815D01*
X277939Y114924D01*
X278249Y115070D01*
X278522Y115252D01*
X278777Y115470D01*
X278795Y115507D01*
X278868Y115580D01*
X278959Y115725D01*
X279068Y115926D01*
X279178Y116144D01*
X279269Y116417D01*
X279342Y116727D01*
X279360Y117073D01*
Y117091D01*
Y117128D01*
Y117182D01*
X279342Y117255D01*
X279323Y117474D01*
X279250Y117729D01*
X279159Y118038D01*
X279014Y118348D01*
X278795Y118676D01*
X278668Y118821D01*
X278522Y118967D01*
X278504Y118985D01*
X278486Y119003D01*
X278431Y119040D01*
X278376Y119094D01*
X278176Y119222D01*
X277921Y119368D01*
X277611Y119495D01*
X277229Y119623D01*
X276774Y119714D01*
X276537Y119750D01*
X276154D01*
X276063Y119732D01*
X275954D01*
X275827Y119714D01*
X275535Y119659D01*
X275189Y119568D01*
X274843Y119441D01*
X274515Y119258D01*
X274206Y119003D01*
X274188D01*
X274169Y118967D01*
X274078Y118876D01*
X273951Y118712D01*
X273805Y118493D01*
X273678Y118202D01*
X273550Y117874D01*
X273459Y117492D01*
X273423Y117273D01*
Y117055D01*
Y117018D01*
Y116927D01*
X273441Y116782D01*
X273459Y116600D01*
X273514Y116381D01*
X273568Y116162D01*
X273659Y115926D01*
X273769Y115689D01*
X273787Y115671D01*
X273823Y115598D01*
X273914Y115489D01*
X274005Y115343D01*
X274133Y115197D01*
X274297Y115051D01*
X274461Y114888D01*
X274661Y114760D01*
X274461Y113303D01*
X267977Y114523D01*
Y120788D01*
X269452D01*
Y115744D01*
X272858Y115070D01*
X272840Y115088D01*
X272822Y115124D01*
X272785Y115179D01*
X272731Y115270D01*
X272676Y115379D01*
X272603Y115507D01*
X272457Y115798D01*
X272312Y116162D01*
X272184Y116563D01*
X272093Y117000D01*
X272057Y117219D01*
Y117456D01*
Y117474D01*
Y117528D01*
Y117619D01*
X272075Y117729D01*
X272093Y117874D01*
X272111Y118038D01*
X272148Y118220D01*
X272202Y118421D01*
X272330Y118858D01*
X272421Y119094D01*
X272549Y119331D01*
X272676Y119568D01*
X272822Y119805D01*
X273004Y120023D01*
X273204Y120242D01*
X273222Y120260D01*
X273259Y120296D01*
X273313Y120351D01*
X273405Y120424D01*
X273532Y120515D01*
X273659Y120606D01*
X273823Y120715D01*
X274005Y120825D01*
X274206Y120916D01*
X274424Y121025D01*
X274679Y121116D01*
X274934Y121207D01*
X275207Y121280D01*
X275517Y121335D01*
X275827Y121371D01*
X276154Y121389D01*
X276318D01*
X276446Y121371D01*
D02*
G37*
G36*
X326136Y141526D02*
X316283D01*
X316302Y141508D01*
X316374Y141417D01*
X316484Y141307D01*
X316611Y141125D01*
X316775Y140925D01*
X316957Y140670D01*
X317158Y140379D01*
X317358Y140051D01*
Y140033D01*
X317376Y140014D01*
X317449Y139905D01*
X317540Y139723D01*
X317649Y139504D01*
X317777Y139249D01*
X317904Y138976D01*
X318032Y138703D01*
X318141Y138430D01*
X316648D01*
Y138448D01*
X316611Y138485D01*
X316593Y138558D01*
X316538Y138649D01*
X316484Y138758D01*
X316411Y138885D01*
X316229Y139195D01*
X316028Y139559D01*
X315774Y139923D01*
X315482Y140306D01*
X315173Y140688D01*
X315154Y140707D01*
X315136Y140725D01*
X315081Y140779D01*
X315027Y140852D01*
X314845Y141016D01*
X314626Y141235D01*
X314371Y141453D01*
X314080Y141690D01*
X313788Y141890D01*
X313479Y142072D01*
Y143074D01*
X326136D01*
Y141526D01*
D02*
G37*
G36*
X244165Y46929D02*
X244311Y46911D01*
X244475Y46893D01*
X244657Y46874D01*
X244839Y46820D01*
X245276Y46710D01*
X245713Y46547D01*
X245932Y46437D01*
X246150Y46310D01*
X246350Y46146D01*
X246551Y45982D01*
X246569Y45964D01*
X246587Y45946D01*
X246642Y45891D01*
X246715Y45818D01*
X246787Y45709D01*
X246879Y45599D01*
X247061Y45326D01*
X247243Y44980D01*
X247407Y44580D01*
X247534Y44124D01*
X247552Y43888D01*
X247571Y43633D01*
Y43614D01*
Y43596D01*
Y43487D01*
X247552Y43323D01*
X247516Y43123D01*
X247461Y42868D01*
X247370Y42613D01*
X247261Y42358D01*
X247097Y42103D01*
X247079Y42066D01*
X247006Y41994D01*
X246897Y41884D01*
X246751Y41739D01*
X246551Y41575D01*
X246314Y41411D01*
X246041Y41247D01*
X245713Y41101D01*
X245731D01*
X245768Y41083D01*
X245822Y41065D01*
X245895Y41028D01*
X246114Y40937D01*
X246369Y40810D01*
X246642Y40628D01*
X246933Y40427D01*
X247206Y40172D01*
X247461Y39881D01*
Y39863D01*
X247480Y39845D01*
X247552Y39735D01*
X247662Y39553D01*
X247771Y39316D01*
X247880Y39025D01*
X247990Y38679D01*
X248062Y38297D01*
X248081Y37878D01*
Y37859D01*
Y37805D01*
Y37714D01*
X248062Y37604D01*
X248044Y37477D01*
X248026Y37313D01*
X247990Y37131D01*
X247935Y36931D01*
X247807Y36512D01*
X247716Y36275D01*
X247589Y36056D01*
X247461Y35820D01*
X247316Y35601D01*
X247134Y35383D01*
X246933Y35164D01*
X246915Y35146D01*
X246879Y35110D01*
X246824Y35055D01*
X246733Y35000D01*
X246605Y34909D01*
X246478Y34818D01*
X246314Y34727D01*
X246132Y34618D01*
X245932Y34509D01*
X245695Y34418D01*
X245440Y34326D01*
X245185Y34235D01*
X244893Y34181D01*
X244584Y34126D01*
X244274Y34090D01*
X243928Y34072D01*
X243746D01*
X243619Y34090D01*
X243455Y34108D01*
X243273Y34126D01*
X243072Y34162D01*
X242854Y34217D01*
X242362Y34345D01*
X242107Y34436D01*
X241870Y34527D01*
X241615Y34654D01*
X241360Y34800D01*
X241124Y34964D01*
X240905Y35164D01*
X240887Y35182D01*
X240851Y35219D01*
X240796Y35273D01*
X240723Y35364D01*
X240650Y35474D01*
X240541Y35601D01*
X240450Y35747D01*
X240341Y35929D01*
X240231Y36111D01*
X240140Y36330D01*
X239958Y36785D01*
X239885Y37058D01*
X239831Y37331D01*
X239794Y37623D01*
X239776Y37914D01*
Y37932D01*
Y37969D01*
Y38042D01*
X239794Y38115D01*
Y38224D01*
X239812Y38351D01*
X239849Y38643D01*
X239922Y38970D01*
X240031Y39298D01*
X240195Y39644D01*
X240395Y39972D01*
Y39990D01*
X240432Y40009D01*
X240504Y40100D01*
X240650Y40245D01*
X240851Y40427D01*
X241105Y40609D01*
X241415Y40810D01*
X241761Y40974D01*
X242180Y41101D01*
X242162D01*
X242143Y41119D01*
X242089Y41138D01*
X242016Y41174D01*
X241852Y41247D01*
X241634Y41356D01*
X241397Y41502D01*
X241160Y41684D01*
X240942Y41884D01*
X240741Y42103D01*
X240723Y42139D01*
X240668Y42212D01*
X240595Y42358D01*
X240523Y42540D01*
X240432Y42777D01*
X240359Y43050D01*
X240304Y43359D01*
X240286Y43687D01*
Y43706D01*
Y43742D01*
Y43815D01*
X240304Y43924D01*
X240322Y44033D01*
X240341Y44179D01*
X240413Y44489D01*
X240523Y44853D01*
X240705Y45235D01*
X240814Y45436D01*
X240942Y45636D01*
X241105Y45818D01*
X241269Y46000D01*
X241288Y46018D01*
X241324Y46037D01*
X241379Y46091D01*
X241451Y46146D01*
X241542Y46219D01*
X241670Y46292D01*
X241816Y46383D01*
X241961Y46474D01*
X242143Y46565D01*
X242344Y46656D01*
X242562Y46729D01*
X242799Y46802D01*
X243309Y46911D01*
X243601Y46929D01*
X243892Y46947D01*
X244056D01*
X244165Y46929D01*
D02*
G37*
G36*
X58953Y205150D02*
X61976D01*
Y203602D01*
X58953D01*
Y198120D01*
X57532D01*
X49373Y203893D01*
Y205150D01*
X57532D01*
Y206862D01*
X58953D01*
Y205150D01*
D02*
G37*
G36*
X50364Y11430D02*
X48816D01*
Y21283D01*
X48798Y21264D01*
X48707Y21191D01*
X48597Y21082D01*
X48415Y20955D01*
X48215Y20791D01*
X47960Y20609D01*
X47669Y20408D01*
X47341Y20208D01*
X47323D01*
X47304Y20190D01*
X47195Y20117D01*
X47013Y20026D01*
X46795Y19917D01*
X46540Y19789D01*
X46266Y19662D01*
X45993Y19534D01*
X45720Y19425D01*
Y20918D01*
X45738D01*
X45775Y20955D01*
X45848Y20973D01*
X45939Y21028D01*
X46048Y21082D01*
X46175Y21155D01*
X46485Y21337D01*
X46849Y21537D01*
X47213Y21793D01*
X47596Y22084D01*
X47978Y22394D01*
X47997Y22412D01*
X48015Y22430D01*
X48069Y22485D01*
X48142Y22539D01*
X48306Y22721D01*
X48525Y22940D01*
X48743Y23195D01*
X48980Y23486D01*
X49180Y23778D01*
X49362Y24087D01*
X50364D01*
Y11430D01*
D02*
G37*
G36*
X61976Y85646D02*
X52123D01*
X52142Y85628D01*
X52214Y85537D01*
X52324Y85428D01*
X52451Y85245D01*
X52615Y85045D01*
X52797Y84790D01*
X52998Y84499D01*
X53198Y84171D01*
Y84153D01*
X53216Y84134D01*
X53289Y84025D01*
X53380Y83843D01*
X53489Y83624D01*
X53617Y83370D01*
X53744Y83096D01*
X53872Y82823D01*
X53981Y82550D01*
X52488D01*
Y82568D01*
X52451Y82605D01*
X52433Y82677D01*
X52378Y82768D01*
X52324Y82878D01*
X52251Y83005D01*
X52069Y83315D01*
X51869Y83679D01*
X51613Y84043D01*
X51322Y84426D01*
X51013Y84808D01*
X50994Y84826D01*
X50976Y84845D01*
X50921Y84899D01*
X50867Y84972D01*
X50685Y85136D01*
X50466Y85355D01*
X50211Y85573D01*
X49920Y85810D01*
X49628Y86010D01*
X49319Y86192D01*
Y87194D01*
X61976D01*
Y85646D01*
D02*
G37*
G36*
X67890Y318770D02*
X66342D01*
Y328623D01*
X66324Y328604D01*
X66233Y328531D01*
X66123Y328422D01*
X65941Y328295D01*
X65741Y328131D01*
X65486Y327949D01*
X65195Y327748D01*
X64867Y327548D01*
X64849D01*
X64830Y327530D01*
X64721Y327457D01*
X64539Y327366D01*
X64321Y327257D01*
X64065Y327129D01*
X63792Y327002D01*
X63519Y326874D01*
X63246Y326765D01*
Y328258D01*
X63264D01*
X63301Y328295D01*
X63373Y328313D01*
X63464Y328368D01*
X63574Y328422D01*
X63701Y328495D01*
X64011Y328677D01*
X64375Y328877D01*
X64739Y329132D01*
X65122Y329424D01*
X65504Y329734D01*
X65522Y329752D01*
X65541Y329770D01*
X65595Y329825D01*
X65668Y329879D01*
X65832Y330061D01*
X66051Y330280D01*
X66269Y330535D01*
X66506Y330826D01*
X66706Y331118D01*
X66888Y331427D01*
X67890D01*
Y318770D01*
D02*
G37*
%LPC*%
G36*
X298832Y368702D02*
X293187D01*
X298832Y364732D01*
Y368702D01*
D02*
G37*
G36*
X57532Y203602D02*
X51887D01*
X57532Y199632D01*
Y203602D01*
D02*
G37*
G36*
X243928Y375872D02*
X243783D01*
X243619Y375836D01*
X243400Y375799D01*
X243163Y375727D01*
X242908Y375636D01*
X242672Y375490D01*
X242435Y375290D01*
X242417Y375271D01*
X242344Y375199D01*
X242253Y375071D01*
X242162Y374907D01*
X242052Y374707D01*
X241961Y374470D01*
X241889Y374215D01*
X241870Y373924D01*
Y373905D01*
Y373887D01*
X241889Y373778D01*
X241907Y373614D01*
X241943Y373414D01*
X242016Y373177D01*
X242107Y372940D01*
X242253Y372685D01*
X242435Y372467D01*
X242453Y372449D01*
X242544Y372376D01*
X242672Y372285D01*
X242836Y372194D01*
X243054Y372084D01*
X243309Y371993D01*
X243601Y371920D01*
X243928Y371902D01*
X243965D01*
X244074Y371920D01*
X244238Y371939D01*
X244456Y371975D01*
X244693Y372048D01*
X244930Y372139D01*
X245185Y372285D01*
X245403Y372467D01*
X245422Y372485D01*
X245494Y372576D01*
X245586Y372685D01*
X245695Y372849D01*
X245804Y373050D01*
X245895Y373286D01*
X245968Y373559D01*
X245986Y373851D01*
Y373869D01*
Y373887D01*
Y373997D01*
X245950Y374160D01*
X245913Y374361D01*
X245840Y374579D01*
X245731Y374816D01*
X245586Y375053D01*
X245385Y375290D01*
X245367Y375308D01*
X245276Y375381D01*
X245149Y375472D01*
X244985Y375581D01*
X244766Y375690D01*
X244529Y375781D01*
X244238Y375854D01*
X243928Y375872D01*
D02*
G37*
G36*
X243874Y370646D02*
X243764D01*
X243692Y370627D01*
X243491Y370609D01*
X243236Y370555D01*
X242945Y370463D01*
X242654Y370336D01*
X242344Y370154D01*
X242071Y369917D01*
X242034Y369881D01*
X241961Y369790D01*
X241852Y369626D01*
X241725Y369425D01*
X241579Y369152D01*
X241470Y368843D01*
X241397Y368497D01*
X241360Y368114D01*
Y368078D01*
Y368005D01*
X241379Y367877D01*
X241397Y367714D01*
X241433Y367513D01*
X241488Y367295D01*
X241561Y367076D01*
X241652Y366839D01*
X241670Y366821D01*
X241707Y366730D01*
X241779Y366621D01*
X241889Y366493D01*
X242016Y366329D01*
X242180Y366166D01*
X242362Y366020D01*
X242581Y365874D01*
X242617Y365856D01*
X242690Y365820D01*
X242817Y365765D01*
X242981Y365710D01*
X243182Y365656D01*
X243418Y365601D01*
X243673Y365564D01*
X243928Y365546D01*
X244038D01*
X244110Y365564D01*
X244329Y365583D01*
X244584Y365637D01*
X244875Y365728D01*
X245185Y365838D01*
X245476Y366020D01*
X245768Y366256D01*
X245804Y366293D01*
X245877Y366384D01*
X246004Y366548D01*
X246132Y366748D01*
X246259Y367003D01*
X246387Y367313D01*
X246460Y367677D01*
X246496Y368060D01*
Y368078D01*
Y368114D01*
Y368169D01*
X246478Y368242D01*
X246460Y368442D01*
X246405Y368715D01*
X246314Y368988D01*
X246187Y369298D01*
X246004Y369608D01*
X245749Y369899D01*
X245713Y369935D01*
X245622Y370008D01*
X245458Y370136D01*
X245240Y370281D01*
X244966Y370409D01*
X244639Y370536D01*
X244274Y370609D01*
X243874Y370646D01*
D02*
G37*
G36*
X243928Y45672D02*
X243783D01*
X243619Y45636D01*
X243400Y45599D01*
X243163Y45527D01*
X242908Y45436D01*
X242672Y45290D01*
X242435Y45090D01*
X242417Y45071D01*
X242344Y44998D01*
X242253Y44871D01*
X242162Y44707D01*
X242052Y44507D01*
X241961Y44270D01*
X241889Y44015D01*
X241870Y43724D01*
Y43706D01*
Y43687D01*
X241889Y43578D01*
X241907Y43414D01*
X241943Y43214D01*
X242016Y42977D01*
X242107Y42740D01*
X242253Y42485D01*
X242435Y42267D01*
X242453Y42249D01*
X242544Y42176D01*
X242672Y42085D01*
X242836Y41994D01*
X243054Y41884D01*
X243309Y41793D01*
X243601Y41720D01*
X243928Y41702D01*
X243965D01*
X244074Y41720D01*
X244238Y41739D01*
X244456Y41775D01*
X244693Y41848D01*
X244930Y41939D01*
X245185Y42085D01*
X245403Y42267D01*
X245422Y42285D01*
X245494Y42376D01*
X245586Y42485D01*
X245695Y42649D01*
X245804Y42849D01*
X245895Y43086D01*
X245968Y43359D01*
X245986Y43651D01*
Y43669D01*
Y43687D01*
Y43797D01*
X245950Y43960D01*
X245913Y44161D01*
X245840Y44379D01*
X245731Y44616D01*
X245586Y44853D01*
X245385Y45090D01*
X245367Y45108D01*
X245276Y45181D01*
X245149Y45272D01*
X244985Y45381D01*
X244766Y45490D01*
X244529Y45581D01*
X244238Y45654D01*
X243928Y45672D01*
D02*
G37*
G36*
X243874Y40446D02*
X243764D01*
X243692Y40427D01*
X243491Y40409D01*
X243236Y40354D01*
X242945Y40264D01*
X242654Y40136D01*
X242344Y39954D01*
X242071Y39717D01*
X242034Y39681D01*
X241961Y39590D01*
X241852Y39426D01*
X241725Y39225D01*
X241579Y38952D01*
X241470Y38643D01*
X241397Y38297D01*
X241360Y37914D01*
Y37878D01*
Y37805D01*
X241379Y37677D01*
X241397Y37513D01*
X241433Y37313D01*
X241488Y37095D01*
X241561Y36876D01*
X241652Y36639D01*
X241670Y36621D01*
X241707Y36530D01*
X241779Y36421D01*
X241889Y36293D01*
X242016Y36129D01*
X242180Y35965D01*
X242362Y35820D01*
X242581Y35674D01*
X242617Y35656D01*
X242690Y35619D01*
X242817Y35565D01*
X242981Y35510D01*
X243182Y35456D01*
X243418Y35401D01*
X243673Y35364D01*
X243928Y35346D01*
X244038D01*
X244110Y35364D01*
X244329Y35383D01*
X244584Y35437D01*
X244875Y35528D01*
X245185Y35638D01*
X245476Y35820D01*
X245768Y36056D01*
X245804Y36093D01*
X245877Y36184D01*
X246004Y36348D01*
X246132Y36548D01*
X246259Y36803D01*
X246387Y37113D01*
X246460Y37477D01*
X246496Y37859D01*
Y37878D01*
Y37914D01*
Y37969D01*
X246478Y38042D01*
X246460Y38242D01*
X246405Y38515D01*
X246314Y38788D01*
X246187Y39098D01*
X246004Y39407D01*
X245749Y39699D01*
X245713Y39735D01*
X245622Y39808D01*
X245458Y39936D01*
X245240Y40081D01*
X244966Y40209D01*
X244639Y40336D01*
X244274Y40409D01*
X243874Y40446D01*
D02*
G37*
%LPD*%
D22*
X139446Y96520D02*
G03*
X139446Y53340I0J-21590D01*
G01*
X200406D02*
G03*
X200406Y96520I0J21590D01*
G01*
X139446Y53340D02*
X200406D01*
X139446Y96520D02*
X200406D01*
D25*
X0Y365506D02*
X314960D01*
X0Y0D02*
X314960D01*
X0D02*
X314960D01*
Y365506D01*
X0D02*
X314960D01*
X0Y0D02*
Y365506D01*
D33*
X139446Y91440D02*
G03*
X139446Y58420I0J-16510D01*
G01*
X200406D02*
G03*
X200406Y91440I0J16510D01*
G01*
X139446Y58420D02*
X200406D01*
X139446Y91440D02*
X200406D01*
X167386Y82550D02*
X172466D01*
Y67310D02*
Y82550D01*
X167386Y67310D02*
X172466D01*
X167386D02*
Y82550D01*
X176276Y74930D02*
Y82550D01*
Y67310D02*
Y74930D01*
X163576D02*
Y82550D01*
Y67310D02*
Y74930D01*
X176276D02*
X182626D01*
X157226D02*
X163576D01*
X42926Y100330D02*
Y113030D01*
X49276Y119380D01*
X61976D02*
X68326Y113030D01*
X42926Y125730D02*
X49276Y119380D01*
X42926Y125730D02*
Y138430D01*
X49276Y144780D01*
X61976D02*
X68326Y138430D01*
Y125730D02*
Y138430D01*
X61976Y119380D02*
X68326Y125730D01*
X49276Y93980D02*
X61976D01*
X42926Y100330D02*
X49276Y93980D01*
X61976D02*
X68326Y100330D01*
Y113030D01*
X42926Y151130D02*
X49276Y144780D01*
X42926Y151130D02*
Y163830D01*
X49276Y170180D01*
X61976D02*
X68326Y163830D01*
Y151130D02*
Y163830D01*
X61976Y144780D02*
X68326Y151130D01*
X42926Y176530D02*
Y189230D01*
X49276Y195580D01*
X61976D01*
X68326Y189230D01*
X42926Y176530D02*
X49276Y170180D01*
X61976D02*
X68326Y176530D01*
Y189230D01*
X61976Y30480D02*
X74676D01*
X81026Y24130D01*
X74676Y5080D02*
X81026Y11430D01*
Y24130D02*
X87376Y30480D01*
X100076D01*
X106426Y24130D01*
X100076Y5080D02*
X106426Y11430D01*
X87376Y5080D02*
X100076D01*
X81026Y11430D02*
X87376Y5080D01*
X55626Y11430D02*
Y24130D01*
X61976Y30480D01*
X55626Y11430D02*
X61976Y5080D01*
X74676D01*
X106426Y24130D02*
X112776Y30480D01*
X125476D01*
X131826Y24130D01*
X125476Y5080D02*
X131826Y11430D01*
X112776Y5080D02*
X125476D01*
X106426Y11430D02*
X112776Y5080D01*
X138176Y30480D02*
X150876D01*
X157226Y24130D01*
X150876Y5080D02*
X157226Y11430D01*
X131826Y24130D02*
X138176Y30480D01*
X131826Y11430D02*
X138176Y5080D01*
X150876D01*
X163576Y30480D02*
X176276D01*
X182626Y24130D01*
X176276Y5080D02*
X182626Y11430D01*
Y24130D02*
X188976Y30480D01*
X201676D01*
X208026Y24130D01*
X201676Y5080D02*
X208026Y11430D01*
X188976Y5080D02*
X201676D01*
X182626Y11430D02*
X188976Y5080D01*
X157226Y24130D02*
X163576Y30480D01*
X157226Y11430D02*
X163576Y5080D01*
X176276D01*
X208026Y24130D02*
X214376Y30480D01*
X227076D01*
X233426Y24130D01*
X227076Y5080D02*
X233426Y11430D01*
X214376Y5080D02*
X227076D01*
X208026Y11430D02*
X214376Y5080D01*
X239776Y30480D02*
X252476D01*
X258826Y24130D01*
Y11430D02*
Y24130D01*
X252476Y5080D02*
X258826Y11430D01*
X233426Y24130D02*
X239776Y30480D01*
X233426Y11430D02*
X239776Y5080D01*
X252476D01*
X61976Y360680D02*
X74676D01*
X81026Y354330D01*
X74676Y335280D02*
X81026Y341630D01*
Y354330D02*
X87376Y360680D01*
X100076D01*
X106426Y354330D01*
X100076Y335280D02*
X106426Y341630D01*
X87376Y335280D02*
X100076D01*
X81026Y341630D02*
X87376Y335280D01*
X55626Y341630D02*
Y354330D01*
X61976Y360680D01*
X55626Y341630D02*
X61976Y335280D01*
X74676D01*
X106426Y354330D02*
X112776Y360680D01*
X125476D01*
X131826Y354330D01*
X125476Y335280D02*
X131826Y341630D01*
X112776Y335280D02*
X125476D01*
X106426Y341630D02*
X112776Y335280D01*
X138176Y360680D02*
X150876D01*
X157226Y354330D01*
X150876Y335280D02*
X157226Y341630D01*
X131826Y354330D02*
X138176Y360680D01*
X131826Y341630D02*
X138176Y335280D01*
X150876D01*
X163576Y360680D02*
X176276D01*
X182626Y354330D01*
X176276Y335280D02*
X182626Y341630D01*
Y354330D02*
X188976Y360680D01*
X201676D01*
X208026Y354330D01*
X201676Y335280D02*
X208026Y341630D01*
X188976Y335280D02*
X201676D01*
X182626Y341630D02*
X188976Y335280D01*
X157226Y354330D02*
X163576Y360680D01*
X157226Y341630D02*
X163576Y335280D01*
X176276D01*
X208026Y354330D02*
X214376Y360680D01*
X227076D01*
X233426Y354330D01*
X227076Y335280D02*
X233426Y341630D01*
X214376Y335280D02*
X227076D01*
X208026Y341630D02*
X214376Y335280D01*
X239776Y360680D02*
X252476D01*
X258826Y354330D01*
Y341630D02*
Y354330D01*
X252476Y335280D02*
X258826Y341630D01*
X233426Y354330D02*
X239776Y360680D01*
X233426Y341630D02*
X239776Y335280D01*
X252476D01*
X4826Y36830D02*
Y49530D01*
X11176Y55880D01*
X23876D02*
X30226Y49530D01*
X4826Y62230D02*
X11176Y55880D01*
X4826Y62230D02*
Y74930D01*
X11176Y81280D01*
X23876D02*
X30226Y74930D01*
Y62230D02*
Y74930D01*
X23876Y55880D02*
X30226Y62230D01*
X11176Y30480D02*
X23876D01*
X4826Y36830D02*
X11176Y30480D01*
X23876D02*
X30226Y36830D01*
Y49530D01*
X4826Y87630D02*
X11176Y81280D01*
X4826Y87630D02*
Y100330D01*
X11176Y106680D01*
X23876D02*
X30226Y100330D01*
Y87630D02*
Y100330D01*
X23876Y81280D02*
X30226Y87630D01*
X4826Y113030D02*
Y125730D01*
X11176Y132080D01*
X23876D02*
X30226Y125730D01*
X4826Y138430D02*
X11176Y132080D01*
X4826Y138430D02*
Y151130D01*
X11176Y157480D01*
X23876D02*
X30226Y151130D01*
Y138430D02*
Y151130D01*
X23876Y132080D02*
X30226Y138430D01*
X4826Y113030D02*
X11176Y106680D01*
X23876D02*
X30226Y113030D01*
Y125730D01*
X4826Y163830D02*
X11176Y157480D01*
X4826Y163830D02*
Y176530D01*
X11176Y182880D01*
X23876D02*
X30226Y176530D01*
Y163830D02*
Y176530D01*
X23876Y157480D02*
X30226Y163830D01*
X4826Y189230D02*
Y201930D01*
X11176Y208280D01*
X23876D02*
X30226Y201930D01*
X4826Y214630D02*
X11176Y208280D01*
X4826Y214630D02*
Y227330D01*
X11176Y233680D01*
X23876D02*
X30226Y227330D01*
Y214630D02*
Y227330D01*
X23876Y208280D02*
X30226Y214630D01*
X4826Y189230D02*
X11176Y182880D01*
X23876D02*
X30226Y189230D01*
Y201930D01*
X4826Y240030D02*
X11176Y233680D01*
X4826Y240030D02*
Y252730D01*
X11176Y259080D01*
X23876D02*
X30226Y252730D01*
Y240030D02*
Y252730D01*
X23876Y233680D02*
X30226Y240030D01*
X4826Y265430D02*
Y278130D01*
X11176Y284480D01*
X23876D02*
X30226Y278130D01*
X4826Y290830D02*
X11176Y284480D01*
X4826Y290830D02*
Y303530D01*
X11176Y309880D01*
X23876D02*
X30226Y303530D01*
Y290830D02*
Y303530D01*
X23876Y284480D02*
X30226Y290830D01*
X4826Y265430D02*
X11176Y259080D01*
X23876D02*
X30226Y265430D01*
Y278130D01*
X4826Y316230D02*
X11176Y309880D01*
X4826Y316230D02*
Y328930D01*
X11176Y335280D01*
X23876D02*
X30226Y328930D01*
Y316230D02*
Y328930D01*
X23876Y309880D02*
X30226Y316230D01*
X11176Y335280D02*
X23876D01*
X284226Y11430D02*
Y24130D01*
X290576Y30480D01*
X303276D02*
X309626Y24130D01*
X284226Y36830D02*
X290576Y30480D01*
X284226Y36830D02*
Y49530D01*
X290576Y55880D01*
X303276D02*
X309626Y49530D01*
Y36830D02*
Y49530D01*
X303276Y30480D02*
X309626Y36830D01*
X290576Y5080D02*
X303276D01*
X284226Y11430D02*
X290576Y5080D01*
X303276D02*
X309626Y11430D01*
Y24130D01*
X284226Y62230D02*
X290576Y55880D01*
X284226Y62230D02*
Y74930D01*
X290576Y81280D01*
X303276D02*
X309626Y74930D01*
Y62230D02*
Y74930D01*
X303276Y55880D02*
X309626Y62230D01*
X284226Y87630D02*
Y100330D01*
X290576Y106680D01*
X303276D02*
X309626Y100330D01*
X284226Y113030D02*
X290576Y106680D01*
X284226Y113030D02*
Y125730D01*
X290576Y132080D01*
X303276D01*
X309626Y125730D01*
Y113030D02*
Y125730D01*
X303276Y106680D02*
X309626Y113030D01*
X284226Y87630D02*
X290576Y81280D01*
X303276D02*
X309626Y87630D01*
Y100330D01*
X284226Y138430D02*
Y151130D01*
X290576Y157480D01*
X303276D02*
X309626Y151130D01*
X284226Y163830D02*
X290576Y157480D01*
X284226Y163830D02*
Y176530D01*
X290576Y182880D01*
X303276D02*
X309626Y176530D01*
Y163830D02*
Y176530D01*
X303276Y157480D02*
X309626Y163830D01*
X290576Y132080D02*
X303276D01*
X284226Y138430D02*
X290576Y132080D01*
X303276D02*
X309626Y138430D01*
Y151130D01*
X284226Y189230D02*
X290576Y182880D01*
X284226Y189230D02*
Y201930D01*
X290576Y208280D01*
X303276D02*
X309626Y201930D01*
Y189230D02*
Y201930D01*
X303276Y182880D02*
X309626Y189230D01*
X284226Y214630D02*
Y227330D01*
X290576Y233680D01*
X303276D02*
X309626Y227330D01*
X284226Y240030D02*
X290576Y233680D01*
X284226Y240030D02*
Y252730D01*
X290576Y259080D01*
X303276D01*
X309626Y252730D01*
Y240030D02*
Y252730D01*
X303276Y233680D02*
X309626Y240030D01*
X284226Y214630D02*
X290576Y208280D01*
X303276D02*
X309626Y214630D01*
Y227330D01*
X284226Y265430D02*
Y278130D01*
X290576Y284480D01*
X303276D02*
X309626Y278130D01*
X284226Y290830D02*
X290576Y284480D01*
X284226Y290830D02*
Y303530D01*
X290576Y309880D01*
X303276D02*
X309626Y303530D01*
Y290830D02*
Y303530D01*
X303276Y284480D02*
X309626Y290830D01*
X290576Y259080D02*
X303276D01*
X284226Y265430D02*
X290576Y259080D01*
X303276D02*
X309626Y265430D01*
Y278130D01*
X284226Y316230D02*
X290576Y309880D01*
X284226Y316230D02*
Y328930D01*
X290576Y335280D01*
X303276D02*
X309626Y328930D01*
Y316230D02*
Y328930D01*
X303276Y309880D02*
X309626Y316230D01*
X284226Y341630D02*
Y354330D01*
X290576Y360680D01*
X303276D01*
X309626Y354330D01*
X284226Y341630D02*
X290576Y335280D01*
X303276D02*
X309626Y341630D01*
Y354330D01*
D34*
X53594Y319786D02*
G03*
X53594Y319786I-2540J0D01*
G01*
X42738Y224790D02*
Y324828D01*
X117856D01*
Y224790D02*
Y324828D01*
X42738Y224790D02*
X117856D01*
D35*
X192786Y166980D02*
Y173764D01*
X185928D02*
X192786Y166980D01*
X185928Y173764D02*
X192786D01*
D36*
X220201Y156845D02*
D03*
X241571Y88265D02*
D03*
D37*
X234061Y156845D02*
D03*
X227711Y88265D02*
D03*
D38*
X227090Y152908D02*
D03*
X234682Y92202D02*
D03*
D39*
X184785Y328947D02*
D03*
D40*
Y315087D02*
D03*
D41*
X180848Y322058D02*
D03*
M02*
