%FSLAX44Y44*%
%MOMM*%
G71*
G01*
G75*
G04 Layer_Color=32768*
%ADD10C,0.2540*%
G04:AMPARAMS|DCode=11|XSize=1.27mm|YSize=0.3556mm|CornerRadius=0.0356mm|HoleSize=0mm|Usage=FLASHONLY|Rotation=270.000|XOffset=0mm|YOffset=0mm|HoleType=Round|Shape=RoundedRectangle|*
%AMROUNDEDRECTD11*
21,1,1.2700,0.2845,0,0,270.0*
21,1,1.1989,0.3556,0,0,270.0*
1,1,0.0711,-0.1422,-0.5994*
1,1,0.0711,-0.1422,0.5994*
1,1,0.0711,0.1422,0.5994*
1,1,0.0711,0.1422,-0.5994*
%
%ADD11ROUNDEDRECTD11*%
G04:AMPARAMS|DCode=12|XSize=0.3556mm|YSize=1.27mm|CornerRadius=0.0356mm|HoleSize=0mm|Usage=FLASHONLY|Rotation=270.000|XOffset=0mm|YOffset=0mm|HoleType=Round|Shape=RoundedRectangle|*
%AMROUNDEDRECTD12*
21,1,0.3556,1.1989,0,0,270.0*
21,1,0.2845,1.2700,0,0,270.0*
1,1,0.0711,-0.5994,-0.1422*
1,1,0.0711,-0.5994,0.1422*
1,1,0.0711,0.5994,0.1422*
1,1,0.0711,0.5994,-0.1422*
%
%ADD12ROUNDEDRECTD12*%
G04:AMPARAMS|DCode=13|XSize=3.302mm|YSize=3.302mm|CornerRadius=0.3302mm|HoleSize=0mm|Usage=FLASHONLY|Rotation=270.000|XOffset=0mm|YOffset=0mm|HoleType=Round|Shape=RoundedRectangle|*
%AMROUNDEDRECTD13*
21,1,3.3020,2.6416,0,0,270.0*
21,1,2.6416,3.3020,0,0,270.0*
1,1,0.6604,-1.3208,-1.3208*
1,1,0.6604,-1.3208,1.3208*
1,1,0.6604,1.3208,1.3208*
1,1,0.6604,1.3208,-1.3208*
%
%ADD13ROUNDEDRECTD13*%
%ADD14R,1.5240X1.3208*%
%ADD15R,2.4130X2.8194*%
%ADD16R,1.8034X1.6002*%
%ADD17R,1.5240X1.5240*%
%ADD18R,1.3208X1.5240*%
%ADD19R,1.5240X1.5240*%
%ADD20R,1.6002X1.8034*%
%ADD21C,0.6096*%
%ADD22C,0.4064*%
%ADD23C,0.3048*%
%ADD24C,0.0864*%
%ADD25C,0.0500*%
%ADD26C,1.2192*%
%ADD27O,3.0480X1.5240*%
%ADD28O,1.5240X3.0480*%
%ADD29C,0.7580*%
%ADD30C,0.8596*%
%ADD31R,0.5080X1.5240*%
%ADD32R,1.5240X0.5080*%
%ADD33C,0.1524*%
%ADD34C,0.1270*%
%ADD35C,0.2032*%
%ADD36R,0.3250X0.4318*%
%ADD37R,0.3302X0.4318*%
%ADD38R,0.3528X0.3556*%
%ADD39R,0.4318X0.3250*%
%ADD40R,0.4318X0.3302*%
%ADD41R,0.3556X0.3528*%
G04:AMPARAMS|DCode=42|XSize=1.42mm|YSize=0.5056mm|CornerRadius=0.1106mm|HoleSize=0mm|Usage=FLASHONLY|Rotation=270.000|XOffset=0mm|YOffset=0mm|HoleType=Round|Shape=RoundedRectangle|*
%AMROUNDEDRECTD42*
21,1,1.4200,0.2845,0,0,270.0*
21,1,1.1989,0.5056,0,0,270.0*
1,1,0.2211,-0.1422,-0.5994*
1,1,0.2211,-0.1422,0.5994*
1,1,0.2211,0.1422,0.5994*
1,1,0.2211,0.1422,-0.5994*
%
%ADD42ROUNDEDRECTD42*%
G04:AMPARAMS|DCode=43|XSize=0.5056mm|YSize=1.42mm|CornerRadius=0.1106mm|HoleSize=0mm|Usage=FLASHONLY|Rotation=270.000|XOffset=0mm|YOffset=0mm|HoleType=Round|Shape=RoundedRectangle|*
%AMROUNDEDRECTD43*
21,1,0.5056,1.1989,0,0,270.0*
21,1,0.2845,1.4200,0,0,270.0*
1,1,0.2211,-0.5994,-0.1422*
1,1,0.2211,-0.5994,0.1422*
1,1,0.2211,0.5994,0.1422*
1,1,0.2211,0.5994,-0.1422*
%
%ADD43ROUNDEDRECTD43*%
G04:AMPARAMS|DCode=44|XSize=3.452mm|YSize=3.452mm|CornerRadius=0.4052mm|HoleSize=0mm|Usage=FLASHONLY|Rotation=270.000|XOffset=0mm|YOffset=0mm|HoleType=Round|Shape=RoundedRectangle|*
%AMROUNDEDRECTD44*
21,1,3.4520,2.6416,0,0,270.0*
21,1,2.6416,3.4520,0,0,270.0*
1,1,0.8104,-1.3208,-1.3208*
1,1,0.8104,-1.3208,1.3208*
1,1,0.8104,1.3208,1.3208*
1,1,0.8104,1.3208,-1.3208*
%
%ADD44ROUNDEDRECTD44*%
%ADD45R,1.6740X1.4708*%
%ADD46R,2.5630X2.9694*%
%ADD47R,1.9534X1.7502*%
%ADD48R,1.6740X1.6740*%
%ADD49R,1.4708X1.6740*%
%ADD50R,1.6740X1.6740*%
%ADD51R,1.7502X1.9534*%
%ADD52C,1.3692*%
%ADD53O,3.1980X1.6740*%
%ADD54O,1.6740X3.1980*%
%ADD55C,0.9080*%
%ADD56C,1.0096*%
%ADD57R,0.6580X1.6740*%
%ADD58R,1.6740X0.6580*%
G36*
X51587Y65809D02*
X45413D01*
X45850Y65281D01*
X46269Y64717D01*
X46633Y64170D01*
X46979Y63642D01*
X47125Y63405D01*
X47252Y63187D01*
X47380Y62986D01*
X47471Y62823D01*
X47544Y62677D01*
X47598Y62586D01*
X47635Y62513D01*
X47653Y62495D01*
X48017Y61766D01*
X48345Y61038D01*
X48618Y60346D01*
X48727Y60036D01*
X48837Y59727D01*
X48946Y59453D01*
X49019Y59198D01*
X49092Y58980D01*
X49146Y58798D01*
X49201Y58634D01*
X49237Y58525D01*
X49255Y58452D01*
Y58433D01*
X49438Y57687D01*
X49510Y57323D01*
X49565Y56995D01*
X49620Y56685D01*
X49674Y56376D01*
X49711Y56121D01*
X49747Y55866D01*
X49765Y55647D01*
X49784Y55447D01*
X49802Y55265D01*
Y55119D01*
X49820Y55010D01*
Y54937D01*
Y54882D01*
Y54864D01*
X48236D01*
X48181Y55556D01*
X48090Y56193D01*
X47999Y56776D01*
X47944Y57049D01*
X47890Y57304D01*
X47853Y57523D01*
X47799Y57723D01*
X47762Y57905D01*
X47726Y58051D01*
X47689Y58160D01*
X47671Y58251D01*
X47653Y58306D01*
Y58324D01*
X47380Y59162D01*
X47088Y59945D01*
X46943Y60328D01*
X46797Y60692D01*
X46633Y61020D01*
X46487Y61347D01*
X46360Y61639D01*
X46232Y61894D01*
X46123Y62112D01*
X46032Y62313D01*
X45941Y62477D01*
X45886Y62586D01*
X45850Y62659D01*
X45832Y62677D01*
X45613Y63059D01*
X45395Y63442D01*
X45176Y63788D01*
X44957Y64116D01*
X44757Y64407D01*
X44557Y64698D01*
X44356Y64953D01*
X44193Y65172D01*
X44029Y65390D01*
X43883Y65573D01*
X43737Y65718D01*
X43628Y65846D01*
X43555Y65955D01*
X43482Y66028D01*
X43446Y66064D01*
X43428Y66083D01*
Y67303D01*
X51587D01*
Y65809D01*
D02*
G37*
G36*
X58926Y67649D02*
X59509Y67558D01*
X60019Y67448D01*
X60255Y67375D01*
X60474Y67303D01*
X60674Y67230D01*
X60856Y67157D01*
X61002Y67102D01*
X61148Y67048D01*
X61239Y66993D01*
X61312Y66957D01*
X61366Y66938D01*
X61385Y66920D01*
X61876Y66611D01*
X62295Y66246D01*
X62659Y65882D01*
X62969Y65518D01*
X63206Y65190D01*
X63297Y65044D01*
X63370Y64917D01*
X63443Y64826D01*
X63479Y64753D01*
X63497Y64698D01*
X63515Y64680D01*
X63770Y64116D01*
X63952Y63533D01*
X64080Y62950D01*
X64171Y62422D01*
X64207Y62185D01*
X64226Y61948D01*
X64244Y61766D01*
Y61584D01*
X64262Y61457D01*
Y61347D01*
Y61275D01*
Y61256D01*
X64226Y60601D01*
X64153Y59963D01*
X64062Y59399D01*
X63989Y59126D01*
X63934Y58889D01*
X63880Y58670D01*
X63807Y58470D01*
X63752Y58288D01*
X63716Y58142D01*
X63661Y58033D01*
X63643Y57942D01*
X63606Y57887D01*
Y57869D01*
X63333Y57323D01*
X63024Y56831D01*
X62696Y56412D01*
X62532Y56248D01*
X62386Y56084D01*
X62241Y55939D01*
X62095Y55811D01*
X61967Y55702D01*
X61858Y55629D01*
X61785Y55556D01*
X61712Y55501D01*
X61676Y55483D01*
X61658Y55465D01*
X61403Y55319D01*
X61148Y55192D01*
X60601Y54991D01*
X60055Y54846D01*
X59527Y54755D01*
X59272Y54718D01*
X59053Y54682D01*
X58853Y54664D01*
X58689D01*
X58544Y54646D01*
X58343D01*
X57979Y54664D01*
X57633Y54700D01*
X57305Y54736D01*
X56996Y54809D01*
X56704Y54900D01*
X56431Y54991D01*
X56176Y55083D01*
X55939Y55192D01*
X55739Y55283D01*
X55539Y55374D01*
X55393Y55465D01*
X55247Y55556D01*
X55156Y55629D01*
X55065Y55665D01*
X55029Y55702D01*
X55010Y55720D01*
X54755Y55939D01*
X54537Y56157D01*
X54337Y56412D01*
X54136Y56667D01*
X53808Y57177D01*
X53554Y57687D01*
X53444Y57924D01*
X53353Y58142D01*
X53280Y58342D01*
X53226Y58506D01*
X53171Y58652D01*
X53135Y58761D01*
X53116Y58834D01*
Y58852D01*
X54792Y59271D01*
X54865Y58980D01*
X54956Y58707D01*
X55047Y58452D01*
X55138Y58215D01*
X55247Y57996D01*
X55356Y57814D01*
X55484Y57632D01*
X55593Y57468D01*
X55684Y57323D01*
X55793Y57213D01*
X55885Y57104D01*
X55957Y57013D01*
X56030Y56958D01*
X56085Y56904D01*
X56103Y56885D01*
X56121Y56867D01*
X56303Y56722D01*
X56504Y56612D01*
X56904Y56412D01*
X57287Y56266D01*
X57669Y56175D01*
X57997Y56102D01*
X58125Y56084D01*
X58252D01*
X58361Y56066D01*
X58489D01*
X58908Y56084D01*
X59308Y56157D01*
X59673Y56248D01*
X60000Y56357D01*
X60255Y56467D01*
X60365Y56521D01*
X60456Y56558D01*
X60529Y56594D01*
X60583Y56631D01*
X60620Y56649D01*
X60638D01*
X60984Y56904D01*
X61275Y57177D01*
X61530Y57487D01*
X61731Y57778D01*
X61894Y58033D01*
X62004Y58251D01*
X62040Y58342D01*
X62077Y58397D01*
X62095Y58433D01*
Y58452D01*
X62241Y58925D01*
X62350Y59399D01*
X62441Y59872D01*
X62495Y60309D01*
X62514Y60510D01*
X62532Y60692D01*
Y60856D01*
X62550Y60983D01*
Y61092D01*
Y61184D01*
Y61238D01*
Y61256D01*
X62532Y61730D01*
X62495Y62167D01*
X62423Y62568D01*
X62350Y62932D01*
X62295Y63241D01*
X62259Y63369D01*
X62222Y63478D01*
X62204Y63569D01*
X62186Y63624D01*
X62168Y63660D01*
Y63678D01*
X61986Y64097D01*
X61785Y64480D01*
X61567Y64789D01*
X61330Y65063D01*
X61130Y65281D01*
X60966Y65427D01*
X60838Y65518D01*
X60820Y65554D01*
X60802D01*
X60419Y65791D01*
X60000Y65973D01*
X59600Y66101D01*
X59217Y66174D01*
X58871Y66228D01*
X58726Y66246D01*
X58598D01*
X58507Y66265D01*
X58361D01*
X57906Y66246D01*
X57487Y66174D01*
X57141Y66064D01*
X56832Y65955D01*
X56595Y65827D01*
X56413Y65736D01*
X56303Y65664D01*
X56267Y65627D01*
X55976Y65354D01*
X55703Y65044D01*
X55484Y64717D01*
X55302Y64389D01*
X55156Y64097D01*
X55101Y63952D01*
X55065Y63842D01*
X55029Y63751D01*
X54992Y63678D01*
X54974Y63642D01*
Y63624D01*
X53335Y64006D01*
X53444Y64334D01*
X53554Y64626D01*
X53699Y64899D01*
X53827Y65172D01*
X53972Y65409D01*
X54136Y65627D01*
X54282Y65846D01*
X54428Y66028D01*
X54573Y66174D01*
X54701Y66319D01*
X54828Y66447D01*
X54919Y66538D01*
X55010Y66629D01*
X55083Y66684D01*
X55120Y66702D01*
X55138Y66720D01*
X55393Y66884D01*
X55648Y67048D01*
X55903Y67175D01*
X56176Y67284D01*
X56722Y67448D01*
X57214Y67558D01*
X57451Y67612D01*
X57651Y67631D01*
X57851Y67649D01*
X58015Y67667D01*
X58143Y67685D01*
X58325D01*
X58926Y67649D01*
D02*
G37*
G36*
X78040Y84230D02*
X78240Y83938D01*
X78477Y83647D01*
X78696Y83392D01*
X78914Y83173D01*
X79078Y82991D01*
X79151Y82937D01*
X79205Y82882D01*
X79224Y82864D01*
X79242Y82845D01*
X79624Y82536D01*
X80007Y82245D01*
X80371Y81989D01*
X80735Y81789D01*
X81045Y81607D01*
X81172Y81534D01*
X81281Y81480D01*
X81373Y81425D01*
X81446Y81407D01*
X81482Y81370D01*
X81500D01*
Y79877D01*
X81227Y79986D01*
X80954Y80114D01*
X80681Y80241D01*
X80426Y80369D01*
X80207Y80478D01*
X80025Y80569D01*
X79916Y80642D01*
X79897Y80660D01*
X79879D01*
X79551Y80860D01*
X79260Y81061D01*
X79005Y81243D01*
X78805Y81407D01*
X78623Y81534D01*
X78513Y81643D01*
X78422Y81716D01*
X78404Y81735D01*
Y71882D01*
X76856D01*
Y84539D01*
X77858D01*
X78040Y84230D01*
D02*
G37*
G36*
X89914Y84667D02*
X90497Y84576D01*
X91007Y84466D01*
X91243Y84394D01*
X91462Y84321D01*
X91662Y84248D01*
X91844Y84175D01*
X91990Y84120D01*
X92136Y84066D01*
X92227Y84011D01*
X92300Y83975D01*
X92354Y83956D01*
X92373Y83938D01*
X92864Y83629D01*
X93283Y83264D01*
X93647Y82900D01*
X93957Y82536D01*
X94194Y82208D01*
X94285Y82062D01*
X94358Y81935D01*
X94431Y81844D01*
X94467Y81771D01*
X94485Y81716D01*
X94503Y81698D01*
X94758Y81134D01*
X94940Y80551D01*
X95068Y79968D01*
X95159Y79440D01*
X95195Y79203D01*
X95214Y78966D01*
X95232Y78784D01*
Y78602D01*
X95250Y78475D01*
Y78365D01*
Y78293D01*
Y78274D01*
X95214Y77619D01*
X95141Y76981D01*
X95050Y76417D01*
X94977Y76144D01*
X94922Y75907D01*
X94868Y75688D01*
X94795Y75488D01*
X94740Y75306D01*
X94704Y75160D01*
X94649Y75051D01*
X94631Y74960D01*
X94594Y74905D01*
Y74887D01*
X94321Y74341D01*
X94012Y73849D01*
X93684Y73430D01*
X93520Y73266D01*
X93374Y73102D01*
X93229Y72957D01*
X93083Y72829D01*
X92955Y72720D01*
X92846Y72647D01*
X92773Y72574D01*
X92700Y72519D01*
X92664Y72501D01*
X92646Y72483D01*
X92391Y72337D01*
X92136Y72210D01*
X91589Y72010D01*
X91043Y71864D01*
X90515Y71773D01*
X90260Y71736D01*
X90041Y71700D01*
X89841Y71682D01*
X89677D01*
X89531Y71663D01*
X89331D01*
X88967Y71682D01*
X88621Y71718D01*
X88293Y71754D01*
X87984Y71827D01*
X87692Y71918D01*
X87419Y72010D01*
X87164Y72101D01*
X86927Y72210D01*
X86727Y72301D01*
X86526Y72392D01*
X86381Y72483D01*
X86235Y72574D01*
X86144Y72647D01*
X86053Y72683D01*
X86017Y72720D01*
X85998Y72738D01*
X85743Y72957D01*
X85525Y73175D01*
X85325Y73430D01*
X85124Y73685D01*
X84796Y74195D01*
X84542Y74705D01*
X84432Y74942D01*
X84341Y75160D01*
X84268Y75360D01*
X84214Y75524D01*
X84159Y75670D01*
X84123Y75779D01*
X84104Y75852D01*
Y75870D01*
X85780Y76289D01*
X85853Y75998D01*
X85944Y75725D01*
X86035Y75470D01*
X86126Y75233D01*
X86235Y75014D01*
X86344Y74832D01*
X86472Y74650D01*
X86581Y74486D01*
X86672Y74341D01*
X86782Y74231D01*
X86873Y74122D01*
X86945Y74031D01*
X87018Y73976D01*
X87073Y73922D01*
X87091Y73903D01*
X87109Y73885D01*
X87291Y73740D01*
X87492Y73630D01*
X87892Y73430D01*
X88275Y73284D01*
X88657Y73193D01*
X88985Y73120D01*
X89113Y73102D01*
X89240D01*
X89349Y73084D01*
X89477D01*
X89896Y73102D01*
X90296Y73175D01*
X90661Y73266D01*
X90988Y73375D01*
X91243Y73485D01*
X91353Y73539D01*
X91444Y73576D01*
X91517Y73612D01*
X91571Y73649D01*
X91608Y73667D01*
X91626D01*
X91972Y73922D01*
X92263Y74195D01*
X92518Y74504D01*
X92719Y74796D01*
X92882Y75051D01*
X92992Y75269D01*
X93028Y75360D01*
X93065Y75415D01*
X93083Y75451D01*
Y75470D01*
X93229Y75943D01*
X93338Y76417D01*
X93429Y76890D01*
X93483Y77327D01*
X93502Y77528D01*
X93520Y77710D01*
Y77874D01*
X93538Y78001D01*
Y78110D01*
Y78201D01*
Y78256D01*
Y78274D01*
X93520Y78748D01*
X93483Y79185D01*
X93411Y79586D01*
X93338Y79950D01*
X93283Y80259D01*
X93247Y80387D01*
X93210Y80496D01*
X93192Y80587D01*
X93174Y80642D01*
X93156Y80678D01*
Y80696D01*
X92973Y81115D01*
X92773Y81498D01*
X92555Y81807D01*
X92318Y82081D01*
X92118Y82299D01*
X91954Y82445D01*
X91826Y82536D01*
X91808Y82572D01*
X91790D01*
X91407Y82809D01*
X90988Y82991D01*
X90588Y83119D01*
X90205Y83191D01*
X89859Y83246D01*
X89714Y83264D01*
X89586D01*
X89495Y83283D01*
X89349D01*
X88894Y83264D01*
X88475Y83191D01*
X88129Y83082D01*
X87820Y82973D01*
X87583Y82845D01*
X87401Y82754D01*
X87291Y82682D01*
X87255Y82645D01*
X86964Y82372D01*
X86691Y82062D01*
X86472Y81735D01*
X86290Y81407D01*
X86144Y81115D01*
X86089Y80970D01*
X86053Y80860D01*
X86017Y80769D01*
X85980Y80696D01*
X85962Y80660D01*
Y80642D01*
X84323Y81024D01*
X84432Y81352D01*
X84542Y81643D01*
X84687Y81917D01*
X84815Y82190D01*
X84960Y82427D01*
X85124Y82645D01*
X85270Y82864D01*
X85416Y83046D01*
X85561Y83191D01*
X85689Y83337D01*
X85816Y83465D01*
X85907Y83556D01*
X85998Y83647D01*
X86071Y83701D01*
X86108Y83720D01*
X86126Y83738D01*
X86381Y83902D01*
X86636Y84066D01*
X86891Y84193D01*
X87164Y84302D01*
X87710Y84466D01*
X88202Y84576D01*
X88439Y84630D01*
X88639Y84649D01*
X88839Y84667D01*
X89003Y84685D01*
X89131Y84703D01*
X89313D01*
X89914Y84667D01*
D02*
G37*
G36*
X72613Y77837D02*
X71156Y77637D01*
X71028Y77837D01*
X70864Y78001D01*
X70719Y78165D01*
X70573Y78293D01*
X70427Y78384D01*
X70318Y78475D01*
X70245Y78511D01*
X70227Y78529D01*
X69990Y78639D01*
X69753Y78730D01*
X69535Y78784D01*
X69316Y78839D01*
X69134Y78857D01*
X68989Y78875D01*
X68643D01*
X68424Y78839D01*
X68042Y78748D01*
X67714Y78620D01*
X67422Y78493D01*
X67204Y78347D01*
X67040Y78220D01*
X66949Y78129D01*
X66912Y78110D01*
Y78092D01*
X66658Y77783D01*
X66475Y77455D01*
X66348Y77109D01*
X66257Y76763D01*
X66202Y76471D01*
X66184Y76344D01*
Y76235D01*
X66166Y76144D01*
Y76071D01*
Y76034D01*
Y76016D01*
Y75761D01*
X66202Y75524D01*
X66293Y75069D01*
X66421Y74687D01*
X66548Y74377D01*
X66694Y74122D01*
X66821Y73922D01*
X66876Y73867D01*
X66912Y73812D01*
X66931Y73794D01*
X66949Y73776D01*
X67095Y73630D01*
X67240Y73503D01*
X67568Y73284D01*
X67878Y73139D01*
X68187Y73048D01*
X68442Y72975D01*
X68661Y72957D01*
X68734Y72938D01*
X68843D01*
X69189Y72957D01*
X69499Y73029D01*
X69772Y73120D01*
X69990Y73230D01*
X70191Y73339D01*
X70336Y73430D01*
X70409Y73503D01*
X70445Y73521D01*
X70664Y73776D01*
X70846Y74049D01*
X70992Y74359D01*
X71101Y74632D01*
X71174Y74905D01*
X71229Y75106D01*
X71247Y75196D01*
X71265Y75251D01*
Y75288D01*
Y75306D01*
X72886Y75178D01*
X72849Y74887D01*
X72795Y74614D01*
X72631Y74104D01*
X72431Y73667D01*
X72321Y73466D01*
X72212Y73302D01*
X72121Y73139D01*
X72012Y72993D01*
X71921Y72884D01*
X71830Y72793D01*
X71757Y72720D01*
X71720Y72647D01*
X71684Y72629D01*
X71666Y72611D01*
X71447Y72447D01*
X71229Y72301D01*
X70992Y72173D01*
X70755Y72064D01*
X70300Y71900D01*
X69844Y71791D01*
X69644Y71736D01*
X69444Y71718D01*
X69280Y71700D01*
X69134Y71682D01*
X69007Y71663D01*
X68843D01*
X68460Y71682D01*
X68096Y71736D01*
X67750Y71809D01*
X67441Y71900D01*
X67149Y72028D01*
X66876Y72155D01*
X66621Y72283D01*
X66403Y72428D01*
X66202Y72574D01*
X66020Y72702D01*
X65874Y72847D01*
X65747Y72957D01*
X65656Y73048D01*
X65583Y73120D01*
X65547Y73175D01*
X65528Y73193D01*
X65346Y73430D01*
X65201Y73685D01*
X65055Y73922D01*
X64946Y74177D01*
X64763Y74668D01*
X64654Y75142D01*
X64618Y75342D01*
X64581Y75543D01*
X64563Y75707D01*
X64545Y75852D01*
X64527Y75980D01*
Y76071D01*
Y76125D01*
Y76144D01*
X64545Y76471D01*
X64581Y76781D01*
X64636Y77091D01*
X64709Y77364D01*
X64800Y77619D01*
X64891Y77874D01*
X65000Y78092D01*
X65091Y78293D01*
X65201Y78475D01*
X65310Y78639D01*
X65401Y78766D01*
X65492Y78893D01*
X65565Y78985D01*
X65619Y79039D01*
X65656Y79076D01*
X65674Y79094D01*
X65893Y79294D01*
X66111Y79476D01*
X66348Y79622D01*
X66585Y79749D01*
X66821Y79877D01*
X67058Y79968D01*
X67495Y80096D01*
X67695Y80150D01*
X67878Y80187D01*
X68042Y80205D01*
X68187Y80223D01*
X68296Y80241D01*
X68697D01*
X68916Y80205D01*
X69353Y80114D01*
X69753Y79986D01*
X70118Y79841D01*
X70409Y79695D01*
X70537Y79622D01*
X70646Y79567D01*
X70737Y79513D01*
X70792Y79476D01*
X70828Y79458D01*
X70846Y79440D01*
X70172Y82845D01*
X65128D01*
Y84321D01*
X71392D01*
X72613Y77837D01*
D02*
G37*
G36*
X65211Y165166D02*
X64919Y165093D01*
X64646Y165002D01*
X64391Y164911D01*
X64154Y164820D01*
X63936Y164711D01*
X63754Y164601D01*
X63572Y164474D01*
X63408Y164364D01*
X63262Y164273D01*
X63153Y164164D01*
X63043Y164073D01*
X62952Y164000D01*
X62898Y163927D01*
X62843Y163873D01*
X62825Y163855D01*
X62807Y163836D01*
X62661Y163654D01*
X62552Y163454D01*
X62351Y163053D01*
X62206Y162671D01*
X62115Y162288D01*
X62042Y161961D01*
X62024Y161833D01*
Y161706D01*
X62005Y161596D01*
Y161523D01*
Y161487D01*
Y161469D01*
X62024Y161050D01*
X62097Y160649D01*
X62188Y160285D01*
X62297Y159957D01*
X62406Y159702D01*
X62461Y159593D01*
X62497Y159502D01*
X62534Y159429D01*
X62570Y159375D01*
X62588Y159338D01*
Y159320D01*
X62843Y158974D01*
X63116Y158682D01*
X63426Y158427D01*
X63717Y158227D01*
X63972Y158063D01*
X64191Y157954D01*
X64282Y157917D01*
X64337Y157881D01*
X64373Y157863D01*
X64391D01*
X64865Y157717D01*
X65338Y157608D01*
X65812Y157517D01*
X66249Y157462D01*
X66449Y157444D01*
X66631Y157426D01*
X66795D01*
X66923Y157408D01*
X67196D01*
X67669Y157426D01*
X68106Y157462D01*
X68507Y157535D01*
X68871Y157608D01*
X69181Y157663D01*
X69308Y157699D01*
X69418Y157735D01*
X69509Y157754D01*
X69563Y157772D01*
X69600Y157790D01*
X69618D01*
X70037Y157972D01*
X70419Y158173D01*
X70729Y158391D01*
X71002Y158628D01*
X71221Y158828D01*
X71366Y158992D01*
X71457Y159120D01*
X71494Y159138D01*
Y159156D01*
X71730Y159538D01*
X71913Y159957D01*
X72040Y160358D01*
X72113Y160740D01*
X72168Y161086D01*
X72186Y161232D01*
Y161360D01*
X72204Y161451D01*
Y161523D01*
Y161578D01*
Y161596D01*
X72186Y162052D01*
X72113Y162470D01*
X72004Y162817D01*
X71894Y163126D01*
X71767Y163363D01*
X71676Y163545D01*
X71603Y163654D01*
X71567Y163691D01*
X71293Y163982D01*
X70984Y164255D01*
X70656Y164474D01*
X70328Y164656D01*
X70037Y164802D01*
X69891Y164856D01*
X69782Y164893D01*
X69691Y164929D01*
X69618Y164965D01*
X69581Y164984D01*
X69563D01*
X69946Y166623D01*
X70274Y166514D01*
X70565Y166404D01*
X70838Y166259D01*
X71111Y166131D01*
X71348Y165985D01*
X71567Y165821D01*
X71785Y165676D01*
X71967Y165530D01*
X72113Y165384D01*
X72259Y165257D01*
X72386Y165129D01*
X72477Y165038D01*
X72568Y164947D01*
X72623Y164874D01*
X72641Y164838D01*
X72659Y164820D01*
X72823Y164565D01*
X72987Y164310D01*
X73115Y164055D01*
X73224Y163782D01*
X73388Y163235D01*
X73497Y162744D01*
X73552Y162507D01*
X73570Y162307D01*
X73588Y162106D01*
X73606Y161942D01*
X73625Y161815D01*
Y161724D01*
Y161651D01*
Y161633D01*
X73588Y161032D01*
X73497Y160449D01*
X73388Y159939D01*
X73315Y159702D01*
X73242Y159484D01*
X73169Y159283D01*
X73096Y159101D01*
X73042Y158956D01*
X72987Y158810D01*
X72933Y158719D01*
X72896Y158646D01*
X72878Y158591D01*
X72860Y158573D01*
X72550Y158081D01*
X72186Y157663D01*
X71822Y157298D01*
X71457Y156989D01*
X71129Y156752D01*
X70984Y156661D01*
X70856Y156588D01*
X70765Y156515D01*
X70692Y156479D01*
X70638Y156461D01*
X70620Y156442D01*
X70055Y156187D01*
X69472Y156005D01*
X68889Y155878D01*
X68361Y155787D01*
X68125Y155750D01*
X67888Y155732D01*
X67706Y155714D01*
X67524D01*
X67396Y155696D01*
X67196D01*
X66540Y155732D01*
X65903Y155805D01*
X65338Y155896D01*
X65065Y155969D01*
X64828Y156024D01*
X64610Y156078D01*
X64409Y156151D01*
X64227Y156206D01*
X64082Y156242D01*
X63972Y156297D01*
X63881Y156315D01*
X63827Y156351D01*
X63808D01*
X63262Y156624D01*
X62770Y156934D01*
X62351Y157262D01*
X62188Y157426D01*
X62024Y157571D01*
X61878Y157717D01*
X61750Y157863D01*
X61641Y157990D01*
X61568Y158100D01*
X61495Y158173D01*
X61441Y158245D01*
X61423Y158282D01*
X61404Y158300D01*
X61259Y158555D01*
X61131Y158810D01*
X60931Y159356D01*
X60785Y159903D01*
X60694Y160431D01*
X60658Y160686D01*
X60621Y160904D01*
X60603Y161105D01*
Y161269D01*
X60585Y161414D01*
Y161523D01*
Y161596D01*
Y161614D01*
X60603Y161979D01*
X60640Y162325D01*
X60676Y162653D01*
X60749Y162962D01*
X60840Y163254D01*
X60931Y163527D01*
X61022Y163782D01*
X61131Y164018D01*
X61222Y164219D01*
X61313Y164419D01*
X61404Y164565D01*
X61495Y164711D01*
X61568Y164802D01*
X61605Y164893D01*
X61641Y164929D01*
X61659Y164947D01*
X61878Y165202D01*
X62097Y165421D01*
X62351Y165621D01*
X62606Y165821D01*
X63116Y166149D01*
X63626Y166404D01*
X63863Y166514D01*
X64082Y166605D01*
X64282Y166677D01*
X64446Y166732D01*
X64591Y166787D01*
X64701Y166823D01*
X64774Y166841D01*
X64792D01*
X65211Y165166D01*
D02*
G37*
G36*
X215415Y46410D02*
X215997Y46319D01*
X216507Y46210D01*
X216744Y46137D01*
X216963Y46064D01*
X217163Y45991D01*
X217345Y45918D01*
X217491Y45864D01*
X217636Y45809D01*
X217727Y45754D01*
X217800Y45718D01*
X217855Y45700D01*
X217873Y45682D01*
X218365Y45372D01*
X218784Y45008D01*
X219148Y44644D01*
X219457Y44279D01*
X219694Y43952D01*
X219785Y43806D01*
X219858Y43678D01*
X219931Y43587D01*
X219967Y43514D01*
X219986Y43460D01*
X220004Y43442D01*
X220259Y42877D01*
X220441Y42294D01*
X220568Y41712D01*
X220660Y41183D01*
X220696Y40947D01*
X220714Y40710D01*
X220732Y40528D01*
Y40346D01*
X220751Y40218D01*
Y40109D01*
Y40036D01*
Y40018D01*
X220714Y39362D01*
X220641Y38725D01*
X220550Y38160D01*
X220477Y37887D01*
X220423Y37650D01*
X220368Y37432D01*
X220295Y37231D01*
X220241Y37049D01*
X220204Y36904D01*
X220149Y36794D01*
X220131Y36703D01*
X220095Y36649D01*
Y36630D01*
X219822Y36084D01*
X219512Y35592D01*
X219184Y35173D01*
X219020Y35010D01*
X218875Y34846D01*
X218729Y34700D01*
X218583Y34572D01*
X218456Y34463D01*
X218347Y34390D01*
X218274Y34318D01*
X218201Y34263D01*
X218164Y34245D01*
X218146Y34226D01*
X217891Y34081D01*
X217636Y33953D01*
X217090Y33753D01*
X216544Y33607D01*
X216015Y33516D01*
X215760Y33480D01*
X215542Y33443D01*
X215342Y33425D01*
X215178D01*
X215032Y33407D01*
X214832D01*
X214467Y33425D01*
X214121Y33461D01*
X213794Y33498D01*
X213484Y33571D01*
X213193Y33662D01*
X212919Y33753D01*
X212665Y33844D01*
X212428Y33953D01*
X212227Y34044D01*
X212027Y34135D01*
X211881Y34226D01*
X211736Y34318D01*
X211645Y34390D01*
X211554Y34427D01*
X211517Y34463D01*
X211499Y34481D01*
X211244Y34700D01*
X211025Y34918D01*
X210825Y35173D01*
X210625Y35428D01*
X210297Y35938D01*
X210042Y36448D01*
X209933Y36685D01*
X209842Y36904D01*
X209769Y37104D01*
X209714Y37268D01*
X209660Y37413D01*
X209623Y37523D01*
X209605Y37596D01*
Y37614D01*
X211280Y38033D01*
X211353Y37741D01*
X211444Y37468D01*
X211535Y37213D01*
X211626Y36976D01*
X211736Y36758D01*
X211845Y36576D01*
X211972Y36394D01*
X212082Y36230D01*
X212173Y36084D01*
X212282Y35975D01*
X212373Y35865D01*
X212446Y35774D01*
X212519Y35720D01*
X212573Y35665D01*
X212592Y35647D01*
X212610Y35629D01*
X212792Y35483D01*
X212992Y35374D01*
X213393Y35173D01*
X213775Y35028D01*
X214158Y34937D01*
X214486Y34864D01*
X214613Y34846D01*
X214741D01*
X214850Y34827D01*
X214977D01*
X215396Y34846D01*
X215797Y34918D01*
X216161Y35010D01*
X216489Y35119D01*
X216744Y35228D01*
X216853Y35283D01*
X216944Y35319D01*
X217017Y35356D01*
X217072Y35392D01*
X217108Y35410D01*
X217126D01*
X217472Y35665D01*
X217764Y35938D01*
X218019Y36248D01*
X218219Y36539D01*
X218383Y36794D01*
X218492Y37013D01*
X218529Y37104D01*
X218565Y37159D01*
X218583Y37195D01*
Y37213D01*
X218729Y37687D01*
X218838Y38160D01*
X218929Y38634D01*
X218984Y39071D01*
X219002Y39271D01*
X219020Y39453D01*
Y39617D01*
X219039Y39745D01*
Y39854D01*
Y39945D01*
Y40000D01*
Y40018D01*
X219020Y40491D01*
X218984Y40928D01*
X218911Y41329D01*
X218838Y41693D01*
X218784Y42003D01*
X218747Y42130D01*
X218711Y42240D01*
X218693Y42331D01*
X218674Y42385D01*
X218656Y42422D01*
Y42440D01*
X218474Y42859D01*
X218274Y43241D01*
X218055Y43551D01*
X217818Y43824D01*
X217618Y44043D01*
X217454Y44188D01*
X217327Y44279D01*
X217309Y44316D01*
X217290D01*
X216908Y44552D01*
X216489Y44735D01*
X216088Y44862D01*
X215706Y44935D01*
X215360Y44990D01*
X215214Y45008D01*
X215087D01*
X214996Y45026D01*
X214850D01*
X214395Y45008D01*
X213976Y44935D01*
X213630Y44826D01*
X213320Y44716D01*
X213083Y44589D01*
X212901Y44498D01*
X212792Y44425D01*
X212756Y44389D01*
X212464Y44115D01*
X212191Y43806D01*
X211972Y43478D01*
X211790Y43150D01*
X211645Y42859D01*
X211590Y42713D01*
X211554Y42604D01*
X211517Y42513D01*
X211481Y42440D01*
X211462Y42403D01*
Y42385D01*
X209823Y42768D01*
X209933Y43096D01*
X210042Y43387D01*
X210188Y43660D01*
X210315Y43933D01*
X210461Y44170D01*
X210625Y44389D01*
X210770Y44607D01*
X210916Y44789D01*
X211062Y44935D01*
X211189Y45081D01*
X211317Y45208D01*
X211408Y45299D01*
X211499Y45390D01*
X211572Y45445D01*
X211608Y45463D01*
X211626Y45481D01*
X211881Y45645D01*
X212136Y45809D01*
X212391Y45937D01*
X212665Y46046D01*
X213211Y46210D01*
X213703Y46319D01*
X213939Y46374D01*
X214140Y46392D01*
X214340Y46410D01*
X214504Y46428D01*
X214631Y46446D01*
X214813D01*
X215415Y46410D01*
D02*
G37*
G36*
X204542Y46264D02*
X204833Y46228D01*
X205125Y46173D01*
X205380Y46101D01*
X205872Y45900D01*
X206090Y45809D01*
X206272Y45700D01*
X206454Y45572D01*
X206600Y45481D01*
X206746Y45372D01*
X206855Y45281D01*
X206946Y45208D01*
X207001Y45153D01*
X207037Y45117D01*
X207055Y45099D01*
X207256Y44880D01*
X207419Y44625D01*
X207583Y44389D01*
X207711Y44134D01*
X207820Y43861D01*
X207911Y43605D01*
X208039Y43132D01*
X208093Y42895D01*
X208130Y42695D01*
X208148Y42495D01*
X208166Y42331D01*
X208184Y42203D01*
Y42112D01*
Y42039D01*
Y42021D01*
X208166Y41675D01*
X208130Y41365D01*
X208093Y41056D01*
X208020Y40764D01*
X207929Y40510D01*
X207838Y40255D01*
X207747Y40036D01*
X207638Y39836D01*
X207547Y39653D01*
X207456Y39490D01*
X207365Y39362D01*
X207274Y39235D01*
X207201Y39144D01*
X207164Y39089D01*
X207128Y39053D01*
X207110Y39034D01*
X206910Y38834D01*
X206691Y38670D01*
X206472Y38506D01*
X206236Y38379D01*
X206017Y38269D01*
X205799Y38178D01*
X205380Y38051D01*
X205198Y37996D01*
X205016Y37960D01*
X204870Y37942D01*
X204724Y37923D01*
X204615Y37905D01*
X204469D01*
X204123Y37923D01*
X203795Y37978D01*
X203504Y38051D01*
X203231Y38142D01*
X203030Y38215D01*
X202866Y38288D01*
X202757Y38342D01*
X202721Y38361D01*
X202429Y38543D01*
X202174Y38743D01*
X201956Y38943D01*
X201774Y39125D01*
X201646Y39307D01*
X201537Y39435D01*
X201464Y39526D01*
X201446Y39562D01*
Y39417D01*
Y39326D01*
Y39271D01*
Y39253D01*
X201464Y38889D01*
X201482Y38543D01*
X201519Y38233D01*
X201555Y37942D01*
X201610Y37705D01*
X201646Y37523D01*
X201665Y37450D01*
Y37395D01*
X201683Y37377D01*
Y37359D01*
X201774Y37031D01*
X201865Y36740D01*
X201956Y36485D01*
X202047Y36266D01*
X202120Y36102D01*
X202193Y35975D01*
X202229Y35884D01*
X202247Y35865D01*
X202393Y35665D01*
X202539Y35501D01*
X202684Y35356D01*
X202830Y35228D01*
X202939Y35119D01*
X203049Y35046D01*
X203121Y35010D01*
X203140Y34991D01*
X203340Y34882D01*
X203559Y34809D01*
X203759Y34755D01*
X203959Y34718D01*
X204123Y34700D01*
X204251Y34682D01*
X204378D01*
X204669Y34700D01*
X204943Y34755D01*
X205179Y34827D01*
X205380Y34918D01*
X205525Y34991D01*
X205653Y35064D01*
X205726Y35119D01*
X205744Y35137D01*
X205926Y35337D01*
X206072Y35574D01*
X206199Y35829D01*
X206290Y36084D01*
X206363Y36303D01*
X206418Y36503D01*
X206436Y36576D01*
Y36612D01*
X206454Y36649D01*
Y36667D01*
X207948Y36539D01*
X207838Y36011D01*
X207693Y35556D01*
X207511Y35155D01*
X207328Y34827D01*
X207146Y34572D01*
X207055Y34463D01*
X206982Y34372D01*
X206928Y34318D01*
X206873Y34263D01*
X206855Y34245D01*
X206837Y34226D01*
X206655Y34081D01*
X206454Y33953D01*
X206054Y33753D01*
X205653Y33607D01*
X205271Y33516D01*
X204925Y33443D01*
X204779Y33425D01*
X204651D01*
X204560Y33407D01*
X204415D01*
X203905Y33443D01*
X203449Y33516D01*
X203030Y33644D01*
X202684Y33789D01*
X202539Y33844D01*
X202393Y33917D01*
X202284Y33990D01*
X202174Y34044D01*
X202102Y34081D01*
X202047Y34117D01*
X202011Y34154D01*
X201992D01*
X201628Y34463D01*
X201300Y34809D01*
X201045Y35173D01*
X200827Y35519D01*
X200645Y35829D01*
X200572Y35975D01*
X200517Y36084D01*
X200481Y36193D01*
X200444Y36266D01*
X200426Y36303D01*
Y36321D01*
X200335Y36594D01*
X200244Y36904D01*
X200117Y37523D01*
X200026Y38178D01*
X199971Y38798D01*
X199934Y39071D01*
X199916Y39344D01*
Y39581D01*
X199898Y39781D01*
Y39945D01*
Y40072D01*
Y40163D01*
Y40182D01*
Y40601D01*
X199916Y41001D01*
X199953Y41365D01*
X199989Y41712D01*
X200026Y42021D01*
X200062Y42312D01*
X200117Y42586D01*
X200171Y42822D01*
X200226Y43023D01*
X200262Y43205D01*
X200317Y43369D01*
X200353Y43496D01*
X200390Y43587D01*
X200426Y43660D01*
X200444Y43697D01*
Y43715D01*
X200663Y44152D01*
X200900Y44534D01*
X201173Y44862D01*
X201410Y45135D01*
X201646Y45336D01*
X201828Y45481D01*
X201901Y45536D01*
X201956Y45572D01*
X201974Y45609D01*
X201992D01*
X202375Y45827D01*
X202757Y45991D01*
X203140Y46119D01*
X203486Y46192D01*
X203795Y46246D01*
X203923Y46264D01*
X204014D01*
X204105Y46283D01*
X204232D01*
X204542Y46264D01*
D02*
G37*
G36*
X74779Y246065D02*
X75089Y246047D01*
X75380Y245992D01*
X75653Y245938D01*
X75908Y245865D01*
X76145Y245792D01*
X76364Y245701D01*
X76564Y245610D01*
X76746Y245519D01*
X76892Y245428D01*
X77019Y245355D01*
X77128Y245282D01*
X77220Y245227D01*
X77274Y245173D01*
X77311Y245154D01*
X77329Y245136D01*
X77511Y244954D01*
X77675Y244754D01*
X77839Y244535D01*
X77966Y244317D01*
X78185Y243880D01*
X78330Y243442D01*
X78385Y243242D01*
X78440Y243042D01*
X78476Y242878D01*
X78513Y242732D01*
X78531Y242605D01*
Y242514D01*
X78549Y242459D01*
Y242441D01*
X76965Y242277D01*
X76928Y242696D01*
X76855Y243060D01*
X76746Y243388D01*
X76618Y243643D01*
X76509Y243861D01*
X76400Y244007D01*
X76327Y244098D01*
X76291Y244135D01*
X76017Y244353D01*
X75726Y244517D01*
X75416Y244645D01*
X75143Y244717D01*
X74888Y244772D01*
X74670Y244790D01*
X74597Y244808D01*
X74488D01*
X74105Y244790D01*
X73759Y244717D01*
X73468Y244608D01*
X73213Y244499D01*
X73013Y244371D01*
X72885Y244280D01*
X72794Y244207D01*
X72758Y244171D01*
X72539Y243916D01*
X72375Y243661D01*
X72248Y243406D01*
X72175Y243151D01*
X72120Y242951D01*
X72102Y242769D01*
X72084Y242659D01*
Y242641D01*
Y242623D01*
X72120Y242295D01*
X72193Y241949D01*
X72320Y241639D01*
X72448Y241348D01*
X72594Y241111D01*
X72721Y240911D01*
X72758Y240838D01*
X72794Y240784D01*
X72830Y240765D01*
Y240747D01*
X72976Y240547D01*
X73158Y240347D01*
X73359Y240128D01*
X73577Y239909D01*
X74032Y239472D01*
X74488Y239035D01*
X74724Y238835D01*
X74925Y238653D01*
X75125Y238489D01*
X75289Y238343D01*
X75416Y238234D01*
X75526Y238143D01*
X75599Y238088D01*
X75617Y238070D01*
X76072Y237688D01*
X76491Y237323D01*
X76837Y236996D01*
X77110Y236722D01*
X77347Y236486D01*
X77511Y236322D01*
X77602Y236212D01*
X77638Y236194D01*
Y236176D01*
X77893Y235866D01*
X78094Y235575D01*
X78276Y235284D01*
X78422Y235029D01*
X78531Y234810D01*
X78604Y234646D01*
X78640Y234537D01*
X78658Y234519D01*
Y234501D01*
X78731Y234300D01*
X78767Y234118D01*
X78804Y233936D01*
X78822Y233772D01*
X78840Y233626D01*
Y233517D01*
Y233444D01*
Y233426D01*
X70481D01*
Y234919D01*
X76691D01*
X76473Y235229D01*
X76364Y235357D01*
X76273Y235484D01*
X76181Y235593D01*
X76109Y235666D01*
X76054Y235721D01*
X76036Y235739D01*
X75945Y235830D01*
X75835Y235921D01*
X75580Y236158D01*
X75289Y236431D01*
X74979Y236704D01*
X74688Y236941D01*
X74561Y237050D01*
X74451Y237159D01*
X74360Y237232D01*
X74287Y237287D01*
X74251Y237323D01*
X74233Y237341D01*
X73941Y237596D01*
X73650Y237833D01*
X73395Y238070D01*
X73158Y238270D01*
X72940Y238471D01*
X72758Y238653D01*
X72575Y238817D01*
X72430Y238962D01*
X72284Y239108D01*
X72175Y239217D01*
X72084Y239308D01*
X71993Y239400D01*
X71902Y239509D01*
X71865Y239545D01*
X71610Y239855D01*
X71392Y240128D01*
X71210Y240401D01*
X71064Y240620D01*
X70955Y240820D01*
X70882Y240966D01*
X70845Y241057D01*
X70827Y241093D01*
X70718Y241366D01*
X70645Y241639D01*
X70572Y241894D01*
X70536Y242113D01*
X70518Y242313D01*
X70499Y242459D01*
Y242550D01*
Y242586D01*
X70518Y242860D01*
X70554Y243115D01*
X70590Y243370D01*
X70663Y243588D01*
X70845Y244025D01*
X71027Y244371D01*
X71137Y244535D01*
X71228Y244663D01*
X71319Y244790D01*
X71410Y244881D01*
X71483Y244954D01*
X71519Y245027D01*
X71556Y245045D01*
X71574Y245063D01*
X71774Y245245D01*
X71993Y245409D01*
X72229Y245537D01*
X72466Y245646D01*
X72940Y245828D01*
X73413Y245956D01*
X73614Y245992D01*
X73814Y246029D01*
X73996Y246047D01*
X74142Y246065D01*
X74269Y246083D01*
X74451D01*
X74779Y246065D01*
D02*
G37*
G36*
X65211Y176512D02*
X65520Y176475D01*
X65830Y176421D01*
X66103Y176366D01*
X66358Y176275D01*
X66613Y176184D01*
X66831Y176093D01*
X67032Y175984D01*
X67214Y175874D01*
X67378Y175783D01*
X67505Y175692D01*
X67633Y175601D01*
X67724Y175547D01*
X67779Y175492D01*
X67815Y175455D01*
X67833Y175437D01*
X68033Y175237D01*
X68216Y175018D01*
X68361Y174782D01*
X68489Y174563D01*
X68616Y174345D01*
X68707Y174126D01*
X68835Y173707D01*
X68889Y173525D01*
X68926Y173343D01*
X68944Y173197D01*
X68962Y173051D01*
X68980Y172942D01*
Y172869D01*
Y172815D01*
Y172797D01*
X68962Y172469D01*
X68908Y172159D01*
X68853Y171868D01*
X68780Y171613D01*
X68689Y171394D01*
X68635Y171230D01*
X68580Y171121D01*
X68562Y171103D01*
Y171085D01*
X68380Y170793D01*
X68179Y170538D01*
X67979Y170302D01*
X67760Y170119D01*
X67578Y169956D01*
X67432Y169828D01*
X67323Y169755D01*
X67305Y169737D01*
X67633D01*
X67961Y169755D01*
X68252Y169773D01*
X68543Y169810D01*
X68798Y169828D01*
X69035Y169865D01*
X69254Y169901D01*
X69454Y169956D01*
X69636Y169992D01*
X69782Y170028D01*
X69909Y170065D01*
X70019Y170083D01*
X70092Y170119D01*
X70146Y170138D01*
X70182Y170156D01*
X70201D01*
X70565Y170338D01*
X70893Y170520D01*
X71148Y170720D01*
X71366Y170903D01*
X71548Y171066D01*
X71676Y171194D01*
X71749Y171285D01*
X71767Y171321D01*
X71913Y171540D01*
X72004Y171758D01*
X72077Y171977D01*
X72131Y172196D01*
X72168Y172360D01*
X72186Y172505D01*
Y172596D01*
Y172633D01*
X72149Y172960D01*
X72077Y173270D01*
X71967Y173525D01*
X71858Y173762D01*
X71730Y173944D01*
X71621Y174071D01*
X71548Y174144D01*
X71512Y174181D01*
X71348Y174308D01*
X71148Y174436D01*
X70929Y174545D01*
X70711Y174618D01*
X70510Y174691D01*
X70346Y174745D01*
X70237Y174764D01*
X70219Y174782D01*
X70201D01*
X70328Y176330D01*
X70838Y176220D01*
X71293Y176056D01*
X71694Y175874D01*
X72022Y175674D01*
X72277Y175474D01*
X72386Y175401D01*
X72477Y175310D01*
X72532Y175255D01*
X72586Y175201D01*
X72605Y175182D01*
X72623Y175164D01*
X72769Y174982D01*
X72896Y174782D01*
X73115Y174381D01*
X73260Y173980D01*
X73351Y173598D01*
X73424Y173252D01*
X73442Y173106D01*
Y172979D01*
X73461Y172869D01*
Y172797D01*
Y172742D01*
Y172724D01*
X73442Y172360D01*
X73406Y172013D01*
X73333Y171686D01*
X73242Y171376D01*
X73115Y171103D01*
X73005Y170830D01*
X72860Y170593D01*
X72732Y170374D01*
X72605Y170192D01*
X72459Y170010D01*
X72350Y169865D01*
X72240Y169755D01*
X72131Y169664D01*
X72058Y169591D01*
X72022Y169555D01*
X72004Y169537D01*
X71676Y169300D01*
X71293Y169100D01*
X70893Y168918D01*
X70474Y168754D01*
X70037Y168626D01*
X69600Y168517D01*
X69144Y168426D01*
X68726Y168353D01*
X68307Y168298D01*
X67924Y168262D01*
X67578Y168225D01*
X67287Y168207D01*
X67032D01*
X66850Y168189D01*
X66686D01*
X66103Y168207D01*
X65557Y168244D01*
X65047Y168298D01*
X64573Y168389D01*
X64154Y168480D01*
X63772Y168571D01*
X63426Y168681D01*
X63116Y168808D01*
X62861Y168918D01*
X62625Y169027D01*
X62442Y169118D01*
X62279Y169227D01*
X62151Y169300D01*
X62078Y169355D01*
X62024Y169391D01*
X62005Y169409D01*
X61750Y169646D01*
X61532Y169901D01*
X61350Y170156D01*
X61186Y170411D01*
X61040Y170684D01*
X60931Y170939D01*
X60840Y171194D01*
X60767Y171449D01*
X60712Y171667D01*
X60658Y171886D01*
X60621Y172068D01*
X60603Y172232D01*
Y172378D01*
X60585Y172469D01*
Y172542D01*
Y172560D01*
X60603Y172979D01*
X60676Y173361D01*
X60749Y173707D01*
X60858Y174017D01*
X60949Y174254D01*
X61040Y174436D01*
X61058Y174508D01*
X61095Y174563D01*
X61113Y174581D01*
Y174599D01*
X61332Y174909D01*
X61586Y175201D01*
X61842Y175437D01*
X62097Y175638D01*
X62333Y175802D01*
X62515Y175911D01*
X62588Y175947D01*
X62643Y175984D01*
X62661Y176002D01*
X62679D01*
X63062Y176184D01*
X63462Y176311D01*
X63827Y176402D01*
X64173Y176457D01*
X64464Y176512D01*
X64573D01*
X64682Y176530D01*
X64883D01*
X65211Y176512D01*
D02*
G37*
G36*
X90678Y233426D02*
X89003D01*
Y239017D01*
X86854D01*
X86653Y238999D01*
X86508D01*
X86380Y238981D01*
X86289Y238962D01*
X86216D01*
X86180Y238944D01*
X86161D01*
X85870Y238853D01*
X85743Y238799D01*
X85633Y238744D01*
X85524Y238689D01*
X85451Y238653D01*
X85415Y238635D01*
X85397Y238616D01*
X85251Y238507D01*
X85105Y238380D01*
X84832Y238106D01*
X84705Y237979D01*
X84614Y237870D01*
X84559Y237797D01*
X84541Y237779D01*
X84359Y237524D01*
X84158Y237250D01*
X83958Y236959D01*
X83757Y236686D01*
X83594Y236431D01*
X83466Y236231D01*
X83412Y236158D01*
X83375Y236103D01*
X83339Y236067D01*
Y236049D01*
X81681Y233426D01*
X79605D01*
X81772Y236850D01*
X82027Y237214D01*
X82264Y237542D01*
X82501Y237815D01*
X82701Y238070D01*
X82883Y238252D01*
X83029Y238398D01*
X83120Y238489D01*
X83156Y238525D01*
X83302Y238635D01*
X83466Y238762D01*
X83794Y238962D01*
X83940Y239035D01*
X84049Y239108D01*
X84122Y239144D01*
X84158Y239163D01*
X83830Y239217D01*
X83521Y239272D01*
X83248Y239363D01*
X82974Y239436D01*
X82738Y239527D01*
X82519Y239636D01*
X82319Y239727D01*
X82137Y239818D01*
X81991Y239928D01*
X81845Y240019D01*
X81736Y240091D01*
X81645Y240164D01*
X81572Y240219D01*
X81517Y240274D01*
X81499Y240292D01*
X81481Y240310D01*
X81335Y240492D01*
X81190Y240674D01*
X80971Y241057D01*
X80825Y241439D01*
X80716Y241803D01*
X80643Y242113D01*
X80625Y242241D01*
Y242368D01*
X80607Y242459D01*
Y242532D01*
Y242568D01*
Y242586D01*
X80625Y242969D01*
X80680Y243315D01*
X80771Y243643D01*
X80862Y243916D01*
X80971Y244153D01*
X81044Y244335D01*
X81117Y244444D01*
X81135Y244462D01*
Y244481D01*
X81354Y244772D01*
X81572Y245027D01*
X81809Y245245D01*
X82027Y245409D01*
X82228Y245537D01*
X82392Y245610D01*
X82501Y245664D01*
X82519Y245683D01*
X82537D01*
X82701Y245737D01*
X82902Y245792D01*
X83302Y245883D01*
X83739Y245938D01*
X84140Y245992D01*
X84522Y246010D01*
X84686D01*
X84832Y246029D01*
X90678D01*
Y233426D01*
D02*
G37*
G36*
X117562Y43179D02*
X117762Y42888D01*
X117999Y42596D01*
X118218Y42341D01*
X118436Y42123D01*
X118600Y41941D01*
X118673Y41886D01*
X118728Y41831D01*
X118746Y41813D01*
X118764Y41795D01*
X119146Y41485D01*
X119529Y41194D01*
X119893Y40939D01*
X120257Y40739D01*
X120567Y40557D01*
X120695Y40484D01*
X120804Y40429D01*
X120895Y40374D01*
X120968Y40356D01*
X121004Y40320D01*
X121022D01*
Y38826D01*
X120749Y38936D01*
X120476Y39063D01*
X120203Y39191D01*
X119948Y39318D01*
X119729Y39427D01*
X119547Y39518D01*
X119438Y39591D01*
X119420Y39609D01*
X119402D01*
X119074Y39810D01*
X118782Y40010D01*
X118527Y40192D01*
X118327Y40356D01*
X118145Y40484D01*
X118036Y40593D01*
X117944Y40666D01*
X117926Y40684D01*
Y30831D01*
X116378D01*
Y43489D01*
X117380D01*
X117562Y43179D01*
D02*
G37*
G36*
X178046Y67503D02*
X178337Y67485D01*
X178847Y67375D01*
X179084Y67303D01*
X179302Y67230D01*
X179503Y67139D01*
X179685Y67048D01*
X179830Y66957D01*
X179976Y66866D01*
X180104Y66793D01*
X180195Y66720D01*
X180268Y66665D01*
X180322Y66611D01*
X180359Y66592D01*
X180377Y66574D01*
X180541Y66392D01*
X180705Y66210D01*
X180832Y66010D01*
X180941Y65809D01*
X181123Y65427D01*
X181233Y65063D01*
X181306Y64753D01*
X181324Y64607D01*
X181342Y64498D01*
X181360Y64389D01*
Y64316D01*
Y64279D01*
Y64261D01*
X181342Y63934D01*
X181287Y63624D01*
X181215Y63351D01*
X181123Y63114D01*
X181051Y62932D01*
X180978Y62786D01*
X180923Y62713D01*
X180905Y62677D01*
X180705Y62458D01*
X180486Y62258D01*
X180249Y62076D01*
X180012Y61930D01*
X179794Y61821D01*
X179630Y61748D01*
X179557Y61712D01*
X179503Y61693D01*
X179484Y61675D01*
X179466D01*
X179885Y61548D01*
X180231Y61384D01*
X180541Y61184D01*
X180796Y61001D01*
X180996Y60819D01*
X181142Y60674D01*
X181215Y60582D01*
X181251Y60564D01*
Y60546D01*
X181451Y60218D01*
X181615Y59872D01*
X181724Y59544D01*
X181797Y59217D01*
X181834Y58925D01*
X181852Y58798D01*
Y58689D01*
X181870Y58616D01*
Y58543D01*
Y58506D01*
Y58488D01*
X181852Y58197D01*
X181815Y57905D01*
X181761Y57632D01*
X181688Y57359D01*
X181506Y56904D01*
X181415Y56685D01*
X181306Y56503D01*
X181196Y56321D01*
X181105Y56175D01*
X180996Y56048D01*
X180923Y55939D01*
X180850Y55847D01*
X180796Y55793D01*
X180759Y55756D01*
X180741Y55738D01*
X180522Y55538D01*
X180286Y55374D01*
X180031Y55228D01*
X179776Y55101D01*
X179539Y55010D01*
X179284Y54919D01*
X178792Y54791D01*
X178574Y54736D01*
X178374Y54700D01*
X178191Y54682D01*
X178027Y54664D01*
X177900Y54646D01*
X177718D01*
X177372Y54664D01*
X177062Y54700D01*
X176753Y54755D01*
X176461Y54809D01*
X176206Y54900D01*
X175951Y54991D01*
X175714Y55083D01*
X175514Y55192D01*
X175332Y55301D01*
X175168Y55392D01*
X175041Y55483D01*
X174913Y55574D01*
X174822Y55629D01*
X174767Y55683D01*
X174731Y55720D01*
X174713Y55738D01*
X174513Y55957D01*
X174330Y56175D01*
X174185Y56394D01*
X174057Y56631D01*
X173930Y56849D01*
X173839Y57086D01*
X173711Y57505D01*
X173657Y57705D01*
X173620Y57887D01*
X173602Y58051D01*
X173584Y58179D01*
X173566Y58288D01*
Y58379D01*
Y58433D01*
Y58452D01*
X173584Y58871D01*
X173657Y59253D01*
X173766Y59599D01*
X173875Y59890D01*
X173984Y60127D01*
X174094Y60309D01*
X174167Y60419D01*
X174185Y60437D01*
Y60455D01*
X174440Y60746D01*
X174713Y61001D01*
X175004Y61202D01*
X175277Y61384D01*
X175532Y61511D01*
X175751Y61602D01*
X175824Y61639D01*
X175878Y61657D01*
X175915Y61675D01*
X175933D01*
X175605Y61821D01*
X175332Y61985D01*
X175095Y62149D01*
X174895Y62313D01*
X174749Y62458D01*
X174640Y62568D01*
X174567Y62640D01*
X174549Y62677D01*
X174385Y62932D01*
X174276Y63187D01*
X174185Y63442D01*
X174130Y63697D01*
X174094Y63897D01*
X174076Y64061D01*
Y64170D01*
Y64188D01*
Y64207D01*
X174094Y64462D01*
X174112Y64698D01*
X174239Y65154D01*
X174403Y65554D01*
X174585Y65900D01*
X174767Y66174D01*
X174859Y66283D01*
X174931Y66392D01*
X175004Y66465D01*
X175059Y66520D01*
X175077Y66538D01*
X175095Y66556D01*
X175296Y66720D01*
X175496Y66884D01*
X175714Y67011D01*
X175933Y67120D01*
X176370Y67284D01*
X176807Y67394D01*
X176989Y67448D01*
X177171Y67467D01*
X177335Y67485D01*
X177481Y67503D01*
X177590Y67521D01*
X177754D01*
X178046Y67503D01*
D02*
G37*
G36*
X198880Y67649D02*
X199463Y67558D01*
X199973Y67448D01*
X200209Y67375D01*
X200428Y67303D01*
X200628Y67230D01*
X200810Y67157D01*
X200956Y67102D01*
X201102Y67048D01*
X201193Y66993D01*
X201266Y66957D01*
X201320Y66938D01*
X201339Y66920D01*
X201830Y66611D01*
X202249Y66246D01*
X202613Y65882D01*
X202923Y65518D01*
X203160Y65190D01*
X203251Y65044D01*
X203324Y64917D01*
X203396Y64826D01*
X203433Y64753D01*
X203451Y64698D01*
X203469Y64680D01*
X203724Y64116D01*
X203906Y63533D01*
X204034Y62950D01*
X204125Y62422D01*
X204161Y62185D01*
X204180Y61948D01*
X204198Y61766D01*
Y61584D01*
X204216Y61457D01*
Y61347D01*
Y61275D01*
Y61256D01*
X204180Y60601D01*
X204107Y59963D01*
X204016Y59399D01*
X203943Y59126D01*
X203888Y58889D01*
X203834Y58670D01*
X203761Y58470D01*
X203706Y58288D01*
X203670Y58142D01*
X203615Y58033D01*
X203597Y57942D01*
X203560Y57887D01*
Y57869D01*
X203287Y57323D01*
X202978Y56831D01*
X202650Y56412D01*
X202486Y56248D01*
X202340Y56084D01*
X202194Y55939D01*
X202049Y55811D01*
X201921Y55702D01*
X201812Y55629D01*
X201739Y55556D01*
X201666Y55501D01*
X201630Y55483D01*
X201612Y55465D01*
X201357Y55319D01*
X201102Y55192D01*
X200555Y54991D01*
X200009Y54846D01*
X199481Y54755D01*
X199226Y54718D01*
X199007Y54682D01*
X198807Y54664D01*
X198643D01*
X198498Y54646D01*
X198297D01*
X197933Y54664D01*
X197587Y54700D01*
X197259Y54736D01*
X196950Y54809D01*
X196658Y54900D01*
X196385Y54991D01*
X196130Y55083D01*
X195893Y55192D01*
X195693Y55283D01*
X195492Y55374D01*
X195347Y55465D01*
X195201Y55556D01*
X195110Y55629D01*
X195019Y55665D01*
X194983Y55702D01*
X194964Y55720D01*
X194709Y55939D01*
X194491Y56157D01*
X194291Y56412D01*
X194090Y56667D01*
X193762Y57177D01*
X193507Y57687D01*
X193398Y57924D01*
X193307Y58142D01*
X193234Y58342D01*
X193180Y58506D01*
X193125Y58652D01*
X193089Y58761D01*
X193070Y58834D01*
Y58852D01*
X194746Y59271D01*
X194819Y58980D01*
X194910Y58707D01*
X195001Y58452D01*
X195092Y58215D01*
X195201Y57996D01*
X195310Y57814D01*
X195438Y57632D01*
X195547Y57468D01*
X195638Y57323D01*
X195748Y57213D01*
X195839Y57104D01*
X195911Y57013D01*
X195984Y56958D01*
X196039Y56904D01*
X196057Y56885D01*
X196075Y56867D01*
X196257Y56722D01*
X196458Y56612D01*
X196858Y56412D01*
X197241Y56266D01*
X197623Y56175D01*
X197951Y56102D01*
X198079Y56084D01*
X198206D01*
X198315Y56066D01*
X198443D01*
X198862Y56084D01*
X199262Y56157D01*
X199627Y56248D01*
X199954Y56357D01*
X200209Y56467D01*
X200319Y56521D01*
X200410Y56558D01*
X200483Y56594D01*
X200537Y56631D01*
X200574Y56649D01*
X200592D01*
X200938Y56904D01*
X201229Y57177D01*
X201484Y57487D01*
X201685Y57778D01*
X201849Y58033D01*
X201958Y58251D01*
X201994Y58342D01*
X202031Y58397D01*
X202049Y58433D01*
Y58452D01*
X202194Y58925D01*
X202304Y59399D01*
X202395Y59872D01*
X202449Y60309D01*
X202468Y60510D01*
X202486Y60692D01*
Y60856D01*
X202504Y60983D01*
Y61092D01*
Y61184D01*
Y61238D01*
Y61256D01*
X202486Y61730D01*
X202449Y62167D01*
X202377Y62568D01*
X202304Y62932D01*
X202249Y63241D01*
X202213Y63369D01*
X202176Y63478D01*
X202158Y63569D01*
X202140Y63624D01*
X202122Y63660D01*
Y63678D01*
X201940Y64097D01*
X201739Y64480D01*
X201521Y64789D01*
X201284Y65063D01*
X201084Y65281D01*
X200920Y65427D01*
X200792Y65518D01*
X200774Y65554D01*
X200756D01*
X200373Y65791D01*
X199954Y65973D01*
X199554Y66101D01*
X199171Y66174D01*
X198825Y66228D01*
X198680Y66246D01*
X198552D01*
X198461Y66265D01*
X198315D01*
X197860Y66246D01*
X197441Y66174D01*
X197095Y66064D01*
X196786Y65955D01*
X196549Y65827D01*
X196367Y65736D01*
X196257Y65664D01*
X196221Y65627D01*
X195930Y65354D01*
X195657Y65044D01*
X195438Y64717D01*
X195256Y64389D01*
X195110Y64097D01*
X195056Y63952D01*
X195019Y63842D01*
X194983Y63751D01*
X194946Y63678D01*
X194928Y63642D01*
Y63624D01*
X193289Y64006D01*
X193398Y64334D01*
X193507Y64626D01*
X193653Y64899D01*
X193781Y65172D01*
X193926Y65409D01*
X194090Y65627D01*
X194236Y65846D01*
X194382Y66028D01*
X194527Y66174D01*
X194655Y66319D01*
X194782Y66447D01*
X194873Y66538D01*
X194964Y66629D01*
X195037Y66684D01*
X195074Y66702D01*
X195092Y66720D01*
X195347Y66884D01*
X195602Y67048D01*
X195857Y67175D01*
X196130Y67284D01*
X196676Y67448D01*
X197168Y67558D01*
X197405Y67612D01*
X197605Y67631D01*
X197805Y67649D01*
X197969Y67667D01*
X198097Y67685D01*
X198279D01*
X198880Y67649D01*
D02*
G37*
G36*
X230440Y67212D02*
X230640Y66920D01*
X230877Y66629D01*
X231096Y66374D01*
X231314Y66155D01*
X231478Y65973D01*
X231551Y65919D01*
X231605Y65864D01*
X231624Y65846D01*
X231642Y65827D01*
X232024Y65518D01*
X232407Y65226D01*
X232771Y64971D01*
X233135Y64771D01*
X233445Y64589D01*
X233572Y64516D01*
X233682Y64462D01*
X233773Y64407D01*
X233846Y64389D01*
X233882Y64352D01*
X233900D01*
Y62859D01*
X233627Y62968D01*
X233354Y63096D01*
X233081Y63223D01*
X232826Y63351D01*
X232607Y63460D01*
X232425Y63551D01*
X232316Y63624D01*
X232297Y63642D01*
X232279D01*
X231951Y63842D01*
X231660Y64043D01*
X231405Y64225D01*
X231205Y64389D01*
X231023Y64516D01*
X230913Y64626D01*
X230822Y64698D01*
X230804Y64717D01*
Y54864D01*
X229256D01*
Y67521D01*
X230258D01*
X230440Y67212D01*
D02*
G37*
G36*
X242314Y67649D02*
X242897Y67558D01*
X243407Y67448D01*
X243643Y67375D01*
X243862Y67303D01*
X244062Y67230D01*
X244244Y67157D01*
X244390Y67102D01*
X244536Y67048D01*
X244627Y66993D01*
X244700Y66957D01*
X244754Y66938D01*
X244772Y66920D01*
X245264Y66611D01*
X245683Y66246D01*
X246047Y65882D01*
X246357Y65518D01*
X246594Y65190D01*
X246685Y65044D01*
X246758Y64917D01*
X246831Y64826D01*
X246867Y64753D01*
X246885Y64698D01*
X246903Y64680D01*
X247158Y64116D01*
X247340Y63533D01*
X247468Y62950D01*
X247559Y62422D01*
X247595Y62185D01*
X247614Y61948D01*
X247632Y61766D01*
Y61584D01*
X247650Y61457D01*
Y61347D01*
Y61275D01*
Y61256D01*
X247614Y60601D01*
X247541Y59963D01*
X247450Y59399D01*
X247377Y59126D01*
X247322Y58889D01*
X247268Y58670D01*
X247195Y58470D01*
X247140Y58288D01*
X247104Y58142D01*
X247049Y58033D01*
X247031Y57942D01*
X246994Y57887D01*
Y57869D01*
X246721Y57323D01*
X246412Y56831D01*
X246084Y56412D01*
X245920Y56248D01*
X245774Y56084D01*
X245629Y55939D01*
X245483Y55811D01*
X245355Y55702D01*
X245246Y55629D01*
X245173Y55556D01*
X245100Y55501D01*
X245064Y55483D01*
X245046Y55465D01*
X244791Y55319D01*
X244536Y55192D01*
X243989Y54991D01*
X243443Y54846D01*
X242915Y54755D01*
X242660Y54718D01*
X242441Y54682D01*
X242241Y54664D01*
X242077D01*
X241931Y54646D01*
X241731D01*
X241367Y54664D01*
X241021Y54700D01*
X240693Y54736D01*
X240383Y54809D01*
X240092Y54900D01*
X239819Y54991D01*
X239564Y55083D01*
X239327Y55192D01*
X239127Y55283D01*
X238927Y55374D01*
X238781Y55465D01*
X238635Y55556D01*
X238544Y55629D01*
X238453Y55665D01*
X238417Y55702D01*
X238398Y55720D01*
X238143Y55939D01*
X237925Y56157D01*
X237725Y56412D01*
X237524Y56667D01*
X237196Y57177D01*
X236942Y57687D01*
X236832Y57924D01*
X236741Y58142D01*
X236668Y58342D01*
X236614Y58506D01*
X236559Y58652D01*
X236523Y58761D01*
X236504Y58834D01*
Y58852D01*
X238180Y59271D01*
X238253Y58980D01*
X238344Y58707D01*
X238435Y58452D01*
X238526Y58215D01*
X238635Y57996D01*
X238744Y57814D01*
X238872Y57632D01*
X238981Y57468D01*
X239072Y57323D01*
X239181Y57213D01*
X239273Y57104D01*
X239345Y57013D01*
X239418Y56958D01*
X239473Y56904D01*
X239491Y56885D01*
X239509Y56867D01*
X239691Y56722D01*
X239892Y56612D01*
X240292Y56412D01*
X240675Y56266D01*
X241057Y56175D01*
X241385Y56102D01*
X241513Y56084D01*
X241640D01*
X241749Y56066D01*
X241877D01*
X242296Y56084D01*
X242696Y56157D01*
X243061Y56248D01*
X243388Y56357D01*
X243643Y56467D01*
X243753Y56521D01*
X243844Y56558D01*
X243917Y56594D01*
X243971Y56631D01*
X244008Y56649D01*
X244026D01*
X244372Y56904D01*
X244663Y57177D01*
X244918Y57487D01*
X245119Y57778D01*
X245282Y58033D01*
X245392Y58251D01*
X245428Y58342D01*
X245465Y58397D01*
X245483Y58433D01*
Y58452D01*
X245629Y58925D01*
X245738Y59399D01*
X245829Y59872D01*
X245884Y60309D01*
X245902Y60510D01*
X245920Y60692D01*
Y60856D01*
X245938Y60983D01*
Y61092D01*
Y61184D01*
Y61238D01*
Y61256D01*
X245920Y61730D01*
X245884Y62167D01*
X245811Y62568D01*
X245738Y62932D01*
X245683Y63241D01*
X245647Y63369D01*
X245610Y63478D01*
X245592Y63569D01*
X245574Y63624D01*
X245556Y63660D01*
Y63678D01*
X245373Y64097D01*
X245173Y64480D01*
X244955Y64789D01*
X244718Y65063D01*
X244518Y65281D01*
X244354Y65427D01*
X244226Y65518D01*
X244208Y65554D01*
X244190D01*
X243807Y65791D01*
X243388Y65973D01*
X242988Y66101D01*
X242605Y66174D01*
X242259Y66228D01*
X242114Y66246D01*
X241986D01*
X241895Y66265D01*
X241749D01*
X241294Y66246D01*
X240875Y66174D01*
X240529Y66064D01*
X240220Y65955D01*
X239983Y65827D01*
X239801Y65736D01*
X239691Y65664D01*
X239655Y65627D01*
X239364Y65354D01*
X239090Y65044D01*
X238872Y64717D01*
X238690Y64389D01*
X238544Y64097D01*
X238489Y63952D01*
X238453Y63842D01*
X238417Y63751D01*
X238380Y63678D01*
X238362Y63642D01*
Y63624D01*
X236723Y64006D01*
X236832Y64334D01*
X236942Y64626D01*
X237087Y64899D01*
X237215Y65172D01*
X237360Y65409D01*
X237524Y65627D01*
X237670Y65846D01*
X237816Y66028D01*
X237961Y66174D01*
X238089Y66319D01*
X238216Y66447D01*
X238307Y66538D01*
X238398Y66629D01*
X238471Y66684D01*
X238508Y66702D01*
X238526Y66720D01*
X238781Y66884D01*
X239036Y67048D01*
X239291Y67175D01*
X239564Y67284D01*
X240110Y67448D01*
X240602Y67558D01*
X240839Y67612D01*
X241039Y67631D01*
X241239Y67649D01*
X241403Y67667D01*
X241531Y67685D01*
X241713D01*
X242314Y67649D01*
D02*
G37*
G36*
X221644Y67503D02*
X221935Y67467D01*
X222226Y67412D01*
X222481Y67339D01*
X222973Y67139D01*
X223192Y67048D01*
X223374Y66938D01*
X223556Y66811D01*
X223701Y66720D01*
X223847Y66611D01*
X223956Y66520D01*
X224048Y66447D01*
X224102Y66392D01*
X224139Y66356D01*
X224157Y66337D01*
X224357Y66119D01*
X224521Y65864D01*
X224685Y65627D01*
X224812Y65372D01*
X224922Y65099D01*
X225013Y64844D01*
X225140Y64371D01*
X225195Y64134D01*
X225231Y63934D01*
X225250Y63733D01*
X225268Y63569D01*
X225286Y63442D01*
Y63351D01*
Y63278D01*
Y63260D01*
X225268Y62914D01*
X225231Y62604D01*
X225195Y62294D01*
X225122Y62003D01*
X225031Y61748D01*
X224940Y61493D01*
X224849Y61275D01*
X224740Y61074D01*
X224648Y60892D01*
X224557Y60728D01*
X224466Y60601D01*
X224375Y60473D01*
X224303Y60382D01*
X224266Y60328D01*
X224230Y60291D01*
X224211Y60273D01*
X224011Y60073D01*
X223792Y59909D01*
X223574Y59745D01*
X223337Y59617D01*
X223119Y59508D01*
X222900Y59417D01*
X222481Y59289D01*
X222299Y59235D01*
X222117Y59198D01*
X221971Y59180D01*
X221826Y59162D01*
X221716Y59144D01*
X221571D01*
X221225Y59162D01*
X220897Y59217D01*
X220606Y59289D01*
X220332Y59380D01*
X220132Y59453D01*
X219968Y59526D01*
X219859Y59581D01*
X219822Y59599D01*
X219531Y59781D01*
X219276Y59981D01*
X219058Y60182D01*
X218875Y60364D01*
X218748Y60546D01*
X218639Y60674D01*
X218566Y60765D01*
X218547Y60801D01*
Y60655D01*
Y60564D01*
Y60510D01*
Y60491D01*
X218566Y60127D01*
X218584Y59781D01*
X218620Y59472D01*
X218657Y59180D01*
X218711Y58943D01*
X218748Y58761D01*
X218766Y58689D01*
Y58634D01*
X218784Y58616D01*
Y58597D01*
X218875Y58270D01*
X218966Y57978D01*
X219058Y57723D01*
X219149Y57505D01*
X219221Y57341D01*
X219294Y57213D01*
X219331Y57122D01*
X219349Y57104D01*
X219495Y56904D01*
X219640Y56740D01*
X219786Y56594D01*
X219932Y56467D01*
X220041Y56357D01*
X220150Y56284D01*
X220223Y56248D01*
X220241Y56230D01*
X220442Y56121D01*
X220660Y56048D01*
X220860Y55993D01*
X221061Y55957D01*
X221225Y55939D01*
X221352Y55920D01*
X221480D01*
X221771Y55939D01*
X222044Y55993D01*
X222281Y56066D01*
X222481Y56157D01*
X222627Y56230D01*
X222754Y56303D01*
X222827Y56357D01*
X222845Y56376D01*
X223028Y56576D01*
X223173Y56813D01*
X223301Y57068D01*
X223392Y57323D01*
X223465Y57541D01*
X223519Y57741D01*
X223538Y57814D01*
Y57851D01*
X223556Y57887D01*
Y57905D01*
X225049Y57778D01*
X224940Y57250D01*
X224794Y56795D01*
X224612Y56394D01*
X224430Y56066D01*
X224248Y55811D01*
X224157Y55702D01*
X224084Y55611D01*
X224029Y55556D01*
X223975Y55501D01*
X223956Y55483D01*
X223938Y55465D01*
X223756Y55319D01*
X223556Y55192D01*
X223155Y54991D01*
X222754Y54846D01*
X222372Y54755D01*
X222026Y54682D01*
X221880Y54664D01*
X221753D01*
X221662Y54646D01*
X221516D01*
X221006Y54682D01*
X220551Y54755D01*
X220132Y54882D01*
X219786Y55028D01*
X219640Y55083D01*
X219495Y55155D01*
X219385Y55228D01*
X219276Y55283D01*
X219203Y55319D01*
X219149Y55356D01*
X219112Y55392D01*
X219094D01*
X218730Y55702D01*
X218402Y56048D01*
X218147Y56412D01*
X217928Y56758D01*
X217746Y57068D01*
X217673Y57213D01*
X217619Y57323D01*
X217582Y57432D01*
X217546Y57505D01*
X217528Y57541D01*
Y57559D01*
X217437Y57832D01*
X217346Y58142D01*
X217218Y58761D01*
X217127Y59417D01*
X217072Y60036D01*
X217036Y60309D01*
X217018Y60582D01*
Y60819D01*
X216999Y61020D01*
Y61184D01*
Y61311D01*
Y61402D01*
Y61420D01*
Y61839D01*
X217018Y62240D01*
X217054Y62604D01*
X217091Y62950D01*
X217127Y63260D01*
X217163Y63551D01*
X217218Y63824D01*
X217273Y64061D01*
X217327Y64261D01*
X217364Y64443D01*
X217418Y64607D01*
X217455Y64735D01*
X217491Y64826D01*
X217528Y64899D01*
X217546Y64935D01*
Y64953D01*
X217764Y65390D01*
X218001Y65773D01*
X218274Y66101D01*
X218511Y66374D01*
X218748Y66574D01*
X218930Y66720D01*
X219003Y66775D01*
X219058Y66811D01*
X219076Y66847D01*
X219094D01*
X219476Y67066D01*
X219859Y67230D01*
X220241Y67357D01*
X220587Y67430D01*
X220897Y67485D01*
X221024Y67503D01*
X221115D01*
X221206Y67521D01*
X221334D01*
X221644Y67503D01*
D02*
G37*
G36*
X187006Y67212D02*
X187206Y66920D01*
X187443Y66629D01*
X187661Y66374D01*
X187880Y66155D01*
X188044Y65973D01*
X188117Y65919D01*
X188171Y65864D01*
X188190Y65846D01*
X188208Y65827D01*
X188590Y65518D01*
X188973Y65226D01*
X189337Y64971D01*
X189701Y64771D01*
X190011Y64589D01*
X190138Y64516D01*
X190247Y64462D01*
X190339Y64407D01*
X190411Y64389D01*
X190448Y64352D01*
X190466D01*
Y62859D01*
X190193Y62968D01*
X189920Y63096D01*
X189647Y63223D01*
X189392Y63351D01*
X189173Y63460D01*
X188991Y63551D01*
X188882Y63624D01*
X188864Y63642D01*
X188845D01*
X188517Y63842D01*
X188226Y64043D01*
X187971Y64225D01*
X187771Y64389D01*
X187589Y64516D01*
X187479Y64626D01*
X187388Y64698D01*
X187370Y64717D01*
Y54864D01*
X185822D01*
Y67521D01*
X186824D01*
X187006Y67212D01*
D02*
G37*
G36*
X129436Y43616D02*
X130019Y43525D01*
X130529Y43416D01*
X130766Y43343D01*
X130984Y43270D01*
X131185Y43197D01*
X131367Y43124D01*
X131512Y43070D01*
X131658Y43015D01*
X131749Y42961D01*
X131822Y42924D01*
X131877Y42906D01*
X131895Y42888D01*
X132387Y42578D01*
X132805Y42214D01*
X133170Y41850D01*
X133479Y41485D01*
X133716Y41157D01*
X133807Y41012D01*
X133880Y40884D01*
X133953Y40793D01*
X133989Y40720D01*
X134007Y40666D01*
X134026Y40648D01*
X134281Y40083D01*
X134463Y39500D01*
X134590Y38918D01*
X134681Y38389D01*
X134718Y38153D01*
X134736Y37916D01*
X134754Y37734D01*
Y37552D01*
X134772Y37424D01*
Y37315D01*
Y37242D01*
Y37224D01*
X134736Y36568D01*
X134663Y35931D01*
X134572Y35366D01*
X134499Y35093D01*
X134444Y34856D01*
X134390Y34638D01*
X134317Y34437D01*
X134262Y34255D01*
X134226Y34110D01*
X134171Y34000D01*
X134153Y33909D01*
X134117Y33855D01*
Y33836D01*
X133843Y33290D01*
X133534Y32798D01*
X133206Y32379D01*
X133042Y32215D01*
X132896Y32052D01*
X132751Y31906D01*
X132605Y31778D01*
X132478Y31669D01*
X132368Y31596D01*
X132295Y31523D01*
X132223Y31469D01*
X132186Y31451D01*
X132168Y31432D01*
X131913Y31287D01*
X131658Y31159D01*
X131112Y30959D01*
X130565Y30813D01*
X130037Y30722D01*
X129782Y30686D01*
X129564Y30649D01*
X129363Y30631D01*
X129199D01*
X129054Y30613D01*
X128853D01*
X128489Y30631D01*
X128143Y30668D01*
X127815Y30704D01*
X127506Y30777D01*
X127214Y30868D01*
X126941Y30959D01*
X126686Y31050D01*
X126449Y31159D01*
X126249Y31250D01*
X126049Y31341D01*
X125903Y31432D01*
X125757Y31523D01*
X125666Y31596D01*
X125575Y31633D01*
X125539Y31669D01*
X125521Y31687D01*
X125266Y31906D01*
X125047Y32125D01*
X124847Y32379D01*
X124647Y32634D01*
X124319Y33144D01*
X124064Y33654D01*
X123954Y33891D01*
X123863Y34110D01*
X123791Y34310D01*
X123736Y34474D01*
X123681Y34620D01*
X123645Y34729D01*
X123627Y34802D01*
Y34820D01*
X125302Y35239D01*
X125375Y34947D01*
X125466Y34674D01*
X125557Y34419D01*
X125648Y34182D01*
X125757Y33964D01*
X125867Y33782D01*
X125994Y33600D01*
X126103Y33436D01*
X126194Y33290D01*
X126304Y33181D01*
X126395Y33071D01*
X126468Y32980D01*
X126540Y32926D01*
X126595Y32871D01*
X126613Y32853D01*
X126632Y32835D01*
X126814Y32689D01*
X127014Y32580D01*
X127415Y32379D01*
X127797Y32234D01*
X128180Y32143D01*
X128507Y32070D01*
X128635Y32052D01*
X128762D01*
X128872Y32033D01*
X128999D01*
X129418Y32052D01*
X129819Y32125D01*
X130183Y32215D01*
X130511Y32325D01*
X130766Y32434D01*
X130875Y32489D01*
X130966Y32525D01*
X131039Y32562D01*
X131094Y32598D01*
X131130Y32616D01*
X131148D01*
X131494Y32871D01*
X131785Y33144D01*
X132041Y33454D01*
X132241Y33745D01*
X132405Y34000D01*
X132514Y34219D01*
X132550Y34310D01*
X132587Y34365D01*
X132605Y34401D01*
Y34419D01*
X132751Y34893D01*
X132860Y35366D01*
X132951Y35840D01*
X133006Y36277D01*
X133024Y36477D01*
X133042Y36659D01*
Y36823D01*
X133060Y36951D01*
Y37060D01*
Y37151D01*
Y37206D01*
Y37224D01*
X133042Y37697D01*
X133006Y38134D01*
X132933Y38535D01*
X132860Y38899D01*
X132805Y39209D01*
X132769Y39336D01*
X132732Y39446D01*
X132714Y39537D01*
X132696Y39591D01*
X132678Y39628D01*
Y39646D01*
X132496Y40065D01*
X132295Y40447D01*
X132077Y40757D01*
X131840Y41030D01*
X131640Y41249D01*
X131476Y41394D01*
X131348Y41485D01*
X131330Y41522D01*
X131312D01*
X130930Y41758D01*
X130511Y41941D01*
X130110Y42068D01*
X129728Y42141D01*
X129382Y42196D01*
X129236Y42214D01*
X129108D01*
X129017Y42232D01*
X128872D01*
X128416Y42214D01*
X127998Y42141D01*
X127651Y42032D01*
X127342Y41922D01*
X127105Y41795D01*
X126923Y41704D01*
X126814Y41631D01*
X126777Y41595D01*
X126486Y41321D01*
X126213Y41012D01*
X125994Y40684D01*
X125812Y40356D01*
X125666Y40065D01*
X125612Y39919D01*
X125575Y39810D01*
X125539Y39719D01*
X125502Y39646D01*
X125484Y39609D01*
Y39591D01*
X123845Y39974D01*
X123954Y40302D01*
X124064Y40593D01*
X124209Y40866D01*
X124337Y41139D01*
X124483Y41376D01*
X124647Y41595D01*
X124792Y41813D01*
X124938Y41995D01*
X125084Y42141D01*
X125211Y42287D01*
X125338Y42414D01*
X125430Y42505D01*
X125521Y42596D01*
X125594Y42651D01*
X125630Y42669D01*
X125648Y42687D01*
X125903Y42851D01*
X126158Y43015D01*
X126413Y43143D01*
X126686Y43252D01*
X127233Y43416D01*
X127724Y43525D01*
X127961Y43580D01*
X128161Y43598D01*
X128362Y43616D01*
X128526Y43634D01*
X128653Y43653D01*
X128835D01*
X129436Y43616D01*
D02*
G37*
G36*
X108310Y43470D02*
X108657Y43434D01*
X108984Y43361D01*
X109294Y43270D01*
X109567Y43143D01*
X109840Y43033D01*
X110077Y42888D01*
X110296Y42760D01*
X110478Y42633D01*
X110660Y42487D01*
X110806Y42378D01*
X110915Y42268D01*
X111006Y42159D01*
X111079Y42086D01*
X111115Y42050D01*
X111133Y42032D01*
X111370Y41704D01*
X111570Y41321D01*
X111753Y40921D01*
X111916Y40502D01*
X112044Y40065D01*
X112153Y39628D01*
X112244Y39172D01*
X112317Y38754D01*
X112372Y38335D01*
X112408Y37952D01*
X112445Y37606D01*
X112463Y37315D01*
Y37060D01*
X112481Y36878D01*
Y36805D01*
Y36750D01*
Y36732D01*
Y36714D01*
X112463Y36131D01*
X112426Y35585D01*
X112372Y35075D01*
X112281Y34601D01*
X112190Y34182D01*
X112099Y33800D01*
X111989Y33454D01*
X111862Y33144D01*
X111753Y32889D01*
X111643Y32653D01*
X111552Y32471D01*
X111443Y32307D01*
X111370Y32179D01*
X111315Y32106D01*
X111279Y32052D01*
X111261Y32033D01*
X111024Y31778D01*
X110769Y31560D01*
X110514Y31378D01*
X110259Y31214D01*
X109986Y31068D01*
X109731Y30959D01*
X109476Y30868D01*
X109221Y30795D01*
X109003Y30740D01*
X108784Y30686D01*
X108602Y30649D01*
X108438Y30631D01*
X108292D01*
X108201Y30613D01*
X108110D01*
X107691Y30631D01*
X107309Y30704D01*
X106963Y30777D01*
X106653Y30886D01*
X106417Y30977D01*
X106234Y31068D01*
X106161Y31086D01*
X106107Y31123D01*
X106089Y31141D01*
X106070D01*
X105761Y31360D01*
X105470Y31614D01*
X105233Y31869D01*
X105032Y32125D01*
X104868Y32361D01*
X104759Y32543D01*
X104723Y32616D01*
X104686Y32671D01*
X104668Y32689D01*
Y32707D01*
X104486Y33090D01*
X104359Y33490D01*
X104268Y33855D01*
X104213Y34201D01*
X104158Y34492D01*
Y34601D01*
X104140Y34711D01*
Y34802D01*
Y34856D01*
Y34893D01*
Y34911D01*
X104158Y35239D01*
X104195Y35548D01*
X104249Y35858D01*
X104304Y36131D01*
X104395Y36386D01*
X104486Y36641D01*
X104577Y36860D01*
X104686Y37060D01*
X104796Y37242D01*
X104887Y37406D01*
X104978Y37533D01*
X105069Y37661D01*
X105123Y37752D01*
X105178Y37807D01*
X105215Y37843D01*
X105233Y37861D01*
X105433Y38061D01*
X105652Y38244D01*
X105888Y38389D01*
X106107Y38517D01*
X106325Y38644D01*
X106544Y38735D01*
X106963Y38863D01*
X107145Y38918D01*
X107327Y38954D01*
X107473Y38972D01*
X107619Y38990D01*
X107728Y39009D01*
X107873D01*
X108201Y38990D01*
X108511Y38936D01*
X108802Y38881D01*
X109057Y38808D01*
X109276Y38717D01*
X109440Y38663D01*
X109549Y38608D01*
X109567Y38590D01*
X109585D01*
X109877Y38407D01*
X110132Y38207D01*
X110368Y38007D01*
X110551Y37788D01*
X110715Y37606D01*
X110842Y37460D01*
X110915Y37351D01*
X110933Y37333D01*
Y37661D01*
X110915Y37989D01*
X110897Y38280D01*
X110860Y38571D01*
X110842Y38826D01*
X110806Y39063D01*
X110769Y39282D01*
X110715Y39482D01*
X110678Y39664D01*
X110642Y39810D01*
X110605Y39937D01*
X110587Y40047D01*
X110551Y40120D01*
X110532Y40174D01*
X110514Y40210D01*
Y40229D01*
X110332Y40593D01*
X110150Y40921D01*
X109950Y41176D01*
X109767Y41394D01*
X109604Y41576D01*
X109476Y41704D01*
X109385Y41777D01*
X109349Y41795D01*
X109130Y41941D01*
X108912Y42032D01*
X108693Y42105D01*
X108474Y42159D01*
X108310Y42196D01*
X108165Y42214D01*
X108037D01*
X107710Y42177D01*
X107400Y42105D01*
X107145Y41995D01*
X106908Y41886D01*
X106726Y41758D01*
X106599Y41649D01*
X106526Y41576D01*
X106489Y41540D01*
X106362Y41376D01*
X106234Y41176D01*
X106125Y40957D01*
X106052Y40739D01*
X105979Y40538D01*
X105925Y40374D01*
X105906Y40265D01*
X105888Y40247D01*
Y40229D01*
X104340Y40356D01*
X104450Y40866D01*
X104614Y41321D01*
X104796Y41722D01*
X104996Y42050D01*
X105196Y42305D01*
X105269Y42414D01*
X105360Y42505D01*
X105415Y42560D01*
X105470Y42614D01*
X105488Y42633D01*
X105506Y42651D01*
X105688Y42797D01*
X105888Y42924D01*
X106289Y43143D01*
X106690Y43288D01*
X107072Y43379D01*
X107418Y43452D01*
X107564Y43470D01*
X107691D01*
X107801Y43489D01*
X107946D01*
X108310Y43470D01*
D02*
G37*
G36*
X156424Y29209D02*
X156624Y28918D01*
X156861Y28626D01*
X157080Y28371D01*
X157298Y28153D01*
X157462Y27971D01*
X157535Y27916D01*
X157590Y27861D01*
X157608Y27843D01*
X157626Y27825D01*
X158008Y27515D01*
X158391Y27224D01*
X158755Y26969D01*
X159119Y26769D01*
X159429Y26586D01*
X159557Y26514D01*
X159666Y26459D01*
X159757Y26404D01*
X159830Y26386D01*
X159866Y26350D01*
X159884D01*
Y24856D01*
X159611Y24966D01*
X159338Y25093D01*
X159065Y25221D01*
X158810Y25348D01*
X158591Y25457D01*
X158409Y25549D01*
X158300Y25621D01*
X158282Y25640D01*
X158264D01*
X157936Y25840D01*
X157644Y26040D01*
X157389Y26222D01*
X157189Y26386D01*
X157007Y26514D01*
X156898Y26623D01*
X156806Y26696D01*
X156788Y26714D01*
Y16861D01*
X155240D01*
Y29519D01*
X156242D01*
X156424Y29209D01*
D02*
G37*
G36*
X151161Y27807D02*
X144987D01*
X145424Y27279D01*
X145843Y26714D01*
X146207Y26168D01*
X146553Y25640D01*
X146699Y25403D01*
X146826Y25184D01*
X146954Y24984D01*
X147045Y24820D01*
X147118Y24674D01*
X147172Y24583D01*
X147209Y24510D01*
X147227Y24492D01*
X147591Y23764D01*
X147919Y23035D01*
X148192Y22343D01*
X148302Y22034D01*
X148411Y21724D01*
X148520Y21451D01*
X148593Y21196D01*
X148666Y20977D01*
X148721Y20795D01*
X148775Y20631D01*
X148812Y20522D01*
X148830Y20449D01*
Y20431D01*
X149012Y19684D01*
X149085Y19320D01*
X149139Y18992D01*
X149194Y18683D01*
X149249Y18373D01*
X149285Y18118D01*
X149321Y17863D01*
X149340Y17644D01*
X149358Y17444D01*
X149376Y17262D01*
Y17116D01*
X149394Y17007D01*
Y16934D01*
Y16880D01*
Y16861D01*
X147810D01*
X147755Y17553D01*
X147664Y18191D01*
X147573Y18774D01*
X147519Y19047D01*
X147464Y19302D01*
X147428Y19520D01*
X147373Y19721D01*
X147336Y19903D01*
X147300Y20048D01*
X147264Y20158D01*
X147245Y20249D01*
X147227Y20303D01*
Y20322D01*
X146954Y21159D01*
X146663Y21943D01*
X146517Y22325D01*
X146371Y22689D01*
X146207Y23017D01*
X146062Y23345D01*
X145934Y23636D01*
X145807Y23891D01*
X145697Y24110D01*
X145606Y24310D01*
X145515Y24474D01*
X145461Y24583D01*
X145424Y24656D01*
X145406Y24674D01*
X145187Y25057D01*
X144969Y25439D01*
X144750Y25785D01*
X144532Y26113D01*
X144332Y26404D01*
X144131Y26696D01*
X143931Y26951D01*
X143767Y27169D01*
X143603Y27388D01*
X143457Y27570D01*
X143312Y27716D01*
X143202Y27843D01*
X143130Y27952D01*
X143057Y28025D01*
X143020Y28062D01*
X143002Y28080D01*
Y29300D01*
X151161D01*
Y27807D01*
D02*
G37*
G36*
X168298Y29646D02*
X168881Y29555D01*
X169391Y29446D01*
X169628Y29373D01*
X169846Y29300D01*
X170047Y29227D01*
X170229Y29154D01*
X170374Y29100D01*
X170520Y29045D01*
X170611Y28990D01*
X170684Y28954D01*
X170739Y28936D01*
X170757Y28918D01*
X171248Y28608D01*
X171667Y28244D01*
X172032Y27880D01*
X172341Y27515D01*
X172578Y27188D01*
X172669Y27042D01*
X172742Y26914D01*
X172815Y26823D01*
X172851Y26750D01*
X172869Y26696D01*
X172888Y26678D01*
X173143Y26113D01*
X173325Y25530D01*
X173452Y24948D01*
X173543Y24419D01*
X173580Y24183D01*
X173598Y23946D01*
X173616Y23764D01*
Y23582D01*
X173634Y23454D01*
Y23345D01*
Y23272D01*
Y23254D01*
X173598Y22598D01*
X173525Y21961D01*
X173434Y21396D01*
X173361Y21123D01*
X173306Y20886D01*
X173252Y20668D01*
X173179Y20467D01*
X173124Y20285D01*
X173088Y20140D01*
X173033Y20030D01*
X173015Y19939D01*
X172979Y19885D01*
Y19866D01*
X172705Y19320D01*
X172396Y18828D01*
X172068Y18409D01*
X171904Y18246D01*
X171758Y18082D01*
X171613Y17936D01*
X171467Y17808D01*
X171340Y17699D01*
X171230Y17626D01*
X171157Y17553D01*
X171085Y17499D01*
X171048Y17481D01*
X171030Y17462D01*
X170775Y17317D01*
X170520Y17189D01*
X169974Y16989D01*
X169427Y16843D01*
X168899Y16752D01*
X168644Y16716D01*
X168426Y16679D01*
X168225Y16661D01*
X168061D01*
X167916Y16643D01*
X167715D01*
X167351Y16661D01*
X167005Y16697D01*
X166677Y16734D01*
X166368Y16807D01*
X166076Y16898D01*
X165803Y16989D01*
X165548Y17080D01*
X165312Y17189D01*
X165111Y17280D01*
X164911Y17371D01*
X164765Y17462D01*
X164619Y17553D01*
X164528Y17626D01*
X164437Y17663D01*
X164401Y17699D01*
X164383Y17717D01*
X164128Y17936D01*
X163909Y18154D01*
X163709Y18409D01*
X163508Y18664D01*
X163181Y19174D01*
X162926Y19684D01*
X162816Y19921D01*
X162725Y20140D01*
X162652Y20340D01*
X162598Y20504D01*
X162543Y20649D01*
X162507Y20759D01*
X162489Y20832D01*
Y20850D01*
X164164Y21269D01*
X164237Y20977D01*
X164328Y20704D01*
X164419Y20449D01*
X164510Y20212D01*
X164619Y19994D01*
X164729Y19812D01*
X164856Y19630D01*
X164965Y19466D01*
X165056Y19320D01*
X165166Y19211D01*
X165257Y19102D01*
X165330Y19010D01*
X165403Y18956D01*
X165457Y18901D01*
X165475Y18883D01*
X165494Y18865D01*
X165676Y18719D01*
X165876Y18610D01*
X166277Y18409D01*
X166659Y18264D01*
X167042Y18173D01*
X167369Y18100D01*
X167497Y18082D01*
X167624D01*
X167734Y18063D01*
X167861D01*
X168280Y18082D01*
X168681Y18154D01*
X169045Y18246D01*
X169373Y18355D01*
X169628Y18464D01*
X169737Y18519D01*
X169828Y18555D01*
X169901Y18592D01*
X169956Y18628D01*
X169992Y18646D01*
X170010D01*
X170356Y18901D01*
X170648Y19174D01*
X170903Y19484D01*
X171103Y19775D01*
X171267Y20030D01*
X171376Y20249D01*
X171412Y20340D01*
X171449Y20394D01*
X171467Y20431D01*
Y20449D01*
X171613Y20923D01*
X171722Y21396D01*
X171813Y21870D01*
X171868Y22307D01*
X171886Y22507D01*
X171904Y22689D01*
Y22853D01*
X171922Y22981D01*
Y23090D01*
Y23181D01*
Y23236D01*
Y23254D01*
X171904Y23727D01*
X171868Y24164D01*
X171795Y24565D01*
X171722Y24929D01*
X171667Y25239D01*
X171631Y25366D01*
X171595Y25476D01*
X171576Y25567D01*
X171558Y25621D01*
X171540Y25658D01*
Y25676D01*
X171358Y26095D01*
X171157Y26477D01*
X170939Y26787D01*
X170702Y27060D01*
X170502Y27279D01*
X170338Y27424D01*
X170210Y27515D01*
X170192Y27552D01*
X170174D01*
X169792Y27789D01*
X169373Y27971D01*
X168972Y28098D01*
X168590Y28171D01*
X168244Y28226D01*
X168098Y28244D01*
X167970D01*
X167879Y28262D01*
X167734D01*
X167278Y28244D01*
X166859Y28171D01*
X166513Y28062D01*
X166204Y27952D01*
X165967Y27825D01*
X165785Y27734D01*
X165676Y27661D01*
X165639Y27625D01*
X165348Y27351D01*
X165075Y27042D01*
X164856Y26714D01*
X164674Y26386D01*
X164528Y26095D01*
X164474Y25949D01*
X164437Y25840D01*
X164401Y25749D01*
X164364Y25676D01*
X164346Y25640D01*
Y25621D01*
X162707Y26004D01*
X162816Y26332D01*
X162926Y26623D01*
X163071Y26896D01*
X163199Y27169D01*
X163345Y27406D01*
X163508Y27625D01*
X163654Y27843D01*
X163800Y28025D01*
X163946Y28171D01*
X164073Y28317D01*
X164200Y28444D01*
X164292Y28535D01*
X164383Y28626D01*
X164456Y28681D01*
X164492Y28699D01*
X164510Y28717D01*
X164765Y28881D01*
X165020Y29045D01*
X165275Y29173D01*
X165548Y29282D01*
X166095Y29446D01*
X166586Y29555D01*
X166823Y29610D01*
X167023Y29628D01*
X167224Y29646D01*
X167388Y29664D01*
X167515Y29683D01*
X167697D01*
X168298Y29646D01*
D02*
G37*
G36*
X128154Y117033D02*
X128445Y117015D01*
X128955Y116905D01*
X129192Y116833D01*
X129410Y116760D01*
X129611Y116669D01*
X129793Y116578D01*
X129938Y116487D01*
X130084Y116396D01*
X130211Y116323D01*
X130303Y116250D01*
X130375Y116195D01*
X130430Y116141D01*
X130466Y116122D01*
X130485Y116104D01*
X130649Y115922D01*
X130813Y115740D01*
X130940Y115540D01*
X131049Y115339D01*
X131231Y114957D01*
X131341Y114593D01*
X131413Y114283D01*
X131432Y114137D01*
X131450Y114028D01*
X131468Y113919D01*
Y113846D01*
Y113809D01*
Y113791D01*
X131450Y113463D01*
X131395Y113154D01*
X131322Y112881D01*
X131231Y112644D01*
X131159Y112462D01*
X131086Y112316D01*
X131031Y112243D01*
X131013Y112207D01*
X130813Y111988D01*
X130594Y111788D01*
X130357Y111606D01*
X130120Y111460D01*
X129902Y111351D01*
X129738Y111278D01*
X129665Y111242D01*
X129611Y111223D01*
X129592Y111205D01*
X129574D01*
X129993Y111078D01*
X130339Y110914D01*
X130649Y110714D01*
X130904Y110531D01*
X131104Y110349D01*
X131250Y110204D01*
X131322Y110112D01*
X131359Y110094D01*
Y110076D01*
X131559Y109748D01*
X131723Y109402D01*
X131832Y109074D01*
X131905Y108747D01*
X131942Y108455D01*
X131960Y108328D01*
Y108218D01*
X131978Y108146D01*
Y108073D01*
Y108036D01*
Y108018D01*
X131960Y107727D01*
X131923Y107435D01*
X131869Y107162D01*
X131796Y106889D01*
X131614Y106434D01*
X131523Y106215D01*
X131413Y106033D01*
X131304Y105851D01*
X131213Y105705D01*
X131104Y105578D01*
X131031Y105469D01*
X130958Y105377D01*
X130904Y105323D01*
X130867Y105286D01*
X130849Y105268D01*
X130630Y105068D01*
X130394Y104904D01*
X130139Y104758D01*
X129884Y104631D01*
X129647Y104540D01*
X129392Y104449D01*
X128900Y104321D01*
X128682Y104267D01*
X128481Y104230D01*
X128299Y104212D01*
X128135Y104194D01*
X128008Y104176D01*
X127826D01*
X127480Y104194D01*
X127170Y104230D01*
X126861Y104285D01*
X126569Y104339D01*
X126314Y104430D01*
X126059Y104522D01*
X125822Y104613D01*
X125622Y104722D01*
X125440Y104831D01*
X125276Y104922D01*
X125149Y105013D01*
X125021Y105104D01*
X124930Y105159D01*
X124875Y105213D01*
X124839Y105250D01*
X124821Y105268D01*
X124621Y105487D01*
X124438Y105705D01*
X124293Y105924D01*
X124165Y106160D01*
X124038Y106379D01*
X123947Y106616D01*
X123819Y107035D01*
X123764Y107235D01*
X123728Y107417D01*
X123710Y107581D01*
X123692Y107709D01*
X123673Y107818D01*
Y107909D01*
Y107963D01*
Y107982D01*
X123692Y108401D01*
X123764Y108783D01*
X123874Y109129D01*
X123983Y109420D01*
X124092Y109657D01*
X124202Y109839D01*
X124275Y109949D01*
X124293Y109967D01*
Y109985D01*
X124548Y110276D01*
X124821Y110531D01*
X125112Y110732D01*
X125385Y110914D01*
X125640Y111041D01*
X125859Y111132D01*
X125932Y111169D01*
X125986Y111187D01*
X126023Y111205D01*
X126041D01*
X125713Y111351D01*
X125440Y111515D01*
X125203Y111679D01*
X125003Y111843D01*
X124857Y111988D01*
X124748Y112098D01*
X124675Y112170D01*
X124657Y112207D01*
X124493Y112462D01*
X124384Y112717D01*
X124293Y112972D01*
X124238Y113227D01*
X124202Y113427D01*
X124183Y113591D01*
Y113700D01*
Y113718D01*
Y113737D01*
X124202Y113992D01*
X124220Y114228D01*
X124347Y114684D01*
X124511Y115084D01*
X124693Y115430D01*
X124875Y115703D01*
X124966Y115813D01*
X125039Y115922D01*
X125112Y115995D01*
X125167Y116050D01*
X125185Y116068D01*
X125203Y116086D01*
X125404Y116250D01*
X125604Y116414D01*
X125822Y116541D01*
X126041Y116650D01*
X126478Y116814D01*
X126915Y116924D01*
X127097Y116978D01*
X127279Y116997D01*
X127443Y117015D01*
X127589Y117033D01*
X127698Y117051D01*
X127862D01*
X128154Y117033D01*
D02*
G37*
G36*
X215833Y108524D02*
X215541Y108451D01*
X215268Y108360D01*
X215013Y108269D01*
X214776Y108178D01*
X214558Y108069D01*
X214376Y107959D01*
X214194Y107832D01*
X214030Y107723D01*
X213884Y107632D01*
X213775Y107522D01*
X213666Y107431D01*
X213574Y107358D01*
X213520Y107285D01*
X213465Y107231D01*
X213447Y107213D01*
X213429Y107194D01*
X213283Y107012D01*
X213174Y106812D01*
X212973Y106411D01*
X212828Y106029D01*
X212737Y105646D01*
X212664Y105319D01*
X212646Y105191D01*
Y105064D01*
X212627Y104954D01*
Y104881D01*
Y104845D01*
Y104827D01*
X212646Y104408D01*
X212719Y104007D01*
X212810Y103643D01*
X212919Y103315D01*
X213028Y103060D01*
X213083Y102951D01*
X213119Y102860D01*
X213156Y102787D01*
X213192Y102732D01*
X213210Y102696D01*
Y102678D01*
X213465Y102332D01*
X213738Y102040D01*
X214048Y101785D01*
X214339Y101585D01*
X214594Y101421D01*
X214813Y101312D01*
X214904Y101276D01*
X214958Y101239D01*
X214995Y101221D01*
X215013D01*
X215487Y101075D01*
X215960Y100966D01*
X216434Y100875D01*
X216871Y100820D01*
X217071Y100802D01*
X217253Y100784D01*
X217417D01*
X217545Y100766D01*
X217818D01*
X218291Y100784D01*
X218728Y100820D01*
X219129Y100893D01*
X219493Y100966D01*
X219803Y101021D01*
X219930Y101057D01*
X220040Y101093D01*
X220131Y101112D01*
X220185Y101130D01*
X220222Y101148D01*
X220240D01*
X220659Y101330D01*
X221041Y101531D01*
X221351Y101749D01*
X221624Y101986D01*
X221843Y102186D01*
X221988Y102350D01*
X222079Y102478D01*
X222116Y102496D01*
Y102514D01*
X222353Y102896D01*
X222535Y103315D01*
X222662Y103716D01*
X222735Y104098D01*
X222790Y104444D01*
X222808Y104590D01*
Y104718D01*
X222826Y104809D01*
Y104881D01*
Y104936D01*
Y104954D01*
X222808Y105410D01*
X222735Y105829D01*
X222626Y106174D01*
X222516Y106484D01*
X222389Y106721D01*
X222298Y106903D01*
X222225Y107012D01*
X222189Y107049D01*
X221915Y107340D01*
X221606Y107613D01*
X221278Y107832D01*
X220950Y108014D01*
X220659Y108160D01*
X220513Y108214D01*
X220404Y108251D01*
X220313Y108287D01*
X220240Y108323D01*
X220203Y108342D01*
X220185D01*
X220568Y109981D01*
X220896Y109872D01*
X221187Y109762D01*
X221460Y109616D01*
X221733Y109489D01*
X221970Y109343D01*
X222189Y109179D01*
X222407Y109034D01*
X222589Y108888D01*
X222735Y108742D01*
X222881Y108615D01*
X223008Y108487D01*
X223099Y108396D01*
X223190Y108305D01*
X223245Y108232D01*
X223263Y108196D01*
X223281Y108178D01*
X223445Y107923D01*
X223609Y107668D01*
X223737Y107413D01*
X223846Y107140D01*
X224010Y106593D01*
X224119Y106102D01*
X224174Y105865D01*
X224192Y105665D01*
X224210Y105464D01*
X224228Y105300D01*
X224247Y105173D01*
Y105082D01*
Y105009D01*
Y104991D01*
X224210Y104390D01*
X224119Y103807D01*
X224010Y103297D01*
X223937Y103060D01*
X223864Y102842D01*
X223791Y102641D01*
X223718Y102459D01*
X223664Y102314D01*
X223609Y102168D01*
X223554Y102077D01*
X223518Y102004D01*
X223500Y101949D01*
X223482Y101931D01*
X223172Y101439D01*
X222808Y101021D01*
X222444Y100656D01*
X222079Y100347D01*
X221751Y100110D01*
X221606Y100019D01*
X221478Y99946D01*
X221387Y99873D01*
X221314Y99837D01*
X221260Y99819D01*
X221242Y99800D01*
X220677Y99545D01*
X220094Y99363D01*
X219512Y99236D01*
X218983Y99145D01*
X218747Y99108D01*
X218510Y99090D01*
X218328Y99072D01*
X218146D01*
X218018Y99054D01*
X217818D01*
X217162Y99090D01*
X216525Y99163D01*
X215960Y99254D01*
X215687Y99327D01*
X215450Y99382D01*
X215232Y99436D01*
X215031Y99509D01*
X214849Y99564D01*
X214704Y99600D01*
X214594Y99655D01*
X214503Y99673D01*
X214449Y99709D01*
X214430D01*
X213884Y99983D01*
X213392Y100292D01*
X212973Y100620D01*
X212810Y100784D01*
X212646Y100929D01*
X212500Y101075D01*
X212372Y101221D01*
X212263Y101348D01*
X212190Y101458D01*
X212118Y101531D01*
X212063Y101603D01*
X212045Y101640D01*
X212026Y101658D01*
X211881Y101913D01*
X211753Y102168D01*
X211553Y102714D01*
X211407Y103261D01*
X211316Y103789D01*
X211280Y104044D01*
X211243Y104262D01*
X211225Y104463D01*
Y104627D01*
X211207Y104772D01*
Y104881D01*
Y104954D01*
Y104972D01*
X211225Y105337D01*
X211262Y105683D01*
X211298Y106011D01*
X211371Y106320D01*
X211462Y106612D01*
X211553Y106885D01*
X211644Y107140D01*
X211753Y107376D01*
X211844Y107577D01*
X211935Y107777D01*
X212026Y107923D01*
X212118Y108069D01*
X212190Y108160D01*
X212227Y108251D01*
X212263Y108287D01*
X212281Y108305D01*
X212500Y108560D01*
X212719Y108779D01*
X212973Y108979D01*
X213228Y109179D01*
X213738Y109507D01*
X214248Y109762D01*
X214485Y109872D01*
X214704Y109963D01*
X214904Y110035D01*
X215068Y110090D01*
X215214Y110145D01*
X215323Y110181D01*
X215396Y110199D01*
X215414D01*
X215833Y108524D01*
D02*
G37*
G36*
X215578Y119870D02*
X215978Y119797D01*
X216324Y119688D01*
X216616Y119578D01*
X216853Y119469D01*
X217035Y119360D01*
X217144Y119287D01*
X217180Y119269D01*
X217453Y119014D01*
X217690Y118741D01*
X217872Y118449D01*
X218018Y118158D01*
X218127Y117903D01*
X218200Y117703D01*
X218218Y117630D01*
X218237Y117575D01*
X218255Y117539D01*
Y117521D01*
X218419Y117830D01*
X218583Y118085D01*
X218765Y118304D01*
X218929Y118486D01*
X219074Y118631D01*
X219202Y118741D01*
X219275Y118795D01*
X219311Y118813D01*
X219566Y118959D01*
X219821Y119068D01*
X220076Y119159D01*
X220313Y119214D01*
X220513Y119251D01*
X220659Y119269D01*
X220805D01*
X221114Y119251D01*
X221424Y119196D01*
X221697Y119123D01*
X221934Y119032D01*
X222134Y118941D01*
X222298Y118868D01*
X222389Y118813D01*
X222425Y118795D01*
X222698Y118613D01*
X222935Y118395D01*
X223136Y118176D01*
X223318Y117957D01*
X223445Y117775D01*
X223554Y117612D01*
X223609Y117502D01*
X223627Y117484D01*
Y117466D01*
X223773Y117138D01*
X223882Y116810D01*
X223973Y116482D01*
X224028Y116191D01*
X224064Y115954D01*
X224083Y115754D01*
Y115681D01*
Y115626D01*
Y115590D01*
Y115572D01*
Y115299D01*
X224046Y115044D01*
X223955Y114552D01*
X223810Y114133D01*
X223664Y113769D01*
X223573Y113605D01*
X223500Y113477D01*
X223427Y113350D01*
X223354Y113259D01*
X223300Y113186D01*
X223263Y113131D01*
X223245Y113095D01*
X223227Y113077D01*
X222881Y112731D01*
X222498Y112458D01*
X222097Y112239D01*
X221697Y112057D01*
X221351Y111948D01*
X221205Y111893D01*
X221078Y111857D01*
X220968Y111838D01*
X220896Y111820D01*
X220841Y111802D01*
X220823D01*
X220550Y113350D01*
X220950Y113423D01*
X221296Y113532D01*
X221588Y113660D01*
X221824Y113787D01*
X222006Y113914D01*
X222134Y114024D01*
X222225Y114097D01*
X222243Y114115D01*
X222425Y114352D01*
X222571Y114607D01*
X222662Y114843D01*
X222735Y115080D01*
X222771Y115299D01*
X222808Y115463D01*
Y115572D01*
Y115590D01*
Y115608D01*
X222790Y115936D01*
X222717Y116227D01*
X222626Y116482D01*
X222535Y116701D01*
X222425Y116865D01*
X222334Y116992D01*
X222262Y117083D01*
X222243Y117102D01*
X222025Y117302D01*
X221788Y117448D01*
X221551Y117539D01*
X221333Y117612D01*
X221132Y117648D01*
X220987Y117684D01*
X220641D01*
X220459Y117648D01*
X220149Y117557D01*
X219876Y117429D01*
X219639Y117284D01*
X219475Y117138D01*
X219348Y117010D01*
X219275Y116919D01*
X219256Y116901D01*
Y116883D01*
X219093Y116573D01*
X218965Y116282D01*
X218874Y115972D01*
X218819Y115699D01*
X218783Y115463D01*
X218747Y115262D01*
Y115189D01*
Y115135D01*
Y115117D01*
Y115098D01*
Y115025D01*
X218765Y114953D01*
Y114880D01*
Y114861D01*
X217399Y114679D01*
X217453Y114916D01*
X217490Y115135D01*
X217526Y115317D01*
X217545Y115481D01*
X217563Y115608D01*
Y115699D01*
Y115754D01*
Y115772D01*
X217526Y116155D01*
X217453Y116501D01*
X217344Y116810D01*
X217217Y117065D01*
X217089Y117266D01*
X216980Y117411D01*
X216907Y117502D01*
X216871Y117539D01*
X216598Y117775D01*
X216306Y117957D01*
X216015Y118085D01*
X215723Y118158D01*
X215487Y118212D01*
X215286Y118231D01*
X215214Y118249D01*
X215104D01*
X214704Y118212D01*
X214339Y118122D01*
X214030Y118012D01*
X213757Y117866D01*
X213538Y117721D01*
X213374Y117612D01*
X213265Y117521D01*
X213228Y117484D01*
X212973Y117193D01*
X212791Y116883D01*
X212664Y116573D01*
X212573Y116282D01*
X212518Y116027D01*
X212500Y115827D01*
X212482Y115754D01*
Y115699D01*
Y115663D01*
Y115645D01*
X212500Y115317D01*
X212573Y115007D01*
X212664Y114734D01*
X212773Y114515D01*
X212864Y114333D01*
X212955Y114188D01*
X213028Y114115D01*
X213046Y114078D01*
X213301Y113860D01*
X213593Y113678D01*
X213902Y113514D01*
X214230Y113386D01*
X214503Y113295D01*
X214631Y113259D01*
X214740Y113241D01*
X214831Y113223D01*
X214904Y113204D01*
X214940Y113186D01*
X214958D01*
X214758Y111638D01*
X214467Y111674D01*
X214194Y111729D01*
X213684Y111893D01*
X213247Y112093D01*
X213064Y112203D01*
X212882Y112312D01*
X212719Y112421D01*
X212591Y112530D01*
X212463Y112621D01*
X212372Y112713D01*
X212300Y112767D01*
X212245Y112822D01*
X212208Y112858D01*
X212190Y112877D01*
X212026Y113095D01*
X211863Y113314D01*
X211735Y113532D01*
X211626Y113769D01*
X211444Y114224D01*
X211334Y114661D01*
X211298Y114861D01*
X211262Y115044D01*
X211243Y115208D01*
X211225Y115353D01*
X211207Y115463D01*
Y115554D01*
Y115608D01*
Y115626D01*
X211225Y115972D01*
X211262Y116282D01*
X211316Y116592D01*
X211389Y116883D01*
X211480Y117156D01*
X211571Y117393D01*
X211680Y117630D01*
X211790Y117830D01*
X211881Y118030D01*
X211990Y118194D01*
X212081Y118340D01*
X212172Y118449D01*
X212245Y118540D01*
X212300Y118613D01*
X212336Y118650D01*
X212354Y118668D01*
X212573Y118886D01*
X212810Y119068D01*
X213046Y119232D01*
X213283Y119378D01*
X213502Y119487D01*
X213738Y119597D01*
X214175Y119742D01*
X214376Y119779D01*
X214558Y119815D01*
X214722Y119852D01*
X214867Y119870D01*
X214977Y119888D01*
X215141D01*
X215578Y119870D01*
D02*
G37*
G36*
X233105Y105095D02*
X232813Y105022D01*
X232540Y104931D01*
X232285Y104840D01*
X232048Y104749D01*
X231830Y104640D01*
X231648Y104531D01*
X231466Y104403D01*
X231302Y104294D01*
X231156Y104203D01*
X231047Y104094D01*
X230938Y104003D01*
X230846Y103930D01*
X230792Y103857D01*
X230737Y103802D01*
X230719Y103784D01*
X230701Y103766D01*
X230555Y103584D01*
X230446Y103383D01*
X230245Y102983D01*
X230100Y102600D01*
X230009Y102218D01*
X229936Y101890D01*
X229918Y101763D01*
Y101635D01*
X229899Y101526D01*
Y101453D01*
Y101417D01*
Y101398D01*
X229918Y100979D01*
X229991Y100579D01*
X230082Y100215D01*
X230191Y99887D01*
X230300Y99632D01*
X230355Y99522D01*
X230391Y99431D01*
X230428Y99359D01*
X230464Y99304D01*
X230482Y99268D01*
Y99249D01*
X230737Y98903D01*
X231010Y98612D01*
X231320Y98357D01*
X231611Y98157D01*
X231866Y97993D01*
X232085Y97883D01*
X232176Y97847D01*
X232230Y97811D01*
X232267Y97792D01*
X232285D01*
X232759Y97647D01*
X233232Y97537D01*
X233706Y97446D01*
X234143Y97392D01*
X234343Y97374D01*
X234525Y97355D01*
X234689D01*
X234817Y97337D01*
X235090D01*
X235563Y97355D01*
X236000Y97392D01*
X236401Y97465D01*
X236765Y97537D01*
X237075Y97592D01*
X237202Y97628D01*
X237312Y97665D01*
X237403Y97683D01*
X237457Y97701D01*
X237494Y97719D01*
X237512D01*
X237931Y97902D01*
X238313Y98102D01*
X238623Y98321D01*
X238896Y98557D01*
X239115Y98758D01*
X239260Y98921D01*
X239351Y99049D01*
X239388Y99067D01*
Y99085D01*
X239625Y99468D01*
X239807Y99887D01*
X239934Y100287D01*
X240007Y100670D01*
X240062Y101016D01*
X240080Y101162D01*
Y101289D01*
X240098Y101380D01*
Y101453D01*
Y101508D01*
Y101526D01*
X240080Y101981D01*
X240007Y102400D01*
X239898Y102746D01*
X239788Y103056D01*
X239661Y103292D01*
X239570Y103475D01*
X239497Y103584D01*
X239461Y103620D01*
X239187Y103912D01*
X238878Y104185D01*
X238550Y104403D01*
X238222Y104585D01*
X237931Y104731D01*
X237785Y104786D01*
X237676Y104822D01*
X237585Y104859D01*
X237512Y104895D01*
X237475Y104913D01*
X237457D01*
X237840Y106552D01*
X238168Y106443D01*
X238459Y106334D01*
X238732Y106188D01*
X239005Y106060D01*
X239242Y105915D01*
X239461Y105751D01*
X239679Y105605D01*
X239861Y105460D01*
X240007Y105314D01*
X240153Y105186D01*
X240280Y105059D01*
X240371Y104968D01*
X240462Y104877D01*
X240517Y104804D01*
X240535Y104768D01*
X240553Y104749D01*
X240717Y104494D01*
X240881Y104239D01*
X241009Y103984D01*
X241118Y103711D01*
X241282Y103165D01*
X241391Y102673D01*
X241446Y102436D01*
X241464Y102236D01*
X241482Y102036D01*
X241500Y101872D01*
X241518Y101744D01*
Y101653D01*
Y101580D01*
Y101562D01*
X241482Y100961D01*
X241391Y100379D01*
X241282Y99868D01*
X241209Y99632D01*
X241136Y99413D01*
X241063Y99213D01*
X240990Y99031D01*
X240936Y98885D01*
X240881Y98739D01*
X240826Y98648D01*
X240790Y98575D01*
X240772Y98521D01*
X240754Y98503D01*
X240444Y98011D01*
X240080Y97592D01*
X239716Y97228D01*
X239351Y96918D01*
X239023Y96681D01*
X238878Y96590D01*
X238750Y96518D01*
X238659Y96445D01*
X238586Y96408D01*
X238532Y96390D01*
X238514Y96372D01*
X237949Y96117D01*
X237366Y95935D01*
X236784Y95807D01*
X236255Y95716D01*
X236019Y95680D01*
X235782Y95662D01*
X235600Y95643D01*
X235418D01*
X235290Y95625D01*
X235090D01*
X234434Y95662D01*
X233797Y95735D01*
X233232Y95826D01*
X232959Y95898D01*
X232722Y95953D01*
X232504Y96008D01*
X232303Y96081D01*
X232121Y96135D01*
X231976Y96172D01*
X231866Y96226D01*
X231775Y96244D01*
X231721Y96281D01*
X231702D01*
X231156Y96554D01*
X230664Y96864D01*
X230245Y97191D01*
X230082Y97355D01*
X229918Y97501D01*
X229772Y97647D01*
X229644Y97792D01*
X229535Y97920D01*
X229462Y98029D01*
X229389Y98102D01*
X229335Y98175D01*
X229317Y98211D01*
X229298Y98230D01*
X229153Y98484D01*
X229025Y98739D01*
X228825Y99286D01*
X228679Y99832D01*
X228588Y100360D01*
X228552Y100615D01*
X228515Y100834D01*
X228497Y101034D01*
Y101198D01*
X228479Y101344D01*
Y101453D01*
Y101526D01*
Y101544D01*
X228497Y101908D01*
X228533Y102254D01*
X228570Y102582D01*
X228643Y102892D01*
X228734Y103183D01*
X228825Y103456D01*
X228916Y103711D01*
X229025Y103948D01*
X229116Y104148D01*
X229207Y104349D01*
X229298Y104494D01*
X229389Y104640D01*
X229462Y104731D01*
X229499Y104822D01*
X229535Y104859D01*
X229553Y104877D01*
X229772Y105132D01*
X229991Y105350D01*
X230245Y105551D01*
X230500Y105751D01*
X231010Y106079D01*
X231520Y106334D01*
X231757Y106443D01*
X231976Y106534D01*
X232176Y106607D01*
X232340Y106662D01*
X232486Y106716D01*
X232595Y106753D01*
X232668Y106771D01*
X232686D01*
X233105Y105095D01*
D02*
G37*
G36*
X183640Y341715D02*
X184223Y341624D01*
X184733Y341514D01*
X184969Y341441D01*
X185188Y341369D01*
X185388Y341296D01*
X185570Y341223D01*
X185716Y341168D01*
X185862Y341114D01*
X185953Y341059D01*
X186026Y341023D01*
X186080Y341004D01*
X186098Y340986D01*
X186590Y340677D01*
X187009Y340312D01*
X187373Y339948D01*
X187683Y339584D01*
X187920Y339256D01*
X188011Y339110D01*
X188084Y338983D01*
X188157Y338892D01*
X188193Y338819D01*
X188211Y338764D01*
X188229Y338746D01*
X188484Y338182D01*
X188666Y337599D01*
X188794Y337016D01*
X188885Y336488D01*
X188921Y336251D01*
X188940Y336014D01*
X188958Y335832D01*
Y335650D01*
X188976Y335523D01*
Y335413D01*
Y335341D01*
Y335322D01*
X188940Y334667D01*
X188867Y334029D01*
X188776Y333465D01*
X188703Y333192D01*
X188648Y332955D01*
X188594Y332736D01*
X188521Y332536D01*
X188466Y332354D01*
X188430Y332208D01*
X188375Y332099D01*
X188357Y332008D01*
X188320Y331953D01*
Y331935D01*
X188047Y331389D01*
X187738Y330897D01*
X187410Y330478D01*
X187246Y330314D01*
X187100Y330150D01*
X186954Y330005D01*
X186809Y329877D01*
X186681Y329768D01*
X186572Y329695D01*
X186499Y329622D01*
X186426Y329567D01*
X186390Y329549D01*
X186372Y329531D01*
X186117Y329385D01*
X185862Y329258D01*
X185315Y329058D01*
X184769Y328912D01*
X184241Y328821D01*
X183986Y328784D01*
X183767Y328748D01*
X183567Y328730D01*
X183403D01*
X183258Y328712D01*
X183057D01*
X182693Y328730D01*
X182347Y328766D01*
X182019Y328802D01*
X181709Y328875D01*
X181418Y328966D01*
X181145Y329058D01*
X180890Y329148D01*
X180653Y329258D01*
X180453Y329349D01*
X180252Y329440D01*
X180107Y329531D01*
X179961Y329622D01*
X179870Y329695D01*
X179779Y329731D01*
X179743Y329768D01*
X179724Y329786D01*
X179469Y330005D01*
X179251Y330223D01*
X179051Y330478D01*
X178850Y330733D01*
X178522Y331243D01*
X178267Y331753D01*
X178158Y331990D01*
X178067Y332208D01*
X177994Y332408D01*
X177940Y332572D01*
X177885Y332718D01*
X177849Y332827D01*
X177830Y332900D01*
Y332918D01*
X179506Y333337D01*
X179579Y333046D01*
X179670Y332773D01*
X179761Y332518D01*
X179852Y332281D01*
X179961Y332062D01*
X180070Y331880D01*
X180198Y331698D01*
X180307Y331534D01*
X180398Y331389D01*
X180508Y331279D01*
X180599Y331170D01*
X180671Y331079D01*
X180744Y331024D01*
X180799Y330970D01*
X180817Y330951D01*
X180835Y330933D01*
X181017Y330788D01*
X181218Y330678D01*
X181618Y330478D01*
X182001Y330332D01*
X182383Y330241D01*
X182711Y330168D01*
X182839Y330150D01*
X182966D01*
X183075Y330132D01*
X183203D01*
X183622Y330150D01*
X184022Y330223D01*
X184387Y330314D01*
X184714Y330423D01*
X184969Y330533D01*
X185079Y330587D01*
X185170Y330624D01*
X185243Y330660D01*
X185297Y330696D01*
X185334Y330715D01*
X185352D01*
X185698Y330970D01*
X185989Y331243D01*
X186244Y331553D01*
X186445Y331844D01*
X186609Y332099D01*
X186718Y332317D01*
X186754Y332408D01*
X186791Y332463D01*
X186809Y332500D01*
Y332518D01*
X186954Y332991D01*
X187064Y333465D01*
X187155Y333938D01*
X187209Y334375D01*
X187228Y334576D01*
X187246Y334758D01*
Y334922D01*
X187264Y335049D01*
Y335158D01*
Y335249D01*
Y335304D01*
Y335322D01*
X187246Y335796D01*
X187209Y336233D01*
X187137Y336634D01*
X187064Y336998D01*
X187009Y337307D01*
X186973Y337435D01*
X186936Y337544D01*
X186918Y337635D01*
X186900Y337690D01*
X186882Y337726D01*
Y337744D01*
X186700Y338163D01*
X186499Y338546D01*
X186281Y338855D01*
X186044Y339129D01*
X185844Y339347D01*
X185680Y339493D01*
X185552Y339584D01*
X185534Y339620D01*
X185516D01*
X185133Y339857D01*
X184714Y340039D01*
X184314Y340167D01*
X183931Y340239D01*
X183585Y340294D01*
X183440Y340312D01*
X183312D01*
X183221Y340331D01*
X183075D01*
X182620Y340312D01*
X182201Y340239D01*
X181855Y340130D01*
X181546Y340021D01*
X181309Y339893D01*
X181127Y339802D01*
X181017Y339730D01*
X180981Y339693D01*
X180690Y339420D01*
X180417Y339110D01*
X180198Y338783D01*
X180016Y338455D01*
X179870Y338163D01*
X179816Y338018D01*
X179779Y337908D01*
X179743Y337817D01*
X179706Y337744D01*
X179688Y337708D01*
Y337690D01*
X178049Y338072D01*
X178158Y338400D01*
X178267Y338691D01*
X178413Y338965D01*
X178541Y339238D01*
X178686Y339475D01*
X178850Y339693D01*
X178996Y339912D01*
X179142Y340094D01*
X179287Y340239D01*
X179415Y340385D01*
X179542Y340513D01*
X179633Y340604D01*
X179724Y340695D01*
X179797Y340750D01*
X179834Y340768D01*
X179852Y340786D01*
X180107Y340950D01*
X180362Y341114D01*
X180617Y341241D01*
X180890Y341350D01*
X181436Y341514D01*
X181928Y341624D01*
X182165Y341678D01*
X182365Y341697D01*
X182565Y341715D01*
X182729Y341733D01*
X182857Y341751D01*
X183039D01*
X183640Y341715D01*
D02*
G37*
G36*
X240735Y323935D02*
X241318Y323844D01*
X241846Y323716D01*
X242083Y323643D01*
X242320Y323570D01*
X242520Y323498D01*
X242702Y323425D01*
X242848Y323352D01*
X242975Y323297D01*
X243085Y323243D01*
X243158Y323206D01*
X243212Y323188D01*
X243230Y323170D01*
X243722Y322842D01*
X244141Y322459D01*
X244523Y322077D01*
X244815Y321713D01*
X245070Y321367D01*
X245161Y321221D01*
X245234Y321094D01*
X245306Y320984D01*
X245343Y320911D01*
X245361Y320857D01*
X245379Y320839D01*
X245634Y320256D01*
X245816Y319655D01*
X245944Y319090D01*
X246035Y318562D01*
X246071Y318325D01*
X246090Y318107D01*
X246108Y317907D01*
Y317743D01*
X246126Y317615D01*
Y317524D01*
Y317451D01*
Y317433D01*
X246090Y316759D01*
X246017Y316122D01*
X245944Y315812D01*
X245889Y315539D01*
X245816Y315284D01*
X245744Y315047D01*
X245689Y314829D01*
X245616Y314629D01*
X245543Y314464D01*
X245489Y314319D01*
X245452Y314210D01*
X245416Y314137D01*
X245379Y314082D01*
Y314064D01*
X245070Y313536D01*
X244724Y313081D01*
X244378Y312680D01*
X244032Y312352D01*
X243722Y312097D01*
X243595Y311988D01*
X243467Y311897D01*
X243376Y311842D01*
X243303Y311787D01*
X243267Y311769D01*
X243249Y311751D01*
X242975Y311605D01*
X242720Y311478D01*
X242174Y311278D01*
X241646Y311132D01*
X241172Y311041D01*
X240954Y311004D01*
X240753Y310968D01*
X240571Y310950D01*
X240426D01*
X240298Y310931D01*
X240134D01*
X239825Y310950D01*
X239515Y310968D01*
X238932Y311059D01*
X238404Y311186D01*
X238167Y311259D01*
X237949Y311332D01*
X237749Y311405D01*
X237567Y311460D01*
X237421Y311532D01*
X237275Y311587D01*
X237184Y311642D01*
X237093Y311678D01*
X237057Y311715D01*
X237038D01*
X236528Y311350D01*
X236037Y311022D01*
X235581Y310768D01*
X235181Y310549D01*
X234999Y310458D01*
X234835Y310385D01*
X234689Y310312D01*
X234562Y310258D01*
X234452Y310221D01*
X234379Y310185D01*
X234343Y310167D01*
X234325D01*
X233833Y311314D01*
X234197Y311478D01*
X234580Y311642D01*
X234944Y311842D01*
X235272Y312042D01*
X235545Y312206D01*
X235672Y312279D01*
X235763Y312352D01*
X235854Y312407D01*
X235909Y312443D01*
X235946Y312479D01*
X235964D01*
X235636Y312844D01*
X235345Y313208D01*
X235090Y313572D01*
X234889Y313918D01*
X234744Y314210D01*
X234689Y314337D01*
X234634Y314446D01*
X234598Y314519D01*
X234562Y314592D01*
X234543Y314629D01*
Y314647D01*
X234379Y315120D01*
X234270Y315612D01*
X234179Y316085D01*
X234124Y316523D01*
X234106Y316705D01*
X234088Y316887D01*
Y317051D01*
X234070Y317196D01*
Y317306D01*
Y317378D01*
Y317433D01*
Y317451D01*
X234106Y318125D01*
X234179Y318762D01*
X234234Y319054D01*
X234307Y319327D01*
X234379Y319582D01*
X234434Y319819D01*
X234507Y320037D01*
X234580Y320238D01*
X234634Y320402D01*
X234707Y320547D01*
X234744Y320657D01*
X234780Y320729D01*
X234816Y320784D01*
Y320802D01*
X235108Y321330D01*
X235454Y321804D01*
X235818Y322205D01*
X236146Y322532D01*
X236455Y322787D01*
X236601Y322897D01*
X236710Y322988D01*
X236820Y323042D01*
X236893Y323097D01*
X236929Y323115D01*
X236947Y323133D01*
X237220Y323279D01*
X237494Y323406D01*
X238022Y323625D01*
X238568Y323771D01*
X239042Y323862D01*
X239260Y323898D01*
X239479Y323935D01*
X239643Y323953D01*
X239806D01*
X239934Y323971D01*
X240426D01*
X240735Y323935D01*
D02*
G37*
G36*
X227823Y323498D02*
X228023Y323206D01*
X228260Y322915D01*
X228479Y322660D01*
X228697Y322441D01*
X228861Y322259D01*
X228934Y322205D01*
X228989Y322150D01*
X229007Y322132D01*
X229025Y322113D01*
X229408Y321804D01*
X229790Y321512D01*
X230154Y321258D01*
X230518Y321057D01*
X230828Y320875D01*
X230956Y320802D01*
X231065Y320748D01*
X231156Y320693D01*
X231229Y320675D01*
X231265Y320638D01*
X231283D01*
Y319145D01*
X231010Y319254D01*
X230737Y319382D01*
X230464Y319509D01*
X230209Y319637D01*
X229990Y319746D01*
X229808Y319837D01*
X229699Y319910D01*
X229681Y319928D01*
X229662D01*
X229335Y320128D01*
X229043Y320329D01*
X228788Y320511D01*
X228588Y320675D01*
X228406Y320802D01*
X228297Y320911D01*
X228206Y320984D01*
X228187Y321003D01*
Y311150D01*
X226639D01*
Y323807D01*
X227641D01*
X227823Y323498D01*
D02*
G37*
G36*
X112776Y179846D02*
X95129D01*
Y182192D01*
X112776D01*
Y179846D01*
D02*
G37*
G36*
X101300Y198895D02*
X100892Y198794D01*
X100510Y198666D01*
X100153Y198538D01*
X99821Y198411D01*
X99515Y198258D01*
X99260Y198105D01*
X99005Y197927D01*
X98776Y197773D01*
X98572Y197646D01*
X98419Y197493D01*
X98266Y197365D01*
X98138Y197263D01*
X98062Y197161D01*
X97985Y197085D01*
X97960Y197059D01*
X97934Y197034D01*
X97730Y196779D01*
X97577Y196498D01*
X97296Y195937D01*
X97093Y195402D01*
X96965Y194866D01*
X96863Y194407D01*
X96838Y194229D01*
Y194050D01*
X96812Y193897D01*
Y193795D01*
Y193744D01*
Y193719D01*
X96838Y193132D01*
X96939Y192571D01*
X97067Y192061D01*
X97220Y191602D01*
X97373Y191245D01*
X97450Y191092D01*
X97500Y190965D01*
X97551Y190863D01*
X97603Y190786D01*
X97628Y190735D01*
Y190709D01*
X97985Y190225D01*
X98368Y189817D01*
X98801Y189460D01*
X99209Y189179D01*
X99566Y188950D01*
X99872Y188797D01*
X100000Y188746D01*
X100076Y188695D01*
X100127Y188669D01*
X100153D01*
X100816Y188465D01*
X101479Y188312D01*
X102142Y188185D01*
X102754Y188108D01*
X103034Y188083D01*
X103289Y188057D01*
X103519D01*
X103697Y188032D01*
X104080D01*
X104743Y188057D01*
X105355Y188108D01*
X105916Y188210D01*
X106426Y188312D01*
X106860Y188389D01*
X107038Y188440D01*
X107191Y188491D01*
X107319Y188516D01*
X107395Y188542D01*
X107446Y188567D01*
X107472D01*
X108058Y188822D01*
X108594Y189103D01*
X109027Y189409D01*
X109410Y189740D01*
X109716Y190021D01*
X109920Y190250D01*
X110047Y190429D01*
X110098Y190455D01*
Y190480D01*
X110430Y191015D01*
X110685Y191602D01*
X110863Y192163D01*
X110965Y192699D01*
X111042Y193183D01*
X111067Y193387D01*
Y193566D01*
X111093Y193693D01*
Y193795D01*
Y193872D01*
Y193897D01*
X111067Y194535D01*
X110965Y195121D01*
X110812Y195606D01*
X110659Y196039D01*
X110481Y196371D01*
X110353Y196626D01*
X110251Y196779D01*
X110200Y196830D01*
X109818Y197238D01*
X109384Y197620D01*
X108925Y197927D01*
X108466Y198181D01*
X108058Y198386D01*
X107854Y198462D01*
X107701Y198513D01*
X107574Y198564D01*
X107472Y198615D01*
X107421Y198640D01*
X107395D01*
X107931Y200936D01*
X108390Y200783D01*
X108798Y200630D01*
X109180Y200426D01*
X109563Y200247D01*
X109894Y200043D01*
X110200Y199814D01*
X110506Y199610D01*
X110761Y199405D01*
X110965Y199202D01*
X111169Y199023D01*
X111348Y198845D01*
X111475Y198717D01*
X111603Y198589D01*
X111679Y198487D01*
X111705Y198437D01*
X111730Y198411D01*
X111960Y198054D01*
X112190Y197697D01*
X112368Y197340D01*
X112521Y196957D01*
X112751Y196192D01*
X112903Y195504D01*
X112980Y195172D01*
X113006Y194892D01*
X113031Y194611D01*
X113056Y194382D01*
X113082Y194203D01*
Y194076D01*
Y193974D01*
Y193948D01*
X113031Y193107D01*
X112903Y192291D01*
X112751Y191577D01*
X112648Y191245D01*
X112547Y190939D01*
X112444Y190658D01*
X112343Y190403D01*
X112266Y190200D01*
X112190Y189995D01*
X112113Y189868D01*
X112062Y189766D01*
X112037Y189689D01*
X112011Y189664D01*
X111577Y188975D01*
X111067Y188389D01*
X110557Y187879D01*
X110047Y187445D01*
X109588Y187114D01*
X109384Y186986D01*
X109206Y186884D01*
X109078Y186782D01*
X108976Y186731D01*
X108900Y186706D01*
X108874Y186680D01*
X108084Y186323D01*
X107268Y186068D01*
X106452Y185890D01*
X105712Y185762D01*
X105380Y185711D01*
X105049Y185686D01*
X104794Y185660D01*
X104539D01*
X104361Y185635D01*
X104080D01*
X103162Y185686D01*
X102269Y185788D01*
X101479Y185915D01*
X101096Y186017D01*
X100765Y186094D01*
X100459Y186170D01*
X100178Y186272D01*
X99923Y186349D01*
X99719Y186400D01*
X99566Y186476D01*
X99439Y186502D01*
X99362Y186553D01*
X99337D01*
X98572Y186935D01*
X97883Y187369D01*
X97296Y187828D01*
X97067Y188057D01*
X96838Y188261D01*
X96634Y188465D01*
X96455Y188669D01*
X96302Y188848D01*
X96200Y189001D01*
X96098Y189103D01*
X96021Y189205D01*
X95996Y189256D01*
X95970Y189281D01*
X95766Y189638D01*
X95588Y189995D01*
X95307Y190760D01*
X95103Y191526D01*
X94976Y192265D01*
X94925Y192622D01*
X94874Y192928D01*
X94848Y193209D01*
Y193438D01*
X94823Y193642D01*
Y193795D01*
Y193897D01*
Y193923D01*
X94848Y194433D01*
X94899Y194917D01*
X94950Y195376D01*
X95052Y195810D01*
X95180Y196218D01*
X95307Y196600D01*
X95435Y196957D01*
X95588Y197289D01*
X95715Y197569D01*
X95843Y197850D01*
X95970Y198054D01*
X96098Y198258D01*
X96200Y198386D01*
X96251Y198513D01*
X96302Y198564D01*
X96327Y198589D01*
X96634Y198946D01*
X96939Y199252D01*
X97296Y199533D01*
X97654Y199814D01*
X98368Y200273D01*
X99082Y200630D01*
X99413Y200783D01*
X99719Y200910D01*
X100000Y201012D01*
X100229Y201089D01*
X100433Y201165D01*
X100586Y201216D01*
X100688Y201242D01*
X100714D01*
X101300Y198895D01*
D02*
G37*
G36*
X97220Y205934D02*
X97654Y206240D01*
X97832Y206393D01*
X98011Y206521D01*
X98164Y206648D01*
X98266Y206750D01*
X98342Y206826D01*
X98368Y206852D01*
X98495Y206980D01*
X98623Y207132D01*
X98954Y207490D01*
X99337Y207898D01*
X99719Y208331D01*
X100051Y208739D01*
X100204Y208918D01*
X100357Y209071D01*
X100459Y209198D01*
X100535Y209300D01*
X100586Y209351D01*
X100612Y209377D01*
X100969Y209785D01*
X101300Y210193D01*
X101632Y210550D01*
X101912Y210881D01*
X102193Y211187D01*
X102448Y211442D01*
X102677Y211697D01*
X102881Y211901D01*
X103085Y212105D01*
X103238Y212258D01*
X103366Y212386D01*
X103493Y212513D01*
X103646Y212641D01*
X103697Y212692D01*
X104131Y213049D01*
X104514Y213355D01*
X104896Y213610D01*
X105202Y213814D01*
X105483Y213967D01*
X105687Y214069D01*
X105814Y214120D01*
X105865Y214146D01*
X106248Y214298D01*
X106630Y214401D01*
X106987Y214503D01*
X107293Y214554D01*
X107574Y214579D01*
X107778Y214604D01*
X107956D01*
X108339Y214579D01*
X108696Y214528D01*
X109053Y214477D01*
X109359Y214375D01*
X109971Y214120D01*
X110455Y213865D01*
X110685Y213712D01*
X110863Y213584D01*
X111042Y213457D01*
X111169Y213329D01*
X111271Y213227D01*
X111373Y213176D01*
X111399Y213125D01*
X111424Y213100D01*
X111679Y212819D01*
X111909Y212513D01*
X112087Y212182D01*
X112240Y211850D01*
X112495Y211187D01*
X112674Y210524D01*
X112725Y210244D01*
X112776Y209963D01*
X112802Y209708D01*
X112827Y209504D01*
X112852Y209326D01*
Y209173D01*
Y209096D01*
Y209071D01*
X112827Y208612D01*
X112802Y208178D01*
X112725Y207770D01*
X112648Y207388D01*
X112547Y207031D01*
X112444Y206699D01*
X112317Y206393D01*
X112190Y206112D01*
X112062Y205857D01*
X111934Y205653D01*
X111832Y205475D01*
X111730Y205322D01*
X111654Y205194D01*
X111577Y205118D01*
X111552Y205067D01*
X111526Y205041D01*
X111271Y204786D01*
X110991Y204557D01*
X110685Y204327D01*
X110379Y204149D01*
X109767Y203843D01*
X109155Y203639D01*
X108874Y203562D01*
X108594Y203486D01*
X108364Y203435D01*
X108160Y203384D01*
X107982Y203358D01*
X107854D01*
X107778Y203333D01*
X107752D01*
X107523Y205551D01*
X108109Y205602D01*
X108619Y205704D01*
X109078Y205857D01*
X109435Y206036D01*
X109741Y206189D01*
X109945Y206342D01*
X110073Y206444D01*
X110124Y206495D01*
X110430Y206877D01*
X110659Y207285D01*
X110838Y207719D01*
X110940Y208102D01*
X111016Y208459D01*
X111042Y208765D01*
X111067Y208867D01*
Y208943D01*
Y208994D01*
Y209020D01*
X111042Y209555D01*
X110940Y210040D01*
X110787Y210448D01*
X110634Y210805D01*
X110455Y211085D01*
X110328Y211264D01*
X110226Y211391D01*
X110175Y211442D01*
X109818Y211748D01*
X109461Y211978D01*
X109104Y212156D01*
X108747Y212258D01*
X108466Y212335D01*
X108211Y212360D01*
X108058Y212386D01*
X108007D01*
X107548Y212335D01*
X107064Y212233D01*
X106630Y212054D01*
X106222Y211876D01*
X105891Y211672D01*
X105610Y211493D01*
X105508Y211442D01*
X105431Y211391D01*
X105406Y211340D01*
X105380D01*
X105100Y211136D01*
X104819Y210881D01*
X104514Y210601D01*
X104207Y210295D01*
X103595Y209657D01*
X102983Y209020D01*
X102703Y208688D01*
X102448Y208408D01*
X102218Y208127D01*
X102014Y207898D01*
X101861Y207719D01*
X101734Y207566D01*
X101657Y207464D01*
X101632Y207439D01*
X101096Y206801D01*
X100586Y206215D01*
X100127Y205730D01*
X99745Y205347D01*
X99413Y205016D01*
X99184Y204786D01*
X99031Y204659D01*
X99005Y204608D01*
X98980D01*
X98546Y204251D01*
X98138Y203970D01*
X97730Y203715D01*
X97373Y203511D01*
X97067Y203358D01*
X96838Y203256D01*
X96685Y203205D01*
X96659Y203180D01*
X96634D01*
X96353Y203078D01*
X96098Y203027D01*
X95843Y202976D01*
X95613Y202950D01*
X95409Y202925D01*
X95129D01*
Y214630D01*
X97220D01*
Y205934D01*
D02*
G37*
G36*
X230191Y110122D02*
X230500Y110340D01*
X230628Y110450D01*
X230755Y110541D01*
X230865Y110632D01*
X230938Y110705D01*
X230992Y110759D01*
X231010Y110777D01*
X231101Y110869D01*
X231192Y110978D01*
X231429Y111233D01*
X231702Y111524D01*
X231976Y111834D01*
X232212Y112125D01*
X232322Y112253D01*
X232431Y112362D01*
X232504Y112453D01*
X232558Y112526D01*
X232595Y112562D01*
X232613Y112580D01*
X232868Y112872D01*
X233105Y113163D01*
X233341Y113418D01*
X233542Y113655D01*
X233742Y113873D01*
X233924Y114056D01*
X234088Y114238D01*
X234234Y114383D01*
X234380Y114529D01*
X234489Y114638D01*
X234580Y114729D01*
X234671Y114820D01*
X234780Y114911D01*
X234817Y114948D01*
X235126Y115203D01*
X235399Y115421D01*
X235673Y115604D01*
X235891Y115749D01*
X236091Y115858D01*
X236237Y115931D01*
X236328Y115968D01*
X236365Y115986D01*
X236638Y116095D01*
X236911Y116168D01*
X237166Y116241D01*
X237384Y116277D01*
X237585Y116296D01*
X237731Y116314D01*
X237858D01*
X238131Y116296D01*
X238386Y116259D01*
X238641Y116223D01*
X238860Y116150D01*
X239297Y115968D01*
X239643Y115786D01*
X239807Y115676D01*
X239934Y115585D01*
X240062Y115494D01*
X240153Y115403D01*
X240226Y115330D01*
X240298Y115294D01*
X240317Y115258D01*
X240335Y115239D01*
X240517Y115039D01*
X240681Y114820D01*
X240808Y114584D01*
X240918Y114347D01*
X241100Y113873D01*
X241227Y113400D01*
X241264Y113200D01*
X241300Y112999D01*
X241318Y112817D01*
X241336Y112671D01*
X241355Y112544D01*
Y112435D01*
Y112380D01*
Y112362D01*
X241336Y112034D01*
X241318Y111724D01*
X241264Y111433D01*
X241209Y111160D01*
X241136Y110905D01*
X241063Y110668D01*
X240972Y110450D01*
X240881Y110249D01*
X240790Y110067D01*
X240699Y109921D01*
X240626Y109794D01*
X240553Y109685D01*
X240499Y109594D01*
X240444Y109539D01*
X240426Y109503D01*
X240408Y109484D01*
X240226Y109302D01*
X240025Y109138D01*
X239807Y108974D01*
X239588Y108847D01*
X239151Y108628D01*
X238714Y108483D01*
X238514Y108428D01*
X238313Y108373D01*
X238149Y108337D01*
X238004Y108301D01*
X237876Y108282D01*
X237785D01*
X237731Y108264D01*
X237712D01*
X237548Y109849D01*
X237967Y109885D01*
X238332Y109958D01*
X238659Y110067D01*
X238914Y110195D01*
X239133Y110304D01*
X239279Y110413D01*
X239370Y110486D01*
X239406Y110522D01*
X239625Y110796D01*
X239788Y111087D01*
X239916Y111397D01*
X239989Y111670D01*
X240043Y111925D01*
X240062Y112143D01*
X240080Y112216D01*
Y112271D01*
Y112307D01*
Y112325D01*
X240062Y112708D01*
X239989Y113054D01*
X239879Y113345D01*
X239770Y113600D01*
X239643Y113801D01*
X239552Y113928D01*
X239479Y114019D01*
X239442Y114056D01*
X239187Y114274D01*
X238932Y114438D01*
X238678Y114565D01*
X238423Y114638D01*
X238222Y114693D01*
X238040Y114711D01*
X237931Y114729D01*
X237894D01*
X237567Y114693D01*
X237221Y114620D01*
X236911Y114493D01*
X236620Y114365D01*
X236383Y114219D01*
X236182Y114092D01*
X236110Y114056D01*
X236055Y114019D01*
X236037Y113983D01*
X236019D01*
X235818Y113837D01*
X235618Y113655D01*
X235399Y113455D01*
X235181Y113236D01*
X234744Y112781D01*
X234307Y112325D01*
X234106Y112089D01*
X233924Y111888D01*
X233760Y111688D01*
X233615Y111524D01*
X233505Y111397D01*
X233414Y111287D01*
X233360Y111215D01*
X233341Y111196D01*
X232959Y110741D01*
X232595Y110322D01*
X232267Y109976D01*
X231994Y109703D01*
X231757Y109466D01*
X231593Y109302D01*
X231484Y109211D01*
X231466Y109175D01*
X231447D01*
X231138Y108920D01*
X230846Y108720D01*
X230555Y108537D01*
X230300Y108392D01*
X230082Y108282D01*
X229918Y108209D01*
X229808Y108173D01*
X229790Y108155D01*
X229772D01*
X229572Y108082D01*
X229389Y108046D01*
X229207Y108009D01*
X229044Y107991D01*
X228898Y107973D01*
X228697D01*
Y116332D01*
X230191D01*
Y110122D01*
D02*
G37*
G36*
X148933Y284298D02*
X148642Y284225D01*
X148369Y284134D01*
X148114Y284043D01*
X147877Y283952D01*
X147658Y283843D01*
X147476Y283734D01*
X147294Y283606D01*
X147130Y283497D01*
X146985Y283406D01*
X146875Y283297D01*
X146766Y283205D01*
X146675Y283133D01*
X146620Y283060D01*
X146566Y283005D01*
X146547Y282987D01*
X146529Y282969D01*
X146384Y282787D01*
X146274Y282586D01*
X146074Y282186D01*
X145928Y281803D01*
X145837Y281421D01*
X145764Y281093D01*
X145746Y280965D01*
Y280838D01*
X145728Y280729D01*
Y280656D01*
Y280619D01*
Y280601D01*
X145746Y280182D01*
X145819Y279782D01*
X145910Y279417D01*
X146019Y279090D01*
X146129Y278835D01*
X146183Y278725D01*
X146220Y278634D01*
X146256Y278561D01*
X146292Y278507D01*
X146311Y278470D01*
Y278452D01*
X146566Y278106D01*
X146839Y277815D01*
X147149Y277560D01*
X147440Y277359D01*
X147695Y277195D01*
X147913Y277086D01*
X148005Y277050D01*
X148059Y277013D01*
X148096Y276995D01*
X148114D01*
X148587Y276849D01*
X149061Y276740D01*
X149534Y276649D01*
X149971Y276595D01*
X150172Y276576D01*
X150354Y276558D01*
X150518D01*
X150645Y276540D01*
X150918D01*
X151392Y276558D01*
X151829Y276595D01*
X152230Y276667D01*
X152594Y276740D01*
X152903Y276795D01*
X153031Y276831D01*
X153140Y276868D01*
X153231Y276886D01*
X153286Y276904D01*
X153322Y276922D01*
X153341D01*
X153759Y277104D01*
X154142Y277305D01*
X154451Y277523D01*
X154725Y277760D01*
X154943Y277960D01*
X155089Y278124D01*
X155180Y278252D01*
X155216Y278270D01*
Y278288D01*
X155453Y278671D01*
X155635Y279090D01*
X155763Y279490D01*
X155836Y279873D01*
X155890Y280219D01*
X155908Y280364D01*
Y280492D01*
X155927Y280583D01*
Y280656D01*
Y280710D01*
Y280729D01*
X155908Y281184D01*
X155836Y281603D01*
X155726Y281949D01*
X155617Y282258D01*
X155490Y282495D01*
X155398Y282677D01*
X155326Y282787D01*
X155289Y282823D01*
X155016Y283114D01*
X154706Y283388D01*
X154379Y283606D01*
X154051Y283788D01*
X153759Y283934D01*
X153614Y283988D01*
X153504Y284025D01*
X153413Y284061D01*
X153341Y284098D01*
X153304Y284116D01*
X153286D01*
X153668Y285755D01*
X153996Y285646D01*
X154288Y285536D01*
X154561Y285391D01*
X154834Y285263D01*
X155071Y285118D01*
X155289Y284954D01*
X155508Y284808D01*
X155690Y284662D01*
X155836Y284517D01*
X155981Y284389D01*
X156109Y284262D01*
X156200Y284171D01*
X156291Y284080D01*
X156346Y284007D01*
X156364Y283970D01*
X156382Y283952D01*
X156546Y283697D01*
X156710Y283442D01*
X156837Y283187D01*
X156946Y282914D01*
X157110Y282368D01*
X157220Y281876D01*
X157274Y281639D01*
X157292Y281439D01*
X157311Y281239D01*
X157329Y281075D01*
X157347Y280947D01*
Y280856D01*
Y280783D01*
Y280765D01*
X157311Y280164D01*
X157220Y279581D01*
X157110Y279071D01*
X157037Y278835D01*
X156965Y278616D01*
X156892Y278416D01*
X156819Y278234D01*
X156764Y278088D01*
X156710Y277942D01*
X156655Y277851D01*
X156619Y277778D01*
X156600Y277724D01*
X156582Y277705D01*
X156273Y277214D01*
X155908Y276795D01*
X155544Y276431D01*
X155180Y276121D01*
X154852Y275884D01*
X154706Y275793D01*
X154579Y275720D01*
X154488Y275648D01*
X154415Y275611D01*
X154360Y275593D01*
X154342Y275575D01*
X153778Y275320D01*
X153195Y275138D01*
X152612Y275010D01*
X152084Y274919D01*
X151847Y274883D01*
X151610Y274864D01*
X151428Y274846D01*
X151246D01*
X151119Y274828D01*
X150918D01*
X150263Y274864D01*
X149625Y274937D01*
X149061Y275028D01*
X148788Y275101D01*
X148551Y275156D01*
X148332Y275210D01*
X148132Y275283D01*
X147950Y275338D01*
X147804Y275374D01*
X147695Y275429D01*
X147604Y275447D01*
X147549Y275484D01*
X147531D01*
X146985Y275757D01*
X146493Y276066D01*
X146074Y276394D01*
X145910Y276558D01*
X145746Y276704D01*
X145601Y276849D01*
X145473Y276995D01*
X145364Y277123D01*
X145291Y277232D01*
X145218Y277305D01*
X145163Y277378D01*
X145145Y277414D01*
X145127Y277432D01*
X144981Y277687D01*
X144854Y277942D01*
X144654Y278489D01*
X144508Y279035D01*
X144417Y279563D01*
X144380Y279818D01*
X144344Y280037D01*
X144326Y280237D01*
Y280401D01*
X144307Y280546D01*
Y280656D01*
Y280729D01*
Y280747D01*
X144326Y281111D01*
X144362Y281457D01*
X144398Y281785D01*
X144471Y282094D01*
X144562Y282386D01*
X144654Y282659D01*
X144745Y282914D01*
X144854Y283151D01*
X144945Y283351D01*
X145036Y283552D01*
X145127Y283697D01*
X145218Y283843D01*
X145291Y283934D01*
X145327Y284025D01*
X145364Y284061D01*
X145382Y284080D01*
X145601Y284335D01*
X145819Y284553D01*
X146074Y284753D01*
X146329Y284954D01*
X146839Y285282D01*
X147349Y285536D01*
X147586Y285646D01*
X147804Y285737D01*
X148005Y285810D01*
X148168Y285864D01*
X148314Y285919D01*
X148423Y285955D01*
X148496Y285974D01*
X148514D01*
X148933Y284298D01*
D02*
G37*
G36*
X157183Y292220D02*
X156874Y292038D01*
X156582Y291838D01*
X156291Y291601D01*
X156036Y291383D01*
X155817Y291164D01*
X155635Y291000D01*
X155581Y290927D01*
X155526Y290873D01*
X155508Y290854D01*
X155490Y290836D01*
X155180Y290454D01*
X154888Y290071D01*
X154634Y289707D01*
X154433Y289343D01*
X154251Y289033D01*
X154178Y288906D01*
X154124Y288797D01*
X154069Y288705D01*
X154051Y288633D01*
X154014Y288596D01*
Y288578D01*
X152521D01*
X152630Y288851D01*
X152758Y289124D01*
X152885Y289397D01*
X153013Y289652D01*
X153122Y289871D01*
X153213Y290053D01*
X153286Y290162D01*
X153304Y290180D01*
Y290199D01*
X153504Y290527D01*
X153705Y290818D01*
X153887Y291073D01*
X154051Y291273D01*
X154178Y291455D01*
X154288Y291565D01*
X154360Y291656D01*
X154379Y291674D01*
X144526D01*
Y293222D01*
X157183D01*
Y292220D01*
D02*
G37*
G36*
X217265Y303712D02*
X217848Y303621D01*
X218358Y303512D01*
X218595Y303439D01*
X218813Y303366D01*
X219014Y303293D01*
X219196Y303220D01*
X219341Y303166D01*
X219487Y303111D01*
X219578Y303057D01*
X219651Y303020D01*
X219706Y303002D01*
X219724Y302984D01*
X220216Y302674D01*
X220634Y302310D01*
X220999Y301946D01*
X221308Y301581D01*
X221545Y301254D01*
X221636Y301108D01*
X221709Y300980D01*
X221782Y300889D01*
X221818Y300816D01*
X221836Y300762D01*
X221855Y300744D01*
X222110Y300179D01*
X222292Y299596D01*
X222419Y299014D01*
X222510Y298485D01*
X222547Y298249D01*
X222565Y298012D01*
X222583Y297830D01*
Y297648D01*
X222601Y297520D01*
Y297411D01*
Y297338D01*
Y297320D01*
X222565Y296664D01*
X222492Y296027D01*
X222401Y295462D01*
X222328Y295189D01*
X222274Y294952D01*
X222219Y294734D01*
X222146Y294533D01*
X222091Y294351D01*
X222055Y294206D01*
X222000Y294096D01*
X221982Y294005D01*
X221946Y293951D01*
Y293932D01*
X221673Y293386D01*
X221363Y292894D01*
X221035Y292475D01*
X220871Y292311D01*
X220725Y292148D01*
X220580Y292002D01*
X220434Y291874D01*
X220307Y291765D01*
X220197Y291692D01*
X220125Y291619D01*
X220052Y291565D01*
X220015Y291547D01*
X219997Y291528D01*
X219742Y291383D01*
X219487Y291255D01*
X218941Y291055D01*
X218394Y290909D01*
X217866Y290818D01*
X217611Y290782D01*
X217393Y290745D01*
X217192Y290727D01*
X217029D01*
X216883Y290709D01*
X216682D01*
X216318Y290727D01*
X215972Y290763D01*
X215644Y290800D01*
X215335Y290873D01*
X215044Y290964D01*
X214770Y291055D01*
X214515Y291146D01*
X214279Y291255D01*
X214078Y291346D01*
X213878Y291437D01*
X213732Y291528D01*
X213587Y291619D01*
X213496Y291692D01*
X213404Y291729D01*
X213368Y291765D01*
X213350Y291783D01*
X213095Y292002D01*
X212876Y292220D01*
X212676Y292475D01*
X212476Y292730D01*
X212148Y293240D01*
X211893Y293750D01*
X211784Y293987D01*
X211693Y294206D01*
X211620Y294406D01*
X211565Y294570D01*
X211510Y294715D01*
X211474Y294825D01*
X211456Y294898D01*
Y294916D01*
X213131Y295335D01*
X213204Y295043D01*
X213295Y294770D01*
X213386Y294515D01*
X213477Y294278D01*
X213587Y294060D01*
X213696Y293878D01*
X213823Y293696D01*
X213932Y293532D01*
X214024Y293386D01*
X214133Y293277D01*
X214224Y293167D01*
X214297Y293076D01*
X214370Y293022D01*
X214424Y292967D01*
X214443Y292949D01*
X214461Y292931D01*
X214643Y292785D01*
X214843Y292676D01*
X215244Y292475D01*
X215626Y292330D01*
X216009Y292239D01*
X216336Y292166D01*
X216464Y292148D01*
X216591D01*
X216701Y292129D01*
X216828D01*
X217247Y292148D01*
X217648Y292220D01*
X218012Y292311D01*
X218340Y292421D01*
X218595Y292530D01*
X218704Y292585D01*
X218795Y292621D01*
X218868Y292658D01*
X218923Y292694D01*
X218959Y292712D01*
X218977D01*
X219323Y292967D01*
X219615Y293240D01*
X219870Y293550D01*
X220070Y293841D01*
X220234Y294096D01*
X220343Y294315D01*
X220380Y294406D01*
X220416Y294461D01*
X220434Y294497D01*
Y294515D01*
X220580Y294989D01*
X220689Y295462D01*
X220780Y295936D01*
X220835Y296373D01*
X220853Y296573D01*
X220871Y296755D01*
Y296919D01*
X220889Y297047D01*
Y297156D01*
Y297247D01*
Y297302D01*
Y297320D01*
X220871Y297793D01*
X220835Y298230D01*
X220762Y298631D01*
X220689Y298995D01*
X220634Y299305D01*
X220598Y299432D01*
X220562Y299542D01*
X220543Y299633D01*
X220525Y299687D01*
X220507Y299724D01*
Y299742D01*
X220325Y300161D01*
X220125Y300543D01*
X219906Y300853D01*
X219669Y301126D01*
X219469Y301345D01*
X219305Y301490D01*
X219177Y301581D01*
X219159Y301618D01*
X219141D01*
X218759Y301854D01*
X218340Y302037D01*
X217939Y302164D01*
X217557Y302237D01*
X217211Y302292D01*
X217065Y302310D01*
X216938D01*
X216846Y302328D01*
X216701D01*
X216245Y302310D01*
X215827Y302237D01*
X215480Y302128D01*
X215171Y302018D01*
X214934Y301891D01*
X214752Y301800D01*
X214643Y301727D01*
X214606Y301691D01*
X214315Y301417D01*
X214042Y301108D01*
X213823Y300780D01*
X213641Y300452D01*
X213496Y300161D01*
X213441Y300015D01*
X213404Y299906D01*
X213368Y299815D01*
X213332Y299742D01*
X213313Y299706D01*
Y299687D01*
X211674Y300070D01*
X211784Y300398D01*
X211893Y300689D01*
X212038Y300962D01*
X212166Y301235D01*
X212312Y301472D01*
X212476Y301691D01*
X212621Y301909D01*
X212767Y302091D01*
X212913Y302237D01*
X213040Y302383D01*
X213168Y302510D01*
X213259Y302601D01*
X213350Y302692D01*
X213423Y302747D01*
X213459Y302765D01*
X213477Y302783D01*
X213732Y302947D01*
X213987Y303111D01*
X214242Y303239D01*
X214515Y303348D01*
X215062Y303512D01*
X215553Y303621D01*
X215790Y303676D01*
X215991Y303694D01*
X216191Y303712D01*
X216355Y303730D01*
X216482Y303748D01*
X216664D01*
X217265Y303712D01*
D02*
G37*
G36*
X134831Y269612D02*
X134522Y269430D01*
X134230Y269230D01*
X133939Y268993D01*
X133684Y268775D01*
X133465Y268556D01*
X133283Y268392D01*
X133229Y268319D01*
X133174Y268265D01*
X133156Y268246D01*
X133138Y268228D01*
X132828Y267846D01*
X132536Y267463D01*
X132282Y267099D01*
X132081Y266735D01*
X131899Y266425D01*
X131826Y266298D01*
X131772Y266189D01*
X131717Y266098D01*
X131699Y266025D01*
X131662Y265988D01*
Y265970D01*
X130169D01*
X130278Y266243D01*
X130406Y266516D01*
X130533Y266789D01*
X130661Y267045D01*
X130770Y267263D01*
X130861Y267445D01*
X130934Y267554D01*
X130952Y267573D01*
Y267591D01*
X131152Y267919D01*
X131353Y268210D01*
X131535Y268465D01*
X131699Y268665D01*
X131826Y268847D01*
X131936Y268957D01*
X132008Y269048D01*
X132027Y269066D01*
X122174D01*
Y270614D01*
X134831D01*
Y269612D01*
D02*
G37*
G36*
X139190Y117179D02*
X139773Y117088D01*
X140283Y116978D01*
X140519Y116905D01*
X140738Y116833D01*
X140938Y116760D01*
X141120Y116687D01*
X141266Y116632D01*
X141412Y116578D01*
X141503Y116523D01*
X141576Y116487D01*
X141630Y116468D01*
X141649Y116450D01*
X142140Y116141D01*
X142559Y115776D01*
X142923Y115412D01*
X143233Y115048D01*
X143470Y114720D01*
X143561Y114574D01*
X143634Y114447D01*
X143707Y114356D01*
X143743Y114283D01*
X143761Y114228D01*
X143779Y114210D01*
X144034Y113646D01*
X144216Y113063D01*
X144344Y112480D01*
X144435Y111952D01*
X144471Y111715D01*
X144490Y111478D01*
X144508Y111296D01*
Y111114D01*
X144526Y110987D01*
Y110877D01*
Y110805D01*
Y110786D01*
X144490Y110131D01*
X144417Y109493D01*
X144326Y108929D01*
X144253Y108656D01*
X144198Y108419D01*
X144144Y108200D01*
X144071Y108000D01*
X144016Y107818D01*
X143980Y107672D01*
X143925Y107563D01*
X143907Y107472D01*
X143870Y107417D01*
Y107399D01*
X143597Y106853D01*
X143288Y106361D01*
X142960Y105942D01*
X142796Y105778D01*
X142650Y105614D01*
X142505Y105469D01*
X142359Y105341D01*
X142231Y105232D01*
X142122Y105159D01*
X142049Y105086D01*
X141976Y105031D01*
X141940Y105013D01*
X141922Y104995D01*
X141667Y104849D01*
X141412Y104722D01*
X140865Y104522D01*
X140319Y104376D01*
X139791Y104285D01*
X139536Y104248D01*
X139317Y104212D01*
X139117Y104194D01*
X138953D01*
X138807Y104176D01*
X138607D01*
X138243Y104194D01*
X137897Y104230D01*
X137569Y104267D01*
X137260Y104339D01*
X136968Y104430D01*
X136695Y104522D01*
X136440Y104613D01*
X136203Y104722D01*
X136003Y104813D01*
X135802Y104904D01*
X135657Y104995D01*
X135511Y105086D01*
X135420Y105159D01*
X135329Y105195D01*
X135293Y105232D01*
X135274Y105250D01*
X135019Y105469D01*
X134801Y105687D01*
X134601Y105942D01*
X134400Y106197D01*
X134072Y106707D01*
X133818Y107217D01*
X133708Y107454D01*
X133617Y107672D01*
X133544Y107872D01*
X133490Y108036D01*
X133435Y108182D01*
X133399Y108291D01*
X133380Y108364D01*
Y108382D01*
X135056Y108801D01*
X135129Y108510D01*
X135220Y108237D01*
X135311Y107982D01*
X135402Y107745D01*
X135511Y107526D01*
X135620Y107344D01*
X135748Y107162D01*
X135857Y106998D01*
X135948Y106853D01*
X136058Y106743D01*
X136149Y106634D01*
X136221Y106543D01*
X136294Y106488D01*
X136349Y106434D01*
X136367Y106416D01*
X136385Y106397D01*
X136567Y106252D01*
X136768Y106142D01*
X137168Y105942D01*
X137551Y105796D01*
X137933Y105705D01*
X138261Y105632D01*
X138389Y105614D01*
X138516D01*
X138625Y105596D01*
X138753D01*
X139172Y105614D01*
X139572Y105687D01*
X139937Y105778D01*
X140264Y105887D01*
X140519Y105997D01*
X140629Y106051D01*
X140720Y106088D01*
X140793Y106124D01*
X140847Y106160D01*
X140884Y106179D01*
X140902D01*
X141248Y106434D01*
X141539Y106707D01*
X141794Y107016D01*
X141995Y107308D01*
X142158Y107563D01*
X142268Y107781D01*
X142304Y107872D01*
X142341Y107927D01*
X142359Y107963D01*
Y107982D01*
X142505Y108455D01*
X142614Y108929D01*
X142705Y109402D01*
X142760Y109839D01*
X142778Y110040D01*
X142796Y110222D01*
Y110386D01*
X142814Y110513D01*
Y110622D01*
Y110714D01*
Y110768D01*
Y110786D01*
X142796Y111260D01*
X142760Y111697D01*
X142687Y112098D01*
X142614Y112462D01*
X142559Y112771D01*
X142523Y112899D01*
X142486Y113008D01*
X142468Y113099D01*
X142450Y113154D01*
X142432Y113190D01*
Y113209D01*
X142249Y113627D01*
X142049Y114010D01*
X141831Y114319D01*
X141594Y114593D01*
X141394Y114811D01*
X141230Y114957D01*
X141102Y115048D01*
X141084Y115084D01*
X141066D01*
X140683Y115321D01*
X140264Y115503D01*
X139864Y115631D01*
X139481Y115703D01*
X139135Y115758D01*
X138990Y115776D01*
X138862D01*
X138771Y115795D01*
X138625D01*
X138170Y115776D01*
X137751Y115703D01*
X137405Y115594D01*
X137096Y115485D01*
X136859Y115358D01*
X136677Y115266D01*
X136567Y115194D01*
X136531Y115157D01*
X136240Y114884D01*
X135967Y114574D01*
X135748Y114247D01*
X135566Y113919D01*
X135420Y113627D01*
X135365Y113482D01*
X135329Y113372D01*
X135293Y113281D01*
X135256Y113209D01*
X135238Y113172D01*
Y113154D01*
X133599Y113536D01*
X133708Y113864D01*
X133818Y114156D01*
X133963Y114429D01*
X134091Y114702D01*
X134236Y114939D01*
X134400Y115157D01*
X134546Y115376D01*
X134692Y115558D01*
X134837Y115703D01*
X134965Y115849D01*
X135092Y115977D01*
X135183Y116068D01*
X135274Y116159D01*
X135347Y116214D01*
X135384Y116232D01*
X135402Y116250D01*
X135657Y116414D01*
X135912Y116578D01*
X136167Y116705D01*
X136440Y116814D01*
X136986Y116978D01*
X137478Y117088D01*
X137715Y117142D01*
X137915Y117161D01*
X138115Y117179D01*
X138279Y117197D01*
X138407Y117215D01*
X138589D01*
X139190Y117179D01*
D02*
G37*
G36*
X125598Y261636D02*
X125962Y261381D01*
X126290Y261144D01*
X126563Y260907D01*
X126818Y260707D01*
X127000Y260525D01*
X127146Y260379D01*
X127237Y260288D01*
X127273Y260252D01*
X127383Y260106D01*
X127510Y259942D01*
X127710Y259614D01*
X127783Y259468D01*
X127856Y259359D01*
X127893Y259286D01*
X127911Y259250D01*
X127965Y259578D01*
X128020Y259887D01*
X128111Y260160D01*
X128184Y260434D01*
X128275Y260670D01*
X128384Y260889D01*
X128475Y261089D01*
X128566Y261271D01*
X128676Y261417D01*
X128767Y261563D01*
X128840Y261672D01*
X128912Y261763D01*
X128967Y261836D01*
X129022Y261891D01*
X129040Y261909D01*
X129058Y261927D01*
X129240Y262073D01*
X129422Y262218D01*
X129805Y262437D01*
X130187Y262583D01*
X130551Y262692D01*
X130861Y262765D01*
X130989Y262783D01*
X131116D01*
X131207Y262801D01*
X131334D01*
X131717Y262783D01*
X132063Y262728D01*
X132391Y262637D01*
X132664Y262546D01*
X132901Y262437D01*
X133083Y262364D01*
X133192Y262291D01*
X133210Y262273D01*
X133229D01*
X133520Y262054D01*
X133775Y261836D01*
X133994Y261599D01*
X134157Y261381D01*
X134285Y261180D01*
X134358Y261016D01*
X134412Y260907D01*
X134431Y260889D01*
Y260871D01*
X134485Y260707D01*
X134540Y260506D01*
X134631Y260106D01*
X134685Y259669D01*
X134740Y259268D01*
X134758Y258886D01*
Y258722D01*
X134777Y258576D01*
Y258467D01*
Y258376D01*
Y258321D01*
Y258303D01*
Y252730D01*
X122174D01*
Y254405D01*
X127765D01*
Y256336D01*
Y256555D01*
X127747Y256755D01*
Y256901D01*
X127729Y257028D01*
X127710Y257119D01*
Y257192D01*
X127692Y257228D01*
Y257246D01*
X127601Y257538D01*
X127547Y257665D01*
X127492Y257775D01*
X127437Y257884D01*
X127401Y257957D01*
X127383Y257993D01*
X127364Y258011D01*
X127255Y258157D01*
X127128Y258303D01*
X126854Y258576D01*
X126727Y258703D01*
X126618Y258794D01*
X126545Y258849D01*
X126527Y258867D01*
X126272Y259049D01*
X125998Y259250D01*
X125707Y259450D01*
X125434Y259650D01*
X125179Y259814D01*
X124979Y259942D01*
X124906Y259996D01*
X124851Y260033D01*
X124815Y260069D01*
X124796D01*
X122174Y261727D01*
Y263803D01*
X125598Y261636D01*
D02*
G37*
G36*
X176938Y333374D02*
Y331953D01*
X171456D01*
Y328930D01*
X169908D01*
Y331953D01*
X168196D01*
Y333374D01*
X169908D01*
Y341533D01*
X171165D01*
X176938Y333374D01*
D02*
G37*
G36*
X209762Y296883D02*
X208305Y296682D01*
X208178Y296883D01*
X208014Y297047D01*
X207868Y297211D01*
X207722Y297338D01*
X207577Y297429D01*
X207467Y297520D01*
X207395Y297556D01*
X207376Y297575D01*
X207139Y297684D01*
X206903Y297775D01*
X206684Y297830D01*
X206466Y297884D01*
X206284Y297903D01*
X206138Y297921D01*
X205792D01*
X205573Y297884D01*
X205191Y297793D01*
X204863Y297666D01*
X204572Y297538D01*
X204353Y297393D01*
X204189Y297265D01*
X204098Y297174D01*
X204062Y297156D01*
Y297138D01*
X203807Y296828D01*
X203625Y296500D01*
X203497Y296154D01*
X203406Y295808D01*
X203351Y295517D01*
X203333Y295389D01*
Y295280D01*
X203315Y295189D01*
Y295116D01*
Y295080D01*
Y295061D01*
Y294806D01*
X203351Y294570D01*
X203442Y294114D01*
X203570Y293732D01*
X203697Y293423D01*
X203843Y293167D01*
X203971Y292967D01*
X204025Y292913D01*
X204062Y292858D01*
X204080Y292840D01*
X204098Y292822D01*
X204244Y292676D01*
X204390Y292548D01*
X204717Y292330D01*
X205027Y292184D01*
X205337Y292093D01*
X205592Y292020D01*
X205810Y292002D01*
X205883Y291984D01*
X205992D01*
X206338Y292002D01*
X206648Y292075D01*
X206921Y292166D01*
X207139Y292275D01*
X207340Y292384D01*
X207486Y292475D01*
X207558Y292548D01*
X207595Y292567D01*
X207813Y292822D01*
X207995Y293095D01*
X208141Y293404D01*
X208251Y293677D01*
X208323Y293951D01*
X208378Y294151D01*
X208396Y294242D01*
X208414Y294297D01*
Y294333D01*
Y294351D01*
X210035Y294224D01*
X209999Y293932D01*
X209944Y293659D01*
X209780Y293149D01*
X209580Y292712D01*
X209471Y292512D01*
X209361Y292348D01*
X209270Y292184D01*
X209161Y292038D01*
X209070Y291929D01*
X208979Y291838D01*
X208906Y291765D01*
X208870Y291692D01*
X208833Y291674D01*
X208815Y291656D01*
X208596Y291492D01*
X208378Y291346D01*
X208141Y291219D01*
X207904Y291110D01*
X207449Y290946D01*
X206994Y290836D01*
X206793Y290782D01*
X206593Y290763D01*
X206429Y290745D01*
X206284Y290727D01*
X206156Y290709D01*
X205992D01*
X205610Y290727D01*
X205245Y290782D01*
X204900Y290855D01*
X204590Y290946D01*
X204298Y291073D01*
X204025Y291201D01*
X203770Y291328D01*
X203552Y291474D01*
X203351Y291619D01*
X203169Y291747D01*
X203024Y291893D01*
X202896Y292002D01*
X202805Y292093D01*
X202732Y292166D01*
X202696Y292220D01*
X202678Y292239D01*
X202495Y292475D01*
X202350Y292730D01*
X202204Y292967D01*
X202095Y293222D01*
X201913Y293714D01*
X201803Y294187D01*
X201767Y294388D01*
X201731Y294588D01*
X201712Y294752D01*
X201694Y294898D01*
X201676Y295025D01*
Y295116D01*
Y295171D01*
Y295189D01*
X201694Y295517D01*
X201731Y295826D01*
X201785Y296136D01*
X201858Y296409D01*
X201949Y296664D01*
X202040Y296919D01*
X202150Y297138D01*
X202241Y297338D01*
X202350Y297520D01*
X202459Y297684D01*
X202550Y297812D01*
X202641Y297939D01*
X202714Y298030D01*
X202769Y298085D01*
X202805Y298121D01*
X202823Y298139D01*
X203042Y298340D01*
X203260Y298522D01*
X203497Y298667D01*
X203734Y298795D01*
X203971Y298922D01*
X204207Y299014D01*
X204645Y299141D01*
X204845Y299196D01*
X205027Y299232D01*
X205191Y299250D01*
X205337Y299268D01*
X205446Y299287D01*
X205847D01*
X206065Y299250D01*
X206502Y299159D01*
X206903Y299032D01*
X207267Y298886D01*
X207558Y298740D01*
X207686Y298667D01*
X207795Y298613D01*
X207886Y298558D01*
X207941Y298522D01*
X207977Y298503D01*
X207995Y298485D01*
X207322Y301891D01*
X202277D01*
Y303366D01*
X208542D01*
X209762Y296883D01*
D02*
G37*
%LPC*%
G36*
X177882Y61020D02*
X177773D01*
X177372Y60983D01*
X177008Y60910D01*
X176680Y60783D01*
X176407Y60655D01*
X176188Y60510D01*
X176024Y60382D01*
X175933Y60309D01*
X175897Y60273D01*
X175642Y59981D01*
X175460Y59672D01*
X175332Y59362D01*
X175241Y59089D01*
X175186Y58816D01*
X175168Y58616D01*
X175150Y58543D01*
Y58488D01*
Y58452D01*
Y58433D01*
X175186Y58051D01*
X175259Y57687D01*
X175387Y57377D01*
X175514Y57122D01*
X175642Y56922D01*
X175769Y56758D01*
X175842Y56667D01*
X175878Y56631D01*
X176170Y56394D01*
X176461Y56212D01*
X176771Y56102D01*
X177062Y56011D01*
X177317Y55957D01*
X177536Y55939D01*
X177609Y55920D01*
X177718D01*
X177973Y55939D01*
X178228Y55975D01*
X178465Y56030D01*
X178665Y56084D01*
X178829Y56139D01*
X178956Y56193D01*
X179029Y56230D01*
X179065Y56248D01*
X179284Y56394D01*
X179466Y56540D01*
X179630Y56703D01*
X179758Y56867D01*
X179867Y56995D01*
X179940Y57104D01*
X179976Y57195D01*
X179994Y57213D01*
X180085Y57450D01*
X180158Y57669D01*
X180213Y57887D01*
X180249Y58088D01*
X180268Y58251D01*
X180286Y58379D01*
Y58452D01*
Y58488D01*
X180249Y58871D01*
X180176Y59217D01*
X180067Y59526D01*
X179921Y59799D01*
X179794Y60000D01*
X179685Y60164D01*
X179612Y60255D01*
X179575Y60291D01*
X179302Y60528D01*
X178993Y60710D01*
X178701Y60837D01*
X178410Y60929D01*
X178155Y60983D01*
X177955Y61001D01*
X177882Y61020D01*
D02*
G37*
G36*
X127971Y115776D02*
X127826D01*
X127516Y115758D01*
X127225Y115685D01*
X126988Y115594D01*
X126770Y115485D01*
X126606Y115376D01*
X126478Y115285D01*
X126387Y115212D01*
X126369Y115194D01*
X126168Y114957D01*
X126023Y114720D01*
X125913Y114483D01*
X125841Y114265D01*
X125804Y114065D01*
X125768Y113901D01*
Y113791D01*
Y113773D01*
Y113755D01*
X125786Y113463D01*
X125859Y113190D01*
X125950Y112954D01*
X126059Y112753D01*
X126168Y112589D01*
X126260Y112480D01*
X126332Y112389D01*
X126351Y112371D01*
X126569Y112189D01*
X126824Y112043D01*
X127061Y111952D01*
X127298Y111879D01*
X127516Y111843D01*
X127680Y111824D01*
X127789Y111806D01*
X127826D01*
X128154Y111824D01*
X128445Y111897D01*
X128700Y111988D01*
X128919Y112098D01*
X129082Y112189D01*
X129210Y112280D01*
X129301Y112353D01*
X129319Y112371D01*
X129501Y112589D01*
X129647Y112844D01*
X129738Y113081D01*
X129811Y113318D01*
X129847Y113518D01*
X129866Y113682D01*
X129884Y113791D01*
Y113809D01*
Y113828D01*
X129866Y114119D01*
X129793Y114374D01*
X129702Y114611D01*
X129592Y114811D01*
X129501Y114975D01*
X129410Y115103D01*
X129337Y115175D01*
X129319Y115194D01*
X129082Y115394D01*
X128846Y115540D01*
X128591Y115631D01*
X128354Y115703D01*
X128135Y115740D01*
X127971Y115776D01*
D02*
G37*
G36*
X204141Y45008D02*
X203850D01*
X203668Y44971D01*
X203340Y44880D01*
X203049Y44753D01*
X202794Y44625D01*
X202593Y44480D01*
X202448Y44352D01*
X202357Y44261D01*
X202320Y44243D01*
Y44225D01*
X202083Y43915D01*
X201901Y43569D01*
X201774Y43205D01*
X201701Y42859D01*
X201646Y42567D01*
X201628Y42440D01*
Y42312D01*
X201610Y42221D01*
Y42149D01*
Y42112D01*
Y42094D01*
X201646Y41620D01*
X201719Y41202D01*
X201828Y40855D01*
X201956Y40564D01*
X202102Y40327D01*
X202211Y40163D01*
X202284Y40054D01*
X202320Y40018D01*
X202593Y39763D01*
X202885Y39581D01*
X203176Y39453D01*
X203468Y39362D01*
X203704Y39307D01*
X203905Y39289D01*
X203977Y39271D01*
X204087D01*
X204469Y39307D01*
X204815Y39380D01*
X205125Y39508D01*
X205398Y39653D01*
X205598Y39781D01*
X205762Y39908D01*
X205853Y39981D01*
X205890Y40018D01*
X206126Y40309D01*
X206309Y40637D01*
X206418Y40965D01*
X206509Y41274D01*
X206563Y41548D01*
X206582Y41657D01*
Y41766D01*
X206600Y41857D01*
Y41912D01*
Y41948D01*
Y41966D01*
X206563Y42440D01*
X206491Y42877D01*
X206363Y43260D01*
X206217Y43569D01*
X206090Y43824D01*
X205963Y44006D01*
X205926Y44061D01*
X205890Y44115D01*
X205853Y44134D01*
Y44152D01*
X205708Y44297D01*
X205562Y44443D01*
X205252Y44644D01*
X204943Y44808D01*
X204651Y44899D01*
X204415Y44971D01*
X204214Y44990D01*
X204141Y45008D01*
D02*
G37*
G36*
X127990Y110550D02*
X127880D01*
X127480Y110513D01*
X127115Y110440D01*
X126788Y110313D01*
X126515Y110185D01*
X126296Y110040D01*
X126132Y109912D01*
X126041Y109839D01*
X126005Y109803D01*
X125750Y109511D01*
X125568Y109202D01*
X125440Y108892D01*
X125349Y108619D01*
X125294Y108346D01*
X125276Y108146D01*
X125258Y108073D01*
Y108018D01*
Y107982D01*
Y107963D01*
X125294Y107581D01*
X125367Y107217D01*
X125495Y106907D01*
X125622Y106652D01*
X125750Y106452D01*
X125877Y106288D01*
X125950Y106197D01*
X125986Y106160D01*
X126278Y105924D01*
X126569Y105742D01*
X126879Y105632D01*
X127170Y105541D01*
X127425Y105487D01*
X127644Y105469D01*
X127717Y105450D01*
X127826D01*
X128081Y105469D01*
X128336Y105505D01*
X128573Y105560D01*
X128773Y105614D01*
X128937Y105669D01*
X129064Y105723D01*
X129137Y105760D01*
X129173Y105778D01*
X129392Y105924D01*
X129574Y106069D01*
X129738Y106233D01*
X129866Y106397D01*
X129975Y106525D01*
X130048Y106634D01*
X130084Y106725D01*
X130102Y106743D01*
X130193Y106980D01*
X130266Y107199D01*
X130321Y107417D01*
X130357Y107618D01*
X130375Y107781D01*
X130394Y107909D01*
Y107982D01*
Y108018D01*
X130357Y108401D01*
X130284Y108747D01*
X130175Y109056D01*
X130029Y109329D01*
X129902Y109530D01*
X129793Y109694D01*
X129720Y109785D01*
X129683Y109821D01*
X129410Y110058D01*
X129101Y110240D01*
X128809Y110367D01*
X128518Y110458D01*
X128263Y110513D01*
X128062Y110531D01*
X127990Y110550D01*
D02*
G37*
G36*
X221243Y66246D02*
X220951D01*
X220769Y66210D01*
X220442Y66119D01*
X220150Y65991D01*
X219895Y65864D01*
X219695Y65718D01*
X219549Y65591D01*
X219458Y65500D01*
X219422Y65482D01*
Y65463D01*
X219185Y65154D01*
X219003Y64808D01*
X218875Y64443D01*
X218803Y64097D01*
X218748Y63806D01*
X218730Y63678D01*
Y63551D01*
X218711Y63460D01*
Y63387D01*
Y63351D01*
Y63333D01*
X218748Y62859D01*
X218821Y62440D01*
X218930Y62094D01*
X219058Y61803D01*
X219203Y61566D01*
X219312Y61402D01*
X219385Y61293D01*
X219422Y61256D01*
X219695Y61001D01*
X219986Y60819D01*
X220278Y60692D01*
X220569Y60601D01*
X220806Y60546D01*
X221006Y60528D01*
X221079Y60510D01*
X221188D01*
X221571Y60546D01*
X221917Y60619D01*
X222226Y60746D01*
X222500Y60892D01*
X222700Y61020D01*
X222864Y61147D01*
X222955Y61220D01*
X222991Y61256D01*
X223228Y61548D01*
X223410Y61876D01*
X223519Y62203D01*
X223610Y62513D01*
X223665Y62786D01*
X223683Y62895D01*
Y63005D01*
X223701Y63096D01*
Y63150D01*
Y63187D01*
Y63205D01*
X223665Y63678D01*
X223592Y64116D01*
X223465Y64498D01*
X223319Y64808D01*
X223192Y65063D01*
X223064Y65245D01*
X223028Y65299D01*
X222991Y65354D01*
X222955Y65372D01*
Y65390D01*
X222809Y65536D01*
X222663Y65682D01*
X222354Y65882D01*
X222044Y66046D01*
X221753Y66137D01*
X221516Y66210D01*
X221316Y66228D01*
X221243Y66246D01*
D02*
G37*
G36*
X89003Y244626D02*
X85032D01*
X84541Y244608D01*
X84122Y244535D01*
X83757Y244444D01*
X83484Y244335D01*
X83248Y244226D01*
X83102Y244135D01*
X83011Y244062D01*
X82974Y244044D01*
X82756Y243807D01*
X82592Y243570D01*
X82483Y243315D01*
X82392Y243097D01*
X82355Y242878D01*
X82337Y242714D01*
X82319Y242605D01*
Y242586D01*
Y242568D01*
X82337Y242350D01*
X82373Y242131D01*
X82428Y241949D01*
X82483Y241785D01*
X82556Y241639D01*
X82610Y241530D01*
X82647Y241457D01*
X82665Y241439D01*
X82792Y241257D01*
X82956Y241093D01*
X83120Y240966D01*
X83284Y240856D01*
X83430Y240784D01*
X83539Y240729D01*
X83612Y240693D01*
X83648Y240674D01*
X83903Y240601D01*
X84195Y240547D01*
X84486Y240510D01*
X84777Y240492D01*
X85032Y240474D01*
X85251Y240456D01*
X89003D01*
Y244626D01*
D02*
G37*
G36*
X108292Y37643D02*
X108183D01*
X107801Y37606D01*
X107455Y37515D01*
X107163Y37406D01*
X106908Y37260D01*
X106708Y37115D01*
X106562Y37005D01*
X106471Y36914D01*
X106435Y36878D01*
X106198Y36568D01*
X106016Y36240D01*
X105888Y35894D01*
X105815Y35566D01*
X105761Y35275D01*
X105743Y35148D01*
Y35038D01*
X105724Y34947D01*
Y34874D01*
Y34838D01*
Y34820D01*
X105761Y34328D01*
X105834Y33909D01*
X105943Y33545D01*
X106070Y33235D01*
X106216Y32999D01*
X106325Y32817D01*
X106398Y32707D01*
X106435Y32689D01*
Y32671D01*
X106562Y32525D01*
X106708Y32416D01*
X106999Y32215D01*
X107291Y32088D01*
X107546Y31979D01*
X107782Y31924D01*
X107964Y31906D01*
X108037Y31888D01*
X108128D01*
X108383Y31906D01*
X108620Y31942D01*
X108839Y32015D01*
X109021Y32088D01*
X109185Y32143D01*
X109312Y32215D01*
X109385Y32252D01*
X109421Y32270D01*
X109640Y32434D01*
X109822Y32598D01*
X109986Y32798D01*
X110113Y32962D01*
X110223Y33126D01*
X110296Y33254D01*
X110350Y33345D01*
X110368Y33381D01*
X110478Y33654D01*
X110551Y33927D01*
X110623Y34182D01*
X110660Y34419D01*
X110678Y34620D01*
X110696Y34783D01*
Y34874D01*
Y34911D01*
X110660Y35348D01*
X110587Y35730D01*
X110459Y36076D01*
X110332Y36350D01*
X110204Y36586D01*
X110077Y36750D01*
X110004Y36841D01*
X109968Y36878D01*
X109676Y37133D01*
X109385Y37315D01*
X109075Y37460D01*
X108802Y37552D01*
X108547Y37606D01*
X108365Y37624D01*
X108292Y37643D01*
D02*
G37*
G36*
X240280Y322532D02*
X240098D01*
X239643Y322514D01*
X239205Y322441D01*
X238823Y322332D01*
X238495Y322223D01*
X238222Y322095D01*
X238113Y322041D01*
X238022Y322004D01*
X237931Y321950D01*
X237876Y321931D01*
X237858Y321895D01*
X237840D01*
X237494Y321640D01*
X237184Y321349D01*
X236911Y321057D01*
X236692Y320766D01*
X236528Y320511D01*
X236401Y320292D01*
X236364Y320219D01*
X236328Y320165D01*
X236310Y320128D01*
Y320110D01*
X236128Y319673D01*
X236000Y319218D01*
X235909Y318762D01*
X235854Y318344D01*
X235818Y318162D01*
X235800Y317979D01*
Y317834D01*
X235782Y317688D01*
Y317579D01*
Y317506D01*
Y317451D01*
Y317433D01*
X235800Y316941D01*
X235836Y316486D01*
X235909Y316067D01*
X236019Y315667D01*
X236128Y315320D01*
X236255Y314993D01*
X236383Y314683D01*
X236510Y314410D01*
X236656Y314173D01*
X236783Y313973D01*
X236911Y313809D01*
X237020Y313663D01*
X237111Y313554D01*
X237184Y313463D01*
X237239Y313426D01*
X237257Y313408D01*
X237639Y313700D01*
X238022Y313936D01*
X238422Y314137D01*
X238805Y314319D01*
X239133Y314446D01*
X239278Y314501D01*
X239406Y314537D01*
X239497Y314574D01*
X239570Y314592D01*
X239624Y314610D01*
X239643D01*
X240061Y313408D01*
X239734Y313317D01*
X239424Y313208D01*
X239151Y313081D01*
X238896Y312971D01*
X238696Y312862D01*
X238532Y312771D01*
X238441Y312698D01*
X238404Y312680D01*
X238696Y312570D01*
X239005Y312498D01*
X239278Y312425D01*
X239552Y312388D01*
X239770Y312370D01*
X239934Y312352D01*
X240098D01*
X240444Y312370D01*
X240772Y312407D01*
X241081Y312479D01*
X241391Y312552D01*
X241664Y312662D01*
X241919Y312771D01*
X242156Y312880D01*
X242356Y313008D01*
X242556Y313135D01*
X242720Y313244D01*
X242866Y313354D01*
X242994Y313463D01*
X243085Y313536D01*
X243158Y313609D01*
X243194Y313645D01*
X243212Y313663D01*
X243431Y313918D01*
X243613Y314210D01*
X243777Y314501D01*
X243904Y314811D01*
X244032Y315120D01*
X244123Y315430D01*
X244268Y316049D01*
X244305Y316322D01*
X244341Y316595D01*
X244378Y316832D01*
X244396Y317032D01*
X244414Y317196D01*
Y317324D01*
Y317397D01*
Y317433D01*
X244396Y317888D01*
X244359Y318325D01*
X244305Y318726D01*
X244214Y319090D01*
X244123Y319436D01*
X244032Y319746D01*
X243922Y320037D01*
X243795Y320292D01*
X243686Y320511D01*
X243576Y320711D01*
X243485Y320875D01*
X243376Y321003D01*
X243303Y321112D01*
X243249Y321185D01*
X243212Y321221D01*
X243194Y321239D01*
X242957Y321476D01*
X242702Y321658D01*
X242447Y321840D01*
X242192Y321986D01*
X241919Y322113D01*
X241664Y322223D01*
X241427Y322296D01*
X241172Y322369D01*
X240954Y322423D01*
X240753Y322459D01*
X240571Y322496D01*
X240408Y322514D01*
X240280Y322532D01*
D02*
G37*
G36*
X171456Y339019D02*
Y333374D01*
X175426D01*
X171456Y339019D01*
D02*
G37*
G36*
X177864Y66246D02*
X177718D01*
X177408Y66228D01*
X177117Y66155D01*
X176880Y66064D01*
X176661Y65955D01*
X176498Y65846D01*
X176370Y65755D01*
X176279Y65682D01*
X176261Y65664D01*
X176061Y65427D01*
X175915Y65190D01*
X175806Y64953D01*
X175733Y64735D01*
X175696Y64535D01*
X175660Y64371D01*
Y64261D01*
Y64243D01*
Y64225D01*
X175678Y63934D01*
X175751Y63660D01*
X175842Y63424D01*
X175951Y63223D01*
X176061Y63059D01*
X176152Y62950D01*
X176224Y62859D01*
X176243Y62841D01*
X176461Y62659D01*
X176716Y62513D01*
X176953Y62422D01*
X177190Y62349D01*
X177408Y62313D01*
X177572Y62294D01*
X177681Y62276D01*
X177718D01*
X178046Y62294D01*
X178337Y62367D01*
X178592Y62458D01*
X178811Y62568D01*
X178974Y62659D01*
X179102Y62750D01*
X179193Y62823D01*
X179211Y62841D01*
X179393Y63059D01*
X179539Y63314D01*
X179630Y63551D01*
X179703Y63788D01*
X179739Y63988D01*
X179758Y64152D01*
X179776Y64261D01*
Y64279D01*
Y64298D01*
X179758Y64589D01*
X179685Y64844D01*
X179594Y65081D01*
X179484Y65281D01*
X179393Y65445D01*
X179302Y65573D01*
X179229Y65645D01*
X179211Y65664D01*
X178974Y65864D01*
X178738Y66010D01*
X178483Y66101D01*
X178246Y66174D01*
X178027Y66210D01*
X177864Y66246D01*
D02*
G37*
G36*
X64919Y174946D02*
X64792D01*
X64300Y174909D01*
X63881Y174836D01*
X63517Y174727D01*
X63207Y174599D01*
X62971Y174454D01*
X62789Y174345D01*
X62679Y174272D01*
X62661Y174235D01*
X62643D01*
X62497Y174108D01*
X62388Y173962D01*
X62188Y173671D01*
X62060Y173379D01*
X61951Y173124D01*
X61896Y172888D01*
X61878Y172705D01*
X61860Y172633D01*
Y172578D01*
Y172560D01*
Y172542D01*
X61878Y172287D01*
X61914Y172050D01*
X61987Y171831D01*
X62060Y171649D01*
X62115Y171485D01*
X62188Y171358D01*
X62224Y171285D01*
X62242Y171249D01*
X62406Y171030D01*
X62570Y170848D01*
X62770Y170684D01*
X62934Y170557D01*
X63098Y170447D01*
X63226Y170374D01*
X63317Y170320D01*
X63353Y170302D01*
X63626Y170192D01*
X63899Y170119D01*
X64154Y170047D01*
X64391Y170010D01*
X64591Y169992D01*
X64755Y169974D01*
X64883D01*
X65320Y170010D01*
X65702Y170083D01*
X66048Y170210D01*
X66322Y170338D01*
X66558Y170466D01*
X66722Y170593D01*
X66813Y170666D01*
X66850Y170702D01*
X67105Y170994D01*
X67287Y171285D01*
X67432Y171595D01*
X67524Y171868D01*
X67578Y172123D01*
X67596Y172305D01*
X67615Y172378D01*
Y172432D01*
Y172469D01*
Y172487D01*
X67578Y172869D01*
X67487Y173216D01*
X67378Y173507D01*
X67232Y173762D01*
X67087Y173962D01*
X66977Y174108D01*
X66886Y174199D01*
X66850Y174235D01*
X66540Y174472D01*
X66212Y174654D01*
X65866Y174782D01*
X65539Y174855D01*
X65247Y174909D01*
X65120Y174927D01*
X65010D01*
X64919Y174946D01*
D02*
G37*
G36*
X131353Y261089D02*
X131316D01*
X131098Y261071D01*
X130879Y261035D01*
X130697Y260980D01*
X130533Y260925D01*
X130387Y260853D01*
X130278Y260798D01*
X130205Y260761D01*
X130187Y260743D01*
X130005Y260616D01*
X129841Y260452D01*
X129714Y260288D01*
X129604Y260124D01*
X129532Y259978D01*
X129477Y259869D01*
X129440Y259796D01*
X129422Y259760D01*
X129349Y259505D01*
X129295Y259213D01*
X129258Y258922D01*
X129240Y258631D01*
X129222Y258376D01*
X129204Y258157D01*
Y258084D01*
Y258030D01*
Y257993D01*
Y257975D01*
Y254405D01*
X133374D01*
Y258376D01*
X133356Y258867D01*
X133283Y259286D01*
X133192Y259650D01*
X133083Y259924D01*
X132974Y260160D01*
X132882Y260306D01*
X132810Y260397D01*
X132792Y260434D01*
X132555Y260652D01*
X132318Y260816D01*
X132063Y260925D01*
X131845Y261016D01*
X131626Y261053D01*
X131462Y261071D01*
X131353Y261089D01*
D02*
G37*
%LPD*%
D25*
X0Y365506D02*
X314960D01*
X0Y0D02*
X314960D01*
X0D02*
X314960D01*
Y365506D01*
X0D02*
X314960D01*
X0Y0D02*
Y365506D01*
M02*
