%FSLAX44Y44*%
%MOMM*%
G71*
G01*
G75*
G04 Layer_Color=8388736*
%ADD10C,0.2540*%
G04:AMPARAMS|DCode=11|XSize=1.27mm|YSize=0.3556mm|CornerRadius=0.0356mm|HoleSize=0mm|Usage=FLASHONLY|Rotation=270.000|XOffset=0mm|YOffset=0mm|HoleType=Round|Shape=RoundedRectangle|*
%AMROUNDEDRECTD11*
21,1,1.2700,0.2845,0,0,270.0*
21,1,1.1989,0.3556,0,0,270.0*
1,1,0.0711,-0.1422,-0.5994*
1,1,0.0711,-0.1422,0.5994*
1,1,0.0711,0.1422,0.5994*
1,1,0.0711,0.1422,-0.5994*
%
%ADD11ROUNDEDRECTD11*%
G04:AMPARAMS|DCode=12|XSize=0.3556mm|YSize=1.27mm|CornerRadius=0.0356mm|HoleSize=0mm|Usage=FLASHONLY|Rotation=270.000|XOffset=0mm|YOffset=0mm|HoleType=Round|Shape=RoundedRectangle|*
%AMROUNDEDRECTD12*
21,1,0.3556,1.1989,0,0,270.0*
21,1,0.2845,1.2700,0,0,270.0*
1,1,0.0711,-0.5994,-0.1422*
1,1,0.0711,-0.5994,0.1422*
1,1,0.0711,0.5994,0.1422*
1,1,0.0711,0.5994,-0.1422*
%
%ADD12ROUNDEDRECTD12*%
G04:AMPARAMS|DCode=13|XSize=3.302mm|YSize=3.302mm|CornerRadius=0.3302mm|HoleSize=0mm|Usage=FLASHONLY|Rotation=270.000|XOffset=0mm|YOffset=0mm|HoleType=Round|Shape=RoundedRectangle|*
%AMROUNDEDRECTD13*
21,1,3.3020,2.6416,0,0,270.0*
21,1,2.6416,3.3020,0,0,270.0*
1,1,0.6604,-1.3208,-1.3208*
1,1,0.6604,-1.3208,1.3208*
1,1,0.6604,1.3208,1.3208*
1,1,0.6604,1.3208,-1.3208*
%
%ADD13ROUNDEDRECTD13*%
%ADD14R,1.5240X1.3208*%
%ADD15R,2.4130X2.8194*%
%ADD16R,1.8034X1.6002*%
%ADD17R,1.5240X1.5240*%
%ADD18R,1.3208X1.5240*%
%ADD19R,1.5240X1.5240*%
%ADD20R,1.6002X1.8034*%
%ADD21C,0.6096*%
%ADD22C,0.4064*%
%ADD23C,0.3048*%
%ADD24C,0.0864*%
%ADD25C,0.0500*%
%ADD26C,1.2192*%
%ADD27O,3.0480X1.5240*%
%ADD28O,1.5240X3.0480*%
%ADD29C,0.7580*%
%ADD30C,0.8596*%
%ADD31R,0.5080X1.5240*%
%ADD32R,1.5240X0.5080*%
%ADD33C,0.1524*%
%ADD34C,0.1270*%
%ADD35C,0.2032*%
%ADD36R,0.3250X0.4318*%
%ADD37R,0.3302X0.4318*%
%ADD38R,0.3528X0.3556*%
%ADD39R,0.4318X0.3250*%
%ADD40R,0.4318X0.3302*%
%ADD41R,0.3556X0.3528*%
G04:AMPARAMS|DCode=42|XSize=1.42mm|YSize=0.5056mm|CornerRadius=0.1106mm|HoleSize=0mm|Usage=FLASHONLY|Rotation=270.000|XOffset=0mm|YOffset=0mm|HoleType=Round|Shape=RoundedRectangle|*
%AMROUNDEDRECTD42*
21,1,1.4200,0.2845,0,0,270.0*
21,1,1.1989,0.5056,0,0,270.0*
1,1,0.2211,-0.1422,-0.5994*
1,1,0.2211,-0.1422,0.5994*
1,1,0.2211,0.1422,0.5994*
1,1,0.2211,0.1422,-0.5994*
%
%ADD42ROUNDEDRECTD42*%
G04:AMPARAMS|DCode=43|XSize=0.5056mm|YSize=1.42mm|CornerRadius=0.1106mm|HoleSize=0mm|Usage=FLASHONLY|Rotation=270.000|XOffset=0mm|YOffset=0mm|HoleType=Round|Shape=RoundedRectangle|*
%AMROUNDEDRECTD43*
21,1,0.5056,1.1989,0,0,270.0*
21,1,0.2845,1.4200,0,0,270.0*
1,1,0.2211,-0.5994,-0.1422*
1,1,0.2211,-0.5994,0.1422*
1,1,0.2211,0.5994,0.1422*
1,1,0.2211,0.5994,-0.1422*
%
%ADD43ROUNDEDRECTD43*%
G04:AMPARAMS|DCode=44|XSize=3.452mm|YSize=3.452mm|CornerRadius=0.4052mm|HoleSize=0mm|Usage=FLASHONLY|Rotation=270.000|XOffset=0mm|YOffset=0mm|HoleType=Round|Shape=RoundedRectangle|*
%AMROUNDEDRECTD44*
21,1,3.4520,2.6416,0,0,270.0*
21,1,2.6416,3.4520,0,0,270.0*
1,1,0.8104,-1.3208,-1.3208*
1,1,0.8104,-1.3208,1.3208*
1,1,0.8104,1.3208,1.3208*
1,1,0.8104,1.3208,-1.3208*
%
%ADD44ROUNDEDRECTD44*%
%ADD45R,1.6740X1.4708*%
%ADD46R,2.5630X2.9694*%
%ADD47R,1.9534X1.7502*%
%ADD48R,1.6740X1.6740*%
%ADD49R,1.4708X1.6740*%
%ADD50R,1.6740X1.6740*%
%ADD51R,1.7502X1.9534*%
%ADD52C,1.3692*%
%ADD53O,3.1980X1.6740*%
%ADD54O,1.6740X3.1980*%
%ADD55C,0.9080*%
%ADD56C,1.0096*%
D25*
X0Y365506D02*
X314960D01*
X0Y0D02*
X314960D01*
X0D02*
X314960D01*
Y365506D01*
X0D02*
X314960D01*
X0Y0D02*
Y365506D01*
D42*
X183134Y174780D02*
D03*
X176784D02*
D03*
X170180D02*
D03*
X163576D02*
D03*
X157076D02*
D03*
X150576D02*
D03*
X144076D02*
D03*
Y114554D02*
D03*
X150576D02*
D03*
X157076D02*
D03*
X163576D02*
D03*
X170180D02*
D03*
X176784D02*
D03*
X183134D02*
D03*
D43*
X133576Y164280D02*
D03*
Y157780D02*
D03*
Y151280D02*
D03*
Y144780D02*
D03*
Y138176D02*
D03*
Y131572D02*
D03*
Y125222D02*
D03*
X193802D02*
D03*
Y131572D02*
D03*
Y138176D02*
D03*
Y144780D02*
D03*
Y151280D02*
D03*
Y157780D02*
D03*
Y164280D02*
D03*
D44*
X163576Y144780D02*
D03*
D45*
X130048Y304902D02*
D03*
Y285750D02*
D03*
Y252628D02*
D03*
Y271780D02*
D03*
X106426Y135230D02*
D03*
Y116078D02*
D03*
X85598Y144628D02*
D03*
Y125476D02*
D03*
X269240Y37236D02*
D03*
Y56388D02*
D03*
D46*
X203196Y198882D02*
D03*
X266446D02*
D03*
D47*
X104648Y165354D02*
D03*
Y193798D02*
D03*
X249174Y168402D02*
D03*
Y139958D02*
D03*
X255524Y76454D02*
D03*
Y104898D02*
D03*
X84074Y193802D02*
D03*
Y165358D02*
D03*
D48*
X227076Y168656D02*
D03*
Y133630D02*
D03*
X234696Y76454D02*
D03*
Y111480D02*
D03*
D49*
X58826Y211328D02*
D03*
X77978D02*
D03*
X93624D02*
D03*
X112776D02*
D03*
X61824Y81280D02*
D03*
X42672D02*
D03*
X242926Y45212D02*
D03*
X223774D02*
D03*
D50*
X196596Y322072D02*
D03*
X161570D02*
D03*
D51*
X247650D02*
D03*
X219206D02*
D03*
D52*
X219456Y284480D02*
D03*
X171196D02*
D03*
X145796Y74930D02*
D03*
X194056D02*
D03*
D53*
X62738Y300228D02*
D03*
Y274828D02*
D03*
Y249428D02*
D03*
X55626Y106680D02*
D03*
Y132080D02*
D03*
Y157480D02*
D03*
Y182880D02*
D03*
X17526Y43180D02*
D03*
Y68580D02*
D03*
Y93980D02*
D03*
Y119380D02*
D03*
Y144780D02*
D03*
Y170180D02*
D03*
Y195580D02*
D03*
Y220980D02*
D03*
Y246380D02*
D03*
Y271780D02*
D03*
Y297180D02*
D03*
Y322580D02*
D03*
X296926Y17780D02*
D03*
Y43180D02*
D03*
Y68580D02*
D03*
Y93980D02*
D03*
Y119380D02*
D03*
Y144780D02*
D03*
Y170180D02*
D03*
Y195580D02*
D03*
Y220980D02*
D03*
Y246380D02*
D03*
Y271780D02*
D03*
Y297180D02*
D03*
Y322580D02*
D03*
Y347980D02*
D03*
D54*
X68326Y17780D02*
D03*
X93726D02*
D03*
X119126D02*
D03*
X144526D02*
D03*
X169926D02*
D03*
X195326D02*
D03*
X220726D02*
D03*
X246126D02*
D03*
X68326Y347980D02*
D03*
X93726D02*
D03*
X119126D02*
D03*
X144526D02*
D03*
X169926D02*
D03*
X195326D02*
D03*
X220726D02*
D03*
X246126D02*
D03*
D55*
X53086Y60706D02*
D03*
X255270Y217932D02*
D03*
X126238Y113792D02*
D03*
X253746Y126238D02*
D03*
X130810Y74676D02*
D03*
X222504Y99568D02*
D03*
X154178Y56134D02*
D03*
X234950Y57658D02*
D03*
X147574Y255778D02*
D03*
X163576Y220980D02*
D03*
X169672Y193040D02*
D03*
X132334Y238252D02*
D03*
X189992Y172720D02*
D03*
X180594Y193040D02*
D03*
X217932Y154178D02*
D03*
X242824Y238252D02*
D03*
X270764D02*
D03*
D56*
X140208Y213360D02*
D03*
X108966Y225806D02*
D03*
M02*
