%FSLAX44Y44*%
%MOMM*%
G71*
G01*
G75*
G04 Layer_Color=255*
%ADD10C,0.2540*%
G04:AMPARAMS|DCode=11|XSize=1.27mm|YSize=0.3556mm|CornerRadius=0.0356mm|HoleSize=0mm|Usage=FLASHONLY|Rotation=270.000|XOffset=0mm|YOffset=0mm|HoleType=Round|Shape=RoundedRectangle|*
%AMROUNDEDRECTD11*
21,1,1.2700,0.2845,0,0,270.0*
21,1,1.1989,0.3556,0,0,270.0*
1,1,0.0711,-0.1422,-0.5994*
1,1,0.0711,-0.1422,0.5994*
1,1,0.0711,0.1422,0.5994*
1,1,0.0711,0.1422,-0.5994*
%
%ADD11ROUNDEDRECTD11*%
G04:AMPARAMS|DCode=12|XSize=0.3556mm|YSize=1.27mm|CornerRadius=0.0356mm|HoleSize=0mm|Usage=FLASHONLY|Rotation=270.000|XOffset=0mm|YOffset=0mm|HoleType=Round|Shape=RoundedRectangle|*
%AMROUNDEDRECTD12*
21,1,0.3556,1.1989,0,0,270.0*
21,1,0.2845,1.2700,0,0,270.0*
1,1,0.0711,-0.5994,-0.1422*
1,1,0.0711,-0.5994,0.1422*
1,1,0.0711,0.5994,0.1422*
1,1,0.0711,0.5994,-0.1422*
%
%ADD12ROUNDEDRECTD12*%
G04:AMPARAMS|DCode=13|XSize=3.302mm|YSize=3.302mm|CornerRadius=0.3302mm|HoleSize=0mm|Usage=FLASHONLY|Rotation=270.000|XOffset=0mm|YOffset=0mm|HoleType=Round|Shape=RoundedRectangle|*
%AMROUNDEDRECTD13*
21,1,3.3020,2.6416,0,0,270.0*
21,1,2.6416,3.3020,0,0,270.0*
1,1,0.6604,-1.3208,-1.3208*
1,1,0.6604,-1.3208,1.3208*
1,1,0.6604,1.3208,1.3208*
1,1,0.6604,1.3208,-1.3208*
%
%ADD13ROUNDEDRECTD13*%
%ADD14R,1.5240X1.3208*%
%ADD15R,2.4130X2.8194*%
%ADD16R,1.8034X1.6002*%
%ADD17R,1.5240X1.5240*%
%ADD18R,1.3208X1.5240*%
%ADD19R,1.5240X1.5240*%
%ADD20R,1.6002X1.8034*%
%ADD21C,0.6096*%
%ADD22C,0.4064*%
%ADD23C,0.3048*%
%ADD24C,0.0864*%
%ADD25C,0.0500*%
%ADD26C,1.2192*%
%ADD27O,3.0480X1.5240*%
%ADD28O,1.5240X3.0480*%
%ADD29C,0.7580*%
%ADD30C,0.8596*%
%ADD31R,0.5080X1.5240*%
%ADD32R,1.5240X0.5080*%
D14*
X131826Y278028D02*
D03*
Y297180D02*
D03*
X254000Y113132D02*
D03*
Y93980D02*
D03*
X236728Y116688D02*
D03*
Y97536D02*
D03*
X86106Y173330D02*
D03*
Y154178D02*
D03*
D16*
X109474Y279654D02*
D03*
Y251210D02*
D03*
D18*
X185776Y316230D02*
D03*
X166624D02*
D03*
X204876D02*
D03*
X224028D02*
D03*
X141326Y91694D02*
D03*
X122174D02*
D03*
X203098Y58928D02*
D03*
X222250D02*
D03*
X61062Y42164D02*
D03*
X41910D02*
D03*
X92050Y59182D02*
D03*
X72898D02*
D03*
X107340Y56134D02*
D03*
X126492D02*
D03*
X146202Y42164D02*
D03*
X165354D02*
D03*
X201016D02*
D03*
X181864D02*
D03*
X244450D02*
D03*
X225298D02*
D03*
D20*
X63754Y220726D02*
D03*
X92198D02*
D03*
D25*
X0Y365506D02*
X314960D01*
X0Y0D02*
X314960D01*
X0D02*
X314960D01*
Y365506D01*
X0D02*
X314960D01*
X0Y0D02*
Y365506D01*
D26*
X219456Y284480D02*
D03*
X171196D02*
D03*
X145796Y74930D02*
D03*
X194056D02*
D03*
D27*
X62738Y300228D02*
D03*
Y274828D02*
D03*
Y249428D02*
D03*
X55626Y106680D02*
D03*
Y132080D02*
D03*
Y157480D02*
D03*
Y182880D02*
D03*
X17526Y43180D02*
D03*
Y68580D02*
D03*
Y93980D02*
D03*
Y119380D02*
D03*
Y144780D02*
D03*
Y170180D02*
D03*
Y195580D02*
D03*
Y220980D02*
D03*
Y246380D02*
D03*
Y271780D02*
D03*
Y297180D02*
D03*
Y322580D02*
D03*
X296926Y17780D02*
D03*
Y43180D02*
D03*
Y68580D02*
D03*
Y93980D02*
D03*
Y119380D02*
D03*
Y144780D02*
D03*
Y170180D02*
D03*
Y195580D02*
D03*
Y220980D02*
D03*
Y246380D02*
D03*
Y271780D02*
D03*
Y297180D02*
D03*
Y322580D02*
D03*
Y347980D02*
D03*
D28*
X68326Y17780D02*
D03*
X93726D02*
D03*
X119126D02*
D03*
X144526D02*
D03*
X169926D02*
D03*
X195326D02*
D03*
X220726D02*
D03*
X246126D02*
D03*
X68326Y347980D02*
D03*
X93726D02*
D03*
X119126D02*
D03*
X144526D02*
D03*
X169926D02*
D03*
X195326D02*
D03*
X220726D02*
D03*
X246126D02*
D03*
D31*
X142494Y234530D02*
D03*
X150622D02*
D03*
X158496D02*
D03*
X166624D02*
D03*
X174498D02*
D03*
X182626D02*
D03*
X190626D02*
D03*
X198626D02*
D03*
X206626D02*
D03*
X214626D02*
D03*
X222626D02*
D03*
Y118364D02*
D03*
X214626D02*
D03*
X206626D02*
D03*
X198626D02*
D03*
X190626D02*
D03*
X182626D02*
D03*
X174498D02*
D03*
X166624D02*
D03*
X158496D02*
D03*
X150622D02*
D03*
X142494D02*
D03*
D32*
X240626Y216530D02*
D03*
Y208530D02*
D03*
Y200530D02*
D03*
Y192530D02*
D03*
Y184530D02*
D03*
Y176530D02*
D03*
Y168402D02*
D03*
Y160528D02*
D03*
Y152400D02*
D03*
Y144526D02*
D03*
Y136398D02*
D03*
X124460D02*
D03*
Y144526D02*
D03*
Y152400D02*
D03*
Y160528D02*
D03*
Y168402D02*
D03*
Y176530D02*
D03*
Y184530D02*
D03*
Y192530D02*
D03*
Y200530D02*
D03*
Y208530D02*
D03*
Y216530D02*
D03*
M02*
