%FSLAX44Y44*%
%MOMM*%
G71*
G01*
G75*
G04 Layer_Physical_Order=2*
G04 Layer_Color=16711680*
%ADD10C,0.2540*%
G04:AMPARAMS|DCode=11|XSize=1.27mm|YSize=0.3556mm|CornerRadius=0.0356mm|HoleSize=0mm|Usage=FLASHONLY|Rotation=270.000|XOffset=0mm|YOffset=0mm|HoleType=Round|Shape=RoundedRectangle|*
%AMROUNDEDRECTD11*
21,1,1.2700,0.2845,0,0,270.0*
21,1,1.1989,0.3556,0,0,270.0*
1,1,0.0711,-0.1422,-0.5994*
1,1,0.0711,-0.1422,0.5994*
1,1,0.0711,0.1422,0.5994*
1,1,0.0711,0.1422,-0.5994*
%
%ADD11ROUNDEDRECTD11*%
G04:AMPARAMS|DCode=12|XSize=0.3556mm|YSize=1.27mm|CornerRadius=0.0356mm|HoleSize=0mm|Usage=FLASHONLY|Rotation=270.000|XOffset=0mm|YOffset=0mm|HoleType=Round|Shape=RoundedRectangle|*
%AMROUNDEDRECTD12*
21,1,0.3556,1.1989,0,0,270.0*
21,1,0.2845,1.2700,0,0,270.0*
1,1,0.0711,-0.5994,-0.1422*
1,1,0.0711,-0.5994,0.1422*
1,1,0.0711,0.5994,0.1422*
1,1,0.0711,0.5994,-0.1422*
%
%ADD12ROUNDEDRECTD12*%
G04:AMPARAMS|DCode=13|XSize=3.302mm|YSize=3.302mm|CornerRadius=0.3302mm|HoleSize=0mm|Usage=FLASHONLY|Rotation=270.000|XOffset=0mm|YOffset=0mm|HoleType=Round|Shape=RoundedRectangle|*
%AMROUNDEDRECTD13*
21,1,3.3020,2.6416,0,0,270.0*
21,1,2.6416,3.3020,0,0,270.0*
1,1,0.6604,-1.3208,-1.3208*
1,1,0.6604,-1.3208,1.3208*
1,1,0.6604,1.3208,1.3208*
1,1,0.6604,1.3208,-1.3208*
%
%ADD13ROUNDEDRECTD13*%
%ADD14R,1.5240X1.3208*%
%ADD15R,2.4130X2.8194*%
%ADD16R,1.8034X1.6002*%
%ADD17R,1.5240X1.5240*%
%ADD18R,1.3208X1.5240*%
%ADD19R,1.5240X1.5240*%
%ADD20R,1.6002X1.8034*%
%ADD21C,0.6096*%
%ADD22C,0.4064*%
%ADD23C,0.3048*%
%ADD24C,0.0864*%
%ADD25C,0.0500*%
%ADD26C,1.2192*%
%ADD27O,3.0480X1.5240*%
%ADD28O,1.5240X3.0480*%
%ADD29C,0.7580*%
%ADD30C,0.8596*%
%ADD31R,0.5080X1.5240*%
%ADD32R,1.5240X0.5080*%
G36*
X187154Y128524D02*
X183896D01*
Y118364D01*
Y108204D01*
X187706D01*
Y108504D01*
X188976Y109030D01*
X192564Y105442D01*
X193482Y104829D01*
X194564Y104614D01*
X222878D01*
X227858Y99765D01*
Y90074D01*
X226682Y89454D01*
X215726Y100410D01*
X214641Y101136D01*
X213360Y101390D01*
X180456D01*
X173526Y108321D01*
X174012Y109494D01*
X177546D01*
Y108204D01*
X181356D01*
Y118364D01*
Y128524D01*
X177844D01*
Y133560D01*
X187154D01*
Y128524D01*
D02*
G37*
G36*
X171118Y135800D02*
X171152Y135629D01*
Y128198D01*
X170414Y127234D01*
Y127234D01*
X162834D01*
X162834Y127234D01*
X162834D01*
X162286D01*
Y127234D01*
X161564Y127234D01*
X154706D01*
X154706Y127234D01*
X154706D01*
X154412D01*
Y127234D01*
X153436Y127234D01*
X146832D01*
Y127234D01*
X146284D01*
Y127234D01*
X138704D01*
Y109494D01*
X139148D01*
Y106680D01*
X139402Y105399D01*
X140128Y104314D01*
X142414Y102028D01*
X142704Y101834D01*
X142319Y100564D01*
X133472D01*
Y82824D01*
X138132D01*
Y79248D01*
X138386Y77967D01*
X138829Y77305D01*
X138639Y76848D01*
X138387Y74930D01*
X138639Y73012D01*
X139379Y71225D01*
X140557Y69691D01*
X142091Y68513D01*
X143878Y67773D01*
X145796Y67521D01*
X147714Y67773D01*
X149501Y68513D01*
X151035Y69691D01*
X152213Y71225D01*
X152953Y73012D01*
X153205Y74930D01*
X152953Y76848D01*
X152213Y78635D01*
X151035Y80169D01*
X149501Y81347D01*
X149000Y81554D01*
X149180Y82824D01*
X149180D01*
X149180Y82824D01*
Y98174D01*
X150353Y98660D01*
X156928Y92086D01*
Y82550D01*
X156929Y82545D01*
X156928Y82540D01*
X157056Y81907D01*
X157182Y81269D01*
X157185Y81265D01*
X157186Y81260D01*
X157550Y80720D01*
X157908Y80184D01*
X157912Y80181D01*
X157915Y80176D01*
X184761Y53498D01*
X184277Y52324D01*
X183134D01*
Y43434D01*
X191008D01*
Y45637D01*
X192181Y46125D01*
X193162Y45150D01*
Y34118D01*
X192062Y33651D01*
X191008Y34355D01*
Y40894D01*
X183134D01*
Y32004D01*
X187612D01*
X188239Y30734D01*
X187578Y29873D01*
X186684Y27715D01*
X186380Y25400D01*
Y16256D01*
X178873D01*
Y25400D01*
X178568Y27715D01*
X177674Y29873D01*
X177013Y30734D01*
X177640Y32004D01*
X180594D01*
Y42164D01*
Y52324D01*
X166624D01*
Y42164D01*
X165354D01*
Y40894D01*
X156210D01*
Y32004D01*
X162212D01*
X162838Y30734D01*
X162178Y29873D01*
X161284Y27715D01*
X160979Y25400D01*
Y16256D01*
X153472D01*
Y25400D01*
X153168Y27715D01*
X152274Y29873D01*
X150852Y31726D01*
X150464Y32024D01*
X150895Y33294D01*
X154056D01*
Y51034D01*
X138348D01*
Y35432D01*
X137078Y34969D01*
X136464Y35379D01*
X135382Y35594D01*
X130457D01*
X121251Y44801D01*
X121737Y45974D01*
X125222D01*
Y56134D01*
Y66294D01*
X120543D01*
X119667Y67132D01*
X119553Y67634D01*
X119453Y68138D01*
X119431Y68171D01*
X119423Y68209D01*
X119126Y68628D01*
X118840Y69056D01*
X118808Y69078D01*
X118785Y69109D01*
X114842Y72845D01*
Y81534D01*
X120904D01*
Y91694D01*
Y101854D01*
X114842D01*
Y131648D01*
X115590Y132608D01*
Y132608D01*
X133330D01*
Y140188D01*
X133330D01*
Y140736D01*
X133330D01*
Y148316D01*
X133330D01*
Y148610D01*
X133330D01*
Y156190D01*
X133330D01*
Y156738D01*
X133330D01*
Y164318D01*
X133330D01*
X134295Y165056D01*
X141624D01*
X171118Y135800D01*
D02*
G37*
G36*
X219138Y70261D02*
X218652Y69088D01*
X213106D01*
Y60198D01*
X231394D01*
Y66758D01*
X233564D01*
X241002Y59320D01*
Y51034D01*
X236596D01*
Y33294D01*
X239757D01*
X240188Y32024D01*
X239800Y31726D01*
X238378Y29873D01*
X237484Y27715D01*
X237180Y25400D01*
Y16256D01*
X229673D01*
Y25400D01*
X229368Y27715D01*
X228474Y29873D01*
X227813Y30734D01*
X228440Y32004D01*
X234442D01*
Y40894D01*
X216154D01*
Y33072D01*
X214400Y31726D01*
X213675Y30781D01*
X212408Y30694D01*
X208870Y34186D01*
Y50058D01*
X210952D01*
Y67798D01*
X204650D01*
X200693Y71756D01*
X201213Y73012D01*
X201465Y74930D01*
X201213Y76848D01*
X200473Y78635D01*
X199295Y80169D01*
X198236Y80982D01*
X198668Y82252D01*
X207148D01*
X219138Y70261D01*
D02*
G37*
G36*
X135580Y340360D02*
X135884Y338045D01*
X136778Y335887D01*
X137715Y334666D01*
X123661Y320612D01*
X77978D01*
X77925Y320602D01*
X77871Y320611D01*
X77088Y320435D01*
X76301Y320279D01*
X76256Y320248D01*
X76203Y320237D01*
X75547Y319775D01*
X74879Y319329D01*
X74849Y319284D01*
X74805Y319252D01*
X65207Y309174D01*
X55118D01*
X52803Y308870D01*
X50645Y307976D01*
X48792Y306554D01*
X47370Y304701D01*
X46476Y302544D01*
X46171Y300228D01*
X46476Y297913D01*
X47370Y295755D01*
X48792Y293902D01*
X50645Y292480D01*
X52803Y291586D01*
X55118Y291282D01*
X70358D01*
X72674Y291586D01*
X74831Y292480D01*
X76684Y293902D01*
X78106Y295755D01*
X79000Y297913D01*
X79304Y300228D01*
X79000Y302544D01*
X78106Y304701D01*
X76684Y306554D01*
X76358Y306805D01*
X76259Y308071D01*
X79856Y311848D01*
X105092D01*
Y288905D01*
X99207D01*
Y270403D01*
X119741D01*
Y274784D01*
X122956D01*
Y270174D01*
X140696D01*
Y274784D01*
X146188D01*
X171152Y249820D01*
Y245188D01*
X170213Y244585D01*
X169702Y244644D01*
X169343Y245170D01*
X168990Y245698D01*
X168976Y245708D01*
X168966Y245722D01*
X156266Y258168D01*
X155733Y258516D01*
X155205Y258870D01*
X155188Y258873D01*
X155173Y258882D01*
X154548Y259000D01*
X153924Y259124D01*
X151400D01*
X151208Y259412D01*
X149541Y260526D01*
X147574Y260917D01*
X145608Y260526D01*
X143940Y259412D01*
X143748Y259124D01*
X119741D01*
Y260461D01*
X99207D01*
Y241959D01*
X119741D01*
Y252432D01*
X143748D01*
X143940Y252144D01*
X145608Y251030D01*
X147574Y250639D01*
X149541Y251030D01*
X151208Y252144D01*
X151328Y252324D01*
X152590Y252400D01*
X160574Y244576D01*
X160094Y243400D01*
X154706D01*
Y243400D01*
X154412D01*
Y243400D01*
X146832D01*
Y243400D01*
X146284D01*
Y243400D01*
X138704D01*
Y238572D01*
X137434Y238447D01*
X137082Y240219D01*
X135968Y241886D01*
X134300Y243000D01*
X132334Y243391D01*
X130367Y243000D01*
X128700Y241886D01*
X127586Y240219D01*
X127195Y238252D01*
X127586Y236285D01*
X128700Y234618D01*
X130367Y233504D01*
X132334Y233113D01*
X133284Y233302D01*
X134144Y232442D01*
X135062Y231829D01*
X136144Y231614D01*
X138704D01*
Y225660D01*
X139666D01*
Y222758D01*
X139881Y221676D01*
X140494Y220758D01*
X141122Y220130D01*
X140497Y218959D01*
X140208Y219017D01*
X139225Y218821D01*
X139176Y218867D01*
X138675Y219174D01*
X138187Y219500D01*
X138120Y219513D01*
X138062Y219548D01*
X137482Y219640D01*
X136906Y219754D01*
X134577D01*
X134497Y219791D01*
X134390Y220020D01*
X134209Y221279D01*
X135799Y222341D01*
X136861Y223931D01*
X137234Y225806D01*
X136861Y227681D01*
X135799Y229271D01*
X134209Y230333D01*
X132334Y230706D01*
X130459Y230333D01*
X128869Y229271D01*
X127807Y227681D01*
X127434Y225806D01*
X127807Y223931D01*
X128869Y222341D01*
X129993Y221590D01*
X129608Y220320D01*
X115590D01*
Y213590D01*
X115590Y212740D01*
Y212530D01*
Y212320D01*
X115590Y211470D01*
Y205590D01*
X115590Y204740D01*
Y204530D01*
Y204320D01*
X115590Y203470D01*
Y197590D01*
X115590Y196740D01*
Y196530D01*
Y196320D01*
X115590Y195470D01*
Y189590D01*
X115590Y188740D01*
Y188530D01*
Y188320D01*
X115590Y187470D01*
Y181610D01*
X114300D01*
Y177800D01*
X134620D01*
Y181610D01*
X134228D01*
X133330Y182508D01*
Y187470D01*
X133330Y188320D01*
Y188530D01*
Y188740D01*
X133330Y189590D01*
Y195470D01*
X133330Y196320D01*
Y196530D01*
Y196740D01*
Y196816D01*
X134395Y198086D01*
X142077D01*
X169187Y170729D01*
X169192Y170725D01*
X169196Y170720D01*
X169649Y170417D01*
X170102Y170112D01*
X170108Y170111D01*
X170114Y170107D01*
X170651Y170000D01*
X171183Y169892D01*
X171189Y169893D01*
X171196Y169892D01*
X185820D01*
X186358Y169086D01*
X188025Y167972D01*
X189992Y167581D01*
X191959Y167972D01*
X193626Y169086D01*
X194740Y170753D01*
X195131Y172720D01*
X196304Y173330D01*
X213307Y156327D01*
X213184Y156145D01*
X212793Y154178D01*
X213184Y152212D01*
X214298Y150544D01*
X215965Y149430D01*
X217932Y149039D01*
X219898Y149430D01*
X220375Y149749D01*
X221780Y149160D01*
X221881Y148635D01*
X213498Y140252D01*
X176132D01*
X145359Y170778D01*
X144819Y171135D01*
X144283Y171494D01*
X144276Y171495D01*
X144270Y171499D01*
X143635Y171622D01*
X143002Y171748D01*
X134620D01*
Y175260D01*
X114300D01*
Y171748D01*
X107950D01*
X106669Y171494D01*
X106276Y171230D01*
X95913D01*
X94976Y172168D01*
Y181184D01*
X77236D01*
Y165476D01*
X94976D01*
Y165574D01*
X106276D01*
X106669Y165310D01*
X107950Y165056D01*
X114010D01*
X114948Y163920D01*
X114757Y163356D01*
X102870D01*
X101788Y163141D01*
X100870Y162528D01*
X97439Y159097D01*
X96266Y159583D01*
Y163322D01*
X87376D01*
Y154178D01*
Y145034D01*
X95216D01*
Y85246D01*
X80550Y70580D01*
X79937Y69662D01*
X79873Y69342D01*
X74168D01*
Y59182D01*
Y49022D01*
X79722D01*
Y43335D01*
X70453Y34067D01*
X68916Y34269D01*
Y49022D01*
X71628D01*
Y57912D01*
X63754D01*
Y51034D01*
X53208D01*
Y33294D01*
X59480D01*
X61587Y31188D01*
X60578Y29873D01*
X59684Y27715D01*
X59380Y25400D01*
Y16256D01*
X16002D01*
Y34234D01*
X25146D01*
X27462Y34538D01*
X29619Y35432D01*
X31472Y36854D01*
X31563Y36973D01*
X32766Y36565D01*
Y32004D01*
X40640D01*
Y42164D01*
Y52324D01*
X32766D01*
Y49795D01*
X31563Y49387D01*
X31472Y49506D01*
X29619Y50928D01*
X27462Y51822D01*
X25146Y52126D01*
X16002D01*
Y59633D01*
X25146D01*
X27462Y59938D01*
X29619Y60832D01*
X31472Y62254D01*
X32894Y64107D01*
X33788Y66265D01*
X34093Y68580D01*
X33788Y70896D01*
X32894Y73053D01*
X31472Y74906D01*
X29619Y76328D01*
X27462Y77222D01*
X25146Y77526D01*
X16002D01*
Y85034D01*
X25146D01*
X27462Y85338D01*
X29619Y86232D01*
X31472Y87654D01*
X32894Y89507D01*
X33788Y91664D01*
X34093Y93980D01*
X33788Y96295D01*
X32894Y98453D01*
X31472Y100306D01*
X29619Y101728D01*
X27462Y102622D01*
X25146Y102927D01*
X16002D01*
Y110434D01*
X25146D01*
X27462Y110738D01*
X29619Y111632D01*
X31472Y113054D01*
X32894Y114907D01*
X33788Y117065D01*
X34093Y119380D01*
X33788Y121695D01*
X32894Y123853D01*
X31472Y125706D01*
X29619Y127128D01*
X27462Y128022D01*
X25146Y128327D01*
X16002D01*
Y135834D01*
X25146D01*
X27462Y136138D01*
X29619Y137032D01*
X31472Y138454D01*
X32894Y140307D01*
X33788Y142465D01*
X34093Y144780D01*
X33788Y147095D01*
X32894Y149253D01*
X31472Y151106D01*
X29619Y152528D01*
X27462Y153422D01*
X25146Y153727D01*
X16002D01*
Y161234D01*
X25146D01*
X27462Y161538D01*
X29619Y162432D01*
X31472Y163854D01*
X32894Y165707D01*
X33788Y167864D01*
X34093Y170180D01*
X33788Y172495D01*
X32894Y174653D01*
X31472Y176506D01*
X29619Y177928D01*
X27462Y178822D01*
X25146Y179126D01*
X16002D01*
Y186633D01*
X25146D01*
X27462Y186938D01*
X29619Y187832D01*
X31472Y189254D01*
X32894Y191107D01*
X33788Y193265D01*
X34093Y195580D01*
X33788Y197896D01*
X32894Y200053D01*
X31472Y201906D01*
X29619Y203328D01*
X27462Y204222D01*
X25146Y204527D01*
X16002D01*
Y212034D01*
X25146D01*
X27462Y212338D01*
X29619Y213232D01*
X31472Y214654D01*
X32894Y216507D01*
X33788Y218664D01*
X34093Y220980D01*
X33788Y223295D01*
X32894Y225453D01*
X31472Y227306D01*
X29619Y228728D01*
X27462Y229622D01*
X25146Y229926D01*
X16002D01*
Y237433D01*
X25146D01*
X27462Y237738D01*
X29619Y238632D01*
X31472Y240054D01*
X32894Y241907D01*
X33788Y244065D01*
X34093Y246380D01*
X33788Y248696D01*
X32894Y250853D01*
X31472Y252706D01*
X29619Y254128D01*
X27462Y255022D01*
X25146Y255326D01*
X16002D01*
Y262833D01*
X25146D01*
X27462Y263138D01*
X29619Y264032D01*
X31472Y265454D01*
X32894Y267307D01*
X33788Y269464D01*
X34093Y271780D01*
X33788Y274095D01*
X32894Y276253D01*
X31472Y278106D01*
X29619Y279528D01*
X27462Y280422D01*
X25146Y280727D01*
X16002D01*
Y288234D01*
X25146D01*
X27462Y288538D01*
X29619Y289432D01*
X31472Y290854D01*
X32894Y292707D01*
X33788Y294865D01*
X34093Y297180D01*
X33788Y299496D01*
X32894Y301653D01*
X31472Y303506D01*
X29619Y304928D01*
X27462Y305822D01*
X25146Y306126D01*
X16002D01*
Y313633D01*
X25146D01*
X27462Y313938D01*
X29619Y314832D01*
X31472Y316254D01*
X32894Y318107D01*
X33788Y320265D01*
X34093Y322580D01*
X33788Y324896D01*
X32894Y327053D01*
X31472Y328906D01*
X29619Y330328D01*
X27462Y331222D01*
X25146Y331526D01*
X16002D01*
Y349504D01*
X59380D01*
Y340360D01*
X59684Y338045D01*
X60578Y335887D01*
X62000Y334034D01*
X63853Y332612D01*
X66010Y331718D01*
X68326Y331413D01*
X70641Y331718D01*
X72799Y332612D01*
X74652Y334034D01*
X76074Y335887D01*
X76968Y338045D01*
X77273Y340360D01*
Y349504D01*
X83478D01*
Y349250D01*
X103974D01*
Y349504D01*
X108878D01*
Y349250D01*
X129374D01*
Y349504D01*
X135580D01*
Y340360D01*
D02*
G37*
G36*
X280434Y348549D02*
X280359Y347980D01*
X280664Y345664D01*
X281558Y343507D01*
X282980Y341654D01*
X284833Y340232D01*
X286991Y339338D01*
X289306Y339034D01*
X298450D01*
Y331526D01*
X289306D01*
X286991Y331222D01*
X284833Y330328D01*
X282980Y328906D01*
X281558Y327053D01*
X280664Y324896D01*
X280359Y322580D01*
X280664Y320265D01*
X281558Y318107D01*
X282980Y316254D01*
X284833Y314832D01*
X286991Y313938D01*
X289306Y313633D01*
X298450D01*
Y306126D01*
X289306D01*
X286991Y305822D01*
X284833Y304928D01*
X282980Y303506D01*
X281558Y301653D01*
X280664Y299496D01*
X280359Y297180D01*
X280664Y294865D01*
X281558Y292707D01*
X282980Y290854D01*
X284833Y289432D01*
X286991Y288538D01*
X289306Y288234D01*
X298450D01*
Y280727D01*
X289306D01*
X286991Y280422D01*
X284833Y279528D01*
X282980Y278106D01*
X281558Y276253D01*
X280664Y274095D01*
X280359Y271780D01*
X280664Y269464D01*
X281558Y267307D01*
X282980Y265454D01*
X284833Y264032D01*
X286991Y263138D01*
X289306Y262833D01*
X298450D01*
Y255326D01*
X289306D01*
X286991Y255022D01*
X284833Y254128D01*
X282980Y252706D01*
X281558Y250853D01*
X280664Y248696D01*
X280359Y246380D01*
X280664Y244065D01*
X281558Y241907D01*
X282980Y240054D01*
X284833Y238632D01*
X286991Y237738D01*
X289306Y237433D01*
X298450D01*
Y229926D01*
X289306D01*
X286991Y229622D01*
X284833Y228728D01*
X282980Y227306D01*
X282736Y226989D01*
X281466Y227420D01*
Y230378D01*
X281251Y231460D01*
X280638Y232378D01*
X275714Y237302D01*
X275903Y238252D01*
X275512Y240219D01*
X274398Y241886D01*
X272731Y243000D01*
X270764Y243391D01*
X268797Y243000D01*
X267130Y241886D01*
X266016Y240219D01*
X265625Y238252D01*
X266016Y236285D01*
X267130Y234618D01*
X268797Y233504D01*
X270764Y233113D01*
X271714Y233302D01*
X275810Y229207D01*
Y224018D01*
X274540Y223496D01*
X249914Y248370D01*
X249908Y248374D01*
X249904Y248380D01*
X249454Y248681D01*
X249000Y248988D01*
X248992Y248989D01*
X248986Y248993D01*
X248452Y249099D01*
X247918Y249208D01*
X247911Y249207D01*
X247904Y249208D01*
X217424D01*
X217368Y249197D01*
X217311Y249206D01*
X216829Y249090D01*
X216342Y248993D01*
X216294Y248961D01*
X216238Y248948D01*
X215836Y248655D01*
X215424Y248380D01*
X215392Y248332D01*
X215346Y248298D01*
X212298Y244996D01*
X212038Y244573D01*
X211763Y244160D01*
X211752Y244104D01*
X211722Y244055D01*
X211644Y243565D01*
X211636Y243521D01*
X210416Y243400D01*
X210416Y243400D01*
X210416Y243400D01*
X203686D01*
X202836Y243400D01*
X201976Y244312D01*
X201974Y244313D01*
Y270414D01*
X211803Y280442D01*
X212044Y280508D01*
X213407Y280296D01*
X214217Y279241D01*
X215751Y278063D01*
X217538Y277323D01*
X219456Y277071D01*
X221374Y277323D01*
X223161Y278063D01*
X224695Y279241D01*
X225873Y280775D01*
X226613Y282562D01*
X226865Y284480D01*
X226613Y286398D01*
X225873Y288185D01*
X224695Y289719D01*
X223161Y290897D01*
X222802Y291045D01*
Y307360D01*
X231882D01*
Y325100D01*
X216174D01*
Y311981D01*
X216110Y311658D01*
Y291045D01*
X215751Y290897D01*
X214217Y289719D01*
X213039Y288185D01*
X212891Y287826D01*
X211074D01*
X211057Y287823D01*
X211040Y287826D01*
X210418Y287696D01*
X209793Y287572D01*
X209779Y287562D01*
X209762Y287558D01*
X209236Y287199D01*
X208708Y286846D01*
X208698Y286832D01*
X208684Y286822D01*
X196238Y274122D01*
X195890Y273589D01*
X195536Y273061D01*
X195533Y273044D01*
X195524Y273029D01*
X195406Y272404D01*
X195282Y271780D01*
Y245429D01*
X194319Y244761D01*
X193846Y244968D01*
Y273304D01*
X193592Y274585D01*
X192866Y275670D01*
X181690Y286846D01*
X180605Y287572D01*
X179324Y287826D01*
X177761D01*
X177613Y288185D01*
X176435Y289719D01*
X174901Y290897D01*
X174542Y291045D01*
Y308610D01*
X174478Y308933D01*
Y325100D01*
X158770D01*
Y307360D01*
X167714D01*
X167850Y307224D01*
Y291045D01*
X167491Y290897D01*
X165957Y289719D01*
X164779Y288185D01*
X164039Y286398D01*
X163787Y284480D01*
X164039Y282562D01*
X164779Y280775D01*
X165957Y279241D01*
X167491Y278063D01*
X169278Y277323D01*
X171196Y277071D01*
X173114Y277323D01*
X174901Y278063D01*
X176435Y279241D01*
X177130Y280146D01*
X178642Y280347D01*
X178784Y280287D01*
X187154Y271918D01*
Y244690D01*
X183896D01*
Y234530D01*
Y224370D01*
X187706D01*
Y224762D01*
X188604Y225660D01*
X193566D01*
X194416Y225660D01*
X194626D01*
X194836D01*
X195686Y225660D01*
X201566D01*
X202416Y225660D01*
X203674Y225630D01*
Y222250D01*
X203699Y222123D01*
X203685Y221994D01*
X203806Y221586D01*
X203889Y221168D01*
X203961Y221060D01*
X203998Y220935D01*
X204265Y220604D01*
X204502Y220250D01*
X204610Y220178D01*
X204691Y220077D01*
X206215Y218807D01*
X206589Y218604D01*
X206944Y218367D01*
X207071Y218342D01*
X207185Y218280D01*
X207608Y218235D01*
X208026Y218152D01*
X225552D01*
X226634Y218367D01*
X227552Y218980D01*
X236122Y227550D01*
X252829D01*
X263872Y216507D01*
Y122276D01*
X255270D01*
Y113132D01*
Y103988D01*
X263872D01*
Y102482D01*
X262870Y101834D01*
X245598D01*
Y103988D01*
X252730D01*
Y113132D01*
Y122276D01*
X246888D01*
Y125832D01*
X237998D01*
Y116688D01*
Y107544D01*
X243840D01*
Y105390D01*
X230190D01*
X229186Y106368D01*
X229664Y107544D01*
X235458D01*
Y116688D01*
Y125832D01*
X226568D01*
X226416Y127039D01*
Y127234D01*
X218836D01*
Y127234D01*
X218416D01*
Y127234D01*
X210836D01*
Y127234D01*
X210416D01*
Y127234D01*
X202836D01*
Y127234D01*
X202416D01*
Y127234D01*
X194836D01*
Y127234D01*
X193846Y127911D01*
Y133560D01*
X214884D01*
X216165Y133814D01*
X217250Y134540D01*
X228172Y145462D01*
X228898Y146547D01*
X229152Y147828D01*
Y173184D01*
X230466D01*
Y169672D01*
X250786D01*
Y173482D01*
X250394D01*
X249496Y174380D01*
Y179470D01*
X249496Y180320D01*
Y180530D01*
Y180740D01*
X249496Y181590D01*
Y187470D01*
X249496Y188320D01*
Y188530D01*
Y188740D01*
X249496Y189590D01*
Y195470D01*
X249496Y196320D01*
Y196530D01*
Y196740D01*
X249496Y197590D01*
Y203470D01*
X249496Y204320D01*
Y204530D01*
Y204740D01*
X249496Y205590D01*
Y211470D01*
X249496Y212320D01*
Y212530D01*
Y212740D01*
X249496Y213590D01*
Y220320D01*
X231756D01*
Y213590D01*
X231756Y212740D01*
Y212530D01*
Y212320D01*
X231756Y211470D01*
Y205590D01*
X231756Y204740D01*
Y204530D01*
Y204320D01*
X231756Y203470D01*
Y197590D01*
X231756Y196740D01*
Y196530D01*
Y196320D01*
X231756Y195470D01*
Y189590D01*
X231756Y188740D01*
Y188530D01*
Y188320D01*
X231756Y187470D01*
Y181590D01*
X231756Y180740D01*
X230844Y179876D01*
X221858D01*
X210900Y190834D01*
X209815Y191560D01*
X208534Y191814D01*
X198998D01*
X177844Y212968D01*
Y224370D01*
X181356D01*
Y234530D01*
Y244690D01*
X177844D01*
Y251206D01*
X177590Y252487D01*
X176864Y253572D01*
X149940Y280496D01*
X148855Y281222D01*
X147574Y281476D01*
X140696D01*
Y285882D01*
X122956D01*
Y281476D01*
X119741D01*
Y288905D01*
X113856D01*
Y311848D01*
X125476D01*
X127153Y312181D01*
X128575Y313131D01*
X147388Y331945D01*
X148999Y332612D01*
X150852Y334034D01*
X152274Y335887D01*
X153168Y338045D01*
X153472Y340360D01*
Y343598D01*
X160979D01*
Y340360D01*
X161284Y338045D01*
X162178Y335887D01*
X163600Y334034D01*
X165453Y332612D01*
X167610Y331718D01*
X169926Y331413D01*
X172241Y331718D01*
X174399Y332612D01*
X176252Y334034D01*
X177674Y335887D01*
X178568Y338045D01*
X178873Y340360D01*
Y349504D01*
X185078D01*
Y349250D01*
X205574D01*
Y349504D01*
X211779D01*
Y340360D01*
X212084Y338045D01*
X212978Y335887D01*
X214400Y334034D01*
X216253Y332612D01*
X218410Y331718D01*
X220726Y331413D01*
X223041Y331718D01*
X225199Y332612D01*
X227052Y334034D01*
X228474Y335887D01*
X229368Y338045D01*
X229673Y340360D01*
Y349504D01*
X237180D01*
Y340360D01*
X237484Y338045D01*
X238378Y335887D01*
X239800Y334034D01*
X241653Y332612D01*
X243811Y331718D01*
X246126Y331413D01*
X248442Y331718D01*
X250599Y332612D01*
X252452Y334034D01*
X253874Y335887D01*
X254768Y338045D01*
X255072Y340360D01*
Y349504D01*
X279597D01*
X280434Y348549D01*
D02*
G37*
%LPC*%
G36*
X250786Y167132D02*
X230466D01*
Y163322D01*
X230858D01*
X231756Y162424D01*
Y157460D01*
X231756Y156738D01*
Y156464D01*
Y156190D01*
X231756Y155468D01*
Y149586D01*
X231756Y148610D01*
Y148463D01*
Y148316D01*
X231756Y147340D01*
Y141458D01*
X231756Y140736D01*
Y140462D01*
Y140188D01*
X231756Y139466D01*
Y132608D01*
X249496D01*
Y139466D01*
X249496Y140188D01*
Y140462D01*
Y140736D01*
X249496Y141458D01*
Y147340D01*
X249496Y148316D01*
Y148463D01*
Y148610D01*
X249496Y149586D01*
Y155468D01*
X249496Y156190D01*
Y156464D01*
Y156738D01*
X249496Y157460D01*
Y163322D01*
X250786D01*
Y167132D01*
D02*
G37*
G36*
X63246Y141026D02*
X48006D01*
X45690Y140722D01*
X43533Y139828D01*
X41680Y138406D01*
X40258Y136553D01*
X39364Y134396D01*
X39060Y132080D01*
X39364Y129764D01*
X40258Y127607D01*
X41680Y125754D01*
X43533Y124332D01*
X45690Y123438D01*
X48006Y123133D01*
X63246D01*
X65561Y123438D01*
X67719Y124332D01*
X69572Y125754D01*
X70994Y127607D01*
X71888Y129764D01*
X72193Y132080D01*
X71888Y134396D01*
X70994Y136553D01*
X69572Y138406D01*
X67719Y139828D01*
X65561Y140722D01*
X63246Y141026D01*
D02*
G37*
G36*
X84836Y152908D02*
X75946D01*
Y145034D01*
X84836D01*
Y152908D01*
D02*
G37*
G36*
X63246Y191826D02*
X48006D01*
X45690Y191522D01*
X43533Y190628D01*
X41680Y189206D01*
X40258Y187353D01*
X39364Y185196D01*
X39060Y182880D01*
X39364Y180564D01*
X40258Y178407D01*
X41680Y176554D01*
X43533Y175132D01*
X45690Y174238D01*
X48006Y173934D01*
X63246D01*
X65561Y174238D01*
X67719Y175132D01*
X69572Y176554D01*
X70994Y178407D01*
X71888Y180564D01*
X72193Y182880D01*
X71888Y185196D01*
X70994Y187353D01*
X69572Y189206D01*
X67719Y190628D01*
X65561Y191522D01*
X63246Y191826D01*
D02*
G37*
G36*
X70358Y258375D02*
X55118D01*
X52803Y258070D01*
X50645Y257176D01*
X48792Y255754D01*
X47370Y253901D01*
X46476Y251744D01*
X46171Y249428D01*
X46476Y247113D01*
X47370Y244955D01*
X48792Y243102D01*
X50645Y241680D01*
X52803Y240786D01*
X55118Y240481D01*
X58884D01*
Y230993D01*
X54503D01*
Y210459D01*
X73005D01*
Y230993D01*
X65576D01*
Y240481D01*
X70358D01*
X72674Y240786D01*
X74831Y241680D01*
X76684Y243102D01*
X78106Y244955D01*
X79000Y247113D01*
X79304Y249428D01*
X79000Y251744D01*
X78106Y253901D01*
X76684Y255754D01*
X74831Y257176D01*
X72674Y258070D01*
X70358Y258375D01*
D02*
G37*
G36*
X63246Y166427D02*
X48006D01*
X45690Y166122D01*
X43533Y165228D01*
X41680Y163806D01*
X40258Y161953D01*
X39364Y159796D01*
X39060Y157480D01*
X39364Y155164D01*
X40258Y153007D01*
X41680Y151154D01*
X43533Y149732D01*
X45690Y148838D01*
X48006Y148533D01*
X63246D01*
X65561Y148838D01*
X67719Y149732D01*
X69572Y151154D01*
X70994Y153007D01*
X71888Y155164D01*
X72193Y157480D01*
X71888Y159796D01*
X70994Y161953D01*
X69572Y163806D01*
X67719Y165228D01*
X65561Y166122D01*
X63246Y166427D01*
D02*
G37*
G36*
X84836Y163322D02*
X75946D01*
Y155448D01*
X84836D01*
Y163322D01*
D02*
G37*
G36*
X63246Y115626D02*
X48006D01*
X45690Y115322D01*
X43533Y114428D01*
X41680Y113006D01*
X40258Y111153D01*
X39364Y108996D01*
X39060Y106680D01*
X39364Y104365D01*
X40258Y102207D01*
X41680Y100354D01*
X43533Y98932D01*
X45690Y98038D01*
X48006Y97733D01*
X63246D01*
X65561Y98038D01*
X67719Y98932D01*
X69572Y100354D01*
X70994Y102207D01*
X71888Y104365D01*
X72193Y106680D01*
X71888Y108996D01*
X70994Y111153D01*
X69572Y113006D01*
X67719Y114428D01*
X65561Y115322D01*
X63246Y115626D01*
D02*
G37*
G36*
X164084Y52324D02*
X156210D01*
Y43434D01*
X164084D01*
Y52324D01*
D02*
G37*
G36*
X231394Y57658D02*
X213106D01*
Y48768D01*
X216154D01*
Y43434D01*
X234442D01*
Y52324D01*
X231394D01*
Y57658D01*
D02*
G37*
G36*
X51054Y40894D02*
X43180D01*
Y32004D01*
X51054D01*
Y40894D01*
D02*
G37*
G36*
Y52324D02*
X43180D01*
Y43434D01*
X51054D01*
Y52324D01*
D02*
G37*
G36*
X135636Y54864D02*
X127762D01*
Y45974D01*
X135636D01*
Y54864D01*
D02*
G37*
G36*
X131318Y90424D02*
X123444D01*
Y81534D01*
X131318D01*
Y90424D01*
D02*
G37*
G36*
Y101854D02*
X123444D01*
Y92964D01*
X131318D01*
Y101854D01*
D02*
G37*
G36*
X135636Y66294D02*
X127762D01*
Y57404D01*
X135636D01*
Y66294D01*
D02*
G37*
G36*
X71628Y69342D02*
X63754D01*
Y60452D01*
X71628D01*
Y69342D01*
D02*
G37*
G36*
X108966Y231463D02*
X106801Y231032D01*
X104966Y229806D01*
X104183Y228634D01*
X101449D01*
Y230993D01*
X82947D01*
Y210459D01*
X101449D01*
Y222978D01*
X104183D01*
X104966Y221806D01*
X106801Y220580D01*
X108966Y220149D01*
X111131Y220580D01*
X112966Y221806D01*
X114192Y223641D01*
X114623Y225806D01*
X114192Y227971D01*
X112966Y229806D01*
X111131Y231032D01*
X108966Y231463D01*
D02*
G37*
G36*
X195732Y326390D02*
X195326D01*
X194920D01*
X194462Y326390D01*
X187046D01*
Y316230D01*
Y306070D01*
X194462D01*
X194920Y306070D01*
X195326D01*
X195732D01*
X196190Y306070D01*
X203606D01*
Y316230D01*
Y326390D01*
X196190D01*
X195732Y326390D01*
D02*
G37*
G36*
X92456Y346710D02*
X83478D01*
Y340360D01*
X83827Y337708D01*
X84851Y335236D01*
X86480Y333114D01*
X88602Y331485D01*
X91074Y330462D01*
X92456Y330280D01*
Y346710D01*
D02*
G37*
G36*
X206146Y326390D02*
Y317500D01*
X214020D01*
Y326390D01*
X206146D01*
D02*
G37*
G36*
X214020Y314960D02*
X206146D01*
Y306070D01*
X214020D01*
Y314960D01*
D02*
G37*
G36*
X184506Y326390D02*
X176632D01*
Y317500D01*
X184506D01*
Y326390D01*
D02*
G37*
G36*
X194056Y346710D02*
X185078D01*
Y340360D01*
X185427Y337708D01*
X186451Y335236D01*
X188080Y333114D01*
X190202Y331485D01*
X192674Y330462D01*
X194056Y330280D01*
Y346710D01*
D02*
G37*
G36*
X205574D02*
X196596D01*
Y330280D01*
X197978Y330462D01*
X200450Y331485D01*
X202572Y333114D01*
X204201Y335236D01*
X205224Y337708D01*
X205574Y340360D01*
Y346710D01*
D02*
G37*
G36*
X129374D02*
X120396D01*
Y330280D01*
X121778Y330462D01*
X124250Y331485D01*
X126372Y333114D01*
X128001Y335236D01*
X129024Y337708D01*
X129374Y340360D01*
Y346710D01*
D02*
G37*
G36*
X103974D02*
X94996D01*
Y330280D01*
X96378Y330462D01*
X98850Y331485D01*
X100972Y333114D01*
X102601Y335236D01*
X103624Y337708D01*
X103974Y340360D01*
Y346710D01*
D02*
G37*
G36*
X117856D02*
X108878D01*
Y340360D01*
X109228Y337708D01*
X110251Y335236D01*
X111880Y333114D01*
X114002Y331485D01*
X116474Y330462D01*
X117856Y330280D01*
Y346710D01*
D02*
G37*
G36*
X70358Y285076D02*
X64008D01*
Y276098D01*
X80438D01*
X80257Y277480D01*
X79233Y279952D01*
X77604Y282074D01*
X75482Y283703D01*
X73010Y284727D01*
X70358Y285076D01*
D02*
G37*
G36*
X274402Y341458D02*
X259383D01*
Y281474D01*
X274402D01*
Y341458D01*
D02*
G37*
G36*
X61468Y285076D02*
X55118D01*
X52466Y284727D01*
X49994Y283703D01*
X47872Y282074D01*
X46243Y279952D01*
X45219Y277480D01*
X45037Y276098D01*
X61468D01*
Y285076D01*
D02*
G37*
G36*
Y273558D02*
X45037D01*
X45219Y272176D01*
X46243Y269704D01*
X47872Y267582D01*
X49994Y265953D01*
X52466Y264930D01*
X55118Y264580D01*
X61468D01*
Y273558D01*
D02*
G37*
G36*
X80438D02*
X64008D01*
Y264580D01*
X70358D01*
X73010Y264930D01*
X75482Y265953D01*
X77604Y267582D01*
X79233Y269704D01*
X80257Y272176D01*
X80438Y273558D01*
D02*
G37*
G36*
X141986Y306324D02*
X133096D01*
Y298450D01*
X141986D01*
Y306324D01*
D02*
G37*
G36*
X184506Y314960D02*
X176632D01*
Y306070D01*
X184506D01*
Y314960D01*
D02*
G37*
G36*
X130556Y306324D02*
X121666D01*
Y298450D01*
X130556D01*
Y306324D01*
D02*
G37*
G36*
Y295910D02*
X121666D01*
Y288036D01*
X130556D01*
Y295910D01*
D02*
G37*
G36*
X141986D02*
X133096D01*
Y288036D01*
X141986D01*
Y295910D01*
D02*
G37*
%LPD*%
D14*
X131826Y278028D02*
D03*
Y297180D02*
D03*
X254000Y113132D02*
D03*
Y93980D02*
D03*
X236728Y116688D02*
D03*
Y97536D02*
D03*
X86106Y173330D02*
D03*
Y154178D02*
D03*
D16*
X109474Y279654D02*
D03*
Y251210D02*
D03*
D18*
X185776Y316230D02*
D03*
X166624D02*
D03*
X204876D02*
D03*
X224028D02*
D03*
X141326Y91694D02*
D03*
X122174D02*
D03*
X203098Y58928D02*
D03*
X222250D02*
D03*
X61062Y42164D02*
D03*
X41910D02*
D03*
X92050Y59182D02*
D03*
X72898D02*
D03*
X107340Y56134D02*
D03*
X126492D02*
D03*
X146202Y42164D02*
D03*
X165354D02*
D03*
X201016D02*
D03*
X181864D02*
D03*
X244450D02*
D03*
X225298D02*
D03*
D20*
X63754Y220726D02*
D03*
X92198D02*
D03*
D21*
X144526Y335280D02*
Y347980D01*
X125476Y316230D02*
X144526Y335280D01*
X109474Y316230D02*
X125476D01*
X77978D02*
X109474D01*
X62738Y300228D02*
X77978Y316230D01*
X109474Y279654D02*
Y316230D01*
X144526Y347980D02*
X169926D01*
D22*
X133858Y225806D02*
G03*
X133858Y225806I-1524J0D01*
G01*
X107950Y168402D02*
X124714D01*
X174498Y234442D02*
Y251206D01*
X147574Y278130D02*
X174498Y251206D01*
X131826Y278130D02*
X147574D01*
X110998D02*
X131826D01*
X109474Y279654D02*
X110998Y278130D01*
X174498Y118618D02*
Y136906D01*
Y137160D01*
X143002Y168402D02*
X174498Y137160D01*
X124714Y168402D02*
X143002D01*
X174498Y211582D02*
Y234442D01*
Y211582D02*
X197612Y188468D01*
X224028Y176530D02*
X240538D01*
X220472D02*
X224028D01*
X208534Y188468D02*
X220472Y176530D01*
X197612Y188468D02*
X208534D01*
X190500Y136144D02*
X191516Y136906D01*
X190500Y118618D02*
Y136144D01*
X174244Y136906D02*
X191516D01*
X174244D02*
X174498Y137160D01*
X191516Y136906D02*
X214884D01*
X225806Y147828D01*
Y176022D01*
X182626Y106934D02*
Y118618D01*
Y106934D02*
X185166Y104394D01*
X221996Y44196D02*
Y58928D01*
Y44196D02*
X225806Y40640D01*
X225552Y42164D02*
X225806Y40640D01*
X219456Y284480D02*
Y311658D01*
X223774Y316230D01*
X198628Y234442D02*
Y271780D01*
X211074Y284480D01*
X219456D01*
X171196D02*
Y308610D01*
X163576Y316230D02*
X171196Y308610D01*
X163576Y316230D02*
X166624D01*
X169926D01*
X190500Y234442D02*
Y273304D01*
X179324Y284480D02*
X190500Y273304D01*
X171196Y284480D02*
X179324D01*
X166624Y234442D02*
Y243332D01*
X153924Y255778D02*
X166624Y243332D01*
X147574Y255778D02*
X153924D01*
X112776D02*
X147574D01*
X109474Y252730D02*
X112776Y255778D01*
X109474Y251206D02*
Y252730D01*
Y249428D02*
Y251206D01*
X62230Y220726D02*
X63754D01*
X62230D02*
Y248920D01*
X141478Y79248D02*
Y91694D01*
Y79248D02*
X145796Y74930D01*
X202946Y58928D02*
X204470Y63246D01*
X193040Y74676D02*
X204470Y63246D01*
X124714Y216408D02*
X136906D01*
X140208Y213360D01*
X142494Y106680D02*
Y118618D01*
Y106680D02*
X144780Y104394D01*
X149352D01*
X160274Y93472D01*
Y82550D02*
Y93472D01*
Y82550D02*
X200914Y42164D01*
X202438D01*
X200914Y37338D02*
Y42164D01*
Y37338D02*
X220726Y17780D01*
X244602Y19304D02*
Y42164D01*
Y19304D02*
X246126Y17780D01*
X150622Y110998D02*
Y118618D01*
Y110998D02*
X176022Y85598D01*
X208534D01*
X224028Y70104D01*
X234950D01*
X244348Y60706D01*
Y42418D02*
Y60706D01*
Y42418D02*
X244602Y42164D01*
X158496Y110744D02*
Y118618D01*
Y110744D02*
X177546Y91948D01*
X211582D01*
X225806Y77978D01*
X239776D01*
X275590Y42164D01*
Y24892D02*
Y42164D01*
Y24892D02*
X283210Y17272D01*
X296418D01*
X296926Y17780D01*
X166624Y110490D02*
Y118618D01*
Y110490D02*
X179070Y98044D01*
X213360D01*
X225806Y85598D01*
X241300D01*
X280162Y46736D01*
X293116D02*
X296926Y43180D01*
X280162Y46736D02*
X293116D01*
D23*
X248412Y97790D02*
X254000Y94234D01*
X190500Y111506D02*
Y118618D01*
Y111506D02*
X194564Y107442D01*
X94742Y168402D02*
X107950D01*
X90424Y172720D02*
X94742Y168402D01*
X90424Y172720D02*
X91948D01*
X90424D02*
Y172974D01*
X86106Y173228D02*
X90424Y172974D01*
X224790Y176022D02*
X225806D01*
X224028Y176530D02*
X224790Y176022D01*
X194564Y107442D02*
X224028D01*
X233680Y98044D01*
X236728Y97790D01*
X248412D01*
X236728Y116586D02*
X241046D01*
X245872Y116840D01*
X252984D01*
X254000Y113284D01*
X163830Y316230D02*
X166624D01*
X163576Y315976D02*
X163830Y316230D01*
X276352Y68580D02*
X296926D01*
X266700Y77978D02*
X276352Y68580D01*
X266700Y77978D02*
Y217678D01*
X254000Y230378D02*
X266700Y217678D01*
X234950Y230378D02*
X254000D01*
X225552Y220980D02*
X234950Y230378D01*
X208026Y220980D02*
X225552D01*
X206502Y222250D02*
X208026Y220980D01*
X206502Y222250D02*
Y234442D01*
X282702Y93980D02*
X296926D01*
X273050Y103378D02*
X282702Y93980D01*
X273050Y103378D02*
Y220980D01*
X247904Y246380D02*
X273050Y220980D01*
X217424Y246380D02*
X247904D01*
X214376Y243078D02*
X217424Y246380D01*
X214376Y234696D02*
Y243078D01*
Y234696D02*
X214630Y234442D01*
X62230Y248920D02*
Y249174D01*
X62738Y249428D01*
X193040Y74676D02*
X193802D01*
X194056Y74930D01*
X158496Y225806D02*
Y234442D01*
Y225806D02*
X163576Y220980D01*
X142494Y222758D02*
Y234442D01*
Y222758D02*
X149098Y216154D01*
Y213614D02*
X169672Y193040D01*
X149098Y213614D02*
Y216154D01*
X136144Y234442D02*
X142494D01*
X132334Y238252D02*
X136144Y234442D01*
X171196Y172720D02*
X189992D01*
X143256Y200914D02*
X171196Y172720D01*
X124460Y200914D02*
X143256D01*
X124714Y200406D02*
Y200914D01*
X124460D02*
X124714D01*
X98044Y225806D02*
X108966D01*
X92202Y219710D02*
X98044Y225806D01*
X91948Y219456D02*
Y220980D01*
X92202Y219710D02*
Y220726D01*
X91948Y219456D02*
X92202Y219710D01*
X150622Y224282D02*
Y234442D01*
Y224282D02*
X153924Y220980D01*
Y219710D02*
Y220980D01*
Y219710D02*
X180594Y193040D01*
X217932Y154178D02*
Y155702D01*
X180594Y193040D02*
X217932Y155702D01*
X102870Y160528D02*
X124714D01*
X98044Y155702D02*
X102870Y160528D01*
X98044Y84074D02*
Y155702D01*
X68580Y18034D02*
Y28194D01*
X68326Y17780D02*
X68580Y18034D01*
Y28194D02*
X82550Y42164D01*
Y68580D01*
X98044Y84074D01*
X60960Y35814D02*
Y42164D01*
Y35814D02*
X68580Y28194D01*
X107442Y152400D02*
X124714D01*
X102870Y147828D02*
X107442Y152400D01*
X102870Y77978D02*
Y147828D01*
X93472Y17526D02*
Y54610D01*
Y17272D02*
Y17526D01*
X93726Y17780D01*
X91948Y56134D02*
X93472Y54610D01*
X92202Y59182D02*
X93472Y56134D01*
X91948D02*
X92202Y59182D01*
X91948Y67056D02*
X102870Y77978D01*
X91948Y56134D02*
Y67056D01*
X111760Y144526D02*
X124714D01*
X107442Y140208D02*
X111760Y144526D01*
X107442Y59182D02*
Y140208D01*
X118364Y18542D02*
Y31242D01*
Y18542D02*
X119126Y17780D01*
X107188Y56134D02*
X107442Y59182D01*
Y42164D02*
X118364Y31242D01*
X107442Y42164D02*
Y56134D01*
Y57658D01*
X107188Y56134D02*
X107442D01*
X144780Y18034D02*
Y23368D01*
X144526Y17780D02*
X144780Y18034D01*
X124714Y136398D02*
Y136906D01*
X124460D02*
X124714D01*
X115316D02*
X124460D01*
X112014Y133858D02*
X115316Y136906D01*
X112014Y71628D02*
Y133858D01*
X116840Y45212D02*
Y67056D01*
X112014Y71628D02*
X116840Y67056D01*
X144526Y40386D02*
X146304Y42164D01*
X144526Y40386D02*
X144780Y23368D01*
X116840Y45212D02*
X129286Y32766D01*
X135382D01*
X144780Y23368D01*
X282194Y119380D02*
X296926D01*
X278638Y121412D02*
X282194Y119380D01*
X278638Y121412D02*
Y230378D01*
X222504Y234442D02*
X228346D01*
X231902Y238252D01*
X242824D01*
X270764D02*
X278638Y230378D01*
D24*
X261497Y285386D02*
X270489D01*
X266892D01*
Y283588D01*
Y287185D01*
Y285386D01*
X270489D01*
X272288Y287185D01*
X268691Y294379D02*
Y297976D01*
X266892Y299775D01*
X261497D01*
Y294379D01*
X263295Y292581D01*
X265094Y294379D01*
Y299775D01*
X261497Y303372D02*
Y308768D01*
X263295Y310567D01*
X265094Y308768D01*
Y305171D01*
X266892Y303372D01*
X268691Y305171D01*
Y310567D01*
Y321358D02*
Y315962D01*
X266892Y314164D01*
X263295D01*
X261497Y315962D01*
Y321358D01*
X272288Y324955D02*
X261497D01*
X266892D01*
X268691Y326754D01*
Y330351D01*
X266892Y332150D01*
X261497D01*
Y337545D02*
X270489D01*
X266892D01*
Y335747D01*
Y339344D01*
Y337545D01*
X270489D01*
X272288Y339344D01*
D25*
X0Y365506D02*
X314960D01*
X0Y0D02*
X314960D01*
X0D02*
X314960D01*
Y365506D01*
X0D02*
X314960D01*
X0Y0D02*
Y365506D01*
D26*
X219456Y284480D02*
D03*
X171196D02*
D03*
X145796Y74930D02*
D03*
X194056D02*
D03*
D27*
X62738Y300228D02*
D03*
Y274828D02*
D03*
Y249428D02*
D03*
X55626Y106680D02*
D03*
Y132080D02*
D03*
Y157480D02*
D03*
Y182880D02*
D03*
X17526Y43180D02*
D03*
Y68580D02*
D03*
Y93980D02*
D03*
Y119380D02*
D03*
Y144780D02*
D03*
Y170180D02*
D03*
Y195580D02*
D03*
Y220980D02*
D03*
Y246380D02*
D03*
Y271780D02*
D03*
Y297180D02*
D03*
Y322580D02*
D03*
X296926Y17780D02*
D03*
Y43180D02*
D03*
Y68580D02*
D03*
Y93980D02*
D03*
Y119380D02*
D03*
Y144780D02*
D03*
Y170180D02*
D03*
Y195580D02*
D03*
Y220980D02*
D03*
Y246380D02*
D03*
Y271780D02*
D03*
Y297180D02*
D03*
Y322580D02*
D03*
Y347980D02*
D03*
D28*
X68326Y17780D02*
D03*
X93726D02*
D03*
X119126D02*
D03*
X144526D02*
D03*
X169926D02*
D03*
X195326D02*
D03*
X220726D02*
D03*
X246126D02*
D03*
X68326Y347980D02*
D03*
X93726D02*
D03*
X119126D02*
D03*
X144526D02*
D03*
X169926D02*
D03*
X195326D02*
D03*
X220726D02*
D03*
X246126D02*
D03*
D29*
X53086Y60706D02*
D03*
X255270Y217932D02*
D03*
X126238Y113792D02*
D03*
X253746Y126238D02*
D03*
X130810Y74676D02*
D03*
X222504Y99568D02*
D03*
X154178Y56134D02*
D03*
X234950Y57658D02*
D03*
X147574Y255778D02*
D03*
X163576Y220980D02*
D03*
X169672Y193040D02*
D03*
X132334Y238252D02*
D03*
X189992Y172720D02*
D03*
X180594Y193040D02*
D03*
X217932Y154178D02*
D03*
X242824Y238252D02*
D03*
X270764D02*
D03*
D30*
X140208Y213360D02*
D03*
X108966Y225806D02*
D03*
D31*
X142494Y234530D02*
D03*
X150622D02*
D03*
X158496D02*
D03*
X166624D02*
D03*
X174498D02*
D03*
X182626D02*
D03*
X190626D02*
D03*
X198626D02*
D03*
X206626D02*
D03*
X214626D02*
D03*
X222626D02*
D03*
Y118364D02*
D03*
X214626D02*
D03*
X206626D02*
D03*
X198626D02*
D03*
X190626D02*
D03*
X182626D02*
D03*
X174498D02*
D03*
X166624D02*
D03*
X158496D02*
D03*
X150622D02*
D03*
X142494D02*
D03*
D32*
X240626Y216530D02*
D03*
Y208530D02*
D03*
Y200530D02*
D03*
Y192530D02*
D03*
Y184530D02*
D03*
Y176530D02*
D03*
Y168402D02*
D03*
Y160528D02*
D03*
Y152400D02*
D03*
Y144526D02*
D03*
Y136398D02*
D03*
X124460D02*
D03*
Y144526D02*
D03*
Y152400D02*
D03*
Y160528D02*
D03*
Y168402D02*
D03*
Y176530D02*
D03*
Y184530D02*
D03*
Y192530D02*
D03*
Y200530D02*
D03*
Y208530D02*
D03*
Y216530D02*
D03*
M02*
