G04 Layer_Color=8388736*
%FSLAX44Y44*%
%MOMM*%
G71*
G01*
G75*
%ADD12C,0.3000*%
%ADD33C,2.2032*%
%ADD34C,3.7032*%
%ADD35C,1.9032*%
%ADD36C,2.0032*%
%ADD37R,2.0032X2.0032*%
%ADD38R,2.6032X2.6032*%
%ADD39C,2.6032*%
%ADD40R,2.0032X2.0032*%
%ADD41R,1.7032X1.7032*%
%ADD42C,1.7032*%
%ADD43C,1.4732*%
D12*
X0Y950000D02*
X950000D01*
Y0D02*
Y950000D01*
X0Y0D02*
X950000D01*
X0D02*
Y950000D01*
D33*
X911860Y674370D02*
D03*
Y712470D02*
D03*
Y750570D02*
D03*
X735000Y181900D02*
D03*
Y220000D02*
D03*
Y258100D02*
D03*
Y661900D02*
D03*
Y700000D02*
D03*
Y738100D02*
D03*
X257810Y258100D02*
D03*
Y220000D02*
D03*
Y181900D02*
D03*
Y738100D02*
D03*
Y700000D02*
D03*
Y661900D02*
D03*
D34*
X670000Y347000D02*
D03*
Y93000D02*
D03*
Y827000D02*
D03*
Y573000D02*
D03*
X320000Y827000D02*
D03*
Y573000D02*
D03*
Y347000D02*
D03*
Y93000D02*
D03*
D35*
X523240Y320510D02*
D03*
Y220510D02*
D03*
X907250Y219710D02*
D03*
X807250D02*
D03*
X129540Y320510D02*
D03*
Y220510D02*
D03*
X170180Y251930D02*
D03*
Y151930D02*
D03*
X520700Y726370D02*
D03*
Y876370D02*
D03*
X477520Y725100D02*
D03*
Y875100D02*
D03*
X138430Y28740D02*
D03*
Y128740D02*
D03*
X467360Y320510D02*
D03*
Y220510D02*
D03*
X30010Y187960D02*
D03*
X130010D02*
D03*
X824230Y917410D02*
D03*
Y817410D02*
D03*
X47790Y920750D02*
D03*
X147790D02*
D03*
Y855980D02*
D03*
X47790D02*
D03*
D36*
X167640Y443230D02*
D03*
X866140Y496570D02*
D03*
X901700Y598170D02*
D03*
D37*
X167640Y417830D02*
D03*
X866140Y471170D02*
D03*
D38*
X60960Y74930D02*
D03*
X899160Y918210D02*
D03*
D39*
X60960Y125730D02*
D03*
X899160Y867410D02*
D03*
D40*
X927100Y598170D02*
D03*
D41*
X33020Y443230D02*
D03*
D42*
Y417830D02*
D03*
Y392430D02*
D03*
Y367030D02*
D03*
Y341630D02*
D03*
Y316230D02*
D03*
D43*
X279400Y392430D02*
D03*
X365760Y387350D02*
D03*
M02*
