G04 Layer_Color=32768*
%FSLAX44Y44*%
%MOMM*%
G71*
G01*
G75*
%ADD12C,0.3000*%
%ADD27C,0.1524*%
%ADD31C,0.2540*%
D12*
X0Y950000D02*
X950000D01*
Y0D02*
Y950000D01*
X0Y0D02*
X950000D01*
X0D02*
Y950000D01*
D27*
X992122Y435387D02*
X994661Y437927D01*
Y443005D01*
X992122Y445544D01*
X981965D01*
X979426Y443005D01*
Y437927D01*
X981965Y435387D01*
X984504D01*
X987043Y437927D01*
Y445544D01*
X979426Y460779D02*
Y450623D01*
X987043D01*
X984504Y455701D01*
Y458240D01*
X987043Y460779D01*
X992122D01*
X994661Y458240D01*
Y453162D01*
X992122Y450623D01*
X997200Y468397D02*
X994661Y470936D01*
X992122D01*
Y468397D01*
X994661D01*
Y470936D01*
X997200Y468397D01*
X999739Y465858D01*
X981965Y481093D02*
X979426Y483632D01*
Y488710D01*
X981965Y491249D01*
X992122D01*
X994661Y488710D01*
Y483632D01*
X992122Y481093D01*
X981965D01*
Y496328D02*
X979426Y498867D01*
Y503945D01*
X981965Y506484D01*
X992122D01*
X994661Y503945D01*
Y498867D01*
X992122Y496328D01*
X981965D01*
X435387Y1001778D02*
X437927Y999239D01*
X443005D01*
X445544Y1001778D01*
Y1011935D01*
X443005Y1014474D01*
X437927D01*
X435387Y1011935D01*
Y1009396D01*
X437927Y1006857D01*
X445544D01*
X460779Y1014474D02*
X450623D01*
Y1006857D01*
X455701Y1009396D01*
X458240D01*
X460779Y1006857D01*
Y1001778D01*
X458240Y999239D01*
X453162D01*
X450623Y1001778D01*
X468397Y996700D02*
X470936Y999239D01*
Y1001778D01*
X468397D01*
Y999239D01*
X470936D01*
X468397Y996700D01*
X465858Y994161D01*
X481093Y1011935D02*
X483632Y1014474D01*
X488710D01*
X491249Y1011935D01*
Y1001778D01*
X488710Y999239D01*
X483632D01*
X481093Y1001778D01*
Y1011935D01*
X496328D02*
X498867Y1014474D01*
X503945D01*
X506484Y1011935D01*
Y1001778D01*
X503945Y999239D01*
X498867D01*
X496328Y1001778D01*
Y1011935D01*
D31*
X954040Y950000D02*
X985520D01*
X954040Y0D02*
X985520D01*
X982980Y510549D02*
Y950000D01*
Y0D02*
Y431324D01*
X977900Y934760D02*
X982980Y950000D01*
X988060Y934760D01*
X982980Y0D02*
X988060Y15240D01*
X977900D02*
X982980Y0D01*
X0Y954040D02*
Y1013460D01*
X950000Y954040D02*
Y1013460D01*
X0Y1010920D02*
X431324D01*
X510549D02*
X950000D01*
X0D02*
X15240Y1005840D01*
X0Y1010920D02*
X15240Y1016000D01*
X934760D02*
X950000Y1010920D01*
X934760Y1005840D02*
X950000Y1010920D01*
M02*
