G04 Layer_Color=2752767*
%FSLAX44Y44*%
%MOMM*%
G71*
G01*
G75*
%ADD12C,0.3000*%
%ADD44C,0.0508*%
%ADD45C,0.0677*%
D12*
X0Y950000D02*
X950000D01*
Y0D02*
Y950000D01*
X0Y0D02*
X950000D01*
X0D02*
Y950000D01*
D44*
X909828Y672338D02*
Y676402D01*
X913892D01*
Y672338D01*
X909828D01*
Y710438D02*
Y714502D01*
X913892D01*
Y710438D01*
X909828D01*
Y748538D02*
Y752602D01*
X913892D01*
Y748538D01*
X909828D01*
X732968Y179868D02*
Y183932D01*
X737032D01*
Y179868D01*
X732968D01*
Y217968D02*
Y222032D01*
X737032D01*
Y217968D01*
X732968D01*
Y256068D02*
Y260132D01*
X737032D01*
Y256068D01*
X732968D01*
Y659868D02*
Y663932D01*
X737032D01*
Y659868D01*
X732968D01*
Y697968D02*
Y702032D01*
X737032D01*
Y697968D01*
X732968D01*
Y736068D02*
Y740132D01*
X737032D01*
Y736068D01*
X732968D01*
X255778Y256068D02*
Y260132D01*
X259842D01*
Y256068D01*
X255778D01*
Y217968D02*
Y222032D01*
X259842D01*
Y217968D01*
X255778D01*
Y179868D02*
Y183932D01*
X259842D01*
Y179868D01*
X255778D01*
Y736068D02*
Y740132D01*
X259842D01*
Y736068D01*
X255778D01*
Y697968D02*
Y702032D01*
X259842D01*
Y697968D01*
X255778D01*
Y659868D02*
Y663932D01*
X259842D01*
Y659868D01*
X255778D01*
X523240Y318478D02*
X521208Y322542D01*
X525272D01*
X523240Y318478D01*
Y218478D02*
X521208Y222542D01*
X525272D01*
X523240Y218478D01*
X907250Y217678D02*
X905218Y221742D01*
X909282D01*
X907250Y217678D01*
X807250D02*
X805218Y221742D01*
X809282D01*
X807250Y217678D01*
X129540Y318478D02*
X127508Y322542D01*
X131572D01*
X129540Y318478D01*
Y218478D02*
X127508Y222542D01*
X131572D01*
X129540Y218478D01*
X170180Y249898D02*
X168148Y253962D01*
X172212D01*
X170180Y249898D01*
Y149898D02*
X168148Y153962D01*
X172212D01*
X170180Y149898D01*
X520700Y724338D02*
X518668Y728402D01*
X522732D01*
X520700Y724338D01*
Y874338D02*
X518668Y878402D01*
X522732D01*
X520700Y874338D01*
X477520Y723068D02*
X475488Y727132D01*
X479552D01*
X477520Y723068D01*
Y873068D02*
X475488Y877132D01*
X479552D01*
X477520Y873068D01*
X165608Y441198D02*
Y445262D01*
X169672D01*
Y441198D01*
X165608D01*
Y415798D02*
Y419862D01*
X169672D01*
Y415798D01*
X165608D01*
X864108Y494538D02*
Y498602D01*
X868172D01*
Y494538D01*
X864108D01*
Y469138D02*
Y473202D01*
X868172D01*
Y469138D01*
X864108D01*
X60960Y72898D02*
X61976Y73914D01*
X62992D01*
X61976Y74930D01*
X62992Y75946D01*
X61976D01*
X60960Y76962D01*
X59944Y75946D01*
X58928D01*
X59944Y74930D01*
X58928Y73914D01*
X59944D01*
X60960Y72898D01*
Y123698D02*
X61976Y124714D01*
X62992D01*
X61976Y125730D01*
X62992Y126746D01*
X61976D01*
X60960Y127762D01*
X59944Y126746D01*
X58928D01*
X59944Y125730D01*
X58928Y124714D01*
X59944D01*
X60960Y123698D01*
X138430Y26708D02*
X136398Y30772D01*
X140462D01*
X138430Y26708D01*
Y126708D02*
X136398Y130772D01*
X140462D01*
X138430Y126708D01*
X467360Y318478D02*
X465328Y322542D01*
X469392D01*
X467360Y318478D01*
Y218478D02*
X465328Y222542D01*
X469392D01*
X467360Y218478D01*
X30010Y185928D02*
X27978Y189992D01*
X32042D01*
X30010Y185928D01*
X130010D02*
X127978Y189992D01*
X132042D01*
X130010Y185928D01*
X824230Y915378D02*
X822198Y919442D01*
X826262D01*
X824230Y915378D01*
Y815378D02*
X822198Y819442D01*
X826262D01*
X824230Y815378D01*
X899160Y916178D02*
X900176Y917194D01*
X901192D01*
X900176Y918210D01*
X901192Y919226D01*
X900176D01*
X899160Y920242D01*
X898144Y919226D01*
X897128D01*
X898144Y918210D01*
X897128Y917194D01*
X898144D01*
X899160Y916178D01*
Y865378D02*
X900176Y866394D01*
X901192D01*
X900176Y867410D01*
X901192Y868426D01*
X900176D01*
X899160Y869442D01*
X898144Y868426D01*
X897128D01*
X898144Y867410D01*
X897128Y866394D01*
X898144D01*
X899160Y865378D01*
X925068Y596138D02*
Y600202D01*
X929132D01*
Y596138D01*
X925068D01*
X899668D02*
Y600202D01*
X903732D01*
Y596138D01*
X899668D01*
X33020Y441198D02*
X30988Y445262D01*
X35052D01*
X33020Y441198D01*
Y415798D02*
X30988Y419862D01*
X35052D01*
X33020Y415798D01*
Y390398D02*
X30988Y394462D01*
X35052D01*
X33020Y390398D01*
Y364998D02*
X30988Y369062D01*
X35052D01*
X33020Y364998D01*
Y339598D02*
X30988Y343662D01*
X35052D01*
X33020Y339598D01*
Y314198D02*
X30988Y318262D01*
X35052D01*
X33020Y314198D01*
X47790Y918718D02*
X45758Y922782D01*
X49822D01*
X47790Y918718D01*
X147790D02*
X145758Y922782D01*
X149822D01*
X147790Y918718D01*
Y853948D02*
X145758Y858012D01*
X149822D01*
X147790Y853948D01*
X47790D02*
X45758Y858012D01*
X49822D01*
X47790Y853948D01*
X277368Y390398D02*
X278384Y392430D01*
X277368Y394462D01*
X279400Y393446D01*
X281432Y394462D01*
X280416Y392430D01*
X281432Y390398D01*
X279400Y391414D01*
X277368Y390398D01*
X363728Y385318D02*
X364744Y387350D01*
X363728Y389382D01*
X365760Y388366D01*
X367792Y389382D01*
X366776Y387350D01*
X367792Y385318D01*
X365760Y386334D01*
X363728Y385318D01*
D45*
X672032Y347000D02*
G03*
X672032Y347000I-2032J0D01*
G01*
Y93000D02*
G03*
X672032Y93000I-2032J0D01*
G01*
Y827000D02*
G03*
X672032Y827000I-2032J0D01*
G01*
Y573000D02*
G03*
X672032Y573000I-2032J0D01*
G01*
X322032Y827000D02*
G03*
X322032Y827000I-2032J0D01*
G01*
Y573000D02*
G03*
X322032Y573000I-2032J0D01*
G01*
Y347000D02*
G03*
X322032Y347000I-2032J0D01*
G01*
Y93000D02*
G03*
X322032Y93000I-2032J0D01*
G01*
M02*
