G04 Layer_Physical_Order=1*
G04 Layer_Color=6759642*
%FSLAX44Y44*%
%MOMM*%
G71*
G01*
G75*
%ADD10C,1.4000*%
%ADD11C,1.0000*%
%ADD12C,0.3000*%
%ADD13C,2.0000*%
%ADD14C,3.5000*%
%ADD15C,1.7000*%
%ADD16C,1.8000*%
%ADD17R,1.8000X1.8000*%
%ADD18R,2.4000X2.4000*%
%ADD19C,2.4000*%
%ADD20R,1.8000X1.8000*%
%ADD21R,1.5000X1.5000*%
%ADD22C,1.5000*%
%ADD23C,1.2700*%
G36*
X946150Y6350D02*
X7620D01*
X6350Y7620D01*
Y946150D01*
X946150D01*
Y6350D01*
D02*
G37*
%LPC*%
G36*
X31750Y314960D02*
X23061D01*
X23238Y313609D01*
X24250Y311167D01*
X25859Y309069D01*
X27957Y307460D01*
X30399Y306448D01*
X31750Y306271D01*
Y314960D01*
D02*
G37*
G36*
X171450Y262898D02*
Y253200D01*
X181148D01*
X180936Y254812D01*
X179823Y257498D01*
X178054Y259804D01*
X175748Y261573D01*
X173062Y262686D01*
X171450Y262898D01*
D02*
G37*
G36*
X42979Y314960D02*
X34290D01*
Y306271D01*
X35641Y306448D01*
X38083Y307460D01*
X40181Y309069D01*
X41790Y311167D01*
X42802Y313609D01*
X42979Y314960D01*
D02*
G37*
G36*
X466090Y319240D02*
X456392D01*
X456604Y317628D01*
X457717Y314942D01*
X459486Y312636D01*
X461792Y310867D01*
X464478Y309754D01*
X466090Y309542D01*
Y319240D01*
D02*
G37*
G36*
X128270D02*
X118572D01*
X118784Y317628D01*
X119897Y314942D01*
X121666Y312636D01*
X123972Y310867D01*
X126658Y309754D01*
X128270Y309542D01*
Y319240D01*
D02*
G37*
G36*
X168910Y262898D02*
X167298Y262686D01*
X164612Y261573D01*
X162306Y259804D01*
X160537Y257498D01*
X159424Y254812D01*
X159212Y253200D01*
X168910D01*
Y262898D01*
D02*
G37*
G36*
Y250660D02*
X159212D01*
X159424Y249048D01*
X160537Y246362D01*
X162306Y244056D01*
X164612Y242287D01*
X167298Y241174D01*
X168910Y240962D01*
Y250660D01*
D02*
G37*
G36*
X257810Y232648D02*
X254536Y232217D01*
X251486Y230954D01*
X249751Y229622D01*
X135800D01*
X135108Y230153D01*
X132422Y231266D01*
X129540Y231645D01*
X126658Y231266D01*
X123972Y230153D01*
X121666Y228384D01*
X119897Y226078D01*
X118784Y223392D01*
X118405Y220510D01*
X118784Y217628D01*
X119897Y214942D01*
X119918Y214915D01*
Y192444D01*
X119254Y190842D01*
X118875Y187960D01*
X119254Y185078D01*
X120367Y182392D01*
X122136Y180086D01*
X124442Y178317D01*
X127128Y177204D01*
X130010Y176825D01*
X131483Y177019D01*
X156572Y151930D01*
X143310Y138668D01*
X141312Y139496D01*
X138430Y139875D01*
X135548Y139496D01*
X132862Y138383D01*
X130556Y136614D01*
X128787Y134308D01*
X127674Y131622D01*
X127670Y131588D01*
X80770Y84688D01*
X80663Y84695D01*
X79087Y84906D01*
X77796Y85184D01*
X76806Y85508D01*
X76127Y85840D01*
X75746Y86123D01*
X75591Y86310D01*
X75535Y86435D01*
X75500Y86705D01*
Y89470D01*
X46420D01*
Y60390D01*
X75500D01*
Y63155D01*
X75535Y63425D01*
X75591Y63550D01*
X75746Y63737D01*
X76127Y64020D01*
X76806Y64352D01*
X77796Y64676D01*
X79045Y64946D01*
X82550Y65296D01*
X83101Y65308D01*
X84620D01*
X87110Y65636D01*
X87790Y65917D01*
X89431Y66597D01*
X91424Y68126D01*
X141278Y117980D01*
X141312Y117984D01*
X143998Y119097D01*
X144025Y119118D01*
X146990D01*
X149480Y119446D01*
X150160Y119727D01*
X151801Y120407D01*
X153794Y121936D01*
X173028Y141170D01*
X173062Y141174D01*
X175748Y142287D01*
X178054Y144056D01*
X179823Y146362D01*
X180936Y149048D01*
X181315Y151930D01*
X180936Y154812D01*
X179823Y157498D01*
X178054Y159804D01*
X175748Y161573D01*
X173062Y162686D01*
X173028Y162690D01*
X140954Y194764D01*
X139162Y196139D01*
Y210378D01*
X249751D01*
X251486Y209046D01*
X254536Y207783D01*
X257810Y207352D01*
X261084Y207783D01*
X264134Y209046D01*
X266754Y211056D01*
X268764Y213676D01*
X270027Y216726D01*
X270458Y220000D01*
X270027Y223274D01*
X268764Y226324D01*
X266754Y228944D01*
X264134Y230954D01*
X261084Y232217D01*
X257810Y232648D01*
D02*
G37*
G36*
X181148Y250660D02*
X171450D01*
Y240962D01*
X173062Y241174D01*
X175748Y242287D01*
X178054Y244056D01*
X179823Y246362D01*
X180936Y249048D01*
X181148Y250660D01*
D02*
G37*
G36*
X735000Y270748D02*
X731726Y270317D01*
X728676Y269054D01*
X726056Y267044D01*
X724046Y264424D01*
X722783Y261374D01*
X722352Y258100D01*
X722783Y254826D01*
X724046Y251776D01*
X726056Y249156D01*
X728676Y247146D01*
X731726Y245883D01*
X735000Y245452D01*
X738274Y245883D01*
X741324Y247146D01*
X743944Y249156D01*
X745954Y251776D01*
X747217Y254826D01*
X747648Y258100D01*
X747217Y261374D01*
X745954Y264424D01*
X743944Y267044D01*
X741324Y269054D01*
X738274Y270317D01*
X735000Y270748D01*
D02*
G37*
G36*
X257810D02*
X254536Y270317D01*
X251486Y269054D01*
X248866Y267044D01*
X246856Y264424D01*
X245593Y261374D01*
X245162Y258100D01*
X245593Y254826D01*
X246856Y251776D01*
X248866Y249156D01*
X251486Y247146D01*
X254536Y245883D01*
X257810Y245452D01*
X261084Y245883D01*
X264134Y247146D01*
X266754Y249156D01*
X268764Y251776D01*
X270027Y254826D01*
X270458Y258100D01*
X270027Y261374D01*
X268764Y264424D01*
X266754Y267044D01*
X264134Y269054D01*
X261084Y270317D01*
X257810Y270748D01*
D02*
G37*
G36*
X521970Y319240D02*
X512272D01*
X512484Y317628D01*
X513597Y314942D01*
X515366Y312636D01*
X517672Y310867D01*
X520358Y309754D01*
X521970Y309542D01*
Y319240D01*
D02*
G37*
G36*
X128270Y331478D02*
X126658Y331266D01*
X123972Y330153D01*
X121666Y328384D01*
X119897Y326078D01*
X118784Y323392D01*
X118572Y321780D01*
X128270D01*
Y331478D01*
D02*
G37*
G36*
X521970D02*
X520358Y331266D01*
X517672Y330153D01*
X515366Y328384D01*
X513597Y326078D01*
X512484Y323392D01*
X512272Y321780D01*
X521970D01*
Y331478D01*
D02*
G37*
G36*
X468630D02*
Y321780D01*
X478328D01*
X478116Y323392D01*
X477003Y326078D01*
X475234Y328384D01*
X472928Y330153D01*
X470242Y331266D01*
X468630Y331478D01*
D02*
G37*
G36*
X130810D02*
Y321780D01*
X140508D01*
X140296Y323392D01*
X139183Y326078D01*
X137414Y328384D01*
X135108Y330153D01*
X132422Y331266D01*
X130810Y331478D01*
D02*
G37*
G36*
X524510D02*
Y321780D01*
X534208D01*
X533996Y323392D01*
X532883Y326078D01*
X531114Y328384D01*
X528808Y330153D01*
X526122Y331266D01*
X524510Y331478D01*
D02*
G37*
G36*
X466090D02*
X464478Y331266D01*
X461792Y330153D01*
X459486Y328384D01*
X457717Y326078D01*
X456604Y323392D01*
X456392Y321780D01*
X466090D01*
Y331478D01*
D02*
G37*
G36*
X478328Y319240D02*
X468630D01*
Y309542D01*
X470242Y309754D01*
X472928Y310867D01*
X475234Y312636D01*
X477003Y314942D01*
X478116Y317628D01*
X478328Y319240D01*
D02*
G37*
G36*
X140508D02*
X130810D01*
Y309542D01*
X132422Y309754D01*
X135108Y310867D01*
X137414Y312636D01*
X139183Y314942D01*
X140296Y317628D01*
X140508Y319240D01*
D02*
G37*
G36*
X534208D02*
X524510D01*
Y309542D01*
X526122Y309754D01*
X528808Y310867D01*
X531114Y312636D01*
X532883Y314942D01*
X533996Y317628D01*
X534208Y319240D01*
D02*
G37*
G36*
X34290Y326189D02*
Y317500D01*
X42979D01*
X42802Y318851D01*
X41790Y321293D01*
X40181Y323391D01*
X38083Y325000D01*
X35641Y326012D01*
X34290Y326189D01*
D02*
G37*
G36*
X31750D02*
X30399Y326012D01*
X27957Y325000D01*
X25859Y323391D01*
X24250Y321293D01*
X23238Y318851D01*
X23061Y317500D01*
X31750D01*
Y326189D01*
D02*
G37*
G36*
X908520Y230678D02*
Y220980D01*
X918218D01*
X918006Y222592D01*
X916893Y225278D01*
X915124Y227584D01*
X912818Y229353D01*
X910132Y230466D01*
X908520Y230678D01*
D02*
G37*
G36*
X75458Y124460D02*
X62230D01*
Y111232D01*
X64756Y111564D01*
X68293Y113029D01*
X71330Y115360D01*
X73661Y118397D01*
X75126Y121934D01*
X75458Y124460D01*
D02*
G37*
G36*
X59690D02*
X51010D01*
Y118730D01*
X48350Y118590D01*
X48191Y118562D01*
X48259Y118397D01*
X50590Y115360D01*
X53627Y113029D01*
X57164Y111564D01*
X59690Y111232D01*
Y124460D01*
D02*
G37*
G36*
Y140228D02*
X57164Y139896D01*
X53627Y138431D01*
X50590Y136100D01*
X48259Y133063D01*
X48191Y132898D01*
X48350Y132870D01*
X51010Y132730D01*
Y127000D01*
X59690D01*
Y140228D01*
D02*
G37*
G36*
X257810Y194548D02*
X254536Y194117D01*
X251486Y192854D01*
X248866Y190844D01*
X246856Y188224D01*
X245593Y185174D01*
X245162Y181900D01*
X245593Y178626D01*
X246856Y175576D01*
X248866Y172956D01*
X251486Y170946D01*
X254536Y169683D01*
X257810Y169252D01*
X261084Y169683D01*
X264134Y170946D01*
X266754Y172956D01*
X268764Y175576D01*
X270027Y178626D01*
X270458Y181900D01*
X270027Y185174D01*
X268764Y188224D01*
X266754Y190844D01*
X264134Y192854D01*
X261084Y194117D01*
X257810Y194548D01*
D02*
G37*
G36*
X62230Y140228D02*
Y127000D01*
X75458D01*
X75126Y129526D01*
X73661Y133063D01*
X71330Y136100D01*
X68293Y138431D01*
X64756Y139896D01*
X62230Y140228D01*
D02*
G37*
G36*
X670000Y113137D02*
X666071Y112750D01*
X662294Y111604D01*
X658812Y109743D01*
X655761Y107239D01*
X653257Y104187D01*
X651396Y100706D01*
X650250Y96929D01*
X649863Y93000D01*
X650250Y89072D01*
X651396Y85294D01*
X653257Y81812D01*
X655761Y78761D01*
X658812Y76257D01*
X662294Y74396D01*
X666071Y73250D01*
X670000Y72863D01*
X673929Y73250D01*
X677706Y74396D01*
X681188Y76257D01*
X684239Y78761D01*
X686743Y81812D01*
X688604Y85294D01*
X689750Y89072D01*
X690137Y93000D01*
X689750Y96929D01*
X688604Y100706D01*
X686743Y104187D01*
X684239Y107239D01*
X681188Y109743D01*
X677706Y111604D01*
X673929Y112750D01*
X670000Y113137D01*
D02*
G37*
G36*
X149398Y27470D02*
X139700D01*
Y17772D01*
X141312Y17984D01*
X143998Y19097D01*
X146304Y20866D01*
X148073Y23172D01*
X149186Y25858D01*
X149398Y27470D01*
D02*
G37*
G36*
X137160D02*
X127462D01*
X127674Y25858D01*
X128787Y23172D01*
X130556Y20866D01*
X132862Y19097D01*
X135548Y17984D01*
X137160Y17772D01*
Y27470D01*
D02*
G37*
G36*
Y39708D02*
X135548Y39496D01*
X132862Y38383D01*
X130556Y36614D01*
X128787Y34308D01*
X127674Y31622D01*
X127462Y30010D01*
X137160D01*
Y39708D01*
D02*
G37*
G36*
X320000Y113137D02*
X316071Y112750D01*
X312294Y111604D01*
X308813Y109743D01*
X305761Y107239D01*
X303257Y104187D01*
X301396Y100706D01*
X300250Y96929D01*
X299863Y93000D01*
X300250Y89072D01*
X301396Y85294D01*
X303257Y81812D01*
X305761Y78761D01*
X308813Y76257D01*
X312294Y74396D01*
X316071Y73250D01*
X320000Y72863D01*
X323928Y73250D01*
X327706Y74396D01*
X331188Y76257D01*
X334239Y78761D01*
X336743Y81812D01*
X338604Y85294D01*
X339750Y89072D01*
X340137Y93000D01*
X339750Y96929D01*
X338604Y100706D01*
X336743Y104187D01*
X334239Y107239D01*
X331188Y109743D01*
X327706Y111604D01*
X323928Y112750D01*
X320000Y113137D01*
D02*
G37*
G36*
X139700Y39708D02*
Y30010D01*
X149398D01*
X149186Y31622D01*
X148073Y34308D01*
X146304Y36614D01*
X143998Y38383D01*
X141312Y39496D01*
X139700Y39708D01*
D02*
G37*
G36*
X735000Y674548D02*
X731726Y674117D01*
X728676Y672854D01*
X726056Y670844D01*
X724046Y668224D01*
X722783Y665174D01*
X722352Y661900D01*
X722783Y658626D01*
X724046Y655576D01*
X725378Y653841D01*
Y318616D01*
X689156Y282394D01*
X687627Y280401D01*
X686883Y278606D01*
X686666Y278080D01*
X686338Y275590D01*
Y220940D01*
X686666Y218450D01*
X686947Y217770D01*
X687627Y216129D01*
X689156Y214136D01*
X722497Y180795D01*
X722783Y178626D01*
X724046Y175576D01*
X726056Y172956D01*
X728676Y170946D01*
X731726Y169683D01*
X735000Y169252D01*
X738274Y169683D01*
X741324Y170946D01*
X743944Y172956D01*
X745954Y175576D01*
X747217Y178626D01*
X747648Y181900D01*
X747217Y185174D01*
X745954Y188224D01*
X743944Y190844D01*
X741324Y192854D01*
X738274Y194117D01*
X736105Y194403D01*
X705582Y224926D01*
Y271604D01*
X741804Y307826D01*
X743333Y309819D01*
X743896Y311178D01*
X744294Y312140D01*
X744622Y314630D01*
Y653841D01*
X745954Y655576D01*
X747217Y658626D01*
X747648Y661900D01*
X747217Y665174D01*
X745954Y668224D01*
X743944Y670844D01*
X741324Y672854D01*
X738274Y674117D01*
X735000Y674548D01*
D02*
G37*
G36*
X918218Y218440D02*
X908520D01*
Y208742D01*
X910132Y208954D01*
X912818Y210067D01*
X915124Y211836D01*
X916893Y214142D01*
X918006Y216828D01*
X918218Y218440D01*
D02*
G37*
G36*
X905980D02*
X896282D01*
X896494Y216828D01*
X897607Y214142D01*
X899376Y211836D01*
X901682Y210067D01*
X904368Y208954D01*
X905980Y208742D01*
Y218440D01*
D02*
G37*
G36*
X467360Y231645D02*
X464478Y231266D01*
X461792Y230153D01*
X459486Y228384D01*
X457717Y226078D01*
X456604Y223392D01*
X456225Y220510D01*
X456604Y217628D01*
X457717Y214942D01*
X459486Y212636D01*
X461792Y210867D01*
X464478Y209754D01*
X467360Y209375D01*
X470242Y209754D01*
X472928Y210867D01*
X475234Y212636D01*
X477003Y214942D01*
X478116Y217628D01*
X478495Y220510D01*
X478116Y223392D01*
X477003Y226078D01*
X475234Y228384D01*
X472928Y230153D01*
X470242Y231266D01*
X467360Y231645D01*
D02*
G37*
G36*
X905980Y230678D02*
X904368Y230466D01*
X901682Y229353D01*
X899376Y227584D01*
X897607Y225278D01*
X896494Y222592D01*
X896282Y220980D01*
X905980D01*
Y230678D01*
D02*
G37*
G36*
X523240Y231645D02*
X520358Y231266D01*
X517672Y230153D01*
X515366Y228384D01*
X513597Y226078D01*
X512484Y223392D01*
X512105Y220510D01*
X512484Y217628D01*
X513597Y214942D01*
X515366Y212636D01*
X517672Y210867D01*
X520358Y209754D01*
X523240Y209375D01*
X526122Y209754D01*
X528808Y210867D01*
X531114Y212636D01*
X532883Y214942D01*
X533996Y217628D01*
X534375Y220510D01*
X533996Y223392D01*
X532883Y226078D01*
X531114Y228384D01*
X528808Y230153D01*
X526122Y231266D01*
X523240Y231645D01*
D02*
G37*
G36*
X807250Y230845D02*
X804368Y230466D01*
X801682Y229353D01*
X799376Y227584D01*
X797607Y225278D01*
X796494Y222592D01*
X796115Y219710D01*
X796494Y216828D01*
X797607Y214142D01*
X799376Y211836D01*
X801682Y210067D01*
X804368Y208954D01*
X807250Y208575D01*
X810132Y208954D01*
X812818Y210067D01*
X815124Y211836D01*
X816893Y214142D01*
X818006Y216828D01*
X818385Y219710D01*
X818006Y222592D01*
X816893Y225278D01*
X815124Y227584D01*
X812818Y229353D01*
X810132Y230466D01*
X807250Y230845D01*
D02*
G37*
G36*
X40978Y186690D02*
X31280D01*
Y176992D01*
X32892Y177204D01*
X35578Y178317D01*
X37884Y180086D01*
X39653Y182392D01*
X40766Y185078D01*
X40978Y186690D01*
D02*
G37*
G36*
X28740D02*
X19042D01*
X19254Y185078D01*
X20367Y182392D01*
X22136Y180086D01*
X24442Y178317D01*
X27128Y177204D01*
X28740Y176992D01*
Y186690D01*
D02*
G37*
G36*
Y198928D02*
X27128Y198716D01*
X24442Y197603D01*
X22136Y195834D01*
X20367Y193528D01*
X19254Y190842D01*
X19042Y189230D01*
X28740D01*
Y198928D01*
D02*
G37*
G36*
X735000Y232648D02*
X731726Y232217D01*
X728676Y230954D01*
X726056Y228944D01*
X724046Y226324D01*
X722783Y223274D01*
X722352Y220000D01*
X722783Y216726D01*
X724046Y213676D01*
X726056Y211056D01*
X728676Y209046D01*
X731726Y207783D01*
X735000Y207352D01*
X738274Y207783D01*
X741324Y209046D01*
X743944Y211056D01*
X745954Y213676D01*
X747217Y216726D01*
X747648Y220000D01*
X747217Y223274D01*
X745954Y226324D01*
X743944Y228944D01*
X741324Y230954D01*
X738274Y232217D01*
X735000Y232648D01*
D02*
G37*
G36*
X31280Y198928D02*
Y189230D01*
X40978D01*
X40766Y190842D01*
X39653Y193528D01*
X37884Y195834D01*
X35578Y197603D01*
X32892Y198716D01*
X31280Y198928D01*
D02*
G37*
G36*
X320000Y367137D02*
X316071Y366750D01*
X312294Y365604D01*
X308813Y363743D01*
X305761Y361239D01*
X303257Y358187D01*
X301396Y354706D01*
X300250Y350928D01*
X299863Y347000D01*
X300250Y343072D01*
X301396Y339294D01*
X303257Y335812D01*
X305761Y332761D01*
X308813Y330257D01*
X312294Y328396D01*
X316071Y327250D01*
X320000Y326863D01*
X323928Y327250D01*
X327706Y328396D01*
X331188Y330257D01*
X334239Y332761D01*
X336743Y335812D01*
X338604Y339294D01*
X339750Y343072D01*
X340137Y347000D01*
X339750Y350928D01*
X338604Y354706D01*
X336743Y358187D01*
X334239Y361239D01*
X331188Y363743D01*
X327706Y365604D01*
X323928Y366750D01*
X320000Y367137D01*
D02*
G37*
G36*
X520700Y737505D02*
X517818Y737126D01*
X515132Y736013D01*
X512826Y734244D01*
X511057Y731938D01*
X509944Y729252D01*
X509565Y726370D01*
X509944Y723488D01*
X511057Y720802D01*
X512826Y718496D01*
X515132Y716727D01*
X517818Y715614D01*
X520700Y715235D01*
X523582Y715614D01*
X526268Y716727D01*
X528574Y718496D01*
X530343Y720802D01*
X531456Y723488D01*
X531835Y726370D01*
X531456Y729252D01*
X530343Y731938D01*
X528574Y734244D01*
X526268Y736013D01*
X523582Y737126D01*
X520700Y737505D01*
D02*
G37*
G36*
X477520Y736235D02*
X474638Y735856D01*
X471952Y734743D01*
X469646Y732974D01*
X467877Y730668D01*
X466764Y727982D01*
X466385Y725100D01*
X466764Y722218D01*
X467877Y719532D01*
X469646Y717226D01*
X471952Y715457D01*
X474638Y714344D01*
X477520Y713965D01*
X480402Y714344D01*
X483088Y715457D01*
X485394Y717226D01*
X487163Y719532D01*
X488276Y722218D01*
X488655Y725100D01*
X488276Y727982D01*
X487163Y730668D01*
X485394Y732974D01*
X483088Y734743D01*
X480402Y735856D01*
X477520Y736235D01*
D02*
G37*
G36*
X257810Y750748D02*
X254536Y750317D01*
X251486Y749054D01*
X248866Y747044D01*
X246856Y744424D01*
X245593Y741374D01*
X245162Y738100D01*
X245593Y734826D01*
X246856Y731776D01*
X248866Y729156D01*
X251486Y727146D01*
X254536Y725883D01*
X257810Y725452D01*
X261084Y725883D01*
X264134Y727146D01*
X266754Y729156D01*
X268764Y731776D01*
X270027Y734826D01*
X270458Y738100D01*
X270027Y741374D01*
X268764Y744424D01*
X266754Y747044D01*
X264134Y749054D01*
X261084Y750317D01*
X257810Y750748D01*
D02*
G37*
G36*
X911860Y763218D02*
X908586Y762787D01*
X905536Y761524D01*
X902916Y759514D01*
X900906Y756894D01*
X899643Y753844D01*
X899212Y750570D01*
X899643Y747296D01*
X900906Y744246D01*
X902916Y741626D01*
X905536Y739616D01*
X908586Y738353D01*
X911860Y737922D01*
X915134Y738353D01*
X918184Y739616D01*
X920804Y741626D01*
X922814Y744246D01*
X924077Y747296D01*
X924508Y750570D01*
X924077Y753844D01*
X922814Y756894D01*
X920804Y759514D01*
X918184Y761524D01*
X915134Y762787D01*
X911860Y763218D01*
D02*
G37*
G36*
X735000Y750748D02*
X731726Y750317D01*
X728676Y749054D01*
X726056Y747044D01*
X724046Y744424D01*
X722783Y741374D01*
X722352Y738100D01*
X722783Y734826D01*
X724046Y731776D01*
X726056Y729156D01*
X728676Y727146D01*
X731726Y725883D01*
X735000Y725452D01*
X738274Y725883D01*
X741324Y727146D01*
X743944Y729156D01*
X745954Y731776D01*
X747217Y734826D01*
X747648Y738100D01*
X747217Y741374D01*
X745954Y744424D01*
X743944Y747044D01*
X741324Y749054D01*
X738274Y750317D01*
X735000Y750748D01*
D02*
G37*
G36*
X913130Y724951D02*
Y713740D01*
X924341D01*
X924077Y715744D01*
X922814Y718794D01*
X920804Y721414D01*
X918184Y723424D01*
X915134Y724687D01*
X913130Y724951D01*
D02*
G37*
G36*
X910590Y711200D02*
X899379D01*
X899643Y709196D01*
X900906Y706146D01*
X902916Y703526D01*
X905536Y701516D01*
X908586Y700253D01*
X910590Y699989D01*
Y711200D01*
D02*
G37*
G36*
X735000Y712648D02*
X731726Y712217D01*
X728676Y710954D01*
X726056Y708944D01*
X724046Y706324D01*
X722783Y703274D01*
X722352Y700000D01*
X722783Y696726D01*
X724046Y693676D01*
X726056Y691056D01*
X728676Y689046D01*
X731726Y687783D01*
X735000Y687352D01*
X738274Y687783D01*
X741324Y689046D01*
X743944Y691056D01*
X745954Y693676D01*
X747217Y696726D01*
X747648Y700000D01*
X747217Y703274D01*
X745954Y706324D01*
X743944Y708944D01*
X741324Y710954D01*
X738274Y712217D01*
X735000Y712648D01*
D02*
G37*
G36*
X46520Y919480D02*
X36822D01*
X37034Y917868D01*
X38147Y915182D01*
X39916Y912876D01*
X42222Y911107D01*
X44908Y909994D01*
X46520Y909782D01*
Y919480D01*
D02*
G37*
G36*
X910590Y724951D02*
X908586Y724687D01*
X905536Y723424D01*
X902916Y721414D01*
X900906Y718794D01*
X899643Y715744D01*
X899379Y713740D01*
X910590D01*
Y724951D01*
D02*
G37*
G36*
X924341Y711200D02*
X913130D01*
Y699989D01*
X915134Y700253D01*
X918184Y701516D01*
X920804Y703526D01*
X922814Y706146D01*
X924077Y709196D01*
X924341Y711200D01*
D02*
G37*
G36*
X477520Y886235D02*
X474638Y885856D01*
X471952Y884743D01*
X469646Y882974D01*
X467877Y880668D01*
X466764Y877982D01*
X466385Y875100D01*
X466764Y872218D01*
X467877Y869532D01*
X469646Y867226D01*
X471952Y865457D01*
X474638Y864344D01*
X477520Y863965D01*
X480402Y864344D01*
X483088Y865457D01*
X485394Y867226D01*
X487163Y869532D01*
X488276Y872218D01*
X488655Y875100D01*
X488276Y877982D01*
X487163Y880668D01*
X485394Y882974D01*
X483088Y884743D01*
X480402Y885856D01*
X477520Y886235D01*
D02*
G37*
G36*
X899160Y882076D02*
X895364Y881576D01*
X891827Y880111D01*
X888790Y877780D01*
X886459Y874743D01*
X884994Y871206D01*
X884494Y867410D01*
X884994Y863614D01*
X886459Y860077D01*
X888790Y857040D01*
X891827Y854709D01*
X895364Y853244D01*
X899160Y852745D01*
X902956Y853244D01*
X906493Y854709D01*
X909530Y857040D01*
X911861Y860077D01*
X913326Y863614D01*
X913826Y867410D01*
X913326Y871206D01*
X911861Y874743D01*
X909530Y877780D01*
X906493Y880111D01*
X902956Y881576D01*
X899160Y882076D01*
D02*
G37*
G36*
X520700Y887505D02*
X517818Y887126D01*
X515132Y886013D01*
X512826Y884244D01*
X511057Y881938D01*
X509944Y879252D01*
X509565Y876370D01*
X509944Y873488D01*
X511057Y870802D01*
X512826Y868496D01*
X515132Y866727D01*
X517818Y865614D01*
X520700Y865235D01*
X523582Y865614D01*
X526268Y866727D01*
X528574Y868496D01*
X530343Y870802D01*
X531456Y873488D01*
X531835Y876370D01*
X531456Y879252D01*
X530343Y881938D01*
X528574Y884244D01*
X526268Y886013D01*
X523582Y887126D01*
X520700Y887505D01*
D02*
G37*
G36*
X824230Y928545D02*
X821348Y928166D01*
X818662Y927053D01*
X816356Y925284D01*
X814587Y922978D01*
X813474Y920292D01*
X813095Y917410D01*
X813474Y914528D01*
X814587Y911842D01*
X816356Y909536D01*
X818662Y907767D01*
X821348Y906654D01*
X824230Y906275D01*
X827112Y906654D01*
X829798Y907767D01*
X832104Y909536D01*
X833873Y911842D01*
X834986Y914528D01*
X835365Y917410D01*
X834986Y920292D01*
X833873Y922978D01*
X832104Y925284D01*
X829798Y927053D01*
X827112Y928166D01*
X824230Y928545D01*
D02*
G37*
G36*
X913700Y932750D02*
X884620D01*
Y903670D01*
X913700D01*
Y932750D01*
D02*
G37*
G36*
X147790Y867115D02*
X144908Y866736D01*
X142222Y865623D01*
X139916Y863854D01*
X138147Y861548D01*
X137034Y858862D01*
X136655Y855980D01*
X137034Y853098D01*
X138147Y850412D01*
X139916Y848106D01*
X142222Y846337D01*
X144908Y845224D01*
X147790Y844845D01*
X150672Y845224D01*
X153358Y846337D01*
X155664Y848106D01*
X157433Y850412D01*
X158546Y853098D01*
X158925Y855980D01*
X158546Y858862D01*
X157433Y861548D01*
X155664Y863854D01*
X153358Y865623D01*
X150672Y866736D01*
X147790Y867115D01*
D02*
G37*
G36*
X824230Y828545D02*
X821348Y828166D01*
X818662Y827053D01*
X816356Y825284D01*
X814587Y822978D01*
X813474Y820292D01*
X813095Y817410D01*
X813474Y814528D01*
X814587Y811842D01*
X816356Y809536D01*
X818662Y807767D01*
X821348Y806654D01*
X824230Y806275D01*
X827112Y806654D01*
X829798Y807767D01*
X832104Y809536D01*
X833873Y811842D01*
X834986Y814528D01*
X835365Y817410D01*
X834986Y820292D01*
X833873Y822978D01*
X832104Y825284D01*
X829798Y827053D01*
X827112Y828166D01*
X824230Y828545D01*
D02*
G37*
G36*
X147790Y931885D02*
X144908Y931506D01*
X142222Y930393D01*
X139916Y928624D01*
X138147Y926318D01*
X137034Y923632D01*
X136655Y920750D01*
X137034Y917868D01*
X138147Y915182D01*
X139916Y912876D01*
X142222Y911107D01*
X144908Y909994D01*
X147790Y909615D01*
X150672Y909994D01*
X153358Y911107D01*
X155664Y912876D01*
X157433Y915182D01*
X158546Y917868D01*
X158925Y920750D01*
X158546Y923632D01*
X157433Y926318D01*
X155664Y928624D01*
X153358Y930393D01*
X150672Y931506D01*
X147790Y931885D01*
D02*
G37*
G36*
X320000Y847137D02*
X316071Y846750D01*
X312294Y845604D01*
X308813Y843743D01*
X305761Y841239D01*
X303257Y838187D01*
X301396Y834706D01*
X300250Y830928D01*
X299863Y827000D01*
X300250Y823072D01*
X301396Y819294D01*
X303257Y815813D01*
X305761Y812761D01*
X308813Y810257D01*
X312294Y808396D01*
X316071Y807250D01*
X320000Y806863D01*
X323928Y807250D01*
X327706Y808396D01*
X331188Y810257D01*
X334239Y812761D01*
X336743Y815813D01*
X338604Y819294D01*
X339750Y823072D01*
X340137Y827000D01*
X339750Y830928D01*
X338604Y834706D01*
X336743Y838187D01*
X334239Y841239D01*
X331188Y843743D01*
X327706Y845604D01*
X323928Y846750D01*
X320000Y847137D01*
D02*
G37*
G36*
X47790Y867115D02*
X44908Y866736D01*
X42222Y865623D01*
X39916Y863854D01*
X38147Y861548D01*
X37034Y858862D01*
X36655Y855980D01*
X37034Y853098D01*
X38147Y850412D01*
X39916Y848106D01*
X42222Y846337D01*
X44908Y845224D01*
X47790Y844845D01*
X50672Y845224D01*
X53358Y846337D01*
X55664Y848106D01*
X57433Y850412D01*
X58546Y853098D01*
X58925Y855980D01*
X58546Y858862D01*
X57433Y861548D01*
X55664Y863854D01*
X53358Y865623D01*
X50672Y866736D01*
X47790Y867115D01*
D02*
G37*
G36*
X670000Y847137D02*
X666071Y846750D01*
X662294Y845604D01*
X658812Y843743D01*
X655761Y841239D01*
X653257Y838187D01*
X651396Y834706D01*
X650250Y830928D01*
X649863Y827000D01*
X650250Y823072D01*
X651396Y819294D01*
X653257Y815813D01*
X655761Y812761D01*
X658812Y810257D01*
X662294Y808396D01*
X666071Y807250D01*
X670000Y806863D01*
X673929Y807250D01*
X677706Y808396D01*
X681188Y810257D01*
X684239Y812761D01*
X686743Y815813D01*
X688604Y819294D01*
X689750Y823072D01*
X690137Y827000D01*
X689750Y830928D01*
X688604Y834706D01*
X686743Y838187D01*
X684239Y841239D01*
X681188Y843743D01*
X677706Y845604D01*
X673929Y846750D01*
X670000Y847137D01*
D02*
G37*
G36*
X257810Y712648D02*
X254536Y712217D01*
X251486Y710954D01*
X248866Y708944D01*
X246856Y706324D01*
X245593Y703274D01*
X245162Y700000D01*
X245593Y696726D01*
X246856Y693676D01*
X248866Y691056D01*
X251486Y689046D01*
X254536Y687783D01*
X257810Y687352D01*
X261084Y687783D01*
X264134Y689046D01*
X266754Y691056D01*
X268764Y693676D01*
X270027Y696726D01*
X270458Y700000D01*
X270027Y703274D01*
X268764Y706324D01*
X266754Y708944D01*
X264134Y710954D01*
X261084Y712217D01*
X257810Y712648D01*
D02*
G37*
G36*
X33020Y427957D02*
X30399Y427612D01*
X27957Y426600D01*
X25859Y424991D01*
X24250Y422893D01*
X23238Y420451D01*
X22893Y417830D01*
X23238Y415209D01*
X24250Y412767D01*
X25859Y410669D01*
X27957Y409060D01*
X30399Y408048D01*
X33020Y407703D01*
X35641Y408048D01*
X38083Y409060D01*
X40181Y410669D01*
X41790Y412767D01*
X42802Y415209D01*
X43147Y417830D01*
X42802Y420451D01*
X41790Y422893D01*
X40181Y424991D01*
X38083Y426600D01*
X35641Y427612D01*
X33020Y427957D01*
D02*
G37*
G36*
X179180Y429370D02*
X156100D01*
Y406290D01*
X179180D01*
Y429370D01*
D02*
G37*
G36*
X167640Y454869D02*
X164627Y454473D01*
X161820Y453310D01*
X159410Y451460D01*
X157560Y449050D01*
X156397Y446242D01*
X156000Y443230D01*
X156397Y440218D01*
X157560Y437410D01*
X159410Y435000D01*
X161820Y433150D01*
X164627Y431987D01*
X167640Y431590D01*
X170653Y431987D01*
X173460Y433150D01*
X175870Y435000D01*
X177720Y437410D01*
X178883Y440218D01*
X179280Y443230D01*
X178883Y446242D01*
X177720Y449050D01*
X175870Y451460D01*
X173460Y453310D01*
X170653Y454473D01*
X167640Y454869D01*
D02*
G37*
G36*
X877680Y482710D02*
X854600D01*
Y459630D01*
X877680D01*
Y482710D01*
D02*
G37*
G36*
X43060Y453270D02*
X22980D01*
Y433190D01*
X43060D01*
Y453270D01*
D02*
G37*
G36*
X46520Y931718D02*
X44908Y931506D01*
X42222Y930393D01*
X39916Y928624D01*
X38147Y926318D01*
X37034Y923632D01*
X36822Y922020D01*
X46520D01*
Y931718D01*
D02*
G37*
G36*
X33020Y351757D02*
X30399Y351412D01*
X27957Y350400D01*
X25859Y348791D01*
X24250Y346693D01*
X23238Y344251D01*
X22893Y341630D01*
X23238Y339009D01*
X24250Y336567D01*
X25859Y334469D01*
X27957Y332860D01*
X30399Y331848D01*
X33020Y331503D01*
X35641Y331848D01*
X38083Y332860D01*
X40181Y334469D01*
X41790Y336567D01*
X42802Y339009D01*
X43147Y341630D01*
X42802Y344251D01*
X41790Y346693D01*
X40181Y348791D01*
X38083Y350400D01*
X35641Y351412D01*
X33020Y351757D01*
D02*
G37*
G36*
X670000Y367137D02*
X666071Y366750D01*
X662294Y365604D01*
X658812Y363743D01*
X655761Y361239D01*
X653257Y358187D01*
X651396Y354706D01*
X650250Y350928D01*
X649863Y347000D01*
X650250Y343072D01*
X651396Y339294D01*
X653257Y335812D01*
X655761Y332761D01*
X658812Y330257D01*
X662294Y328396D01*
X666071Y327250D01*
X670000Y326863D01*
X673929Y327250D01*
X677706Y328396D01*
X681188Y330257D01*
X684239Y332761D01*
X686743Y335812D01*
X688604Y339294D01*
X689750Y343072D01*
X690137Y347000D01*
X689750Y350928D01*
X688604Y354706D01*
X686743Y358187D01*
X684239Y361239D01*
X681188Y363743D01*
X677706Y365604D01*
X673929Y366750D01*
X670000Y367137D01*
D02*
G37*
G36*
X49060Y931718D02*
Y922020D01*
X58758D01*
X58546Y923632D01*
X57433Y926318D01*
X55664Y928624D01*
X53358Y930393D01*
X50672Y931506D01*
X49060Y931718D01*
D02*
G37*
G36*
X33020Y402557D02*
X30399Y402212D01*
X27957Y401200D01*
X25859Y399591D01*
X24250Y397493D01*
X23238Y395051D01*
X22893Y392430D01*
X23238Y389809D01*
X24250Y387367D01*
X25859Y385269D01*
X27957Y383660D01*
X30399Y382648D01*
X33020Y382303D01*
X35641Y382648D01*
X38083Y383660D01*
X39358Y384638D01*
X42888Y384825D01*
X274708D01*
X274917Y384665D01*
X277079Y383769D01*
X279400Y383463D01*
X281721Y383769D01*
X283883Y384665D01*
X285740Y386090D01*
X287165Y387947D01*
X288061Y390109D01*
X288367Y392430D01*
X288061Y394751D01*
X287165Y396913D01*
X285740Y398770D01*
X283883Y400195D01*
X281721Y401091D01*
X279400Y401397D01*
X277079Y401091D01*
X274917Y400195D01*
X274708Y400035D01*
X41736D01*
X39812Y400080D01*
X39513Y400103D01*
X38083Y401200D01*
X35641Y402212D01*
X33020Y402557D01*
D02*
G37*
G36*
X365760Y396317D02*
X363439Y396011D01*
X361277Y395115D01*
X361068Y394955D01*
X306070D01*
X304102Y394696D01*
X303564Y394473D01*
X302267Y393936D01*
X300692Y392728D01*
X282600Y374635D01*
X41736D01*
X39812Y374680D01*
X39513Y374703D01*
X38083Y375800D01*
X35641Y376812D01*
X33020Y377157D01*
X30399Y376812D01*
X27957Y375800D01*
X25859Y374191D01*
X24250Y372093D01*
X23238Y369651D01*
X22893Y367030D01*
X23238Y364409D01*
X24250Y361967D01*
X25859Y359869D01*
X27957Y358260D01*
X30399Y357248D01*
X33020Y356903D01*
X35641Y357248D01*
X38083Y358260D01*
X39358Y359239D01*
X42888Y359425D01*
X285750D01*
X287718Y359684D01*
X288256Y359907D01*
X289552Y360444D01*
X291128Y361652D01*
X309220Y379745D01*
X361068D01*
X361277Y379585D01*
X363439Y378689D01*
X365760Y378383D01*
X368081Y378689D01*
X370243Y379585D01*
X372100Y381010D01*
X373525Y382867D01*
X374421Y385029D01*
X374727Y387350D01*
X374421Y389671D01*
X373525Y391833D01*
X372100Y393690D01*
X370243Y395115D01*
X368081Y396011D01*
X365760Y396317D01*
D02*
G37*
G36*
X902970Y609642D02*
Y599440D01*
X913172D01*
X912943Y601183D01*
X911780Y603990D01*
X909930Y606400D01*
X907520Y608250D01*
X904713Y609413D01*
X902970Y609642D01*
D02*
G37*
G36*
X900430D02*
X898688Y609413D01*
X895880Y608250D01*
X893470Y606400D01*
X891620Y603990D01*
X890457Y601183D01*
X890228Y599440D01*
X900430D01*
Y609642D01*
D02*
G37*
G36*
X58758Y919480D02*
X49060D01*
Y909782D01*
X50672Y909994D01*
X53358Y911107D01*
X55664Y912876D01*
X57433Y915182D01*
X58546Y917868D01*
X58758Y919480D01*
D02*
G37*
G36*
X911860Y687018D02*
X908586Y686587D01*
X905536Y685324D01*
X902916Y683314D01*
X900906Y680694D01*
X899643Y677644D01*
X899212Y674370D01*
X899643Y671096D01*
X900906Y668046D01*
X902916Y665426D01*
X905536Y663416D01*
X908586Y662153D01*
X911860Y661722D01*
X915134Y662153D01*
X918184Y663416D01*
X920804Y665426D01*
X922814Y668046D01*
X924077Y671096D01*
X924508Y674370D01*
X924077Y677644D01*
X922814Y680694D01*
X920804Y683314D01*
X918184Y685324D01*
X915134Y686587D01*
X911860Y687018D01*
D02*
G37*
G36*
X257810Y674548D02*
X254536Y674117D01*
X251486Y672854D01*
X248866Y670844D01*
X246856Y668224D01*
X245593Y665174D01*
X245162Y661900D01*
X245593Y658626D01*
X246856Y655576D01*
X248866Y652956D01*
X251486Y650946D01*
X254536Y649683D01*
X257810Y649252D01*
X261084Y649683D01*
X264134Y650946D01*
X266754Y652956D01*
X268764Y655576D01*
X270027Y658626D01*
X270458Y661900D01*
X270027Y665174D01*
X268764Y668224D01*
X266754Y670844D01*
X264134Y672854D01*
X261084Y674117D01*
X257810Y674548D01*
D02*
G37*
G36*
X913172Y596900D02*
X902970D01*
Y586698D01*
X904713Y586927D01*
X907520Y588090D01*
X909930Y589940D01*
X911780Y592350D01*
X912943Y595158D01*
X913172Y596900D01*
D02*
G37*
G36*
X320000Y593137D02*
X316071Y592750D01*
X312294Y591604D01*
X308813Y589743D01*
X305761Y587239D01*
X303257Y584188D01*
X301396Y580706D01*
X300250Y576928D01*
X299863Y573000D01*
X300250Y569072D01*
X301396Y565294D01*
X303257Y561813D01*
X305761Y558761D01*
X308813Y556257D01*
X312294Y554396D01*
X316071Y553250D01*
X320000Y552863D01*
X323928Y553250D01*
X327706Y554396D01*
X331188Y556257D01*
X334239Y558761D01*
X336743Y561813D01*
X338604Y565294D01*
X339750Y569072D01*
X340137Y573000D01*
X339750Y576928D01*
X338604Y580706D01*
X336743Y584188D01*
X334239Y587239D01*
X331188Y589743D01*
X327706Y591604D01*
X323928Y592750D01*
X320000Y593137D01*
D02*
G37*
G36*
X866140Y508209D02*
X863128Y507813D01*
X860320Y506650D01*
X857910Y504800D01*
X856060Y502390D01*
X854897Y499582D01*
X854501Y496570D01*
X854897Y493558D01*
X856060Y490750D01*
X857910Y488340D01*
X860320Y486490D01*
X863128Y485327D01*
X866140Y484930D01*
X869153Y485327D01*
X871960Y486490D01*
X874370Y488340D01*
X876220Y490750D01*
X877383Y493558D01*
X877779Y496570D01*
X877383Y499582D01*
X876220Y502390D01*
X874370Y504800D01*
X871960Y506650D01*
X869153Y507813D01*
X866140Y508209D01*
D02*
G37*
G36*
X670000Y593137D02*
X666071Y592750D01*
X662294Y591604D01*
X658812Y589743D01*
X655761Y587239D01*
X653257Y584188D01*
X651396Y580706D01*
X650250Y576928D01*
X649863Y573000D01*
X650250Y569072D01*
X651396Y565294D01*
X653257Y561813D01*
X655761Y558761D01*
X658812Y556257D01*
X662294Y554396D01*
X666071Y553250D01*
X670000Y552863D01*
X673929Y553250D01*
X677706Y554396D01*
X681188Y556257D01*
X684239Y558761D01*
X686743Y561813D01*
X688604Y565294D01*
X689750Y569072D01*
X690137Y573000D01*
X689750Y576928D01*
X688604Y580706D01*
X686743Y584188D01*
X684239Y587239D01*
X681188Y589743D01*
X677706Y591604D01*
X673929Y592750D01*
X670000Y593137D01*
D02*
G37*
G36*
X900430Y596900D02*
X890228D01*
X890457Y595158D01*
X891620Y592350D01*
X893470Y589940D01*
X895880Y588090D01*
X898688Y586927D01*
X900430Y586698D01*
Y596900D01*
D02*
G37*
G36*
X938640Y609710D02*
X915560D01*
Y586630D01*
X938640D01*
Y609710D01*
D02*
G37*
%LPD*%
G36*
X73016Y85729D02*
X73368Y84932D01*
X73954Y84228D01*
X74774Y83619D01*
X75829Y83103D01*
X77119Y82681D01*
X78642Y82352D01*
X80400Y82118D01*
X82393Y81977D01*
X84620Y81930D01*
Y67930D01*
X82393Y67883D01*
X78642Y67508D01*
X77119Y67179D01*
X75829Y66757D01*
X74774Y66241D01*
X73954Y65632D01*
X73368Y64928D01*
X73016Y64131D01*
X72899Y63239D01*
Y86621D01*
X73016Y85729D01*
D02*
G37*
G36*
X250669Y213000D02*
X244669D01*
Y227000D01*
X250669D01*
Y213000D01*
D02*
G37*
G36*
X742000Y648758D02*
X728000D01*
X728000Y654759D01*
X742000D01*
X742000Y648758D01*
D02*
G37*
G36*
X734900Y191900D02*
X725001Y182000D01*
X720758Y186243D01*
X730657Y196142D01*
X734900Y191900D01*
D02*
G37*
G36*
X38468Y397632D02*
X38644Y397590D01*
X38905Y397552D01*
X39682Y397492D01*
X42255Y397433D01*
X43110Y397430D01*
Y387430D01*
X38376Y387180D01*
Y397680D01*
X38468Y397632D01*
D02*
G37*
G36*
Y372233D02*
X38644Y372190D01*
X38905Y372152D01*
X39682Y372093D01*
X42255Y372033D01*
X43110Y372030D01*
Y362030D01*
X38376Y361780D01*
Y372280D01*
X38468Y372233D01*
D02*
G37*
D10*
X695960Y220940D02*
X735000Y181900D01*
X30010Y125730D02*
Y187960D01*
Y48730D02*
Y125730D01*
X60960D01*
X129540Y188430D02*
Y220000D01*
Y220510D01*
Y220000D02*
X257810D01*
X130010Y187960D02*
X134150D01*
X170180Y151930D01*
X146990Y128740D02*
X170180Y151930D01*
X138430Y128740D02*
X146990D01*
X84620Y74930D02*
X138430Y128740D01*
X60960Y74930D02*
X84620D01*
X50000Y28740D02*
X138430D01*
X30010Y48730D02*
X50000Y28740D01*
X30010Y187960D02*
Y221780D01*
X60160Y251930D01*
X129540D02*
Y320510D01*
X60160Y251930D02*
X129540D01*
X170180D01*
X129540Y320510D02*
X467360D01*
X523240D01*
X847090Y219710D02*
X907250D01*
X786130Y158750D02*
X847090Y219710D01*
X685000Y158750D02*
X786130D01*
X523240Y320510D02*
X685000Y158750D01*
X735000Y314630D02*
Y661900D01*
X695960Y275590D02*
X735000Y314630D01*
X695960Y220940D02*
Y275590D01*
X907250Y219710D02*
Y540550D01*
X901700Y546100D02*
X907250Y540550D01*
X901700Y546100D02*
Y598170D01*
X897890Y712470D02*
X911860D01*
X883920Y698500D02*
X897890Y712470D01*
X883920Y615950D02*
Y698500D01*
Y615950D02*
X901700Y598170D01*
X33020Y279070D02*
Y316230D01*
Y279070D02*
X60160Y251930D01*
D11*
X33020Y392430D02*
X279400D01*
X33020Y367030D02*
X285750D01*
X306070Y387350D01*
X365760D01*
D12*
X0Y950000D02*
X950000D01*
Y0D02*
Y950000D01*
X0Y0D02*
X950000D01*
X0D02*
Y950000D01*
D13*
X911860Y674370D02*
D03*
Y712470D02*
D03*
Y750570D02*
D03*
X735000Y181900D02*
D03*
Y220000D02*
D03*
Y258100D02*
D03*
Y661900D02*
D03*
Y700000D02*
D03*
Y738100D02*
D03*
X257810Y258100D02*
D03*
Y220000D02*
D03*
Y181900D02*
D03*
Y738100D02*
D03*
Y700000D02*
D03*
Y661900D02*
D03*
D14*
X670000Y347000D02*
D03*
Y93000D02*
D03*
Y827000D02*
D03*
Y573000D02*
D03*
X320000Y827000D02*
D03*
Y573000D02*
D03*
Y347000D02*
D03*
Y93000D02*
D03*
D15*
X523240Y320510D02*
D03*
Y220510D02*
D03*
X907250Y219710D02*
D03*
X807250D02*
D03*
X129540Y320510D02*
D03*
Y220510D02*
D03*
X170180Y251930D02*
D03*
Y151930D02*
D03*
X520700Y726370D02*
D03*
Y876370D02*
D03*
X477520Y725100D02*
D03*
Y875100D02*
D03*
X138430Y28740D02*
D03*
Y128740D02*
D03*
X467360Y320510D02*
D03*
Y220510D02*
D03*
X30010Y187960D02*
D03*
X130010D02*
D03*
X824230Y917410D02*
D03*
Y817410D02*
D03*
X47790Y920750D02*
D03*
X147790D02*
D03*
Y855980D02*
D03*
X47790D02*
D03*
D16*
X167640Y443230D02*
D03*
X866140Y496570D02*
D03*
X901700Y598170D02*
D03*
D17*
X167640Y417830D02*
D03*
X866140Y471170D02*
D03*
D18*
X60960Y74930D02*
D03*
X899160Y918210D02*
D03*
D19*
X60960Y125730D02*
D03*
X899160Y867410D02*
D03*
D20*
X927100Y598170D02*
D03*
D21*
X33020Y443230D02*
D03*
D22*
Y417830D02*
D03*
Y392430D02*
D03*
Y367030D02*
D03*
Y341630D02*
D03*
Y316230D02*
D03*
D23*
X279400Y392430D02*
D03*
X365760Y387350D02*
D03*
M02*
