M48
;Layer_Color=9474304
;FILE_FORMAT=4:4
METRIC,LZ
;TYPE=PLATED
T2F00S00C0.7110
T3F00S00C0.9000
T4F00S00C1.2000
T5F00S00C1.4000
;TYPE=NON_PLATED
T1F00S00C3.0000
%
T02
X0030226Y00137922
T03
X0037084Y00141262
X004191
X0046863
Y00241262
X004191
X0037084
X0036576Y00306832
X0039116
X0041656
X0042037Y00353822
X0039497
X0036957
X0044577
X0047117
X0034417
X0031877
X0026844Y00334772
X0016844
X0032512Y00241262
Y00141262
X0031877Y00430022
X0034417
X0026844Y00389382
X0016844
X0036957Y00430022
X0039497
X0042037
X0044577
X0047117
T04
X0013862Y00129032
X0016402
X0017037Y00221742
X0014497
T05
X005969Y00327152
X002754Y00049962
X002246
X0005Y00156972
Y00207772
X005969Y00377952
T01
X006Y0005
X0005
Y004
M30
