G04 Layer_Color=128*
%FSLAX44Y44*%
%MOMM*%
G71*
G01*
G75*
%ADD14C,0.3000*%
%ADD35C,0.0508*%
D14*
X0Y0D02*
Y500000D01*
X460000D01*
Y0D02*
Y500000D01*
X0Y0D02*
X460000D01*
D35*
X198700Y455130D02*
X207700D01*
X203200Y450630D02*
Y459630D01*
X198700Y355130D02*
X207700D01*
X203200Y350630D02*
Y359630D01*
X347760Y284480D02*
X356760D01*
X352260Y279980D02*
Y288980D01*
X247760Y284480D02*
X256760D01*
X252260Y279980D02*
Y288980D01*
X417140Y244640D02*
X426140D01*
X421640Y240140D02*
Y249140D01*
X417140Y344640D02*
X426140D01*
X421640Y340140D02*
Y349140D01*
X23440Y221780D02*
X32440D01*
X27940Y217280D02*
Y226280D01*
X23440Y321780D02*
X32440D01*
X27940Y317280D02*
Y326280D01*
X320620Y455130D02*
X329620D01*
X325120Y450630D02*
Y459630D01*
X320620Y355130D02*
X329620D01*
X325120Y350630D02*
Y359630D01*
X252040Y432270D02*
X261040D01*
X256540Y427770D02*
Y436770D01*
X252040Y332270D02*
X261040D01*
X256540Y327770D02*
Y336770D01*
X139010Y355130D02*
X148010D01*
X143510Y350630D02*
Y359630D01*
X139010Y455130D02*
X148010D01*
X143510Y450630D02*
Y459630D01*
X75510Y220510D02*
X84510D01*
X80010Y216010D02*
Y225010D01*
X75510Y320510D02*
X84510D01*
X80010Y316010D02*
Y325010D01*
X380310Y305270D02*
X389310D01*
X384810Y300770D02*
Y309770D01*
X380310Y205270D02*
X389310D01*
X384810Y200770D02*
Y209770D01*
X269020Y137160D02*
X278020D01*
X273520Y132660D02*
Y141660D01*
X169020Y137160D02*
X178020D01*
X173520Y132660D02*
Y141660D01*
X130120Y320510D02*
X139120D01*
X134620Y316010D02*
Y325010D01*
X130120Y220510D02*
X139120D01*
X134620Y216010D02*
Y225010D01*
X295690Y214630D02*
X304690D01*
X300190Y210130D02*
Y219130D01*
X195690Y214630D02*
X204690D01*
X200190Y210130D02*
Y219130D01*
X310460Y120000D02*
X319460D01*
X314960Y115500D02*
Y124500D01*
X310460Y20000D02*
X319460D01*
X314960Y15500D02*
Y24500D01*
X123770Y120000D02*
X132770D01*
X128270Y115500D02*
Y124500D01*
X123770Y20000D02*
X132770D01*
X128270Y15500D02*
Y24500D01*
X43000Y404600D02*
X57000D01*
X50000Y397600D02*
Y411600D01*
X43000Y455400D02*
X57000D01*
X50000Y448400D02*
Y462400D01*
X393000Y465400D02*
X407000D01*
X400000Y458400D02*
Y472400D01*
X393000Y414600D02*
X407000D01*
X400000Y407600D02*
Y421600D01*
X145130Y185420D02*
X157130D01*
X151130Y179420D02*
Y191420D01*
X170530Y185420D02*
X182530D01*
X176530Y179420D02*
Y191420D01*
X393000Y85400D02*
X407000D01*
X400000Y78400D02*
Y92400D01*
X393000Y34600D02*
X407000D01*
X400000Y27600D02*
Y41600D01*
X43000Y34600D02*
X57000D01*
X50000Y27600D02*
Y41600D01*
X43000Y85400D02*
X57000D01*
X50000Y78400D02*
Y92400D01*
X234470Y252730D02*
X237970D01*
X236220Y250980D02*
Y254480D01*
X196370Y331320D02*
X199870D01*
X198120Y329570D02*
Y333070D01*
M02*
