M48
;Layer_Color=9474304
;FILE_FORMAT=4:4
METRIC,LZ
;TYPE=PLATED
T1F00S00C0.3500
T2F00S00C0.9000
T3F00S00C1.2000
T4F00S00C1.4000
%
T01
X0023622Y0025273
X0019812Y0033132
T02
X0038481Y0020527
X0042164Y0024464
X0030019Y0021463
X0020019
X0013462Y0022051
X0008001
X0002794Y0022178
X0012827Y0012
X0017352Y0013716
X0027352
X0031496Y0012
Y0002
X0012827
X0013462Y0032051
X0014351Y0035513
X002032
X0025654Y0033227
X0025226Y0028448
X0035226
X0032512Y0035513
Y0045513
X0025654Y0043227
X002032Y0045513
X0014351
X0008001Y0032051
X0002794Y0032178
X0038481Y0030527
X0042164Y0034464
T03
X0015113Y0018542
X0017653
T04
X004Y000346
Y000854
X0005
Y000346
Y004046
Y004554
X004Y004654
Y004146
M30
