G04 Layer_Color=65535*
%FSLAX44Y44*%
%MOMM*%
G71*
G01*
G75*
%ADD16C,0.1000*%
%ADD34C,0.2000*%
%ADD35C,0.1524*%
%ADD36C,0.2500*%
%ADD37C,0.1270*%
%ADD38C,0.0500*%
%ADD39C,0.1500*%
%ADD40C,0.2540*%
%ADD41C,0.3000*%
D16*
X-50000Y-50000D02*
Y730000D01*
X950000D01*
Y-50000D02*
Y730000D01*
X-50000Y-50000D02*
X950000D01*
D34*
X168440Y434060D02*
G03*
X155740Y434060I-6350J0D01*
G01*
X196850Y63370D02*
G03*
X184150Y63370I-6350J0D01*
G01*
X3640Y358242D02*
G03*
X42998Y358929I19284J22981D01*
G01*
X74760Y163932D02*
G03*
X114118Y164619I19284J22981D01*
G01*
X53170Y533502D02*
G03*
X92528Y534189I19284J22981D01*
G01*
X725068Y182710D02*
G03*
X724381Y222068I-22981J19284D01*
G01*
X688170Y337922D02*
G03*
X727528Y338609I19284J22981D01*
G01*
X396350Y534000D02*
G03*
X383650Y534000I-6350J0D01*
G01*
Y396000D02*
G03*
X396350Y396000I6350J0D01*
G01*
X516350Y534000D02*
G03*
X503650Y534000I-6350J0D01*
G01*
Y396000D02*
G03*
X516350Y396000I6350J0D01*
G01*
X510438Y197950D02*
G03*
X509751Y237308I-22981J19284D01*
G01*
X482028Y420050D02*
G03*
X481341Y459408I-22981J19284D01*
G01*
X396240Y99100D02*
G03*
X383540Y99100I-6350J0D01*
G01*
X509168Y81110D02*
G03*
X508481Y120468I-22981J19284D01*
G01*
X510438Y125560D02*
G03*
X509751Y164918I-22981J19284D01*
G01*
X168440Y434060D02*
X188590D01*
X135590D02*
X155740D01*
X135590Y640060D02*
X188590D01*
Y434060D02*
Y640060D01*
X135590Y434060D02*
Y640060D01*
X196850Y63370D02*
X217000D01*
X164000D02*
X184150D01*
X164000Y269370D02*
X217000D01*
Y63370D02*
Y269370D01*
X164000Y63370D02*
Y269370D01*
X267970Y140970D02*
X293370D01*
Y64770D02*
Y140970D01*
X267970Y64770D02*
X293370D01*
X267970D02*
Y140970D01*
X265430Y191770D02*
X290830D01*
X265430D02*
Y242570D01*
X290830D01*
Y191770D02*
Y242570D01*
X128270Y-21590D02*
Y3810D01*
X204470D01*
Y-21590D02*
Y3810D01*
X128270Y-21590D02*
X204470D01*
X22860Y309230D02*
Y345480D01*
Y351480D02*
Y386480D01*
X2860Y345480D02*
X42860D01*
X-26670Y344170D02*
X-1270D01*
Y293370D02*
Y344170D01*
X-26670Y293370D02*
X-1270D01*
X-26670D02*
Y344170D01*
X130810Y367030D02*
Y392430D01*
X207010D01*
Y367030D02*
Y392430D01*
X130810Y367030D02*
X207010D01*
X237490Y511810D02*
X262890D01*
Y435610D02*
Y511810D01*
X237490Y435610D02*
X262890D01*
X237490D02*
Y511810D01*
X240030Y562610D02*
X265430D01*
X240030D02*
Y613410D01*
X265430D01*
Y562610D02*
Y613410D01*
X93980Y114920D02*
Y151170D01*
Y157170D02*
Y192170D01*
X73980Y151170D02*
X113980D01*
X72390Y484490D02*
Y520740D01*
Y526740D02*
Y561740D01*
X52390Y520740D02*
X92390D01*
X-4280Y385930D02*
Y570080D01*
Y589130D01*
X-29680D02*
X-4280D01*
X-29680Y385930D02*
Y589130D01*
Y385930D02*
X-4280D01*
X796010Y264750D02*
Y319550D01*
X735610Y264750D02*
Y319550D01*
X796010D01*
X735610Y264750D02*
X796010D01*
X106680Y-20320D02*
Y5080D01*
X55880Y-20320D02*
X106680D01*
X55880D02*
Y5080D01*
X106680D01*
X737830Y201930D02*
X774080D01*
X696830D02*
X731830D01*
X737830Y181930D02*
Y221930D01*
X707390Y288910D02*
Y325160D01*
Y331160D02*
Y366160D01*
X687390Y325160D02*
X727390D01*
X363500Y534000D02*
X383650D01*
X363500D02*
Y666000D01*
X416500D01*
X396350Y534000D02*
X416500D01*
Y666000D01*
X396350Y396000D02*
X416500D01*
Y264000D02*
Y396000D01*
X363500Y264000D02*
X416500D01*
X363500Y396000D02*
X383650D01*
X363500Y264000D02*
Y396000D01*
X483500Y534000D02*
X503650D01*
X483500D02*
Y666000D01*
X536500D01*
X516350Y534000D02*
X536500D01*
Y666000D01*
X516350Y396000D02*
X536500D01*
Y264000D02*
Y396000D01*
X483500Y264000D02*
X536500D01*
X483500Y396000D02*
X503650D01*
X483500Y264000D02*
Y396000D01*
X523200Y197170D02*
Y237170D01*
Y217170D02*
X559450D01*
X482200D02*
X517200D01*
X494790Y419270D02*
Y459270D01*
Y439270D02*
X531040D01*
X453790D02*
X488790D01*
X349250Y-22860D02*
Y2540D01*
X298450Y-22860D02*
X349250D01*
X298450D02*
Y2540D01*
X349250D01*
X363390Y99100D02*
X383540D01*
X363390D02*
Y231100D01*
X416390D01*
X396240Y99100D02*
X416390D01*
Y231100D01*
X521930Y80330D02*
Y120330D01*
Y100330D02*
X558180D01*
X480930D02*
X515930D01*
X523200Y124780D02*
Y164780D01*
Y144780D02*
X559450D01*
X482200D02*
X517200D01*
X911860Y158750D02*
X937260D01*
Y107950D02*
Y158750D01*
X911860Y107950D02*
X937260D01*
X911860D02*
Y158750D01*
X214630Y-22860D02*
X290830D01*
Y2540D01*
X214630D02*
X290830D01*
X214630Y-22860D02*
Y2540D01*
D35*
X644690Y542140D02*
G03*
X647230Y539600I2540J0D01*
G01*
Y559920D02*
G03*
X644690Y557380I0J-2540D01*
G01*
X695490D02*
G03*
X692950Y559920I-2540J0D01*
G01*
Y539600D02*
G03*
X695490Y542140I0J2540D01*
G01*
X232410Y284480D02*
G03*
X234950Y281940I2540J0D01*
G01*
Y302260D02*
G03*
X232410Y299720I0J-2540D01*
G01*
X283210D02*
G03*
X280670Y302260I-2540J0D01*
G01*
Y281940D02*
G03*
X283210Y284480I0J2540D01*
G01*
X353860Y678030D02*
G03*
X356400Y675490I2540J0D01*
G01*
Y695810D02*
G03*
X353860Y693270I0J-2540D01*
G01*
X404660D02*
G03*
X402120Y695810I-2540J0D01*
G01*
Y675490D02*
G03*
X404660Y678030I0J2540D01*
G01*
X535470Y488800D02*
G03*
X532930Y491340I-2540J0D01*
G01*
Y471020D02*
G03*
X535470Y473560I0J2540D01*
G01*
X484670D02*
G03*
X487210Y471020I2540J0D01*
G01*
Y491340D02*
G03*
X484670Y488800I0J-2540D01*
G01*
X612940Y468480D02*
G03*
X610400Y465940I0J-2540D01*
G01*
X630720D02*
G03*
X628180Y468480I-2540J0D01*
G01*
Y417680D02*
G03*
X630720Y420220I0J2540D01*
G01*
X610400D02*
G03*
X612940Y417680I2540J0D01*
G01*
X830580Y309880D02*
G03*
X828040Y312420I-2540J0D01*
G01*
Y261620D02*
G03*
X830580Y264160I0J2540D01*
G01*
X812800Y312420D02*
G03*
X810260Y309880I0J-2540D01*
G01*
Y264160D02*
G03*
X812800Y261620I2540J0D01*
G01*
X644690Y542140D02*
Y557380D01*
X647230Y559920D02*
X651040D01*
X647230Y539600D02*
X651040D01*
X652310Y558650D02*
X687870D01*
X651040Y559920D02*
X652310Y558650D01*
Y540870D02*
X687870D01*
X651040Y539600D02*
X652310Y540870D01*
X687870Y558650D02*
X689140Y559920D01*
X692950D01*
X687870Y540870D02*
X689140Y539600D01*
X692950D01*
X695490Y542140D02*
Y557380D01*
X232410Y284480D02*
Y299720D01*
X234950Y302260D02*
X238760D01*
X234950Y281940D02*
X238760D01*
X240030Y300990D02*
X275590D01*
X238760Y302260D02*
X240030Y300990D01*
Y283210D02*
X275590D01*
X238760Y281940D02*
X240030Y283210D01*
X275590Y300990D02*
X276860Y302260D01*
X280670D01*
X275590Y283210D02*
X276860Y281940D01*
X280670D01*
X283210Y284480D02*
Y299720D01*
X353860Y678030D02*
Y693270D01*
X356400Y695810D02*
X360210D01*
X356400Y675490D02*
X360210D01*
X361480Y694540D02*
X397040D01*
X360210Y695810D02*
X361480Y694540D01*
Y676760D02*
X397040D01*
X360210Y675490D02*
X361480Y676760D01*
X397040Y694540D02*
X398310Y695810D01*
X402120D01*
X397040Y676760D02*
X398310Y675490D01*
X402120D01*
X404660Y678030D02*
Y693270D01*
X535470Y473560D02*
Y488800D01*
X529120Y471020D02*
X532930D01*
X529120Y491340D02*
X532930D01*
X492290Y472290D02*
X527850D01*
X529120Y471020D01*
X492290Y490070D02*
X527850D01*
X529120Y491340D01*
X491020Y471020D02*
X492290Y472290D01*
X487210Y471020D02*
X491020D01*
Y491340D02*
X492290Y490070D01*
X487210Y491340D02*
X491020D01*
X484670Y473560D02*
Y488800D01*
X612940Y468480D02*
X628180D01*
X630720Y462130D02*
Y465940D01*
X610400Y462130D02*
Y465940D01*
X629450Y425300D02*
Y460860D01*
X630720Y462130D01*
X611670Y425300D02*
Y460860D01*
X610400Y462130D02*
X611670Y460860D01*
X629450Y425300D02*
X630720Y424030D01*
Y420220D02*
Y424030D01*
X610400D02*
X611670Y425300D01*
X610400Y420220D02*
Y424030D01*
X612940Y417680D02*
X628180D01*
X830580Y306070D02*
Y309880D01*
X829310Y304800D02*
X830580Y306070D01*
X829310Y269240D02*
X830580Y267970D01*
Y264160D02*
Y267970D01*
X829310Y269240D02*
Y304800D01*
X812800Y312420D02*
X828040D01*
X810260Y306070D02*
X811530Y304800D01*
X810260Y306070D02*
Y309880D01*
X811530Y269240D02*
Y304800D01*
X812800Y261620D02*
X828040D01*
X810260Y267970D02*
X811530Y269240D01*
X810260Y264160D02*
Y267970D01*
D36*
X736710Y257500D02*
G03*
X736710Y257500I-1250J0D01*
G01*
D37*
X318300Y576430D02*
Y615430D01*
Y537430D02*
Y576430D01*
X331000D01*
X305600D02*
X318300D01*
X305600Y589130D02*
X318300Y576430D01*
X305600Y589130D02*
X331000D01*
X318300Y576430D02*
X331000Y589130D01*
X305600Y576430D02*
Y582780D01*
X331000Y570080D02*
Y576430D01*
X347510Y431650D02*
X360210Y418950D01*
X347510Y406250D02*
Y431650D01*
X360210D02*
X366560D01*
X360210Y418950D02*
Y431650D01*
X321210Y418950D02*
X360210D01*
X347510Y406250D02*
X360210Y418950D01*
X399210D01*
X360210Y406250D02*
Y418950D01*
X353860Y406250D02*
X360210D01*
X511810Y190500D02*
X524510Y177800D01*
X511810Y165100D02*
Y190500D01*
X524510D02*
X530860D01*
X524510Y177800D02*
Y190500D01*
X485510Y177800D02*
X524510D01*
X511810Y165100D02*
X524510Y177800D01*
X563510D01*
X524510Y165100D02*
Y177800D01*
X518160Y165100D02*
X524510D01*
D38*
X622500Y604240D02*
X723700D01*
X622500D02*
Y696240D01*
X723700Y604240D02*
Y696240D01*
X622500D02*
X723700D01*
X725370Y46000D02*
X826570D01*
Y-46000D02*
Y46000D01*
X725370Y-46000D02*
Y46000D01*
Y-46000D02*
X826570D01*
X842210Y46000D02*
X943410D01*
Y-46000D02*
Y46000D01*
X842210Y-46000D02*
Y46000D01*
Y-46000D02*
X943410D01*
X712270D02*
Y46000D01*
X611070Y-46000D02*
X712270D01*
X611070D02*
Y46000D01*
X712270D01*
X376120D02*
X477320D01*
Y-46000D02*
Y46000D01*
X376120Y-46000D02*
Y46000D01*
Y-46000D02*
X477320D01*
X492960Y46000D02*
X594160D01*
Y-46000D02*
Y46000D01*
X492960Y-46000D02*
Y46000D01*
Y-46000D02*
X594160D01*
X853160Y223720D02*
Y324920D01*
X945160D01*
X853160Y223720D02*
X945160D01*
Y324920D01*
D39*
X5080Y420370D02*
Y430367D01*
X8412Y427034D01*
X11745Y430367D01*
Y420370D01*
X21741Y428701D02*
X20075Y430367D01*
X16743D01*
X15077Y428701D01*
Y422036D01*
X16743Y420370D01*
X20075D01*
X21741Y422036D01*
X25074Y430367D02*
Y422036D01*
X26740Y420370D01*
X30072D01*
X31738Y422036D01*
Y430367D01*
X35070Y425368D02*
X41735D01*
X45067Y430367D02*
Y423702D01*
X48399Y420370D01*
X51732Y423702D01*
Y430367D01*
X61728Y428701D02*
X60062Y430367D01*
X56730D01*
X55064Y428701D01*
Y422036D01*
X56730Y420370D01*
X60062D01*
X61728Y422036D01*
X71725Y428701D02*
X70059Y430367D01*
X66727D01*
X65061Y428701D01*
Y422036D01*
X66727Y420370D01*
X70059D01*
X71725Y422036D01*
X11745Y455767D02*
X5080D01*
Y445770D01*
X11745D01*
X5080Y450768D02*
X8412D01*
X15077Y445770D02*
Y455767D01*
X20075D01*
X21741Y454101D01*
Y450768D01*
X20075Y449102D01*
X15077D01*
X18409D02*
X21741Y445770D01*
X31738D02*
X25074D01*
X31738Y452435D01*
Y454101D01*
X30072Y455767D01*
X26740D01*
X25074Y454101D01*
X11745Y477357D02*
X5080D01*
Y467360D01*
X11745D01*
X5080Y472358D02*
X8412D01*
X15077Y467360D02*
Y477357D01*
X20075D01*
X21741Y475691D01*
Y472358D01*
X20075Y470692D01*
X15077D01*
X18409D02*
X21741Y467360D01*
X25074D02*
X28406D01*
X26740D01*
Y477357D01*
X25074Y475691D01*
X3810Y504027D02*
X7142D01*
X5476D01*
Y494030D01*
X3810D01*
X7142D01*
X12141D02*
Y504027D01*
X18805Y494030D01*
Y504027D01*
X22137D02*
Y497362D01*
X25470Y494030D01*
X28802Y497362D01*
Y504027D01*
X32134Y492364D02*
X38799D01*
X48795Y494030D02*
X42131D01*
X48795Y500695D01*
Y502361D01*
X47129Y504027D01*
X43797D01*
X42131Y502361D01*
X5080Y530697D02*
X8412D01*
X6746D01*
Y520700D01*
X5080D01*
X8412D01*
X13411D02*
Y530697D01*
X20075Y520700D01*
Y530697D01*
X23407D02*
Y524032D01*
X26740Y520700D01*
X30072Y524032D01*
Y530697D01*
X33404Y519034D02*
X40069D01*
X43401Y520700D02*
X46733D01*
X45067D01*
Y530697D01*
X43401Y529031D01*
X5080Y557367D02*
X8412D01*
X6746D01*
Y547370D01*
X5080D01*
X8412D01*
X13411D02*
Y557367D01*
X20075Y547370D01*
Y557367D01*
X23407Y552368D02*
X30072D01*
X33404Y557367D02*
Y547370D01*
X40069D01*
X5080Y581497D02*
X8412D01*
X6746D01*
Y571500D01*
X5080D01*
X8412D01*
X13411D02*
Y581497D01*
X20075Y571500D01*
Y581497D01*
X23407Y576498D02*
X30072D01*
X33404Y581497D02*
Y571500D01*
Y576498D01*
X40069D01*
Y581497D01*
Y571500D01*
X754380Y685096D02*
Y673100D01*
X760378D01*
X762377Y675099D01*
Y683097D01*
X760378Y685096D01*
X754380D01*
X766376D02*
Y677099D01*
X770375Y673100D01*
X774373Y677099D01*
Y685096D01*
X778372D02*
X786370D01*
X782371D01*
Y673100D01*
X802365Y685096D02*
Y673100D01*
X808363D01*
X810362Y675099D01*
Y683097D01*
X808363Y685096D01*
X802365D01*
X814361Y673100D02*
X818359D01*
X816360D01*
Y681097D01*
X814361D01*
X824357Y673100D02*
X830355D01*
X832355Y675099D01*
X830355Y677099D01*
X826357D01*
X824357Y679098D01*
X826357Y681097D01*
X832355D01*
X844351D02*
X838353D01*
X836354Y679098D01*
Y675099D01*
X838353Y673100D01*
X844351D01*
X848350Y681097D02*
Y673100D01*
Y677099D01*
X850349Y679098D01*
X852348Y681097D01*
X854348D01*
X866344Y673100D02*
X862345D01*
X860346Y675099D01*
Y679098D01*
X862345Y681097D01*
X866344D01*
X868343Y679098D01*
Y677099D01*
X860346D01*
X874341Y683097D02*
Y681097D01*
X872342D01*
X876340D01*
X874341D01*
Y675099D01*
X876340Y673100D01*
X888337D02*
X884338D01*
X882339Y675099D01*
Y679098D01*
X884338Y681097D01*
X888337D01*
X890336Y679098D01*
Y677099D01*
X882339D01*
X796290Y647700D02*
Y659696D01*
X802288D01*
X804287Y657697D01*
Y653698D01*
X802288Y651699D01*
X796290D01*
X808286Y647700D02*
Y659696D01*
X816283Y647700D01*
Y659696D01*
X820282Y647700D02*
X824281D01*
X822282D01*
Y659696D01*
X820282Y657697D01*
X830279D02*
X832278Y659696D01*
X836277D01*
X838276Y657697D01*
Y649699D01*
X836277Y647700D01*
X832278D01*
X830279Y649699D01*
Y657697D01*
X842275D02*
X844275Y659696D01*
X848273D01*
X850273Y657697D01*
Y649699D01*
X848273Y647700D01*
X844275D01*
X842275Y649699D01*
Y657697D01*
X854271D02*
X856271Y659696D01*
X860269D01*
X862269Y657697D01*
Y655697D01*
X860269Y653698D01*
X858270D01*
X860269D01*
X862269Y651699D01*
Y649699D01*
X860269Y647700D01*
X856271D01*
X854271Y649699D01*
X872265Y647700D02*
Y659696D01*
X866267Y653698D01*
X874265D01*
D40*
X66037Y351786D02*
X63498Y354325D01*
X58419D01*
X55880Y351786D01*
Y341629D01*
X58419Y339090D01*
X63498D01*
X66037Y341629D01*
X71115Y339090D02*
X76193D01*
X73654D01*
Y354325D01*
X71115Y351786D01*
X64132Y603119D02*
X61592Y605658D01*
X56514D01*
X53975Y603119D01*
Y592962D01*
X56514Y590423D01*
X61592D01*
X64132Y592962D01*
X79367Y590423D02*
X69210D01*
X79367Y600580D01*
Y603119D01*
X76828Y605658D01*
X71749D01*
X69210Y603119D01*
X85722Y233549D02*
X83182Y236088D01*
X78104D01*
X75565Y233549D01*
Y223392D01*
X78104Y220853D01*
X83182D01*
X85722Y223392D01*
X90800Y233549D02*
X93339Y236088D01*
X98418D01*
X100957Y233549D01*
Y231010D01*
X98418Y228470D01*
X95878D01*
X98418D01*
X100957Y225931D01*
Y223392D01*
X98418Y220853D01*
X93339D01*
X90800Y223392D01*
X601977Y105406D02*
X599437Y107945D01*
X594359D01*
X591820Y105406D01*
Y95249D01*
X594359Y92710D01*
X599437D01*
X601977Y95249D01*
X614673Y92710D02*
Y107945D01*
X607055Y100328D01*
X617212D01*
X605787Y144776D02*
X603247Y147315D01*
X598169D01*
X595630Y144776D01*
Y134619D01*
X598169Y132080D01*
X603247D01*
X605787Y134619D01*
X621022Y147315D02*
X610865D01*
Y139698D01*
X615943Y142237D01*
X618483D01*
X621022Y139698D01*
Y134619D01*
X618483Y132080D01*
X613404D01*
X610865Y134619D01*
X459267Y471016D02*
X456727Y473555D01*
X451649D01*
X449110Y471016D01*
Y460859D01*
X451649Y458320D01*
X456727D01*
X459267Y460859D01*
X474502Y473555D02*
X469423Y471016D01*
X464345Y465938D01*
Y460859D01*
X466884Y458320D01*
X471963D01*
X474502Y460859D01*
Y463398D01*
X471963Y465938D01*
X464345D01*
X601977Y222246D02*
X599437Y224785D01*
X594359D01*
X591820Y222246D01*
Y212089D01*
X594359Y209550D01*
X599437D01*
X601977Y212089D01*
X607055Y224785D02*
X617212D01*
Y222246D01*
X607055Y212089D01*
Y209550D01*
X599440Y186685D02*
Y171450D01*
X607057D01*
X609597Y173989D01*
Y184146D01*
X607057Y186685D01*
X599440D01*
X614675Y171450D02*
X619753D01*
X617214D01*
Y186685D01*
X614675Y184146D01*
X305854Y657959D02*
Y642724D01*
X313472D01*
X316011Y645263D01*
Y655420D01*
X313472Y657959D01*
X305854D01*
X331246Y642724D02*
X321089D01*
X331246Y652881D01*
Y655420D01*
X328707Y657959D01*
X323628D01*
X321089Y655420D01*
X336080Y458315D02*
Y443080D01*
X343698D01*
X346237Y445619D01*
Y455776D01*
X343698Y458315D01*
X336080D01*
X351315Y455776D02*
X353854Y458315D01*
X358933D01*
X361472Y455776D01*
Y453237D01*
X358933Y450698D01*
X356393D01*
X358933D01*
X361472Y448158D01*
Y445619D01*
X358933Y443080D01*
X353854D01*
X351315Y445619D01*
X243837Y26665D02*
X233680D01*
Y11430D01*
X243837D01*
X233680Y19047D02*
X238758D01*
X248915Y11430D02*
Y26665D01*
X259072Y11430D01*
Y26665D01*
X149857Y415285D02*
X139700D01*
Y400050D01*
X149857D01*
X139700Y407668D02*
X144778D01*
X154935Y400050D02*
Y415285D01*
X162553D01*
X165092Y412746D01*
Y407668D01*
X162553Y405128D01*
X154935D01*
X160013D02*
X165092Y400050D01*
X170170D02*
Y415285D01*
X177788D01*
X180327Y412746D01*
Y407668D01*
X177788Y405128D01*
X170170D01*
X175249D02*
X180327Y400050D01*
X185405D02*
X190484D01*
X187944D01*
Y415285D01*
X185405Y412746D01*
X148587Y31745D02*
X138430D01*
Y16510D01*
X148587D01*
X138430Y24128D02*
X143508D01*
X153665Y16510D02*
Y31745D01*
X161283D01*
X163822Y29206D01*
Y24128D01*
X161283Y21588D01*
X153665D01*
X158743D02*
X163822Y16510D01*
X168900D02*
Y31745D01*
X176518D01*
X179057Y29206D01*
Y24128D01*
X176518Y21588D01*
X168900D01*
X173979D02*
X179057Y16510D01*
X194292D02*
X184135D01*
X194292Y26667D01*
Y29206D01*
X191753Y31745D01*
X186674D01*
X184135Y29206D01*
X227330Y537205D02*
X232408D01*
X229869D01*
Y521970D01*
X227330D01*
X232408D01*
X240026D02*
Y537205D01*
X250183Y521970D01*
Y537205D01*
X255261D02*
Y527048D01*
X260339Y521970D01*
X265418Y527048D01*
Y537205D01*
X270496Y529588D02*
X280653D01*
X285731Y521970D02*
X290809D01*
X288270D01*
Y537205D01*
X285731Y534666D01*
X256540Y165095D02*
X261618D01*
X259079D01*
Y149860D01*
X256540D01*
X261618D01*
X269236D02*
Y165095D01*
X279393Y149860D01*
Y165095D01*
X284471D02*
Y154938D01*
X289549Y149860D01*
X294628Y154938D01*
Y165095D01*
X299706Y157478D02*
X309863D01*
X325098Y149860D02*
X314941D01*
X325098Y160017D01*
Y162556D01*
X322559Y165095D01*
X317480D01*
X314941Y162556D01*
X-36830Y265430D02*
Y280665D01*
X-31752Y275587D01*
X-26673Y280665D01*
Y265430D01*
X-11438Y278126D02*
X-13977Y280665D01*
X-19056D01*
X-21595Y278126D01*
Y267969D01*
X-19056Y265430D01*
X-13977D01*
X-11438Y267969D01*
X-6360Y280665D02*
Y267969D01*
X-3821Y265430D01*
X1258D01*
X3797Y267969D01*
Y280665D01*
X8875Y273048D02*
X19032D01*
X24110Y280665D02*
Y270508D01*
X29189Y265430D01*
X34267Y270508D01*
Y280665D01*
X49502Y278126D02*
X46963Y280665D01*
X41884D01*
X39345Y278126D01*
Y267969D01*
X41884Y265430D01*
X46963D01*
X49502Y267969D01*
X64737Y278126D02*
X62198Y280665D01*
X57120D01*
X54580Y278126D01*
Y267969D01*
X57120Y265430D01*
X62198D01*
X64737Y267969D01*
X-28156Y597766D02*
Y613001D01*
X-23078Y607923D01*
X-17999Y613001D01*
Y597766D01*
X-2764Y610462D02*
X-5303Y613001D01*
X-10382D01*
X-12921Y610462D01*
Y600305D01*
X-10382Y597766D01*
X-5303D01*
X-2764Y600305D01*
X2314Y613001D02*
Y600305D01*
X4853Y597766D01*
X9932D01*
X12471Y600305D01*
Y613001D01*
X227330Y624840D02*
Y640075D01*
X237487Y624840D01*
Y640075D01*
X242565Y622301D02*
X252722D01*
X257800Y624840D02*
Y640075D01*
X265418D01*
X267957Y637536D01*
Y632458D01*
X265418Y629918D01*
X257800D01*
X273035Y632458D02*
X283192D01*
X288270Y624840D02*
X293349D01*
X290809D01*
Y640075D01*
X288270Y637536D01*
X259080Y254000D02*
Y269235D01*
X269237Y254000D01*
Y269235D01*
X274315Y251461D02*
X284472D01*
X289550Y254000D02*
Y269235D01*
X297168D01*
X299707Y266696D01*
Y261618D01*
X297168Y259078D01*
X289550D01*
X304785Y261618D02*
X314942D01*
X330177Y254000D02*
X320020D01*
X330177Y264157D01*
Y266696D01*
X327638Y269235D01*
X322560D01*
X320020Y266696D01*
X290830Y12700D02*
Y27935D01*
X298447D01*
X300987Y25396D01*
Y20317D01*
X298447Y17778D01*
X290830D01*
X306065Y12700D02*
Y22857D01*
X311143Y27935D01*
X316222Y22857D01*
Y12700D01*
Y20317D01*
X306065D01*
X321300D02*
X331457D01*
X346692Y27935D02*
X336535D01*
Y12700D01*
X346692D01*
X336535Y20317D02*
X341614D01*
X351770Y12700D02*
Y27935D01*
X361927Y12700D01*
Y27935D01*
X519430Y55880D02*
Y71115D01*
X527048D01*
X529587Y68576D01*
Y63498D01*
X527048Y60958D01*
X519430D01*
X534665Y71115D02*
Y60958D01*
X539743Y55880D01*
X544822Y60958D01*
Y71115D01*
X560057Y68576D02*
X557518Y71115D01*
X552439D01*
X549900Y68576D01*
Y58419D01*
X552439Y55880D01*
X557518D01*
X560057Y58419D01*
X575292Y68576D02*
X572753Y71115D01*
X567674D01*
X565135Y68576D01*
Y58419D01*
X567674Y55880D01*
X572753D01*
X575292Y58419D01*
X438947Y519279D02*
Y529436D01*
X436408Y531975D01*
X431329D01*
X428790Y529436D01*
Y519279D01*
X431329Y516740D01*
X436408D01*
X433868Y521818D02*
X438947Y516740D01*
X436408D02*
X438947Y519279D01*
X444025Y516740D02*
X449103D01*
X446564D01*
Y531975D01*
X444025Y529436D01*
X559597Y526899D02*
Y537056D01*
X557057Y539595D01*
X551979D01*
X549440Y537056D01*
Y526899D01*
X551979Y524360D01*
X557057D01*
X554518Y529438D02*
X559597Y524360D01*
X557057D02*
X559597Y526899D01*
X574832Y524360D02*
X564675D01*
X574832Y534517D01*
Y537056D01*
X572293Y539595D01*
X567214D01*
X564675Y537056D01*
X323377Y387199D02*
Y397356D01*
X320838Y399895D01*
X315759D01*
X313220Y397356D01*
Y387199D01*
X315759Y384660D01*
X320838D01*
X318298Y389738D02*
X323377Y384660D01*
X320838D02*
X323377Y387199D01*
X328455Y397356D02*
X330994Y399895D01*
X336073D01*
X338612Y397356D01*
Y394817D01*
X336073Y392277D01*
X333533D01*
X336073D01*
X338612Y389738D01*
Y387199D01*
X336073Y384660D01*
X330994D01*
X328455Y387199D01*
X455457Y393549D02*
Y403706D01*
X452918Y406245D01*
X447839D01*
X445300Y403706D01*
Y393549D01*
X447839Y391010D01*
X452918D01*
X450378Y396088D02*
X455457Y391010D01*
X452918D02*
X455457Y393549D01*
X468153Y391010D02*
Y406245D01*
X460535Y398628D01*
X470692D01*
X432267Y89049D02*
Y99206D01*
X429728Y101745D01*
X424649D01*
X422110Y99206D01*
Y89049D01*
X424649Y86510D01*
X429728D01*
X427188Y91588D02*
X432267Y86510D01*
X429728D02*
X432267Y89049D01*
X447502Y101745D02*
X437345D01*
Y94128D01*
X442423Y96667D01*
X444963D01*
X447502Y94128D01*
Y89049D01*
X444963Y86510D01*
X439884D01*
X437345Y89049D01*
X499910Y506580D02*
Y521815D01*
X507528D01*
X510067Y519276D01*
Y514198D01*
X507528Y511658D01*
X499910D01*
X504988D02*
X510067Y506580D01*
X515145D02*
X520223D01*
X517684D01*
Y521815D01*
X515145Y519276D01*
X643420Y440540D02*
Y455775D01*
X651038D01*
X653577Y453236D01*
Y448158D01*
X651038Y445618D01*
X643420D01*
X648498D02*
X653577Y440540D01*
X668812D02*
X658655D01*
X668812Y450697D01*
Y453236D01*
X666273Y455775D01*
X661194D01*
X658655Y453236D01*
X645160Y566420D02*
Y581655D01*
X652777D01*
X655317Y579116D01*
Y574038D01*
X652777Y571498D01*
X645160D01*
X650238D02*
X655317Y566420D01*
X660395Y574038D02*
X670552D01*
X685787Y581655D02*
X675630D01*
Y566420D01*
X685787D01*
X675630Y574038D02*
X680708D01*
X690865Y566420D02*
Y576577D01*
X698483D01*
X701022Y574038D01*
Y566420D01*
X716257Y581655D02*
Y566420D01*
X708640D01*
X706100Y568959D01*
Y574038D01*
X708640Y576577D01*
X716257D01*
X322364Y704192D02*
Y719427D01*
X329981D01*
X332521Y716888D01*
Y711809D01*
X329981Y709270D01*
X322364D01*
X327442D02*
X332521Y704192D01*
X337599Y711809D02*
X347756D01*
X362991Y716888D02*
X360452Y719427D01*
X355373D01*
X352834Y716888D01*
Y706731D01*
X355373Y704192D01*
X360452D01*
X362991Y706731D01*
Y711809D01*
X357912D01*
X370608Y714349D02*
X375687D01*
X378226Y711809D01*
Y704192D01*
X370608D01*
X368069Y706731D01*
X370608Y709270D01*
X378226D01*
X385844Y716888D02*
Y714349D01*
X383304D01*
X388383D01*
X385844D01*
Y706731D01*
X388383Y704192D01*
X403618D02*
X398539D01*
X396000Y706731D01*
Y711809D01*
X398539Y714349D01*
X403618D01*
X406157Y711809D01*
Y709270D01*
X396000D01*
X411235Y711809D02*
X421392D01*
X426470Y719427D02*
Y704192D01*
Y711809D01*
X436627D01*
Y719427D01*
Y704192D01*
X201130Y307490D02*
Y322725D01*
X208748D01*
X211287Y320186D01*
Y315107D01*
X208748Y312568D01*
X201130D01*
X206208D02*
X211287Y307490D01*
X216365Y315107D02*
X226522D01*
X241757Y320186D02*
X239218Y322725D01*
X234139D01*
X231600Y320186D01*
Y310029D01*
X234139Y307490D01*
X239218D01*
X241757Y310029D01*
Y315107D01*
X236679D01*
X249374Y317647D02*
X254453D01*
X256992Y315107D01*
Y307490D01*
X249374D01*
X246835Y310029D01*
X249374Y312568D01*
X256992D01*
X264610Y320186D02*
Y317647D01*
X262070D01*
X267149D01*
X264610D01*
Y310029D01*
X267149Y307490D01*
X282384D02*
X277305D01*
X274766Y310029D01*
Y315107D01*
X277305Y317647D01*
X282384D01*
X284923Y315107D01*
Y312568D01*
X274766D01*
X290001Y315107D02*
X300158D01*
X305236Y322725D02*
Y307490D01*
X315393D01*
X670560Y721355D02*
X680717D01*
X675638D01*
Y706120D01*
X685795Y721355D02*
X695952Y706120D01*
Y721355D02*
X685795Y706120D01*
X195580Y435605D02*
Y422909D01*
X198119Y420370D01*
X203197D01*
X205737Y422909D01*
Y435605D01*
X210815Y420370D02*
X215893D01*
X213354D01*
Y435605D01*
X210815Y433066D01*
X214630Y58415D02*
Y45719D01*
X217169Y43180D01*
X222248D01*
X224787Y45719D01*
Y58415D01*
X240022Y43180D02*
X229865D01*
X240022Y53337D01*
Y55876D01*
X237483Y58415D01*
X232404D01*
X229865Y55876D01*
X408940Y74925D02*
Y64768D01*
X414018Y59690D01*
X419097Y64768D01*
Y74925D01*
X434332Y72386D02*
X431793Y74925D01*
X426714D01*
X424175Y72386D01*
Y62229D01*
X426714Y59690D01*
X431793D01*
X434332Y62229D01*
X449567Y72386D02*
X447028Y74925D01*
X441949D01*
X439410Y72386D01*
Y62229D01*
X441949Y59690D01*
X447028D01*
X449567Y62229D01*
X792480Y365760D02*
Y380995D01*
X800098D01*
X802637Y378456D01*
Y373377D01*
X800098Y370838D01*
X792480D01*
X797558D02*
X802637Y365760D01*
X807715Y363221D02*
X817872D01*
X822950Y365760D02*
Y380995D01*
X830568D01*
X833107Y378456D01*
Y373377D01*
X830568Y370838D01*
X822950D01*
X828028D02*
X833107Y365760D01*
X845803D02*
X840724D01*
X838185Y368299D01*
Y373377D01*
X840724Y375917D01*
X845803D01*
X848342Y373377D01*
Y370838D01*
X838185D01*
X863577Y375917D02*
X855959D01*
X853420Y373377D01*
Y368299D01*
X855959Y365760D01*
X863577D01*
X868655Y373377D02*
X878812D01*
X894047Y380995D02*
X883890D01*
Y365760D01*
X894047D01*
X883890Y373377D02*
X888969D01*
X899126Y365760D02*
Y375917D01*
X906743D01*
X909282Y373377D01*
Y365760D01*
X924517Y380995D02*
Y365760D01*
X916900D01*
X914361Y368299D01*
Y373377D01*
X916900Y375917D01*
X924517D01*
X869950Y330200D02*
Y345435D01*
X877568D01*
X880107Y342896D01*
Y337817D01*
X877568Y335278D01*
X869950D01*
X875028D02*
X880107Y330200D01*
X885185Y345435D02*
X895342Y330200D01*
Y345435D02*
X885185Y330200D01*
X735457Y377820D02*
Y365124D01*
X737996Y362585D01*
X743074D01*
X745614Y365124D01*
Y377820D01*
X750692Y375281D02*
X753231Y377820D01*
X758310D01*
X760849Y375281D01*
Y372742D01*
X758310Y370202D01*
X755770D01*
X758310D01*
X760849Y367663D01*
Y365124D01*
X758310Y362585D01*
X753231D01*
X750692Y365124D01*
X699132Y407539D02*
X696592Y410078D01*
X691514D01*
X688975Y407539D01*
Y397382D01*
X691514Y394843D01*
X696592D01*
X699132Y397382D01*
X704210Y407539D02*
X706749Y410078D01*
X711828D01*
X714367Y407539D01*
Y405000D01*
X711828Y402461D01*
X714367Y399921D01*
Y397382D01*
X711828Y394843D01*
X706749D01*
X704210Y397382D01*
Y399921D01*
X706749Y402461D01*
X704210Y405000D01*
Y407539D01*
X706749Y402461D02*
X711828D01*
X688629Y243432D02*
X686089Y245971D01*
X681011D01*
X678472Y243432D01*
Y233275D01*
X681011Y230736D01*
X686089D01*
X688629Y233275D01*
X693707D02*
X696246Y230736D01*
X701325D01*
X703864Y233275D01*
Y243432D01*
X701325Y245971D01*
X696246D01*
X693707Y243432D01*
Y240893D01*
X696246Y238354D01*
X703864D01*
X906777Y182875D02*
X901699D01*
X899160Y180336D01*
Y170179D01*
X901699Y167640D01*
X906777D01*
X909317Y170179D01*
Y180336D01*
X906777Y182875D01*
X914395D02*
Y170179D01*
X916934Y167640D01*
X922013D01*
X924552Y170179D01*
Y182875D01*
X929630D02*
X939787D01*
X934708D01*
Y167640D01*
X864870Y74925D02*
Y64768D01*
X869948Y59690D01*
X875027Y64768D01*
Y74925D01*
X880105D02*
Y59690D01*
X887723D01*
X890262Y62229D01*
Y72386D01*
X887723Y74925D01*
X880105D01*
X895340D02*
Y59690D01*
X902958D01*
X905497Y62229D01*
Y72386D01*
X902958Y74925D01*
X895340D01*
X910575Y59690D02*
Y69847D01*
X915654Y74925D01*
X920732Y69847D01*
Y59690D01*
Y67308D01*
X910575D01*
X57442Y29055D02*
Y18898D01*
X62520Y13820D01*
X67599Y18898D01*
Y29055D01*
X72677D02*
Y13820D01*
X80295D01*
X82834Y16359D01*
Y26516D01*
X80295Y29055D01*
X72677D01*
X87912D02*
Y13820D01*
X95530D01*
X98069Y16359D01*
Y26516D01*
X95530Y29055D01*
X87912D01*
X103147D02*
Y13820D01*
X110765D01*
X113304Y16359D01*
Y26516D01*
X110765Y29055D01*
X103147D01*
X753110Y76195D02*
Y66038D01*
X758188Y60960D01*
X763267Y66038D01*
Y76195D01*
X768345D02*
Y60960D01*
X775963D01*
X778502Y63499D01*
Y73656D01*
X775963Y76195D01*
X768345D01*
X783580D02*
Y60960D01*
X791198D01*
X793737Y63499D01*
Y73656D01*
X791198Y76195D01*
X783580D01*
X623567Y74926D02*
X621027Y77465D01*
X615949D01*
X613410Y74926D01*
Y64769D01*
X615949Y62230D01*
X621027D01*
X623567Y64769D01*
Y69847D01*
X618488D01*
X628645Y62230D02*
Y77465D01*
X638802Y62230D01*
Y77465D01*
X643880D02*
Y62230D01*
X651498D01*
X654037Y64769D01*
Y74926D01*
X651498Y77465D01*
X643880D01*
X659115Y69847D02*
X669272D01*
X674350Y77465D02*
X679429D01*
X676889D01*
Y62230D01*
X674350D01*
X679429D01*
X687046D02*
X694664D01*
X697203Y64769D01*
X694664Y67308D01*
X689585D01*
X687046Y69847D01*
X689585Y72387D01*
X697203D01*
X704820Y62230D02*
X709899D01*
X712438Y64769D01*
Y69847D01*
X709899Y72387D01*
X704820D01*
X702281Y69847D01*
Y64769D01*
X704820Y62230D01*
D41*
X753110Y715224D02*
X765106D01*
X759108D01*
Y697230D01*
X771104Y715224D02*
Y697230D01*
X780101D01*
X783100Y700229D01*
Y712225D01*
X780101Y715224D01*
X771104D01*
X801095D02*
X789098D01*
Y697230D01*
X801095D01*
X789098Y706227D02*
X795096D01*
X837083Y712225D02*
X834084Y715224D01*
X828086D01*
X825087Y712225D01*
Y700229D01*
X828086Y697230D01*
X834084D01*
X837083Y700229D01*
Y706227D01*
X831085D01*
X843081Y709226D02*
Y697230D01*
Y703228D01*
X846080Y706227D01*
X849079Y709226D01*
X852078D01*
X864074Y697230D02*
X870072D01*
X873071Y700229D01*
Y706227D01*
X870072Y709226D01*
X864074D01*
X861075Y706227D01*
Y700229D01*
X864074Y697230D01*
X879069Y709226D02*
Y700229D01*
X882068Y697230D01*
X891065D01*
Y709226D01*
X897063Y691232D02*
Y709226D01*
X906060D01*
X909060Y706227D01*
Y700229D01*
X906060Y697230D01*
X897063D01*
M02*
