G04 Layer_Physical_Order=1*
G04 Layer_Color=255*
%FSLAX44Y44*%
%MOMM*%
G71*
G01*
G75*
%ADD10O,0.6000X3.0000*%
%ADD11R,0.6000X3.0000*%
%ADD12C,1.0000*%
%ADD13C,1.5000*%
%ADD14C,0.6000*%
%ADD15C,0.8000*%
%ADD16C,0.1000*%
%ADD17R,1.5000X1.5000*%
%ADD18C,1.5000*%
%ADD19C,1.7000*%
%ADD20C,1.5000*%
%ADD21R,1.5000X1.5000*%
%ADD22R,1.8000X1.8000*%
%ADD23C,1.8000*%
%ADD24R,1.5000X1.5000*%
%ADD25C,1.5240*%
%ADD26R,1.5240X1.5240*%
%ADD27R,1.8000X1.8000*%
%ADD28R,2.4000X2.4000*%
%ADD29C,2.4000*%
%ADD30R,1.5240X1.5240*%
%ADD31C,3.0000*%
%ADD32R,2.4000X2.4000*%
%ADD33C,1.2700*%
G36*
X436819Y554431D02*
X435890Y554324D01*
X434836Y554006D01*
X433655Y553476D01*
X432350Y552733D01*
X430919Y551779D01*
X429362Y550612D01*
X425872Y547642D01*
X421880Y543824D01*
X411274Y554431D01*
X413289Y556489D01*
X418062Y561912D01*
X419229Y563469D01*
X420183Y564900D01*
X420926Y566205D01*
X421456Y567386D01*
X421774Y568440D01*
X421880Y569370D01*
X436819Y554431D01*
D02*
G37*
G36*
X117384Y468310D02*
X117292Y468358D01*
X117116Y468400D01*
X116855Y468438D01*
X116078Y468498D01*
X113505Y468558D01*
X112650Y468560D01*
Y478560D01*
X117384Y478810D01*
Y468310D01*
D02*
G37*
G36*
X78453Y479252D02*
X78756Y479107D01*
X79141Y478979D01*
X79607Y478867D01*
X80155Y478774D01*
X81496Y478637D01*
X83163Y478568D01*
X84119Y478560D01*
X84586Y468560D01*
X83633Y468550D01*
X81258Y468394D01*
X80628Y468301D01*
X80077Y468187D01*
X79607Y468052D01*
X79218Y467896D01*
X78909Y467720D01*
X78680Y467523D01*
X78232Y479414D01*
X78453Y479252D01*
D02*
G37*
G36*
X72305Y464740D02*
X72017Y464708D01*
X71686Y464605D01*
X71310Y464431D01*
X70891Y464186D01*
X70428Y463871D01*
X69922Y463486D01*
X68778Y462503D01*
X67459Y461238D01*
X60388Y468309D01*
X61056Y468990D01*
X63021Y471278D01*
X63336Y471741D01*
X63581Y472160D01*
X63755Y472536D01*
X63858Y472867D01*
X63890Y473155D01*
X72305Y464740D01*
D02*
G37*
G36*
X-17070Y440430D02*
X-17452Y440397D01*
X-17872Y440290D01*
X-18328Y440110D01*
X-18821Y439856D01*
X-19351Y439528D01*
X-19918Y439127D01*
X-21163Y438103D01*
X-21840Y437481D01*
X-22554Y436785D01*
X-29625Y443856D01*
X-28929Y444570D01*
X-27283Y446492D01*
X-26882Y447059D01*
X-26554Y447589D01*
X-26300Y448082D01*
X-26120Y448538D01*
X-26013Y448957D01*
X-25980Y449340D01*
X-17070Y440430D01*
D02*
G37*
G36*
X77045Y400600D02*
X77233Y400525D01*
X77487Y400458D01*
X77807Y400400D01*
X78195Y400351D01*
X79169Y400280D01*
X81132Y400240D01*
Y392240D01*
X80411Y392235D01*
X77807Y392080D01*
X77487Y392022D01*
X77233Y391955D01*
X77045Y391880D01*
X76925Y391795D01*
Y400685D01*
X77045Y400600D01*
D02*
G37*
G36*
X188484Y391269D02*
X191429Y388774D01*
X192731Y387866D01*
X193919Y387184D01*
X194994Y386729D01*
X195954Y386499D01*
X196801Y386496D01*
X197535Y386720D01*
X198154Y387169D01*
X186871Y375886D01*
X187320Y376505D01*
X187544Y377239D01*
X187541Y378086D01*
X187311Y379046D01*
X186856Y380121D01*
X186174Y381309D01*
X185266Y382611D01*
X184131Y384027D01*
X181184Y387200D01*
X186840Y392856D01*
X188484Y391269D01*
D02*
G37*
G36*
X150405Y348615D02*
X150285Y348700D01*
X150097Y348775D01*
X149843Y348842D01*
X149523Y348900D01*
X149135Y348949D01*
X148161Y349020D01*
X146198Y349060D01*
Y357060D01*
X146919Y357065D01*
X149523Y357220D01*
X149843Y357278D01*
X150097Y357345D01*
X150285Y357420D01*
X150405Y357505D01*
Y348615D01*
D02*
G37*
G36*
X111335Y357420D02*
X111523Y357345D01*
X111777Y357278D01*
X112097Y357220D01*
X112485Y357171D01*
X113459Y357100D01*
X115422Y357060D01*
Y349060D01*
X114701Y349055D01*
X112097Y348900D01*
X111777Y348842D01*
X111523Y348775D01*
X111335Y348700D01*
X111215Y348615D01*
Y357505D01*
X111335Y357420D01*
D02*
G37*
G36*
X-5566Y310465D02*
X-5849Y309546D01*
Y308485D01*
X-5566Y307283D01*
X-5001Y305939D01*
X-4152Y304454D01*
X-3021Y302828D01*
X-1606Y301060D01*
X2071Y297101D01*
X-5001Y290029D01*
X-7051Y292009D01*
X-10728Y295121D01*
X-12354Y296252D01*
X-13839Y297101D01*
X-15183Y297666D01*
X-16385Y297949D01*
X-17446D01*
X-18365Y297666D01*
X-19143Y297101D01*
X-5001Y311243D01*
X-5566Y310465D01*
D02*
G37*
G36*
X470575Y284400D02*
X470477Y284369D01*
X470322Y284275D01*
X470111Y284116D01*
X469519Y283609D01*
X467657Y281833D01*
X467051Y281230D01*
X459980Y288301D01*
X463150Y291825D01*
X470575Y284400D01*
D02*
G37*
G36*
X358181Y291727D02*
X358275Y291572D01*
X358433Y291361D01*
X358941Y290769D01*
X360717Y288907D01*
X361320Y288301D01*
X354249Y281230D01*
X350725Y284400D01*
X358150Y291825D01*
X358181Y291727D01*
D02*
G37*
G36*
X236250Y301570D02*
X236700Y299020D01*
X237450Y296770D01*
X238500Y294820D01*
X239850Y293170D01*
X241500Y291820D01*
X243450Y290770D01*
X245700Y290020D01*
X248250Y289570D01*
X251100Y289420D01*
X246707Y274420D01*
X243750Y274314D01*
X240882Y273996D01*
X238102Y273465D01*
X235410Y272723D01*
X232805Y271768D01*
X230288Y270602D01*
X227859Y269223D01*
X225518Y267632D01*
X223265Y265829D01*
X221100Y263813D01*
X210493Y274420D01*
X212509Y276585D01*
X214312Y278838D01*
X215903Y281179D01*
X217282Y283608D01*
X218448Y286125D01*
X219403Y288729D01*
X220145Y291422D01*
X220676Y294202D01*
X220994Y297071D01*
X221100Y300027D01*
X236100Y304420D01*
X236250Y301570D01*
D02*
G37*
G36*
X55800Y270510D02*
X45800Y255510D01*
X45700Y257410D01*
X45400Y259110D01*
X44900Y260610D01*
X44200Y261910D01*
X43300Y263010D01*
X42200Y263910D01*
X40900Y264610D01*
X39400Y265110D01*
X37700Y265410D01*
X35800Y265510D01*
Y275510D01*
X37700Y275610D01*
X39400Y275910D01*
X40900Y276410D01*
X42200Y277110D01*
X43300Y278010D01*
X44200Y279110D01*
X44900Y280410D01*
X45400Y281910D01*
X45700Y283610D01*
X45800Y285510D01*
X55800Y270510D01*
D02*
G37*
G36*
X350465Y195700D02*
X350367Y195669D01*
X350212Y195575D01*
X350001Y195417D01*
X349409Y194909D01*
X347547Y193133D01*
X346941Y192530D01*
X339870Y199601D01*
X343040Y203125D01*
X350465Y195700D01*
D02*
G37*
G36*
X156353Y122823D02*
X156310Y122646D01*
X156272Y122385D01*
X156213Y121608D01*
X156152Y119035D01*
X156150Y118180D01*
X146150D01*
X145900Y122914D01*
X156400D01*
X156353Y122823D01*
D02*
G37*
G36*
X156400Y108226D02*
X145900D01*
X145948Y108317D01*
X145990Y108494D01*
X146027Y108755D01*
X146088Y109532D01*
X146147Y112105D01*
X146150Y112960D01*
X156150D01*
X156400Y108226D01*
D02*
G37*
G36*
X89730Y115004D02*
X92018Y113039D01*
X92481Y112724D01*
X92900Y112479D01*
X93275Y112305D01*
X93607Y112202D01*
X93895Y112170D01*
X85480Y103755D01*
X85448Y104043D01*
X85345Y104375D01*
X85171Y104750D01*
X84926Y105169D01*
X84611Y105632D01*
X84226Y106138D01*
X83243Y107282D01*
X81978Y108601D01*
X89049Y115672D01*
X89730Y115004D01*
D02*
G37*
G36*
X145794Y97620D02*
X145702Y97668D01*
X145526Y97710D01*
X145265Y97747D01*
X144488Y97808D01*
X141915Y97867D01*
X141060Y97870D01*
Y107870D01*
X145794Y108120D01*
Y97620D01*
D02*
G37*
G36*
X100810Y108803D02*
X101118Y108608D01*
X101505Y108435D01*
X101973Y108285D01*
X102522Y108158D01*
X103151Y108054D01*
X104649Y107916D01*
X106470Y107870D01*
X107542Y97870D01*
X106155Y97863D01*
X100536Y97529D01*
X100050Y97425D01*
X99692Y97307D01*
X99463Y97175D01*
X100583Y109022D01*
X100810Y108803D01*
D02*
G37*
G36*
X158681Y102697D02*
X158775Y102542D01*
X158933Y102331D01*
X159440Y101739D01*
X161217Y99877D01*
X161820Y99271D01*
X154749Y92200D01*
X151225Y95370D01*
X158650Y102795D01*
X158681Y102697D01*
D02*
G37*
G36*
X236850Y69900D02*
X236430Y69601D01*
X236060Y69100D01*
X235739Y68401D01*
X235467Y67501D01*
X235245Y66400D01*
X235072Y65100D01*
X234875Y61901D01*
X234850Y60001D01*
X224850D01*
X224825Y61901D01*
X224455Y66400D01*
X224233Y67501D01*
X223961Y68401D01*
X223640Y69100D01*
X223270Y69601D01*
X222850Y69900D01*
X222381Y70001D01*
X237320D01*
X236850Y69900D01*
D02*
G37*
G36*
X576505Y24120D02*
X576862Y19319D01*
X577175Y17370D01*
X577577Y15719D01*
X578069Y14369D01*
X578650Y13319D01*
X579320Y12570D01*
X580080Y12119D01*
X580929Y11969D01*
X556991D01*
X557840Y12119D01*
X558600Y12570D01*
X559270Y13319D01*
X559851Y14369D01*
X560343Y15719D01*
X560745Y17370D01*
X561058Y19319D01*
X561281Y21569D01*
X561460Y26969D01*
X576460D01*
X576505Y24120D01*
D02*
G37*
G36*
X457150D02*
X457360Y21569D01*
X457711Y19319D01*
X458201Y17370D01*
X458832Y15719D01*
X459603Y14369D01*
X460515Y13319D01*
X461566Y12570D01*
X462758Y12119D01*
X464090Y11969D01*
X440150D01*
X440517Y12119D01*
X440845Y12570D01*
X441134Y13319D01*
X441385Y14369D01*
X441598Y15719D01*
X441906Y19319D01*
X442061Y24120D01*
X442080Y26969D01*
X457080D01*
X457150Y24120D01*
D02*
G37*
G36*
X525669Y15207D02*
X525984Y10273D01*
X526101Y9660D01*
X526236Y9172D01*
X526389Y8809D01*
X526560Y8570D01*
X509760D01*
X509931Y8809D01*
X510084Y9172D01*
X510219Y9660D01*
X510336Y10273D01*
X510435Y11010D01*
X510579Y12859D01*
X510660Y16567D01*
X525660D01*
X525669Y15207D01*
D02*
G37*
G36*
X344065Y10960D02*
X344770Y159D01*
X344991Y-591D01*
X345240Y-1041D01*
X345519Y-1191D01*
X327580D01*
X327860Y-1041D01*
X328110Y-591D01*
X328330Y159D01*
X328521Y1209D01*
X328683Y2560D01*
X328918Y6159D01*
X329050Y13809D01*
X344050D01*
X344065Y10960D01*
D02*
G37*
G36*
X177040Y-5291D02*
X173870Y-8815D01*
X166445Y-1390D01*
X166543Y-1359D01*
X166698Y-1265D01*
X166909Y-1107D01*
X167501Y-599D01*
X169363Y1177D01*
X169969Y1780D01*
X177040Y-5291D01*
D02*
G37*
G36*
X151640D02*
X148470Y-8815D01*
X141045Y-1390D01*
X141143Y-1359D01*
X141298Y-1265D01*
X141509Y-1107D01*
X142101Y-599D01*
X143963Y1177D01*
X144569Y1780D01*
X151640Y-5291D01*
D02*
G37*
G36*
X263400Y-6561D02*
X260230Y-10085D01*
X252805Y-2660D01*
X252903Y-2629D01*
X253058Y-2535D01*
X253269Y-2377D01*
X253861Y-1869D01*
X255723Y-93D01*
X256329Y510D01*
X263400Y-6561D01*
D02*
G37*
G36*
X238000D02*
X234830Y-10085D01*
X227405Y-2660D01*
X227503Y-2629D01*
X227658Y-2535D01*
X227869Y-2377D01*
X228461Y-1869D01*
X230323Y-93D01*
X230929Y510D01*
X238000Y-6561D01*
D02*
G37*
G36*
X198443Y-16359D02*
X197665Y-15794D01*
X196746Y-15511D01*
X195685D01*
X194483Y-15794D01*
X193139Y-16359D01*
X191654Y-17208D01*
X190028Y-18339D01*
X188260Y-19754D01*
X184300Y-23431D01*
X177229Y-16359D01*
X179209Y-14309D01*
X182321Y-10632D01*
X183452Y-9006D01*
X184300Y-7521D01*
X184866Y-6177D01*
X185149Y-4975D01*
Y-3914D01*
X184866Y-2995D01*
X184300Y-2217D01*
X198443Y-16359D01*
D02*
G37*
G36*
X636150Y-11999D02*
X635860Y-12047D01*
X635495Y-12196D01*
X635055Y-12446D01*
X634538Y-12796D01*
X633947Y-13248D01*
X632538Y-14453D01*
X629858Y-17018D01*
X619252Y-6412D01*
X620208Y-5443D01*
X623474Y-1732D01*
X623824Y-1216D01*
X624074Y-775D01*
X624223Y-410D01*
X624271Y-120D01*
X636150Y-11999D01*
D02*
G37*
G36*
X530207Y-410D02*
X530356Y-775D01*
X530606Y-1216D01*
X530956Y-1732D01*
X531408Y-2323D01*
X532613Y-3732D01*
X535178Y-6412D01*
X524572Y-17018D01*
X523603Y-16062D01*
X519892Y-12796D01*
X519375Y-12446D01*
X518935Y-12196D01*
X518570Y-12047D01*
X518280Y-11999D01*
X530159Y-120D01*
X530207Y-410D01*
D02*
G37*
G36*
X948690Y-33020D02*
X935990Y-45720D01*
X640080D01*
Y-13575D01*
X643330Y-12229D01*
X646255Y-9985D01*
X648499Y-7060D01*
X649910Y-3655D01*
X650391Y0D01*
X649910Y3655D01*
X648499Y7060D01*
X646255Y9985D01*
X643330Y12229D01*
X640080Y13575D01*
Y392430D01*
X654050Y406400D01*
X762000Y514350D01*
X948690D01*
Y-33020D01*
D02*
G37*
%LPC*%
G36*
X708660Y388628D02*
Y378930D01*
X718358D01*
X718146Y380542D01*
X717033Y383228D01*
X715264Y385534D01*
X712958Y387303D01*
X710272Y388416D01*
X708660Y388628D01*
D02*
G37*
G36*
X706120Y388628D02*
X704508Y388416D01*
X701822Y387303D01*
X699516Y385534D01*
X697747Y383228D01*
X696634Y380542D01*
X696422Y378930D01*
X706120D01*
Y388628D01*
D02*
G37*
G36*
X714705Y376390D02*
X708660D01*
Y370345D01*
X714705Y376390D01*
D02*
G37*
G36*
X706120D02*
X696422D01*
X696634Y374778D01*
X697747Y372092D01*
X699516Y369786D01*
X701822Y368017D01*
X704508Y366904D01*
X706120Y366692D01*
Y376390D01*
D02*
G37*
G36*
X718358D02*
X715948D01*
X715990Y375972D01*
X716129Y375208D01*
X716326Y374468D01*
X716582Y373754D01*
X716896Y373064D01*
X717270Y372399D01*
X717701Y371758D01*
X718192Y371142D01*
X718741Y370551D01*
X714499Y366309D01*
X713908Y366858D01*
X713292Y367349D01*
X712651Y367780D01*
X711986Y368154D01*
X711296Y368468D01*
X710582Y368724D01*
X709842Y368921D01*
X709078Y369060D01*
X708660Y369102D01*
Y366692D01*
X709750Y366835D01*
X709974Y366776D01*
X710528Y366577D01*
X711063Y366334D01*
X711581Y366043D01*
X712085Y365703D01*
X712343Y365497D01*
X739075Y338766D01*
X739475Y338296D01*
X740040Y337546D01*
X740519Y336814D01*
X740913Y336101D01*
X741112Y335664D01*
Y325100D01*
X741541Y322938D01*
X742766Y321106D01*
X744598Y319881D01*
X745490Y319704D01*
Y337100D01*
Y354496D01*
X744598Y354319D01*
X742766Y353094D01*
X742043Y352012D01*
X740453Y351806D01*
X719553Y372707D01*
X719347Y372965D01*
X719007Y373469D01*
X718716Y373987D01*
X718473Y374521D01*
X718275Y375076D01*
X718215Y375300D01*
X718358Y376390D01*
D02*
G37*
G36*
X748030Y354496D02*
Y338370D01*
X752409D01*
Y349100D01*
X751979Y351262D01*
X750754Y353094D01*
X748922Y354319D01*
X748030Y354496D01*
D02*
G37*
G36*
X772160Y354198D02*
X770209Y353810D01*
X768555Y352705D01*
X767450Y351051D01*
X767062Y349100D01*
Y325100D01*
X767450Y323149D01*
X768555Y321495D01*
X770209Y320390D01*
X772160Y320002D01*
X774111Y320390D01*
X775765Y321495D01*
X776870Y323149D01*
X777258Y325100D01*
Y349100D01*
X776870Y351051D01*
X775765Y352705D01*
X774111Y353810D01*
X772160Y354198D01*
D02*
G37*
G36*
X752409Y335830D02*
X748030D01*
Y319704D01*
X748922Y319881D01*
X750754Y321106D01*
X751979Y322938D01*
X752409Y325100D01*
Y335830D01*
D02*
G37*
G36*
X759460Y354198D02*
X757509Y353810D01*
X755855Y352705D01*
X754750Y351051D01*
X754362Y349100D01*
Y337100D01*
Y325100D01*
Y310722D01*
X726398Y282758D01*
X719493D01*
X719164Y282795D01*
X718568Y282911D01*
X717996Y283072D01*
X717446Y283278D01*
X716914Y283529D01*
X716397Y283829D01*
X715892Y284178D01*
X715399Y284581D01*
X715087Y284878D01*
X714879Y285149D01*
X712685Y286832D01*
X710131Y287890D01*
X707390Y288251D01*
X704649Y287890D01*
X702095Y286832D01*
X699901Y285149D01*
X698218Y282955D01*
X697160Y280401D01*
X696799Y277660D01*
X697160Y274919D01*
X698218Y272365D01*
X699901Y270171D01*
X699947Y270136D01*
X699977Y270055D01*
X700058Y269748D01*
X700128Y269380D01*
X700330Y266717D01*
Y210820D01*
X700570Y208993D01*
X701275Y207290D01*
X702398Y205828D01*
X898093Y10132D01*
X901308Y6672D01*
X902636Y5014D01*
X903680Y3516D01*
X904210Y2591D01*
Y-14000D01*
X932210D01*
Y14000D01*
X915619D01*
X914694Y14530D01*
X913219Y15558D01*
X909663Y18571D01*
X908544Y19651D01*
X714450Y213745D01*
Y266684D01*
X714466Y267416D01*
X714571Y268803D01*
X714641Y269321D01*
X714722Y269748D01*
X714803Y270055D01*
X714833Y270136D01*
X714879Y270171D01*
X715087Y270442D01*
X715399Y270739D01*
X715892Y271142D01*
X716397Y271491D01*
X716914Y271791D01*
X717446Y272042D01*
X717996Y272248D01*
X718568Y272409D01*
X719017Y272496D01*
X720298Y272562D01*
X728510D01*
X730461Y272950D01*
X732115Y274055D01*
X763065Y305005D01*
X764170Y306659D01*
X764558Y308610D01*
Y337100D01*
Y349100D01*
X764170Y351051D01*
X763065Y352705D01*
X761411Y353810D01*
X759460Y354198D01*
D02*
G37*
G36*
X784860D02*
X782909Y353810D01*
X781255Y352705D01*
X780150Y351051D01*
X779762Y349100D01*
Y325100D01*
X780150Y323149D01*
X781255Y321495D01*
X782909Y320390D01*
X784860Y320002D01*
X786811Y320390D01*
X788465Y321495D01*
X789570Y323149D01*
X789958Y325100D01*
Y331323D01*
X790023Y331384D01*
X790252Y331523D01*
X790646Y331683D01*
X791211Y331835D01*
X791941Y331955D01*
X792471Y332002D01*
X808283D01*
X808614Y331964D01*
X809209Y331848D01*
X809777Y331686D01*
X810323Y331480D01*
X810850Y331228D01*
X811362Y330927D01*
X811861Y330576D01*
X812348Y330172D01*
X812702Y329830D01*
X812931Y329531D01*
X815125Y327848D01*
X815322Y327767D01*
Y327660D01*
X815710Y325709D01*
X816815Y324055D01*
X882857Y258014D01*
X883276Y257432D01*
X883698Y256702D01*
X884071Y255886D01*
X884392Y254981D01*
X884659Y253984D01*
X884863Y252923D01*
X885102Y250401D01*
X885115Y249494D01*
X885039Y248920D01*
X885520Y245265D01*
X886931Y241860D01*
X889175Y238935D01*
X892100Y236691D01*
X895505Y235280D01*
X899160Y234799D01*
X902815Y235280D01*
X906220Y236691D01*
X909145Y238935D01*
X911389Y241860D01*
X912800Y245265D01*
X913281Y248920D01*
X912800Y252575D01*
X911389Y255980D01*
X909145Y258905D01*
X906220Y261149D01*
X902815Y262560D01*
X899160Y263041D01*
X898586Y262965D01*
X897650Y262978D01*
X896372Y263063D01*
X895187Y263211D01*
X894096Y263421D01*
X893099Y263688D01*
X892194Y264009D01*
X891378Y264382D01*
X890648Y264804D01*
X890066Y265224D01*
X827373Y327917D01*
X827456Y329184D01*
X827909Y329531D01*
X829592Y331725D01*
X830650Y334279D01*
X831011Y337020D01*
X830650Y339761D01*
X829592Y342315D01*
X827909Y344509D01*
X825715Y346192D01*
X823161Y347250D01*
X820420Y347611D01*
X817679Y347250D01*
X815125Y346192D01*
X812931Y344509D01*
X812746Y344267D01*
X812474Y344013D01*
X811975Y343612D01*
X811465Y343264D01*
X810943Y342966D01*
X810406Y342715D01*
X809852Y342510D01*
X809277Y342350D01*
X808678Y342235D01*
X808352Y342198D01*
X792471D01*
X791941Y342244D01*
X791211Y342365D01*
X790646Y342517D01*
X790252Y342677D01*
X790023Y342816D01*
X789958Y342877D01*
Y349100D01*
X789570Y351051D01*
X788465Y352705D01*
X786811Y353810D01*
X784860Y354198D01*
D02*
G37*
G36*
X772160Y264198D02*
X770209Y263810D01*
X768555Y262705D01*
X767450Y261051D01*
X767062Y259100D01*
Y235100D01*
X767450Y233149D01*
X768555Y231495D01*
X770209Y230390D01*
X772160Y230002D01*
X774111Y230390D01*
X775765Y231495D01*
X776870Y233149D01*
X777258Y235100D01*
Y259100D01*
X776870Y261051D01*
X775765Y262705D01*
X774111Y263810D01*
X772160Y264198D01*
D02*
G37*
G36*
X913160Y313720D02*
X885160D01*
Y285720D01*
X902600D01*
X902644Y285711D01*
X902688Y285720D01*
X905269D01*
X905627Y285516D01*
X906449Y284944D01*
X908253Y283417D01*
X925812Y265858D01*
Y245952D01*
X908478Y228618D01*
X836032D01*
X832583Y232067D01*
X832377Y232325D01*
X832037Y232829D01*
X831746Y233347D01*
X831503Y233881D01*
X831304Y234436D01*
X831151Y235013D01*
X831041Y235617D01*
X830977Y236250D01*
X830966Y236681D01*
X831011Y237020D01*
X830650Y239761D01*
X829592Y242315D01*
X827909Y244509D01*
X825715Y246192D01*
X823161Y247250D01*
X820420Y247611D01*
X820081Y247566D01*
X819650Y247577D01*
X819017Y247641D01*
X818413Y247751D01*
X817836Y247904D01*
X817281Y248103D01*
X816747Y248346D01*
X816229Y248637D01*
X815725Y248977D01*
X815467Y249183D01*
X813945Y250705D01*
X812291Y251810D01*
X810340Y252198D01*
X792471D01*
X791941Y252244D01*
X791211Y252365D01*
X790646Y252517D01*
X790252Y252677D01*
X790023Y252816D01*
X789958Y252877D01*
Y259100D01*
X789570Y261051D01*
X788465Y262705D01*
X786811Y263810D01*
X784860Y264198D01*
X782909Y263810D01*
X781255Y262705D01*
X780150Y261051D01*
X779762Y259100D01*
Y235100D01*
X780150Y233149D01*
X781255Y231495D01*
X782909Y230390D01*
X784860Y230002D01*
X786811Y230390D01*
X788465Y231495D01*
X789570Y233149D01*
X789958Y235100D01*
Y241323D01*
X790023Y241384D01*
X790252Y241523D01*
X790646Y241683D01*
X791211Y241835D01*
X791941Y241956D01*
X792471Y242002D01*
X808228D01*
X808257Y241973D01*
X808463Y241715D01*
X808803Y241211D01*
X809094Y240693D01*
X809337Y240159D01*
X809536Y239604D01*
X809689Y239027D01*
X809799Y238423D01*
X809863Y237790D01*
X809874Y237358D01*
X809829Y237020D01*
X810190Y234279D01*
X811248Y231725D01*
X812931Y229531D01*
X815125Y227848D01*
X817679Y226790D01*
X820420Y226429D01*
X820759Y226474D01*
X821190Y226463D01*
X821823Y226399D01*
X822427Y226289D01*
X823004Y226136D01*
X823559Y225937D01*
X824093Y225694D01*
X824611Y225403D01*
X825115Y225063D01*
X825373Y224857D01*
X830315Y219915D01*
X831969Y218810D01*
X833920Y218422D01*
X910590D01*
X912541Y218810D01*
X914195Y219915D01*
X934515Y240235D01*
X935620Y241889D01*
X936008Y243840D01*
Y267970D01*
X935620Y269921D01*
X934515Y271575D01*
X915761Y290329D01*
X914711Y291459D01*
X913952Y292408D01*
X913364Y293253D01*
X913160Y293610D01*
Y296192D01*
X913169Y296236D01*
X913160Y296280D01*
Y313720D01*
D02*
G37*
G36*
X759460Y264198D02*
X757509Y263810D01*
X755855Y262705D01*
X754750Y261051D01*
X754362Y259100D01*
Y247100D01*
Y235100D01*
Y227800D01*
X754750Y225849D01*
X755855Y224195D01*
X773167Y206883D01*
X773373Y206625D01*
X773713Y206121D01*
X774004Y205603D01*
X774247Y205068D01*
X774445Y204514D01*
X774599Y203937D01*
X774709Y203333D01*
X774773Y202700D01*
X774784Y202269D01*
X774739Y201930D01*
X775100Y199189D01*
X776158Y196635D01*
X777841Y194441D01*
X780035Y192758D01*
X782589Y191700D01*
X785330Y191339D01*
X788071Y191700D01*
X790625Y192758D01*
X792819Y194441D01*
X794502Y196635D01*
X795560Y199189D01*
X795921Y201930D01*
X795560Y204671D01*
X794502Y207225D01*
X792819Y209419D01*
X790625Y211102D01*
X788071Y212160D01*
X785330Y212521D01*
X784992Y212476D01*
X784560Y212487D01*
X783927Y212551D01*
X783323Y212661D01*
X782746Y212815D01*
X782191Y213013D01*
X781657Y213256D01*
X781139Y213547D01*
X780635Y213887D01*
X780377Y214093D01*
X764558Y229912D01*
Y247100D01*
Y259100D01*
X764170Y261051D01*
X763065Y262705D01*
X761411Y263810D01*
X759460Y264198D01*
D02*
G37*
G36*
X685330Y212521D02*
X682589Y212160D01*
X680035Y211102D01*
X677841Y209419D01*
X676158Y207225D01*
X675100Y204671D01*
X674739Y201930D01*
X675100Y199189D01*
X676158Y196635D01*
X677841Y194441D01*
X680035Y192758D01*
X682589Y191700D01*
X685330Y191339D01*
X688071Y191700D01*
X690625Y192758D01*
X692819Y194441D01*
X694502Y196635D01*
X695560Y199189D01*
X695921Y201930D01*
X695560Y204671D01*
X694502Y207225D01*
X692819Y209419D01*
X690625Y211102D01*
X688071Y212160D01*
X685330Y212521D01*
D02*
G37*
G36*
X751760Y264100D02*
X741760D01*
Y247593D01*
X741662Y247100D01*
Y214630D01*
X742050Y212679D01*
X743155Y211025D01*
X811735Y142445D01*
X813389Y141340D01*
X815340Y140952D01*
X910975D01*
X911505Y140906D01*
X912234Y140785D01*
X912799Y140633D01*
X913193Y140473D01*
X913422Y140334D01*
X913518Y140245D01*
X913543Y140207D01*
X913558Y140166D01*
X913560Y140148D01*
Y135050D01*
X935560D01*
Y157050D01*
X913560D01*
Y151952D01*
X913558Y151934D01*
X913543Y151893D01*
X913518Y151855D01*
X913422Y151766D01*
X913193Y151627D01*
X912799Y151467D01*
X912234Y151315D01*
X911505Y151194D01*
X910975Y151148D01*
X817452D01*
X751858Y216742D01*
Y247100D01*
X751760Y247593D01*
Y264100D01*
D02*
G37*
G36*
X925830Y132122D02*
Y121920D01*
X936032D01*
X935803Y123663D01*
X934640Y126470D01*
X932790Y128880D01*
X930380Y130730D01*
X927572Y131893D01*
X925830Y132122D01*
D02*
G37*
G36*
X923290Y132122D02*
X921547Y131893D01*
X918740Y130730D01*
X916330Y128880D01*
X914480Y126470D01*
X913317Y123663D01*
X913088Y121920D01*
X923290D01*
Y132122D01*
D02*
G37*
G36*
X936032Y119380D02*
X925830D01*
Y109178D01*
X927572Y109407D01*
X930380Y110570D01*
X932790Y112420D01*
X934640Y114830D01*
X935803Y117638D01*
X936032Y119380D01*
D02*
G37*
G36*
X923290D02*
X913088D01*
X913317Y117638D01*
X914480Y114830D01*
X916330Y112420D01*
X918740Y110570D01*
X921547Y109407D01*
X923290Y109178D01*
Y119380D01*
D02*
G37*
G36*
X868680Y14498D02*
Y1270D01*
X881908D01*
X881576Y3796D01*
X880111Y7333D01*
X877780Y10370D01*
X874743Y12701D01*
X871206Y14166D01*
X868680Y14498D01*
D02*
G37*
G36*
X866140D02*
X863614Y14166D01*
X860077Y12701D01*
X857040Y10370D01*
X854709Y7333D01*
X853244Y3796D01*
X852912Y1270D01*
X866140D01*
Y14498D01*
D02*
G37*
G36*
X751840D02*
Y1270D01*
X765068D01*
X764736Y3796D01*
X763271Y7333D01*
X760940Y10370D01*
X757903Y12701D01*
X754366Y14166D01*
X751840Y14498D01*
D02*
G37*
G36*
X749300D02*
X746774Y14166D01*
X743237Y12701D01*
X740200Y10370D01*
X737869Y7333D01*
X736404Y3796D01*
X736072Y1270D01*
X749300D01*
Y14498D01*
D02*
G37*
G36*
X701610Y14540D02*
X688340D01*
Y1270D01*
X701610D01*
Y14540D01*
D02*
G37*
G36*
X685800D02*
X672530D01*
Y1270D01*
X685800D01*
Y14540D01*
D02*
G37*
G36*
X815370Y14000D02*
X787370D01*
Y-14000D01*
X815370D01*
Y14000D01*
D02*
G37*
G36*
X881908Y-1270D02*
X868680D01*
Y-14498D01*
X871206Y-14166D01*
X874743Y-12701D01*
X877780Y-10370D01*
X880111Y-7333D01*
X881576Y-3796D01*
X881908Y-1270D01*
D02*
G37*
G36*
X866140D02*
X852912D01*
X853244Y-3796D01*
X854709Y-7333D01*
X857040Y-10370D01*
X860077Y-12701D01*
X863614Y-14166D01*
X866140Y-14498D01*
Y-1270D01*
D02*
G37*
G36*
X765068D02*
X751840D01*
Y-14498D01*
X754366Y-14166D01*
X757903Y-12701D01*
X760940Y-10370D01*
X763271Y-7333D01*
X764736Y-3796D01*
X765068Y-1270D01*
D02*
G37*
G36*
X749300D02*
X736072D01*
X736404Y-3796D01*
X737869Y-7333D01*
X740200Y-10370D01*
X743237Y-12701D01*
X746774Y-14166D01*
X749300Y-14498D01*
Y-1270D01*
D02*
G37*
G36*
X701610D02*
X688340D01*
Y-14540D01*
X701610D01*
Y-1270D01*
D02*
G37*
G36*
X685800D02*
X672530D01*
Y-14540D01*
X685800D01*
Y-1270D01*
D02*
G37*
%LPD*%
G36*
X740345Y348990D02*
X741082Y348381D01*
X741733Y347944D01*
X742297Y347678D01*
X742776Y347584D01*
X743168Y347662D01*
X743473Y347911D01*
X743693Y348332D01*
X743826Y348924D01*
X743873Y349688D01*
X743795Y332800D01*
X743756Y333639D01*
X743631Y334481D01*
X743419Y335325D01*
X743121Y336170D01*
X742737Y337018D01*
X742266Y337867D01*
X741710Y338719D01*
X741067Y339572D01*
X740338Y340428D01*
X739522Y341285D01*
Y349770D01*
X740345Y348990D01*
D02*
G37*
G36*
X714051Y283050D02*
X714665Y282548D01*
X715303Y282106D01*
X715965Y281722D01*
X716652Y281397D01*
X717362Y281132D01*
X718096Y280926D01*
X718855Y280778D01*
X719620Y280691D01*
X721390Y280660D01*
Y274660D01*
X718769Y274525D01*
X718096Y274394D01*
X717362Y274188D01*
X716652Y273923D01*
X715965Y273598D01*
X715303Y273214D01*
X714665Y272772D01*
X714051Y272271D01*
X713460Y271710D01*
Y274253D01*
X710923Y274122D01*
Y281198D01*
X711125Y281096D01*
X711514Y281004D01*
X712092Y280924D01*
X713460Y280821D01*
Y283610D01*
X714051Y283050D01*
D02*
G37*
G36*
X713159Y271363D02*
X712998Y271056D01*
X712856Y270667D01*
X712732Y270198D01*
X712627Y269648D01*
X712542Y269018D01*
X712428Y267514D01*
X712390Y265686D01*
X702390D01*
X702381Y266640D01*
X702152Y269648D01*
X702048Y270198D01*
X701925Y270667D01*
X701782Y271056D01*
X701620Y271363D01*
X701440Y271590D01*
X713340D01*
X713159Y271363D01*
D02*
G37*
G36*
X908294Y17058D02*
X911974Y13940D01*
X913602Y12806D01*
X915087Y11954D01*
X916430Y11386D01*
X917631Y11100D01*
X918690Y11097D01*
X919608Y11376D01*
X920383Y11939D01*
X906271Y-2173D01*
X906834Y-1398D01*
X907113Y-480D01*
X907110Y579D01*
X906824Y1780D01*
X906256Y3123D01*
X905404Y4608D01*
X904270Y6235D01*
X902852Y8005D01*
X899169Y11969D01*
X906240Y19041D01*
X908294Y17058D01*
D02*
G37*
G36*
X814294Y331127D02*
X813710Y331692D01*
X813101Y332198D01*
X812467Y332643D01*
X811808Y333030D01*
X811125Y333357D01*
X810417Y333624D01*
X809684Y333833D01*
X808927Y333981D01*
X808144Y334070D01*
X807337Y334100D01*
X807398Y340100D01*
X808203Y340129D01*
X808985Y340217D01*
X809744Y340363D01*
X810480Y340568D01*
X811192Y340832D01*
X811881Y341154D01*
X812548Y341534D01*
X813190Y341973D01*
X813810Y342471D01*
X814406Y343027D01*
X814294Y331127D01*
D02*
G37*
G36*
X787885Y342530D02*
X788066Y342020D01*
X788367Y341570D01*
X788790Y341180D01*
X789332Y340850D01*
X789996Y340580D01*
X790780Y340370D01*
X791684Y340220D01*
X792709Y340130D01*
X793855Y340100D01*
Y334100D01*
X792709Y334070D01*
X791684Y333980D01*
X790780Y333830D01*
X789996Y333620D01*
X789332Y333350D01*
X788790Y333020D01*
X788367Y332630D01*
X788066Y332180D01*
X787885Y331670D01*
X787825Y331100D01*
Y343100D01*
X787885Y342530D01*
D02*
G37*
G36*
X888716Y263683D02*
X889538Y263090D01*
X890442Y262568D01*
X891427Y262118D01*
X892493Y261739D01*
X893640Y261432D01*
X894868Y261196D01*
X896178Y261032D01*
X897568Y260940D01*
X899040Y260919D01*
X887161Y249040D01*
X887140Y250512D01*
X886884Y253212D01*
X886648Y254440D01*
X886341Y255587D01*
X885963Y256653D01*
X885512Y257638D01*
X884990Y258542D01*
X884397Y259364D01*
X883732Y260106D01*
X887974Y264348D01*
X888716Y263683D01*
D02*
G37*
G36*
X910790Y295769D02*
X910620Y295217D01*
Y294581D01*
X910790Y293860D01*
X911130Y293054D01*
X911639Y292163D01*
X912318Y291187D01*
X913166Y290126D01*
X915372Y287750D01*
X911130Y283508D01*
X909899Y284696D01*
X907693Y286562D01*
X906717Y287241D01*
X905826Y287750D01*
X905020Y288090D01*
X904299Y288260D01*
X903662D01*
X903111Y288090D01*
X902644Y287750D01*
X911130Y296236D01*
X910790Y295769D01*
D02*
G37*
G36*
X787885Y252530D02*
X788066Y252020D01*
X788367Y251570D01*
X788790Y251180D01*
X789332Y250850D01*
X789996Y250580D01*
X790780Y250370D01*
X791684Y250220D01*
X792709Y250130D01*
X793855Y250100D01*
Y244100D01*
X792709Y244070D01*
X791684Y243980D01*
X790780Y243830D01*
X789996Y243620D01*
X789332Y243350D01*
X788790Y243020D01*
X788367Y242630D01*
X788066Y242180D01*
X787885Y241670D01*
X787825Y241100D01*
Y253100D01*
X787885Y252530D01*
D02*
G37*
G36*
X813902Y247822D02*
X814518Y247331D01*
X815159Y246900D01*
X815824Y246526D01*
X816514Y246212D01*
X817228Y245956D01*
X817968Y245759D01*
X818732Y245620D01*
X819521Y245541D01*
X820335Y245520D01*
X811920Y237105D01*
X811899Y237919D01*
X811820Y238708D01*
X811681Y239472D01*
X811484Y240212D01*
X811228Y240926D01*
X810914Y241616D01*
X810540Y242281D01*
X810109Y242922D01*
X809618Y243538D01*
X809069Y244128D01*
X813311Y248371D01*
X813902Y247822D01*
D02*
G37*
G36*
X828941Y236121D02*
X829020Y235332D01*
X829159Y234568D01*
X829356Y233829D01*
X829612Y233114D01*
X829926Y232424D01*
X830300Y231759D01*
X830731Y231118D01*
X831222Y230502D01*
X831771Y229911D01*
X827529Y225669D01*
X826938Y226218D01*
X826322Y226709D01*
X825681Y227141D01*
X825016Y227514D01*
X824326Y227828D01*
X823612Y228084D01*
X822872Y228281D01*
X822108Y228420D01*
X821319Y228499D01*
X820505Y228520D01*
X828920Y236935D01*
X828941Y236121D01*
D02*
G37*
G36*
X778812Y212732D02*
X779428Y212241D01*
X780069Y211810D01*
X780734Y211436D01*
X781424Y211122D01*
X782139Y210866D01*
X782878Y210669D01*
X783642Y210530D01*
X784431Y210451D01*
X785245Y210430D01*
X776830Y202015D01*
X776809Y202829D01*
X776730Y203618D01*
X776591Y204382D01*
X776394Y205121D01*
X776138Y205836D01*
X775824Y206526D01*
X775451Y207191D01*
X775019Y207832D01*
X774528Y208448D01*
X773979Y209039D01*
X778222Y213281D01*
X778812Y212732D01*
D02*
G37*
G36*
X915621Y140050D02*
X915561Y140620D01*
X915380Y141130D01*
X915078Y141580D01*
X914656Y141970D01*
X914113Y142300D01*
X913450Y142570D01*
X912666Y142780D01*
X911761Y142930D01*
X910736Y143020D01*
X909591Y143050D01*
Y149050D01*
X910736Y149080D01*
X911761Y149170D01*
X912666Y149320D01*
X913450Y149530D01*
X914113Y149800D01*
X914656Y150130D01*
X915078Y150520D01*
X915380Y150970D01*
X915561Y151480D01*
X915621Y152050D01*
Y140050D01*
D02*
G37*
D10*
X784860Y337100D02*
D03*
X772160D02*
D03*
X759460D02*
D03*
X746760D02*
D03*
X784860Y247100D02*
D03*
X772160D02*
D03*
X759460D02*
D03*
D11*
X746760D02*
D03*
D12*
X252730Y-10160D02*
X317500Y54610D01*
X227330Y-10160D02*
X250190Y12700D01*
X72390Y473240D02*
X72710Y473560D01*
X122740D01*
X140970Y-8890D02*
X171450Y21590D01*
X151150Y102870D02*
Y128270D01*
Y102870D02*
X171450Y82570D01*
Y21590D02*
Y82570D01*
X-39370Y251460D02*
Y427040D01*
Y251460D02*
X26670Y185420D01*
X-39370Y427040D02*
X-16980Y449430D01*
X26670Y-2540D02*
X55880Y-31750D01*
X168910D01*
X26670Y-2540D02*
Y185420D01*
X168910Y-31750D02*
X191770Y-8890D01*
X250040Y498960D02*
X250190Y499110D01*
X199240Y549760D02*
X201440D01*
X317500Y119380D02*
X331802Y133682D01*
X317500Y54610D02*
Y119380D01*
X331802Y133682D02*
Y184463D01*
X350540Y203200D01*
X166370Y-8890D02*
X229850Y54590D01*
Y77470D01*
X350650Y291900D02*
X370920Y271630D01*
X450380D01*
X470650Y291900D01*
X707390Y210820D02*
Y277660D01*
Y210820D02*
X918210Y0D01*
X250190Y12700D02*
Y128270D01*
X229850D02*
X280670D01*
X101130Y102870D02*
X151150D01*
X100330Y103670D02*
X101130Y102870D01*
X50800Y146850D02*
X93980Y103670D01*
X50800Y451650D02*
X72390Y473240D01*
X-13970Y306070D02*
X21590Y270510D01*
X50800D01*
Y146850D02*
Y270510D01*
Y451650D01*
D13*
X449580Y8890D02*
Y182860D01*
X452120Y0D02*
Y6350D01*
X449580Y8890D02*
X452120Y6350D01*
X429240Y203200D02*
X449580Y182860D01*
X336550Y113010D02*
X350540Y127000D01*
X336550Y-10160D02*
Y113010D01*
X350650Y368100D02*
Y483200D01*
X429350Y561900D01*
X512320Y405130D02*
X549350Y368100D01*
X518160Y0D02*
X556260Y-38100D01*
X598170D01*
X469430Y100330D02*
X518160Y51600D01*
X469430Y100330D02*
X501650Y132550D01*
X518160Y0D02*
Y51600D01*
X398780Y152400D02*
X429240D01*
X350540Y177800D02*
X373380D01*
X501650Y132550D02*
Y186220D01*
X470700Y217170D02*
X501650Y186220D01*
X568960Y0D02*
Y100330D01*
X190650Y575160D02*
X201440D01*
X72390Y573240D02*
Y626110D01*
X91440Y645160D01*
X140970D01*
X167640Y598170D02*
X190650Y575160D01*
X167640Y598170D02*
Y618490D01*
X140970Y645160D02*
X167640Y618490D01*
X598170Y-38100D02*
X636270Y0D01*
X373380Y177800D02*
X398780Y152400D01*
X122740Y524360D02*
X177800Y469300D01*
Y431800D02*
Y469300D01*
X22860Y397980D02*
Y523710D01*
X72390Y573240D01*
X318770Y248920D02*
X466560D01*
X570700Y144780D01*
X424030Y405130D02*
X512320D01*
X410210Y418950D02*
X424030Y405130D01*
X569430Y100330D02*
Y143510D01*
X285770Y281920D02*
X318770Y248920D01*
X151150Y204470D02*
X228600Y281920D01*
Y381000D01*
X177800Y431800D02*
X228600Y381000D01*
Y281920D02*
X285770D01*
D14*
X784860Y337100D02*
X820420D01*
Y337020D02*
Y337100D01*
Y327660D02*
Y337020D01*
Y327660D02*
X899160Y248920D01*
X820420Y237020D02*
X833920Y223520D01*
X910590D01*
X930910Y243840D01*
Y267970D01*
X899160Y299720D02*
X930910Y267970D01*
X810340Y247100D02*
X820420Y237020D01*
X784860Y247100D02*
X810340D01*
X707390Y277660D02*
X728510D01*
X759460Y308610D01*
Y337100D01*
Y227800D02*
Y247100D01*
Y227800D02*
X785330Y201930D01*
X815340Y146050D02*
X924560D01*
X746760Y214630D02*
X815340Y146050D01*
X746760Y214630D02*
Y247100D01*
X707390Y377660D02*
X746760Y338290D01*
Y337100D02*
Y338290D01*
D15*
X106680Y353060D02*
X154940D01*
X72390Y396240D02*
X177800D01*
X194310Y379730D01*
D16*
X-50000Y-50000D02*
Y730000D01*
X950000D01*
Y-50000D02*
Y730000D01*
X-50000Y-50000D02*
X950000D01*
D17*
X201440Y448160D02*
D03*
X229850Y77470D02*
D03*
X429350Y561900D02*
D03*
X350650Y368100D02*
D03*
X549350Y561900D02*
D03*
X470650Y368100D02*
D03*
X429240Y127000D02*
D03*
D18*
X201440Y473560D02*
D03*
Y498960D02*
D03*
Y524360D02*
D03*
Y549760D02*
D03*
Y575160D02*
D03*
Y600560D02*
D03*
Y625960D02*
D03*
X122740Y448160D02*
D03*
Y473560D02*
D03*
Y498960D02*
D03*
Y524360D02*
D03*
Y549760D02*
D03*
Y575160D02*
D03*
Y600560D02*
D03*
Y625960D02*
D03*
X229850Y102870D02*
D03*
Y128270D02*
D03*
Y153670D02*
D03*
Y179070D02*
D03*
Y204470D02*
D03*
Y229870D02*
D03*
Y255270D02*
D03*
X151150Y77470D02*
D03*
Y102870D02*
D03*
Y128270D02*
D03*
Y153670D02*
D03*
Y179070D02*
D03*
Y204470D02*
D03*
Y229870D02*
D03*
Y255270D02*
D03*
X350650Y561900D02*
D03*
Y587300D02*
D03*
Y612700D02*
D03*
Y638100D02*
D03*
X429350Y612700D02*
D03*
Y638100D02*
D03*
Y587300D02*
D03*
Y368100D02*
D03*
Y342700D02*
D03*
Y317300D02*
D03*
Y291900D02*
D03*
X350650Y317300D02*
D03*
Y291900D02*
D03*
Y342700D02*
D03*
X470650Y561900D02*
D03*
Y587300D02*
D03*
Y612700D02*
D03*
Y638100D02*
D03*
X549350Y612700D02*
D03*
Y638100D02*
D03*
Y587300D02*
D03*
Y368100D02*
D03*
Y342700D02*
D03*
Y317300D02*
D03*
Y291900D02*
D03*
X470650Y317300D02*
D03*
Y291900D02*
D03*
Y342700D02*
D03*
X350540Y127000D02*
D03*
Y152400D02*
D03*
Y177800D02*
D03*
Y203200D02*
D03*
X429240Y177800D02*
D03*
Y203200D02*
D03*
Y152400D02*
D03*
D19*
X620090Y549760D02*
D03*
X720090D02*
D03*
X22860Y397980D02*
D03*
Y297980D02*
D03*
X207810Y292100D02*
D03*
X307810D02*
D03*
X93980Y203670D02*
D03*
Y103670D02*
D03*
X72390Y573240D02*
D03*
Y473240D02*
D03*
X329260Y685650D02*
D03*
X429260D02*
D03*
X685330Y201930D02*
D03*
X785330D02*
D03*
X707390Y377660D02*
D03*
Y277660D02*
D03*
X585070Y481180D02*
D03*
X435070D02*
D03*
X620560Y518080D02*
D03*
Y368080D02*
D03*
X570700Y217170D02*
D03*
X470700D02*
D03*
X542290Y439270D02*
D03*
X442290D02*
D03*
X569430Y100330D02*
D03*
X469430D02*
D03*
X570700Y144780D02*
D03*
X470700D02*
D03*
X820420Y337020D02*
D03*
Y237020D02*
D03*
D20*
X280670Y128270D02*
D03*
Y102870D02*
D03*
X140970Y-8890D02*
D03*
X166370D02*
D03*
X143510Y379730D02*
D03*
X168910D02*
D03*
X250190Y499110D02*
D03*
Y473710D02*
D03*
X252730Y-10160D02*
D03*
X227330D02*
D03*
D21*
X280670Y77470D02*
D03*
X250190Y448310D02*
D03*
D22*
X278130Y229870D02*
D03*
X-13970Y306070D02*
D03*
X252730Y600710D02*
D03*
X-16980Y576430D02*
D03*
X924560Y146050D02*
D03*
D23*
X278130Y204470D02*
D03*
X-13970Y331470D02*
D03*
X252730Y575310D02*
D03*
X-16980Y398630D02*
D03*
Y424030D02*
D03*
Y449430D02*
D03*
Y474830D02*
D03*
Y500230D02*
D03*
Y525630D02*
D03*
Y551030D02*
D03*
X93980Y-7620D02*
D03*
X311150Y-10160D02*
D03*
X924560Y120650D02*
D03*
D24*
X191770Y-8890D02*
D03*
X194310Y379730D02*
D03*
X278130Y-10160D02*
D03*
D25*
X318300Y626430D02*
D03*
X310210Y418950D02*
D03*
X474510Y177800D02*
D03*
D26*
X318300Y526430D02*
D03*
D27*
X68580Y-7620D02*
D03*
X336550Y-10160D02*
D03*
D28*
X647700Y650240D02*
D03*
X801370Y0D02*
D03*
X918210D02*
D03*
X687070D02*
D03*
X452120D02*
D03*
X568960D02*
D03*
D29*
X698500Y650240D02*
D03*
X750570Y0D02*
D03*
X867410D02*
D03*
X636270D02*
D03*
X401320D02*
D03*
X518160D02*
D03*
X899160Y248920D02*
D03*
D30*
X410210Y418950D02*
D03*
X574510Y177800D02*
D03*
D31*
X0Y0D02*
D03*
D32*
X899160Y299720D02*
D03*
D33*
X154940Y353060D02*
D03*
X106680D02*
D03*
X72390Y396240D02*
D03*
M02*
