G04 Layer_Physical_Order=2*
G04 Layer_Color=16711680*
%FSLAX44Y44*%
%MOMM*%
G71*
G01*
G75*
%ADD12C,1.0000*%
%ADD13C,1.5000*%
%ADD15C,0.8000*%
%ADD16C,0.1000*%
%ADD17R,1.5000X1.5000*%
%ADD18C,1.5000*%
%ADD19C,1.7000*%
%ADD20C,1.5000*%
%ADD21R,1.5000X1.5000*%
%ADD22R,1.8000X1.8000*%
%ADD23C,1.8000*%
%ADD24R,1.5000X1.5000*%
%ADD25C,1.5240*%
%ADD26R,1.5240X1.5240*%
%ADD27R,1.8000X1.8000*%
%ADD28R,2.4000X2.4000*%
%ADD29C,2.4000*%
%ADD30R,1.5240X1.5240*%
%ADD31C,3.0000*%
%ADD32R,2.4000X2.4000*%
%ADD33C,1.2700*%
G36*
X435557Y691420D02*
X435864Y691258D01*
X436253Y691115D01*
X436722Y690992D01*
X437272Y690888D01*
X437902Y690802D01*
X439407Y690688D01*
X441234Y690650D01*
Y680650D01*
X440280Y680640D01*
X437272Y680413D01*
X436722Y680308D01*
X436253Y680184D01*
X435864Y680042D01*
X435557Y679881D01*
X435330Y679700D01*
Y691600D01*
X435557Y691420D01*
D02*
G37*
G36*
X323190Y679700D02*
X322963Y679881D01*
X322656Y680042D01*
X322267Y680184D01*
X321798Y680308D01*
X321248Y680413D01*
X320617Y680498D01*
X319114Y680612D01*
X317286Y680650D01*
Y690650D01*
X318240Y690659D01*
X321248Y690888D01*
X321798Y690992D01*
X322267Y691115D01*
X322656Y691258D01*
X322963Y691420D01*
X323190Y691600D01*
Y679700D01*
D02*
G37*
G36*
X435098Y679418D02*
X434941Y679111D01*
X434803Y678724D01*
X434683Y678255D01*
X434581Y677706D01*
X434433Y676363D01*
X434359Y674697D01*
X434350Y673743D01*
X424350Y673612D01*
X424340Y674565D01*
X424106Y677573D01*
X423999Y678123D01*
X423872Y678593D01*
X423726Y678981D01*
X423560Y679290D01*
X423375Y679517D01*
X435274Y679643D01*
X435098Y679418D01*
D02*
G37*
G36*
X434600Y643456D02*
X424100D01*
X424147Y643548D01*
X424190Y643724D01*
X424227Y643985D01*
X424287Y644762D01*
X424347Y647335D01*
X424350Y648190D01*
X434350D01*
X434600Y643456D01*
D02*
G37*
G36*
X549275Y645600D02*
X541850Y638175D01*
X541819Y638273D01*
X541725Y638428D01*
X541567Y638639D01*
X541059Y639231D01*
X539283Y641093D01*
X538680Y641699D01*
X545751Y648770D01*
X549275Y645600D01*
D02*
G37*
G36*
X658820Y638120D02*
X658061Y637671D01*
X657390Y636921D01*
X656809Y635871D01*
X656317Y634520D01*
X655915Y632870D01*
X655602Y630920D01*
X655379Y628671D01*
X655200Y623270D01*
X640200D01*
X640155Y626120D01*
X639798Y630920D01*
X639485Y632870D01*
X639083Y634520D01*
X638591Y635871D01*
X638010Y636921D01*
X637340Y637671D01*
X636580Y638120D01*
X635731Y638270D01*
X659669D01*
X658820Y638120D01*
D02*
G37*
G36*
X313198Y620770D02*
X313112Y620807D01*
X312939Y620839D01*
X312680Y620867D01*
X311378Y620930D01*
X308423Y620960D01*
X307601Y630960D01*
X308468Y630965D01*
X311929Y631185D01*
X312215Y631253D01*
X312419Y631331D01*
X312540Y631418D01*
X313198Y620770D01*
D02*
G37*
G36*
X206887Y631162D02*
X207064Y631120D01*
X207325Y631082D01*
X208102Y631022D01*
X210675Y630962D01*
X211530Y630960D01*
Y620960D01*
X206796Y620710D01*
Y631210D01*
X206887Y631162D01*
D02*
G37*
G36*
X128188D02*
X128364Y631120D01*
X128625Y631082D01*
X129402Y631022D01*
X131975Y630962D01*
X132830Y630960D01*
Y620960D01*
X128096Y620710D01*
Y631210D01*
X128188Y631162D01*
D02*
G37*
G36*
X127942Y620513D02*
X127900Y620336D01*
X127863Y620075D01*
X127802Y619298D01*
X127743Y616725D01*
X127740Y615870D01*
X117740D01*
X117490Y620604D01*
X127990D01*
X127942Y620513D01*
D02*
G37*
G36*
X127990Y605916D02*
X117490D01*
X117537Y606007D01*
X117580Y606184D01*
X117618Y606445D01*
X117677Y607222D01*
X117738Y609795D01*
X117740Y610650D01*
X127740D01*
X127990Y605916D01*
D02*
G37*
G36*
X206887Y605762D02*
X207064Y605720D01*
X207325Y605682D01*
X208102Y605622D01*
X210675Y605563D01*
X211530Y605560D01*
Y595560D01*
X206796Y595310D01*
Y605810D01*
X206887Y605762D01*
D02*
G37*
G36*
X243761Y591740D02*
X243661Y592466D01*
X243361Y593116D01*
X242861Y593688D01*
X242160Y594185D01*
X241261Y594605D01*
X240161Y594949D01*
X238860Y595216D01*
X237360Y595407D01*
X235660Y595522D01*
X233761Y595560D01*
Y605560D01*
X235660Y605601D01*
X238860Y605931D01*
X240161Y606219D01*
X241261Y606590D01*
X242160Y607043D01*
X242861Y607579D01*
X243361Y608196D01*
X243661Y608897D01*
X243761Y609679D01*
Y591740D01*
D02*
G37*
G36*
X-7961Y583670D02*
X-7720Y582990D01*
X-7318Y582390D01*
X-6756Y581870D01*
X-6033Y581430D01*
X-5150Y581070D01*
X-4106Y580790D01*
X-2901Y580590D01*
X-1536Y580470D01*
X-10Y580430D01*
Y572430D01*
X-1536Y572390D01*
X-2901Y572270D01*
X-4106Y572070D01*
X-5150Y571790D01*
X-6033Y571430D01*
X-6756Y570990D01*
X-7318Y570470D01*
X-7720Y569870D01*
X-7961Y569190D01*
X-8041Y568430D01*
Y584430D01*
X-7961Y583670D01*
D02*
G37*
G36*
X252640Y566310D02*
X252257Y566277D01*
X251838Y566170D01*
X251382Y565990D01*
X250889Y565736D01*
X250359Y565408D01*
X249792Y565007D01*
X248547Y563983D01*
X247870Y563361D01*
X247156Y562665D01*
X240085Y569736D01*
X240781Y570450D01*
X242427Y572372D01*
X242828Y572939D01*
X243156Y573469D01*
X243410Y573962D01*
X243590Y574418D01*
X243697Y574837D01*
X243730Y575220D01*
X252640Y566310D01*
D02*
G37*
G36*
X706141Y569410D02*
X706564Y566860D01*
X707268Y564610D01*
X708254Y562660D01*
X709522Y561010D01*
X711072Y559660D01*
X712904Y558610D01*
X715018Y557860D01*
X717413Y557410D01*
X720090Y557260D01*
X698500Y542260D01*
X680570Y557260D01*
X682552Y557410D01*
X684325Y557860D01*
X685889Y558610D01*
X687245Y559660D01*
X688392Y561010D01*
X689331Y562660D01*
X690061Y564610D01*
X690583Y566860D01*
X690896Y569410D01*
X691000Y572260D01*
X706000D01*
X706141Y569410D01*
D02*
G37*
G36*
X-7953Y550294D02*
X-7857Y549645D01*
X-7693Y548993D01*
X-7460Y548338D01*
X-7160Y547679D01*
X-6791Y547018D01*
X-6353Y546353D01*
X-5848Y545685D01*
X-5274Y545014D01*
X-4632Y544339D01*
X-10289Y538682D01*
X-10964Y539324D01*
X-11635Y539898D01*
X-12303Y540403D01*
X-12968Y540841D01*
X-13630Y541209D01*
X-14288Y541510D01*
X-14943Y541743D01*
X-15595Y541907D01*
X-16244Y542003D01*
X-16890Y542030D01*
X-7980Y550940D01*
X-7953Y550294D01*
D02*
G37*
G36*
X212121Y527630D02*
X208938Y524195D01*
X201755Y531853D01*
X201869Y531882D01*
X202037Y531974D01*
X202259Y532130D01*
X202537Y532349D01*
X203699Y533391D01*
X205355Y535006D01*
X212121Y527630D01*
D02*
G37*
G36*
X-7953Y524894D02*
X-7857Y524245D01*
X-7693Y523593D01*
X-7460Y522938D01*
X-7160Y522280D01*
X-6791Y521618D01*
X-6353Y520953D01*
X-5848Y520285D01*
X-5274Y519614D01*
X-4632Y518939D01*
X-10289Y513282D01*
X-10964Y513924D01*
X-11635Y514498D01*
X-12303Y515003D01*
X-12968Y515441D01*
X-13630Y515810D01*
X-14288Y516110D01*
X-14943Y516343D01*
X-15595Y516507D01*
X-16244Y516603D01*
X-16890Y516630D01*
X-7980Y525540D01*
X-7953Y524894D01*
D02*
G37*
G36*
X453287Y533930D02*
X451271Y531765D01*
X449468Y529512D01*
X447877Y527171D01*
X446498Y524742D01*
X445332Y522225D01*
X444377Y519620D01*
X443635Y516928D01*
X443104Y514148D01*
X442786Y511279D01*
X442680Y508323D01*
X427680Y503930D01*
X427530Y506780D01*
X427080Y509330D01*
X426330Y511580D01*
X425280Y513530D01*
X423930Y515180D01*
X422280Y516530D01*
X420330Y517580D01*
X418080Y518330D01*
X415530Y518780D01*
X412680Y518930D01*
X417073Y533930D01*
X420029Y534036D01*
X422898Y534354D01*
X425678Y534885D01*
X428370Y535627D01*
X430975Y536582D01*
X433492Y537748D01*
X435921Y539127D01*
X438262Y540718D01*
X440515Y542521D01*
X442680Y544537D01*
X453287Y533930D01*
D02*
G37*
G36*
X-8673Y503752D02*
X-8478Y503457D01*
X-8219Y503111D01*
X-7508Y502260D01*
X-5318Y499930D01*
X-4610Y499217D01*
X-6776Y490069D01*
X-7465Y490719D01*
X-8137Y491272D01*
X-8791Y491729D01*
X-9427Y492090D01*
X-10045Y492353D01*
X-10645Y492520D01*
X-11228Y492591D01*
X-11793Y492565D01*
X-12340Y492443D01*
X-12869Y492224D01*
X-8805Y503994D01*
X-8673Y503752D01*
D02*
G37*
G36*
X127942Y493512D02*
X127900Y493336D01*
X127863Y493075D01*
X127802Y492298D01*
X127743Y489725D01*
X127740Y488870D01*
X117740D01*
X117490Y493604D01*
X127990D01*
X127942Y493512D01*
D02*
G37*
G36*
X127990Y478916D02*
X117490D01*
X117537Y479007D01*
X117580Y479184D01*
X117618Y479445D01*
X117677Y480222D01*
X117738Y482795D01*
X117740Y483650D01*
X127740D01*
X127990Y478916D01*
D02*
G37*
G36*
X244940Y468354D02*
X244664Y468583D01*
X244326Y468788D01*
X243929Y468969D01*
X243470Y469126D01*
X242950Y469258D01*
X242370Y469367D01*
X241730Y469451D01*
X240266Y469548D01*
X239443Y469560D01*
X239254Y477560D01*
X240075Y477573D01*
X241536Y477676D01*
X242174Y477767D01*
X242753Y477883D01*
X243270Y478025D01*
X243726Y478193D01*
X244122Y478387D01*
X244456Y478606D01*
X244730Y478852D01*
X244940Y468354D01*
D02*
G37*
G36*
X207071Y478573D02*
X207408Y478360D01*
X207805Y478172D01*
X208262Y478010D01*
X208781Y477873D01*
X209360Y477760D01*
X210000Y477673D01*
X211462Y477573D01*
X212284Y477560D01*
Y469560D01*
X211462Y469548D01*
X210000Y469448D01*
X209360Y469360D01*
X208781Y469248D01*
X208262Y469110D01*
X207805Y468947D01*
X207408Y468760D01*
X207071Y468548D01*
X206796Y468310D01*
Y478810D01*
X207071Y478573D01*
D02*
G37*
G36*
X130271Y473387D02*
X130365Y473232D01*
X130524Y473021D01*
X131031Y472429D01*
X132807Y470567D01*
X133410Y469961D01*
X126339Y462890D01*
X122815Y466060D01*
X130240Y473485D01*
X130271Y473387D01*
D02*
G37*
G36*
X118491Y458084D02*
X119595Y457121D01*
X120110Y456730D01*
X120599Y456400D01*
X121062Y456131D01*
X121501Y455922D01*
X121914Y455774D01*
X122302Y455686D01*
X122665Y455660D01*
X115240Y448235D01*
X115214Y448598D01*
X115126Y448986D01*
X114978Y449399D01*
X114769Y449837D01*
X114500Y450301D01*
X114170Y450790D01*
X113779Y451305D01*
X112816Y452409D01*
X112243Y453000D01*
X117900Y458657D01*
X118491Y458084D01*
D02*
G37*
G36*
X254034Y440840D02*
X253412Y441293D01*
X252677Y441519D01*
X251828D01*
X250866Y441293D01*
X249792Y440840D01*
X248604Y440162D01*
X247303Y439257D01*
X245888Y438125D01*
X242721Y435184D01*
X237064Y440840D01*
X238648Y442481D01*
X241137Y445423D01*
X242042Y446724D01*
X242721Y447912D01*
X243173Y448986D01*
X243399Y449948D01*
Y450797D01*
X243173Y451532D01*
X242721Y452154D01*
X254034Y440840D01*
D02*
G37*
G36*
X208113Y440690D02*
X207335Y441256D01*
X206416Y441539D01*
X205355D01*
X204153Y441256D01*
X202809Y440690D01*
X201324Y439842D01*
X199698Y438711D01*
X197930Y437296D01*
X193971Y433619D01*
X186899Y440690D01*
X188879Y442741D01*
X191991Y446418D01*
X193122Y448044D01*
X193971Y449529D01*
X194536Y450873D01*
X194819Y452075D01*
Y453136D01*
X194536Y454055D01*
X193971Y454833D01*
X208113Y440690D01*
D02*
G37*
G36*
X315480Y413400D02*
X315424Y413208D01*
X315374Y412932D01*
X315330Y412570D01*
X315240Y410979D01*
X315210Y408628D01*
X305210D01*
X305207Y409496D01*
X304996Y413208D01*
X304939Y413400D01*
X304876Y413508D01*
X315544D01*
X315480Y413400D01*
D02*
G37*
G36*
X417906Y425565D02*
X418224Y424469D01*
X418754Y423253D01*
X419497Y421916D01*
X420451Y420458D01*
X421618Y418880D01*
X424588Y415362D01*
X428406Y411361D01*
X417799Y400754D01*
X415738Y402769D01*
X410280Y407542D01*
X408702Y408709D01*
X407244Y409663D01*
X405907Y410406D01*
X404691Y410936D01*
X403595Y411254D01*
X402621Y411361D01*
X417799Y426539D01*
X417906Y425565D01*
D02*
G37*
G36*
X69550Y404743D02*
X71501Y403012D01*
X71769Y402826D01*
X71996Y402694D01*
X72181Y402615D01*
X72326Y402590D01*
X66040Y396303D01*
X66015Y396449D01*
X65936Y396634D01*
X65803Y396861D01*
X65618Y397129D01*
X65378Y397437D01*
X64739Y398177D01*
X63380Y399593D01*
X69037Y405250D01*
X69550Y404743D01*
D02*
G37*
G36*
X174160Y385086D02*
X163660D01*
X163708Y385177D01*
X163750Y385354D01*
X163787Y385615D01*
X163848Y386392D01*
X163908Y388965D01*
X163910Y389820D01*
X173910D01*
X174160Y385086D01*
D02*
G37*
G36*
X148760D02*
X138260D01*
X138308Y385177D01*
X138350Y385354D01*
X138387Y385615D01*
X138448Y386392D01*
X138507Y388965D01*
X138510Y389820D01*
X148510D01*
X148760Y385086D01*
D02*
G37*
G36*
X159595Y357420D02*
X159783Y357345D01*
X160037Y357278D01*
X160357Y357220D01*
X160745Y357171D01*
X161719Y357100D01*
X163682Y357060D01*
Y349060D01*
X162961Y349055D01*
X160357Y348900D01*
X160037Y348842D01*
X159783Y348775D01*
X159595Y348700D01*
X159475Y348615D01*
Y357505D01*
X159595Y357420D01*
D02*
G37*
G36*
X-7249Y337523D02*
X-6877Y337302D01*
X-6427Y337107D01*
X-5898Y336938D01*
X-5292Y336795D01*
X-4607Y336678D01*
X-3003Y336522D01*
X-2084Y336483D01*
X-1087Y336470D01*
Y326470D01*
X-2084Y326457D01*
X-4607Y326262D01*
X-5292Y326145D01*
X-5898Y326002D01*
X-6427Y325833D01*
X-6877Y325638D01*
X-7249Y325417D01*
X-7543Y325170D01*
Y337770D01*
X-7249Y337523D01*
D02*
G37*
G36*
X-29230Y348620D02*
X-28930Y346070D01*
X-28430Y343820D01*
X-27730Y341870D01*
X-26830Y340220D01*
X-25730Y338870D01*
X-24430Y337820D01*
X-22930Y337070D01*
X-22248Y336889D01*
X-22042Y336938D01*
X-21514Y337107D01*
X-21063Y337302D01*
X-20691Y337523D01*
X-20397Y337770D01*
Y336554D01*
X-19712Y336500D01*
X-16240Y336470D01*
Y326470D01*
X-20382Y326387D01*
X-20397Y326386D01*
Y325170D01*
X-20691Y325417D01*
X-21063Y325638D01*
X-21514Y325833D01*
X-22042Y326002D01*
X-22248Y326051D01*
X-22930Y325870D01*
X-24430Y325120D01*
X-25730Y324070D01*
X-26830Y322720D01*
X-27730Y321070D01*
X-28430Y319120D01*
X-28930Y316870D01*
X-29230Y314320D01*
X-29330Y311470D01*
X-44330Y331470D01*
X-29330Y351470D01*
X-29230Y348620D01*
D02*
G37*
G36*
X27870Y309000D02*
X28098Y305992D01*
X28202Y305442D01*
X28326Y304973D01*
X28468Y304584D01*
X28630Y304277D01*
X28810Y304050D01*
X16910D01*
X17091Y304277D01*
X17252Y304584D01*
X17394Y304973D01*
X17518Y305442D01*
X17622Y305992D01*
X17708Y306623D01*
X17822Y308127D01*
X17860Y309954D01*
X27860D01*
X27870Y309000D01*
D02*
G37*
G36*
X240520Y258869D02*
X237350Y255345D01*
X229925Y262770D01*
X230023Y262801D01*
X230178Y262895D01*
X230389Y263053D01*
X230981Y263561D01*
X232843Y265337D01*
X233449Y265940D01*
X240520Y258869D01*
D02*
G37*
G36*
X235298Y235072D02*
X235474Y235030D01*
X235735Y234993D01*
X236512Y234932D01*
X239085Y234872D01*
X239940Y234870D01*
Y224870D01*
X235206Y224620D01*
Y235120D01*
X235298Y235072D01*
D02*
G37*
G36*
X269160Y220900D02*
X269060Y221655D01*
X268761Y222330D01*
X268260Y222925D01*
X267561Y223441D01*
X266660Y223878D01*
X265560Y224235D01*
X264261Y224513D01*
X262761Y224711D01*
X261061Y224830D01*
X259160Y224870D01*
Y234870D01*
X261061Y234910D01*
X264261Y235227D01*
X265560Y235505D01*
X266660Y235862D01*
X267561Y236299D01*
X268260Y236815D01*
X268761Y237411D01*
X269060Y238085D01*
X269160Y238839D01*
Y220900D01*
D02*
G37*
G36*
X235053Y199023D02*
X235010Y198846D01*
X234972Y198585D01*
X234912Y197808D01*
X234853Y195235D01*
X234850Y194380D01*
X224850D01*
X224600Y199114D01*
X235100D01*
X235053Y199023D01*
D02*
G37*
G36*
X279824Y195631D02*
X279565Y195551D01*
X279255Y195401D01*
X278893Y195181D01*
X278480Y194890D01*
X277500Y194099D01*
X276315Y193026D01*
X274923Y191672D01*
X266093Y196984D01*
X266782Y197697D01*
X267917Y199023D01*
X268363Y199635D01*
X268727Y200213D01*
X269009Y200758D01*
X269211Y201269D01*
X269331Y201747D01*
X269369Y202190D01*
X269326Y202600D01*
X279824Y195631D01*
D02*
G37*
G36*
X582099Y185389D02*
X566921D01*
X566937Y185539D01*
X566953Y185989D01*
X567010Y200389D01*
X582010D01*
X582099Y185389D01*
D02*
G37*
G36*
X235100Y184426D02*
X224600D01*
X224648Y184517D01*
X224690Y184694D01*
X224727Y184955D01*
X224788Y185732D01*
X224848Y188305D01*
X224850Y189160D01*
X234850D01*
X235100Y184426D01*
D02*
G37*
G36*
X229775Y171570D02*
X229677Y171539D01*
X229522Y171445D01*
X229311Y171287D01*
X228719Y170779D01*
X226857Y169003D01*
X226251Y168400D01*
X219180Y175471D01*
X222350Y178995D01*
X229775Y171570D01*
D02*
G37*
G36*
X240520Y157269D02*
X237350Y153745D01*
X229925Y161170D01*
X230023Y161201D01*
X230178Y161295D01*
X230389Y161453D01*
X230981Y161961D01*
X232843Y163737D01*
X233449Y164340D01*
X240520Y157269D01*
D02*
G37*
G36*
X389450Y146650D02*
X389900Y144100D01*
X390650Y141850D01*
X391700Y139900D01*
X393050Y138250D01*
X394700Y136900D01*
X396650Y135850D01*
X398900Y135100D01*
X401450Y134650D01*
X404300Y134500D01*
X381800Y119500D01*
X359300Y134500D01*
X362150Y134650D01*
X364700Y135100D01*
X366950Y135850D01*
X368900Y136900D01*
X370550Y138250D01*
X371900Y139900D01*
X372950Y141850D01*
X373700Y144100D01*
X374150Y146650D01*
X374300Y149500D01*
X389300D01*
X389450Y146650D01*
D02*
G37*
G36*
X235481Y107882D02*
X235818Y107670D01*
X236215Y107483D01*
X236672Y107320D01*
X237191Y107183D01*
X237770Y107070D01*
X238410Y106982D01*
X239872Y106882D01*
X240694Y106870D01*
Y98870D01*
X239872Y98857D01*
X238410Y98757D01*
X237770Y98670D01*
X237191Y98558D01*
X236672Y98420D01*
X236215Y98258D01*
X235818Y98070D01*
X235481Y97858D01*
X235206Y97620D01*
Y108120D01*
X235481Y107882D01*
D02*
G37*
G36*
X275314Y97620D02*
X275039Y97858D01*
X274702Y98070D01*
X274305Y98258D01*
X273848Y98420D01*
X273329Y98558D01*
X272750Y98670D01*
X272110Y98757D01*
X270648Y98857D01*
X269826Y98870D01*
Y106870D01*
X270648Y106882D01*
X272110Y106982D01*
X272750Y107070D01*
X273329Y107183D01*
X273848Y107320D01*
X274305Y107483D01*
X274702Y107670D01*
X275039Y107882D01*
X275314Y108120D01*
Y97620D01*
D02*
G37*
G36*
X146901Y87394D02*
X148005Y86431D01*
X148520Y86040D01*
X149009Y85710D01*
X149473Y85441D01*
X149911Y85232D01*
X150324Y85084D01*
X150712Y84996D01*
X151075Y84970D01*
X143650Y77545D01*
X143624Y77908D01*
X143536Y78296D01*
X143388Y78709D01*
X143179Y79148D01*
X142910Y79611D01*
X142580Y80100D01*
X142189Y80615D01*
X141226Y81719D01*
X140653Y82310D01*
X146310Y87966D01*
X146901Y87394D01*
D02*
G37*
G36*
X284514Y70001D02*
X283892Y70453D01*
X283157Y70679D01*
X282308D01*
X281346Y70453D01*
X280272Y70001D01*
X279084Y69322D01*
X277783Y68417D01*
X276368Y67285D01*
X273200Y64344D01*
X267544Y70001D01*
X269128Y71641D01*
X271617Y74583D01*
X272522Y75884D01*
X273200Y77072D01*
X273653Y78146D01*
X273879Y79108D01*
Y79957D01*
X273653Y80692D01*
X273200Y81314D01*
X284514Y70001D01*
D02*
G37*
G36*
X786384Y42775D02*
X784899Y40654D01*
X783838Y38533D01*
X783202Y36411D01*
X782990Y34290D01*
X783202Y32169D01*
X783838Y30047D01*
X784899Y27926D01*
X786384Y25805D01*
X788293Y23683D01*
X761777Y28987D01*
X767080Y34290D01*
X788293Y44897D01*
X786384Y42775D01*
D02*
G37*
G36*
X442204Y17058D02*
X445885Y13940D01*
X447512Y12806D01*
X448997Y11954D01*
X450340Y11386D01*
X451541Y11100D01*
X452600Y11097D01*
X453518Y11376D01*
X454293Y11939D01*
X440181Y-2173D01*
X440744Y-1398D01*
X441023Y-480D01*
X441020Y579D01*
X440734Y1780D01*
X440166Y3123D01*
X439314Y4608D01*
X438180Y6235D01*
X436762Y8005D01*
X433079Y11969D01*
X440150Y19041D01*
X442204Y17058D01*
D02*
G37*
G36*
X293130Y15320D02*
X291230Y15220D01*
X289530Y14920D01*
X288030Y14420D01*
X286730Y13720D01*
X285630Y12820D01*
X284730Y11720D01*
X284030Y10420D01*
X283530Y8920D01*
X283230Y7220D01*
X283151Y5714D01*
X283155Y5410D01*
X283525Y909D01*
X283747Y-191D01*
X284019Y-1090D01*
X284340Y-1790D01*
X284711Y-2290D01*
X285130Y-2591D01*
X285599Y-2691D01*
X270660D01*
X271130Y-2591D01*
X271549Y-2290D01*
X271920Y-1790D01*
X272241Y-1090D01*
X272513Y-191D01*
X272735Y909D01*
X272908Y2210D01*
X273105Y5410D01*
X273109Y5714D01*
X273030Y7220D01*
X272730Y8920D01*
X272230Y10420D01*
X271530Y11720D01*
X270630Y12820D01*
X269530Y13720D01*
X268230Y14420D01*
X266730Y14920D01*
X265030Y15220D01*
X263130Y15320D01*
X278130Y25320D01*
X293130Y15320D01*
D02*
G37*
G36*
X151640Y-5291D02*
X148470Y-8815D01*
X141045Y-1390D01*
X141143Y-1359D01*
X141298Y-1265D01*
X141509Y-1107D01*
X142101Y-599D01*
X143963Y1177D01*
X144569Y1780D01*
X151640Y-5291D01*
D02*
G37*
G36*
X792479Y19603D02*
X797998Y14930D01*
X800439Y13230D01*
X802666Y11954D01*
X804681Y11103D01*
X806484Y10675D01*
X808073Y10672D01*
X809450Y11094D01*
X810614Y11939D01*
X789431Y-9244D01*
X790276Y-8080D01*
X790698Y-6703D01*
X790695Y-5113D01*
X790267Y-3311D01*
X789416Y-1296D01*
X788140Y931D01*
X786440Y3372D01*
X784315Y6025D01*
X778794Y11969D01*
X789400Y22576D01*
X792479Y19603D01*
D02*
G37*
G36*
X948690Y-33020D02*
X935990Y-45720D01*
X640080D01*
Y-13575D01*
X643330Y-12229D01*
X646255Y-9985D01*
X648499Y-7060D01*
X649910Y-3655D01*
X650391Y0D01*
X649910Y3655D01*
X648499Y7060D01*
X646255Y9985D01*
X643330Y12229D01*
X640080Y13575D01*
Y29788D01*
X758031D01*
X778114Y9705D01*
X782770Y4692D01*
X784806Y2150D01*
X786415Y-160D01*
X787370Y-1828D01*
Y-14000D01*
X815370D01*
Y14000D01*
X803197D01*
X801531Y14955D01*
X799243Y16549D01*
X793847Y21117D01*
X792590Y22331D01*
X789229Y25692D01*
X787983Y27076D01*
X786656Y28972D01*
X785741Y30802D01*
X785212Y32567D01*
X785039Y34290D01*
X785212Y36013D01*
X785741Y37778D01*
X786656Y39608D01*
X787983Y41504D01*
X789229Y42888D01*
X792105Y45765D01*
X793628Y47749D01*
X794585Y50060D01*
X794912Y52540D01*
Y197625D01*
X795560Y199189D01*
X795921Y201930D01*
X795560Y204671D01*
X794502Y207225D01*
X792819Y209419D01*
X790625Y211102D01*
X788071Y212160D01*
X785330Y212521D01*
X782589Y212160D01*
X780035Y211102D01*
X777841Y209419D01*
X776158Y207225D01*
X775100Y204671D01*
X774739Y201930D01*
X775100Y199189D01*
X775748Y197625D01*
Y56509D01*
X766857Y47618D01*
X766791Y47668D01*
X764480Y48625D01*
X762000Y48952D01*
X640080D01*
Y392430D01*
X762000Y514350D01*
X948690D01*
Y-33020D01*
D02*
G37*
G36*
X409549Y-8809D02*
X409396Y-9172D01*
X409261Y-9660D01*
X409144Y-10273D01*
X409045Y-11010D01*
X408901Y-12859D01*
X408820Y-16567D01*
X393820D01*
X393811Y-15207D01*
X393496Y-10273D01*
X393379Y-9660D01*
X393244Y-9172D01*
X393091Y-8809D01*
X392920Y-8570D01*
X409720D01*
X409549Y-8809D01*
D02*
G37*
G36*
X61699Y9941D02*
X65680Y6547D01*
X67572Y5168D01*
X69398Y4001D01*
X71160Y3047D01*
X72855Y2304D01*
X74486Y1774D01*
X76050Y1456D01*
X77550Y1349D01*
X59611Y-16589D01*
X59504Y-15090D01*
X59186Y-13526D01*
X58656Y-11895D01*
X57913Y-10200D01*
X56959Y-8439D01*
X55792Y-6612D01*
X54413Y-4720D01*
X52822Y-2762D01*
X49004Y1349D01*
X59611Y11956D01*
X61699Y9941D01*
D02*
G37*
G36*
X518040Y-11999D02*
X517750Y-12047D01*
X517385Y-12196D01*
X516945Y-12446D01*
X516428Y-12796D01*
X515837Y-13248D01*
X514428Y-14453D01*
X511748Y-17018D01*
X501142Y-6412D01*
X502098Y-5443D01*
X505364Y-1732D01*
X505714Y-1216D01*
X505964Y-775D01*
X506113Y-410D01*
X506161Y-120D01*
X518040Y-11999D01*
D02*
G37*
%LPC*%
G36*
X708660Y388628D02*
Y378930D01*
X718358D01*
X718146Y380542D01*
X717033Y383228D01*
X715264Y385534D01*
X712958Y387303D01*
X710272Y388416D01*
X708660Y388628D01*
D02*
G37*
G36*
X706120Y388628D02*
X704508Y388416D01*
X701822Y387303D01*
X699516Y385534D01*
X697747Y383228D01*
X696634Y380542D01*
X696422Y378930D01*
X706120D01*
Y388628D01*
D02*
G37*
G36*
Y376390D02*
X696422D01*
X696634Y374778D01*
X697747Y372092D01*
X699516Y369786D01*
X701822Y368017D01*
X704508Y366904D01*
X706120Y366692D01*
Y376390D01*
D02*
G37*
G36*
X718358D02*
X708660D01*
Y366692D01*
X710272Y366904D01*
X712958Y368017D01*
X715264Y369786D01*
X717033Y372092D01*
X718146Y374778D01*
X718358Y376390D01*
D02*
G37*
G36*
X820420Y347611D02*
X817679Y347250D01*
X815125Y346192D01*
X812931Y344509D01*
X811248Y342315D01*
X810190Y339761D01*
X809829Y337020D01*
X810190Y334279D01*
X811248Y331725D01*
X812931Y329531D01*
X815125Y327848D01*
X817679Y326790D01*
X820420Y326429D01*
X823161Y326790D01*
X825715Y327848D01*
X827909Y329531D01*
X829592Y331725D01*
X830650Y334279D01*
X831011Y337020D01*
X830650Y339761D01*
X829592Y342315D01*
X827909Y344509D01*
X825715Y346192D01*
X823161Y347250D01*
X820420Y347611D01*
D02*
G37*
G36*
X913160Y313720D02*
X885160D01*
Y285720D01*
X913160D01*
Y313720D01*
D02*
G37*
G36*
X707390Y288251D02*
X704649Y287890D01*
X702095Y286832D01*
X699901Y285149D01*
X698218Y282955D01*
X697160Y280401D01*
X696799Y277660D01*
X697160Y274919D01*
X698218Y272365D01*
X699901Y270171D01*
X702095Y268488D01*
X704649Y267430D01*
X707390Y267069D01*
X710131Y267430D01*
X712685Y268488D01*
X714879Y270171D01*
X716562Y272365D01*
X717620Y274919D01*
X717981Y277660D01*
X717620Y280401D01*
X716562Y282955D01*
X714879Y285149D01*
X712685Y286832D01*
X710131Y287890D01*
X707390Y288251D01*
D02*
G37*
G36*
X899160Y263041D02*
X895505Y262560D01*
X892100Y261149D01*
X889175Y258905D01*
X886931Y255980D01*
X885520Y252575D01*
X885039Y248920D01*
X885520Y245265D01*
X886931Y241860D01*
X889175Y238935D01*
X892100Y236691D01*
X895505Y235280D01*
X899160Y234799D01*
X902815Y235280D01*
X906220Y236691D01*
X909145Y238935D01*
X911389Y241860D01*
X912800Y245265D01*
X913281Y248920D01*
X912800Y252575D01*
X911389Y255980D01*
X909145Y258905D01*
X906220Y261149D01*
X902815Y262560D01*
X899160Y263041D01*
D02*
G37*
G36*
X820420Y247611D02*
X817679Y247250D01*
X815125Y246192D01*
X812931Y244509D01*
X811248Y242315D01*
X810190Y239761D01*
X809829Y237020D01*
X810190Y234279D01*
X811248Y231725D01*
X812931Y229531D01*
X815125Y227848D01*
X817679Y226790D01*
X820420Y226429D01*
X823161Y226790D01*
X825715Y227848D01*
X827909Y229531D01*
X829592Y231725D01*
X830650Y234279D01*
X831011Y237020D01*
X830650Y239761D01*
X829592Y242315D01*
X827909Y244509D01*
X825715Y246192D01*
X823161Y247250D01*
X820420Y247611D01*
D02*
G37*
G36*
X685330Y212521D02*
X682589Y212160D01*
X680035Y211102D01*
X677841Y209419D01*
X676158Y207225D01*
X675100Y204671D01*
X674739Y201930D01*
X675100Y199189D01*
X676158Y196635D01*
X677841Y194441D01*
X680035Y192758D01*
X682589Y191700D01*
X685330Y191339D01*
X688071Y191700D01*
X690625Y192758D01*
X692819Y194441D01*
X694502Y196635D01*
X695560Y199189D01*
X695921Y201930D01*
X695560Y204671D01*
X694502Y207225D01*
X692819Y209419D01*
X690625Y211102D01*
X688071Y212160D01*
X685330Y212521D01*
D02*
G37*
G36*
X935560Y157050D02*
X913560D01*
Y135050D01*
X935560D01*
Y157050D01*
D02*
G37*
G36*
X925830Y132122D02*
Y121920D01*
X936032D01*
X935803Y123663D01*
X934640Y126470D01*
X932790Y128880D01*
X930380Y130730D01*
X927572Y131893D01*
X925830Y132122D01*
D02*
G37*
G36*
X923290Y132122D02*
X921547Y131893D01*
X918740Y130730D01*
X916330Y128880D01*
X914480Y126470D01*
X913317Y123663D01*
X913088Y121920D01*
X923290D01*
Y132122D01*
D02*
G37*
G36*
X936032Y119380D02*
X925830D01*
Y109178D01*
X927572Y109407D01*
X930380Y110570D01*
X932790Y112420D01*
X934640Y114830D01*
X935803Y117638D01*
X936032Y119380D01*
D02*
G37*
G36*
X923290D02*
X913088D01*
X913317Y117638D01*
X914480Y114830D01*
X916330Y112420D01*
X918740Y110570D01*
X921547Y109407D01*
X923290Y109178D01*
Y119380D01*
D02*
G37*
G36*
X868680Y14498D02*
Y1270D01*
X881908D01*
X881576Y3796D01*
X880111Y7333D01*
X877780Y10370D01*
X874743Y12701D01*
X871206Y14166D01*
X868680Y14498D01*
D02*
G37*
G36*
X866140D02*
X863614Y14166D01*
X860077Y12701D01*
X857040Y10370D01*
X854709Y7333D01*
X853244Y3796D01*
X852912Y1270D01*
X866140D01*
Y14498D01*
D02*
G37*
G36*
X751840D02*
Y1270D01*
X765068D01*
X764736Y3796D01*
X763271Y7333D01*
X760940Y10370D01*
X757903Y12701D01*
X754366Y14166D01*
X751840Y14498D01*
D02*
G37*
G36*
X749300D02*
X746774Y14166D01*
X743237Y12701D01*
X740200Y10370D01*
X737869Y7333D01*
X736404Y3796D01*
X736072Y1270D01*
X749300D01*
Y14498D01*
D02*
G37*
G36*
X701610Y14540D02*
X688340D01*
Y1270D01*
X701610D01*
Y14540D01*
D02*
G37*
G36*
X685800D02*
X672530D01*
Y1270D01*
X685800D01*
Y14540D01*
D02*
G37*
G36*
X866140Y-1270D02*
X856561D01*
X866140Y-10849D01*
Y-1270D01*
D02*
G37*
G36*
X932210Y14000D02*
X904210D01*
Y-14000D01*
X932210D01*
Y14000D01*
D02*
G37*
G36*
X881908Y-1270D02*
X868680D01*
Y-14498D01*
X871206Y-14166D01*
X874743Y-12701D01*
X877780Y-10370D01*
X880111Y-7333D01*
X881576Y-3796D01*
X881908Y-1270D01*
D02*
G37*
G36*
X701610D02*
X688340D01*
Y-14540D01*
X701610D01*
Y-1270D01*
D02*
G37*
G36*
X685800D02*
X672530D01*
Y-14540D01*
X685800D01*
Y-1270D01*
D02*
G37*
G36*
X854927D02*
X852303D01*
X850210Y-3649D01*
X832961Y-20898D01*
X781209D01*
X766983Y-6672D01*
X766568Y-6238D01*
X765302Y-4740D01*
X764867Y-4149D01*
X764698Y-3886D01*
X764736Y-3796D01*
X765068Y-1270D01*
X736072D01*
X736404Y-3796D01*
X737869Y-7333D01*
X740200Y-10370D01*
X743237Y-12701D01*
X746774Y-14166D01*
X747466Y-14257D01*
X770464Y-37255D01*
X772449Y-38778D01*
X774760Y-39736D01*
X777240Y-40062D01*
X836930D01*
X839410Y-39736D01*
X841721Y-38778D01*
X843705Y-37255D01*
X863839Y-17121D01*
X865047Y-15966D01*
X866140Y-15031D01*
Y-12483D01*
X865678Y-12796D01*
X865087Y-13248D01*
X863678Y-14453D01*
X860998Y-17018D01*
X850392Y-6412D01*
X851348Y-5443D01*
X854614Y-1732D01*
X854927Y-1270D01*
D02*
G37*
%LPD*%
G36*
X762210Y-3176D02*
X762292Y-3608D01*
X762482Y-4107D01*
X762780Y-4672D01*
X763186Y-5305D01*
X763700Y-6004D01*
X765051Y-7602D01*
X766834Y-9468D01*
X752930Y-16776D01*
X747993Y-11720D01*
X762236Y-2811D01*
X762210Y-3176D01*
D02*
G37*
D12*
X278130Y20320D02*
X431800D01*
X170180D02*
X278130D01*
Y-10160D02*
Y20320D01*
X122740Y473560D02*
Y498960D01*
X140970Y-8890D02*
X170180Y20320D01*
X431800D02*
X452120Y0D01*
X620540Y368100D02*
X620560Y368080D01*
X-36830Y331470D02*
X-13970D01*
X10960D02*
X22860Y319570D01*
X-13970Y331470D02*
X10960D01*
X201440Y625960D02*
X317830D01*
X318300Y626430D01*
X229850Y255270D02*
X310210Y335630D01*
Y418950D01*
X212090Y135890D02*
Y161310D01*
X229850Y179070D01*
X219710Y128270D02*
X229850D01*
X212090Y135890D02*
X219710Y128270D01*
X229850Y179070D02*
Y204470D01*
X201440Y600560D02*
X252580D01*
X252730Y600710D01*
X201440Y524360D02*
X201780D01*
X252730Y575310D01*
X229850Y229870D02*
X278130D01*
X229850Y153670D02*
X278130Y201950D01*
Y204470D01*
X429260Y685650D02*
X501800D01*
X429350Y638100D02*
Y685560D01*
X501800Y685650D02*
X549350Y638100D01*
X307810Y291950D02*
X350600D01*
X350650Y291900D01*
X122740Y625960D02*
X164950D01*
X122740Y600560D02*
Y625960D01*
X164950D02*
X224640Y685650D01*
X329260D01*
X151150Y229870D02*
Y255270D01*
X170980D01*
X143510Y382270D02*
Y452790D01*
X122740Y473560D02*
X143510Y452790D01*
X168910Y379730D02*
Y415630D01*
X201440Y448160D01*
X22860Y300520D02*
Y319570D01*
X170980Y255270D02*
X207810Y292100D01*
D13*
X620560Y518080D02*
X647620D01*
X647700Y518160D01*
X648970D01*
X680570Y549760D01*
X698500D02*
Y650240D01*
X680570Y549760D02*
X720090D01*
X585070Y481180D02*
Y514740D01*
X620090Y549760D01*
X647700Y577370D01*
Y650240D01*
X227330Y-10160D02*
X256540Y-39370D01*
X311150Y-38100D02*
X312420Y-39370D01*
X256540D02*
X312420D01*
X350540Y127000D02*
X429240D01*
X350540D02*
Y152400D01*
X350650Y317300D02*
Y342700D01*
X366610D01*
X350650D02*
Y368100D01*
X366610Y342700D02*
X381800Y327510D01*
Y127000D02*
Y327510D01*
X429350Y587300D02*
Y612700D01*
Y561900D02*
Y587300D01*
Y368100D02*
Y399810D01*
X410210Y418950D02*
X429350Y399810D01*
X549350Y291900D02*
Y317300D01*
Y368100D02*
X620540D01*
X549350Y342700D02*
Y368100D01*
Y317300D02*
Y342700D01*
X429350D02*
Y368100D01*
Y317300D02*
Y342700D01*
Y291900D02*
Y317300D01*
X-36830Y331470D02*
Y404943D01*
Y97790D02*
X68580Y-7620D01*
X-36830Y97790D02*
Y331470D01*
Y404943D02*
X-17743Y424030D01*
X-16980D01*
X325920Y526430D02*
X435180D01*
X350650Y528300D02*
Y561900D01*
Y612700D02*
Y638100D01*
Y587300D02*
Y612700D01*
Y561900D02*
Y587300D01*
X435180Y481290D02*
Y526430D01*
X470650Y561900D01*
Y587300D01*
Y612700D01*
Y638100D01*
X201440Y498960D02*
X250040D01*
X250190Y499110D02*
X382450D01*
X201440Y549760D02*
Y575160D01*
X311150Y-38100D02*
Y-10160D01*
X401320Y-39370D02*
X478790D01*
X312420D02*
X401320D01*
Y0D01*
X478790Y-39370D02*
X518160Y0D01*
X450850Y237020D02*
Y430710D01*
X382450Y499110D02*
X442290Y439270D01*
X463080Y152400D02*
X470700Y144780D01*
X429240Y152400D02*
X463080D01*
X470700Y101600D02*
Y144780D01*
X450850Y237020D02*
X470700Y217170D01*
X442290Y439270D02*
X450850Y430710D01*
X151150Y179070D02*
Y204470D01*
Y153670D02*
Y179070D01*
X122740Y549760D02*
Y575160D01*
Y524360D02*
Y549760D01*
X537680Y177800D02*
X570700Y144780D01*
X429240Y177800D02*
X474510D01*
X537680D01*
X570700Y217170D02*
X574510Y213360D01*
Y177800D02*
Y213360D01*
X549350Y561900D02*
Y587300D01*
Y612700D01*
X93980Y-7620D02*
X140970Y39370D01*
X762000D02*
X801370Y0D01*
X140970Y39370D02*
X762000D01*
X785330Y52540D02*
Y201930D01*
X767080Y34290D02*
X785330Y52540D01*
X180340Y530860D02*
X199240Y549760D01*
X180340Y510540D02*
Y530860D01*
Y510540D02*
X191920Y498960D01*
X201440D01*
X509270Y278680D02*
X571375Y216575D01*
X509270Y406250D02*
X542290Y439270D01*
X549350Y446330D02*
Y561900D01*
X542290Y439270D02*
X549350Y446330D01*
X470650Y342700D02*
Y368100D01*
Y317300D02*
Y342700D01*
X509035D01*
X509270Y342465D01*
Y278680D02*
Y342465D01*
Y406250D01*
X-16980Y398630D02*
X22210D01*
X22860Y397980D02*
X53340Y367500D01*
Y244310D02*
Y367500D01*
Y244310D02*
X93980Y203670D01*
X750570Y-3810D02*
Y0D01*
Y-3810D02*
X777240Y-30480D01*
X836930D01*
X867410Y0D01*
D15*
X106680Y353060D02*
Y401970D01*
X-16980Y525630D02*
X106680Y401970D01*
X46990Y477520D02*
Y487060D01*
X-16980Y551030D02*
X46990Y487060D01*
X39520Y576430D02*
X97790Y518160D01*
X-16980Y576430D02*
X39520D01*
X97790Y473110D02*
Y518160D01*
Y473110D02*
X122740Y448160D01*
X229850Y102870D02*
X280670D01*
X134620Y58420D02*
X261620D01*
X280670Y77470D01*
X201440Y473560D02*
X250040D01*
X217170Y415290D02*
X250190Y448310D01*
X217170Y363220D02*
Y415290D01*
X154940Y353060D02*
X207010D01*
X217170Y363220D01*
X111760Y81280D02*
X134620Y58420D01*
X128270Y100350D02*
X151150Y77470D01*
X46990Y477520D02*
X128270Y396240D01*
Y100350D02*
Y396240D01*
X-16980Y500230D02*
X-11280D01*
X90170Y398780D01*
X-16980Y474830D02*
X-6200D01*
X72390Y396240D01*
X90170Y241300D02*
Y398780D01*
Y241300D02*
X111760Y219710D01*
Y81280D02*
Y219710D01*
D16*
X-50000Y-50000D02*
Y730000D01*
X950000D01*
Y-50000D02*
Y730000D01*
X-50000Y-50000D02*
X950000D01*
D17*
X201440Y448160D02*
D03*
X229850Y77470D02*
D03*
X429350Y561900D02*
D03*
X350650Y368100D02*
D03*
X549350Y561900D02*
D03*
X470650Y368100D02*
D03*
X429240Y127000D02*
D03*
D18*
X201440Y473560D02*
D03*
Y498960D02*
D03*
Y524360D02*
D03*
Y549760D02*
D03*
Y575160D02*
D03*
Y600560D02*
D03*
Y625960D02*
D03*
X122740Y448160D02*
D03*
Y473560D02*
D03*
Y498960D02*
D03*
Y524360D02*
D03*
Y549760D02*
D03*
Y575160D02*
D03*
Y600560D02*
D03*
Y625960D02*
D03*
X229850Y102870D02*
D03*
Y128270D02*
D03*
Y153670D02*
D03*
Y179070D02*
D03*
Y204470D02*
D03*
Y229870D02*
D03*
Y255270D02*
D03*
X151150Y77470D02*
D03*
Y102870D02*
D03*
Y128270D02*
D03*
Y153670D02*
D03*
Y179070D02*
D03*
Y204470D02*
D03*
Y229870D02*
D03*
Y255270D02*
D03*
X350650Y561900D02*
D03*
Y587300D02*
D03*
Y612700D02*
D03*
Y638100D02*
D03*
X429350Y612700D02*
D03*
Y638100D02*
D03*
Y587300D02*
D03*
Y368100D02*
D03*
Y342700D02*
D03*
Y317300D02*
D03*
Y291900D02*
D03*
X350650Y317300D02*
D03*
Y291900D02*
D03*
Y342700D02*
D03*
X470650Y561900D02*
D03*
Y587300D02*
D03*
Y612700D02*
D03*
Y638100D02*
D03*
X549350Y612700D02*
D03*
Y638100D02*
D03*
Y587300D02*
D03*
Y368100D02*
D03*
Y342700D02*
D03*
Y317300D02*
D03*
Y291900D02*
D03*
X470650Y317300D02*
D03*
Y291900D02*
D03*
Y342700D02*
D03*
X350540Y127000D02*
D03*
Y152400D02*
D03*
Y177800D02*
D03*
Y203200D02*
D03*
X429240Y177800D02*
D03*
Y203200D02*
D03*
Y152400D02*
D03*
D19*
X620090Y549760D02*
D03*
X720090D02*
D03*
X22860Y397980D02*
D03*
Y297980D02*
D03*
X207810Y292100D02*
D03*
X307810D02*
D03*
X93980Y203670D02*
D03*
Y103670D02*
D03*
X72390Y573240D02*
D03*
Y473240D02*
D03*
X329260Y685650D02*
D03*
X429260D02*
D03*
X685330Y201930D02*
D03*
X785330D02*
D03*
X707390Y377660D02*
D03*
Y277660D02*
D03*
X585070Y481180D02*
D03*
X435070D02*
D03*
X620560Y518080D02*
D03*
Y368080D02*
D03*
X570700Y217170D02*
D03*
X470700D02*
D03*
X542290Y439270D02*
D03*
X442290D02*
D03*
X569430Y100330D02*
D03*
X469430D02*
D03*
X570700Y144780D02*
D03*
X470700D02*
D03*
X820420Y337020D02*
D03*
Y237020D02*
D03*
D20*
X280670Y128270D02*
D03*
Y102870D02*
D03*
X140970Y-8890D02*
D03*
X166370D02*
D03*
X143510Y379730D02*
D03*
X168910D02*
D03*
X250190Y499110D02*
D03*
Y473710D02*
D03*
X252730Y-10160D02*
D03*
X227330D02*
D03*
D21*
X280670Y77470D02*
D03*
X250190Y448310D02*
D03*
D22*
X278130Y229870D02*
D03*
X-13970Y306070D02*
D03*
X252730Y600710D02*
D03*
X-16980Y576430D02*
D03*
X924560Y146050D02*
D03*
D23*
X278130Y204470D02*
D03*
X-13970Y331470D02*
D03*
X252730Y575310D02*
D03*
X-16980Y398630D02*
D03*
Y424030D02*
D03*
Y449430D02*
D03*
Y474830D02*
D03*
Y500230D02*
D03*
Y525630D02*
D03*
Y551030D02*
D03*
X93980Y-7620D02*
D03*
X311150Y-10160D02*
D03*
X924560Y120650D02*
D03*
D24*
X191770Y-8890D02*
D03*
X194310Y379730D02*
D03*
X278130Y-10160D02*
D03*
D25*
X318300Y626430D02*
D03*
X310210Y418950D02*
D03*
X474510Y177800D02*
D03*
D26*
X318300Y526430D02*
D03*
D27*
X68580Y-7620D02*
D03*
X336550Y-10160D02*
D03*
D28*
X647700Y650240D02*
D03*
X801370Y0D02*
D03*
X918210D02*
D03*
X687070D02*
D03*
X452120D02*
D03*
X568960D02*
D03*
D29*
X698500Y650240D02*
D03*
X750570Y0D02*
D03*
X867410D02*
D03*
X636270D02*
D03*
X401320D02*
D03*
X518160D02*
D03*
X899160Y248920D02*
D03*
D30*
X410210Y418950D02*
D03*
X574510Y177800D02*
D03*
D31*
X0Y0D02*
D03*
D32*
X899160Y299720D02*
D03*
D33*
X154940Y353060D02*
D03*
X106680D02*
D03*
X72390Y396240D02*
D03*
M02*
