G04 Layer_Color=8388736*
%FSLAX44Y44*%
%MOMM*%
G71*
G01*
G75*
%ADD16C,0.1000*%
%ADD42O,0.8032X3.2032*%
%ADD43R,0.8032X3.2032*%
%ADD44R,1.7032X1.7032*%
%ADD45C,1.7032*%
%ADD46C,1.9032*%
%ADD47C,1.7032*%
%ADD48R,1.7032X1.7032*%
%ADD49R,2.0032X2.0032*%
%ADD50C,2.0032*%
%ADD51R,1.7032X1.7032*%
%ADD52C,1.7272*%
%ADD53R,1.7272X1.7272*%
%ADD54R,2.0032X2.0032*%
%ADD55R,2.6032X2.6032*%
%ADD56C,2.6032*%
%ADD57R,1.7272X1.7272*%
%ADD58C,3.2032*%
%ADD59R,2.6032X2.6032*%
%ADD60C,1.4732*%
D16*
X-50000Y-50000D02*
Y730000D01*
X950000D01*
Y-50000D02*
Y730000D01*
X-50000Y-50000D02*
X950000D01*
D42*
X784860Y337100D02*
D03*
X772160D02*
D03*
X759460D02*
D03*
X746760D02*
D03*
X784860Y247100D02*
D03*
X772160D02*
D03*
X759460D02*
D03*
D43*
X746760D02*
D03*
D44*
X201440Y448160D02*
D03*
X229850Y77470D02*
D03*
X429350Y561900D02*
D03*
X350650Y368100D02*
D03*
X549350Y561900D02*
D03*
X470650Y368100D02*
D03*
X429240Y127000D02*
D03*
D45*
X201440Y473560D02*
D03*
Y498960D02*
D03*
Y524360D02*
D03*
Y549760D02*
D03*
Y575160D02*
D03*
Y600560D02*
D03*
Y625960D02*
D03*
X122740Y448160D02*
D03*
Y473560D02*
D03*
Y498960D02*
D03*
Y524360D02*
D03*
Y549760D02*
D03*
Y575160D02*
D03*
Y600560D02*
D03*
Y625960D02*
D03*
X229850Y102870D02*
D03*
Y128270D02*
D03*
Y153670D02*
D03*
Y179070D02*
D03*
Y204470D02*
D03*
Y229870D02*
D03*
Y255270D02*
D03*
X151150Y77470D02*
D03*
Y102870D02*
D03*
Y128270D02*
D03*
Y153670D02*
D03*
Y179070D02*
D03*
Y204470D02*
D03*
Y229870D02*
D03*
Y255270D02*
D03*
X350650Y561900D02*
D03*
Y587300D02*
D03*
Y612700D02*
D03*
Y638100D02*
D03*
X429350Y612700D02*
D03*
Y638100D02*
D03*
Y587300D02*
D03*
Y368100D02*
D03*
Y342700D02*
D03*
Y317300D02*
D03*
Y291900D02*
D03*
X350650Y317300D02*
D03*
Y291900D02*
D03*
Y342700D02*
D03*
X470650Y561900D02*
D03*
Y587300D02*
D03*
Y612700D02*
D03*
Y638100D02*
D03*
X549350Y612700D02*
D03*
Y638100D02*
D03*
Y587300D02*
D03*
Y368100D02*
D03*
Y342700D02*
D03*
Y317300D02*
D03*
Y291900D02*
D03*
X470650Y317300D02*
D03*
Y291900D02*
D03*
Y342700D02*
D03*
X350540Y127000D02*
D03*
Y152400D02*
D03*
Y177800D02*
D03*
Y203200D02*
D03*
X429240Y177800D02*
D03*
Y203200D02*
D03*
Y152400D02*
D03*
D46*
X620090Y549760D02*
D03*
X720090D02*
D03*
X22860Y397980D02*
D03*
Y297980D02*
D03*
X207810Y292100D02*
D03*
X307810D02*
D03*
X93980Y203670D02*
D03*
Y103670D02*
D03*
X72390Y573240D02*
D03*
Y473240D02*
D03*
X329260Y685650D02*
D03*
X429260D02*
D03*
X685330Y201930D02*
D03*
X785330D02*
D03*
X707390Y377660D02*
D03*
Y277660D02*
D03*
X585070Y481180D02*
D03*
X435070D02*
D03*
X620560Y518080D02*
D03*
Y368080D02*
D03*
X570700Y217170D02*
D03*
X470700D02*
D03*
X542290Y439270D02*
D03*
X442290D02*
D03*
X569430Y100330D02*
D03*
X469430D02*
D03*
X570700Y144780D02*
D03*
X470700D02*
D03*
X820420Y337020D02*
D03*
Y237020D02*
D03*
D47*
X280670Y128270D02*
D03*
Y102870D02*
D03*
X140970Y-8890D02*
D03*
X166370D02*
D03*
X143510Y379730D02*
D03*
X168910D02*
D03*
X250190Y499110D02*
D03*
Y473710D02*
D03*
X252730Y-10160D02*
D03*
X227330D02*
D03*
D48*
X280670Y77470D02*
D03*
X250190Y448310D02*
D03*
D49*
X278130Y229870D02*
D03*
X-13970Y306070D02*
D03*
X252730Y600710D02*
D03*
X-16980Y576430D02*
D03*
X924560Y146050D02*
D03*
D50*
X278130Y204470D02*
D03*
X-13970Y331470D02*
D03*
X252730Y575310D02*
D03*
X-16980Y398630D02*
D03*
Y424030D02*
D03*
Y449430D02*
D03*
Y474830D02*
D03*
Y500230D02*
D03*
Y525630D02*
D03*
Y551030D02*
D03*
X93980Y-7620D02*
D03*
X311150Y-10160D02*
D03*
X924560Y120650D02*
D03*
D51*
X191770Y-8890D02*
D03*
X194310Y379730D02*
D03*
X278130Y-10160D02*
D03*
D52*
X318300Y626430D02*
D03*
X310210Y418950D02*
D03*
X474510Y177800D02*
D03*
D53*
X318300Y526430D02*
D03*
D54*
X68580Y-7620D02*
D03*
X336550Y-10160D02*
D03*
D55*
X647700Y650240D02*
D03*
X801370Y0D02*
D03*
X918210D02*
D03*
X687070D02*
D03*
X452120D02*
D03*
X568960D02*
D03*
D56*
X698500Y650240D02*
D03*
X750570Y0D02*
D03*
X867410D02*
D03*
X636270D02*
D03*
X401320D02*
D03*
X518160D02*
D03*
X899160Y248920D02*
D03*
D57*
X410210Y418950D02*
D03*
X574510Y177800D02*
D03*
D58*
X0Y0D02*
D03*
D59*
X899160Y299720D02*
D03*
D60*
X154940Y353060D02*
D03*
X106680D02*
D03*
X72390Y396240D02*
D03*
M02*
