G04 Layer_Color=32768*
%FSLAX44Y44*%
%MOMM*%
G71*
G01*
G75*
%ADD15C,0.1000*%
%ADD22C,0.2540*%
%ADD31C,0.1524*%
D15*
X0Y0D02*
Y190000D01*
X250000D01*
Y0D02*
Y190000D01*
X0Y0D02*
X250000D01*
D22*
X253040Y190000D02*
X322580D01*
X253040Y0D02*
X322580D01*
X320040Y158982D02*
Y190000D01*
Y0D02*
Y82296D01*
X314960Y174760D02*
X320040Y190000D01*
X325120Y174760D01*
X320040Y0D02*
X325120Y15240D01*
X314960D02*
X320040Y0D01*
X0Y-45720D02*
Y-3040D01*
X250000Y-45720D02*
Y-3040D01*
X0Y-43180D02*
X91186D01*
X170411D02*
X250000D01*
X0D02*
X15240Y-48260D01*
X0Y-43180D02*
X15240Y-38100D01*
X234760D02*
X250000Y-43180D01*
X234760Y-48260D02*
X250000Y-43180D01*
D31*
X326390Y86360D02*
Y91438D01*
Y88899D01*
X311155D01*
X313694Y86360D01*
X323851Y99056D02*
X326390Y101595D01*
Y106673D01*
X323851Y109213D01*
X313694D01*
X311155Y106673D01*
Y101595D01*
X313694Y99056D01*
X316233D01*
X318773Y101595D01*
Y109213D01*
X328929Y116830D02*
X326390Y119369D01*
X323851D01*
Y116830D01*
X326390D01*
Y119369D01*
X328929Y116830D01*
X331468Y114291D01*
X313694Y129526D02*
X311155Y132065D01*
Y137144D01*
X313694Y139683D01*
X323851D01*
X326390Y137144D01*
Y132065D01*
X323851Y129526D01*
X313694D01*
Y144761D02*
X311155Y147300D01*
Y152379D01*
X313694Y154918D01*
X323851D01*
X326390Y152379D01*
Y147300D01*
X323851Y144761D01*
X313694D01*
X105407Y-49530D02*
X95250D01*
X105407Y-39373D01*
Y-36834D01*
X102867Y-34295D01*
X97789D01*
X95250Y-36834D01*
X120642Y-34295D02*
X110485D01*
Y-41912D01*
X115563Y-39373D01*
X118103D01*
X120642Y-41912D01*
Y-46991D01*
X118103Y-49530D01*
X113024D01*
X110485Y-46991D01*
X128259Y-52069D02*
X130799Y-49530D01*
Y-46991D01*
X128259D01*
Y-49530D01*
X130799D01*
X128259Y-52069D01*
X125720Y-54608D01*
X140955Y-36834D02*
X143494Y-34295D01*
X148573D01*
X151112Y-36834D01*
Y-46991D01*
X148573Y-49530D01*
X143494D01*
X140955Y-46991D01*
Y-36834D01*
X156190D02*
X158729Y-34295D01*
X163808D01*
X166347Y-36834D01*
Y-46991D01*
X163808Y-49530D01*
X158729D01*
X156190Y-46991D01*
Y-36834D01*
M02*
