G04 Layer_Color=8388736*
%FSLAX44Y44*%
%MOMM*%
G71*
G01*
G75*
%ADD15C,0.1000*%
%ADD23R,1.8532X0.5532*%
%ADD24O,1.8532X0.5532*%
G04:AMPARAMS|DCode=25|XSize=2.7032mm|YSize=2.7032mm|CornerRadius=0.2266mm|HoleSize=0mm|Usage=FLASHONLY|Rotation=90.000|XOffset=0mm|YOffset=0mm|HoleType=Round|Shape=RoundedRectangle|*
%AMROUNDEDRECTD25*
21,1,2.7032,2.2500,0,0,90.0*
21,1,2.2500,2.7032,0,0,90.0*
1,1,0.4532,1.1250,1.1250*
1,1,0.4532,1.1250,-1.1250*
1,1,0.4532,-1.1250,-1.1250*
1,1,0.4532,-1.1250,1.1250*
%
%ADD25ROUNDEDRECTD25*%
G04:AMPARAMS|DCode=26|XSize=1.7032mm|YSize=2.2032mm|CornerRadius=0.1766mm|HoleSize=0mm|Usage=FLASHONLY|Rotation=0.000|XOffset=0mm|YOffset=0mm|HoleType=Round|Shape=RoundedRectangle|*
%AMROUNDEDRECTD26*
21,1,1.7032,1.8500,0,0,0.0*
21,1,1.3500,2.2032,0,0,0.0*
1,1,0.3532,0.6750,-0.9250*
1,1,0.3532,-0.6750,-0.9250*
1,1,0.3532,-0.6750,0.9250*
1,1,0.3532,0.6750,0.9250*
%
%ADD26ROUNDEDRECTD26*%
%ADD27C,1.9032*%
%ADD28C,1.7032*%
%ADD29R,1.7032X1.7032*%
%ADD30C,1.4732*%
D15*
X0Y0D02*
Y190000D01*
X250000D01*
Y0D02*
Y190000D01*
X0Y0D02*
X250000D01*
D23*
X98270Y132740D02*
D03*
D24*
Y126365D02*
D03*
Y120015D02*
D03*
Y113665D02*
D03*
Y107315D02*
D03*
Y100965D02*
D03*
Y94615D02*
D03*
Y88240D02*
D03*
X158270Y132740D02*
D03*
Y126365D02*
D03*
Y120015D02*
D03*
Y113665D02*
D03*
Y107315D02*
D03*
Y100965D02*
D03*
Y94615D02*
D03*
Y88240D02*
D03*
D25*
X128270Y110490D02*
D03*
D26*
Y145490D02*
D03*
Y75490D02*
D03*
D27*
X192240Y21590D02*
D03*
X92240D02*
D03*
X63500Y132550D02*
D03*
Y32550D02*
D03*
X193040Y152870D02*
D03*
Y52870D02*
D03*
D28*
X228600Y61900D02*
D03*
Y87300D02*
D03*
Y112700D02*
D03*
X25000Y61900D02*
D03*
Y87300D02*
D03*
Y112700D02*
D03*
D29*
X228600Y138100D02*
D03*
X25000D02*
D03*
D30*
X183540Y132740D02*
D03*
M02*
