G04 Layer_Physical_Order=2*
G04 Layer_Color=13278208*
%FSLAX44Y44*%
%MOMM*%
G71*
G01*
G75*
%ADD15C,0.1000*%
%ADD16C,1.7000*%
%ADD17C,1.5000*%
%ADD18R,1.5000X1.5000*%
%ADD19C,1.2700*%
G36*
X247650Y6350D02*
X2540D01*
Y185420D01*
X247650D01*
Y6350D01*
D02*
G37*
%LPC*%
G36*
X204008Y51600D02*
X194310D01*
Y41902D01*
X195922Y42114D01*
X198608Y43227D01*
X200914Y44996D01*
X202683Y47302D01*
X203796Y49988D01*
X204008Y51600D01*
D02*
G37*
G36*
X23730Y60630D02*
X15041D01*
X15218Y59279D01*
X16230Y56837D01*
X17839Y54739D01*
X19937Y53130D01*
X22379Y52118D01*
X23730Y51941D01*
Y60630D01*
D02*
G37*
G36*
X64770Y43518D02*
Y33820D01*
X74468D01*
X74256Y35432D01*
X73143Y38118D01*
X71374Y40424D01*
X69068Y42193D01*
X66382Y43306D01*
X64770Y43518D01*
D02*
G37*
G36*
X191770Y51600D02*
X182072D01*
X182284Y49988D01*
X183397Y47302D01*
X185166Y44996D01*
X187472Y43227D01*
X190158Y42114D01*
X191770Y41902D01*
Y51600D01*
D02*
G37*
G36*
X34959Y60630D02*
X26270D01*
Y51941D01*
X27621Y52118D01*
X30063Y53130D01*
X32161Y54739D01*
X33770Y56837D01*
X34782Y59279D01*
X34959Y60630D01*
D02*
G37*
G36*
X191770Y63838D02*
X190158Y63626D01*
X187472Y62513D01*
X185166Y60744D01*
X183397Y58438D01*
X182284Y55752D01*
X182072Y54140D01*
X191770D01*
Y63838D01*
D02*
G37*
G36*
X227330Y60630D02*
X218641D01*
X218818Y59279D01*
X219830Y56837D01*
X221439Y54739D01*
X223537Y53130D01*
X225979Y52118D01*
X227330Y51941D01*
Y60630D01*
D02*
G37*
G36*
X238559D02*
X229870D01*
Y51941D01*
X231221Y52118D01*
X233663Y53130D01*
X235761Y54739D01*
X237370Y56837D01*
X238382Y59279D01*
X238559Y60630D01*
D02*
G37*
G36*
X103208Y20320D02*
X93510D01*
Y10622D01*
X95122Y10834D01*
X97808Y11947D01*
X100114Y13716D01*
X101883Y16022D01*
X102996Y18708D01*
X103208Y20320D01*
D02*
G37*
G36*
X62230Y31280D02*
X52532D01*
X52744Y29668D01*
X53857Y26982D01*
X55626Y24676D01*
X57932Y22907D01*
X60618Y21794D01*
X62230Y21582D01*
Y31280D01*
D02*
G37*
G36*
X192240Y32725D02*
X189358Y32346D01*
X186672Y31233D01*
X184366Y29464D01*
X182597Y27158D01*
X181484Y24472D01*
X181105Y21590D01*
X181484Y18708D01*
X182597Y16022D01*
X184366Y13716D01*
X186672Y11947D01*
X189358Y10834D01*
X192240Y10455D01*
X195122Y10834D01*
X197808Y11947D01*
X200114Y13716D01*
X201883Y16022D01*
X202996Y18708D01*
X203375Y21590D01*
X202996Y24472D01*
X201883Y27158D01*
X200114Y29464D01*
X197808Y31233D01*
X195122Y32346D01*
X192240Y32725D01*
D02*
G37*
G36*
X90970Y20320D02*
X81272D01*
X81484Y18708D01*
X82597Y16022D01*
X84366Y13716D01*
X86672Y11947D01*
X89358Y10834D01*
X90970Y10622D01*
Y20320D01*
D02*
G37*
G36*
X93510Y32558D02*
Y22860D01*
X103208D01*
X102996Y24472D01*
X101883Y27158D01*
X100114Y29464D01*
X97808Y31233D01*
X95122Y32346D01*
X93510Y32558D01*
D02*
G37*
G36*
X62230Y43518D02*
X60618Y43306D01*
X57932Y42193D01*
X55626Y40424D01*
X53857Y38118D01*
X52744Y35432D01*
X52532Y33820D01*
X62230D01*
Y43518D01*
D02*
G37*
G36*
X74468Y31280D02*
X64770D01*
Y21582D01*
X66382Y21794D01*
X69068Y22907D01*
X71374Y24676D01*
X73143Y26982D01*
X74256Y29668D01*
X74468Y31280D01*
D02*
G37*
G36*
X90970Y32558D02*
X89358Y32346D01*
X86672Y31233D01*
X84366Y29464D01*
X82597Y27158D01*
X81484Y24472D01*
X81272Y22860D01*
X90970D01*
Y32558D01*
D02*
G37*
G36*
X192339Y131470D02*
X184810D01*
Y123940D01*
X185861Y124079D01*
X188023Y124975D01*
X189880Y126400D01*
X191305Y128257D01*
X192201Y130419D01*
X192339Y131470D01*
D02*
G37*
G36*
X35040Y148140D02*
X14960D01*
Y128060D01*
X35040D01*
Y148140D01*
D02*
G37*
G36*
X63500Y143685D02*
X60618Y143306D01*
X57932Y142193D01*
X55626Y140424D01*
X53857Y138118D01*
X52744Y135432D01*
X52365Y132550D01*
X52744Y129668D01*
X53857Y126982D01*
X55626Y124676D01*
X57932Y122907D01*
X60618Y121794D01*
X63500Y121415D01*
X66382Y121794D01*
X69068Y122907D01*
X71374Y124676D01*
X73143Y126982D01*
X74256Y129668D01*
X74635Y132550D01*
X74256Y135432D01*
X73143Y138118D01*
X71374Y140424D01*
X69068Y142193D01*
X66382Y143306D01*
X63500Y143685D01*
D02*
G37*
G36*
X182270Y131470D02*
X174741D01*
X174879Y130419D01*
X175775Y128257D01*
X177200Y126400D01*
X179057Y124975D01*
X181219Y124079D01*
X182270Y123940D01*
Y131470D01*
D02*
G37*
G36*
X184810Y141539D02*
Y134010D01*
X192339D01*
X192201Y135061D01*
X191305Y137223D01*
X189880Y139080D01*
X188023Y140505D01*
X185861Y141401D01*
X184810Y141539D01*
D02*
G37*
G36*
X193040Y164005D02*
X190158Y163626D01*
X187472Y162513D01*
X185166Y160744D01*
X183397Y158438D01*
X182284Y155752D01*
X181905Y152870D01*
X182284Y149988D01*
X183397Y147302D01*
X185166Y144996D01*
X187472Y143227D01*
X190158Y142114D01*
X193040Y141735D01*
X195922Y142114D01*
X198608Y143227D01*
X200914Y144996D01*
X202683Y147302D01*
X203796Y149988D01*
X204175Y152870D01*
X203796Y155752D01*
X202683Y158438D01*
X200914Y160744D01*
X198608Y162513D01*
X195922Y163626D01*
X193040Y164005D01*
D02*
G37*
G36*
X238640Y148140D02*
X218560D01*
Y128060D01*
X238640D01*
Y148140D01*
D02*
G37*
G36*
X182270Y141539D02*
X181219Y141401D01*
X179057Y140505D01*
X177200Y139080D01*
X175775Y137223D01*
X174879Y135061D01*
X174741Y134010D01*
X182270D01*
Y141539D01*
D02*
G37*
G36*
X228600Y122827D02*
X225979Y122482D01*
X223537Y121470D01*
X221439Y119861D01*
X219830Y117763D01*
X218818Y115321D01*
X218473Y112700D01*
X218818Y110079D01*
X219830Y107637D01*
X221439Y105539D01*
X223537Y103930D01*
X225979Y102918D01*
X228600Y102573D01*
X231221Y102918D01*
X233663Y103930D01*
X235761Y105539D01*
X237370Y107637D01*
X238382Y110079D01*
X238727Y112700D01*
X238382Y115321D01*
X237370Y117763D01*
X235761Y119861D01*
X233663Y121470D01*
X231221Y122482D01*
X228600Y122827D01*
D02*
G37*
G36*
X229870Y71859D02*
Y63170D01*
X238559D01*
X238382Y64521D01*
X237370Y66963D01*
X235761Y69061D01*
X233663Y70670D01*
X231221Y71682D01*
X229870Y71859D01*
D02*
G37*
G36*
X23730Y71859D02*
X22379Y71682D01*
X19937Y70670D01*
X17839Y69061D01*
X16230Y66963D01*
X15218Y64521D01*
X15041Y63170D01*
X23730D01*
Y71859D01*
D02*
G37*
G36*
X194310Y63838D02*
Y54140D01*
X204008D01*
X203796Y55752D01*
X202683Y58438D01*
X200914Y60744D01*
X198608Y62513D01*
X195922Y63626D01*
X194310Y63838D01*
D02*
G37*
G36*
X227330Y71859D02*
X225979Y71682D01*
X223537Y70670D01*
X221439Y69061D01*
X219830Y66963D01*
X218818Y64521D01*
X218641Y63170D01*
X227330D01*
Y71859D01*
D02*
G37*
G36*
X228600Y97427D02*
X225979Y97082D01*
X223537Y96070D01*
X221439Y94461D01*
X219830Y92363D01*
X218818Y89921D01*
X218473Y87300D01*
X218818Y84679D01*
X219830Y82237D01*
X221439Y80139D01*
X223537Y78530D01*
X225979Y77518D01*
X228600Y77173D01*
X231221Y77518D01*
X233663Y78530D01*
X235761Y80139D01*
X237370Y82237D01*
X238382Y84679D01*
X238727Y87300D01*
X238382Y89921D01*
X237370Y92363D01*
X235761Y94461D01*
X233663Y96070D01*
X231221Y97082D01*
X228600Y97427D01*
D02*
G37*
G36*
X25000Y122827D02*
X22379Y122482D01*
X19937Y121470D01*
X17839Y119861D01*
X16230Y117763D01*
X15218Y115321D01*
X14873Y112700D01*
X15218Y110079D01*
X16230Y107637D01*
X17839Y105539D01*
X19937Y103930D01*
X22379Y102918D01*
X25000Y102573D01*
X27621Y102918D01*
X30063Y103930D01*
X32161Y105539D01*
X33770Y107637D01*
X34782Y110079D01*
X35127Y112700D01*
X34782Y115321D01*
X33770Y117763D01*
X32161Y119861D01*
X30063Y121470D01*
X27621Y122482D01*
X25000Y122827D01*
D02*
G37*
G36*
X26270Y71859D02*
Y63170D01*
X34959D01*
X34782Y64521D01*
X33770Y66963D01*
X32161Y69061D01*
X30063Y70670D01*
X27621Y71682D01*
X26270Y71859D01*
D02*
G37*
G36*
X25000Y97427D02*
X22379Y97082D01*
X19937Y96070D01*
X17839Y94461D01*
X16230Y92363D01*
X15218Y89921D01*
X14873Y87300D01*
X15218Y84679D01*
X16230Y82237D01*
X17839Y80139D01*
X19937Y78530D01*
X22379Y77518D01*
X25000Y77173D01*
X27621Y77518D01*
X30063Y78530D01*
X32161Y80139D01*
X33770Y82237D01*
X34782Y84679D01*
X35127Y87300D01*
X34782Y89921D01*
X33770Y92363D01*
X32161Y94461D01*
X30063Y96070D01*
X27621Y97082D01*
X25000Y97427D01*
D02*
G37*
%LPD*%
D15*
X0Y0D02*
Y190000D01*
X250000D01*
Y0D02*
Y190000D01*
X0Y0D02*
X250000D01*
D16*
X192240Y21590D02*
D03*
X92240D02*
D03*
X63500Y132550D02*
D03*
Y32550D02*
D03*
X193040Y152870D02*
D03*
Y52870D02*
D03*
D17*
X228600Y61900D02*
D03*
Y87300D02*
D03*
Y112700D02*
D03*
X25000Y61900D02*
D03*
Y87300D02*
D03*
Y112700D02*
D03*
D18*
X228600Y138100D02*
D03*
X25000D02*
D03*
D19*
X183540Y132740D02*
D03*
M02*
