G04 Layer_Physical_Order=1*
G04 Layer_Color=6759642*
%FSLAX44Y44*%
%MOMM*%
G71*
G01*
G75*
%ADD10R,1.6500X0.3500*%
%ADD11O,1.6500X0.3500*%
G04:AMPARAMS|DCode=12|XSize=2.5mm|YSize=2.5mm|CornerRadius=0.125mm|HoleSize=0mm|Usage=FLASHONLY|Rotation=90.000|XOffset=0mm|YOffset=0mm|HoleType=Round|Shape=RoundedRectangle|*
%AMROUNDEDRECTD12*
21,1,2.5000,2.2500,0,0,90.0*
21,1,2.2500,2.5000,0,0,90.0*
1,1,0.2500,1.1250,1.1250*
1,1,0.2500,1.1250,-1.1250*
1,1,0.2500,-1.1250,-1.1250*
1,1,0.2500,-1.1250,1.1250*
%
%ADD12ROUNDEDRECTD12*%
G04:AMPARAMS|DCode=13|XSize=1.5mm|YSize=2mm|CornerRadius=0.075mm|HoleSize=0mm|Usage=FLASHONLY|Rotation=0.000|XOffset=0mm|YOffset=0mm|HoleType=Round|Shape=RoundedRectangle|*
%AMROUNDEDRECTD13*
21,1,1.5000,1.8500,0,0,0.0*
21,1,1.3500,2.0000,0,0,0.0*
1,1,0.1500,0.6750,-0.9250*
1,1,0.1500,-0.6750,-0.9250*
1,1,0.1500,-0.6750,0.9250*
1,1,0.1500,0.6750,0.9250*
%
%ADD13ROUNDEDRECTD13*%
%ADD14C,0.3000*%
%ADD15C,0.1000*%
%ADD16C,1.7000*%
%ADD17C,1.5000*%
%ADD18R,1.5000X1.5000*%
%ADD19C,1.2700*%
G36*
X247650Y6350D02*
X2540D01*
Y185420D01*
X247650D01*
Y6350D01*
D02*
G37*
%LPC*%
G36*
X168891Y99695D02*
X158270D01*
X147649D01*
X147729Y99291D01*
X148047Y98815D01*
X148630Y97790D01*
X148047Y96765D01*
X147729Y96289D01*
X147396Y94615D01*
X147729Y92941D01*
X148677Y91522D01*
Y91333D01*
X147729Y89914D01*
X147396Y88240D01*
X147729Y86566D01*
X148677Y85147D01*
X150096Y84199D01*
X151770Y83866D01*
X164770D01*
X166052Y84121D01*
X219050D01*
X219830Y82237D01*
X221439Y80139D01*
X223537Y78530D01*
X225979Y77518D01*
X228600Y77173D01*
X231221Y77518D01*
X233663Y78530D01*
X235761Y80139D01*
X237370Y82237D01*
X238382Y84679D01*
X238727Y87300D01*
X238382Y89921D01*
X237370Y92363D01*
X235761Y94461D01*
X233663Y96070D01*
X231221Y97082D01*
X228600Y97427D01*
X225979Y97082D01*
X223537Y96070D01*
X221439Y94461D01*
X219830Y92363D01*
X219828Y92359D01*
X169833D01*
X168948Y93629D01*
X169144Y94615D01*
X168811Y96289D01*
X168493Y96765D01*
X167910Y97790D01*
X168493Y98815D01*
X168811Y99291D01*
X168891Y99695D01*
D02*
G37*
G36*
X127000Y109220D02*
X113156D01*
Y99240D01*
X113450Y97761D01*
X114288Y96508D01*
X115541Y95670D01*
X117020Y95376D01*
X127000D01*
Y109220D01*
D02*
G37*
G36*
X135020Y88095D02*
X129540D01*
Y76760D01*
X138375D01*
Y84740D01*
X138119Y86024D01*
X137392Y87112D01*
X136304Y87839D01*
X135020Y88095D01*
D02*
G37*
G36*
X138375Y74220D02*
X129540D01*
Y62885D01*
X135020D01*
X136304Y63141D01*
X137392Y63868D01*
X138119Y64956D01*
X138375Y66240D01*
Y74220D01*
D02*
G37*
G36*
X127000Y88095D02*
X121520D01*
X120236Y87839D01*
X119148Y87112D01*
X118421Y86024D01*
X118166Y84740D01*
Y76760D01*
X127000D01*
Y88095D01*
D02*
G37*
G36*
X109060Y131470D02*
X98270D01*
X87480D01*
Y128450D01*
X87480Y128450D01*
X87480D01*
X87558Y127180D01*
X87396Y126365D01*
X87729Y124691D01*
X88047Y124215D01*
X88630Y123190D01*
X88047Y122165D01*
X87729Y121689D01*
X87396Y120015D01*
X87587Y119054D01*
X86690Y117784D01*
X33754D01*
X32161Y119861D01*
X30063Y121470D01*
X27621Y122482D01*
X25000Y122827D01*
X22379Y122482D01*
X19937Y121470D01*
X17839Y119861D01*
X16230Y117763D01*
X15218Y115321D01*
X14873Y112700D01*
X15218Y110079D01*
X16230Y107637D01*
X17839Y105539D01*
X19937Y103930D01*
X22379Y102918D01*
X25000Y102573D01*
X27621Y102918D01*
X30063Y103930D01*
X32161Y105539D01*
X33770Y107637D01*
X34561Y109546D01*
X39761D01*
X40247Y108372D01*
X28565Y96691D01*
X27621Y97082D01*
X25000Y97427D01*
X22379Y97082D01*
X19937Y96070D01*
X17839Y94461D01*
X16230Y92363D01*
X15218Y89921D01*
X14873Y87300D01*
X15218Y84679D01*
X16230Y82237D01*
X17839Y80139D01*
X19937Y78530D01*
X22379Y77518D01*
X25000Y77173D01*
X27621Y77518D01*
X30063Y78530D01*
X32161Y80139D01*
X33770Y82237D01*
X34782Y84679D01*
X35127Y87300D01*
X34782Y89921D01*
X34390Y90865D01*
X46721Y103196D01*
X86690D01*
X87587Y101926D01*
X87396Y100965D01*
X87729Y99291D01*
X88047Y98815D01*
X88630Y97790D01*
X88047Y96765D01*
X87729Y96289D01*
X87396Y94615D01*
X87729Y92941D01*
X88677Y91522D01*
Y91333D01*
X87729Y89914D01*
X87396Y88240D01*
X87729Y86566D01*
X88677Y85147D01*
X90096Y84199D01*
X91770Y83866D01*
X104770D01*
X106444Y84199D01*
X107863Y85147D01*
X108811Y86566D01*
X109144Y88240D01*
X108811Y89914D01*
X107863Y91333D01*
Y91522D01*
X108811Y92941D01*
X109144Y94615D01*
X108811Y96289D01*
X108493Y96765D01*
X107910Y97790D01*
X108493Y98815D01*
X108811Y99291D01*
X109144Y100965D01*
X108811Y102639D01*
X108493Y103115D01*
X107910Y104140D01*
X108493Y105165D01*
X108811Y105641D01*
X109144Y107315D01*
X108811Y108989D01*
X108493Y109465D01*
X107910Y110490D01*
X108493Y111515D01*
X108811Y111991D01*
X109144Y113665D01*
X108811Y115339D01*
X108493Y115815D01*
X107910Y116840D01*
X108493Y117865D01*
X108811Y118341D01*
X109144Y120015D01*
X108811Y121689D01*
X108493Y122165D01*
X107910Y123190D01*
X108493Y124215D01*
X108811Y124691D01*
X109144Y126365D01*
X108982Y127180D01*
X109060Y128450D01*
X109060Y128450D01*
X109060Y128450D01*
Y131470D01*
D02*
G37*
G36*
X62230Y131280D02*
X52532D01*
X52744Y129668D01*
X53857Y126982D01*
X55626Y124676D01*
X57932Y122907D01*
X60618Y121794D01*
X62230Y121582D01*
Y131280D01*
D02*
G37*
G36*
X139520Y125604D02*
X129540D01*
Y111760D01*
X143384D01*
Y121740D01*
X143090Y123219D01*
X142252Y124472D01*
X140999Y125310D01*
X139520Y125604D01*
D02*
G37*
G36*
X143384Y109220D02*
X129540D01*
Y95376D01*
X139520D01*
X140999Y95670D01*
X142252Y96508D01*
X143090Y97761D01*
X143384Y99240D01*
Y109220D01*
D02*
G37*
G36*
X127000Y125604D02*
X117020D01*
X115541Y125310D01*
X114288Y124472D01*
X113450Y123219D01*
X113156Y121740D01*
Y111760D01*
X127000D01*
Y125604D01*
D02*
G37*
G36*
X63500Y43685D02*
X60618Y43306D01*
X57932Y42193D01*
X55626Y40424D01*
X53857Y38118D01*
X52744Y35432D01*
X52365Y32550D01*
X52744Y29668D01*
X53857Y26982D01*
X55626Y24676D01*
X57932Y22907D01*
X60618Y21794D01*
X63500Y21415D01*
X66382Y21794D01*
X69068Y22907D01*
X71374Y24676D01*
X73143Y26982D01*
X74256Y29668D01*
X74635Y32550D01*
X74256Y35432D01*
X73143Y38118D01*
X71374Y40424D01*
X69068Y42193D01*
X66382Y43306D01*
X63500Y43685D01*
D02*
G37*
G36*
X190970Y32558D02*
X189358Y32346D01*
X186672Y31233D01*
X184366Y29464D01*
X182597Y27158D01*
X181484Y24472D01*
X181272Y22860D01*
X190970D01*
Y32558D01*
D02*
G37*
G36*
X203208Y20320D02*
X193510D01*
Y10622D01*
X195122Y10834D01*
X197808Y11947D01*
X200114Y13716D01*
X201883Y16022D01*
X202996Y18708D01*
X203208Y20320D01*
D02*
G37*
G36*
X92240Y32725D02*
X89358Y32346D01*
X86672Y31233D01*
X84366Y29464D01*
X82597Y27158D01*
X81484Y24472D01*
X81105Y21590D01*
X81484Y18708D01*
X82597Y16022D01*
X84366Y13716D01*
X86672Y11947D01*
X89358Y10834D01*
X92240Y10455D01*
X95122Y10834D01*
X97808Y11947D01*
X100114Y13716D01*
X101883Y16022D01*
X102996Y18708D01*
X103375Y21590D01*
X102996Y24472D01*
X101883Y27158D01*
X100114Y29464D01*
X97808Y31233D01*
X95122Y32346D01*
X92240Y32725D01*
D02*
G37*
G36*
X190970Y20320D02*
X181272D01*
X181484Y18708D01*
X182597Y16022D01*
X184366Y13716D01*
X186672Y11947D01*
X189358Y10834D01*
X190970Y10622D01*
Y20320D01*
D02*
G37*
G36*
X228600Y72027D02*
X225979Y71682D01*
X223537Y70670D01*
X221439Y69061D01*
X219830Y66963D01*
X218818Y64521D01*
X218473Y61900D01*
X218818Y59279D01*
X219830Y56837D01*
X221439Y54739D01*
X223537Y53130D01*
X225979Y52118D01*
X228600Y51773D01*
X231221Y52118D01*
X233663Y53130D01*
X235761Y54739D01*
X237370Y56837D01*
X238382Y59279D01*
X238727Y61900D01*
X238382Y64521D01*
X237370Y66963D01*
X235761Y69061D01*
X233663Y70670D01*
X231221Y71682D01*
X228600Y72027D01*
D02*
G37*
G36*
X127000Y74220D02*
X118166D01*
Y66240D01*
X118421Y64956D01*
X119148Y63868D01*
X120236Y63141D01*
X121520Y62885D01*
X127000D01*
Y74220D01*
D02*
G37*
G36*
X25000Y72027D02*
X22379Y71682D01*
X19937Y70670D01*
X17839Y69061D01*
X16230Y66963D01*
X15218Y64521D01*
X14873Y61900D01*
X15218Y59279D01*
X16230Y56837D01*
X17839Y54739D01*
X19937Y53130D01*
X22379Y52118D01*
X25000Y51773D01*
X27621Y52118D01*
X30063Y53130D01*
X32161Y54739D01*
X33770Y56837D01*
X34782Y59279D01*
X35127Y61900D01*
X34782Y64521D01*
X33770Y66963D01*
X32161Y69061D01*
X30063Y70670D01*
X27621Y71682D01*
X25000Y72027D01*
D02*
G37*
G36*
X193510Y32558D02*
Y22860D01*
X203208D01*
X202996Y24472D01*
X201883Y27158D01*
X200114Y29464D01*
X197808Y31233D01*
X195122Y32346D01*
X193510Y32558D01*
D02*
G37*
G36*
X193040Y64005D02*
X190158Y63626D01*
X187472Y62513D01*
X185166Y60744D01*
X183397Y58438D01*
X182284Y55752D01*
X181905Y52870D01*
X182284Y49988D01*
X183397Y47302D01*
X185166Y44996D01*
X187472Y43227D01*
X190158Y42114D01*
X193040Y41735D01*
X195922Y42114D01*
X198608Y43227D01*
X200914Y44996D01*
X202683Y47302D01*
X203796Y49988D01*
X204175Y52870D01*
X203796Y55752D01*
X202683Y58438D01*
X200914Y60744D01*
X198608Y62513D01*
X195922Y63626D01*
X193040Y64005D01*
D02*
G37*
G36*
X74468Y131280D02*
X64770D01*
Y121582D01*
X66382Y121794D01*
X69068Y122907D01*
X71374Y124676D01*
X73143Y126982D01*
X74256Y129668D01*
X74468Y131280D01*
D02*
G37*
G36*
X35040Y148140D02*
X26270D01*
Y139370D01*
X35040D01*
Y148140D01*
D02*
G37*
G36*
X191770Y151600D02*
X182072D01*
X182284Y149988D01*
X183397Y147302D01*
X185166Y144996D01*
X187472Y143227D01*
X190158Y142114D01*
X191770Y141902D01*
Y151600D01*
D02*
G37*
G36*
X23730Y148140D02*
X14960D01*
Y139370D01*
X23730D01*
Y148140D01*
D02*
G37*
G36*
X227330D02*
X218560D01*
Y139370D01*
X227330D01*
Y148140D01*
D02*
G37*
G36*
X238640D02*
X229870D01*
Y139370D01*
X238640D01*
Y148140D01*
D02*
G37*
G36*
X191770Y163838D02*
X190158Y163626D01*
X187472Y162513D01*
X185166Y160744D01*
X183397Y158438D01*
X182284Y155752D01*
X182072Y154140D01*
X191770D01*
Y163838D01*
D02*
G37*
G36*
X194310D02*
Y154140D01*
X204008D01*
X203796Y155752D01*
X202683Y158438D01*
X200914Y160744D01*
X198608Y162513D01*
X195922Y163626D01*
X194310Y163838D01*
D02*
G37*
G36*
X135020Y158095D02*
X129540D01*
Y146760D01*
X138375D01*
Y154740D01*
X138119Y156024D01*
X137392Y157112D01*
X136304Y157839D01*
X135020Y158095D01*
D02*
G37*
G36*
X204008Y151600D02*
X194310D01*
Y141902D01*
X195922Y142114D01*
X198608Y143227D01*
X200914Y144996D01*
X202683Y147302D01*
X203796Y149988D01*
X204008Y151600D01*
D02*
G37*
G36*
X127000Y158095D02*
X121520D01*
X120236Y157839D01*
X119148Y157112D01*
X118421Y156024D01*
X118166Y154740D01*
Y146760D01*
X127000D01*
Y158095D01*
D02*
G37*
G36*
X183540Y141707D02*
X181219Y141401D01*
X179057Y140505D01*
X177200Y139080D01*
X175775Y137223D01*
X175624Y136859D01*
X166052D01*
X164770Y137114D01*
X151770D01*
X150096Y136781D01*
X148677Y135833D01*
X147729Y134414D01*
X147396Y132740D01*
X147729Y131066D01*
X148677Y129647D01*
Y129458D01*
X147729Y128039D01*
X147396Y126365D01*
X147729Y124691D01*
X148047Y124215D01*
X148630Y123190D01*
X148047Y122165D01*
X147729Y121689D01*
X147396Y120015D01*
X147729Y118341D01*
X148047Y117865D01*
X148630Y116840D01*
X148047Y115815D01*
X147729Y115339D01*
X147396Y113665D01*
X147729Y111991D01*
X148047Y111515D01*
X148630Y110490D01*
X148047Y109465D01*
X147729Y108989D01*
X147396Y107315D01*
X147729Y105641D01*
X148047Y105165D01*
X148630Y104140D01*
X148047Y103115D01*
X147729Y102639D01*
X147648Y102235D01*
X158270D01*
X168891D01*
X168811Y102639D01*
X168493Y103115D01*
X167910Y104140D01*
X168493Y105165D01*
X168811Y105641D01*
X169144Y107315D01*
X168953Y108276D01*
X169850Y109546D01*
X219039D01*
X219830Y107637D01*
X221439Y105539D01*
X223537Y103930D01*
X225979Y102918D01*
X228600Y102573D01*
X231221Y102918D01*
X233663Y103930D01*
X235761Y105539D01*
X237370Y107637D01*
X238382Y110079D01*
X238727Y112700D01*
X238382Y115321D01*
X237370Y117763D01*
X235761Y119861D01*
X233663Y121470D01*
X231221Y122482D01*
X228600Y122827D01*
X225979Y122482D01*
X223537Y121470D01*
X221439Y119861D01*
X219846Y117784D01*
X169850D01*
X168953Y119054D01*
X169144Y120015D01*
X168811Y121689D01*
X168493Y122165D01*
X167910Y123190D01*
X168493Y124215D01*
X168811Y124691D01*
X169144Y126365D01*
X168948Y127351D01*
X169833Y128621D01*
X175624D01*
X175775Y128257D01*
X177200Y126400D01*
X179057Y124975D01*
X181219Y124079D01*
X183540Y123773D01*
X185861Y124079D01*
X188023Y124975D01*
X189880Y126400D01*
X191305Y128257D01*
X192201Y130419D01*
X192507Y132740D01*
X192201Y135061D01*
X191305Y137223D01*
X189880Y139080D01*
X188023Y140505D01*
X185861Y141401D01*
X183540Y141707D01*
D02*
G37*
G36*
X238640Y136830D02*
X229870D01*
Y128060D01*
X238640D01*
Y136830D01*
D02*
G37*
G36*
X127000Y144220D02*
X118166D01*
Y136240D01*
X118421Y134956D01*
X119148Y133868D01*
X120236Y133141D01*
X121520Y132886D01*
X127000D01*
Y144220D01*
D02*
G37*
G36*
X227330Y136830D02*
X218560D01*
Y128060D01*
X227330D01*
Y136830D01*
D02*
G37*
G36*
X23730Y136830D02*
X14960D01*
Y128060D01*
X23730D01*
Y136830D01*
D02*
G37*
G36*
X35040D02*
X26270D01*
Y128060D01*
X35040D01*
Y136830D01*
D02*
G37*
G36*
X97000Y137030D02*
X87480D01*
Y134010D01*
X97000D01*
Y137030D01*
D02*
G37*
G36*
X109060D02*
X99540D01*
Y134010D01*
X109060D01*
Y137030D01*
D02*
G37*
G36*
X64770Y143518D02*
Y133820D01*
X74468D01*
X74256Y135432D01*
X73143Y138118D01*
X71374Y140424D01*
X69068Y142193D01*
X66382Y143306D01*
X64770Y143518D01*
D02*
G37*
G36*
X138375Y144220D02*
X129540D01*
Y132886D01*
X135020D01*
X136304Y133141D01*
X137392Y133868D01*
X138119Y134956D01*
X138375Y136240D01*
Y144220D01*
D02*
G37*
G36*
X62230Y143518D02*
X60618Y143306D01*
X57932Y142193D01*
X55626Y140424D01*
X53857Y138118D01*
X52744Y135432D01*
X52532Y133820D01*
X62230D01*
Y143518D01*
D02*
G37*
%LPD*%
D10*
X98270Y132740D02*
D03*
D11*
Y126365D02*
D03*
Y120015D02*
D03*
Y113665D02*
D03*
Y107315D02*
D03*
Y100965D02*
D03*
Y94615D02*
D03*
Y88240D02*
D03*
X158270Y132740D02*
D03*
Y126365D02*
D03*
Y120015D02*
D03*
Y113665D02*
D03*
Y107315D02*
D03*
Y100965D02*
D03*
Y94615D02*
D03*
Y88240D02*
D03*
D12*
X128270Y110490D02*
D03*
D13*
Y145490D02*
D03*
Y75490D02*
D03*
D14*
X193040Y152870D02*
X213830D01*
X135650D02*
X193040D01*
X128270Y145490D02*
X135650Y152870D01*
X213830D02*
X228600Y138100D01*
X58330D02*
X63690Y132740D01*
X25000Y138100D02*
X58330D01*
X63690Y132740D02*
X98270D01*
X106020D02*
X128270Y110490D01*
X98270Y132740D02*
X106020D01*
X128270Y110490D02*
Y145490D01*
Y75490D02*
Y110490D01*
X137795Y100965D01*
X158270D01*
Y132740D02*
X183540D01*
X158270Y126365D02*
Y132740D01*
X227660Y88240D02*
X228600Y87300D01*
X158270Y88240D02*
X227660D01*
X227635Y113665D02*
X228600Y112700D01*
X158270Y113665D02*
X227635D01*
X25000Y87300D02*
X45015Y107315D01*
X98270D01*
X25000Y112700D02*
X25965Y113665D01*
X98270D01*
D15*
X0Y0D02*
Y190000D01*
X250000D01*
Y0D02*
Y190000D01*
X0Y0D02*
X250000D01*
D16*
X192240Y21590D02*
D03*
X92240D02*
D03*
X63500Y132550D02*
D03*
Y32550D02*
D03*
X193040Y152870D02*
D03*
Y52870D02*
D03*
D17*
X228600Y61900D02*
D03*
Y87300D02*
D03*
Y112700D02*
D03*
X25000Y61900D02*
D03*
Y87300D02*
D03*
Y112700D02*
D03*
D18*
X228600Y138100D02*
D03*
X25000D02*
D03*
D19*
X183540Y132740D02*
D03*
M02*
