G04 Layer_Physical_Order=2*
G04 Layer_Color=13278208*
%FSLAX44Y44*%
%MOMM*%
G71*
G01*
G75*
%ADD12C,1.5000*%
%ADD13C,1.0000*%
%ADD14C,0.7000*%
%ADD15C,0.6000*%
%ADD17C,0.3000*%
%ADD18C,2.5000*%
%ADD19R,2.4000X2.4000*%
%ADD20C,2.4000*%
%ADD21C,1.8000*%
%ADD22R,1.8000X1.8000*%
%ADD23R,1.8000X1.8000*%
%ADD24C,1.5000*%
%ADD25R,1.5000X1.5000*%
%ADD26C,1.5000*%
%ADD27R,1.5000X1.5000*%
%ADD28R,2.4000X2.4000*%
%ADD29C,1.7000*%
%ADD30C,1.2700*%
G36*
X522060Y175810D02*
X520160Y175710D01*
X518460Y175410D01*
X516960Y174910D01*
X515660Y174210D01*
X514560Y173310D01*
X513660Y172210D01*
X512960Y170910D01*
X512460Y169410D01*
X512160Y167710D01*
X512060Y165810D01*
X502060Y180810D01*
X507060D01*
X522060Y175810D01*
D02*
G37*
G36*
X913130Y440690D02*
Y-24130D01*
X904240Y-33020D01*
X594360D01*
X552450Y8890D01*
Y173205D01*
X679615D01*
X680609Y173184D01*
X681965Y173081D01*
X682452Y173015D01*
X682846Y172941D01*
X683081Y172879D01*
X685312Y171167D01*
X687998Y170054D01*
X690880Y169675D01*
X693762Y170054D01*
X696448Y171167D01*
X698754Y172936D01*
X700523Y175242D01*
X701636Y177928D01*
X702015Y180810D01*
X701636Y183692D01*
X700523Y186378D01*
X698754Y188684D01*
X696448Y190453D01*
X693762Y191566D01*
X690880Y191945D01*
X687998Y191566D01*
X685312Y190453D01*
X683081Y188741D01*
X682846Y188679D01*
X682527Y188619D01*
X679839Y188415D01*
X552450D01*
Y272404D01*
X552576Y272708D01*
X552955Y275590D01*
X552576Y278472D01*
X552450Y278776D01*
Y288290D01*
X506730Y334010D01*
Y458470D01*
X895350D01*
X913130Y440690D01*
D02*
G37*
G36*
X478790Y340360D02*
X485252Y333898D01*
X484766Y332725D01*
X478061D01*
X476184Y332770D01*
X475001Y332868D01*
X474604Y332925D01*
X474313Y332982D01*
X474185Y333018D01*
X474138Y333036D01*
X474134Y333037D01*
X472928Y333963D01*
X470242Y335076D01*
X467360Y335455D01*
X464478Y335076D01*
X461792Y333963D01*
X459486Y332194D01*
X457717Y329888D01*
X456604Y327202D01*
X456225Y324320D01*
X456604Y321438D01*
X457717Y318752D01*
X459486Y316446D01*
X461792Y314677D01*
X464478Y313564D01*
X467360Y313185D01*
X470242Y313564D01*
X472928Y314677D01*
X475234Y316446D01*
X475716Y317075D01*
X475761Y317104D01*
X475774Y317116D01*
X475810Y317132D01*
X476041Y317206D01*
X476405Y317290D01*
X476836Y317361D01*
X478942Y317515D01*
X501635D01*
X525780Y293370D01*
X525780Y188415D01*
X513844D01*
X513646Y188892D01*
X512438Y190468D01*
X480503Y222402D01*
X479574Y223411D01*
X478827Y224326D01*
X478605Y224640D01*
X478456Y224881D01*
X478416Y224960D01*
X478415Y224965D01*
X478407Y224987D01*
X478116Y227202D01*
X477003Y229888D01*
X475234Y232194D01*
X472928Y233963D01*
X470242Y235076D01*
X467360Y235455D01*
X464478Y235076D01*
X461792Y233963D01*
X459486Y232194D01*
X457717Y229888D01*
X456604Y227202D01*
X456225Y224320D01*
X456604Y221438D01*
X457717Y218752D01*
X459486Y216446D01*
X461792Y214677D01*
X464478Y213564D01*
X467360Y213185D01*
X467660Y213224D01*
X467669Y213220D01*
X467898Y213094D01*
X468224Y212880D01*
X468591Y212608D01*
X470181Y211214D01*
X499455Y181940D01*
Y180810D01*
Y51277D01*
X498911Y50755D01*
X497879Y49868D01*
X497488Y49571D01*
X497156Y49345D01*
X496947Y49223D01*
X494158Y48856D01*
X491472Y47743D01*
X489166Y45974D01*
X487397Y43668D01*
X486284Y40982D01*
X485905Y38100D01*
X486284Y35218D01*
X487397Y32532D01*
X489166Y30226D01*
X491472Y28457D01*
X494158Y27344D01*
X497040Y26965D01*
X499922Y27344D01*
X502608Y28457D01*
X504914Y30226D01*
X506683Y32532D01*
X507796Y35218D01*
X508163Y38007D01*
X508285Y38216D01*
X508468Y38484D01*
X510225Y40530D01*
X512438Y42742D01*
X513646Y44317D01*
X513961Y45077D01*
X514406Y46152D01*
X514665Y48120D01*
Y166033D01*
X514738Y167416D01*
X514977Y168772D01*
X515346Y169879D01*
X515822Y170763D01*
X516400Y171470D01*
X517107Y172048D01*
X517991Y172524D01*
X519098Y172893D01*
X520454Y173132D01*
X521837Y173205D01*
X525780D01*
X525780Y30360D01*
X524822Y29963D01*
X522516Y28194D01*
X520747Y25888D01*
X519634Y23202D01*
X519255Y20320D01*
X519634Y17438D01*
X520747Y14752D01*
X522516Y12446D01*
X524822Y10677D01*
X525780Y10280D01*
Y3777D01*
X444885D01*
X407813Y40848D01*
X407796Y40982D01*
X406683Y43668D01*
X404914Y45974D01*
X402608Y47743D01*
X399922Y48856D01*
X397040Y49235D01*
X394158Y48856D01*
X392639Y48227D01*
X332270D01*
X332270Y48227D01*
X329649Y47882D01*
X327207Y46870D01*
X325109Y45261D01*
X325109Y45261D01*
X309450Y29601D01*
X308064Y28274D01*
X306764Y27163D01*
X306287Y26798D01*
X305917Y26547D01*
X305913Y26545D01*
X302274Y26066D01*
X298737Y24601D01*
X295700Y22270D01*
X293369Y19233D01*
X291904Y15696D01*
X291404Y11900D01*
X291904Y8104D01*
X293369Y4567D01*
X295700Y1530D01*
X298737Y-801D01*
X302274Y-2266D01*
X306070Y-2765D01*
X309866Y-2266D01*
X313403Y-801D01*
X316440Y1530D01*
X318771Y4567D01*
X320236Y8104D01*
X320715Y11743D01*
X320717Y11747D01*
X320918Y12042D01*
X323733Y15242D01*
X336465Y27973D01*
X392045D01*
X433529Y-13511D01*
X433529Y-13511D01*
X435627Y-15120D01*
X438069Y-16132D01*
X440690Y-16477D01*
X440690Y-16477D01*
X525780D01*
Y-31750D01*
X-6350Y-31750D01*
X-25400Y-12700D01*
Y438150D01*
X-13970Y449580D01*
X-6350Y457200D01*
X478790D01*
X478790Y340360D01*
D02*
G37*
G36*
X473050Y330683D02*
X473340Y330565D01*
X473714Y330461D01*
X474171Y330370D01*
X474712Y330294D01*
X476046Y330183D01*
X478674Y330120D01*
X479850Y320120D01*
X478899Y320108D01*
X476531Y319936D01*
X475902Y319832D01*
X475353Y319705D01*
X474885Y319555D01*
X474498Y319382D01*
X474190Y319187D01*
X473963Y318968D01*
X472843Y330815D01*
X473050Y330683D01*
D02*
G37*
G36*
X475899Y224297D02*
X476010Y223980D01*
X476192Y223618D01*
X476443Y223211D01*
X476765Y222757D01*
X477616Y221713D01*
X478747Y220486D01*
X479417Y219804D01*
X472689Y212390D01*
X472008Y213056D01*
X470219Y214625D01*
X469706Y215005D01*
X469236Y215313D01*
X468808Y215550D01*
X468423Y215715D01*
X468079Y215808D01*
X467777Y215830D01*
X475856Y224567D01*
X475899Y224297D01*
D02*
G37*
G36*
X323088Y18312D02*
X322132Y17343D01*
X318866Y13632D01*
X318516Y13116D01*
X318266Y12675D01*
X318117Y12310D01*
X318069Y12020D01*
X306190Y23899D01*
X306480Y23947D01*
X306845Y24096D01*
X307285Y24346D01*
X307802Y24696D01*
X308393Y25148D01*
X309802Y26353D01*
X312482Y28918D01*
X323088Y18312D01*
D02*
G37*
G36*
X684810Y174860D02*
X684583Y175040D01*
X684276Y175202D01*
X683887Y175345D01*
X683418Y175468D01*
X682868Y175572D01*
X682237Y175658D01*
X680733Y175772D01*
X678906Y175810D01*
Y185810D01*
X679860Y185819D01*
X682868Y186047D01*
X683418Y186152D01*
X683887Y186276D01*
X684276Y186418D01*
X684583Y186579D01*
X684810Y186760D01*
Y174860D01*
D02*
G37*
G36*
X509042Y43031D02*
X508374Y42350D01*
X506409Y40062D01*
X506094Y39599D01*
X505849Y39180D01*
X505675Y38805D01*
X505572Y38473D01*
X505540Y38185D01*
X497125Y46600D01*
X497413Y46632D01*
X497744Y46735D01*
X498120Y46909D01*
X498539Y47154D01*
X499002Y47469D01*
X499508Y47854D01*
X500652Y48837D01*
X501971Y50102D01*
X509042Y43031D01*
D02*
G37*
%LPC*%
G36*
X633730Y142240D02*
X626200D01*
X626339Y141189D01*
X627235Y139027D01*
X628660Y137170D01*
X630517Y135745D01*
X632679Y134849D01*
X633730Y134711D01*
Y142240D01*
D02*
G37*
G36*
X643800D02*
X636270D01*
Y134711D01*
X637321Y134849D01*
X639483Y135745D01*
X641340Y137170D01*
X642765Y139027D01*
X643661Y141189D01*
X643800Y142240D01*
D02*
G37*
G36*
X668020Y106855D02*
X665138Y106476D01*
X662452Y105363D01*
X660146Y103594D01*
X658377Y101288D01*
X657264Y98602D01*
X656885Y95720D01*
X657264Y92838D01*
X658377Y90152D01*
X660146Y87846D01*
X662452Y86077D01*
X665138Y84964D01*
X668020Y84585D01*
X670902Y84964D01*
X673588Y86077D01*
X675894Y87846D01*
X677663Y90152D01*
X678776Y92838D01*
X679155Y95720D01*
X678776Y98602D01*
X677663Y101288D01*
X675894Y103594D01*
X673588Y105363D01*
X670902Y106476D01*
X668020Y106855D01*
D02*
G37*
G36*
X695979Y90647D02*
X696117Y88822D01*
X696222Y88272D01*
X696346Y87803D01*
X696488Y87414D01*
X696649Y87107D01*
X696830Y86880D01*
X692150D01*
Y82080D01*
X697097D01*
X697483Y86162D01*
X697710Y85943D01*
X698018Y85747D01*
X698405Y85575D01*
X698873Y85425D01*
X699422Y85298D01*
X700051Y85194D01*
X701052Y85102D01*
X700523Y86378D01*
X698754Y88684D01*
X696448Y90453D01*
X695979Y90647D01*
D02*
G37*
G36*
X746097Y84879D02*
X744749Y83354D01*
X744746Y83350D01*
X746298D01*
X746097Y84879D01*
D02*
G37*
G36*
X734060Y93048D02*
X732448Y92836D01*
X729762Y91723D01*
X727456Y89954D01*
X725687Y87648D01*
X724652Y85150D01*
X725544Y85228D01*
X726159Y85351D01*
X726692Y85500D01*
X727142Y85678D01*
X727509Y85882D01*
X727793Y86114D01*
X727993Y86373D01*
X728753Y83350D01*
X734060D01*
Y93048D01*
D02*
G37*
G36*
X736600Y89847D02*
Y83350D01*
X742284D01*
X736600Y89847D01*
D02*
G37*
G36*
X859790Y125155D02*
X855994Y124656D01*
X852457Y123191D01*
X849420Y120860D01*
X847089Y117823D01*
X845624Y114286D01*
X845125Y110490D01*
X845624Y106694D01*
X847089Y103157D01*
X849420Y100120D01*
X852457Y97789D01*
X855994Y96324D01*
X859790Y95824D01*
X863586Y96324D01*
X867123Y97789D01*
X870160Y100120D01*
X872491Y103157D01*
X873956Y106694D01*
X874455Y110490D01*
X873956Y114286D01*
X872491Y117823D01*
X870160Y120860D01*
X867123Y123191D01*
X863586Y124656D01*
X859790Y125155D01*
D02*
G37*
G36*
X657860Y128775D02*
X654978Y128396D01*
X652292Y127283D01*
X649986Y125514D01*
X648217Y123208D01*
X647104Y120522D01*
X646725Y117640D01*
X647104Y114758D01*
X648217Y112072D01*
X649986Y109766D01*
X652292Y107997D01*
X654978Y106884D01*
X657860Y106505D01*
X660742Y106884D01*
X663428Y107997D01*
X665734Y109766D01*
X667503Y112072D01*
X668616Y114758D01*
X668995Y117640D01*
X668616Y120522D01*
X667503Y123208D01*
X665734Y125514D01*
X663428Y127283D01*
X660742Y128396D01*
X657860Y128775D01*
D02*
G37*
G36*
X736600Y93048D02*
Y90646D01*
X736640Y90655D01*
X737032Y90814D01*
X737465Y91045D01*
X737939Y91348D01*
X738454Y91724D01*
X739262Y92401D01*
X738212Y92836D01*
X736600Y93048D01*
D02*
G37*
G36*
X650240Y165009D02*
Y157480D01*
X657769D01*
X657631Y158531D01*
X656735Y160693D01*
X655310Y162550D01*
X653453Y163975D01*
X651291Y164871D01*
X650240Y165009D01*
D02*
G37*
G36*
X647700D02*
X646649Y164871D01*
X644487Y163975D01*
X642630Y162550D01*
X641205Y160693D01*
X640309Y158531D01*
X640171Y157480D01*
X647700D01*
Y165009D01*
D02*
G37*
G36*
Y154940D02*
X640171D01*
X640309Y153889D01*
X641205Y151727D01*
X641524Y151310D01*
X640618Y150405D01*
X639483Y151275D01*
X637321Y152171D01*
X636270Y152310D01*
Y144780D01*
X643800D01*
X643661Y145831D01*
X642765Y147993D01*
X642446Y148410D01*
X643352Y149316D01*
X644487Y148445D01*
X646649Y147549D01*
X647700Y147410D01*
Y154940D01*
D02*
G37*
G36*
X778510Y180810D02*
X768812D01*
X769024Y179198D01*
X770137Y176512D01*
X771906Y174206D01*
X774212Y172437D01*
X774681Y172243D01*
X774542Y174068D01*
X774438Y174618D01*
X774314Y175087D01*
X774172Y175476D01*
X774010Y175783D01*
X773830Y176010D01*
X778510D01*
Y180810D01*
D02*
G37*
G36*
Y193048D02*
X776898Y192836D01*
X774212Y191723D01*
X771906Y189954D01*
X770137Y187648D01*
X769024Y184962D01*
X768812Y183350D01*
X778510D01*
Y193048D01*
D02*
G37*
G36*
X790748Y180810D02*
X781050D01*
Y176010D01*
X785730D01*
X785549Y175783D01*
X785388Y175476D01*
X785246Y175087D01*
X785122Y174618D01*
X785017Y174068D01*
X784932Y173438D01*
X784840Y172226D01*
X785348Y172437D01*
X787654Y174206D01*
X789423Y176512D01*
X790536Y179198D01*
X790748Y180810D01*
D02*
G37*
G36*
X735330Y193215D02*
X732448Y192836D01*
X729762Y191723D01*
X727456Y189954D01*
X725687Y187648D01*
X724574Y184962D01*
X724195Y182080D01*
X724574Y179198D01*
X725687Y176512D01*
X727456Y174206D01*
X729762Y172437D01*
X732448Y171324D01*
X735330Y170945D01*
X738212Y171324D01*
X740898Y172437D01*
X743204Y174206D01*
X744973Y176512D01*
X746086Y179198D01*
X746465Y182080D01*
X746086Y184962D01*
X744973Y187648D01*
X743204Y189954D01*
X740898Y191723D01*
X738212Y192836D01*
X735330Y193215D01*
D02*
G37*
G36*
X633730Y152310D02*
X632679Y152171D01*
X630517Y151275D01*
X628660Y149850D01*
X627235Y147993D01*
X626339Y145831D01*
X626200Y144780D01*
X633730D01*
Y152310D01*
D02*
G37*
G36*
X657769Y154940D02*
X650240D01*
Y147410D01*
X651291Y147549D01*
X653453Y148445D01*
X655310Y149870D01*
X656735Y151727D01*
X657631Y153889D01*
X657769Y154940D01*
D02*
G37*
G36*
X874330Y175830D02*
X845250D01*
Y146750D01*
X874330D01*
Y175830D01*
D02*
G37*
G36*
X678787Y-1481D02*
X677439Y-3006D01*
X677436Y-3010D01*
X678988D01*
X678787Y-1481D01*
D02*
G37*
G36*
X669290Y3487D02*
Y-3010D01*
X674975D01*
X669290Y3487D01*
D02*
G37*
G36*
X666750Y6688D02*
X665138Y6476D01*
X662452Y5363D01*
X660146Y3594D01*
X658377Y1288D01*
X657264Y-1398D01*
X657052Y-3010D01*
X666750D01*
Y6688D01*
D02*
G37*
G36*
X669290D02*
Y4286D01*
X669330Y4295D01*
X669722Y4454D01*
X670155Y4685D01*
X670629Y4988D01*
X671144Y5364D01*
X671952Y6041D01*
X670902Y6476D01*
X669290Y6688D01*
D02*
G37*
G36*
X860260Y6055D02*
X857378Y5676D01*
X854692Y4563D01*
X852386Y2794D01*
X850617Y488D01*
X849504Y-2198D01*
X849125Y-5080D01*
X849504Y-7962D01*
X850617Y-10648D01*
X852386Y-12954D01*
X854692Y-14723D01*
X857378Y-15836D01*
X860260Y-16215D01*
X863142Y-15836D01*
X865828Y-14723D01*
X868134Y-12954D01*
X869903Y-10648D01*
X871016Y-7962D01*
X871395Y-5080D01*
X871016Y-2198D01*
X869903Y488D01*
X868134Y2794D01*
X865828Y4563D01*
X863142Y5676D01*
X860260Y6055D01*
D02*
G37*
G36*
X666750Y-5550D02*
X657052D01*
X657264Y-7162D01*
X658377Y-9848D01*
X660146Y-12154D01*
X662452Y-13923D01*
X665138Y-15036D01*
X666750Y-15248D01*
Y-5550D01*
D02*
G37*
G36*
X760260Y6055D02*
X757378Y5676D01*
X754692Y4563D01*
X752386Y2794D01*
X750617Y488D01*
X749504Y-2198D01*
X749125Y-5080D01*
X749504Y-7962D01*
X750617Y-10648D01*
X752386Y-12954D01*
X754692Y-14723D01*
X757378Y-15836D01*
X760260Y-16215D01*
X763142Y-15836D01*
X765828Y-14723D01*
X768134Y-12954D01*
X769903Y-10648D01*
X771016Y-7962D01*
X771395Y-5080D01*
X771016Y-2198D01*
X769903Y488D01*
X768134Y2794D01*
X765828Y4563D01*
X763142Y5676D01*
X760260Y6055D01*
D02*
G37*
G36*
X678988Y-5550D02*
X669290D01*
Y-15248D01*
X670902Y-15036D01*
X673588Y-13923D01*
X675894Y-12154D01*
X677663Y-9848D01*
X678776Y-7162D01*
X678988Y-5550D01*
D02*
G37*
G36*
X746298Y80810D02*
X736600D01*
Y71112D01*
X738212Y71324D01*
X740898Y72437D01*
X743204Y74206D01*
X744973Y76512D01*
X746086Y79198D01*
X746298Y80810D01*
D02*
G37*
G36*
X700290Y74938D02*
X697691Y74760D01*
X697234Y74669D01*
X696860Y74565D01*
X696627Y74471D01*
X696488Y74206D01*
X696346Y73817D01*
X696222Y73348D01*
X696117Y72798D01*
X696032Y72168D01*
X695940Y70956D01*
X696448Y71167D01*
X698754Y72936D01*
X700290Y74938D01*
D02*
G37*
G36*
X689610Y79540D02*
X679912D01*
X680124Y77928D01*
X681237Y75242D01*
X683006Y72936D01*
X685312Y71167D01*
X685781Y70972D01*
X685642Y72798D01*
X685538Y73348D01*
X685415Y73817D01*
X685272Y74206D01*
X685110Y74513D01*
X684930Y74740D01*
X689610D01*
Y79540D01*
D02*
G37*
G36*
X685820Y90664D02*
X685312Y90453D01*
X683006Y88684D01*
X681237Y86378D01*
X680124Y83692D01*
X679912Y82080D01*
X689610D01*
Y86880D01*
X684930D01*
X685110Y87107D01*
X685272Y87414D01*
X685415Y87803D01*
X685538Y88272D01*
X685642Y88822D01*
X685728Y89452D01*
X685820Y90664D01*
D02*
G37*
G36*
X734060Y80810D02*
X729390D01*
X730891Y74831D01*
X730785Y74865D01*
X730583Y74895D01*
X730284Y74922D01*
X728132Y74994D01*
X726846Y75002D01*
X727456Y74206D01*
X729762Y72437D01*
X732448Y71324D01*
X734060Y71112D01*
Y80810D01*
D02*
G37*
G36*
X696857Y79540D02*
X692150D01*
Y74740D01*
X696403D01*
X696857Y79540D01*
D02*
G37*
G36*
X779780Y93215D02*
X776898Y92836D01*
X774212Y91723D01*
X771906Y89954D01*
X770137Y87648D01*
X769024Y84962D01*
X768645Y82080D01*
X769024Y79198D01*
X770137Y76512D01*
X771906Y74206D01*
X774212Y72437D01*
X776898Y71324D01*
X779780Y70945D01*
X782662Y71324D01*
X785348Y72437D01*
X787654Y74206D01*
X789423Y76512D01*
X790536Y79198D01*
X790915Y82080D01*
X790536Y84962D01*
X789423Y87648D01*
X787654Y89954D01*
X785348Y91723D01*
X782662Y92836D01*
X779780Y93215D01*
D02*
G37*
G36*
X760260Y46695D02*
X757378Y46316D01*
X754692Y45203D01*
X752386Y43434D01*
X750617Y41128D01*
X749504Y38442D01*
X749125Y35560D01*
X749504Y32678D01*
X750617Y29992D01*
X752386Y27686D01*
X754692Y25917D01*
X757378Y24804D01*
X760260Y24425D01*
X763142Y24804D01*
X765828Y25917D01*
X768134Y27686D01*
X769903Y29992D01*
X771016Y32678D01*
X771395Y35560D01*
X771016Y38442D01*
X769903Y41128D01*
X768134Y43434D01*
X765828Y45203D01*
X763142Y46316D01*
X760260Y46695D01*
D02*
G37*
G36*
X630390Y31455D02*
X627508Y31076D01*
X624822Y29963D01*
X622516Y28194D01*
X620747Y25888D01*
X619634Y23202D01*
X619255Y20320D01*
X619634Y17438D01*
X620747Y14752D01*
X622516Y12446D01*
X624822Y10677D01*
X627508Y9564D01*
X630390Y9185D01*
X633272Y9564D01*
X635958Y10677D01*
X638264Y12446D01*
X640033Y14752D01*
X641146Y17438D01*
X641525Y20320D01*
X641146Y23202D01*
X640033Y25888D01*
X638264Y28194D01*
X635958Y29963D01*
X633272Y31076D01*
X630390Y31455D01*
D02*
G37*
G36*
X860260Y46695D02*
X857378Y46316D01*
X854692Y45203D01*
X852386Y43434D01*
X850617Y41128D01*
X849504Y38442D01*
X849125Y35560D01*
X849504Y32678D01*
X850617Y29992D01*
X852386Y27686D01*
X854692Y25917D01*
X857378Y24804D01*
X860260Y24425D01*
X863142Y24804D01*
X865828Y25917D01*
X868134Y27686D01*
X869903Y29992D01*
X871016Y32678D01*
X871395Y35560D01*
X871016Y38442D01*
X869903Y41128D01*
X868134Y43434D01*
X865828Y45203D01*
X863142Y46316D01*
X860260Y46695D01*
D02*
G37*
G36*
X641820Y286725D02*
X638938Y286346D01*
X636252Y285233D01*
X633946Y283464D01*
X632177Y281158D01*
X631064Y278472D01*
X630685Y275590D01*
X631064Y272708D01*
X632177Y270022D01*
X633946Y267716D01*
X636252Y265947D01*
X638938Y264834D01*
X641820Y264455D01*
X644702Y264834D01*
X647388Y265947D01*
X649694Y267716D01*
X651463Y270022D01*
X652576Y272708D01*
X652955Y275590D01*
X652576Y278472D01*
X651463Y281158D01*
X649694Y283464D01*
X647388Y285233D01*
X644702Y286346D01*
X641820Y286725D01*
D02*
G37*
G36*
X542860Y410780D02*
X529590D01*
Y397510D01*
X542860D01*
Y410780D01*
D02*
G37*
G36*
X760260Y282915D02*
X757378Y282536D01*
X754692Y281423D01*
X752386Y279654D01*
X750617Y277348D01*
X749504Y274662D01*
X749125Y271780D01*
X749504Y268898D01*
X750617Y266212D01*
X752386Y263906D01*
X754692Y262137D01*
X757378Y261024D01*
X760260Y260645D01*
X763142Y261024D01*
X765828Y262137D01*
X768134Y263906D01*
X769903Y266212D01*
X771016Y268898D01*
X771395Y271780D01*
X771016Y274662D01*
X769903Y277348D01*
X768134Y279654D01*
X765828Y281423D01*
X763142Y282536D01*
X760260Y282915D01*
D02*
G37*
G36*
X860260D02*
X857378Y282536D01*
X854692Y281423D01*
X852386Y279654D01*
X850617Y277348D01*
X849504Y274662D01*
X849125Y271780D01*
X849504Y268898D01*
X850617Y266212D01*
X852386Y263906D01*
X854692Y262137D01*
X857378Y261024D01*
X860260Y260645D01*
X863142Y261024D01*
X865828Y262137D01*
X868134Y263906D01*
X869903Y266212D01*
X871016Y268898D01*
X871395Y271780D01*
X871016Y274662D01*
X869903Y277348D01*
X868134Y279654D01*
X865828Y281423D01*
X863142Y282536D01*
X860260Y282915D01*
D02*
G37*
G36*
X542860Y394970D02*
X529590D01*
Y384271D01*
X538320D01*
X537370Y384170D01*
X536520Y383871D01*
X535770Y383371D01*
X535120Y382671D01*
X534570Y381771D01*
X534541Y381700D01*
X542860D01*
Y394970D01*
D02*
G37*
G36*
X527050D02*
X513780D01*
Y381700D01*
X522099D01*
X522070Y381771D01*
X521520Y382671D01*
X520870Y383371D01*
X520120Y383871D01*
X519270Y384170D01*
X518320Y384271D01*
X527050D01*
Y394970D01*
D02*
G37*
G36*
X579120Y410905D02*
X575324Y410406D01*
X571787Y408941D01*
X568750Y406610D01*
X566419Y403573D01*
X564954Y400036D01*
X564454Y396240D01*
X564954Y392444D01*
X566419Y388907D01*
X568750Y385870D01*
X571787Y383539D01*
X575324Y382074D01*
X579120Y381575D01*
X582916Y382074D01*
X586453Y383539D01*
X589490Y385870D01*
X591821Y388907D01*
X593286Y392444D01*
X593786Y396240D01*
X593286Y400036D01*
X591821Y403573D01*
X589490Y406610D01*
X586453Y408941D01*
X582916Y410406D01*
X579120Y410905D01*
D02*
G37*
G36*
X527050Y410780D02*
X513780D01*
Y397510D01*
X527050D01*
Y410780D01*
D02*
G37*
G36*
X656590Y216370D02*
X646892D01*
X647104Y214758D01*
X648217Y212072D01*
X649986Y209766D01*
X652292Y207997D01*
X654978Y206884D01*
X656590Y206672D01*
Y216370D01*
D02*
G37*
G36*
X663869D02*
X659130D01*
Y206672D01*
X660742Y206884D01*
X663428Y207997D01*
X665734Y209766D01*
X667503Y212072D01*
X667514Y212098D01*
X665502Y211968D01*
X664956Y211880D01*
X664492Y211775D01*
X664109Y211654D01*
X663810Y211517D01*
X663592Y211364D01*
X663869Y216370D01*
D02*
G37*
G36*
X860260Y242275D02*
X857378Y241896D01*
X854692Y240783D01*
X852386Y239014D01*
X850617Y236708D01*
X849504Y234022D01*
X849125Y231140D01*
X849504Y228258D01*
X850617Y225572D01*
X852386Y223266D01*
X854692Y221497D01*
X857378Y220384D01*
X860260Y220005D01*
X863142Y220384D01*
X865828Y221497D01*
X868134Y223266D01*
X869903Y225572D01*
X871016Y228258D01*
X871395Y231140D01*
X871016Y234022D01*
X869903Y236708D01*
X868134Y239014D01*
X865828Y240783D01*
X863142Y241896D01*
X860260Y242275D01*
D02*
G37*
G36*
X760260D02*
X757378Y241896D01*
X754692Y240783D01*
X752386Y239014D01*
X750617Y236708D01*
X749504Y234022D01*
X749125Y231140D01*
X749504Y228258D01*
X750617Y225572D01*
X752386Y223266D01*
X754692Y221497D01*
X757378Y220384D01*
X760260Y220005D01*
X763142Y220384D01*
X765828Y221497D01*
X768134Y223266D01*
X769903Y225572D01*
X771016Y228258D01*
X771395Y231140D01*
X771016Y234022D01*
X769903Y236708D01*
X768134Y239014D01*
X765828Y240783D01*
X763142Y241896D01*
X760260Y242275D01*
D02*
G37*
G36*
X656590Y225208D02*
X650767Y218910D01*
X656590D01*
Y225208D01*
D02*
G37*
G36*
X647180Y220706D02*
X647104Y220522D01*
X646892Y218910D01*
X648663D01*
X648455Y219203D01*
X647604Y220247D01*
X647180Y220706D01*
D02*
G37*
G36*
X781050Y193048D02*
Y183350D01*
X790748D01*
X790536Y184962D01*
X789423Y187648D01*
X787654Y189954D01*
X785348Y191723D01*
X782662Y192836D01*
X781050Y193048D01*
D02*
G37*
G36*
X872590Y453180D02*
X872173Y453097D01*
X871752Y453041D01*
X871680Y452999D01*
X871599Y452983D01*
X871246Y452747D01*
X870878Y452533D01*
X870828Y452467D01*
X870759Y452421D01*
X866643Y448306D01*
X866598Y448264D01*
X866489Y448195D01*
X865908Y447968D01*
X864975Y448053D01*
X864926Y448092D01*
X864715Y448153D01*
X864521Y448259D01*
X864234Y448291D01*
X863955Y448371D01*
X863736Y448346D01*
X863517Y448370D01*
X863239Y448289D01*
X862951Y448257D01*
X862758Y448150D01*
X862547Y448088D01*
X862320Y447907D01*
X862067Y447767D01*
X861930Y447595D01*
X861758Y447457D01*
X858058Y443057D01*
X857841Y442662D01*
X857607Y442276D01*
X857598Y442221D01*
X857571Y442171D01*
X857521Y441723D01*
X857453Y441278D01*
X857466Y441223D01*
X857460Y441167D01*
X857586Y440734D01*
X857693Y440296D01*
X857726Y440251D01*
X857742Y440197D01*
X858023Y439845D01*
X858290Y439481D01*
X858890Y438931D01*
X858961Y438888D01*
X859014Y438824D01*
X859570Y438376D01*
X859695Y438035D01*
X859665Y437134D01*
X859497Y436803D01*
X859292Y436658D01*
X859261Y436626D01*
X859221Y436607D01*
X858919Y436378D01*
X858883Y436337D01*
X858835Y436312D01*
X858542Y436071D01*
X858501Y436021D01*
X858445Y435987D01*
X858165Y435732D01*
X858124Y435676D01*
X858066Y435637D01*
X857800Y435368D01*
X857763Y435312D01*
X857710Y435271D01*
X857406Y434931D01*
X857378Y434883D01*
X857334Y434847D01*
X857094Y434552D01*
X857073Y434512D01*
X857039Y434482D01*
X856762Y434119D01*
X856743Y434081D01*
X856712Y434052D01*
X856404Y433618D01*
X856379Y433564D01*
X856339Y433522D01*
X855927Y432885D01*
X855905Y432831D01*
X855867Y432789D01*
X855676Y432462D01*
X855657Y432409D01*
X855623Y432367D01*
X855338Y431831D01*
X855321Y431775D01*
X855286Y431727D01*
X855090Y431316D01*
X855079Y431270D01*
X855052Y431231D01*
X854871Y430812D01*
X854861Y430765D01*
X854835Y430725D01*
X854642Y430229D01*
X854635Y430185D01*
X854612Y430146D01*
X854461Y429715D01*
X854455Y429671D01*
X854433Y429632D01*
X854252Y429051D01*
X854248Y429015D01*
X854232Y428983D01*
X854149Y428691D01*
X854148Y428667D01*
X854137Y428647D01*
X854060Y428353D01*
X854058Y428325D01*
X854047Y428300D01*
X853940Y427857D01*
X853939Y427820D01*
X853924Y427786D01*
X853799Y427192D01*
X853798Y427160D01*
X853786Y427130D01*
X853717Y426756D01*
X853717Y426730D01*
X853708Y426706D01*
X853634Y426256D01*
X853634Y426234D01*
X853627Y426213D01*
X853582Y425912D01*
X853583Y425896D01*
X853578Y425880D01*
X853537Y425578D01*
X853538Y425562D01*
X853533Y425546D01*
X853496Y425244D01*
X853497Y425227D01*
X853492Y425211D01*
X853451Y424832D01*
X853452Y424813D01*
X853447Y424793D01*
X853404Y424338D01*
X853407Y424312D01*
X853400Y424287D01*
X853355Y423679D01*
X853358Y423651D01*
X853351Y423624D01*
X853327Y423168D01*
X853331Y423142D01*
X853325Y423117D01*
X853310Y422660D01*
X853315Y422633D01*
X853309Y422606D01*
X853304Y422150D01*
X853308Y422126D01*
X853303Y422102D01*
X853306Y421798D01*
X853309Y421779D01*
X853306Y421759D01*
X853313Y421455D01*
X853318Y421429D01*
X853314Y421403D01*
X853334Y420948D01*
X853341Y420916D01*
X853337Y420883D01*
X853368Y420429D01*
X853378Y420390D01*
X853374Y420349D01*
X853434Y419745D01*
X853446Y419704D01*
X853443Y419661D01*
X853502Y419210D01*
X853515Y419173D01*
X853513Y419134D01*
X853586Y418685D01*
X853600Y418647D01*
X853600Y418607D01*
X853686Y418159D01*
X853702Y418120D01*
X853703Y418078D01*
X853803Y417634D01*
X853821Y417593D01*
X853824Y417550D01*
X853939Y417108D01*
X853959Y417067D01*
X853963Y417022D01*
X854094Y416585D01*
X854118Y416539D01*
X854125Y416488D01*
X854297Y415984D01*
X854324Y415938D01*
X854333Y415885D01*
X854499Y415459D01*
X854523Y415420D01*
X854533Y415376D01*
X854683Y415025D01*
X854707Y414990D01*
X854717Y414949D01*
X854879Y414604D01*
X854901Y414573D01*
X854911Y414536D01*
X855049Y414264D01*
X855070Y414236D01*
X855080Y414203D01*
X855224Y413935D01*
X855255Y413897D01*
X855271Y413852D01*
X855540Y413391D01*
X855579Y413348D01*
X855600Y413294D01*
X855848Y412910D01*
X855896Y412860D01*
X855924Y412798D01*
X856326Y412242D01*
X856367Y412204D01*
X856392Y412154D01*
X856534Y411974D01*
X856578Y411937D01*
X856606Y411887D01*
X857054Y411368D01*
X857106Y411327D01*
X857142Y411271D01*
X857405Y410995D01*
X857470Y410950D01*
X857516Y410886D01*
X858187Y410263D01*
X858261Y410217D01*
X858317Y410150D01*
X858732Y409813D01*
X858796Y409779D01*
X858846Y409726D01*
X859404Y409322D01*
X859546Y409257D01*
X859665Y409156D01*
X861407Y408189D01*
X861545Y408144D01*
X861665Y408064D01*
X862090Y407886D01*
X862150Y407874D01*
X862202Y407842D01*
X862634Y407684D01*
X862695Y407675D01*
X862748Y407645D01*
X863113Y407531D01*
X863167Y407525D01*
X863215Y407501D01*
X863510Y407422D01*
X863574Y407418D01*
X863633Y407392D01*
X864080Y407295D01*
X864170Y407294D01*
X864255Y407263D01*
X864781Y407187D01*
X864879Y407192D01*
X864974Y407166D01*
X865428Y407134D01*
X865515Y407145D01*
X865602Y407128D01*
X865982Y407127D01*
X866097Y407150D01*
X866214Y407137D01*
X866973Y407203D01*
X867089Y407237D01*
X867210Y407235D01*
X867662Y407317D01*
X867737Y407347D01*
X867818Y407350D01*
X868191Y407442D01*
X868287Y407487D01*
X868393Y407500D01*
X869124Y407745D01*
X869215Y407797D01*
X869317Y407818D01*
X869673Y407969D01*
X869684Y407976D01*
X869696Y407979D01*
X870126Y408166D01*
X870294Y408283D01*
X870484Y408358D01*
X871007Y408692D01*
X871095Y408776D01*
X871204Y408831D01*
X872243Y409639D01*
X872349Y409763D01*
X872485Y409853D01*
X872575Y409944D01*
X872961Y410047D01*
X872989Y410048D01*
X873721Y409933D01*
X874088Y409699D01*
X874177Y409520D01*
X874244Y409434D01*
X874281Y409332D01*
X874523Y408935D01*
X874593Y408858D01*
X874636Y408764D01*
X874907Y408388D01*
X875004Y408298D01*
X875071Y408184D01*
X875516Y407683D01*
X875603Y407617D01*
X875666Y407528D01*
X875929Y407277D01*
X875993Y407236D01*
X876040Y407177D01*
X876400Y406872D01*
X876451Y406843D01*
X876490Y406799D01*
X876699Y406638D01*
X876739Y406617D01*
X876770Y406584D01*
X877071Y406368D01*
X877111Y406350D01*
X877142Y406319D01*
X877407Y406141D01*
X877440Y406127D01*
X877466Y406103D01*
X877736Y405932D01*
X877768Y405920D01*
X877793Y405897D01*
X878114Y405706D01*
X878145Y405695D01*
X878171Y405673D01*
X878543Y405464D01*
X878570Y405455D01*
X878593Y405437D01*
X878874Y405286D01*
X878903Y405277D01*
X878926Y405259D01*
X879257Y405092D01*
X879296Y405081D01*
X879328Y405057D01*
X879759Y404855D01*
X879816Y404841D01*
X879865Y404809D01*
X880447Y404567D01*
X880519Y404553D01*
X880581Y404516D01*
X881124Y404325D01*
X881193Y404315D01*
X881256Y404283D01*
X881705Y404151D01*
X881763Y404146D01*
X881815Y404122D01*
X882118Y404048D01*
X882184Y404045D01*
X882245Y404020D01*
X882754Y403922D01*
X882834Y403923D01*
X882911Y403897D01*
X883374Y403837D01*
X883445Y403842D01*
X883513Y403823D01*
X883980Y403787D01*
X884037Y403794D01*
X884093Y403782D01*
X884458Y403770D01*
X884524Y403781D01*
X884590Y403769D01*
X885325Y403783D01*
X885404Y403801D01*
X885484Y403792D01*
X886326Y403860D01*
X886378Y403875D01*
X886431Y403871D01*
X886851Y403922D01*
X886889Y403934D01*
X886928Y403933D01*
X887607Y404037D01*
X887658Y404055D01*
X887712Y404055D01*
X888540Y404217D01*
X888589Y404237D01*
X888642Y404239D01*
X889153Y404360D01*
X889188Y404377D01*
X889227Y404379D01*
X889632Y404488D01*
X889669Y404506D01*
X889710Y404510D01*
X890211Y404662D01*
X890257Y404687D01*
X890310Y404694D01*
X890902Y404900D01*
X890954Y404931D01*
X891014Y404942D01*
X891595Y405174D01*
X891672Y405225D01*
X891761Y405248D01*
X892793Y405747D01*
X892885Y405817D01*
X892994Y405856D01*
X893890Y406392D01*
X893969Y406463D01*
X894067Y406507D01*
X894877Y407086D01*
X894946Y407159D01*
X895034Y407208D01*
X895762Y407817D01*
X895821Y407890D01*
X895901Y407942D01*
X896548Y408569D01*
X896601Y408644D01*
X896674Y408699D01*
X897281Y409375D01*
X897322Y409444D01*
X897383Y409496D01*
X897819Y410045D01*
X897848Y410102D01*
X897894Y410145D01*
X898273Y410674D01*
X898293Y410718D01*
X898327Y410752D01*
X898568Y411116D01*
X898584Y411154D01*
X898612Y411184D01*
X898900Y411650D01*
X898918Y411699D01*
X898952Y411739D01*
X899332Y412409D01*
X899346Y412453D01*
X899374Y412488D01*
X899578Y412880D01*
X899589Y412918D01*
X899613Y412949D01*
X899902Y413548D01*
X899912Y413586D01*
X899935Y413619D01*
X900139Y414075D01*
X900148Y414117D01*
X900172Y414152D01*
X900487Y414925D01*
X900497Y414974D01*
X900523Y415018D01*
X900808Y415801D01*
X900814Y415844D01*
X900835Y415881D01*
X901042Y416513D01*
X901048Y416561D01*
X901070Y416604D01*
X901373Y417662D01*
X901377Y417701D01*
X901394Y417737D01*
X901488Y418107D01*
X901491Y418167D01*
X901514Y418222D01*
X901903Y420106D01*
X901903Y420176D01*
X901927Y420242D01*
X902043Y421009D01*
X902041Y421056D01*
X902056Y421101D01*
X902170Y422098D01*
X902166Y422149D01*
X902179Y422198D01*
X902241Y423016D01*
X902235Y423070D01*
X902247Y423123D01*
X902280Y424087D01*
X902270Y424147D01*
X902281Y424207D01*
X902273Y424873D01*
X902254Y424961D01*
X902265Y425050D01*
X902176Y426146D01*
X902153Y426228D01*
X902157Y426313D01*
X902042Y427094D01*
X902029Y427130D01*
X902030Y427168D01*
X901964Y427543D01*
X901956Y427564D01*
X901956Y427588D01*
X901850Y428132D01*
X901766Y428338D01*
X901729Y428557D01*
X901598Y428900D01*
X901480Y429090D01*
X901405Y429301D01*
X901214Y429514D01*
X901062Y429757D01*
X900880Y429887D01*
X900731Y430053D01*
X900472Y430177D01*
X900239Y430343D01*
X900021Y430393D01*
X899819Y430490D01*
X899534Y430505D01*
X899255Y430570D01*
X899034Y430532D01*
X898811Y430545D01*
X898540Y430450D01*
X898258Y430402D01*
X898068Y430283D01*
X897857Y430209D01*
X897644Y430018D01*
X897402Y429866D01*
X897272Y429684D01*
X897105Y429534D01*
X896981Y429276D01*
X896815Y429043D01*
X896765Y428825D01*
X896668Y428623D01*
X896537Y428110D01*
X896522Y427839D01*
X896459Y427574D01*
X896423Y426717D01*
X896341Y425991D01*
X896177Y425137D01*
X895984Y424412D01*
X895786Y423788D01*
X895441Y422830D01*
X895085Y421938D01*
X894979Y421689D01*
X894433Y420525D01*
X894075Y419853D01*
X893836Y419443D01*
X893472Y418866D01*
X893085Y418314D01*
X892788Y417929D01*
X892244Y417298D01*
X892083Y417129D01*
X891731Y416791D01*
X891368Y416480D01*
X891186Y416338D01*
X890928Y416155D01*
X890679Y415996D01*
X890353Y415813D01*
X890164Y415721D01*
X889878Y415598D01*
X889663Y415517D01*
X889361Y415419D01*
X889053Y415334D01*
X888733Y415261D01*
X888404Y415201D01*
X888066Y415152D01*
X887719Y415115D01*
X887409Y415093D01*
X887015Y415078D01*
X886662Y415077D01*
X886392Y415085D01*
X886127Y415100D01*
X885786Y415132D01*
X885544Y415164D01*
X885162Y415231D01*
X884672Y415349D01*
X884457Y415413D01*
X884193Y415504D01*
X883897Y415623D01*
X883684Y415721D01*
X883489Y415821D01*
X883186Y416001D01*
X882913Y416194D01*
X882784Y416300D01*
X882614Y416461D01*
X882490Y416600D01*
X882341Y416806D01*
X882155Y417153D01*
X882113Y417253D01*
X881992Y417638D01*
X881951Y417816D01*
X881915Y418020D01*
X881880Y418335D01*
X881870Y418665D01*
X881887Y418956D01*
X881932Y419227D01*
X882005Y419470D01*
X882063Y419594D01*
X882103Y419655D01*
X882241Y419804D01*
X882397Y419928D01*
X882752Y420139D01*
X883169Y420318D01*
X883583Y420444D01*
X884373Y420572D01*
X884575Y420582D01*
X884886Y420576D01*
X885612Y420488D01*
X885731Y420455D01*
X885785Y420421D01*
X885931Y420245D01*
X886148Y420131D01*
X886338Y419976D01*
X886591Y419899D01*
X886826Y419776D01*
X887070Y419753D01*
X887304Y419682D01*
X887568Y419708D01*
X887832Y419684D01*
X888066Y419757D01*
X888310Y419781D01*
X888544Y419906D01*
X888797Y419985D01*
X888985Y420142D01*
X889201Y420257D01*
X889370Y420462D01*
X889573Y420632D01*
X889687Y420849D01*
X889843Y421038D01*
X889920Y421292D01*
X890043Y421526D01*
X892271Y429075D01*
X892301Y429408D01*
X892342Y429589D01*
X892549Y429616D01*
X892824Y429602D01*
X893045Y429681D01*
X893277Y429712D01*
X893516Y429850D01*
X893776Y429943D01*
X893949Y430100D01*
X894152Y430217D01*
X894320Y430436D01*
X894524Y430621D01*
X894625Y430833D01*
X894767Y431019D01*
X897594Y436754D01*
X897642Y436932D01*
X897732Y437093D01*
X897771Y437416D01*
X897855Y437730D01*
X897831Y437913D01*
X897853Y438096D01*
X897766Y438409D01*
X897723Y438732D01*
X897631Y438892D01*
X897581Y439069D01*
X897380Y439325D01*
X897218Y439607D01*
X897071Y439719D01*
X896958Y439864D01*
X896405Y440338D01*
X896280Y440409D01*
X896179Y440512D01*
X895497Y440977D01*
X895470Y440989D01*
X895450Y441009D01*
X894816Y441422D01*
X894777Y441437D01*
X894746Y441465D01*
X894102Y441856D01*
X894041Y441878D01*
X893990Y441920D01*
X893130Y442385D01*
X893048Y442410D01*
X892978Y442461D01*
X892239Y442800D01*
X892161Y442818D01*
X892094Y442861D01*
X891456Y443108D01*
X891379Y443121D01*
X891310Y443159D01*
X890470Y443428D01*
X890403Y443436D01*
X890342Y443465D01*
X889771Y443616D01*
X889708Y443620D01*
X889652Y443644D01*
X888781Y443831D01*
X888717Y443832D01*
X888657Y443854D01*
X887872Y443982D01*
X887828Y443981D01*
X887785Y443995D01*
X887291Y444058D01*
X887256Y444056D01*
X887222Y444066D01*
X886626Y444127D01*
X886582Y444123D01*
X886539Y444134D01*
X885708Y444190D01*
X885651Y444183D01*
X885595Y444196D01*
X884930Y444211D01*
X884846Y444197D01*
X884763Y444210D01*
X884530Y444200D01*
X883621Y445043D01*
X883506Y445246D01*
X883468Y445402D01*
X883471Y445494D01*
X883530Y445790D01*
Y447340D01*
X883461Y447684D01*
X883435Y448033D01*
X883185Y448933D01*
X883094Y449114D01*
X883048Y449312D01*
X882868Y449561D01*
X882730Y449835D01*
X882576Y449968D01*
X882458Y450132D01*
X882197Y450294D01*
X881964Y450495D01*
X881772Y450558D01*
X881599Y450665D01*
X881296Y450714D01*
X881004Y450811D01*
X880802Y450796D01*
X880602Y450828D01*
X880303Y450758D01*
X879997Y450735D01*
X879816Y450644D01*
X879618Y450598D01*
X879369Y450419D01*
X879095Y450280D01*
X878962Y450126D01*
X878798Y450008D01*
X878636Y449747D01*
X878557Y449656D01*
X877964Y449423D01*
X877600Y449353D01*
X877113Y449374D01*
X874533Y452302D01*
X874467Y452352D01*
X874421Y452421D01*
X874068Y452657D01*
X873730Y452915D01*
X873650Y452937D01*
X873581Y452983D01*
X873164Y453065D01*
X872754Y453175D01*
X872671Y453164D01*
X872590Y453180D01*
D02*
G37*
G36*
X659130Y228608D02*
Y218910D01*
X664010D01*
X664250Y223245D01*
X664479Y223041D01*
X664788Y222858D01*
X665177Y222697D01*
X665647Y222557D01*
X666197Y222439D01*
X666827Y222342D01*
X667900Y222250D01*
X667503Y223208D01*
X665734Y225514D01*
X663428Y227283D01*
X660742Y228396D01*
X659130Y228608D01*
D02*
G37*
G36*
X656590D02*
X654978Y228396D01*
X654172Y228062D01*
X655001Y227335D01*
X655514Y226955D01*
X655984Y226647D01*
X656412Y226410D01*
X656590Y226334D01*
Y228608D01*
D02*
G37*
%LPD*%
G36*
X876290Y446390D02*
X872390Y442490D01*
X868440Y446440D01*
X872590Y450590D01*
X876290Y446390D01*
D02*
G37*
G36*
X872965Y416679D02*
X872970Y416726D01*
X872985Y416833D01*
X872965Y416679D01*
D02*
G37*
G36*
X885533Y441606D02*
X886365Y441550D01*
X886961Y441490D01*
X887455Y441426D01*
X888239Y441298D01*
X889110Y441112D01*
X889681Y440961D01*
X890521Y440692D01*
X891159Y440446D01*
X891898Y440107D01*
X892759Y439642D01*
X893403Y439251D01*
X894037Y438839D01*
X894718Y438373D01*
X895271Y437899D01*
X892444Y432164D01*
X892403Y432194D01*
X892219Y432331D01*
X892014Y432482D01*
X891707Y432707D01*
X891376Y432945D01*
X891127Y433121D01*
X890749Y433380D01*
X890452Y433575D01*
X890173Y433752D01*
X889824Y433963D01*
X889201Y434310D01*
X888747Y434541D01*
X888191Y434797D01*
X887886Y434925D01*
X887118Y435208D01*
X886678Y435345D01*
X886083Y435495D01*
X885531Y435596D01*
X885126Y435644D01*
X884644Y435669D01*
X884441Y435669D01*
X884034Y435649D01*
X883427Y435568D01*
X883201Y435521D01*
X882952Y435459D01*
X882607Y435353D01*
X882245Y435212D01*
X881923Y435052D01*
X881643Y434875D01*
X881502Y434766D01*
X881211Y434481D01*
X880998Y434193D01*
X880846Y433924D01*
X880668Y433474D01*
X880600Y433204D01*
X880556Y432952D01*
X880532Y432721D01*
X880519Y432355D01*
X880567Y431862D01*
X880673Y431495D01*
X880852Y431164D01*
X881194Y430787D01*
X881454Y430573D01*
X881621Y430451D01*
X882008Y430198D01*
X882342Y430012D01*
X882616Y429878D01*
X883036Y429699D01*
X883541Y429524D01*
X883761Y429459D01*
X884356Y429316D01*
X884884Y429224D01*
X885265Y429176D01*
X885621Y429144D01*
X886030Y429122D01*
X886539Y429116D01*
X886996Y429136D01*
X887351Y429169D01*
X887804Y429234D01*
X888180Y429308D01*
X888700Y429438D01*
X888994Y429525D01*
X889430Y429672D01*
X889787Y429808D01*
X887559Y422259D01*
X887504Y422326D01*
X887385Y422450D01*
X887288Y422534D01*
X886924Y422766D01*
X886596Y422904D01*
X886112Y423036D01*
X885067Y423163D01*
X884538Y423173D01*
X884104Y423152D01*
X882997Y422973D01*
X882277Y422754D01*
X881574Y422452D01*
X880920Y422063D01*
X880473Y421706D01*
X880062Y421262D01*
X879801Y420869D01*
X879581Y420401D01*
X879403Y419814D01*
X879309Y419241D01*
X879278Y418699D01*
X879295Y418153D01*
X879350Y417657D01*
X879411Y417303D01*
X879491Y416955D01*
X879678Y416366D01*
X879811Y416043D01*
X880139Y415432D01*
X880467Y414977D01*
X880755Y414654D01*
X881072Y414355D01*
X881343Y414132D01*
X881776Y413827D01*
X882234Y413555D01*
X882551Y413391D01*
X882875Y413243D01*
X883287Y413078D01*
X883662Y412948D01*
X883998Y412847D01*
X884635Y412694D01*
X885150Y412604D01*
X885496Y412559D01*
X885930Y412518D01*
X886279Y412497D01*
X886629Y412487D01*
X887068Y412489D01*
X887552Y412507D01*
X887948Y412535D01*
X888386Y412582D01*
X888822Y412645D01*
X889255Y412724D01*
X889683Y412822D01*
X890105Y412938D01*
X890520Y413073D01*
X890846Y413195D01*
X891245Y413367D01*
X891556Y413519D01*
X892010Y413773D01*
X892376Y414007D01*
X892731Y414259D01*
X893007Y414474D01*
X893473Y414873D01*
X893917Y415300D01*
X894161Y415555D01*
X894796Y416291D01*
X895173Y416781D01*
X895628Y417431D01*
X896051Y418100D01*
X896338Y418593D01*
X896750Y419366D01*
X897342Y420630D01*
X897479Y420949D01*
X897863Y421911D01*
X898239Y422956D01*
X898471Y423686D01*
X898703Y424559D01*
X898904Y425600D01*
X899007Y426519D01*
X899046Y427468D01*
X899177Y427981D01*
X899308Y427637D01*
X899414Y427093D01*
X899480Y426718D01*
X899595Y425937D01*
X899684Y424841D01*
X899692Y424175D01*
X899659Y423211D01*
X899597Y422393D01*
X899483Y421396D01*
X899367Y420629D01*
X898978Y418745D01*
X898884Y418376D01*
X898581Y417318D01*
X898374Y416686D01*
X898089Y415903D01*
X897774Y415131D01*
X897570Y414674D01*
X897281Y414076D01*
X897077Y413683D01*
X896698Y413012D01*
X896410Y412547D01*
X896169Y412183D01*
X895789Y411654D01*
X895354Y411106D01*
X894747Y410430D01*
X894099Y409802D01*
X893372Y409193D01*
X892561Y408614D01*
X891665Y408078D01*
X890633Y407579D01*
X890052Y407346D01*
X889460Y407141D01*
X888959Y406989D01*
X888554Y406880D01*
X888043Y406758D01*
X887215Y406596D01*
X886536Y406493D01*
X886116Y406441D01*
X885275Y406373D01*
X884540Y406358D01*
X884174Y406370D01*
X883707Y406405D01*
X883243Y406465D01*
X882734Y406563D01*
X882432Y406637D01*
X881982Y406768D01*
X881440Y406959D01*
X880857Y407201D01*
X880426Y407403D01*
X880094Y407570D01*
X879812Y407721D01*
X879440Y407930D01*
X879119Y408122D01*
X878848Y408293D01*
X878584Y408470D01*
X878283Y408686D01*
X878075Y408847D01*
X877716Y409152D01*
X877452Y409403D01*
X877007Y409904D01*
X876736Y410280D01*
X876495Y410677D01*
X876216Y411235D01*
X875982Y411822D01*
X875773Y412481D01*
X875572Y413317D01*
X875439Y414058D01*
X875332Y414853D01*
X875274Y415487D01*
X875237Y416434D01*
X875254Y417165D01*
X875293Y417684D01*
X875362Y418251D01*
X875482Y418916D01*
X875659Y419625D01*
X875749Y419926D01*
X875915Y420423D01*
X875987Y420620D01*
X876100Y420914D01*
X876261Y421303D01*
X876477Y421781D01*
X876777Y422392D01*
X877018Y422855D01*
X877240Y423185D01*
X877025Y423134D01*
X876552Y423030D01*
X876208Y422960D01*
X875825Y422890D01*
X875375Y422828D01*
X874870Y422798D01*
X874503Y422817D01*
X873944Y422912D01*
X873568Y422989D01*
X872905Y423134D01*
X872409Y423272D01*
X872066Y423391D01*
X871603Y423600D01*
X870980Y423998D01*
X870637Y424274D01*
X870271Y424602D01*
X869957Y424915D01*
X869592Y425316D01*
X869309Y425658D01*
X869013Y426051D01*
X868704Y426495D01*
X868460Y426865D01*
X868275Y427155D01*
X868045Y427533D01*
X867825Y427917D01*
X867549Y428441D01*
X867330Y428882D01*
X867147Y429231D01*
X866920Y429609D01*
X866633Y430006D01*
X866447Y430236D01*
X866256Y430462D01*
X865932Y430836D01*
X865667Y431131D01*
X865424Y431373D01*
X864875Y431786D01*
X864252Y432084D01*
X863876Y432207D01*
X863296Y432322D01*
X862854Y432349D01*
X862460Y432325D01*
X862169Y432274D01*
X861385Y431979D01*
X861174Y431852D01*
X860894Y431650D01*
X860635Y431420D01*
X860398Y431169D01*
X860098Y430778D01*
X859795Y430271D01*
X859587Y429824D01*
X859398Y429316D01*
X859282Y428938D01*
X859159Y428460D01*
X859043Y427880D01*
X858980Y427442D01*
X858945Y427100D01*
X858914Y426511D01*
X858909Y426166D01*
X858911Y425920D01*
X858923Y425427D01*
X858948Y424935D01*
X858993Y424395D01*
X859078Y423762D01*
X859345Y422612D01*
X859775Y421455D01*
X859945Y421098D01*
X860179Y420662D01*
X860496Y420163D01*
X860790Y419769D01*
X861146Y419362D01*
X861388Y419118D01*
X861678Y418852D01*
X861828Y418722D01*
X862057Y418534D01*
X862450Y418233D01*
X862933Y417888D01*
X863263Y417671D01*
X863816Y417352D01*
X864447Y417074D01*
X865398Y416812D01*
X865933Y416740D01*
X866670Y416710D01*
X867609Y416746D01*
X868249Y416807D01*
X868728Y416908D01*
X869143Y417057D01*
X869545Y417247D01*
X869852Y417409D01*
X870280Y417657D01*
X870604Y417880D01*
X870939Y418168D01*
X871324Y418620D01*
X871629Y419128D01*
X871825Y419578D01*
X872015Y420087D01*
X872162Y420557D01*
X872224Y420992D01*
X872218Y421585D01*
X872223Y422207D01*
X872367Y422364D01*
X872517Y422352D01*
X872671Y422183D01*
X872810Y421869D01*
X872918Y421567D01*
X873090Y420851D01*
X873138Y420494D01*
X873171Y420090D01*
X873188Y419533D01*
X873178Y419000D01*
X873148Y418460D01*
X873096Y417839D01*
X872970Y416726D01*
X872921Y416373D01*
X872816Y415767D01*
X872684Y415173D01*
X872494Y414521D01*
X872337Y414098D01*
X872086Y413553D01*
X871863Y413158D01*
X871613Y412777D01*
X871431Y412532D01*
X871033Y412065D01*
X870652Y411683D01*
X869613Y410874D01*
X869090Y410540D01*
X868661Y410353D01*
X868304Y410201D01*
X867572Y409957D01*
X867199Y409865D01*
X866747Y409783D01*
X865988Y409716D01*
X865609Y409717D01*
X865155Y409749D01*
X864629Y409826D01*
X864183Y409923D01*
X863888Y410002D01*
X863522Y410117D01*
X863090Y410275D01*
X862664Y410453D01*
X860922Y411420D01*
X860364Y411824D01*
X859949Y412161D01*
X859278Y412784D01*
X859015Y413059D01*
X858567Y413579D01*
X858425Y413758D01*
X858024Y414314D01*
X857776Y414698D01*
X857506Y415159D01*
X857362Y415428D01*
X857225Y415700D01*
X857063Y416046D01*
X856913Y416396D01*
X856748Y416822D01*
X856575Y417326D01*
X856445Y417763D01*
X856329Y418204D01*
X856229Y418649D01*
X856143Y419097D01*
X856070Y419547D01*
X856011Y419998D01*
X855952Y420602D01*
X855921Y421057D01*
X855902Y421512D01*
X855895Y421816D01*
X855893Y422120D01*
X855899Y422576D01*
X855913Y423032D01*
X855937Y423488D01*
X855982Y424096D01*
X856025Y424551D01*
X856066Y424929D01*
X856103Y425231D01*
X856144Y425533D01*
X856189Y425834D01*
X856263Y426283D01*
X856332Y426657D01*
X856458Y427251D01*
X856565Y427694D01*
X856642Y427987D01*
X856724Y428280D01*
X856905Y428860D01*
X857056Y429290D01*
X857249Y429786D01*
X857430Y430205D01*
X857625Y430616D01*
X857910Y431152D01*
X858101Y431479D01*
X858513Y432116D01*
X858822Y432550D01*
X859099Y432913D01*
X859340Y433208D01*
X859643Y433548D01*
X859909Y433817D01*
X860188Y434072D01*
X860481Y434312D01*
X860783Y434541D01*
X861094Y434760D01*
X861411Y434972D01*
X861797Y435218D01*
X862058Y435377D01*
X862321Y435530D01*
X862724Y435743D01*
X863209Y435958D01*
X863566Y436084D01*
X864006Y436204D01*
X864380Y436278D01*
X864607Y436312D01*
X864835Y436337D01*
X865141Y436359D01*
X865602Y436367D01*
X865908Y436356D01*
X866441Y436308D01*
X866892Y436237D01*
X867486Y436105D01*
X867925Y435979D01*
X868357Y435832D01*
X868784Y435664D01*
X869134Y435509D01*
X869547Y435306D01*
X870139Y434961D01*
X870510Y434699D01*
X870856Y434408D01*
X871125Y434145D01*
X871429Y433809D01*
X871624Y433576D01*
X871815Y433339D01*
X872099Y432978D01*
X872288Y432738D01*
X872578Y432382D01*
X872823Y432090D01*
X873109Y431736D01*
X873369Y431367D01*
X873595Y430977D01*
X873765Y430639D01*
X873922Y430294D01*
X874043Y430014D01*
X874162Y429732D01*
X874282Y429450D01*
X874374Y429240D01*
X874537Y428893D01*
X874639Y428688D01*
X874783Y428419D01*
X874974Y428090D01*
X875177Y427771D01*
X875441Y427403D01*
X875628Y427167D01*
X875923Y426824D01*
X876232Y426489D01*
X876550Y426158D01*
X876766Y425936D01*
X877046Y425670D01*
X877283Y425481D01*
X877608Y425294D01*
X877893Y425196D01*
X878117Y425150D01*
X878425Y425122D01*
X878580Y425122D01*
X878811Y425137D01*
X879037Y425172D01*
X879258Y425228D01*
X879537Y425340D01*
X879865Y425527D01*
X880121Y425694D01*
X880511Y425937D01*
X880779Y426081D01*
X881196Y426260D01*
X881705Y426406D01*
X882291Y426580D01*
X881797Y426846D01*
X881065Y427284D01*
X880440Y427754D01*
X879810Y428373D01*
X879260Y429032D01*
X878794Y429673D01*
X878302Y430488D01*
X877942Y431291D01*
X877694Y432105D01*
X877504Y433210D01*
X877446Y434139D01*
X877459Y434972D01*
X877607Y436250D01*
X877859Y437198D01*
X878212Y438009D01*
X878700Y438792D01*
X879464Y439663D01*
X880232Y440295D01*
X881023Y440779D01*
X881805Y441130D01*
X882461Y441340D01*
X883228Y441502D01*
X883879Y441582D01*
X884869Y441622D01*
X885533Y441606D01*
D02*
G37*
G36*
X880940Y447340D02*
Y445790D01*
X880490Y443890D01*
X879790Y442290D01*
X878940Y441090D01*
X877940Y439840D01*
X877040Y439040D01*
X876140Y438290D01*
X875440Y437840D01*
X874390Y437390D01*
X873290Y437040D01*
X872040Y436840D01*
X871140Y436790D01*
X870040Y436840D01*
X868740Y436990D01*
X866990Y437390D01*
X864990Y438090D01*
X863290Y438890D01*
X862190Y439590D01*
X860640Y440840D01*
X860040Y441390D01*
X863740Y445790D01*
X864290Y445140D01*
X864940Y444440D01*
X865940Y443640D01*
X866740Y443090D01*
X867590Y442590D01*
X868790Y441940D01*
X869940Y441590D01*
X870840Y441390D01*
X872640D01*
X873590Y441540D01*
X874640Y441790D01*
X875640Y442140D01*
X876490Y442540D01*
X877190Y442990D01*
X877890Y443590D01*
X878440Y444190D01*
X879090Y444990D01*
X879690Y445890D01*
X880140Y446690D01*
X880390Y447440D01*
X880690Y448240D01*
X880940Y447340D01*
D02*
G37*
%LPC*%
G36*
X1312Y121920D02*
X-8890D01*
Y115226D01*
X-1266Y121810D01*
X-185Y117233D01*
X-80Y117370D01*
X1083Y120177D01*
X1312Y121920D01*
D02*
G37*
G36*
X-11430D02*
X-21632D01*
X-21403Y120177D01*
X-20240Y117370D01*
X-18390Y114960D01*
X-15980Y113110D01*
X-13173Y111947D01*
X-11430Y111718D01*
Y121920D01*
D02*
G37*
G36*
X196850Y139909D02*
X193838Y139513D01*
X191030Y138350D01*
X188620Y136500D01*
X186770Y134090D01*
X185607Y131283D01*
X185210Y128270D01*
X185607Y125258D01*
X186770Y122450D01*
X188620Y120040D01*
X191030Y118190D01*
X193838Y117027D01*
X196850Y116630D01*
X199862Y117027D01*
X202670Y118190D01*
X205080Y120040D01*
X206930Y122450D01*
X208093Y125258D01*
X208490Y128270D01*
X208093Y131283D01*
X206930Y134090D01*
X205080Y136500D01*
X202670Y138350D01*
X199862Y139513D01*
X196850Y139909D01*
D02*
G37*
G36*
X-15270Y133564D02*
X-15980Y133270D01*
X-18390Y131420D01*
X-20240Y129010D01*
X-21403Y126202D01*
X-21632Y124460D01*
X-11430D01*
Y129617D01*
X-16460D01*
X-16213Y129911D01*
X-15992Y130283D01*
X-15797Y130733D01*
X-15628Y131262D01*
X-15485Y131868D01*
X-15368Y132553D01*
X-15270Y133564D01*
D02*
G37*
G36*
X-5030Y133556D02*
X-4952Y132553D01*
X-4835Y131868D01*
X-4692Y131262D01*
X-4523Y130733D01*
X-4328Y130283D01*
X-4107Y129911D01*
X-3860Y129617D01*
X-8890D01*
Y124460D01*
X1312D01*
X1083Y126202D01*
X-80Y129010D01*
X-1930Y131420D01*
X-4340Y133270D01*
X-5030Y133556D01*
D02*
G37*
G36*
X1262Y94744D02*
X1392Y92732D01*
X1480Y92186D01*
X1585Y91721D01*
X1706Y91340D01*
X1843Y91040D01*
X1997Y90822D01*
X-3010Y91099D01*
Y86360D01*
X6688D01*
X6476Y87972D01*
X5363Y90658D01*
X3594Y92964D01*
X1288Y94733D01*
X1262Y94744D01*
D02*
G37*
G36*
X-8890Y95130D02*
X-9848Y94733D01*
X-12154Y92964D01*
X-13923Y90658D01*
X-15036Y87972D01*
X-15248Y86360D01*
X-5550D01*
Y91240D01*
X-9885Y91480D01*
X-9681Y91709D01*
X-9498Y92018D01*
X-9337Y92407D01*
X-9197Y92877D01*
X-9079Y93427D01*
X-8982Y94058D01*
X-8890Y95130D01*
D02*
G37*
G36*
X474980Y144780D02*
X467450D01*
X467589Y143729D01*
X468485Y141567D01*
X469910Y139710D01*
X471767Y138285D01*
X473929Y137389D01*
X474980Y137250D01*
Y144780D01*
D02*
G37*
G36*
X469900Y180515D02*
X467018Y180136D01*
X464332Y179023D01*
X462026Y177254D01*
X460257Y174948D01*
X459144Y172262D01*
X458765Y169380D01*
X459144Y166498D01*
X460257Y163812D01*
X462026Y161506D01*
X464332Y159737D01*
X467018Y158624D01*
X469900Y158245D01*
X472782Y158624D01*
X475468Y159737D01*
X477774Y161506D01*
X479543Y163812D01*
X480656Y166498D01*
X481035Y169380D01*
X480656Y172262D01*
X479543Y174948D01*
X477774Y177254D01*
X475468Y179023D01*
X472782Y180136D01*
X469900Y180515D01*
D02*
G37*
G36*
X-8890Y160062D02*
Y149860D01*
X1312D01*
X1083Y151602D01*
X-80Y154410D01*
X-1930Y156820D01*
X-4340Y158670D01*
X-7147Y159833D01*
X-8890Y160062D01*
D02*
G37*
G36*
X-10160Y185630D02*
X-13173Y185233D01*
X-15980Y184070D01*
X-18390Y182220D01*
X-20240Y179810D01*
X-21403Y177003D01*
X-21800Y173990D01*
X-21403Y170977D01*
X-20240Y168170D01*
X-18390Y165760D01*
X-15980Y163910D01*
X-13173Y162747D01*
X-10160Y162350D01*
X-7147Y162747D01*
X-4340Y163910D01*
X-1930Y165760D01*
X-80Y168170D01*
X1083Y170977D01*
X1480Y173990D01*
X1083Y177003D01*
X-80Y179810D01*
X-1930Y182220D01*
X-4340Y184070D01*
X-7147Y185233D01*
X-10160Y185630D01*
D02*
G37*
G36*
X125730Y234917D02*
X123109Y234572D01*
X120667Y233560D01*
X118569Y231951D01*
X116960Y229853D01*
X115948Y227411D01*
X115603Y224790D01*
X115948Y222169D01*
X116960Y219727D01*
X118569Y217629D01*
X118737Y217500D01*
X118796Y217436D01*
X118928Y217252D01*
X119061Y217020D01*
X119191Y216730D01*
X119313Y216378D01*
X119422Y215961D01*
X119506Y215516D01*
X119572Y214844D01*
Y156171D01*
X119511Y155569D01*
X119457Y155260D01*
X119396Y155009D01*
X119357Y154888D01*
X117965Y153073D01*
X117069Y150911D01*
X116763Y148590D01*
X117069Y146269D01*
X117965Y144107D01*
X119390Y142250D01*
X121247Y140825D01*
X123409Y139929D01*
X125730Y139623D01*
X128051Y139929D01*
X130213Y140825D01*
X132070Y142250D01*
X133495Y144107D01*
X134391Y146269D01*
X134697Y148590D01*
X134391Y150911D01*
X133495Y153073D01*
X132103Y154888D01*
X132064Y155009D01*
X132003Y155260D01*
X131953Y155543D01*
X131888Y156356D01*
Y215014D01*
X131947Y215480D01*
X132038Y215961D01*
X132147Y216378D01*
X132269Y216730D01*
X132399Y217020D01*
X132532Y217252D01*
X132664Y217436D01*
X132723Y217500D01*
X132891Y217629D01*
X134500Y219727D01*
X135512Y222169D01*
X135857Y224790D01*
X135512Y227411D01*
X134500Y229853D01*
X132891Y231951D01*
X130793Y233560D01*
X128351Y234572D01*
X125730Y234917D01*
D02*
G37*
G36*
X-11430Y147320D02*
X-21632D01*
X-21403Y145577D01*
X-20240Y142770D01*
X-18390Y140360D01*
X-15980Y138510D01*
X-15290Y138224D01*
X-15368Y139227D01*
X-15485Y139912D01*
X-15628Y140518D01*
X-15797Y141046D01*
X-15992Y141497D01*
X-16213Y141869D01*
X-16460Y142163D01*
X-11430D01*
Y147320D01*
D02*
G37*
G36*
X485050Y144780D02*
X477520D01*
Y137250D01*
X478571Y137389D01*
X480733Y138285D01*
X482590Y139710D01*
X484015Y141567D01*
X484911Y143729D01*
X485050Y144780D01*
D02*
G37*
G36*
X1312Y147320D02*
X-8890D01*
Y142163D01*
X-3860D01*
X-4107Y141869D01*
X-4328Y141497D01*
X-4523Y141046D01*
X-4692Y140518D01*
X-4835Y139912D01*
X-4952Y139227D01*
X-5050Y138216D01*
X-4340Y138510D01*
X-1930Y140360D01*
X-80Y142770D01*
X1083Y145577D01*
X1312Y147320D01*
D02*
G37*
G36*
X-11430Y160062D02*
X-13173Y159833D01*
X-15980Y158670D01*
X-18390Y156820D01*
X-20240Y154410D01*
X-21403Y151602D01*
X-21632Y149860D01*
X-11430D01*
Y160062D01*
D02*
G37*
G36*
X477520Y154850D02*
Y147320D01*
X485050D01*
X484911Y148371D01*
X484015Y150533D01*
X482590Y152390D01*
X480733Y153815D01*
X478571Y154711D01*
X477520Y154850D01*
D02*
G37*
G36*
X474980D02*
X473929Y154711D01*
X471767Y153815D01*
X469910Y152390D01*
X468485Y150533D01*
X467589Y148371D01*
X467450Y147320D01*
X474980D01*
Y154850D01*
D02*
G37*
G36*
X371410Y26440D02*
X342330D01*
Y-2640D01*
X371410D01*
Y26440D01*
D02*
G37*
G36*
X158750Y-3472D02*
Y-5875D01*
X158790Y-5865D01*
X159182Y-5706D01*
X159615Y-5475D01*
X160089Y-5172D01*
X160604Y-4796D01*
X161412Y-4119D01*
X160362Y-3684D01*
X158750Y-3472D01*
D02*
G37*
G36*
X1270Y14988D02*
Y1270D01*
X14988D01*
X14822Y2948D01*
X13962Y5783D01*
X12566Y8396D01*
X10686Y10686D01*
X8396Y12566D01*
X5783Y13962D01*
X2948Y14822D01*
X1270Y14988D01*
D02*
G37*
G36*
X-1270D02*
X-2948Y14822D01*
X-5783Y13962D01*
X-8396Y12566D01*
X-10686Y10686D01*
X-12566Y8396D01*
X-13962Y5783D01*
X-14822Y2948D01*
X-14988Y1270D01*
X-1270D01*
Y14988D01*
D02*
G37*
G36*
X43180Y10630D02*
X29952D01*
X30284Y8104D01*
X31749Y4567D01*
X34080Y1530D01*
X37117Y-801D01*
X40654Y-2266D01*
X43180Y-2598D01*
Y-86D01*
X42440Y70D01*
X43180Y584D01*
Y10630D01*
D02*
G37*
G36*
X45720Y-977D02*
Y-2598D01*
X48025Y-2295D01*
X47813Y-2146D01*
X46926Y-1597D01*
X46036Y-1120D01*
X45720Y-977D01*
D02*
G37*
G36*
X168247Y-11641D02*
X166899Y-13166D01*
X166896Y-13170D01*
X168448D01*
X168247Y-11641D01*
D02*
G37*
G36*
X168448Y-15710D02*
X158750D01*
Y-25408D01*
X160362Y-25196D01*
X163048Y-24083D01*
X165354Y-22314D01*
X167123Y-20008D01*
X168236Y-17322D01*
X168448Y-15710D01*
D02*
G37*
G36*
X156210D02*
X151503D01*
X151997Y-20935D01*
X151790Y-20803D01*
X151500Y-20685D01*
X151126Y-20580D01*
X150669Y-20490D01*
X150128Y-20414D01*
X148794Y-20303D01*
X148049Y-20285D01*
X149606Y-22314D01*
X151912Y-24083D01*
X154598Y-25196D01*
X156210Y-25408D01*
Y-15710D01*
D02*
G37*
G36*
Y-3472D02*
X154598Y-3684D01*
X151912Y-4797D01*
X149606Y-6566D01*
X147837Y-8872D01*
X147316Y-10128D01*
X148309Y-10056D01*
X148938Y-9952D01*
X149487Y-9825D01*
X149955Y-9675D01*
X150342Y-9503D01*
X150650Y-9307D01*
X150877Y-9088D01*
X151263Y-13170D01*
X156210D01*
Y-3472D01*
D02*
G37*
G36*
X158750Y-6673D02*
Y-13170D01*
X164435D01*
X158750Y-6673D01*
D02*
G37*
G36*
X14988Y-1270D02*
X1270D01*
Y-14988D01*
X2948Y-14822D01*
X5783Y-13962D01*
X8396Y-12566D01*
X10686Y-10686D01*
X12566Y-8396D01*
X13962Y-5783D01*
X14822Y-2948D01*
X14988Y-1270D01*
D02*
G37*
G36*
X-1270D02*
X-14988D01*
X-14822Y-2948D01*
X-13962Y-5783D01*
X-12566Y-8396D01*
X-10686Y-10686D01*
X-8396Y-12566D01*
X-5783Y-13962D01*
X-2948Y-14822D01*
X-1270Y-14988D01*
Y-1270D01*
D02*
G37*
G36*
X363690Y94955D02*
X360808Y94576D01*
X358122Y93463D01*
X355816Y91694D01*
X354047Y89388D01*
X352934Y86702D01*
X352555Y83820D01*
X352934Y80938D01*
X354047Y78252D01*
X355816Y75946D01*
X358122Y74177D01*
X360808Y73064D01*
X363690Y72685D01*
X366572Y73064D01*
X369258Y74177D01*
X371564Y75946D01*
X373333Y78252D01*
X374446Y80938D01*
X374825Y83820D01*
X374446Y86702D01*
X373333Y89388D01*
X371564Y91694D01*
X369258Y93463D01*
X366572Y94576D01*
X363690Y94955D01*
D02*
G37*
G36*
X-5550Y83820D02*
X-15248D01*
X-15036Y82208D01*
X-13923Y79522D01*
X-12154Y77216D01*
X-9848Y75447D01*
X-7162Y74334D01*
X-5550Y74122D01*
Y83820D01*
D02*
G37*
G36*
X6688D02*
X5896D01*
X6590Y83077D01*
X6688Y83820D01*
D02*
G37*
G36*
X2343D02*
X-3010D01*
Y74122D01*
X-1398Y74334D01*
X275Y75027D01*
X-433Y75632D01*
X-955Y75996D01*
X-1436Y76284D01*
X-1878Y76498D01*
X-2280Y76638D01*
X-2643Y76702D01*
X-2966Y76692D01*
X2343Y83820D01*
D02*
G37*
G36*
X51189Y24846D02*
X51198Y24801D01*
X51467Y23796D01*
X51796Y22841D01*
X52185Y21938D01*
X52634Y21085D01*
X53142Y20284D01*
X53710Y19533D01*
X45720Y20383D01*
Y13170D01*
X58948D01*
X58616Y15696D01*
X57151Y19233D01*
X54820Y22270D01*
X51783Y24601D01*
X51189Y24846D01*
D02*
G37*
G36*
X40049Y25815D02*
X37117Y24601D01*
X34080Y22270D01*
X31749Y19233D01*
X30284Y15696D01*
X29952Y13170D01*
X43180D01*
Y20653D01*
X37004Y21311D01*
X37710Y21932D01*
X38342Y22619D01*
X38899Y23373D01*
X39382Y24193D01*
X39791Y25079D01*
X40049Y25815D01*
D02*
G37*
G36*
X58948Y10630D02*
X45720D01*
Y2348D01*
X56238Y9654D01*
X56116Y8734D01*
X56100Y7818D01*
X56191Y6906D01*
X56388Y5996D01*
X56692Y5089D01*
X57012Y4386D01*
X57151Y4567D01*
X58616Y8104D01*
X58948Y10630D01*
D02*
G37*
G36*
X464840Y79234D02*
X464332Y79023D01*
X462026Y77254D01*
X460257Y74948D01*
X460062Y74479D01*
X461888Y74618D01*
X462438Y74722D01*
X462907Y74845D01*
X463296Y74988D01*
X463603Y75149D01*
X463830Y75330D01*
Y70650D01*
X468630D01*
Y75450D01*
X463950D01*
X464131Y75677D01*
X464292Y75984D01*
X464435Y76373D01*
X464558Y76842D01*
X464663Y77392D01*
X464748Y78022D01*
X464840Y79234D01*
D02*
G37*
G36*
X474999Y79218D02*
X475137Y77392D01*
X475242Y76842D01*
X475365Y76373D01*
X475508Y75984D01*
X475670Y75677D01*
X475850Y75450D01*
X471170D01*
Y70650D01*
X480868D01*
X480656Y72262D01*
X479543Y74948D01*
X477774Y77254D01*
X475468Y79023D01*
X474999Y79218D01*
D02*
G37*
G36*
X468630Y68110D02*
X463830D01*
Y63430D01*
X463603Y63611D01*
X463296Y63772D01*
X462907Y63914D01*
X462438Y64038D01*
X461888Y64142D01*
X461258Y64228D01*
X460046Y64320D01*
X460257Y63812D01*
X462026Y61506D01*
X464332Y59737D01*
X467018Y58624D01*
X468630Y58412D01*
Y68110D01*
D02*
G37*
G36*
X480868D02*
X471170D01*
Y58412D01*
X472782Y58624D01*
X475468Y59737D01*
X477774Y61506D01*
X479543Y63812D01*
X480656Y66498D01*
X480868Y68110D01*
D02*
G37*
G36*
X1380Y312530D02*
X-21700D01*
Y289450D01*
X1380D01*
Y312530D01*
D02*
G37*
G36*
X227330Y413987D02*
X224709Y413642D01*
X222267Y412630D01*
X220169Y411021D01*
X220040Y410853D01*
X219976Y410794D01*
X219792Y410662D01*
X219560Y410529D01*
X219270Y410399D01*
X218918Y410277D01*
X218501Y410168D01*
X218056Y410084D01*
X217384Y410018D01*
X211706D01*
X211240Y410077D01*
X210758Y410168D01*
X210342Y410277D01*
X209990Y410399D01*
X209701Y410529D01*
X209468Y410662D01*
X209284Y410794D01*
X209219Y410853D01*
X209091Y411021D01*
X206993Y412630D01*
X204551Y413642D01*
X201930Y413987D01*
X199309Y413642D01*
X196867Y412630D01*
X194769Y411021D01*
X193160Y408923D01*
X192148Y406481D01*
X191803Y403860D01*
X192148Y401239D01*
X193160Y398797D01*
X194769Y396699D01*
X196867Y395090D01*
X199309Y394078D01*
X201930Y393733D01*
X204551Y394078D01*
X206993Y395090D01*
X209091Y396699D01*
X209219Y396867D01*
X209284Y396926D01*
X209468Y397058D01*
X209700Y397191D01*
X209990Y397321D01*
X210342Y397443D01*
X210758Y397552D01*
X211204Y397636D01*
X211876Y397702D01*
X217554D01*
X218020Y397643D01*
X218501Y397552D01*
X218918Y397443D01*
X219270Y397321D01*
X219559Y397191D01*
X219792Y397058D01*
X219976Y396926D01*
X220040Y396867D01*
X220169Y396699D01*
X222267Y395090D01*
X224709Y394078D01*
X227330Y393733D01*
X229951Y394078D01*
X232393Y395090D01*
X234491Y396699D01*
X236100Y398797D01*
X237112Y401239D01*
X237457Y403860D01*
X237112Y406481D01*
X236100Y408923D01*
X234491Y411021D01*
X232393Y412630D01*
X229951Y413642D01*
X227330Y413987D01*
D02*
G37*
G36*
X398318Y320510D02*
X388620D01*
Y315710D01*
X393300D01*
X393120Y315483D01*
X392958Y315176D01*
X392816Y314787D01*
X392692Y314318D01*
X392588Y313768D01*
X392502Y313137D01*
X392410Y311926D01*
X392918Y312137D01*
X395224Y313906D01*
X396993Y316212D01*
X398106Y318898D01*
X398318Y320510D01*
D02*
G37*
G36*
X151130Y413987D02*
X148509Y413642D01*
X146067Y412630D01*
X143969Y411021D01*
X143841Y410853D01*
X143776Y410794D01*
X143592Y410662D01*
X143360Y410529D01*
X143070Y410399D01*
X142718Y410277D01*
X142302Y410168D01*
X141856Y410084D01*
X141184Y410018D01*
X135506D01*
X135040Y410077D01*
X134558Y410168D01*
X134142Y410277D01*
X133790Y410399D01*
X133500Y410529D01*
X133268Y410662D01*
X133084Y410794D01*
X133020Y410853D01*
X132891Y411021D01*
X130793Y412630D01*
X128351Y413642D01*
X125730Y413987D01*
X123109Y413642D01*
X120667Y412630D01*
X118569Y411021D01*
X116960Y408923D01*
X115948Y406481D01*
X115603Y403860D01*
X115948Y401239D01*
X116960Y398797D01*
X118569Y396699D01*
X120667Y395090D01*
X123109Y394078D01*
X125730Y393733D01*
X128351Y394078D01*
X130793Y395090D01*
X132891Y396699D01*
X133020Y396867D01*
X133084Y396926D01*
X133268Y397058D01*
X133500Y397191D01*
X133790Y397321D01*
X134142Y397443D01*
X134558Y397552D01*
X135004Y397636D01*
X135676Y397702D01*
X141354D01*
X141820Y397643D01*
X142302Y397552D01*
X142718Y397443D01*
X143070Y397321D01*
X143359Y397191D01*
X143592Y397058D01*
X143776Y396926D01*
X143841Y396867D01*
X143969Y396699D01*
X146067Y395090D01*
X148509Y394078D01*
X151130Y393733D01*
X153751Y394078D01*
X156193Y395090D01*
X158291Y396699D01*
X159900Y398797D01*
X160912Y401239D01*
X161257Y403860D01*
X160912Y406481D01*
X159900Y408923D01*
X158291Y411021D01*
X156193Y412630D01*
X153751Y413642D01*
X151130Y413987D01*
D02*
G37*
G36*
X386080Y320510D02*
X376382D01*
X376594Y318898D01*
X377707Y316212D01*
X379476Y313906D01*
X381782Y312137D01*
X382251Y311943D01*
X382113Y313768D01*
X382008Y314318D01*
X381884Y314787D01*
X381742Y315176D01*
X381581Y315483D01*
X381400Y315710D01*
X386080D01*
Y320510D01*
D02*
G37*
G36*
X227330Y337787D02*
X224709Y337442D01*
X222267Y336430D01*
X220169Y334821D01*
X218560Y332723D01*
X217548Y330281D01*
X217203Y327660D01*
X217548Y325039D01*
X218560Y322597D01*
X220169Y320499D01*
X222267Y318890D01*
X224709Y317878D01*
X227330Y317533D01*
X227562Y317564D01*
X227829Y317555D01*
X228218Y317507D01*
X228600Y317425D01*
X228982Y317308D01*
X229368Y317151D01*
X229761Y316952D01*
X230162Y316707D01*
X230573Y316413D01*
X230665Y316336D01*
X247082Y299920D01*
Y284686D01*
X247070Y284566D01*
X246988Y284067D01*
X246877Y283610D01*
X246740Y283192D01*
X246578Y282809D01*
X246391Y282455D01*
X246178Y282127D01*
X245938Y281818D01*
X245755Y281623D01*
X245569Y281481D01*
X243960Y279383D01*
X242948Y276941D01*
X242603Y274320D01*
X242948Y271699D01*
X243960Y269257D01*
X245569Y267159D01*
X247667Y265550D01*
X250109Y264538D01*
X252730Y264193D01*
X255351Y264538D01*
X257793Y265550D01*
X259891Y267159D01*
X261500Y269257D01*
X262512Y271699D01*
X262857Y274320D01*
X262512Y276941D01*
X261500Y279383D01*
X259891Y281481D01*
X259705Y281623D01*
X259522Y281818D01*
X259281Y282127D01*
X259069Y282455D01*
X258882Y282809D01*
X258720Y283192D01*
X258583Y283610D01*
X258472Y284067D01*
X258390Y284566D01*
X258379Y284686D01*
Y302260D01*
X258379Y302260D01*
X257949Y304422D01*
X256724Y306254D01*
X256724Y306254D01*
X238654Y324325D01*
X238577Y324417D01*
X238283Y324828D01*
X238038Y325229D01*
X237839Y325622D01*
X237682Y326008D01*
X237565Y326390D01*
X237483Y326772D01*
X237435Y327160D01*
X237426Y327428D01*
X237457Y327660D01*
X237112Y330281D01*
X236100Y332723D01*
X234491Y334821D01*
X232393Y336430D01*
X229951Y337442D01*
X227330Y337787D01*
D02*
G37*
G36*
X65578Y428460D02*
X55880D01*
Y418762D01*
X57492Y418974D01*
X60178Y420087D01*
X62484Y421856D01*
X64253Y424162D01*
X65366Y426848D01*
X65578Y428460D01*
D02*
G37*
G36*
X429260Y241308D02*
X427648Y241096D01*
X427179Y240902D01*
X428568Y239709D01*
X429031Y239394D01*
X429260Y239260D01*
Y241308D01*
D02*
G37*
G36*
X227330Y284447D02*
X224709Y284102D01*
X222267Y283090D01*
X220169Y281481D01*
X218560Y279383D01*
X217548Y276941D01*
X217203Y274320D01*
X217548Y271699D01*
X218560Y269257D01*
X220169Y267159D01*
X222267Y265550D01*
X224709Y264538D01*
X227330Y264193D01*
X229951Y264538D01*
X232393Y265550D01*
X234491Y267159D01*
X236100Y269257D01*
X237112Y271699D01*
X237457Y274320D01*
X237112Y276941D01*
X236100Y279383D01*
X234491Y281481D01*
X232393Y283090D01*
X229951Y284102D01*
X227330Y284447D01*
D02*
G37*
G36*
X53340Y428460D02*
X43642D01*
X43854Y426848D01*
X44967Y424162D01*
X46736Y421856D01*
X49042Y420087D01*
X51728Y418974D01*
X53340Y418762D01*
Y428460D01*
D02*
G37*
G36*
X-10160Y287229D02*
X-13173Y286833D01*
X-15980Y285670D01*
X-18390Y283820D01*
X-20240Y281410D01*
X-21403Y278603D01*
X-21800Y275590D01*
X-21403Y272577D01*
X-20240Y269770D01*
X-18390Y267360D01*
X-15980Y265510D01*
X-13173Y264347D01*
X-10160Y263950D01*
X-7147Y264347D01*
X-4340Y265510D01*
X-1930Y267360D01*
X-80Y269770D01*
X1083Y272577D01*
X1480Y275590D01*
X1083Y278603D01*
X-80Y281410D01*
X-1930Y283820D01*
X-4340Y285670D01*
X-7147Y286833D01*
X-10160Y287229D01*
D02*
G37*
G36*
X125730Y337787D02*
X123109Y337442D01*
X120667Y336430D01*
X118569Y334821D01*
X118441Y334653D01*
X118376Y334594D01*
X118192Y334462D01*
X117960Y334329D01*
X117670Y334199D01*
X117318Y334077D01*
X116902Y333968D01*
X116456Y333884D01*
X115784Y333818D01*
X113195D01*
X112594Y333871D01*
X111763Y334009D01*
X111127Y334179D01*
X110696Y334355D01*
X110462Y334498D01*
X110384Y334569D01*
X110383Y334571D01*
X110383Y334572D01*
X110370Y334691D01*
Y337700D01*
X90290D01*
Y317620D01*
X93043D01*
X93059Y317615D01*
X93421Y317577D01*
X93423Y317576D01*
X93425Y317575D01*
X93496Y317498D01*
X93637Y317267D01*
X93812Y316840D01*
X93981Y316210D01*
X94119Y315383D01*
X94172Y314787D01*
Y237655D01*
X94119Y237054D01*
X93981Y236223D01*
X93811Y235587D01*
X93635Y235156D01*
X93492Y234922D01*
X93421Y234844D01*
X93419Y234843D01*
X93418Y234843D01*
X93299Y234830D01*
X90290D01*
Y214750D01*
X110370D01*
Y234830D01*
X107361D01*
X107242Y234843D01*
X107241Y234843D01*
X107239Y234844D01*
X107168Y234922D01*
X107025Y235156D01*
X106850Y235587D01*
X106679Y236223D01*
X106541Y237054D01*
X106488Y237655D01*
Y314787D01*
X106541Y315383D01*
X106679Y316210D01*
X106848Y316840D01*
X107023Y317267D01*
X107164Y317498D01*
X107235Y317575D01*
X107237Y317576D01*
X107239Y317577D01*
X107601Y317615D01*
X107617Y317620D01*
X110370D01*
Y320629D01*
X110383Y320748D01*
X110383Y320749D01*
X110384Y320751D01*
X110462Y320822D01*
X110696Y320965D01*
X111127Y321140D01*
X111763Y321311D01*
X112594Y321449D01*
X113195Y321502D01*
X115954D01*
X116420Y321443D01*
X116902Y321352D01*
X117318Y321243D01*
X117670Y321121D01*
X117959Y320991D01*
X118192Y320858D01*
X118376Y320726D01*
X118441Y320667D01*
X118569Y320499D01*
X120667Y318890D01*
X123109Y317878D01*
X125730Y317533D01*
X128351Y317878D01*
X130793Y318890D01*
X132891Y320499D01*
X134500Y322597D01*
X135512Y325039D01*
X135857Y327660D01*
X135512Y330281D01*
X134500Y332723D01*
X132891Y334821D01*
X130793Y336430D01*
X128351Y337442D01*
X125730Y337787D01*
D02*
G37*
G36*
X254000Y337619D02*
Y328930D01*
X258086D01*
Y332910D01*
X258178Y332863D01*
X258354Y332820D01*
X258615Y332783D01*
X259392Y332723D01*
X261521Y332673D01*
X261500Y332723D01*
X259891Y334821D01*
X257793Y336430D01*
X255351Y337442D01*
X254000Y337619D01*
D02*
G37*
G36*
X251460D02*
X250109Y337442D01*
X247667Y336430D01*
X245569Y334821D01*
X243960Y332723D01*
X242948Y330281D01*
X242771Y328930D01*
X251460D01*
Y337619D01*
D02*
G37*
G36*
X201930Y337787D02*
X199309Y337442D01*
X196867Y336430D01*
X194769Y334821D01*
X194641Y334653D01*
X194576Y334594D01*
X194392Y334462D01*
X194160Y334329D01*
X193870Y334199D01*
X193518Y334077D01*
X193102Y333968D01*
X192656Y333884D01*
X191984Y333818D01*
X186306D01*
X185840Y333877D01*
X185359Y333968D01*
X184942Y334077D01*
X184590Y334199D01*
X184300Y334329D01*
X184068Y334462D01*
X183884Y334594D01*
X183820Y334653D01*
X183691Y334821D01*
X181593Y336430D01*
X179151Y337442D01*
X176530Y337787D01*
X173909Y337442D01*
X171467Y336430D01*
X169369Y334821D01*
X167760Y332723D01*
X166748Y330281D01*
X166403Y327660D01*
X166748Y325039D01*
X167760Y322597D01*
X169369Y320499D01*
X171467Y318890D01*
X173909Y317878D01*
X176530Y317533D01*
X179151Y317878D01*
X181593Y318890D01*
X183691Y320499D01*
X183820Y320667D01*
X183884Y320726D01*
X184068Y320858D01*
X184300Y320991D01*
X184590Y321121D01*
X184942Y321243D01*
X185359Y321352D01*
X185804Y321436D01*
X186476Y321502D01*
X192154D01*
X192620Y321443D01*
X193102Y321352D01*
X193518Y321243D01*
X193870Y321121D01*
X194160Y320991D01*
X194392Y320858D01*
X194576Y320726D01*
X194641Y320667D01*
X194769Y320499D01*
X194955Y320357D01*
X195138Y320162D01*
X195379Y319853D01*
X195591Y319525D01*
X195778Y319172D01*
X195940Y318788D01*
X196077Y318370D01*
X196188Y317913D01*
X196270Y317414D01*
X196282Y317294D01*
Y286429D01*
X196239Y285944D01*
X196126Y285262D01*
X195990Y284756D01*
X195860Y284435D01*
X195814Y284360D01*
X191890D01*
Y264280D01*
X211970D01*
Y284360D01*
X208046D01*
X208001Y284435D01*
X207870Y284756D01*
X207734Y285262D01*
X207621Y285944D01*
X207579Y286429D01*
Y317294D01*
X207590Y317414D01*
X207672Y317913D01*
X207783Y318370D01*
X207920Y318788D01*
X208082Y319172D01*
X208269Y319525D01*
X208481Y319853D01*
X208722Y320162D01*
X208905Y320357D01*
X209091Y320499D01*
X210700Y322597D01*
X211712Y325039D01*
X212057Y327660D01*
X211712Y330281D01*
X210700Y332723D01*
X209091Y334821D01*
X206993Y336430D01*
X204551Y337442D01*
X201930Y337787D01*
D02*
G37*
G36*
X388620Y332748D02*
Y323050D01*
X398318D01*
X398106Y324662D01*
X396993Y327348D01*
X395224Y329654D01*
X392918Y331423D01*
X390232Y332536D01*
X388620Y332748D01*
D02*
G37*
G36*
X258086Y326390D02*
X254000D01*
Y317701D01*
X255351Y317878D01*
X257793Y318890D01*
X259891Y320499D01*
X261495Y322590D01*
X258086Y322410D01*
Y326390D01*
D02*
G37*
G36*
X251460D02*
X242771D01*
X242948Y325039D01*
X243960Y322597D01*
X245569Y320499D01*
X247667Y318890D01*
X250109Y317878D01*
X251460Y317701D01*
Y326390D01*
D02*
G37*
G36*
X252730Y413987D02*
X250109Y413642D01*
X247667Y412630D01*
X245569Y411021D01*
X243960Y408923D01*
X242948Y406481D01*
X242603Y403860D01*
X242948Y401239D01*
X243960Y398797D01*
X245569Y396699D01*
X247667Y395090D01*
X250109Y394078D01*
X252730Y393733D01*
X255351Y394078D01*
X257793Y395090D01*
X259891Y396699D01*
X261500Y398797D01*
X262512Y401239D01*
X262857Y403860D01*
X262512Y406481D01*
X261500Y408923D01*
X259891Y411021D01*
X257793Y412630D01*
X255351Y413642D01*
X252730Y413987D01*
D02*
G37*
G36*
X386080Y332748D02*
X384468Y332536D01*
X381782Y331423D01*
X379476Y329654D01*
X377707Y327348D01*
X376594Y324662D01*
X376382Y323050D01*
X386080D01*
Y332748D01*
D02*
G37*
G36*
X99860Y451825D02*
X96978Y451446D01*
X94292Y450333D01*
X91986Y448564D01*
X90217Y446258D01*
X89104Y443572D01*
X88725Y440690D01*
X89104Y437808D01*
X90217Y435122D01*
X91986Y432816D01*
X92344Y432541D01*
X92359Y432506D01*
X92432Y432260D01*
X92513Y431884D01*
X92582Y431438D01*
X92725Y429328D01*
Y412576D01*
X92680Y410652D01*
X92657Y410353D01*
X92650Y410343D01*
X90256Y410195D01*
X78740D01*
X76772Y409936D01*
X74938Y409176D01*
X73362Y407968D01*
X49232Y383838D01*
X48024Y382262D01*
X47264Y380428D01*
X47005Y378460D01*
Y340995D01*
X46984Y340001D01*
X46881Y338645D01*
X46816Y338158D01*
X46741Y337764D01*
X46679Y337529D01*
X44967Y335298D01*
X43854Y332612D01*
X43475Y329730D01*
X43854Y326848D01*
X44967Y324162D01*
X46679Y321931D01*
X46741Y321696D01*
X46816Y321302D01*
X46881Y320815D01*
X46984Y319459D01*
X47005Y318465D01*
Y222250D01*
X47264Y220282D01*
X48024Y218447D01*
X49232Y216872D01*
X88915Y177190D01*
Y97008D01*
X88887Y95912D01*
X88765Y94591D01*
X88690Y94135D01*
X88606Y93771D01*
X88532Y93540D01*
X88516Y93504D01*
X88504Y93491D01*
X88475Y93446D01*
X87846Y92964D01*
X86077Y90658D01*
X84964Y87972D01*
X84585Y85090D01*
X84964Y82208D01*
X86077Y79522D01*
X87297Y77931D01*
X87325Y77869D01*
X87353Y77781D01*
X87416Y77501D01*
X87472Y77156D01*
X87645Y74470D01*
Y33320D01*
X87613Y32111D01*
X87479Y30585D01*
X87266Y29303D01*
X86991Y28278D01*
X86680Y27517D01*
X86373Y27013D01*
X86107Y26725D01*
X85880Y26573D01*
X85624Y26483D01*
X85220Y26440D01*
X80710D01*
Y-2640D01*
X109790D01*
Y26440D01*
X105280D01*
X104876Y26483D01*
X104620Y26573D01*
X104393Y26725D01*
X104127Y27013D01*
X103820Y27517D01*
X103509Y28278D01*
X103234Y29303D01*
X103021Y30585D01*
X102887Y32111D01*
X102855Y33320D01*
Y73416D01*
X102880Y74479D01*
X102995Y75815D01*
X103067Y76284D01*
X103148Y76660D01*
X103221Y76906D01*
X103236Y76941D01*
X103594Y77216D01*
X104409Y78279D01*
X104506Y78349D01*
X104510Y78353D01*
X104515Y78355D01*
X104724Y78428D01*
X105069Y78515D01*
X105479Y78589D01*
X107575Y78755D01*
X145898D01*
X148004Y78601D01*
X148435Y78530D01*
X148799Y78446D01*
X149030Y78372D01*
X149066Y78356D01*
X149079Y78344D01*
X149124Y78315D01*
X149606Y77686D01*
X151912Y75917D01*
X154598Y74804D01*
X157480Y74425D01*
X160362Y74804D01*
X163048Y75917D01*
X165354Y77686D01*
X165836Y78315D01*
X165881Y78344D01*
X165894Y78356D01*
X165930Y78372D01*
X166161Y78446D01*
X166525Y78530D01*
X166956Y78601D01*
X169062Y78755D01*
X241300D01*
X243268Y79014D01*
X245103Y79774D01*
X246678Y80982D01*
X251540Y85845D01*
X252743Y85252D01*
X252555Y83820D01*
X252934Y80938D01*
X254047Y78252D01*
X255816Y75946D01*
X258122Y74177D01*
X260808Y73064D01*
X263690Y72685D01*
X266572Y73064D01*
X269258Y74177D01*
X271564Y75946D01*
X273333Y78252D01*
X274446Y80938D01*
X274825Y83820D01*
X274446Y86702D01*
X273333Y89388D01*
X271564Y91694D01*
X269258Y93463D01*
X266572Y94576D01*
X263690Y94955D01*
X262258Y94767D01*
X261665Y95970D01*
X288430Y122735D01*
X419265D01*
X420259Y122714D01*
X421615Y122611D01*
X422102Y122545D01*
X422496Y122471D01*
X422731Y122409D01*
X424962Y120697D01*
X427648Y119584D01*
X430530Y119205D01*
X433412Y119584D01*
X436098Y120697D01*
X438404Y122466D01*
X440173Y124772D01*
X441286Y127458D01*
X441665Y130340D01*
X441286Y133222D01*
X440173Y135908D01*
X438404Y138214D01*
X436098Y139983D01*
X433412Y141096D01*
X430530Y141475D01*
X427648Y141096D01*
X424962Y139983D01*
X422731Y138271D01*
X422496Y138209D01*
X422178Y138149D01*
X419489Y137945D01*
X285280D01*
X283312Y137686D01*
X282237Y137241D01*
X281478Y136926D01*
X279902Y135718D01*
X238150Y93965D01*
X237027D01*
X235644Y94038D01*
X234288Y94277D01*
X233181Y94646D01*
X232297Y95122D01*
X231590Y95700D01*
X231012Y96407D01*
X230536Y97291D01*
X230167Y98398D01*
X229928Y99754D01*
X229855Y101137D01*
Y110006D01*
X229878Y111083D01*
X229987Y112640D01*
X230161Y113959D01*
X230390Y115028D01*
X230650Y115831D01*
X230905Y116356D01*
X231097Y116615D01*
X231176Y116682D01*
X231536Y116730D01*
X233790D01*
Y118984D01*
X233838Y119344D01*
X233904Y119423D01*
X234164Y119615D01*
X234689Y119870D01*
X235492Y120130D01*
X236519Y120350D01*
X239475Y120643D01*
X240514Y120665D01*
X250190D01*
X252158Y120924D01*
X253993Y121684D01*
X255568Y122892D01*
X271567Y138892D01*
X272853Y140131D01*
X274580Y141657D01*
X276162Y142910D01*
X277586Y143890D01*
X278833Y144599D01*
X279001Y144670D01*
X283064D01*
X283107Y144658D01*
X283205Y144670D01*
X287130D01*
Y151255D01*
X287174Y151659D01*
X287265Y151917D01*
X287418Y152145D01*
X287708Y152413D01*
X288212Y152720D01*
X288973Y153031D01*
X289998Y153306D01*
X291278Y153519D01*
X292803Y153653D01*
X294011Y153685D01*
X327660D01*
X329628Y153944D01*
X331463Y154704D01*
X333038Y155912D01*
X342705Y165579D01*
X344033Y166861D01*
X345806Y168432D01*
X347420Y169717D01*
X348862Y170715D01*
X349959Y171340D01*
X354571D01*
X354654Y171331D01*
X354684Y171340D01*
X359520D01*
Y191753D01*
X359539Y191849D01*
X359520Y191946D01*
Y194420D01*
X357266D01*
X356906Y194468D01*
X356827Y194534D01*
X356635Y194794D01*
X356380Y195319D01*
X356120Y196122D01*
X355900Y197149D01*
X355607Y200105D01*
X355585Y201144D01*
Y202716D01*
X355608Y203793D01*
X355717Y205350D01*
X355891Y206669D01*
X356120Y207738D01*
X356380Y208541D01*
X356635Y209066D01*
X356827Y209326D01*
X356906Y209392D01*
X357266Y209440D01*
X359520D01*
Y211914D01*
X359539Y212010D01*
X359520Y212107D01*
Y232520D01*
X336440D01*
Y212107D01*
X336421Y212010D01*
X336440Y211914D01*
Y209440D01*
X338694D01*
X339054Y209392D01*
X339133Y209326D01*
X339325Y209066D01*
X339580Y208541D01*
X339840Y207738D01*
X340060Y206711D01*
X340353Y203755D01*
X340375Y202716D01*
Y201144D01*
X340352Y200067D01*
X340243Y198510D01*
X340069Y197191D01*
X339840Y196122D01*
X339580Y195319D01*
X339325Y194794D01*
X339133Y194534D01*
X339054Y194468D01*
X338694Y194420D01*
X336440D01*
Y191946D01*
X336421Y191849D01*
X336440Y191753D01*
Y187016D01*
X336428Y186971D01*
X336440Y186871D01*
Y186634D01*
X336431Y186551D01*
X336440Y186521D01*
Y182084D01*
X336125Y181536D01*
X335111Y180085D01*
X333926Y180652D01*
X334220Y182880D01*
X333823Y185893D01*
X332660Y188700D01*
X330810Y191110D01*
X328400Y192960D01*
X325592Y194123D01*
X322580Y194520D01*
X319568Y194123D01*
X316760Y192960D01*
X314350Y191110D01*
X312500Y188700D01*
X311337Y185893D01*
X310940Y182880D01*
X311337Y179867D01*
X312500Y177060D01*
X314350Y174650D01*
X316760Y172800D01*
X319568Y171637D01*
X322580Y171240D01*
X325435Y171616D01*
X325728Y171310D01*
X326078Y170464D01*
X324510Y168895D01*
X283210D01*
X281242Y168636D01*
X279408Y167876D01*
X279243Y167750D01*
X264050D01*
Y158913D01*
X264031Y158811D01*
X264050Y158721D01*
Y154030D01*
X263890Y153752D01*
X262858Y152283D01*
X262023Y151303D01*
X260926Y151974D01*
X261433Y153197D01*
X261829Y156210D01*
X261433Y159222D01*
X260270Y162030D01*
X258420Y164440D01*
X256010Y166290D01*
X253202Y167453D01*
X250190Y167850D01*
X247178Y167453D01*
X244370Y166290D01*
X241960Y164440D01*
X240110Y162030D01*
X238947Y159222D01*
X238550Y156210D01*
X238947Y153197D01*
X240110Y150390D01*
X241960Y147980D01*
X244370Y146130D01*
X247178Y144967D01*
X250190Y144570D01*
X253202Y144967D01*
X255137Y145768D01*
X255857Y144692D01*
X247040Y135875D01*
X240514D01*
X239437Y135898D01*
X237880Y136007D01*
X236561Y136181D01*
X235492Y136410D01*
X234689Y136670D01*
X234164Y136925D01*
X233904Y137117D01*
X233838Y137196D01*
X233790Y137556D01*
Y139810D01*
X231316D01*
X231220Y139829D01*
X231123Y139810D01*
X210710D01*
Y119397D01*
X210691Y119300D01*
X210710Y119204D01*
Y116730D01*
X212964D01*
X213324Y116682D01*
X213403Y116615D01*
X213595Y116356D01*
X213850Y115831D01*
X214110Y115028D01*
X214330Y114001D01*
X214623Y111045D01*
X214645Y110006D01*
Y101137D01*
X214572Y99754D01*
X214333Y98398D01*
X213964Y97291D01*
X213488Y96407D01*
X212910Y95700D01*
X212203Y95122D01*
X211319Y94646D01*
X210212Y94277D01*
X208856Y94038D01*
X207473Y93965D01*
X168181D01*
X166304Y94010D01*
X165121Y94108D01*
X164723Y94165D01*
X164433Y94222D01*
X164305Y94258D01*
X164258Y94276D01*
X164254Y94277D01*
X163048Y95203D01*
X160362Y96316D01*
X157480Y96695D01*
X154598Y96316D01*
X151912Y95203D01*
X150706Y94277D01*
X150702Y94276D01*
X150655Y94258D01*
X150527Y94222D01*
X150237Y94165D01*
X149839Y94108D01*
X148656Y94010D01*
X146779Y93965D01*
X105331D01*
X104222Y94002D01*
X104125Y95411D01*
Y180340D01*
X103866Y182308D01*
X103106Y184142D01*
X101898Y185718D01*
X62215Y225400D01*
Y318689D01*
X62419Y321377D01*
X62479Y321696D01*
X62541Y321931D01*
X64253Y324162D01*
X65366Y326848D01*
X65745Y329730D01*
X65366Y332612D01*
X64253Y335298D01*
X62541Y337529D01*
X62479Y337764D01*
X62419Y338083D01*
X62215Y340771D01*
Y375310D01*
X81890Y394985D01*
X95521D01*
X97709Y394078D01*
X100330Y393733D01*
X102951Y394078D01*
X105393Y395090D01*
X106480Y395924D01*
X106672Y396004D01*
X108248Y397212D01*
X109456Y398787D01*
X109771Y399547D01*
X110216Y400622D01*
X110475Y402590D01*
X110382Y403295D01*
X110457Y403860D01*
X110112Y406481D01*
X109100Y408923D01*
X108122Y410199D01*
X107935Y413728D01*
Y430178D01*
X107987Y431534D01*
X108101Y432716D01*
X108164Y433101D01*
X108227Y433381D01*
X108255Y433469D01*
X108283Y433531D01*
X109503Y435122D01*
X110616Y437808D01*
X110995Y440690D01*
X110616Y443572D01*
X109503Y446258D01*
X107734Y448564D01*
X105428Y450333D01*
X102742Y451446D01*
X99860Y451825D01*
D02*
G37*
G36*
X176530Y413987D02*
X173909Y413642D01*
X171467Y412630D01*
X169369Y411021D01*
X167760Y408923D01*
X166748Y406481D01*
X166403Y403860D01*
X166748Y401239D01*
X167760Y398797D01*
X169369Y396699D01*
X171467Y395090D01*
X173909Y394078D01*
X176530Y393733D01*
X179151Y394078D01*
X181593Y395090D01*
X183691Y396699D01*
X185300Y398797D01*
X186312Y401239D01*
X186657Y403860D01*
X186312Y406481D01*
X185300Y408923D01*
X183691Y411021D01*
X181593Y412630D01*
X179151Y413642D01*
X176530Y413987D01*
D02*
G37*
G36*
X167640Y259157D02*
X165319Y258851D01*
X163157Y257955D01*
X161300Y256530D01*
X159875Y254673D01*
X158979Y252511D01*
X158673Y250190D01*
X158979Y247869D01*
X159875Y245707D01*
X161300Y243850D01*
X163157Y242425D01*
X165319Y241529D01*
X167640Y241223D01*
X169961Y241529D01*
X172123Y242425D01*
X173938Y243817D01*
X174059Y243857D01*
X174310Y243917D01*
X174593Y243967D01*
X175406Y244032D01*
X290819D01*
X309371Y225480D01*
X309512Y225308D01*
X309878Y224790D01*
X310187Y224273D01*
X310441Y223759D01*
X310644Y223244D01*
X310799Y222725D01*
X310908Y222197D01*
X310971Y221655D01*
X310982Y221297D01*
X310940Y220980D01*
X311337Y217967D01*
X312500Y215160D01*
X314350Y212750D01*
X316760Y210900D01*
X319568Y209737D01*
X322580Y209340D01*
X325592Y209737D01*
X328400Y210900D01*
X330810Y212750D01*
X332660Y215160D01*
X333823Y217967D01*
X334220Y220980D01*
X333823Y223993D01*
X332660Y226800D01*
X330810Y229210D01*
X328400Y231060D01*
X325592Y232223D01*
X322580Y232620D01*
X322263Y232578D01*
X321905Y232589D01*
X321363Y232652D01*
X320835Y232761D01*
X320316Y232916D01*
X319801Y233119D01*
X319287Y233373D01*
X318770Y233682D01*
X318252Y234049D01*
X318080Y234189D01*
X297725Y254545D01*
X295727Y255879D01*
X293370Y256348D01*
X175221D01*
X174619Y256409D01*
X174310Y256463D01*
X174059Y256523D01*
X173938Y256563D01*
X172123Y257955D01*
X169961Y258851D01*
X167640Y259157D01*
D02*
G37*
G36*
X201130Y451658D02*
Y441960D01*
X210828D01*
X210616Y443572D01*
X209503Y446258D01*
X207734Y448564D01*
X205428Y450333D01*
X202742Y451446D01*
X201130Y451658D01*
D02*
G37*
G36*
X387350Y232915D02*
X384468Y232536D01*
X381782Y231423D01*
X379476Y229654D01*
X377707Y227348D01*
X376594Y224662D01*
X376215Y221780D01*
X376594Y218898D01*
X377707Y216212D01*
X379476Y213906D01*
X381782Y212137D01*
X384468Y211024D01*
X387350Y210645D01*
X390232Y211024D01*
X392918Y212137D01*
X395224Y213906D01*
X396993Y216212D01*
X398106Y218898D01*
X398485Y221780D01*
X398106Y224662D01*
X396993Y227348D01*
X395224Y229654D01*
X392918Y231423D01*
X390232Y232536D01*
X387350Y232915D01*
D02*
G37*
G36*
X-10160Y236430D02*
X-13173Y236033D01*
X-15980Y234870D01*
X-18390Y233020D01*
X-20240Y230610D01*
X-21403Y227803D01*
X-21800Y224790D01*
X-21403Y221777D01*
X-20240Y218970D01*
X-18390Y216560D01*
X-15980Y214710D01*
X-13173Y213547D01*
X-10160Y213150D01*
X-7147Y213547D01*
X-4340Y214710D01*
X-1930Y216560D01*
X-80Y218970D01*
X1083Y221777D01*
X1480Y224790D01*
X1083Y227803D01*
X-80Y230610D01*
X-1930Y233020D01*
X-4340Y234870D01*
X-7147Y236033D01*
X-10160Y236430D01*
D02*
G37*
G36*
X151130Y337787D02*
X148509Y337442D01*
X146067Y336430D01*
X143969Y334821D01*
X142360Y332723D01*
X141348Y330281D01*
X141003Y327660D01*
X141348Y325039D01*
X142360Y322597D01*
X143969Y320499D01*
X144137Y320370D01*
X144196Y320306D01*
X144328Y320122D01*
X144461Y319890D01*
X144591Y319600D01*
X144713Y319248D01*
X144822Y318832D01*
X144906Y318386D01*
X144972Y317714D01*
Y234566D01*
X144913Y234100D01*
X144822Y233619D01*
X144713Y233202D01*
X144591Y232850D01*
X144461Y232560D01*
X144328Y232328D01*
X144196Y232144D01*
X144137Y232080D01*
X143969Y231951D01*
X142360Y229853D01*
X141348Y227411D01*
X141003Y224790D01*
X141348Y222169D01*
X142360Y219727D01*
X143969Y217629D01*
X146067Y216020D01*
X148509Y215008D01*
X151130Y214663D01*
X153751Y215008D01*
X156193Y216020D01*
X158291Y217629D01*
X159900Y219727D01*
X160912Y222169D01*
X161257Y224790D01*
X160912Y227411D01*
X159900Y229853D01*
X158291Y231951D01*
X158123Y232080D01*
X158064Y232144D01*
X157932Y232328D01*
X157799Y232560D01*
X157669Y232850D01*
X157547Y233202D01*
X157438Y233619D01*
X157354Y234064D01*
X157288Y234736D01*
Y317884D01*
X157347Y318350D01*
X157438Y318832D01*
X157547Y319248D01*
X157669Y319600D01*
X157799Y319890D01*
X157932Y320122D01*
X158064Y320306D01*
X158123Y320370D01*
X158291Y320499D01*
X159900Y322597D01*
X160912Y325039D01*
X161257Y327660D01*
X160912Y330281D01*
X159900Y332723D01*
X158291Y334821D01*
X156193Y336430D01*
X153751Y337442D01*
X151130Y337787D01*
D02*
G37*
G36*
X198590Y451658D02*
X196978Y451446D01*
X194292Y450333D01*
X191986Y448564D01*
X190217Y446258D01*
X189104Y443572D01*
X188892Y441960D01*
X198590D01*
Y451658D01*
D02*
G37*
G36*
X55880Y440698D02*
Y431000D01*
X65578D01*
X65366Y432612D01*
X64253Y435298D01*
X62484Y437604D01*
X60178Y439373D01*
X57492Y440486D01*
X55880Y440698D01*
D02*
G37*
G36*
X441498Y229070D02*
X431800D01*
Y224270D01*
X436480D01*
X436300Y224043D01*
X436138Y223736D01*
X435995Y223347D01*
X435872Y222878D01*
X435768Y222328D01*
X435682Y221698D01*
X435590Y220486D01*
X436098Y220697D01*
X438404Y222466D01*
X440173Y224772D01*
X441286Y227458D01*
X441498Y229070D01*
D02*
G37*
G36*
X429260Y237655D02*
X423215Y231610D01*
X429260D01*
Y237655D01*
D02*
G37*
G36*
X419984Y233729D02*
X419774Y233222D01*
X419562Y231610D01*
X421610D01*
X421476Y231839D01*
X421161Y232302D01*
X420776Y232808D01*
X419984Y233729D01*
D02*
G37*
G36*
X198590Y439420D02*
X188892D01*
X189104Y437808D01*
X190217Y435122D01*
X191986Y432816D01*
X194292Y431047D01*
X196978Y429934D01*
X198590Y429722D01*
Y439420D01*
D02*
G37*
G36*
X431800Y241308D02*
Y231610D01*
X441498D01*
X441286Y233222D01*
X440173Y235908D01*
X438404Y238214D01*
X436098Y239983D01*
X433412Y241096D01*
X431800Y241308D01*
D02*
G37*
G36*
X-10160Y261829D02*
X-13173Y261433D01*
X-15980Y260270D01*
X-18390Y258420D01*
X-20240Y256010D01*
X-21403Y253202D01*
X-21800Y250190D01*
X-21403Y247178D01*
X-20240Y244370D01*
X-18390Y241960D01*
X-15980Y240110D01*
X-13173Y238947D01*
X-10160Y238550D01*
X-7147Y238947D01*
X-4340Y240110D01*
X-1930Y241960D01*
X-80Y244370D01*
X1083Y247178D01*
X1480Y250190D01*
X1083Y253202D01*
X-80Y256010D01*
X-1930Y258420D01*
X-4340Y260270D01*
X-7147Y261433D01*
X-10160Y261829D01*
D02*
G37*
G36*
Y211029D02*
X-13173Y210633D01*
X-15980Y209470D01*
X-18390Y207620D01*
X-20240Y205210D01*
X-21403Y202402D01*
X-21800Y199390D01*
X-21403Y196378D01*
X-20240Y193570D01*
X-18390Y191160D01*
X-15980Y189310D01*
X-13173Y188147D01*
X-10160Y187750D01*
X-7147Y188147D01*
X-4340Y189310D01*
X-1930Y191160D01*
X-80Y193570D01*
X1083Y196378D01*
X1480Y199390D01*
X1083Y202402D01*
X-80Y205210D01*
X-1930Y207620D01*
X-4340Y209470D01*
X-7147Y210633D01*
X-10160Y211029D01*
D02*
G37*
G36*
X53340Y440698D02*
X51728Y440486D01*
X49042Y439373D01*
X46736Y437604D01*
X44967Y435298D01*
X43854Y432612D01*
X43642Y431000D01*
X53340D01*
Y440698D01*
D02*
G37*
G36*
X429260Y229070D02*
X419562D01*
X419774Y227458D01*
X420887Y224772D01*
X422656Y222466D01*
X424962Y220697D01*
X425431Y220502D01*
X425293Y222328D01*
X425188Y222878D01*
X425065Y223347D01*
X424922Y223736D01*
X424761Y224043D01*
X424580Y224270D01*
X429260D01*
Y229070D01*
D02*
G37*
G36*
X210828Y439420D02*
X201130D01*
Y429722D01*
X202742Y429934D01*
X205428Y431047D01*
X207734Y432816D01*
X209503Y435122D01*
X210616Y437808D01*
X210828Y439420D01*
D02*
G37*
%LPD*%
G36*
X130647Y219067D02*
X130350Y218654D01*
X130087Y218193D01*
X129860Y217686D01*
X129668Y217132D01*
X129510Y216531D01*
X129388Y215883D01*
X129300Y215188D01*
X129248Y214446D01*
X129230Y213657D01*
X122230D01*
X122212Y214446D01*
X122072Y215883D01*
X121950Y216531D01*
X121792Y217132D01*
X121600Y217686D01*
X121372Y218193D01*
X121110Y218654D01*
X120813Y219067D01*
X120480Y219434D01*
X130980D01*
X130647Y219067D01*
D02*
G37*
G36*
X129240Y156996D02*
X129381Y155216D01*
X129466Y154731D01*
X129570Y154301D01*
X129693Y153926D01*
X129835Y153604D01*
X129995Y153337D01*
X130175Y153125D01*
X121285D01*
X121465Y153337D01*
X121625Y153604D01*
X121767Y153926D01*
X121890Y154301D01*
X121994Y154731D01*
X122079Y155216D01*
X122192Y156348D01*
X122220Y156996D01*
X122230Y157698D01*
X129230D01*
X129240Y156996D01*
D02*
G37*
G36*
X221974Y398610D02*
X221607Y398942D01*
X221194Y399240D01*
X220734Y399502D01*
X220226Y399730D01*
X219672Y399922D01*
X219071Y400080D01*
X218423Y400202D01*
X217728Y400290D01*
X216986Y400342D01*
X216197Y400360D01*
Y407360D01*
X216986Y407378D01*
X218423Y407518D01*
X219071Y407640D01*
X219672Y407798D01*
X220226Y407990D01*
X220734Y408218D01*
X221194Y408480D01*
X221607Y408778D01*
X221974Y409110D01*
Y398610D01*
D02*
G37*
G36*
X207653Y408778D02*
X208066Y408480D01*
X208526Y408218D01*
X209034Y407990D01*
X209588Y407798D01*
X210189Y407640D01*
X210837Y407518D01*
X211532Y407430D01*
X212274Y407378D01*
X213063Y407360D01*
Y400360D01*
X212274Y400342D01*
X210837Y400202D01*
X210189Y400080D01*
X209588Y399922D01*
X209034Y399730D01*
X208526Y399502D01*
X208066Y399240D01*
X207653Y398942D01*
X207286Y398610D01*
Y409110D01*
X207653Y408778D01*
D02*
G37*
G36*
X131453D02*
X131866Y408480D01*
X132326Y408218D01*
X132834Y407990D01*
X133388Y407798D01*
X133989Y407640D01*
X134637Y407518D01*
X135332Y407430D01*
X136074Y407378D01*
X136863Y407360D01*
Y400360D01*
X136074Y400342D01*
X134637Y400202D01*
X133989Y400080D01*
X133388Y399922D01*
X132834Y399730D01*
X132326Y399502D01*
X131866Y399240D01*
X131453Y398942D01*
X131086Y398610D01*
Y409110D01*
X131453Y408778D01*
D02*
G37*
G36*
X145774Y398610D02*
X145407Y398942D01*
X144994Y399240D01*
X144534Y399502D01*
X144026Y399730D01*
X143472Y399922D01*
X142871Y400080D01*
X142223Y400202D01*
X141528Y400290D01*
X140786Y400342D01*
X139997Y400360D01*
Y407360D01*
X140786Y407378D01*
X142223Y407518D01*
X142871Y407640D01*
X143472Y407798D01*
X144026Y407990D01*
X144534Y408218D01*
X144994Y408480D01*
X145407Y408778D01*
X145774Y409110D01*
Y398610D01*
D02*
G37*
G36*
X255753Y284947D02*
X255820Y284233D01*
X255933Y283551D01*
X256090Y282901D01*
X256292Y282283D01*
X256540Y281698D01*
X256833Y281144D01*
X257170Y280623D01*
X257553Y280133D01*
X257980Y279676D01*
X247480D01*
X247908Y280133D01*
X248290Y280623D01*
X248627Y281144D01*
X248920Y281698D01*
X249167Y282283D01*
X249370Y282901D01*
X249527Y283551D01*
X249640Y284233D01*
X249708Y284947D01*
X249730Y285694D01*
X255730D01*
X255753Y284947D01*
D02*
G37*
G36*
X234851Y326959D02*
X234926Y326343D01*
X235056Y325736D01*
X235241Y325137D01*
X235480Y324548D01*
X235774Y323968D01*
X236122Y323397D01*
X236525Y322835D01*
X236982Y322282D01*
X237494Y321739D01*
X233251Y317496D01*
X232708Y318008D01*
X232155Y318465D01*
X231593Y318868D01*
X231022Y319216D01*
X230442Y319510D01*
X229853Y319749D01*
X229254Y319934D01*
X228647Y320064D01*
X228031Y320139D01*
X227405Y320160D01*
X234830Y327585D01*
X234851Y326959D01*
D02*
G37*
G36*
X103865Y237924D02*
X103970Y236728D01*
X104145Y235674D01*
X104390Y234760D01*
X104705Y233987D01*
X105090Y233354D01*
X105545Y232862D01*
X106070Y232510D01*
X106665Y232299D01*
X107330Y232229D01*
X93330D01*
X93995Y232299D01*
X94590Y232510D01*
X95115Y232862D01*
X95570Y233354D01*
X95955Y233987D01*
X96270Y234760D01*
X96515Y235674D01*
X96690Y236728D01*
X96795Y237924D01*
X96830Y239259D01*
X103830D01*
X103865Y237924D01*
D02*
G37*
G36*
X107839Y333995D02*
X108050Y333400D01*
X108402Y332875D01*
X108894Y332420D01*
X109527Y332035D01*
X110300Y331720D01*
X111214Y331475D01*
X112268Y331300D01*
X113464Y331195D01*
X114707Y331162D01*
X115386Y331177D01*
X116823Y331317D01*
X117471Y331440D01*
X118072Y331598D01*
X118626Y331790D01*
X119134Y332018D01*
X119594Y332280D01*
X120007Y332578D01*
X120374Y332910D01*
Y322410D01*
X120007Y322743D01*
X119594Y323040D01*
X119134Y323302D01*
X118626Y323530D01*
X118072Y323722D01*
X117471Y323880D01*
X116823Y324002D01*
X116128Y324090D01*
X115386Y324142D01*
X114707Y324157D01*
X113464Y324125D01*
X112268Y324020D01*
X111214Y323845D01*
X110300Y323600D01*
X109527Y323285D01*
X108894Y322900D01*
X108402Y322445D01*
X108050Y321920D01*
X107839Y321325D01*
X107769Y320660D01*
Y334660D01*
X107839Y333995D01*
D02*
G37*
G36*
X106665Y320121D02*
X106070Y319911D01*
X105545Y319561D01*
X105090Y319070D01*
X104705Y318440D01*
X104390Y317670D01*
X104145Y316761D01*
X103970Y315711D01*
X103865Y314520D01*
X103830Y313190D01*
X96830D01*
X96795Y314520D01*
X96690Y315711D01*
X96515Y316761D01*
X96270Y317670D01*
X95955Y318440D01*
X95570Y319070D01*
X95115Y319561D01*
X94590Y319911D01*
X93995Y320121D01*
X93330Y320191D01*
X107330D01*
X106665Y320121D01*
D02*
G37*
G36*
X196574Y322410D02*
X196207Y322743D01*
X195794Y323040D01*
X195334Y323302D01*
X194826Y323530D01*
X194272Y323722D01*
X193671Y323880D01*
X193023Y324002D01*
X192328Y324090D01*
X191586Y324142D01*
X190797Y324160D01*
Y331160D01*
X191586Y331177D01*
X193023Y331317D01*
X193671Y331440D01*
X194272Y331598D01*
X194826Y331790D01*
X195334Y332018D01*
X195794Y332280D01*
X196207Y332578D01*
X196574Y332910D01*
Y322410D01*
D02*
G37*
G36*
X182253Y332578D02*
X182666Y332280D01*
X183126Y332018D01*
X183634Y331790D01*
X184188Y331598D01*
X184789Y331440D01*
X185437Y331317D01*
X186132Y331230D01*
X186874Y331177D01*
X187663Y331160D01*
Y324160D01*
X186874Y324142D01*
X185437Y324002D01*
X184789Y323880D01*
X184188Y323722D01*
X183634Y323530D01*
X183126Y323302D01*
X182666Y323040D01*
X182253Y322743D01*
X181886Y322410D01*
Y332910D01*
X182253Y332578D01*
D02*
G37*
G36*
X206752Y321847D02*
X206370Y321357D01*
X206033Y320836D01*
X205740Y320283D01*
X205492Y319697D01*
X205290Y319079D01*
X205133Y318429D01*
X205020Y317747D01*
X204953Y317033D01*
X204930Y316286D01*
X198930D01*
X198908Y317033D01*
X198840Y317747D01*
X198727Y318429D01*
X198570Y319079D01*
X198368Y319697D01*
X198120Y320283D01*
X197827Y320836D01*
X197490Y321357D01*
X197108Y321847D01*
X196680Y322304D01*
X207180D01*
X206752Y321847D01*
D02*
G37*
G36*
X204960Y286644D02*
X205050Y285618D01*
X205200Y284714D01*
X205410Y283930D01*
X205680Y283267D01*
X206010Y282724D01*
X206400Y282302D01*
X206850Y282000D01*
X207360Y281819D01*
X207930Y281759D01*
X195930D01*
X196500Y281819D01*
X197010Y282000D01*
X197460Y282302D01*
X197850Y282724D01*
X198180Y283267D01*
X198450Y283930D01*
X198660Y284714D01*
X198810Y285618D01*
X198900Y286644D01*
X198930Y287789D01*
X204930D01*
X204960Y286644D01*
D02*
G37*
G36*
X100300Y31964D02*
X100450Y30259D01*
X100700Y28754D01*
X101050Y27450D01*
X101500Y26347D01*
X102050Y25444D01*
X102700Y24742D01*
X103450Y24240D01*
X104300Y23939D01*
X105250Y23839D01*
X85250D01*
X86200Y23939D01*
X87050Y24240D01*
X87800Y24742D01*
X88450Y25444D01*
X89000Y26347D01*
X89450Y27450D01*
X89800Y28754D01*
X90050Y30259D01*
X90200Y31964D01*
X90250Y33870D01*
X100250D01*
X100300Y31964D01*
D02*
G37*
G36*
X105580Y409216D02*
X95080D01*
X95127Y409308D01*
X95170Y409484D01*
X95208Y409745D01*
X95267Y410522D01*
X95328Y413095D01*
X95330Y413950D01*
X105330D01*
X105580Y409216D01*
D02*
G37*
G36*
X105983Y434740D02*
X105846Y434440D01*
X105725Y434058D01*
X105620Y433594D01*
X105532Y433048D01*
X105403Y431709D01*
X105338Y430041D01*
X105330Y429084D01*
X95330Y428398D01*
X95319Y429349D01*
X95158Y431722D01*
X95061Y432353D01*
X94943Y432903D01*
X94803Y433373D01*
X94642Y433762D01*
X94459Y434071D01*
X94255Y434300D01*
X106137Y434958D01*
X105983Y434740D01*
D02*
G37*
G36*
X95940Y397779D02*
X91715Y397590D01*
X89323Y407590D01*
X90176Y407595D01*
X93210Y407783D01*
X93571Y407853D01*
X93850Y407934D01*
X94047Y408025D01*
X94162Y408127D01*
X95940Y397779D01*
D02*
G37*
G36*
X231320Y136485D02*
X231619Y135810D01*
X232120Y135215D01*
X232819Y134699D01*
X233720Y134262D01*
X234820Y133905D01*
X236119Y133627D01*
X237619Y133429D01*
X239319Y133310D01*
X241220Y133270D01*
Y123270D01*
X239319Y123230D01*
X236119Y122913D01*
X234820Y122635D01*
X233720Y122278D01*
X232819Y121841D01*
X232120Y121325D01*
X231619Y120730D01*
X231320Y120055D01*
X231220Y119300D01*
X230465Y119200D01*
X229790Y118900D01*
X229195Y118400D01*
X228679Y117701D01*
X228242Y116800D01*
X227885Y115701D01*
X227607Y114401D01*
X227409Y112900D01*
X227290Y111201D01*
X227250Y109300D01*
X217250D01*
X217210Y111201D01*
X216893Y114401D01*
X216615Y115701D01*
X216258Y116800D01*
X215821Y117701D01*
X215305Y118400D01*
X214709Y118900D01*
X214035Y119200D01*
X213281Y119300D01*
X231220D01*
Y137240D01*
X231320Y136485D01*
D02*
G37*
G36*
X424460Y124390D02*
X424233Y124571D01*
X423926Y124732D01*
X423537Y124874D01*
X423068Y124998D01*
X422518Y125103D01*
X421888Y125188D01*
X420383Y125302D01*
X418556Y125340D01*
Y135340D01*
X419510Y135350D01*
X422518Y135577D01*
X423068Y135682D01*
X423537Y135806D01*
X423926Y135948D01*
X424233Y136110D01*
X424460Y136290D01*
Y124390D01*
D02*
G37*
G36*
X356195Y211910D02*
X355521Y211611D01*
X354925Y211110D01*
X354409Y210410D01*
X353972Y209510D01*
X353615Y208410D01*
X353337Y207111D01*
X353139Y205611D01*
X353020Y203911D01*
X352980Y202010D01*
X342980D01*
X342940Y203911D01*
X342623Y207111D01*
X342345Y208410D01*
X341988Y209510D01*
X341551Y210410D01*
X341035Y211110D01*
X340439Y211611D01*
X339765Y211910D01*
X339011Y212010D01*
X356950D01*
X356195Y211910D01*
D02*
G37*
G36*
X353020Y199949D02*
X353337Y196749D01*
X353615Y195450D01*
X353972Y194349D01*
X354409Y193449D01*
X354925Y192750D01*
X355521Y192250D01*
X356195Y191950D01*
X356950Y191849D01*
X339011D01*
X339765Y191950D01*
X340439Y192250D01*
X341035Y192750D01*
X341551Y193449D01*
X341988Y194349D01*
X342345Y195450D01*
X342623Y196749D01*
X342821Y198249D01*
X342940Y199949D01*
X342980Y201849D01*
X352980D01*
X353020Y199949D01*
D02*
G37*
G36*
X354423Y173911D02*
X353588Y174419D01*
X352624Y174657D01*
X351532Y174626D01*
X350310Y174324D01*
X348961Y173752D01*
X347482Y172910D01*
X345875Y171797D01*
X344139Y170415D01*
X342274Y168762D01*
X340280Y166839D01*
X331939Y172640D01*
X333977Y174748D01*
X337164Y178501D01*
X338314Y180147D01*
X339169Y181638D01*
X339729Y182975D01*
X339992Y184158D01*
X339961Y185187D01*
X339633Y186062D01*
X339011Y186783D01*
X354423Y173911D01*
D02*
G37*
G36*
X283303Y147240D02*
X282411Y147692D01*
X281402Y147886D01*
X280278Y147822D01*
X279038Y147501D01*
X277682Y146923D01*
X276210Y146087D01*
X274621Y144994D01*
X272917Y143643D01*
X271097Y142035D01*
X269160Y140169D01*
X259549Y144700D01*
X261644Y146865D01*
X264907Y150695D01*
X266077Y152359D01*
X266938Y153857D01*
X267491Y155188D01*
X267736Y156352D01*
X267672Y157349D01*
X267300Y158179D01*
X266621Y158843D01*
X283303Y147240D01*
D02*
G37*
G36*
X294559Y156290D02*
X292656Y156240D01*
X290952Y156090D01*
X289449Y155840D01*
X288145Y155490D01*
X287042Y155040D01*
X286139Y154490D01*
X285436Y153840D01*
X284934Y153090D01*
X284631Y152240D01*
X284529Y151290D01*
X284559Y165180D01*
X294559Y166290D01*
Y156290D01*
D02*
G37*
G36*
X59619Y340750D02*
X59847Y337742D01*
X59952Y337192D01*
X60075Y336723D01*
X60218Y336334D01*
X60380Y336027D01*
X60560Y335800D01*
X54610Y329730D01*
X60560Y323660D01*
X60380Y323433D01*
X60218Y323126D01*
X60075Y322737D01*
X59952Y322268D01*
X59847Y321718D01*
X59619Y318710D01*
X59610Y317756D01*
X49610D01*
X49572Y319583D01*
X49458Y321087D01*
X49373Y321718D01*
X49268Y322268D01*
X49145Y322737D01*
X49002Y323126D01*
X48840Y323433D01*
X48660Y323660D01*
X54610Y329730D01*
X48660Y335800D01*
X48840Y336027D01*
X49002Y336334D01*
X49145Y336723D01*
X49268Y337192D01*
X49373Y337742D01*
X49458Y338372D01*
X49572Y339877D01*
X49610Y341704D01*
X59610D01*
X59619Y340750D01*
D02*
G37*
G36*
X101520Y96404D02*
X101527Y95444D01*
X101770Y91901D01*
X101833Y91585D01*
X102081Y91547D01*
X103226Y91443D01*
X105596Y91365D01*
X106559Y91360D01*
X108458Y81360D01*
X107509Y81348D01*
X105148Y81161D01*
X104523Y81048D01*
X103979Y80911D01*
X103515Y80749D01*
X103133Y80562D01*
X102831Y80351D01*
X102611Y80114D01*
X101013Y90687D01*
X90368Y91693D01*
X90587Y91920D01*
X90782Y92228D01*
X90955Y92615D01*
X91105Y93083D01*
X91232Y93632D01*
X91336Y94261D01*
X91474Y95759D01*
X91520Y97580D01*
X101520Y96404D01*
D02*
G37*
G36*
X157480Y86680D02*
X150877Y80208D01*
X150650Y80427D01*
X150342Y80623D01*
X149955Y80795D01*
X149487Y80945D01*
X148938Y81072D01*
X148309Y81176D01*
X145941Y81348D01*
X144990Y81360D01*
X146166Y91360D01*
X148794Y91423D01*
X150128Y91534D01*
X150669Y91610D01*
X151126Y91700D01*
X151500Y91805D01*
X151790Y91923D01*
X151997Y92055D01*
X157480Y86680D01*
D02*
G37*
G36*
X101325Y78700D02*
X101121Y78471D01*
X100938Y78162D01*
X100777Y77773D01*
X100637Y77303D01*
X100519Y76753D01*
X100422Y76122D01*
X100293Y74621D01*
X100250Y72798D01*
X90250Y73484D01*
X90242Y74441D01*
X90048Y77448D01*
X89960Y77994D01*
X89855Y78458D01*
X89734Y78840D01*
X89597Y79140D01*
X89444Y79358D01*
X101325Y78700D01*
D02*
G37*
G36*
X163170Y91923D02*
X163460Y91805D01*
X163834Y91700D01*
X164291Y91610D01*
X164832Y91534D01*
X166166Y91423D01*
X168794Y91360D01*
X169970Y81360D01*
X169020Y81348D01*
X166651Y81176D01*
X166022Y81072D01*
X165473Y80945D01*
X165005Y80795D01*
X164618Y80623D01*
X164310Y80427D01*
X164083Y80208D01*
X157480Y86680D01*
X162963Y92055D01*
X163170Y91923D01*
D02*
G37*
G36*
X227350Y99460D02*
X227650Y97760D01*
X228150Y96260D01*
X228850Y94960D01*
X229750Y93860D01*
X230850Y92960D01*
X232150Y92260D01*
X233650Y91760D01*
X235350Y91460D01*
X237250Y91360D01*
X222250Y81360D01*
X207250Y91360D01*
X209150Y91460D01*
X210850Y91760D01*
X212350Y92260D01*
X213650Y92960D01*
X214750Y93860D01*
X215650Y94960D01*
X216350Y96260D01*
X216850Y97760D01*
X217150Y99460D01*
X217250Y101360D01*
X227250D01*
X227350Y99460D01*
D02*
G37*
G36*
X316020Y232529D02*
X316681Y231987D01*
X317356Y231510D01*
X318046Y231097D01*
X318751Y230749D01*
X319470Y230466D01*
X320203Y230247D01*
X320951Y230093D01*
X321713Y230004D01*
X322490Y229980D01*
X313580Y221070D01*
X313556Y221847D01*
X313467Y222609D01*
X313313Y223357D01*
X313094Y224090D01*
X312811Y224809D01*
X312463Y225514D01*
X312050Y226204D01*
X311573Y226879D01*
X311031Y227540D01*
X310424Y228186D01*
X315373Y233136D01*
X316020Y232529D01*
D02*
G37*
G36*
X172387Y254455D02*
X172654Y254295D01*
X172976Y254153D01*
X173351Y254030D01*
X173781Y253926D01*
X174266Y253841D01*
X175398Y253728D01*
X176046Y253699D01*
X176748Y253690D01*
Y246690D01*
X176046Y246681D01*
X174266Y246539D01*
X173781Y246454D01*
X173351Y246350D01*
X172976Y246227D01*
X172654Y246085D01*
X172387Y245925D01*
X172175Y245745D01*
Y254635D01*
X172387Y254455D01*
D02*
G37*
G36*
X154648Y235134D02*
X154788Y233697D01*
X154910Y233049D01*
X155068Y232448D01*
X155260Y231894D01*
X155487Y231387D01*
X155750Y230926D01*
X156047Y230513D01*
X156380Y230146D01*
X145880D01*
X146213Y230513D01*
X146510Y230926D01*
X146772Y231387D01*
X147000Y231894D01*
X147192Y232448D01*
X147350Y233049D01*
X147472Y233697D01*
X147560Y234392D01*
X147612Y235134D01*
X147630Y235923D01*
X154630D01*
X154648Y235134D01*
D02*
G37*
G36*
X156047Y321937D02*
X155750Y321524D01*
X155487Y321064D01*
X155260Y320556D01*
X155068Y320002D01*
X154910Y319401D01*
X154788Y318753D01*
X154700Y318058D01*
X154648Y317316D01*
X154630Y316527D01*
X147630D01*
X147612Y317316D01*
X147472Y318753D01*
X147350Y319401D01*
X147192Y320002D01*
X147000Y320556D01*
X146772Y321064D01*
X146510Y321524D01*
X146213Y321937D01*
X145880Y322304D01*
X156380D01*
X156047Y321937D01*
D02*
G37*
D12*
X306070Y11900D02*
X332270Y38100D01*
X396240D01*
X440690Y-6350D01*
X549910D01*
X635000Y78740D01*
D13*
X365760Y59690D02*
X375450Y69380D01*
X232410Y59690D02*
X365760D01*
X157480Y-15240D02*
X232410Y59690D01*
X386550Y274320D02*
X430530Y230340D01*
X333210Y327660D02*
X386550Y274320D01*
X387350D01*
X386080D02*
X386550D01*
X387350D02*
Y321780D01*
X54610Y378460D02*
X78740Y402590D01*
X54610Y222250D02*
Y378460D01*
Y222250D02*
X96520Y180340D01*
X68580Y-15240D02*
X157480D01*
X43180Y10160D02*
X68580Y-15240D01*
X375450Y69380D02*
X469900D01*
X507060Y180810D02*
Y185090D01*
Y48120D02*
Y180810D01*
X45720Y10160D02*
Y36830D01*
X43180Y11430D02*
X44450D01*
X45720Y10160D01*
X96520Y86360D02*
X241300D01*
X222250D02*
Y128270D01*
X96520Y86360D02*
Y180340D01*
X95250Y83820D02*
X96120Y84690D01*
X250190Y128270D02*
X283210Y161290D01*
X241300Y86360D02*
X285280Y130340D01*
X430530D01*
X347980Y182880D02*
X349250Y181610D01*
X327660Y161290D02*
X346710Y180340D01*
X283210Y161290D02*
X327660D01*
X222250Y128270D02*
X250190D01*
X347980Y182880D02*
Y220980D01*
X-3810Y86360D02*
X45720Y36830D01*
X-10160Y124460D02*
X-3810Y118110D01*
Y86360D02*
Y118110D01*
X-10160Y124460D02*
Y148590D01*
X252730Y327660D02*
X333210D01*
X100330Y405130D02*
X102870Y402590D01*
X78740D02*
X102870D01*
X100330Y405130D02*
Y440690D01*
X95250Y11900D02*
Y83820D01*
X430530Y153670D02*
Y173990D01*
Y153670D02*
X469900Y114300D01*
Y69380D02*
Y114300D01*
X430530Y173990D02*
X458470Y146050D01*
X476250D01*
X690880Y80010D02*
X734060D01*
X669290Y-3810D02*
X690880Y17780D01*
Y80010D02*
Y80810D01*
Y17780D02*
Y80010D01*
X648970Y156210D02*
X690880Y114300D01*
Y80810D02*
Y114300D01*
X734060Y80010D02*
X779780Y125730D01*
Y182080D01*
X506730Y325120D02*
X528320Y346710D01*
X657860Y217170D01*
X528320Y346710D02*
Y396240D01*
X657860Y217170D02*
X694690D01*
X708660Y203200D01*
X507060Y180810D02*
X690880D01*
X648970Y156210D02*
X699770D01*
X708660Y165100D01*
Y203200D01*
X430530Y173990D02*
Y230340D01*
X497040Y38100D02*
X507060Y48120D01*
X468630Y223520D02*
X507060Y185090D01*
X468630Y325120D02*
X506730D01*
D14*
X93980Y86360D02*
X96520D01*
X100330Y327660D02*
X125730D01*
X100330Y224790D02*
Y326390D01*
X151130Y224790D02*
Y327660D01*
X176530D02*
X201930D01*
Y403860D02*
X226060D01*
X125730D02*
X151130D01*
X125730Y148590D02*
Y223520D01*
X293370Y250190D02*
X322580Y220980D01*
X167640Y250190D02*
X293370D01*
D15*
X252730Y274320D02*
Y302260D01*
X227330Y327660D02*
X252730Y302260D01*
X201930Y274320D02*
Y326390D01*
X203200Y327660D01*
X635000Y78740D02*
Y143510D01*
D17*
X-31750Y-38100D02*
X918250D01*
X-31750D02*
Y461900D01*
X918250Y-38100D02*
Y461900D01*
X-31750D02*
X918250D01*
D18*
X0Y0D02*
D03*
D19*
X95250Y11900D02*
D03*
X356870D02*
D03*
X528320Y396240D02*
D03*
D20*
X44450Y11900D02*
D03*
X306070D02*
D03*
X579120Y396240D02*
D03*
X859790Y110490D02*
D03*
D21*
X-10160Y123190D02*
D03*
Y148590D02*
D03*
Y173990D02*
D03*
Y199390D02*
D03*
Y224790D02*
D03*
Y250190D02*
D03*
Y275590D02*
D03*
X196850Y128270D02*
D03*
X250190Y156210D02*
D03*
X322580Y220980D02*
D03*
Y182880D02*
D03*
D22*
X-10160Y300990D02*
D03*
D23*
X222250Y128270D02*
D03*
X275590Y156210D02*
D03*
X347980Y220980D02*
D03*
Y182880D02*
D03*
D24*
X151130Y224790D02*
D03*
X125730D02*
D03*
X252730Y274320D02*
D03*
X227330D02*
D03*
D25*
X100330Y224790D02*
D03*
X201930Y274320D02*
D03*
D26*
X252730Y403860D02*
D03*
X227330D02*
D03*
X201930D02*
D03*
X176530D02*
D03*
X151130D02*
D03*
X125730D02*
D03*
X100330D02*
D03*
X252730Y327660D02*
D03*
X227330D02*
D03*
X201930D02*
D03*
X176530D02*
D03*
X151130D02*
D03*
X125730D02*
D03*
D27*
X100330D02*
D03*
D28*
X859790Y161290D02*
D03*
D29*
X54610Y429730D02*
D03*
Y329730D02*
D03*
X387350Y321780D02*
D03*
Y221780D02*
D03*
X199860Y440690D02*
D03*
X99860D02*
D03*
X668020Y-4280D02*
D03*
Y95720D02*
D03*
X263690Y83820D02*
D03*
X363690D02*
D03*
X397040Y38100D02*
D03*
X497040D02*
D03*
X-4280Y85090D02*
D03*
X95720D02*
D03*
X469900Y69380D02*
D03*
Y169380D02*
D03*
X430530Y230340D02*
D03*
Y130340D02*
D03*
X467360Y324320D02*
D03*
Y224320D02*
D03*
X690880Y80810D02*
D03*
Y180810D02*
D03*
X657860Y217640D02*
D03*
Y117640D02*
D03*
X157480Y85560D02*
D03*
Y-14440D02*
D03*
X735330Y182080D02*
D03*
Y82080D02*
D03*
X779780D02*
D03*
Y182080D02*
D03*
X760260Y271780D02*
D03*
X860260D02*
D03*
X760260Y231140D02*
D03*
X860260D02*
D03*
X760260Y-5080D02*
D03*
X860260D02*
D03*
X760260Y35560D02*
D03*
X860260D02*
D03*
X630390Y20320D02*
D03*
X530390D02*
D03*
X641820Y275590D02*
D03*
X541820D02*
D03*
D30*
X125730Y148590D02*
D03*
X476250Y146050D02*
D03*
X635000Y143510D02*
D03*
X648970Y156210D02*
D03*
X167640Y250190D02*
D03*
M02*
