G04 Layer_Color=2752767*
%FSLAX44Y44*%
%MOMM*%
G71*
G01*
G75*
%ADD17C,0.3000*%
%ADD53C,0.0508*%
%ADD54C,0.0677*%
D17*
X-31750Y-38100D02*
X918250D01*
X-31750D02*
Y461900D01*
X918250Y-38100D02*
Y461900D01*
X-31750D02*
X918250D01*
D53*
X-2032Y-2032D02*
Y2032D01*
X2032D01*
Y-2032D01*
X-2032D01*
X-10160Y121158D02*
X-12192Y125222D01*
X-8128D01*
X-10160Y121158D01*
Y146558D02*
X-12192Y150622D01*
X-8128D01*
X-10160Y146558D01*
Y171958D02*
X-12192Y176022D01*
X-8128D01*
X-10160Y171958D01*
Y197358D02*
X-12192Y201422D01*
X-8128D01*
X-10160Y197358D01*
Y222758D02*
X-12192Y226822D01*
X-8128D01*
X-10160Y222758D01*
Y248158D02*
X-12192Y252222D01*
X-8128D01*
X-10160Y248158D01*
Y273558D02*
X-12192Y277622D01*
X-8128D01*
X-10160Y273558D01*
Y298958D02*
X-12192Y303022D01*
X-8128D01*
X-10160Y298958D01*
X222250Y126238D02*
X220218Y130302D01*
X224282D01*
X222250Y126238D01*
X196850D02*
X194818Y130302D01*
X198882D01*
X196850Y126238D01*
X275590Y154178D02*
X273558Y158242D01*
X277622D01*
X275590Y154178D01*
X250190D02*
X248158Y158242D01*
X252222D01*
X250190Y154178D01*
X347980Y218948D02*
X345948Y223012D01*
X350012D01*
X347980Y218948D01*
X322580D02*
X320548Y223012D01*
X324612D01*
X322580Y218948D01*
X347980Y180848D02*
X345948Y184912D01*
X350012D01*
X347980Y180848D01*
X322580D02*
X320548Y184912D01*
X324612D01*
X322580Y180848D01*
X151130Y222758D02*
X152146Y223774D01*
X153162D01*
X152146Y224790D01*
X153162Y225806D01*
X152146D01*
X151130Y226822D01*
X150114Y225806D01*
X149098D01*
X150114Y224790D01*
X149098Y223774D01*
X150114D01*
X151130Y222758D01*
X100330D02*
X101346Y223774D01*
X102362D01*
X101346Y224790D01*
X102362Y225806D01*
X101346D01*
X100330Y226822D01*
X99314Y225806D01*
X98298D01*
X99314Y224790D01*
X98298Y223774D01*
X99314D01*
X100330Y222758D01*
X125730D02*
X126746Y223774D01*
X127762D01*
X126746Y224790D01*
X127762Y225806D01*
X126746D01*
X125730Y226822D01*
X124714Y225806D01*
X123698D01*
X124714Y224790D01*
X123698Y223774D01*
X124714D01*
X125730Y222758D01*
X252730Y401828D02*
X253746Y402844D01*
X254762D01*
X253746Y403860D01*
X254762Y404876D01*
X253746D01*
X252730Y405892D01*
X251714Y404876D01*
X250698D01*
X251714Y403860D01*
X250698Y402844D01*
X251714D01*
X252730Y401828D01*
X227330D02*
X228346Y402844D01*
X229362D01*
X228346Y403860D01*
X229362Y404876D01*
X228346D01*
X227330Y405892D01*
X226314Y404876D01*
X225298D01*
X226314Y403860D01*
X225298Y402844D01*
X226314D01*
X227330Y401828D01*
X201930D02*
X202946Y402844D01*
X203962D01*
X202946Y403860D01*
X203962Y404876D01*
X202946D01*
X201930Y405892D01*
X200914Y404876D01*
X199898D01*
X200914Y403860D01*
X199898Y402844D01*
X200914D01*
X201930Y401828D01*
X176530D02*
X177546Y402844D01*
X178562D01*
X177546Y403860D01*
X178562Y404876D01*
X177546D01*
X176530Y405892D01*
X175514Y404876D01*
X174498D01*
X175514Y403860D01*
X174498Y402844D01*
X175514D01*
X176530Y401828D01*
X151130D02*
X152146Y402844D01*
X153162D01*
X152146Y403860D01*
X153162Y404876D01*
X152146D01*
X151130Y405892D01*
X150114Y404876D01*
X149098D01*
X150114Y403860D01*
X149098Y402844D01*
X150114D01*
X151130Y401828D01*
X125730D02*
X126746Y402844D01*
X127762D01*
X126746Y403860D01*
X127762Y404876D01*
X126746D01*
X125730Y405892D01*
X124714Y404876D01*
X123698D01*
X124714Y403860D01*
X123698Y402844D01*
X124714D01*
X125730Y401828D01*
X100330D02*
X101346Y402844D01*
X102362D01*
X101346Y403860D01*
X102362Y404876D01*
X101346D01*
X100330Y405892D01*
X99314Y404876D01*
X98298D01*
X99314Y403860D01*
X98298Y402844D01*
X99314D01*
X100330Y401828D01*
X252730Y325628D02*
X253746Y326644D01*
X254762D01*
X253746Y327660D01*
X254762Y328676D01*
X253746D01*
X252730Y329692D01*
X251714Y328676D01*
X250698D01*
X251714Y327660D01*
X250698Y326644D01*
X251714D01*
X252730Y325628D01*
X227330D02*
X228346Y326644D01*
X229362D01*
X228346Y327660D01*
X229362Y328676D01*
X228346D01*
X227330Y329692D01*
X226314Y328676D01*
X225298D01*
X226314Y327660D01*
X225298Y326644D01*
X226314D01*
X227330Y325628D01*
X201930D02*
X202946Y326644D01*
X203962D01*
X202946Y327660D01*
X203962Y328676D01*
X202946D01*
X201930Y329692D01*
X200914Y328676D01*
X199898D01*
X200914Y327660D01*
X199898Y326644D01*
X200914D01*
X201930Y325628D01*
X176530D02*
X177546Y326644D01*
X178562D01*
X177546Y327660D01*
X178562Y328676D01*
X177546D01*
X176530Y329692D01*
X175514Y328676D01*
X174498D01*
X175514Y327660D01*
X174498Y326644D01*
X175514D01*
X176530Y325628D01*
X151130D02*
X152146Y326644D01*
X153162D01*
X152146Y327660D01*
X153162Y328676D01*
X152146D01*
X151130Y329692D01*
X150114Y328676D01*
X149098D01*
X150114Y327660D01*
X149098Y326644D01*
X150114D01*
X151130Y325628D01*
X125730D02*
X126746Y326644D01*
X127762D01*
X126746Y327660D01*
X127762Y328676D01*
X126746D01*
X125730Y329692D01*
X124714Y328676D01*
X123698D01*
X124714Y327660D01*
X123698Y326644D01*
X124714D01*
X125730Y325628D01*
X100330D02*
X101346Y326644D01*
X102362D01*
X101346Y327660D01*
X102362Y328676D01*
X101346D01*
X100330Y329692D01*
X99314Y328676D01*
X98298D01*
X99314Y327660D01*
X98298Y326644D01*
X99314D01*
X100330Y325628D01*
X252730Y272288D02*
X253746Y273304D01*
X254762D01*
X253746Y274320D01*
X254762Y275336D01*
X253746D01*
X252730Y276352D01*
X251714Y275336D01*
X250698D01*
X251714Y274320D01*
X250698Y273304D01*
X251714D01*
X252730Y272288D01*
X201930D02*
X202946Y273304D01*
X203962D01*
X202946Y274320D01*
X203962Y275336D01*
X202946D01*
X201930Y276352D01*
X200914Y275336D01*
X199898D01*
X200914Y274320D01*
X199898Y273304D01*
X200914D01*
X201930Y272288D01*
X227330D02*
X228346Y273304D01*
X229362D01*
X228346Y274320D01*
X229362Y275336D01*
X228346D01*
X227330Y276352D01*
X226314Y275336D01*
X225298D01*
X226314Y274320D01*
X225298Y273304D01*
X226314D01*
X227330Y272288D01*
X54610Y427698D02*
X55626Y428714D01*
X56642D01*
X55626Y429730D01*
X56642Y430746D01*
X55626D01*
X54610Y431762D01*
X53594Y430746D01*
X52578D01*
X53594Y429730D01*
X52578Y428714D01*
X53594D01*
X54610Y427698D01*
Y327698D02*
X55626Y328714D01*
X56642D01*
X55626Y329730D01*
X56642Y330746D01*
X55626D01*
X54610Y331762D01*
X53594Y330746D01*
X52578D01*
X53594Y329730D01*
X52578Y328714D01*
X53594D01*
X54610Y327698D01*
X387350Y319748D02*
X388366Y320764D01*
X389382D01*
X388366Y321780D01*
X389382Y322796D01*
X388366D01*
X387350Y323812D01*
X386334Y322796D01*
X385318D01*
X386334Y321780D01*
X385318Y320764D01*
X386334D01*
X387350Y319748D01*
Y219748D02*
X388366Y220764D01*
X389382D01*
X388366Y221780D01*
X389382Y222796D01*
X388366D01*
X387350Y223812D01*
X386334Y222796D01*
X385318D01*
X386334Y221780D01*
X385318Y220764D01*
X386334D01*
X387350Y219748D01*
X199860Y438658D02*
X200876Y439674D01*
X201892D01*
X200876Y440690D01*
X201892Y441706D01*
X200876D01*
X199860Y442722D01*
X198844Y441706D01*
X197828D01*
X198844Y440690D01*
X197828Y439674D01*
X198844D01*
X199860Y438658D01*
X99860D02*
X100876Y439674D01*
X101892D01*
X100876Y440690D01*
X101892Y441706D01*
X100876D01*
X99860Y442722D01*
X98844Y441706D01*
X97828D01*
X98844Y440690D01*
X97828Y439674D01*
X98844D01*
X99860Y438658D01*
X668020Y-6312D02*
X669036Y-5296D01*
X670052D01*
X669036Y-4280D01*
X670052Y-3264D01*
X669036D01*
X668020Y-2248D01*
X667004Y-3264D01*
X665988D01*
X667004Y-4280D01*
X665988Y-5296D01*
X667004D01*
X668020Y-6312D01*
Y93688D02*
X669036Y94704D01*
X670052D01*
X669036Y95720D01*
X670052Y96736D01*
X669036D01*
X668020Y97752D01*
X667004Y96736D01*
X665988D01*
X667004Y95720D01*
X665988Y94704D01*
X667004D01*
X668020Y93688D01*
X263690Y81788D02*
X264706Y82804D01*
X265722D01*
X264706Y83820D01*
X265722Y84836D01*
X264706D01*
X263690Y85852D01*
X262674Y84836D01*
X261658D01*
X262674Y83820D01*
X261658Y82804D01*
X262674D01*
X263690Y81788D01*
X363690D02*
X364706Y82804D01*
X365722D01*
X364706Y83820D01*
X365722Y84836D01*
X364706D01*
X363690Y85852D01*
X362674Y84836D01*
X361658D01*
X362674Y83820D01*
X361658Y82804D01*
X362674D01*
X363690Y81788D01*
X397040Y36068D02*
X398056Y37084D01*
X399072D01*
X398056Y38100D01*
X399072Y39116D01*
X398056D01*
X397040Y40132D01*
X396024Y39116D01*
X395008D01*
X396024Y38100D01*
X395008Y37084D01*
X396024D01*
X397040Y36068D01*
X497040D02*
X498056Y37084D01*
X499072D01*
X498056Y38100D01*
X499072Y39116D01*
X498056D01*
X497040Y40132D01*
X496024Y39116D01*
X495008D01*
X496024Y38100D01*
X495008Y37084D01*
X496024D01*
X497040Y36068D01*
X-4280Y83058D02*
X-3264Y84074D01*
X-2248D01*
X-3264Y85090D01*
X-2248Y86106D01*
X-3264D01*
X-4280Y87122D01*
X-5296Y86106D01*
X-6312D01*
X-5296Y85090D01*
X-6312Y84074D01*
X-5296D01*
X-4280Y83058D01*
X95720D02*
X96736Y84074D01*
X97752D01*
X96736Y85090D01*
X97752Y86106D01*
X96736D01*
X95720Y87122D01*
X94704Y86106D01*
X93688D01*
X94704Y85090D01*
X93688Y84074D01*
X94704D01*
X95720Y83058D01*
X469900Y67348D02*
X470916Y68364D01*
X471932D01*
X470916Y69380D01*
X471932Y70396D01*
X470916D01*
X469900Y71412D01*
X468884Y70396D01*
X467868D01*
X468884Y69380D01*
X467868Y68364D01*
X468884D01*
X469900Y67348D01*
Y167348D02*
X470916Y168364D01*
X471932D01*
X470916Y169380D01*
X471932Y170396D01*
X470916D01*
X469900Y171412D01*
X468884Y170396D01*
X467868D01*
X468884Y169380D01*
X467868Y168364D01*
X468884D01*
X469900Y167348D01*
X430530Y228308D02*
X431546Y229324D01*
X432562D01*
X431546Y230340D01*
X432562Y231356D01*
X431546D01*
X430530Y232372D01*
X429514Y231356D01*
X428498D01*
X429514Y230340D01*
X428498Y229324D01*
X429514D01*
X430530Y228308D01*
Y128308D02*
X431546Y129324D01*
X432562D01*
X431546Y130340D01*
X432562Y131356D01*
X431546D01*
X430530Y132372D01*
X429514Y131356D01*
X428498D01*
X429514Y130340D01*
X428498Y129324D01*
X429514D01*
X430530Y128308D01*
X467360Y322288D02*
X468376Y323304D01*
X469392D01*
X468376Y324320D01*
X469392Y325336D01*
X468376D01*
X467360Y326352D01*
X466344Y325336D01*
X465328D01*
X466344Y324320D01*
X465328Y323304D01*
X466344D01*
X467360Y322288D01*
Y222288D02*
X468376Y223304D01*
X469392D01*
X468376Y224320D01*
X469392Y225336D01*
X468376D01*
X467360Y226352D01*
X466344Y225336D01*
X465328D01*
X466344Y224320D01*
X465328Y223304D01*
X466344D01*
X467360Y222288D01*
X690880Y78778D02*
X691896Y79794D01*
X692912D01*
X691896Y80810D01*
X692912Y81826D01*
X691896D01*
X690880Y82842D01*
X689864Y81826D01*
X688848D01*
X689864Y80810D01*
X688848Y79794D01*
X689864D01*
X690880Y78778D01*
Y178778D02*
X691896Y179794D01*
X692912D01*
X691896Y180810D01*
X692912Y181826D01*
X691896D01*
X690880Y182842D01*
X689864Y181826D01*
X688848D01*
X689864Y180810D01*
X688848Y179794D01*
X689864D01*
X690880Y178778D01*
X657860Y215608D02*
X658876Y216624D01*
X659892D01*
X658876Y217640D01*
X659892Y218656D01*
X658876D01*
X657860Y219672D01*
X656844Y218656D01*
X655828D01*
X656844Y217640D01*
X655828Y216624D01*
X656844D01*
X657860Y215608D01*
Y115608D02*
X658876Y116624D01*
X659892D01*
X658876Y117640D01*
X659892Y118656D01*
X658876D01*
X657860Y119672D01*
X656844Y118656D01*
X655828D01*
X656844Y117640D01*
X655828Y116624D01*
X656844D01*
X657860Y115608D01*
X157480Y83528D02*
X158496Y84544D01*
X159512D01*
X158496Y85560D01*
X159512Y86576D01*
X158496D01*
X157480Y87592D01*
X156464Y86576D01*
X155448D01*
X156464Y85560D01*
X155448Y84544D01*
X156464D01*
X157480Y83528D01*
Y-16472D02*
X158496Y-15456D01*
X159512D01*
X158496Y-14440D01*
X159512Y-13424D01*
X158496D01*
X157480Y-12408D01*
X156464Y-13424D01*
X155448D01*
X156464Y-14440D01*
X155448Y-15456D01*
X156464D01*
X157480Y-16472D01*
X735330Y180048D02*
X736346Y181064D01*
X737362D01*
X736346Y182080D01*
X737362Y183096D01*
X736346D01*
X735330Y184112D01*
X734314Y183096D01*
X733298D01*
X734314Y182080D01*
X733298Y181064D01*
X734314D01*
X735330Y180048D01*
Y80048D02*
X736346Y81064D01*
X737362D01*
X736346Y82080D01*
X737362Y83096D01*
X736346D01*
X735330Y84112D01*
X734314Y83096D01*
X733298D01*
X734314Y82080D01*
X733298Y81064D01*
X734314D01*
X735330Y80048D01*
X779780D02*
X780796Y81064D01*
X781812D01*
X780796Y82080D01*
X781812Y83096D01*
X780796D01*
X779780Y84112D01*
X778764Y83096D01*
X777748D01*
X778764Y82080D01*
X777748Y81064D01*
X778764D01*
X779780Y80048D01*
Y180048D02*
X780796Y181064D01*
X781812D01*
X780796Y182080D01*
X781812Y183096D01*
X780796D01*
X779780Y184112D01*
X778764Y183096D01*
X777748D01*
X778764Y182080D01*
X777748Y181064D01*
X778764D01*
X779780Y180048D01*
X760260Y269748D02*
X761276Y270764D01*
X762292D01*
X761276Y271780D01*
X762292Y272796D01*
X761276D01*
X760260Y273812D01*
X759244Y272796D01*
X758228D01*
X759244Y271780D01*
X758228Y270764D01*
X759244D01*
X760260Y269748D01*
X860260D02*
X861276Y270764D01*
X862292D01*
X861276Y271780D01*
X862292Y272796D01*
X861276D01*
X860260Y273812D01*
X859244Y272796D01*
X858228D01*
X859244Y271780D01*
X858228Y270764D01*
X859244D01*
X860260Y269748D01*
X760260Y229108D02*
X761276Y230124D01*
X762292D01*
X761276Y231140D01*
X762292Y232156D01*
X761276D01*
X760260Y233172D01*
X759244Y232156D01*
X758228D01*
X759244Y231140D01*
X758228Y230124D01*
X759244D01*
X760260Y229108D01*
X860260D02*
X861276Y230124D01*
X862292D01*
X861276Y231140D01*
X862292Y232156D01*
X861276D01*
X860260Y233172D01*
X859244Y232156D01*
X858228D01*
X859244Y231140D01*
X858228Y230124D01*
X859244D01*
X860260Y229108D01*
X760260Y-7112D02*
X761276Y-6096D01*
X762292D01*
X761276Y-5080D01*
X762292Y-4064D01*
X761276D01*
X760260Y-3048D01*
X759244Y-4064D01*
X758228D01*
X759244Y-5080D01*
X758228Y-6096D01*
X759244D01*
X760260Y-7112D01*
X860260D02*
X861276Y-6096D01*
X862292D01*
X861276Y-5080D01*
X862292Y-4064D01*
X861276D01*
X860260Y-3048D01*
X859244Y-4064D01*
X858228D01*
X859244Y-5080D01*
X858228Y-6096D01*
X859244D01*
X860260Y-7112D01*
X760260Y33528D02*
X761276Y34544D01*
X762292D01*
X761276Y35560D01*
X762292Y36576D01*
X761276D01*
X760260Y37592D01*
X759244Y36576D01*
X758228D01*
X759244Y35560D01*
X758228Y34544D01*
X759244D01*
X760260Y33528D01*
X860260D02*
X861276Y34544D01*
X862292D01*
X861276Y35560D01*
X862292Y36576D01*
X861276D01*
X860260Y37592D01*
X859244Y36576D01*
X858228D01*
X859244Y35560D01*
X858228Y34544D01*
X859244D01*
X860260Y33528D01*
X630390Y18288D02*
X631406Y19304D01*
X632422D01*
X631406Y20320D01*
X632422Y21336D01*
X631406D01*
X630390Y22352D01*
X629374Y21336D01*
X628358D01*
X629374Y20320D01*
X628358Y19304D01*
X629374D01*
X630390Y18288D01*
X530390D02*
X531406Y19304D01*
X532422D01*
X531406Y20320D01*
X532422Y21336D01*
X531406D01*
X530390Y22352D01*
X529374Y21336D01*
X528358D01*
X529374Y20320D01*
X528358Y19304D01*
X529374D01*
X530390Y18288D01*
X641820Y273558D02*
X642836Y274574D01*
X643852D01*
X642836Y275590D01*
X643852Y276606D01*
X642836D01*
X641820Y277622D01*
X640804Y276606D01*
X639788D01*
X640804Y275590D01*
X639788Y274574D01*
X640804D01*
X641820Y273558D01*
X541820D02*
X542836Y274574D01*
X543852D01*
X542836Y275590D01*
X543852Y276606D01*
X542836D01*
X541820Y277622D01*
X540804Y276606D01*
X539788D01*
X540804Y275590D01*
X539788Y274574D01*
X540804D01*
X541820Y273558D01*
X123698Y146558D02*
X124714Y148590D01*
X123698Y150622D01*
X125730Y149606D01*
X127762Y150622D01*
X126746Y148590D01*
X127762Y146558D01*
X125730Y147574D01*
X123698Y146558D01*
X474218Y144018D02*
X475234Y146050D01*
X474218Y148082D01*
X476250Y147066D01*
X478282Y148082D01*
X477266Y146050D01*
X478282Y144018D01*
X476250Y145034D01*
X474218Y144018D01*
X632968Y141478D02*
X633984Y143510D01*
X632968Y145542D01*
X635000Y144526D01*
X637032Y145542D01*
X636016Y143510D01*
X637032Y141478D01*
X635000Y142494D01*
X632968Y141478D01*
X646938Y154178D02*
X647954Y156210D01*
X646938Y158242D01*
X648970Y157226D01*
X651002Y158242D01*
X649986Y156210D01*
X651002Y154178D01*
X648970Y155194D01*
X646938Y154178D01*
X165608Y248158D02*
X166624Y250190D01*
X165608Y252222D01*
X167640Y251206D01*
X169672Y252222D01*
X168656Y250190D01*
X169672Y248158D01*
X167640Y249174D01*
X165608Y248158D01*
D54*
X97282Y11900D02*
G03*
X97282Y11900I-2032J0D01*
G01*
X46482D02*
G03*
X46482Y11900I-2032J0D01*
G01*
X358902D02*
G03*
X358902Y11900I-2032J0D01*
G01*
X308102D02*
G03*
X308102Y11900I-2032J0D01*
G01*
X530352Y396240D02*
G03*
X530352Y396240I-2032J0D01*
G01*
X581152D02*
G03*
X581152Y396240I-2032J0D01*
G01*
X861822Y110490D02*
G03*
X861822Y110490I-2032J0D01*
G01*
Y161290D02*
G03*
X861822Y161290I-2032J0D01*
G01*
M02*
