G04 Layer_Color=65535*
%FSLAX44Y44*%
%MOMM*%
G71*
G01*
G75*
%ADD17C,0.3000*%
%ADD31C,0.2000*%
%ADD32C,0.2500*%
%ADD33C,0.1524*%
%ADD34C,0.0500*%
%ADD35C,0.2540*%
%ADD36C,0.1500*%
%ADD37C,0.4000*%
D17*
X-31750Y-38100D02*
X918250D01*
X-31750D02*
Y461900D01*
X918250Y-38100D02*
Y461900D01*
X-31750D02*
X918250D01*
D31*
X75530Y359410D02*
G03*
X75530Y372110I0J6350D01*
G01*
X35390Y389992D02*
G03*
X74748Y390679I19284J22981D01*
G01*
X368130Y282042D02*
G03*
X407488Y282729I19284J22981D01*
G01*
X160122Y459910D02*
G03*
X160809Y420552I22981J-19284D01*
G01*
X687240Y35458D02*
G03*
X647882Y34771I-19284J-22981D01*
G01*
X303428Y64600D02*
G03*
X302741Y103958I-22981J19284D01*
G01*
X436778Y18880D02*
G03*
X436091Y58238I-22981J19284D01*
G01*
X35458Y65870D02*
G03*
X34771Y105228I-22981J19284D01*
G01*
X489120Y109118D02*
G03*
X449762Y108431I-19284J-22981D01*
G01*
X411310Y190602D02*
G03*
X450668Y191289I19284J22981D01*
G01*
X448140Y284582D02*
G03*
X487498Y285269I19284J22981D01*
G01*
X710100Y120548D02*
G03*
X670742Y119861I-19284J-22981D01*
G01*
X638640Y177902D02*
G03*
X677998Y178589I19284J22981D01*
G01*
X176700Y25298D02*
G03*
X137342Y24611I-19284J-22981D01*
G01*
X754550Y121818D02*
G03*
X715192Y121131I-19284J-22981D01*
G01*
X760560Y142342D02*
G03*
X799918Y143029I19284J22981D01*
G01*
X570128Y1100D02*
G03*
X569441Y40458I-22981J19284D01*
G01*
X581558Y256370D02*
G03*
X580871Y295728I-22981J19284D01*
G01*
X2540Y110490D02*
Y294640D01*
Y313690D01*
X-22860D02*
X2540D01*
X-22860Y110490D02*
Y313690D01*
Y110490D02*
X2540D01*
X184150Y115570D02*
Y140970D01*
X234950D01*
Y115570D02*
Y140970D01*
X184150Y115570D02*
X234950D01*
X237490Y143510D02*
Y168910D01*
X288290D01*
Y143510D02*
Y168910D01*
X237490Y143510D02*
X288290D01*
X309880Y208280D02*
Y233680D01*
X360680D01*
Y208280D02*
Y233680D01*
X309880Y208280D02*
X360680D01*
X309880Y170180D02*
Y195580D01*
X360680D01*
Y170180D02*
Y195580D01*
X309880Y170180D02*
X360680D01*
X163830Y212090D02*
Y237490D01*
X87630Y212090D02*
X163830D01*
X87630D02*
Y237490D01*
X163830D01*
X75530Y392260D02*
X277530D01*
X75530Y339260D02*
X277530D01*
Y392260D01*
X75530Y372110D02*
Y392260D01*
Y339260D02*
Y359410D01*
X265430Y261620D02*
Y287020D01*
X189230Y261620D02*
X265430D01*
X189230D02*
Y287020D01*
X265430D01*
X525530Y60360D02*
Y237960D01*
X589830Y60360D02*
Y237960D01*
X525530D02*
X589830D01*
X525530Y60360D02*
X589830D01*
X54610Y340980D02*
Y377230D01*
Y383230D02*
Y418230D01*
X34610Y377230D02*
X74610D01*
X387350Y233030D02*
Y269280D01*
Y275280D02*
Y310280D01*
X367350Y269280D02*
X407350D01*
X111110Y440690D02*
X147360D01*
X153360D02*
X188360D01*
X147360Y420690D02*
Y460690D01*
X668020Y48220D02*
Y84470D01*
Y7220D02*
Y42220D01*
X648020Y48220D02*
X688020D01*
X316190Y83820D02*
X352440D01*
X275190D02*
X310190D01*
X316190Y63820D02*
Y103820D01*
X449540Y38100D02*
X485790D01*
X408540D02*
X443540D01*
X449540Y18100D02*
Y58100D01*
X48220Y85090D02*
X84470D01*
X7220D02*
X42220D01*
X48220Y65090D02*
Y105090D01*
X469900Y121880D02*
Y158130D01*
Y80880D02*
Y115880D01*
X449900Y121880D02*
X489900D01*
X430530Y141590D02*
Y177840D01*
Y183840D02*
Y218840D01*
X410530Y177840D02*
X450530D01*
X467360Y235570D02*
Y271820D01*
Y277820D02*
Y312820D01*
X447360Y271820D02*
X487360D01*
X690880Y133310D02*
Y169560D01*
Y92310D02*
Y127310D01*
X670880Y133310D02*
X710880D01*
X657860Y128890D02*
Y165140D01*
Y171140D02*
Y206140D01*
X637860Y165140D02*
X677860D01*
X137480Y38060D02*
X177480D01*
X157480Y-2940D02*
Y32060D01*
Y38060D02*
Y74310D01*
X715330Y134580D02*
X755330D01*
X735330Y93580D02*
Y128580D01*
Y134580D02*
Y170830D01*
X759780Y129580D02*
X799780D01*
X779780Y135580D02*
Y170580D01*
Y93330D02*
Y129580D01*
X582890Y320D02*
Y40320D01*
X541890Y20320D02*
X576890D01*
X582890D02*
X619140D01*
X594320Y255590D02*
Y295590D01*
X553320Y275590D02*
X588320D01*
X594320D02*
X630570D01*
X18095Y412191D02*
X16428Y413857D01*
X13096D01*
X11430Y412191D01*
Y405526D01*
X13096Y403860D01*
X16428D01*
X18095Y405526D01*
X21427Y403860D02*
X24759D01*
X23093D01*
Y413857D01*
X21427Y412191D01*
X36422Y403860D02*
X29757D01*
X36422Y410524D01*
Y412191D01*
X34756Y413857D01*
X31424D01*
X29757Y412191D01*
X375600Y347294D02*
X373933Y348960D01*
X370601D01*
X368935Y347294D01*
Y340629D01*
X370601Y338963D01*
X373933D01*
X375600Y340629D01*
X378932Y338963D02*
X382264D01*
X380598D01*
Y348960D01*
X378932Y347294D01*
X387262Y338963D02*
X390595D01*
X388929D01*
Y348960D01*
X387262Y347294D01*
X230184Y449021D02*
X228518Y450687D01*
X225186D01*
X223520Y449021D01*
Y442356D01*
X225186Y440690D01*
X228518D01*
X230184Y442356D01*
X233517Y440690D02*
X236849D01*
X235183D01*
Y450687D01*
X233517Y449021D01*
X241847D02*
X243514Y450687D01*
X246846D01*
X248512Y449021D01*
Y442356D01*
X246846Y440690D01*
X243514D01*
X241847Y442356D01*
Y449021D01*
X695005Y711D02*
X693338Y2377D01*
X690006D01*
X688340Y711D01*
Y-5954D01*
X690006Y-7620D01*
X693338D01*
X695005Y-5954D01*
X705001Y2377D02*
X701669Y711D01*
X698337Y-2622D01*
Y-5954D01*
X700003Y-7620D01*
X703335D01*
X705001Y-5954D01*
Y-4288D01*
X703335Y-2622D01*
X698337D01*
X311465Y118821D02*
X309798Y120487D01*
X306466D01*
X304800Y118821D01*
Y112156D01*
X306466Y110490D01*
X309798D01*
X311465Y112156D01*
X321461Y120487D02*
X314797D01*
Y115488D01*
X318129Y117155D01*
X319795D01*
X321461Y115488D01*
Y112156D01*
X319795Y110490D01*
X316463D01*
X314797Y112156D01*
X496884Y14681D02*
X495218Y16347D01*
X491886D01*
X490220Y14681D01*
Y8016D01*
X491886Y6350D01*
X495218D01*
X496884Y8016D01*
X505215Y6350D02*
Y16347D01*
X500217Y11348D01*
X506881D01*
X86674Y109931D02*
X85008Y111597D01*
X81676D01*
X80010Y109931D01*
Y103266D01*
X81676Y101600D01*
X85008D01*
X86674Y103266D01*
X90007D02*
X91673Y101600D01*
X95005D01*
X96671Y103266D01*
Y109931D01*
X95005Y111597D01*
X91673D01*
X90007Y109931D01*
Y108265D01*
X91673Y106598D01*
X96671D01*
X463865Y193751D02*
X462198Y195417D01*
X458866D01*
X457200Y193751D01*
Y187086D01*
X458866Y185420D01*
X462198D01*
X463865Y187086D01*
X467197Y193751D02*
X468863Y195417D01*
X472195D01*
X473861Y193751D01*
Y192085D01*
X472195Y190418D01*
X473861Y188752D01*
Y187086D01*
X472195Y185420D01*
X468863D01*
X467197Y187086D01*
Y188752D01*
X468863Y190418D01*
X467197Y192085D01*
Y193751D01*
X468863Y190418D02*
X472195D01*
X423224Y255981D02*
X421558Y257647D01*
X418226D01*
X416560Y255981D01*
Y249316D01*
X418226Y247650D01*
X421558D01*
X423224Y249316D01*
X426557Y257647D02*
X433221D01*
Y255981D01*
X426557Y249316D01*
Y247650D01*
X455610Y349834D02*
X453943Y351500D01*
X450611D01*
X448945Y349834D01*
Y343169D01*
X450611Y341503D01*
X453943D01*
X455610Y343169D01*
X458942Y349834D02*
X460608Y351500D01*
X463940D01*
X465606Y349834D01*
Y348167D01*
X463940Y346501D01*
X462274D01*
X463940D01*
X465606Y344835D01*
Y343169D01*
X463940Y341503D01*
X460608D01*
X458942Y343169D01*
X684845Y207721D02*
X683178Y209387D01*
X679846D01*
X678180Y207721D01*
Y201056D01*
X679846Y199390D01*
X683178D01*
X684845Y201056D01*
X694841Y199390D02*
X688177D01*
X694841Y206054D01*
Y207721D01*
X693175Y209387D01*
X689843D01*
X688177Y207721D01*
X654364Y242011D02*
X652698Y243677D01*
X649366D01*
X647700Y242011D01*
Y235346D01*
X649366Y233680D01*
X652698D01*
X654364Y235346D01*
X657697Y233680D02*
X661029D01*
X659363D01*
Y243677D01*
X657697Y242011D01*
X140014Y113741D02*
X138348Y115407D01*
X135016D01*
X133350Y113741D01*
Y107076D01*
X135016Y105410D01*
X138348D01*
X140014Y107076D01*
X143347Y105410D02*
X146679D01*
X145013D01*
Y115407D01*
X143347Y113741D01*
X151677D02*
X153344Y115407D01*
X156676D01*
X158342Y113741D01*
Y112074D01*
X156676Y110408D01*
X155010D01*
X156676D01*
X158342Y108742D01*
Y107076D01*
X156676Y105410D01*
X153344D01*
X151677Y107076D01*
X721674Y208991D02*
X720008Y210657D01*
X716676D01*
X715010Y208991D01*
Y202326D01*
X716676Y200660D01*
X720008D01*
X721674Y202326D01*
X725007Y200660D02*
X728339D01*
X726673D01*
Y210657D01*
X725007Y208991D01*
X740002Y210657D02*
X736670Y208991D01*
X733337Y205658D01*
Y202326D01*
X735004Y200660D01*
X738336D01*
X740002Y202326D01*
Y203992D01*
X738336Y205658D01*
X733337D01*
X771205Y206451D02*
X769538Y208117D01*
X766206D01*
X764540Y206451D01*
Y199786D01*
X766206Y198120D01*
X769538D01*
X771205Y199786D01*
X774537Y198120D02*
X777869D01*
X776203D01*
Y208117D01*
X774537Y206451D01*
X782867Y208117D02*
X789532D01*
Y206451D01*
X782867Y199786D01*
Y198120D01*
X877570Y270510D02*
Y280507D01*
X882568D01*
X884234Y278841D01*
Y275508D01*
X882568Y273842D01*
X877570D01*
X880902D02*
X884234Y270510D01*
X887567D02*
X890899D01*
X889233D01*
Y280507D01*
X887567Y278841D01*
X875030Y223520D02*
Y233517D01*
X880028D01*
X881694Y231851D01*
Y228518D01*
X880028Y226852D01*
X875030D01*
X878362D02*
X881694Y223520D01*
X891691D02*
X885027D01*
X891691Y230184D01*
Y231851D01*
X890025Y233517D01*
X886693D01*
X885027Y231851D01*
X877570Y-11430D02*
Y-1433D01*
X882568D01*
X884234Y-3099D01*
Y-6432D01*
X882568Y-8098D01*
X877570D01*
X880902D02*
X884234Y-11430D01*
X887567Y-3099D02*
X889233Y-1433D01*
X892565D01*
X894231Y-3099D01*
Y-4766D01*
X892565Y-6432D01*
X890899D01*
X892565D01*
X894231Y-8098D01*
Y-9764D01*
X892565Y-11430D01*
X889233D01*
X887567Y-9764D01*
X876300Y27940D02*
Y37937D01*
X881298D01*
X882964Y36271D01*
Y32938D01*
X881298Y31272D01*
X876300D01*
X879632D02*
X882964Y27940D01*
X891295D02*
Y37937D01*
X886297Y32938D01*
X892961D01*
X609915Y305511D02*
X608248Y307177D01*
X604916D01*
X603250Y305511D01*
Y298846D01*
X604916Y297180D01*
X608248D01*
X609915Y298846D01*
X613247Y297180D02*
X616579D01*
X614913D01*
Y307177D01*
X613247Y305511D01*
X626576Y297180D02*
Y307177D01*
X621577Y302178D01*
X628242D01*
X599754Y-13259D02*
X598088Y-11593D01*
X594756D01*
X593090Y-13259D01*
Y-19924D01*
X594756Y-21590D01*
X598088D01*
X599754Y-19924D01*
X603087Y-21590D02*
X606419D01*
X604753D01*
Y-11593D01*
X603087Y-13259D01*
X618082Y-11593D02*
X611417D01*
Y-16592D01*
X614750Y-14926D01*
X616416D01*
X618082Y-16592D01*
Y-19924D01*
X616416Y-21590D01*
X613084D01*
X611417Y-19924D01*
X25400Y131376D02*
Y119380D01*
X31398D01*
X33397Y121379D01*
Y129377D01*
X31398Y131376D01*
X25400D01*
X45394Y129377D02*
X43394Y131376D01*
X39395D01*
X37396Y129377D01*
Y121379D01*
X39395Y119380D01*
X43394D01*
X45394Y121379D01*
Y125378D01*
X41395D01*
X49392Y119380D02*
Y131376D01*
X57390Y119380D01*
Y131376D01*
X61388D02*
Y119380D01*
X67386D01*
X69386Y121379D01*
Y129377D01*
X67386Y131376D01*
X61388D01*
X24130Y156776D02*
Y144780D01*
X30128D01*
X32127Y146779D01*
Y154777D01*
X30128Y156776D01*
X24130D01*
X44124Y154777D02*
X42124Y156776D01*
X38126D01*
X36126Y154777D01*
Y146779D01*
X38126Y144780D01*
X42124D01*
X44124Y146779D01*
Y150778D01*
X40125D01*
X48122Y144780D02*
Y156776D01*
X56120Y144780D01*
Y156776D01*
X60118D02*
Y144780D01*
X66116D01*
X68116Y146779D01*
Y154777D01*
X66116Y156776D01*
X60118D01*
X24130Y183446D02*
Y171450D01*
Y177448D01*
X32127D01*
Y183446D01*
Y171450D01*
X36126D02*
X40125D01*
X38126D01*
Y179447D01*
X36126D01*
X50122Y167451D02*
X52121D01*
X54120Y169451D01*
Y179447D01*
X48122D01*
X46123Y177448D01*
Y173449D01*
X48122Y171450D01*
X54120D01*
X58119Y183446D02*
Y171450D01*
Y177448D01*
X60118Y179447D01*
X64117D01*
X66116Y177448D01*
Y171450D01*
X70115Y183446D02*
X78113D01*
Y181447D01*
X70115Y173449D01*
Y171450D01*
X78113D01*
X82111Y183446D02*
Y171450D01*
X88109D01*
X90109Y173449D01*
Y175449D01*
X88109Y177448D01*
X82111D01*
X88109D01*
X90109Y179447D01*
Y181447D01*
X88109Y183446D01*
X82111D01*
X29587Y203037D02*
X27588Y205036D01*
X23589D01*
X21590Y203037D01*
Y201037D01*
X23589Y199038D01*
X27588D01*
X29587Y197039D01*
Y195039D01*
X27588Y193040D01*
X23589D01*
X21590Y195039D01*
X33586Y205036D02*
Y193040D01*
X39584D01*
X41583Y195039D01*
Y203037D01*
X39584Y205036D01*
X33586D01*
X45582D02*
Y193040D01*
X51580D01*
X53580Y195039D01*
Y203037D01*
X51580Y205036D01*
X45582D01*
X57578D02*
Y193040D01*
X63576D01*
X65576Y195039D01*
Y197039D01*
X63576Y199038D01*
X57578D01*
X63576D01*
X65576Y201037D01*
Y203037D01*
X63576Y205036D01*
X57578D01*
X24130Y230436D02*
X28129D01*
X26129D01*
Y218440D01*
X24130D01*
X28129D01*
X34127D02*
Y230436D01*
X42124Y218440D01*
Y230436D01*
X46123D02*
Y218440D01*
X52121D01*
X54120Y220439D01*
Y222439D01*
X52121Y224438D01*
X46123D01*
X52121D01*
X54120Y226437D01*
Y228437D01*
X52121Y230436D01*
X46123D01*
X24130Y259646D02*
Y247650D01*
Y253648D01*
X32127D01*
Y259646D01*
Y247650D01*
X36126D02*
X40125D01*
X38126D01*
Y255647D01*
X36126D01*
X50122Y243651D02*
X52121D01*
X54120Y245651D01*
Y255647D01*
X48122D01*
X46123Y253648D01*
Y249649D01*
X48122Y247650D01*
X54120D01*
X58119Y259646D02*
Y247650D01*
Y253648D01*
X60118Y255647D01*
X64117D01*
X66116Y253648D01*
Y247650D01*
X70115Y259646D02*
X78113D01*
Y257647D01*
X70115Y249649D01*
Y247650D01*
X78113D01*
X82111D02*
Y255647D01*
X86110Y259646D01*
X90109Y255647D01*
Y247650D01*
Y253648D01*
X82111D01*
X29587Y281777D02*
X27588Y283776D01*
X23589D01*
X21590Y281777D01*
Y279777D01*
X23589Y277778D01*
X27588D01*
X29587Y275779D01*
Y273779D01*
X27588Y271780D01*
X23589D01*
X21590Y273779D01*
X33586Y283776D02*
Y271780D01*
X39584D01*
X41583Y273779D01*
Y281777D01*
X39584Y283776D01*
X33586D01*
X45582D02*
Y271780D01*
X51580D01*
X53580Y273779D01*
Y281777D01*
X51580Y283776D01*
X45582D01*
X57578Y271780D02*
Y279777D01*
X61577Y283776D01*
X65576Y279777D01*
Y271780D01*
Y277778D01*
X57578D01*
X24130Y309176D02*
X28129D01*
X26129D01*
Y297180D01*
X24130D01*
X28129D01*
X34127D02*
Y309176D01*
X42124Y297180D01*
Y309176D01*
X46123Y297180D02*
Y305177D01*
X50122Y309176D01*
X54120Y305177D01*
Y297180D01*
Y303178D01*
X46123D01*
D32*
X535280Y240910D02*
G03*
X535280Y240910I-1250J0D01*
G01*
D33*
X787400Y281940D02*
G03*
X784860Y279400I0J-2540D01*
G01*
Y264160D02*
G03*
X787400Y261620I2540J0D01*
G01*
X833120D02*
G03*
X835660Y264160I0J2540D01*
G01*
Y279400D02*
G03*
X833120Y281940I-2540J0D01*
G01*
X787400Y241300D02*
G03*
X784860Y238760I0J-2540D01*
G01*
Y223520D02*
G03*
X787400Y220980I2540J0D01*
G01*
X833120D02*
G03*
X835660Y223520I0J2540D01*
G01*
Y238760D02*
G03*
X833120Y241300I-2540J0D01*
G01*
X787400Y5080D02*
G03*
X784860Y2540I0J-2540D01*
G01*
Y-12700D02*
G03*
X787400Y-15240I2540J0D01*
G01*
X833120D02*
G03*
X835660Y-12700I0J2540D01*
G01*
Y2540D02*
G03*
X833120Y5080I-2540J0D01*
G01*
X787400Y45720D02*
G03*
X784860Y43180I0J-2540D01*
G01*
Y27940D02*
G03*
X787400Y25400I2540J0D01*
G01*
X833120D02*
G03*
X835660Y27940I0J2540D01*
G01*
Y43180D02*
G03*
X833120Y45720I-2540J0D01*
G01*
X784860Y264160D02*
Y279400D01*
X787400Y281940D02*
X791210D01*
X792480Y280670D01*
X787400Y261620D02*
X791210D01*
X792480Y262890D01*
X828040Y280670D02*
X829310Y281940D01*
X792480Y280670D02*
X828040D01*
Y262890D02*
X829310Y261620D01*
X792480Y262890D02*
X828040D01*
X829310Y281940D02*
X833120D01*
X829310Y261620D02*
X833120D01*
X835660Y264160D02*
Y279400D01*
X784860Y223520D02*
Y238760D01*
X787400Y241300D02*
X791210D01*
X792480Y240030D01*
X787400Y220980D02*
X791210D01*
X792480Y222250D01*
X828040Y240030D02*
X829310Y241300D01*
X792480Y240030D02*
X828040D01*
Y222250D02*
X829310Y220980D01*
X792480Y222250D02*
X828040D01*
X829310Y241300D02*
X833120D01*
X829310Y220980D02*
X833120D01*
X835660Y223520D02*
Y238760D01*
X784860Y-12700D02*
Y2540D01*
X787400Y5080D02*
X791210D01*
X792480Y3810D01*
X787400Y-15240D02*
X791210D01*
X792480Y-13970D01*
X828040Y3810D02*
X829310Y5080D01*
X792480Y3810D02*
X828040D01*
Y-13970D02*
X829310Y-15240D01*
X792480Y-13970D02*
X828040D01*
X829310Y5080D02*
X833120D01*
X829310Y-15240D02*
X833120D01*
X835660Y-12700D02*
Y2540D01*
X784860Y27940D02*
Y43180D01*
X787400Y45720D02*
X791210D01*
X792480Y44450D01*
X787400Y25400D02*
X791210D01*
X792480Y26670D01*
X828040Y44450D02*
X829310Y45720D01*
X792480Y44450D02*
X828040D01*
Y26670D02*
X829310Y25400D01*
X792480Y26670D02*
X828040D01*
X829310Y45720D02*
X833120D01*
X829310Y25400D02*
X833120D01*
X835660Y27940D02*
Y43180D01*
D34*
X19250Y57900D02*
X120450D01*
X19250Y-34100D02*
Y57900D01*
Y-34100D02*
X120450D01*
Y57900D01*
X280870D02*
X382070D01*
X280870Y-34100D02*
Y57900D01*
Y-34100D02*
X382070D01*
Y57900D01*
X503120Y350240D02*
X604320D01*
Y442240D01*
X503120D02*
X604320D01*
X503120Y350240D02*
Y442240D01*
X813790Y186490D02*
X905790D01*
Y85290D02*
Y186490D01*
X813790Y85290D02*
X905790D01*
X813790D02*
Y186490D01*
D35*
X491617Y266568D02*
Y253872D01*
X494156Y251333D01*
X499235D01*
X501774Y253872D01*
Y266568D01*
X506852Y251333D02*
X511930D01*
X509391D01*
Y266568D01*
X506852Y264029D01*
X389890Y-22860D02*
Y-7625D01*
X397508D01*
X400047Y-10164D01*
Y-15243D01*
X397508Y-17782D01*
X389890D01*
X405125Y-7625D02*
Y-17782D01*
X410203Y-22860D01*
X415282Y-17782D01*
Y-7625D01*
X430517Y-10164D02*
X427978Y-7625D01*
X422899D01*
X420360Y-10164D01*
Y-20321D01*
X422899Y-22860D01*
X427978D01*
X430517Y-20321D01*
X445752Y-10164D02*
X443213Y-7625D01*
X438134D01*
X435595Y-10164D01*
Y-20321D01*
X438134Y-22860D01*
X443213D01*
X445752Y-20321D01*
X549907Y331466D02*
X547368Y334005D01*
X542289D01*
X539750Y331466D01*
Y321309D01*
X542289Y318770D01*
X547368D01*
X549907Y321309D01*
Y326387D01*
X544828D01*
X554985Y318770D02*
Y334005D01*
X565142Y318770D01*
Y334005D01*
X570220D02*
Y318770D01*
X577838D01*
X580377Y321309D01*
Y331466D01*
X577838Y334005D01*
X570220D01*
X193037Y19045D02*
X182880D01*
Y11428D01*
X187958Y13967D01*
X190497D01*
X193037Y11428D01*
Y6349D01*
X190497Y3810D01*
X185419D01*
X182880Y6349D01*
X198115Y19045D02*
Y8888D01*
X203193Y3810D01*
X208272Y8888D01*
Y19045D01*
X223507Y16506D02*
X220968Y19045D01*
X215889D01*
X213350Y16506D01*
Y6349D01*
X215889Y3810D01*
X220968D01*
X223507Y6349D01*
X238742Y16506D02*
X236203Y19045D01*
X231124D01*
X228585Y16506D01*
Y6349D01*
X231124Y3810D01*
X236203D01*
X238742Y6349D01*
X-17780Y326390D02*
Y341625D01*
X-10163D01*
X-7623Y339086D01*
Y334007D01*
X-10163Y331468D01*
X-17780D01*
X-2545Y326390D02*
X2533D01*
X-6D01*
Y341625D01*
X-2545Y339086D01*
X290830Y257805D02*
Y242570D01*
Y250187D01*
X300987D01*
Y257805D01*
Y242570D01*
X306065D02*
X311143D01*
X308604D01*
Y252727D01*
X306065D01*
X323839Y237492D02*
X326379D01*
X328918Y240031D01*
Y252727D01*
X321300D01*
X318761Y250187D01*
Y245109D01*
X321300Y242570D01*
X328918D01*
X333996Y257805D02*
Y242570D01*
Y250187D01*
X336535Y252727D01*
X341614D01*
X344153Y250187D01*
Y242570D01*
X349231Y257805D02*
X359388D01*
Y255266D01*
X349231Y245109D01*
Y242570D01*
X359388D01*
X364466D02*
Y252727D01*
X369544Y257805D01*
X374623Y252727D01*
Y242570D01*
Y250187D01*
X364466D01*
X147320Y166365D02*
Y151130D01*
Y158748D01*
X157477D01*
Y166365D01*
Y151130D01*
X162555D02*
X167633D01*
X165094D01*
Y161287D01*
X162555D01*
X180329Y146052D02*
X182868D01*
X185408Y148591D01*
Y161287D01*
X177790D01*
X175251Y158748D01*
Y153669D01*
X177790Y151130D01*
X185408D01*
X190486Y166365D02*
Y151130D01*
Y158748D01*
X193025Y161287D01*
X198104D01*
X200643Y158748D01*
Y151130D01*
X205721Y166365D02*
X215878D01*
Y163826D01*
X205721Y153669D01*
Y151130D01*
X215878D01*
X220956Y166365D02*
Y151130D01*
X228574D01*
X231113Y153669D01*
Y156208D01*
X228574Y158748D01*
X220956D01*
X228574D01*
X231113Y161287D01*
Y163826D01*
X228574Y166365D01*
X220956D01*
X257807Y209546D02*
X255268Y212085D01*
X250189D01*
X247650Y209546D01*
Y207007D01*
X250189Y204468D01*
X255268D01*
X257807Y201928D01*
Y199389D01*
X255268Y196850D01*
X250189D01*
X247650Y199389D01*
X262885Y212085D02*
Y196850D01*
X270503D01*
X273042Y199389D01*
Y209546D01*
X270503Y212085D01*
X262885D01*
X278120D02*
Y196850D01*
X285738D01*
X288277Y199389D01*
Y209546D01*
X285738Y212085D01*
X278120D01*
X293355Y196850D02*
Y207007D01*
X298434Y212085D01*
X303512Y207007D01*
Y196850D01*
Y204468D01*
X293355D01*
X304797Y146046D02*
X302257Y148585D01*
X297179D01*
X294640Y146046D01*
Y143507D01*
X297179Y140968D01*
X302257D01*
X304797Y138428D01*
Y135889D01*
X302257Y133350D01*
X297179D01*
X294640Y135889D01*
X309875Y148585D02*
Y133350D01*
X317493D01*
X320032Y135889D01*
Y146046D01*
X317493Y148585D01*
X309875D01*
X325110D02*
Y133350D01*
X332728D01*
X335267Y135889D01*
Y146046D01*
X332728Y148585D01*
X325110D01*
X340345D02*
Y133350D01*
X347963D01*
X350502Y135889D01*
Y138428D01*
X347963Y140968D01*
X340345D01*
X347963D01*
X350502Y143507D01*
Y146046D01*
X347963Y148585D01*
X340345D01*
X107950Y259075D02*
X113028D01*
X110489D01*
Y243840D01*
X107950D01*
X113028D01*
X120646D02*
Y259075D01*
X130803Y243840D01*
Y259075D01*
X135881D02*
Y243840D01*
X143498D01*
X146038Y246379D01*
Y248918D01*
X143498Y251458D01*
X135881D01*
X143498D01*
X146038Y253997D01*
Y256536D01*
X143498Y259075D01*
X135881D01*
X78740Y309875D02*
Y297179D01*
X81279Y294640D01*
X86357D01*
X88897Y297179D01*
Y309875D01*
X104132Y294640D02*
X93975D01*
X104132Y304797D01*
Y307336D01*
X101593Y309875D01*
X96514D01*
X93975Y307336D01*
X850898Y209545D02*
X845819D01*
X843280Y207006D01*
Y196849D01*
X845819Y194310D01*
X850898D01*
X853437Y196849D01*
Y207006D01*
X850898Y209545D01*
X858515Y204467D02*
Y196849D01*
X861054Y194310D01*
X868672D01*
Y204467D01*
X876289Y207006D02*
Y204467D01*
X873750D01*
X878829D01*
X876289D01*
Y196849D01*
X878829Y194310D01*
X204470Y250185D02*
X209548D01*
X207009D01*
Y234950D01*
X204470D01*
X209548D01*
X217166D02*
Y250185D01*
X227323Y234950D01*
Y250185D01*
X232401Y234950D02*
Y245107D01*
X237479Y250185D01*
X242558Y245107D01*
Y234950D01*
Y242568D01*
X232401D01*
D36*
X351790Y388620D02*
Y398617D01*
X356788D01*
X358455Y396951D01*
Y393618D01*
X356788Y391952D01*
X351790D01*
X361787Y388620D02*
Y398617D01*
X368451Y388620D01*
Y398617D01*
X371784Y388620D02*
X375116D01*
X373450D01*
Y398617D01*
X371784Y396951D01*
X380114D02*
X381780Y398617D01*
X385113D01*
X386779Y396951D01*
Y390286D01*
X385113Y388620D01*
X381780D01*
X380114Y390286D01*
Y396951D01*
X390111D02*
X391777Y398617D01*
X395109D01*
X396776Y396951D01*
Y390286D01*
X395109Y388620D01*
X391777D01*
X390111Y390286D01*
Y396951D01*
X405106Y388620D02*
Y398617D01*
X400108Y393618D01*
X406772D01*
X415103Y388620D02*
Y398617D01*
X410104Y393618D01*
X416769D01*
X314960Y417667D02*
Y407670D01*
X319958D01*
X321624Y409336D01*
Y416001D01*
X319958Y417667D01*
X314960D01*
X324957D02*
Y411002D01*
X328289Y407670D01*
X331621Y411002D01*
Y417667D01*
X334954D02*
X341618D01*
X338286D01*
Y407670D01*
X354947D02*
Y414334D01*
X358279Y417667D01*
X361612Y414334D01*
Y407670D01*
Y412668D01*
X354947D01*
X364944Y407670D02*
X368276D01*
X366610D01*
Y417667D01*
X364944D01*
X374941Y416001D02*
Y414334D01*
X373274D01*
X376607D01*
X374941D01*
Y409336D01*
X376607Y407670D01*
X383271Y414334D02*
X386604D01*
X388270Y412668D01*
Y407670D01*
X383271D01*
X381605Y409336D01*
X383271Y411002D01*
X388270D01*
X391602Y407670D02*
X396600D01*
X398266Y409336D01*
X396600Y411002D01*
X393268D01*
X391602Y412668D01*
X393268Y414334D01*
X398266D01*
X411595Y417667D02*
Y407670D01*
X416594D01*
X418260Y409336D01*
Y416001D01*
X416594Y417667D01*
X411595D01*
X421592Y414334D02*
Y407670D01*
Y411002D01*
X423258Y412668D01*
X424925Y414334D01*
X426591D01*
X431589Y407670D02*
X434921D01*
X433255D01*
Y414334D01*
X431589D01*
X439920D02*
X443252Y407670D01*
X446584Y414334D01*
X454915Y407670D02*
X451583D01*
X449916Y409336D01*
Y412668D01*
X451583Y414334D01*
X454915D01*
X456581Y412668D01*
Y411002D01*
X449916D01*
X459913Y414334D02*
Y407670D01*
Y411002D01*
X461579Y412668D01*
X463246Y414334D01*
X464912D01*
X645160Y430367D02*
X648492D01*
X646826D01*
Y420370D01*
X645160D01*
X648492D01*
X653491D02*
Y430367D01*
X660155Y420370D01*
Y430367D01*
X663487Y420370D02*
Y427034D01*
X666820Y430367D01*
X670152Y427034D01*
Y420370D01*
Y425368D01*
X663487D01*
X683481Y430367D02*
X686813D01*
X685147D01*
Y420370D01*
X683481D01*
X686813D01*
X691812D02*
Y430367D01*
X698476Y420370D01*
Y430367D01*
X701808D02*
Y420370D01*
X706807D01*
X708473Y422036D01*
Y423702D01*
X706807Y425368D01*
X701808D01*
X706807D01*
X708473Y427034D01*
Y428701D01*
X706807Y430367D01*
X701808D01*
X721802Y417038D02*
X723468D01*
X725134Y418704D01*
Y427034D01*
X731799D02*
Y422036D01*
X733465Y420370D01*
X738463D01*
Y427034D01*
X741796Y420370D02*
Y427034D01*
X743462D01*
X745128Y425368D01*
Y420370D01*
Y425368D01*
X746794Y427034D01*
X748460Y425368D01*
Y420370D01*
X751792Y417038D02*
Y427034D01*
X756791D01*
X758457Y425368D01*
Y422036D01*
X756791Y420370D01*
X751792D01*
X766787D02*
X763455D01*
X761789Y422036D01*
Y425368D01*
X763455Y427034D01*
X766787D01*
X768454Y425368D01*
Y423702D01*
X761789D01*
X771786Y427034D02*
Y420370D01*
Y423702D01*
X773452Y425368D01*
X775118Y427034D01*
X776784D01*
X781783Y420370D02*
X786781D01*
X788447Y422036D01*
X786781Y423702D01*
X783449D01*
X781783Y425368D01*
X783449Y427034D01*
X788447D01*
X791779D02*
X793446D01*
Y425368D01*
X791779D01*
Y427034D01*
Y422036D02*
X793446D01*
Y420370D01*
X791779D01*
Y422036D01*
X646430Y355437D02*
Y345440D01*
Y350438D01*
X653094D01*
Y355437D01*
Y345440D01*
X656427D02*
X659759D01*
X658093D01*
Y352104D01*
X656427D01*
X668090Y342108D02*
X669756D01*
X671422Y343774D01*
Y352104D01*
X666424D01*
X664757Y350438D01*
Y347106D01*
X666424Y345440D01*
X671422D01*
X674754Y355437D02*
Y345440D01*
Y350438D01*
X676420Y352104D01*
X679753D01*
X681419Y350438D01*
Y345440D01*
X684751Y355437D02*
X691415D01*
Y353771D01*
X684751Y347106D01*
Y345440D01*
X691415D01*
X694748D02*
Y352104D01*
X698080Y355437D01*
X701412Y352104D01*
Y345440D01*
Y350438D01*
X694748D01*
X704744Y345440D02*
X711409Y352104D01*
X714741Y355437D02*
Y345440D01*
X719740D01*
X721406Y347106D01*
Y348772D01*
X719740Y350438D01*
X714741D01*
X719740D01*
X721406Y352104D01*
Y353771D01*
X719740Y355437D01*
X714741D01*
X751396Y353771D02*
X749730Y355437D01*
X746398D01*
X744732Y353771D01*
Y352104D01*
X746398Y350438D01*
X749730D01*
X751396Y348772D01*
Y347106D01*
X749730Y345440D01*
X746398D01*
X744732Y347106D01*
X754728Y355437D02*
Y345440D01*
X759727D01*
X761393Y347106D01*
Y353771D01*
X759727Y355437D01*
X754728D01*
X764725D02*
Y345440D01*
X769724D01*
X771390Y347106D01*
Y353771D01*
X769724Y355437D01*
X764725D01*
X774722Y345440D02*
Y352104D01*
X778054Y355437D01*
X781386Y352104D01*
Y345440D01*
Y350438D01*
X774722D01*
X784719Y345440D02*
X791383Y352104D01*
X794716Y355437D02*
Y345440D01*
X799714D01*
X801380Y347106D01*
Y348772D01*
X799714Y350438D01*
X794716D01*
X799714D01*
X801380Y352104D01*
Y353771D01*
X799714Y355437D01*
X794716D01*
X804712Y352104D02*
X806378D01*
Y350438D01*
X804712D01*
Y352104D01*
Y347106D02*
X806378D01*
Y345440D01*
X804712D01*
Y347106D01*
X642620Y328930D02*
X645952D01*
X644286D01*
Y335594D01*
X642620D01*
X650951Y328930D02*
Y335594D01*
X655949D01*
X657615Y333928D01*
Y328930D01*
X660947Y325598D02*
Y335594D01*
X665946D01*
X667612Y333928D01*
Y330596D01*
X665946Y328930D01*
X660947D01*
X670944Y335594D02*
Y330596D01*
X672610Y328930D01*
X677609D01*
Y335594D01*
X682607Y337261D02*
Y335594D01*
X680941D01*
X684273D01*
X682607D01*
Y330596D01*
X684273Y328930D01*
X705933Y335594D02*
X700935D01*
X699268Y333928D01*
Y330596D01*
X700935Y328930D01*
X705933D01*
X710931D02*
X714264D01*
X715930Y330596D01*
Y333928D01*
X714264Y335594D01*
X710931D01*
X709265Y333928D01*
Y330596D01*
X710931Y328930D01*
X719262D02*
Y335594D01*
X724260D01*
X725927Y333928D01*
Y328930D01*
X730925D02*
Y337261D01*
Y333928D01*
X729259D01*
X732591D01*
X730925D01*
Y337261D01*
X732591Y338927D01*
X737589Y328930D02*
X740922D01*
X739256D01*
Y335594D01*
X737589D01*
X749252Y325598D02*
X750918D01*
X752585Y327264D01*
Y335594D01*
X747586D01*
X745920Y333928D01*
Y330596D01*
X747586Y328930D01*
X752585D01*
X755917Y335594D02*
Y330596D01*
X757583Y328930D01*
X762581D01*
Y335594D01*
X765914D02*
Y328930D01*
Y332262D01*
X767580Y333928D01*
X769246Y335594D01*
X770912D01*
X777577D02*
X780909D01*
X782575Y333928D01*
Y328930D01*
X777577D01*
X775910Y330596D01*
X777577Y332262D01*
X782575D01*
X787573Y337261D02*
Y335594D01*
X785907D01*
X789239D01*
X787573D01*
Y330596D01*
X789239Y328930D01*
X794238D02*
X797570D01*
X795904D01*
Y335594D01*
X794238D01*
X804235Y328930D02*
X807567D01*
X809233Y330596D01*
Y333928D01*
X807567Y335594D01*
X804235D01*
X802568Y333928D01*
Y330596D01*
X804235Y328930D01*
X812565D02*
Y335594D01*
X817564D01*
X819230Y333928D01*
Y328930D01*
X660400Y403860D02*
X663732D01*
X662066D01*
Y410524D01*
X660400D01*
X668731Y403860D02*
Y410524D01*
X673729D01*
X675395Y408858D01*
Y403860D01*
X678727Y410524D02*
X682060Y403860D01*
X685392Y410524D01*
X693723Y403860D02*
X690390D01*
X688724Y405526D01*
Y408858D01*
X690390Y410524D01*
X693723D01*
X695389Y408858D01*
Y407192D01*
X688724D01*
X698721Y410524D02*
Y403860D01*
Y407192D01*
X700387Y408858D01*
X702053Y410524D01*
X703719D01*
X710384Y412191D02*
Y410524D01*
X708718D01*
X712050D01*
X710384D01*
Y405526D01*
X712050Y403860D01*
X727045D02*
X730377D01*
X728711D01*
Y410524D01*
X727045D01*
X735376Y403860D02*
Y410524D01*
X740374D01*
X742040Y408858D01*
Y403860D01*
X745373Y400528D02*
Y410524D01*
X750371D01*
X752037Y408858D01*
Y405526D01*
X750371Y403860D01*
X745373D01*
X755369Y410524D02*
Y405526D01*
X757036Y403860D01*
X762034D01*
Y410524D01*
X767032Y412191D02*
Y410524D01*
X765366D01*
X768698D01*
X767032D01*
Y405526D01*
X768698Y403860D01*
X626902Y388620D02*
X623570Y391952D01*
Y395285D01*
X626902Y398617D01*
X631901Y388620D02*
X635233D01*
X633567D01*
Y395285D01*
X631901D01*
X640231Y388620D02*
Y395285D01*
X645230D01*
X646896Y393618D01*
Y388620D01*
X650228Y395285D02*
X653560Y388620D01*
X656893Y395285D01*
X665223Y388620D02*
X661891D01*
X660225Y390286D01*
Y393618D01*
X661891Y395285D01*
X665223D01*
X666889Y393618D01*
Y391952D01*
X660225D01*
X670222Y395285D02*
Y388620D01*
Y391952D01*
X671888Y393618D01*
X673554Y395285D01*
X675220D01*
X681885Y396951D02*
Y395285D01*
X680218D01*
X683551D01*
X681885D01*
Y390286D01*
X683551Y388620D01*
X698546Y398617D02*
Y388620D01*
X703544D01*
X705210Y390286D01*
Y391952D01*
X703544Y393618D01*
X698546D01*
X703544D01*
X705210Y395285D01*
Y396951D01*
X703544Y398617D01*
X698546D01*
X730202Y388620D02*
Y396951D01*
Y393618D01*
X728536D01*
X731868D01*
X730202D01*
Y396951D01*
X731868Y398617D01*
X738533Y388620D02*
X741865D01*
X743531Y390286D01*
Y393618D01*
X741865Y395285D01*
X738533D01*
X736867Y393618D01*
Y390286D01*
X738533Y388620D01*
X746864Y395285D02*
Y388620D01*
Y391952D01*
X748530Y393618D01*
X750196Y395285D01*
X751862D01*
X766857Y398617D02*
Y388620D01*
X771855D01*
X773522Y390286D01*
Y391952D01*
Y393618D01*
X771855Y395285D01*
X766857D01*
X776854D02*
Y388620D01*
Y391952D01*
X778520Y393618D01*
X780186Y395285D01*
X781852D01*
X786851Y388620D02*
X790183D01*
X788517D01*
Y395285D01*
X786851D01*
X801846Y398617D02*
Y388620D01*
X796848D01*
X795181Y390286D01*
Y393618D01*
X796848Y395285D01*
X801846D01*
X808510Y385288D02*
X810176D01*
X811843Y386954D01*
Y395285D01*
X806844D01*
X805178Y393618D01*
Y390286D01*
X806844Y388620D01*
X811843D01*
X820173D02*
X816841D01*
X815175Y390286D01*
Y393618D01*
X816841Y395285D01*
X820173D01*
X821839Y393618D01*
Y391952D01*
X815175D01*
X841833Y395285D02*
X836835D01*
X835169Y393618D01*
Y390286D01*
X836835Y388620D01*
X841833D01*
X846831D02*
X850164D01*
X851830Y390286D01*
Y393618D01*
X850164Y395285D01*
X846831D01*
X845165Y393618D01*
Y390286D01*
X846831Y388620D01*
X855162D02*
Y395285D01*
X860160D01*
X861826Y393618D01*
Y388620D01*
X866825D02*
Y396951D01*
Y393618D01*
X865159D01*
X868491D01*
X866825D01*
Y396951D01*
X868491Y398617D01*
X873489Y388620D02*
X876822D01*
X875156D01*
Y395285D01*
X873489D01*
X885152Y385288D02*
X886818D01*
X888485Y386954D01*
Y395285D01*
X883486D01*
X881820Y393618D01*
Y390286D01*
X883486Y388620D01*
X888485D01*
X891817D02*
X895149Y391952D01*
Y395285D01*
X891817Y398617D01*
X659922Y311150D02*
X656590Y314482D01*
Y317815D01*
X659922Y321147D01*
X664921D02*
Y311150D01*
Y316148D01*
X666587Y317815D01*
X669919D01*
X671585Y316148D01*
Y311150D01*
X674917D02*
X678250D01*
X676584D01*
Y317815D01*
X674917D01*
X686580Y307818D02*
X688247D01*
X689913Y309484D01*
Y317815D01*
X684914D01*
X683248Y316148D01*
Y312816D01*
X684914Y311150D01*
X689913D01*
X693245Y321147D02*
Y311150D01*
Y316148D01*
X694911Y317815D01*
X698243D01*
X699909Y316148D01*
Y311150D01*
X714904D02*
X718237D01*
X719903Y312816D01*
Y316148D01*
X718237Y317815D01*
X714904D01*
X713238Y316148D01*
Y312816D01*
X714904Y311150D01*
X723235D02*
Y317815D01*
X728234D01*
X729900Y316148D01*
Y311150D01*
X749893Y321147D02*
Y311150D01*
X744895D01*
X743229Y312816D01*
Y316148D01*
X744895Y317815D01*
X749893D01*
X758224Y311150D02*
X754892D01*
X753225Y312816D01*
Y316148D01*
X754892Y317815D01*
X758224D01*
X759890Y316148D01*
Y314482D01*
X753225D01*
X764888Y311150D02*
Y319481D01*
Y316148D01*
X763222D01*
X766555D01*
X764888D01*
Y319481D01*
X766555Y321147D01*
X773219Y317815D02*
X776551D01*
X778217Y316148D01*
Y311150D01*
X773219D01*
X771553Y312816D01*
X773219Y314482D01*
X778217D01*
X781550Y317815D02*
Y312816D01*
X783216Y311150D01*
X788214D01*
Y317815D01*
X791546Y311150D02*
X794879D01*
X793213D01*
Y321147D01*
X791546D01*
X801543Y319481D02*
Y317815D01*
X799877D01*
X803209D01*
X801543D01*
Y312816D01*
X803209Y311150D01*
X808208D02*
X811540Y314482D01*
Y317815D01*
X808208Y321147D01*
D37*
X303530Y444714D02*
X315526D01*
X309528D01*
Y426720D01*
X321524Y444714D02*
Y426720D01*
X330521D01*
X333520Y429719D01*
Y441715D01*
X330521Y444714D01*
X321524D01*
X351515D02*
X339518D01*
Y426720D01*
X351515D01*
X339518Y435717D02*
X345516D01*
X387503Y441715D02*
X384504Y444714D01*
X378506D01*
X375507Y441715D01*
Y429719D01*
X378506Y426720D01*
X384504D01*
X387503Y429719D01*
Y435717D01*
X381505D01*
X393501Y438716D02*
Y426720D01*
Y432718D01*
X396500Y435717D01*
X399499Y438716D01*
X402498D01*
X414494Y426720D02*
X420492D01*
X423491Y429719D01*
Y435717D01*
X420492Y438716D01*
X414494D01*
X411495Y435717D01*
Y429719D01*
X414494Y426720D01*
X429489Y438716D02*
Y429719D01*
X432488Y426720D01*
X441485D01*
Y438716D01*
X447483Y420722D02*
Y438716D01*
X456480D01*
X459479Y435717D01*
Y429719D01*
X456480Y426720D01*
X447483D01*
M02*
