G04 Layer_Color=32768*
%FSLAX44Y44*%
%MOMM*%
G71*
G01*
G75*
%ADD17C,0.3000*%
%ADD33C,0.1524*%
%ADD35C,0.2540*%
D17*
X-31750Y-38100D02*
X918250D01*
X-31750D02*
Y461900D01*
X918250Y-38100D02*
Y461900D01*
X-31750D02*
X918250D01*
D33*
X403638Y-89151D02*
X406177Y-91691D01*
X411255D01*
X413794Y-89151D01*
Y-78995D01*
X411255Y-76456D01*
X406177D01*
X403638Y-78995D01*
Y-81534D01*
X406177Y-84073D01*
X413794D01*
X429029Y-76456D02*
X418873D01*
Y-84073D01*
X423951Y-81534D01*
X426490D01*
X429029Y-84073D01*
Y-89151D01*
X426490Y-91691D01*
X421412D01*
X418873Y-89151D01*
X436647Y-94230D02*
X439186Y-91691D01*
Y-89151D01*
X436647D01*
Y-91691D01*
X439186D01*
X436647Y-94230D01*
X434108Y-96769D01*
X449343Y-78995D02*
X451882Y-76456D01*
X456960D01*
X459499Y-78995D01*
Y-89151D01*
X456960Y-91691D01*
X451882D01*
X449343Y-89151D01*
Y-78995D01*
X464578D02*
X467117Y-76456D01*
X472195D01*
X474734Y-78995D01*
Y-89151D01*
X472195Y-91691D01*
X467117D01*
X464578Y-89151D01*
Y-78995D01*
X969266Y182444D02*
Y172288D01*
X976883D01*
X974344Y177366D01*
Y179905D01*
X976883Y182444D01*
X981962D01*
X984501Y179905D01*
Y174827D01*
X981962Y172288D01*
X971805Y187523D02*
X969266Y190062D01*
Y195140D01*
X971805Y197679D01*
X981962D01*
X984501Y195140D01*
Y190062D01*
X981962Y187523D01*
X971805D01*
X987040Y205297D02*
X984501Y207836D01*
X981962D01*
Y205297D01*
X984501D01*
Y207836D01*
X987040Y205297D01*
X989579Y202758D01*
X971805Y217993D02*
X969266Y220532D01*
Y225610D01*
X971805Y228149D01*
X981962D01*
X984501Y225610D01*
Y220532D01*
X981962Y217993D01*
X971805D01*
Y233228D02*
X969266Y235767D01*
Y240845D01*
X971805Y243384D01*
X981962D01*
X984501Y240845D01*
Y235767D01*
X981962Y233228D01*
X971805D01*
D35*
X-31750Y-82550D02*
Y-42140D01*
X918250Y-82550D02*
Y-42140D01*
X-31750Y-80010D02*
X399574D01*
X478798D02*
X918250D01*
X-31750D02*
X-16510Y-85090D01*
X-31750Y-80010D02*
X-16510Y-74930D01*
X903010D02*
X918250Y-80010D01*
X903010Y-85090D02*
X918250Y-80010D01*
X922290Y461900D02*
X975360D01*
X922290Y-38100D02*
X975360D01*
X972820Y247449D02*
Y461900D01*
Y-38100D02*
Y168223D01*
X967740Y446660D02*
X972820Y461900D01*
X977900Y446660D01*
X972820Y-38100D02*
X977900Y-22860D01*
X967740D02*
X972820Y-38100D01*
M02*
