M48
;Layer_Color=9474304
;FILE_FORMAT=4:4
METRIC,LZ
;TYPE=PLATED
T1F00S00C0.7110
T2F00S00C0.9000
T3F00S00C1.2000
T4F00S00C1.4000
;TYPE=NON_PLATED
T5F00S00C2.5000
%
T01
X0047625Y0014605
X00635Y0014351
X0064897Y0015621
X0012573Y0014859
X0016764Y0025019
T02
X-0000428Y0008509
X0009572
X0015748Y0008556
Y-0001444
X0026369Y0008382
X0036369
X0039704Y000381
X0049704
X0053039Y0002032
X0063039
X0066802Y-0000428
X0076026Y-0000508
Y0003556
X0077978Y0008208
X0073533
X0069088Y0008081
X0066802Y0009572
X0065786Y0011764
X004699Y0006938
X0043053Y0013034
X0086026Y0003556
Y-0000508
Y0023114
Y0027178
X0076026
Y0023114
X0077978Y0018208
X0073533
X0069088Y0018081
X0065786Y0021764
X0064182Y0027559
X0054182
X0046736Y0032432
Y0022432
X0043053Y0023034
X004699Y0016938
X0038735Y0022178
Y0032178
X0025273Y0032766
X0022733
X0020193
X0017653
X0015113
X0012573
X0010033
X0005461Y0032973
Y0042973
X0009986Y0044069
X0010033Y0040386
X0012573
X0015113
X0017653
X0020193
X0022733
X0025273
X0019986Y0044069
X0020193Y0027432
X0022733
X0025273
X0015113Y0022479
X0012573
X0010033
T03
X-0001016Y0012319
X0019685Y0012827
X0022225
X0025019Y0015621
X0027559
X0032258Y0018288
X0034798
Y0022098
X0032258
X-0001016Y0022479
Y0019939
Y0017399
Y0014859
Y0025019
Y0027559
Y0030099
T04
X0004445Y000119
X0009525
X0030607
X0035687
X0085979Y0011049
Y0016129
X0057912Y0039624
X0052832
T05
X0Y0
M30
