G04 Layer_Physical_Order=2*
G04 Layer_Color=13278208*
%FSLAX44Y44*%
%MOMM*%
G71*
G01*
G75*
%ADD14C,0.5000*%
%ADD15C,0.1000*%
%ADD16C,1.7000*%
%ADD17R,2.4000X2.4000*%
%ADD18C,2.4000*%
%ADD19R,2.4000X2.4000*%
%ADD20C,3.0000*%
%ADD21C,1.2700*%
G36*
X401489Y79983D02*
X400982Y79428D01*
X400530Y78830D01*
X400133Y78188D01*
X399789Y77503D01*
X399500Y76775D01*
X399265Y76003D01*
X399085Y75189D01*
X398959Y74331D01*
X398887Y73429D01*
X398870Y72485D01*
X390455Y80900D01*
X391399Y80917D01*
X392301Y80989D01*
X393159Y81115D01*
X393974Y81295D01*
X394745Y81530D01*
X395473Y81819D01*
X396158Y82163D01*
X396800Y82560D01*
X397398Y83012D01*
X397953Y83519D01*
X401489Y79983D01*
D02*
G37*
G36*
X172827Y106601D02*
X172899Y105699D01*
X173025Y104841D01*
X173205Y104027D01*
X173440Y103255D01*
X173729Y102527D01*
X174073Y101842D01*
X174470Y101200D01*
X174922Y100602D01*
X175429Y100047D01*
X171893Y96511D01*
X171338Y97018D01*
X170740Y97470D01*
X170098Y97867D01*
X169413Y98211D01*
X168685Y98500D01*
X167913Y98735D01*
X167099Y98915D01*
X166241Y99041D01*
X165340Y99113D01*
X164395Y99130D01*
X172810Y107545D01*
X172827Y106601D01*
D02*
G37*
G36*
X158815Y116662D02*
X160432Y115222D01*
X160478Y115217D01*
X156723Y111462D01*
X156718Y111508D01*
X156674Y111589D01*
X156592Y111705D01*
X156470Y111855D01*
X155871Y112513D01*
X154922Y113482D01*
X158458Y117018D01*
X158815Y116662D01*
D02*
G37*
G36*
X452515Y68980D02*
X451571Y68963D01*
X450669Y68891D01*
X449811Y68765D01*
X448997Y68585D01*
X448225Y68350D01*
X447497Y68061D01*
X446812Y67717D01*
X446170Y67320D01*
X445572Y66868D01*
X445017Y66361D01*
X441481Y69897D01*
X441988Y70452D01*
X442440Y71050D01*
X442837Y71692D01*
X443181Y72377D01*
X443470Y73105D01*
X443705Y73877D01*
X443885Y74691D01*
X444011Y75549D01*
X444083Y76451D01*
X444100Y77395D01*
X452515Y68980D01*
D02*
G37*
G36*
X442870Y37310D02*
X437870Y29810D01*
X437820Y30760D01*
X437670Y31610D01*
X437420Y32360D01*
X437070Y33010D01*
X436620Y33560D01*
X436070Y34010D01*
X435420Y34360D01*
X434670Y34610D01*
X433820Y34760D01*
X432870Y34810D01*
Y39810D01*
X433820Y39860D01*
X434670Y40010D01*
X435420Y40260D01*
X436070Y40610D01*
X436620Y41060D01*
X437070Y41610D01*
X437420Y42260D01*
X437670Y43010D01*
X437820Y43860D01*
X437870Y44810D01*
X442870Y37310D01*
D02*
G37*
G36*
X390300Y42604D02*
X390989Y42018D01*
X391684Y41501D01*
X392388Y41052D01*
X393100Y40672D01*
X393819Y40362D01*
X394546Y40121D01*
X395281Y39948D01*
X396023Y39845D01*
X396774Y39810D01*
Y34810D01*
X396023Y34776D01*
X395281Y34672D01*
X394546Y34499D01*
X393819Y34258D01*
X393100Y33948D01*
X392388Y33568D01*
X391684Y33119D01*
X390989Y32602D01*
X390300Y32016D01*
X389620Y31360D01*
Y43260D01*
X390300Y42604D01*
D02*
G37*
G36*
X390285Y63900D02*
X389341Y63883D01*
X388439Y63811D01*
X387581Y63685D01*
X386767Y63505D01*
X385995Y63270D01*
X385267Y62981D01*
X384582Y62637D01*
X383940Y62240D01*
X383342Y61788D01*
X382787Y61281D01*
X379251Y64817D01*
X379758Y65372D01*
X380210Y65970D01*
X380607Y66612D01*
X380951Y67297D01*
X381240Y68025D01*
X381475Y68797D01*
X381655Y69611D01*
X381781Y70469D01*
X381853Y71371D01*
X381870Y72315D01*
X390285Y63900D01*
D02*
G37*
G36*
X160765Y269871D02*
X160435Y269451D01*
X160143Y269004D01*
X159890Y268532D01*
X159676Y268034D01*
X159501Y267510D01*
X159365Y266959D01*
X159268Y266383D01*
X159209Y265781D01*
X159190Y265153D01*
X154190D01*
X154171Y265781D01*
X154112Y266383D01*
X154015Y266959D01*
X153879Y267510D01*
X153704Y268034D01*
X153490Y268532D01*
X153237Y269004D01*
X152945Y269451D01*
X152615Y269871D01*
X152245Y270265D01*
X161135D01*
X160765Y269871D01*
D02*
G37*
G36*
X440115Y251070D02*
X439528Y250382D01*
X439011Y249686D01*
X438562Y248982D01*
X438182Y248270D01*
X437872Y247551D01*
X437631Y246824D01*
X437458Y246089D01*
X437355Y245347D01*
X437320Y244596D01*
X432320D01*
X432285Y245347D01*
X432182Y246089D01*
X432010Y246824D01*
X431768Y247551D01*
X431457Y248270D01*
X431078Y248982D01*
X430630Y249686D01*
X430112Y250382D01*
X429525Y251070D01*
X428870Y251750D01*
X440770D01*
X440115Y251070D01*
D02*
G37*
G36*
X643890Y-24130D02*
X497907D01*
X497724Y-23896D01*
X498000Y-22184D01*
X498836Y-21626D01*
X526842Y6380D01*
X526842Y6381D01*
X527106Y6568D01*
X527354Y6718D01*
X527589Y6835D01*
X527811Y6924D01*
X528028Y6989D01*
X528244Y7035D01*
X528466Y7061D01*
X528697Y7069D01*
X528800Y7055D01*
X531371Y7394D01*
X533768Y8386D01*
X535825Y9965D01*
X537404Y12023D01*
X538396Y14419D01*
X538735Y16990D01*
X538396Y19561D01*
X537404Y21957D01*
X535825Y24015D01*
X533768Y25594D01*
X531371Y26586D01*
X528800Y26925D01*
X526229Y26586D01*
X523833Y25594D01*
X521775Y24015D01*
X520196Y21957D01*
X519204Y19561D01*
X518865Y16990D01*
X518879Y16887D01*
X518871Y16656D01*
X518845Y16434D01*
X518799Y16218D01*
X518734Y16001D01*
X518645Y15779D01*
X518528Y15544D01*
X518378Y15296D01*
X518190Y15032D01*
X518190Y15032D01*
X491976Y-11183D01*
X448514D01*
X448106Y-9980D01*
X448928Y-9348D01*
X450852Y-6842D01*
X452061Y-3923D01*
X452473Y-790D01*
X452061Y2343D01*
X450852Y5262D01*
X448928Y7768D01*
X448735Y7917D01*
X448310Y8359D01*
X447871Y8873D01*
X447501Y9371D01*
X447196Y9850D01*
X446950Y10309D01*
X446760Y10751D01*
X446618Y11178D01*
X446520Y11596D01*
X446488Y11827D01*
Y37310D01*
Y62716D01*
X448004Y64233D01*
X448190Y64373D01*
X448555Y64599D01*
X448957Y64801D01*
X449405Y64979D01*
X449903Y65130D01*
X450457Y65253D01*
X451071Y65343D01*
X451745Y65397D01*
X452358Y65408D01*
X452600Y65377D01*
X455733Y65789D01*
X458652Y66998D01*
X461158Y68921D01*
X463082Y71428D01*
X464291Y74347D01*
X464703Y77480D01*
X464291Y80613D01*
X463082Y83532D01*
X461158Y86039D01*
X458652Y87962D01*
X455733Y89171D01*
X452600Y89584D01*
X449467Y89171D01*
X446548Y87962D01*
X444041Y86039D01*
X442118Y83532D01*
X440909Y80613D01*
X440496Y77480D01*
X440528Y77238D01*
X440517Y76625D01*
X440463Y75951D01*
X440373Y75338D01*
X440250Y74783D01*
X440099Y74285D01*
X439921Y73838D01*
X439720Y73435D01*
X439493Y73070D01*
X439353Y72884D01*
X436044Y69576D01*
X434718Y67591D01*
X434253Y65250D01*
Y44178D01*
X434201Y43889D01*
X434132Y43681D01*
X434091Y43604D01*
X434084Y43596D01*
X434076Y43589D01*
X433999Y43548D01*
X433791Y43479D01*
X433502Y43428D01*
X396167D01*
X395936Y43460D01*
X395518Y43558D01*
X395091Y43700D01*
X394649Y43891D01*
X394190Y44136D01*
X393711Y44441D01*
X393213Y44811D01*
X392698Y45250D01*
X392257Y45675D01*
X392108Y45869D01*
X389602Y47792D01*
X386683Y49001D01*
X383550Y49413D01*
X380417Y49001D01*
X377498Y47792D01*
X374991Y45869D01*
X373068Y43362D01*
X371859Y40443D01*
X371446Y37310D01*
X371859Y34177D01*
X373068Y31258D01*
X374991Y28751D01*
X377498Y26828D01*
X380417Y25619D01*
X383550Y25206D01*
X386683Y25619D01*
X389602Y26828D01*
X392108Y28751D01*
X392257Y28945D01*
X392699Y29371D01*
X393213Y29809D01*
X393711Y30179D01*
X394190Y30484D01*
X394649Y30730D01*
X395091Y30920D01*
X395518Y31062D01*
X395936Y31160D01*
X396167Y31193D01*
X433502D01*
X433791Y31141D01*
X433999Y31072D01*
X434076Y31031D01*
X434084Y31024D01*
X434091Y31016D01*
X434132Y30939D01*
X434201Y30731D01*
X434253Y30442D01*
Y11827D01*
X434220Y11596D01*
X434122Y11178D01*
X433980Y10751D01*
X433789Y10309D01*
X433544Y9850D01*
X433239Y9371D01*
X432869Y8873D01*
X432430Y8358D01*
X432005Y7917D01*
X431811Y7768D01*
X429888Y5262D01*
X428679Y2343D01*
X428266Y-790D01*
X428679Y-3923D01*
X429888Y-6842D01*
X431811Y-9348D01*
X432634Y-9980D01*
X432226Y-11183D01*
X348514D01*
X348106Y-9980D01*
X348928Y-9348D01*
X350852Y-6842D01*
X352061Y-3923D01*
X352473Y-790D01*
X352061Y2343D01*
X350852Y5262D01*
X348928Y7768D01*
X346422Y9692D01*
X343503Y10901D01*
X340370Y11314D01*
X340128Y11282D01*
X339515Y11293D01*
X338841Y11347D01*
X338228Y11437D01*
X337673Y11560D01*
X337175Y11711D01*
X336728Y11889D01*
X336325Y12091D01*
X335960Y12317D01*
X335774Y12457D01*
X335527Y12704D01*
Y37321D01*
X336769Y37517D01*
X337978Y34598D01*
X339902Y32092D01*
X342408Y30168D01*
X345327Y28959D01*
X348460Y28547D01*
X351593Y28959D01*
X354512Y30168D01*
X357019Y32092D01*
X358940Y34596D01*
X360961Y34998D01*
X362946Y36324D01*
X385774Y59152D01*
X385960Y59293D01*
X386325Y59520D01*
X386727Y59721D01*
X387175Y59899D01*
X387673Y60050D01*
X388227Y60173D01*
X388841Y60263D01*
X389515Y60317D01*
X390128Y60328D01*
X390370Y60297D01*
X393503Y60709D01*
X396422Y61918D01*
X398928Y63842D01*
X400852Y66348D01*
X402061Y69267D01*
X402473Y72400D01*
X402442Y72642D01*
X402453Y73254D01*
X402507Y73929D01*
X402597Y74542D01*
X402720Y75097D01*
X402871Y75595D01*
X403049Y76042D01*
X403251Y76445D01*
X403477Y76810D01*
X403618Y76996D01*
X439146Y112524D01*
X440472Y114509D01*
X440938Y116850D01*
Y171193D01*
X441501Y171305D01*
X442207Y171312D01*
X444041Y168922D01*
X446548Y166998D01*
X449467Y165789D01*
X452600Y165376D01*
X455733Y165789D01*
X458652Y166998D01*
X461158Y168922D01*
X463082Y171428D01*
X464291Y174347D01*
X464703Y177480D01*
X464291Y180613D01*
X463082Y183532D01*
X461158Y186038D01*
X460965Y186187D01*
X460540Y186628D01*
X460101Y187143D01*
X459731Y187641D01*
X459426Y188120D01*
X459180Y188579D01*
X458990Y189021D01*
X458848Y189448D01*
X458750Y189866D01*
X458717Y190097D01*
Y213376D01*
X475944Y230602D01*
X476130Y230743D01*
X476495Y230970D01*
X476898Y231171D01*
X477345Y231349D01*
X477843Y231500D01*
X478397Y231623D01*
X479011Y231713D01*
X479686Y231767D01*
X480298Y231778D01*
X480540Y231747D01*
X483673Y232159D01*
X486592Y233368D01*
X489099Y235292D01*
X491022Y237798D01*
X492231Y240717D01*
X492644Y243850D01*
X492231Y246983D01*
X491022Y249902D01*
X489099Y252409D01*
X486592Y254332D01*
X483673Y255541D01*
X480540Y255954D01*
X477407Y255541D01*
X474488Y254332D01*
X471982Y252409D01*
X470058Y249902D01*
X468849Y246983D01*
X468437Y243850D01*
X468468Y243608D01*
X468457Y242995D01*
X468403Y242321D01*
X468313Y241708D01*
X468190Y241153D01*
X468039Y240655D01*
X467861Y240208D01*
X467659Y239805D01*
X467433Y239440D01*
X467293Y239254D01*
X448274Y220236D01*
X446948Y218251D01*
X446483Y215910D01*
Y190097D01*
X446450Y189866D01*
X446352Y189448D01*
X446210Y189021D01*
X446020Y188579D01*
X445774Y188120D01*
X445469Y187641D01*
X445099Y187143D01*
X444660Y186628D01*
X444235Y186187D01*
X444041Y186038D01*
X442207Y183648D01*
X441501Y183655D01*
X440938Y183767D01*
Y245203D01*
X440970Y245434D01*
X441068Y245852D01*
X441210Y246279D01*
X441400Y246721D01*
X441646Y247180D01*
X441951Y247659D01*
X442321Y248157D01*
X442760Y248672D01*
X443185Y249113D01*
X443378Y249261D01*
X445302Y251768D01*
X446511Y254687D01*
X446923Y257820D01*
X446511Y260953D01*
X445302Y263872D01*
X443378Y266378D01*
X440872Y268302D01*
X437953Y269511D01*
X434820Y269923D01*
X431687Y269511D01*
X428768Y268302D01*
X426261Y266378D01*
X424338Y263872D01*
X423129Y260953D01*
X422716Y257820D01*
X423129Y254687D01*
X424338Y251768D01*
X426261Y249261D01*
X426455Y249113D01*
X426880Y248672D01*
X427319Y248157D01*
X427689Y247659D01*
X427994Y247181D01*
X428240Y246721D01*
X428430Y246279D01*
X428572Y245852D01*
X428670Y245434D01*
X428703Y245203D01*
Y119384D01*
X394966Y85647D01*
X394780Y85507D01*
X394415Y85281D01*
X394012Y85079D01*
X393565Y84901D01*
X393067Y84750D01*
X392513Y84627D01*
X391899Y84537D01*
X391225Y84483D01*
X390612Y84472D01*
X390370Y84503D01*
X387237Y84091D01*
X384318Y82882D01*
X381811Y80958D01*
X379888Y78452D01*
X378679Y75533D01*
X378266Y72400D01*
X378298Y72158D01*
X378287Y71546D01*
X378233Y70871D01*
X378143Y70258D01*
X378020Y69703D01*
X377869Y69205D01*
X377691Y68758D01*
X377490Y68355D01*
X377263Y67990D01*
X377123Y67804D01*
X358354Y49036D01*
X357087Y49119D01*
X357019Y49208D01*
X354512Y51132D01*
X351593Y52341D01*
X348460Y52754D01*
X345327Y52341D01*
X342408Y51132D01*
X339902Y49208D01*
X337978Y46702D01*
X336769Y43783D01*
X335527Y43979D01*
Y51286D01*
X352786Y68544D01*
X354112Y70529D01*
X354577Y72870D01*
Y128033D01*
X354610Y128264D01*
X354708Y128682D01*
X354850Y129109D01*
X355041Y129551D01*
X355286Y130010D01*
X355591Y130489D01*
X355961Y130987D01*
X356400Y131502D01*
X356825Y131943D01*
X357019Y132092D01*
X358942Y134598D01*
X360151Y137517D01*
X360564Y140650D01*
X360151Y143783D01*
X358942Y146702D01*
X357019Y149208D01*
X354512Y151132D01*
X351593Y152341D01*
X348460Y152753D01*
X348218Y152722D01*
X347606Y152733D01*
X346931Y152787D01*
X346318Y152877D01*
X345763Y153000D01*
X345265Y153151D01*
X344818Y153329D01*
X344415Y153531D01*
X344050Y153757D01*
X343864Y153897D01*
X330396Y167366D01*
X328411Y168692D01*
X326070Y169158D01*
X241777D01*
X241776Y169158D01*
X241457Y169212D01*
X241176Y169281D01*
X240928Y169364D01*
X240707Y169459D01*
X240508Y169565D01*
X240323Y169686D01*
X240147Y169825D01*
X239978Y169983D01*
X239915Y170065D01*
X237857Y171644D01*
X235461Y172637D01*
X232890Y172975D01*
X230319Y172637D01*
X227922Y171644D01*
X225865Y170065D01*
X224286Y168008D01*
X223294Y165611D01*
X222955Y163040D01*
X223294Y160469D01*
X224286Y158073D01*
X225865Y156015D01*
X227922Y154436D01*
X230319Y153444D01*
X232890Y153105D01*
X235461Y153444D01*
X237857Y154436D01*
X239915Y156015D01*
X239978Y156097D01*
X240147Y156255D01*
X240323Y156394D01*
X240508Y156515D01*
X240707Y156621D01*
X240928Y156716D01*
X241176Y156799D01*
X241457Y156869D01*
X241776Y156922D01*
X241777Y156923D01*
X323536D01*
X335213Y145246D01*
X335353Y145060D01*
X335579Y144695D01*
X335781Y144292D01*
X335959Y143845D01*
X336110Y143347D01*
X336233Y142793D01*
X336323Y142179D01*
X336377Y141505D01*
X336388Y140892D01*
X336357Y140650D01*
X336769Y137517D01*
X337978Y134598D01*
X339902Y132092D01*
X340095Y131943D01*
X340521Y131502D01*
X340959Y130987D01*
X341329Y130489D01*
X341634Y130010D01*
X341880Y129551D01*
X342070Y129109D01*
X342212Y128682D01*
X342310Y128264D01*
X342342Y128033D01*
Y75404D01*
X325084Y58146D01*
X323758Y56161D01*
X323293Y53820D01*
Y10170D01*
X323758Y7829D01*
X325084Y5844D01*
X327123Y3806D01*
X327263Y3620D01*
X327490Y3255D01*
X327691Y2853D01*
X327869Y2405D01*
X328020Y1907D01*
X328143Y1353D01*
X328233Y739D01*
X328287Y65D01*
X328298Y-548D01*
X328266Y-790D01*
X328679Y-3923D01*
X329888Y-6842D01*
X331811Y-9348D01*
X332634Y-9980D01*
X332226Y-11183D01*
X321784D01*
X289514Y21087D01*
X289267Y21378D01*
X288868Y21907D01*
X288541Y22407D01*
X288281Y22877D01*
X288082Y23313D01*
X287939Y23719D01*
X287844Y24095D01*
X287790Y24450D01*
X287763Y24973D01*
X287760Y24985D01*
Y36300D01*
X256760D01*
Y16093D01*
X256722Y15901D01*
X256760Y15710D01*
Y14291D01*
X256467Y13871D01*
X255303Y12494D01*
X244326Y1517D01*
X210024D01*
X192017Y19524D01*
Y86040D01*
X191552Y88381D01*
X190226Y90366D01*
X177558Y103034D01*
X177417Y103220D01*
X177190Y103585D01*
X176989Y103988D01*
X176811Y104435D01*
X176660Y104933D01*
X176537Y105487D01*
X176447Y106101D01*
X176393Y106776D01*
X176382Y107388D01*
X176413Y107630D01*
X176001Y110763D01*
X174792Y113682D01*
X172868Y116188D01*
X170362Y118112D01*
X167443Y119321D01*
X164310Y119733D01*
X163762Y119662D01*
X162808Y120499D01*
Y265913D01*
X162808Y265914D01*
X162861Y266233D01*
X162931Y266514D01*
X163014Y266762D01*
X163109Y266983D01*
X163215Y267182D01*
X163336Y267367D01*
X163475Y267543D01*
X163633Y267712D01*
X163715Y267775D01*
X165294Y269832D01*
X166287Y272229D01*
X166625Y274800D01*
X166287Y277371D01*
X165294Y279767D01*
X163715Y281825D01*
X161658Y283404D01*
X159261Y284396D01*
X156690Y284735D01*
X154119Y284396D01*
X151722Y283404D01*
X149665Y281825D01*
X148086Y279767D01*
X147094Y277371D01*
X146755Y274800D01*
X147094Y272229D01*
X148086Y269832D01*
X149665Y267775D01*
X149747Y267712D01*
X149905Y267543D01*
X150044Y267367D01*
X150164Y267182D01*
X150271Y266983D01*
X150366Y266762D01*
X150449Y266514D01*
X150519Y266233D01*
X150572Y265914D01*
X150573Y265913D01*
Y115250D01*
X151038Y112909D01*
X152364Y110924D01*
X152608Y110680D01*
X152206Y107630D01*
X152619Y104497D01*
X153828Y101578D01*
X155751Y99072D01*
X158258Y97148D01*
X161177Y95939D01*
X164310Y95527D01*
X164552Y95558D01*
X165165Y95547D01*
X165839Y95493D01*
X166452Y95403D01*
X167007Y95280D01*
X167505Y95129D01*
X167952Y94951D01*
X168355Y94749D01*
X168720Y94523D01*
X168906Y94383D01*
X179783Y83506D01*
Y16990D01*
X180248Y14649D01*
X181574Y12664D01*
X203164Y-8926D01*
X205149Y-10252D01*
X207490Y-10718D01*
X246860D01*
X249201Y-10252D01*
X251186Y-8926D01*
X263737Y3625D01*
X264602Y4429D01*
X265290Y4979D01*
X265751Y5300D01*
X267170D01*
X267362Y5262D01*
X267553Y5300D01*
X287760D01*
X287760Y5300D01*
Y5300D01*
X288704Y4595D01*
X314924Y-21626D01*
X315760Y-22184D01*
X316036Y-23896D01*
X315853Y-24130D01*
X-24130D01*
X-25397Y395341D01*
X-24501Y396240D01*
X643890D01*
Y-24130D01*
D02*
G37*
G36*
X480455Y235350D02*
X479510Y235333D01*
X478609Y235261D01*
X477751Y235135D01*
X476937Y234955D01*
X476165Y234720D01*
X475437Y234431D01*
X474752Y234087D01*
X474110Y233690D01*
X473512Y233238D01*
X472957Y232731D01*
X469421Y236267D01*
X469928Y236822D01*
X470380Y237420D01*
X470777Y238062D01*
X471121Y238747D01*
X471410Y239475D01*
X471645Y240247D01*
X471825Y241061D01*
X471951Y241919D01*
X472023Y242820D01*
X472040Y243765D01*
X480455Y235350D01*
D02*
G37*
G36*
X455135Y189953D02*
X455238Y189211D01*
X455410Y188476D01*
X455652Y187749D01*
X455962Y187029D01*
X456342Y186318D01*
X456791Y185614D01*
X457308Y184918D01*
X457895Y184230D01*
X458550Y183550D01*
X446650D01*
X447305Y184230D01*
X447892Y184918D01*
X448410Y185614D01*
X448858Y186318D01*
X449238Y187029D01*
X449548Y187749D01*
X449790Y188476D01*
X449962Y189211D01*
X450065Y189953D01*
X450100Y190704D01*
X455100D01*
X455135Y189953D01*
D02*
G37*
G36*
X353755Y133900D02*
X353168Y133211D01*
X352650Y132516D01*
X352202Y131812D01*
X351823Y131101D01*
X351512Y130381D01*
X351270Y129654D01*
X351098Y128919D01*
X350994Y128176D01*
X350960Y127426D01*
X345960D01*
X345925Y128176D01*
X345822Y128919D01*
X345649Y129654D01*
X345408Y130381D01*
X345098Y131101D01*
X344718Y131812D01*
X344269Y132516D01*
X343752Y133211D01*
X343166Y133900D01*
X342510Y134580D01*
X354410D01*
X353755Y133900D01*
D02*
G37*
G36*
X341432Y151262D02*
X342030Y150810D01*
X342672Y150413D01*
X343357Y150069D01*
X344085Y149780D01*
X344857Y149545D01*
X345671Y149365D01*
X346529Y149239D01*
X347430Y149167D01*
X348375Y149150D01*
X339960Y140735D01*
X339943Y141679D01*
X339871Y142581D01*
X339745Y143439D01*
X339565Y144254D01*
X339330Y145025D01*
X339041Y145753D01*
X338697Y146438D01*
X338300Y147080D01*
X337848Y147678D01*
X337341Y148233D01*
X340877Y151769D01*
X341432Y151262D01*
D02*
G37*
G36*
X237819Y167115D02*
X238239Y166785D01*
X238686Y166493D01*
X239158Y166240D01*
X239656Y166026D01*
X240180Y165851D01*
X240731Y165715D01*
X241307Y165618D01*
X241909Y165560D01*
X242537Y165540D01*
Y160540D01*
X241909Y160521D01*
X241307Y160462D01*
X240731Y160365D01*
X240180Y160229D01*
X239656Y160054D01*
X239158Y159840D01*
X238686Y159587D01*
X238239Y159295D01*
X237819Y158965D01*
X237425Y158595D01*
Y167485D01*
X237819Y167115D01*
D02*
G37*
G36*
X528736Y10640D02*
X528196Y10623D01*
X527665Y10560D01*
X527144Y10450D01*
X526631Y10295D01*
X526127Y10094D01*
X525633Y9847D01*
X525147Y9554D01*
X524671Y9216D01*
X524204Y8831D01*
X523746Y8401D01*
X520211Y11936D01*
X520641Y12394D01*
X521026Y12861D01*
X521364Y13337D01*
X521657Y13823D01*
X521904Y14317D01*
X522105Y14821D01*
X522260Y15333D01*
X522369Y15855D01*
X522433Y16386D01*
X522450Y16926D01*
X528736Y10640D01*
D02*
G37*
G36*
X267362Y8831D02*
X266973Y9113D01*
X266513Y9255D01*
X265983D01*
X265382Y9113D01*
X264710Y8831D01*
X263967Y8406D01*
X263154Y7840D01*
X262270Y7133D01*
X260291Y5295D01*
X256755Y8831D01*
X257745Y9856D01*
X259300Y11694D01*
X259866Y12507D01*
X260291Y13250D01*
X260573Y13922D01*
X260715Y14523D01*
Y15053D01*
X260573Y15513D01*
X260291Y15901D01*
X267362Y8831D01*
D02*
G37*
G36*
X333342Y9822D02*
X333940Y9370D01*
X334582Y8973D01*
X335267Y8629D01*
X335995Y8340D01*
X336767Y8105D01*
X337581Y7925D01*
X338439Y7799D01*
X339341Y7727D01*
X340285Y7710D01*
X331870Y-705D01*
X331853Y239D01*
X331781Y1141D01*
X331655Y1999D01*
X331475Y2813D01*
X331240Y3585D01*
X330951Y4313D01*
X330607Y4998D01*
X330210Y5640D01*
X329758Y6238D01*
X329251Y6793D01*
X332787Y10329D01*
X333342Y9822D01*
D02*
G37*
G36*
X442905Y11683D02*
X443008Y10941D01*
X443181Y10206D01*
X443422Y9479D01*
X443732Y8759D01*
X444112Y8048D01*
X444561Y7344D01*
X445078Y6648D01*
X445664Y5961D01*
X446320Y5280D01*
X434420D01*
X435075Y5961D01*
X435662Y6648D01*
X436180Y7344D01*
X436628Y8048D01*
X437007Y8759D01*
X437318Y9479D01*
X437560Y10206D01*
X437732Y10941D01*
X437836Y11683D01*
X437870Y12434D01*
X442870D01*
X442905Y11683D01*
D02*
G37*
G36*
X284235Y24090D02*
X284342Y23387D01*
X284520Y22683D01*
X284770Y21978D01*
X285091Y21271D01*
X285483Y20563D01*
X285946Y19855D01*
X286481Y19145D01*
X287087Y18433D01*
X287765Y17721D01*
Y10649D01*
X287087Y11291D01*
X286481Y11791D01*
X285946Y12147D01*
X285483Y12361D01*
X285091Y12432D01*
X284770Y12361D01*
X284520Y12147D01*
X284342Y11791D01*
X284235Y11291D01*
X284199Y10649D01*
Y24792D01*
X284235Y24090D01*
D02*
G37*
%LPC*%
G36*
X620000Y18590D02*
X616373Y18232D01*
X612886Y17175D01*
X609672Y15457D01*
X606855Y13145D01*
X604543Y10328D01*
X602826Y7114D01*
X601768Y3627D01*
X601410Y0D01*
X601768Y-3627D01*
X602826Y-7114D01*
X604543Y-10328D01*
X606855Y-13145D01*
X609672Y-15457D01*
X612886Y-17175D01*
X616373Y-18232D01*
X620000Y-18590D01*
X623627Y-18232D01*
X627114Y-17175D01*
X630328Y-15457D01*
X633145Y-13145D01*
X635457Y-10328D01*
X637174Y-7114D01*
X638232Y-3627D01*
X638590Y0D01*
X638232Y3627D01*
X637174Y7114D01*
X635457Y10328D01*
X633145Y13145D01*
X630328Y15457D01*
X627114Y17175D01*
X623627Y18232D01*
X620000Y18590D01*
D02*
G37*
G36*
X405140Y222134D02*
X402007Y221721D01*
X399088Y220512D01*
X396581Y218589D01*
X394658Y216082D01*
X393449Y213163D01*
X393036Y210030D01*
X393449Y206897D01*
X394658Y203978D01*
X396581Y201472D01*
X396775Y201323D01*
X397201Y200882D01*
X397639Y200367D01*
X398009Y199869D01*
X398314Y199391D01*
X398560Y198931D01*
X398750Y198489D01*
X398892Y198062D01*
X398990Y197644D01*
X399022Y197413D01*
Y189704D01*
X394966Y185647D01*
X394780Y185507D01*
X394415Y185280D01*
X394012Y185079D01*
X393565Y184901D01*
X393067Y184750D01*
X392513Y184627D01*
X391899Y184537D01*
X391225Y184483D01*
X390612Y184472D01*
X390370Y184503D01*
X387237Y184091D01*
X384318Y182882D01*
X381811Y180958D01*
X379888Y178452D01*
X378679Y175533D01*
X378266Y172400D01*
X378679Y169267D01*
X379888Y166348D01*
X381811Y163841D01*
X384318Y161918D01*
X387237Y160709D01*
X390370Y160296D01*
X393503Y160709D01*
X396422Y161918D01*
X398928Y163841D01*
X400852Y166348D01*
X402061Y169267D01*
X402473Y172400D01*
X402442Y172642D01*
X402453Y173255D01*
X402507Y173929D01*
X402597Y174542D01*
X402720Y175097D01*
X402871Y175595D01*
X403049Y176042D01*
X403251Y176445D01*
X403477Y176810D01*
X403617Y176996D01*
X409466Y182844D01*
X410792Y184829D01*
X411258Y187170D01*
Y197413D01*
X411290Y197644D01*
X411388Y198062D01*
X411530Y198489D01*
X411721Y198931D01*
X411966Y199390D01*
X412271Y199869D01*
X412641Y200367D01*
X413080Y200882D01*
X413505Y201323D01*
X413699Y201472D01*
X415622Y203978D01*
X416831Y206897D01*
X417243Y210030D01*
X416831Y213163D01*
X415622Y216082D01*
X413699Y218589D01*
X411192Y220512D01*
X408273Y221721D01*
X405140Y222134D01*
D02*
G37*
G36*
X134638Y7630D02*
X124940D01*
Y-2068D01*
X126552Y-1856D01*
X129238Y-743D01*
X131544Y1026D01*
X133313Y3332D01*
X134426Y6018D01*
X134638Y7630D01*
D02*
G37*
G36*
X0Y18590D02*
X-3627Y18232D01*
X-7114Y17175D01*
X-10328Y15457D01*
X-13145Y13145D01*
X-15457Y10328D01*
X-17175Y7114D01*
X-18232Y3627D01*
X-18590Y0D01*
X-18232Y-3627D01*
X-17175Y-7114D01*
X-15457Y-10328D01*
X-13145Y-13145D01*
X-10328Y-15457D01*
X-7114Y-17175D01*
X-3627Y-18232D01*
X0Y-18590D01*
X3627Y-18232D01*
X7114Y-17175D01*
X10328Y-15457D01*
X13145Y-13145D01*
X15457Y-10328D01*
X17175Y-7114D01*
X18232Y-3627D01*
X18590Y0D01*
X18232Y3627D01*
X17175Y7114D01*
X15457Y10328D01*
X13145Y13145D01*
X10328Y15457D01*
X7114Y17175D01*
X3627Y18232D01*
X0Y18590D01*
D02*
G37*
G36*
X47470Y204823D02*
X44337Y204411D01*
X41418Y203202D01*
X38911Y201278D01*
X36988Y198772D01*
X35779Y195853D01*
X35366Y192720D01*
X35779Y189587D01*
X36988Y186668D01*
X38911Y184161D01*
X41418Y182238D01*
X44337Y181029D01*
X47470Y180616D01*
X50603Y181029D01*
X53522Y182238D01*
X56028Y184161D01*
X56177Y184355D01*
X56618Y184781D01*
X57133Y185219D01*
X57631Y185589D01*
X58110Y185894D01*
X58569Y186140D01*
X59011Y186330D01*
X59438Y186472D01*
X59856Y186570D01*
X60087Y186602D01*
X85052D01*
X85341Y186551D01*
X85549Y186482D01*
X85626Y186441D01*
X85634Y186434D01*
X85641Y186426D01*
X85682Y186349D01*
X85751Y186141D01*
X85802Y185852D01*
Y130737D01*
X85770Y130506D01*
X85672Y130088D01*
X85530Y129661D01*
X85339Y129219D01*
X85094Y128760D01*
X84789Y128281D01*
X84419Y127783D01*
X83980Y127268D01*
X83555Y126827D01*
X83362Y126678D01*
X81438Y124172D01*
X80229Y121253D01*
X79816Y118120D01*
X80229Y114987D01*
X81438Y112068D01*
X83362Y109562D01*
X85868Y107638D01*
X88787Y106429D01*
X91920Y106017D01*
X95053Y106429D01*
X97972Y107638D01*
X100478Y109562D01*
X102402Y112068D01*
X103611Y114987D01*
X104024Y118120D01*
X103611Y121253D01*
X102402Y124172D01*
X100478Y126678D01*
X100285Y126827D01*
X99860Y127268D01*
X99421Y127783D01*
X99051Y128281D01*
X98746Y128760D01*
X98500Y129219D01*
X98310Y129661D01*
X98168Y130088D01*
X98070Y130506D01*
X98038Y130737D01*
Y185852D01*
X98089Y186141D01*
X98158Y186349D01*
X98199Y186426D01*
X98206Y186434D01*
X98214Y186441D01*
X98291Y186482D01*
X98499Y186551D01*
X98788Y186602D01*
X115521D01*
X115750Y186569D01*
X116146Y186472D01*
X116545Y186334D01*
X116951Y186147D01*
X117372Y185908D01*
X117808Y185607D01*
X118261Y185241D01*
X118728Y184802D01*
X119282Y184210D01*
X119376Y184141D01*
X119721Y183692D01*
X122228Y181768D01*
X125147Y180559D01*
X128280Y180147D01*
X131413Y180559D01*
X134332Y181768D01*
X136839Y183692D01*
X138762Y186198D01*
X139971Y189117D01*
X140384Y192250D01*
X139971Y195383D01*
X138762Y198302D01*
X136839Y200809D01*
X134332Y202732D01*
X131413Y203941D01*
X128280Y204354D01*
X125147Y203941D01*
X122228Y202732D01*
X120410Y201337D01*
X120211Y201224D01*
X119815Y200880D01*
X119721Y200809D01*
X119700Y200781D01*
X119561Y200660D01*
X118999Y200225D01*
X118457Y199856D01*
X117936Y199550D01*
X117439Y199303D01*
X116963Y199110D01*
X116508Y198967D01*
X116068Y198869D01*
X115838Y198838D01*
X60087D01*
X59856Y198870D01*
X59438Y198968D01*
X59011Y199110D01*
X58569Y199300D01*
X58110Y199546D01*
X57631Y199851D01*
X57133Y200221D01*
X56618Y200660D01*
X56177Y201085D01*
X56028Y201278D01*
X53522Y203202D01*
X50603Y204411D01*
X47470Y204823D01*
D02*
G37*
G36*
X616690Y327130D02*
X585690D01*
Y296130D01*
X605897D01*
X606088Y296092D01*
X606280Y296130D01*
X607699D01*
X608119Y295837D01*
X609496Y294673D01*
X625552Y278616D01*
Y223994D01*
X597386Y195828D01*
X544040D01*
X541699Y195362D01*
X539714Y194036D01*
X529488Y183810D01*
X529488Y183809D01*
X529224Y183622D01*
X528976Y183472D01*
X528741Y183355D01*
X528519Y183266D01*
X528302Y183201D01*
X528086Y183155D01*
X527864Y183129D01*
X527633Y183121D01*
X527530Y183135D01*
X524959Y182796D01*
X522562Y181804D01*
X520505Y180225D01*
X518926Y178167D01*
X517934Y175771D01*
X517595Y173200D01*
X517934Y170629D01*
X518926Y168232D01*
X520505Y166175D01*
X520587Y166112D01*
X520745Y165943D01*
X520884Y165767D01*
X521004Y165582D01*
X521111Y165383D01*
X521206Y165162D01*
X521289Y164914D01*
X521359Y164633D01*
X521412Y164314D01*
X521413Y164313D01*
Y83824D01*
X488146Y50557D01*
X487960Y50417D01*
X487595Y50191D01*
X487192Y49989D01*
X486745Y49811D01*
X486247Y49660D01*
X485693Y49537D01*
X485079Y49447D01*
X484405Y49393D01*
X483792Y49382D01*
X483550Y49413D01*
X480417Y49001D01*
X477498Y47792D01*
X474991Y45869D01*
X473068Y43362D01*
X471859Y40443D01*
X471446Y37310D01*
X471859Y34177D01*
X473068Y31258D01*
X474991Y28751D01*
X477498Y26828D01*
X480417Y25619D01*
X483550Y25206D01*
X486683Y25619D01*
X489602Y26828D01*
X492108Y28751D01*
X494032Y31258D01*
X495241Y34177D01*
X495653Y37310D01*
X495622Y37552D01*
X495633Y38165D01*
X495687Y38839D01*
X495777Y39452D01*
X495900Y40007D01*
X496051Y40505D01*
X496229Y40952D01*
X496431Y41355D01*
X496657Y41720D01*
X496797Y41906D01*
X531856Y76964D01*
X533182Y78949D01*
X533647Y81290D01*
Y164313D01*
X533648Y164314D01*
X533702Y164633D01*
X533771Y164914D01*
X533854Y165162D01*
X533949Y165383D01*
X534055Y165582D01*
X534176Y165767D01*
X534315Y165943D01*
X534473Y166112D01*
X534555Y166175D01*
X536134Y168232D01*
X537127Y170629D01*
X537465Y173200D01*
X537451Y173303D01*
X537459Y173534D01*
X537485Y173756D01*
X537531Y173972D01*
X537596Y174189D01*
X537685Y174412D01*
X537802Y174646D01*
X537952Y174894D01*
X538139Y175158D01*
X538140Y175158D01*
X546574Y183592D01*
X599920D01*
X602261Y184058D01*
X604246Y185384D01*
X635996Y217134D01*
X637322Y219119D01*
X637788Y221460D01*
Y281150D01*
X637322Y283491D01*
X635996Y285476D01*
X618365Y303106D01*
X617561Y303972D01*
X617011Y304660D01*
X616690Y305121D01*
Y306540D01*
X616728Y306731D01*
X616690Y306923D01*
Y327130D01*
D02*
G37*
G36*
X516108Y208760D02*
X506410D01*
Y199062D01*
X508022Y199274D01*
X510708Y200387D01*
X513014Y202156D01*
X514783Y204462D01*
X515896Y207148D01*
X516108Y208760D01*
D02*
G37*
G36*
X237970Y288974D02*
X234837Y288561D01*
X231918Y287352D01*
X229412Y285429D01*
X227488Y282922D01*
X226279Y280003D01*
X225867Y276870D01*
X226279Y273737D01*
X227488Y270818D01*
X229412Y268312D01*
X231918Y266388D01*
X234837Y265179D01*
X237970Y264767D01*
X238212Y264798D01*
X238825Y264787D01*
X239499Y264733D01*
X240112Y264643D01*
X240667Y264520D01*
X241165Y264369D01*
X241612Y264191D01*
X242015Y263990D01*
X242380Y263763D01*
X242566Y263623D01*
X257774Y248414D01*
X259759Y247088D01*
X262100Y246623D01*
X267263D01*
X267494Y246590D01*
X267912Y246492D01*
X268339Y246350D01*
X268781Y246159D01*
X269240Y245914D01*
X269719Y245609D01*
X270217Y245239D01*
X270732Y244800D01*
X271173Y244375D01*
X271322Y244181D01*
X271515Y244033D01*
X271940Y243592D01*
X272379Y243077D01*
X272749Y242579D01*
X273054Y242101D01*
X273300Y241641D01*
X273490Y241199D01*
X273632Y240772D01*
X273730Y240354D01*
X273762Y240123D01*
Y231679D01*
X273729Y231450D01*
X273633Y231054D01*
X273493Y230655D01*
X273307Y230249D01*
X273068Y229828D01*
X272768Y229392D01*
X272401Y228939D01*
X271962Y228472D01*
X271370Y227918D01*
X271301Y227824D01*
X270851Y227479D01*
X268928Y224972D01*
X267719Y222053D01*
X267306Y218920D01*
X267719Y215787D01*
X268928Y212868D01*
X270851Y210361D01*
X273358Y208438D01*
X276277Y207229D01*
X279410Y206817D01*
X282543Y207229D01*
X285462Y208438D01*
X287969Y210361D01*
X289892Y212868D01*
X291101Y215787D01*
X291514Y218920D01*
X291101Y222053D01*
X289892Y224972D01*
X288497Y226790D01*
X288384Y226989D01*
X288040Y227385D01*
X287969Y227479D01*
X287941Y227500D01*
X287820Y227639D01*
X287385Y228201D01*
X287016Y228743D01*
X286710Y229264D01*
X286463Y229761D01*
X286270Y230237D01*
X286127Y230693D01*
X286028Y231132D01*
X285998Y231362D01*
Y240123D01*
X286030Y240354D01*
X286128Y240772D01*
X286270Y241199D01*
X286460Y241641D01*
X286706Y242100D01*
X287011Y242579D01*
X287381Y243077D01*
X287820Y243592D01*
X288245Y244033D01*
X288438Y244181D01*
X290362Y246688D01*
X291571Y249607D01*
X291984Y252740D01*
X291571Y255873D01*
X290362Y258792D01*
X288438Y261299D01*
X285932Y263222D01*
X283013Y264431D01*
X279880Y264844D01*
X276747Y264431D01*
X273828Y263222D01*
X271322Y261299D01*
X271173Y261105D01*
X270732Y260679D01*
X270217Y260241D01*
X269719Y259871D01*
X269240Y259566D01*
X268781Y259320D01*
X268339Y259130D01*
X267912Y258988D01*
X267494Y258890D01*
X267263Y258857D01*
X264634D01*
X251217Y272274D01*
X251077Y272460D01*
X250851Y272825D01*
X250649Y273228D01*
X250471Y273675D01*
X250320Y274173D01*
X250197Y274727D01*
X250107Y275341D01*
X250053Y276015D01*
X250042Y276628D01*
X250074Y276870D01*
X249661Y280003D01*
X248452Y282922D01*
X246528Y285429D01*
X244022Y287352D01*
X241103Y288561D01*
X237970Y288974D01*
D02*
G37*
G36*
X503870Y220998D02*
X502258Y220786D01*
X499572Y219673D01*
X497266Y217904D01*
X495497Y215598D01*
X494384Y212912D01*
X494172Y211300D01*
X503870D01*
Y220998D01*
D02*
G37*
G36*
Y208760D02*
X494172D01*
X494384Y207148D01*
X495497Y204462D01*
X497266Y202156D01*
X499572Y200387D01*
X502258Y199274D01*
X503870Y199062D01*
Y208760D01*
D02*
G37*
G36*
X122400Y7630D02*
X112702D01*
X112914Y6018D01*
X114027Y3332D01*
X115796Y1026D01*
X118102Y-743D01*
X120788Y-1856D01*
X122400Y-2068D01*
Y7630D01*
D02*
G37*
G36*
X506410Y220998D02*
Y211300D01*
X516108D01*
X515896Y212912D01*
X514783Y215598D01*
X513014Y217904D01*
X510708Y219673D01*
X508022Y220786D01*
X506410Y220998D01*
D02*
G37*
G36*
X124940Y19868D02*
Y10170D01*
X134638D01*
X134426Y11782D01*
X133313Y14468D01*
X131544Y16774D01*
X129238Y18543D01*
X126552Y19656D01*
X124940Y19868D01*
D02*
G37*
G36*
X122400D02*
X120788Y19656D01*
X118102Y18543D01*
X115796Y16774D01*
X114027Y14468D01*
X112914Y11782D01*
X112702Y10170D01*
X122400D01*
Y19868D01*
D02*
G37*
G36*
X47470Y104824D02*
X44337Y104411D01*
X41418Y103202D01*
X38911Y101278D01*
X38763Y101085D01*
X38322Y100660D01*
X37807Y100221D01*
X37309Y99851D01*
X36830Y99546D01*
X36371Y99300D01*
X35929Y99110D01*
X35502Y98968D01*
X35084Y98870D01*
X34853Y98837D01*
X10557D01*
X10326Y98870D01*
X9908Y98968D01*
X9481Y99110D01*
X9039Y99300D01*
X8580Y99546D01*
X8101Y99851D01*
X7603Y100221D01*
X7088Y100660D01*
X6647Y101085D01*
X6499Y101278D01*
X3992Y103202D01*
X1073Y104411D01*
X-2060Y104824D01*
X-5193Y104411D01*
X-8112Y103202D01*
X-10618Y101278D01*
X-12542Y98772D01*
X-13751Y95853D01*
X-14164Y92720D01*
X-13751Y89587D01*
X-12542Y86668D01*
X-11147Y84850D01*
X-11034Y84651D01*
X-10690Y84255D01*
X-10618Y84162D01*
X-10591Y84140D01*
X-10470Y84001D01*
X-10035Y83439D01*
X-9666Y82897D01*
X-9360Y82376D01*
X-9113Y81879D01*
X-8920Y81403D01*
X-8777Y80948D01*
X-8678Y80508D01*
X-8648Y80278D01*
Y60087D01*
X-8680Y59856D01*
X-8778Y59438D01*
X-8920Y59011D01*
X-9111Y58569D01*
X-9356Y58110D01*
X-9661Y57631D01*
X-10031Y57133D01*
X-10470Y56618D01*
X-10895Y56177D01*
X-11089Y56028D01*
X-13012Y53522D01*
X-14221Y50603D01*
X-14634Y47470D01*
X-14221Y44337D01*
X-13012Y41418D01*
X-11089Y38911D01*
X-8582Y36988D01*
X-5663Y35779D01*
X-2530Y35366D01*
X603Y35779D01*
X3522Y36988D01*
X6029Y38911D01*
X7952Y41418D01*
X9161Y44337D01*
X9574Y47470D01*
X9161Y50603D01*
X7952Y53522D01*
X6029Y56028D01*
X5835Y56177D01*
X5410Y56618D01*
X4971Y57133D01*
X4601Y57631D01*
X4296Y58110D01*
X4050Y58569D01*
X3860Y59011D01*
X3718Y59438D01*
X3620Y59856D01*
X3587Y60087D01*
Y79961D01*
X3620Y80190D01*
X3717Y80586D01*
X3857Y80985D01*
X4043Y81391D01*
X4282Y81812D01*
X4583Y82248D01*
X4949Y82701D01*
X5388Y83168D01*
X5980Y83722D01*
X6049Y83816D01*
X6499Y84162D01*
X6647Y84355D01*
X7089Y84781D01*
X7603Y85219D01*
X8101Y85589D01*
X8580Y85894D01*
X9039Y86140D01*
X9481Y86330D01*
X9908Y86472D01*
X10326Y86570D01*
X10557Y86602D01*
X34853D01*
X35084Y86570D01*
X35502Y86472D01*
X35929Y86330D01*
X36371Y86139D01*
X36830Y85894D01*
X37309Y85589D01*
X37807Y85219D01*
X38322Y84780D01*
X38763Y84355D01*
X38911Y84162D01*
X41418Y82238D01*
X44337Y81029D01*
X47470Y80617D01*
X50603Y81029D01*
X53522Y82238D01*
X56028Y84162D01*
X57952Y86668D01*
X59161Y89587D01*
X59573Y92720D01*
X59161Y95853D01*
X57952Y98772D01*
X56028Y101278D01*
X53522Y103202D01*
X50603Y104411D01*
X47470Y104824D01*
D02*
G37*
G36*
X222730Y35298D02*
Y22070D01*
X235958D01*
X235626Y24596D01*
X234161Y28133D01*
X231830Y31170D01*
X228793Y33501D01*
X225256Y34966D01*
X222730Y35298D01*
D02*
G37*
G36*
X220190D02*
X217664Y34966D01*
X214127Y33501D01*
X211090Y31170D01*
X208759Y28133D01*
X207294Y24596D01*
X206962Y22070D01*
X220190D01*
Y35298D01*
D02*
G37*
G36*
X123200Y154824D02*
X120067Y154411D01*
X117148Y153202D01*
X114642Y151278D01*
X112718Y148772D01*
X111509Y145853D01*
X111096Y142720D01*
X111509Y139587D01*
X112718Y136668D01*
X114642Y134162D01*
X114835Y134013D01*
X115260Y133572D01*
X115699Y133057D01*
X116069Y132559D01*
X116374Y132080D01*
X116620Y131621D01*
X116810Y131179D01*
X116952Y130752D01*
X117050Y130334D01*
X117083Y130103D01*
Y121342D01*
X117051Y121112D01*
X116953Y120673D01*
X116810Y120217D01*
X116617Y119741D01*
X116370Y119244D01*
X116064Y118723D01*
X115695Y118181D01*
X115260Y117619D01*
X115139Y117480D01*
X115112Y117458D01*
X115040Y117365D01*
X114697Y116969D01*
X114583Y116770D01*
X113188Y114952D01*
X111979Y112033D01*
X111566Y108900D01*
X111979Y105767D01*
X113188Y102848D01*
X115112Y100342D01*
X115305Y100193D01*
X115730Y99752D01*
X116169Y99237D01*
X116539Y98739D01*
X116844Y98260D01*
X117090Y97801D01*
X117280Y97359D01*
X117422Y96932D01*
X117520Y96514D01*
X117552Y96283D01*
Y53587D01*
X110087D01*
X109856Y53620D01*
X109438Y53718D01*
X109011Y53860D01*
X108569Y54050D01*
X108110Y54296D01*
X107631Y54601D01*
X107133Y54971D01*
X106618Y55410D01*
X106177Y55835D01*
X106028Y56028D01*
X103522Y57952D01*
X100603Y59161D01*
X97470Y59573D01*
X94337Y59161D01*
X91418Y57952D01*
X88912Y56028D01*
X86988Y53522D01*
X85779Y50603D01*
X85366Y47470D01*
X85779Y44337D01*
X86988Y41418D01*
X88912Y38911D01*
X91418Y36988D01*
X94337Y35779D01*
X97470Y35366D01*
X100603Y35779D01*
X103522Y36988D01*
X106028Y38911D01*
X106177Y39105D01*
X106618Y39530D01*
X107133Y39969D01*
X107631Y40339D01*
X108110Y40644D01*
X108569Y40890D01*
X109011Y41080D01*
X109438Y41222D01*
X109856Y41320D01*
X110087Y41353D01*
X121936D01*
X151062Y12226D01*
X151203Y12040D01*
X151430Y11675D01*
X151631Y11272D01*
X151809Y10825D01*
X151960Y10327D01*
X152083Y9773D01*
X152173Y9159D01*
X152227Y8485D01*
X152238Y7872D01*
X152206Y7630D01*
X152619Y4497D01*
X153828Y1578D01*
X155751Y-928D01*
X158258Y-2852D01*
X161177Y-4061D01*
X164310Y-4473D01*
X167443Y-4061D01*
X170362Y-2852D01*
X172868Y-928D01*
X174792Y1578D01*
X176001Y4497D01*
X176413Y7630D01*
X176001Y10763D01*
X174792Y13682D01*
X172868Y16188D01*
X170362Y18112D01*
X167443Y19321D01*
X164310Y19734D01*
X164068Y19702D01*
X163456Y19713D01*
X162781Y19767D01*
X162168Y19857D01*
X161613Y19980D01*
X161115Y20131D01*
X160668Y20309D01*
X160265Y20511D01*
X159900Y20737D01*
X159714Y20877D01*
X129788Y50804D01*
Y96283D01*
X129820Y96514D01*
X129918Y96932D01*
X130060Y97359D01*
X130251Y97801D01*
X130496Y98260D01*
X130801Y98739D01*
X131171Y99237D01*
X131610Y99752D01*
X132035Y100193D01*
X132228Y100342D01*
X134152Y102848D01*
X135361Y105767D01*
X135773Y108900D01*
X135361Y112033D01*
X134152Y114952D01*
X132228Y117458D01*
X131779Y117804D01*
X131711Y117899D01*
X131118Y118452D01*
X130679Y118919D01*
X130313Y119372D01*
X130012Y119808D01*
X129773Y120229D01*
X129586Y120635D01*
X129447Y121034D01*
X129351Y121430D01*
X129318Y121659D01*
Y130103D01*
X129350Y130334D01*
X129448Y130752D01*
X129590Y131179D01*
X129781Y131621D01*
X130026Y132080D01*
X130331Y132559D01*
X130701Y133057D01*
X131140Y133572D01*
X131565Y134013D01*
X131758Y134162D01*
X133682Y136668D01*
X134891Y139587D01*
X135303Y142720D01*
X134891Y145853D01*
X133682Y148772D01*
X131758Y151278D01*
X129252Y153202D01*
X126333Y154411D01*
X123200Y154824D01*
D02*
G37*
G36*
X234168Y141450D02*
X224470D01*
Y131752D01*
X226082Y131964D01*
X228768Y133077D01*
X231074Y134846D01*
X232843Y137152D01*
X233956Y139838D01*
X234168Y141450D01*
D02*
G37*
G36*
X221930Y153688D02*
X220318Y153476D01*
X217632Y152363D01*
X215326Y150594D01*
X213557Y148288D01*
X212444Y145602D01*
X212232Y143990D01*
X221930D01*
Y153688D01*
D02*
G37*
G36*
X224470D02*
Y143990D01*
X234168D01*
X233956Y145602D01*
X232843Y148288D01*
X231074Y150594D01*
X228768Y152363D01*
X226082Y153476D01*
X224470Y153688D01*
D02*
G37*
G36*
X235958Y19530D02*
X222730D01*
Y6302D01*
X225256Y6634D01*
X228793Y8099D01*
X231830Y10430D01*
X234161Y13467D01*
X235626Y17004D01*
X235958Y19530D01*
D02*
G37*
G36*
X220190D02*
X206962D01*
X207294Y17004D01*
X208759Y13467D01*
X211090Y10430D01*
X214127Y8099D01*
X217664Y6634D01*
X220190Y6302D01*
Y19530D01*
D02*
G37*
G36*
X221930Y141450D02*
X212232D01*
X212444Y139838D01*
X213557Y137152D01*
X215326Y134846D01*
X217632Y133077D01*
X220318Y131964D01*
X221930Y131752D01*
Y141450D01*
D02*
G37*
G36*
X121930Y260233D02*
X118797Y259821D01*
X115878Y258612D01*
X113371Y256688D01*
X111448Y254182D01*
X110239Y251263D01*
X109826Y248130D01*
X109858Y247888D01*
X109847Y247276D01*
X109793Y246601D01*
X109703Y245988D01*
X109580Y245433D01*
X109429Y244935D01*
X109251Y244488D01*
X109050Y244085D01*
X108823Y243720D01*
X108683Y243534D01*
X96516Y231367D01*
X96330Y231227D01*
X95965Y231000D01*
X95562Y230799D01*
X95115Y230621D01*
X94617Y230470D01*
X94063Y230347D01*
X93449Y230257D01*
X92775Y230203D01*
X92162Y230192D01*
X91920Y230224D01*
X88787Y229811D01*
X85868Y228602D01*
X83362Y226679D01*
X81438Y224172D01*
X80229Y221253D01*
X79816Y218120D01*
X80229Y214987D01*
X81438Y212068D01*
X83362Y209562D01*
X85868Y207638D01*
X88787Y206429D01*
X91920Y206017D01*
X95053Y206429D01*
X97972Y207638D01*
X100478Y209562D01*
X102402Y212068D01*
X103611Y214987D01*
X104024Y218120D01*
X103992Y218362D01*
X104003Y218974D01*
X104057Y219649D01*
X104147Y220262D01*
X104270Y220817D01*
X104421Y221315D01*
X104599Y221762D01*
X104801Y222165D01*
X105027Y222530D01*
X105168Y222716D01*
X117334Y234883D01*
X117520Y235023D01*
X117885Y235250D01*
X118287Y235451D01*
X118735Y235629D01*
X119233Y235780D01*
X119787Y235903D01*
X120401Y235993D01*
X121075Y236047D01*
X121688Y236058D01*
X121930Y236026D01*
X125063Y236439D01*
X127982Y237648D01*
X130489Y239571D01*
X132412Y242078D01*
X133621Y244997D01*
X134033Y248130D01*
X133621Y251263D01*
X132412Y254182D01*
X130489Y256688D01*
X127982Y258612D01*
X125063Y259821D01*
X121930Y260233D01*
D02*
G37*
G36*
X615688Y259560D02*
X602460D01*
Y246332D01*
X604986Y246664D01*
X608523Y248129D01*
X611560Y250460D01*
X613891Y253497D01*
X615356Y257034D01*
X615688Y259560D01*
D02*
G37*
G36*
X491508Y342580D02*
X481810D01*
Y332882D01*
X483422Y333094D01*
X486108Y334207D01*
X488414Y335976D01*
X490183Y338282D01*
X491296Y340968D01*
X491508Y342580D01*
D02*
G37*
G36*
X479270D02*
X469572D01*
X469784Y340968D01*
X470897Y338282D01*
X472666Y335976D01*
X474972Y334207D01*
X477658Y333094D01*
X479270Y332882D01*
Y342580D01*
D02*
G37*
G36*
Y354818D02*
X477658Y354606D01*
X474972Y353493D01*
X472666Y351724D01*
X470897Y349418D01*
X469784Y346732D01*
X469572Y345120D01*
X479270D01*
Y354818D01*
D02*
G37*
G36*
X237970Y388974D02*
X234837Y388561D01*
X231918Y387352D01*
X229412Y385429D01*
X227488Y382922D01*
X226279Y380003D01*
X225867Y376870D01*
X226279Y373737D01*
X227488Y370818D01*
X229412Y368312D01*
X229945Y367902D01*
X229998Y367822D01*
X230069Y367775D01*
X230120Y367706D01*
X230564Y367303D01*
X230847Y366995D01*
X231088Y366679D01*
X231294Y366352D01*
X231468Y366004D01*
X231511Y365892D01*
X202978Y337360D01*
X202586Y337046D01*
X202040Y336675D01*
X201483Y336359D01*
X200912Y336094D01*
X200320Y335877D01*
X199703Y335707D01*
X199054Y335583D01*
X198555Y335527D01*
X119857D01*
X119856Y335528D01*
X119537Y335582D01*
X119256Y335651D01*
X119008Y335734D01*
X118787Y335829D01*
X118588Y335935D01*
X118403Y336056D01*
X118227Y336195D01*
X118058Y336353D01*
X117995Y336435D01*
X115938Y338014D01*
X113541Y339007D01*
X110970Y339345D01*
X108399Y339007D01*
X106003Y338014D01*
X103945Y336435D01*
X102366Y334378D01*
X101374Y331981D01*
X101035Y329410D01*
X101374Y326839D01*
X102366Y324442D01*
X103945Y322385D01*
X106003Y320806D01*
X108399Y319814D01*
X110970Y319475D01*
X113541Y319814D01*
X115938Y320806D01*
X117995Y322385D01*
X118058Y322467D01*
X118227Y322625D01*
X118403Y322764D01*
X118588Y322884D01*
X118787Y322991D01*
X119008Y323086D01*
X119256Y323169D01*
X119537Y323239D01*
X119856Y323292D01*
X119857Y323293D01*
X196812D01*
X197101Y323241D01*
X197309Y323172D01*
X197386Y323131D01*
X197394Y323124D01*
X197401Y323116D01*
X197442Y323039D01*
X197511Y322831D01*
X197563Y322542D01*
Y314167D01*
X197562Y314166D01*
X197509Y313847D01*
X197439Y313566D01*
X197356Y313318D01*
X197261Y313097D01*
X197155Y312898D01*
X197034Y312713D01*
X196895Y312537D01*
X196737Y312368D01*
X196655Y312305D01*
X195076Y310247D01*
X194084Y307851D01*
X193745Y305280D01*
X194084Y302709D01*
X195076Y300312D01*
X196655Y298255D01*
X196737Y298192D01*
X196895Y298023D01*
X197034Y297847D01*
X197155Y297662D01*
X197261Y297463D01*
X197356Y297242D01*
X197439Y296994D01*
X197509Y296713D01*
X197562Y296394D01*
X197563Y296393D01*
Y216850D01*
X198028Y214509D01*
X199354Y212524D01*
X215033Y196846D01*
X215173Y196660D01*
X215399Y196295D01*
X215601Y195893D01*
X215779Y195445D01*
X215930Y194947D01*
X216053Y194393D01*
X216143Y193779D01*
X216197Y193105D01*
X216208Y192492D01*
X216176Y192250D01*
X216589Y189117D01*
X217798Y186198D01*
X219722Y183692D01*
X222228Y181768D01*
X225147Y180559D01*
X228280Y180147D01*
X231413Y180559D01*
X234332Y181768D01*
X236838Y183692D01*
X238762Y186198D01*
X239971Y189117D01*
X240383Y192250D01*
X239971Y195383D01*
X238762Y198302D01*
X236838Y200809D01*
X234332Y202732D01*
X231413Y203941D01*
X228280Y204354D01*
X228038Y204322D01*
X227425Y204333D01*
X226751Y204387D01*
X226138Y204477D01*
X225583Y204600D01*
X225085Y204751D01*
X224638Y204929D01*
X224235Y205131D01*
X223870Y205357D01*
X223684Y205497D01*
X209797Y219384D01*
Y245975D01*
X211068Y246058D01*
X211174Y245248D01*
X212287Y242562D01*
X214056Y240256D01*
X216362Y238487D01*
X219048Y237374D01*
X220660Y237162D01*
Y248130D01*
Y259098D01*
X219048Y258886D01*
X216362Y257773D01*
X214056Y256004D01*
X212287Y253698D01*
X211174Y251012D01*
X211068Y250202D01*
X209797Y250285D01*
Y296393D01*
X209798Y296394D01*
X209851Y296713D01*
X209921Y296994D01*
X210004Y297242D01*
X210099Y297463D01*
X210205Y297662D01*
X210326Y297847D01*
X210465Y298023D01*
X210623Y298192D01*
X210705Y298255D01*
X212284Y300312D01*
X213277Y302709D01*
X213615Y305280D01*
X213277Y307851D01*
X212284Y310247D01*
X210705Y312305D01*
X210623Y312368D01*
X210465Y312537D01*
X210326Y312713D01*
X210205Y312898D01*
X210099Y313097D01*
X210004Y313318D01*
X209921Y313566D01*
X209851Y313847D01*
X209798Y314166D01*
X209797Y314167D01*
Y324285D01*
X209853Y324784D01*
X209977Y325433D01*
X210147Y326050D01*
X210364Y326642D01*
X210629Y327213D01*
X210945Y327770D01*
X211316Y328316D01*
X211630Y328708D01*
X242296Y359374D01*
X243622Y361359D01*
X244088Y363700D01*
Y364492D01*
X244118Y364760D01*
X244207Y365216D01*
X244326Y365628D01*
X244472Y366004D01*
X244646Y366352D01*
X244851Y366679D01*
X245092Y366995D01*
X245376Y367303D01*
X245820Y367706D01*
X245871Y367775D01*
X245942Y367822D01*
X245995Y367902D01*
X246528Y368312D01*
X248452Y370818D01*
X249661Y373737D01*
X250074Y376870D01*
X249661Y380003D01*
X248452Y382922D01*
X246528Y385429D01*
X244022Y387352D01*
X241103Y388561D01*
X237970Y388974D01*
D02*
G37*
G36*
X599920Y259560D02*
X586692D01*
X587024Y257034D01*
X588489Y253497D01*
X590820Y250460D01*
X593857Y248129D01*
X597394Y246664D01*
X599920Y246332D01*
Y259560D01*
D02*
G37*
G36*
X602460Y275328D02*
Y262100D01*
X615688D01*
X615356Y264626D01*
X613891Y268163D01*
X611560Y271200D01*
X608523Y273531D01*
X604986Y274996D01*
X602460Y275328D01*
D02*
G37*
G36*
X307350Y265448D02*
X305738Y265236D01*
X303052Y264123D01*
X300746Y262354D01*
X298977Y260048D01*
X297864Y257362D01*
X297652Y255750D01*
X307350D01*
Y265448D01*
D02*
G37*
G36*
X309890D02*
Y255750D01*
X319588D01*
X319376Y257362D01*
X318263Y260048D01*
X316494Y262354D01*
X314188Y264123D01*
X311502Y265236D01*
X309890Y265448D01*
D02*
G37*
G36*
X599920Y275328D02*
X597394Y274996D01*
X593857Y273531D01*
X590820Y271200D01*
X588489Y268163D01*
X587024Y264626D01*
X586692Y262100D01*
X599920D01*
Y275328D01*
D02*
G37*
G36*
X22070Y326128D02*
Y312900D01*
X35298D01*
X34966Y315426D01*
X33501Y318963D01*
X31170Y322000D01*
X28133Y324331D01*
X24596Y325796D01*
X22070Y326128D01*
D02*
G37*
G36*
X19530D02*
X17004Y325796D01*
X13467Y324331D01*
X10430Y322000D01*
X8099Y318963D01*
X6634Y315426D01*
X6302Y312900D01*
X19530D01*
Y326128D01*
D02*
G37*
G36*
X223200Y259098D02*
Y249400D01*
X232898D01*
X232686Y251012D01*
X231573Y253698D01*
X229804Y256004D01*
X227498Y257773D01*
X224812Y258886D01*
X223200Y259098D01*
D02*
G37*
G36*
X0Y388590D02*
X-3627Y388232D01*
X-7114Y387174D01*
X-10328Y385457D01*
X-13145Y383145D01*
X-15457Y380328D01*
X-17175Y377114D01*
X-18232Y373627D01*
X-18590Y370000D01*
X-18232Y366373D01*
X-17175Y362886D01*
X-15457Y359672D01*
X-13145Y356855D01*
X-10328Y354543D01*
X-7114Y352826D01*
X-3627Y351768D01*
X0Y351410D01*
X3627Y351768D01*
X7114Y352826D01*
X10328Y354543D01*
X13145Y356855D01*
X15457Y359672D01*
X17175Y362886D01*
X18232Y366373D01*
X18590Y370000D01*
X18232Y373627D01*
X17175Y377114D01*
X15457Y380328D01*
X13145Y383145D01*
X10328Y385457D01*
X7114Y387174D01*
X3627Y388232D01*
X0Y388590D01*
D02*
G37*
G36*
X379410Y304255D02*
X376839Y303916D01*
X374442Y302924D01*
X372385Y301345D01*
X370806Y299287D01*
X369814Y296891D01*
X369475Y294320D01*
X369814Y291749D01*
X370806Y289352D01*
X372385Y287295D01*
X372467Y287232D01*
X372625Y287063D01*
X372764Y286887D01*
X372884Y286702D01*
X372991Y286503D01*
X373086Y286282D01*
X373169Y286034D01*
X373239Y285753D01*
X373292Y285434D01*
X373293Y285433D01*
Y254480D01*
Y231537D01*
X373260Y231306D01*
X373162Y230888D01*
X373020Y230461D01*
X372830Y230019D01*
X372584Y229560D01*
X372279Y229081D01*
X371909Y228583D01*
X371470Y228068D01*
X371045Y227627D01*
X370852Y227479D01*
X368928Y224972D01*
X367719Y222053D01*
X367307Y218920D01*
X367719Y215787D01*
X368928Y212868D01*
X370852Y210361D01*
X373358Y208438D01*
X376277Y207229D01*
X379410Y206817D01*
X382543Y207229D01*
X385462Y208438D01*
X387968Y210361D01*
X389892Y212868D01*
X391101Y215787D01*
X391513Y218920D01*
X391101Y222053D01*
X389892Y224972D01*
X387968Y227479D01*
X387775Y227627D01*
X387350Y228069D01*
X386911Y228583D01*
X386541Y229081D01*
X386236Y229560D01*
X385990Y230019D01*
X385800Y230461D01*
X385658Y230888D01*
X385560Y231306D01*
X385527Y231537D01*
Y247612D01*
X385579Y247901D01*
X385648Y248109D01*
X385689Y248186D01*
X385696Y248194D01*
X385704Y248201D01*
X385781Y248242D01*
X385989Y248311D01*
X386278Y248363D01*
X396003D01*
X396234Y248330D01*
X396652Y248232D01*
X397079Y248090D01*
X397521Y247899D01*
X397980Y247654D01*
X398459Y247349D01*
X398957Y246979D01*
X399472Y246540D01*
X399913Y246115D01*
X400061Y245921D01*
X402568Y243998D01*
X405487Y242789D01*
X408620Y242376D01*
X411753Y242789D01*
X414672Y243998D01*
X417178Y245921D01*
X419102Y248428D01*
X420311Y251347D01*
X420723Y254480D01*
X420311Y257613D01*
X419102Y260532D01*
X417178Y263039D01*
X414672Y264962D01*
X411753Y266171D01*
X408620Y266583D01*
X405487Y266171D01*
X402568Y264962D01*
X400061Y263039D01*
X399913Y262845D01*
X399472Y262419D01*
X398957Y261981D01*
X398459Y261611D01*
X397980Y261306D01*
X397521Y261060D01*
X397079Y260870D01*
X396652Y260728D01*
X396234Y260630D01*
X396003Y260597D01*
X386278D01*
X385989Y260649D01*
X385781Y260718D01*
X385704Y260759D01*
X385696Y260766D01*
X385689Y260774D01*
X385648Y260851D01*
X385579Y261059D01*
X385527Y261348D01*
Y285433D01*
X385528Y285434D01*
X385582Y285753D01*
X385651Y286034D01*
X385734Y286282D01*
X385829Y286503D01*
X385935Y286702D01*
X386056Y286887D01*
X386195Y287063D01*
X386353Y287232D01*
X386435Y287295D01*
X388014Y289352D01*
X389007Y291749D01*
X389345Y294320D01*
X389007Y296891D01*
X388014Y299287D01*
X386435Y301345D01*
X384378Y302924D01*
X381981Y303916D01*
X379410Y304255D01*
D02*
G37*
G36*
X307350Y253210D02*
X297652D01*
X297864Y251598D01*
X298977Y248912D01*
X300746Y246606D01*
X303052Y244837D01*
X305738Y243724D01*
X307350Y243512D01*
Y253210D01*
D02*
G37*
G36*
X232898Y246860D02*
X223200D01*
Y237162D01*
X224812Y237374D01*
X227498Y238487D01*
X229804Y240256D01*
X231573Y242562D01*
X232686Y245248D01*
X232898Y246860D01*
D02*
G37*
G36*
X434820Y369924D02*
X431687Y369511D01*
X428768Y368302D01*
X426261Y366379D01*
X424338Y363872D01*
X423129Y360953D01*
X422986Y359871D01*
X422895Y359649D01*
X422802Y359174D01*
X422751Y359023D01*
X422731Y358984D01*
X422638Y358943D01*
X422430Y358885D01*
X422248Y358857D01*
X292497D01*
X292266Y358890D01*
X291848Y358988D01*
X291421Y359130D01*
X290979Y359320D01*
X290520Y359566D01*
X290041Y359871D01*
X289543Y360241D01*
X289028Y360680D01*
X288587Y361105D01*
X288438Y361298D01*
X285932Y363222D01*
X283013Y364431D01*
X279880Y364843D01*
X276747Y364431D01*
X273828Y363222D01*
X271322Y361298D01*
X269398Y358792D01*
X268189Y355873D01*
X267777Y352740D01*
X268189Y349607D01*
X269398Y346688D01*
X271322Y344182D01*
X273828Y342258D01*
X276747Y341049D01*
X279880Y340636D01*
X283013Y341049D01*
X285932Y342258D01*
X288438Y344182D01*
X288587Y344375D01*
X289028Y344800D01*
X289543Y345239D01*
X290041Y345609D01*
X290520Y345914D01*
X290979Y346160D01*
X291421Y346350D01*
X291848Y346492D01*
X292266Y346590D01*
X292497Y346623D01*
X379692D01*
X379981Y346571D01*
X380189Y346502D01*
X380266Y346461D01*
X380274Y346454D01*
X380281Y346446D01*
X380322Y346369D01*
X380391Y346161D01*
X380443Y345872D01*
Y339567D01*
X380442Y339566D01*
X380388Y339247D01*
X380319Y338966D01*
X380236Y338718D01*
X380141Y338497D01*
X380035Y338298D01*
X379914Y338113D01*
X379775Y337937D01*
X379617Y337768D01*
X379535Y337705D01*
X377956Y335648D01*
X376964Y333251D01*
X376625Y330680D01*
X376964Y328109D01*
X377956Y325713D01*
X379535Y323655D01*
X381592Y322076D01*
X383989Y321084D01*
X386560Y320745D01*
X389131Y321084D01*
X391527Y322076D01*
X393585Y323655D01*
X395164Y325713D01*
X396157Y328109D01*
X396495Y330680D01*
X396157Y333251D01*
X395164Y335648D01*
X393585Y337705D01*
X393503Y337768D01*
X393345Y337937D01*
X393206Y338113D01*
X393086Y338298D01*
X392979Y338497D01*
X392884Y338718D01*
X392801Y338966D01*
X392731Y339247D01*
X392678Y339566D01*
X392677Y339567D01*
Y345872D01*
X392729Y346161D01*
X392798Y346369D01*
X392839Y346446D01*
X392846Y346454D01*
X392854Y346461D01*
X392931Y346502D01*
X393139Y346571D01*
X393428Y346623D01*
X425461D01*
X428737Y346510D01*
X430328Y346367D01*
X431544Y346186D01*
X431557Y346183D01*
X431687Y346129D01*
X431984Y346090D01*
X432011Y346084D01*
X432031Y346084D01*
X432068Y346079D01*
X432100Y346066D01*
X432163Y346066D01*
X434820Y345717D01*
X437953Y346129D01*
X440872Y347338D01*
X443378Y349262D01*
X445302Y351768D01*
X446511Y354687D01*
X446923Y357820D01*
X446511Y360953D01*
X445302Y363872D01*
X443378Y366379D01*
X440872Y368302D01*
X437953Y369511D01*
X434820Y369924D01*
D02*
G37*
G36*
X620000Y388590D02*
X616373Y388232D01*
X612886Y387174D01*
X609672Y385457D01*
X606855Y383145D01*
X604543Y380328D01*
X602826Y377114D01*
X601768Y373627D01*
X601410Y370000D01*
X601768Y366373D01*
X602826Y362886D01*
X604543Y359672D01*
X606855Y356855D01*
X609672Y354543D01*
X612886Y352826D01*
X616373Y351768D01*
X620000Y351410D01*
X623627Y351768D01*
X627114Y352826D01*
X630328Y354543D01*
X633145Y356855D01*
X635457Y359672D01*
X637174Y362886D01*
X638232Y366373D01*
X638590Y370000D01*
X638232Y373627D01*
X637174Y377114D01*
X635457Y380328D01*
X633145Y383145D01*
X630328Y385457D01*
X627114Y387174D01*
X623627Y388232D01*
X620000Y388590D01*
D02*
G37*
G36*
X319588Y253210D02*
X309890D01*
Y243512D01*
X311502Y243724D01*
X314188Y244837D01*
X316494Y246606D01*
X318263Y248912D01*
X319376Y251598D01*
X319588Y253210D01*
D02*
G37*
G36*
X19530Y310360D02*
X6302D01*
X6634Y307834D01*
X8099Y304297D01*
X10430Y301260D01*
X13467Y298929D01*
X17004Y297464D01*
X19530Y297132D01*
Y310360D01*
D02*
G37*
G36*
X35298D02*
X22070D01*
Y297132D01*
X24596Y297464D01*
X28133Y298929D01*
X31170Y301260D01*
X33501Y304297D01*
X34966Y307834D01*
X35298Y310360D01*
D02*
G37*
G36*
X481810Y354818D02*
Y345120D01*
X491508D01*
X491296Y346732D01*
X490183Y349418D01*
X488414Y351724D01*
X486108Y353493D01*
X483422Y354606D01*
X481810Y354818D01*
D02*
G37*
G36*
X36300Y276330D02*
X5300D01*
Y256123D01*
X5262Y255931D01*
X5300Y255740D01*
Y254321D01*
X5007Y253901D01*
X3843Y252524D01*
X-6386Y242296D01*
X-7712Y240311D01*
X-8177Y237970D01*
Y205337D01*
X-8210Y205106D01*
X-8308Y204688D01*
X-8450Y204261D01*
X-8640Y203819D01*
X-8886Y203360D01*
X-9191Y202881D01*
X-9561Y202383D01*
X-10000Y201868D01*
X-10425Y201427D01*
X-10618Y201278D01*
X-12542Y198772D01*
X-13751Y195853D01*
X-14164Y192720D01*
X-13751Y189587D01*
X-12542Y186668D01*
X-10618Y184161D01*
X-8112Y182238D01*
X-5193Y181029D01*
X-2060Y180616D01*
X1073Y181029D01*
X3992Y182238D01*
X6499Y184161D01*
X8422Y186668D01*
X9631Y189587D01*
X10043Y192720D01*
X9631Y195853D01*
X8422Y198772D01*
X6499Y201278D01*
X6305Y201427D01*
X5879Y201868D01*
X5441Y202383D01*
X5071Y202881D01*
X4766Y203360D01*
X4520Y203819D01*
X4330Y204261D01*
X4188Y204688D01*
X4090Y205106D01*
X4058Y205337D01*
Y235436D01*
X12276Y243655D01*
X13142Y244459D01*
X13830Y245009D01*
X14291Y245330D01*
X15710D01*
X15901Y245292D01*
X16093Y245330D01*
X36300D01*
Y276330D01*
D02*
G37*
%LPD*%
G36*
X410434Y203280D02*
X409848Y202591D01*
X409330Y201896D01*
X408882Y201192D01*
X408503Y200480D01*
X408192Y199761D01*
X407951Y199034D01*
X407778Y198299D01*
X407674Y197556D01*
X407640Y196806D01*
X402640D01*
X402606Y197556D01*
X402502Y198299D01*
X402329Y199034D01*
X402088Y199761D01*
X401777Y200480D01*
X401398Y201192D01*
X400950Y201896D01*
X400432Y202591D01*
X399846Y203280D01*
X399190Y203960D01*
X411090D01*
X410434Y203280D01*
D02*
G37*
G36*
X401489Y179983D02*
X400982Y179428D01*
X400530Y178830D01*
X400133Y178188D01*
X399789Y177503D01*
X399500Y176775D01*
X399265Y176003D01*
X399085Y175189D01*
X398959Y174331D01*
X398887Y173430D01*
X398870Y172485D01*
X390455Y180900D01*
X391399Y180917D01*
X392301Y180989D01*
X393159Y181115D01*
X393974Y181295D01*
X394745Y181530D01*
X395473Y181819D01*
X396158Y182163D01*
X396800Y182560D01*
X397398Y183012D01*
X397953Y183519D01*
X401489Y179983D01*
D02*
G37*
G36*
X121890Y186645D02*
X121256Y187324D01*
X120608Y187932D01*
X119946Y188468D01*
X119270Y188933D01*
X118581Y189326D01*
X117878Y189648D01*
X117161Y189898D01*
X116430Y190077D01*
X115685Y190184D01*
X114926Y190220D01*
X115216Y195220D01*
X115957Y195253D01*
X116697Y195352D01*
X117435Y195518D01*
X118170Y195749D01*
X118905Y196047D01*
X119637Y196410D01*
X120367Y196840D01*
X121096Y197336D01*
X121823Y197898D01*
X122548Y198527D01*
X121890Y186645D01*
D02*
G37*
G36*
X54220Y198015D02*
X54908Y197428D01*
X55604Y196910D01*
X56308Y196462D01*
X57020Y196082D01*
X57739Y195772D01*
X58466Y195530D01*
X59201Y195358D01*
X59943Y195254D01*
X60694Y195220D01*
Y190220D01*
X59943Y190186D01*
X59201Y190082D01*
X58466Y189909D01*
X57739Y189668D01*
X57020Y189357D01*
X56308Y188978D01*
X55604Y188529D01*
X54908Y188012D01*
X54220Y187425D01*
X53540Y186770D01*
Y198670D01*
X54220Y198015D01*
D02*
G37*
G36*
X99420Y190220D02*
X98470Y190170D01*
X97620Y190020D01*
X96870Y189770D01*
X96220Y189420D01*
X95670Y188970D01*
X95220Y188420D01*
X94870Y187770D01*
X94620Y187020D01*
X94470Y186170D01*
X94420Y185220D01*
X89420D01*
X89370Y186170D01*
X89220Y187020D01*
X88970Y187770D01*
X88620Y188420D01*
X88170Y188970D01*
X87620Y189420D01*
X86970Y189770D01*
X86220Y190020D01*
X85370Y190170D01*
X84420Y190220D01*
X91920Y195220D01*
X99420Y190220D01*
D02*
G37*
G36*
X94454Y130594D02*
X94558Y129851D01*
X94731Y129116D01*
X94972Y128389D01*
X95282Y127669D01*
X95662Y126958D01*
X96110Y126254D01*
X96628Y125559D01*
X97214Y124871D01*
X97870Y124190D01*
X85970D01*
X86625Y124871D01*
X87212Y125559D01*
X87730Y126254D01*
X88178Y126958D01*
X88558Y127669D01*
X88868Y128389D01*
X89109Y129116D01*
X89282Y129851D01*
X89385Y130594D01*
X89420Y131344D01*
X94420D01*
X94454Y130594D01*
D02*
G37*
G36*
X612877Y306343D02*
X612735Y305883D01*
Y305353D01*
X612877Y304752D01*
X613159Y304080D01*
X613584Y303337D01*
X614150Y302524D01*
X614857Y301640D01*
X616695Y299660D01*
X613159Y296125D01*
X612134Y297115D01*
X610296Y298671D01*
X609483Y299236D01*
X608740Y299660D01*
X608068Y299943D01*
X607467Y300085D01*
X606937D01*
X606477Y299943D01*
X606088Y299660D01*
X613159Y306731D01*
X612877Y306343D01*
D02*
G37*
G36*
X494669Y44893D02*
X494162Y44338D01*
X493710Y43740D01*
X493313Y43098D01*
X492969Y42413D01*
X492680Y41685D01*
X492445Y40914D01*
X492265Y40099D01*
X492139Y39241D01*
X492067Y38340D01*
X492050Y37395D01*
X483635Y45810D01*
X484580Y45827D01*
X485481Y45899D01*
X486339Y46025D01*
X487154Y46205D01*
X487925Y46440D01*
X488653Y46729D01*
X489338Y47073D01*
X489980Y47470D01*
X490578Y47922D01*
X491133Y48429D01*
X494669Y44893D01*
D02*
G37*
G36*
X531605Y168271D02*
X531275Y167851D01*
X530983Y167404D01*
X530730Y166932D01*
X530516Y166434D01*
X530341Y165910D01*
X530205Y165359D01*
X530108Y164783D01*
X530050Y164181D01*
X530030Y163553D01*
X525030D01*
X525011Y164181D01*
X524952Y164783D01*
X524855Y165359D01*
X524719Y165910D01*
X524544Y166434D01*
X524330Y166932D01*
X524077Y167404D01*
X523785Y167851D01*
X523455Y168271D01*
X523085Y168665D01*
X531975D01*
X531605Y168271D01*
D02*
G37*
G36*
X536119Y178254D02*
X535689Y177796D01*
X535304Y177329D01*
X534966Y176853D01*
X534673Y176367D01*
X534426Y175873D01*
X534225Y175369D01*
X534070Y174856D01*
X533961Y174335D01*
X533897Y173804D01*
X533880Y173263D01*
X527593Y179550D01*
X528134Y179567D01*
X528665Y179631D01*
X529187Y179740D01*
X529699Y179895D01*
X530203Y180096D01*
X530697Y180343D01*
X531183Y180636D01*
X531659Y180974D01*
X532126Y181359D01*
X532584Y181789D01*
X536119Y178254D01*
D02*
G37*
G36*
X273810Y246790D02*
X273130Y247446D01*
X272442Y248032D01*
X271746Y248549D01*
X271042Y248998D01*
X270331Y249377D01*
X269611Y249688D01*
X268884Y249930D01*
X268149Y250102D01*
X267407Y250205D01*
X266656Y250240D01*
Y255240D01*
X267407Y255275D01*
X268149Y255378D01*
X268884Y255550D01*
X269611Y255792D01*
X270331Y256103D01*
X271042Y256482D01*
X271746Y256931D01*
X272442Y257448D01*
X273130Y258034D01*
X273810Y258690D01*
Y246790D01*
D02*
G37*
G36*
X282380Y231984D02*
X282413Y231243D01*
X282512Y230503D01*
X282678Y229765D01*
X282909Y229030D01*
X283207Y228295D01*
X283570Y227563D01*
X284000Y226833D01*
X284496Y226104D01*
X285058Y225377D01*
X285687Y224652D01*
X273805Y225310D01*
X274484Y225944D01*
X275092Y226592D01*
X275628Y227254D01*
X276093Y227930D01*
X276486Y228619D01*
X276808Y229322D01*
X277058Y230040D01*
X277237Y230771D01*
X277344Y231515D01*
X277380Y232274D01*
X282380Y231984D01*
D02*
G37*
G36*
X285175Y245990D02*
X284588Y245301D01*
X284070Y244606D01*
X283622Y243902D01*
X283242Y243190D01*
X282932Y242471D01*
X282691Y241744D01*
X282518Y241009D01*
X282414Y240266D01*
X282380Y239516D01*
X277380D01*
X277346Y240266D01*
X277242Y241009D01*
X277069Y241744D01*
X276828Y242471D01*
X276518Y243190D01*
X276138Y243902D01*
X275690Y244606D01*
X275172Y245301D01*
X274585Y245990D01*
X273930Y246670D01*
X285830D01*
X285175Y245990D01*
D02*
G37*
G36*
X246487Y275840D02*
X246559Y274939D01*
X246685Y274081D01*
X246865Y273267D01*
X247100Y272495D01*
X247389Y271767D01*
X247733Y271082D01*
X248130Y270440D01*
X248582Y269842D01*
X249089Y269287D01*
X245553Y265751D01*
X244998Y266258D01*
X244400Y266710D01*
X243758Y267107D01*
X243073Y267451D01*
X242345Y267740D01*
X241574Y267975D01*
X240759Y268155D01*
X239901Y268281D01*
X239000Y268353D01*
X238055Y268370D01*
X246470Y276785D01*
X246487Y275840D01*
D02*
G37*
G36*
X3545Y86330D02*
X2866Y85696D01*
X2258Y85048D01*
X1722Y84386D01*
X1257Y83710D01*
X864Y83021D01*
X542Y82318D01*
X292Y81601D01*
X113Y80870D01*
X6Y80125D01*
X-30Y79366D01*
X-5030Y79656D01*
X-5063Y80397D01*
X-5162Y81137D01*
X-5328Y81875D01*
X-5559Y82611D01*
X-5857Y83345D01*
X-6220Y84077D01*
X-6650Y84808D01*
X-7146Y85536D01*
X-7708Y86263D01*
X-8336Y86988D01*
X3545Y86330D01*
D02*
G37*
G36*
X4Y59943D02*
X108Y59201D01*
X280Y58466D01*
X522Y57739D01*
X833Y57020D01*
X1212Y56308D01*
X1661Y55604D01*
X2178Y54908D01*
X2765Y54220D01*
X3420Y53540D01*
X-8480D01*
X-7825Y54220D01*
X-7238Y54908D01*
X-6720Y55604D01*
X-6272Y56308D01*
X-5893Y57020D01*
X-5582Y57739D01*
X-5340Y58466D01*
X-5168Y59201D01*
X-5064Y59943D01*
X-5030Y60694D01*
X-30D01*
X4Y59943D01*
D02*
G37*
G36*
X4690Y98014D02*
X5379Y97428D01*
X6074Y96910D01*
X6778Y96462D01*
X7490Y96082D01*
X8209Y95772D01*
X8936Y95531D01*
X9671Y95358D01*
X10414Y95254D01*
X11164Y95220D01*
Y90220D01*
X10414Y90185D01*
X9671Y90082D01*
X8936Y89909D01*
X8209Y89668D01*
X7490Y89358D01*
X6778Y88978D01*
X6074Y88530D01*
X5379Y88012D01*
X4690Y87425D01*
X4010Y86770D01*
Y98670D01*
X4690Y98014D01*
D02*
G37*
G36*
X41400Y86770D02*
X40720Y87425D01*
X40031Y88012D01*
X39336Y88530D01*
X38632Y88978D01*
X37920Y89358D01*
X37201Y89668D01*
X36474Y89909D01*
X35739Y90082D01*
X34997Y90185D01*
X34246Y90220D01*
Y95220D01*
X34997Y95254D01*
X35739Y95358D01*
X36474Y95531D01*
X37201Y95772D01*
X37920Y96082D01*
X38632Y96462D01*
X39336Y96910D01*
X40031Y97428D01*
X40720Y98014D01*
X41400Y98670D01*
Y86770D01*
D02*
G37*
G36*
X104221Y52765D02*
X104909Y52178D01*
X105604Y51660D01*
X106308Y51212D01*
X107020Y50833D01*
X107739Y50522D01*
X108466Y50280D01*
X109201Y50108D01*
X109944Y50005D01*
X110694Y49970D01*
Y44970D01*
X109944Y44935D01*
X109201Y44832D01*
X108466Y44660D01*
X107739Y44418D01*
X107020Y44107D01*
X106308Y43728D01*
X105604Y43280D01*
X104909Y42762D01*
X104221Y42175D01*
X103540Y41520D01*
Y53420D01*
X104221Y52765D01*
D02*
G37*
G36*
X157282Y18242D02*
X157880Y17790D01*
X158522Y17393D01*
X159207Y17049D01*
X159935Y16760D01*
X160707Y16525D01*
X161521Y16345D01*
X162379Y16219D01*
X163281Y16147D01*
X164225Y16130D01*
X155810Y7715D01*
X155793Y8659D01*
X155721Y9561D01*
X155595Y10419D01*
X155415Y11234D01*
X155180Y12005D01*
X154891Y12733D01*
X154547Y13418D01*
X154150Y14060D01*
X153698Y14658D01*
X153191Y15213D01*
X156727Y18749D01*
X157282Y18242D01*
D02*
G37*
G36*
X125736Y121495D02*
X125843Y120751D01*
X126022Y120020D01*
X126272Y119302D01*
X126594Y118599D01*
X126987Y117910D01*
X127452Y117234D01*
X127988Y116572D01*
X128596Y115924D01*
X129275Y115290D01*
X117394Y114632D01*
X118022Y115357D01*
X118584Y116084D01*
X119080Y116812D01*
X119510Y117543D01*
X119873Y118275D01*
X120171Y119010D01*
X120402Y119746D01*
X120568Y120483D01*
X120667Y121223D01*
X120700Y121964D01*
X125700Y122254D01*
X125736Y121495D01*
D02*
G37*
G36*
X128965Y102150D02*
X128378Y101461D01*
X127860Y100766D01*
X127412Y100062D01*
X127032Y99351D01*
X126722Y98631D01*
X126481Y97904D01*
X126308Y97169D01*
X126205Y96426D01*
X126170Y95676D01*
X121170D01*
X121136Y96426D01*
X121032Y97169D01*
X120859Y97904D01*
X120618Y98631D01*
X120308Y99351D01*
X119928Y100062D01*
X119480Y100766D01*
X118962Y101461D01*
X118376Y102150D01*
X117720Y102830D01*
X129620D01*
X128965Y102150D01*
D02*
G37*
G36*
X128495Y135970D02*
X127908Y135281D01*
X127390Y134586D01*
X126942Y133882D01*
X126562Y133170D01*
X126252Y132451D01*
X126011Y131724D01*
X125838Y130989D01*
X125735Y130246D01*
X125700Y129496D01*
X120700D01*
X120666Y130246D01*
X120562Y130989D01*
X120389Y131724D01*
X120148Y132451D01*
X119838Y133170D01*
X119458Y133882D01*
X119010Y134586D01*
X118492Y135281D01*
X117906Y135970D01*
X117250Y136650D01*
X129150D01*
X128495Y135970D01*
D02*
G37*
G36*
X121845Y239630D02*
X120900Y239613D01*
X119999Y239541D01*
X119141Y239415D01*
X118327Y239235D01*
X117555Y239000D01*
X116827Y238711D01*
X116142Y238367D01*
X115500Y237970D01*
X114902Y237518D01*
X114347Y237011D01*
X110811Y240547D01*
X111318Y241102D01*
X111770Y241700D01*
X112167Y242342D01*
X112511Y243027D01*
X112800Y243755D01*
X113035Y244527D01*
X113215Y245341D01*
X113341Y246199D01*
X113413Y247101D01*
X113430Y248045D01*
X121845Y239630D01*
D02*
G37*
G36*
X103039Y225703D02*
X102532Y225148D01*
X102080Y224550D01*
X101683Y223908D01*
X101339Y223223D01*
X101050Y222495D01*
X100815Y221723D01*
X100635Y220909D01*
X100509Y220051D01*
X100437Y219149D01*
X100420Y218205D01*
X92005Y226620D01*
X92949Y226637D01*
X93851Y226709D01*
X94709Y226835D01*
X95524Y227015D01*
X96295Y227250D01*
X97023Y227539D01*
X97708Y227883D01*
X98350Y228280D01*
X98948Y228732D01*
X99503Y229239D01*
X103039Y225703D01*
D02*
G37*
G36*
X206199Y314299D02*
X206258Y313697D01*
X206355Y313121D01*
X206491Y312570D01*
X206666Y312046D01*
X206880Y311548D01*
X207133Y311076D01*
X207425Y310629D01*
X207756Y310209D01*
X208125Y309815D01*
X199235D01*
X199605Y310209D01*
X199935Y310629D01*
X200227Y311076D01*
X200480Y311548D01*
X200694Y312046D01*
X200869Y312570D01*
X201005Y313121D01*
X201102Y313697D01*
X201161Y314299D01*
X201180Y314927D01*
X206180D01*
X206199Y314299D01*
D02*
G37*
G36*
X242858Y369836D02*
X242357Y369292D01*
X241915Y368714D01*
X241531Y368101D01*
X241207Y367453D01*
X240942Y366772D01*
X240735Y366055D01*
X240588Y365305D01*
X240499Y364520D01*
X240470Y363700D01*
X235470D01*
X235441Y364520D01*
X235352Y365305D01*
X235205Y366055D01*
X234998Y366772D01*
X234733Y367453D01*
X234409Y368101D01*
X234025Y368714D01*
X233583Y369292D01*
X233082Y369836D01*
X232522Y370346D01*
X243418D01*
X242858Y369836D01*
D02*
G37*
G36*
X115899Y333485D02*
X116319Y333155D01*
X116766Y332863D01*
X117238Y332610D01*
X117736Y332396D01*
X118260Y332221D01*
X118811Y332085D01*
X119387Y331988D01*
X119989Y331930D01*
X120617Y331910D01*
Y326910D01*
X119989Y326891D01*
X119387Y326832D01*
X118811Y326735D01*
X118260Y326599D01*
X117736Y326424D01*
X117238Y326210D01*
X116766Y325957D01*
X116319Y325665D01*
X115899Y325335D01*
X115505Y324965D01*
Y333855D01*
X115899Y333485D01*
D02*
G37*
G36*
X209715Y331910D02*
X209044Y331188D01*
X208443Y330437D01*
X207912Y329657D01*
X207453Y328847D01*
X207064Y328008D01*
X206746Y327140D01*
X206498Y326243D01*
X206321Y325316D01*
X206215Y324360D01*
X206180Y323374D01*
X201180Y321910D01*
X201130Y322860D01*
X200980Y323710D01*
X200730Y324460D01*
X200380Y325110D01*
X199930Y325660D01*
X199380Y326110D01*
X198730Y326460D01*
X197980Y326710D01*
X197130Y326860D01*
X196180Y326910D01*
X197645Y331910D01*
X198630Y331945D01*
X199586Y332051D01*
X200513Y332228D01*
X201410Y332476D01*
X202278Y332794D01*
X203117Y333183D01*
X203927Y333642D01*
X204707Y334173D01*
X205458Y334774D01*
X206180Y335446D01*
X209715Y331910D01*
D02*
G37*
G36*
X221252Y202862D02*
X221850Y202410D01*
X222492Y202013D01*
X223177Y201669D01*
X223905Y201380D01*
X224677Y201145D01*
X225491Y200965D01*
X226349Y200839D01*
X227250Y200767D01*
X228195Y200750D01*
X219780Y192335D01*
X219763Y193279D01*
X219691Y194181D01*
X219565Y195039D01*
X219385Y195854D01*
X219150Y196625D01*
X218861Y197353D01*
X218517Y198038D01*
X218120Y198680D01*
X217668Y199278D01*
X217161Y199833D01*
X220697Y203369D01*
X221252Y202862D01*
D02*
G37*
G36*
X207756Y300351D02*
X207425Y299931D01*
X207133Y299484D01*
X206880Y299012D01*
X206666Y298514D01*
X206491Y297990D01*
X206355Y297439D01*
X206258Y296863D01*
X206199Y296261D01*
X206180Y295633D01*
X201180D01*
X201161Y296261D01*
X201102Y296863D01*
X201005Y297439D01*
X200869Y297990D01*
X200694Y298514D01*
X200480Y299012D01*
X200227Y299484D01*
X199935Y299931D01*
X199605Y300351D01*
X199235Y300745D01*
X208125D01*
X207756Y300351D01*
D02*
G37*
G36*
X381960Y261030D02*
X382110Y260180D01*
X382360Y259430D01*
X382710Y258780D01*
X383160Y258230D01*
X383710Y257780D01*
X384360Y257430D01*
X385110Y257180D01*
X385960Y257030D01*
X386910Y256980D01*
Y251980D01*
X385960Y251930D01*
X385110Y251780D01*
X384360Y251530D01*
X383710Y251180D01*
X383160Y250730D01*
X382710Y250180D01*
X382360Y249530D01*
X382110Y248780D01*
X381960Y247930D01*
X381910Y246980D01*
X376910Y254480D01*
X381910Y261980D01*
X381960Y261030D01*
D02*
G37*
G36*
X381945Y231394D02*
X382048Y230651D01*
X382220Y229916D01*
X382462Y229189D01*
X382772Y228470D01*
X383152Y227758D01*
X383601Y227054D01*
X384118Y226359D01*
X384705Y225671D01*
X385360Y224990D01*
X373460D01*
X374115Y225671D01*
X374702Y226359D01*
X375219Y227054D01*
X375668Y227758D01*
X376048Y228470D01*
X376358Y229189D01*
X376600Y229916D01*
X376772Y230651D01*
X376875Y231394D01*
X376910Y232144D01*
X381910D01*
X381945Y231394D01*
D02*
G37*
G36*
X383485Y289391D02*
X383155Y288971D01*
X382863Y288524D01*
X382610Y288052D01*
X382396Y287554D01*
X382221Y287030D01*
X382085Y286479D01*
X381988Y285903D01*
X381930Y285301D01*
X381910Y284673D01*
X376910D01*
X376891Y285301D01*
X376832Y285903D01*
X376735Y286479D01*
X376599Y287030D01*
X376424Y287554D01*
X376210Y288052D01*
X375957Y288524D01*
X375665Y288971D01*
X375335Y289391D01*
X374965Y289785D01*
X383855D01*
X383485Y289391D01*
D02*
G37*
G36*
X402550Y248530D02*
X401870Y249186D01*
X401181Y249772D01*
X400486Y250289D01*
X399782Y250738D01*
X399071Y251117D01*
X398351Y251428D01*
X397624Y251670D01*
X396889Y251842D01*
X396147Y251945D01*
X395396Y251980D01*
Y256980D01*
X396147Y257015D01*
X396889Y257118D01*
X397624Y257290D01*
X398351Y257532D01*
X399071Y257843D01*
X399782Y258222D01*
X400486Y258671D01*
X401181Y259188D01*
X401870Y259774D01*
X402550Y260430D01*
Y248530D01*
D02*
G37*
G36*
X286630Y358035D02*
X287318Y357448D01*
X288014Y356931D01*
X288718Y356482D01*
X289429Y356102D01*
X290149Y355792D01*
X290876Y355550D01*
X291611Y355378D01*
X292353Y355275D01*
X293104Y355240D01*
Y350240D01*
X292353Y350205D01*
X291611Y350102D01*
X290876Y349930D01*
X290149Y349688D01*
X289429Y349378D01*
X288718Y348998D01*
X288014Y348549D01*
X287318Y348032D01*
X286630Y347445D01*
X285950Y346790D01*
Y358690D01*
X286630Y358035D01*
D02*
G37*
G36*
X394060Y350240D02*
X393110Y350190D01*
X392260Y350040D01*
X391510Y349790D01*
X390860Y349440D01*
X390310Y348990D01*
X389860Y348440D01*
X389510Y347790D01*
X389260Y347040D01*
X389110Y346190D01*
X389060Y345240D01*
X384060D01*
X384010Y346190D01*
X383860Y347040D01*
X383610Y347790D01*
X383260Y348440D01*
X382810Y348990D01*
X382260Y349440D01*
X381610Y349790D01*
X380860Y350040D01*
X380010Y350190D01*
X379060Y350240D01*
X386560Y355240D01*
X394060Y350240D01*
D02*
G37*
G36*
X432771Y349571D02*
X432187Y349698D01*
X430751Y349912D01*
X428957Y350073D01*
X424295Y350233D01*
X422905Y350240D01*
X421621Y355240D01*
X422438Y355277D01*
X423179Y355389D01*
X423845Y355575D01*
X424435Y355836D01*
X424951Y356171D01*
X425391Y356580D01*
X425755Y357064D01*
X426045Y357622D01*
X426259Y358255D01*
X426397Y358963D01*
X432771Y349571D01*
D02*
G37*
G36*
X389080Y339699D02*
X389138Y339097D01*
X389235Y338521D01*
X389371Y337970D01*
X389546Y337446D01*
X389760Y336948D01*
X390013Y336476D01*
X390305Y336029D01*
X390635Y335609D01*
X391005Y335215D01*
X382115D01*
X382485Y335609D01*
X382815Y336029D01*
X383107Y336476D01*
X383360Y336948D01*
X383574Y337446D01*
X383749Y337970D01*
X383885Y338521D01*
X383982Y339097D01*
X384041Y339699D01*
X384060Y340327D01*
X389060D01*
X389080Y339699D01*
D02*
G37*
G36*
X474Y205194D02*
X578Y204451D01*
X750Y203716D01*
X992Y202989D01*
X1303Y202269D01*
X1682Y201558D01*
X2130Y200854D01*
X2648Y200159D01*
X3234Y199471D01*
X3890Y198790D01*
X-8010D01*
X-7355Y199471D01*
X-6768Y200159D01*
X-6251Y200854D01*
X-5802Y201558D01*
X-5422Y202269D01*
X-5112Y202989D01*
X-4870Y203716D01*
X-4698Y204451D01*
X-4595Y205194D01*
X-4560Y205944D01*
X440D01*
X474Y205194D01*
D02*
G37*
G36*
X15901Y248860D02*
X15513Y249143D01*
X15053Y249285D01*
X14523D01*
X13922Y249143D01*
X13250Y248860D01*
X12507Y248436D01*
X11694Y247871D01*
X10810Y247163D01*
X8831Y245325D01*
X5295Y248860D01*
X6285Y249886D01*
X7840Y251724D01*
X8406Y252537D01*
X8831Y253280D01*
X9113Y253952D01*
X9255Y254553D01*
Y255083D01*
X9113Y255543D01*
X8831Y255931D01*
X15901Y248860D01*
D02*
G37*
D14*
X-2060Y192720D02*
Y237970D01*
X20800Y260830D01*
X-2530Y47470D02*
Y92250D01*
X-2060Y92720D02*
X47470D01*
X123200Y109370D02*
Y142720D01*
Y109370D02*
X123670Y108900D01*
Y48270D02*
Y108900D01*
Y48270D02*
X164310Y7630D01*
X97470Y47470D02*
X122870D01*
X123670Y48270D01*
X164310Y107630D02*
X185900Y86040D01*
X246860Y-4600D02*
X272260Y20800D01*
X185900Y16990D02*
Y86040D01*
Y16990D02*
X207490Y-4600D01*
X246860D01*
X91920Y118120D02*
Y192720D01*
X47470D02*
X91920D01*
X127810D01*
X91920Y218120D02*
X121930Y248130D01*
X203680Y216850D02*
Y305280D01*
Y216850D02*
X228280Y192250D01*
X203680Y305280D02*
Y329410D01*
X110970D02*
X203680D01*
X237970Y363700D01*
Y376870D01*
Y276870D02*
X262100Y252740D01*
X279880D01*
X156690Y115250D02*
X164310Y107630D01*
X156690Y115250D02*
Y274800D01*
X232890Y163040D02*
X326070D01*
X348460Y140650D01*
Y40650D02*
X358620D01*
X390370Y72400D01*
X379410Y254480D02*
X408620D01*
X379410Y218920D02*
Y254480D01*
Y294320D01*
X483550Y37310D02*
X527530Y81290D01*
Y173200D01*
X440370Y65250D02*
X452600Y77480D01*
X383550Y37310D02*
X440370D01*
Y-790D02*
Y37310D01*
Y65250D01*
X348460Y72870D02*
Y140650D01*
X329410Y53820D02*
X348460Y72870D01*
X329410Y10170D02*
Y53820D01*
Y10170D02*
X340370Y-790D01*
X272260Y20800D02*
X281150D01*
X319250Y-17300D01*
X494510D01*
X528800Y16990D01*
X405140Y187170D02*
Y210030D01*
X390370Y172400D02*
X405140Y187170D01*
X452600Y177480D02*
Y215910D01*
X480540Y243850D01*
X429740Y352740D02*
X434820Y357820D01*
X386560Y330680D02*
Y352740D01*
X279880D02*
X386560D01*
X429740D01*
X390370Y72400D02*
X434820Y116850D01*
Y257820D01*
X279880Y219390D02*
Y252740D01*
X279410Y218920D02*
X279880Y219390D01*
X527530Y173200D02*
X544040Y189710D01*
X599920D01*
X631670Y221460D01*
Y281150D01*
X601190Y311630D02*
X631670Y281150D01*
D15*
X-30000Y-30000D02*
X650000D01*
Y400000D01*
X-30000D02*
X650000D01*
X-30000Y-30000D02*
Y400000D01*
D16*
X123670Y108900D02*
D03*
Y8900D02*
D03*
X164310Y107630D02*
D03*
Y7630D02*
D03*
X440370Y-790D02*
D03*
X340370D02*
D03*
X452600Y177480D02*
D03*
Y77480D02*
D03*
X237970Y276870D02*
D03*
Y376870D02*
D03*
X379410Y218920D02*
D03*
X279410D02*
D03*
X434820Y257820D02*
D03*
Y357820D02*
D03*
X390370Y172400D02*
D03*
Y72400D02*
D03*
X47470Y192720D02*
D03*
Y92720D02*
D03*
X91920Y218120D02*
D03*
Y118120D02*
D03*
X97470Y47470D02*
D03*
X-2530D02*
D03*
X-2060Y92720D02*
D03*
Y192720D02*
D03*
X228280Y192250D02*
D03*
X128280D02*
D03*
X221930Y248130D02*
D03*
X121930D02*
D03*
X279880Y352740D02*
D03*
Y252740D02*
D03*
X308620Y254480D02*
D03*
X408620D02*
D03*
X348460Y140650D02*
D03*
Y40650D02*
D03*
X505140Y210030D02*
D03*
X405140D02*
D03*
X483550Y37310D02*
D03*
X383550D02*
D03*
X480540Y343850D02*
D03*
Y243850D02*
D03*
X223200Y142720D02*
D03*
X123200D02*
D03*
D17*
X272260Y20800D02*
D03*
D18*
X221460D02*
D03*
X601190Y260830D02*
D03*
X20800Y311630D02*
D03*
D19*
X601190D02*
D03*
X20800Y260830D02*
D03*
D20*
X0Y0D02*
D03*
X620000Y370000D02*
D03*
Y0D02*
D03*
X0Y370000D02*
D03*
D21*
X203680Y305280D02*
D03*
X110970Y329410D02*
D03*
X386560Y330680D02*
D03*
X156690Y274800D02*
D03*
X232890Y163040D02*
D03*
X379410Y294320D02*
D03*
X527530Y173200D02*
D03*
X528800Y16990D02*
D03*
M02*
