G04 Layer_Color=2752767*
%FSLAX44Y44*%
%MOMM*%
G71*
G01*
G75*
%ADD15C,0.1000*%
%ADD39C,0.0508*%
%ADD40C,0.0677*%
D15*
X-30000Y-30000D02*
X650000D01*
Y400000D01*
X-30000D02*
X650000D01*
X-30000Y-30000D02*
Y400000D01*
D39*
X121638Y106868D02*
Y110932D01*
X125702D01*
Y106868D01*
X121638D01*
Y6868D02*
Y10932D01*
X125702D01*
Y6868D01*
X121638D01*
X162278Y105598D02*
Y109662D01*
X166342D01*
Y105598D01*
X162278D01*
Y5598D02*
Y9662D01*
X166342D01*
Y5598D01*
X162278D01*
X438338Y-2822D02*
Y1242D01*
X442402D01*
Y-2822D01*
X438338D01*
X338338D02*
Y1242D01*
X342402D01*
Y-2822D01*
X338338D01*
X450568Y175448D02*
Y179512D01*
X454632D01*
Y175448D01*
X450568D01*
Y75448D02*
Y79512D01*
X454632D01*
Y75448D01*
X450568D01*
X235938Y274838D02*
Y278902D01*
X240002D01*
Y274838D01*
X235938D01*
Y374838D02*
Y378902D01*
X240002D01*
Y374838D01*
X235938D01*
X377378Y216888D02*
Y220952D01*
X381442D01*
Y216888D01*
X377378D01*
X277378D02*
Y220952D01*
X281442D01*
Y216888D01*
X277378D01*
X432788Y255788D02*
Y259852D01*
X436852D01*
Y255788D01*
X432788D01*
Y355788D02*
Y359852D01*
X436852D01*
Y355788D01*
X432788D01*
X388338Y170368D02*
Y174432D01*
X392402D01*
Y170368D01*
X388338D01*
Y70368D02*
Y74432D01*
X392402D01*
Y70368D01*
X388338D01*
X45438Y190688D02*
Y194752D01*
X49502D01*
Y190688D01*
X45438D01*
Y90688D02*
Y94752D01*
X49502D01*
Y90688D01*
X45438D01*
X89888Y216088D02*
Y220152D01*
X93952D01*
Y216088D01*
X89888D01*
Y116088D02*
Y120152D01*
X93952D01*
Y116088D01*
X89888D01*
X95438Y45438D02*
Y49502D01*
X99502D01*
Y45438D01*
X95438D01*
X-4562D02*
Y49502D01*
X-498D01*
Y45438D01*
X-4562D01*
X0Y-2032D02*
X-2032Y2032D01*
X2032D01*
X0Y-2032D01*
X620000Y367968D02*
X617968Y372032D01*
X622032D01*
X620000Y367968D01*
Y-2032D02*
X617968Y2032D01*
X622032D01*
X620000Y-2032D01*
X0Y367968D02*
X-2032Y372032D01*
X2032D01*
X0Y367968D01*
X-4092Y90688D02*
Y94752D01*
X-28D01*
Y90688D01*
X-4092D01*
Y190688D02*
Y194752D01*
X-28D01*
Y190688D01*
X-4092D01*
X226248Y190218D02*
Y194282D01*
X230312D01*
Y190218D01*
X226248D01*
X126248D02*
Y194282D01*
X130312D01*
Y190218D01*
X126248D01*
X219898Y246098D02*
Y250162D01*
X223962D01*
Y246098D01*
X219898D01*
X119898D02*
Y250162D01*
X123962D01*
Y246098D01*
X119898D01*
X277848Y350708D02*
Y354772D01*
X281912D01*
Y350708D01*
X277848D01*
Y250708D02*
Y254772D01*
X281912D01*
Y250708D01*
X277848D01*
X306588Y252448D02*
Y256512D01*
X310652D01*
Y252448D01*
X306588D01*
X406588D02*
Y256512D01*
X410652D01*
Y252448D01*
X406588D01*
X346428Y138618D02*
Y142682D01*
X350492D01*
Y138618D01*
X346428D01*
Y38618D02*
Y42682D01*
X350492D01*
Y38618D01*
X346428D01*
X503108Y207998D02*
Y212062D01*
X507172D01*
Y207998D01*
X503108D01*
X403108D02*
Y212062D01*
X407172D01*
Y207998D01*
X403108D01*
X481518Y35278D02*
Y39342D01*
X485582D01*
Y35278D01*
X481518D01*
X381518D02*
Y39342D01*
X385582D01*
Y35278D01*
X381518D01*
X478508Y341818D02*
Y345882D01*
X482572D01*
Y341818D01*
X478508D01*
Y241818D02*
Y245882D01*
X482572D01*
Y241818D01*
X478508D01*
X221168Y140688D02*
Y144752D01*
X225232D01*
Y140688D01*
X221168D01*
X121168D02*
Y144752D01*
X125232D01*
Y140688D01*
X121168D01*
X203680Y303248D02*
X204696Y304264D01*
X205712D01*
X204696Y305280D01*
X205712Y306296D01*
X204696D01*
X203680Y307312D01*
X202664Y306296D01*
X201648D01*
X202664Y305280D01*
X201648Y304264D01*
X202664D01*
X203680Y303248D01*
X110970Y327378D02*
X111986Y328394D01*
X113002D01*
X111986Y329410D01*
X113002Y330426D01*
X111986D01*
X110970Y331442D01*
X109954Y330426D01*
X108938D01*
X109954Y329410D01*
X108938Y328394D01*
X109954D01*
X110970Y327378D01*
X386560Y328648D02*
X387576Y329664D01*
X388592D01*
X387576Y330680D01*
X388592Y331696D01*
X387576D01*
X386560Y332712D01*
X385544Y331696D01*
X384528D01*
X385544Y330680D01*
X384528Y329664D01*
X385544D01*
X386560Y328648D01*
X156690Y272768D02*
X157706Y273784D01*
X158722D01*
X157706Y274800D01*
X158722Y275816D01*
X157706D01*
X156690Y276832D01*
X155674Y275816D01*
X154658D01*
X155674Y274800D01*
X154658Y273784D01*
X155674D01*
X156690Y272768D01*
X232890Y161008D02*
X233906Y162024D01*
X234922D01*
X233906Y163040D01*
X234922Y164056D01*
X233906D01*
X232890Y165072D01*
X231874Y164056D01*
X230858D01*
X231874Y163040D01*
X230858Y162024D01*
X231874D01*
X232890Y161008D01*
X379410Y292288D02*
X380426Y293304D01*
X381442D01*
X380426Y294320D01*
X381442Y295336D01*
X380426D01*
X379410Y296352D01*
X378394Y295336D01*
X377378D01*
X378394Y294320D01*
X377378Y293304D01*
X378394D01*
X379410Y292288D01*
X527530Y171168D02*
X528546Y172184D01*
X529562D01*
X528546Y173200D01*
X529562Y174216D01*
X528546D01*
X527530Y175232D01*
X526514Y174216D01*
X525498D01*
X526514Y173200D01*
X525498Y172184D01*
X526514D01*
X527530Y171168D01*
X528800Y14958D02*
X529816Y15974D01*
X530832D01*
X529816Y16990D01*
X530832Y18006D01*
X529816D01*
X528800Y19022D01*
X527784Y18006D01*
X526768D01*
X527784Y16990D01*
X526768Y15974D01*
X527784D01*
X528800Y14958D01*
D40*
X274292Y20800D02*
G03*
X274292Y20800I-2032J0D01*
G01*
X223492D02*
G03*
X223492Y20800I-2032J0D01*
G01*
X603222Y311630D02*
G03*
X603222Y311630I-2032J0D01*
G01*
Y260830D02*
G03*
X603222Y260830I-2032J0D01*
G01*
X22832D02*
G03*
X22832Y260830I-2032J0D01*
G01*
Y311630D02*
G03*
X22832Y311630I-2032J0D01*
G01*
M02*
