G04 Layer_Color=128*
%FSLAX44Y44*%
%MOMM*%
G71*
G01*
G75*
%ADD17C,0.1000*%
%ADD44C,0.0508*%
D17*
X0Y0D02*
Y600000D01*
Y0D02*
X1050000D01*
Y600000D01*
X0D02*
X1050000D01*
D44*
X986140Y102870D02*
X1000140D01*
X993140Y95870D02*
Y109870D01*
X986140Y153670D02*
X1000140D01*
X993140Y146670D02*
Y160670D01*
X735910Y178270D02*
X744910D01*
X740410Y173770D02*
Y182770D01*
X735910Y78270D02*
X744910D01*
X740410Y73770D02*
Y82770D01*
X294750Y40640D02*
X303750D01*
X299250Y36140D02*
Y45140D01*
X394750Y40640D02*
X403750D01*
X399250Y36140D02*
Y45140D01*
X801480Y243840D02*
X810480D01*
X805980Y239340D02*
Y248340D01*
X901480Y243840D02*
X910480D01*
X905980Y239340D02*
Y248340D01*
X470010Y567690D02*
X479010D01*
X474510Y563190D02*
Y572190D01*
X570010Y567690D02*
X579010D01*
X574510Y563190D02*
Y572190D01*
X632570Y480060D02*
X641570D01*
X637070Y475560D02*
Y484560D01*
X732570Y480060D02*
X741570D01*
X737070Y475560D02*
Y484560D01*
X810840Y178270D02*
X819840D01*
X815340Y173770D02*
Y182770D01*
X810840Y78270D02*
X819840D01*
X815340Y73770D02*
Y82770D01*
X887040Y178270D02*
X896040D01*
X891540Y173770D02*
Y182770D01*
X887040Y78270D02*
X896040D01*
X891540Y73770D02*
Y82770D01*
X293950Y148590D02*
X302950D01*
X298450Y144090D02*
Y153090D01*
X268550Y148590D02*
X277550D01*
X273050Y144090D02*
Y153090D01*
X243150Y148590D02*
X252150D01*
X247650Y144090D02*
Y153090D01*
X217750Y148590D02*
X226750D01*
X222250Y144090D02*
Y153090D01*
X192350Y148590D02*
X201350D01*
X196850Y144090D02*
Y153090D01*
X166950Y148590D02*
X175950D01*
X171450Y144090D02*
Y153090D01*
X141550Y148590D02*
X150550D01*
X146050Y144090D02*
Y153090D01*
X293950Y72390D02*
X302950D01*
X298450Y67890D02*
Y76890D01*
X268550Y72390D02*
X277550D01*
X273050Y67890D02*
Y76890D01*
X243150Y72390D02*
X252150D01*
X247650Y67890D02*
Y76890D01*
X217750Y72390D02*
X226750D01*
X222250Y67890D02*
Y76890D01*
X192350Y72390D02*
X201350D01*
X196850Y67890D02*
Y76890D01*
X166950Y72390D02*
X175950D01*
X171450Y67890D02*
Y76890D01*
X141550Y72390D02*
X150550D01*
X146050Y67890D02*
Y76890D01*
X95830Y224320D02*
X104830D01*
X100330Y219820D02*
Y228820D01*
X95830Y324320D02*
X104830D01*
X100330Y319820D02*
Y328820D01*
X94560Y575780D02*
X103560D01*
X99060Y571280D02*
Y580280D01*
X94560Y475780D02*
X103560D01*
X99060Y471280D02*
Y480280D01*
X227110Y325120D02*
X236110D01*
X231610Y320620D02*
Y329620D01*
X127110Y325120D02*
X136110D01*
X131610Y320620D02*
Y329620D01*
X227110Y476250D02*
X236110D01*
X231610Y471750D02*
Y480750D01*
X127110Y476250D02*
X136110D01*
X131610Y471750D02*
Y480750D01*
X20670Y273050D02*
X32670D01*
X26670Y267050D02*
Y279050D01*
X20670Y298450D02*
X32670D01*
X26670Y292450D02*
Y304450D01*
X20670Y323850D02*
X32670D01*
X26670Y317850D02*
Y329850D01*
X20670Y349250D02*
X32670D01*
X26670Y343250D02*
Y355250D01*
X20670Y374650D02*
X32670D01*
X26670Y368650D02*
Y380650D01*
X20670Y400050D02*
X32670D01*
X26670Y394050D02*
Y406050D01*
X20670Y425450D02*
X32670D01*
X26670Y419450D02*
Y431450D01*
X20670Y450850D02*
X32670D01*
X26670Y444850D02*
Y456850D01*
X20670Y476250D02*
X32670D01*
X26670Y470250D02*
Y482250D01*
X20670Y501650D02*
X32670D01*
X26670Y495650D02*
Y507650D01*
X20670Y527050D02*
X32670D01*
X26670Y521050D02*
Y533050D01*
X20670Y247650D02*
X32670D01*
X26670Y241650D02*
Y253650D01*
X574000Y248920D02*
X586000D01*
X580000Y242920D02*
Y254920D01*
X574000Y274320D02*
X586000D01*
X580000Y268320D02*
Y280320D01*
X574000Y299720D02*
X586000D01*
X580000Y293720D02*
Y305720D01*
X574000Y325120D02*
X586000D01*
X580000Y319120D02*
Y331120D01*
X574000Y350520D02*
X586000D01*
X580000Y344520D02*
Y356520D01*
X574000Y375920D02*
X586000D01*
X580000Y369920D02*
Y381920D01*
X574000Y401320D02*
X586000D01*
X580000Y395320D02*
Y407320D01*
X574000Y426720D02*
X586000D01*
X580000Y420720D02*
Y432720D01*
X574000Y452120D02*
X586000D01*
X580000Y446120D02*
Y458120D01*
X574000Y477520D02*
X586000D01*
X580000Y471520D02*
Y483520D01*
X574000Y502920D02*
X586000D01*
X580000Y496920D02*
Y508920D01*
X574000Y223520D02*
X586000D01*
X580000Y217520D02*
Y229520D01*
X430460Y325120D02*
X439460D01*
X434960Y320620D02*
Y329620D01*
X430460Y299720D02*
X439460D01*
X434960Y295220D02*
Y304220D01*
X430460Y274320D02*
X439460D01*
X434960Y269820D02*
Y278820D01*
X430460Y248920D02*
X439460D01*
X434960Y244420D02*
Y253420D01*
X430460Y426720D02*
X439460D01*
X434960Y422220D02*
Y431220D01*
X430460Y401320D02*
X439460D01*
X434960Y396820D02*
Y405820D01*
X430460Y375920D02*
X439460D01*
X434960Y371420D02*
Y380420D01*
X430460Y350520D02*
X439460D01*
X434960Y346020D02*
Y355020D01*
X279360Y325120D02*
X288360D01*
X283860Y320620D02*
Y329620D01*
X279360Y299720D02*
X288360D01*
X283860Y295220D02*
Y304220D01*
X279360Y274320D02*
X288360D01*
X283860Y269820D02*
Y278820D01*
X279360Y248920D02*
X288360D01*
X283860Y244420D02*
Y253420D01*
X430460Y452120D02*
X439460D01*
X434960Y447620D02*
Y456620D01*
X430460Y477520D02*
X439460D01*
X434960Y473020D02*
Y482020D01*
X430460Y502920D02*
X439460D01*
X434960Y498420D02*
Y507420D01*
X430460Y528320D02*
X439460D01*
X434960Y523820D02*
Y532820D01*
X279360Y350520D02*
X288360D01*
X283860Y346020D02*
Y355020D01*
X279360Y375920D02*
X288360D01*
X283860Y371420D02*
Y380420D01*
X279360Y401320D02*
X288360D01*
X283860Y396820D02*
Y405820D01*
X279360Y426720D02*
X288360D01*
X283860Y422220D02*
Y431220D01*
X279360Y452120D02*
X288360D01*
X283860Y447620D02*
Y456620D01*
X279360Y477520D02*
X288360D01*
X283860Y473020D02*
Y482020D01*
X279360Y502920D02*
X288360D01*
X283860Y498420D02*
Y507420D01*
X279360Y528320D02*
X288360D01*
X283860Y523820D02*
Y532820D01*
X988680Y560070D02*
X1002680D01*
X995680Y553070D02*
Y567070D01*
X988680Y509270D02*
X1002680D01*
X995680Y502270D02*
Y516270D01*
X902280Y465620D02*
X911280D01*
X906780Y461120D02*
Y470120D01*
X902280Y565620D02*
X911280D01*
X906780Y561120D02*
Y570120D01*
X851480Y382270D02*
X860480D01*
X855980Y377770D02*
Y386770D01*
X800680Y382270D02*
X809680D01*
X805180Y377770D02*
Y386770D01*
X749880Y567690D02*
X758880D01*
X754380Y563190D02*
Y572190D01*
X800680Y567690D02*
X809680D01*
X805180Y563190D02*
Y572190D01*
M02*
