M48
;Layer_Color=9474304
;FILE_FORMAT=4:4
METRIC,LZ
;TYPE=PLATED
T1F00S00C0.9000
T2F00S00C1.2000
T3F00S00C1.4000
%
T01
X0074041Y0007827
X0081534
X0089154
X0039925Y0004064
X0029925
X0029845Y0007239
X0027305
X0024765
X0022225
X0019685
X0017145
X0014605
Y0014859
X0017145
X0019685
X0022225
X0010033Y0022432
Y0032432
X0013161Y0032512
X0023161
X0028386
Y0029972
Y0027432
Y0024892
Y0035052
Y0037592
Y0040132
Y0042672
Y0045212
X0043496
Y0042672
Y0040132
Y0037592
Y0035052
Y0032512
Y0029972
Y0027432
Y0024892
X0029845Y0014859
X0027305
X0024765
X0074041Y0017827
X0081534
X0080598Y0024384
X0090598
X0089154Y0017827
X0085598Y0038227
X0080518
X0090678Y0046562
Y0056562
X0080518Y0056769
X0075438
X0073707Y0048006
X0063707
X0057451Y0056769
X0047451
X0043496Y0052832
Y0050292
Y0047752
X0028386
Y0050292
Y0052832
X0023161Y0047625
X0013161
X0009906Y0047578
Y0057578
T02
X0002667Y0024765
Y0027305
Y0029845
Y0032385
Y0034925
Y0037465
Y0040005
Y0042545
Y0045085
X0058Y0045212
Y0042672
Y0040132
Y0037592
Y0035052
Y0032512
Y0029972
Y0027432
Y0024892
Y0022352
Y0047752
Y0050292
X0002667Y0050165
Y0047625
Y0052705
T03
X0099314Y0010287
Y0015367
X0099568Y0050927
Y0056007
M30
