G04 Layer_Color=8388736*
%FSLAX44Y44*%
%MOMM*%
G71*
G01*
G75*
%ADD15C,0.1000*%
%ADD29R,0.8032X1.9032*%
%ADD30O,0.8032X1.9032*%
%ADD31R,1.9032X0.8032*%
%ADD32O,1.9032X0.8032*%
%ADD33C,1.9032*%
%ADD34R,2.6032X2.6032*%
%ADD35C,2.6032*%
%ADD36R,2.6032X2.6032*%
%ADD37C,3.2032*%
%ADD38C,1.4732*%
D15*
X-30000Y-30000D02*
X650000D01*
Y400000D01*
X-30000D02*
X650000D01*
X-30000Y-30000D02*
Y400000D01*
D29*
X540230Y150710D02*
D03*
D30*
X527530D02*
D03*
X514830D02*
D03*
X502130D02*
D03*
X540230Y101710D02*
D03*
X527530D02*
D03*
X514830D02*
D03*
X502130D02*
D03*
D31*
X365340Y326870D02*
D03*
X310730Y137640D02*
D03*
X132190Y337030D02*
D03*
D32*
X365340Y339570D02*
D03*
Y352270D02*
D03*
Y364970D02*
D03*
X316340Y326870D02*
D03*
Y339570D02*
D03*
Y352270D02*
D03*
Y364970D02*
D03*
X310730Y150340D02*
D03*
Y163040D02*
D03*
Y175740D02*
D03*
X261730Y137640D02*
D03*
Y150340D02*
D03*
Y163040D02*
D03*
Y175740D02*
D03*
X132190Y324330D02*
D03*
Y311630D02*
D03*
Y298930D02*
D03*
X181190Y337030D02*
D03*
Y324330D02*
D03*
Y311630D02*
D03*
Y298930D02*
D03*
D33*
X123670Y108900D02*
D03*
Y8900D02*
D03*
X164310Y107630D02*
D03*
Y7630D02*
D03*
X440370Y-790D02*
D03*
X340370D02*
D03*
X452600Y177480D02*
D03*
Y77480D02*
D03*
X237970Y276870D02*
D03*
Y376870D02*
D03*
X379410Y218920D02*
D03*
X279410D02*
D03*
X434820Y257820D02*
D03*
Y357820D02*
D03*
X390370Y172400D02*
D03*
Y72400D02*
D03*
X47470Y192720D02*
D03*
Y92720D02*
D03*
X91920Y218120D02*
D03*
Y118120D02*
D03*
X97470Y47470D02*
D03*
X-2530D02*
D03*
X-2060Y92720D02*
D03*
Y192720D02*
D03*
X228280Y192250D02*
D03*
X128280D02*
D03*
X221930Y248130D02*
D03*
X121930D02*
D03*
X279880Y352740D02*
D03*
Y252740D02*
D03*
X308620Y254480D02*
D03*
X408620D02*
D03*
X348460Y140650D02*
D03*
Y40650D02*
D03*
X505140Y210030D02*
D03*
X405140D02*
D03*
X483550Y37310D02*
D03*
X383550D02*
D03*
X480540Y343850D02*
D03*
Y243850D02*
D03*
X223200Y142720D02*
D03*
X123200D02*
D03*
D34*
X272260Y20800D02*
D03*
D35*
X221460D02*
D03*
X601190Y260830D02*
D03*
X20800Y311630D02*
D03*
D36*
X601190D02*
D03*
X20800Y260830D02*
D03*
D37*
X0Y0D02*
D03*
X620000Y370000D02*
D03*
Y0D02*
D03*
X0Y370000D02*
D03*
D38*
X203680Y305280D02*
D03*
X110970Y329410D02*
D03*
X386560Y330680D02*
D03*
X156690Y274800D02*
D03*
X232890Y163040D02*
D03*
X379410Y294320D02*
D03*
X527530Y173200D02*
D03*
X528800Y16990D02*
D03*
M02*
