M48
;Layer_Color=9474304
;FILE_FORMAT=4:4
METRIC,LZ
;TYPE=PLATED
T1F00S00C0.7110
T2F00S00C0.9000
T3F00S00C1.4000
;TYPE=NON_PLATED
T4F00S00C3.0000
%
T01
X005288Y0001699
X0052753Y001732
X0037941Y0029432
X0038656Y0033068
X0020368Y0030528
X0015669Y002748
X0011097Y0032941
X0023289Y0016304
T02
X-0000253Y0004747
X-0000206Y0009272
X0004747
X0012367Y001089
X0016431Y0010763
Y0000763
X0012367Y000089
X0009747Y0004747
X0034846Y0004065
X0038355Y0003731
X0039037Y000724
X004526Y0007748
X0048355Y0003731
X0044037Y-0000079
X0034037
X0034846Y0014065
X0039037Y001724
X0040514Y0021003
X0037941Y0021892
X0040862Y0025448
X0043482Y0025782
X0048054Y0024385
X0050514Y0021003
X004526Y0017748
X0048054Y0034385
X0043482Y0035782
X0030862Y0025448
X0027988Y0025274
X0027941Y0021892
X0022828Y0019225
X002232Y0014272
X001232
X0012828Y0019225
X0009192Y0021812
X0012193Y0024813
X0022193
X0023797Y0027687
Y0037687
X0027988Y0035274
X0004747Y0019272
X-0000206
X0009192Y0011812
T03
X0022146Y000208
X0027226
X0060119Y0026083
Y0031163
X000208
Y0026083
T04
X0Y0
X0062
Y0037
X0
M30
