G04 Layer_Color=32768*
%FSLAX44Y44*%
%MOMM*%
G71*
G01*
G75*
%ADD15C,0.1000*%
%ADD27C,0.1524*%
%ADD29C,0.2540*%
D15*
X0Y0D02*
Y900000D01*
X1050000D01*
Y0D02*
Y900000D01*
X0Y0D02*
X1050000D01*
D27*
X1128011Y410387D02*
X1130551Y412927D01*
Y418005D01*
X1128011Y420544D01*
X1117855D01*
X1115316Y418005D01*
Y412927D01*
X1117855Y410387D01*
X1120394D01*
X1122933Y412927D01*
Y420544D01*
X1117855Y425623D02*
X1115316Y428162D01*
Y433240D01*
X1117855Y435779D01*
X1128011D01*
X1130551Y433240D01*
Y428162D01*
X1128011Y425623D01*
X1117855D01*
X1133090Y443397D02*
X1130551Y445936D01*
X1128011D01*
Y443397D01*
X1130551D01*
Y445936D01*
X1133090Y443397D01*
X1135629Y440858D01*
X1117855Y456093D02*
X1115316Y458632D01*
Y463710D01*
X1117855Y466249D01*
X1128011D01*
X1130551Y463710D01*
Y458632D01*
X1128011Y456093D01*
X1117855D01*
Y471328D02*
X1115316Y473867D01*
Y478945D01*
X1117855Y481484D01*
X1128011D01*
X1130551Y478945D01*
Y473867D01*
X1128011Y471328D01*
X1117855D01*
X479040Y-48511D02*
X484118D01*
X481579D01*
Y-33276D01*
X479040Y-35815D01*
X491735D02*
X494275Y-33276D01*
X499353D01*
X501892Y-35815D01*
Y-45971D01*
X499353Y-48511D01*
X494275D01*
X491735Y-45971D01*
Y-35815D01*
X517127Y-33276D02*
X506970D01*
Y-40893D01*
X512049Y-38354D01*
X514588D01*
X517127Y-40893D01*
Y-45971D01*
X514588Y-48511D01*
X509510D01*
X506970Y-45971D01*
X524745Y-51050D02*
X527284Y-48511D01*
Y-45971D01*
X524745D01*
Y-48511D01*
X527284D01*
X524745Y-51050D01*
X522206Y-53589D01*
X537441Y-35815D02*
X539980Y-33276D01*
X545058D01*
X547597Y-35815D01*
Y-45971D01*
X545058Y-48511D01*
X539980D01*
X537441Y-45971D01*
Y-35815D01*
X552676D02*
X555215Y-33276D01*
X560293D01*
X562832Y-35815D01*
Y-45971D01*
X560293Y-48511D01*
X555215D01*
X552676Y-45971D01*
Y-35815D01*
D29*
X1053040Y900000D02*
X1121410D01*
X1053040Y0D02*
X1121410D01*
X1118870Y485549D02*
Y900000D01*
Y0D02*
Y406324D01*
X1113790Y884760D02*
X1118870Y900000D01*
X1123950Y884760D01*
X1118870Y0D02*
X1123950Y15240D01*
X1113790D02*
X1118870Y0D01*
X0Y-39370D02*
Y-3040D01*
X1050000Y-39370D02*
Y-3040D01*
X0Y-36830D02*
X474976D01*
X566897D02*
X1050000D01*
X0D02*
X15240Y-41910D01*
X0Y-36830D02*
X15240Y-31750D01*
X1034760D02*
X1050000Y-36830D01*
X1034760Y-41910D02*
X1050000Y-36830D01*
M02*
