G04 Layer_Color=16711935*
%FSLAX44Y44*%
%MOMM*%
G71*
G01*
G75*
%ADD10C,0.3000*%
%ADD14C,4.0000*%
%ADD15C,0.1000*%
%ADD33C,0.5500*%
%ADD35C,1.7032*%
%ADD36R,1.7032X1.7032*%
%ADD37R,2.6032X2.6032*%
%ADD38C,2.6032*%
%ADD39R,2.6032X2.6032*%
%ADD40C,1.9032*%
%ADD41R,1.9032X1.9032*%
%ADD42C,2.0032*%
%ADD43R,2.0032X2.0032*%
%ADD44C,1.4732*%
D10*
X203011Y62399D02*
G03*
X239547Y62563I18219J10961D01*
G01*
X238886Y62120D02*
G03*
X203530Y62054I-17656J-11843D01*
G01*
X228259Y61930D02*
G03*
X228259Y61930I-7279J0D01*
G01*
D14*
X54610Y808990D02*
X76200D01*
X78740Y811530D01*
X141440Y874230D01*
X784060Y551180D02*
Y595160D01*
X141440Y874230D02*
X723900D01*
X838130Y760000D01*
X979150D01*
X613410Y761200D02*
Y824230D01*
Y761200D02*
X645160Y729450D01*
Y670560D02*
Y729450D01*
Y670560D02*
X708660D01*
X784060Y595160D01*
D15*
X0Y0D02*
Y900000D01*
X1050000D01*
Y0D02*
Y900000D01*
X0Y0D02*
X1050000D01*
D33*
X191230Y42680D02*
X251230D01*
X221180Y94230D02*
X251230Y42680D01*
X191230D02*
X221180Y94230D01*
D35*
X502280Y523240D02*
D03*
Y497840D02*
D03*
Y472440D02*
D03*
Y447040D02*
D03*
X422280D02*
D03*
Y472440D02*
D03*
Y497840D02*
D03*
Y421640D02*
D03*
Y396240D02*
D03*
Y370840D02*
D03*
Y345440D02*
D03*
Y294640D02*
D03*
Y320040D02*
D03*
X502280Y345440D02*
D03*
Y370840D02*
D03*
Y396240D02*
D03*
Y421640D02*
D03*
Y320040D02*
D03*
Y294640D02*
D03*
D36*
X422280Y523240D02*
D03*
D37*
X54610Y808990D02*
D03*
X979150Y190000D02*
D03*
Y810000D02*
D03*
D38*
X54610Y859790D02*
D03*
X613410Y824230D02*
D03*
X529820Y58890D02*
D03*
X389820D02*
D03*
X979150Y90000D02*
D03*
Y140000D02*
D03*
Y710000D02*
D03*
Y760000D02*
D03*
D39*
X562610Y824230D02*
D03*
X580620Y58890D02*
D03*
X440620D02*
D03*
D40*
X330200Y131610D02*
D03*
Y231610D02*
D03*
X214160Y523240D02*
D03*
X314160D02*
D03*
X489420Y231140D02*
D03*
X389420D02*
D03*
X464020Y180340D02*
D03*
X364020D02*
D03*
X316230Y371640D02*
D03*
Y471640D02*
D03*
X368770Y318770D02*
D03*
X268770D02*
D03*
X563880Y447510D02*
D03*
Y347510D02*
D03*
X644360Y730250D02*
D03*
X544360D02*
D03*
X177800Y875500D02*
D03*
Y775500D02*
D03*
X269240Y872960D02*
D03*
Y772960D02*
D03*
X836930Y759930D02*
D03*
Y659930D02*
D03*
X434340Y874230D02*
D03*
Y774230D02*
D03*
X361950Y598970D02*
D03*
Y698970D02*
D03*
X422910Y568490D02*
D03*
Y668490D02*
D03*
X781050Y817080D02*
D03*
Y717080D02*
D03*
X361950Y531330D02*
D03*
Y431330D02*
D03*
X246380Y695160D02*
D03*
Y595160D02*
D03*
X299720D02*
D03*
Y695160D02*
D03*
X731050Y90000D02*
D03*
X831050D02*
D03*
X567690Y293840D02*
D03*
Y193840D02*
D03*
X568960Y473240D02*
D03*
Y573240D02*
D03*
X615950Y400000D02*
D03*
Y300000D02*
D03*
Y468630D02*
D03*
X757390Y622300D02*
D03*
X657390D02*
D03*
X496570Y582460D02*
D03*
Y682460D02*
D03*
X704850Y670090D02*
D03*
Y770090D02*
D03*
X644360Y669290D02*
D03*
X544360D02*
D03*
X784060Y551180D02*
D03*
X684060D02*
D03*
D41*
X615950Y519430D02*
D03*
D42*
Y194310D02*
D03*
D43*
Y219710D02*
D03*
D44*
X910590Y509270D02*
D03*
M02*
