G04 Layer_Physical_Order=2*
G04 Layer_Color=13278208*
%FSLAX44Y44*%
%MOMM*%
G71*
G01*
G75*
%ADD16C,2.0000*%
%ADD18C,0.1000*%
%ADD19C,1.5000*%
%ADD20R,1.5000X1.5000*%
%ADD21C,1.7000*%
%ADD22R,2.4000X2.4000*%
%ADD23C,2.4000*%
%ADD24R,2.4000X2.4000*%
%ADD25C,1.5000*%
%ADD26R,1.5000X1.5000*%
%ADD27C,1.8000*%
%ADD28R,1.8000X1.8000*%
%ADD29C,3.0000*%
%ADD30C,1.2700*%
%ADD31C,1.0000*%
G36*
X648208Y1270D02*
X1143D01*
Y447675D01*
X648208D01*
Y1270D01*
D02*
G37*
%LPC*%
G36*
X420370Y252230D02*
Y242532D01*
X430068D01*
X429856Y244144D01*
X428743Y246830D01*
X426974Y249136D01*
X424668Y250905D01*
X421982Y252018D01*
X420370Y252230D01*
D02*
G37*
G36*
X370840Y152397D02*
X367958Y152018D01*
X365272Y150905D01*
X362966Y149136D01*
X361197Y146830D01*
X360084Y144144D01*
X359705Y141262D01*
X360084Y138380D01*
X361197Y135694D01*
X362966Y133388D01*
X365272Y131619D01*
X367958Y130506D01*
X370840Y130127D01*
X373722Y130506D01*
X376408Y131619D01*
X378714Y133388D01*
X380483Y135694D01*
X381596Y138380D01*
X381975Y141262D01*
X381596Y144144D01*
X380483Y146830D01*
X378714Y149136D01*
X376408Y150905D01*
X373722Y152018D01*
X370840Y152397D01*
D02*
G37*
G36*
X469900Y252230D02*
Y242532D01*
X479598D01*
X479386Y244144D01*
X478273Y246830D01*
X476504Y249136D01*
X474198Y250905D01*
X471512Y252018D01*
X469900Y252230D01*
D02*
G37*
G36*
X467360D02*
X465748Y252018D01*
X463062Y250905D01*
X460756Y249136D01*
X458987Y246830D01*
X457874Y244144D01*
X457662Y242532D01*
X467360D01*
Y252230D01*
D02*
G37*
G36*
X326390D02*
Y242532D01*
X336088D01*
X335876Y244144D01*
X334763Y246830D01*
X332994Y249136D01*
X330688Y250905D01*
X328002Y252018D01*
X326390Y252230D01*
D02*
G37*
G36*
X372110D02*
Y242532D01*
X381808D01*
X381596Y244144D01*
X380483Y246830D01*
X378714Y249136D01*
X376408Y250905D01*
X373722Y252018D01*
X372110Y252230D01*
D02*
G37*
G36*
X325120Y152397D02*
X322238Y152018D01*
X319552Y150905D01*
X317246Y149136D01*
X315477Y146830D01*
X314364Y144144D01*
X313985Y141262D01*
X314364Y138380D01*
X315477Y135694D01*
X317246Y133388D01*
X319552Y131619D01*
X322238Y130506D01*
X325120Y130127D01*
X328002Y130506D01*
X330688Y131619D01*
X332994Y133388D01*
X334763Y135694D01*
X335876Y138380D01*
X336255Y141262D01*
X335876Y144144D01*
X334763Y146830D01*
X332994Y149136D01*
X330688Y150905D01*
X328002Y152018D01*
X325120Y152397D01*
D02*
G37*
G36*
X167170Y333502D02*
X157472D01*
X157684Y331890D01*
X158797Y329204D01*
X160566Y326898D01*
X162872Y325129D01*
X165558Y324016D01*
X167170Y323804D01*
Y333502D01*
D02*
G37*
G36*
X179408D02*
X169710D01*
Y323804D01*
X171322Y324016D01*
X174008Y325129D01*
X176314Y326898D01*
X178083Y329204D01*
X179196Y331890D01*
X179408Y333502D01*
D02*
G37*
G36*
X595630Y341650D02*
X593104Y341318D01*
X589567Y339853D01*
X586530Y337522D01*
X584199Y334485D01*
X582734Y330948D01*
X582402Y328422D01*
X595630D01*
Y341650D01*
D02*
G37*
G36*
X64540Y171512D02*
X35460D01*
Y142432D01*
X47730D01*
X47827Y142413D01*
X47924Y142432D01*
X52409D01*
X53231Y141962D01*
X54663Y140966D01*
X58181Y137989D01*
X59528Y136689D01*
X72562Y123654D01*
X74138Y122446D01*
X75972Y121686D01*
X77940Y121427D01*
X120356D01*
X121433Y121404D01*
X122990Y121295D01*
X124309Y121121D01*
X125378Y120892D01*
X126181Y120632D01*
X126706Y120377D01*
X126966Y120185D01*
X127032Y120106D01*
X127080Y119746D01*
Y117492D01*
X129554D01*
X129650Y117473D01*
X129747Y117492D01*
X150160D01*
Y140572D01*
X129747D01*
X129650Y140591D01*
X129554Y140572D01*
X127080D01*
Y138318D01*
X127032Y137958D01*
X126966Y137879D01*
X126706Y137687D01*
X126181Y137432D01*
X125378Y137172D01*
X124351Y136952D01*
X121395Y136659D01*
X120356Y136637D01*
X81090D01*
X70625Y147102D01*
X67326Y150655D01*
X66026Y152280D01*
X65010Y153741D01*
X64540Y154563D01*
Y159048D01*
X64559Y159145D01*
X64540Y159242D01*
Y171512D01*
D02*
G37*
G36*
X595630Y325882D02*
X582402D01*
X582734Y323356D01*
X584199Y319819D01*
X586530Y316782D01*
X589567Y314451D01*
X593104Y312986D01*
X595630Y312654D01*
Y325882D01*
D02*
G37*
G36*
X611398D02*
X598170D01*
Y312654D01*
X600696Y312986D01*
X604233Y314451D01*
X607270Y316782D01*
X609601Y319819D01*
X611066Y323356D01*
X611398Y325882D01*
D02*
G37*
G36*
X417830Y252230D02*
X416218Y252018D01*
X413532Y250905D01*
X411226Y249136D01*
X409457Y246830D01*
X408344Y244144D01*
X408132Y242532D01*
X417830D01*
Y252230D01*
D02*
G37*
G36*
X323850Y239992D02*
X314152D01*
X314364Y238380D01*
X315477Y235694D01*
X317246Y233388D01*
X319552Y231619D01*
X322238Y230506D01*
X323850Y230294D01*
Y239992D01*
D02*
G37*
G36*
X369570D02*
X359872D01*
X360084Y238380D01*
X361197Y235694D01*
X362966Y233388D01*
X365272Y231619D01*
X367958Y230506D01*
X369570Y230294D01*
Y239992D01*
D02*
G37*
G36*
X417830D02*
X408132D01*
X408344Y238380D01*
X409457Y235694D01*
X411226Y233388D01*
X413532Y231619D01*
X416218Y230506D01*
X417830Y230294D01*
Y239992D01*
D02*
G37*
G36*
X170370Y233382D02*
X167358Y232985D01*
X164550Y231822D01*
X162140Y229972D01*
X160290Y227562D01*
X159127Y224755D01*
X158730Y221742D01*
X159127Y218729D01*
X160290Y215922D01*
X162140Y213512D01*
X164550Y211662D01*
X167358Y210499D01*
X170370Y210102D01*
X173382Y210499D01*
X176190Y211662D01*
X178600Y213512D01*
X180450Y215922D01*
X181613Y218729D01*
X182010Y221742D01*
X181613Y224755D01*
X180450Y227562D01*
X178600Y229972D01*
X176190Y231822D01*
X173382Y232985D01*
X170370Y233382D01*
D02*
G37*
G36*
X419100Y152397D02*
X416218Y152018D01*
X413532Y150905D01*
X411226Y149136D01*
X409457Y146830D01*
X408344Y144144D01*
X407965Y141262D01*
X408344Y138380D01*
X409457Y135694D01*
X411226Y133388D01*
X413532Y131619D01*
X416218Y130506D01*
X419100Y130127D01*
X421982Y130506D01*
X424668Y131619D01*
X426974Y133388D01*
X428743Y135694D01*
X429856Y138380D01*
X430235Y141262D01*
X429856Y144144D01*
X428743Y146830D01*
X426974Y149136D01*
X424668Y150905D01*
X421982Y152018D01*
X419100Y152397D01*
D02*
G37*
G36*
X136000Y233301D02*
X135904Y233282D01*
X133430D01*
Y231028D01*
X133382Y230668D01*
X133315Y230589D01*
X133056Y230397D01*
X132531Y230142D01*
X131728Y229882D01*
X130701Y229662D01*
X127745Y229369D01*
X126706Y229347D01*
X63970D01*
X62002Y229088D01*
X60167Y228328D01*
X58592Y227120D01*
X57067Y225594D01*
X56665Y225214D01*
X55901Y224574D01*
X55148Y224023D01*
X54406Y223558D01*
X53678Y223175D01*
X52961Y222871D01*
X52254Y222641D01*
X51553Y222482D01*
X50852Y222390D01*
X50469Y222376D01*
X50000Y222437D01*
X46204Y221938D01*
X42667Y220473D01*
X39630Y218142D01*
X37299Y215105D01*
X35834Y211568D01*
X35334Y207772D01*
X35834Y203976D01*
X37299Y200439D01*
X39630Y197402D01*
X42667Y195071D01*
X46204Y193606D01*
X50000Y193106D01*
X53796Y193606D01*
X57333Y195071D01*
X60370Y197402D01*
X62701Y200439D01*
X64166Y203976D01*
X64665Y207772D01*
X64604Y208241D01*
X64618Y208624D01*
X64710Y209325D01*
X64869Y210026D01*
X65099Y210733D01*
X65403Y211450D01*
X65786Y212178D01*
X66251Y212920D01*
X66802Y213673D01*
X67191Y214137D01*
X126706D01*
X127783Y214114D01*
X129340Y214005D01*
X130659Y213831D01*
X131728Y213602D01*
X132531Y213342D01*
X133056Y213087D01*
X133315Y212895D01*
X133382Y212816D01*
X133430Y212456D01*
Y210202D01*
X135904D01*
X136000Y210183D01*
X136097Y210202D01*
X156510D01*
Y233282D01*
X136097D01*
X136000Y233301D01*
D02*
G37*
G36*
X467360Y239992D02*
X457662D01*
X457874Y238380D01*
X458987Y235694D01*
X460756Y233388D01*
X463062Y231619D01*
X465748Y230506D01*
X467360Y230294D01*
Y239992D01*
D02*
G37*
G36*
X479598D02*
X469900D01*
Y230294D01*
X471512Y230506D01*
X474198Y231619D01*
X476504Y233388D01*
X478273Y235694D01*
X479386Y238380D01*
X479598Y239992D01*
D02*
G37*
G36*
X323850Y252230D02*
X322238Y252018D01*
X319552Y250905D01*
X317246Y249136D01*
X315477Y246830D01*
X314364Y244144D01*
X314152Y242532D01*
X323850D01*
Y252230D01*
D02*
G37*
G36*
X369570D02*
X367958Y252018D01*
X365272Y250905D01*
X362966Y249136D01*
X361197Y246830D01*
X360084Y244144D01*
X359872Y242532D01*
X369570D01*
Y252230D01*
D02*
G37*
G36*
X336088Y239992D02*
X326390D01*
Y230294D01*
X328002Y230506D01*
X330688Y231619D01*
X332994Y233388D01*
X334763Y235694D01*
X335876Y238380D01*
X336088Y239992D01*
D02*
G37*
G36*
X381808D02*
X372110D01*
Y230294D01*
X373722Y230506D01*
X376408Y231619D01*
X378714Y233388D01*
X380483Y235694D01*
X381596Y238380D01*
X381808Y239992D01*
D02*
G37*
G36*
X430068D02*
X420370D01*
Y230294D01*
X421982Y230506D01*
X424668Y231619D01*
X426974Y233388D01*
X428743Y235694D01*
X429856Y238380D01*
X430068Y239992D01*
D02*
G37*
G36*
X598170Y341650D02*
Y328422D01*
X611398D01*
X611066Y330948D01*
X609601Y334485D01*
X607270Y337522D01*
X604233Y339853D01*
X600696Y341318D01*
X598170Y341650D01*
D02*
G37*
G36*
X50000Y417625D02*
X46562Y417286D01*
X43255Y416283D01*
X40208Y414655D01*
X37537Y412463D01*
X35345Y409792D01*
X33717Y406745D01*
X32714Y403438D01*
X32375Y400000D01*
X32714Y396562D01*
X33717Y393255D01*
X35345Y390208D01*
X37537Y387537D01*
X40208Y385345D01*
X43255Y383717D01*
X46562Y382714D01*
X50000Y382375D01*
X53439Y382714D01*
X56745Y383717D01*
X59792Y385345D01*
X62463Y387537D01*
X64654Y390208D01*
X66283Y393255D01*
X67286Y396562D01*
X67625Y400000D01*
X67286Y403438D01*
X66283Y406745D01*
X64654Y409792D01*
X62463Y412463D01*
X59792Y414655D01*
X56745Y416283D01*
X53439Y417286D01*
X50000Y417625D01*
D02*
G37*
G36*
X167170Y400350D02*
X165558Y400138D01*
X162872Y399025D01*
X160566Y397256D01*
X158797Y394950D01*
X157684Y392264D01*
X157472Y390652D01*
X167170D01*
Y400350D01*
D02*
G37*
G36*
X169710D02*
Y390652D01*
X179408D01*
X179196Y392264D01*
X178083Y394950D01*
X176314Y397256D01*
X174008Y399025D01*
X171322Y400138D01*
X169710Y400350D01*
D02*
G37*
G36*
X179408Y388112D02*
X169710D01*
Y378414D01*
X171322Y378626D01*
X174008Y379739D01*
X176314Y381508D01*
X178083Y383814D01*
X179196Y386500D01*
X179408Y388112D01*
D02*
G37*
G36*
X344170Y363949D02*
X341549Y363604D01*
X339107Y362592D01*
X337831Y361614D01*
X334455Y361435D01*
X334436Y361435D01*
X331390Y361623D01*
X330267Y361773D01*
X329371Y361954D01*
X328810Y362123D01*
Y363862D01*
X326336D01*
X326240Y363881D01*
X326143Y363862D01*
X308730D01*
Y343782D01*
X326143D01*
X326240Y343763D01*
X326336Y343782D01*
X328810D01*
Y345521D01*
X329371Y345690D01*
X330204Y345858D01*
X334463Y346209D01*
X335078Y346217D01*
X335454D01*
X336447Y346194D01*
X336565Y343954D01*
Y328422D01*
X336824Y326454D01*
X337584Y324619D01*
X338792Y323044D01*
X354220Y307617D01*
X354905Y306899D01*
X353404Y305231D01*
X342602Y294430D01*
X341394Y292854D01*
X340634Y291020D01*
X340375Y289052D01*
Y222352D01*
X296882Y178860D01*
X295674Y177285D01*
X294914Y175450D01*
X294655Y173482D01*
Y142614D01*
X294495Y142405D01*
X293599Y140243D01*
X293293Y137922D01*
X293599Y135601D01*
X294495Y133439D01*
X295920Y131582D01*
X297777Y130157D01*
X299939Y129261D01*
X302260Y128955D01*
X304581Y129261D01*
X306743Y130157D01*
X308600Y131582D01*
X310025Y133439D01*
X310921Y135601D01*
X311227Y137922D01*
X310921Y140243D01*
X310025Y142405D01*
X309865Y142614D01*
Y170332D01*
X353358Y213824D01*
X354566Y215399D01*
X355326Y217234D01*
X355585Y219202D01*
Y285902D01*
X364975Y295292D01*
X366367Y296620D01*
X366595Y296815D01*
X368381Y297050D01*
X370823Y298062D01*
X372921Y299671D01*
X374530Y301769D01*
X375542Y304211D01*
X375887Y306832D01*
X375542Y309453D01*
X374530Y311895D01*
X372921Y313993D01*
X370823Y315602D01*
X368381Y316614D01*
X366787Y316823D01*
X364159Y319188D01*
X351775Y331572D01*
Y345106D01*
X351820Y347030D01*
X351843Y347329D01*
X352940Y348759D01*
X353952Y351201D01*
X354297Y353822D01*
X353952Y356443D01*
X352940Y358885D01*
X351331Y360983D01*
X349233Y362592D01*
X346791Y363604D01*
X344170Y363949D01*
D02*
G37*
G36*
X239098Y48692D02*
X225870D01*
Y35464D01*
X228396Y35796D01*
X231933Y37261D01*
X234970Y39592D01*
X237301Y42629D01*
X238766Y46166D01*
X239098Y48692D01*
D02*
G37*
G36*
X167170Y388112D02*
X157472D01*
X157684Y386500D01*
X158797Y383814D01*
X160566Y381508D01*
X162872Y379739D01*
X165558Y378626D01*
X167170Y378414D01*
Y388112D01*
D02*
G37*
G36*
X50000Y67625D02*
X46562Y67286D01*
X43255Y66283D01*
X40208Y64654D01*
X37537Y62463D01*
X35345Y59792D01*
X33717Y56745D01*
X32714Y53439D01*
X32375Y50000D01*
X32714Y46562D01*
X33717Y43255D01*
X35345Y40208D01*
X37537Y37537D01*
X40208Y35345D01*
X43255Y33717D01*
X46562Y32714D01*
X50000Y32375D01*
X53439Y32714D01*
X56745Y33717D01*
X59792Y35345D01*
X62463Y37537D01*
X64654Y40208D01*
X66283Y43255D01*
X67286Y46562D01*
X67625Y50000D01*
X67286Y53439D01*
X66283Y56745D01*
X64654Y59792D01*
X62463Y62463D01*
X59792Y64654D01*
X56745Y66283D01*
X53439Y67286D01*
X50000Y67625D01*
D02*
G37*
G36*
X369570Y440149D02*
X366949Y439804D01*
X364507Y438792D01*
X363232Y437813D01*
X359702Y437627D01*
X352886D01*
X350962Y437672D01*
X350663Y437695D01*
X349233Y438792D01*
X346791Y439804D01*
X344170Y440149D01*
X341549Y439804D01*
X339107Y438792D01*
X337009Y437183D01*
X335400Y435085D01*
X334388Y432643D01*
X334043Y430022D01*
X334388Y427401D01*
X335400Y424959D01*
X337009Y422861D01*
X339107Y421252D01*
X341549Y420240D01*
X344170Y419895D01*
X346791Y420240D01*
X349233Y421252D01*
X350508Y422230D01*
X354038Y422417D01*
X360854D01*
X362778Y422372D01*
X363077Y422349D01*
X364507Y421252D01*
X366949Y420240D01*
X369570Y419895D01*
X372191Y420240D01*
X374633Y421252D01*
X376731Y422861D01*
X378340Y424959D01*
X379352Y427401D01*
X379697Y430022D01*
X379352Y432643D01*
X378340Y435085D01*
X376731Y437183D01*
X374633Y438792D01*
X372191Y439804D01*
X369570Y440149D01*
D02*
G37*
G36*
X445770D02*
X443149Y439804D01*
X440707Y438792D01*
X439431Y437813D01*
X435902Y437627D01*
X429086D01*
X427162Y437672D01*
X426863Y437695D01*
X425433Y438792D01*
X422991Y439804D01*
X420370Y440149D01*
X417749Y439804D01*
X415307Y438792D01*
X413209Y437183D01*
X411600Y435085D01*
X410588Y432643D01*
X410243Y430022D01*
X410588Y427401D01*
X411600Y424959D01*
X413209Y422861D01*
X415307Y421252D01*
X417749Y420240D01*
X420370Y419895D01*
X422991Y420240D01*
X425433Y421252D01*
X426708Y422230D01*
X430238Y422417D01*
X437054D01*
X438978Y422372D01*
X439277Y422349D01*
X440707Y421252D01*
X443149Y420240D01*
X445770Y419895D01*
X448391Y420240D01*
X450833Y421252D01*
X452931Y422861D01*
X454540Y424959D01*
X455552Y427401D01*
X455897Y430022D01*
X455552Y432643D01*
X454540Y435085D01*
X452931Y437183D01*
X450833Y438792D01*
X448391Y439804D01*
X445770Y440149D01*
D02*
G37*
G36*
X600000Y67625D02*
X596562Y67286D01*
X593255Y66283D01*
X590208Y64654D01*
X587537Y62463D01*
X585345Y59792D01*
X583717Y56745D01*
X582714Y53439D01*
X582375Y50000D01*
X582714Y46562D01*
X583717Y43255D01*
X585345Y40208D01*
X587537Y37537D01*
X590208Y35345D01*
X593255Y33717D01*
X596562Y32714D01*
X600000Y32375D01*
X603438Y32714D01*
X606745Y33717D01*
X609792Y35345D01*
X612463Y37537D01*
X614655Y40208D01*
X616283Y43255D01*
X617286Y46562D01*
X617625Y50000D01*
X617286Y53439D01*
X616283Y56745D01*
X614655Y59792D01*
X612463Y62463D01*
X609792Y64654D01*
X606745Y66283D01*
X603438Y67286D01*
X600000Y67625D01*
D02*
G37*
G36*
X394970Y440149D02*
X392349Y439804D01*
X389907Y438792D01*
X387809Y437183D01*
X386200Y435085D01*
X385188Y432643D01*
X384843Y430022D01*
X385188Y427401D01*
X386200Y424959D01*
X387809Y422861D01*
X389907Y421252D01*
X392349Y420240D01*
X394970Y419895D01*
X397591Y420240D01*
X400033Y421252D01*
X402131Y422861D01*
X403740Y424959D01*
X404752Y427401D01*
X405097Y430022D01*
X404752Y432643D01*
X403740Y435085D01*
X402131Y437183D01*
X400033Y438792D01*
X397591Y439804D01*
X394970Y440149D01*
D02*
G37*
G36*
X471170D02*
X468549Y439804D01*
X466107Y438792D01*
X464009Y437183D01*
X462400Y435085D01*
X461388Y432643D01*
X461043Y430022D01*
X461388Y427401D01*
X462400Y424959D01*
X464009Y422861D01*
X466107Y421252D01*
X468549Y420240D01*
X471170Y419895D01*
X473791Y420240D01*
X476233Y421252D01*
X478331Y422861D01*
X479940Y424959D01*
X480952Y427401D01*
X481297Y430022D01*
X480952Y432643D01*
X479940Y435085D01*
X478331Y437183D01*
X476233Y438792D01*
X473791Y439804D01*
X471170Y440149D01*
D02*
G37*
G36*
X223330Y48692D02*
X210102D01*
X210434Y46166D01*
X211899Y42629D01*
X214230Y39592D01*
X217267Y37261D01*
X220804Y35796D01*
X223330Y35464D01*
Y48692D01*
D02*
G37*
G36*
X445770Y363949D02*
X443149Y363604D01*
X440707Y362592D01*
X438609Y360983D01*
X437000Y358885D01*
X435988Y356443D01*
X435643Y353822D01*
X435988Y351201D01*
X437000Y348759D01*
X438609Y346661D01*
X440707Y345052D01*
X443149Y344040D01*
X445770Y343695D01*
X448391Y344040D01*
X450833Y345052D01*
X452931Y346661D01*
X454540Y348759D01*
X455552Y351201D01*
X455897Y353822D01*
X455552Y356443D01*
X454540Y358885D01*
X452931Y360983D01*
X450833Y362592D01*
X448391Y363604D01*
X445770Y363949D01*
D02*
G37*
G36*
X225870Y64460D02*
Y51232D01*
X239098D01*
X238766Y53758D01*
X237301Y57295D01*
X234970Y60332D01*
X231933Y62663D01*
X228396Y64128D01*
X225870Y64460D01*
D02*
G37*
G36*
X167170Y345740D02*
X165558Y345528D01*
X162872Y344415D01*
X160566Y342646D01*
X158797Y340340D01*
X157684Y337654D01*
X157472Y336042D01*
X167170D01*
Y345740D01*
D02*
G37*
G36*
X169710D02*
Y336042D01*
X179408D01*
X179196Y337654D01*
X178083Y340340D01*
X176314Y342646D01*
X174008Y344415D01*
X171322Y345528D01*
X169710Y345740D01*
D02*
G37*
G36*
X164020Y140672D02*
X161007Y140275D01*
X158200Y139112D01*
X155790Y137262D01*
X153940Y134852D01*
X152777Y132044D01*
X152380Y129032D01*
X152777Y126019D01*
X153940Y123212D01*
X155790Y120802D01*
X158200Y118952D01*
X161007Y117789D01*
X164020Y117393D01*
X167033Y117789D01*
X169840Y118952D01*
X172250Y120802D01*
X174100Y123212D01*
X175263Y126019D01*
X175660Y129032D01*
X175263Y132044D01*
X174100Y134852D01*
X172250Y137262D01*
X169840Y139112D01*
X167033Y140275D01*
X164020Y140672D01*
D02*
G37*
G36*
X611440Y392492D02*
X582360D01*
Y380221D01*
X582341Y380125D01*
X582360Y380028D01*
Y375543D01*
X581890Y374721D01*
X580894Y373289D01*
X577917Y369771D01*
X576618Y368425D01*
X493420Y285227D01*
X409550D01*
X398765Y296012D01*
Y298116D01*
X398810Y300040D01*
X398833Y300339D01*
X399930Y301769D01*
X400942Y304211D01*
X401287Y306832D01*
X400942Y309453D01*
X400689Y310062D01*
X401775Y310760D01*
X403741Y308644D01*
X405045Y307016D01*
X406064Y305553D01*
X406520Y304758D01*
Y296792D01*
X426600D01*
Y316872D01*
X418634D01*
X417839Y317328D01*
X416405Y318327D01*
X412882Y321311D01*
X411537Y322611D01*
X390868Y343279D01*
X391587Y344356D01*
X392349Y344040D01*
X394970Y343695D01*
X397591Y344040D01*
X400033Y345052D01*
X401309Y346031D01*
X404838Y346217D01*
X411654D01*
X413578Y346172D01*
X413877Y346149D01*
X415307Y345052D01*
X417749Y344040D01*
X420370Y343695D01*
X422991Y344040D01*
X425433Y345052D01*
X427531Y346661D01*
X429140Y348759D01*
X430152Y351201D01*
X430497Y353822D01*
X430152Y356443D01*
X429140Y358885D01*
X427531Y360983D01*
X425433Y362592D01*
X422991Y363604D01*
X420370Y363949D01*
X417749Y363604D01*
X415307Y362592D01*
X414031Y361614D01*
X410502Y361427D01*
X403686D01*
X401762Y361472D01*
X401463Y361495D01*
X400033Y362592D01*
X397591Y363604D01*
X394970Y363949D01*
X392349Y363604D01*
X389907Y362592D01*
X387809Y360983D01*
X386200Y358885D01*
X385188Y356443D01*
X384843Y353822D01*
X385188Y351201D01*
X385504Y350439D01*
X384427Y349720D01*
X381111Y353036D01*
X379782Y354429D01*
X379587Y354657D01*
X379352Y356443D01*
X378340Y358885D01*
X376731Y360983D01*
X374633Y362592D01*
X372191Y363604D01*
X369570Y363949D01*
X366949Y363604D01*
X364507Y362592D01*
X362409Y360983D01*
X360800Y358885D01*
X359788Y356443D01*
X359443Y353822D01*
X359788Y351201D01*
X360800Y348759D01*
X362409Y346661D01*
X364507Y345052D01*
X366949Y344040D01*
X368543Y343831D01*
X371171Y341466D01*
X395262Y317375D01*
X394543Y316298D01*
X393781Y316614D01*
X391160Y316959D01*
X388539Y316614D01*
X386097Y315602D01*
X383999Y313993D01*
X382390Y311895D01*
X381378Y309453D01*
X381033Y306832D01*
X381378Y304211D01*
X382390Y301769D01*
X383368Y300494D01*
X383555Y296964D01*
Y292862D01*
X383814Y290894D01*
X384574Y289060D01*
X385782Y287484D01*
X401022Y272244D01*
X402598Y271036D01*
X403357Y270721D01*
X404432Y270276D01*
X406400Y270017D01*
X496570D01*
X498538Y270276D01*
X500373Y271036D01*
X501948Y272244D01*
X587031Y357328D01*
X590583Y360626D01*
X592208Y361926D01*
X593669Y362942D01*
X594491Y363412D01*
X598976D01*
X599073Y363393D01*
X599170Y363412D01*
X611440D01*
Y392492D01*
D02*
G37*
G36*
X469900Y352552D02*
X461211D01*
X461388Y351201D01*
X462400Y348759D01*
X464009Y346661D01*
X466107Y345052D01*
X468549Y344040D01*
X469900Y343863D01*
Y352552D01*
D02*
G37*
G36*
X309080Y442670D02*
X305806Y442239D01*
X302756Y440976D01*
X300136Y438966D01*
X300136Y438965D01*
X259496Y398326D01*
X257486Y395706D01*
X256223Y392656D01*
X255792Y389382D01*
X255792Y389382D01*
Y334772D01*
Y56922D01*
X255792Y56922D01*
X256223Y53648D01*
X257486Y50598D01*
X259496Y47978D01*
X260860Y46615D01*
Y35422D01*
X287093D01*
X287116Y35415D01*
X287185Y35422D01*
X287273D01*
X287369Y35403D01*
X287466Y35422D01*
X289940D01*
Y36452D01*
X303064Y37314D01*
X427660D01*
X427660Y37314D01*
X430934Y37745D01*
X433984Y39008D01*
X436604Y41018D01*
X477574Y81988D01*
X477574Y81988D01*
X479584Y84608D01*
X480847Y87658D01*
X481278Y90932D01*
Y141262D01*
X480847Y144536D01*
X479584Y147586D01*
X477574Y150206D01*
X474954Y152216D01*
X471904Y153479D01*
X468630Y153910D01*
X465356Y153479D01*
X462306Y152216D01*
X459686Y150206D01*
X457676Y147586D01*
X456413Y144536D01*
X455982Y141262D01*
Y96171D01*
X422421Y62610D01*
X304030D01*
X297277Y62728D01*
X292609Y63034D01*
X290958Y63233D01*
X289940Y63419D01*
Y64502D01*
X287466D01*
X287369Y64521D01*
X287273Y64502D01*
X287185D01*
X287116Y64509D01*
X287093Y64502D01*
X281088D01*
Y334772D01*
Y384143D01*
X314319Y417374D01*
X318770D01*
X322044Y417805D01*
X325094Y419068D01*
X327714Y421078D01*
X329724Y423698D01*
X330987Y426748D01*
X331418Y430022D01*
X330987Y433296D01*
X329724Y436346D01*
X327714Y438966D01*
X325094Y440976D01*
X322044Y442239D01*
X318770Y442670D01*
X309080D01*
X309080Y442670D01*
D02*
G37*
G36*
X469900Y363781D02*
X468549Y363604D01*
X466107Y362592D01*
X464009Y360983D01*
X462400Y358885D01*
X461388Y356443D01*
X461211Y355092D01*
X469900D01*
Y363781D01*
D02*
G37*
G36*
X472440D02*
Y355092D01*
X481129D01*
X480952Y356443D01*
X479940Y358885D01*
X478331Y360983D01*
X476233Y362592D01*
X473791Y363604D01*
X472440Y363781D01*
D02*
G37*
G36*
X481129Y352552D02*
X472440D01*
Y343863D01*
X473791Y344040D01*
X476233Y345052D01*
X478331Y346661D01*
X479940Y348759D01*
X480952Y351201D01*
X481129Y352552D01*
D02*
G37*
G36*
X223330Y64460D02*
X220804Y64128D01*
X217267Y62663D01*
X214230Y60332D01*
X211899Y57295D01*
X210434Y53758D01*
X210102Y51232D01*
X223330D01*
Y64460D01*
D02*
G37*
%LPD*%
G36*
X61404Y158367D02*
X61121Y157448D01*
Y156387D01*
X61404Y155185D01*
X61969Y153841D01*
X62818Y152356D01*
X63949Y150730D01*
X65364Y148962D01*
X69041Y145002D01*
X61969Y137931D01*
X59919Y139911D01*
X56242Y143023D01*
X54616Y144154D01*
X53131Y145002D01*
X51787Y145568D01*
X50585Y145851D01*
X49524D01*
X48605Y145568D01*
X47827Y145002D01*
X61969Y159145D01*
X61404Y158367D01*
D02*
G37*
G36*
X129650Y120063D02*
X129551Y120817D01*
X129250Y121491D01*
X128750Y122087D01*
X128050Y122603D01*
X127150Y123040D01*
X126051Y123397D01*
X124750Y123675D01*
X123251Y123873D01*
X121551Y123992D01*
X119650Y124032D01*
Y134032D01*
X121551Y134072D01*
X124750Y134389D01*
X126051Y134667D01*
X127150Y135024D01*
X128050Y135461D01*
X128750Y135977D01*
X129250Y136573D01*
X129551Y137247D01*
X129650Y138001D01*
Y120063D01*
D02*
G37*
G36*
X66340Y217041D02*
X65507Y216160D01*
X64762Y215271D01*
X64106Y214375D01*
X63539Y213471D01*
X63061Y212560D01*
X62671Y211641D01*
X62370Y210715D01*
X62158Y209781D01*
X62034Y208840D01*
X61999Y207892D01*
X50120Y219771D01*
X51068Y219806D01*
X52009Y219930D01*
X52943Y220142D01*
X53869Y220443D01*
X54788Y220833D01*
X55699Y221311D01*
X56603Y221878D01*
X57499Y222534D01*
X58388Y223279D01*
X59269Y224112D01*
X66340Y217041D01*
D02*
G37*
G36*
X136000Y212773D02*
X135900Y213527D01*
X135601Y214202D01*
X135100Y214797D01*
X134401Y215313D01*
X133500Y215750D01*
X132401Y216107D01*
X131101Y216385D01*
X129600Y216583D01*
X127900Y216702D01*
X126000Y216742D01*
Y226742D01*
X127900Y226782D01*
X131101Y227099D01*
X132401Y227377D01*
X133500Y227734D01*
X134401Y228171D01*
X135100Y228687D01*
X135601Y229282D01*
X135900Y229957D01*
X136000Y230711D01*
Y212773D01*
D02*
G37*
G36*
X326339Y360822D02*
X326640Y360402D01*
X327140Y360032D01*
X327840Y359711D01*
X328740Y359439D01*
X329840Y359217D01*
X331139Y359044D01*
X334339Y358847D01*
X334507Y358844D01*
X338814Y359072D01*
Y348572D01*
X338722Y348619D01*
X338546Y348662D01*
X338285Y348699D01*
X337508Y348759D01*
X335333Y348810D01*
X334339Y348797D01*
X329840Y348427D01*
X328740Y348205D01*
X327840Y347933D01*
X327140Y347612D01*
X326640Y347242D01*
X326339Y346822D01*
X326240Y346353D01*
Y361292D01*
X326339Y360822D01*
D02*
G37*
G36*
X365685Y299332D02*
X365587Y299301D01*
X365432Y299207D01*
X365221Y299049D01*
X364629Y298541D01*
X362767Y296765D01*
X362161Y296162D01*
X355090Y303233D01*
X358260Y306757D01*
X365685Y299332D01*
D02*
G37*
G36*
X349372Y348374D02*
X349330Y348198D01*
X349292Y347937D01*
X349232Y347160D01*
X349173Y344587D01*
X349170Y343732D01*
X339170D01*
X338920Y348466D01*
X349420D01*
X349372Y348374D01*
D02*
G37*
G36*
X365685Y314332D02*
X358260Y306907D01*
X358229Y307005D01*
X358135Y307160D01*
X357976Y307371D01*
X357469Y307963D01*
X355693Y309825D01*
X355090Y310431D01*
X362161Y317502D01*
X365685Y314332D01*
D02*
G37*
G36*
X349618Y435224D02*
X349794Y435182D01*
X350055Y435145D01*
X350832Y435084D01*
X353405Y435024D01*
X354260Y435022D01*
Y425022D01*
X349526Y424772D01*
Y435272D01*
X349618Y435224D01*
D02*
G37*
G36*
X364214Y424772D02*
X364123Y424819D01*
X363946Y424862D01*
X363685Y424899D01*
X362908Y424959D01*
X360335Y425019D01*
X359480Y425022D01*
Y435022D01*
X364214Y435272D01*
Y424772D01*
D02*
G37*
G36*
X425817Y435224D02*
X425994Y435182D01*
X426255Y435145D01*
X427032Y435084D01*
X429605Y435024D01*
X430460Y435022D01*
Y425022D01*
X425726Y424772D01*
Y435272D01*
X425817Y435224D01*
D02*
G37*
G36*
X440414Y424772D02*
X440322Y424819D01*
X440146Y424862D01*
X439885Y424899D01*
X439108Y424959D01*
X436535Y425019D01*
X435680Y425022D01*
Y435022D01*
X440414Y435272D01*
Y424772D01*
D02*
G37*
G36*
X415014Y348572D02*
X414922Y348619D01*
X414746Y348662D01*
X414485Y348699D01*
X413708Y348759D01*
X411135Y348820D01*
X410280Y348822D01*
Y358822D01*
X415014Y359072D01*
Y348572D01*
D02*
G37*
G36*
X599073Y365983D02*
X598295Y366548D01*
X597376Y366831D01*
X596315D01*
X595113Y366548D01*
X593769Y365983D01*
X592284Y365134D01*
X590658Y364003D01*
X588890Y362588D01*
X584930Y358911D01*
X577859Y365983D01*
X579839Y368033D01*
X582951Y371710D01*
X584082Y373336D01*
X584930Y374821D01*
X585496Y376165D01*
X585779Y377367D01*
Y378428D01*
X585496Y379347D01*
X584930Y380125D01*
X599073Y365983D01*
D02*
G37*
G36*
X400418Y359025D02*
X400594Y358982D01*
X400855Y358945D01*
X401632Y358885D01*
X404205Y358825D01*
X405060Y358822D01*
Y348822D01*
X400326Y348572D01*
Y359072D01*
X400418Y359025D01*
D02*
G37*
G36*
X396362Y301385D02*
X396320Y301208D01*
X396283Y300947D01*
X396222Y300170D01*
X396162Y297597D01*
X396160Y296742D01*
X386160D01*
X385910Y301476D01*
X396410D01*
X396362Y301385D01*
D02*
G37*
G36*
X377101Y353649D02*
X377195Y353494D01*
X377354Y353283D01*
X377860Y352691D01*
X379637Y350829D01*
X380240Y350223D01*
X373169Y343152D01*
X369645Y346322D01*
X377070Y353747D01*
X377101Y353649D01*
D02*
G37*
G36*
X411144Y319390D02*
X414824Y316272D01*
X416452Y315138D01*
X417937Y314286D01*
X419280Y313717D01*
X420481Y313432D01*
X421540Y313429D01*
X422458Y313708D01*
X423233Y314271D01*
X409121Y300159D01*
X409684Y300934D01*
X409963Y301852D01*
X409960Y302911D01*
X409674Y304112D01*
X409106Y305455D01*
X408254Y306940D01*
X407120Y308568D01*
X405703Y310337D01*
X402019Y314301D01*
X409090Y321373D01*
X411144Y319390D01*
D02*
G37*
G36*
X287570Y61557D02*
X288169Y61223D01*
X289170Y60927D01*
X290569Y60671D01*
X292369Y60454D01*
X297169Y60139D01*
X307369Y59962D01*
Y39962D01*
X303570Y39942D01*
X289170Y38997D01*
X288169Y38702D01*
X287570Y38367D01*
X287369Y37992D01*
Y61932D01*
X287570Y61557D01*
D02*
G37*
D16*
X275400Y49962D02*
X427660D01*
X468630Y90932D01*
Y141262D01*
X268440Y389382D02*
X309080Y430022D01*
X318770D01*
X268440Y334772D02*
Y389382D01*
Y56922D02*
Y334772D01*
Y56922D02*
X275400Y49962D01*
D18*
X0Y449962D02*
X650000D01*
Y-38D02*
Y449962D01*
X0Y-38D02*
X650000D01*
X0D02*
Y449962D01*
D19*
X471170Y430022D02*
D03*
X445770D02*
D03*
X420370D02*
D03*
X394970D02*
D03*
X369570D02*
D03*
X344170D02*
D03*
X318770D02*
D03*
X471170Y353822D02*
D03*
X445770D02*
D03*
X420370D02*
D03*
X394970D02*
D03*
X369570D02*
D03*
X344170D02*
D03*
D20*
X318770D02*
D03*
D21*
X325120Y241262D02*
D03*
Y141262D02*
D03*
X370840Y241262D02*
D03*
Y141262D02*
D03*
X168440Y389382D02*
D03*
X268440D02*
D03*
X419100Y241262D02*
D03*
Y141262D02*
D03*
X168440Y334772D02*
D03*
X268440D02*
D03*
X468630Y241262D02*
D03*
Y141262D02*
D03*
D22*
X275400Y49962D02*
D03*
D23*
X224600D02*
D03*
X596900Y327152D02*
D03*
X50000Y207772D02*
D03*
D24*
X596900Y377952D02*
D03*
X50000Y156972D02*
D03*
D25*
X365760Y306832D02*
D03*
X391160D02*
D03*
D26*
X416560D02*
D03*
D27*
X170370Y221742D02*
D03*
X164020Y129032D02*
D03*
D28*
X144970Y221742D02*
D03*
X138620Y129032D02*
D03*
D29*
X50000Y50000D02*
D03*
X600000D02*
D03*
X50000Y400000D02*
D03*
D30*
X302260Y137922D02*
D03*
D31*
X391160Y292862D02*
X406400Y277622D01*
X496570D01*
X596900Y377952D01*
X369570Y353822D02*
X416560Y306832D01*
X391160Y292862D02*
Y306832D01*
X344170Y328422D02*
Y353822D01*
Y328422D02*
X365760Y306832D01*
X318770Y353822D02*
X344170D01*
X302260Y137922D02*
Y173482D01*
X394970Y353822D02*
X420370D01*
Y430022D02*
X445770D01*
X344170D02*
X369570D01*
X63970Y221742D02*
X144970D01*
X50000Y207772D02*
X63970Y221742D01*
X77940Y129032D02*
X138620D01*
X50000Y156972D02*
X77940Y129032D01*
X302260Y173482D02*
X347980Y219202D01*
Y289052D01*
X365760Y306832D01*
M02*
