M48
;Layer_Color=9474304
;FILE_FORMAT=4:4
METRIC,LZ
;TYPE=PLATED
T1F00S00C0.9000
T2F00S00C1.2000
T3F00S00C1.4000
;TYPE=NON_PLATED
T4F00S00C3.0000
%
T01
X0040499Y-0018745
Y-0008745
X0041515Y-0002235
X0037832Y-0002108
Y0007892
X0041515Y0007765
Y001237
X0037846Y0014812
X0034036Y0012907
X0029831Y0012925
Y0015465
Y0018005
X0022211
Y0015465
Y0012925
Y0010385
Y0007845
Y0005305
Y0002765
X001802Y0005352
X0014591Y0007257
X0010908Y0006749
X0006082Y0007638
X0007686Y0010385
X0009892Y0013894
X001421
X0018
X0017686Y0010385
X0029831
Y0007845
Y0005305
Y0002765
X0034403Y-0002108
X0032291Y-0004601
X0022291
X001802Y-0004648
X0014591Y-0002743
X0010908Y-0003251
X0006082Y-0002362
X0007987Y-0008745
Y-0018745
X0002907Y0003861
Y0013861
X0034403Y0007892
X0034036Y0022907
X0029925Y0028575
X0018Y0023894
X001421
X0009892
X0037846Y0024812
X0039925Y0028575
X0041515Y002237
T02
X0045452Y0005305
Y0007845
X0022211Y-0009173
X0019671
X-0000141Y0007591
Y0010131
T03
X0048Y-001454
Y-000946
X0001
Y-001454
Y002246
Y002754
X0048
Y002246
T04
X0048Y0013
X0Y0
M30
