G04 Layer_Color=65535*
%FSLAX44Y44*%
%MOMM*%
G71*
G01*
G75*
%ADD12C,0.1000*%
%ADD22C,0.1524*%
%ADD23C,0.2000*%
%ADD24C,0.0500*%
%ADD25C,0.1500*%
%ADD26C,0.2540*%
%ADD27C,0.3000*%
D12*
X-40000Y-200000D02*
X530000D01*
Y310000D01*
X-40000Y-200000D02*
Y310000D01*
X530000D01*
D22*
X36690Y63210D02*
G03*
X39230Y65750I0J2540D01*
G01*
X18910D02*
G03*
X21450Y63210I2540J0D01*
G01*
Y114010D02*
G03*
X18910Y111470I0J-2540D01*
G01*
X39230D02*
G03*
X36690Y114010I-2540J0D01*
G01*
X172580Y28920D02*
G03*
X170040Y26380I0J-2540D01*
G01*
X190360D02*
G03*
X187820Y28920I-2540J0D01*
G01*
Y-21880D02*
G03*
X190360Y-19340I0J2540D01*
G01*
X170040D02*
G03*
X172580Y-21880I2540J0D01*
G01*
X386080Y172720D02*
G03*
X388620Y175260I0J2540D01*
G01*
X368300D02*
G03*
X370840Y172720I2540J0D01*
G01*
Y223520D02*
G03*
X368300Y220980I0J-2540D01*
G01*
X388620D02*
G03*
X386080Y223520I-2540J0D01*
G01*
X407530Y53050D02*
G03*
X404990Y50510I0J-2540D01*
G01*
X425310D02*
G03*
X422770Y53050I-2540J0D01*
G01*
Y2250D02*
G03*
X425310Y4790I0J2540D01*
G01*
X404990D02*
G03*
X407530Y2250I2540J0D01*
G01*
X101460Y42890D02*
G03*
X98920Y40350I0J-2540D01*
G01*
X119240D02*
G03*
X116700Y42890I-2540J0D01*
G01*
Y-7910D02*
G03*
X119240Y-5370I0J2540D01*
G01*
X98920D02*
G03*
X101460Y-7910I2540J0D01*
G01*
X187620Y163540D02*
G03*
X190160Y166080I0J2540D01*
G01*
X169840D02*
G03*
X172380Y163540I2540J0D01*
G01*
Y214340D02*
G03*
X169840Y211800I0J-2540D01*
G01*
X190160D02*
G03*
X187620Y214340I-2540J0D01*
G01*
X370700Y54320D02*
G03*
X368160Y51780I0J-2540D01*
G01*
X388480D02*
G03*
X385940Y54320I-2540J0D01*
G01*
Y3520D02*
G03*
X388480Y6060I0J2540D01*
G01*
X368160D02*
G03*
X370700Y3520I2540J0D01*
G01*
X347980Y153670D02*
G03*
X350520Y156210I0J2540D01*
G01*
X330200D02*
G03*
X332740Y153670I2540J0D01*
G01*
Y204470D02*
G03*
X330200Y201930I0J-2540D01*
G01*
X350520D02*
G03*
X347980Y204470I-2540J0D01*
G01*
X21450Y63210D02*
X36690D01*
X18910Y65750D02*
Y69560D01*
X39230Y65750D02*
Y69560D01*
X20180Y70830D02*
Y106390D01*
X18910Y69560D02*
X20180Y70830D01*
X37960D02*
Y106390D01*
Y70830D02*
X39230Y69560D01*
X18910Y107660D02*
X20180Y106390D01*
X18910Y107660D02*
Y111470D01*
X37960Y106390D02*
X39230Y107660D01*
Y111470D01*
X21450Y114010D02*
X36690D01*
X172580Y28920D02*
X187820D01*
X190360Y22570D02*
Y26380D01*
X170040Y22570D02*
Y26380D01*
X189090Y-14260D02*
Y21300D01*
X190360Y22570D01*
X171310Y-14260D02*
Y21300D01*
X170040Y22570D02*
X171310Y21300D01*
X189090Y-14260D02*
X190360Y-15530D01*
Y-19340D02*
Y-15530D01*
X170040D02*
X171310Y-14260D01*
X170040Y-19340D02*
Y-15530D01*
X172580Y-21880D02*
X187820D01*
X370840Y172720D02*
X386080D01*
X368300Y175260D02*
Y179070D01*
X388620Y175260D02*
Y179070D01*
X369570Y180340D02*
Y215900D01*
X368300Y179070D02*
X369570Y180340D01*
X387350D02*
Y215900D01*
Y180340D02*
X388620Y179070D01*
X368300Y217170D02*
X369570Y215900D01*
X368300Y217170D02*
Y220980D01*
X387350Y215900D02*
X388620Y217170D01*
Y220980D01*
X370840Y223520D02*
X386080D01*
X407530Y53050D02*
X422770D01*
X425310Y46700D02*
Y50510D01*
X404990Y46700D02*
Y50510D01*
X424040Y9870D02*
Y45430D01*
X425310Y46700D01*
X406260Y9870D02*
Y45430D01*
X404990Y46700D02*
X406260Y45430D01*
X424040Y9870D02*
X425310Y8600D01*
Y4790D02*
Y8600D01*
X404990D02*
X406260Y9870D01*
X404990Y4790D02*
Y8600D01*
X407530Y2250D02*
X422770D01*
X101460Y42890D02*
X116700D01*
X119240Y36540D02*
Y40350D01*
X98920Y36540D02*
Y40350D01*
X117970Y-290D02*
Y35270D01*
X119240Y36540D01*
X100190Y-290D02*
Y35270D01*
X98920Y36540D02*
X100190Y35270D01*
X117970Y-290D02*
X119240Y-1560D01*
Y-5370D02*
Y-1560D01*
X98920D02*
X100190Y-290D01*
X98920Y-5370D02*
Y-1560D01*
X101460Y-7910D02*
X116700D01*
X172380Y163540D02*
X187620D01*
X169840Y166080D02*
Y169890D01*
X190160Y166080D02*
Y169890D01*
X171110Y171160D02*
Y206720D01*
X169840Y169890D02*
X171110Y171160D01*
X188890D02*
Y206720D01*
Y171160D02*
X190160Y169890D01*
X169840Y207990D02*
X171110Y206720D01*
X169840Y207990D02*
Y211800D01*
X188890Y206720D02*
X190160Y207990D01*
Y211800D01*
X172380Y214340D02*
X187620D01*
X370700Y54320D02*
X385940D01*
X388480Y47970D02*
Y51780D01*
X368160Y47970D02*
Y51780D01*
X387210Y11140D02*
Y46700D01*
X388480Y47970D01*
X369430Y11140D02*
Y46700D01*
X368160Y47970D02*
X369430Y46700D01*
X387210Y11140D02*
X388480Y9870D01*
Y6060D02*
Y9870D01*
X368160D02*
X369430Y11140D01*
X368160Y6060D02*
Y9870D01*
X370700Y3520D02*
X385940D01*
X332740Y153670D02*
X347980D01*
X330200Y156210D02*
Y160020D01*
X350520Y156210D02*
Y160020D01*
X331470Y161290D02*
Y196850D01*
X330200Y160020D02*
X331470Y161290D01*
X349250D02*
Y196850D01*
Y161290D02*
X350520Y160020D01*
X330200Y198120D02*
X331470Y196850D01*
X330200Y198120D02*
Y201930D01*
X349250Y196850D02*
X350520Y198120D01*
Y201930D01*
X332740Y204470D02*
X347980D01*
D23*
X161320Y178678D02*
G03*
X121962Y177991I-19284J-22981D01*
G01*
X118140Y178678D02*
G03*
X78782Y177991I-19284J-22981D01*
G01*
X126690Y32832D02*
G03*
X166048Y33519I19284J22981D01*
G01*
X80040Y16118D02*
G03*
X40682Y15431I-19284J-22981D01*
G01*
X324810Y39182D02*
G03*
X364168Y39869I19284J22981D01*
G01*
X283172Y-26790D02*
G03*
X283859Y-66148I22981J-19284D01*
G01*
X338988Y266530D02*
G03*
X338301Y305888I-22981J19284D01*
G01*
X395930Y183962D02*
G03*
X435288Y184649I19284J22981D01*
G01*
X116598Y84630D02*
G03*
X115911Y123988I-22981J19284D01*
G01*
X385770Y-127188D02*
G03*
X425128Y-126501I19284J22981D01*
G01*
X60650Y-127188D02*
G03*
X100008Y-126501I19284J22981D01*
G01*
X253860Y204850D02*
G03*
X266560Y204850I6350J0D01*
G01*
X467220Y40350D02*
Y91150D01*
X441820D02*
X467220D01*
X441820Y40350D02*
Y91150D01*
Y40350D02*
X467220D01*
X184010Y-104430D02*
X234810D01*
Y-79030D01*
X184010D02*
X234810D01*
X184010Y-104430D02*
Y-79030D01*
X-14110Y63210D02*
Y114010D01*
Y63210D02*
X11290D01*
Y114010D01*
X-14110D02*
X11290D01*
X142100Y191440D02*
Y227690D01*
Y150440D02*
Y185440D01*
X122100Y191440D02*
X162100D01*
X98920D02*
Y227690D01*
Y150440D02*
Y185440D01*
X78920Y191440D02*
X118920D01*
X145910Y-16180D02*
Y20070D01*
Y26070D02*
Y61070D01*
X125910Y20070D02*
X165910D01*
X60820Y28880D02*
Y65130D01*
Y-12120D02*
Y22880D01*
X40820Y28880D02*
X80820D01*
X344030Y-9830D02*
Y26420D01*
Y32420D02*
Y67420D01*
X324030Y26420D02*
X364030D01*
X234160Y-46010D02*
X270410D01*
X276410D02*
X311410D01*
X270410Y-66010D02*
Y-26010D01*
X351750Y285750D02*
X388000D01*
X310750D02*
X345750D01*
X351750Y265750D02*
Y305750D01*
X415150Y134950D02*
Y171200D01*
Y177200D02*
Y212200D01*
X395150Y171200D02*
X435150D01*
X129360Y103850D02*
X165610D01*
X88360D02*
X123360D01*
X129360Y83850D02*
Y123850D01*
X404990Y-176200D02*
Y-139950D01*
Y-133950D02*
Y-98950D01*
X384990Y-139950D02*
X424990D01*
X79870Y-176200D02*
Y-139950D01*
Y-133950D02*
Y-98950D01*
X59870Y-139950D02*
X99870D01*
X233710Y204850D02*
X253860D01*
X266560D02*
X286710D01*
X233710Y2850D02*
X286710D01*
X233710D02*
Y204850D01*
X286710Y2850D02*
Y204850D01*
D24*
X56000Y199400D02*
Y300600D01*
X-36000D02*
X56000D01*
X-36000Y199400D02*
Y300600D01*
Y199400D02*
X56000D01*
X434000D02*
Y300600D01*
Y199400D02*
X526000D01*
Y300600D01*
X434000D02*
X526000D01*
X434000Y-170600D02*
Y-69400D01*
Y-170600D02*
X526000D01*
Y-69400D01*
X434000D02*
X526000D01*
X56000Y-170600D02*
Y-69400D01*
X-36000D02*
X56000D01*
X-36000Y-170600D02*
Y-69400D01*
Y-170600D02*
X56000D01*
D25*
X190590Y-188020D02*
Y-176024D01*
X196588D01*
X198587Y-178023D01*
Y-182022D01*
X196588Y-184021D01*
X190590D01*
X202586Y-188020D02*
Y-176024D01*
X210583Y-188020D01*
Y-176024D01*
X214582Y-188020D02*
X218581D01*
X216582D01*
Y-176024D01*
X214582Y-178023D01*
X224579D02*
X226578Y-176024D01*
X230577D01*
X232576Y-178023D01*
Y-186021D01*
X230577Y-188020D01*
X226578D01*
X224579Y-186021D01*
Y-178023D01*
X236575D02*
X238575Y-176024D01*
X242573D01*
X244573Y-178023D01*
Y-186021D01*
X242573Y-188020D01*
X238575D01*
X236575Y-186021D01*
Y-178023D01*
X248571D02*
X250571Y-176024D01*
X254569D01*
X256569Y-178023D01*
Y-180023D01*
X254569Y-182022D01*
X252570D01*
X254569D01*
X256569Y-184021D01*
Y-186021D01*
X254569Y-188020D01*
X250571D01*
X248571Y-186021D01*
X260567Y-178023D02*
X262567Y-176024D01*
X266565D01*
X268565Y-178023D01*
Y-180023D01*
X266565Y-182022D01*
X268565Y-184021D01*
Y-186021D01*
X266565Y-188020D01*
X262567D01*
X260567Y-186021D01*
Y-184021D01*
X262567Y-182022D01*
X260567Y-180023D01*
Y-178023D01*
X262567Y-182022D02*
X266565D01*
X176390Y-158474D02*
Y-170470D01*
Y-164472D01*
X184387D01*
Y-158474D01*
Y-170470D01*
X188386D02*
Y-158474D01*
X194384D01*
X196383Y-160473D01*
Y-164472D01*
X194384Y-166471D01*
X188386D01*
X208380Y-158474D02*
X200382D01*
Y-164472D01*
X204381D01*
X200382D01*
Y-170470D01*
X224375Y-160473D02*
X226374Y-158474D01*
X230373D01*
X232372Y-160473D01*
Y-162473D01*
X230373Y-164472D01*
X232372Y-166471D01*
Y-168471D01*
X230373Y-170470D01*
X226374D01*
X224375Y-168471D01*
Y-166471D01*
X226374Y-164472D01*
X224375Y-162473D01*
Y-160473D01*
X226374Y-164472D02*
X230373D01*
X236371D02*
X244368D01*
X254365Y-158474D02*
X250366D01*
X248367Y-160473D01*
Y-168471D01*
X250366Y-170470D01*
X254365D01*
X256364Y-168471D01*
Y-160473D01*
X254365Y-158474D01*
X260363Y-162473D02*
Y-170470D01*
Y-166471D01*
X262362Y-164472D01*
X264361Y-162473D01*
X266361D01*
X280356Y-158474D02*
Y-170470D01*
X274358D01*
X272359Y-168471D01*
Y-164472D01*
X274358Y-162473D01*
X280356D01*
X290353Y-170470D02*
X286354D01*
X284355Y-168471D01*
Y-164472D01*
X286354Y-162473D01*
X290353D01*
X292353Y-164472D01*
Y-166471D01*
X284355D01*
X296351Y-162473D02*
Y-170470D01*
Y-166471D01*
X298351Y-164472D01*
X300350Y-162473D01*
X302349D01*
D26*
X477384Y7327D02*
X474845Y4787D01*
Y-291D01*
X477384Y-2830D01*
X479923D01*
X482463Y-291D01*
Y4787D01*
X485002Y7327D01*
X487541D01*
X490080Y4787D01*
Y-291D01*
X487541Y-2830D01*
X477384Y14944D02*
X479923D01*
Y12405D01*
Y17483D01*
Y14944D01*
X487541D01*
X490080Y17483D01*
X479923Y27640D02*
Y32719D01*
X482463Y35258D01*
X490080D01*
Y27640D01*
X487541Y25101D01*
X485002Y27640D01*
Y35258D01*
X495158Y45414D02*
Y47954D01*
X492619Y50493D01*
X479923D01*
Y42875D01*
X482463Y40336D01*
X487541D01*
X490080Y42875D01*
Y50493D01*
Y63189D02*
Y58110D01*
X487541Y55571D01*
X482463D01*
X479923Y58110D01*
Y63189D01*
X482463Y65728D01*
X485002D01*
Y55571D01*
X482463Y70806D02*
Y80963D01*
X477384Y86041D02*
X474845Y88580D01*
Y93659D01*
X477384Y96198D01*
X479923D01*
X482463Y93659D01*
Y91120D01*
Y93659D01*
X485002Y96198D01*
X487541D01*
X490080Y93659D01*
Y88580D01*
X487541Y86041D01*
X175117Y-112054D02*
X172577Y-109515D01*
X167499D01*
X164960Y-112054D01*
Y-114593D01*
X167499Y-117133D01*
X172577D01*
X175117Y-119672D01*
Y-122211D01*
X172577Y-124750D01*
X167499D01*
X164960Y-122211D01*
X182734Y-112054D02*
Y-114593D01*
X180195D01*
X185273D01*
X182734D01*
Y-122211D01*
X185273Y-124750D01*
X195430Y-114593D02*
X200508D01*
X203048Y-117133D01*
Y-124750D01*
X195430D01*
X192891Y-122211D01*
X195430Y-119672D01*
X203048D01*
X213204Y-129828D02*
X215744D01*
X218283Y-127289D01*
Y-114593D01*
X210665D01*
X208126Y-117133D01*
Y-122211D01*
X210665Y-124750D01*
X218283D01*
X230979D02*
X225900D01*
X223361Y-122211D01*
Y-117133D01*
X225900Y-114593D01*
X230979D01*
X233518Y-117133D01*
Y-119672D01*
X223361D01*
X238596Y-117133D02*
X248753D01*
X263988Y-124750D02*
X253831D01*
X263988Y-114593D01*
Y-112054D01*
X261449Y-109515D01*
X256370D01*
X253831Y-112054D01*
X-34286Y49527D02*
X-36825Y46988D01*
Y41909D01*
X-34286Y39370D01*
X-31747D01*
X-29207Y41909D01*
Y46988D01*
X-26668Y49527D01*
X-24129D01*
X-21590Y46988D01*
Y41909D01*
X-24129Y39370D01*
X-34286Y57144D02*
X-31747D01*
Y54605D01*
Y59683D01*
Y57144D01*
X-24129D01*
X-21590Y59683D01*
X-31747Y69840D02*
Y74918D01*
X-29207Y77458D01*
X-21590D01*
Y69840D01*
X-24129Y67301D01*
X-26668Y69840D01*
Y77458D01*
X-16512Y87614D02*
Y90154D01*
X-19051Y92693D01*
X-31747D01*
Y85075D01*
X-29207Y82536D01*
X-24129D01*
X-21590Y85075D01*
Y92693D01*
Y105389D02*
Y100310D01*
X-24129Y97771D01*
X-29207D01*
X-31747Y100310D01*
Y105389D01*
X-29207Y107928D01*
X-26668D01*
Y97771D01*
X-29207Y113006D02*
Y123163D01*
X-21590Y128241D02*
Y133320D01*
Y130780D01*
X-36825D01*
X-34286Y128241D01*
X22860Y158750D02*
Y173985D01*
X30477D01*
X33017Y171446D01*
Y166367D01*
X30477Y163828D01*
X22860D01*
X27938D02*
X33017Y158750D01*
X48252D02*
X38095D01*
X48252Y168907D01*
Y171446D01*
X45713Y173985D01*
X40634D01*
X38095Y171446D01*
X168770Y-75220D02*
Y-59985D01*
X176388D01*
X178927Y-62524D01*
Y-67603D01*
X176388Y-70142D01*
X168770D01*
X173848D02*
X178927Y-75220D01*
X191623D02*
Y-59985D01*
X184005Y-67603D01*
X194162D01*
X369570Y118110D02*
Y133345D01*
X377188D01*
X379727Y130806D01*
Y125728D01*
X377188Y123188D01*
X369570D01*
X374648D02*
X379727Y118110D01*
X384805Y130806D02*
X387344Y133345D01*
X392423D01*
X394962Y130806D01*
Y128267D01*
X392423Y125728D01*
X394962Y123188D01*
Y120649D01*
X392423Y118110D01*
X387344D01*
X384805Y120649D01*
Y123188D01*
X387344Y125728D01*
X384805Y128267D01*
Y130806D01*
X387344Y125728D02*
X392423D01*
X407530Y91150D02*
Y106385D01*
X415148D01*
X417687Y103846D01*
Y98767D01*
X415148Y96228D01*
X407530D01*
X412608D02*
X417687Y91150D01*
X432922Y106385D02*
X427843Y103846D01*
X422765Y98767D01*
Y93689D01*
X425304Y91150D01*
X430383D01*
X432922Y93689D01*
Y96228D01*
X430383Y98767D01*
X422765D01*
X138287Y267676D02*
X135747Y270215D01*
X130669D01*
X128130Y267676D01*
Y257519D01*
X130669Y254980D01*
X135747D01*
X138287Y257519D01*
X153522Y254980D02*
X143365D01*
X153522Y265137D01*
Y267676D01*
X150983Y270215D01*
X145904D01*
X143365Y267676D01*
X102727Y268946D02*
X100188Y271485D01*
X95109D01*
X92570Y268946D01*
Y258789D01*
X95109Y256250D01*
X100188D01*
X102727Y258789D01*
X107805Y256250D02*
X112883D01*
X110344D01*
Y271485D01*
X107805Y268946D01*
X-21730Y189095D02*
X-16652D01*
X-19191D01*
Y173860D01*
X-21730D01*
X-16652D01*
X-9034D02*
Y189095D01*
X1123Y173860D01*
Y189095D01*
X142097Y-46014D02*
X139558Y-43475D01*
X134479D01*
X131940Y-46014D01*
Y-56171D01*
X134479Y-58710D01*
X139558D01*
X142097Y-56171D01*
X154793Y-58710D02*
Y-43475D01*
X147175Y-51093D01*
X157332D01*
X48117Y-56174D02*
X45578Y-53635D01*
X40499D01*
X37960Y-56174D01*
Y-66331D01*
X40499Y-68870D01*
X45578D01*
X48117Y-66331D01*
X53195Y-56174D02*
X55734Y-53635D01*
X60813D01*
X63352Y-56174D01*
Y-58713D01*
X60813Y-61252D01*
X58273D01*
X60813D01*
X63352Y-63792D01*
Y-66331D01*
X60813Y-68870D01*
X55734D01*
X53195Y-66331D01*
X342757Y106386D02*
X340218Y108925D01*
X335139D01*
X332600Y106386D01*
Y96229D01*
X335139Y93690D01*
X340218D01*
X342757Y96229D01*
X357992Y108925D02*
X352913Y106386D01*
X347835Y101307D01*
Y96229D01*
X350374Y93690D01*
X355453D01*
X357992Y96229D01*
Y98768D01*
X355453Y101307D01*
X347835D01*
X302117Y-79034D02*
X299578Y-76495D01*
X294499D01*
X291960Y-79034D01*
Y-89191D01*
X294499Y-91730D01*
X299578D01*
X302117Y-89191D01*
X317352Y-76495D02*
X307195D01*
Y-84113D01*
X312273Y-81573D01*
X314813D01*
X317352Y-84113D01*
Y-89191D01*
X314813Y-91730D01*
X309734D01*
X307195Y-89191D01*
X261617Y288286D02*
X259077Y290825D01*
X253999D01*
X251460Y288286D01*
Y278129D01*
X253999Y275590D01*
X259077D01*
X261617Y278129D01*
X266695Y288286D02*
X269234Y290825D01*
X274313D01*
X276852Y288286D01*
Y285747D01*
X274313Y283207D01*
X276852Y280668D01*
Y278129D01*
X274313Y275590D01*
X269234D01*
X266695Y278129D01*
Y280668D01*
X269234Y283207D01*
X266695Y285747D01*
Y288286D01*
X269234Y283207D02*
X274313D01*
X406892Y253579D02*
X404352Y256118D01*
X399274D01*
X396735Y253579D01*
Y243422D01*
X399274Y240883D01*
X404352D01*
X406892Y243422D01*
X411970Y256118D02*
X422127D01*
Y253579D01*
X411970Y243422D01*
Y240883D01*
X471027Y182745D02*
X465949D01*
X463410Y180206D01*
Y170049D01*
X465949Y167510D01*
X471027D01*
X473567Y170049D01*
Y180206D01*
X471027Y182745D01*
X478645D02*
Y170049D01*
X481184Y167510D01*
X486263D01*
X488802Y170049D01*
Y182745D01*
X493880D02*
X504037D01*
X498959D01*
Y167510D01*
X88760Y-68870D02*
Y-53635D01*
X96377D01*
X98917Y-56174D01*
Y-61252D01*
X96377Y-63792D01*
X88760D01*
X93838D02*
X98917Y-68870D01*
X103995Y-56174D02*
X106534Y-53635D01*
X111613D01*
X114152Y-56174D01*
Y-58713D01*
X111613Y-61252D01*
X109073D01*
X111613D01*
X114152Y-63792D01*
Y-66331D01*
X111613Y-68870D01*
X106534D01*
X103995Y-66331D01*
X171110Y257520D02*
Y272755D01*
X178727D01*
X181267Y270216D01*
Y265138D01*
X178727Y262598D01*
X171110D01*
X176188D02*
X181267Y257520D01*
X186345D02*
X191423D01*
X188884D01*
Y272755D01*
X186345Y270216D01*
X369430Y92420D02*
Y107655D01*
X377048D01*
X379587Y105116D01*
Y100037D01*
X377048Y97498D01*
X369430D01*
X374508D02*
X379587Y92420D01*
X394822Y107655D02*
X384665D01*
Y100037D01*
X389743Y102577D01*
X392283D01*
X394822Y100037D01*
Y94959D01*
X392283Y92420D01*
X387204D01*
X384665Y94959D01*
X311150Y242570D02*
Y257805D01*
X318768D01*
X321307Y255266D01*
Y250187D01*
X318768Y247648D01*
X311150D01*
X316228D02*
X321307Y242570D01*
X326385Y257805D02*
X336542D01*
Y255266D01*
X326385Y245109D01*
Y242570D01*
X457140Y-39995D02*
Y-50152D01*
X462218Y-55230D01*
X467297Y-50152D01*
Y-39995D01*
X482532Y-42534D02*
X479993Y-39995D01*
X474914D01*
X472375Y-42534D01*
Y-52691D01*
X474914Y-55230D01*
X479993D01*
X482532Y-52691D01*
X497767Y-42534D02*
X495228Y-39995D01*
X490149D01*
X487610Y-42534D01*
Y-52691D01*
X490149Y-55230D01*
X495228D01*
X497767Y-52691D01*
X502845Y-55230D02*
X507924D01*
X505384D01*
Y-39995D01*
X502845Y-42534D01*
X-14130Y-33645D02*
Y-43802D01*
X-9052Y-48880D01*
X-3973Y-43802D01*
Y-33645D01*
X11262Y-36184D02*
X8723Y-33645D01*
X3644D01*
X1105Y-36184D01*
Y-46341D01*
X3644Y-48880D01*
X8723D01*
X11262Y-46341D01*
X26497Y-36184D02*
X23958Y-33645D01*
X18879D01*
X16340Y-36184D01*
Y-46341D01*
X18879Y-48880D01*
X23958D01*
X26497Y-46341D01*
X55737Y133056D02*
X53197Y135595D01*
X48119D01*
X45580Y133056D01*
Y122899D01*
X48119Y120360D01*
X53197D01*
X55737Y122899D01*
X63354Y120360D02*
Y133056D01*
Y127978D01*
X60815D01*
X65893D01*
X63354D01*
Y133056D01*
X65893Y135595D01*
X73511Y120360D02*
X78589D01*
X76050D01*
Y135595D01*
X73511Y133056D01*
X347837Y-137454D02*
X345298Y-134915D01*
X340219D01*
X337680Y-137454D01*
Y-147611D01*
X340219Y-150150D01*
X345298D01*
X347837Y-147611D01*
X355454Y-150150D02*
Y-137454D01*
Y-142533D01*
X352915D01*
X357993D01*
X355454D01*
Y-137454D01*
X357993Y-134915D01*
X365611Y-137454D02*
X368150Y-134915D01*
X373228D01*
X375768Y-137454D01*
Y-139993D01*
X373228Y-142533D01*
X370689D01*
X373228D01*
X375768Y-145072D01*
Y-147611D01*
X373228Y-150150D01*
X368150D01*
X365611Y-147611D01*
X124317Y-127294D02*
X121777Y-124755D01*
X116699D01*
X114160Y-127294D01*
Y-137451D01*
X116699Y-139990D01*
X121777D01*
X124317Y-137451D01*
X131934Y-139990D02*
Y-127294D01*
Y-132373D01*
X129395D01*
X134473D01*
X131934D01*
Y-127294D01*
X134473Y-124755D01*
X152248Y-139990D02*
X142091D01*
X152248Y-129833D01*
Y-127294D01*
X149708Y-124755D01*
X144630D01*
X142091Y-127294D01*
X213220Y227035D02*
Y214339D01*
X215759Y211800D01*
X220837D01*
X223377Y214339D01*
Y227035D01*
X228455Y211800D02*
X233533D01*
X230994D01*
Y227035D01*
X228455Y224496D01*
D27*
X166230Y-134696D02*
X178226D01*
X172228D01*
Y-152690D01*
X184224Y-134696D02*
Y-152690D01*
X193221D01*
X196220Y-149691D01*
Y-137695D01*
X193221Y-134696D01*
X184224D01*
X214214D02*
X202218D01*
Y-152690D01*
X214214D01*
X202218Y-143693D02*
X208216D01*
X250203Y-137695D02*
X247204Y-134696D01*
X241206D01*
X238207Y-137695D01*
Y-149691D01*
X241206Y-152690D01*
X247204D01*
X250203Y-149691D01*
Y-143693D01*
X244205D01*
X256201Y-140694D02*
Y-152690D01*
Y-146692D01*
X259200Y-143693D01*
X262199Y-140694D01*
X265198D01*
X277194Y-152690D02*
X283192D01*
X286191Y-149691D01*
Y-143693D01*
X283192Y-140694D01*
X277194D01*
X274195Y-143693D01*
Y-149691D01*
X277194Y-152690D01*
X292189Y-140694D02*
Y-149691D01*
X295188Y-152690D01*
X304185D01*
Y-140694D01*
X310183Y-158688D02*
Y-140694D01*
X319181D01*
X322179Y-143693D01*
Y-149691D01*
X319181Y-152690D01*
X310183D01*
M02*
