G04 Layer_Color=8388736*
%FSLAX44Y44*%
%MOMM*%
G71*
G01*
G75*
%ADD12C,0.1000*%
%ADD28C,3.2032*%
%ADD29C,2.0032*%
%ADD30R,2.0032X2.0032*%
%ADD31R,2.0032X2.0032*%
%ADD32C,1.9032*%
%ADD33R,2.6032X2.6032*%
%ADD34C,2.6032*%
%ADD35R,1.7032X1.7032*%
%ADD36C,1.7032*%
D12*
X-40000Y-200000D02*
X530000D01*
Y310000D01*
X-40000Y-200000D02*
Y310000D01*
X530000D01*
D28*
X480000Y130000D02*
D03*
X0Y0D02*
D03*
D29*
X454520Y53050D02*
D03*
X196710Y-91730D02*
D03*
X-1410Y101310D02*
D03*
D30*
X454520Y78450D02*
D03*
X-1410Y75910D02*
D03*
D31*
X222110Y-91730D02*
D03*
D32*
X29070Y38610D02*
D03*
Y138610D02*
D03*
X180200Y53520D02*
D03*
Y-46480D02*
D03*
X378460Y148120D02*
D03*
Y248120D02*
D03*
X415150Y77650D02*
D03*
Y-22350D02*
D03*
X142100Y138940D02*
D03*
Y238940D02*
D03*
X98920Y138940D02*
D03*
Y238940D02*
D03*
X145910Y72570D02*
D03*
Y-27430D02*
D03*
X60820Y-23620D02*
D03*
Y76380D02*
D03*
X344030Y78920D02*
D03*
Y-21080D02*
D03*
X322910Y-46010D02*
D03*
X222910D02*
D03*
X299250Y285750D02*
D03*
X399250D02*
D03*
X415150Y223700D02*
D03*
Y123700D02*
D03*
X109080Y67490D02*
D03*
Y-32510D02*
D03*
X180000Y138940D02*
D03*
Y238940D02*
D03*
X378320Y78920D02*
D03*
Y-21080D02*
D03*
X340360Y129070D02*
D03*
Y229070D02*
D03*
X76860Y103850D02*
D03*
X176860D02*
D03*
X404990Y-87450D02*
D03*
Y-187450D02*
D03*
X79870Y-87450D02*
D03*
Y-187450D02*
D03*
D33*
X10000Y224600D02*
D03*
X480000Y275400D02*
D03*
Y-94600D02*
D03*
X10000Y-145400D02*
D03*
D34*
Y275400D02*
D03*
X480000Y224600D02*
D03*
Y-145400D02*
D03*
X10000Y-94600D02*
D03*
D35*
X222110Y180050D02*
D03*
D36*
Y154650D02*
D03*
Y129250D02*
D03*
Y103850D02*
D03*
Y78450D02*
D03*
Y53050D02*
D03*
Y27650D02*
D03*
X298310Y180050D02*
D03*
Y154650D02*
D03*
Y129250D02*
D03*
Y103850D02*
D03*
Y78450D02*
D03*
Y53050D02*
D03*
Y27650D02*
D03*
M02*
