G04 Layer_Color=65535*
%FSLAX44Y44*%
%MOMM*%
G71*
G01*
G75*
%ADD15C,0.3000*%
%ADD16C,0.2540*%
%ADD17C,0.1000*%
%ADD26C,0.1524*%
%ADD27C,0.2500*%
%ADD28C,0.2000*%
%ADD29C,0.0500*%
%ADD30C,0.1500*%
D15*
X251460Y112785D02*
X261457D01*
X256458D01*
Y97790D01*
X266455Y112785D02*
Y97790D01*
X273953D01*
X276452Y100289D01*
Y110286D01*
X273953Y112785D01*
X266455D01*
X291447D02*
X281450D01*
Y97790D01*
X291447D01*
X281450Y105288D02*
X286449D01*
X321437Y110286D02*
X318938Y112785D01*
X313940D01*
X311441Y110286D01*
Y100289D01*
X313940Y97790D01*
X318938D01*
X321437Y100289D01*
Y105288D01*
X316439D01*
X326436Y107787D02*
Y97790D01*
Y102788D01*
X328935Y105288D01*
X331434Y107787D01*
X333933D01*
X343930Y97790D02*
X348928D01*
X351428Y100289D01*
Y105288D01*
X348928Y107787D01*
X343930D01*
X341431Y105288D01*
Y100289D01*
X343930Y97790D01*
X356426Y107787D02*
Y100289D01*
X358925Y97790D01*
X366423D01*
Y107787D01*
X371421Y92792D02*
Y107787D01*
X378919D01*
X381418Y105288D01*
Y100289D01*
X378919Y97790D01*
X371421D01*
D16*
X110487Y372105D02*
X105408D01*
X107948D01*
Y359409D01*
X105408Y356870D01*
X102869D01*
X100330Y359409D01*
X115565Y356870D02*
X120643D01*
X118104D01*
Y372105D01*
X115565Y369566D01*
X66037Y156205D02*
X60958D01*
X63498D01*
Y143509D01*
X60958Y140970D01*
X58419D01*
X55880Y143509D01*
X71115Y153666D02*
X73654Y156205D01*
X78733D01*
X81272Y153666D01*
Y151127D01*
X78733Y148588D01*
X76193D01*
X78733D01*
X81272Y146048D01*
Y143509D01*
X78733Y140970D01*
X73654D01*
X71115Y143509D01*
X256537Y144775D02*
X251458D01*
X253997D01*
Y132079D01*
X251458Y129540D01*
X248919D01*
X246380Y132079D01*
X271772Y129540D02*
X261615D01*
X271772Y139697D01*
Y142236D01*
X269233Y144775D01*
X264154D01*
X261615Y142236D01*
X80007Y52065D02*
X74928D01*
X77467D01*
Y39369D01*
X74928Y36830D01*
X72389D01*
X69850Y39369D01*
X92703Y36830D02*
Y52065D01*
X85085Y44447D01*
X95242D01*
X313687Y270505D02*
X308609D01*
X306070Y267966D01*
Y257809D01*
X308609Y255270D01*
X313687D01*
X316227Y257809D01*
Y267966D01*
X313687Y270505D01*
X321305Y265427D02*
Y257809D01*
X323844Y255270D01*
X331462D01*
Y265427D01*
X339079Y267966D02*
Y265427D01*
X336540D01*
X341618D01*
X339079D01*
Y257809D01*
X341618Y255270D01*
X349236Y250192D02*
Y265427D01*
X356854D01*
X359393Y262887D01*
Y257809D01*
X356854Y255270D01*
X349236D01*
X364471Y265427D02*
Y257809D01*
X367010Y255270D01*
X374628D01*
Y265427D01*
X382245Y267966D02*
Y265427D01*
X379706D01*
X384785D01*
X382245D01*
Y257809D01*
X384785Y255270D01*
X311150Y303530D02*
Y318765D01*
X318768D01*
X321307Y316226D01*
Y311147D01*
X318768Y308608D01*
X311150D01*
X316228D02*
X321307Y303530D01*
X334003D02*
Y318765D01*
X326385Y311147D01*
X336542D01*
X15240Y334005D02*
X20318D01*
X17779D01*
Y318770D01*
X15240D01*
X20318D01*
X27936D02*
Y328927D01*
X35553D01*
X38093Y326387D01*
Y318770D01*
X43171Y313692D02*
Y328927D01*
X50788D01*
X53328Y326387D01*
Y321309D01*
X50788Y318770D01*
X43171D01*
X58406Y328927D02*
Y321309D01*
X60945Y318770D01*
X68563D01*
Y328927D01*
X76180Y331466D02*
Y328927D01*
X73641D01*
X78720D01*
X76180D01*
Y321309D01*
X78720Y318770D01*
X115567Y394965D02*
X105410D01*
Y387347D01*
X110488Y389887D01*
X113027D01*
X115567Y387347D01*
Y382269D01*
X113027Y379730D01*
X107949D01*
X105410Y382269D01*
X120645Y394965D02*
Y384808D01*
X125723Y379730D01*
X130802Y384808D01*
Y394965D01*
X146037Y389887D02*
X138419D01*
X135880Y387347D01*
Y382269D01*
X138419Y379730D01*
X146037D01*
X161272Y389887D02*
X153654D01*
X151115Y387347D01*
Y382269D01*
X153654Y379730D01*
X161272D01*
X240030Y34286D02*
X242569Y36825D01*
X247647D01*
X250187Y34286D01*
Y31747D01*
X247647Y29207D01*
X245108D01*
X247647D01*
X250187Y26668D01*
Y24129D01*
X247647Y21590D01*
X242569D01*
X240030Y24129D01*
X255265Y21590D02*
Y24129D01*
X257804D01*
Y21590D01*
X255265D01*
X267961Y34286D02*
X270500Y36825D01*
X275578D01*
X278118Y34286D01*
Y31747D01*
X275578Y29207D01*
X273039D01*
X275578D01*
X278118Y26668D01*
Y24129D01*
X275578Y21590D01*
X270500D01*
X267961Y24129D01*
X283196Y36825D02*
Y26668D01*
X288274Y21590D01*
X293353Y26668D01*
Y36825D01*
X308588Y31747D02*
X300970D01*
X298431Y29207D01*
Y24129D01*
X300970Y21590D01*
X308588D01*
X323823Y31747D02*
X316205D01*
X313666Y29207D01*
Y24129D01*
X316205Y21590D01*
X323823D01*
X135890Y303530D02*
Y318765D01*
X143507D01*
X146047Y316226D01*
Y311147D01*
X143507Y308608D01*
X135890D01*
X140968D02*
X146047Y303530D01*
X151125D02*
X156203D01*
X153664D01*
Y318765D01*
X151125Y316226D01*
X156207Y259079D02*
Y269236D01*
X153667Y271775D01*
X148589D01*
X146050Y269236D01*
Y259079D01*
X148589Y256540D01*
X153667D01*
X151128Y261618D02*
X156207Y256540D01*
X153667D02*
X156207Y259079D01*
X161285Y256540D02*
X166363D01*
X163824D01*
Y271775D01*
X161285Y269236D01*
X107950Y270510D02*
Y285745D01*
X115568D01*
X118107Y283206D01*
Y278127D01*
X115568Y275588D01*
X107950D01*
X113028D02*
X118107Y270510D01*
X123185Y283206D02*
X125724Y285745D01*
X130803D01*
X133342Y283206D01*
Y280667D01*
X130803Y278127D01*
X128263D01*
X130803D01*
X133342Y275588D01*
Y273049D01*
X130803Y270510D01*
X125724D01*
X123185Y273049D01*
X149860Y135890D02*
Y151125D01*
X157478D01*
X160017Y148586D01*
Y143507D01*
X157478Y140968D01*
X149860D01*
X154938D02*
X160017Y135890D01*
X175252D02*
X165095D01*
X175252Y146047D01*
Y148586D01*
X172713Y151125D01*
X167634D01*
X165095Y148586D01*
D17*
X0Y0D02*
Y400000D01*
Y0D02*
X400000D01*
Y400000D01*
X0D02*
X400000D01*
D26*
X304800Y278130D02*
G03*
X307340Y275590I2540J0D01*
G01*
Y295910D02*
G03*
X304800Y293370I0J-2540D01*
G01*
X355600D02*
G03*
X353060Y295910I-2540J0D01*
G01*
Y275590D02*
G03*
X355600Y278130I0J2540D01*
G01*
X177800D02*
G03*
X180340Y275590I2540J0D01*
G01*
Y295910D02*
G03*
X177800Y293370I0J-2540D01*
G01*
X228600D02*
G03*
X226060Y295910I-2540J0D01*
G01*
Y275590D02*
G03*
X228600Y278130I0J2540D01*
G01*
X138430Y179070D02*
G03*
X140970Y181610I0J2540D01*
G01*
X120650D02*
G03*
X123190Y179070I2540J0D01*
G01*
Y229870D02*
G03*
X120650Y227330I0J-2540D01*
G01*
X140970D02*
G03*
X138430Y229870I-2540J0D01*
G01*
X170180Y127000D02*
G03*
X167640Y129540I-2540J0D01*
G01*
Y109220D02*
G03*
X170180Y111760I0J2540D01*
G01*
X119380D02*
G03*
X121920Y109220I2540J0D01*
G01*
Y129540D02*
G03*
X119380Y127000I0J-2540D01*
G01*
X304800Y278130D02*
Y293370D01*
X307340Y295910D02*
X311150D01*
X307340Y275590D02*
X311150D01*
X312420Y294640D02*
X347980D01*
X311150Y295910D02*
X312420Y294640D01*
Y276860D02*
X347980D01*
X311150Y275590D02*
X312420Y276860D01*
X347980Y294640D02*
X349250Y295910D01*
X353060D01*
X347980Y276860D02*
X349250Y275590D01*
X353060D01*
X355600Y278130D02*
Y293370D01*
X177800Y278130D02*
Y293370D01*
X180340Y295910D02*
X184150D01*
X180340Y275590D02*
X184150D01*
X185420Y294640D02*
X220980D01*
X184150Y295910D02*
X185420Y294640D01*
Y276860D02*
X220980D01*
X184150Y275590D02*
X185420Y276860D01*
X220980Y294640D02*
X222250Y295910D01*
X226060D01*
X220980Y276860D02*
X222250Y275590D01*
X226060D01*
X228600Y278130D02*
Y293370D01*
X123190Y179070D02*
X138430D01*
X120650Y181610D02*
Y185420D01*
X140970Y181610D02*
Y185420D01*
X121920Y186690D02*
Y222250D01*
X120650Y185420D02*
X121920Y186690D01*
X139700D02*
Y222250D01*
Y186690D02*
X140970Y185420D01*
X120650Y223520D02*
X121920Y222250D01*
X120650Y223520D02*
Y227330D01*
X139700Y222250D02*
X140970Y223520D01*
Y227330D01*
X123190Y229870D02*
X138430D01*
X170180Y111760D02*
Y127000D01*
X163830Y109220D02*
X167640D01*
X163830Y129540D02*
X167640D01*
X127000Y110490D02*
X162560D01*
X163830Y109220D01*
X127000Y128270D02*
X162560D01*
X163830Y129540D01*
X125730Y109220D02*
X127000Y110490D01*
X121920Y109220D02*
X125730D01*
Y129540D02*
X127000Y128270D01*
X121920Y129540D02*
X125730D01*
X119380Y111760D02*
Y127000D01*
D27*
X185520Y247440D02*
G03*
X185520Y247440I-1250J0D01*
G01*
D28*
X106680Y63500D02*
Y88900D01*
X55880Y63500D02*
X106680D01*
X55880D02*
Y88900D01*
X106680D01*
X22860Y113030D02*
X48260D01*
X22860D02*
Y163830D01*
X48260D01*
Y113030D02*
Y163830D01*
X217170Y161290D02*
X242570D01*
Y110490D02*
Y161290D01*
X217170Y110490D02*
X242570D01*
X217170D02*
Y161290D01*
X140970Y326390D02*
Y351790D01*
X90170Y326390D02*
X140970D01*
X90170D02*
Y351790D01*
X140970D01*
X170520Y169890D02*
X251020D01*
X170520Y266540D02*
X251020D01*
Y169890D02*
Y266540D01*
X170520Y169890D02*
Y266540D01*
D29*
X307060Y244910D02*
X399060D01*
Y143710D02*
Y244910D01*
X307060Y143710D02*
X399060D01*
X307060D02*
Y244910D01*
X2260Y197050D02*
X94260D01*
X2260D02*
Y298250D01*
X94260D01*
Y197050D02*
Y298250D01*
X165300Y307060D02*
Y399060D01*
X266500D01*
Y307060D02*
Y399060D01*
X165300Y307060D02*
X266500D01*
X233480Y990D02*
Y92990D01*
X132280Y990D02*
X233480D01*
X132280D02*
Y92990D01*
X233480D01*
D30*
X260350Y88007D02*
Y80010D01*
X264349D01*
X265682Y81343D01*
Y86674D01*
X264349Y88007D01*
X260350D01*
X268347D02*
Y82676D01*
X271013Y80010D01*
X273679Y82676D01*
Y88007D01*
X276345D02*
X281676D01*
X279011D01*
Y80010D01*
X292340Y88007D02*
Y80010D01*
X297671D01*
X304336D02*
X301670D01*
X300337Y81343D01*
Y84009D01*
X301670Y85342D01*
X304336D01*
X305669Y84009D01*
Y82676D01*
X300337D01*
X308335Y85342D02*
X311000Y80010D01*
X313666Y85342D01*
X320331Y80010D02*
X317665D01*
X316332Y81343D01*
Y84009D01*
X317665Y85342D01*
X320331D01*
X321664Y84009D01*
Y82676D01*
X316332D01*
X324329Y80010D02*
X326995D01*
X325662D01*
Y88007D01*
X324329D01*
X336325Y86674D02*
X334993Y88007D01*
X332327D01*
X330994Y86674D01*
Y85342D01*
X332327Y84009D01*
X334993D01*
X336325Y82676D01*
Y81343D01*
X334993Y80010D01*
X332327D01*
X330994Y81343D01*
X338991Y88007D02*
Y80010D01*
Y84009D01*
X340324Y85342D01*
X342990D01*
X344323Y84009D01*
Y80010D01*
X346989D02*
X349655D01*
X348322D01*
Y85342D01*
X346989D01*
X354986Y80010D02*
Y86674D01*
Y84009D01*
X353653D01*
X356319D01*
X354986D01*
Y86674D01*
X356319Y88007D01*
X361651Y86674D02*
Y85342D01*
X360318D01*
X362984D01*
X361651D01*
Y81343D01*
X362984Y80010D01*
X370981D02*
X368315D01*
X366982Y81343D01*
Y84009D01*
X368315Y85342D01*
X370981D01*
X372314Y84009D01*
Y82676D01*
X366982D01*
X374980Y85342D02*
Y80010D01*
Y82676D01*
X376313Y84009D01*
X377645Y85342D01*
X378978D01*
X298450Y66040D02*
Y74037D01*
X302449D01*
X303782Y72705D01*
Y70039D01*
X302449Y68706D01*
X298450D01*
X306447Y66040D02*
Y74037D01*
X311779Y66040D01*
Y74037D01*
X314445Y66040D02*
X317111D01*
X315778D01*
Y74037D01*
X314445Y72705D01*
X321109D02*
X322442Y74037D01*
X325108D01*
X326441Y72705D01*
Y67373D01*
X325108Y66040D01*
X322442D01*
X321109Y67373D01*
Y72705D01*
X329107D02*
X330440Y74037D01*
X333106D01*
X334438Y72705D01*
Y67373D01*
X333106Y66040D01*
X330440D01*
X329107Y67373D01*
Y72705D01*
X342436Y74037D02*
X337104D01*
Y70039D01*
X339770Y71372D01*
X341103D01*
X342436Y70039D01*
Y67373D01*
X341103Y66040D01*
X338437D01*
X337104Y67373D01*
X345102Y66040D02*
X347767D01*
X346435D01*
Y74037D01*
X345102Y72705D01*
M02*
