G04 Layer_Color=2752767*
%FSLAX44Y44*%
%MOMM*%
G71*
G01*
G75*
%ADD17C,0.1000*%
%ADD43C,0.0508*%
%ADD44C,0.0677*%
D17*
X0Y0D02*
Y400000D01*
Y0D02*
X400000D01*
Y400000D01*
X0D02*
X400000D01*
D43*
X66548Y74168D02*
Y78232D01*
X70612D01*
Y74168D01*
X66548D01*
X91948D02*
Y78232D01*
X96012D01*
Y74168D01*
X91948D01*
X33528Y149098D02*
Y153162D01*
X37592D01*
Y149098D01*
X33528D01*
Y123698D02*
Y127762D01*
X37592D01*
Y123698D01*
X33528D01*
X227838Y121158D02*
Y125222D01*
X231902D01*
Y121158D01*
X227838D01*
Y146558D02*
Y150622D01*
X231902D01*
Y146558D01*
X227838D01*
X100838Y337058D02*
Y341122D01*
X104902D01*
Y337058D01*
X100838D01*
X126238D02*
Y341122D01*
X130302D01*
Y337058D01*
X126238D01*
X280200Y283718D02*
X278168Y287782D01*
X282232D01*
X280200Y283718D01*
X380200D02*
X378168Y287782D01*
X382232D01*
X380200Y283718D01*
X30000Y367968D02*
X31016Y368984D01*
X32032D01*
X31016Y370000D01*
X32032Y371016D01*
X31016D01*
X30000Y372032D01*
X28984Y371016D01*
X27968D01*
X28984Y370000D01*
X27968Y368984D01*
X28984D01*
X30000Y367968D01*
X370000Y27968D02*
X371016Y28984D01*
X372032D01*
X371016Y30000D01*
X372032Y31016D01*
X371016D01*
X370000Y32032D01*
X368984Y31016D01*
X367968D01*
X368984Y30000D01*
X367968Y28984D01*
X368984D01*
X370000Y27968D01*
Y367968D02*
X371016Y368984D01*
X372032D01*
X371016Y370000D01*
X372032Y371016D01*
X371016D01*
X370000Y372032D01*
X368984Y371016D01*
X367968D01*
X368984Y370000D01*
X367968Y368984D01*
X368984D01*
X370000Y367968D01*
X30000Y27968D02*
X31016Y28984D01*
X32032D01*
X31016Y30000D01*
X32032Y31016D01*
X31016D01*
X30000Y32032D01*
X28984Y31016D01*
X27968D01*
X28984Y30000D01*
X27968Y28984D01*
X28984D01*
X30000Y27968D01*
X153200Y283718D02*
X151168Y287782D01*
X155232D01*
X153200Y283718D01*
X253200D02*
X251168Y287782D01*
X255232D01*
X253200Y283718D01*
X130810Y152438D02*
X128778Y156502D01*
X132842D01*
X130810Y152438D01*
Y252438D02*
X128778Y256502D01*
X132842D01*
X130810Y252438D01*
X194780Y117348D02*
X192748Y121412D01*
X196812D01*
X194780Y117348D01*
X94780D02*
X92748Y121412D01*
X96812D01*
X94780Y117348D01*
D44*
X355092Y168910D02*
G03*
X355092Y168910I-2032J0D01*
G01*
Y219710D02*
G03*
X355092Y219710I-2032J0D01*
G01*
X50292Y273050D02*
G03*
X50292Y273050I-2032J0D01*
G01*
Y222250D02*
G03*
X50292Y222250I-2032J0D01*
G01*
X243332Y353060D02*
G03*
X243332Y353060I-2032J0D01*
G01*
X192532D02*
G03*
X192532Y353060I-2032J0D01*
G01*
X159512Y46990D02*
G03*
X159512Y46990I-2032J0D01*
G01*
X210312D02*
G03*
X210312Y46990I-2032J0D01*
G01*
M02*
