G04 Layer_Color=128*
%FSLAX25Y25*%
%MOIN*%
G70*
G01*
G75*
%ADD18C,0.00394*%
%ADD52C,0.00200*%
D18*
X0Y-15D02*
Y177150D01*
Y-15D02*
X255906D01*
Y177150D01*
X0D02*
X255906D01*
D52*
X123728Y139300D02*
X127272D01*
X125500Y137528D02*
Y141072D01*
X133728Y139300D02*
X137272D01*
X135500Y137528D02*
Y141072D01*
X143728Y139300D02*
X147272D01*
X145500Y137528D02*
Y141072D01*
X153728Y139300D02*
X157272D01*
X155500Y137528D02*
Y141072D01*
X163728Y139300D02*
X167272D01*
X165500Y137528D02*
Y141072D01*
X173728Y139300D02*
X177272D01*
X175500Y137528D02*
Y141072D01*
X183728Y139300D02*
X187272D01*
X185500Y137528D02*
Y141072D01*
X123728Y169300D02*
X127272D01*
X125500Y167528D02*
Y171072D01*
X133728Y169300D02*
X137272D01*
X135500Y167528D02*
Y171072D01*
X143728Y169300D02*
X147272D01*
X145500Y167528D02*
Y171072D01*
X153728Y169300D02*
X157272D01*
X155500Y167528D02*
Y171072D01*
X163728Y169300D02*
X167272D01*
X165500Y167528D02*
Y171072D01*
X173728Y169300D02*
X177272D01*
X175500Y167528D02*
Y171072D01*
X183728Y169300D02*
X187272D01*
X185500Y167528D02*
Y171072D01*
X182728Y55615D02*
X186272D01*
X184500Y53843D02*
Y57387D01*
X182728Y94985D02*
X186272D01*
X184500Y93213D02*
Y96757D01*
X103913Y131800D02*
X107457D01*
X105685Y130028D02*
Y133572D01*
X64543Y131800D02*
X68087D01*
X66315Y130028D02*
Y133572D01*
X163228Y55615D02*
X166772D01*
X165000Y53843D02*
Y57387D01*
X163228Y94985D02*
X166772D01*
X165000Y93213D02*
Y96757D01*
X103913Y153300D02*
X107457D01*
X105685Y151528D02*
Y155072D01*
X64543Y153300D02*
X68087D01*
X66315Y151528D02*
Y155072D01*
X144228Y55615D02*
X147772D01*
X146000Y53843D02*
Y57387D01*
X144228Y94985D02*
X147772D01*
X146000Y93213D02*
Y96757D01*
X126228Y55615D02*
X129772D01*
X128000Y53843D02*
Y57387D01*
X126228Y94985D02*
X129772D01*
X128000Y93213D02*
Y96757D01*
X13780Y157480D02*
X25591D01*
X19685Y151575D02*
Y163386D01*
X230315Y19685D02*
X242126D01*
X236221Y13780D02*
Y25591D01*
X13780Y19685D02*
X25591D01*
X19685Y13780D02*
Y25591D01*
X52213Y50800D02*
X56937D01*
X54575Y48438D02*
Y53162D01*
X62213Y50800D02*
X66937D01*
X64575Y48438D02*
Y53162D01*
X54713Y87300D02*
X59437D01*
X57075Y84938D02*
Y89662D01*
X64713Y87300D02*
X69437D01*
X67075Y84938D02*
Y89662D01*
X16929Y81800D02*
X22441D01*
X19685Y79044D02*
Y84556D01*
X16929Y61800D02*
X22441D01*
X19685Y59044D02*
Y64556D01*
X152228Y120800D02*
X155772D01*
X154000Y119028D02*
Y122572D01*
X162228Y120800D02*
X165772D01*
X164000Y119028D02*
Y122572D01*
X142228Y120800D02*
X145772D01*
X144000Y119028D02*
Y122572D01*
X232244Y128800D02*
X237756D01*
X235000Y126044D02*
Y131556D01*
X232244Y148800D02*
X237756D01*
X235000Y146044D02*
Y151556D01*
X85669Y19670D02*
X91181D01*
X88425Y16914D02*
Y22426D01*
X105669Y19670D02*
X111181D01*
X108425Y16914D02*
Y22426D01*
X117600Y54300D02*
X120400D01*
X119000Y52900D02*
Y55700D01*
M02*
