G04 Layer_Physical_Order=1*
G04 Layer_Color=6759642*
%FSLAX25Y25*%
%MOIN*%
G70*
G01*
G75*
%ADD10R,0.06496X0.01378*%
%ADD11O,0.06496X0.01378*%
G04:AMPARAMS|DCode=12|XSize=98.42mil|YSize=98.42mil|CornerRadius=4.92mil|HoleSize=0mil|Usage=FLASHONLY|Rotation=90.000|XOffset=0mil|YOffset=0mil|HoleType=Round|Shape=RoundedRectangle|*
%AMROUNDEDRECTD12*
21,1,0.09842,0.08858,0,0,90.0*
21,1,0.08858,0.09842,0,0,90.0*
1,1,0.00984,0.04429,0.04429*
1,1,0.00984,0.04429,-0.04429*
1,1,0.00984,-0.04429,-0.04429*
1,1,0.00984,-0.04429,0.04429*
%
%ADD12ROUNDEDRECTD12*%
G04:AMPARAMS|DCode=13|XSize=59.05mil|YSize=78.74mil|CornerRadius=2.95mil|HoleSize=0mil|Usage=FLASHONLY|Rotation=0.000|XOffset=0mil|YOffset=0mil|HoleType=Round|Shape=RoundedRectangle|*
%AMROUNDEDRECTD13*
21,1,0.05905,0.07283,0,0,0.0*
21,1,0.05315,0.07874,0,0,0.0*
1,1,0.00591,0.02657,-0.03642*
1,1,0.00591,-0.02657,-0.03642*
1,1,0.00591,-0.02657,0.03642*
1,1,0.00591,0.02657,0.03642*
%
%ADD13ROUNDEDRECTD13*%
%ADD14C,0.01181*%
%ADD15C,0.03937*%
%ADD16C,0.01000*%
%ADD17C,0.07874*%
%ADD18C,0.00394*%
%ADD19R,0.05905X0.05905*%
%ADD20C,0.05905*%
%ADD21C,0.06693*%
%ADD22C,0.11811*%
%ADD23R,0.07087X0.07087*%
%ADD24C,0.07087*%
%ADD25C,0.09449*%
%ADD26R,0.09449X0.09449*%
%ADD27C,0.05905*%
%ADD28R,0.05905X0.05905*%
%ADD29R,0.09449X0.09449*%
%ADD30C,0.05000*%
G36*
X255250Y804D02*
X254896Y450D01*
X500Y500D01*
Y176250D01*
X255250D01*
Y804D01*
D02*
G37*
%LPC*%
G36*
X185000Y59933D02*
Y56115D01*
X188818D01*
X188735Y56750D01*
X188297Y57807D01*
X187600Y58715D01*
X186692Y59412D01*
X185635Y59850D01*
X185000Y59933D01*
D02*
G37*
G36*
X165500D02*
Y56115D01*
X169318D01*
X169235Y56750D01*
X168797Y57807D01*
X168100Y58715D01*
X167192Y59412D01*
X166135Y59850D01*
X165500Y59933D01*
D02*
G37*
G36*
X102732Y60983D02*
X100575D01*
Y56520D01*
X104053D01*
Y59662D01*
X103952Y60168D01*
X103666Y60596D01*
X103238Y60882D01*
X102732Y60983D01*
D02*
G37*
G36*
X99575D02*
X97417D01*
X96912Y60882D01*
X96483Y60596D01*
X96197Y60168D01*
X96097Y59662D01*
Y56520D01*
X99575D01*
Y60983D01*
D02*
G37*
G36*
X146500Y59933D02*
Y56115D01*
X150318D01*
X150235Y56750D01*
X149797Y57807D01*
X149100Y58715D01*
X148192Y59412D01*
X147135Y59850D01*
X146500Y59933D01*
D02*
G37*
G36*
X164500D02*
X163865Y59850D01*
X162808Y59412D01*
X161900Y58715D01*
X161203Y57807D01*
X160765Y56750D01*
X160682Y56115D01*
X164500D01*
Y59933D01*
D02*
G37*
G36*
X145500D02*
X144865Y59850D01*
X143808Y59412D01*
X142900Y58715D01*
X142203Y57807D01*
X141765Y56750D01*
X141682Y56115D01*
X145500D01*
Y59933D01*
D02*
G37*
G36*
X128500D02*
Y56115D01*
X132318D01*
X132235Y56750D01*
X131797Y57807D01*
X131100Y58715D01*
X130192Y59412D01*
X129135Y59850D01*
X128500Y59933D01*
D02*
G37*
G36*
X184000D02*
X183365Y59850D01*
X182308Y59412D01*
X181400Y58715D01*
X180703Y57807D01*
X180265Y56750D01*
X180182Y56115D01*
X184000D01*
Y59933D01*
D02*
G37*
G36*
X67075Y91882D02*
X65889Y91726D01*
X64784Y91269D01*
X63835Y90540D01*
X63106Y89591D01*
X62648Y88486D01*
X62492Y87300D01*
X62648Y86114D01*
X63106Y85009D01*
X63835Y84060D01*
X64784Y83331D01*
X65889Y82874D01*
X67075Y82718D01*
X67220Y82737D01*
X67612Y82735D01*
X68503Y82681D01*
X68857Y82636D01*
X69174Y82576D01*
X69439Y82508D01*
X69652Y82433D01*
X69812Y82359D01*
X69919Y82293D01*
X69923Y82289D01*
X81772Y70440D01*
X81621Y69884D01*
X81243Y69631D01*
X67423Y55811D01*
X67419Y55807D01*
X67312Y55741D01*
X67152Y55667D01*
X66939Y55592D01*
X66674Y55524D01*
X66357Y55464D01*
X66003Y55419D01*
X65112Y55366D01*
X64720Y55363D01*
X64575Y55383D01*
X63389Y55226D01*
X62284Y54769D01*
X61335Y54040D01*
X60606Y53091D01*
X60148Y51986D01*
X59992Y50800D01*
X60148Y49614D01*
X60606Y48509D01*
X61335Y47560D01*
X62284Y46831D01*
X63389Y46374D01*
X64575Y46218D01*
X65761Y46374D01*
X66866Y46831D01*
X67815Y47560D01*
X68543Y48509D01*
X69001Y49614D01*
X69157Y50800D01*
X69138Y50946D01*
X69140Y51337D01*
X69193Y52228D01*
X69239Y52583D01*
X69298Y52899D01*
X69367Y53164D01*
X69441Y53378D01*
X69516Y53537D01*
X69582Y53644D01*
X69586Y53648D01*
X82958Y67021D01*
X83766D01*
X84076Y66521D01*
X83983Y66050D01*
X84114Y65391D01*
X84487Y64832D01*
Y64768D01*
X84114Y64209D01*
X83983Y63550D01*
X84114Y62891D01*
X84487Y62332D01*
Y62258D01*
X84114Y61699D01*
X83983Y61040D01*
X84114Y60381D01*
X84487Y59822D01*
X85046Y59449D01*
X85705Y59318D01*
X90823D01*
X91482Y59449D01*
X92040Y59822D01*
X92414Y60381D01*
X92545Y61040D01*
X92414Y61699D01*
X92040Y62258D01*
Y62332D01*
X92414Y62891D01*
X92545Y63550D01*
X92414Y64209D01*
X92040Y64768D01*
Y64832D01*
X92414Y65391D01*
X92545Y66050D01*
X92414Y66709D01*
X92289Y66897D01*
X92059Y67300D01*
X92289Y67703D01*
X92414Y67891D01*
X92545Y68550D01*
X92414Y69209D01*
X92289Y69397D01*
X92059Y69800D01*
X92289Y70203D01*
X92414Y70391D01*
X92545Y71050D01*
X92414Y71709D01*
X92289Y71897D01*
X92059Y72300D01*
X92289Y72703D01*
X92414Y72891D01*
X92545Y73550D01*
X92414Y74209D01*
X92040Y74768D01*
Y74832D01*
X92414Y75391D01*
X92545Y76050D01*
X92414Y76709D01*
X92154Y77097D01*
X92233Y77150D01*
X92454Y77481D01*
X92531Y77871D01*
Y78060D01*
X88264D01*
X83996D01*
Y77871D01*
X84074Y77481D01*
X84295Y77150D01*
X84373Y77097D01*
X84114Y76709D01*
X83983Y76050D01*
X84114Y75391D01*
X84487Y74832D01*
Y74768D01*
X84114Y74209D01*
X83983Y73550D01*
X84054Y73191D01*
X83593Y72944D01*
X72086Y84452D01*
X72082Y84456D01*
X72016Y84563D01*
X71941Y84722D01*
X71867Y84935D01*
X71798Y85201D01*
X71739Y85518D01*
X71693Y85872D01*
X71640Y86763D01*
X71638Y87154D01*
X71657Y87300D01*
X71501Y88486D01*
X71043Y89591D01*
X70315Y90540D01*
X69366Y91269D01*
X68261Y91726D01*
X67075Y91882D01*
D02*
G37*
G36*
X19685Y87574D02*
X18191Y87377D01*
X16798Y86800D01*
X15602Y85883D01*
X14685Y84687D01*
X14108Y83294D01*
X13911Y81800D01*
X14108Y80306D01*
X14685Y78913D01*
X15602Y77717D01*
X16798Y76800D01*
X18191Y76223D01*
X19685Y76026D01*
X21179Y76223D01*
X22572Y76800D01*
X23768Y77717D01*
X24685Y78913D01*
X25262Y80306D01*
X25459Y81800D01*
X25262Y83294D01*
X24685Y84687D01*
X23768Y85883D01*
X22572Y86800D01*
X21179Y87377D01*
X19685Y87574D01*
D02*
G37*
G36*
X104504Y75750D02*
X100575D01*
Y70300D01*
X106025D01*
Y74229D01*
X105910Y74811D01*
X105580Y75305D01*
X105086Y75635D01*
X104504Y75750D01*
D02*
G37*
G36*
X104053Y83079D02*
X100575D01*
Y78617D01*
X102732D01*
X103238Y78718D01*
X103666Y79004D01*
X103952Y79432D01*
X104053Y79938D01*
Y83079D01*
D02*
G37*
G36*
X99575D02*
X96097D01*
Y79938D01*
X96197Y79432D01*
X96483Y79004D01*
X96912Y78718D01*
X97417Y78617D01*
X99575D01*
Y83079D01*
D02*
G37*
G36*
Y75750D02*
X95646D01*
X95064Y75635D01*
X94570Y75305D01*
X94240Y74811D01*
X94124Y74229D01*
Y70300D01*
X99575D01*
Y75750D01*
D02*
G37*
G36*
X106025Y69300D02*
X100575D01*
Y63850D01*
X104504D01*
X105086Y63965D01*
X105580Y64295D01*
X105910Y64789D01*
X106025Y65371D01*
Y69300D01*
D02*
G37*
G36*
X99575D02*
X94124D01*
Y65371D01*
X94240Y64789D01*
X94570Y64295D01*
X95064Y63965D01*
X95646Y63850D01*
X99575D01*
Y69300D01*
D02*
G37*
G36*
X116068Y70550D02*
X111886D01*
X107704D01*
X107736Y70391D01*
X108109Y69832D01*
Y69768D01*
X107736Y69209D01*
X107605Y68550D01*
X107736Y67891D01*
X108109Y67332D01*
Y67268D01*
X107736Y66709D01*
X107704Y66550D01*
X111886D01*
X112112D01*
Y66595D01*
X112134Y66586D01*
X112176Y66579D01*
X112236Y66572D01*
X112528Y66557D01*
X113179Y66550D01*
Y66550D01*
X116068D01*
X116036Y66709D01*
X115663Y67268D01*
Y67332D01*
X116036Y67891D01*
X116167Y68550D01*
X116036Y69209D01*
X115663Y69768D01*
Y69832D01*
X116036Y70391D01*
X116068Y70550D01*
D02*
G37*
G36*
Y65550D02*
X113178D01*
X112112Y65505D01*
Y65550D01*
X111886D01*
X107704D01*
X107736Y65391D01*
X107861Y65203D01*
X108091Y64800D01*
X107861Y64397D01*
X107736Y64209D01*
X107605Y63550D01*
X107736Y62891D01*
X108109Y62332D01*
Y62258D01*
X107736Y61699D01*
X107605Y61040D01*
X107736Y60381D01*
X108109Y59822D01*
X108668Y59449D01*
X109327Y59318D01*
X111659D01*
X111851Y59156D01*
X115157Y55849D01*
X115198Y55792D01*
X115254Y55693D01*
X115307Y55573D01*
X115357Y55428D01*
X115400Y55259D01*
X115433Y55080D01*
X115477Y54588D01*
X115480Y54376D01*
X115470Y54300D01*
X115590Y53386D01*
X115943Y52535D01*
X116504Y51804D01*
X117235Y51243D01*
X118086Y50890D01*
X119000Y50770D01*
X119914Y50890D01*
X120765Y51243D01*
X121496Y51804D01*
X122057Y52535D01*
X122410Y53386D01*
X122530Y54300D01*
X122410Y55214D01*
X122057Y56065D01*
X121496Y56796D01*
X120765Y57357D01*
X119914Y57710D01*
X119000Y57830D01*
X118924Y57820D01*
X118698Y57823D01*
X118454Y57838D01*
X118235Y57864D01*
X118041Y57900D01*
X117872Y57943D01*
X117727Y57993D01*
X117607Y58046D01*
X117508Y58102D01*
X117451Y58143D01*
X115706Y59887D01*
X116036Y60381D01*
X116167Y61040D01*
X116036Y61699D01*
X115663Y62258D01*
Y62332D01*
X116036Y62891D01*
X116167Y63550D01*
X116036Y64209D01*
X115910Y64397D01*
X115681Y64800D01*
X115910Y65203D01*
X116036Y65391D01*
X116068Y65550D01*
D02*
G37*
G36*
X127500Y59933D02*
X126865Y59850D01*
X125808Y59412D01*
X124900Y58715D01*
X124203Y57807D01*
X123765Y56750D01*
X123682Y56115D01*
X127500D01*
Y59933D01*
D02*
G37*
G36*
X236221Y26639D02*
X236171Y26629D01*
X236121Y26634D01*
X234963Y26520D01*
X234867Y26491D01*
X234767Y26481D01*
X233654Y26143D01*
X233565Y26096D01*
X233469Y26067D01*
X232443Y25518D01*
X232365Y25455D01*
X232277Y25407D01*
X231378Y24669D01*
X231314Y24592D01*
X231236Y24528D01*
X230498Y23629D01*
X230451Y23540D01*
X230387Y23462D01*
X229839Y22436D01*
X229810Y22341D01*
X229762Y22252D01*
X229425Y21139D01*
X229415Y21039D01*
X229386Y20943D01*
X229272Y19785D01*
X229282Y19685D01*
X229272Y19585D01*
X229386Y18427D01*
X229415Y18331D01*
X229425Y18231D01*
X229762Y17118D01*
X229810Y17030D01*
X229839Y16933D01*
X230387Y15908D01*
X230451Y15830D01*
X230498Y15741D01*
X231236Y14842D01*
X231314Y14778D01*
X231378Y14701D01*
X232277Y13963D01*
X232365Y13916D01*
X232443Y13852D01*
X233469Y13304D01*
X233565Y13274D01*
X233654Y13227D01*
X234767Y12889D01*
X234867Y12879D01*
X234963Y12850D01*
X236121Y12736D01*
X236171Y12741D01*
X236221Y12731D01*
X236270Y12741D01*
X236320Y12736D01*
X237478Y12850D01*
X237574Y12879D01*
X237674Y12889D01*
X238787Y13227D01*
X238876Y13274D01*
X238972Y13304D01*
X239998Y13852D01*
X240075Y13916D01*
X240164Y13963D01*
X241063Y14701D01*
X241127Y14778D01*
X241205Y14842D01*
X241943Y15741D01*
X241990Y15830D01*
X242054Y15908D01*
X242602Y16933D01*
X242631Y17030D01*
X242678Y17118D01*
X243016Y18231D01*
X243026Y18331D01*
X243055Y18427D01*
X243169Y19585D01*
X243159Y19685D01*
X243169Y19785D01*
X243055Y20943D01*
X243026Y21039D01*
X243016Y21139D01*
X242678Y22252D01*
X242631Y22341D01*
X242602Y22436D01*
X242054Y23462D01*
X241990Y23540D01*
X241943Y23629D01*
X241205Y24528D01*
X241127Y24592D01*
X241063Y24669D01*
X240164Y25407D01*
X240075Y25455D01*
X239998Y25518D01*
X238972Y26067D01*
X238876Y26096D01*
X238787Y26143D01*
X237674Y26481D01*
X237574Y26491D01*
X237478Y26520D01*
X236320Y26634D01*
X236270Y26629D01*
X236221Y26639D01*
D02*
G37*
G36*
X19685D02*
X19635Y26629D01*
X19585Y26634D01*
X18427Y26520D01*
X18331Y26491D01*
X18231Y26481D01*
X17118Y26143D01*
X17030Y26096D01*
X16933Y26067D01*
X15908Y25518D01*
X15830Y25455D01*
X15741Y25407D01*
X14842Y24669D01*
X14778Y24592D01*
X14701Y24528D01*
X13963Y23629D01*
X13916Y23540D01*
X13852Y23462D01*
X13304Y22436D01*
X13274Y22341D01*
X13227Y22252D01*
X12889Y21139D01*
X12879Y21039D01*
X12850Y20943D01*
X12736Y19785D01*
X12746Y19685D01*
X12736Y19585D01*
X12850Y18427D01*
X12879Y18331D01*
X12889Y18231D01*
X13227Y17118D01*
X13274Y17030D01*
X13304Y16933D01*
X13852Y15908D01*
X13916Y15830D01*
X13963Y15741D01*
X14701Y14842D01*
X14778Y14778D01*
X14842Y14701D01*
X15741Y13963D01*
X15830Y13916D01*
X15908Y13852D01*
X16933Y13304D01*
X17030Y13274D01*
X17118Y13227D01*
X18231Y12889D01*
X18331Y12879D01*
X18427Y12850D01*
X19585Y12736D01*
X19635Y12741D01*
X19685Y12731D01*
X19735Y12741D01*
X19785Y12736D01*
X20943Y12850D01*
X21039Y12879D01*
X21139Y12889D01*
X22252Y13227D01*
X22341Y13274D01*
X22436Y13304D01*
X23462Y13852D01*
X23540Y13916D01*
X23629Y13963D01*
X24528Y14701D01*
X24592Y14778D01*
X24669Y14842D01*
X25407Y15741D01*
X25455Y15830D01*
X25518Y15908D01*
X26067Y16933D01*
X26096Y17030D01*
X26143Y17118D01*
X26481Y18231D01*
X26491Y18331D01*
X26520Y18427D01*
X26634Y19585D01*
X26624Y19685D01*
X26634Y19785D01*
X26520Y20943D01*
X26491Y21039D01*
X26481Y21139D01*
X26143Y22252D01*
X26096Y22341D01*
X26067Y22436D01*
X25518Y23462D01*
X25455Y23540D01*
X25407Y23629D01*
X24669Y24528D01*
X24592Y24592D01*
X24528Y24669D01*
X23629Y25407D01*
X23540Y25455D01*
X23462Y25518D01*
X22436Y26067D01*
X22341Y26096D01*
X22252Y26143D01*
X21139Y26481D01*
X21039Y26491D01*
X20943Y26520D01*
X19785Y26634D01*
X19735Y26629D01*
X19685Y26639D01*
D02*
G37*
G36*
X99575Y55520D02*
X96097D01*
Y52379D01*
X96197Y51873D01*
X96483Y51445D01*
X96912Y51159D01*
X97417Y51058D01*
X99575D01*
Y55520D01*
D02*
G37*
G36*
X58118Y55363D02*
X51032D01*
X50641Y55285D01*
X50310Y55064D01*
X50090Y54734D01*
X50012Y54343D01*
Y47257D01*
X50090Y46867D01*
X50310Y46536D01*
X50641Y46315D01*
X51032Y46237D01*
X58118D01*
X58508Y46315D01*
X58839Y46536D01*
X59060Y46867D01*
X59138Y47257D01*
Y54343D01*
X59060Y54734D01*
X58839Y55064D01*
X58508Y55285D01*
X58118Y55363D01*
D02*
G37*
G36*
X113150Y25414D02*
X108925D01*
Y20170D01*
X114169D01*
Y24395D01*
X114092Y24785D01*
X113871Y25115D01*
X113540Y25337D01*
X113150Y25414D01*
D02*
G37*
G36*
X107925Y19170D02*
X102681D01*
Y14946D01*
X102759Y14556D01*
X102980Y14225D01*
X103311Y14004D01*
X103701Y13926D01*
X107925D01*
Y19170D01*
D02*
G37*
G36*
X88425Y25444D02*
X86931Y25247D01*
X85538Y24670D01*
X84342Y23753D01*
X83425Y22557D01*
X82848Y21164D01*
X82651Y19670D01*
X82848Y18176D01*
X83425Y16783D01*
X84342Y15587D01*
X85538Y14670D01*
X86931Y14093D01*
X88425Y13896D01*
X89920Y14093D01*
X91312Y14670D01*
X92508Y15587D01*
X93426Y16783D01*
X94002Y18176D01*
X94199Y19670D01*
X94002Y21164D01*
X93426Y22557D01*
X92508Y23753D01*
X91312Y24670D01*
X89920Y25247D01*
X88425Y25444D01*
D02*
G37*
G36*
X107925Y25414D02*
X103701D01*
X103311Y25337D01*
X102980Y25115D01*
X102759Y24785D01*
X102681Y24395D01*
Y20170D01*
X107925D01*
Y25414D01*
D02*
G37*
G36*
X114169Y19170D02*
X108925D01*
Y13926D01*
X113150D01*
X113540Y14004D01*
X113871Y14225D01*
X114092Y14556D01*
X114169Y14946D01*
Y19170D01*
D02*
G37*
G36*
X104053Y55520D02*
X100575D01*
Y51058D01*
X102732D01*
X103238Y51159D01*
X103666Y51445D01*
X103952Y51873D01*
X104053Y52379D01*
Y55520D01*
D02*
G37*
G36*
X169318Y55115D02*
X165500D01*
Y51297D01*
X166135Y51380D01*
X167192Y51818D01*
X168100Y52515D01*
X168797Y53423D01*
X169235Y54480D01*
X169318Y55115D01*
D02*
G37*
G36*
X132318D02*
X128500D01*
Y51297D01*
X129135Y51380D01*
X130192Y51818D01*
X131100Y52515D01*
X131797Y53423D01*
X132235Y54480D01*
X132318Y55115D01*
D02*
G37*
G36*
X24409Y67544D02*
X14961D01*
X14570Y67466D01*
X14240Y67245D01*
X14019Y66915D01*
X13941Y66524D01*
Y57076D01*
X14019Y56685D01*
X14240Y56355D01*
X14570Y56134D01*
X14961Y56056D01*
X24409D01*
X24800Y56134D01*
X25130Y56355D01*
X25351Y56685D01*
X25429Y57076D01*
Y66524D01*
X25351Y66915D01*
X25130Y67245D01*
X24800Y67466D01*
X24409Y67544D01*
D02*
G37*
G36*
X188818Y55115D02*
X185000D01*
Y51297D01*
X185635Y51380D01*
X186692Y51818D01*
X187600Y52515D01*
X188297Y53423D01*
X188735Y54480D01*
X188818Y55115D01*
D02*
G37*
G36*
X150318D02*
X146500D01*
Y51297D01*
X147135Y51380D01*
X148192Y51818D01*
X149100Y52515D01*
X149797Y53423D01*
X150235Y54480D01*
X150318Y55115D01*
D02*
G37*
G36*
X145500D02*
X141682D01*
X141765Y54480D01*
X142203Y53423D01*
X142900Y52515D01*
X143808Y51818D01*
X144865Y51380D01*
X145500Y51297D01*
Y55115D01*
D02*
G37*
G36*
X127500D02*
X123682D01*
X123765Y54480D01*
X124203Y53423D01*
X124900Y52515D01*
X125808Y51818D01*
X126865Y51380D01*
X127500Y51297D01*
Y55115D01*
D02*
G37*
G36*
X184000D02*
X180182D01*
X180265Y54480D01*
X180703Y53423D01*
X181400Y52515D01*
X182308Y51818D01*
X183365Y51380D01*
X184000Y51297D01*
Y55115D01*
D02*
G37*
G36*
X164500D02*
X160682D01*
X160765Y54480D01*
X161203Y53423D01*
X161900Y52515D01*
X162808Y51818D01*
X163865Y51380D01*
X164500Y51297D01*
Y55115D01*
D02*
G37*
G36*
X105185Y152800D02*
X101367D01*
X101451Y152165D01*
X101888Y151108D01*
X102585Y150200D01*
X103493Y149503D01*
X104550Y149065D01*
X105185Y148982D01*
Y152800D01*
D02*
G37*
G36*
X66315Y157684D02*
X65180Y157535D01*
X64123Y157097D01*
X63215Y156400D01*
X62518Y155492D01*
X62080Y154435D01*
X61931Y153300D01*
X62080Y152165D01*
X62518Y151108D01*
X63215Y150200D01*
X64123Y149503D01*
X65180Y149065D01*
X66315Y148916D01*
X67450Y149065D01*
X68507Y149503D01*
X69415Y150200D01*
X70112Y151108D01*
X70549Y152165D01*
X70699Y153300D01*
X70549Y154435D01*
X70112Y155492D01*
X69415Y156400D01*
X68507Y157097D01*
X67450Y157535D01*
X66315Y157684D01*
D02*
G37*
G36*
X110003Y152800D02*
X106185D01*
Y148982D01*
X106820Y149065D01*
X107877Y149503D01*
X108785Y150200D01*
X109482Y151108D01*
X109920Y152165D01*
X110003Y152800D01*
D02*
G37*
G36*
X106185Y157618D02*
Y153800D01*
X110003D01*
X109920Y154435D01*
X109482Y155492D01*
X108785Y156400D01*
X107877Y157097D01*
X106820Y157535D01*
X106185Y157618D01*
D02*
G37*
G36*
X105185D02*
X104550Y157535D01*
X103493Y157097D01*
X102585Y156400D01*
X101888Y155492D01*
X101451Y154435D01*
X101367Y153800D01*
X105185D01*
Y157618D01*
D02*
G37*
G36*
X175500Y143287D02*
X174468Y143151D01*
X173507Y142753D01*
X172681Y142119D01*
X172047Y141293D01*
X171649Y140332D01*
X171513Y139300D01*
X171649Y138268D01*
X172047Y137307D01*
X172681Y136481D01*
X173507Y135847D01*
X174468Y135449D01*
X175500Y135313D01*
X176532Y135449D01*
X177493Y135847D01*
X178319Y136481D01*
X178953Y137307D01*
X179351Y138268D01*
X179487Y139300D01*
X179351Y140332D01*
X178953Y141293D01*
X178319Y142119D01*
X177493Y142753D01*
X176532Y143151D01*
X175500Y143287D01*
D02*
G37*
G36*
X165500D02*
X164468Y143151D01*
X163507Y142753D01*
X162681Y142119D01*
X162047Y141293D01*
X161649Y140332D01*
X161513Y139300D01*
X161649Y138268D01*
X162047Y137307D01*
X162681Y136481D01*
X163507Y135847D01*
X164468Y135449D01*
X165500Y135313D01*
X166532Y135449D01*
X167493Y135847D01*
X168319Y136481D01*
X168953Y137307D01*
X169351Y138268D01*
X169487Y139300D01*
X169351Y140332D01*
X168953Y141293D01*
X168319Y142119D01*
X167493Y142753D01*
X166532Y143151D01*
X165500Y143287D01*
D02*
G37*
G36*
X185500D02*
X184468Y143151D01*
X183507Y142753D01*
X182681Y142119D01*
X182047Y141293D01*
X181649Y140332D01*
X181513Y139300D01*
X181649Y138268D01*
X182047Y137307D01*
X182681Y136481D01*
X183507Y135847D01*
X184468Y135449D01*
X185500Y135313D01*
X186532Y135449D01*
X187493Y135847D01*
X188319Y136481D01*
X188953Y137307D01*
X189351Y138268D01*
X189487Y139300D01*
X189351Y140332D01*
X188953Y141293D01*
X188319Y142119D01*
X187493Y142753D01*
X186532Y143151D01*
X185500Y143287D01*
D02*
G37*
G36*
X239724Y154544D02*
X230276D01*
X229885Y154466D01*
X229555Y154245D01*
X229334Y153915D01*
X229256Y153524D01*
Y144076D01*
X229334Y143685D01*
X229555Y143355D01*
X229885Y143134D01*
X230276Y143056D01*
X239724D01*
X240115Y143134D01*
X240445Y143355D01*
X240666Y143685D01*
X240744Y144076D01*
Y153524D01*
X240666Y153915D01*
X240445Y154245D01*
X240115Y154466D01*
X239724Y154544D01*
D02*
G37*
G36*
X128453Y143272D02*
X122547D01*
X122157Y143195D01*
X121826Y142974D01*
X121605Y142643D01*
X121528Y142253D01*
Y136347D01*
X121605Y135957D01*
X121826Y135626D01*
X122157Y135405D01*
X122547Y135328D01*
X128453D01*
X128843Y135405D01*
X129174Y135626D01*
X129395Y135957D01*
X129472Y136347D01*
Y142253D01*
X129395Y142643D01*
X129174Y142974D01*
X128843Y143195D01*
X128453Y143272D01*
D02*
G37*
G36*
X19685Y164434D02*
X19635Y164424D01*
X19585Y164429D01*
X18427Y164315D01*
X18331Y164286D01*
X18231Y164276D01*
X17118Y163938D01*
X17030Y163891D01*
X16933Y163862D01*
X15908Y163313D01*
X15830Y163250D01*
X15741Y163203D01*
X14842Y162464D01*
X14778Y162387D01*
X14701Y162323D01*
X13963Y161424D01*
X13916Y161335D01*
X13852Y161258D01*
X13304Y160232D01*
X13274Y160136D01*
X13227Y160047D01*
X12889Y158934D01*
X12879Y158834D01*
X12850Y158738D01*
X12736Y157580D01*
X12746Y157480D01*
X12736Y157380D01*
X12850Y156223D01*
X12879Y156127D01*
X12889Y156027D01*
X13227Y154913D01*
X13274Y154825D01*
X13304Y154729D01*
X13852Y153703D01*
X13916Y153625D01*
X13963Y153537D01*
X14701Y152638D01*
X14778Y152574D01*
X14842Y152496D01*
X15741Y151758D01*
X15830Y151711D01*
X15908Y151647D01*
X16933Y151099D01*
X17030Y151070D01*
X17118Y151022D01*
X18231Y150685D01*
X18331Y150675D01*
X18427Y150646D01*
X19585Y150531D01*
X19635Y150537D01*
X19685Y150527D01*
X19735Y150537D01*
X19785Y150531D01*
X20943Y150646D01*
X21039Y150675D01*
X21139Y150685D01*
X22252Y151022D01*
X22341Y151070D01*
X22436Y151099D01*
X23462Y151647D01*
X23540Y151711D01*
X23629Y151758D01*
X24528Y152496D01*
X24592Y152574D01*
X24669Y152638D01*
X25407Y153537D01*
X25455Y153625D01*
X25518Y153703D01*
X26067Y154729D01*
X26096Y154825D01*
X26143Y154913D01*
X26481Y156027D01*
X26491Y156127D01*
X26520Y156223D01*
X26634Y157380D01*
X26624Y157480D01*
X26634Y157580D01*
X26520Y158738D01*
X26491Y158834D01*
X26481Y158934D01*
X26143Y160047D01*
X26096Y160136D01*
X26067Y160232D01*
X25518Y161258D01*
X25455Y161335D01*
X25407Y161424D01*
X24669Y162323D01*
X24592Y162387D01*
X24528Y162464D01*
X23629Y163203D01*
X23540Y163250D01*
X23462Y163313D01*
X22436Y163862D01*
X22341Y163891D01*
X22252Y163938D01*
X21139Y164276D01*
X21039Y164286D01*
X20943Y164315D01*
X19785Y164429D01*
X19735Y164424D01*
X19685Y164434D01*
D02*
G37*
G36*
X125000Y168800D02*
X121579D01*
X121649Y168268D01*
X122047Y167307D01*
X122681Y166481D01*
X123507Y165847D01*
X124468Y165449D01*
X125000Y165379D01*
Y168800D01*
D02*
G37*
G36*
X185500Y173287D02*
X184468Y173151D01*
X183507Y172753D01*
X182681Y172119D01*
X182047Y171293D01*
X181649Y170332D01*
X181513Y169300D01*
X181649Y168268D01*
X182047Y167307D01*
X182681Y166481D01*
X183507Y165847D01*
X184468Y165449D01*
X185500Y165313D01*
X186532Y165449D01*
X187493Y165847D01*
X188319Y166481D01*
X188953Y167307D01*
X189351Y168268D01*
X189487Y169300D01*
X189351Y170332D01*
X188953Y171293D01*
X188319Y172119D01*
X187493Y172753D01*
X186532Y173151D01*
X185500Y173287D01*
D02*
G37*
G36*
X129421Y168800D02*
X126000D01*
Y165379D01*
X126532Y165449D01*
X127493Y165847D01*
X128319Y166481D01*
X128953Y167307D01*
X129351Y168268D01*
X129421Y168800D01*
D02*
G37*
G36*
X126000Y173221D02*
Y169800D01*
X129421D01*
X129351Y170332D01*
X128953Y171293D01*
X128319Y172119D01*
X127493Y172753D01*
X126532Y173151D01*
X126000Y173221D01*
D02*
G37*
G36*
X125000D02*
X124468Y173151D01*
X123507Y172753D01*
X122681Y172119D01*
X122047Y171293D01*
X121649Y170332D01*
X121579Y169800D01*
X125000D01*
Y173221D01*
D02*
G37*
G36*
X145500Y173287D02*
X144468Y173151D01*
X143507Y172753D01*
X142681Y172119D01*
X142047Y171293D01*
X141649Y170332D01*
X141513Y169300D01*
X141649Y168268D01*
X142047Y167307D01*
X142681Y166481D01*
X143507Y165847D01*
X144468Y165449D01*
X145500Y165313D01*
X146532Y165449D01*
X147493Y165847D01*
X148319Y166481D01*
X148953Y167307D01*
X149351Y168268D01*
X149487Y169300D01*
X149351Y170332D01*
X148953Y171293D01*
X148319Y172119D01*
X147493Y172753D01*
X146532Y173151D01*
X145500Y173287D01*
D02*
G37*
G36*
X135500D02*
X134468Y173151D01*
X133507Y172753D01*
X132681Y172119D01*
X132047Y171293D01*
X131649Y170332D01*
X131513Y169300D01*
X131649Y168268D01*
X132047Y167307D01*
X132681Y166481D01*
X133507Y165847D01*
X134468Y165449D01*
X135500Y165313D01*
X136532Y165449D01*
X137493Y165847D01*
X138319Y166481D01*
X138953Y167307D01*
X139351Y168268D01*
X139487Y169300D01*
X139351Y170332D01*
X138953Y171293D01*
X138319Y172119D01*
X137493Y172753D01*
X136532Y173151D01*
X135500Y173287D01*
D02*
G37*
G36*
X155500D02*
X154468Y173151D01*
X153507Y172753D01*
X152681Y172119D01*
X152047Y171293D01*
X151649Y170332D01*
X151513Y169300D01*
X151649Y168268D01*
X152047Y167307D01*
X152681Y166481D01*
X153507Y165847D01*
X154468Y165449D01*
X155500Y165313D01*
X156532Y165449D01*
X157493Y165847D01*
X158319Y166481D01*
X158953Y167307D01*
X159351Y168268D01*
X159487Y169300D01*
X159351Y170332D01*
X158953Y171293D01*
X158319Y172119D01*
X157493Y172753D01*
X156532Y173151D01*
X155500Y173287D01*
D02*
G37*
G36*
X175500D02*
X174468Y173151D01*
X173507Y172753D01*
X172681Y172119D01*
X172047Y171293D01*
X171649Y170332D01*
X171513Y169300D01*
X171649Y168268D01*
X172047Y167307D01*
X172681Y166481D01*
X173507Y165847D01*
X174468Y165449D01*
X175500Y165313D01*
X176532Y165449D01*
X177493Y165847D01*
X178319Y166481D01*
X178953Y167307D01*
X179351Y168268D01*
X179487Y169300D01*
X179351Y170332D01*
X178953Y171293D01*
X178319Y172119D01*
X177493Y172753D01*
X176532Y173151D01*
X175500Y173287D01*
D02*
G37*
G36*
X165500D02*
X164468Y173151D01*
X163507Y172753D01*
X162681Y172119D01*
X162047Y171293D01*
X161649Y170332D01*
X161513Y169300D01*
X161649Y168268D01*
X162047Y167307D01*
X162681Y166481D01*
X163507Y165847D01*
X164468Y165449D01*
X165500Y165313D01*
X166532Y165449D01*
X167493Y165847D01*
X168319Y166481D01*
X168953Y167307D01*
X169351Y168268D01*
X169487Y169300D01*
X169351Y170332D01*
X168953Y171293D01*
X168319Y172119D01*
X167493Y172753D01*
X166532Y173151D01*
X165500Y173287D01*
D02*
G37*
G36*
X155500Y143287D02*
X154468Y143151D01*
X153507Y142753D01*
X152681Y142119D01*
X152047Y141293D01*
X151649Y140332D01*
X151513Y139300D01*
X151649Y138268D01*
X152047Y137307D01*
X152681Y136481D01*
X153507Y135847D01*
X154468Y135449D01*
X155500Y135313D01*
X156532Y135449D01*
X157493Y135847D01*
X158319Y136481D01*
X158953Y137307D01*
X159351Y138268D01*
X159487Y139300D01*
X159351Y140332D01*
X158953Y141293D01*
X158319Y142119D01*
X157493Y142753D01*
X156532Y143151D01*
X155500Y143287D01*
D02*
G37*
G36*
X144000Y124787D02*
X142968Y124651D01*
X142007Y124253D01*
X141181Y123619D01*
X140547Y122793D01*
X140149Y121832D01*
X140013Y120800D01*
X140149Y119768D01*
X140547Y118807D01*
X141181Y117981D01*
X142007Y117347D01*
X142968Y116949D01*
X144000Y116813D01*
X145032Y116949D01*
X145993Y117347D01*
X146819Y117981D01*
X147453Y118807D01*
X147851Y119768D01*
X147987Y120800D01*
X147851Y121832D01*
X147453Y122793D01*
X146819Y123619D01*
X145993Y124253D01*
X145032Y124651D01*
X144000Y124787D01*
D02*
G37*
G36*
X184500Y99369D02*
X183365Y99220D01*
X182308Y98782D01*
X181400Y98085D01*
X181319Y97979D01*
X168181D01*
X168100Y98085D01*
X167192Y98782D01*
X166135Y99220D01*
X165000Y99369D01*
X163865Y99220D01*
X162808Y98782D01*
X161900Y98085D01*
X161819Y97979D01*
X149181D01*
X149100Y98085D01*
X148192Y98782D01*
X147135Y99220D01*
X146000Y99369D01*
X144865Y99220D01*
X143808Y98782D01*
X142900Y98085D01*
X142819Y97979D01*
X131181D01*
X131100Y98085D01*
X130192Y98782D01*
X129135Y99220D01*
X128000Y99369D01*
X126865Y99220D01*
X125808Y98782D01*
X124900Y98085D01*
X124203Y97177D01*
X123765Y96120D01*
X123616Y94985D01*
X123765Y93850D01*
X124093Y93060D01*
X111314Y80282D01*
X109327D01*
X108668Y80151D01*
X108109Y79777D01*
X107736Y79219D01*
X107605Y78560D01*
X107736Y77901D01*
X108109Y77342D01*
Y77268D01*
X107736Y76709D01*
X107605Y76050D01*
X107736Y75391D01*
X107861Y75203D01*
X108091Y74800D01*
X107861Y74397D01*
X107736Y74209D01*
X107605Y73550D01*
X107736Y72891D01*
X108109Y72332D01*
Y72268D01*
X107736Y71709D01*
X107704Y71550D01*
X111886D01*
X116068D01*
X116036Y71709D01*
X115663Y72268D01*
Y72332D01*
X116036Y72891D01*
X116167Y73550D01*
X116036Y74209D01*
X115910Y74397D01*
X115681Y74800D01*
X115910Y75203D01*
X116036Y75391D01*
X116167Y76050D01*
X116036Y76709D01*
X115663Y77268D01*
Y77342D01*
X116036Y77901D01*
X116167Y78560D01*
X116036Y79219D01*
X115663Y79777D01*
X115639Y80019D01*
X126515Y90896D01*
X126865Y90750D01*
X128000Y90601D01*
X129135Y90750D01*
X130192Y91188D01*
X131100Y91885D01*
X131181Y91991D01*
X142819D01*
X142900Y91885D01*
X143808Y91188D01*
X144865Y90750D01*
X146000Y90601D01*
X147135Y90750D01*
X148192Y91188D01*
X149100Y91885D01*
X149181Y91991D01*
X161819D01*
X161900Y91885D01*
X162808Y91188D01*
X163865Y90750D01*
X165000Y90601D01*
X166135Y90750D01*
X167192Y91188D01*
X168100Y91885D01*
X168181Y91991D01*
X181319D01*
X181400Y91885D01*
X182308Y91188D01*
X183365Y90750D01*
X184500Y90601D01*
X185635Y90750D01*
X186692Y91188D01*
X187600Y91885D01*
X188297Y92793D01*
X188735Y93850D01*
X188884Y94985D01*
X188735Y96120D01*
X188297Y97177D01*
X187600Y98085D01*
X186692Y98782D01*
X185635Y99220D01*
X184500Y99369D01*
D02*
G37*
G36*
X166953Y124772D02*
X161047D01*
X160657Y124695D01*
X160326Y124474D01*
X160105Y124143D01*
X160028Y123753D01*
Y117847D01*
X160105Y117457D01*
X160326Y117126D01*
X160657Y116905D01*
X161047Y116828D01*
X166953D01*
X167343Y116905D01*
X167674Y117126D01*
X167895Y117457D01*
X167972Y117847D01*
Y123753D01*
X167895Y124143D01*
X167674Y124474D01*
X167343Y124695D01*
X166953Y124772D01*
D02*
G37*
G36*
X154000Y124787D02*
X152968Y124651D01*
X152007Y124253D01*
X151181Y123619D01*
X150547Y122793D01*
X150149Y121832D01*
X150013Y120800D01*
X150149Y119768D01*
X150547Y118807D01*
X151181Y117981D01*
X152007Y117347D01*
X152968Y116949D01*
X154000Y116813D01*
X155032Y116949D01*
X155993Y117347D01*
X156819Y117981D01*
X157453Y118807D01*
X157851Y119768D01*
X157987Y120800D01*
X157851Y121832D01*
X157453Y122793D01*
X156819Y123619D01*
X155993Y124253D01*
X155032Y124651D01*
X154000Y124787D01*
D02*
G37*
G36*
X102732Y88542D02*
X100575D01*
Y84079D01*
X104053D01*
Y87221D01*
X103952Y87727D01*
X103666Y88155D01*
X103238Y88441D01*
X102732Y88542D01*
D02*
G37*
G36*
X91512Y80268D02*
X88764D01*
Y79060D01*
X92531D01*
Y79249D01*
X92454Y79639D01*
X92233Y79970D01*
X91902Y80191D01*
X91512Y80268D01*
D02*
G37*
G36*
X87764D02*
X85016D01*
X84626Y80191D01*
X84295Y79970D01*
X84074Y79639D01*
X83996Y79249D01*
Y79060D01*
X87764D01*
Y80268D01*
D02*
G37*
G36*
X99575Y88542D02*
X97417D01*
X96912Y88441D01*
X96483Y88155D01*
X96197Y87727D01*
X96097Y87221D01*
Y84079D01*
X99575D01*
Y88542D01*
D02*
G37*
G36*
X60618Y91863D02*
X53531D01*
X53141Y91785D01*
X52811Y91564D01*
X52589Y91233D01*
X52512Y90843D01*
Y83757D01*
X52589Y83367D01*
X52811Y83036D01*
X53141Y82815D01*
X53531Y82737D01*
X60618D01*
X61008Y82815D01*
X61339Y83036D01*
X61560Y83367D01*
X61638Y83757D01*
Y90843D01*
X61560Y91233D01*
X61339Y91564D01*
X61008Y91785D01*
X60618Y91863D01*
D02*
G37*
G36*
X105185Y136118D02*
X104550Y136035D01*
X103493Y135597D01*
X102585Y134900D01*
X101888Y133992D01*
X101451Y132935D01*
X101367Y132300D01*
X105185D01*
Y136118D01*
D02*
G37*
G36*
X110003Y131300D02*
X106185D01*
Y127482D01*
X106820Y127565D01*
X107877Y128003D01*
X108785Y128700D01*
X109482Y129608D01*
X109920Y130665D01*
X110003Y131300D01*
D02*
G37*
G36*
X106185Y136118D02*
Y132300D01*
X110003D01*
X109920Y132935D01*
X109482Y133992D01*
X108785Y134900D01*
X107877Y135597D01*
X106820Y136035D01*
X106185Y136118D01*
D02*
G37*
G36*
X145500Y143287D02*
X144468Y143151D01*
X143507Y142753D01*
X142681Y142119D01*
X142047Y141293D01*
X141649Y140332D01*
X141513Y139300D01*
X141649Y138268D01*
X142047Y137307D01*
X142681Y136481D01*
X143507Y135847D01*
X144468Y135449D01*
X145500Y135313D01*
X146532Y135449D01*
X147493Y135847D01*
X148319Y136481D01*
X148953Y137307D01*
X149351Y138268D01*
X149487Y139300D01*
X149351Y140332D01*
X148953Y141293D01*
X148319Y142119D01*
X147493Y142753D01*
X146532Y143151D01*
X145500Y143287D01*
D02*
G37*
G36*
X135500D02*
X134468Y143151D01*
X133507Y142753D01*
X132681Y142119D01*
X132047Y141293D01*
X131649Y140332D01*
X131513Y139300D01*
X131649Y138268D01*
X132047Y137307D01*
X132681Y136481D01*
X133507Y135847D01*
X134468Y135449D01*
X135500Y135313D01*
X136532Y135449D01*
X137493Y135847D01*
X138319Y136481D01*
X138953Y137307D01*
X139351Y138268D01*
X139487Y139300D01*
X139351Y140332D01*
X138953Y141293D01*
X138319Y142119D01*
X137493Y142753D01*
X136532Y143151D01*
X135500Y143287D01*
D02*
G37*
G36*
X66315Y136184D02*
X65180Y136035D01*
X64123Y135597D01*
X63215Y134900D01*
X62518Y133992D01*
X62080Y132935D01*
X61931Y131800D01*
X62080Y130665D01*
X62518Y129608D01*
X63215Y128700D01*
X64123Y128003D01*
X65180Y127565D01*
X66315Y127416D01*
X67450Y127565D01*
X68507Y128003D01*
X69415Y128700D01*
X70112Y129608D01*
X70549Y130665D01*
X70699Y131800D01*
X70549Y132935D01*
X70112Y133992D01*
X69415Y134900D01*
X68507Y135597D01*
X67450Y136035D01*
X66315Y136184D01*
D02*
G37*
G36*
X105185Y131300D02*
X101367D01*
X101451Y130665D01*
X101888Y129608D01*
X102585Y128700D01*
X103493Y128003D01*
X104550Y127565D01*
X105185Y127482D01*
Y131300D01*
D02*
G37*
G36*
X235000Y134574D02*
X233506Y134377D01*
X232113Y133800D01*
X230917Y132883D01*
X230000Y131687D01*
X229423Y130294D01*
X229226Y128800D01*
X229423Y127306D01*
X230000Y125913D01*
X230917Y124717D01*
X232113Y123800D01*
X233506Y123223D01*
X235000Y123026D01*
X236494Y123223D01*
X237887Y123800D01*
X239083Y124717D01*
X240000Y125913D01*
X240577Y127306D01*
X240774Y128800D01*
X240577Y130294D01*
X240000Y131687D01*
X239083Y132883D01*
X237887Y133800D01*
X236494Y134377D01*
X235000Y134574D01*
D02*
G37*
%LPD*%
G36*
X88038Y70505D02*
X88015Y70514D01*
X87974Y70521D01*
X87914Y70528D01*
X87621Y70543D01*
X86971Y70550D01*
Y71550D01*
X88038Y71595D01*
Y70505D01*
D02*
G37*
G36*
X68912Y54430D02*
X68756Y54246D01*
X68617Y54023D01*
X68495Y53762D01*
X68391Y53461D01*
X68303Y53121D01*
X68232Y52742D01*
X68178Y52324D01*
X68121Y51371D01*
X68118Y50835D01*
X64610Y54343D01*
X65145Y54346D01*
X66098Y54403D01*
X66516Y54457D01*
X66895Y54528D01*
X67235Y54616D01*
X67536Y54721D01*
X67798Y54843D01*
X68021Y54981D01*
X68205Y55137D01*
X68912Y54430D01*
D02*
G37*
G36*
X88038Y68005D02*
X88015Y68014D01*
X87974Y68021D01*
X87914Y68028D01*
X87621Y68043D01*
X86971Y68050D01*
Y69050D01*
X88038Y69095D01*
Y68005D01*
D02*
G37*
G36*
X70621Y86730D02*
X70678Y85776D01*
X70732Y85358D01*
X70803Y84979D01*
X70890Y84640D01*
X70995Y84338D01*
X71117Y84077D01*
X71256Y83854D01*
X71412Y83670D01*
X70705Y82963D01*
X70521Y83119D01*
X70298Y83258D01*
X70036Y83379D01*
X69735Y83484D01*
X69395Y83572D01*
X69016Y83643D01*
X68598Y83697D01*
X67645Y83754D01*
X67110Y83757D01*
X70618Y87265D01*
X70621Y86730D01*
D02*
G37*
G36*
X116791Y57361D02*
X116961Y57240D01*
X117149Y57134D01*
X117355Y57043D01*
X117579Y56966D01*
X117822Y56903D01*
X118083Y56856D01*
X118362Y56823D01*
X118659Y56804D01*
X118975Y56800D01*
X116500Y54325D01*
X116496Y54641D01*
X116444Y55217D01*
X116396Y55478D01*
X116334Y55721D01*
X116257Y55945D01*
X116166Y56151D01*
X116060Y56339D01*
X115939Y56509D01*
X115804Y56661D01*
X116639Y57496D01*
X116791Y57361D01*
D02*
G37*
G36*
X112163Y61837D02*
X112273Y61769D01*
X112441Y61634D01*
X112951Y61169D01*
X113693Y60443D01*
X112828Y59636D01*
X112594Y59863D01*
X112171Y60220D01*
X111983Y60351D01*
X111810Y60449D01*
X111653Y60516D01*
X111511Y60550D01*
X111385Y60553D01*
X111275Y60524D01*
X111179Y60462D01*
X112303Y61457D01*
X112181Y61651D01*
X112117Y61778D01*
X112111Y61841D01*
X112163Y61837D01*
D02*
G37*
D10*
X88264Y78560D02*
D03*
D11*
Y76050D02*
D03*
Y73550D02*
D03*
Y71050D02*
D03*
Y68550D02*
D03*
Y66050D02*
D03*
Y63550D02*
D03*
Y61040D02*
D03*
X111886Y78560D02*
D03*
Y76050D02*
D03*
Y73550D02*
D03*
Y71050D02*
D03*
Y68550D02*
D03*
Y66050D02*
D03*
Y63550D02*
D03*
Y61040D02*
D03*
D12*
X100075Y69800D02*
D03*
D13*
Y83579D02*
D03*
Y56020D02*
D03*
D14*
X111886Y76050D02*
Y78560D01*
X128000Y94674D02*
Y94985D01*
X111886Y78560D02*
X128000Y94674D01*
X112260Y61040D02*
X119000Y54300D01*
X109524Y61040D02*
X112260D01*
D15*
X165000Y94985D02*
X184500D01*
X146000D02*
X165000D01*
X128000D02*
X146000D01*
D16*
X100075Y65875D02*
Y69800D01*
X114250Y66050D02*
X114500Y66300D01*
X109524Y66050D02*
X114250D01*
X64575Y50800D02*
X82325Y68550D01*
X90626D01*
X67075Y87300D02*
X83325Y71050D01*
X90626D01*
D17*
X165000Y55615D02*
X184500D01*
X146000D02*
X165000D01*
X128000D02*
X146000D01*
D18*
X0Y-15D02*
Y177150D01*
Y-15D02*
X255906D01*
Y177150D01*
X0D02*
X255906D01*
D19*
X125500Y139300D02*
D03*
D20*
X135500D02*
D03*
X145500D02*
D03*
X155500D02*
D03*
X165500D02*
D03*
X175500D02*
D03*
X185500D02*
D03*
X125500Y169300D02*
D03*
X135500D02*
D03*
X145500D02*
D03*
X155500D02*
D03*
X165500D02*
D03*
X175500D02*
D03*
X185500D02*
D03*
D21*
X184500Y55615D02*
D03*
Y94985D02*
D03*
X105685Y131800D02*
D03*
X66315D02*
D03*
X165000Y55615D02*
D03*
Y94985D02*
D03*
X105685Y153300D02*
D03*
X66315D02*
D03*
X146000Y55615D02*
D03*
Y94985D02*
D03*
X128000Y55615D02*
D03*
Y94985D02*
D03*
D22*
X19685Y157480D02*
D03*
X236221Y19685D02*
D03*
X19685D02*
D03*
D23*
X54575Y50800D02*
D03*
X57075Y87300D02*
D03*
D24*
X64575Y50800D02*
D03*
X67075Y87300D02*
D03*
D25*
X19685Y81800D02*
D03*
X235000Y128800D02*
D03*
X88425Y19670D02*
D03*
D26*
X19685Y61800D02*
D03*
X235000Y148800D02*
D03*
D27*
X154000Y120800D02*
D03*
X144000D02*
D03*
D28*
X164000D02*
D03*
D29*
X108425Y19670D02*
D03*
D30*
X119000Y54300D02*
D03*
M02*
