G04 Layer_Color=65535*
%FSLAX25Y25*%
%MOIN*%
G70*
G01*
G75*
%ADD14C,0.01181*%
%ADD16C,0.01000*%
%ADD18C,0.00394*%
%ADD31C,0.00984*%
%ADD32C,0.00787*%
%ADD33C,0.00197*%
%ADD34C,0.00591*%
D14*
X196200Y98197D02*
X200398D01*
X198299D01*
Y91900D01*
X202497Y98197D02*
Y91900D01*
X205646D01*
X206695Y92949D01*
Y97148D01*
X205646Y98197D01*
X202497D01*
X212993D02*
X208794D01*
Y91900D01*
X212993D01*
X208794Y95049D02*
X210893D01*
X225587Y97148D02*
X224537Y98197D01*
X222438D01*
X221389Y97148D01*
Y92949D01*
X222438Y91900D01*
X224537D01*
X225587Y92949D01*
Y95049D01*
X223488D01*
X227686Y96098D02*
Y91900D01*
Y93999D01*
X228735Y95049D01*
X229785Y96098D01*
X230834D01*
X235033Y91900D02*
X237132D01*
X238181Y92949D01*
Y95049D01*
X237132Y96098D01*
X235033D01*
X233983Y95049D01*
Y92949D01*
X235033Y91900D01*
X240280Y96098D02*
Y92949D01*
X241330Y91900D01*
X244478D01*
Y96098D01*
X246577Y89801D02*
Y96098D01*
X249726D01*
X250776Y95049D01*
Y92949D01*
X249726Y91900D01*
X246577D01*
X54322Y23860D02*
X53010Y25172D01*
X50387D01*
X49075Y23860D01*
Y18612D01*
X50387Y17300D01*
X53010D01*
X54322Y18612D01*
Y21236D01*
X51699D01*
X56946Y17300D02*
Y25172D01*
X62194Y17300D01*
Y25172D01*
X64818D02*
Y17300D01*
X68753D01*
X70065Y18612D01*
Y23860D01*
X68753Y25172D01*
X64818D01*
D16*
X85825Y98148D02*
Y93150D01*
X86825Y92150D01*
X88824D01*
X89824Y93150D01*
Y98148D01*
X91823Y92150D02*
X93822D01*
X92822D01*
Y98148D01*
X91823Y97148D01*
X50075Y35300D02*
Y41298D01*
X53074D01*
X54074Y40298D01*
Y38299D01*
X53074Y37299D01*
X50075D01*
X52074D02*
X54074Y35300D01*
X56073Y41298D02*
X60072Y35300D01*
Y41298D02*
X56073Y35300D01*
X62071Y38299D02*
X66070D01*
X54075Y97300D02*
Y103298D01*
X57074D01*
X58074Y102298D01*
Y100299D01*
X57074Y99299D01*
X54075D01*
X56074D02*
X58074Y97300D01*
X60073Y103298D02*
X64072Y97300D01*
Y103298D02*
X60073Y97300D01*
X66071Y100299D02*
X70070D01*
X68070Y102298D02*
Y98300D01*
X225999Y172298D02*
X224000D01*
X223000Y171298D01*
Y167300D01*
X224000Y166300D01*
X225999D01*
X226999Y167300D01*
Y171298D01*
X225999Y172298D01*
X228998D02*
Y167300D01*
X229998Y166300D01*
X231997D01*
X232997Y167300D01*
Y172298D01*
X234996D02*
X238995D01*
X236996D01*
Y166300D01*
X154999Y112298D02*
X152999D01*
X153999D01*
Y107300D01*
X152999Y106300D01*
X152000D01*
X151000Y107300D01*
X156998Y106300D02*
X158997D01*
X157998D01*
Y112298D01*
X156998Y111298D01*
X14185Y107298D02*
X16184D01*
X15185D01*
Y101300D01*
X14185D01*
X16184D01*
X19183D02*
Y107298D01*
X23182Y101300D01*
Y107298D01*
X25181Y101300D02*
Y107298D01*
X28181D01*
X29180Y106298D01*
Y104299D01*
X28181Y103299D01*
X25181D01*
X31179Y107298D02*
Y102300D01*
X32179Y101300D01*
X34179D01*
X35178Y102300D01*
Y107298D01*
X37178D02*
X41176D01*
X39177D01*
Y101300D01*
X125924Y21668D02*
X121925D01*
Y18669D01*
X123925Y19669D01*
X124924D01*
X125924Y18669D01*
Y16670D01*
X124924Y15670D01*
X122925D01*
X121925Y16670D01*
X127923Y21668D02*
Y17669D01*
X129923Y15670D01*
X131922Y17669D01*
Y21668D01*
X137920Y19669D02*
X134921D01*
X133921Y18669D01*
Y16670D01*
X134921Y15670D01*
X137920D01*
X143918Y19669D02*
X140919D01*
X139919Y18669D01*
Y16670D01*
X140919Y15670D01*
X143918D01*
X181999Y48298D02*
X180999Y49298D01*
X179000D01*
X178000Y48298D01*
Y44300D01*
X179000Y43300D01*
X180999D01*
X181999Y44300D01*
X187997Y49298D02*
X185997Y48298D01*
X183998Y46299D01*
Y44300D01*
X184998Y43300D01*
X186997D01*
X187997Y44300D01*
Y45299D01*
X186997Y46299D01*
X183998D01*
X71499Y124298D02*
X70499Y125298D01*
X68500D01*
X67500Y124298D01*
Y120300D01*
X68500Y119300D01*
X70499D01*
X71499Y120300D01*
X77497Y125298D02*
X73498D01*
Y122299D01*
X75497Y123299D01*
X76497D01*
X77497Y122299D01*
Y120300D01*
X76497Y119300D01*
X74498D01*
X73498Y120300D01*
X163999Y47798D02*
X162999Y48798D01*
X161000D01*
X160000Y47798D01*
Y43800D01*
X161000Y42800D01*
X162999D01*
X163999Y43800D01*
X168997Y42800D02*
Y48798D01*
X165998Y45799D01*
X169997D01*
X64499Y167798D02*
X63499Y168798D01*
X61500D01*
X60500Y167798D01*
Y163800D01*
X61500Y162800D01*
X63499D01*
X64499Y163800D01*
X66498Y167798D02*
X67498Y168798D01*
X69497D01*
X70497Y167798D01*
Y166799D01*
X69497Y165799D01*
X68497D01*
X69497D01*
X70497Y164799D01*
Y163800D01*
X69497Y162800D01*
X67498D01*
X66498Y163800D01*
X143499Y47298D02*
X142499Y48298D01*
X140500D01*
X139500Y47298D01*
Y43300D01*
X140500Y42300D01*
X142499D01*
X143499Y43300D01*
X149497Y42300D02*
X145498D01*
X149497Y46299D01*
Y47298D01*
X148497Y48298D01*
X146498D01*
X145498Y47298D01*
X127999Y48298D02*
X126999Y49298D01*
X125000D01*
X124000Y48298D01*
Y44300D01*
X125000Y43300D01*
X126999D01*
X127999Y44300D01*
X129998Y43300D02*
X131997D01*
X130998D01*
Y49298D01*
X129998Y48298D01*
X112500Y134298D02*
Y129300D01*
X113500Y128300D01*
X115499D01*
X116499Y129300D01*
Y134298D01*
X122497Y128300D02*
X118498D01*
X122497Y132299D01*
Y133298D01*
X121497Y134298D01*
X119498D01*
X118498Y133298D01*
D18*
X0Y-15D02*
Y177150D01*
Y-15D02*
X255906D01*
Y177150D01*
X0D02*
X255906D01*
D31*
X90114Y81217D02*
G03*
X90114Y81217I-492J0D01*
G01*
D32*
X115736Y151800D02*
G03*
X115736Y156800I0J2500D01*
G01*
X176933Y79340D02*
G03*
X192428Y79611I7592J9048D01*
G01*
X81960Y124233D02*
G03*
X81689Y139728I-9048J7592D01*
G01*
X157433Y79340D02*
G03*
X172928Y79611I7592J9048D01*
G01*
X81960Y145733D02*
G03*
X81689Y161228I-9048J7592D01*
G01*
X138433Y79340D02*
G03*
X153928Y79611I7592J9048D01*
G01*
X120433Y79340D02*
G03*
X135928Y79611I7592J9048D01*
G01*
X84209Y50686D02*
Y88737D01*
X115902Y50686D02*
Y88737D01*
X84209D02*
X115902D01*
X84209Y50686D02*
X115902D01*
X115736Y143867D02*
Y151800D01*
Y156800D02*
Y164733D01*
X195264Y143867D02*
Y164733D01*
X115736Y143867D02*
X195264D01*
X115736Y164733D02*
X195264D01*
X176626Y74316D02*
X192374D01*
X184500Y76678D02*
Y90457D01*
Y60044D02*
Y74316D01*
X86984Y123926D02*
Y139674D01*
X70842Y131800D02*
X84622D01*
X86984D02*
X101256D01*
X157126Y74316D02*
X172874D01*
X165000Y76678D02*
Y90457D01*
Y60044D02*
Y74316D01*
X86984Y145426D02*
Y161174D01*
X70842Y153300D02*
X84622D01*
X86984D02*
X101256D01*
X138126Y74316D02*
X153874D01*
X146000Y76678D02*
Y90457D01*
Y60044D02*
Y74316D01*
X120126D02*
X135874D01*
X128000Y76678D02*
Y90457D01*
Y60044D02*
Y74316D01*
X69575Y45800D02*
Y55800D01*
X49575Y45800D02*
X69575D01*
X49575D02*
Y55800D01*
X69575D01*
X72075Y82300D02*
Y92300D01*
X52075Y82300D02*
X72075D01*
X52075D02*
Y92300D01*
X72075D01*
X139000Y115800D02*
X169000D01*
Y125800D01*
X139000D02*
X169000D01*
X139000Y115800D02*
Y125800D01*
D33*
X1575Y51879D02*
X37795D01*
X1575D02*
Y91721D01*
X37795D01*
Y51879D02*
Y91721D01*
X216890Y158721D02*
X253110D01*
Y118879D02*
Y158721D01*
X216890Y118879D02*
X253110D01*
X216890D02*
Y158721D01*
X118347Y1560D02*
Y37780D01*
X78504Y1560D02*
X118347D01*
X78504D02*
Y37780D01*
X118347D01*
D34*
X209250Y75800D02*
Y79736D01*
X211218D01*
X211874Y79080D01*
Y77768D01*
X211218Y77112D01*
X209250D01*
X213186Y75800D02*
Y79736D01*
X215810Y75800D01*
Y79736D01*
X217122Y75800D02*
X218433D01*
X217777D01*
Y79736D01*
X217122Y79080D01*
X220401D02*
X221057Y79736D01*
X222369D01*
X223025Y79080D01*
Y76456D01*
X222369Y75800D01*
X221057D01*
X220401Y76456D01*
Y79080D01*
X224337D02*
X224993Y79736D01*
X226305D01*
X226961Y79080D01*
Y76456D01*
X226305Y75800D01*
X224993D01*
X224337Y76456D01*
Y79080D01*
X230897Y79736D02*
X228273D01*
Y77768D01*
X229585Y78424D01*
X230241D01*
X230897Y77768D01*
Y76456D01*
X230241Y75800D01*
X228929D01*
X228273Y76456D01*
X234176Y75800D02*
Y79736D01*
X232208Y77768D01*
X234832D01*
X208100Y87786D02*
Y83850D01*
X210068D01*
X210724Y84506D01*
Y87130D01*
X210068Y87786D01*
X208100D01*
X212036D02*
Y85162D01*
X213348Y83850D01*
X214660Y85162D01*
Y87786D01*
X215971D02*
X218595D01*
X217283D01*
Y83850D01*
X219907Y87786D02*
Y85162D01*
X221219Y83850D01*
X222531Y85162D01*
Y87786D01*
X224499Y83850D02*
X225811D01*
X226467Y84506D01*
Y85818D01*
X225811Y86474D01*
X224499D01*
X223843Y85818D01*
Y84506D01*
X224499Y83850D01*
X227779D02*
X229091D01*
X228435D01*
Y87786D01*
X227779D01*
X232370Y82538D02*
X233026D01*
X233682Y83194D01*
Y86474D01*
X231714D01*
X231059Y85818D01*
Y84506D01*
X231714Y83850D01*
X233682D01*
X235650Y86474D02*
X236962D01*
X237618Y85818D01*
Y83850D01*
X235650D01*
X234994Y84506D01*
X235650Y85162D01*
X237618D01*
X242866Y87786D02*
Y85162D01*
X244178Y83850D01*
X245490Y85162D01*
Y87786D01*
X249425Y83850D02*
X246801D01*
X249425Y86474D01*
Y87130D01*
X248769Y87786D01*
X247457D01*
X246801Y87130D01*
M02*
