G04 Layer_Color=32768*
%FSLAX25Y25*%
%MOIN*%
G70*
G01*
G75*
%ADD16C,0.01000*%
%ADD18C,0.00394*%
%ADD51C,0.00600*%
D16*
X255906Y-11250D02*
Y-1212D01*
X0Y-11250D02*
Y-1212D01*
X141948Y-10250D02*
X255906D01*
X0D02*
X110757D01*
X249905Y-8250D02*
X255906Y-10250D01*
X249905Y-12250D02*
X255906Y-10250D01*
X0D02*
X6000Y-12250D01*
X0Y-10250D02*
X6000Y-8250D01*
X-13450Y177150D02*
X-1197D01*
X-13450Y-15D02*
X-1197D01*
X-12450Y102563D02*
Y177150D01*
Y-15D02*
Y71372D01*
X-14450Y171150D02*
X-12450Y177150D01*
X-10450Y171150D01*
X-12450Y-15D02*
X-10450Y5985D01*
X-14450D02*
X-12450Y-15D01*
D18*
X0D02*
Y177150D01*
Y-15D02*
X255906D01*
Y177150D01*
X0D02*
X255906D01*
D51*
X116356Y-8851D02*
X114357Y-9850D01*
X112357Y-11850D01*
Y-13849D01*
X113357Y-14849D01*
X115356D01*
X116356Y-13849D01*
Y-12849D01*
X115356Y-11850D01*
X112357D01*
X122354Y-8851D02*
X118355D01*
Y-11850D01*
X120355Y-10850D01*
X121354D01*
X122354Y-11850D01*
Y-13849D01*
X121354Y-14849D01*
X119355D01*
X118355Y-13849D01*
X125353Y-15848D02*
X126353Y-14849D01*
Y-13849D01*
X125353D01*
Y-14849D01*
X126353D01*
X125353Y-15848D01*
X124353Y-16848D01*
X130351Y-9850D02*
X131351Y-8851D01*
X133351D01*
X134350Y-9850D01*
Y-13849D01*
X133351Y-14849D01*
X131351D01*
X130351Y-13849D01*
Y-9850D01*
X136349D02*
X137349Y-8851D01*
X139349D01*
X140348Y-9850D01*
Y-13849D01*
X139349Y-14849D01*
X137349D01*
X136349Y-13849D01*
Y-9850D01*
X-7851Y75971D02*
X-13849D01*
X-10850Y72972D01*
Y76971D01*
X-13849Y82969D02*
Y78970D01*
X-10850D01*
X-11850Y80970D01*
Y81969D01*
X-10850Y82969D01*
X-8851D01*
X-7851Y81969D01*
Y79970D01*
X-8851Y78970D01*
X-6852Y85968D02*
X-7851Y86968D01*
X-8851D01*
Y85968D01*
X-7851D01*
Y86968D01*
X-6852Y85968D01*
X-5852Y84968D01*
X-12850Y90966D02*
X-13849Y91966D01*
Y93965D01*
X-12850Y94965D01*
X-8851D01*
X-7851Y93965D01*
Y91966D01*
X-8851Y90966D01*
X-12850D01*
Y96965D02*
X-13849Y97964D01*
Y99963D01*
X-12850Y100963D01*
X-8851D01*
X-7851Y99963D01*
Y97964D01*
X-8851Y96965D01*
X-12850D01*
M02*
