M48
;Layer_Color=9474304
;FILE_FORMAT=4:4
METRIC,LZ
;TYPE=PLATED
T1F00S00C0.9000
T2F00S00C1.2000
T3F00S00C1.4000
;TYPE=NON_PLATED
T4F00S00C3.0000
%
T01
X0009478Y0011938
X0013081Y0015447
X0019478Y0011938
X0013081Y0025447
X001532Y0028575
X002532
X002802
X003802
T02
X0006858Y000762
X0009398
X0003556Y0012573
Y0015113
X0022987Y0014859
Y0012319
X0012827Y0033909
X0010287
T03
X0015748Y0004699
X0020828
X001905Y0035306
X002413
X0004826Y0027305
Y0022225
X0035306Y0021971
Y0016891
T04
X0037Y0003
X0003
Y0037
X0037
M30
