G04 Layer_Physical_Order=1*
G04 Layer_Color=6759642*
%FSLAX44Y44*%
%MOMM*%
G71*
G01*
G75*
G04:AMPARAMS|DCode=10|XSize=1.5mm|YSize=2mm|CornerRadius=0.075mm|HoleSize=0mm|Usage=FLASHONLY|Rotation=0.000|XOffset=0mm|YOffset=0mm|HoleType=Round|Shape=RoundedRectangle|*
%AMROUNDEDRECTD10*
21,1,1.5000,1.8500,0,0,0.0*
21,1,1.3500,2.0000,0,0,0.0*
1,1,0.1500,0.6750,-0.9250*
1,1,0.1500,-0.6750,-0.9250*
1,1,0.1500,-0.6750,0.9250*
1,1,0.1500,0.6750,0.9250*
%
%ADD10ROUNDEDRECTD10*%
G04:AMPARAMS|DCode=11|XSize=2.5mm|YSize=2.5mm|CornerRadius=0.125mm|HoleSize=0mm|Usage=FLASHONLY|Rotation=90.000|XOffset=0mm|YOffset=0mm|HoleType=Round|Shape=RoundedRectangle|*
%AMROUNDEDRECTD11*
21,1,2.5000,2.2500,0,0,90.0*
21,1,2.2500,2.5000,0,0,90.0*
1,1,0.2500,1.1250,1.1250*
1,1,0.2500,1.1250,-1.1250*
1,1,0.2500,-1.1250,-1.1250*
1,1,0.2500,-1.1250,1.1250*
%
%ADD11ROUNDEDRECTD11*%
%ADD12O,1.6500X0.3500*%
%ADD13R,1.6500X0.3500*%
%ADD14C,0.5000*%
%ADD15C,0.3000*%
%ADD16C,0.2540*%
%ADD17C,0.1000*%
%ADD18R,1.8000X1.8000*%
%ADD19C,1.8000*%
%ADD20R,1.8000X1.8000*%
%ADD21C,2.4000*%
%ADD22R,2.4000X2.4000*%
%ADD23C,1.7000*%
%ADD24R,2.4000X2.4000*%
%ADD25C,3.0000*%
G36*
X393700Y6350D02*
X6350D01*
Y393700D01*
X393700D01*
Y6350D01*
D02*
G37*
%LPC*%
G36*
X228600Y134730D02*
X218330D01*
Y124460D01*
X228600D01*
Y134730D01*
D02*
G37*
G36*
X241410D02*
X231140D01*
Y124460D01*
X241410D01*
Y134730D01*
D02*
G37*
G36*
X35560Y137370D02*
X32548Y136973D01*
X29740Y135810D01*
X27330Y133960D01*
X25480Y131550D01*
X24317Y128743D01*
X23920Y125730D01*
X24317Y122718D01*
X25480Y119910D01*
X27330Y117500D01*
X29740Y115650D01*
X32548Y114487D01*
X35560Y114090D01*
X38572Y114487D01*
X41380Y115650D01*
X43790Y117500D01*
X45640Y119910D01*
X46803Y122718D01*
X47200Y125730D01*
X46803Y128743D01*
X45640Y131550D01*
X43790Y133960D01*
X41380Y135810D01*
X38572Y136973D01*
X35560Y137370D01*
D02*
G37*
G36*
X228600Y121920D02*
X218330D01*
Y111650D01*
X228600D01*
Y121920D01*
D02*
G37*
G36*
X241410D02*
X231140D01*
Y111650D01*
X241410D01*
Y121920D01*
D02*
G37*
G36*
X367558Y167640D02*
X354330D01*
Y154412D01*
X356856Y154744D01*
X360393Y156209D01*
X363430Y158540D01*
X365761Y161577D01*
X367226Y165114D01*
X367558Y167640D01*
D02*
G37*
G36*
X351790Y183408D02*
X349264Y183076D01*
X345727Y181611D01*
X342690Y179280D01*
X340359Y176243D01*
X338894Y172706D01*
X338562Y170180D01*
X351790D01*
Y183408D01*
D02*
G37*
G36*
Y167640D02*
X338562D01*
X338894Y165114D01*
X340359Y161577D01*
X342690Y158540D01*
X345727Y156209D01*
X349264Y154744D01*
X351790Y154412D01*
Y167640D01*
D02*
G37*
G36*
X47100Y162670D02*
X24020D01*
Y139590D01*
X47100D01*
Y162670D01*
D02*
G37*
G36*
X130810Y165605D02*
X127928Y165226D01*
X125242Y164113D01*
X122936Y162344D01*
X121167Y160038D01*
X120054Y157352D01*
X119675Y154470D01*
X120054Y151588D01*
X121167Y148902D01*
X122936Y146596D01*
X125242Y144827D01*
X127928Y143714D01*
X130810Y143335D01*
X133692Y143714D01*
X136378Y144827D01*
X138684Y146596D01*
X140453Y148902D01*
X141566Y151588D01*
X141945Y154470D01*
X141566Y157352D01*
X140453Y160038D01*
X138684Y162344D01*
X136378Y164113D01*
X133692Y165226D01*
X130810Y165605D01*
D02*
G37*
G36*
X156210Y45720D02*
X142982D01*
X143314Y43194D01*
X144779Y39657D01*
X147110Y36620D01*
X150147Y34289D01*
X153684Y32824D01*
X156210Y32492D01*
Y45720D01*
D02*
G37*
G36*
X171978D02*
X158750D01*
Y32492D01*
X161276Y32824D01*
X164813Y34289D01*
X167850Y36620D01*
X170181Y39657D01*
X171646Y43194D01*
X171978Y45720D01*
D02*
G37*
G36*
X222820Y61530D02*
X193740D01*
Y32450D01*
X222820D01*
Y61530D01*
D02*
G37*
G36*
X30000Y47625D02*
X26562Y47286D01*
X23255Y46283D01*
X20208Y44654D01*
X17537Y42463D01*
X15345Y39792D01*
X13717Y36745D01*
X12714Y33438D01*
X12375Y30000D01*
X12714Y26562D01*
X13717Y23255D01*
X15345Y20208D01*
X17537Y17537D01*
X20208Y15345D01*
X23255Y13717D01*
X26562Y12714D01*
X30000Y12375D01*
X33438Y12714D01*
X36745Y13717D01*
X39792Y15345D01*
X42463Y17537D01*
X44654Y20208D01*
X46283Y23255D01*
X47286Y26562D01*
X47625Y30000D01*
X47286Y33438D01*
X46283Y36745D01*
X44654Y39792D01*
X42463Y42463D01*
X39792Y44654D01*
X36745Y46283D01*
X33438Y47286D01*
X30000Y47625D01*
D02*
G37*
G36*
X370000D02*
X366562Y47286D01*
X363255Y46283D01*
X360208Y44654D01*
X357537Y42463D01*
X355345Y39792D01*
X353717Y36745D01*
X352714Y33438D01*
X352375Y30000D01*
X352714Y26562D01*
X353717Y23255D01*
X355345Y20208D01*
X357537Y17537D01*
X360208Y15345D01*
X363255Y13717D01*
X366562Y12714D01*
X370000Y12375D01*
X373438Y12714D01*
X376745Y13717D01*
X379792Y15345D01*
X382463Y17537D01*
X384655Y20208D01*
X386283Y23255D01*
X387286Y26562D01*
X387625Y30000D01*
X387286Y33438D01*
X386283Y36745D01*
X384655Y39792D01*
X382463Y42463D01*
X379792Y44654D01*
X376745Y46283D01*
X373438Y47286D01*
X370000Y47625D01*
D02*
G37*
G36*
X80120Y87740D02*
X57040D01*
Y64660D01*
X80120D01*
Y87740D01*
D02*
G37*
G36*
X94780Y130515D02*
X91898Y130136D01*
X89212Y129023D01*
X86906Y127254D01*
X85137Y124948D01*
X84024Y122262D01*
X83645Y119380D01*
X84024Y116498D01*
X85137Y113812D01*
X86906Y111506D01*
X89212Y109737D01*
X91898Y108624D01*
X94780Y108245D01*
X97662Y108624D01*
X100348Y109737D01*
X102654Y111506D01*
X104423Y113812D01*
X105536Y116498D01*
X105915Y119380D01*
X105536Y122262D01*
X104423Y124948D01*
X102654Y127254D01*
X100348Y129023D01*
X97662Y130136D01*
X94780Y130515D01*
D02*
G37*
G36*
X93980Y87839D02*
X90968Y87443D01*
X88160Y86280D01*
X85750Y84430D01*
X83900Y82020D01*
X82737Y79212D01*
X82340Y76200D01*
X82737Y73187D01*
X83900Y70380D01*
X85750Y67970D01*
X88160Y66120D01*
X90968Y64957D01*
X93980Y64560D01*
X96993Y64957D01*
X99800Y66120D01*
X102210Y67970D01*
X104060Y70380D01*
X105223Y73187D01*
X105619Y76200D01*
X105223Y79212D01*
X104060Y82020D01*
X102210Y84430D01*
X99800Y86280D01*
X96993Y87443D01*
X93980Y87839D01*
D02*
G37*
G36*
X156210Y61488D02*
X153684Y61156D01*
X150147Y59691D01*
X147110Y57360D01*
X144779Y54323D01*
X143314Y50786D01*
X142982Y48260D01*
X156210D01*
Y61488D01*
D02*
G37*
G36*
X158750D02*
Y48260D01*
X171978D01*
X171646Y50786D01*
X170181Y54323D01*
X167850Y57360D01*
X164813Y59691D01*
X161276Y61156D01*
X158750Y61488D01*
D02*
G37*
G36*
X205040Y367600D02*
X175960D01*
Y338520D01*
X205040D01*
Y367600D01*
D02*
G37*
G36*
X240030Y351790D02*
X226802D01*
X227134Y349264D01*
X228599Y345727D01*
X230930Y342690D01*
X233967Y340359D01*
X237504Y338894D01*
X240030Y338562D01*
Y351790D01*
D02*
G37*
G36*
X114410Y350630D02*
X91330D01*
Y327550D01*
X114410D01*
Y350630D01*
D02*
G37*
G36*
X380200Y296885D02*
X377318Y296506D01*
X374632Y295393D01*
X372326Y293624D01*
X370557Y291318D01*
X369444Y288632D01*
X369065Y285750D01*
X369444Y282868D01*
X370557Y280182D01*
X372326Y277876D01*
X374632Y276107D01*
X377318Y274994D01*
X380200Y274615D01*
X383082Y274994D01*
X385768Y276107D01*
X388074Y277876D01*
X389843Y280182D01*
X390956Y282868D01*
X391335Y285750D01*
X390956Y288632D01*
X389843Y291318D01*
X388074Y293624D01*
X385768Y295393D01*
X383082Y296506D01*
X380200Y296885D01*
D02*
G37*
G36*
X128270Y350730D02*
X125258Y350333D01*
X122450Y349170D01*
X120040Y347320D01*
X118190Y344910D01*
X117027Y342103D01*
X116630Y339090D01*
X117027Y336077D01*
X118190Y333270D01*
X120040Y330860D01*
X122450Y329010D01*
X125258Y327847D01*
X128270Y327450D01*
X131283Y327847D01*
X134090Y329010D01*
X136500Y330860D01*
X138350Y333270D01*
X139513Y336077D01*
X139909Y339090D01*
X139513Y342103D01*
X138350Y344910D01*
X136500Y347320D01*
X134090Y349170D01*
X131283Y350333D01*
X128270Y350730D01*
D02*
G37*
G36*
X240030Y367558D02*
X237504Y367226D01*
X233967Y365761D01*
X230930Y363430D01*
X228599Y360393D01*
X227134Y356856D01*
X226802Y354330D01*
X240030D01*
Y367558D01*
D02*
G37*
G36*
X242570D02*
Y354330D01*
X255798D01*
X255466Y356856D01*
X254001Y360393D01*
X251670Y363430D01*
X248633Y365761D01*
X245096Y367226D01*
X242570Y367558D01*
D02*
G37*
G36*
X370000Y387625D02*
X366562Y387286D01*
X363255Y386283D01*
X360208Y384655D01*
X357537Y382463D01*
X355345Y379792D01*
X353717Y376745D01*
X352714Y373438D01*
X352375Y370000D01*
X352714Y366562D01*
X353717Y363255D01*
X355345Y360208D01*
X357537Y357537D01*
X360208Y355345D01*
X363255Y353717D01*
X366562Y352714D01*
X370000Y352375D01*
X373438Y352714D01*
X376745Y353717D01*
X379792Y355345D01*
X382463Y357537D01*
X384655Y360208D01*
X386283Y363255D01*
X387286Y366562D01*
X387625Y370000D01*
X387286Y373438D01*
X386283Y376745D01*
X384655Y379792D01*
X382463Y382463D01*
X379792Y384655D01*
X376745Y386283D01*
X373438Y387286D01*
X370000Y387625D01*
D02*
G37*
G36*
X255798Y351790D02*
X242570D01*
Y338562D01*
X245096Y338894D01*
X248633Y340359D01*
X251670Y342690D01*
X254001Y345727D01*
X255466Y349264D01*
X255798Y351790D01*
D02*
G37*
G36*
X30000Y387625D02*
X26562Y387286D01*
X23255Y386283D01*
X20208Y384655D01*
X17537Y382463D01*
X15345Y379792D01*
X13717Y376745D01*
X12714Y373438D01*
X12375Y370000D01*
X12714Y366562D01*
X13717Y363255D01*
X15345Y360208D01*
X17537Y357537D01*
X20208Y355345D01*
X23255Y353717D01*
X26562Y352714D01*
X30000Y352375D01*
X33438Y352714D01*
X36745Y353717D01*
X39792Y355345D01*
X42463Y357537D01*
X44654Y360208D01*
X46283Y363255D01*
X47286Y366562D01*
X47625Y370000D01*
X47286Y373438D01*
X46283Y376745D01*
X44654Y379792D01*
X42463Y382463D01*
X39792Y384655D01*
X36745Y386283D01*
X33438Y387286D01*
X30000Y387625D01*
D02*
G37*
G36*
X280200Y296885D02*
X277318Y296506D01*
X274632Y295393D01*
X272326Y293624D01*
X270557Y291318D01*
X269444Y288632D01*
X269065Y285750D01*
X269444Y282868D01*
X270557Y280182D01*
X272326Y277876D01*
X274632Y276107D01*
X277318Y274994D01*
X280200Y274615D01*
X283082Y274994D01*
X285768Y276107D01*
X288074Y277876D01*
X289843Y280182D01*
X290956Y282868D01*
X291335Y285750D01*
X290956Y288632D01*
X289843Y291318D01*
X288074Y293624D01*
X285768Y295393D01*
X283082Y296506D01*
X280200Y296885D01*
D02*
G37*
G36*
X62800Y236790D02*
X33720D01*
Y207710D01*
X62800D01*
Y236790D01*
D02*
G37*
G36*
X217570Y266045D02*
X204070D01*
X202786Y265789D01*
X201698Y265062D01*
X200971Y263974D01*
X200716Y262690D01*
Y244190D01*
X200971Y242906D01*
X201698Y241818D01*
X202786Y241091D01*
X204070Y240835D01*
X205681D01*
Y233554D01*
X199570D01*
X198091Y233260D01*
X196838Y232422D01*
X196000Y231169D01*
X195706Y229690D01*
Y220404D01*
X192454D01*
X191648Y221385D01*
X191694Y221615D01*
X191361Y223289D01*
X191043Y223765D01*
X190460Y224790D01*
X191043Y225815D01*
X191361Y226291D01*
X191694Y227965D01*
X191361Y229639D01*
X191043Y230115D01*
X190460Y231140D01*
X191043Y232165D01*
X191361Y232641D01*
X191694Y234315D01*
X191532Y235130D01*
X191610Y236400D01*
X191610Y236400D01*
X191610Y236400D01*
Y244980D01*
X183471D01*
X182787Y245438D01*
X180820Y245829D01*
X146719D01*
X141388Y251159D01*
X141566Y251588D01*
X141945Y254470D01*
X141566Y257352D01*
X140453Y260038D01*
X138684Y262344D01*
X136378Y264113D01*
X133692Y265226D01*
X130810Y265605D01*
X127928Y265226D01*
X125242Y264113D01*
X122936Y262344D01*
X121167Y260038D01*
X120054Y257352D01*
X119675Y254470D01*
X120054Y251588D01*
X121167Y248902D01*
X122936Y246596D01*
X125242Y244827D01*
X127928Y243714D01*
X130810Y243335D01*
X133692Y243714D01*
X134121Y243892D01*
X140956Y237056D01*
X142624Y235942D01*
X144590Y235551D01*
X169191D01*
X169997Y234569D01*
X169946Y234315D01*
X170279Y232641D01*
X170597Y232165D01*
X171180Y231140D01*
X170597Y230115D01*
X170279Y229639D01*
X169946Y227965D01*
X170279Y226291D01*
X170597Y225815D01*
X171180Y224790D01*
X170597Y223765D01*
X170279Y223289D01*
X169946Y221615D01*
X170279Y219941D01*
X170597Y219465D01*
X171180Y218440D01*
X170597Y217415D01*
X170279Y216939D01*
X169946Y215265D01*
X170279Y213591D01*
X170597Y213115D01*
X171180Y212090D01*
X170597Y211065D01*
X170279Y210589D01*
X169946Y208915D01*
X170279Y207241D01*
X170597Y206765D01*
X171180Y205740D01*
X170597Y204715D01*
X170279Y204239D01*
X169946Y202565D01*
X170279Y200891D01*
X171227Y199472D01*
Y199283D01*
X170279Y197864D01*
X169946Y196190D01*
X170279Y194516D01*
X171227Y193097D01*
X172646Y192149D01*
X174320Y191816D01*
X178295D01*
X178853Y191442D01*
X180820Y191051D01*
X182787Y191442D01*
X183346Y191816D01*
X187320D01*
X188994Y192149D01*
X190413Y193097D01*
X191361Y194516D01*
X191694Y196190D01*
X191361Y197864D01*
X190413Y199283D01*
Y199472D01*
X191361Y200891D01*
X191694Y202565D01*
X191361Y204239D01*
X191043Y204715D01*
X190460Y205740D01*
X191043Y206765D01*
X191361Y207241D01*
X191694Y208915D01*
X191648Y209144D01*
X192454Y210126D01*
X195706D01*
Y207190D01*
X196000Y205711D01*
X196838Y204458D01*
X198091Y203620D01*
X199570Y203326D01*
X205681D01*
Y196045D01*
X204070D01*
X202786Y195789D01*
X201698Y195062D01*
X200971Y193974D01*
X200716Y192690D01*
Y174190D01*
X200971Y172906D01*
X201698Y171818D01*
X202786Y171091D01*
X204070Y170835D01*
X205681D01*
Y137549D01*
X198091Y129958D01*
X197662Y130136D01*
X194780Y130515D01*
X191898Y130136D01*
X189212Y129023D01*
X186906Y127254D01*
X185137Y124948D01*
X184024Y122262D01*
X183645Y119380D01*
X184024Y116498D01*
X185137Y113812D01*
X186906Y111506D01*
X189212Y109737D01*
X191898Y108624D01*
X194780Y108245D01*
X197662Y108624D01*
X200348Y109737D01*
X202654Y111506D01*
X204423Y113812D01*
X205536Y116498D01*
X205915Y119380D01*
X205536Y122262D01*
X205358Y122691D01*
X214454Y131786D01*
X215568Y133454D01*
X215959Y135420D01*
Y143451D01*
X219508D01*
X219790Y142770D01*
X221640Y140360D01*
X224050Y138510D01*
X226857Y137347D01*
X229870Y136950D01*
X232882Y137347D01*
X235690Y138510D01*
X238100Y140360D01*
X239950Y142770D01*
X241113Y145577D01*
X241509Y148590D01*
X241113Y151602D01*
X239950Y154410D01*
X238100Y156820D01*
X235690Y158670D01*
X232882Y159833D01*
X229870Y160229D01*
X226857Y159833D01*
X224050Y158670D01*
X221640Y156820D01*
X219790Y154410D01*
X219508Y153729D01*
X215959D01*
Y170835D01*
X217570D01*
X218854Y171091D01*
X219942Y171818D01*
X220669Y172906D01*
X220924Y174190D01*
Y192690D01*
X220669Y193974D01*
X219942Y195062D01*
X218854Y195789D01*
X217570Y196045D01*
X215959D01*
Y203326D01*
X222070D01*
X223549Y203620D01*
X224802Y204458D01*
X225640Y205711D01*
X225934Y207190D01*
Y229690D01*
X225640Y231169D01*
X224802Y232422D01*
X223549Y233260D01*
X222070Y233554D01*
X215959D01*
Y240835D01*
X217570D01*
X218854Y241091D01*
X219942Y241818D01*
X220669Y242906D01*
X220924Y244190D01*
Y262690D01*
X220669Y263974D01*
X219942Y265062D01*
X218854Y265789D01*
X217570Y266045D01*
D02*
G37*
G36*
X367600Y234250D02*
X338520D01*
Y205170D01*
X367600D01*
Y234250D01*
D02*
G37*
G36*
X354330Y183408D02*
Y170180D01*
X367558D01*
X367226Y172706D01*
X365761Y176243D01*
X363430Y179280D01*
X360393Y181611D01*
X356856Y183076D01*
X354330Y183408D01*
D02*
G37*
G36*
X253200Y296885D02*
X250318Y296506D01*
X247632Y295393D01*
X245326Y293624D01*
X243557Y291318D01*
X242444Y288632D01*
X242065Y285750D01*
X242444Y282868D01*
X243557Y280182D01*
X245326Y277876D01*
X247632Y276107D01*
X248061Y275929D01*
Y245672D01*
X247320Y245064D01*
X234320D01*
X232646Y244731D01*
X231227Y243783D01*
X230279Y242364D01*
X229946Y240690D01*
X230279Y239016D01*
X231227Y237597D01*
Y237408D01*
X230279Y235989D01*
X229946Y234315D01*
X230279Y232641D01*
X230597Y232165D01*
X231180Y231140D01*
X230597Y230115D01*
X230279Y229639D01*
X229946Y227965D01*
X230279Y226291D01*
X230597Y225815D01*
X231180Y224790D01*
X230597Y223765D01*
X230279Y223289D01*
X229946Y221615D01*
X230279Y219941D01*
X231227Y218522D01*
Y218358D01*
X230279Y216939D01*
X229946Y215265D01*
X230279Y213591D01*
X230597Y213115D01*
X231180Y212090D01*
X230597Y211065D01*
X230279Y210589D01*
X229946Y208915D01*
X230279Y207241D01*
X230597Y206765D01*
X231180Y205740D01*
X230597Y204715D01*
X230279Y204239D01*
X229946Y202565D01*
X230279Y200891D01*
X231227Y199472D01*
Y199283D01*
X230279Y197864D01*
X229946Y196190D01*
X230279Y194516D01*
X231227Y193097D01*
X232646Y192149D01*
X234320Y191816D01*
X238295D01*
X238853Y191442D01*
X240820Y191051D01*
X242787Y191442D01*
X243346Y191816D01*
X247320D01*
X248994Y192149D01*
X250413Y193097D01*
X251361Y194516D01*
X251694Y196190D01*
X251361Y197864D01*
X250413Y199283D01*
Y199472D01*
X251361Y200891D01*
X251694Y202565D01*
X251361Y204239D01*
X251043Y204715D01*
X250460Y205740D01*
X251043Y206765D01*
X251361Y207241D01*
X251694Y208915D01*
X251361Y210589D01*
X251043Y211065D01*
X250460Y212090D01*
X251043Y213115D01*
X251361Y213591D01*
X251694Y215265D01*
X251361Y216939D01*
X250413Y218358D01*
Y218522D01*
X251361Y219941D01*
X251694Y221615D01*
X251361Y223289D01*
X251766Y224268D01*
X252312Y224376D01*
X253572Y225218D01*
X253643Y225289D01*
X255166Y225592D01*
X256834Y226706D01*
X257948Y228374D01*
X258339Y230340D01*
Y275929D01*
X258768Y276107D01*
X261074Y277876D01*
X262843Y280182D01*
X263956Y282868D01*
X264335Y285750D01*
X263956Y288632D01*
X262843Y291318D01*
X261074Y293624D01*
X258768Y295393D01*
X256082Y296506D01*
X253200Y296885D01*
D02*
G37*
G36*
X49530Y287548D02*
Y274320D01*
X62758D01*
X62426Y276846D01*
X60961Y280383D01*
X58630Y283420D01*
X55593Y285751D01*
X52056Y287216D01*
X49530Y287548D01*
D02*
G37*
G36*
X153200Y296885D02*
X150318Y296506D01*
X147632Y295393D01*
X145326Y293624D01*
X143557Y291318D01*
X142444Y288632D01*
X142065Y285750D01*
X142444Y282868D01*
X143557Y280182D01*
X145326Y277876D01*
X147632Y276107D01*
X150318Y274994D01*
X153200Y274615D01*
X156082Y274994D01*
X158768Y276107D01*
X161074Y277876D01*
X162843Y280182D01*
X163956Y282868D01*
X164335Y285750D01*
X163956Y288632D01*
X162843Y291318D01*
X161074Y293624D01*
X158768Y295393D01*
X156082Y296506D01*
X153200Y296885D01*
D02*
G37*
G36*
X46990Y287548D02*
X44464Y287216D01*
X40927Y285751D01*
X37890Y283420D01*
X35559Y280383D01*
X34094Y276846D01*
X33762Y274320D01*
X46990D01*
Y287548D01*
D02*
G37*
G36*
Y271780D02*
X33762D01*
X34094Y269254D01*
X35559Y265717D01*
X37890Y262680D01*
X40927Y260349D01*
X44464Y258884D01*
X46990Y258552D01*
Y271780D01*
D02*
G37*
G36*
X62758D02*
X49530D01*
Y258552D01*
X52056Y258884D01*
X55593Y260349D01*
X58630Y262680D01*
X60961Y265717D01*
X62426Y269254D01*
X62758Y271780D01*
D02*
G37*
%LPD*%
D10*
X210820Y183440D02*
D03*
Y253440D02*
D03*
D11*
Y218440D02*
D03*
D12*
X240820Y196190D02*
D03*
Y202565D02*
D03*
Y208915D02*
D03*
Y215265D02*
D03*
Y221615D02*
D03*
Y227965D02*
D03*
Y234315D02*
D03*
Y240690D02*
D03*
X180820Y196190D02*
D03*
Y202565D02*
D03*
Y208915D02*
D03*
Y215265D02*
D03*
Y221615D02*
D03*
Y227965D02*
D03*
Y234315D02*
D03*
D13*
Y240690D02*
D03*
D14*
X210820Y148590D02*
X229870D01*
X194780Y119380D02*
X210820Y135420D01*
Y183440D01*
X130810Y254470D02*
X144590Y240690D01*
X180820D01*
X207645Y215265D02*
X210820Y218440D01*
X180820Y215265D02*
X207645D01*
X180820Y196190D02*
Y202565D01*
Y208915D01*
Y215265D01*
Y221615D01*
X210820Y183440D02*
Y218440D01*
Y253440D01*
X253200Y230340D02*
Y285750D01*
X240820Y196190D02*
Y202565D01*
Y208915D01*
Y215265D01*
Y221615D01*
D15*
X180820Y234315D02*
Y240690D01*
Y221615D02*
Y227965D01*
X240820Y221615D02*
Y227965D01*
D16*
X250825D02*
X253200Y230340D01*
X240820Y227965D02*
X250825D01*
D17*
X0Y0D02*
Y400000D01*
Y0D02*
X400000D01*
Y400000D01*
X0D02*
X400000D01*
D18*
X68580Y76200D02*
D03*
X102870Y339090D02*
D03*
D19*
X93980Y76200D02*
D03*
X35560Y125730D02*
D03*
X229870Y148590D02*
D03*
X128270Y339090D02*
D03*
D20*
X35560Y151130D02*
D03*
X229870Y123190D02*
D03*
D21*
X353060Y168910D02*
D03*
X48260Y273050D02*
D03*
X241300Y353060D02*
D03*
X157480Y46990D02*
D03*
D22*
X353060Y219710D02*
D03*
X48260Y222250D02*
D03*
D23*
X280200Y285750D02*
D03*
X380200D02*
D03*
X153200D02*
D03*
X253200D02*
D03*
X130810Y154470D02*
D03*
Y254470D02*
D03*
X194780Y119380D02*
D03*
X94780D02*
D03*
D24*
X190500Y353060D02*
D03*
X208280Y46990D02*
D03*
D25*
X30000Y370000D02*
D03*
X370000Y30000D02*
D03*
Y370000D02*
D03*
X30000Y30000D02*
D03*
M02*
