G04 Layer_Color=32768*
%FSLAX44Y44*%
%MOMM*%
G71*
G01*
G75*
%ADD16C,0.2540*%
%ADD17C,0.1000*%
%ADD26C,0.1524*%
D16*
X403040Y400000D02*
X466090D01*
X403040Y0D02*
X466090D01*
X463550Y197081D02*
Y400000D01*
Y0D02*
Y117856D01*
X458470Y384760D02*
X463550Y400000D01*
X468630Y384760D01*
X463550Y0D02*
X468630Y15240D01*
X458470D02*
X463550Y0D01*
X0Y403040D02*
Y435610D01*
X400000Y403040D02*
Y435610D01*
X0Y433070D02*
X156323D01*
X235548D02*
X400000D01*
X0D02*
X15240Y427990D01*
X0Y433070D02*
X15240Y438150D01*
X384760D02*
X400000Y433070D01*
X384760Y427990D02*
X400000Y433070D01*
D17*
X0Y0D02*
Y400000D01*
Y0D02*
X400000D01*
Y400000D01*
X0D02*
X400000D01*
D26*
X468630Y129537D02*
X453395D01*
X461012Y121920D01*
Y132077D01*
X455934Y137155D02*
X453395Y139694D01*
Y144773D01*
X455934Y147312D01*
X466091D01*
X468630Y144773D01*
Y139694D01*
X466091Y137155D01*
X455934D01*
X471169Y154929D02*
X468630Y157469D01*
X466091D01*
Y154929D01*
X468630D01*
Y157469D01*
X471169Y154929D01*
X473708Y152390D01*
X455934Y167625D02*
X453395Y170164D01*
Y175243D01*
X455934Y177782D01*
X466091D01*
X468630Y175243D01*
Y170164D01*
X466091Y167625D01*
X455934D01*
Y182860D02*
X453395Y185399D01*
Y190478D01*
X455934Y193017D01*
X466091D01*
X468630Y190478D01*
Y185399D01*
X466091Y182860D01*
X455934D01*
X168005Y421389D02*
Y436624D01*
X160387Y429007D01*
X170544D01*
X175623Y434085D02*
X178162Y436624D01*
X183240D01*
X185779Y434085D01*
Y423928D01*
X183240Y421389D01*
X178162D01*
X175623Y423928D01*
Y434085D01*
X193397Y418850D02*
X195936Y421389D01*
Y423928D01*
X193397D01*
Y421389D01*
X195936D01*
X193397Y418850D01*
X190858Y416311D01*
X206093Y434085D02*
X208632Y436624D01*
X213710D01*
X216249Y434085D01*
Y423928D01*
X213710Y421389D01*
X208632D01*
X206093Y423928D01*
Y434085D01*
X221328D02*
X223867Y436624D01*
X228945D01*
X231485Y434085D01*
Y423928D01*
X228945Y421389D01*
X223867D01*
X221328Y423928D01*
Y434085D01*
M02*
