G04 Layer_Color=8388736*
%FSLAX44Y44*%
%MOMM*%
G71*
G01*
G75*
%ADD17C,0.1000*%
G04:AMPARAMS|DCode=31|XSize=1.7032mm|YSize=2.2032mm|CornerRadius=0.1766mm|HoleSize=0mm|Usage=FLASHONLY|Rotation=0.000|XOffset=0mm|YOffset=0mm|HoleType=Round|Shape=RoundedRectangle|*
%AMROUNDEDRECTD31*
21,1,1.7032,1.8500,0,0,0.0*
21,1,1.3500,2.2032,0,0,0.0*
1,1,0.3532,0.6750,-0.9250*
1,1,0.3532,-0.6750,-0.9250*
1,1,0.3532,-0.6750,0.9250*
1,1,0.3532,0.6750,0.9250*
%
%ADD31ROUNDEDRECTD31*%
G04:AMPARAMS|DCode=32|XSize=2.7032mm|YSize=2.7032mm|CornerRadius=0.2266mm|HoleSize=0mm|Usage=FLASHONLY|Rotation=90.000|XOffset=0mm|YOffset=0mm|HoleType=Round|Shape=RoundedRectangle|*
%AMROUNDEDRECTD32*
21,1,2.7032,2.2500,0,0,90.0*
21,1,2.2500,2.7032,0,0,90.0*
1,1,0.4532,1.1250,1.1250*
1,1,0.4532,1.1250,-1.1250*
1,1,0.4532,-1.1250,-1.1250*
1,1,0.4532,-1.1250,1.1250*
%
%ADD32ROUNDEDRECTD32*%
%ADD33O,1.8532X0.5532*%
%ADD34R,1.8532X0.5532*%
%ADD35R,2.0032X2.0032*%
%ADD36C,2.0032*%
%ADD37R,2.0032X2.0032*%
%ADD38C,2.6032*%
%ADD39R,2.6032X2.6032*%
%ADD40C,1.9032*%
%ADD41R,2.6032X2.6032*%
%ADD42C,3.2032*%
D17*
X0Y0D02*
Y400000D01*
Y0D02*
X400000D01*
Y400000D01*
X0D02*
X400000D01*
D31*
X210820Y183440D02*
D03*
Y253440D02*
D03*
D32*
Y218440D02*
D03*
D33*
X240820Y196190D02*
D03*
Y202565D02*
D03*
Y208915D02*
D03*
Y215265D02*
D03*
Y221615D02*
D03*
Y227965D02*
D03*
Y234315D02*
D03*
Y240690D02*
D03*
X180820Y196190D02*
D03*
Y202565D02*
D03*
Y208915D02*
D03*
Y215265D02*
D03*
Y221615D02*
D03*
Y227965D02*
D03*
Y234315D02*
D03*
D34*
Y240690D02*
D03*
D35*
X68580Y76200D02*
D03*
X102870Y339090D02*
D03*
D36*
X93980Y76200D02*
D03*
X35560Y125730D02*
D03*
X229870Y148590D02*
D03*
X128270Y339090D02*
D03*
D37*
X35560Y151130D02*
D03*
X229870Y123190D02*
D03*
D38*
X353060Y168910D02*
D03*
X48260Y273050D02*
D03*
X241300Y353060D02*
D03*
X157480Y46990D02*
D03*
D39*
X353060Y219710D02*
D03*
X48260Y222250D02*
D03*
D40*
X280200Y285750D02*
D03*
X380200D02*
D03*
X153200D02*
D03*
X253200D02*
D03*
X130810Y154470D02*
D03*
Y254470D02*
D03*
X194780Y119380D02*
D03*
X94780D02*
D03*
D41*
X190500Y353060D02*
D03*
X208280Y46990D02*
D03*
D42*
X30000Y370000D02*
D03*
X370000Y30000D02*
D03*
Y370000D02*
D03*
X30000Y30000D02*
D03*
M02*
