G04 Layer_Color=128*
%FSLAX44Y44*%
%MOMM*%
G71*
G01*
G75*
%ADD17C,0.1000*%
%ADD43C,0.0508*%
D17*
X0Y0D02*
Y400000D01*
Y0D02*
X400000D01*
Y400000D01*
X0D02*
X400000D01*
D43*
X62580Y76200D02*
X74580D01*
X68580Y70200D02*
Y82200D01*
X87980Y76200D02*
X99980D01*
X93980Y70200D02*
Y82200D01*
X29560Y151130D02*
X41560D01*
X35560Y145130D02*
Y157130D01*
X29560Y125730D02*
X41560D01*
X35560Y119730D02*
Y131730D01*
X223870Y123190D02*
X235870D01*
X229870Y117190D02*
Y129190D01*
X223870Y148590D02*
X235870D01*
X229870Y142590D02*
Y154590D01*
X96870Y339090D02*
X108870D01*
X102870Y333090D02*
Y345090D01*
X122270Y339090D02*
X134270D01*
X128270Y333090D02*
Y345090D01*
X346060Y168910D02*
X360060D01*
X353060Y161910D02*
Y175910D01*
X346060Y219710D02*
X360060D01*
X353060Y212710D02*
Y226710D01*
X275700Y285750D02*
X284700D01*
X280200Y281250D02*
Y290250D01*
X375700Y285750D02*
X384700D01*
X380200Y281250D02*
Y290250D01*
X41260Y273050D02*
X55260D01*
X48260Y266050D02*
Y280050D01*
X41260Y222250D02*
X55260D01*
X48260Y215250D02*
Y229250D01*
X234300Y353060D02*
X248300D01*
X241300Y346060D02*
Y360060D01*
X183500Y353060D02*
X197500D01*
X190500Y346060D02*
Y360060D01*
X150480Y46990D02*
X164480D01*
X157480Y39990D02*
Y53990D01*
X201280Y46990D02*
X215280D01*
X208280Y39990D02*
Y53990D01*
X15000Y370000D02*
X45000D01*
X30000Y355000D02*
Y385000D01*
X355000Y30000D02*
X385000D01*
X370000Y15000D02*
Y45000D01*
X355000Y370000D02*
X385000D01*
X370000Y355000D02*
Y385000D01*
X15000Y30000D02*
X45000D01*
X30000Y15000D02*
Y45000D01*
X148700Y285750D02*
X157700D01*
X153200Y281250D02*
Y290250D01*
X248700Y285750D02*
X257700D01*
X253200Y281250D02*
Y290250D01*
X126310Y154470D02*
X135310D01*
X130810Y149970D02*
Y158970D01*
X126310Y254470D02*
X135310D01*
X130810Y249970D02*
Y258970D01*
X190280Y119380D02*
X199280D01*
X194780Y114880D02*
Y123880D01*
X90280Y119380D02*
X99280D01*
X94780Y114880D02*
Y123880D01*
M02*
