G04 Layer_Color=65535*
%FSLAX44Y44*%
%MOMM*%
G71*
G01*
G75*
%ADD12C,0.3000*%
%ADD25C,0.1000*%
%ADD26C,0.2000*%
%ADD27C,0.1524*%
%ADD28C,0.1270*%
%ADD29C,0.0500*%
%ADD30C,0.1500*%
%ADD31C,0.2540*%
%ADD32C,0.4000*%
D12*
X0Y950000D02*
X950000D01*
Y0D02*
Y950000D01*
X0Y0D02*
X950000D01*
X0D02*
Y950000D01*
D25*
X790499Y125022D02*
G03*
X789998Y134997I-500J4975D01*
G01*
Y304997D02*
G03*
X790499Y314972I0J5000D01*
G01*
X744669Y338994D02*
G03*
X749899Y319053I6329J-8997D01*
G01*
X792876Y372908D02*
G03*
X788329Y381711I-2877J4089D01*
G01*
X762201Y388510D02*
G03*
X770669Y375456I5797J-5513D01*
G01*
X793622Y421552D02*
G03*
X786812Y428851I-3623J3446D01*
G01*
X704721Y373587D02*
G03*
X712185Y367144I4277J-2589D01*
G01*
X734276Y422408D02*
G03*
X725886Y427841I-4277J2589D01*
G01*
X677481Y357827D02*
G03*
X677737Y354094I2468J-1706D01*
G01*
X676948Y339127D02*
G03*
X677737Y354094I-6950J7871D01*
G01*
X662260D02*
G03*
X663048Y339127I7739J-7096D01*
G01*
X662260Y354094D02*
G03*
X662516Y357827I-2211J2028D01*
G01*
X614111Y427841D02*
G03*
X605721Y422408I-4113J-2843D01*
G01*
X627812Y367144D02*
G03*
X635276Y373587I3186J3853D01*
G01*
X553185Y428851D02*
G03*
X546375Y421552I-3186J-3853D01*
G01*
X569328Y375456D02*
G03*
X577796Y388510I2671J7541D01*
G01*
X551668Y381711D02*
G03*
X547122Y372908I-1669J-4713D01*
G01*
X590098Y319053D02*
G03*
X595328Y338994I-1100J10945D01*
G01*
X549498Y314972D02*
G03*
X549999Y304997I500J-4975D01*
G01*
Y134997D02*
G03*
X549498Y125022I0J-5000D01*
G01*
X595328Y101001D02*
G03*
X590098Y120942I-6329J8997D01*
G01*
X547122Y67087D02*
G03*
X551668Y58284I2877J-4089D01*
G01*
X577796Y51485D02*
G03*
X569328Y64538I-5797J5513D01*
G01*
X546375Y18443D02*
G03*
X553185Y11144I3623J-3446D01*
G01*
X635276Y66408D02*
G03*
X627812Y72851I-4277J2589D01*
G01*
X605721Y17587D02*
G03*
X614111Y12154I4277J-2589D01*
G01*
X662516Y82167D02*
G03*
X662260Y85901I-2468J1706D01*
G01*
X663048Y100868D02*
G03*
X662260Y85901I6950J-7871D01*
G01*
X677737D02*
G03*
X676948Y100868I-7739J7096D01*
G01*
X677737Y85901D02*
G03*
X677481Y82167I2211J-2028D01*
G01*
X725886Y12154D02*
G03*
X734276Y17587I4113J2843D01*
G01*
X712185Y72851D02*
G03*
X704721Y66408I-3186J-3853D01*
G01*
X786812Y11144D02*
G03*
X793622Y18443I3186J3853D01*
G01*
X770669Y64538D02*
G03*
X762201Y51485I-2671J-7541D01*
G01*
X788329Y58284D02*
G03*
X792876Y67087I1669J4713D01*
G01*
X749899Y120942D02*
G03*
X744669Y101001I1100J-10945D01*
G01*
X679799Y91010D02*
G03*
X679916Y91716I-9801J1987D01*
G01*
D02*
G03*
X679620Y90271I-9918J1282D01*
G01*
X677290Y91240D02*
G03*
X677429Y91978I-7291J1758D01*
G01*
X679620Y90271D02*
G03*
X679635Y90327I-9621J2726D01*
G01*
X679790Y90966D02*
G03*
X679799Y91010I-9791J2031D01*
G01*
X677429Y91978D02*
G03*
X677290Y91240I-7430J1020D01*
G01*
X679879Y345454D02*
G03*
X679964Y346164I-9880J1543D01*
G01*
D02*
G03*
X679733Y344708I-9965J833D01*
G01*
X677362Y345571D02*
G03*
X677467Y346314I-7363J1427D01*
G01*
X679733Y344708D02*
G03*
X679746Y344764I-9734J2290D01*
G01*
X679872Y345410D02*
G03*
X679879Y345454I-9873J1587D01*
G01*
X677467Y346314D02*
G03*
X677362Y345571I-7469J684D01*
G01*
X790499Y605023D02*
G03*
X789998Y614997I-500J4975D01*
G01*
Y784997D02*
G03*
X790499Y794972I0J5000D01*
G01*
X744669Y818994D02*
G03*
X749899Y799053I6329J-8997D01*
G01*
X792876Y852908D02*
G03*
X788329Y861711I-2877J4089D01*
G01*
X762201Y868510D02*
G03*
X770669Y855456I5797J-5513D01*
G01*
X793622Y901552D02*
G03*
X786812Y908851I-3623J3446D01*
G01*
X704721Y853587D02*
G03*
X712185Y847144I4277J-2589D01*
G01*
X734276Y902408D02*
G03*
X725886Y907841I-4277J2589D01*
G01*
X677481Y837828D02*
G03*
X677737Y834094I2468J-1706D01*
G01*
X676948Y819127D02*
G03*
X677737Y834094I-6950J7871D01*
G01*
X662260D02*
G03*
X663048Y819127I7739J-7096D01*
G01*
X662260Y834094D02*
G03*
X662516Y837828I-2211J2028D01*
G01*
X614111Y907841D02*
G03*
X605721Y902408I-4113J-2843D01*
G01*
X627812Y847144D02*
G03*
X635276Y853587I3186J3853D01*
G01*
X553185Y908851D02*
G03*
X546375Y901552I-3186J-3853D01*
G01*
X569328Y855456D02*
G03*
X577796Y868510I2671J7541D01*
G01*
X551668Y861711D02*
G03*
X547122Y852908I-1669J-4713D01*
G01*
X590098Y799053D02*
G03*
X595328Y818994I-1100J10945D01*
G01*
X549498Y794972D02*
G03*
X549999Y784997I500J-4975D01*
G01*
Y614997D02*
G03*
X549498Y605023I0J-5000D01*
G01*
X595328Y581001D02*
G03*
X590098Y600942I-6329J8997D01*
G01*
X547122Y547087D02*
G03*
X551668Y538284I2877J-4089D01*
G01*
X577796Y531485D02*
G03*
X569328Y544538I-5797J5513D01*
G01*
X546375Y498443D02*
G03*
X553185Y491144I3623J-3446D01*
G01*
X635276Y546408D02*
G03*
X627812Y552851I-4277J2589D01*
G01*
X605721Y497587D02*
G03*
X614111Y492154I4277J-2589D01*
G01*
X662516Y562167D02*
G03*
X662260Y565901I-2468J1706D01*
G01*
X663048Y580868D02*
G03*
X662260Y565901I6950J-7871D01*
G01*
X677737D02*
G03*
X676948Y580868I-7739J7096D01*
G01*
X677737Y565901D02*
G03*
X677481Y562167I2211J-2028D01*
G01*
X725886Y492154D02*
G03*
X734276Y497587I4113J2843D01*
G01*
X712185Y552851D02*
G03*
X704721Y546408I-3186J-3853D01*
G01*
X786812Y491144D02*
G03*
X793622Y498443I3186J3853D01*
G01*
X770669Y544538D02*
G03*
X762201Y531485I-2671J-7541D01*
G01*
X788329Y538284D02*
G03*
X792876Y547087I1669J4713D01*
G01*
X749899Y600942D02*
G03*
X744669Y581001I1100J-10945D01*
G01*
X679799Y571010D02*
G03*
X679916Y571716I-9801J1987D01*
G01*
D02*
G03*
X679620Y570271I-9918J1282D01*
G01*
X677290Y571240D02*
G03*
X677429Y571978I-7291J1758D01*
G01*
X679620Y570271D02*
G03*
X679635Y570327I-9621J2726D01*
G01*
X679790Y570966D02*
G03*
X679799Y571010I-9791J2031D01*
G01*
X677429Y571978D02*
G03*
X677290Y571240I-7430J1020D01*
G01*
X679879Y825454D02*
G03*
X679964Y826164I-9880J1543D01*
G01*
D02*
G03*
X679733Y824708I-9965J833D01*
G01*
X677362Y825571D02*
G03*
X677467Y826314I-7363J1427D01*
G01*
X679733Y824708D02*
G03*
X679746Y824764I-9734J2290D01*
G01*
X679872Y825410D02*
G03*
X679879Y825454I-9873J1587D01*
G01*
X677467Y826314D02*
G03*
X677362Y825571I-7469J684D01*
G01*
X440499Y605023D02*
G03*
X439999Y614997I-500J4975D01*
G01*
Y784997D02*
G03*
X440499Y794972I0J5000D01*
G01*
X394669Y818994D02*
G03*
X399899Y799053I6329J-8997D01*
G01*
X442875Y852908D02*
G03*
X438329Y861711I-2877J4089D01*
G01*
X412201Y868510D02*
G03*
X420669Y855456I5797J-5513D01*
G01*
X443622Y901552D02*
G03*
X436812Y908851I-3623J3446D01*
G01*
X354721Y853587D02*
G03*
X362185Y847144I4277J-2589D01*
G01*
X384276Y902408D02*
G03*
X375886Y907841I-4277J2589D01*
G01*
X327481Y837828D02*
G03*
X327737Y834094I2468J-1706D01*
G01*
X326949Y819127D02*
G03*
X327737Y834094I-6950J7871D01*
G01*
X312260D02*
G03*
X313048Y819127I7739J-7096D01*
G01*
X312260Y834094D02*
G03*
X312516Y837828I-2211J2028D01*
G01*
X264111Y907841D02*
G03*
X255721Y902408I-4113J-2843D01*
G01*
X277812Y847144D02*
G03*
X285276Y853587I3186J3853D01*
G01*
X203185Y908851D02*
G03*
X196375Y901552I-3186J-3853D01*
G01*
X219328Y855456D02*
G03*
X227796Y868510I2671J7541D01*
G01*
X201668Y861711D02*
G03*
X197122Y852908I-1669J-4713D01*
G01*
X240098Y799053D02*
G03*
X245328Y818994I-1100J10945D01*
G01*
X199499Y794972D02*
G03*
X199998Y784997I500J-4975D01*
G01*
Y614997D02*
G03*
X199499Y605023I0J-5000D01*
G01*
X245328Y581001D02*
G03*
X240098Y600942I-6329J8997D01*
G01*
X197122Y547087D02*
G03*
X201668Y538284I2877J-4089D01*
G01*
X227796Y531485D02*
G03*
X219328Y544538I-5797J5513D01*
G01*
X196375Y498443D02*
G03*
X203185Y491144I3623J-3446D01*
G01*
X285276Y546408D02*
G03*
X277812Y552851I-4277J2589D01*
G01*
X255721Y497587D02*
G03*
X264111Y492154I4277J-2589D01*
G01*
X312516Y562167D02*
G03*
X312260Y565901I-2468J1706D01*
G01*
X313048Y580868D02*
G03*
X312260Y565901I6950J-7871D01*
G01*
X327737D02*
G03*
X326949Y580868I-7739J7096D01*
G01*
X327737Y565901D02*
G03*
X327481Y562167I2211J-2028D01*
G01*
X375886Y492154D02*
G03*
X384276Y497587I4113J2843D01*
G01*
X362185Y552851D02*
G03*
X354721Y546408I-3186J-3853D01*
G01*
X436812Y491144D02*
G03*
X443622Y498443I3186J3853D01*
G01*
X420669Y544538D02*
G03*
X412201Y531485I-2671J-7541D01*
G01*
X438329Y538284D02*
G03*
X442875Y547087I1669J4713D01*
G01*
X399899Y600942D02*
G03*
X394669Y581001I1100J-10945D01*
G01*
X329799Y571010D02*
G03*
X329916Y571716I-9801J1987D01*
G01*
D02*
G03*
X329620Y570271I-9918J1282D01*
G01*
X327290Y571240D02*
G03*
X327429Y571978I-7291J1758D01*
G01*
X329620Y570271D02*
G03*
X329635Y570327I-9621J2726D01*
G01*
X329790Y570966D02*
G03*
X329799Y571010I-9791J2031D01*
G01*
X327429Y571978D02*
G03*
X327290Y571240I-7430J1020D01*
G01*
X329879Y825454D02*
G03*
X329964Y826164I-9880J1543D01*
G01*
D02*
G03*
X329733Y824708I-9965J833D01*
G01*
X327361Y825571D02*
G03*
X327467Y826314I-7363J1427D01*
G01*
X329733Y824708D02*
G03*
X329746Y824764I-9734J2290D01*
G01*
X329872Y825410D02*
G03*
X329879Y825454I-9873J1587D01*
G01*
X327467Y826314D02*
G03*
X327361Y825571I-7469J684D01*
G01*
X440499Y125022D02*
G03*
X439999Y134997I-500J4975D01*
G01*
Y304997D02*
G03*
X440499Y314972I0J5000D01*
G01*
X394669Y338994D02*
G03*
X399899Y319053I6329J-8997D01*
G01*
X442875Y372908D02*
G03*
X438329Y381711I-2877J4089D01*
G01*
X412201Y388510D02*
G03*
X420669Y375456I5797J-5513D01*
G01*
X443622Y421552D02*
G03*
X436812Y428851I-3623J3446D01*
G01*
X354721Y373587D02*
G03*
X362185Y367144I4277J-2589D01*
G01*
X384276Y422408D02*
G03*
X375886Y427841I-4277J2589D01*
G01*
X327481Y357827D02*
G03*
X327737Y354094I2468J-1706D01*
G01*
X326949Y339127D02*
G03*
X327737Y354094I-6950J7871D01*
G01*
X312260D02*
G03*
X313048Y339127I7739J-7096D01*
G01*
X312260Y354094D02*
G03*
X312516Y357827I-2211J2028D01*
G01*
X264111Y427841D02*
G03*
X255721Y422408I-4113J-2843D01*
G01*
X277812Y367144D02*
G03*
X285276Y373587I3186J3853D01*
G01*
X203185Y428851D02*
G03*
X196375Y421552I-3186J-3853D01*
G01*
X219328Y375456D02*
G03*
X227796Y388510I2671J7541D01*
G01*
X201668Y381711D02*
G03*
X197122Y372908I-1669J-4713D01*
G01*
X240098Y319053D02*
G03*
X245328Y338994I-1100J10945D01*
G01*
X199499Y314972D02*
G03*
X199998Y304997I500J-4975D01*
G01*
Y134997D02*
G03*
X199499Y125022I0J-5000D01*
G01*
X245328Y101001D02*
G03*
X240098Y120942I-6329J8997D01*
G01*
X197122Y67087D02*
G03*
X201668Y58284I2877J-4089D01*
G01*
X227796Y51485D02*
G03*
X219328Y64538I-5797J5513D01*
G01*
X196375Y18443D02*
G03*
X203185Y11144I3623J-3446D01*
G01*
X285276Y66408D02*
G03*
X277812Y72851I-4277J2589D01*
G01*
X255721Y17587D02*
G03*
X264111Y12154I4277J-2589D01*
G01*
X312516Y82167D02*
G03*
X312260Y85901I-2468J1706D01*
G01*
X313048Y100868D02*
G03*
X312260Y85901I6950J-7871D01*
G01*
X327737D02*
G03*
X326949Y100868I-7739J7096D01*
G01*
X327737Y85901D02*
G03*
X327481Y82167I2211J-2028D01*
G01*
X375886Y12154D02*
G03*
X384276Y17587I4113J2843D01*
G01*
X362185Y72851D02*
G03*
X354721Y66408I-3186J-3853D01*
G01*
X436812Y11144D02*
G03*
X443622Y18443I3186J3853D01*
G01*
X420669Y64538D02*
G03*
X412201Y51485I-2671J-7541D01*
G01*
X438329Y58284D02*
G03*
X442875Y67087I1669J4713D01*
G01*
X399899Y120942D02*
G03*
X394669Y101001I1100J-10945D01*
G01*
X329799Y91010D02*
G03*
X329916Y91716I-9801J1987D01*
G01*
D02*
G03*
X329620Y90271I-9918J1282D01*
G01*
X327290Y91240D02*
G03*
X327429Y91978I-7291J1758D01*
G01*
X329620Y90271D02*
G03*
X329635Y90327I-9621J2726D01*
G01*
X329790Y90966D02*
G03*
X329799Y91010I-9791J2031D01*
G01*
X327429Y91978D02*
G03*
X327290Y91240I-7430J1020D01*
G01*
X329879Y345454D02*
G03*
X329964Y346164I-9880J1543D01*
G01*
D02*
G03*
X329733Y344708I-9965J833D01*
G01*
X327361Y345571D02*
G03*
X327467Y346314I-7363J1427D01*
G01*
X329733Y344708D02*
G03*
X329746Y344764I-9734J2290D01*
G01*
X329872Y345410D02*
G03*
X329879Y345454I-9873J1587D01*
G01*
X327467Y346314D02*
G03*
X327361Y345571I-7469J684D01*
G01*
X749899Y120942D02*
X790498Y125022D01*
X678998Y134997D02*
X789998D01*
X678998D02*
Y304997D01*
X789998D01*
X749899Y319053D02*
X790498Y314972D01*
X744669Y338994D02*
X792876Y372908D01*
X770669Y375456D02*
X788329Y381711D01*
X762201Y388510D02*
X793622Y421552D01*
X712185Y367144D02*
X786812Y428851D01*
X704721Y373587D02*
X734276Y422408D01*
X677481Y357827D02*
X725886Y427841D01*
X676948Y334997D02*
Y339127D01*
X663048Y334997D02*
X676948D01*
X663048D02*
Y339127D01*
X614111Y427841D02*
X662516Y357827D01*
X605721Y422408D02*
X635276Y373587D01*
X553185Y428851D02*
X627812Y367144D01*
X546375Y421552D02*
X577796Y388510D01*
X551668Y381711D02*
X569328Y375456D01*
X547122Y372908D02*
X595328Y338994D01*
X549498Y314972D02*
X590098Y319053D01*
X549999Y304997D02*
X660999D01*
Y134997D02*
Y304997D01*
X549999Y134997D02*
X660999D01*
X549498Y125022D02*
X590098Y120942D01*
X547122Y67087D02*
X595328Y101001D01*
X551668Y58284D02*
X569328Y64538D01*
X546375Y18443D02*
X577796Y51485D01*
X553185Y11144D02*
X627812Y72851D01*
X605721Y17587D02*
X635276Y66408D01*
X614111Y12154D02*
X662516Y82167D01*
X663048Y100868D02*
Y104997D01*
X676948D01*
Y100868D02*
Y104997D01*
X677481Y82167D02*
X725886Y12154D01*
X704721Y66408D02*
X734276Y17587D01*
X712185Y72851D02*
X786812Y11144D01*
X762201Y51485D02*
X793622Y18443D01*
X770669Y64538D02*
X788329Y58284D01*
X744669Y101001D02*
X792876Y67087D01*
X660999Y235997D02*
X678998D01*
X660999Y203997D02*
X678998D01*
X679620Y90271D02*
X679633Y90325D01*
X679644Y90382D01*
X679652Y90440D01*
X679656Y90499D01*
X679657Y90558D01*
X679655Y90616D02*
X679657Y90558D01*
X679649Y90673D02*
X679655Y90616D01*
X679639Y90728D02*
X679649Y90673D01*
X679625Y90781D02*
X679639Y90728D01*
X679605Y90836D02*
X679625Y90781D01*
X679581Y90892D02*
X679605Y90836D01*
X679552Y90946D02*
X679581Y90892D01*
X679519Y90998D02*
X679552Y90946D01*
X679481Y91046D02*
X679519Y90998D01*
X679439Y91091D02*
X679481Y91046D01*
X679390Y91134D02*
X679439Y91091D01*
X679334Y91175D02*
X679390Y91134D01*
X679273Y91212D02*
X679334Y91175D01*
X679210Y91242D02*
X679273Y91212D01*
X679143Y91267D02*
X679210Y91242D01*
X679070Y91285D02*
X679143Y91267D01*
X678993Y91298D02*
X679070Y91285D01*
X678914Y91305D02*
X678993Y91298D01*
X678838Y91306D02*
X678914Y91305D01*
X678948Y92042D02*
X679024Y92042D01*
X679103Y92034D01*
X679181Y92021D01*
X679255Y92002D01*
X679322Y91978D01*
X679387Y91947D01*
X679449Y91911D01*
X679506Y91871D01*
X679558Y91828D01*
X679602Y91785D01*
X679642Y91737D01*
X679679Y91686D01*
X679712Y91632D01*
X679740Y91578D01*
X679764Y91523D01*
X679782Y91469D01*
X679797Y91415D01*
X679807Y91358D01*
X679814Y91300D01*
X679818Y91241D01*
X679818Y91182D01*
X679815Y91123D02*
X679818Y91182D01*
X679809Y91066D02*
X679815Y91123D01*
X679799Y91010D02*
X679809Y91066D01*
X677290Y91240D02*
X678838Y91306D01*
X677429Y91978D02*
X678948Y92042D01*
X679635Y90327D02*
X679636Y90328D01*
X679637Y90332D01*
X679638Y90337D01*
X679641Y90346D01*
X679643Y90356D01*
X679647Y90369D01*
X679651Y90385D01*
X679656Y90402D01*
X679661Y90422D01*
X679667Y90444D01*
X679674Y90469D01*
X679681Y90496D01*
X679688Y90525D01*
X679696Y90557D01*
X679704Y90590D01*
X679713Y90626D01*
X679722Y90663D01*
X679731Y90702D01*
X679741Y90743D01*
X679751Y90785D01*
X679760Y90828D01*
X679770Y90873D01*
X679780Y90919D01*
X679790Y90966D01*
X679634Y90327D02*
X679635Y90327D01*
X679733Y344708D02*
X679744Y344763D01*
X679752Y344820D01*
X679757Y344878D01*
X679759Y344937D01*
X679758Y344996D02*
X679759Y344937D01*
X679753Y345054D02*
X679758Y344996D01*
X679744Y345111D02*
X679753Y345054D01*
X679732Y345165D02*
X679744Y345111D01*
X679715Y345218D02*
X679732Y345165D01*
X679693Y345272D02*
X679715Y345218D01*
X679666Y345326D02*
X679693Y345272D01*
X679635Y345379D02*
X679666Y345326D01*
X679599Y345429D02*
X679635Y345379D01*
X679560Y345476D02*
X679599Y345429D01*
X679516Y345519D02*
X679560Y345476D01*
X679464Y345560D02*
X679516Y345519D01*
X679407Y345598D02*
X679464Y345560D01*
X679344Y345632D02*
X679407Y345598D01*
X679279Y345660D02*
X679344Y345632D01*
X679212Y345681D02*
X679279Y345660D01*
X679138Y345696D02*
X679212Y345681D01*
X679060Y345706D02*
X679138Y345696D01*
X678981Y345709D02*
X679060Y345706D01*
X678905Y345706D02*
X678981Y345709D01*
X678982Y346446D02*
X679058Y346450D01*
X679137Y346446D01*
X679216Y346436D01*
X679290Y346421D01*
X679358Y346399D01*
X679424Y346372D01*
X679488Y346338D01*
X679547Y346301D01*
X679601Y346261D01*
X679647Y346219D01*
X679689Y346173D01*
X679728Y346124D01*
X679763Y346072D01*
X679794Y346019D01*
X679820Y345965D01*
X679841Y345912D01*
X679858Y345858D01*
X679871Y345802D01*
X679881Y345745D01*
X679887Y345686D01*
X679890Y345626D01*
X679889Y345568D02*
X679890Y345626D01*
X679886Y345510D02*
X679889Y345568D01*
X679879Y345454D02*
X679886Y345510D01*
X677362Y345571D02*
X678905Y345706D01*
X677467Y346314D02*
X678982Y346446D01*
X679746Y344764D02*
X679746Y344766D01*
X679747Y344769D01*
X679749Y344775D01*
X679750Y344783D01*
X679753Y344794D01*
X679756Y344807D01*
X679759Y344823D01*
X679763Y344840D01*
X679768Y344860D01*
X679772Y344883D01*
X679778Y344908D01*
X679784Y344935D01*
X679790Y344965D01*
X679796Y344997D01*
X679803Y345031D01*
X679810Y345066D01*
X679818Y345104D01*
X679825Y345144D01*
X679833Y345185D01*
X679840Y345227D01*
X679848Y345271D01*
X679856Y345316D01*
X679864Y345362D01*
X679872Y345410D01*
X679745Y344764D02*
X679746Y344764D01*
X749899Y600942D02*
X790498Y605023D01*
X678998Y614997D02*
X789998D01*
X678998D02*
Y784997D01*
X789998D01*
X749899Y799053D02*
X790498Y794972D01*
X744669Y818994D02*
X792876Y852908D01*
X770669Y855456D02*
X788329Y861711D01*
X762201Y868510D02*
X793622Y901552D01*
X712185Y847144D02*
X786812Y908851D01*
X704721Y853587D02*
X734276Y902408D01*
X677481Y837828D02*
X725886Y907841D01*
X676948Y814997D02*
Y819127D01*
X663048Y814997D02*
X676948D01*
X663048D02*
Y819127D01*
X614111Y907841D02*
X662516Y837828D01*
X605721Y902408D02*
X635276Y853587D01*
X553185Y908851D02*
X627812Y847144D01*
X546375Y901552D02*
X577796Y868510D01*
X551668Y861711D02*
X569328Y855456D01*
X547122Y852908D02*
X595328Y818994D01*
X549498Y794972D02*
X590098Y799053D01*
X549999Y784997D02*
X660999D01*
Y614997D02*
Y784997D01*
X549999Y614997D02*
X660999D01*
X549498Y605023D02*
X590098Y600942D01*
X547122Y547087D02*
X595328Y581001D01*
X551668Y538284D02*
X569328Y544538D01*
X546375Y498443D02*
X577796Y531485D01*
X553185Y491144D02*
X627812Y552851D01*
X605721Y497587D02*
X635276Y546408D01*
X614111Y492154D02*
X662516Y562167D01*
X663048Y580868D02*
Y584997D01*
X676948D01*
Y580868D02*
Y584997D01*
X677481Y562167D02*
X725886Y492154D01*
X704721Y546408D02*
X734276Y497587D01*
X712185Y552851D02*
X786812Y491144D01*
X762201Y531485D02*
X793622Y498443D01*
X770669Y544538D02*
X788329Y538284D01*
X744669Y581001D02*
X792876Y547087D01*
X660999Y715997D02*
X678998D01*
X660999Y683997D02*
X678998D01*
X679620Y570271D02*
X679633Y570326D01*
X679644Y570382D01*
X679652Y570440D01*
X679656Y570499D01*
X679657Y570558D01*
X679655Y570616D02*
X679657Y570558D01*
X679649Y570673D02*
X679655Y570616D01*
X679639Y570728D02*
X679649Y570673D01*
X679625Y570781D02*
X679639Y570728D01*
X679605Y570836D02*
X679625Y570781D01*
X679581Y570892D02*
X679605Y570836D01*
X679552Y570946D02*
X679581Y570892D01*
X679519Y570998D02*
X679552Y570946D01*
X679481Y571046D02*
X679519Y570998D01*
X679439Y571091D02*
X679481Y571046D01*
X679390Y571134D02*
X679439Y571091D01*
X679334Y571175D02*
X679390Y571134D01*
X679273Y571212D02*
X679334Y571175D01*
X679210Y571242D02*
X679273Y571212D01*
X679143Y571267D02*
X679210Y571242D01*
X679070Y571285D02*
X679143Y571267D01*
X678993Y571298D02*
X679070Y571285D01*
X678914Y571305D02*
X678993Y571298D01*
X678838Y571306D02*
X678914Y571305D01*
X678948Y572042D02*
X679024Y572042D01*
X679103Y572034D01*
X679181Y572021D01*
X679255Y572002D01*
X679322Y571978D01*
X679387Y571947D01*
X679449Y571911D01*
X679506Y571871D01*
X679558Y571828D01*
X679602Y571785D01*
X679642Y571737D01*
X679679Y571686D01*
X679712Y571632D01*
X679740Y571578D01*
X679764Y571523D01*
X679782Y571469D01*
X679797Y571415D01*
X679807Y571358D01*
X679814Y571300D01*
X679818Y571241D01*
X679818Y571182D01*
X679815Y571123D02*
X679818Y571182D01*
X679809Y571066D02*
X679815Y571123D01*
X679799Y571010D02*
X679809Y571066D01*
X677290Y571240D02*
X678838Y571306D01*
X677429Y571978D02*
X678948Y572042D01*
X679635Y570327D02*
X679636Y570328D01*
X679637Y570332D01*
X679638Y570337D01*
X679641Y570346D01*
X679643Y570356D01*
X679647Y570369D01*
X679651Y570384D01*
X679656Y570402D01*
X679661Y570422D01*
X679667Y570444D01*
X679674Y570469D01*
X679681Y570496D01*
X679688Y570525D01*
X679696Y570557D01*
X679704Y570590D01*
X679713Y570626D01*
X679722Y570663D01*
X679731Y570702D01*
X679741Y570743D01*
X679751Y570785D01*
X679760Y570828D01*
X679770Y570873D01*
X679780Y570919D01*
X679790Y570966D01*
X679634Y570327D02*
X679635Y570327D01*
X679733Y824708D02*
X679744Y824763D01*
X679752Y824820D01*
X679757Y824878D01*
X679759Y824937D01*
X679758Y824996D02*
X679759Y824937D01*
X679753Y825054D02*
X679758Y824996D01*
X679744Y825110D02*
X679753Y825054D01*
X679732Y825165D02*
X679744Y825110D01*
X679715Y825218D02*
X679732Y825165D01*
X679693Y825272D02*
X679715Y825218D01*
X679666Y825326D02*
X679693Y825272D01*
X679635Y825379D02*
X679666Y825326D01*
X679599Y825429D02*
X679635Y825379D01*
X679560Y825476D02*
X679599Y825429D01*
X679516Y825519D02*
X679560Y825476D01*
X679464Y825560D02*
X679516Y825519D01*
X679407Y825598D02*
X679464Y825560D01*
X679344Y825632D02*
X679407Y825598D01*
X679279Y825660D02*
X679344Y825632D01*
X679212Y825681D02*
X679279Y825660D01*
X679138Y825696D02*
X679212Y825681D01*
X679060Y825706D02*
X679138Y825696D01*
X678981Y825709D02*
X679060Y825706D01*
X678905Y825706D02*
X678981Y825709D01*
X678982Y826447D02*
X679058Y826450D01*
X679137Y826446D01*
X679216Y826436D01*
X679290Y826421D01*
X679358Y826400D01*
X679424Y826372D01*
X679488Y826338D01*
X679547Y826301D01*
X679601Y826261D01*
X679647Y826219D01*
X679689Y826173D01*
X679728Y826124D01*
X679763Y826072D01*
X679794Y826019D01*
X679820Y825965D01*
X679841Y825912D01*
X679858Y825859D01*
X679871Y825802D01*
X679881Y825744D01*
X679887Y825686D01*
X679890Y825626D01*
X679889Y825568D02*
X679890Y825626D01*
X679886Y825510D02*
X679889Y825568D01*
X679879Y825454D02*
X679886Y825510D01*
X677362Y825571D02*
X678905Y825706D01*
X677467Y826314D02*
X678982Y826447D01*
X679746Y824764D02*
X679746Y824765D01*
X679747Y824769D01*
X679749Y824775D01*
X679750Y824783D01*
X679753Y824794D01*
X679756Y824807D01*
X679759Y824822D01*
X679763Y824840D01*
X679768Y824861D01*
X679772Y824883D01*
X679778Y824908D01*
X679784Y824935D01*
X679790Y824965D01*
X679796Y824997D01*
X679803Y825031D01*
X679810Y825066D01*
X679818Y825104D01*
X679825Y825144D01*
X679833Y825184D01*
X679840Y825227D01*
X679848Y825271D01*
X679856Y825316D01*
X679864Y825362D01*
X679872Y825410D01*
X679745Y824764D02*
X679746Y824764D01*
X399898Y600942D02*
X440498Y605023D01*
X328998Y614997D02*
X439999D01*
X328998D02*
Y784997D01*
X439999D01*
X399898Y799053D02*
X440498Y794972D01*
X394669Y818994D02*
X442875Y852908D01*
X420669Y855456D02*
X438329Y861711D01*
X412201Y868510D02*
X443622Y901552D01*
X362185Y847144D02*
X436812Y908851D01*
X354721Y853587D02*
X384276Y902408D01*
X327481Y837828D02*
X375886Y907841D01*
X326949Y814997D02*
Y819127D01*
X313048Y814997D02*
X326949D01*
X313048D02*
Y819127D01*
X264111Y907841D02*
X312516Y837828D01*
X255721Y902408D02*
X285276Y853587D01*
X203185Y908851D02*
X277812Y847144D01*
X196375Y901552D02*
X227796Y868510D01*
X201668Y861711D02*
X219328Y855456D01*
X197122Y852908D02*
X245328Y818994D01*
X199499Y794972D02*
X240098Y799053D01*
X199998Y784997D02*
X310998D01*
Y614997D02*
Y784997D01*
X199998Y614997D02*
X310998D01*
X199499Y605023D02*
X240098Y600942D01*
X197122Y547087D02*
X245328Y581001D01*
X201668Y538284D02*
X219328Y544538D01*
X196375Y498443D02*
X227796Y531485D01*
X203185Y491144D02*
X277812Y552851D01*
X255721Y497587D02*
X285276Y546408D01*
X264111Y492154D02*
X312516Y562167D01*
X313048Y580868D02*
Y584997D01*
X326949D01*
Y580868D02*
Y584997D01*
X327481Y562167D02*
X375886Y492154D01*
X354721Y546408D02*
X384276Y497587D01*
X362185Y552851D02*
X436812Y491144D01*
X412201Y531485D02*
X443622Y498443D01*
X420669Y544538D02*
X438329Y538284D01*
X394669Y581001D02*
X442875Y547087D01*
X310998Y715997D02*
X328998D01*
X310998Y683997D02*
X328998D01*
X329620Y570271D02*
X329633Y570326D01*
X329644Y570382D01*
X329652Y570440D01*
X329656Y570499D01*
X329657Y570558D01*
X329655Y570616D02*
X329657Y570558D01*
X329649Y570673D02*
X329655Y570616D01*
X329639Y570728D02*
X329649Y570673D01*
X329625Y570781D02*
X329639Y570728D01*
X329605Y570836D02*
X329625Y570781D01*
X329581Y570892D02*
X329605Y570836D01*
X329552Y570946D02*
X329581Y570892D01*
X329519Y570998D02*
X329552Y570946D01*
X329481Y571046D02*
X329519Y570998D01*
X329439Y571091D02*
X329481Y571046D01*
X329390Y571134D02*
X329439Y571091D01*
X329334Y571175D02*
X329390Y571134D01*
X329273Y571212D02*
X329334Y571175D01*
X329210Y571242D02*
X329273Y571212D01*
X329143Y571267D02*
X329210Y571242D01*
X329070Y571285D02*
X329143Y571267D01*
X328993Y571298D02*
X329070Y571285D01*
X328914Y571305D02*
X328993Y571298D01*
X328838Y571306D02*
X328914Y571305D01*
X328948Y572042D02*
X329024Y572042D01*
X329103Y572034D01*
X329181Y572021D01*
X329255Y572002D01*
X329322Y571978D01*
X329387Y571947D01*
X329449Y571911D01*
X329506Y571871D01*
X329558Y571828D01*
X329602Y571785D01*
X329642Y571737D01*
X329679Y571686D01*
X329712Y571632D01*
X329740Y571578D01*
X329764Y571523D01*
X329782Y571469D01*
X329796Y571415D01*
X329807Y571358D01*
X329814Y571300D01*
X329818Y571241D01*
X329818Y571182D01*
X329815Y571123D02*
X329818Y571182D01*
X329809Y571066D02*
X329815Y571123D01*
X329799Y571010D02*
X329809Y571066D01*
X327290Y571240D02*
X328838Y571306D01*
X327429Y571978D02*
X328948Y572042D01*
X329635Y570327D02*
X329636Y570328D01*
X329637Y570332D01*
X329638Y570337D01*
X329641Y570346D01*
X329644Y570356D01*
X329647Y570369D01*
X329651Y570384D01*
X329656Y570402D01*
X329661Y570422D01*
X329667Y570444D01*
X329674Y570469D01*
X329681Y570496D01*
X329688Y570525D01*
X329696Y570557D01*
X329704Y570590D01*
X329713Y570626D01*
X329722Y570663D01*
X329731Y570702D01*
X329741Y570743D01*
X329751Y570785D01*
X329760Y570828D01*
X329770Y570873D01*
X329780Y570919D01*
X329790Y570966D01*
X329634Y570327D02*
X329635Y570327D01*
X329733Y824708D02*
X329744Y824763D01*
X329752Y824820D01*
X329757Y824878D01*
X329759Y824937D01*
X329758Y824996D02*
X329759Y824937D01*
X329753Y825054D02*
X329758Y824996D01*
X329744Y825110D02*
X329753Y825054D01*
X329732Y825165D02*
X329744Y825110D01*
X329715Y825218D02*
X329732Y825165D01*
X329693Y825272D02*
X329715Y825218D01*
X329666Y825326D02*
X329693Y825272D01*
X329635Y825379D02*
X329666Y825326D01*
X329599Y825429D02*
X329635Y825379D01*
X329560Y825476D02*
X329599Y825429D01*
X329516Y825519D02*
X329560Y825476D01*
X329464Y825560D02*
X329516Y825519D01*
X329407Y825598D02*
X329464Y825560D01*
X329344Y825632D02*
X329407Y825598D01*
X329279Y825660D02*
X329344Y825632D01*
X329212Y825681D02*
X329279Y825660D01*
X329138Y825696D02*
X329212Y825681D01*
X329060Y825706D02*
X329138Y825696D01*
X328981Y825709D02*
X329060Y825706D01*
X328905Y825706D02*
X328981Y825709D01*
X328982Y826447D02*
X329058Y826450D01*
X329137Y826446D01*
X329216Y826436D01*
X329290Y826421D01*
X329358Y826400D01*
X329424Y826372D01*
X329488Y826338D01*
X329547Y826301D01*
X329601Y826261D01*
X329647Y826219D01*
X329689Y826173D01*
X329728Y826124D01*
X329763Y826072D01*
X329794Y826019D01*
X329820Y825965D01*
X329841Y825912D01*
X329858Y825859D01*
X329871Y825802D01*
X329881Y825744D01*
X329887Y825686D01*
X329890Y825626D01*
X329889Y825568D02*
X329890Y825626D01*
X329886Y825510D02*
X329889Y825568D01*
X329879Y825454D02*
X329886Y825510D01*
X327361Y825571D02*
X328905Y825706D01*
X327467Y826314D02*
X328982Y826447D01*
X329746Y824764D02*
X329746Y824765D01*
X329747Y824769D01*
X329748Y824775D01*
X329750Y824783D01*
X329753Y824794D01*
X329756Y824807D01*
X329759Y824822D01*
X329763Y824840D01*
X329768Y824861D01*
X329772Y824883D01*
X329778Y824908D01*
X329784Y824935D01*
X329790Y824965D01*
X329796Y824997D01*
X329803Y825031D01*
X329810Y825066D01*
X329818Y825104D01*
X329825Y825144D01*
X329833Y825184D01*
X329841Y825227D01*
X329848Y825271D01*
X329856Y825316D01*
X329864Y825362D01*
X329872Y825410D01*
X329745Y824764D02*
X329746Y824764D01*
X399898Y120942D02*
X440498Y125022D01*
X328998Y134997D02*
X439999D01*
X328998D02*
Y304997D01*
X439999D01*
X399898Y319053D02*
X440498Y314972D01*
X394669Y338994D02*
X442875Y372908D01*
X420669Y375456D02*
X438329Y381711D01*
X412201Y388510D02*
X443622Y421552D01*
X362185Y367144D02*
X436812Y428851D01*
X354721Y373587D02*
X384276Y422408D01*
X327481Y357827D02*
X375886Y427841D01*
X326949Y334997D02*
Y339127D01*
X313048Y334997D02*
X326949D01*
X313048D02*
Y339127D01*
X264111Y427841D02*
X312516Y357827D01*
X255721Y422408D02*
X285276Y373587D01*
X203185Y428851D02*
X277812Y367144D01*
X196375Y421552D02*
X227796Y388510D01*
X201668Y381711D02*
X219328Y375456D01*
X197122Y372908D02*
X245328Y338994D01*
X199499Y314972D02*
X240098Y319053D01*
X199998Y304997D02*
X310998D01*
Y134997D02*
Y304997D01*
X199998Y134997D02*
X310998D01*
X199499Y125022D02*
X240098Y120942D01*
X197122Y67087D02*
X245328Y101001D01*
X201668Y58284D02*
X219328Y64538D01*
X196375Y18443D02*
X227796Y51485D01*
X203185Y11144D02*
X277812Y72851D01*
X255721Y17587D02*
X285276Y66408D01*
X264111Y12154D02*
X312516Y82167D01*
X313048Y100868D02*
Y104997D01*
X326949D01*
Y100868D02*
Y104997D01*
X327481Y82167D02*
X375886Y12154D01*
X354721Y66408D02*
X384276Y17587D01*
X362185Y72851D02*
X436812Y11144D01*
X412201Y51485D02*
X443622Y18443D01*
X420669Y64538D02*
X438329Y58284D01*
X394669Y101001D02*
X442875Y67087D01*
X310998Y235997D02*
X328998D01*
X310998Y203997D02*
X328998D01*
X329620Y90271D02*
X329633Y90325D01*
X329644Y90382D01*
X329652Y90440D01*
X329656Y90499D01*
X329657Y90558D01*
X329655Y90616D02*
X329657Y90558D01*
X329649Y90673D02*
X329655Y90616D01*
X329639Y90728D02*
X329649Y90673D01*
X329625Y90781D02*
X329639Y90728D01*
X329605Y90836D02*
X329625Y90781D01*
X329581Y90892D02*
X329605Y90836D01*
X329552Y90946D02*
X329581Y90892D01*
X329519Y90998D02*
X329552Y90946D01*
X329481Y91046D02*
X329519Y90998D01*
X329439Y91091D02*
X329481Y91046D01*
X329390Y91134D02*
X329439Y91091D01*
X329334Y91175D02*
X329390Y91134D01*
X329273Y91212D02*
X329334Y91175D01*
X329210Y91242D02*
X329273Y91212D01*
X329143Y91267D02*
X329210Y91242D01*
X329070Y91285D02*
X329143Y91267D01*
X328993Y91298D02*
X329070Y91285D01*
X328914Y91305D02*
X328993Y91298D01*
X328838Y91306D02*
X328914Y91305D01*
X328948Y92042D02*
X329024Y92042D01*
X329103Y92034D01*
X329181Y92021D01*
X329255Y92002D01*
X329322Y91978D01*
X329387Y91947D01*
X329449Y91911D01*
X329506Y91871D01*
X329558Y91828D01*
X329602Y91785D01*
X329642Y91737D01*
X329679Y91686D01*
X329712Y91632D01*
X329740Y91578D01*
X329764Y91523D01*
X329782Y91469D01*
X329796Y91415D01*
X329807Y91358D01*
X329814Y91300D01*
X329818Y91241D01*
X329818Y91182D01*
X329815Y91123D02*
X329818Y91182D01*
X329809Y91066D02*
X329815Y91123D01*
X329799Y91010D02*
X329809Y91066D01*
X327290Y91240D02*
X328838Y91306D01*
X327429Y91978D02*
X328948Y92042D01*
X329635Y90327D02*
X329636Y90328D01*
X329637Y90332D01*
X329638Y90337D01*
X329641Y90346D01*
X329644Y90356D01*
X329647Y90369D01*
X329651Y90385D01*
X329656Y90402D01*
X329661Y90422D01*
X329667Y90444D01*
X329674Y90469D01*
X329681Y90496D01*
X329688Y90525D01*
X329696Y90557D01*
X329704Y90590D01*
X329713Y90626D01*
X329722Y90663D01*
X329731Y90702D01*
X329741Y90743D01*
X329751Y90785D01*
X329760Y90828D01*
X329770Y90873D01*
X329780Y90919D01*
X329790Y90966D01*
X329634Y90327D02*
X329635Y90327D01*
X329733Y344708D02*
X329744Y344763D01*
X329752Y344820D01*
X329757Y344878D01*
X329759Y344937D01*
X329758Y344996D02*
X329759Y344937D01*
X329753Y345054D02*
X329758Y344996D01*
X329744Y345111D02*
X329753Y345054D01*
X329732Y345165D02*
X329744Y345111D01*
X329715Y345218D02*
X329732Y345165D01*
X329693Y345272D02*
X329715Y345218D01*
X329666Y345326D02*
X329693Y345272D01*
X329635Y345379D02*
X329666Y345326D01*
X329599Y345429D02*
X329635Y345379D01*
X329560Y345476D02*
X329599Y345429D01*
X329516Y345519D02*
X329560Y345476D01*
X329464Y345560D02*
X329516Y345519D01*
X329407Y345598D02*
X329464Y345560D01*
X329344Y345632D02*
X329407Y345598D01*
X329279Y345660D02*
X329344Y345632D01*
X329212Y345681D02*
X329279Y345660D01*
X329138Y345696D02*
X329212Y345681D01*
X329060Y345706D02*
X329138Y345696D01*
X328981Y345709D02*
X329060Y345706D01*
X328905Y345706D02*
X328981Y345709D01*
X328982Y346446D02*
X329058Y346450D01*
X329137Y346446D01*
X329216Y346436D01*
X329290Y346421D01*
X329358Y346399D01*
X329424Y346372D01*
X329488Y346338D01*
X329547Y346301D01*
X329601Y346261D01*
X329647Y346219D01*
X329689Y346173D01*
X329728Y346124D01*
X329763Y346072D01*
X329794Y346019D01*
X329820Y345965D01*
X329841Y345912D01*
X329858Y345858D01*
X329871Y345802D01*
X329881Y345745D01*
X329887Y345686D01*
X329890Y345626D01*
X329889Y345568D02*
X329890Y345626D01*
X329886Y345510D02*
X329889Y345568D01*
X329879Y345454D02*
X329886Y345510D01*
X327361Y345571D02*
X328905Y345706D01*
X327467Y346314D02*
X328982Y346446D01*
X329746Y344764D02*
X329746Y344766D01*
X329747Y344769D01*
X329748Y344775D01*
X329750Y344783D01*
X329753Y344794D01*
X329756Y344807D01*
X329759Y344823D01*
X329763Y344840D01*
X329768Y344860D01*
X329772Y344883D01*
X329778Y344908D01*
X329784Y344935D01*
X329790Y344965D01*
X329796Y344997D01*
X329803Y345031D01*
X329810Y345066D01*
X329818Y345104D01*
X329825Y345144D01*
X329833Y345185D01*
X329841Y345227D01*
X329848Y345271D01*
X329856Y345316D01*
X329864Y345362D01*
X329872Y345410D01*
X329745Y344764D02*
X329746Y344764D01*
D26*
X504020Y280772D02*
G03*
X543378Y281459I19284J22981D01*
G01*
X867512Y238930D02*
G03*
X868199Y199572I22981J-19284D01*
G01*
X110320Y280772D02*
G03*
X149678Y281459I19284J22981D01*
G01*
X150960Y212192D02*
G03*
X190318Y212879I19284J22981D01*
G01*
X157650Y68478D02*
G03*
X118292Y67791I-19284J-22981D01*
G01*
X448140Y280772D02*
G03*
X487498Y281459I19284J22981D01*
G01*
X69748Y168740D02*
G03*
X69061Y208098I-22981J19284D01*
G01*
X523240Y231760D02*
Y268010D01*
Y274010D02*
Y309010D01*
X503240Y268010D02*
X543240D01*
X818500Y219710D02*
X854750D01*
X860750D02*
X895750D01*
X854750Y199710D02*
Y239710D01*
X129540Y231760D02*
Y268010D01*
Y274010D02*
Y309010D01*
X109540Y268010D02*
X149540D01*
X170180Y163180D02*
Y199430D01*
Y205430D02*
Y240430D01*
X150180Y199430D02*
X190180D01*
X154940Y405130D02*
Y455930D01*
Y405130D02*
X180340D01*
Y455930D01*
X154940D02*
X180340D01*
X853440Y458470D02*
Y509270D01*
Y458470D02*
X878840D01*
Y509270D01*
X853440D02*
X878840D01*
X138430Y81240D02*
Y117490D01*
Y40240D02*
Y75240D01*
X118430Y81240D02*
X158430D01*
X467360Y231760D02*
Y268010D01*
Y274010D02*
Y309010D01*
X447360Y268010D02*
X487360D01*
X82510Y187960D02*
X118760D01*
X41510D02*
X76510D01*
X82510Y167960D02*
Y207960D01*
X889000Y585470D02*
Y610870D01*
X939800D01*
Y585470D02*
Y610870D01*
X889000Y585470D02*
X939800D01*
X20320Y303530D02*
X45720D01*
X20320D02*
Y455930D01*
X45720D01*
Y436880D02*
Y455930D01*
Y303530D02*
Y436880D01*
D27*
X510540Y778510D02*
G03*
X513080Y775970I2540J0D01*
G01*
X528320D02*
G03*
X530860Y778510I0J2540D01*
G01*
Y824230D02*
G03*
X528320Y826770I-2540J0D01*
G01*
X513080D02*
G03*
X510540Y824230I0J-2540D01*
G01*
X467360Y777240D02*
G03*
X469900Y774700I2540J0D01*
G01*
X485140D02*
G03*
X487680Y777240I0J2540D01*
G01*
Y822960D02*
G03*
X485140Y825500I-2540J0D01*
G01*
X469900D02*
G03*
X467360Y822960I0J-2540D01*
G01*
X816610Y892810D02*
G03*
X814070Y890270I0J-2540D01*
G01*
X834390D02*
G03*
X831850Y892810I-2540J0D01*
G01*
Y842010D02*
G03*
X834390Y844550I0J2540D01*
G01*
X814070D02*
G03*
X816610Y842010I2540J0D01*
G01*
X74930Y930910D02*
G03*
X72390Y928370I0J-2540D01*
G01*
Y913130D02*
G03*
X74930Y910590I2540J0D01*
G01*
X120650D02*
G03*
X123190Y913130I0J2540D01*
G01*
Y928370D02*
G03*
X120650Y930910I-2540J0D01*
G01*
Y845820D02*
G03*
X123190Y848360I0J2540D01*
G01*
Y863600D02*
G03*
X120650Y866140I-2540J0D01*
G01*
X74930D02*
G03*
X72390Y863600I0J-2540D01*
G01*
Y848360D02*
G03*
X74930Y845820I2540J0D01*
G01*
X513080Y775970D02*
X528320D01*
X510540Y778510D02*
Y782320D01*
X511810Y783590D01*
X530860Y778510D02*
Y782320D01*
X529590Y783590D02*
X530860Y782320D01*
X510540Y820420D02*
X511810Y819150D01*
Y783590D02*
Y819150D01*
X529590D02*
X530860Y820420D01*
X529590Y783590D02*
Y819150D01*
X510540Y820420D02*
Y824230D01*
X530860Y820420D02*
Y824230D01*
X513080Y826770D02*
X528320D01*
X469900Y774700D02*
X485140D01*
X467360Y777240D02*
Y781050D01*
X468630Y782320D01*
X487680Y777240D02*
Y781050D01*
X486410Y782320D02*
X487680Y781050D01*
X467360Y819150D02*
X468630Y817880D01*
Y782320D02*
Y817880D01*
X486410D02*
X487680Y819150D01*
X486410Y782320D02*
Y817880D01*
X467360Y819150D02*
Y822960D01*
X487680Y819150D02*
Y822960D01*
X469900Y825500D02*
X485140D01*
X816610Y892810D02*
X831850D01*
X834390Y886460D02*
Y890270D01*
X814070Y886460D02*
Y890270D01*
X833120Y849630D02*
Y885190D01*
X834390Y886460D01*
X815340Y849630D02*
Y885190D01*
X814070Y886460D02*
X815340Y885190D01*
X833120Y849630D02*
X834390Y848360D01*
Y844550D02*
Y848360D01*
X814070D02*
X815340Y849630D01*
X814070Y844550D02*
Y848360D01*
X816610Y842010D02*
X831850D01*
X72390Y913130D02*
Y928370D01*
X74930Y930910D02*
X78740D01*
X80010Y929640D01*
X74930Y910590D02*
X78740D01*
X80010Y911860D01*
X115570Y929640D02*
X116840Y930910D01*
X80010Y929640D02*
X115570D01*
Y911860D02*
X116840Y910590D01*
X80010Y911860D02*
X115570D01*
X116840Y930910D02*
X120650D01*
X116840Y910590D02*
X120650D01*
X123190Y913130D02*
Y928370D01*
Y848360D02*
Y863600D01*
X116840Y845820D02*
X120650D01*
X115570Y847090D02*
X116840Y845820D01*
Y866140D02*
X120650D01*
X115570Y864870D02*
X116840Y866140D01*
X78740Y845820D02*
X80010Y847090D01*
X115570D01*
X78740Y866140D02*
X80010Y864870D01*
X115570D01*
X74930Y845820D02*
X78740D01*
X74930Y866140D02*
X78740D01*
X72390Y848360D02*
Y863600D01*
D28*
X937260Y642370D02*
Y782570D01*
X861060D02*
X937260D01*
X861060Y642370D02*
Y782570D01*
Y642370D02*
X937260D01*
X760400Y149900D02*
Y290100D01*
X684200D02*
X760400D01*
X684200Y149900D02*
Y290100D01*
Y149900D02*
X760400D01*
Y629900D02*
Y770100D01*
X684200D02*
X760400D01*
X684200Y629900D02*
Y770100D01*
Y629900D02*
X760400D01*
X232410Y149900D02*
Y290100D01*
Y149900D02*
X308610D01*
Y290100D01*
X232410D02*
X308610D01*
X232410Y629900D02*
Y770100D01*
Y629900D02*
X308610D01*
Y770100D01*
X232410D02*
X308610D01*
D29*
X106960Y49730D02*
Y150930D01*
X14960D02*
X106960D01*
X14960Y49730D02*
Y150930D01*
Y49730D02*
X106960D01*
X853160Y842210D02*
Y943410D01*
Y842210D02*
X945160D01*
Y943410D01*
X853160D02*
X945160D01*
D30*
X25714Y287731D02*
X24048Y289397D01*
X20716D01*
X19050Y287731D01*
Y281066D01*
X20716Y279400D01*
X24048D01*
X25714Y281066D01*
Y284398D01*
X22382D01*
X30713Y286064D02*
X34045D01*
X35711Y284398D01*
Y279400D01*
X30713D01*
X29047Y281066D01*
X30713Y282732D01*
X35711D01*
X40710Y287731D02*
Y286064D01*
X39044D01*
X42376D01*
X40710D01*
Y281066D01*
X42376Y279400D01*
X52373D02*
X49040D01*
X47374Y281066D01*
Y284398D01*
X49040Y286064D01*
X52373D01*
X54039Y284398D01*
Y282732D01*
X47374D01*
X74032Y281066D02*
Y287731D01*
X72366Y289397D01*
X69034D01*
X67368Y287731D01*
Y281066D01*
X69034Y279400D01*
X72366D01*
X70700Y282732D02*
X74032Y279400D01*
X72366D02*
X74032Y281066D01*
X77365Y279400D02*
X80697D01*
X79031D01*
Y289397D01*
X77365Y287731D01*
X61274Y346151D02*
X59608Y347817D01*
X56276D01*
X54610Y346151D01*
Y339486D01*
X56276Y337820D01*
X59608D01*
X61274Y339486D01*
Y342818D01*
X57942D01*
X66273Y344484D02*
X69605D01*
X71271Y342818D01*
Y337820D01*
X66273D01*
X64607Y339486D01*
X66273Y341152D01*
X71271D01*
X76270Y346151D02*
Y344484D01*
X74604D01*
X77936D01*
X76270D01*
Y339486D01*
X77936Y337820D01*
X87933D02*
X84600D01*
X82934Y339486D01*
Y342818D01*
X84600Y344484D01*
X87933D01*
X89599Y342818D01*
Y341152D01*
X82934D01*
X109592Y339486D02*
Y346151D01*
X107926Y347817D01*
X104594D01*
X102928Y346151D01*
Y339486D01*
X104594Y337820D01*
X107926D01*
X106260Y341152D02*
X109592Y337820D01*
X107926D02*
X109592Y339486D01*
X119589Y347817D02*
X112924D01*
Y342818D01*
X116257Y344484D01*
X117923D01*
X119589Y342818D01*
Y339486D01*
X117923Y337820D01*
X114591D01*
X112924Y339486D01*
X62544Y371551D02*
X60878Y373217D01*
X57546D01*
X55880Y371551D01*
Y364886D01*
X57546Y363220D01*
X60878D01*
X62544Y364886D01*
Y368218D01*
X59212D01*
X67543Y369884D02*
X70875D01*
X72541Y368218D01*
Y363220D01*
X67543D01*
X65877Y364886D01*
X67543Y366552D01*
X72541D01*
X77540Y371551D02*
Y369884D01*
X75874D01*
X79206D01*
X77540D01*
Y364886D01*
X79206Y363220D01*
X89203D02*
X85870D01*
X84204Y364886D01*
Y368218D01*
X85870Y369884D01*
X89203D01*
X90869Y368218D01*
Y366552D01*
X84204D01*
X110862Y364886D02*
Y371551D01*
X109196Y373217D01*
X105864D01*
X104198Y371551D01*
Y364886D01*
X105864Y363220D01*
X109196D01*
X107530Y366552D02*
X110862Y363220D01*
X109196D02*
X110862Y364886D01*
X119193Y363220D02*
Y373217D01*
X114194Y368218D01*
X120859D01*
X61274Y396951D02*
X59608Y398617D01*
X56276D01*
X54610Y396951D01*
Y390286D01*
X56276Y388620D01*
X59608D01*
X61274Y390286D01*
Y393618D01*
X57942D01*
X66273Y395285D02*
X69605D01*
X71271Y393618D01*
Y388620D01*
X66273D01*
X64607Y390286D01*
X66273Y391952D01*
X71271D01*
X76270Y396951D02*
Y395285D01*
X74604D01*
X77936D01*
X76270D01*
Y390286D01*
X77936Y388620D01*
X87933D02*
X84600D01*
X82934Y390286D01*
Y393618D01*
X84600Y395285D01*
X87933D01*
X89599Y393618D01*
Y391952D01*
X82934D01*
X109592Y390286D02*
Y396951D01*
X107926Y398617D01*
X104594D01*
X102928Y396951D01*
Y390286D01*
X104594Y388620D01*
X107926D01*
X106260Y391952D02*
X109592Y388620D01*
X107926D02*
X109592Y390286D01*
X112924Y396951D02*
X114591Y398617D01*
X117923D01*
X119589Y396951D01*
Y395285D01*
X117923Y393618D01*
X116257D01*
X117923D01*
X119589Y391952D01*
Y390286D01*
X117923Y388620D01*
X114591D01*
X112924Y390286D01*
X62544Y421081D02*
X60878Y422747D01*
X57546D01*
X55880Y421081D01*
Y414416D01*
X57546Y412750D01*
X60878D01*
X62544Y414416D01*
Y417748D01*
X59212D01*
X67543Y419414D02*
X70875D01*
X72541Y417748D01*
Y412750D01*
X67543D01*
X65877Y414416D01*
X67543Y416082D01*
X72541D01*
X77540Y421081D02*
Y419414D01*
X75874D01*
X79206D01*
X77540D01*
Y414416D01*
X79206Y412750D01*
X89203D02*
X85870D01*
X84204Y414416D01*
Y417748D01*
X85870Y419414D01*
X89203D01*
X90869Y417748D01*
Y416082D01*
X84204D01*
X110862Y414416D02*
Y421081D01*
X109196Y422747D01*
X105864D01*
X104198Y421081D01*
Y414416D01*
X105864Y412750D01*
X109196D01*
X107530Y416082D02*
X110862Y412750D01*
X109196D02*
X110862Y414416D01*
X120859Y412750D02*
X114194D01*
X120859Y419414D01*
Y421081D01*
X119193Y422747D01*
X115861D01*
X114194Y421081D01*
X62544Y446481D02*
X60878Y448147D01*
X57546D01*
X55880Y446481D01*
Y439816D01*
X57546Y438150D01*
X60878D01*
X62544Y439816D01*
Y443148D01*
X59212D01*
X67543Y444814D02*
X70875D01*
X72541Y443148D01*
Y438150D01*
X67543D01*
X65877Y439816D01*
X67543Y441482D01*
X72541D01*
X77540Y446481D02*
Y444814D01*
X75874D01*
X79206D01*
X77540D01*
Y439816D01*
X79206Y438150D01*
X89203D02*
X85870D01*
X84204Y439816D01*
Y443148D01*
X85870Y444814D01*
X89203D01*
X90869Y443148D01*
Y441482D01*
X84204D01*
X110862Y439816D02*
Y446481D01*
X109196Y448147D01*
X105864D01*
X104198Y446481D01*
Y439816D01*
X105864Y438150D01*
X109196D01*
X107530Y441482D02*
X110862Y438150D01*
X109196D02*
X110862Y439816D01*
X114194Y438150D02*
X117527D01*
X115861D01*
Y448147D01*
X114194Y446481D01*
X64770Y735330D02*
Y745327D01*
X69768D01*
X71434Y743661D01*
Y740328D01*
X69768Y738662D01*
X64770D01*
X74767Y735330D02*
Y745327D01*
X81431Y735330D01*
Y745327D01*
X84764Y735330D02*
X88096D01*
X86430D01*
Y745327D01*
X84764Y743661D01*
X93094D02*
X94760Y745327D01*
X98093D01*
X99759Y743661D01*
Y736996D01*
X98093Y735330D01*
X94760D01*
X93094Y736996D01*
Y743661D01*
X103091D02*
X104757Y745327D01*
X108089D01*
X109755Y743661D01*
Y736996D01*
X108089Y735330D01*
X104757D01*
X103091Y736996D01*
Y743661D01*
X118086Y735330D02*
Y745327D01*
X113088Y740328D01*
X119752D01*
X123084Y743661D02*
X124751Y745327D01*
X128083D01*
X129749Y743661D01*
Y741994D01*
X128083Y740328D01*
X126417D01*
X128083D01*
X129749Y738662D01*
Y736996D01*
X128083Y735330D01*
X124751D01*
X123084Y736996D01*
X34290Y770727D02*
Y760730D01*
X39288D01*
X40954Y762396D01*
Y769061D01*
X39288Y770727D01*
X34290D01*
X44287D02*
Y764062D01*
X47619Y760730D01*
X50951Y764062D01*
Y770727D01*
X54284D02*
X60948D01*
X57616D01*
Y760730D01*
X74277D02*
Y770727D01*
X79275D01*
X80942Y769061D01*
Y765728D01*
X79275Y764062D01*
X74277D01*
X85940Y760730D02*
X89272D01*
X90938Y762396D01*
Y765728D01*
X89272Y767394D01*
X85940D01*
X84274Y765728D01*
Y762396D01*
X85940Y760730D01*
X94271Y767394D02*
Y762396D01*
X95937Y760730D01*
X97603Y762396D01*
X99269Y760730D01*
X100935Y762396D01*
Y767394D01*
X109266Y760730D02*
X105934D01*
X104268Y762396D01*
Y765728D01*
X105934Y767394D01*
X109266D01*
X110932Y765728D01*
Y764062D01*
X104268D01*
X114264Y767394D02*
Y760730D01*
Y764062D01*
X115930Y765728D01*
X117597Y767394D01*
X119263D01*
X134258Y760730D02*
Y767394D01*
X137590Y770727D01*
X140922Y767394D01*
Y760730D01*
Y765728D01*
X134258D01*
X144255Y760730D02*
Y770727D01*
X147587Y767394D01*
X150919Y770727D01*
Y760730D01*
X154251D02*
Y770727D01*
X159250D01*
X160916Y769061D01*
Y765728D01*
X159250Y764062D01*
X154251D01*
D31*
X24130Y38095D02*
Y27938D01*
X29208Y22860D01*
X34287Y27938D01*
Y38095D01*
X49522Y35556D02*
X46983Y38095D01*
X41904D01*
X39365Y35556D01*
Y25399D01*
X41904Y22860D01*
X46983D01*
X49522Y25399D01*
X64757Y35556D02*
X62218Y38095D01*
X57139D01*
X54600Y35556D01*
Y25399D01*
X57139Y22860D01*
X62218D01*
X64757Y25399D01*
X887730Y828035D02*
X897887D01*
X892808D01*
Y812800D01*
X902965Y828035D02*
X913122Y812800D01*
Y828035D02*
X902965Y812800D01*
X731520Y918210D02*
Y933445D01*
X739137D01*
X741677Y930906D01*
Y925827D01*
X739137Y923288D01*
X731520D01*
X736598D02*
X741677Y918210D01*
X746755Y925827D02*
X756912D01*
X772147Y933445D02*
X761990D01*
Y918210D01*
X772147D01*
X761990Y925827D02*
X767068D01*
X777225Y918210D02*
Y928367D01*
X784843D01*
X787382Y925827D01*
Y918210D01*
X802617Y933445D02*
Y918210D01*
X794999D01*
X792460Y920749D01*
Y925827D01*
X794999Y928367D01*
X802617D01*
X506730Y894080D02*
Y909315D01*
X514347D01*
X516887Y906776D01*
Y901697D01*
X514347Y899158D01*
X506730D01*
X511808D02*
X516887Y894080D01*
X532122D02*
X521965D01*
X532122Y904237D01*
Y906776D01*
X529583Y909315D01*
X524504D01*
X521965Y906776D01*
X468630Y892810D02*
Y908045D01*
X476247D01*
X478787Y905506D01*
Y900427D01*
X476247Y897888D01*
X468630D01*
X473708D02*
X478787Y892810D01*
X483865D02*
X488943D01*
X486404D01*
Y908045D01*
X483865Y905506D01*
X761997Y444499D02*
Y454656D01*
X759457Y457195D01*
X754379D01*
X751840Y454656D01*
Y444499D01*
X754379Y441960D01*
X759457D01*
X756918Y447038D02*
X761997Y441960D01*
X759457D02*
X761997Y444499D01*
X774693Y441960D02*
Y457195D01*
X767075Y449577D01*
X777232D01*
X591487Y926059D02*
Y936216D01*
X588947Y938755D01*
X583869D01*
X581330Y936216D01*
Y926059D01*
X583869Y923520D01*
X588947D01*
X586408Y928598D02*
X591487Y923520D01*
X588947D02*
X591487Y926059D01*
X596565Y936216D02*
X599104Y938755D01*
X604183D01*
X606722Y936216D01*
Y933677D01*
X604183Y931137D01*
X601643D01*
X604183D01*
X606722Y928598D01*
Y926059D01*
X604183Y923520D01*
X599104D01*
X596565Y926059D01*
X228597Y443229D02*
Y453386D01*
X226057Y455925D01*
X220979D01*
X218440Y453386D01*
Y443229D01*
X220979Y440690D01*
X226057D01*
X223518Y445768D02*
X228597Y440690D01*
X226057D02*
X228597Y443229D01*
X243832Y440690D02*
X233675D01*
X243832Y450847D01*
Y453386D01*
X241293Y455925D01*
X236214D01*
X233675Y453386D01*
X233677Y927329D02*
Y937486D01*
X231138Y940025D01*
X226059D01*
X223520Y937486D01*
Y927329D01*
X226059Y924790D01*
X231138D01*
X228598Y929868D02*
X233677Y924790D01*
X231138D02*
X233677Y927329D01*
X238755Y924790D02*
X243833D01*
X241294D01*
Y940025D01*
X238755Y937486D01*
X842007Y535936D02*
X839467Y538475D01*
X834389D01*
X831850Y535936D01*
Y525779D01*
X834389Y523240D01*
X839467D01*
X842007Y525779D01*
Y530858D01*
X836928D01*
X849624Y533397D02*
X854703D01*
X857242Y530858D01*
Y523240D01*
X849624D01*
X847085Y525779D01*
X849624Y528318D01*
X857242D01*
X864859Y535936D02*
Y533397D01*
X862320D01*
X867399D01*
X864859D01*
Y525779D01*
X867399Y523240D01*
X882634D02*
X877555D01*
X875016Y525779D01*
Y530858D01*
X877555Y533397D01*
X882634D01*
X885173Y530858D01*
Y528318D01*
X875016D01*
X890251Y538475D02*
Y523240D01*
X897869D01*
X900408Y525779D01*
Y528318D01*
X897869Y530858D01*
X890251D01*
X897869D01*
X900408Y533397D01*
Y535936D01*
X897869Y538475D01*
X890251D01*
X142237Y476246D02*
X139698Y478785D01*
X134619D01*
X132080Y476246D01*
Y466089D01*
X134619Y463550D01*
X139698D01*
X142237Y466089D01*
Y471167D01*
X137158D01*
X149854Y473707D02*
X154933D01*
X157472Y471167D01*
Y463550D01*
X149854D01*
X147315Y466089D01*
X149854Y468628D01*
X157472D01*
X165089Y476246D02*
Y473707D01*
X162550D01*
X167628D01*
X165089D01*
Y466089D01*
X167628Y463550D01*
X182864D02*
X177785D01*
X175246Y466089D01*
Y471167D01*
X177785Y473707D01*
X182864D01*
X185403Y471167D01*
Y468628D01*
X175246D01*
X190481Y463550D02*
Y473707D01*
X195560Y478785D01*
X200638Y473707D01*
Y463550D01*
Y471167D01*
X190481D01*
X138427Y165096D02*
X135887Y167635D01*
X130809D01*
X128270Y165096D01*
Y154939D01*
X130809Y152400D01*
X135887D01*
X138427Y154939D01*
X143505Y167635D02*
X153662D01*
Y165096D01*
X143505Y154939D01*
Y152400D01*
X459102Y350389D02*
X456562Y352928D01*
X451484D01*
X448945Y350389D01*
Y340232D01*
X451484Y337693D01*
X456562D01*
X459102Y340232D01*
X474337Y352928D02*
X469258Y350389D01*
X464180Y345311D01*
Y340232D01*
X466719Y337693D01*
X471798D01*
X474337Y340232D01*
Y342771D01*
X471798Y345311D01*
X464180D01*
X54607Y232406D02*
X52067Y234945D01*
X46989D01*
X44450Y232406D01*
Y222249D01*
X46989Y219710D01*
X52067D01*
X54607Y222249D01*
X69842Y234945D02*
X59685D01*
Y227327D01*
X64763Y229867D01*
X67303D01*
X69842Y227327D01*
Y222249D01*
X67303Y219710D01*
X62224D01*
X59685Y222249D01*
X514982Y350389D02*
X512443Y352928D01*
X507364D01*
X504825Y350389D01*
Y340232D01*
X507364Y337693D01*
X512443D01*
X514982Y340232D01*
X527678Y337693D02*
Y352928D01*
X520060Y345311D01*
X530217D01*
X844547Y260346D02*
X842008Y262885D01*
X836929D01*
X834390Y260346D01*
Y250189D01*
X836929Y247650D01*
X842008D01*
X844547Y250189D01*
X849625Y260346D02*
X852164Y262885D01*
X857243D01*
X859782Y260346D01*
Y257807D01*
X857243Y255268D01*
X854703D01*
X857243D01*
X859782Y252728D01*
Y250189D01*
X857243Y247650D01*
X852164D01*
X849625Y250189D01*
X135887Y350516D02*
X133348Y353055D01*
X128269D01*
X125730Y350516D01*
Y340359D01*
X128269Y337820D01*
X133348D01*
X135887Y340359D01*
X151122Y337820D02*
X140965D01*
X151122Y347977D01*
Y350516D01*
X148583Y353055D01*
X143504D01*
X140965Y350516D01*
X170177Y285746D02*
X167638Y288285D01*
X162559D01*
X160020Y285746D01*
Y275589D01*
X162559Y273050D01*
X167638D01*
X170177Y275589D01*
X175255Y273050D02*
X180333D01*
X177794D01*
Y288285D01*
X175255Y285746D01*
X911857Y575305D02*
X901700D01*
Y560070D01*
X911857D01*
X901700Y567687D02*
X906778D01*
X916935Y560070D02*
Y575305D01*
X927092Y560070D01*
Y575305D01*
X861057Y791209D02*
Y801366D01*
X858518Y803905D01*
X853439D01*
X850900Y801366D01*
Y791209D01*
X853439Y788670D01*
X858518D01*
X855978Y793748D02*
X861057Y788670D01*
X858518D02*
X861057Y791209D01*
X876292Y803905D02*
X866135D01*
Y796288D01*
X871213Y798827D01*
X873753D01*
X876292Y796288D01*
Y791209D01*
X873753Y788670D01*
X868674D01*
X866135Y791209D01*
X166370Y922020D02*
Y937255D01*
X173988D01*
X176527Y934716D01*
Y929638D01*
X173988Y927098D01*
X166370D01*
X171448D02*
X176527Y922020D01*
X181605Y934716D02*
X184144Y937255D01*
X189223D01*
X191762Y934716D01*
Y932177D01*
X189223Y929638D01*
X186683D01*
X189223D01*
X191762Y927098D01*
Y924559D01*
X189223Y922020D01*
X184144D01*
X181605Y924559D01*
X148590Y880110D02*
Y895345D01*
X156208D01*
X158747Y892806D01*
Y887728D01*
X156208Y885188D01*
X148590D01*
X153668D02*
X158747Y880110D01*
X171443D02*
Y895345D01*
X163825Y887728D01*
X173982D01*
X20320Y473710D02*
Y488945D01*
X27938D01*
X30477Y486406D01*
Y481328D01*
X27938Y478788D01*
X20320D01*
X35555Y473710D02*
X40633D01*
X38094D01*
Y488945D01*
X35555Y486406D01*
D32*
X17780Y804124D02*
X29776D01*
X23778D01*
Y786130D01*
X35774Y804124D02*
Y786130D01*
X44771D01*
X47770Y789129D01*
Y801125D01*
X44771Y804124D01*
X35774D01*
X65764D02*
X53768D01*
Y786130D01*
X65764D01*
X53768Y795127D02*
X59766D01*
X101753Y801125D02*
X98754Y804124D01*
X92756D01*
X89757Y801125D01*
Y789129D01*
X92756Y786130D01*
X98754D01*
X101753Y789129D01*
Y795127D01*
X95755D01*
X107751Y798126D02*
Y786130D01*
Y792128D01*
X110750Y795127D01*
X113749Y798126D01*
X116748D01*
X128744Y786130D02*
X134742D01*
X137741Y789129D01*
Y795127D01*
X134742Y798126D01*
X128744D01*
X125745Y795127D01*
Y789129D01*
X128744Y786130D01*
X143739Y798126D02*
Y789129D01*
X146738Y786130D01*
X155735D01*
Y798126D01*
X161733Y780132D02*
Y798126D01*
X170730D01*
X173729Y795127D01*
Y789129D01*
X170730Y786130D01*
X161733D01*
M02*
