M48
;Layer_Color=9474304
;FILE_FORMAT=4:4
METRIC,LZ
;TYPE=PLATED
T1F00S00C0.7110
T2F00S00C0.9000
T3F00S00C1.2000
T4F00S00C1.4000
T5F00S00C2.6000
%
T01
X002794Y0039243
X0036576Y0038735
T02
X0013843Y0002874
X0080725Y0021971
X0090725
X0052324Y0022051
X0046736
Y0032051
X0052324
X0012954
Y0022051
X0013001Y0018796
X0013843Y0012874
X0017018Y0015193
Y0025193
X0003302Y0031623
Y0034163
Y0036703
Y0039243
Y0041783
Y0044323
X0003001Y0018796
X0004779Y0085598
X0014779
X0047752Y008751
X005207Y0087637
Y0072637
X0047752Y007251
X0082423Y0081741
Y0091741
X0014779Y0092075
X0004779
T03
X00735Y001819
Y0022
Y002581
X0086614Y0047117
Y0049657
X0025781Y002581
Y0022
Y001819
X0016764Y0041783
Y0044323
X0025781Y006619
Y007
Y007381
X00735
Y007
Y006619
X0091186Y0067437
Y0071247
Y0075057
X009017Y0059817
X009271
T04
X0006096Y0007493
Y0012573
X0089916Y0086741
Y0091821
T05
X0032Y00093
X0067
Y00347
X0032
Y00573
Y00827
X0067
Y00573
M30
