M48
;Layer_Color=9474304
;FILE_FORMAT=4:4
METRIC,LZ
;TYPE=PLATED
T1F00S00C0.8000
T2F00S00C0.9000
T3F00S00C1.0160
T4F00S00C1.2000
T5F00S00C1.4000
;TYPE=NON_PLATED
T6F00S00C3.0000
%
T01
X0015494Y0035306
X0010668
X0007239Y0039624
T02
X0014097Y-0000889
X0016637
X0019177
X0022733Y-0001016
X0025273
X0027813
X0056943Y0010033
X005707Y0014478
Y0021717
X0054935Y002919
Y003173
Y003427
Y003681
X0062056Y0036808
X0070739Y0037766
Y0027766
X0068533Y0020193
X0078533
X0082042Y0023702
Y0033702
X0047065Y003427
Y003681
X0042935
Y003427
Y003173
Y002919
X0047065
Y003173
X004707Y0021717
X0042924Y002032
Y001778
Y001524
Y00127
X004707Y0014478
X0046943Y0010033
X0035054Y00127
Y001524
Y001778
Y002032
X0035065Y002919
Y003173
Y003427
Y003681
X0030781Y002921
X0020781
X0022985Y0025527
Y0022987
Y0020447
Y0017907
Y0015367
Y0012827
Y0010287
Y0007747
X0028067
Y0010287
Y0012827
X0015115
Y0015367
Y0017907
Y0020447
Y0022987
Y0025527
X0014351Y0037973
X0016891
X0019431
X0015115Y0010287
Y0007747
X0009398Y0010367
Y0020367
X0002286Y0029798
Y0039798
X0007239Y0047324
X0012274Y0047356
Y0049896
Y0052436
Y0054976
Y0057516
Y0060056
Y0062596
X0007239Y0057324
X0012274Y0044816
X0020144
Y0047356
Y0049896
Y0052436
Y0054976
Y0057516
Y0060056
Y0062596
X0035065Y006381
Y006127
Y005873
Y005619
X0042935
Y005873
Y006127
Y006381
X0047065
Y006127
Y005873
Y005619
X0043507Y0048118
X0044229Y0043927
X0025019Y0044831
Y0047371
Y0049911
X0032926Y0068565
X0042926
X0054935Y006381
Y006127
Y005873
Y005619
X0062009Y0054976
X0062056Y0051808
X0058507Y0048118
X0054229Y0043927
X0072009Y0054976
T03
X0057451Y001778
X0047451
X0041021Y0041895
X0031021
X003183Y0052643
Y0062643
T04
X0006858Y-0000762
X0009398
X0031115Y-0001016
X0033655
X0092456Y0012065
Y0014605
X0027813Y0020447
Y0022987
X-0001397Y0030607
Y0033147
X-0001698Y0039863
Y0042403
Y0044943
Y0047483
Y0050023
Y0052563
Y0055103
Y0057643
X0025273Y0057531
Y0060071
T05
X0040132Y0
X0045212
X0051816
X0056896
X0063627
X0068707
X0075057
X0080137
X0086741
X0091821
X0089916Y0024892
Y0029972
X006985Y0065024
X006477
T06
X0Y0
M30
