G04 Layer_Color=2752767*
%FSLAX44Y44*%
%MOMM*%
G71*
G01*
G75*
%ADD16C,0.1000*%
%ADD61C,0.0508*%
%ADD62C,0.0677*%
D16*
X-50000Y-50000D02*
Y730000D01*
X950000D01*
Y-50000D02*
Y730000D01*
X-50000Y-50000D02*
X950000D01*
D61*
X199408Y446128D02*
Y450192D01*
X203472D01*
Y446128D01*
X199408D01*
Y471528D02*
Y475592D01*
X203472D01*
Y471528D01*
X199408D01*
Y496928D02*
Y500992D01*
X203472D01*
Y496928D01*
X199408D01*
Y522328D02*
Y526392D01*
X203472D01*
Y522328D01*
X199408D01*
Y547728D02*
Y551792D01*
X203472D01*
Y547728D01*
X199408D01*
Y573128D02*
Y577192D01*
X203472D01*
Y573128D01*
X199408D01*
Y598528D02*
Y602592D01*
X203472D01*
Y598528D01*
X199408D01*
Y623928D02*
Y627992D01*
X203472D01*
Y623928D01*
X199408D01*
X120708Y446128D02*
Y450192D01*
X124772D01*
Y446128D01*
X120708D01*
Y471528D02*
Y475592D01*
X124772D01*
Y471528D01*
X120708D01*
Y496928D02*
Y500992D01*
X124772D01*
Y496928D01*
X120708D01*
Y522328D02*
Y526392D01*
X124772D01*
Y522328D01*
X120708D01*
Y547728D02*
Y551792D01*
X124772D01*
Y547728D01*
X120708D01*
Y573128D02*
Y577192D01*
X124772D01*
Y573128D01*
X120708D01*
Y598528D02*
Y602592D01*
X124772D01*
Y598528D01*
X120708D01*
Y623928D02*
Y627992D01*
X124772D01*
Y623928D01*
X120708D01*
X227818Y75438D02*
Y79502D01*
X231882D01*
Y75438D01*
X227818D01*
Y100838D02*
Y104902D01*
X231882D01*
Y100838D01*
X227818D01*
Y126238D02*
Y130302D01*
X231882D01*
Y126238D01*
X227818D01*
Y151638D02*
Y155702D01*
X231882D01*
Y151638D01*
X227818D01*
Y177038D02*
Y181102D01*
X231882D01*
Y177038D01*
X227818D01*
Y202438D02*
Y206502D01*
X231882D01*
Y202438D01*
X227818D01*
Y227838D02*
Y231902D01*
X231882D01*
Y227838D01*
X227818D01*
Y253238D02*
Y257302D01*
X231882D01*
Y253238D01*
X227818D01*
X149118Y75438D02*
Y79502D01*
X153182D01*
Y75438D01*
X149118D01*
Y100838D02*
Y104902D01*
X153182D01*
Y100838D01*
X149118D01*
Y126238D02*
Y130302D01*
X153182D01*
Y126238D01*
X149118D01*
Y151638D02*
Y155702D01*
X153182D01*
Y151638D01*
X149118D01*
Y177038D02*
Y181102D01*
X153182D01*
Y177038D01*
X149118D01*
Y202438D02*
Y206502D01*
X153182D01*
Y202438D01*
X149118D01*
Y227838D02*
Y231902D01*
X153182D01*
Y227838D01*
X149118D01*
Y253238D02*
Y257302D01*
X153182D01*
Y253238D01*
X149118D01*
X618058Y547728D02*
Y551792D01*
X622122D01*
Y547728D01*
X618058D01*
X718058D02*
Y551792D01*
X722122D01*
Y547728D01*
X718058D01*
X278638Y126238D02*
Y130302D01*
X282702D01*
Y126238D01*
X278638D01*
Y75438D02*
Y79502D01*
X282702D01*
Y75438D01*
X278638D01*
Y100838D02*
Y104902D01*
X282702D01*
Y100838D01*
X278638D01*
X138938Y-10922D02*
Y-6858D01*
X143002D01*
Y-10922D01*
X138938D01*
X189738D02*
Y-6858D01*
X193802D01*
Y-10922D01*
X189738D01*
X164338D02*
Y-6858D01*
X168402D01*
Y-10922D01*
X164338D01*
X20828Y395948D02*
Y400012D01*
X24892D01*
Y395948D01*
X20828D01*
Y295948D02*
Y300012D01*
X24892D01*
Y295948D01*
X20828D01*
X205778Y290068D02*
Y294132D01*
X209842D01*
Y290068D01*
X205778D01*
X305778D02*
Y294132D01*
X309842D01*
Y290068D01*
X305778D01*
X141478Y377698D02*
Y381762D01*
X145542D01*
Y377698D01*
X141478D01*
X192278D02*
Y381762D01*
X196342D01*
Y377698D01*
X192278D01*
X166878D02*
Y381762D01*
X170942D01*
Y377698D01*
X166878D01*
X248158Y497078D02*
Y501142D01*
X252222D01*
Y497078D01*
X248158D01*
Y446278D02*
Y450342D01*
X252222D01*
Y446278D01*
X248158D01*
Y471678D02*
Y475742D01*
X252222D01*
Y471678D01*
X248158D01*
X91948Y201638D02*
Y205702D01*
X96012D01*
Y201638D01*
X91948D01*
Y101638D02*
Y105702D01*
X96012D01*
Y101638D01*
X91948D01*
X70358Y571208D02*
Y575272D01*
X74422D01*
Y571208D01*
X70358D01*
Y471208D02*
Y475272D01*
X74422D01*
Y471208D01*
X70358D01*
X318300Y624398D02*
X316268Y628462D01*
X320332D01*
X318300Y624398D01*
Y524398D02*
X316268Y528462D01*
X320332D01*
X318300Y524398D01*
X327228Y683618D02*
Y687682D01*
X331292D01*
Y683618D01*
X327228D01*
X427228D02*
Y687682D01*
X431292D01*
Y683618D01*
X427228D01*
X683298Y199898D02*
Y203962D01*
X687362D01*
Y199898D01*
X683298D01*
X783298D02*
Y203962D01*
X787362D01*
Y199898D01*
X783298D01*
X705358Y375628D02*
Y379692D01*
X709422D01*
Y375628D01*
X705358D01*
Y275628D02*
Y279692D01*
X709422D01*
Y275628D01*
X705358D01*
X348618Y559868D02*
Y563932D01*
X352682D01*
Y559868D01*
X348618D01*
Y585268D02*
Y589332D01*
X352682D01*
Y585268D01*
X348618D01*
Y610668D02*
Y614732D01*
X352682D01*
Y610668D01*
X348618D01*
Y636068D02*
Y640132D01*
X352682D01*
Y636068D01*
X348618D01*
X427318Y610668D02*
Y614732D01*
X431382D01*
Y610668D01*
X427318D01*
Y636068D02*
Y640132D01*
X431382D01*
Y636068D01*
X427318D01*
Y559868D02*
Y563932D01*
X431382D01*
Y559868D01*
X427318D01*
Y585268D02*
Y589332D01*
X431382D01*
Y585268D01*
X427318D01*
Y366068D02*
Y370132D01*
X431382D01*
Y366068D01*
X427318D01*
Y340668D02*
Y344732D01*
X431382D01*
Y340668D01*
X427318D01*
Y315268D02*
Y319332D01*
X431382D01*
Y315268D01*
X427318D01*
Y289868D02*
Y293932D01*
X431382D01*
Y289868D01*
X427318D01*
X348618Y315268D02*
Y319332D01*
X352682D01*
Y315268D01*
X348618D01*
Y289868D02*
Y293932D01*
X352682D01*
Y289868D01*
X348618D01*
Y366068D02*
Y370132D01*
X352682D01*
Y366068D01*
X348618D01*
Y340668D02*
Y344732D01*
X352682D01*
Y340668D01*
X348618D01*
X647700Y648208D02*
X648716Y649224D01*
X649732D01*
X648716Y650240D01*
X649732Y651256D01*
X648716D01*
X647700Y652272D01*
X646684Y651256D01*
X645668D01*
X646684Y650240D01*
X645668Y649224D01*
X646684D01*
X647700Y648208D01*
X698500D02*
X699516Y649224D01*
X700532D01*
X699516Y650240D01*
X700532Y651256D01*
X699516D01*
X698500Y652272D01*
X697484Y651256D01*
X696468D01*
X697484Y650240D01*
X696468Y649224D01*
X697484D01*
X698500Y648208D01*
X468618Y559868D02*
Y563932D01*
X472682D01*
Y559868D01*
X468618D01*
Y585268D02*
Y589332D01*
X472682D01*
Y585268D01*
X468618D01*
Y610668D02*
Y614732D01*
X472682D01*
Y610668D01*
X468618D01*
Y636068D02*
Y640132D01*
X472682D01*
Y636068D01*
X468618D01*
X547318Y610668D02*
Y614732D01*
X551382D01*
Y610668D01*
X547318D01*
Y636068D02*
Y640132D01*
X551382D01*
Y636068D01*
X547318D01*
Y559868D02*
Y563932D01*
X551382D01*
Y559868D01*
X547318D01*
Y585268D02*
Y589332D01*
X551382D01*
Y585268D01*
X547318D01*
X583038Y479148D02*
Y483212D01*
X587102D01*
Y479148D01*
X583038D01*
X433038D02*
Y483212D01*
X437102D01*
Y479148D01*
X433038D01*
X618528Y516048D02*
Y520112D01*
X622592D01*
Y516048D01*
X618528D01*
Y366048D02*
Y370112D01*
X622592D01*
Y366048D01*
X618528D01*
X547318Y366068D02*
Y370132D01*
X551382D01*
Y366068D01*
X547318D01*
Y340668D02*
Y344732D01*
X551382D01*
Y340668D01*
X547318D01*
Y315268D02*
Y319332D01*
X551382D01*
Y315268D01*
X547318D01*
Y289868D02*
Y293932D01*
X551382D01*
Y289868D01*
X547318D01*
X468618Y315268D02*
Y319332D01*
X472682D01*
Y315268D01*
X468618D01*
Y289868D02*
Y293932D01*
X472682D01*
Y289868D01*
X468618D01*
Y366068D02*
Y370132D01*
X472682D01*
Y366068D01*
X468618D01*
Y340668D02*
Y344732D01*
X472682D01*
Y340668D01*
X468618D01*
X310210Y416918D02*
X308178Y420982D01*
X312242D01*
X310210Y416918D01*
X410210D02*
X408178Y420982D01*
X412242D01*
X410210Y416918D01*
X474510Y175768D02*
X472478Y179832D01*
X476542D01*
X474510Y175768D01*
X574510D02*
X572478Y179832D01*
X576542D01*
X574510Y175768D01*
X568668Y215138D02*
Y219202D01*
X572732D01*
Y215138D01*
X568668D01*
X468668D02*
Y219202D01*
X472732D01*
Y215138D01*
X468668D01*
X540258Y437238D02*
Y441302D01*
X544322D01*
Y437238D01*
X540258D01*
X440258D02*
Y441302D01*
X444322D01*
Y437238D01*
X440258D01*
X-2032Y-2032D02*
X-1016Y0D01*
X-2032Y2032D01*
X0Y1016D01*
X2032Y2032D01*
X1016Y0D01*
X2032Y-2032D01*
X0Y-1016D01*
X-2032Y-2032D01*
X348508Y124968D02*
Y129032D01*
X352572D01*
Y124968D01*
X348508D01*
Y150368D02*
Y154432D01*
X352572D01*
Y150368D01*
X348508D01*
Y175768D02*
Y179832D01*
X352572D01*
Y175768D01*
X348508D01*
Y201168D02*
Y205232D01*
X352572D01*
Y201168D01*
X348508D01*
X427208Y175768D02*
Y179832D01*
X431272D01*
Y175768D01*
X427208D01*
Y201168D02*
Y205232D01*
X431272D01*
Y201168D01*
X427208D01*
Y124968D02*
Y129032D01*
X431272D01*
Y124968D01*
X427208D01*
Y150368D02*
Y154432D01*
X431272D01*
Y150368D01*
X427208D01*
X801370Y-2032D02*
X802386Y-1016D01*
X803402D01*
X802386Y0D01*
X803402Y1016D01*
X802386D01*
X801370Y2032D01*
X800354Y1016D01*
X799338D01*
X800354Y0D01*
X799338Y-1016D01*
X800354D01*
X801370Y-2032D01*
X750570D02*
X751586Y-1016D01*
X752602D01*
X751586Y0D01*
X752602Y1016D01*
X751586D01*
X750570Y2032D01*
X749554Y1016D01*
X748538D01*
X749554Y0D01*
X748538Y-1016D01*
X749554D01*
X750570Y-2032D01*
X918210D02*
X919226Y-1016D01*
X920242D01*
X919226Y0D01*
X920242Y1016D01*
X919226D01*
X918210Y2032D01*
X917194Y1016D01*
X916178D01*
X917194Y0D01*
X916178Y-1016D01*
X917194D01*
X918210Y-2032D01*
X867410D02*
X868426Y-1016D01*
X869442D01*
X868426Y0D01*
X869442Y1016D01*
X868426D01*
X867410Y2032D01*
X866394Y1016D01*
X865378D01*
X866394Y0D01*
X865378Y-1016D01*
X866394D01*
X867410Y-2032D01*
X636270D02*
X637286Y-1016D01*
X638302D01*
X637286Y0D01*
X638302Y1016D01*
X637286D01*
X636270Y2032D01*
X635254Y1016D01*
X634238D01*
X635254Y0D01*
X634238Y-1016D01*
X635254D01*
X636270Y-2032D01*
X687070D02*
X688086Y-1016D01*
X689102D01*
X688086Y0D01*
X689102Y1016D01*
X688086D01*
X687070Y2032D01*
X686054Y1016D01*
X685038D01*
X686054Y0D01*
X685038Y-1016D01*
X686054D01*
X687070Y-2032D01*
X452120D02*
X453136Y-1016D01*
X454152D01*
X453136Y0D01*
X454152Y1016D01*
X453136D01*
X452120Y2032D01*
X451104Y1016D01*
X450088D01*
X451104Y0D01*
X450088Y-1016D01*
X451104D01*
X452120Y-2032D01*
X401320D02*
X402336Y-1016D01*
X403352D01*
X402336Y0D01*
X403352Y1016D01*
X402336D01*
X401320Y2032D01*
X400304Y1016D01*
X399288D01*
X400304Y0D01*
X399288Y-1016D01*
X400304D01*
X401320Y-2032D01*
X568960D02*
X569976Y-1016D01*
X570992D01*
X569976Y0D01*
X570992Y1016D01*
X569976D01*
X568960Y2032D01*
X567944Y1016D01*
X566928D01*
X567944Y0D01*
X566928Y-1016D01*
X567944D01*
X568960Y-2032D01*
X518160D02*
X519176Y-1016D01*
X520192D01*
X519176Y0D01*
X520192Y1016D01*
X519176D01*
X518160Y2032D01*
X517144Y1016D01*
X516128D01*
X517144Y0D01*
X516128Y-1016D01*
X517144D01*
X518160Y-2032D01*
X567398Y98298D02*
Y102362D01*
X571462D01*
Y98298D01*
X567398D01*
X467398D02*
Y102362D01*
X471462D01*
Y98298D01*
X467398D01*
X568668Y142748D02*
Y146812D01*
X572732D01*
Y142748D01*
X568668D01*
X468668D02*
Y146812D01*
X472732D01*
Y142748D01*
X468668D01*
X818388Y334988D02*
Y339052D01*
X822452D01*
Y334988D01*
X818388D01*
Y234988D02*
Y239052D01*
X822452D01*
Y234988D01*
X818388D01*
X899160Y297688D02*
X900176Y298704D01*
X901192D01*
X900176Y299720D01*
X901192Y300736D01*
X900176D01*
X899160Y301752D01*
X898144Y300736D01*
X897128D01*
X898144Y299720D01*
X897128Y298704D01*
X898144D01*
X899160Y297688D01*
Y246888D02*
X900176Y247904D01*
X901192D01*
X900176Y248920D01*
X901192Y249936D01*
X900176D01*
X899160Y250952D01*
X898144Y249936D01*
X897128D01*
X898144Y248920D01*
X897128Y247904D01*
X898144D01*
X899160Y246888D01*
X250698Y-12192D02*
Y-8128D01*
X254762D01*
Y-12192D01*
X250698D01*
X276098D02*
Y-8128D01*
X280162D01*
Y-12192D01*
X276098D01*
X225298D02*
Y-8128D01*
X229362D01*
Y-12192D01*
X225298D01*
X153924Y352044D02*
Y351028D01*
X155956D01*
Y352044D01*
X156972D01*
Y354076D01*
X155956D01*
Y355092D01*
X153924D01*
Y354076D01*
X152908D01*
Y352044D01*
X153924D01*
X105664D02*
Y351028D01*
X107696D01*
Y352044D01*
X108712D01*
Y354076D01*
X107696D01*
Y355092D01*
X105664D01*
Y354076D01*
X104648D01*
Y352044D01*
X105664D01*
X71374Y395224D02*
Y394208D01*
X73406D01*
Y395224D01*
X74422D01*
Y397256D01*
X73406D01*
Y398272D01*
X71374D01*
Y397256D01*
X70358D01*
Y395224D01*
X71374D01*
D62*
X280162Y229870D02*
G03*
X280162Y229870I-2032J0D01*
G01*
Y204470D02*
G03*
X280162Y204470I-2032J0D01*
G01*
X-11938Y306070D02*
G03*
X-11938Y306070I-2032J0D01*
G01*
Y331470D02*
G03*
X-11938Y331470I-2032J0D01*
G01*
X254762Y600710D02*
G03*
X254762Y600710I-2032J0D01*
G01*
Y575310D02*
G03*
X254762Y575310I-2032J0D01*
G01*
X-14948Y398630D02*
G03*
X-14948Y398630I-2032J0D01*
G01*
Y424030D02*
G03*
X-14948Y424030I-2032J0D01*
G01*
Y449430D02*
G03*
X-14948Y449430I-2032J0D01*
G01*
Y474830D02*
G03*
X-14948Y474830I-2032J0D01*
G01*
Y500230D02*
G03*
X-14948Y500230I-2032J0D01*
G01*
Y525630D02*
G03*
X-14948Y525630I-2032J0D01*
G01*
Y551030D02*
G03*
X-14948Y551030I-2032J0D01*
G01*
Y576430D02*
G03*
X-14948Y576430I-2032J0D01*
G01*
X70612Y-7620D02*
G03*
X70612Y-7620I-2032J0D01*
G01*
X96012D02*
G03*
X96012Y-7620I-2032J0D01*
G01*
X313182Y-10160D02*
G03*
X313182Y-10160I-2032J0D01*
G01*
X338582D02*
G03*
X338582Y-10160I-2032J0D01*
G01*
X926592Y120650D02*
G03*
X926592Y120650I-2032J0D01*
G01*
Y146050D02*
G03*
X926592Y146050I-2032J0D01*
G01*
M02*
