G04 Layer_Color=128*
%FSLAX44Y44*%
%MOMM*%
G71*
G01*
G75*
%ADD16C,0.1000*%
%ADD61C,0.0508*%
D16*
X-50000Y-50000D02*
Y730000D01*
X950000D01*
Y-50000D02*
Y730000D01*
X-50000Y-50000D02*
X950000D01*
D61*
X196940Y448160D02*
X205940D01*
X201440Y443660D02*
Y452660D01*
X196940Y473560D02*
X205940D01*
X201440Y469060D02*
Y478060D01*
X196940Y498960D02*
X205940D01*
X201440Y494460D02*
Y503460D01*
X196940Y524360D02*
X205940D01*
X201440Y519860D02*
Y528860D01*
X196940Y549760D02*
X205940D01*
X201440Y545260D02*
Y554260D01*
X196940Y575160D02*
X205940D01*
X201440Y570660D02*
Y579660D01*
X196940Y600560D02*
X205940D01*
X201440Y596060D02*
Y605060D01*
X196940Y625960D02*
X205940D01*
X201440Y621460D02*
Y630460D01*
X118240Y448160D02*
X127240D01*
X122740Y443660D02*
Y452660D01*
X118240Y473560D02*
X127240D01*
X122740Y469060D02*
Y478060D01*
X118240Y498960D02*
X127240D01*
X122740Y494460D02*
Y503460D01*
X118240Y524360D02*
X127240D01*
X122740Y519860D02*
Y528860D01*
X118240Y549760D02*
X127240D01*
X122740Y545260D02*
Y554260D01*
X118240Y575160D02*
X127240D01*
X122740Y570660D02*
Y579660D01*
X118240Y600560D02*
X127240D01*
X122740Y596060D02*
Y605060D01*
X118240Y625960D02*
X127240D01*
X122740Y621460D02*
Y630460D01*
X225350Y77470D02*
X234350D01*
X229850Y72970D02*
Y81970D01*
X225350Y102870D02*
X234350D01*
X229850Y98370D02*
Y107370D01*
X225350Y128270D02*
X234350D01*
X229850Y123770D02*
Y132770D01*
X225350Y153670D02*
X234350D01*
X229850Y149170D02*
Y158170D01*
X225350Y179070D02*
X234350D01*
X229850Y174570D02*
Y183570D01*
X225350Y204470D02*
X234350D01*
X229850Y199970D02*
Y208970D01*
X225350Y229870D02*
X234350D01*
X229850Y225370D02*
Y234370D01*
X225350Y255270D02*
X234350D01*
X229850Y250770D02*
Y259770D01*
X146650Y77470D02*
X155650D01*
X151150Y72970D02*
Y81970D01*
X146650Y102870D02*
X155650D01*
X151150Y98370D02*
Y107370D01*
X146650Y128270D02*
X155650D01*
X151150Y123770D02*
Y132770D01*
X146650Y153670D02*
X155650D01*
X151150Y149170D02*
Y158170D01*
X146650Y179070D02*
X155650D01*
X151150Y174570D02*
Y183570D01*
X146650Y204470D02*
X155650D01*
X151150Y199970D02*
Y208970D01*
X146650Y229870D02*
X155650D01*
X151150Y225370D02*
Y234370D01*
X146650Y255270D02*
X155650D01*
X151150Y250770D02*
Y259770D01*
X615590Y549760D02*
X624590D01*
X620090Y545260D02*
Y554260D01*
X715590Y549760D02*
X724590D01*
X720090Y545260D02*
Y554260D01*
X276170Y128270D02*
X285170D01*
X280670Y123770D02*
Y132770D01*
X276170Y77470D02*
X285170D01*
X280670Y72970D02*
Y81970D01*
X276170Y102870D02*
X285170D01*
X280670Y98370D02*
Y107370D01*
X272130Y229870D02*
X284130D01*
X278130Y223870D02*
Y235870D01*
X272130Y204470D02*
X284130D01*
X278130Y198470D02*
Y210470D01*
X136470Y-8890D02*
X145470D01*
X140970Y-13390D02*
Y-4390D01*
X187270Y-8890D02*
X196270D01*
X191770Y-13390D02*
Y-4390D01*
X161870Y-8890D02*
X170870D01*
X166370Y-13390D02*
Y-4390D01*
X18360Y397980D02*
X27360D01*
X22860Y393480D02*
Y402480D01*
X18360Y297980D02*
X27360D01*
X22860Y293480D02*
Y302480D01*
X-19970Y306070D02*
X-7970D01*
X-13970Y300070D02*
Y312070D01*
X-19970Y331470D02*
X-7970D01*
X-13970Y325470D02*
Y337470D01*
X203310Y292100D02*
X212310D01*
X207810Y287600D02*
Y296600D01*
X303310Y292100D02*
X312310D01*
X307810Y287600D02*
Y296600D01*
X139010Y379730D02*
X148010D01*
X143510Y375230D02*
Y384230D01*
X189810Y379730D02*
X198810D01*
X194310Y375230D02*
Y384230D01*
X164410Y379730D02*
X173410D01*
X168910Y375230D02*
Y384230D01*
X245690Y499110D02*
X254690D01*
X250190Y494610D02*
Y503610D01*
X245690Y448310D02*
X254690D01*
X250190Y443810D02*
Y452810D01*
X245690Y473710D02*
X254690D01*
X250190Y469210D02*
Y478210D01*
X246730Y600710D02*
X258730D01*
X252730Y594710D02*
Y606710D01*
X246730Y575310D02*
X258730D01*
X252730Y569310D02*
Y581310D01*
X89480Y203670D02*
X98480D01*
X93980Y199170D02*
Y208170D01*
X89480Y103670D02*
X98480D01*
X93980Y99170D02*
Y108170D01*
X67890Y573240D02*
X76890D01*
X72390Y568740D02*
Y577740D01*
X67890Y473240D02*
X76890D01*
X72390Y468740D02*
Y477740D01*
X313220Y626430D02*
X323380D01*
X318300Y621350D02*
Y631510D01*
X313220Y526430D02*
X323380D01*
X318300Y521350D02*
Y531510D01*
X-22980Y398630D02*
X-10980D01*
X-16980Y392630D02*
Y404630D01*
X-22980Y424030D02*
X-10980D01*
X-16980Y418030D02*
Y430030D01*
X-22980Y449430D02*
X-10980D01*
X-16980Y443430D02*
Y455430D01*
X-22980Y474830D02*
X-10980D01*
X-16980Y468830D02*
Y480830D01*
X-22980Y500230D02*
X-10980D01*
X-16980Y494230D02*
Y506230D01*
X-22980Y525630D02*
X-10980D01*
X-16980Y519630D02*
Y531630D01*
X-22980Y551030D02*
X-10980D01*
X-16980Y545030D02*
Y557030D01*
X-22980Y576430D02*
X-10980D01*
X-16980Y570430D02*
Y582430D01*
X324760Y685650D02*
X333760D01*
X329260Y681150D02*
Y690150D01*
X424760Y685650D02*
X433760D01*
X429260Y681150D02*
Y690150D01*
X62580Y-7620D02*
X74580D01*
X68580Y-13620D02*
Y-1620D01*
X87980Y-7620D02*
X99980D01*
X93980Y-13620D02*
Y-1620D01*
X680830Y201930D02*
X689830D01*
X685330Y197430D02*
Y206430D01*
X780830Y201930D02*
X789830D01*
X785330Y197430D02*
Y206430D01*
X702890Y377660D02*
X711890D01*
X707390Y373160D02*
Y382160D01*
X702890Y277660D02*
X711890D01*
X707390Y273160D02*
Y282160D01*
X346150Y561900D02*
X355150D01*
X350650Y557400D02*
Y566400D01*
X346150Y587300D02*
X355150D01*
X350650Y582800D02*
Y591800D01*
X346150Y612700D02*
X355150D01*
X350650Y608200D02*
Y617200D01*
X346150Y638100D02*
X355150D01*
X350650Y633600D02*
Y642600D01*
X424850Y612700D02*
X433850D01*
X429350Y608200D02*
Y617200D01*
X424850Y638100D02*
X433850D01*
X429350Y633600D02*
Y642600D01*
X424850Y561900D02*
X433850D01*
X429350Y557400D02*
Y566400D01*
X424850Y587300D02*
X433850D01*
X429350Y582800D02*
Y591800D01*
X424850Y368100D02*
X433850D01*
X429350Y363600D02*
Y372600D01*
X424850Y342700D02*
X433850D01*
X429350Y338200D02*
Y347200D01*
X424850Y317300D02*
X433850D01*
X429350Y312800D02*
Y321800D01*
X424850Y291900D02*
X433850D01*
X429350Y287400D02*
Y296400D01*
X346150Y317300D02*
X355150D01*
X350650Y312800D02*
Y321800D01*
X346150Y291900D02*
X355150D01*
X350650Y287400D02*
Y296400D01*
X346150Y368100D02*
X355150D01*
X350650Y363600D02*
Y372600D01*
X346150Y342700D02*
X355150D01*
X350650Y338200D02*
Y347200D01*
X640700Y650240D02*
X654700D01*
X647700Y643240D02*
Y657240D01*
X691500Y650240D02*
X705500D01*
X698500Y643240D02*
Y657240D01*
X466150Y561900D02*
X475150D01*
X470650Y557400D02*
Y566400D01*
X466150Y587300D02*
X475150D01*
X470650Y582800D02*
Y591800D01*
X466150Y612700D02*
X475150D01*
X470650Y608200D02*
Y617200D01*
X466150Y638100D02*
X475150D01*
X470650Y633600D02*
Y642600D01*
X544850Y612700D02*
X553850D01*
X549350Y608200D02*
Y617200D01*
X544850Y638100D02*
X553850D01*
X549350Y633600D02*
Y642600D01*
X544850Y561900D02*
X553850D01*
X549350Y557400D02*
Y566400D01*
X544850Y587300D02*
X553850D01*
X549350Y582800D02*
Y591800D01*
X580570Y481180D02*
X589570D01*
X585070Y476680D02*
Y485680D01*
X430570Y481180D02*
X439570D01*
X435070Y476680D02*
Y485680D01*
X616060Y518080D02*
X625060D01*
X620560Y513580D02*
Y522580D01*
X616060Y368080D02*
X625060D01*
X620560Y363580D02*
Y372580D01*
X544850Y368100D02*
X553850D01*
X549350Y363600D02*
Y372600D01*
X544850Y342700D02*
X553850D01*
X549350Y338200D02*
Y347200D01*
X544850Y317300D02*
X553850D01*
X549350Y312800D02*
Y321800D01*
X544850Y291900D02*
X553850D01*
X549350Y287400D02*
Y296400D01*
X466150Y317300D02*
X475150D01*
X470650Y312800D02*
Y321800D01*
X466150Y291900D02*
X475150D01*
X470650Y287400D02*
Y296400D01*
X466150Y368100D02*
X475150D01*
X470650Y363600D02*
Y372600D01*
X466150Y342700D02*
X475150D01*
X470650Y338200D02*
Y347200D01*
X305130Y418950D02*
X315290D01*
X310210Y413870D02*
Y424030D01*
X405130Y418950D02*
X415290D01*
X410210Y413870D02*
Y424030D01*
X469430Y177800D02*
X479590D01*
X474510Y172720D02*
Y182880D01*
X569430Y177800D02*
X579590D01*
X574510Y172720D02*
Y182880D01*
X566200Y217170D02*
X575200D01*
X570700Y212670D02*
Y221670D01*
X466200Y217170D02*
X475200D01*
X470700Y212670D02*
Y221670D01*
X537790Y439270D02*
X546790D01*
X542290Y434770D02*
Y443770D01*
X437790Y439270D02*
X446790D01*
X442290Y434770D02*
Y443770D01*
X-15000Y0D02*
X15000D01*
X0Y-15000D02*
Y15000D01*
X305150Y-10160D02*
X317150D01*
X311150Y-16160D02*
Y-4160D01*
X330550Y-10160D02*
X342550D01*
X336550Y-16160D02*
Y-4160D01*
X346040Y127000D02*
X355040D01*
X350540Y122500D02*
Y131500D01*
X346040Y152400D02*
X355040D01*
X350540Y147900D02*
Y156900D01*
X346040Y177800D02*
X355040D01*
X350540Y173300D02*
Y182300D01*
X346040Y203200D02*
X355040D01*
X350540Y198700D02*
Y207700D01*
X424740Y177800D02*
X433740D01*
X429240Y173300D02*
Y182300D01*
X424740Y203200D02*
X433740D01*
X429240Y198700D02*
Y207700D01*
X424740Y127000D02*
X433740D01*
X429240Y122500D02*
Y131500D01*
X424740Y152400D02*
X433740D01*
X429240Y147900D02*
Y156900D01*
X794370Y0D02*
X808370D01*
X801370Y-7000D02*
Y7000D01*
X743570Y0D02*
X757570D01*
X750570Y-7000D02*
Y7000D01*
X911210Y0D02*
X925210D01*
X918210Y-7000D02*
Y7000D01*
X860410Y0D02*
X874410D01*
X867410Y-7000D02*
Y7000D01*
X629270Y0D02*
X643270D01*
X636270Y-7000D02*
Y7000D01*
X680070Y0D02*
X694070D01*
X687070Y-7000D02*
Y7000D01*
X445120Y0D02*
X459120D01*
X452120Y-7000D02*
Y7000D01*
X394320Y0D02*
X408320D01*
X401320Y-7000D02*
Y7000D01*
X561960Y0D02*
X575960D01*
X568960Y-7000D02*
Y7000D01*
X511160Y0D02*
X525160D01*
X518160Y-7000D02*
Y7000D01*
X564930Y100330D02*
X573930D01*
X569430Y95830D02*
Y104830D01*
X464930Y100330D02*
X473930D01*
X469430Y95830D02*
Y104830D01*
X566200Y144780D02*
X575200D01*
X570700Y140280D02*
Y149280D01*
X466200Y144780D02*
X475200D01*
X470700Y140280D02*
Y149280D01*
X815920Y337020D02*
X824920D01*
X820420Y332520D02*
Y341520D01*
X815920Y237020D02*
X824920D01*
X820420Y232520D02*
Y241520D01*
X918560Y120650D02*
X930560D01*
X924560Y114650D02*
Y126650D01*
X918560Y146050D02*
X930560D01*
X924560Y140050D02*
Y152050D01*
X892160Y299720D02*
X906160D01*
X899160Y292720D02*
Y306720D01*
X892160Y248920D02*
X906160D01*
X899160Y241920D02*
Y255920D01*
X248230Y-10160D02*
X257230D01*
X252730Y-14660D02*
Y-5660D01*
X273630Y-10160D02*
X282630D01*
X278130Y-14660D02*
Y-5660D01*
X222830Y-10160D02*
X231830D01*
X227330Y-14660D02*
Y-5660D01*
X150940Y353060D02*
X158940D01*
X154940Y349060D02*
Y357060D01*
X102680Y353060D02*
X110680D01*
X106680Y349060D02*
Y357060D01*
X68390Y396240D02*
X76390D01*
X72390Y392240D02*
Y400240D01*
M02*
