G04 Layer_Color=65535*
%FSLAX44Y44*%
%MOMM*%
G71*
G01*
G75*
%ADD13C,0.5000*%
%ADD18C,0.1524*%
%ADD19C,0.2000*%
%ADD20C,0.2500*%
%ADD21C,0.0500*%
%ADD22C,0.3000*%
%ADD23C,0.1500*%
%ADD24C,0.2540*%
%ADD25R,11.6840X3.3020*%
D13*
X0Y450000D02*
X600000D01*
Y0D02*
Y450000D01*
X0Y0D02*
X600000D01*
X0D02*
Y450000D01*
D18*
X255270Y299720D02*
G03*
X252730Y297180I0J-2540D01*
G01*
X273050D02*
G03*
X270510Y299720I-2540J0D01*
G01*
Y248920D02*
G03*
X273050Y251460I0J2540D01*
G01*
X252730D02*
G03*
X255270Y248920I2540J0D01*
G01*
X506730Y267970D02*
G03*
X504190Y265430I0J-2540D01*
G01*
X524510D02*
G03*
X521970Y267970I-2540J0D01*
G01*
Y217170D02*
G03*
X524510Y219710I0J2540D01*
G01*
X504190D02*
G03*
X506730Y217170I2540J0D01*
G01*
X91440Y190500D02*
G03*
X93980Y187960I2540J0D01*
G01*
Y208280D02*
G03*
X91440Y205740I0J-2540D01*
G01*
X142240D02*
G03*
X139700Y208280I-2540J0D01*
G01*
Y187960D02*
G03*
X142240Y190500I0J2540D01*
G01*
X342900Y218440D02*
G03*
X340360Y215900I0J-2540D01*
G01*
X360680D02*
G03*
X358140Y218440I-2540J0D01*
G01*
Y167640D02*
G03*
X360680Y170180I0J2540D01*
G01*
X340360D02*
G03*
X342900Y167640I2540J0D01*
G01*
X243840Y16510D02*
G03*
X246380Y13970I2540J0D01*
G01*
Y34290D02*
G03*
X243840Y31750I0J-2540D01*
G01*
X294640D02*
G03*
X292100Y34290I-2540J0D01*
G01*
Y13970D02*
G03*
X294640Y16510I0J2540D01*
G01*
Y82550D02*
G03*
X292100Y85090I-2540J0D01*
G01*
Y64770D02*
G03*
X294640Y67310I0J2540D01*
G01*
X243840D02*
G03*
X246380Y64770I2540J0D01*
G01*
Y85090D02*
G03*
X243840Y82550I0J-2540D01*
G01*
X255270Y299720D02*
X270510D01*
X273050Y293370D02*
Y297180D01*
X252730Y293370D02*
Y297180D01*
X271780Y256540D02*
Y292100D01*
X273050Y293370D01*
X254000Y256540D02*
Y292100D01*
X252730Y293370D02*
X254000Y292100D01*
X271780Y256540D02*
X273050Y255270D01*
Y251460D02*
Y255270D01*
X252730D02*
X254000Y256540D01*
X252730Y251460D02*
Y255270D01*
X255270Y248920D02*
X270510D01*
X506730Y267970D02*
X521970D01*
X524510Y261620D02*
Y265430D01*
X504190Y261620D02*
Y265430D01*
X523240Y224790D02*
Y260350D01*
X524510Y261620D01*
X505460Y224790D02*
Y260350D01*
X504190Y261620D02*
X505460Y260350D01*
X523240Y224790D02*
X524510Y223520D01*
Y219710D02*
Y223520D01*
X504190D02*
X505460Y224790D01*
X504190Y219710D02*
Y223520D01*
X506730Y217170D02*
X521970D01*
X91440Y190500D02*
Y205740D01*
X93980Y208280D02*
X97790D01*
X93980Y187960D02*
X97790D01*
X99060Y207010D02*
X134620D01*
X97790Y208280D02*
X99060Y207010D01*
Y189230D02*
X134620D01*
X97790Y187960D02*
X99060Y189230D01*
X134620Y207010D02*
X135890Y208280D01*
X139700D01*
X134620Y189230D02*
X135890Y187960D01*
X139700D01*
X142240Y190500D02*
Y205740D01*
X342900Y218440D02*
X358140D01*
X360680Y212090D02*
Y215900D01*
X340360Y212090D02*
Y215900D01*
X359410Y175260D02*
Y210820D01*
X360680Y212090D01*
X341630Y175260D02*
Y210820D01*
X340360Y212090D02*
X341630Y210820D01*
X359410Y175260D02*
X360680Y173990D01*
Y170180D02*
Y173990D01*
X340360D02*
X341630Y175260D01*
X340360Y170180D02*
Y173990D01*
X342900Y167640D02*
X358140D01*
X243840Y16510D02*
Y31750D01*
X246380Y34290D02*
X250190D01*
X246380Y13970D02*
X250190D01*
X251460Y33020D02*
X287020D01*
X250190Y34290D02*
X251460Y33020D01*
Y15240D02*
X287020D01*
X250190Y13970D02*
X251460Y15240D01*
X287020Y33020D02*
X288290Y34290D01*
X292100D01*
X287020Y15240D02*
X288290Y13970D01*
X292100D01*
X294640Y16510D02*
Y31750D01*
Y67310D02*
Y82550D01*
X288290Y64770D02*
X292100D01*
X288290Y85090D02*
X292100D01*
X251460Y66040D02*
X287020D01*
X288290Y64770D01*
X251460Y83820D02*
X287020D01*
X288290Y85090D01*
X250190Y64770D02*
X251460Y66040D01*
X246380Y64770D02*
X250190D01*
Y85090D02*
X251460Y83820D01*
X246380Y85090D02*
X250190D01*
X243840Y67310D02*
Y82550D01*
D19*
X182778Y344000D02*
G03*
X182091Y383358I-22981J19284D01*
G01*
X203302Y439590D02*
G03*
X203989Y400232I22981J-19284D01*
G01*
X379628Y355430D02*
G03*
X378941Y394788I-22981J19284D01*
G01*
X400152Y345610D02*
G03*
X400839Y306252I22981J-19284D01*
G01*
X545930Y252832D02*
G03*
X585288Y253519I19284J22981D01*
G01*
X231310Y205638D02*
G03*
X191952Y204951I-19284J-22981D01*
G01*
X67208Y126830D02*
G03*
X66521Y166188I-22981J19284D01*
G01*
X491660Y205638D02*
G03*
X452302Y204951I-19284J-22981D01*
G01*
X411582Y68750D02*
G03*
X412269Y29392I22981J-19284D01*
G01*
X195540Y363220D02*
X231790D01*
X154540D02*
X189540D01*
X195540Y343220D02*
Y383220D01*
X154290Y420370D02*
X190540D01*
X196540D02*
X231540D01*
X190540Y400370D02*
Y440370D01*
X392390Y374650D02*
X428640D01*
X351390D02*
X386390D01*
X392390Y354650D02*
Y394650D01*
X351140Y326390D02*
X387390D01*
X393390D02*
X428390D01*
X387390Y306390D02*
Y346390D01*
X565150Y203820D02*
Y240070D01*
Y246070D02*
Y281070D01*
X545150Y240070D02*
X585150D01*
X212090Y218400D02*
Y254650D01*
Y177400D02*
Y212400D01*
X192090Y218400D02*
X232090D01*
X79970Y146050D02*
X116220D01*
X38970D02*
X73970D01*
X79970Y126050D02*
Y166050D01*
X472440Y218400D02*
Y254650D01*
Y177400D02*
Y212400D01*
X452440Y218400D02*
X492440D01*
X362570Y49530D02*
X398820D01*
X404820D02*
X439820D01*
X398820Y29530D02*
Y69530D01*
X146750Y231540D02*
X170750D01*
X146750Y281540D02*
X170750D01*
Y231540D02*
Y281540D01*
X146750Y231540D02*
Y281540D01*
X404560Y223920D02*
X428560D01*
X404560Y273920D02*
X428560D01*
Y223920D02*
Y273920D01*
X404560Y223920D02*
Y273920D01*
D20*
X135500Y284090D02*
G03*
X135500Y284090I-1250J0D01*
G01*
X393310Y276470D02*
G03*
X393310Y276470I-1250J0D01*
G01*
X283210Y269240D02*
Y281236D01*
X289208D01*
X291207Y279237D01*
Y275238D01*
X289208Y273239D01*
X283210D01*
X287209D02*
X291207Y269240D01*
X303204D02*
X295206D01*
X303204Y277237D01*
Y279237D01*
X301204Y281236D01*
X297206D01*
X295206Y279237D01*
X504190Y307340D02*
Y319336D01*
X510188D01*
X512187Y317337D01*
Y313338D01*
X510188Y311339D01*
X504190D01*
X508189D02*
X512187Y307340D01*
X522184D02*
Y319336D01*
X516186Y313338D01*
X524184D01*
X270887Y378297D02*
X268888Y380296D01*
X264889D01*
X262890Y378297D01*
Y370299D01*
X264889Y368300D01*
X268888D01*
X270887Y370299D01*
X282883Y368300D02*
X274886D01*
X282883Y376297D01*
Y378297D01*
X280884Y380296D01*
X276886D01*
X274886Y378297D01*
X269617Y425287D02*
X267618Y427286D01*
X263619D01*
X261620Y425287D01*
Y417289D01*
X263619Y415290D01*
X267618D01*
X269617Y417289D01*
X273616Y415290D02*
X277615D01*
X275616D01*
Y427286D01*
X273616Y425287D01*
X427097Y404967D02*
X425098Y406966D01*
X421099D01*
X419100Y404967D01*
Y396969D01*
X421099Y394970D01*
X425098D01*
X427097Y396969D01*
X437094Y394970D02*
Y406966D01*
X431096Y400968D01*
X439094D01*
X420747Y356707D02*
X418748Y358706D01*
X414749D01*
X412750Y356707D01*
Y348709D01*
X414749Y346710D01*
X418748D01*
X420747Y348709D01*
X424746Y356707D02*
X426745Y358706D01*
X430744D01*
X432743Y356707D01*
Y354707D01*
X430744Y352708D01*
X428745D01*
X430744D01*
X432743Y350709D01*
Y348709D01*
X430744Y346710D01*
X426745D01*
X424746Y348709D01*
X554732Y319750D02*
X552733Y321749D01*
X548734D01*
X546735Y319750D01*
Y311752D01*
X548734Y309753D01*
X552733D01*
X554732Y311752D01*
X566729Y321749D02*
X558731D01*
Y315751D01*
X562730Y317750D01*
X564729D01*
X566729Y315751D01*
Y311752D01*
X564729Y309753D01*
X560731D01*
X558731Y311752D01*
X105410Y214630D02*
Y226626D01*
X111408D01*
X113407Y224627D01*
Y220628D01*
X111408Y218629D01*
X105410D01*
X109409D02*
X113407Y214630D01*
X117406D02*
X121405D01*
X119405D01*
Y226626D01*
X117406Y224627D01*
X365760Y182880D02*
Y194876D01*
X371758D01*
X373757Y192877D01*
Y188878D01*
X371758Y186879D01*
X365760D01*
X369759D02*
X373757Y182880D01*
X377756Y192877D02*
X379756Y194876D01*
X383754D01*
X385754Y192877D01*
Y190877D01*
X383754Y188878D01*
X381755D01*
X383754D01*
X385754Y186879D01*
Y184879D01*
X383754Y182880D01*
X379756D01*
X377756Y184879D01*
X256540Y43180D02*
Y55176D01*
X262538D01*
X264537Y53177D01*
Y49178D01*
X262538Y47179D01*
X256540D01*
X260539D02*
X264537Y43180D01*
X276534Y55176D02*
X268536D01*
Y49178D01*
X272535Y51177D01*
X274534D01*
X276534Y49178D01*
Y45179D01*
X274534Y43180D01*
X270536D01*
X268536Y45179D01*
X239137Y186527D02*
X237138Y188526D01*
X233139D01*
X231140Y186527D01*
Y178529D01*
X233139Y176530D01*
X237138D01*
X239137Y178529D01*
X245135Y176530D02*
Y186527D01*
Y182528D01*
X243136D01*
X247135D01*
X245135D01*
Y186527D01*
X247135Y188526D01*
X253133Y176530D02*
X257132D01*
X255132D01*
Y188526D01*
X253133Y186527D01*
X20697Y181447D02*
X18698Y183446D01*
X14699D01*
X12700Y181447D01*
Y173449D01*
X14699Y171450D01*
X18698D01*
X20697Y173449D01*
X26695Y171450D02*
Y181447D01*
Y177448D01*
X24696D01*
X28695D01*
X26695D01*
Y181447D01*
X28695Y183446D01*
X34693Y181447D02*
X36692Y183446D01*
X40691D01*
X42690Y181447D01*
Y179447D01*
X40691Y177448D01*
X38692D01*
X40691D01*
X42690Y175449D01*
Y173449D01*
X40691Y171450D01*
X36692D01*
X34693Y173449D01*
X453767Y299557D02*
X451768Y301556D01*
X447769D01*
X445770Y299557D01*
Y291559D01*
X447769Y289560D01*
X451768D01*
X453767Y291559D01*
X459766Y289560D02*
Y299557D01*
Y295558D01*
X457766D01*
X461765D01*
X459766D01*
Y299557D01*
X461765Y301556D01*
X475760Y289560D02*
X467763D01*
X475760Y297557D01*
Y299557D01*
X473761Y301556D01*
X469762D01*
X467763Y299557D01*
X396617Y87467D02*
X394618Y89466D01*
X390619D01*
X388620Y87467D01*
Y79469D01*
X390619Y77470D01*
X394618D01*
X396617Y79469D01*
X408614Y89466D02*
X404615Y87467D01*
X400616Y83468D01*
Y79469D01*
X402616Y77470D01*
X406614D01*
X408614Y79469D01*
Y81469D01*
X406614Y83468D01*
X400616D01*
X260350Y92710D02*
Y104706D01*
X266348D01*
X268347Y102707D01*
Y98708D01*
X266348Y96709D01*
X260350D01*
X264349D02*
X268347Y92710D01*
X280343Y104706D02*
X276345Y102707D01*
X272346Y98708D01*
Y94709D01*
X274345Y92710D01*
X278344D01*
X280343Y94709D01*
Y96709D01*
X278344Y98708D01*
X272346D01*
D21*
X29400Y106000D02*
X130600D01*
X29400Y14000D02*
Y106000D01*
Y14000D02*
X130600D01*
Y106000D01*
X498830Y339400D02*
Y440600D01*
Y339400D02*
X590830D01*
Y440600D01*
X498830D02*
X590830D01*
X99340Y339400D02*
Y440600D01*
X7340D02*
X99340D01*
X7340Y339400D02*
Y440600D01*
Y339400D02*
X99340D01*
D22*
X447040Y129295D02*
X457037D01*
X452038D01*
Y114300D01*
X462035Y129295D02*
Y114300D01*
X469533D01*
X472032Y116799D01*
Y126796D01*
X469533Y129295D01*
X462035D01*
X487027D02*
X477030D01*
Y114300D01*
X487027D01*
X477030Y121798D02*
X482029D01*
X517017Y126796D02*
X514518Y129295D01*
X509520D01*
X507021Y126796D01*
Y116799D01*
X509520Y114300D01*
X514518D01*
X517017Y116799D01*
Y121798D01*
X512019D01*
X522016Y124297D02*
Y114300D01*
Y119298D01*
X524515Y121798D01*
X527014Y124297D01*
X529513D01*
X539510Y114300D02*
X544508D01*
X547008Y116799D01*
Y121798D01*
X544508Y124297D01*
X539510D01*
X537011Y121798D01*
Y116799D01*
X539510Y114300D01*
X552006Y124297D02*
Y116799D01*
X554505Y114300D01*
X562003D01*
Y124297D01*
X567001Y109302D02*
Y124297D01*
X574499D01*
X576998Y121798D01*
Y116799D01*
X574499Y114300D01*
X567001D01*
D23*
X494030Y102707D02*
Y92710D01*
X499028D01*
X500695Y94376D01*
Y101041D01*
X499028Y102707D01*
X494030D01*
X504027D02*
Y96042D01*
X507359Y92710D01*
X510691Y96042D01*
Y102707D01*
X514024D02*
X520688D01*
X517356D01*
Y92710D01*
X534017Y102707D02*
Y92710D01*
Y97708D01*
X540682D01*
Y102707D01*
Y92710D01*
X544014D02*
Y102707D01*
X549012D01*
X550678Y101041D01*
Y97708D01*
X549012Y96042D01*
X544014D01*
X560675Y102707D02*
X554011D01*
Y97708D01*
X557343D01*
X554011D01*
Y92710D01*
X492760Y73660D02*
Y83657D01*
X497758D01*
X499425Y81991D01*
Y78658D01*
X497758Y76992D01*
X492760D01*
X502757Y73660D02*
Y83657D01*
X509421Y73660D01*
Y83657D01*
X512754Y73660D02*
X516086D01*
X514420D01*
Y83657D01*
X512754Y81991D01*
X521084D02*
X522750Y83657D01*
X526083D01*
X527749Y81991D01*
Y75326D01*
X526083Y73660D01*
X522750D01*
X521084Y75326D01*
Y81991D01*
X531081D02*
X532747Y83657D01*
X536079D01*
X537746Y81991D01*
Y75326D01*
X536079Y73660D01*
X532747D01*
X531081Y75326D01*
Y81991D01*
X546076Y73660D02*
Y83657D01*
X541078Y78658D01*
X547742D01*
X557739Y83657D02*
X551074D01*
Y78658D01*
X554407Y80324D01*
X556073D01*
X557739Y78658D01*
Y75326D01*
X556073Y73660D01*
X552741D01*
X551074Y75326D01*
D24*
X146050Y31235D02*
Y20572D01*
X151382Y15240D01*
X156713Y20572D01*
Y31235D01*
X172708Y28569D02*
X170042Y31235D01*
X164711D01*
X162045Y28569D01*
Y17906D01*
X164711Y15240D01*
X170042D01*
X172708Y17906D01*
X188703Y28569D02*
X186037Y31235D01*
X180705D01*
X178040Y28569D01*
Y17906D01*
X180705Y15240D01*
X186037D01*
X188703Y17906D01*
X446147Y436365D02*
X440816D01*
X438150Y433699D01*
Y423036D01*
X440816Y420370D01*
X446147D01*
X448813Y423036D01*
Y433699D01*
X446147Y436365D01*
X454145D02*
Y423036D01*
X456811Y420370D01*
X462142D01*
X464808Y423036D01*
Y436365D01*
X470140D02*
X480803D01*
X475471D01*
Y420370D01*
X36830Y332225D02*
X42162D01*
X39496D01*
Y316230D01*
X36830D01*
X42162D01*
X50159D02*
Y332225D01*
X60822Y316230D01*
Y332225D01*
X126873Y309494D02*
Y296798D01*
X129412Y294259D01*
X134490D01*
X137030Y296798D01*
Y309494D01*
X142108Y294259D02*
X147186D01*
X144647D01*
Y309494D01*
X142108Y306955D01*
X383540Y300985D02*
Y288289D01*
X386079Y285750D01*
X391157D01*
X393697Y288289D01*
Y300985D01*
X408932Y285750D02*
X398775D01*
X408932Y295907D01*
Y298446D01*
X406393Y300985D01*
X401314D01*
X398775Y298446D01*
D25*
X528320Y39370D02*
D03*
M02*
