G04 Layer_Color=8388736*
%FSLAX44Y44*%
%MOMM*%
G71*
G01*
G75*
%ADD13C,0.5000*%
%ADD26O,1.9032X0.8032*%
%ADD27R,1.9032X0.8032*%
%ADD28R,2.6032X2.6032*%
%ADD29C,2.6032*%
%ADD30R,2.6032X2.6032*%
%ADD31C,1.9032*%
G36*
X416601Y168482D02*
X417252Y168402D01*
X418019Y168240D01*
X418675Y168030D01*
X419457Y167679D01*
X420248Y167195D01*
X421016Y166563D01*
X421780Y165692D01*
X422268Y164909D01*
X422621Y164098D01*
X422873Y163151D01*
X423021Y161872D01*
X423034Y161040D01*
X422976Y160110D01*
X422786Y159005D01*
X422538Y158191D01*
X422178Y157388D01*
X421686Y156573D01*
X421220Y155932D01*
X420670Y155273D01*
X420040Y154654D01*
X419415Y154184D01*
X418683Y153746D01*
X418189Y153480D01*
X418775Y153306D01*
X419284Y153160D01*
X419701Y152981D01*
X419969Y152837D01*
X420359Y152594D01*
X420615Y152427D01*
X420943Y152240D01*
X421222Y152128D01*
X421443Y152072D01*
X421670Y152037D01*
X421900Y152022D01*
X422055Y152022D01*
X422363Y152050D01*
X422588Y152095D01*
X422872Y152194D01*
X423197Y152381D01*
X423434Y152570D01*
X423714Y152836D01*
X423930Y153058D01*
X424248Y153390D01*
X424557Y153724D01*
X424852Y154067D01*
X425039Y154303D01*
X425303Y154671D01*
X425507Y154990D01*
X425697Y155319D01*
X425841Y155588D01*
X425943Y155793D01*
X426105Y156140D01*
X426198Y156350D01*
X426318Y156632D01*
X426437Y156913D01*
X426558Y157194D01*
X426715Y157539D01*
X426885Y157877D01*
X427112Y158267D01*
X427371Y158636D01*
X427657Y158990D01*
X427902Y159282D01*
X428192Y159638D01*
X428381Y159878D01*
X428665Y160239D01*
X428856Y160476D01*
X429051Y160709D01*
X429355Y161045D01*
X429624Y161308D01*
X429970Y161599D01*
X430340Y161861D01*
X430933Y162206D01*
X431346Y162409D01*
X431696Y162564D01*
X432123Y162732D01*
X432555Y162879D01*
X432994Y163005D01*
X433588Y163137D01*
X434039Y163208D01*
X434572Y163256D01*
X434878Y163267D01*
X435339Y163259D01*
X435645Y163237D01*
X435873Y163212D01*
X436100Y163178D01*
X436474Y163104D01*
X436914Y162984D01*
X437271Y162858D01*
X437756Y162643D01*
X438158Y162430D01*
X438422Y162277D01*
X438683Y162118D01*
X439069Y161872D01*
X439386Y161660D01*
X439697Y161441D01*
X439999Y161212D01*
X440292Y160972D01*
X440571Y160717D01*
X440837Y160448D01*
X441140Y160108D01*
X441381Y159813D01*
X441658Y159450D01*
X441967Y159016D01*
X442379Y158379D01*
X442570Y158052D01*
X442855Y157516D01*
X443050Y157105D01*
X443231Y156686D01*
X443424Y156190D01*
X443575Y155760D01*
X443756Y155180D01*
X443838Y154887D01*
X443915Y154594D01*
X444022Y154151D01*
X444147Y153557D01*
X444217Y153183D01*
X444291Y152734D01*
X444336Y152433D01*
X444377Y152131D01*
X444414Y151829D01*
X444455Y151451D01*
X444498Y150996D01*
X444543Y150388D01*
X444567Y149932D01*
X444581Y149476D01*
X444587Y149020D01*
X444585Y148716D01*
X444578Y148412D01*
X444559Y147957D01*
X444528Y147502D01*
X444469Y146898D01*
X444410Y146447D01*
X444337Y145997D01*
X444251Y145549D01*
X444151Y145105D01*
X444035Y144663D01*
X443905Y144226D01*
X443732Y143722D01*
X443567Y143296D01*
X443417Y142946D01*
X443255Y142600D01*
X443118Y142328D01*
X442974Y142059D01*
X442704Y141598D01*
X442456Y141214D01*
X442055Y140658D01*
X441913Y140479D01*
X441465Y139959D01*
X441202Y139684D01*
X440531Y139061D01*
X440116Y138724D01*
X439558Y138320D01*
X437816Y137353D01*
X437390Y137175D01*
X436958Y137017D01*
X436592Y136902D01*
X436297Y136823D01*
X435851Y136726D01*
X435325Y136649D01*
X434871Y136617D01*
X434492Y136616D01*
X433733Y136683D01*
X433281Y136765D01*
X432907Y136857D01*
X432176Y137101D01*
X431819Y137253D01*
X431390Y137440D01*
X430867Y137774D01*
X429828Y138583D01*
X429447Y138965D01*
X429049Y139432D01*
X428867Y139677D01*
X428616Y140058D01*
X428394Y140452D01*
X428143Y140998D01*
X427986Y141421D01*
X427796Y142072D01*
X427663Y142667D01*
X427559Y143273D01*
X427510Y143625D01*
X427515Y143579D01*
X427495Y143733D01*
X427510Y143625D01*
X427384Y144739D01*
X427332Y145360D01*
X427302Y145900D01*
X427292Y146433D01*
X427309Y146990D01*
X427342Y147394D01*
X427390Y147751D01*
X427561Y148467D01*
X427670Y148769D01*
X427809Y149083D01*
X427963Y149252D01*
X428113Y149264D01*
X428257Y149107D01*
X428262Y148485D01*
X428256Y147892D01*
X428318Y147457D01*
X428465Y146987D01*
X428655Y146478D01*
X428851Y146028D01*
X429156Y145520D01*
X429541Y145068D01*
X429876Y144780D01*
X430200Y144557D01*
X430628Y144309D01*
X430935Y144147D01*
X431338Y143958D01*
X431752Y143808D01*
X432231Y143707D01*
X432871Y143646D01*
X433810Y143610D01*
X434547Y143640D01*
X435082Y143712D01*
X436033Y143974D01*
X436664Y144252D01*
X437217Y144571D01*
X437547Y144788D01*
X438030Y145133D01*
X438423Y145434D01*
X438652Y145623D01*
X438802Y145751D01*
X439092Y146018D01*
X439334Y146263D01*
X439690Y146669D01*
X439985Y147063D01*
X440301Y147563D01*
X440535Y147998D01*
X440705Y148355D01*
X441135Y149512D01*
X441402Y150662D01*
X441487Y151295D01*
X441532Y151835D01*
X441557Y152327D01*
X441569Y152820D01*
X441571Y153066D01*
X441566Y153411D01*
X441535Y154000D01*
X441500Y154342D01*
X441437Y154780D01*
X441321Y155360D01*
X441198Y155838D01*
X441082Y156216D01*
X440893Y156725D01*
X440685Y157171D01*
X440382Y157678D01*
X440082Y158069D01*
X439845Y158321D01*
X439586Y158550D01*
X439306Y158752D01*
X439095Y158879D01*
X438311Y159174D01*
X438020Y159225D01*
X437626Y159249D01*
X437184Y159222D01*
X436604Y159107D01*
X436228Y158984D01*
X435605Y158686D01*
X435056Y158273D01*
X434813Y158031D01*
X434548Y157737D01*
X434224Y157362D01*
X434033Y157136D01*
X433847Y156906D01*
X433559Y156509D01*
X433333Y156131D01*
X433150Y155782D01*
X432931Y155341D01*
X432655Y154817D01*
X432435Y154433D01*
X432205Y154055D01*
X432020Y153765D01*
X431776Y153395D01*
X431467Y152951D01*
X431171Y152558D01*
X430888Y152216D01*
X430523Y151815D01*
X430209Y151502D01*
X429843Y151174D01*
X429500Y150898D01*
X428877Y150500D01*
X428414Y150291D01*
X428071Y150172D01*
X427575Y150034D01*
X426912Y149888D01*
X426536Y149812D01*
X425977Y149717D01*
X425611Y149698D01*
X425105Y149728D01*
X424655Y149790D01*
X424272Y149860D01*
X423928Y149930D01*
X423455Y150034D01*
X423240Y150085D01*
X423462Y149755D01*
X423703Y149292D01*
X424003Y148681D01*
X424219Y148203D01*
X424380Y147814D01*
X424493Y147520D01*
X424565Y147323D01*
X424731Y146826D01*
X424821Y146525D01*
X424998Y145816D01*
X425118Y145151D01*
X425187Y144584D01*
X425226Y144065D01*
X425243Y143334D01*
X425206Y142387D01*
X425148Y141753D01*
X425041Y140958D01*
X424908Y140217D01*
X424707Y139381D01*
X424498Y138722D01*
X424264Y138135D01*
X423985Y137577D01*
X423744Y137180D01*
X423473Y136804D01*
X423028Y136303D01*
X422765Y136052D01*
X422405Y135747D01*
X422197Y135586D01*
X421897Y135370D01*
X421632Y135192D01*
X421361Y135022D01*
X421040Y134830D01*
X420668Y134621D01*
X420386Y134471D01*
X420054Y134303D01*
X419623Y134101D01*
X419040Y133859D01*
X418498Y133668D01*
X418048Y133537D01*
X417746Y133463D01*
X417237Y133365D01*
X416773Y133305D01*
X416306Y133270D01*
X415940Y133258D01*
X415205Y133273D01*
X414364Y133341D01*
X413944Y133393D01*
X413265Y133497D01*
X412437Y133659D01*
X411926Y133780D01*
X411521Y133889D01*
X411020Y134041D01*
X410428Y134246D01*
X409847Y134479D01*
X408815Y134978D01*
X407919Y135514D01*
X407108Y136093D01*
X406381Y136702D01*
X405733Y137330D01*
X405126Y138006D01*
X404691Y138554D01*
X404311Y139083D01*
X404070Y139447D01*
X403782Y139912D01*
X403403Y140583D01*
X403199Y140976D01*
X402910Y141574D01*
X402706Y142031D01*
X402391Y142803D01*
X402106Y143586D01*
X401899Y144218D01*
X401596Y145275D01*
X401502Y145646D01*
X401113Y147529D01*
X400997Y148296D01*
X400883Y149293D01*
X400821Y150111D01*
X400788Y151075D01*
X400797Y151741D01*
X400885Y152837D01*
X401000Y153618D01*
X401066Y153993D01*
X401172Y154537D01*
X401303Y154881D01*
X401434Y154368D01*
X401473Y153419D01*
X401576Y152500D01*
X401777Y151459D01*
X402009Y150587D01*
X402241Y149856D01*
X402617Y148811D01*
X403001Y147849D01*
X403138Y147530D01*
X403730Y146266D01*
X404142Y145493D01*
X404429Y145000D01*
X404852Y144331D01*
X405307Y143681D01*
X405684Y143191D01*
X406319Y142455D01*
X406563Y142200D01*
X407007Y141773D01*
X407473Y141374D01*
X407749Y141159D01*
X408104Y140907D01*
X408470Y140673D01*
X408923Y140419D01*
X409235Y140267D01*
X409634Y140095D01*
X409960Y139973D01*
X410375Y139838D01*
X410797Y139722D01*
X411225Y139624D01*
X411657Y139544D01*
X412094Y139482D01*
X412532Y139435D01*
X412928Y139407D01*
X413412Y139389D01*
X413851Y139387D01*
X414201Y139397D01*
X414550Y139418D01*
X414984Y139459D01*
X415330Y139504D01*
X415845Y139594D01*
X416482Y139747D01*
X416818Y139848D01*
X417193Y139978D01*
X417605Y140143D01*
X417929Y140292D01*
X418246Y140455D01*
X418704Y140727D01*
X419137Y141032D01*
X419408Y141255D01*
X419725Y141554D01*
X420013Y141877D01*
X420341Y142332D01*
X420668Y142943D01*
X420802Y143266D01*
X420989Y143855D01*
X421069Y144203D01*
X421130Y144557D01*
X421185Y145053D01*
X421202Y145599D01*
X421171Y146141D01*
X421077Y146714D01*
X420899Y147301D01*
X420679Y147769D01*
X420418Y148162D01*
X420006Y148606D01*
X419560Y148963D01*
X418906Y149352D01*
X418203Y149654D01*
X417483Y149873D01*
X416376Y150052D01*
X415942Y150073D01*
X415413Y150063D01*
X414368Y149936D01*
X413884Y149803D01*
X413556Y149666D01*
X413192Y149434D01*
X413095Y149350D01*
X412976Y149226D01*
X412921Y149159D01*
X410693Y156708D01*
X411050Y156573D01*
X411486Y156425D01*
X411780Y156338D01*
X412300Y156208D01*
X412676Y156134D01*
X413129Y156069D01*
X413484Y156036D01*
X413941Y156016D01*
X414450Y156022D01*
X414859Y156044D01*
X415215Y156076D01*
X415596Y156124D01*
X416124Y156216D01*
X416720Y156360D01*
X416939Y156424D01*
X417444Y156599D01*
X417864Y156778D01*
X418138Y156912D01*
X418472Y157098D01*
X418859Y157351D01*
X419026Y157473D01*
X419286Y157687D01*
X419628Y158064D01*
X419807Y158395D01*
X419913Y158762D01*
X419961Y159255D01*
X419948Y159621D01*
X419924Y159853D01*
X419880Y160104D01*
X419812Y160374D01*
X419634Y160824D01*
X419482Y161092D01*
X419268Y161381D01*
X418978Y161666D01*
X418837Y161775D01*
X418557Y161952D01*
X418234Y162112D01*
X417873Y162253D01*
X417528Y162359D01*
X417279Y162421D01*
X417053Y162468D01*
X416446Y162549D01*
X416039Y162569D01*
X415836Y162569D01*
X415354Y162544D01*
X414949Y162496D01*
X414397Y162395D01*
X413802Y162244D01*
X413362Y162108D01*
X412594Y161825D01*
X412289Y161697D01*
X411733Y161441D01*
X411279Y161210D01*
X410656Y160863D01*
X410308Y160652D01*
X410028Y160475D01*
X409731Y160280D01*
X409353Y160021D01*
X409104Y159845D01*
X408773Y159607D01*
X408465Y159382D01*
X408261Y159231D01*
X408077Y159094D01*
X408036Y159064D01*
X405209Y164799D01*
X405761Y165273D01*
X406443Y165739D01*
X407077Y166151D01*
X407721Y166542D01*
X408582Y167007D01*
X409321Y167346D01*
X409959Y167593D01*
X410799Y167861D01*
X411370Y168012D01*
X412241Y168198D01*
X413025Y168326D01*
X413519Y168390D01*
X414115Y168450D01*
X414947Y168507D01*
X415611Y168522D01*
X416601Y168482D01*
D02*
G37*
G36*
X420090Y174340D02*
X420340Y173590D01*
X420790Y172790D01*
X421390Y171890D01*
X422040Y171090D01*
X422590Y170490D01*
X423290Y169890D01*
X423990Y169440D01*
X424840Y169040D01*
X425840Y168690D01*
X426890Y168440D01*
X427840Y168290D01*
X429640D01*
X430540Y168490D01*
X431690Y168840D01*
X432890Y169490D01*
X433740Y169990D01*
X434540Y170540D01*
X435540Y171340D01*
X436190Y172040D01*
X436740Y172690D01*
X440440Y168290D01*
X439840Y167740D01*
X438290Y166490D01*
X437190Y165790D01*
X435490Y164990D01*
X433490Y164290D01*
X431740Y163890D01*
X430440Y163740D01*
X429340Y163690D01*
X428440Y163740D01*
X427190Y163940D01*
X426090Y164290D01*
X425040Y164740D01*
X424340Y165190D01*
X423440Y165940D01*
X422540Y166740D01*
X421540Y167990D01*
X420690Y169190D01*
X419990Y170790D01*
X419540Y172690D01*
Y174240D01*
X419790Y175140D01*
X420090Y174340D01*
D02*
G37*
G36*
X432040Y173340D02*
X428090Y169390D01*
X424190Y173290D01*
X427890Y177490D01*
X432040Y173340D01*
D02*
G37*
D13*
X0Y450000D02*
X600000D01*
Y0D02*
Y450000D01*
X0Y0D02*
X600000D01*
X0D02*
Y450000D01*
D26*
X183250Y237490D02*
D03*
Y250190D02*
D03*
Y262890D02*
D03*
Y275590D02*
D03*
X134250Y237490D02*
D03*
Y250190D02*
D03*
Y262890D02*
D03*
X441060Y229870D02*
D03*
Y242570D02*
D03*
Y255270D02*
D03*
Y267970D02*
D03*
X392060Y229870D02*
D03*
Y242570D02*
D03*
Y255270D02*
D03*
D27*
X134250Y275590D02*
D03*
X392060Y267970D02*
D03*
D28*
X105400Y60000D02*
D03*
D29*
X54600D02*
D03*
X544830Y364600D02*
D03*
X53340Y415400D02*
D03*
D30*
X544830D02*
D03*
X53340Y364600D02*
D03*
D31*
X262890Y324320D02*
D03*
Y224320D02*
D03*
X514350Y292570D02*
D03*
Y192570D02*
D03*
X143040Y363220D02*
D03*
X243040D02*
D03*
Y420370D02*
D03*
X143040D02*
D03*
X339890Y374650D02*
D03*
X439890D02*
D03*
Y326390D02*
D03*
X339890D02*
D03*
X565150Y292570D02*
D03*
Y192570D02*
D03*
X66840Y198120D02*
D03*
X166840D02*
D03*
X350520Y243040D02*
D03*
Y143040D02*
D03*
X219240Y24130D02*
D03*
X319240D02*
D03*
X212090Y165900D02*
D03*
Y265900D02*
D03*
X27470Y146050D02*
D03*
X127470D02*
D03*
X472440Y165900D02*
D03*
Y265900D02*
D03*
X451320Y49530D02*
D03*
X351320D02*
D03*
X319240Y74930D02*
D03*
X219240D02*
D03*
M02*
