G04 Layer_Physical_Order=1*
G04 Layer_Color=6759642*
%FSLAX44Y44*%
%MOMM*%
G71*
G01*
G75*
%ADD10O,1.7000X0.6000*%
%ADD11R,1.7000X0.6000*%
%ADD12C,0.6000*%
%ADD13C,0.5000*%
%ADD14R,2.4000X2.4000*%
%ADD15C,2.4000*%
%ADD16R,2.4000X2.4000*%
%ADD17C,1.7000*%
G36*
X590550Y6350D02*
X6350D01*
Y444500D01*
X590550D01*
Y6350D01*
D02*
G37*
%LPC*%
G36*
X223058Y164630D02*
X213360D01*
Y154932D01*
X214972Y155144D01*
X217658Y156257D01*
X219964Y158026D01*
X221733Y160332D01*
X222846Y163018D01*
X223058Y164630D01*
D02*
G37*
G36*
X471170D02*
X461472D01*
X461684Y163018D01*
X462797Y160332D01*
X464566Y158026D01*
X466872Y156257D01*
X469558Y155144D01*
X471170Y154932D01*
Y164630D01*
D02*
G37*
G36*
X210820Y176868D02*
X209208Y176656D01*
X206522Y175543D01*
X204216Y173774D01*
X202447Y171468D01*
X201334Y168782D01*
X201122Y167170D01*
X210820D01*
Y176868D01*
D02*
G37*
G36*
X483408Y164630D02*
X473710D01*
Y154932D01*
X475322Y155144D01*
X478008Y156257D01*
X480314Y158026D01*
X482083Y160332D01*
X483196Y163018D01*
X483408Y164630D01*
D02*
G37*
G36*
X210820D02*
X201122D01*
X201334Y163018D01*
X202447Y160332D01*
X204216Y158026D01*
X206522Y156257D01*
X209208Y155144D01*
X210820Y154932D01*
Y164630D01*
D02*
G37*
G36*
X38438Y144780D02*
X28740D01*
Y135082D01*
X30352Y135294D01*
X33038Y136407D01*
X35344Y138176D01*
X37113Y140482D01*
X38226Y143168D01*
X38438Y144780D01*
D02*
G37*
G36*
X26200D02*
X16502D01*
X16714Y143168D01*
X17827Y140482D01*
X19596Y138176D01*
X21902Y136407D01*
X24588Y135294D01*
X26200Y135082D01*
Y144780D01*
D02*
G37*
G36*
X28740Y157018D02*
Y147320D01*
X38438D01*
X38226Y148932D01*
X37113Y151618D01*
X35344Y153924D01*
X33038Y155693D01*
X30352Y156806D01*
X28740Y157018D01*
D02*
G37*
G36*
X26200D02*
X24588Y156806D01*
X21902Y155693D01*
X19596Y153924D01*
X17827Y151618D01*
X16714Y148932D01*
X16502Y147320D01*
X26200D01*
Y157018D01*
D02*
G37*
G36*
X471170Y176868D02*
X469558Y176656D01*
X466872Y175543D01*
X464566Y173774D01*
X462797Y171468D01*
X461684Y168782D01*
X461472Y167170D01*
X471170D01*
Y176868D01*
D02*
G37*
G36*
X118910Y255839D02*
X116748Y255409D01*
X114916Y254184D01*
X114916Y254184D01*
X71426Y210694D01*
X71209Y210521D01*
X70742Y210206D01*
X70264Y209938D01*
X69771Y209713D01*
X69260Y209531D01*
X68727Y209388D01*
X68166Y209287D01*
X67575Y209227D01*
X67140Y209216D01*
X66840Y209255D01*
X63958Y208876D01*
X61272Y207763D01*
X58966Y205994D01*
X57197Y203688D01*
X56084Y201002D01*
X55705Y198120D01*
X56084Y195238D01*
X57197Y192552D01*
X58966Y190246D01*
X61272Y188477D01*
X63958Y187364D01*
X66840Y186985D01*
X69722Y187364D01*
X72408Y188477D01*
X74714Y190246D01*
X76483Y192552D01*
X77596Y195238D01*
X77975Y198120D01*
X77936Y198420D01*
X77947Y198855D01*
X78007Y199446D01*
X78108Y200007D01*
X78251Y200540D01*
X78433Y201051D01*
X78658Y201544D01*
X78926Y202022D01*
X79241Y202489D01*
X79414Y202706D01*
X121250Y244541D01*
X139750D01*
X141912Y244971D01*
X143744Y246196D01*
X144969Y248028D01*
X145399Y250190D01*
X144969Y252352D01*
X143744Y254184D01*
X141912Y255409D01*
X139750Y255839D01*
X118910D01*
X118910Y255839D01*
D02*
G37*
G36*
X166840Y209255D02*
X163958Y208876D01*
X161272Y207763D01*
X158966Y205994D01*
X157197Y203688D01*
X156084Y201002D01*
X155705Y198120D01*
X156084Y195238D01*
X157197Y192552D01*
X158966Y190246D01*
X161272Y188477D01*
X163958Y187364D01*
X166840Y186985D01*
X169722Y187364D01*
X172408Y188477D01*
X174714Y190246D01*
X176483Y192552D01*
X177596Y195238D01*
X177975Y198120D01*
X177596Y201002D01*
X176483Y203688D01*
X174714Y205994D01*
X172408Y207763D01*
X169722Y208876D01*
X166840Y209255D01*
D02*
G37*
G36*
X402956Y228600D02*
X393330D01*
Y224221D01*
X397560D01*
X399722Y224651D01*
X401554Y225876D01*
X402779Y227708D01*
X402956Y228600D01*
D02*
G37*
G36*
X390790D02*
X381164D01*
X381342Y227708D01*
X382566Y225876D01*
X384398Y224651D01*
X386560Y224221D01*
X390790D01*
Y228600D01*
D02*
G37*
G36*
X565150Y203705D02*
X562268Y203326D01*
X559582Y202213D01*
X557276Y200444D01*
X555507Y198138D01*
X554394Y195452D01*
X554015Y192570D01*
X554394Y189688D01*
X555507Y187002D01*
X557276Y184696D01*
X559582Y182927D01*
X562268Y181814D01*
X565150Y181435D01*
X568032Y181814D01*
X570718Y182927D01*
X573024Y184696D01*
X574793Y187002D01*
X575906Y189688D01*
X576285Y192570D01*
X575906Y195452D01*
X574793Y198138D01*
X573024Y200444D01*
X570718Y202213D01*
X568032Y203326D01*
X565150Y203705D01*
D02*
G37*
G36*
X473710Y176868D02*
Y167170D01*
X483408D01*
X483196Y168782D01*
X482083Y171468D01*
X480314Y173774D01*
X478008Y175543D01*
X475322Y176656D01*
X473710Y176868D01*
D02*
G37*
G36*
X213360D02*
Y167170D01*
X223058D01*
X222846Y168782D01*
X221733Y171468D01*
X219964Y173774D01*
X217658Y175543D01*
X214972Y176656D01*
X213360Y176868D01*
D02*
G37*
G36*
X411480Y260919D02*
X411480Y260919D01*
X386560D01*
X384398Y260489D01*
X382566Y259264D01*
X381342Y257432D01*
X380911Y255270D01*
X381342Y253108D01*
X382566Y251276D01*
X384398Y250051D01*
X386560Y249622D01*
X409140D01*
X420186Y238576D01*
X420186Y238576D01*
X422018Y237351D01*
X424180Y236921D01*
X424180Y236922D01*
X462010D01*
X501776Y197156D01*
X501949Y196939D01*
X502264Y196472D01*
X502532Y195994D01*
X502757Y195501D01*
X502939Y194990D01*
X503082Y194457D01*
X503183Y193896D01*
X503243Y193305D01*
X503254Y192870D01*
X503215Y192570D01*
X503594Y189688D01*
X504707Y187002D01*
X506476Y184696D01*
X508782Y182927D01*
X511468Y181814D01*
X514350Y181435D01*
X517232Y181814D01*
X519918Y182927D01*
X522224Y184696D01*
X523993Y187002D01*
X525106Y189688D01*
X525485Y192570D01*
X525106Y195452D01*
X523993Y198138D01*
X522224Y200444D01*
X519918Y202213D01*
X517232Y203326D01*
X514350Y203705D01*
X514050Y203666D01*
X513615Y203677D01*
X513024Y203737D01*
X512463Y203838D01*
X511930Y203981D01*
X511419Y204163D01*
X510926Y204388D01*
X510448Y204656D01*
X509981Y204971D01*
X509764Y205144D01*
X468344Y246564D01*
X466512Y247789D01*
X464350Y248219D01*
X464350Y248218D01*
X426520D01*
X415474Y259264D01*
X413642Y260489D01*
X411480Y260919D01*
D02*
G37*
G36*
X427890Y180130D02*
X427809Y180114D01*
X427726Y180125D01*
X427316Y180016D01*
X426899Y179933D01*
X426830Y179886D01*
X426750Y179865D01*
X426412Y179607D01*
X426059Y179371D01*
X426013Y179302D01*
X425947Y179252D01*
X423367Y176324D01*
X422880Y176304D01*
X422516Y176374D01*
X421923Y176606D01*
X421844Y176697D01*
X421682Y176958D01*
X421518Y177076D01*
X421385Y177230D01*
X421111Y177369D01*
X420862Y177548D01*
X420664Y177594D01*
X420483Y177685D01*
X420177Y177708D01*
X419878Y177778D01*
X419678Y177745D01*
X419476Y177761D01*
X419184Y177665D01*
X418881Y177615D01*
X418708Y177508D01*
X418516Y177445D01*
X418283Y177244D01*
X418022Y177082D01*
X417904Y176918D01*
X417750Y176785D01*
X417612Y176511D01*
X417432Y176262D01*
X417386Y176064D01*
X417295Y175883D01*
X417045Y174983D01*
X417019Y174634D01*
X416950Y174290D01*
Y172740D01*
X417009Y172444D01*
X417012Y172352D01*
X416974Y172196D01*
X416859Y171994D01*
X415950Y171150D01*
X415717Y171160D01*
X415634Y171147D01*
X415550Y171161D01*
X414885Y171145D01*
X414829Y171133D01*
X414772Y171140D01*
X413941Y171084D01*
X413898Y171073D01*
X413854Y171077D01*
X413258Y171016D01*
X413224Y171006D01*
X413189Y171008D01*
X412695Y170945D01*
X412653Y170931D01*
X412607Y170932D01*
X411823Y170804D01*
X411763Y170782D01*
X411699Y170781D01*
X410829Y170595D01*
X410771Y170570D01*
X410709Y170566D01*
X410138Y170415D01*
X410078Y170386D01*
X410010Y170378D01*
X409170Y170109D01*
X409101Y170071D01*
X409025Y170058D01*
X408386Y169811D01*
X408319Y169768D01*
X408241Y169750D01*
X407502Y169411D01*
X407432Y169360D01*
X407350Y169335D01*
X406490Y168870D01*
X406440Y168828D01*
X406378Y168806D01*
X405734Y168416D01*
X405703Y168387D01*
X405664Y168372D01*
X405031Y167959D01*
X405010Y167939D01*
X404983Y167927D01*
X404301Y167462D01*
X404200Y167359D01*
X404075Y167288D01*
X403522Y166814D01*
X403409Y166669D01*
X403262Y166557D01*
X403100Y166275D01*
X402899Y166019D01*
X402849Y165842D01*
X402757Y165682D01*
X402715Y165360D01*
X402627Y165046D01*
X402649Y164863D01*
X402625Y164680D01*
X402709Y164366D01*
X402748Y164043D01*
X402839Y163882D01*
X402886Y163704D01*
X405713Y157969D01*
X405855Y157783D01*
X405956Y157571D01*
X406160Y157386D01*
X406328Y157167D01*
X406531Y157050D01*
X406704Y156893D01*
X406964Y156800D01*
X407203Y156662D01*
X407435Y156631D01*
X407656Y156552D01*
X407931Y156566D01*
X408138Y156538D01*
X408179Y156358D01*
X408209Y156025D01*
X410437Y148476D01*
X410560Y148242D01*
X410637Y147988D01*
X410793Y147799D01*
X410907Y147582D01*
X411110Y147412D01*
X411279Y147207D01*
X411495Y147092D01*
X411683Y146935D01*
X411936Y146856D01*
X412170Y146731D01*
X412414Y146707D01*
X412648Y146634D01*
X412912Y146658D01*
X413176Y146632D01*
X413410Y146703D01*
X413654Y146726D01*
X413889Y146849D01*
X414142Y146926D01*
X414332Y147081D01*
X414549Y147195D01*
X414696Y147371D01*
X414749Y147405D01*
X414868Y147437D01*
X415594Y147526D01*
X415905Y147532D01*
X416107Y147522D01*
X416897Y147394D01*
X417311Y147268D01*
X417728Y147089D01*
X418083Y146878D01*
X418239Y146754D01*
X418377Y146605D01*
X418417Y146544D01*
X418475Y146420D01*
X418549Y146177D01*
X418593Y145906D01*
X418610Y145615D01*
X418600Y145285D01*
X418565Y144970D01*
X418529Y144766D01*
X418488Y144588D01*
X418367Y144203D01*
X418325Y144103D01*
X418139Y143757D01*
X417990Y143550D01*
X417866Y143411D01*
X417696Y143250D01*
X417567Y143144D01*
X417294Y142951D01*
X416991Y142771D01*
X416796Y142671D01*
X416582Y142573D01*
X416287Y142455D01*
X416023Y142363D01*
X415808Y142299D01*
X415318Y142181D01*
X414936Y142114D01*
X414695Y142082D01*
X414353Y142050D01*
X414088Y142035D01*
X413818Y142027D01*
X413465Y142028D01*
X413071Y142043D01*
X412761Y142065D01*
X412415Y142102D01*
X412076Y142151D01*
X411747Y142211D01*
X411427Y142284D01*
X411119Y142369D01*
X410817Y142467D01*
X410601Y142548D01*
X410316Y142671D01*
X410127Y142764D01*
X409800Y142946D01*
X409552Y143105D01*
X409295Y143288D01*
X409111Y143430D01*
X408749Y143741D01*
X408397Y144079D01*
X408236Y144248D01*
X407692Y144878D01*
X407395Y145264D01*
X407008Y145817D01*
X406644Y146393D01*
X406405Y146803D01*
X406047Y147475D01*
X405501Y148639D01*
X405395Y148888D01*
X405039Y149780D01*
X404694Y150738D01*
X404496Y151362D01*
X404303Y152087D01*
X404138Y152941D01*
X404057Y153667D01*
X404021Y154524D01*
X403958Y154789D01*
X403943Y155060D01*
X403812Y155573D01*
X403715Y155775D01*
X403665Y155993D01*
X403499Y156226D01*
X403375Y156484D01*
X403208Y156634D01*
X403078Y156816D01*
X402836Y156968D01*
X402623Y157159D01*
X402412Y157233D01*
X402222Y157352D01*
X401940Y157400D01*
X401670Y157495D01*
X401446Y157483D01*
X401226Y157520D01*
X400946Y157455D01*
X400661Y157440D01*
X400459Y157343D01*
X400241Y157293D01*
X400007Y157127D01*
X399749Y157003D01*
X399600Y156837D01*
X399418Y156707D01*
X399266Y156464D01*
X399075Y156251D01*
X399000Y156040D01*
X398882Y155850D01*
X398751Y155506D01*
X398714Y155288D01*
X398630Y155082D01*
X398524Y154537D01*
X398524Y154514D01*
X398516Y154493D01*
X398450Y154118D01*
X398451Y154080D01*
X398438Y154044D01*
X398323Y153263D01*
X398327Y153178D01*
X398304Y153096D01*
X398215Y152000D01*
X398226Y151911D01*
X398207Y151823D01*
X398199Y151157D01*
X398210Y151097D01*
X398200Y151037D01*
X398233Y150073D01*
X398245Y150020D01*
X398239Y149966D01*
X398301Y149148D01*
X398314Y149099D01*
X398310Y149048D01*
X398424Y148051D01*
X398439Y148006D01*
X398437Y147959D01*
X398553Y147192D01*
X398577Y147126D01*
X398577Y147056D01*
X398966Y145172D01*
X398989Y145117D01*
X398992Y145057D01*
X399086Y144687D01*
X399103Y144651D01*
X399107Y144612D01*
X399410Y143554D01*
X399432Y143511D01*
X399438Y143463D01*
X399645Y142831D01*
X399666Y142794D01*
X399672Y142751D01*
X399957Y141968D01*
X399983Y141924D01*
X399993Y141875D01*
X400308Y141102D01*
X400332Y141067D01*
X400341Y141025D01*
X400545Y140569D01*
X400568Y140536D01*
X400578Y140498D01*
X400867Y139899D01*
X400891Y139868D01*
X400902Y139830D01*
X401106Y139438D01*
X401134Y139403D01*
X401148Y139359D01*
X401527Y138688D01*
X401562Y138649D01*
X401580Y138600D01*
X401868Y138134D01*
X401896Y138104D01*
X401912Y138066D01*
X402153Y137702D01*
X402187Y137668D01*
X402207Y137624D01*
X402586Y137095D01*
X402632Y137052D01*
X402662Y136995D01*
X403097Y136446D01*
X403158Y136394D01*
X403199Y136325D01*
X403806Y135649D01*
X403879Y135594D01*
X403932Y135519D01*
X404579Y134892D01*
X404659Y134840D01*
X404718Y134767D01*
X405446Y134158D01*
X405534Y134109D01*
X405603Y134036D01*
X406413Y133457D01*
X406511Y133413D01*
X406590Y133342D01*
X407486Y132806D01*
X407595Y132767D01*
X407687Y132697D01*
X408719Y132198D01*
X408808Y132175D01*
X408885Y132124D01*
X409466Y131892D01*
X409526Y131881D01*
X409578Y131850D01*
X410170Y131644D01*
X410223Y131637D01*
X410269Y131612D01*
X410770Y131460D01*
X410811Y131456D01*
X410848Y131438D01*
X411253Y131329D01*
X411292Y131327D01*
X411327Y131310D01*
X411838Y131189D01*
X411891Y131187D01*
X411940Y131167D01*
X412767Y131005D01*
X412822Y131005D01*
X412873Y130987D01*
X413552Y130883D01*
X413591Y130885D01*
X413629Y130872D01*
X414049Y130821D01*
X414102Y130825D01*
X414154Y130810D01*
X414995Y130742D01*
X415076Y130751D01*
X415155Y130733D01*
X415890Y130719D01*
X415956Y130731D01*
X416022Y130720D01*
X416387Y130731D01*
X416443Y130744D01*
X416500Y130737D01*
X416967Y130773D01*
X417035Y130792D01*
X417106Y130787D01*
X417570Y130847D01*
X417646Y130872D01*
X417726Y130872D01*
X418235Y130970D01*
X418296Y130995D01*
X418362Y130998D01*
X418665Y131072D01*
X418717Y131096D01*
X418774Y131101D01*
X419224Y131233D01*
X419287Y131265D01*
X419356Y131275D01*
X419899Y131466D01*
X419961Y131503D01*
X420033Y131517D01*
X420615Y131759D01*
X420664Y131791D01*
X420721Y131805D01*
X421152Y132007D01*
X421184Y132031D01*
X421223Y132042D01*
X421554Y132209D01*
X421577Y132227D01*
X421606Y132236D01*
X421888Y132387D01*
X421910Y132405D01*
X421937Y132414D01*
X422309Y132623D01*
X422335Y132645D01*
X422366Y132656D01*
X422687Y132847D01*
X422712Y132870D01*
X422744Y132882D01*
X423014Y133053D01*
X423040Y133077D01*
X423073Y133091D01*
X423338Y133269D01*
X423369Y133300D01*
X423409Y133318D01*
X423710Y133534D01*
X423741Y133567D01*
X423781Y133588D01*
X423989Y133749D01*
X424029Y133793D01*
X424081Y133822D01*
X424440Y134127D01*
X424487Y134186D01*
X424551Y134227D01*
X424814Y134478D01*
X424877Y134567D01*
X424964Y134633D01*
X425409Y135134D01*
X425476Y135248D01*
X425573Y135338D01*
X425844Y135714D01*
X425887Y135808D01*
X425957Y135885D01*
X426199Y136282D01*
X426236Y136384D01*
X426302Y136470D01*
X426392Y136649D01*
X426759Y136883D01*
X427491Y136999D01*
X427519Y136997D01*
X427905Y136894D01*
X427995Y136803D01*
X428131Y136713D01*
X428237Y136589D01*
X429276Y135781D01*
X429385Y135726D01*
X429473Y135642D01*
X429996Y135308D01*
X430186Y135233D01*
X430354Y135116D01*
X430784Y134929D01*
X430796Y134926D01*
X430807Y134919D01*
X431163Y134768D01*
X431265Y134747D01*
X431356Y134695D01*
X432087Y134451D01*
X432193Y134437D01*
X432289Y134392D01*
X432663Y134300D01*
X432743Y134297D01*
X432818Y134267D01*
X433270Y134185D01*
X433391Y134187D01*
X433507Y134153D01*
X434266Y134087D01*
X434383Y134100D01*
X434498Y134077D01*
X434878Y134078D01*
X434965Y134095D01*
X435052Y134084D01*
X435506Y134116D01*
X435601Y134142D01*
X435699Y134137D01*
X436225Y134213D01*
X436310Y134244D01*
X436400Y134245D01*
X436847Y134342D01*
X436906Y134368D01*
X436970Y134372D01*
X437265Y134451D01*
X437313Y134475D01*
X437367Y134481D01*
X437732Y134595D01*
X437785Y134625D01*
X437846Y134634D01*
X438278Y134792D01*
X438330Y134824D01*
X438390Y134836D01*
X438815Y135014D01*
X438935Y135094D01*
X439073Y135139D01*
X440815Y136106D01*
X440934Y136207D01*
X441076Y136272D01*
X441634Y136676D01*
X441684Y136729D01*
X441748Y136763D01*
X442163Y137100D01*
X442219Y137167D01*
X442293Y137213D01*
X442964Y137836D01*
X443010Y137900D01*
X443075Y137945D01*
X443338Y138221D01*
X443374Y138277D01*
X443426Y138318D01*
X443874Y138837D01*
X443902Y138887D01*
X443946Y138924D01*
X444088Y139104D01*
X444113Y139154D01*
X444154Y139192D01*
X444556Y139748D01*
X444584Y139810D01*
X444632Y139860D01*
X444880Y140244D01*
X444901Y140298D01*
X444940Y140341D01*
X445209Y140802D01*
X445225Y140847D01*
X445256Y140885D01*
X445400Y141153D01*
X445410Y141187D01*
X445431Y141214D01*
X445569Y141486D01*
X445579Y141523D01*
X445601Y141554D01*
X445763Y141899D01*
X445773Y141940D01*
X445797Y141975D01*
X445947Y142326D01*
X445957Y142371D01*
X445981Y142409D01*
X446147Y142835D01*
X446156Y142888D01*
X446183Y142934D01*
X446355Y143438D01*
X446362Y143489D01*
X446386Y143535D01*
X446517Y143972D01*
X446521Y144017D01*
X446541Y144059D01*
X446656Y144500D01*
X446659Y144544D01*
X446677Y144584D01*
X446777Y145028D01*
X446778Y145070D01*
X446794Y145109D01*
X446880Y145557D01*
X446880Y145597D01*
X446894Y145635D01*
X446967Y146084D01*
X446965Y146123D01*
X446978Y146160D01*
X447037Y146611D01*
X447034Y146654D01*
X447046Y146695D01*
X447106Y147299D01*
X447102Y147339D01*
X447112Y147379D01*
X447143Y147833D01*
X447139Y147866D01*
X447146Y147898D01*
X447166Y148353D01*
X447161Y148379D01*
X447167Y148405D01*
X447174Y148709D01*
X447170Y148729D01*
X447174Y148748D01*
X447177Y149052D01*
X447172Y149076D01*
X447176Y149100D01*
X447171Y149556D01*
X447165Y149583D01*
X447170Y149610D01*
X447155Y150067D01*
X447149Y150092D01*
X447153Y150118D01*
X447129Y150574D01*
X447122Y150601D01*
X447125Y150629D01*
X447080Y151237D01*
X447074Y151262D01*
X447076Y151288D01*
X447033Y151743D01*
X447028Y151763D01*
X447029Y151783D01*
X446988Y152161D01*
X446983Y152177D01*
X446984Y152194D01*
X446947Y152497D01*
X446942Y152512D01*
X446943Y152528D01*
X446902Y152830D01*
X446897Y152845D01*
X446898Y152862D01*
X446853Y153163D01*
X446846Y153184D01*
X446846Y153206D01*
X446772Y153656D01*
X446763Y153680D01*
X446763Y153706D01*
X446694Y154080D01*
X446682Y154110D01*
X446681Y154142D01*
X446556Y154736D01*
X446541Y154770D01*
X446540Y154807D01*
X446433Y155250D01*
X446422Y155275D01*
X446420Y155303D01*
X446343Y155597D01*
X446332Y155618D01*
X446331Y155641D01*
X446248Y155933D01*
X446232Y155965D01*
X446228Y156001D01*
X446047Y156582D01*
X446025Y156621D01*
X446019Y156665D01*
X445868Y157096D01*
X445845Y157135D01*
X445838Y157179D01*
X445645Y157675D01*
X445619Y157715D01*
X445609Y157762D01*
X445428Y158181D01*
X445401Y158220D01*
X445390Y158266D01*
X445194Y158677D01*
X445159Y158725D01*
X445142Y158781D01*
X444857Y159317D01*
X444823Y159359D01*
X444804Y159411D01*
X444613Y159739D01*
X444575Y159782D01*
X444553Y159835D01*
X444141Y160472D01*
X444100Y160514D01*
X444076Y160568D01*
X443768Y161001D01*
X443737Y161031D01*
X443718Y161069D01*
X443441Y161432D01*
X443407Y161462D01*
X443386Y161502D01*
X443146Y161797D01*
X443102Y161833D01*
X443074Y161881D01*
X442771Y162221D01*
X442717Y162262D01*
X442680Y162318D01*
X442414Y162587D01*
X442356Y162626D01*
X442315Y162682D01*
X442035Y162937D01*
X441979Y162971D01*
X441938Y163021D01*
X441646Y163262D01*
X441597Y163287D01*
X441561Y163328D01*
X441259Y163557D01*
X441219Y163576D01*
X441188Y163608D01*
X440983Y163753D01*
X440815Y164084D01*
X440785Y164985D01*
X440910Y165326D01*
X441466Y165774D01*
X441519Y165838D01*
X441590Y165881D01*
X442190Y166431D01*
X442457Y166795D01*
X442738Y167147D01*
X442754Y167201D01*
X442787Y167246D01*
X442895Y167684D01*
X443020Y168117D01*
X443014Y168173D01*
X443027Y168228D01*
X442959Y168673D01*
X442909Y169121D01*
X442882Y169171D01*
X442873Y169226D01*
X442639Y169612D01*
X442422Y170007D01*
X438722Y174407D01*
X438550Y174545D01*
X438413Y174717D01*
X438159Y174857D01*
X437933Y175038D01*
X437722Y175100D01*
X437529Y175207D01*
X437241Y175239D01*
X436963Y175320D01*
X436744Y175296D01*
X436525Y175321D01*
X436246Y175241D01*
X435959Y175209D01*
X435765Y175103D01*
X435554Y175042D01*
X435505Y175003D01*
X434572Y174918D01*
X433991Y175145D01*
X433882Y175214D01*
X433837Y175256D01*
X429721Y179371D01*
X429652Y179417D01*
X429602Y179483D01*
X429234Y179697D01*
X428881Y179933D01*
X428800Y179949D01*
X428728Y179990D01*
X428307Y180047D01*
X427890Y180130D01*
D02*
G37*
G36*
X53330Y58730D02*
X40102D01*
X40434Y56204D01*
X41899Y52667D01*
X44230Y49630D01*
X47267Y47299D01*
X50804Y45834D01*
X53330Y45502D01*
Y58730D01*
D02*
G37*
G36*
X119940Y74540D02*
X90860D01*
Y45460D01*
X119940D01*
Y74540D01*
D02*
G37*
G36*
X450050Y60498D02*
X448438Y60286D01*
X445752Y59173D01*
X443446Y57404D01*
X441677Y55098D01*
X440564Y52412D01*
X440352Y50800D01*
X450050D01*
Y60498D01*
D02*
G37*
G36*
X69098Y58730D02*
X55870D01*
Y45502D01*
X58396Y45834D01*
X61933Y47299D01*
X64970Y49630D01*
X67301Y52667D01*
X68766Y56204D01*
X69098Y58730D01*
D02*
G37*
G36*
X462288Y48260D02*
X452590D01*
Y38562D01*
X454202Y38774D01*
X456888Y39887D01*
X459194Y41656D01*
X460963Y43962D01*
X462076Y46648D01*
X462288Y48260D01*
D02*
G37*
G36*
X319240Y35265D02*
X316358Y34886D01*
X313672Y33773D01*
X311366Y32004D01*
X309597Y29698D01*
X308484Y27012D01*
X308105Y24130D01*
X308484Y21248D01*
X309597Y18562D01*
X311366Y16256D01*
X313672Y14487D01*
X316358Y13374D01*
X319240Y12995D01*
X322122Y13374D01*
X324808Y14487D01*
X327114Y16256D01*
X328883Y18562D01*
X329996Y21248D01*
X330375Y24130D01*
X329996Y27012D01*
X328883Y29698D01*
X327114Y32004D01*
X324808Y33773D01*
X322122Y34886D01*
X319240Y35265D01*
D02*
G37*
G36*
X219240D02*
X216358Y34886D01*
X213672Y33773D01*
X211366Y32004D01*
X209597Y29698D01*
X208484Y27012D01*
X208105Y24130D01*
X208484Y21248D01*
X209597Y18562D01*
X211366Y16256D01*
X213672Y14487D01*
X216358Y13374D01*
X219240Y12995D01*
X222122Y13374D01*
X224808Y14487D01*
X227114Y16256D01*
X228883Y18562D01*
X229996Y21248D01*
X230375Y24130D01*
X229996Y27012D01*
X228883Y29698D01*
X227114Y32004D01*
X224808Y33773D01*
X222122Y34886D01*
X219240Y35265D01*
D02*
G37*
G36*
X450050Y48260D02*
X440352D01*
X440564Y46648D01*
X441677Y43962D01*
X443446Y41656D01*
X445752Y39887D01*
X448438Y38774D01*
X450050Y38562D01*
Y48260D01*
D02*
G37*
G36*
X351320Y60665D02*
X348438Y60286D01*
X345752Y59173D01*
X343446Y57404D01*
X341677Y55098D01*
X340564Y52412D01*
X340185Y49530D01*
X340564Y46648D01*
X341677Y43962D01*
X343446Y41656D01*
X345752Y39887D01*
X348438Y38774D01*
X351320Y38395D01*
X354202Y38774D01*
X356888Y39887D01*
X359194Y41656D01*
X360963Y43962D01*
X362076Y46648D01*
X362455Y49530D01*
X362076Y52412D01*
X360963Y55098D01*
X359194Y57404D01*
X356888Y59173D01*
X354202Y60286D01*
X351320Y60665D01*
D02*
G37*
G36*
X452590Y60498D02*
Y50800D01*
X462288D01*
X462076Y52412D01*
X460963Y55098D01*
X459194Y57404D01*
X456888Y59173D01*
X454202Y60286D01*
X452590Y60498D01*
D02*
G37*
G36*
X220510Y85898D02*
Y76200D01*
X230208D01*
X229996Y77812D01*
X228883Y80498D01*
X227114Y82804D01*
X224808Y84573D01*
X222122Y85686D01*
X220510Y85898D01*
D02*
G37*
G36*
X217970D02*
X216358Y85686D01*
X213672Y84573D01*
X211366Y82804D01*
X209597Y80498D01*
X208484Y77812D01*
X208272Y76200D01*
X217970D01*
Y85898D01*
D02*
G37*
G36*
X127470Y157185D02*
X124588Y156806D01*
X121902Y155693D01*
X119596Y153924D01*
X117827Y151618D01*
X116714Y148932D01*
X116335Y146050D01*
X116714Y143168D01*
X117827Y140482D01*
X119596Y138176D01*
X121902Y136407D01*
X124588Y135294D01*
X127470Y134915D01*
X130352Y135294D01*
X133038Y136407D01*
X135344Y138176D01*
X137113Y140482D01*
X138226Y143168D01*
X138605Y146050D01*
X138226Y148932D01*
X137113Y151618D01*
X135344Y153924D01*
X133038Y155693D01*
X130352Y156806D01*
X127470Y157185D01*
D02*
G37*
G36*
X350520Y154175D02*
X347638Y153796D01*
X344952Y152683D01*
X342646Y150914D01*
X340877Y148608D01*
X339764Y145922D01*
X339385Y143040D01*
X339764Y140158D01*
X340877Y137472D01*
X342646Y135166D01*
X344952Y133397D01*
X347638Y132284D01*
X350520Y131905D01*
X353402Y132284D01*
X356088Y133397D01*
X358394Y135166D01*
X360163Y137472D01*
X361276Y140158D01*
X361655Y143040D01*
X361276Y145922D01*
X360163Y148608D01*
X358394Y150914D01*
X356088Y152683D01*
X353402Y153796D01*
X350520Y154175D01*
D02*
G37*
G36*
X230208Y73660D02*
X220510D01*
Y63962D01*
X222122Y64174D01*
X224808Y65287D01*
X227114Y67056D01*
X228883Y69362D01*
X229996Y72048D01*
X230208Y73660D01*
D02*
G37*
G36*
X55870Y74498D02*
Y61270D01*
X69098D01*
X68766Y63796D01*
X67301Y67333D01*
X64970Y70370D01*
X61933Y72701D01*
X58396Y74166D01*
X55870Y74498D01*
D02*
G37*
G36*
X53330D02*
X50804Y74166D01*
X47267Y72701D01*
X44230Y70370D01*
X41899Y67333D01*
X40434Y63796D01*
X40102Y61270D01*
X53330D01*
Y74498D01*
D02*
G37*
G36*
X217970Y73660D02*
X208272D01*
X208484Y72048D01*
X209597Y69362D01*
X211366Y67056D01*
X213672Y65287D01*
X216358Y64174D01*
X217970Y63962D01*
Y73660D01*
D02*
G37*
G36*
X319240Y86065D02*
X316358Y85686D01*
X313672Y84573D01*
X311366Y82804D01*
X309597Y80498D01*
X308484Y77812D01*
X308105Y74930D01*
X308484Y72048D01*
X309597Y69362D01*
X311366Y67056D01*
X313672Y65287D01*
X316358Y64174D01*
X319240Y63795D01*
X322122Y64174D01*
X324808Y65287D01*
X327114Y67056D01*
X328883Y69362D01*
X329996Y72048D01*
X330375Y74930D01*
X329996Y77812D01*
X328883Y80498D01*
X327114Y82804D01*
X324808Y84573D01*
X322122Y85686D01*
X319240Y86065D01*
D02*
G37*
G36*
X446560Y235518D02*
X435560D01*
X433398Y235089D01*
X431566Y233864D01*
X430341Y232032D01*
X429911Y229870D01*
X430341Y227708D01*
X431566Y225876D01*
X433398Y224651D01*
X435560Y224221D01*
X446560D01*
X448722Y224651D01*
X450554Y225876D01*
X451778Y227708D01*
X452209Y229870D01*
X451778Y232032D01*
X450554Y233864D01*
X448722Y235089D01*
X446560Y235518D01*
D02*
G37*
G36*
X514350Y303705D02*
X511468Y303326D01*
X508782Y302213D01*
X506476Y300444D01*
X504707Y298138D01*
X503594Y295452D01*
X503215Y292570D01*
X503594Y289688D01*
X504707Y287002D01*
X506476Y284696D01*
X508782Y282927D01*
X511468Y281814D01*
X514350Y281435D01*
X517232Y281814D01*
X519918Y282927D01*
X522224Y284696D01*
X523993Y287002D01*
X525106Y289688D01*
X525485Y292570D01*
X525106Y295452D01*
X523993Y298138D01*
X522224Y300444D01*
X519918Y302213D01*
X517232Y303326D01*
X514350Y303705D01*
D02*
G37*
G36*
X145290Y281130D02*
X123210D01*
Y270050D01*
X145290D01*
Y281130D01*
D02*
G37*
G36*
X262890Y335455D02*
X260008Y335076D01*
X257322Y333963D01*
X255016Y332194D01*
X253247Y329888D01*
X252134Y327202D01*
X251755Y324320D01*
X252134Y321438D01*
X253247Y318752D01*
X255016Y316446D01*
X257322Y314677D01*
X260008Y313564D01*
X262890Y313185D01*
X265772Y313564D01*
X268458Y314677D01*
X270764Y316446D01*
X272533Y318752D01*
X273646Y321438D01*
X274025Y324320D01*
X273646Y327202D01*
X272533Y329888D01*
X270764Y332194D01*
X268458Y333963D01*
X265772Y335076D01*
X262890Y335455D01*
D02*
G37*
G36*
X565150Y303705D02*
X562268Y303326D01*
X559582Y302213D01*
X557276Y300444D01*
X555507Y298138D01*
X554394Y295452D01*
X554015Y292570D01*
X554394Y289688D01*
X555507Y287002D01*
X557276Y284696D01*
X559582Y282927D01*
X562268Y281814D01*
X565150Y281435D01*
X568032Y281814D01*
X570718Y282927D01*
X573024Y284696D01*
X574793Y287002D01*
X575906Y289688D01*
X576285Y292570D01*
X575906Y295452D01*
X574793Y298138D01*
X573024Y300444D01*
X570718Y302213D01*
X568032Y303326D01*
X565150Y303705D01*
D02*
G37*
G36*
X403100Y273510D02*
X381020D01*
Y262430D01*
X403100D01*
Y273510D01*
D02*
G37*
G36*
X446560Y273619D02*
X435560D01*
X433398Y273189D01*
X431566Y271964D01*
X430341Y270132D01*
X429911Y267970D01*
X430341Y265808D01*
X431566Y263976D01*
X433398Y262751D01*
X435560Y262321D01*
X446560D01*
X448722Y262751D01*
X450554Y263976D01*
X451778Y265808D01*
X452209Y267970D01*
X451778Y270132D01*
X450554Y271964D01*
X448722Y273189D01*
X446560Y273619D01*
D02*
G37*
G36*
X559370Y414130D02*
X546100D01*
Y400860D01*
X559370D01*
Y414130D01*
D02*
G37*
G36*
X188750Y281238D02*
X177750D01*
X175588Y280809D01*
X173756Y279584D01*
X172532Y277752D01*
X172101Y275590D01*
X172532Y273428D01*
X173756Y271596D01*
X175588Y270371D01*
X177750Y269942D01*
X188750D01*
X190912Y270371D01*
X192744Y271596D01*
X193969Y273428D01*
X194398Y275590D01*
X193969Y277752D01*
X192744Y279584D01*
X190912Y280809D01*
X188750Y281238D01*
D02*
G37*
G36*
X339890Y337525D02*
X337008Y337146D01*
X334322Y336033D01*
X332016Y334264D01*
X330247Y331958D01*
X329134Y329272D01*
X328755Y326390D01*
X329134Y323508D01*
X330247Y320822D01*
X332016Y318516D01*
X334322Y316747D01*
X337008Y315634D01*
X339890Y315255D01*
X342772Y315634D01*
X345458Y316747D01*
X347764Y318516D01*
X349533Y320822D01*
X350646Y323508D01*
X351025Y326390D01*
X350646Y329272D01*
X349533Y331958D01*
X347764Y334264D01*
X345458Y336033D01*
X342772Y337146D01*
X339890Y337525D01*
D02*
G37*
G36*
Y385785D02*
X337008Y385406D01*
X334322Y384293D01*
X332016Y382524D01*
X330247Y380218D01*
X329134Y377532D01*
X328755Y374650D01*
X329134Y371768D01*
X330247Y369082D01*
X332016Y366776D01*
X334322Y365007D01*
X337008Y363894D01*
X339890Y363515D01*
X342772Y363894D01*
X345458Y365007D01*
X347764Y366776D01*
X349533Y369082D01*
X350646Y371768D01*
X351025Y374650D01*
X350646Y377532D01*
X349533Y380218D01*
X347764Y382524D01*
X345458Y384293D01*
X342772Y385406D01*
X339890Y385785D01*
D02*
G37*
G36*
X243040Y374355D02*
X240158Y373976D01*
X237472Y372863D01*
X235166Y371094D01*
X233397Y368788D01*
X232284Y366102D01*
X231905Y363220D01*
X232284Y360338D01*
X233397Y357652D01*
X235166Y355346D01*
X237472Y353577D01*
X240158Y352464D01*
X243040Y352085D01*
X245922Y352464D01*
X248608Y353577D01*
X250914Y355346D01*
X252683Y357652D01*
X253796Y360338D01*
X254175Y363220D01*
X253796Y366102D01*
X252683Y368788D01*
X250914Y371094D01*
X248608Y372863D01*
X245922Y373976D01*
X243040Y374355D01*
D02*
G37*
G36*
X543560Y414130D02*
X530290D01*
Y400860D01*
X543560D01*
Y414130D01*
D02*
G37*
G36*
X439890Y385785D02*
X437008Y385406D01*
X434322Y384293D01*
X432016Y382524D01*
X430247Y380218D01*
X429134Y377532D01*
X428755Y374650D01*
X429134Y371768D01*
X430247Y369082D01*
X432016Y366776D01*
X434322Y365007D01*
X437008Y363894D01*
X439890Y363515D01*
X442772Y363894D01*
X445458Y365007D01*
X447764Y366776D01*
X449533Y369082D01*
X450646Y371768D01*
X451025Y374650D01*
X450646Y377532D01*
X449533Y380218D01*
X447764Y382524D01*
X445458Y384293D01*
X442772Y385406D01*
X439890Y385785D01*
D02*
G37*
G36*
X544830Y379266D02*
X541034Y378766D01*
X537497Y377301D01*
X534460Y374970D01*
X532129Y371933D01*
X530664Y368396D01*
X530164Y364600D01*
X530664Y360804D01*
X532129Y357267D01*
X534460Y354230D01*
X537497Y351899D01*
X541034Y350434D01*
X544830Y349935D01*
X548626Y350434D01*
X552163Y351899D01*
X555200Y354230D01*
X557531Y357267D01*
X558996Y360804D01*
X559496Y364600D01*
X558996Y368396D01*
X557531Y371933D01*
X555200Y374970D01*
X552163Y377301D01*
X548626Y378766D01*
X544830Y379266D01*
D02*
G37*
G36*
X439890Y337525D02*
X437008Y337146D01*
X434322Y336033D01*
X432016Y334264D01*
X430247Y331958D01*
X429134Y329272D01*
X428755Y326390D01*
X429134Y323508D01*
X430247Y320822D01*
X432016Y318516D01*
X434322Y316747D01*
X437008Y315634D01*
X439890Y315255D01*
X442772Y315634D01*
X445458Y316747D01*
X447764Y318516D01*
X449533Y320822D01*
X450646Y323508D01*
X451025Y326390D01*
X450646Y329272D01*
X449533Y331958D01*
X447764Y334264D01*
X445458Y336033D01*
X442772Y337146D01*
X439890Y337525D01*
D02*
G37*
G36*
X143040Y374355D02*
X140158Y373976D01*
X137472Y372863D01*
X135166Y371094D01*
X133397Y368788D01*
X132284Y366102D01*
X131905Y363220D01*
X132284Y360338D01*
X133397Y357652D01*
X135166Y355346D01*
X137472Y353577D01*
X140158Y352464D01*
X143040Y352085D01*
X145922Y352464D01*
X148608Y353577D01*
X150914Y355346D01*
X152683Y357652D01*
X153796Y360338D01*
X154175Y363220D01*
X153796Y366102D01*
X152683Y368788D01*
X150914Y371094D01*
X148608Y372863D01*
X145922Y373976D01*
X143040Y374355D01*
D02*
G37*
G36*
X67880Y379140D02*
X38800D01*
Y350060D01*
X67880D01*
Y379140D01*
D02*
G37*
G36*
X67838Y414130D02*
X54610D01*
Y400902D01*
X57136Y401234D01*
X60673Y402699D01*
X63710Y405030D01*
X66041Y408067D01*
X67506Y411604D01*
X67838Y414130D01*
D02*
G37*
G36*
X132980Y236220D02*
X123354D01*
X123532Y235328D01*
X124756Y233496D01*
X126588Y232271D01*
X128750Y231842D01*
X132980D01*
Y236220D01*
D02*
G37*
G36*
X52070Y429898D02*
X49544Y429566D01*
X46007Y428101D01*
X42970Y425770D01*
X40639Y422733D01*
X39174Y419196D01*
X38842Y416670D01*
X52070D01*
Y429898D01*
D02*
G37*
G36*
X188750Y243139D02*
X177750D01*
X175588Y242709D01*
X173756Y241484D01*
X172532Y239652D01*
X172101Y237490D01*
X172532Y235328D01*
X173756Y233496D01*
X175588Y232271D01*
X177750Y231842D01*
X188750D01*
X190912Y232271D01*
X192744Y233496D01*
X193969Y235328D01*
X194398Y237490D01*
X193969Y239652D01*
X192744Y241484D01*
X190912Y242709D01*
X188750Y243139D01*
D02*
G37*
G36*
X145146Y236220D02*
X135520D01*
Y231842D01*
X139750D01*
X141912Y232271D01*
X143744Y233496D01*
X144969Y235328D01*
X145146Y236220D01*
D02*
G37*
G36*
X390790Y235518D02*
X386560D01*
X384398Y235089D01*
X382566Y233864D01*
X381342Y232032D01*
X381164Y231140D01*
X390790D01*
Y235518D01*
D02*
G37*
G36*
X559370Y429940D02*
X546100D01*
Y416670D01*
X559370D01*
Y429940D01*
D02*
G37*
G36*
X54610Y429898D02*
Y416670D01*
X67838D01*
X67506Y419196D01*
X66041Y422733D01*
X63710Y425770D01*
X60673Y428101D01*
X57136Y429566D01*
X54610Y429898D01*
D02*
G37*
G36*
X397560Y235518D02*
X393330D01*
Y231140D01*
X402956D01*
X402779Y232032D01*
X401554Y233864D01*
X399722Y235089D01*
X397560Y235518D01*
D02*
G37*
G36*
X350520Y254175D02*
X347638Y253796D01*
X344952Y252683D01*
X342646Y250914D01*
X340877Y248608D01*
X339764Y245922D01*
X339385Y243040D01*
X339764Y240158D01*
X340877Y237472D01*
X342646Y235166D01*
X344952Y233397D01*
X347638Y232284D01*
X350520Y231905D01*
X353402Y232284D01*
X356088Y233397D01*
X357842Y234743D01*
X357934Y234794D01*
X358154Y234982D01*
X358394Y235166D01*
X358440Y235226D01*
X358490Y235269D01*
X358987Y235637D01*
X359490Y235956D01*
X360000Y236228D01*
X360520Y236457D01*
X361053Y236643D01*
X361602Y236789D01*
X362171Y236893D01*
X362433Y236922D01*
X397560D01*
X399722Y237351D01*
X401554Y238576D01*
X402779Y240408D01*
X403209Y242570D01*
X402779Y244732D01*
X401554Y246564D01*
X399722Y247789D01*
X397560Y248218D01*
X362838D01*
X362552Y248252D01*
X362016Y248362D01*
X361510Y248512D01*
X361030Y248702D01*
X360571Y248935D01*
X360127Y249212D01*
X359694Y249539D01*
X359272Y249918D01*
X358789Y250427D01*
X358741Y250461D01*
X358394Y250914D01*
X356088Y252683D01*
X353402Y253796D01*
X350520Y254175D01*
D02*
G37*
G36*
X52070Y414130D02*
X38842D01*
X39174Y411604D01*
X40639Y408067D01*
X42970Y405030D01*
X46007Y402699D01*
X49544Y401234D01*
X52070Y400902D01*
Y414130D01*
D02*
G37*
G36*
X143040Y431505D02*
X140158Y431126D01*
X137472Y430013D01*
X135166Y428244D01*
X133397Y425938D01*
X132284Y423252D01*
X131905Y420370D01*
X132284Y417488D01*
X133397Y414802D01*
X135166Y412496D01*
X137472Y410727D01*
X140158Y409614D01*
X143040Y409235D01*
X145922Y409614D01*
X148608Y410727D01*
X150914Y412496D01*
X152683Y414802D01*
X153796Y417488D01*
X154175Y420370D01*
X153796Y423252D01*
X152683Y425938D01*
X150914Y428244D01*
X148608Y430013D01*
X145922Y431126D01*
X143040Y431505D01*
D02*
G37*
G36*
X212090Y277035D02*
X209208Y276656D01*
X206522Y275543D01*
X204216Y273774D01*
X202447Y271468D01*
X202088Y270602D01*
X201994Y270482D01*
X201734Y269966D01*
X201522Y269646D01*
X201297Y269384D01*
X201055Y269167D01*
X200783Y268982D01*
X200464Y268821D01*
X200086Y268685D01*
X199634Y268577D01*
X199340Y268538D01*
X177750D01*
X175588Y268109D01*
X173756Y266884D01*
X172532Y265052D01*
X172101Y262890D01*
X172532Y260728D01*
X173756Y258896D01*
X175588Y257671D01*
X177750Y257241D01*
X202102D01*
X202962Y257165D01*
X203321Y257108D01*
X203221Y255839D01*
X172520D01*
X161474Y266884D01*
X159642Y268109D01*
X157480Y268539D01*
X157480Y268538D01*
X128750D01*
X126588Y268109D01*
X124756Y266884D01*
X123532Y265052D01*
X123102Y262890D01*
X123532Y260728D01*
X124756Y258896D01*
X126588Y257671D01*
X128750Y257241D01*
X155140D01*
X166186Y246196D01*
X166186Y246196D01*
X168018Y244971D01*
X170180Y244541D01*
X170180Y244541D01*
X234680D01*
X250316Y228906D01*
X250489Y228689D01*
X250804Y228221D01*
X251072Y227744D01*
X251297Y227251D01*
X251479Y226740D01*
X251622Y226207D01*
X251723Y225646D01*
X251783Y225055D01*
X251794Y224620D01*
X251755Y224320D01*
X252134Y221438D01*
X253247Y218752D01*
X255016Y216446D01*
X257322Y214677D01*
X260008Y213564D01*
X262890Y213185D01*
X265772Y213564D01*
X268458Y214677D01*
X270764Y216446D01*
X272533Y218752D01*
X273646Y221438D01*
X274025Y224320D01*
X273646Y227202D01*
X272533Y229888D01*
X270764Y232194D01*
X268458Y233963D01*
X265772Y235076D01*
X262890Y235455D01*
X262590Y235416D01*
X262155Y235427D01*
X261564Y235487D01*
X261003Y235588D01*
X260470Y235731D01*
X259959Y235913D01*
X259466Y236138D01*
X258988Y236406D01*
X258521Y236721D01*
X258304Y236894D01*
X241014Y254184D01*
X239182Y255409D01*
X237020Y255839D01*
X237020Y255839D01*
X219199D01*
X218768Y257108D01*
X219964Y258026D01*
X221733Y260332D01*
X222846Y263018D01*
X223225Y265900D01*
X222846Y268782D01*
X221733Y271468D01*
X219964Y273774D01*
X217658Y275543D01*
X214972Y276656D01*
X212090Y277035D01*
D02*
G37*
G36*
X472440D02*
X469558Y276656D01*
X466872Y275543D01*
X464566Y273774D01*
X462797Y271468D01*
X461684Y268782D01*
X461305Y265900D01*
X461344Y265600D01*
X461333Y265165D01*
X461273Y264574D01*
X461172Y264013D01*
X461029Y263480D01*
X460847Y262969D01*
X460622Y262476D01*
X460354Y261999D01*
X460039Y261531D01*
X459866Y261314D01*
X459470Y260919D01*
X435560D01*
X433398Y260489D01*
X431566Y259264D01*
X430341Y257432D01*
X429911Y255270D01*
X430341Y253108D01*
X431566Y251276D01*
X433398Y250051D01*
X435560Y249622D01*
X461810D01*
X461810Y249621D01*
X463972Y250051D01*
X465804Y251276D01*
X467854Y253326D01*
X468071Y253499D01*
X468539Y253814D01*
X469016Y254082D01*
X469509Y254307D01*
X470020Y254489D01*
X470553Y254632D01*
X471114Y254733D01*
X471705Y254793D01*
X472140Y254804D01*
X472440Y254765D01*
X475322Y255144D01*
X478008Y256257D01*
X480314Y258026D01*
X482083Y260332D01*
X483196Y263018D01*
X483575Y265900D01*
X483196Y268782D01*
X482083Y271468D01*
X480314Y273774D01*
X478008Y275543D01*
X475322Y276656D01*
X472440Y277035D01*
D02*
G37*
G36*
X243040Y431505D02*
X240158Y431126D01*
X237472Y430013D01*
X235166Y428244D01*
X233397Y425938D01*
X232284Y423252D01*
X231905Y420370D01*
X232284Y417488D01*
X233397Y414802D01*
X235166Y412496D01*
X237472Y410727D01*
X240158Y409614D01*
X243040Y409235D01*
X245922Y409614D01*
X248608Y410727D01*
X250914Y412496D01*
X252683Y414802D01*
X253796Y417488D01*
X254175Y420370D01*
X253796Y423252D01*
X252683Y425938D01*
X250914Y428244D01*
X248608Y430013D01*
X245922Y431126D01*
X243040Y431505D01*
D02*
G37*
G36*
X543560Y429940D02*
X530290D01*
Y416670D01*
X543560D01*
Y429940D01*
D02*
G37*
G36*
X139750Y243139D02*
X135520D01*
Y238760D01*
X145146D01*
X144969Y239652D01*
X143744Y241484D01*
X141912Y242709D01*
X139750Y243139D01*
D02*
G37*
G36*
X132980D02*
X128750D01*
X126588Y242709D01*
X124756Y241484D01*
X123532Y239652D01*
X123354Y238760D01*
X132980D01*
Y243139D01*
D02*
G37*
%LPD*%
G36*
X78191Y205229D02*
X77642Y204638D01*
X77151Y204022D01*
X76719Y203381D01*
X76346Y202716D01*
X76032Y202026D01*
X75776Y201311D01*
X75579Y200572D01*
X75440Y199808D01*
X75361Y199019D01*
X75340Y198205D01*
X66925Y206620D01*
X67739Y206641D01*
X68528Y206720D01*
X69292Y206859D01*
X70031Y207056D01*
X70746Y207312D01*
X71436Y207626D01*
X72101Y207999D01*
X72742Y208431D01*
X73358Y208922D01*
X73948Y209471D01*
X78191Y205229D01*
D02*
G37*
G36*
X507832Y203372D02*
X508448Y202881D01*
X509089Y202449D01*
X509754Y202076D01*
X510444Y201762D01*
X511158Y201506D01*
X511898Y201309D01*
X512662Y201170D01*
X513451Y201091D01*
X514265Y201070D01*
X505850Y192655D01*
X505829Y193469D01*
X505750Y194258D01*
X505611Y195022D01*
X505414Y195762D01*
X505158Y196476D01*
X504844Y197166D01*
X504470Y197831D01*
X504039Y198472D01*
X503548Y199088D01*
X502999Y199678D01*
X507242Y203921D01*
X507832Y203372D01*
D02*
G37*
G36*
X432040Y173390D02*
X428090Y169440D01*
X424190Y173340D01*
X427890Y177540D01*
X432040Y173390D01*
D02*
G37*
G36*
X416601Y168532D02*
X417252Y168452D01*
X418019Y168290D01*
X418675Y168080D01*
X419457Y167729D01*
X420248Y167245D01*
X421016Y166613D01*
X421780Y165742D01*
X422268Y164959D01*
X422621Y164148D01*
X422873Y163200D01*
X423021Y161922D01*
X423034Y161089D01*
X422976Y160160D01*
X422786Y159055D01*
X422538Y158241D01*
X422178Y157438D01*
X421686Y156623D01*
X421220Y155982D01*
X420670Y155323D01*
X420040Y154704D01*
X419415Y154234D01*
X418683Y153796D01*
X418189Y153530D01*
X418775Y153356D01*
X419284Y153210D01*
X419701Y153031D01*
X419969Y152887D01*
X420359Y152644D01*
X420615Y152477D01*
X420943Y152290D01*
X421222Y152178D01*
X421443Y152122D01*
X421670Y152087D01*
X421900Y152072D01*
X422055Y152072D01*
X422363Y152100D01*
X422588Y152146D01*
X422872Y152245D01*
X423197Y152431D01*
X423434Y152620D01*
X423714Y152886D01*
X423930Y153108D01*
X424248Y153440D01*
X424557Y153774D01*
X424852Y154117D01*
X425039Y154353D01*
X425303Y154721D01*
X425507Y155040D01*
X425697Y155369D01*
X425841Y155638D01*
X425943Y155843D01*
X426105Y156190D01*
X426198Y156400D01*
X426318Y156682D01*
X426437Y156964D01*
X426558Y157244D01*
X426715Y157589D01*
X426885Y157927D01*
X427112Y158317D01*
X427371Y158686D01*
X427657Y159040D01*
X427902Y159332D01*
X428192Y159688D01*
X428381Y159928D01*
X428665Y160289D01*
X428856Y160526D01*
X429051Y160759D01*
X429355Y161095D01*
X429624Y161358D01*
X429970Y161649D01*
X430340Y161911D01*
X430933Y162256D01*
X431346Y162459D01*
X431696Y162614D01*
X432123Y162782D01*
X432555Y162929D01*
X432994Y163055D01*
X433588Y163188D01*
X434039Y163258D01*
X434572Y163306D01*
X434878Y163317D01*
X435339Y163309D01*
X435645Y163287D01*
X435873Y163262D01*
X436100Y163228D01*
X436474Y163154D01*
X436914Y163034D01*
X437271Y162908D01*
X437756Y162693D01*
X438158Y162480D01*
X438422Y162327D01*
X438683Y162168D01*
X439069Y161922D01*
X439386Y161710D01*
X439697Y161491D01*
X439999Y161262D01*
X440292Y161022D01*
X440571Y160767D01*
X440837Y160498D01*
X441140Y160158D01*
X441381Y159863D01*
X441658Y159500D01*
X441967Y159066D01*
X442379Y158429D01*
X442570Y158102D01*
X442855Y157566D01*
X443050Y157155D01*
X443231Y156736D01*
X443424Y156240D01*
X443575Y155810D01*
X443756Y155230D01*
X443838Y154937D01*
X443915Y154644D01*
X444022Y154201D01*
X444147Y153607D01*
X444217Y153233D01*
X444291Y152784D01*
X444336Y152483D01*
X444377Y152181D01*
X444414Y151879D01*
X444455Y151501D01*
X444498Y151046D01*
X444543Y150438D01*
X444567Y149982D01*
X444581Y149526D01*
X444587Y149070D01*
X444585Y148766D01*
X444578Y148462D01*
X444559Y148007D01*
X444528Y147552D01*
X444469Y146948D01*
X444410Y146496D01*
X444337Y146047D01*
X444251Y145599D01*
X444151Y145154D01*
X444035Y144713D01*
X443905Y144276D01*
X443732Y143772D01*
X443567Y143346D01*
X443417Y142996D01*
X443255Y142650D01*
X443118Y142378D01*
X442974Y142109D01*
X442704Y141648D01*
X442456Y141264D01*
X442055Y140708D01*
X441913Y140529D01*
X441465Y140009D01*
X441202Y139734D01*
X440531Y139111D01*
X440116Y138774D01*
X439558Y138370D01*
X437816Y137403D01*
X437390Y137225D01*
X436958Y137067D01*
X436592Y136952D01*
X436297Y136873D01*
X435851Y136776D01*
X435325Y136699D01*
X434871Y136667D01*
X434492Y136666D01*
X433733Y136733D01*
X433281Y136815D01*
X432907Y136907D01*
X432176Y137151D01*
X431819Y137303D01*
X431390Y137490D01*
X430867Y137824D01*
X429828Y138633D01*
X429447Y139015D01*
X429049Y139482D01*
X428867Y139727D01*
X428616Y140108D01*
X428394Y140503D01*
X428143Y141048D01*
X427986Y141471D01*
X427796Y142122D01*
X427663Y142717D01*
X427559Y143323D01*
X427510Y143675D01*
X427515Y143629D01*
X427495Y143783D01*
X427510Y143675D01*
X427384Y144789D01*
X427332Y145410D01*
X427302Y145950D01*
X427292Y146483D01*
X427309Y147040D01*
X427342Y147444D01*
X427390Y147801D01*
X427561Y148517D01*
X427670Y148819D01*
X427809Y149133D01*
X427963Y149302D01*
X428113Y149314D01*
X428257Y149157D01*
X428262Y148535D01*
X428256Y147942D01*
X428318Y147507D01*
X428465Y147037D01*
X428655Y146528D01*
X428851Y146078D01*
X429156Y145570D01*
X429541Y145118D01*
X429876Y144830D01*
X430200Y144607D01*
X430628Y144359D01*
X430935Y144197D01*
X431338Y144008D01*
X431752Y143858D01*
X432231Y143757D01*
X432871Y143696D01*
X433810Y143660D01*
X434547Y143690D01*
X435082Y143762D01*
X436033Y144024D01*
X436664Y144302D01*
X437217Y144621D01*
X437547Y144838D01*
X438030Y145183D01*
X438423Y145484D01*
X438652Y145673D01*
X438802Y145801D01*
X439092Y146068D01*
X439334Y146313D01*
X439690Y146719D01*
X439985Y147113D01*
X440301Y147612D01*
X440535Y148048D01*
X440705Y148405D01*
X441135Y149562D01*
X441402Y150712D01*
X441487Y151346D01*
X441532Y151885D01*
X441557Y152377D01*
X441569Y152870D01*
X441571Y153116D01*
X441566Y153461D01*
X441535Y154050D01*
X441500Y154392D01*
X441437Y154830D01*
X441321Y155410D01*
X441198Y155888D01*
X441082Y156266D01*
X440893Y156775D01*
X440685Y157221D01*
X440382Y157728D01*
X440082Y158119D01*
X439845Y158370D01*
X439586Y158600D01*
X439306Y158802D01*
X439095Y158929D01*
X438311Y159224D01*
X438020Y159275D01*
X437626Y159299D01*
X437184Y159272D01*
X436604Y159157D01*
X436228Y159034D01*
X435605Y158736D01*
X435056Y158323D01*
X434813Y158081D01*
X434548Y157787D01*
X434224Y157412D01*
X434033Y157186D01*
X433847Y156956D01*
X433559Y156559D01*
X433333Y156181D01*
X433150Y155833D01*
X432931Y155391D01*
X432655Y154867D01*
X432435Y154483D01*
X432205Y154105D01*
X432020Y153815D01*
X431776Y153445D01*
X431467Y153001D01*
X431171Y152608D01*
X430888Y152266D01*
X430523Y151865D01*
X430209Y151552D01*
X429843Y151224D01*
X429500Y150948D01*
X428877Y150550D01*
X428414Y150341D01*
X428071Y150222D01*
X427575Y150084D01*
X426912Y149938D01*
X426536Y149862D01*
X425977Y149767D01*
X425611Y149748D01*
X425105Y149778D01*
X424655Y149840D01*
X424272Y149910D01*
X423928Y149980D01*
X423455Y150084D01*
X423240Y150135D01*
X423462Y149805D01*
X423703Y149342D01*
X424003Y148731D01*
X424219Y148253D01*
X424380Y147864D01*
X424493Y147570D01*
X424565Y147373D01*
X424731Y146876D01*
X424821Y146575D01*
X424998Y145866D01*
X425118Y145201D01*
X425187Y144634D01*
X425226Y144115D01*
X425243Y143384D01*
X425206Y142437D01*
X425148Y141803D01*
X425041Y141008D01*
X424908Y140267D01*
X424707Y139431D01*
X424498Y138772D01*
X424264Y138185D01*
X423985Y137627D01*
X423744Y137229D01*
X423473Y136854D01*
X423028Y136353D01*
X422765Y136102D01*
X422405Y135797D01*
X422197Y135636D01*
X421897Y135420D01*
X421632Y135243D01*
X421361Y135072D01*
X421040Y134880D01*
X420668Y134671D01*
X420386Y134521D01*
X420054Y134353D01*
X419623Y134151D01*
X419040Y133909D01*
X418498Y133719D01*
X418048Y133587D01*
X417746Y133513D01*
X417237Y133415D01*
X416773Y133355D01*
X416306Y133320D01*
X415940Y133308D01*
X415205Y133323D01*
X414364Y133391D01*
X413944Y133443D01*
X413265Y133546D01*
X412437Y133708D01*
X411926Y133830D01*
X411521Y133939D01*
X411020Y134091D01*
X410428Y134296D01*
X409847Y134529D01*
X408815Y135028D01*
X407919Y135564D01*
X407108Y136143D01*
X406381Y136752D01*
X405733Y137380D01*
X405126Y138056D01*
X404691Y138604D01*
X404311Y139133D01*
X404070Y139497D01*
X403782Y139962D01*
X403403Y140633D01*
X403199Y141025D01*
X402910Y141624D01*
X402706Y142081D01*
X402391Y142853D01*
X402106Y143636D01*
X401899Y144268D01*
X401596Y145325D01*
X401502Y145695D01*
X401113Y147579D01*
X400997Y148347D01*
X400883Y149343D01*
X400821Y150161D01*
X400788Y151125D01*
X400797Y151791D01*
X400885Y152887D01*
X401000Y153668D01*
X401066Y154043D01*
X401172Y154587D01*
X401303Y154931D01*
X401434Y154418D01*
X401473Y153469D01*
X401576Y152550D01*
X401777Y151509D01*
X402009Y150637D01*
X402241Y149906D01*
X402617Y148861D01*
X403001Y147899D01*
X403138Y147580D01*
X403730Y146316D01*
X404142Y145543D01*
X404429Y145050D01*
X404852Y144381D01*
X405307Y143731D01*
X405684Y143241D01*
X406319Y142505D01*
X406563Y142250D01*
X407007Y141823D01*
X407473Y141424D01*
X407749Y141209D01*
X408104Y140957D01*
X408470Y140723D01*
X408923Y140469D01*
X409235Y140316D01*
X409634Y140145D01*
X409960Y140023D01*
X410375Y139888D01*
X410797Y139772D01*
X411225Y139674D01*
X411657Y139594D01*
X412094Y139532D01*
X412532Y139485D01*
X412928Y139457D01*
X413412Y139438D01*
X413851Y139437D01*
X414201Y139447D01*
X414550Y139468D01*
X414984Y139508D01*
X415330Y139554D01*
X415845Y139644D01*
X416482Y139797D01*
X416818Y139898D01*
X417193Y140028D01*
X417605Y140193D01*
X417929Y140342D01*
X418246Y140505D01*
X418704Y140777D01*
X419137Y141082D01*
X419408Y141305D01*
X419725Y141604D01*
X420013Y141927D01*
X420341Y142382D01*
X420668Y142993D01*
X420802Y143316D01*
X420989Y143905D01*
X421069Y144253D01*
X421130Y144607D01*
X421185Y145103D01*
X421202Y145649D01*
X421171Y146191D01*
X421077Y146764D01*
X420899Y147351D01*
X420679Y147819D01*
X420418Y148212D01*
X420006Y148656D01*
X419560Y149013D01*
X418906Y149402D01*
X418203Y149704D01*
X417483Y149923D01*
X416376Y150102D01*
X415942Y150123D01*
X415413Y150113D01*
X414368Y149986D01*
X413884Y149853D01*
X413556Y149716D01*
X413192Y149484D01*
X413095Y149400D01*
X412976Y149276D01*
X412921Y149209D01*
X410693Y156758D01*
X411050Y156622D01*
X411486Y156475D01*
X411780Y156388D01*
X412300Y156258D01*
X412676Y156184D01*
X413129Y156119D01*
X413484Y156086D01*
X413941Y156066D01*
X414450Y156072D01*
X414859Y156094D01*
X415215Y156126D01*
X415596Y156174D01*
X416124Y156266D01*
X416720Y156410D01*
X416939Y156474D01*
X417444Y156649D01*
X417864Y156828D01*
X418138Y156962D01*
X418472Y157148D01*
X418859Y157401D01*
X419026Y157523D01*
X419286Y157737D01*
X419628Y158114D01*
X419807Y158445D01*
X419913Y158812D01*
X419961Y159305D01*
X419948Y159671D01*
X419924Y159902D01*
X419880Y160154D01*
X419812Y160424D01*
X419634Y160874D01*
X419482Y161143D01*
X419268Y161431D01*
X418978Y161716D01*
X418837Y161825D01*
X418557Y162003D01*
X418234Y162162D01*
X417873Y162302D01*
X417528Y162409D01*
X417279Y162471D01*
X417053Y162518D01*
X416446Y162599D01*
X416039Y162619D01*
X415836Y162619D01*
X415354Y162594D01*
X414949Y162546D01*
X414397Y162445D01*
X413802Y162295D01*
X413362Y162158D01*
X412594Y161875D01*
X412289Y161747D01*
X411733Y161491D01*
X411279Y161261D01*
X410656Y160913D01*
X410308Y160702D01*
X410028Y160525D01*
X409731Y160330D01*
X409353Y160071D01*
X409104Y159895D01*
X408773Y159657D01*
X408465Y159432D01*
X408261Y159281D01*
X408077Y159144D01*
X408036Y159114D01*
X405209Y164849D01*
X405761Y165323D01*
X406443Y165789D01*
X407077Y166201D01*
X407721Y166592D01*
X408582Y167057D01*
X409321Y167396D01*
X409959Y167642D01*
X410799Y167911D01*
X411370Y168062D01*
X412241Y168248D01*
X413025Y168376D01*
X413519Y168440D01*
X414115Y168500D01*
X414947Y168556D01*
X415611Y168572D01*
X416601Y168532D01*
D02*
G37*
G36*
X420090Y174390D02*
X420340Y173640D01*
X420790Y172840D01*
X421390Y171940D01*
X422040Y171140D01*
X422590Y170540D01*
X423290Y169940D01*
X423990Y169490D01*
X424840Y169090D01*
X425840Y168740D01*
X426890Y168490D01*
X427840Y168340D01*
X429640D01*
X430540Y168540D01*
X431690Y168890D01*
X432890Y169540D01*
X433740Y170040D01*
X434540Y170590D01*
X435540Y171390D01*
X436190Y172090D01*
X436740Y172740D01*
X440440Y168340D01*
X439840Y167790D01*
X438290Y166540D01*
X437190Y165840D01*
X435490Y165040D01*
X433490Y164340D01*
X431740Y163940D01*
X430440Y163790D01*
X429340Y163740D01*
X428440Y163790D01*
X427190Y163990D01*
X426090Y164340D01*
X425040Y164790D01*
X424340Y165240D01*
X423440Y165990D01*
X422540Y166790D01*
X421540Y168040D01*
X420690Y169240D01*
X419990Y170840D01*
X419540Y172740D01*
Y174290D01*
X419790Y175190D01*
X420090Y174390D01*
D02*
G37*
G36*
X357464Y248061D02*
X358046Y247538D01*
X358657Y247077D01*
X359297Y246677D01*
X359965Y246339D01*
X360662Y246062D01*
X361387Y245847D01*
X362141Y245693D01*
X362924Y245601D01*
X363735Y245570D01*
X363379Y239570D01*
X362578Y239542D01*
X361797Y239458D01*
X361035Y239317D01*
X360293Y239121D01*
X359570Y238868D01*
X358867Y238560D01*
X358184Y238195D01*
X357520Y237774D01*
X356876Y237297D01*
X356252Y236763D01*
X356910Y248645D01*
X357464Y248061D01*
D02*
G37*
G36*
X256372Y235122D02*
X256988Y234631D01*
X257629Y234200D01*
X258294Y233826D01*
X258984Y233512D01*
X259699Y233256D01*
X260438Y233059D01*
X261202Y232920D01*
X261991Y232841D01*
X262805Y232820D01*
X254390Y224405D01*
X254369Y225219D01*
X254290Y226008D01*
X254151Y226772D01*
X253954Y227512D01*
X253698Y228226D01*
X253384Y228916D01*
X253011Y229581D01*
X252579Y230222D01*
X252088Y230838D01*
X251539Y231429D01*
X255781Y235671D01*
X256372Y235122D01*
D02*
G37*
G36*
X208520Y258186D02*
X207782Y258510D01*
X206295Y259055D01*
X205546Y259277D01*
X204038Y259617D01*
X203279Y259737D01*
X201749Y259873D01*
X200979Y259890D01*
X198490Y265890D01*
X199325Y265924D01*
X200103Y266027D01*
X200825Y266198D01*
X201491Y266438D01*
X202101Y266746D01*
X202654Y267123D01*
X203152Y267568D01*
X203593Y268082D01*
X203978Y268664D01*
X204306Y269315D01*
X208520Y258186D01*
D02*
G37*
G36*
X472355Y257400D02*
X471541Y257379D01*
X470752Y257300D01*
X469988Y257161D01*
X469249Y256964D01*
X468534Y256708D01*
X467844Y256394D01*
X467179Y256021D01*
X466538Y255589D01*
X465922Y255098D01*
X465331Y254549D01*
X461089Y258792D01*
X461638Y259382D01*
X462129Y259998D01*
X462561Y260639D01*
X462934Y261304D01*
X463248Y261994D01*
X463504Y262708D01*
X463701Y263448D01*
X463840Y264212D01*
X463919Y265001D01*
X463940Y265815D01*
X472355Y257400D01*
D02*
G37*
D10*
X183250Y237490D02*
D03*
Y250190D02*
D03*
Y262890D02*
D03*
Y275590D02*
D03*
X134250Y237490D02*
D03*
Y250190D02*
D03*
Y262890D02*
D03*
X441060Y229870D02*
D03*
Y242570D02*
D03*
Y255270D02*
D03*
Y267970D02*
D03*
X392060Y229870D02*
D03*
Y242570D02*
D03*
Y255270D02*
D03*
D11*
X134250Y275590D02*
D03*
X392060Y267970D02*
D03*
D12*
X118910Y250190D02*
X134250D01*
X66840Y198120D02*
X118910Y250190D01*
X464350Y242570D02*
X514350Y192570D01*
X441060Y242570D02*
X464350D01*
X461810Y255270D02*
X472440Y265900D01*
X441060Y255270D02*
X461810D01*
X424180Y242570D02*
X441060D01*
X411480Y255270D02*
X424180Y242570D01*
X392060Y255270D02*
X411480D01*
X350520Y243040D02*
X350990Y242570D01*
X392060D01*
X209080Y262890D02*
X212090Y265900D01*
X183250Y262890D02*
X209080D01*
X170180Y250190D02*
X183250D01*
X157480Y262890D02*
X170180Y250190D01*
X134250Y262890D02*
X157480D01*
X237020Y250190D02*
X262890Y224320D01*
X183250Y250190D02*
X237020D01*
D13*
X0Y450000D02*
X600000D01*
Y0D02*
Y450000D01*
X0Y0D02*
X600000D01*
X0D02*
Y450000D01*
D14*
X105400Y60000D02*
D03*
D15*
X54600D02*
D03*
X544830Y364600D02*
D03*
X53340Y415400D02*
D03*
D16*
X544830D02*
D03*
X53340Y364600D02*
D03*
D17*
X262890Y324320D02*
D03*
Y224320D02*
D03*
X514350Y292570D02*
D03*
Y192570D02*
D03*
X143040Y363220D02*
D03*
X243040D02*
D03*
Y420370D02*
D03*
X143040D02*
D03*
X339890Y374650D02*
D03*
X439890D02*
D03*
Y326390D02*
D03*
X339890D02*
D03*
X565150Y292570D02*
D03*
Y192570D02*
D03*
X66840Y198120D02*
D03*
X166840D02*
D03*
X350520Y243040D02*
D03*
Y143040D02*
D03*
X219240Y24130D02*
D03*
X319240D02*
D03*
X212090Y165900D02*
D03*
Y265900D02*
D03*
X27470Y146050D02*
D03*
X127470D02*
D03*
X472440Y165900D02*
D03*
Y265900D02*
D03*
X451320Y49530D02*
D03*
X351320D02*
D03*
X319240Y74930D02*
D03*
X219240D02*
D03*
M02*
