G04 Layer_Physical_Order=2*
G04 Layer_Color=13278208*
%FSLAX44Y44*%
%MOMM*%
G71*
G01*
G75*
%ADD12C,0.6000*%
%ADD13C,0.5000*%
%ADD14R,2.4000X2.4000*%
%ADD15C,2.4000*%
%ADD16R,2.4000X2.4000*%
%ADD17C,1.7000*%
G36*
X590550Y444871D02*
Y6350D01*
X6350D01*
Y444500D01*
X589651Y445768D01*
X590550Y444871D01*
D02*
G37*
%LPC*%
G36*
X143040Y374355D02*
X140158Y373976D01*
X137472Y372863D01*
X135166Y371094D01*
X133397Y368788D01*
X132284Y366102D01*
X131905Y363220D01*
X132284Y360338D01*
X133397Y357652D01*
X135166Y355346D01*
X135406Y355162D01*
X135706Y354846D01*
X136082Y354386D01*
X136406Y353918D01*
X136683Y353440D01*
X136915Y352950D01*
X137104Y352443D01*
X137253Y351915D01*
X137360Y351362D01*
X137392Y351086D01*
Y276660D01*
X71426Y210694D01*
X71209Y210521D01*
X70742Y210206D01*
X70264Y209938D01*
X69771Y209713D01*
X69260Y209531D01*
X68727Y209388D01*
X68166Y209287D01*
X67575Y209227D01*
X67140Y209216D01*
X66840Y209255D01*
X63958Y208876D01*
X61272Y207763D01*
X58966Y205994D01*
X57197Y203688D01*
X56084Y201002D01*
X55705Y198120D01*
X56084Y195238D01*
X57197Y192552D01*
X58966Y190246D01*
X61272Y188477D01*
X63958Y187364D01*
X66840Y186985D01*
X69722Y187364D01*
X72408Y188477D01*
X74714Y190246D01*
X76483Y192552D01*
X77596Y195238D01*
X77975Y198120D01*
X77936Y198420D01*
X77947Y198855D01*
X78007Y199446D01*
X78108Y200007D01*
X78251Y200540D01*
X78433Y201051D01*
X78658Y201544D01*
X78926Y202022D01*
X79241Y202489D01*
X79414Y202706D01*
X147034Y270326D01*
X147034Y270326D01*
X148259Y272158D01*
X148689Y274320D01*
X148688Y274320D01*
Y351086D01*
X148720Y351362D01*
X148827Y351915D01*
X148976Y352443D01*
X149165Y352949D01*
X149397Y353440D01*
X149674Y353918D01*
X149998Y354386D01*
X150374Y354847D01*
X150674Y355162D01*
X150914Y355346D01*
X152683Y357652D01*
X153796Y360338D01*
X154175Y363220D01*
X153796Y366102D01*
X152683Y368788D01*
X150914Y371094D01*
X148608Y372863D01*
X145922Y373976D01*
X143040Y374355D01*
D02*
G37*
G36*
X217970Y85898D02*
X216358Y85686D01*
X213672Y84573D01*
X211366Y82804D01*
X209597Y80498D01*
X208484Y77812D01*
X208272Y76200D01*
X217970D01*
Y85898D01*
D02*
G37*
G36*
X565150Y203705D02*
X562268Y203326D01*
X559582Y202213D01*
X557276Y200444D01*
X557092Y200204D01*
X556777Y199904D01*
X556316Y199528D01*
X555848Y199204D01*
X555370Y198927D01*
X554880Y198695D01*
X554373Y198506D01*
X553845Y198357D01*
X553292Y198250D01*
X553016Y198218D01*
X526484D01*
X526208Y198250D01*
X525655Y198357D01*
X525127Y198506D01*
X524621Y198695D01*
X524130Y198927D01*
X523652Y199204D01*
X523184Y199528D01*
X522723Y199904D01*
X522408Y200204D01*
X522224Y200444D01*
X519918Y202213D01*
X517232Y203326D01*
X514350Y203705D01*
X511468Y203326D01*
X508782Y202213D01*
X506476Y200444D01*
X504707Y198138D01*
X503594Y195452D01*
X503215Y192570D01*
X503594Y189688D01*
X504707Y187002D01*
X506476Y184696D01*
X508782Y182927D01*
X511468Y181814D01*
X514350Y181435D01*
X517232Y181814D01*
X519918Y182927D01*
X522224Y184696D01*
X522408Y184936D01*
X522724Y185236D01*
X523184Y185612D01*
X523652Y185936D01*
X524130Y186213D01*
X524620Y186445D01*
X525127Y186634D01*
X525655Y186783D01*
X526208Y186890D01*
X526484Y186922D01*
X553016D01*
X553292Y186890D01*
X553845Y186783D01*
X554373Y186634D01*
X554879Y186445D01*
X555370Y186213D01*
X555848Y185936D01*
X556316Y185612D01*
X556777Y185236D01*
X557092Y184936D01*
X557276Y184696D01*
X559582Y182927D01*
X562268Y181814D01*
X565150Y181435D01*
X568032Y181814D01*
X570718Y182927D01*
X573024Y184696D01*
X574793Y187002D01*
X575906Y189688D01*
X576285Y192570D01*
X575906Y195452D01*
X574793Y198138D01*
X573024Y200444D01*
X570718Y202213D01*
X568032Y203326D01*
X565150Y203705D01*
D02*
G37*
G36*
X26200Y144780D02*
X16502D01*
X16714Y143168D01*
X17827Y140482D01*
X19596Y138176D01*
X21902Y136407D01*
X24588Y135294D01*
X26200Y135082D01*
Y144780D01*
D02*
G37*
G36*
X220510Y85898D02*
Y76200D01*
X230208D01*
X229996Y77812D01*
X228883Y80498D01*
X227114Y82804D01*
X224808Y84573D01*
X222122Y85686D01*
X220510Y85898D01*
D02*
G37*
G36*
X230208Y73660D02*
X220510D01*
Y63962D01*
X222122Y64174D01*
X224808Y65287D01*
X227114Y67056D01*
X228883Y69362D01*
X229996Y72048D01*
X230208Y73660D01*
D02*
G37*
G36*
X544830Y379266D02*
X541034Y378766D01*
X537497Y377301D01*
X534460Y374970D01*
X532129Y371933D01*
X530664Y368396D01*
X530164Y364600D01*
X530664Y360804D01*
X532129Y357267D01*
X534460Y354230D01*
X537497Y351899D01*
X541034Y350434D01*
X544830Y349935D01*
X545364Y350005D01*
X546318Y349991D01*
X547565Y349909D01*
X548717Y349765D01*
X549770Y349562D01*
X550727Y349306D01*
X551589Y349000D01*
X552359Y348648D01*
X553043Y348253D01*
X553566Y347876D01*
X559501Y341940D01*
Y304704D01*
X559470Y304428D01*
X559363Y303875D01*
X559214Y303347D01*
X559025Y302840D01*
X558793Y302350D01*
X558516Y301872D01*
X558192Y301404D01*
X557816Y300943D01*
X557516Y300628D01*
X557276Y300444D01*
X555507Y298138D01*
X554394Y295452D01*
X554015Y292570D01*
X554394Y289688D01*
X555507Y287002D01*
X557276Y284696D01*
X559582Y282927D01*
X562268Y281814D01*
X565150Y281435D01*
X568032Y281814D01*
X570718Y282927D01*
X573024Y284696D01*
X574793Y287002D01*
X575906Y289688D01*
X576285Y292570D01*
X575906Y295452D01*
X574793Y298138D01*
X573024Y300444D01*
X572784Y300628D01*
X572484Y300944D01*
X572108Y301404D01*
X571784Y301872D01*
X571507Y302350D01*
X571275Y302840D01*
X571086Y303347D01*
X570937Y303875D01*
X570830Y304428D01*
X570798Y304704D01*
Y344280D01*
X570799Y344280D01*
X570369Y346442D01*
X569144Y348274D01*
X569144Y348274D01*
X561554Y355864D01*
X561177Y356387D01*
X560782Y357071D01*
X560430Y357841D01*
X560124Y358703D01*
X559868Y359660D01*
X559673Y360675D01*
X559438Y363149D01*
X559425Y364066D01*
X559496Y364600D01*
X558996Y368396D01*
X557531Y371933D01*
X555200Y374970D01*
X552163Y377301D01*
X548626Y378766D01*
X544830Y379266D01*
D02*
G37*
G36*
X55870Y74498D02*
Y61270D01*
X69098D01*
X68766Y63796D01*
X67301Y67333D01*
X64970Y70370D01*
X61933Y72701D01*
X58396Y74166D01*
X55870Y74498D01*
D02*
G37*
G36*
X439890Y385785D02*
X437008Y385406D01*
X434322Y384293D01*
X432016Y382524D01*
X430247Y380218D01*
X429134Y377532D01*
X428755Y374650D01*
X429134Y371768D01*
X430247Y369082D01*
X432016Y366776D01*
X432256Y366592D01*
X432556Y366277D01*
X432932Y365816D01*
X433256Y365348D01*
X433533Y364870D01*
X433765Y364380D01*
X433954Y363873D01*
X434103Y363345D01*
X434210Y362792D01*
X434241Y362516D01*
Y338524D01*
X434210Y338248D01*
X434103Y337695D01*
X433954Y337167D01*
X433765Y336660D01*
X433533Y336170D01*
X433256Y335692D01*
X432932Y335224D01*
X432556Y334763D01*
X432256Y334448D01*
X432016Y334264D01*
X430247Y331958D01*
X429134Y329272D01*
X428755Y326390D01*
X429134Y323508D01*
X430247Y320822D01*
X432016Y318516D01*
X434322Y316747D01*
X437008Y315634D01*
X439890Y315255D01*
X440190Y315294D01*
X440625Y315283D01*
X441216Y315223D01*
X441777Y315122D01*
X442310Y314979D01*
X442821Y314797D01*
X443314Y314572D01*
X443792Y314304D01*
X444259Y313989D01*
X444476Y313816D01*
X469716Y288576D01*
X469716Y288576D01*
X471548Y287351D01*
X473710Y286921D01*
X473710Y286922D01*
X502216D01*
X502492Y286890D01*
X503045Y286783D01*
X503573Y286634D01*
X504080Y286445D01*
X504570Y286213D01*
X505048Y285936D01*
X505516Y285612D01*
X505977Y285236D01*
X506292Y284936D01*
X506476Y284696D01*
X508782Y282927D01*
X511468Y281814D01*
X514350Y281435D01*
X517232Y281814D01*
X519918Y282927D01*
X522224Y284696D01*
X523993Y287002D01*
X525106Y289688D01*
X525485Y292570D01*
X525106Y295452D01*
X523993Y298138D01*
X522224Y300444D01*
X519918Y302213D01*
X517232Y303326D01*
X514350Y303705D01*
X511468Y303326D01*
X508782Y302213D01*
X506476Y300444D01*
X506292Y300204D01*
X505976Y299904D01*
X505516Y299528D01*
X505048Y299204D01*
X504570Y298927D01*
X504080Y298695D01*
X503573Y298506D01*
X503045Y298357D01*
X502492Y298250D01*
X502216Y298218D01*
X476050D01*
X452464Y321804D01*
X452291Y322021D01*
X451976Y322489D01*
X451708Y322966D01*
X451483Y323459D01*
X451301Y323970D01*
X451158Y324503D01*
X451057Y325064D01*
X450997Y325655D01*
X450986Y326090D01*
X451025Y326390D01*
X450646Y329272D01*
X449533Y331958D01*
X447764Y334264D01*
X447524Y334448D01*
X447224Y334763D01*
X446848Y335224D01*
X446524Y335692D01*
X446247Y336170D01*
X446015Y336660D01*
X445826Y337167D01*
X445677Y337695D01*
X445570Y338248D01*
X445538Y338524D01*
Y362516D01*
X445570Y362792D01*
X445677Y363345D01*
X445826Y363873D01*
X446015Y364380D01*
X446247Y364870D01*
X446524Y365348D01*
X446848Y365816D01*
X447224Y366277D01*
X447524Y366592D01*
X447764Y366776D01*
X449533Y369082D01*
X450646Y371768D01*
X451025Y374650D01*
X450646Y377532D01*
X449533Y380218D01*
X447764Y382524D01*
X445458Y384293D01*
X442772Y385406D01*
X439890Y385785D01*
D02*
G37*
G36*
X243040Y431505D02*
X240158Y431126D01*
X237472Y430013D01*
X235166Y428244D01*
X233397Y425938D01*
X232284Y423252D01*
X231905Y420370D01*
X232284Y417488D01*
X233397Y414802D01*
X235166Y412496D01*
X235406Y412312D01*
X235706Y411996D01*
X236082Y411536D01*
X236406Y411068D01*
X236683Y410590D01*
X236915Y410100D01*
X237104Y409593D01*
X237253Y409065D01*
X237360Y408512D01*
X237391Y408236D01*
Y375354D01*
X237360Y375078D01*
X237253Y374525D01*
X237104Y373997D01*
X236915Y373490D01*
X236683Y373000D01*
X236406Y372522D01*
X236082Y372054D01*
X235706Y371593D01*
X235406Y371278D01*
X235166Y371094D01*
X233397Y368788D01*
X232284Y366102D01*
X231905Y363220D01*
X232284Y360338D01*
X233397Y357652D01*
X235166Y355346D01*
X235406Y355162D01*
X235706Y354846D01*
X236082Y354386D01*
X236406Y353918D01*
X236683Y353440D01*
X236915Y352950D01*
X237104Y352443D01*
X237253Y351915D01*
X237360Y351362D01*
X237391Y351086D01*
Y344170D01*
X237391Y344170D01*
X237821Y342008D01*
X239046Y340176D01*
X250316Y328906D01*
X250489Y328689D01*
X250804Y328222D01*
X251072Y327744D01*
X251297Y327251D01*
X251479Y326740D01*
X251622Y326207D01*
X251723Y325646D01*
X251783Y325055D01*
X251794Y324620D01*
X251755Y324320D01*
X252134Y321438D01*
X253247Y318752D01*
X255016Y316446D01*
X257322Y314677D01*
X260008Y313564D01*
X262890Y313185D01*
X265772Y313564D01*
X268458Y314677D01*
X270764Y316446D01*
X272533Y318752D01*
X273646Y321438D01*
X274025Y324320D01*
X273646Y327202D01*
X272533Y329888D01*
X270764Y332194D01*
X268458Y333963D01*
X265772Y335076D01*
X262890Y335455D01*
X262590Y335416D01*
X262155Y335427D01*
X261564Y335487D01*
X261003Y335588D01*
X260470Y335731D01*
X259959Y335913D01*
X259466Y336138D01*
X258988Y336406D01*
X258521Y336721D01*
X258304Y336894D01*
X248689Y346510D01*
Y351086D01*
X248720Y351362D01*
X248827Y351915D01*
X248976Y352443D01*
X249165Y352949D01*
X249397Y353440D01*
X249674Y353918D01*
X249998Y354386D01*
X250374Y354847D01*
X250674Y355162D01*
X250914Y355346D01*
X252683Y357652D01*
X253796Y360338D01*
X254175Y363220D01*
X253796Y366102D01*
X252683Y368788D01*
X250914Y371094D01*
X250674Y371278D01*
X250374Y371594D01*
X249998Y372054D01*
X249674Y372522D01*
X249397Y373000D01*
X249165Y373490D01*
X248976Y373997D01*
X248827Y374525D01*
X248720Y375078D01*
X248689Y375354D01*
Y408236D01*
X248720Y408512D01*
X248827Y409065D01*
X248976Y409593D01*
X249165Y410099D01*
X249397Y410590D01*
X249674Y411068D01*
X249998Y411536D01*
X250374Y411997D01*
X250674Y412312D01*
X250914Y412496D01*
X252683Y414802D01*
X253796Y417488D01*
X254175Y420370D01*
X253796Y423252D01*
X252683Y425938D01*
X250914Y428244D01*
X248608Y430013D01*
X245922Y431126D01*
X243040Y431505D01*
D02*
G37*
G36*
X217970Y73660D02*
X208272D01*
X208484Y72048D01*
X209597Y69362D01*
X211366Y67056D01*
X213672Y65287D01*
X216358Y64174D01*
X217970Y63962D01*
Y73660D01*
D02*
G37*
G36*
X210820Y164630D02*
X201122D01*
X201334Y163018D01*
X202447Y160332D01*
X204216Y158026D01*
X206522Y156257D01*
X209208Y155144D01*
X210820Y154932D01*
Y164630D01*
D02*
G37*
G36*
X471170D02*
X461472D01*
X461684Y163018D01*
X462797Y160332D01*
X464566Y158026D01*
X466872Y156257D01*
X469558Y155144D01*
X471170Y154932D01*
Y164630D01*
D02*
G37*
G36*
X28740Y157018D02*
Y147320D01*
X38438D01*
X38226Y148932D01*
X37113Y151618D01*
X35344Y153924D01*
X33038Y155693D01*
X30352Y156806D01*
X28740Y157018D01*
D02*
G37*
G36*
X38438Y144780D02*
X28740D01*
Y135082D01*
X30352Y135294D01*
X33038Y136407D01*
X35344Y138176D01*
X37113Y140482D01*
X38226Y143168D01*
X38438Y144780D01*
D02*
G37*
G36*
X26200Y157018D02*
X24588Y156806D01*
X21902Y155693D01*
X19596Y153924D01*
X17827Y151618D01*
X16714Y148932D01*
X16502Y147320D01*
X26200D01*
Y157018D01*
D02*
G37*
G36*
X223058Y164630D02*
X213360D01*
Y154932D01*
X214972Y155144D01*
X217658Y156257D01*
X219964Y158026D01*
X221733Y160332D01*
X222846Y163018D01*
X223058Y164630D01*
D02*
G37*
G36*
X213360Y176868D02*
Y167170D01*
X223058D01*
X222846Y168782D01*
X221733Y171468D01*
X219964Y173774D01*
X217658Y175543D01*
X214972Y176656D01*
X213360Y176868D01*
D02*
G37*
G36*
X473710D02*
Y167170D01*
X483408D01*
X483196Y168782D01*
X482083Y171468D01*
X480314Y173774D01*
X478008Y175543D01*
X475322Y176656D01*
X473710Y176868D01*
D02*
G37*
G36*
X471170D02*
X469558Y176656D01*
X466872Y175543D01*
X464566Y173774D01*
X462797Y171468D01*
X461684Y168782D01*
X461472Y167170D01*
X471170D01*
Y176868D01*
D02*
G37*
G36*
X483408Y164630D02*
X473710D01*
Y154932D01*
X475322Y155144D01*
X478008Y156257D01*
X480314Y158026D01*
X482083Y160332D01*
X483196Y163018D01*
X483408Y164630D01*
D02*
G37*
G36*
X210820Y176868D02*
X209208Y176656D01*
X206522Y175543D01*
X204216Y173774D01*
X202447Y171468D01*
X201334Y168782D01*
X201122Y167170D01*
X210820D01*
Y176868D01*
D02*
G37*
G36*
X462288Y48260D02*
X452590D01*
Y38562D01*
X454202Y38774D01*
X456888Y39887D01*
X459194Y41656D01*
X460963Y43962D01*
X462076Y46648D01*
X462288Y48260D01*
D02*
G37*
G36*
X52070Y414130D02*
X38842D01*
X39174Y411604D01*
X40639Y408067D01*
X42970Y405030D01*
X46007Y402699D01*
X49544Y401234D01*
X52070Y400902D01*
Y414130D01*
D02*
G37*
G36*
X543560Y429940D02*
X530290D01*
Y416670D01*
X543560D01*
Y429940D01*
D02*
G37*
G36*
X143040Y431505D02*
X140158Y431126D01*
X137472Y430013D01*
X135166Y428244D01*
X133397Y425938D01*
X132284Y423252D01*
X131905Y420370D01*
X131944Y420070D01*
X131933Y419635D01*
X131873Y419044D01*
X131772Y418483D01*
X131629Y417950D01*
X131447Y417439D01*
X131222Y416946D01*
X130954Y416469D01*
X130639Y416001D01*
X130466Y415784D01*
X84930Y370248D01*
X69949D01*
X69464Y370291D01*
X68782Y370404D01*
X68276Y370540D01*
X67955Y370671D01*
X67880Y370716D01*
Y379140D01*
X38800D01*
Y350060D01*
X67880D01*
Y358484D01*
X67955Y358530D01*
X68276Y358660D01*
X68782Y358796D01*
X69464Y358909D01*
X69949Y358951D01*
X87270D01*
X87270Y358951D01*
X89432Y359381D01*
X91264Y360606D01*
X138454Y407796D01*
X138671Y407969D01*
X139138Y408284D01*
X139616Y408552D01*
X140109Y408777D01*
X140620Y408959D01*
X141153Y409102D01*
X141714Y409203D01*
X142305Y409263D01*
X142740Y409274D01*
X143040Y409235D01*
X145922Y409614D01*
X148608Y410727D01*
X150914Y412496D01*
X152683Y414802D01*
X153796Y417488D01*
X154175Y420370D01*
X153796Y423252D01*
X152683Y425938D01*
X150914Y428244D01*
X148608Y430013D01*
X145922Y431126D01*
X143040Y431505D01*
D02*
G37*
G36*
X543560Y414130D02*
X530290D01*
Y400860D01*
X543560D01*
Y414130D01*
D02*
G37*
G36*
X559370D02*
X546100D01*
Y400860D01*
X559370D01*
Y414130D01*
D02*
G37*
G36*
X450050Y48260D02*
X440352D01*
X440564Y46648D01*
X441677Y43962D01*
X443446Y41656D01*
X445752Y39887D01*
X448438Y38774D01*
X450050Y38562D01*
Y48260D01*
D02*
G37*
G36*
X67838Y414130D02*
X54610D01*
Y400902D01*
X57136Y401234D01*
X60673Y402699D01*
X63710Y405030D01*
X66041Y408067D01*
X67506Y411604D01*
X67838Y414130D01*
D02*
G37*
G36*
X53330Y58730D02*
X40102D01*
X40434Y56204D01*
X41899Y52667D01*
X44230Y49630D01*
X47267Y47299D01*
X50804Y45834D01*
X53330Y45502D01*
Y58730D01*
D02*
G37*
G36*
X54610Y429898D02*
Y416670D01*
X67838D01*
X67506Y419196D01*
X66041Y422733D01*
X63710Y425770D01*
X60673Y428101D01*
X57136Y429566D01*
X54610Y429898D01*
D02*
G37*
G36*
X452590Y60498D02*
Y50800D01*
X462288D01*
X462076Y52412D01*
X460963Y55098D01*
X459194Y57404D01*
X456888Y59173D01*
X454202Y60286D01*
X452590Y60498D01*
D02*
G37*
G36*
X53330Y74498D02*
X50804Y74166D01*
X47267Y72701D01*
X44230Y70370D01*
X41899Y67333D01*
X40434Y63796D01*
X40102Y61270D01*
X53330D01*
Y74498D01*
D02*
G37*
G36*
X559370Y429940D02*
X546100D01*
Y416670D01*
X559370D01*
Y429940D01*
D02*
G37*
G36*
X339890Y385785D02*
X337008Y385406D01*
X334322Y384293D01*
X332016Y382524D01*
X330247Y380218D01*
X329134Y377532D01*
X328755Y374650D01*
X329134Y371768D01*
X330247Y369082D01*
X332016Y366776D01*
X334322Y365007D01*
X337008Y363894D01*
X339890Y363515D01*
X340190Y363554D01*
X340625Y363543D01*
X341216Y363483D01*
X341777Y363382D01*
X342310Y363239D01*
X342821Y363057D01*
X343314Y362832D01*
X343792Y362564D01*
X344259Y362249D01*
X344476Y362076D01*
X351222Y355330D01*
Y331201D01*
X349952Y330948D01*
X349533Y331958D01*
X347764Y334264D01*
X345458Y336033D01*
X342772Y337146D01*
X339890Y337525D01*
X337008Y337146D01*
X334322Y336033D01*
X332016Y334264D01*
X330247Y331958D01*
X329134Y329272D01*
X328755Y326390D01*
X328794Y326090D01*
X328783Y325655D01*
X328723Y325064D01*
X328622Y324503D01*
X328479Y323970D01*
X328297Y323459D01*
X328072Y322966D01*
X327804Y322489D01*
X327489Y322021D01*
X327316Y321804D01*
X258896Y253384D01*
X257671Y251552D01*
X257241Y249390D01*
X257241Y249390D01*
Y236454D01*
X257210Y236178D01*
X257103Y235625D01*
X256954Y235097D01*
X256765Y234590D01*
X256533Y234100D01*
X256256Y233622D01*
X255932Y233154D01*
X255556Y232693D01*
X255256Y232378D01*
X255016Y232194D01*
X253247Y229888D01*
X252134Y227202D01*
X251755Y224320D01*
X252134Y221438D01*
X253247Y218752D01*
X252221Y218048D01*
X241484Y228784D01*
X239652Y230009D01*
X237490Y230439D01*
X237490Y230438D01*
X220184D01*
X219568Y230547D01*
X219061Y230716D01*
X218697Y230912D01*
X218430Y231130D01*
X218212Y231397D01*
X218016Y231761D01*
X217847Y232268D01*
X217738Y232884D01*
Y253766D01*
X217770Y254042D01*
X217877Y254595D01*
X218026Y255123D01*
X218215Y255630D01*
X218447Y256120D01*
X218724Y256598D01*
X219048Y257066D01*
X219424Y257527D01*
X219724Y257842D01*
X219964Y258026D01*
X221733Y260332D01*
X222846Y263018D01*
X223225Y265900D01*
X222846Y268782D01*
X221733Y271468D01*
X219964Y273774D01*
X217658Y275543D01*
X214972Y276656D01*
X212090Y277035D01*
X209208Y276656D01*
X206522Y275543D01*
X204216Y273774D01*
X202447Y271468D01*
X201334Y268782D01*
X200955Y265900D01*
X201334Y263018D01*
X202447Y260332D01*
X204216Y258026D01*
X204456Y257842D01*
X204756Y257526D01*
X205132Y257066D01*
X205456Y256598D01*
X205733Y256120D01*
X205965Y255630D01*
X206154Y255123D01*
X206303Y254595D01*
X206410Y254042D01*
X206441Y253766D01*
Y232884D01*
X206333Y232268D01*
X206164Y231761D01*
X205968Y231397D01*
X205750Y231130D01*
X205483Y230912D01*
X205119Y230716D01*
X204612Y230547D01*
X203996Y230438D01*
X167640D01*
X167640Y230439D01*
X165478Y230009D01*
X163646Y228784D01*
X163646Y228784D01*
X142056Y207194D01*
X140831Y205362D01*
X140401Y203200D01*
X140401Y203200D01*
Y166970D01*
X132056Y158624D01*
X131839Y158451D01*
X131371Y158136D01*
X130894Y157868D01*
X130401Y157643D01*
X129890Y157461D01*
X129357Y157318D01*
X128796Y157217D01*
X128205Y157157D01*
X127770Y157146D01*
X127470Y157185D01*
X124588Y156806D01*
X121902Y155693D01*
X119596Y153924D01*
X117827Y151618D01*
X116714Y148932D01*
X116335Y146050D01*
X116374Y145750D01*
X116363Y145315D01*
X116303Y144724D01*
X116202Y144163D01*
X116059Y143630D01*
X115877Y143119D01*
X115652Y142626D01*
X115384Y142149D01*
X115069Y141681D01*
X114896Y141464D01*
X101406Y127974D01*
X100181Y126142D01*
X99751Y123980D01*
X99752Y123980D01*
Y76609D01*
X99709Y76124D01*
X99596Y75442D01*
X99460Y74936D01*
X99330Y74615D01*
X99284Y74540D01*
X90860D01*
Y45460D01*
X119940D01*
Y53884D01*
X120015Y53930D01*
X120336Y54060D01*
X120842Y54196D01*
X121524Y54309D01*
X122009Y54352D01*
X181030D01*
X206666Y28716D01*
X206839Y28499D01*
X207154Y28031D01*
X207422Y27554D01*
X207647Y27061D01*
X207829Y26550D01*
X207972Y26017D01*
X208073Y25456D01*
X208133Y24865D01*
X208144Y24430D01*
X208105Y24130D01*
X208484Y21248D01*
X209597Y18562D01*
X211366Y16256D01*
X213672Y14487D01*
X216358Y13374D01*
X219240Y12995D01*
X222122Y13374D01*
X224808Y14487D01*
X227114Y16256D01*
X228883Y18562D01*
X229996Y21248D01*
X230375Y24130D01*
X229996Y27012D01*
X228883Y29698D01*
X227114Y32004D01*
X224808Y33773D01*
X222122Y34886D01*
X219240Y35265D01*
X218940Y35226D01*
X218505Y35237D01*
X217914Y35297D01*
X217353Y35398D01*
X216820Y35541D01*
X216309Y35723D01*
X215816Y35948D01*
X215338Y36216D01*
X214871Y36531D01*
X214654Y36704D01*
X187364Y63994D01*
X185532Y65219D01*
X183370Y65649D01*
X183370Y65648D01*
X122009D01*
X121524Y65691D01*
X120842Y65804D01*
X120336Y65940D01*
X120015Y66070D01*
X119940Y66116D01*
Y74540D01*
X111516D01*
X111470Y74615D01*
X111340Y74936D01*
X111204Y75442D01*
X111091Y76124D01*
X111048Y76609D01*
Y121640D01*
X122884Y133476D01*
X123101Y133649D01*
X123568Y133964D01*
X124046Y134232D01*
X124539Y134457D01*
X125050Y134639D01*
X125583Y134782D01*
X126144Y134883D01*
X126735Y134943D01*
X127170Y134954D01*
X127470Y134915D01*
X130352Y135294D01*
X133038Y136407D01*
X135344Y138176D01*
X137113Y140482D01*
X138226Y143168D01*
X138605Y146050D01*
X138566Y146350D01*
X138577Y146785D01*
X138637Y147376D01*
X138738Y147937D01*
X138881Y148470D01*
X139063Y148981D01*
X139288Y149474D01*
X139556Y149951D01*
X139871Y150419D01*
X140044Y150636D01*
X150044Y160636D01*
X150044Y160636D01*
X151269Y162468D01*
X151699Y164630D01*
X151699Y164630D01*
Y200860D01*
X169980Y219142D01*
X235150D01*
X248736Y205556D01*
X248736Y205556D01*
X249510Y205039D01*
X249125Y203769D01*
X178974D01*
X178698Y203800D01*
X178145Y203907D01*
X177617Y204056D01*
X177111Y204245D01*
X176620Y204477D01*
X176142Y204754D01*
X175674Y205078D01*
X175213Y205454D01*
X174898Y205754D01*
X174714Y205994D01*
X172408Y207763D01*
X169722Y208876D01*
X166840Y209255D01*
X163958Y208876D01*
X161272Y207763D01*
X158966Y205994D01*
X157197Y203688D01*
X156084Y201002D01*
X155705Y198120D01*
X156084Y195238D01*
X157197Y192552D01*
X158966Y190246D01*
X161272Y188477D01*
X163958Y187364D01*
X166840Y186985D01*
X169722Y187364D01*
X172408Y188477D01*
X174714Y190246D01*
X174898Y190486D01*
X175214Y190786D01*
X175674Y191162D01*
X176142Y191486D01*
X176620Y191763D01*
X177110Y191995D01*
X177617Y192184D01*
X178145Y192333D01*
X178698Y192440D01*
X178974Y192472D01*
X293100D01*
X337946Y147626D01*
X338119Y147409D01*
X338434Y146941D01*
X338702Y146464D01*
X338927Y145971D01*
X339109Y145460D01*
X339252Y144927D01*
X339353Y144366D01*
X339413Y143775D01*
X339424Y143340D01*
X339385Y143040D01*
X339764Y140158D01*
X340877Y137472D01*
X342646Y135166D01*
X342886Y134982D01*
X343186Y134667D01*
X343562Y134206D01*
X343886Y133738D01*
X344163Y133260D01*
X344395Y132770D01*
X344584Y132263D01*
X344733Y131735D01*
X344840Y131182D01*
X344871Y130906D01*
Y61262D01*
X344846Y61015D01*
X344743Y60434D01*
X344601Y59871D01*
X344418Y59320D01*
X344194Y58780D01*
X343927Y58248D01*
X343614Y57722D01*
X343254Y57201D01*
X343111Y57021D01*
X342947Y56864D01*
X342486Y56488D01*
X342018Y56164D01*
X341540Y55887D01*
X341050Y55655D01*
X340543Y55466D01*
X340015Y55317D01*
X339462Y55210D01*
X339186Y55178D01*
X327334D01*
X326718Y55287D01*
X326211Y55456D01*
X325847Y55652D01*
X325580Y55870D01*
X325362Y56137D01*
X325166Y56501D01*
X324997Y57008D01*
X324888Y57624D01*
Y62796D01*
X324920Y63072D01*
X325027Y63625D01*
X325176Y64153D01*
X325365Y64660D01*
X325597Y65150D01*
X325874Y65628D01*
X326198Y66096D01*
X326574Y66557D01*
X326874Y66872D01*
X327114Y67056D01*
X328883Y69362D01*
X329996Y72048D01*
X330375Y74930D01*
X329996Y77812D01*
X328883Y80498D01*
X327114Y82804D01*
X324808Y84573D01*
X322122Y85686D01*
X319240Y86065D01*
X316358Y85686D01*
X313672Y84573D01*
X311366Y82804D01*
X309597Y80498D01*
X308484Y77812D01*
X308105Y74930D01*
X308484Y72048D01*
X309597Y69362D01*
X311366Y67056D01*
X311606Y66872D01*
X311906Y66557D01*
X312282Y66096D01*
X312606Y65628D01*
X312883Y65150D01*
X313115Y64660D01*
X313304Y64153D01*
X313453Y63625D01*
X313560Y63072D01*
X313591Y62796D01*
Y49530D01*
Y36264D01*
X313560Y35988D01*
X313453Y35435D01*
X313304Y34907D01*
X313115Y34400D01*
X312883Y33910D01*
X312606Y33432D01*
X312282Y32964D01*
X311906Y32503D01*
X311606Y32188D01*
X311366Y32004D01*
X309597Y29698D01*
X308484Y27012D01*
X308105Y24130D01*
X308484Y21248D01*
X309597Y18562D01*
X311366Y16256D01*
X313672Y14487D01*
X316358Y13374D01*
X319240Y12995D01*
X322122Y13374D01*
X324808Y14487D01*
X327114Y16256D01*
X328883Y18562D01*
X329996Y21248D01*
X330375Y24130D01*
X329996Y27012D01*
X328883Y29698D01*
X327114Y32004D01*
X326874Y32188D01*
X326574Y32503D01*
X326198Y32964D01*
X325874Y33432D01*
X325597Y33910D01*
X325365Y34400D01*
X325176Y34907D01*
X325027Y35435D01*
X324920Y35988D01*
X324888Y36264D01*
Y41436D01*
X324997Y42052D01*
X325166Y42559D01*
X325362Y42923D01*
X325580Y43190D01*
X325847Y43408D01*
X326211Y43604D01*
X326718Y43773D01*
X327334Y43882D01*
X339186D01*
X339462Y43850D01*
X340015Y43743D01*
X340543Y43594D01*
X341049Y43405D01*
X341540Y43173D01*
X342018Y42896D01*
X342486Y42572D01*
X342947Y42196D01*
X343262Y41896D01*
X343446Y41656D01*
X345752Y39887D01*
X348438Y38774D01*
X351320Y38395D01*
X354202Y38774D01*
X356888Y39887D01*
X359194Y41656D01*
X360963Y43962D01*
X362076Y46648D01*
X362455Y49530D01*
X362076Y52412D01*
X360963Y55098D01*
X359194Y57404D01*
X358478Y57953D01*
X358383Y58078D01*
X357867Y58532D01*
X357487Y58928D01*
X357162Y59334D01*
X356886Y59754D01*
X356655Y60190D01*
X356464Y60651D01*
X356314Y61140D01*
X356204Y61666D01*
X356169Y61956D01*
Y130906D01*
X356200Y131182D01*
X356307Y131735D01*
X356456Y132263D01*
X356645Y132769D01*
X356877Y133260D01*
X357154Y133738D01*
X357478Y134206D01*
X357854Y134667D01*
X358154Y134982D01*
X358394Y135166D01*
X360163Y137472D01*
X361276Y140158D01*
X361655Y143040D01*
X361276Y145922D01*
X360163Y148608D01*
X358394Y150914D01*
X356088Y152683D01*
X353402Y153796D01*
X350520Y154175D01*
X350220Y154136D01*
X349785Y154147D01*
X349194Y154207D01*
X348633Y154308D01*
X348100Y154451D01*
X347589Y154633D01*
X347096Y154858D01*
X346618Y155126D01*
X346151Y155441D01*
X345934Y155614D01*
X299434Y202114D01*
X298660Y202631D01*
X299045Y203902D01*
X356870D01*
X356870Y203901D01*
X359032Y204331D01*
X360864Y205556D01*
X415560Y260252D01*
X460306D01*
X460582Y260220D01*
X461135Y260113D01*
X461663Y259964D01*
X462169Y259775D01*
X462660Y259543D01*
X463138Y259266D01*
X463606Y258942D01*
X464067Y258566D01*
X464382Y258266D01*
X464566Y258026D01*
X466872Y256257D01*
X469558Y255144D01*
X472440Y254765D01*
X475322Y255144D01*
X478008Y256257D01*
X480314Y258026D01*
X482083Y260332D01*
X483196Y263018D01*
X483575Y265900D01*
X483196Y268782D01*
X482083Y271468D01*
X480314Y273774D01*
X478008Y275543D01*
X475322Y276656D01*
X472440Y277035D01*
X469558Y276656D01*
X466872Y275543D01*
X464566Y273774D01*
X464382Y273534D01*
X464067Y273234D01*
X463606Y272858D01*
X463138Y272534D01*
X462660Y272257D01*
X462170Y272025D01*
X461663Y271836D01*
X461135Y271687D01*
X460582Y271580D01*
X460306Y271549D01*
X413220D01*
X411058Y271119D01*
X409226Y269894D01*
X409226Y269894D01*
X354530Y215198D01*
X271113D01*
X270844Y215991D01*
X270781Y216469D01*
X272533Y218752D01*
X273646Y221438D01*
X274025Y224320D01*
X273646Y227202D01*
X272533Y229888D01*
X270764Y232194D01*
X270524Y232378D01*
X270224Y232694D01*
X269848Y233154D01*
X269524Y233622D01*
X269247Y234100D01*
X269015Y234590D01*
X268826Y235097D01*
X268677Y235625D01*
X268570Y236178D01*
X268538Y236454D01*
Y247050D01*
X335304Y313816D01*
X335521Y313989D01*
X335989Y314304D01*
X336466Y314572D01*
X336959Y314797D01*
X337470Y314979D01*
X338003Y315122D01*
X338564Y315223D01*
X339155Y315283D01*
X339590Y315294D01*
X339890Y315255D01*
X342772Y315634D01*
X345458Y316747D01*
X347764Y318516D01*
X349533Y320822D01*
X349952Y321832D01*
X351222Y321579D01*
Y254790D01*
X350520Y254175D01*
X347638Y253796D01*
X344952Y252683D01*
X342646Y250914D01*
X340877Y248608D01*
X339764Y245922D01*
X339385Y243040D01*
X339764Y240158D01*
X340877Y237472D01*
X342646Y235166D01*
X344952Y233397D01*
X347638Y232284D01*
X350520Y231905D01*
X353402Y232284D01*
X356088Y233397D01*
X358394Y235166D01*
X360163Y237472D01*
X361276Y240158D01*
X361655Y243040D01*
X361276Y245922D01*
X361253Y245978D01*
X362089Y247228D01*
X362519Y249390D01*
Y357670D01*
X362089Y359832D01*
X360864Y361664D01*
X360864Y361664D01*
X352464Y370064D01*
X352291Y370281D01*
X351976Y370748D01*
X351708Y371226D01*
X351483Y371719D01*
X351301Y372230D01*
X351158Y372763D01*
X351057Y373324D01*
X350997Y373915D01*
X350986Y374350D01*
X351025Y374650D01*
X350646Y377532D01*
X349533Y380218D01*
X347764Y382524D01*
X345458Y384293D01*
X342772Y385406D01*
X339890Y385785D01*
D02*
G37*
G36*
X69098Y58730D02*
X55870D01*
Y45502D01*
X58396Y45834D01*
X61933Y47299D01*
X64970Y49630D01*
X67301Y52667D01*
X68766Y56204D01*
X69098Y58730D01*
D02*
G37*
G36*
X52070Y429898D02*
X49544Y429566D01*
X46007Y428101D01*
X42970Y425770D01*
X40639Y422733D01*
X39174Y419196D01*
X38842Y416670D01*
X52070D01*
Y429898D01*
D02*
G37*
G36*
X450050Y60498D02*
X448438Y60286D01*
X445752Y59173D01*
X443446Y57404D01*
X441677Y55098D01*
X440564Y52412D01*
X440352Y50800D01*
X450050D01*
Y60498D01*
D02*
G37*
%LPD*%
G36*
X148429Y356559D02*
X147928Y355945D01*
X147486Y355307D01*
X147102Y354645D01*
X146777Y353958D01*
X146512Y353248D01*
X146306Y352514D01*
X146158Y351755D01*
X146069Y350973D01*
X146040Y350167D01*
X140040D01*
X140010Y350973D01*
X139922Y351755D01*
X139775Y352514D01*
X139568Y353248D01*
X139303Y353958D01*
X138978Y354645D01*
X138595Y355307D01*
X138152Y355945D01*
X137650Y356559D01*
X137090Y357150D01*
X148990D01*
X148429Y356559D01*
D02*
G37*
G36*
X78191Y205229D02*
X77642Y204638D01*
X77151Y204022D01*
X76719Y203381D01*
X76346Y202716D01*
X76032Y202026D01*
X75776Y201311D01*
X75579Y200572D01*
X75440Y199808D01*
X75361Y199019D01*
X75340Y198205D01*
X66925Y206620D01*
X67739Y206641D01*
X68528Y206720D01*
X69292Y206859D01*
X70031Y207056D01*
X70746Y207312D01*
X71436Y207626D01*
X72101Y207999D01*
X72742Y208431D01*
X73358Y208922D01*
X73948Y209471D01*
X78191Y205229D01*
D02*
G37*
G36*
X521011Y197959D02*
X521625Y197458D01*
X522263Y197015D01*
X522925Y196632D01*
X523612Y196308D01*
X524322Y196042D01*
X525056Y195835D01*
X525815Y195688D01*
X526597Y195599D01*
X527403Y195570D01*
Y189570D01*
X526597Y189541D01*
X525815Y189452D01*
X525056Y189305D01*
X524322Y189098D01*
X523612Y188832D01*
X522925Y188508D01*
X522263Y188125D01*
X521625Y187682D01*
X521011Y187181D01*
X520420Y186620D01*
Y198520D01*
X521011Y197959D01*
D02*
G37*
G36*
X559080Y186620D02*
X558489Y187181D01*
X557875Y187682D01*
X557237Y188125D01*
X556575Y188508D01*
X555888Y188832D01*
X555178Y189098D01*
X554444Y189305D01*
X553685Y189452D01*
X552903Y189541D01*
X552097Y189570D01*
Y195570D01*
X552903Y195599D01*
X553685Y195688D01*
X554444Y195835D01*
X555178Y196042D01*
X555888Y196308D01*
X556575Y196632D01*
X557237Y197015D01*
X557875Y197458D01*
X558489Y197959D01*
X559080Y198520D01*
Y186620D01*
D02*
G37*
G36*
X556850Y363008D02*
X557106Y360308D01*
X557342Y359080D01*
X557649Y357933D01*
X558027Y356867D01*
X558478Y355882D01*
X559000Y354978D01*
X559593Y354156D01*
X560258Y353414D01*
X556016Y349172D01*
X555274Y349837D01*
X554452Y350430D01*
X553548Y350952D01*
X552563Y351403D01*
X551497Y351781D01*
X550350Y352088D01*
X549122Y352324D01*
X547812Y352488D01*
X546422Y352580D01*
X544950Y352601D01*
X556829Y364480D01*
X556850Y363008D01*
D02*
G37*
G36*
X568180Y304817D02*
X568268Y304035D01*
X568415Y303276D01*
X568622Y302542D01*
X568887Y301832D01*
X569212Y301145D01*
X569595Y300483D01*
X570038Y299845D01*
X570540Y299230D01*
X571100Y298640D01*
X559200D01*
X559761Y299230D01*
X560262Y299845D01*
X560704Y300483D01*
X561088Y301145D01*
X561413Y301832D01*
X561678Y302542D01*
X561884Y303276D01*
X562032Y304035D01*
X562121Y304817D01*
X562150Y305623D01*
X568150D01*
X568180Y304817D01*
D02*
G37*
G36*
X448411Y325491D02*
X448490Y324702D01*
X448629Y323938D01*
X448826Y323199D01*
X449082Y322484D01*
X449396Y321794D01*
X449770Y321129D01*
X450201Y320488D01*
X450692Y319872D01*
X451241Y319282D01*
X446998Y315039D01*
X446408Y315588D01*
X445792Y316079D01*
X445151Y316511D01*
X444486Y316884D01*
X443796Y317198D01*
X443082Y317454D01*
X442342Y317651D01*
X441578Y317790D01*
X440789Y317869D01*
X439975Y317890D01*
X448390Y326305D01*
X448411Y325491D01*
D02*
G37*
G36*
X442920Y338637D02*
X443008Y337854D01*
X443156Y337096D01*
X443362Y336362D01*
X443628Y335652D01*
X443952Y334965D01*
X444336Y334303D01*
X444778Y333665D01*
X445280Y333050D01*
X445840Y332460D01*
X433940D01*
X434501Y333050D01*
X435002Y333665D01*
X435444Y334303D01*
X435828Y334965D01*
X436152Y335652D01*
X436418Y336362D01*
X436624Y337096D01*
X436772Y337854D01*
X436861Y338637D01*
X436890Y339443D01*
X442890D01*
X442920Y338637D01*
D02*
G37*
G36*
X445280Y367990D02*
X444778Y367375D01*
X444336Y366737D01*
X443952Y366075D01*
X443628Y365388D01*
X443362Y364678D01*
X443156Y363944D01*
X443008Y363186D01*
X442920Y362403D01*
X442890Y361597D01*
X436890D01*
X436861Y362403D01*
X436772Y363186D01*
X436624Y363944D01*
X436418Y364678D01*
X436152Y365388D01*
X435828Y366075D01*
X435444Y366737D01*
X435002Y367375D01*
X434501Y367990D01*
X433940Y368580D01*
X445840D01*
X445280Y367990D01*
D02*
G37*
G36*
X508280Y286620D02*
X507690Y287181D01*
X507075Y287682D01*
X506437Y288125D01*
X505775Y288508D01*
X505088Y288832D01*
X504378Y289098D01*
X503644Y289305D01*
X502886Y289452D01*
X502103Y289541D01*
X501297Y289570D01*
Y295570D01*
X502103Y295599D01*
X502886Y295688D01*
X503644Y295835D01*
X504378Y296042D01*
X505088Y296308D01*
X505775Y296632D01*
X506437Y297015D01*
X507075Y297458D01*
X507690Y297959D01*
X508280Y298520D01*
Y286620D01*
D02*
G37*
G36*
X248430Y356559D02*
X247928Y355945D01*
X247486Y355307D01*
X247102Y354645D01*
X246777Y353958D01*
X246512Y353248D01*
X246306Y352514D01*
X246158Y351755D01*
X246070Y350973D01*
X246040Y350167D01*
X240040D01*
X240011Y350973D01*
X239922Y351755D01*
X239774Y352514D01*
X239568Y353248D01*
X239303Y353958D01*
X238978Y354645D01*
X238594Y355307D01*
X238152Y355945D01*
X237651Y356559D01*
X237090Y357150D01*
X248990D01*
X248430Y356559D01*
D02*
G37*
G36*
X256372Y335122D02*
X256988Y334631D01*
X257629Y334199D01*
X258294Y333826D01*
X258984Y333512D01*
X259699Y333256D01*
X260438Y333059D01*
X261202Y332920D01*
X261991Y332841D01*
X262805Y332820D01*
X254390Y324405D01*
X254369Y325219D01*
X254290Y326008D01*
X254151Y326772D01*
X253954Y327511D01*
X253698Y328226D01*
X253384Y328916D01*
X253011Y329581D01*
X252579Y330222D01*
X252088Y330838D01*
X251539Y331428D01*
X255781Y335671D01*
X256372Y335122D01*
D02*
G37*
G36*
X246070Y375467D02*
X246158Y374684D01*
X246306Y373926D01*
X246512Y373192D01*
X246777Y372482D01*
X247102Y371795D01*
X247486Y371133D01*
X247928Y370495D01*
X248430Y369880D01*
X248990Y369290D01*
X237090D01*
X237651Y369880D01*
X238152Y370495D01*
X238594Y371133D01*
X238978Y371795D01*
X239303Y372482D01*
X239568Y373192D01*
X239774Y373926D01*
X239922Y374684D01*
X240011Y375467D01*
X240040Y376273D01*
X246040D01*
X246070Y375467D01*
D02*
G37*
G36*
X248430Y413709D02*
X247928Y413095D01*
X247486Y412457D01*
X247102Y411795D01*
X246777Y411108D01*
X246512Y410398D01*
X246306Y409664D01*
X246158Y408905D01*
X246070Y408123D01*
X246040Y407317D01*
X240040D01*
X240011Y408123D01*
X239922Y408905D01*
X239774Y409664D01*
X239568Y410398D01*
X239303Y411108D01*
X238978Y411795D01*
X238594Y412457D01*
X238152Y413095D01*
X237651Y413709D01*
X237090Y414300D01*
X248990D01*
X248430Y413709D01*
D02*
G37*
G36*
X142955Y411870D02*
X142141Y411849D01*
X141352Y411770D01*
X140588Y411631D01*
X139848Y411434D01*
X139134Y411178D01*
X138444Y410864D01*
X137779Y410490D01*
X137138Y410059D01*
X136522Y409568D01*
X135932Y409019D01*
X131689Y413261D01*
X132238Y413852D01*
X132729Y414468D01*
X133160Y415109D01*
X133534Y415774D01*
X133848Y416464D01*
X134104Y417178D01*
X134301Y417918D01*
X134440Y418682D01*
X134519Y419471D01*
X134540Y420285D01*
X142955Y411870D01*
D02*
G37*
G36*
X65339Y370030D02*
X65520Y369520D01*
X65822Y369070D01*
X66244Y368680D01*
X66787Y368350D01*
X67450Y368080D01*
X68234Y367870D01*
X69138Y367720D01*
X70164Y367630D01*
X71309Y367600D01*
Y361600D01*
X70164Y361570D01*
X69138Y361480D01*
X68234Y361330D01*
X67450Y361120D01*
X66787Y360850D01*
X66244Y360520D01*
X65822Y360130D01*
X65520Y359680D01*
X65339Y359170D01*
X65279Y358600D01*
Y370600D01*
X65339Y370030D01*
D02*
G37*
G36*
X212722Y34932D02*
X213338Y34441D01*
X213979Y34009D01*
X214644Y33636D01*
X215334Y33322D01*
X216049Y33066D01*
X216788Y32869D01*
X217552Y32730D01*
X218341Y32651D01*
X219155Y32630D01*
X210740Y24215D01*
X210719Y25029D01*
X210640Y25818D01*
X210501Y26582D01*
X210304Y27322D01*
X210048Y28036D01*
X209734Y28726D01*
X209361Y29391D01*
X208929Y30032D01*
X208438Y30648D01*
X207889Y31239D01*
X212132Y35481D01*
X212722Y34932D01*
D02*
G37*
G36*
X108430Y76824D02*
X108520Y75799D01*
X108670Y74894D01*
X108880Y74110D01*
X109150Y73447D01*
X109480Y72904D01*
X109870Y72482D01*
X110320Y72180D01*
X110830Y71999D01*
X111400Y71939D01*
X99400D01*
X99970Y71999D01*
X100480Y72180D01*
X100930Y72482D01*
X101320Y72904D01*
X101650Y73447D01*
X101920Y74110D01*
X102130Y74894D01*
X102280Y75799D01*
X102370Y76824D01*
X102400Y77969D01*
X108400D01*
X108430Y76824D01*
D02*
G37*
G36*
X353551Y62026D02*
X353646Y61243D01*
X353804Y60493D01*
X354024Y59774D01*
X354308Y59088D01*
X354655Y58433D01*
X355065Y57810D01*
X355537Y57219D01*
X356073Y56660D01*
X356672Y56133D01*
X345250Y55053D01*
Y43580D01*
X344660Y44141D01*
X344045Y44642D01*
X343407Y45085D01*
X342745Y45468D01*
X342058Y45792D01*
X341348Y46058D01*
X340614Y46265D01*
X339855Y46412D01*
X339073Y46501D01*
X338267Y46530D01*
Y52530D01*
X339073Y52559D01*
X339855Y52648D01*
X340614Y52796D01*
X341348Y53002D01*
X342058Y53267D01*
X342745Y53592D01*
X343407Y53976D01*
X344045Y54418D01*
X344660Y54920D01*
X345028Y55269D01*
X345337Y55660D01*
X345795Y56323D01*
X346199Y57004D01*
X346550Y57701D01*
X346846Y58414D01*
X347089Y59145D01*
X347277Y59892D01*
X347412Y60656D01*
X347493Y61436D01*
X347520Y62233D01*
X353520Y62840D01*
X353551Y62026D01*
D02*
G37*
G36*
X117399Y65430D02*
X117580Y64920D01*
X117882Y64470D01*
X118304Y64080D01*
X118847Y63750D01*
X119510Y63480D01*
X120294Y63270D01*
X121199Y63120D01*
X122224Y63030D01*
X123370Y63000D01*
Y57000D01*
X122224Y56970D01*
X121199Y56880D01*
X120294Y56730D01*
X119510Y56520D01*
X118847Y56250D01*
X118304Y55920D01*
X117882Y55530D01*
X117580Y55080D01*
X117399Y54570D01*
X117339Y54000D01*
Y66000D01*
X117399Y65430D01*
D02*
G37*
G36*
X324630Y68270D02*
X324128Y67655D01*
X323685Y67017D01*
X323302Y66355D01*
X322977Y65668D01*
X322712Y64958D01*
X322505Y64224D01*
X322358Y63465D01*
X322270Y62683D01*
X322240Y61877D01*
X316240D01*
X316210Y62683D01*
X316122Y63465D01*
X315975Y64224D01*
X315768Y64958D01*
X315502Y65668D01*
X315178Y66355D01*
X314795Y67017D01*
X314352Y67655D01*
X313850Y68270D01*
X313290Y68860D01*
X325190D01*
X324630Y68270D01*
D02*
G37*
G36*
X127385Y137550D02*
X126571Y137529D01*
X125782Y137450D01*
X125018Y137311D01*
X124278Y137114D01*
X123564Y136858D01*
X122874Y136544D01*
X122209Y136171D01*
X121568Y135739D01*
X120952Y135248D01*
X120361Y134699D01*
X116119Y138941D01*
X116668Y139532D01*
X117159Y140148D01*
X117591Y140789D01*
X117964Y141454D01*
X118278Y142144D01*
X118534Y142858D01*
X118731Y143598D01*
X118870Y144362D01*
X118949Y145151D01*
X118970Y145965D01*
X127385Y137550D01*
D02*
G37*
G36*
X322270Y36377D02*
X322358Y35594D01*
X322505Y34836D01*
X322712Y34102D01*
X322977Y33392D01*
X323302Y32705D01*
X323685Y32043D01*
X324128Y31405D01*
X324630Y30791D01*
X325190Y30200D01*
X313290D01*
X313850Y30791D01*
X314352Y31405D01*
X314795Y32043D01*
X315178Y32705D01*
X315502Y33392D01*
X315768Y34102D01*
X315975Y34836D01*
X316122Y35594D01*
X316210Y36377D01*
X316240Y37183D01*
X322240D01*
X322270Y36377D01*
D02*
G37*
G36*
X322300Y57390D02*
X322480Y56370D01*
X322780Y55470D01*
X323200Y54690D01*
X323740Y54030D01*
X324400Y53490D01*
X325180Y53070D01*
X326080Y52770D01*
X327100Y52590D01*
X328240Y52530D01*
Y46530D01*
X327100Y46470D01*
X326080Y46290D01*
X325180Y45990D01*
X324400Y45570D01*
X323740Y45030D01*
X323200Y44370D01*
X322780Y43590D01*
X322480Y42690D01*
X322300Y41670D01*
X322240Y40530D01*
X316240Y49530D01*
X322240Y58530D01*
X322300Y57390D01*
D02*
G37*
G36*
X355910Y136379D02*
X355408Y135765D01*
X354966Y135127D01*
X354582Y134465D01*
X354258Y133778D01*
X353992Y133068D01*
X353786Y132334D01*
X353638Y131575D01*
X353549Y130793D01*
X353520Y129987D01*
X347520D01*
X347491Y130793D01*
X347402Y131575D01*
X347254Y132334D01*
X347048Y133068D01*
X346782Y133778D01*
X346458Y134465D01*
X346074Y135127D01*
X345632Y135765D01*
X345131Y136379D01*
X344570Y136970D01*
X356470D01*
X355910Y136379D01*
D02*
G37*
G36*
X344002Y153842D02*
X344618Y153351D01*
X345259Y152920D01*
X345924Y152546D01*
X346614Y152232D01*
X347328Y151976D01*
X348068Y151779D01*
X348832Y151640D01*
X349621Y151561D01*
X350435Y151540D01*
X342020Y143125D01*
X341999Y143939D01*
X341920Y144728D01*
X341781Y145492D01*
X341584Y146231D01*
X341328Y146946D01*
X341014Y147636D01*
X340640Y148301D01*
X340209Y148942D01*
X339718Y149558D01*
X339169Y150148D01*
X343411Y154391D01*
X344002Y153842D01*
D02*
G37*
G36*
X348411Y373751D02*
X348490Y372962D01*
X348629Y372198D01*
X348826Y371459D01*
X349082Y370744D01*
X349396Y370054D01*
X349770Y369389D01*
X350201Y368748D01*
X350692Y368132D01*
X351241Y367542D01*
X346998Y363299D01*
X346408Y363848D01*
X345792Y364339D01*
X345151Y364771D01*
X344486Y365144D01*
X343796Y365458D01*
X343082Y365714D01*
X342342Y365911D01*
X341578Y366050D01*
X340789Y366129D01*
X339975Y366150D01*
X348390Y374565D01*
X348411Y373751D01*
D02*
G37*
G36*
X173500Y203510D02*
X174115Y203008D01*
X174753Y202565D01*
X175415Y202182D01*
X176102Y201857D01*
X176812Y201592D01*
X177546Y201385D01*
X178305Y201238D01*
X179087Y201150D01*
X179893Y201120D01*
Y195120D01*
X179087Y195091D01*
X178305Y195002D01*
X177546Y194855D01*
X176812Y194648D01*
X176102Y194382D01*
X175415Y194058D01*
X174753Y193675D01*
X174115Y193232D01*
X173500Y192731D01*
X172910Y192170D01*
Y204070D01*
X173500Y203510D01*
D02*
G37*
G36*
X215150Y232650D02*
X215330Y231630D01*
X215630Y230730D01*
X216050Y229950D01*
X216590Y229290D01*
X217250Y228750D01*
X218030Y228330D01*
X218930Y228030D01*
X219950Y227850D01*
X221090Y227790D01*
X212090Y221790D01*
X203090Y227790D01*
X204230Y227850D01*
X205250Y228030D01*
X206150Y228330D01*
X206930Y228750D01*
X207590Y229290D01*
X208130Y229950D01*
X208550Y230730D01*
X208850Y231630D01*
X209030Y232650D01*
X209090Y233790D01*
X215090D01*
X215150Y232650D01*
D02*
G37*
G36*
X138821Y153159D02*
X138272Y152568D01*
X137781Y151952D01*
X137350Y151311D01*
X136976Y150646D01*
X136662Y149956D01*
X136406Y149242D01*
X136209Y148502D01*
X136070Y147738D01*
X135991Y146949D01*
X135970Y146135D01*
X127555Y154550D01*
X128369Y154571D01*
X129158Y154650D01*
X129922Y154789D01*
X130661Y154986D01*
X131376Y155242D01*
X132066Y155556D01*
X132731Y155929D01*
X133372Y156361D01*
X133988Y156852D01*
X134579Y157401D01*
X138821Y153159D01*
D02*
G37*
G36*
X339805Y317890D02*
X338991Y317869D01*
X338202Y317790D01*
X337438Y317651D01*
X336698Y317454D01*
X335984Y317198D01*
X335294Y316884D01*
X334629Y316511D01*
X333988Y316079D01*
X333372Y315588D01*
X332781Y315039D01*
X328539Y319282D01*
X329088Y319872D01*
X329579Y320488D01*
X330010Y321129D01*
X330384Y321794D01*
X330698Y322484D01*
X330954Y323199D01*
X331151Y323938D01*
X331290Y324702D01*
X331369Y325491D01*
X331390Y326305D01*
X339805Y317890D01*
D02*
G37*
G36*
X265919Y236567D02*
X266008Y235784D01*
X266155Y235026D01*
X266362Y234292D01*
X266628Y233582D01*
X266952Y232895D01*
X267335Y232233D01*
X267778Y231595D01*
X268279Y230980D01*
X268840Y230390D01*
X256940D01*
X257500Y230980D01*
X258002Y231595D01*
X258444Y232233D01*
X258828Y232895D01*
X259153Y233582D01*
X259418Y234292D01*
X259625Y235026D01*
X259772Y235784D01*
X259860Y236567D01*
X259890Y237373D01*
X265890D01*
X265919Y236567D01*
D02*
G37*
G36*
X217479Y259240D02*
X216978Y258625D01*
X216535Y257987D01*
X216152Y257325D01*
X215828Y256638D01*
X215562Y255928D01*
X215355Y255194D01*
X215208Y254436D01*
X215119Y253653D01*
X215090Y252847D01*
X209090D01*
X209060Y253653D01*
X208972Y254436D01*
X208825Y255194D01*
X208618Y255928D01*
X208353Y256638D01*
X208028Y257325D01*
X207645Y257987D01*
X207202Y258625D01*
X206700Y259240D01*
X206140Y259830D01*
X218040D01*
X217479Y259240D01*
D02*
G37*
G36*
X466370Y259950D02*
X465779Y260511D01*
X465165Y261012D01*
X464527Y261455D01*
X463865Y261838D01*
X463178Y262162D01*
X462468Y262428D01*
X461734Y262635D01*
X460975Y262782D01*
X460193Y262871D01*
X459387Y262900D01*
Y268900D01*
X460193Y268930D01*
X460975Y269018D01*
X461734Y269165D01*
X462468Y269372D01*
X463178Y269638D01*
X463865Y269962D01*
X464527Y270345D01*
X465165Y270788D01*
X465779Y271290D01*
X466370Y271850D01*
Y259950D01*
D02*
G37*
D12*
X252730Y209550D02*
X356870D01*
X237490Y224790D02*
X252730Y209550D01*
X212090Y224790D02*
X237490D01*
X212090D02*
Y265900D01*
X167640Y224790D02*
X212090D01*
X146050Y203200D02*
X167640Y224790D01*
X127470Y146050D02*
X146050Y164630D01*
Y203200D01*
X356870Y209550D02*
X413220Y265900D01*
X472440D01*
X166840Y198120D02*
X295440D01*
X66840D02*
X143040Y274320D01*
Y363220D01*
X105400Y123980D02*
X127470Y146050D01*
X105400Y60000D02*
Y123980D01*
X183370Y60000D02*
X219240Y24130D01*
X105400Y60000D02*
X183370D01*
X319240Y49530D02*
Y74930D01*
Y24130D02*
Y49530D01*
X351320D01*
X350520Y50330D02*
Y143040D01*
X262890Y249390D02*
X339890Y326390D01*
X262890Y224320D02*
Y249390D01*
X350520Y243040D02*
X356870Y249390D01*
Y357670D01*
X339890Y374650D02*
X356870Y357670D01*
X295440Y198120D02*
X350520Y143040D01*
X514350Y192570D02*
X565150D01*
X544830Y364600D02*
X565150Y344280D01*
Y292570D02*
Y344280D01*
X473710Y292570D02*
X514350D01*
X439890Y326390D02*
X473710Y292570D01*
X439890Y326390D02*
Y374650D01*
X243040Y344170D02*
X262890Y324320D01*
X243040Y344170D02*
Y363220D01*
Y420370D01*
X87270Y364600D02*
X143040Y420370D01*
X53340Y364600D02*
X87270D01*
D13*
X0Y450000D02*
X600000D01*
Y0D02*
Y450000D01*
X0Y0D02*
X600000D01*
X0D02*
Y450000D01*
D14*
X105400Y60000D02*
D03*
D15*
X54600D02*
D03*
X544830Y364600D02*
D03*
X53340Y415400D02*
D03*
D16*
X544830D02*
D03*
X53340Y364600D02*
D03*
D17*
X262890Y324320D02*
D03*
Y224320D02*
D03*
X514350Y292570D02*
D03*
Y192570D02*
D03*
X143040Y363220D02*
D03*
X243040D02*
D03*
Y420370D02*
D03*
X143040D02*
D03*
X339890Y374650D02*
D03*
X439890D02*
D03*
Y326390D02*
D03*
X339890D02*
D03*
X565150Y292570D02*
D03*
Y192570D02*
D03*
X66840Y198120D02*
D03*
X166840D02*
D03*
X350520Y243040D02*
D03*
Y143040D02*
D03*
X219240Y24130D02*
D03*
X319240D02*
D03*
X212090Y165900D02*
D03*
Y265900D02*
D03*
X27470Y146050D02*
D03*
X127470D02*
D03*
X472440Y165900D02*
D03*
Y265900D02*
D03*
X451320Y49530D02*
D03*
X351320D02*
D03*
X319240Y74930D02*
D03*
X219240D02*
D03*
M02*
