M48
;Layer_Color=9474304
;FILE_FORMAT=4:4
METRIC,LZ
;TYPE=PLATED
T1F00S00C0.9000
T2F00S00C1.4000
%
T01
X0051435Y0019257
X0056515
X0047244Y001659
Y002659
X0035052Y0024304
Y0014304
X0035132Y0004953
X0031924Y0002413
Y0007493
X0021924
Y0002413
X0021209Y001659
X0016684Y0019812
X0012747Y0014605
X0021209Y002659
X0026289Y0022432
X0045132Y0004953
X0002747Y0014605
X0006684Y0019812
X0014304Y0036322
Y0042037
X0024304
Y0036322
X0026289Y0032432
X0033989Y0032639
Y0037465
X0043989
Y0032639
X0051435Y0029257
X0056515
T02
X001054Y0006
X000546
X0005334Y003646
Y004154
X0054483
Y003646
M30
