G04 Layer_Physical_Order=1*
G04 Layer_Color=6759642*
%FSLAX44Y44*%
%MOMM*%
G71*
G01*
G75*
%ADD10C,0.3000*%
%ADD11O,0.6000X3.0000*%
%ADD12R,0.6000X3.0000*%
%ADD13C,1.0000*%
%ADD14C,0.5000*%
%ADD15C,0.6000*%
%ADD16C,0.8000*%
%ADD17C,0.1000*%
%ADD18C,2.4000*%
%ADD19R,2.4000X2.4000*%
%ADD20C,1.7000*%
%ADD21R,1.5000X1.5000*%
%ADD22C,1.5000*%
%ADD23C,1.8000*%
%ADD24R,1.8000X1.8000*%
%ADD25R,1.5000X1.5000*%
G36*
X1047750Y6350D02*
X6350D01*
Y596900D01*
X1047750D01*
Y6350D01*
D02*
G37*
%LPC*%
G36*
X25400Y246380D02*
X15198D01*
X15427Y244638D01*
X16590Y241830D01*
X18440Y239420D01*
X20850Y237570D01*
X23658Y236407D01*
X25400Y236178D01*
Y246380D01*
D02*
G37*
G36*
X38142D02*
X27940D01*
Y236178D01*
X29683Y236407D01*
X32490Y237570D01*
X34900Y239420D01*
X36750Y241830D01*
X37913Y244638D01*
X38142Y246380D01*
D02*
G37*
G36*
X904710Y242570D02*
X895012D01*
X895224Y240958D01*
X896337Y238272D01*
X898106Y235966D01*
X900412Y234197D01*
X903098Y233084D01*
X904710Y232872D01*
Y242570D01*
D02*
G37*
G36*
X916948D02*
X907250D01*
Y232872D01*
X908862Y233084D01*
X911548Y234197D01*
X913854Y235966D01*
X915623Y238272D01*
X916736Y240958D01*
X916948Y242570D01*
D02*
G37*
G36*
X578730Y247650D02*
X568528D01*
X568757Y245907D01*
X569920Y243100D01*
X571770Y240690D01*
X574180Y238840D01*
X576987Y237677D01*
X578730Y237448D01*
Y247650D01*
D02*
G37*
G36*
X293819Y247650D02*
X285130D01*
Y238961D01*
X286481Y239138D01*
X288923Y240150D01*
X291021Y241759D01*
X292630Y243857D01*
X293642Y246299D01*
X293819Y247650D01*
D02*
G37*
G36*
X433690D02*
X425001D01*
X425178Y246299D01*
X426190Y243857D01*
X427799Y241759D01*
X429897Y240150D01*
X432339Y239138D01*
X433690Y238961D01*
Y247650D01*
D02*
G37*
G36*
X591472Y247650D02*
X581270D01*
Y237448D01*
X583013Y237677D01*
X585820Y238840D01*
X588230Y240690D01*
X590080Y243100D01*
X591243Y245907D01*
X591472Y247650D01*
D02*
G37*
G36*
X282590Y247650D02*
X273901D01*
X274078Y246299D01*
X275090Y243857D01*
X276699Y241759D01*
X278797Y240150D01*
X281239Y239138D01*
X282590Y238961D01*
Y247650D01*
D02*
G37*
G36*
X805980Y254975D02*
X803098Y254596D01*
X800412Y253483D01*
X798106Y251714D01*
X796337Y249408D01*
X795224Y246722D01*
X794845Y243840D01*
X795224Y240958D01*
X796337Y238272D01*
X798106Y235966D01*
X800412Y234197D01*
X803098Y233084D01*
X805980Y232705D01*
X808862Y233084D01*
X811548Y234197D01*
X813854Y235966D01*
X815623Y238272D01*
X816736Y240958D01*
X817115Y243840D01*
X816736Y246722D01*
X815623Y249408D01*
X813854Y251714D01*
X811548Y253483D01*
X808862Y254596D01*
X805980Y254975D01*
D02*
G37*
G36*
X591472Y222250D02*
X581270D01*
Y212048D01*
X583013Y212277D01*
X585820Y213440D01*
X588230Y215290D01*
X590080Y217700D01*
X591243Y220508D01*
X591472Y222250D01*
D02*
G37*
G36*
X99060Y223050D02*
X89362D01*
X89574Y221438D01*
X90687Y218752D01*
X92456Y216446D01*
X94762Y214677D01*
X97448Y213564D01*
X99060Y213352D01*
Y223050D01*
D02*
G37*
G36*
X891540Y189405D02*
X888658Y189026D01*
X885972Y187913D01*
X883666Y186144D01*
X881897Y183838D01*
X880784Y181152D01*
X880405Y178270D01*
X880784Y175388D01*
X881897Y172702D01*
X883666Y170396D01*
X885972Y168627D01*
X888658Y167514D01*
X891540Y167135D01*
X894422Y167514D01*
X897108Y168627D01*
X899414Y170396D01*
X901183Y172702D01*
X902296Y175388D01*
X902675Y178270D01*
X902296Y181152D01*
X901183Y183838D01*
X899414Y186144D01*
X897108Y187913D01*
X894422Y189026D01*
X891540Y189405D01*
D02*
G37*
G36*
X578730Y222250D02*
X568528D01*
X568757Y220508D01*
X569920Y217700D01*
X571770Y215290D01*
X574180Y213440D01*
X576987Y212277D01*
X578730Y212048D01*
Y222250D01*
D02*
G37*
G36*
X111298Y223050D02*
X101600D01*
Y213352D01*
X103212Y213564D01*
X105898Y214677D01*
X108204Y216446D01*
X109973Y218752D01*
X111086Y221438D01*
X111298Y223050D01*
D02*
G37*
G36*
X99060Y235288D02*
X97448Y235076D01*
X94762Y233963D01*
X92456Y232194D01*
X90687Y229888D01*
X89574Y227202D01*
X89362Y225590D01*
X99060D01*
Y235288D01*
D02*
G37*
G36*
X101600D02*
Y225590D01*
X111298D01*
X111086Y227202D01*
X109973Y229888D01*
X108204Y232194D01*
X105898Y233963D01*
X103212Y235076D01*
X101600Y235288D01*
D02*
G37*
G36*
X578730Y234992D02*
X576987Y234763D01*
X574180Y233600D01*
X571770Y231750D01*
X569920Y229340D01*
X568757Y226532D01*
X568528Y224790D01*
X578730D01*
Y234992D01*
D02*
G37*
G36*
X581270Y234992D02*
Y224790D01*
X591472D01*
X591243Y226532D01*
X590080Y229340D01*
X588230Y231750D01*
X585820Y233600D01*
X583013Y234763D01*
X581270Y234992D01*
D02*
G37*
G36*
X444919Y247650D02*
X436230D01*
Y238961D01*
X437581Y239138D01*
X440023Y240150D01*
X442121Y241759D01*
X443730Y243857D01*
X444742Y246299D01*
X444919Y247650D01*
D02*
G37*
G36*
X283860Y284447D02*
X281239Y284102D01*
X278797Y283090D01*
X276699Y281481D01*
X275090Y279383D01*
X274078Y276941D01*
X273733Y274320D01*
X274078Y271699D01*
X275090Y269257D01*
X276699Y267159D01*
X278797Y265550D01*
X281239Y264538D01*
X283860Y264193D01*
X286481Y264538D01*
X288923Y265550D01*
X291021Y267159D01*
X292630Y269257D01*
X293642Y271699D01*
X293987Y274320D01*
X293642Y276941D01*
X292630Y279383D01*
X291021Y281481D01*
X288923Y283090D01*
X286481Y284102D01*
X283860Y284447D01*
D02*
G37*
G36*
X434960D02*
X432339Y284102D01*
X429897Y283090D01*
X427799Y281481D01*
X426190Y279383D01*
X425178Y276941D01*
X424833Y274320D01*
X425178Y271699D01*
X426190Y269257D01*
X427799Y267159D01*
X429897Y265550D01*
X432339Y264538D01*
X434960Y264193D01*
X437581Y264538D01*
X440023Y265550D01*
X442121Y267159D01*
X443730Y269257D01*
X444742Y271699D01*
X445087Y274320D01*
X444742Y276941D01*
X443730Y279383D01*
X442121Y281481D01*
X440023Y283090D01*
X437581Y284102D01*
X434960Y284447D01*
D02*
G37*
G36*
X26670Y284690D02*
X23658Y284293D01*
X20850Y283130D01*
X18440Y281280D01*
X16590Y278870D01*
X15427Y276063D01*
X15030Y273050D01*
X15427Y270037D01*
X16590Y267230D01*
X18440Y264820D01*
X20850Y262970D01*
X23658Y261807D01*
X26670Y261410D01*
X29683Y261807D01*
X32490Y262970D01*
X34900Y264820D01*
X36750Y267230D01*
X37913Y270037D01*
X38310Y273050D01*
X37913Y276063D01*
X36750Y278870D01*
X34900Y281280D01*
X32490Y283130D01*
X29683Y284293D01*
X26670Y284690D01*
D02*
G37*
G36*
X580000Y285960D02*
X576987Y285563D01*
X574180Y284400D01*
X571770Y282550D01*
X569920Y280140D01*
X568757Y277332D01*
X568360Y274320D01*
X568757Y271308D01*
X569920Y268500D01*
X571770Y266090D01*
X574180Y264240D01*
X576987Y263077D01*
X580000Y262680D01*
X583013Y263077D01*
X585820Y264240D01*
X588230Y266090D01*
X590080Y268500D01*
X591243Y271308D01*
X591640Y274320D01*
X591243Y277332D01*
X590080Y280140D01*
X588230Y282550D01*
X585820Y284400D01*
X583013Y285563D01*
X580000Y285960D01*
D02*
G37*
G36*
X26670Y310090D02*
X23658Y309693D01*
X20850Y308530D01*
X18440Y306680D01*
X16590Y304270D01*
X15427Y301462D01*
X15030Y298450D01*
X15427Y295438D01*
X16590Y292630D01*
X18440Y290220D01*
X20850Y288370D01*
X23658Y287207D01*
X26670Y286810D01*
X29683Y287207D01*
X32490Y288370D01*
X34900Y290220D01*
X36750Y292630D01*
X37913Y295438D01*
X38310Y298450D01*
X37913Y301462D01*
X36750Y304270D01*
X34900Y306680D01*
X32490Y308530D01*
X29683Y309693D01*
X26670Y310090D01*
D02*
G37*
G36*
X434960Y309847D02*
X432339Y309502D01*
X429897Y308490D01*
X427799Y306881D01*
X426190Y304783D01*
X425178Y302341D01*
X424833Y299720D01*
X425178Y297099D01*
X426190Y294657D01*
X427799Y292559D01*
X429897Y290950D01*
X432339Y289938D01*
X434960Y289593D01*
X437581Y289938D01*
X440023Y290950D01*
X442121Y292559D01*
X443730Y294657D01*
X444742Y297099D01*
X445087Y299720D01*
X444742Y302341D01*
X443730Y304783D01*
X442121Y306881D01*
X440023Y308490D01*
X437581Y309502D01*
X434960Y309847D01*
D02*
G37*
G36*
X26670Y335490D02*
X23658Y335093D01*
X20850Y333930D01*
X18440Y332080D01*
X16590Y329670D01*
X15427Y326862D01*
X15030Y323850D01*
X15427Y320838D01*
X16590Y318030D01*
X18440Y315620D01*
X20850Y313770D01*
X23658Y312607D01*
X26670Y312211D01*
X29683Y312607D01*
X32490Y313770D01*
X34900Y315620D01*
X36750Y318030D01*
X37913Y320838D01*
X38310Y323850D01*
X37913Y326862D01*
X36750Y329670D01*
X34900Y332080D01*
X32490Y333930D01*
X29683Y335093D01*
X26670Y335490D01*
D02*
G37*
G36*
X580000Y311360D02*
X576987Y310963D01*
X574180Y309800D01*
X571770Y307950D01*
X569920Y305540D01*
X568757Y302733D01*
X568360Y299720D01*
X568757Y296707D01*
X569920Y293900D01*
X571770Y291490D01*
X574180Y289640D01*
X576987Y288477D01*
X580000Y288080D01*
X583013Y288477D01*
X585820Y289640D01*
X588230Y291490D01*
X590080Y293900D01*
X591243Y296707D01*
X591640Y299720D01*
X591243Y302733D01*
X590080Y305540D01*
X588230Y307950D01*
X585820Y309800D01*
X583013Y310963D01*
X580000Y311360D01*
D02*
G37*
G36*
X283860Y309847D02*
X281239Y309502D01*
X278797Y308490D01*
X276699Y306881D01*
X275090Y304783D01*
X274078Y302341D01*
X273733Y299720D01*
X274078Y297099D01*
X275090Y294657D01*
X276699Y292559D01*
X278797Y290950D01*
X281239Y289938D01*
X283860Y289593D01*
X286481Y289938D01*
X288923Y290950D01*
X291021Y292559D01*
X292630Y294657D01*
X293642Y297099D01*
X293987Y299720D01*
X293642Y302341D01*
X292630Y304783D01*
X291021Y306881D01*
X288923Y308490D01*
X286481Y309502D01*
X283860Y309847D01*
D02*
G37*
G36*
X581270Y260392D02*
Y250190D01*
X591472D01*
X591243Y251933D01*
X590080Y254740D01*
X588230Y257150D01*
X585820Y259000D01*
X583013Y260163D01*
X581270Y260392D01*
D02*
G37*
G36*
X25400Y259122D02*
X23658Y258893D01*
X20850Y257730D01*
X18440Y255880D01*
X16590Y253470D01*
X15427Y250662D01*
X15198Y248920D01*
X25400D01*
Y259122D01*
D02*
G37*
G36*
X27940D02*
Y248920D01*
X38142D01*
X37913Y250662D01*
X36750Y253470D01*
X34900Y255880D01*
X32490Y257730D01*
X29683Y258893D01*
X27940Y259122D01*
D02*
G37*
G36*
X904710Y254808D02*
X903098Y254596D01*
X900412Y253483D01*
X898106Y251714D01*
X896337Y249408D01*
X895224Y246722D01*
X895012Y245110D01*
X904710D01*
Y254808D01*
D02*
G37*
G36*
X907250D02*
Y245110D01*
X916948D01*
X916736Y246722D01*
X915623Y249408D01*
X913854Y251714D01*
X911548Y253483D01*
X908862Y254596D01*
X907250Y254808D01*
D02*
G37*
G36*
X282590Y258879D02*
X281239Y258702D01*
X278797Y257690D01*
X276699Y256081D01*
X275090Y253983D01*
X274078Y251541D01*
X273901Y250190D01*
X282590D01*
Y258879D01*
D02*
G37*
G36*
X436230D02*
Y250190D01*
X444919D01*
X444742Y251541D01*
X443730Y253983D01*
X442121Y256081D01*
X440023Y257690D01*
X437581Y258702D01*
X436230Y258879D01*
D02*
G37*
G36*
X578730Y260392D02*
X576987Y260163D01*
X574180Y259000D01*
X571770Y257150D01*
X569920Y254740D01*
X568757Y251933D01*
X568528Y250190D01*
X578730D01*
Y260392D01*
D02*
G37*
G36*
X285130Y258879D02*
Y250190D01*
X293819D01*
X293642Y251541D01*
X292630Y253983D01*
X291021Y256081D01*
X288923Y257690D01*
X286481Y258702D01*
X285130Y258879D01*
D02*
G37*
G36*
X433690D02*
X432339Y258702D01*
X429897Y257690D01*
X427799Y256081D01*
X426190Y253983D01*
X425178Y251541D01*
X425001Y250190D01*
X433690D01*
Y258879D01*
D02*
G37*
G36*
X815340Y189405D02*
X812458Y189026D01*
X809772Y187913D01*
X807466Y186144D01*
X805697Y183838D01*
X804584Y181152D01*
X804205Y178270D01*
X804584Y175388D01*
X805697Y172702D01*
X807466Y170396D01*
X809772Y168627D01*
X812458Y167514D01*
X815340Y167135D01*
X818222Y167514D01*
X820908Y168627D01*
X823214Y170396D01*
X824983Y172702D01*
X826096Y175388D01*
X826475Y178270D01*
X826096Y181152D01*
X824983Y183838D01*
X823214Y186144D01*
X820908Y187913D01*
X818222Y189026D01*
X815340Y189405D01*
D02*
G37*
G36*
X298450Y82517D02*
X295829Y82172D01*
X293387Y81160D01*
X291289Y79551D01*
X289680Y77453D01*
X288668Y75011D01*
X288323Y72390D01*
X288668Y69769D01*
X289680Y67327D01*
X291289Y65229D01*
X293387Y63620D01*
X295829Y62608D01*
X298450Y62263D01*
X301071Y62608D01*
X303513Y63620D01*
X305611Y65229D01*
X307220Y67327D01*
X308232Y69769D01*
X308577Y72390D01*
X308232Y75011D01*
X307220Y77453D01*
X305611Y79551D01*
X303513Y81160D01*
X301071Y82172D01*
X298450Y82517D01*
D02*
G37*
G36*
X739140Y77000D02*
X729442D01*
X729654Y75388D01*
X730767Y72702D01*
X732536Y70396D01*
X734842Y68627D01*
X737528Y67514D01*
X739140Y67302D01*
Y77000D01*
D02*
G37*
G36*
X247650Y82517D02*
X245029Y82172D01*
X242587Y81160D01*
X240489Y79551D01*
X238880Y77453D01*
X237868Y75011D01*
X237523Y72390D01*
X237868Y69769D01*
X238880Y67327D01*
X240489Y65229D01*
X242587Y63620D01*
X245029Y62608D01*
X247650Y62263D01*
X250271Y62608D01*
X252713Y63620D01*
X254811Y65229D01*
X256420Y67327D01*
X257432Y69769D01*
X257777Y72390D01*
X257432Y75011D01*
X256420Y77453D01*
X254811Y79551D01*
X252713Y81160D01*
X250271Y82172D01*
X247650Y82517D01*
D02*
G37*
G36*
X273050D02*
X270429Y82172D01*
X267987Y81160D01*
X265889Y79551D01*
X264280Y77453D01*
X263268Y75011D01*
X262923Y72390D01*
X263268Y69769D01*
X264280Y67327D01*
X265889Y65229D01*
X267987Y63620D01*
X270429Y62608D01*
X273050Y62263D01*
X275671Y62608D01*
X278113Y63620D01*
X280211Y65229D01*
X281820Y67327D01*
X282832Y69769D01*
X283177Y72390D01*
X282832Y75011D01*
X281820Y77453D01*
X280211Y79551D01*
X278113Y81160D01*
X275671Y82172D01*
X273050Y82517D01*
D02*
G37*
G36*
X814070Y77000D02*
X804372D01*
X804584Y75388D01*
X805697Y72702D01*
X807466Y70396D01*
X809772Y68627D01*
X812458Y67514D01*
X814070Y67302D01*
Y77000D01*
D02*
G37*
G36*
X826308D02*
X816610D01*
Y67302D01*
X818222Y67514D01*
X820908Y68627D01*
X823214Y70396D01*
X824983Y72702D01*
X826096Y75388D01*
X826308Y77000D01*
D02*
G37*
G36*
X902508D02*
X892810D01*
Y67302D01*
X894422Y67514D01*
X897108Y68627D01*
X899414Y70396D01*
X901183Y72702D01*
X902296Y75388D01*
X902508Y77000D01*
D02*
G37*
G36*
X890270D02*
X880572D01*
X880784Y75388D01*
X881897Y72702D01*
X883666Y70396D01*
X885972Y68627D01*
X888658Y67514D01*
X890270Y67302D01*
Y77000D01*
D02*
G37*
G36*
X751378D02*
X741680D01*
Y67302D01*
X743292Y67514D01*
X745978Y68627D01*
X748284Y70396D01*
X750053Y72702D01*
X751166Y75388D01*
X751378Y77000D01*
D02*
G37*
G36*
X222250Y82517D02*
X219629Y82172D01*
X217187Y81160D01*
X215089Y79551D01*
X213480Y77453D01*
X212468Y75011D01*
X212123Y72390D01*
X212468Y69769D01*
X213480Y67327D01*
X215089Y65229D01*
X217187Y63620D01*
X219629Y62608D01*
X222250Y62263D01*
X224871Y62608D01*
X227313Y63620D01*
X229411Y65229D01*
X231020Y67327D01*
X232032Y69769D01*
X232377Y72390D01*
X232032Y75011D01*
X231020Y77453D01*
X229411Y79551D01*
X227313Y81160D01*
X224871Y82172D01*
X222250Y82517D01*
D02*
G37*
G36*
X397980Y39370D02*
X388282D01*
X388494Y37758D01*
X389607Y35072D01*
X391376Y32766D01*
X393682Y30997D01*
X396368Y29884D01*
X397980Y29672D01*
Y39370D01*
D02*
G37*
G36*
X410218D02*
X400520D01*
Y29672D01*
X402132Y29884D01*
X404818Y30997D01*
X407124Y32766D01*
X408893Y35072D01*
X410006Y37758D01*
X410218Y39370D01*
D02*
G37*
G36*
X65105Y89413D02*
X64801Y89309D01*
X64481Y89289D01*
X63861Y88987D01*
X63208Y88763D01*
X62968Y88551D01*
X62679Y88410D01*
X62222Y87893D01*
X61705Y87437D01*
X61563Y87149D01*
X61350Y86908D01*
X31300Y35358D01*
X31187Y35027D01*
X30992Y34736D01*
X30863Y34088D01*
X30648Y33462D01*
X30670Y33113D01*
X30601Y32770D01*
X30730Y32121D01*
X30771Y31461D01*
X30924Y31147D01*
X30992Y30803D01*
X31360Y30253D01*
X31650Y29659D01*
X31912Y29427D01*
X32106Y29136D01*
X32656Y28769D01*
X33152Y28331D01*
X33483Y28217D01*
X33774Y28022D01*
X34422Y27893D01*
X35048Y27678D01*
X35397Y27699D01*
X35740Y27631D01*
X95740D01*
X96079Y27699D01*
X96425Y27677D01*
X97054Y27893D01*
X97706Y28022D01*
X97994Y28215D01*
X98321Y28327D01*
X98820Y28767D01*
X99374Y29136D01*
X99566Y29424D01*
X99825Y29653D01*
X100118Y30250D01*
X100487Y30803D01*
X100555Y31143D01*
X100707Y31454D01*
X100749Y32117D01*
X100879Y32770D01*
X100811Y33109D01*
X100833Y33455D01*
X100617Y34084D01*
X100487Y34736D01*
X100295Y35024D01*
X100183Y35352D01*
X70233Y86902D01*
X70021Y87142D01*
X69880Y87431D01*
X69363Y87888D01*
X68907Y88405D01*
X68619Y88547D01*
X68378Y88759D01*
X67726Y88984D01*
X67106Y89287D01*
X66786Y89307D01*
X66482Y89412D01*
X65794Y89370D01*
X65105Y89413D01*
D02*
G37*
G36*
X299250Y51775D02*
X296368Y51396D01*
X293682Y50283D01*
X291376Y48514D01*
X289607Y46208D01*
X288494Y43522D01*
X288115Y40640D01*
X288494Y37758D01*
X289607Y35072D01*
X291376Y32766D01*
X293682Y30997D01*
X296368Y29884D01*
X299250Y29505D01*
X302132Y29884D01*
X304818Y30997D01*
X307124Y32766D01*
X308893Y35072D01*
X310006Y37758D01*
X310385Y40640D01*
X310006Y43522D01*
X308893Y46208D01*
X307124Y48514D01*
X304818Y50283D01*
X302132Y51396D01*
X299250Y51775D01*
D02*
G37*
G36*
X397980Y51608D02*
X396368Y51396D01*
X393682Y50283D01*
X391376Y48514D01*
X389607Y46208D01*
X388494Y43522D01*
X388282Y41910D01*
X397980D01*
Y51608D01*
D02*
G37*
G36*
X171450Y82517D02*
X168829Y82172D01*
X166387Y81160D01*
X164289Y79551D01*
X162680Y77453D01*
X161668Y75011D01*
X161323Y72390D01*
X161668Y69769D01*
X162680Y67327D01*
X164289Y65229D01*
X166387Y63620D01*
X168829Y62608D01*
X171450Y62263D01*
X174071Y62608D01*
X176513Y63620D01*
X178611Y65229D01*
X180220Y67327D01*
X181232Y69769D01*
X181577Y72390D01*
X181232Y75011D01*
X180220Y77453D01*
X178611Y79551D01*
X176513Y81160D01*
X174071Y82172D01*
X171450Y82517D01*
D02*
G37*
G36*
X196850D02*
X194229Y82172D01*
X191787Y81160D01*
X189689Y79551D01*
X188080Y77453D01*
X187068Y75011D01*
X186723Y72390D01*
X187068Y69769D01*
X188080Y67327D01*
X189689Y65229D01*
X191787Y63620D01*
X194229Y62608D01*
X196850Y62263D01*
X199471Y62608D01*
X201913Y63620D01*
X204011Y65229D01*
X205620Y67327D01*
X206632Y69769D01*
X206977Y72390D01*
X206632Y75011D01*
X205620Y77453D01*
X204011Y79551D01*
X201913Y81160D01*
X199471Y82172D01*
X196850Y82517D01*
D02*
G37*
G36*
X400520Y51608D02*
Y41910D01*
X410218D01*
X410006Y43522D01*
X408893Y46208D01*
X407124Y48514D01*
X404818Y50283D01*
X402132Y51396D01*
X400520Y51608D01*
D02*
G37*
G36*
X146050Y82517D02*
X143429Y82172D01*
X140987Y81160D01*
X138889Y79551D01*
X137280Y77453D01*
X136268Y75011D01*
X135923Y72390D01*
X136268Y69769D01*
X137280Y67327D01*
X138889Y65229D01*
X140987Y63620D01*
X143429Y62608D01*
X146050Y62263D01*
X148671Y62608D01*
X151113Y63620D01*
X153211Y65229D01*
X154820Y67327D01*
X155832Y69769D01*
X156177Y72390D01*
X155832Y75011D01*
X154820Y77453D01*
X153211Y79551D01*
X151113Y81160D01*
X148671Y82172D01*
X146050Y82517D01*
D02*
G37*
G36*
X739140Y89238D02*
X737528Y89026D01*
X734842Y87913D01*
X732536Y86144D01*
X730767Y83838D01*
X729654Y81152D01*
X729442Y79540D01*
X739140D01*
Y89238D01*
D02*
G37*
G36*
X273050Y158717D02*
X270429Y158372D01*
X267987Y157360D01*
X265889Y155751D01*
X264280Y153653D01*
X263268Y151211D01*
X262923Y148590D01*
X263268Y145969D01*
X264280Y143527D01*
X265889Y141429D01*
X267987Y139820D01*
X270429Y138808D01*
X273050Y138463D01*
X275671Y138808D01*
X278113Y139820D01*
X280211Y141429D01*
X281820Y143527D01*
X282832Y145969D01*
X283177Y148590D01*
X282832Y151211D01*
X281820Y153653D01*
X280211Y155751D01*
X278113Y157360D01*
X275671Y158372D01*
X273050Y158717D01*
D02*
G37*
G36*
X144780Y147320D02*
X136091D01*
X136268Y145969D01*
X137280Y143527D01*
X138889Y141429D01*
X140987Y139820D01*
X143429Y138808D01*
X144780Y138631D01*
Y147320D01*
D02*
G37*
G36*
X196850Y158717D02*
X194229Y158372D01*
X191787Y157360D01*
X189689Y155751D01*
X188080Y153653D01*
X187068Y151211D01*
X186723Y148590D01*
X187068Y145969D01*
X188080Y143527D01*
X189689Y141429D01*
X191787Y139820D01*
X194229Y138808D01*
X196850Y138463D01*
X199471Y138808D01*
X201913Y139820D01*
X204011Y141429D01*
X205620Y143527D01*
X206632Y145969D01*
X206977Y148590D01*
X206632Y151211D01*
X205620Y153653D01*
X204011Y155751D01*
X201913Y157360D01*
X199471Y158372D01*
X196850Y158717D01*
D02*
G37*
G36*
X222250D02*
X219629Y158372D01*
X217187Y157360D01*
X215089Y155751D01*
X213480Y153653D01*
X212468Y151211D01*
X212123Y148590D01*
X212468Y145969D01*
X213480Y143527D01*
X215089Y141429D01*
X217187Y139820D01*
X219629Y138808D01*
X222250Y138463D01*
X224871Y138808D01*
X227313Y139820D01*
X229411Y141429D01*
X231020Y143527D01*
X232032Y145969D01*
X232377Y148590D01*
X232032Y151211D01*
X231020Y153653D01*
X229411Y155751D01*
X227313Y157360D01*
X224871Y158372D01*
X222250Y158717D01*
D02*
G37*
G36*
X156009Y147320D02*
X147320D01*
Y138631D01*
X148671Y138808D01*
X151113Y139820D01*
X153211Y141429D01*
X154820Y143527D01*
X155832Y145969D01*
X156009Y147320D01*
D02*
G37*
G36*
X147320Y158549D02*
Y149860D01*
X156009D01*
X155832Y151211D01*
X154820Y153653D01*
X153211Y155751D01*
X151113Y157360D01*
X148671Y158372D01*
X147320Y158549D01*
D02*
G37*
G36*
X740410Y189405D02*
X737528Y189026D01*
X734842Y187913D01*
X732536Y186144D01*
X730767Y183838D01*
X729654Y181152D01*
X729275Y178270D01*
X729654Y175388D01*
X730767Y172702D01*
X732536Y170396D01*
X734842Y168627D01*
X737528Y167514D01*
X740410Y167135D01*
X743292Y167514D01*
X745978Y168627D01*
X748284Y170396D01*
X750053Y172702D01*
X751166Y175388D01*
X751545Y178270D01*
X751166Y181152D01*
X750053Y183838D01*
X748284Y186144D01*
X745978Y187913D01*
X743292Y189026D01*
X740410Y189405D01*
D02*
G37*
G36*
X1007680Y168210D02*
X978600D01*
Y139130D01*
X1007680D01*
Y168210D01*
D02*
G37*
G36*
X144780Y158549D02*
X143429Y158372D01*
X140987Y157360D01*
X138889Y155751D01*
X137280Y153653D01*
X136268Y151211D01*
X136091Y149860D01*
X144780D01*
Y158549D01*
D02*
G37*
G36*
X171450Y158717D02*
X168829Y158372D01*
X166387Y157360D01*
X164289Y155751D01*
X162680Y153653D01*
X161668Y151211D01*
X161323Y148590D01*
X161668Y145969D01*
X162680Y143527D01*
X164289Y141429D01*
X166387Y139820D01*
X168829Y138808D01*
X171450Y138463D01*
X174071Y138808D01*
X176513Y139820D01*
X178611Y141429D01*
X180220Y143527D01*
X181232Y145969D01*
X181577Y148590D01*
X181232Y151211D01*
X180220Y153653D01*
X178611Y155751D01*
X176513Y157360D01*
X174071Y158372D01*
X171450Y158717D01*
D02*
G37*
G36*
X741680Y89238D02*
Y79540D01*
X751378D01*
X751166Y81152D01*
X750053Y83838D01*
X748284Y86144D01*
X745978Y87913D01*
X743292Y89026D01*
X741680Y89238D01*
D02*
G37*
G36*
X816610D02*
Y79540D01*
X826308D01*
X826096Y81152D01*
X824983Y83838D01*
X823214Y86144D01*
X820908Y87913D01*
X818222Y89026D01*
X816610Y89238D01*
D02*
G37*
G36*
X814070D02*
X812458Y89026D01*
X809772Y87913D01*
X807466Y86144D01*
X805697Y83838D01*
X804584Y81152D01*
X804372Y79540D01*
X814070D01*
Y89238D01*
D02*
G37*
G36*
X890270D02*
X888658Y89026D01*
X885972Y87913D01*
X883666Y86144D01*
X881897Y83838D01*
X880784Y81152D01*
X880572Y79540D01*
X890270D01*
Y89238D01*
D02*
G37*
G36*
X892810D02*
Y79540D01*
X902508D01*
X902296Y81152D01*
X901183Y83838D01*
X899414Y86144D01*
X897108Y87913D01*
X894422Y89026D01*
X892810Y89238D01*
D02*
G37*
G36*
X991870Y117368D02*
X989344Y117036D01*
X985807Y115571D01*
X982770Y113240D01*
X980439Y110203D01*
X978974Y106666D01*
X978642Y104140D01*
X991870D01*
Y117368D01*
D02*
G37*
G36*
X994410D02*
Y104140D01*
X1007638D01*
X1007306Y106666D01*
X1005841Y110203D01*
X1003510Y113240D01*
X1000473Y115571D01*
X996936Y117036D01*
X994410Y117368D01*
D02*
G37*
G36*
X991870Y101600D02*
X978642D01*
X978974Y99074D01*
X980439Y95537D01*
X982770Y92500D01*
X985807Y90169D01*
X989344Y88704D01*
X991870Y88372D01*
Y101600D01*
D02*
G37*
G36*
X1007638D02*
X994410D01*
Y88372D01*
X996936Y88704D01*
X1000473Y90169D01*
X1003510Y92500D01*
X1005841Y95537D01*
X1007306Y99074D01*
X1007638Y101600D01*
D02*
G37*
G36*
X100330Y335455D02*
X97448Y335076D01*
X94762Y333963D01*
X92456Y332194D01*
X90687Y329888D01*
X89574Y327202D01*
X89195Y324320D01*
X89574Y321438D01*
X90687Y318752D01*
X92456Y316446D01*
X94762Y314677D01*
X97448Y313564D01*
X100330Y313185D01*
X103212Y313564D01*
X105898Y314677D01*
X108204Y316446D01*
X109973Y318752D01*
X111086Y321438D01*
X111465Y324320D01*
X111086Y327202D01*
X109973Y329888D01*
X108204Y332194D01*
X105898Y333963D01*
X103212Y335076D01*
X100330Y335455D01*
D02*
G37*
G36*
X735800Y491028D02*
X734188Y490816D01*
X731502Y489703D01*
X729196Y487934D01*
X727427Y485628D01*
X726314Y482942D01*
X726102Y481330D01*
X735800D01*
Y491028D01*
D02*
G37*
G36*
X738340D02*
Y481330D01*
X748038D01*
X747826Y482942D01*
X746713Y485628D01*
X744944Y487934D01*
X742638Y489703D01*
X739952Y490816D01*
X738340Y491028D01*
D02*
G37*
G36*
X735800Y478790D02*
X726102D01*
X726314Y477178D01*
X727427Y474492D01*
X729196Y472186D01*
X731502Y470417D01*
X734188Y469304D01*
X735800Y469092D01*
Y478790D01*
D02*
G37*
G36*
X748038D02*
X738340D01*
Y469092D01*
X739952Y469304D01*
X742638Y470417D01*
X744944Y472186D01*
X746713Y474492D01*
X747826Y477178D01*
X748038Y478790D01*
D02*
G37*
G36*
X26670Y513290D02*
X23658Y512893D01*
X20850Y511730D01*
X18440Y509880D01*
X16590Y507470D01*
X15427Y504663D01*
X15030Y501650D01*
X15427Y498638D01*
X16590Y495830D01*
X18440Y493420D01*
X20850Y491570D01*
X23658Y490407D01*
X26670Y490010D01*
X29683Y490407D01*
X32490Y491570D01*
X34900Y493420D01*
X36750Y495830D01*
X37913Y498638D01*
X38310Y501650D01*
X37913Y504663D01*
X36750Y507470D01*
X34900Y509880D01*
X32490Y511730D01*
X29683Y512893D01*
X26670Y513290D01*
D02*
G37*
G36*
X434960Y513047D02*
X432339Y512702D01*
X429897Y511690D01*
X427799Y510081D01*
X426190Y507983D01*
X425178Y505541D01*
X424833Y502920D01*
X425178Y500299D01*
X426190Y497857D01*
X427799Y495759D01*
X429897Y494150D01*
X432339Y493138D01*
X434960Y492793D01*
X437581Y493138D01*
X440023Y494150D01*
X442121Y495759D01*
X443730Y497857D01*
X444742Y500299D01*
X445087Y502920D01*
X444742Y505541D01*
X443730Y507983D01*
X442121Y510081D01*
X440023Y511690D01*
X437581Y512702D01*
X434960Y513047D01*
D02*
G37*
G36*
X995680Y523936D02*
X991884Y523436D01*
X988347Y521971D01*
X985310Y519640D01*
X982979Y516603D01*
X981514Y513066D01*
X981014Y509270D01*
X981514Y505474D01*
X982979Y501937D01*
X985310Y498900D01*
X988347Y496569D01*
X991884Y495104D01*
X995680Y494604D01*
X999476Y495104D01*
X1003013Y496569D01*
X1006050Y498900D01*
X1008381Y501937D01*
X1009846Y505474D01*
X1010346Y509270D01*
X1009846Y513066D01*
X1008381Y516603D01*
X1006050Y519640D01*
X1003013Y521971D01*
X999476Y523436D01*
X995680Y523936D01*
D02*
G37*
G36*
X591540Y514460D02*
X568460D01*
Y491380D01*
X591540D01*
Y514460D01*
D02*
G37*
G36*
X283860Y513047D02*
X281239Y512702D01*
X278797Y511690D01*
X276699Y510081D01*
X275090Y507983D01*
X274078Y505541D01*
X273733Y502920D01*
X274078Y500299D01*
X275090Y497857D01*
X276699Y495759D01*
X278797Y494150D01*
X281239Y493138D01*
X283860Y492793D01*
X286481Y493138D01*
X288923Y494150D01*
X291021Y495759D01*
X292630Y497857D01*
X293642Y500299D01*
X293987Y502920D01*
X293642Y505541D01*
X292630Y507983D01*
X291021Y510081D01*
X288923Y511690D01*
X286481Y512702D01*
X283860Y513047D01*
D02*
G37*
G36*
X434960Y487647D02*
X432339Y487302D01*
X429897Y486290D01*
X427799Y484681D01*
X426190Y482583D01*
X425178Y480141D01*
X424833Y477520D01*
X425178Y474899D01*
X426190Y472457D01*
X427799Y470359D01*
X429897Y468750D01*
X432339Y467738D01*
X434960Y467393D01*
X437581Y467738D01*
X440023Y468750D01*
X442121Y470359D01*
X443730Y472457D01*
X444742Y474899D01*
X445087Y477520D01*
X444742Y480141D01*
X443730Y482583D01*
X442121Y484681D01*
X440023Y486290D01*
X437581Y487302D01*
X434960Y487647D01*
D02*
G37*
G36*
X805180Y578825D02*
X802298Y578446D01*
X799612Y577333D01*
X797306Y575564D01*
X795537Y573258D01*
X794424Y570572D01*
X794045Y567690D01*
X794424Y564808D01*
X795537Y562122D01*
X797306Y559816D01*
X797546Y559632D01*
X797846Y559316D01*
X798222Y558856D01*
X798546Y558388D01*
X798823Y557910D01*
X799055Y557420D01*
X799244Y556913D01*
X799393Y556385D01*
X799500Y555832D01*
X799531Y555556D01*
Y528170D01*
Y516170D01*
Y504170D01*
X799961Y502008D01*
X801186Y500176D01*
X803018Y498951D01*
X804944Y498568D01*
X805575Y497404D01*
X753526Y445354D01*
X752477Y443988D01*
X751818Y442397D01*
X751594Y440690D01*
Y288482D01*
X618298Y155186D01*
X313656D01*
X312528Y155212D01*
X311324Y155304D01*
X310320Y155449D01*
X309529Y155634D01*
X308965Y155835D01*
X308631Y156011D01*
X308524Y156098D01*
X308490Y156371D01*
X308490Y156373D01*
Y158630D01*
X306016D01*
X305919Y158649D01*
X305823Y158630D01*
X305613D01*
X305607Y158630D01*
X305606Y158630D01*
X288410D01*
Y138550D01*
X305606D01*
X305607Y138550D01*
X305613Y138550D01*
X305823D01*
X305919Y138531D01*
X306016Y138550D01*
X308490D01*
Y140807D01*
X308490Y140808D01*
X308524Y141082D01*
X308631Y141169D01*
X308965Y141346D01*
X309529Y141546D01*
X310320Y141730D01*
X311324Y141876D01*
X312528Y141968D01*
X313656Y141994D01*
X621030D01*
X622737Y142218D01*
X624328Y142877D01*
X625694Y143926D01*
X762854Y281086D01*
X763903Y282452D01*
X764562Y284043D01*
X764786Y285750D01*
Y437958D01*
X771990Y445161D01*
X773193Y444568D01*
X773184Y444500D01*
X773408Y442793D01*
X774067Y441202D01*
X774131Y441118D01*
Y426170D01*
Y414170D01*
X774561Y412008D01*
X775786Y410176D01*
X777618Y408951D01*
X779780Y408521D01*
X781942Y408951D01*
X783774Y410176D01*
X784999Y412008D01*
X785428Y414170D01*
Y438170D01*
Y440820D01*
X787332Y442723D01*
X788319Y441914D01*
X787979Y441406D01*
X787261Y440332D01*
X786832Y438170D01*
Y414170D01*
X787261Y412008D01*
X788486Y410176D01*
X790318Y408951D01*
X792480Y408521D01*
X794642Y408951D01*
X796474Y410176D01*
X797699Y412008D01*
X798129Y414170D01*
Y438170D01*
X797699Y440332D01*
X796474Y442164D01*
X794642Y443388D01*
X792480Y443819D01*
X790318Y443388D01*
X789244Y442671D01*
X788736Y442331D01*
X787927Y443318D01*
X803632Y459024D01*
X894459D01*
X894959Y459013D01*
X895670Y458963D01*
X896312Y458884D01*
X896880Y458778D01*
X897377Y458650D01*
X897801Y458505D01*
X898155Y458348D01*
X898443Y458185D01*
X898673Y458021D01*
X898747Y457953D01*
X898906Y457746D01*
X901212Y455977D01*
X903898Y454864D01*
X906780Y454485D01*
X909662Y454864D01*
X912348Y455977D01*
X914654Y457746D01*
X916423Y460052D01*
X917536Y462738D01*
X917915Y465620D01*
X917536Y468502D01*
X916423Y471188D01*
X914654Y473494D01*
X912348Y475263D01*
X909662Y476376D01*
X906780Y476755D01*
X903898Y476376D01*
X901212Y475263D01*
X898906Y473494D01*
X898747Y473287D01*
X898673Y473219D01*
X898443Y473055D01*
X898155Y472892D01*
X897801Y472735D01*
X897377Y472590D01*
X896880Y472462D01*
X896347Y472363D01*
X894925Y472227D01*
X894459Y472216D01*
X800900D01*
X800832Y472207D01*
X800239Y473410D01*
X822544Y495716D01*
X823593Y497082D01*
X824252Y498673D01*
X824476Y500380D01*
X824252Y502087D01*
X823593Y503678D01*
X823529Y503762D01*
Y516170D01*
X823420Y516716D01*
Y533710D01*
X812340D01*
Y516716D01*
X812232Y516170D01*
Y505067D01*
X812099Y504994D01*
X810828Y505745D01*
Y528170D01*
Y555556D01*
X810860Y555832D01*
X810967Y556385D01*
X811116Y556913D01*
X811305Y557420D01*
X811537Y557910D01*
X811814Y558388D01*
X812138Y558856D01*
X812514Y559317D01*
X812814Y559632D01*
X813054Y559816D01*
X814823Y562122D01*
X815936Y564808D01*
X816315Y567690D01*
X815936Y570572D01*
X814823Y573258D01*
X813054Y575564D01*
X810748Y577333D01*
X808062Y578446D01*
X805180Y578825D01*
D02*
G37*
G36*
X26670Y487890D02*
X23658Y487493D01*
X20850Y486330D01*
X18440Y484480D01*
X16590Y482070D01*
X15427Y479263D01*
X15030Y476250D01*
X15427Y473237D01*
X16590Y470430D01*
X18440Y468020D01*
X20850Y466170D01*
X23658Y465007D01*
X26670Y464610D01*
X29683Y465007D01*
X32490Y466170D01*
X34900Y468020D01*
X36750Y470430D01*
X37913Y473237D01*
X38310Y476250D01*
X37913Y479263D01*
X36750Y482070D01*
X34900Y484480D01*
X32490Y486330D01*
X29683Y487493D01*
X26670Y487890D01*
D02*
G37*
G36*
X283860Y462247D02*
X281239Y461902D01*
X278797Y460890D01*
X276699Y459281D01*
X275090Y457183D01*
X274078Y454741D01*
X273733Y452120D01*
X274078Y449499D01*
X275090Y447057D01*
X276699Y444959D01*
X278797Y443350D01*
X281239Y442338D01*
X283860Y441993D01*
X286481Y442338D01*
X288923Y443350D01*
X291021Y444959D01*
X292630Y447057D01*
X293642Y449499D01*
X293987Y452120D01*
X293642Y454741D01*
X292630Y457183D01*
X291021Y459281D01*
X288923Y460890D01*
X286481Y461902D01*
X283860Y462247D01*
D02*
G37*
G36*
X434960D02*
X432339Y461902D01*
X429897Y460890D01*
X427799Y459281D01*
X426190Y457183D01*
X425178Y454741D01*
X424833Y452120D01*
X425178Y449499D01*
X426190Y447057D01*
X427799Y444959D01*
X429897Y443350D01*
X432339Y442338D01*
X434960Y441993D01*
X437581Y442338D01*
X440023Y443350D01*
X442121Y444959D01*
X443730Y447057D01*
X444742Y449499D01*
X445087Y452120D01*
X444742Y454741D01*
X443730Y457183D01*
X442121Y459281D01*
X440023Y460890D01*
X437581Y461902D01*
X434960Y462247D01*
D02*
G37*
G36*
X99060Y486915D02*
X96178Y486536D01*
X93492Y485423D01*
X91186Y483654D01*
X89417Y481348D01*
X88304Y478662D01*
X87925Y475780D01*
X88304Y472898D01*
X89417Y470212D01*
X91186Y467906D01*
X93492Y466137D01*
X96178Y465024D01*
X99060Y464645D01*
X101942Y465024D01*
X104628Y466137D01*
X106934Y467906D01*
X108703Y470212D01*
X109816Y472898D01*
X110195Y475780D01*
X109816Y478662D01*
X108703Y481348D01*
X106934Y483654D01*
X104628Y485423D01*
X101942Y486536D01*
X99060Y486915D01*
D02*
G37*
G36*
X580000Y489160D02*
X576987Y488763D01*
X574180Y487600D01*
X571770Y485750D01*
X569920Y483340D01*
X568757Y480532D01*
X568360Y477520D01*
X568757Y474507D01*
X569920Y471700D01*
X571770Y469290D01*
X574180Y467440D01*
X576987Y466277D01*
X580000Y465881D01*
X583013Y466277D01*
X585820Y467440D01*
X588230Y469290D01*
X590080Y471700D01*
X591243Y474507D01*
X591640Y477520D01*
X591243Y480532D01*
X590080Y483340D01*
X588230Y485750D01*
X585820Y487600D01*
X583013Y488763D01*
X580000Y489160D01*
D02*
G37*
G36*
X283860Y487647D02*
X281239Y487302D01*
X278797Y486290D01*
X276699Y484681D01*
X275090Y482583D01*
X274078Y480141D01*
X273733Y477520D01*
X274078Y474899D01*
X275090Y472457D01*
X276699Y470359D01*
X278797Y468750D01*
X281239Y467738D01*
X283860Y467393D01*
X286481Y467738D01*
X288923Y468750D01*
X291021Y470359D01*
X292630Y472457D01*
X293642Y474899D01*
X293987Y477520D01*
X293642Y480141D01*
X292630Y482583D01*
X291021Y484681D01*
X288923Y486290D01*
X286481Y487302D01*
X283860Y487647D01*
D02*
G37*
G36*
X131610Y487385D02*
X128728Y487006D01*
X126042Y485893D01*
X123736Y484124D01*
X121967Y481818D01*
X120854Y479132D01*
X120475Y476250D01*
X120854Y473368D01*
X121967Y470682D01*
X123736Y468376D01*
X126042Y466607D01*
X128728Y465494D01*
X131610Y465115D01*
X134492Y465494D01*
X137178Y466607D01*
X139484Y468376D01*
X141253Y470682D01*
X142366Y473368D01*
X142745Y476250D01*
X142366Y479132D01*
X141253Y481818D01*
X139484Y484124D01*
X137178Y485893D01*
X134492Y487006D01*
X131610Y487385D01*
D02*
G37*
G36*
X231610D02*
X228728Y487006D01*
X226042Y485893D01*
X223736Y484124D01*
X221967Y481818D01*
X220854Y479132D01*
X220475Y476250D01*
X220854Y473368D01*
X221967Y470682D01*
X223736Y468376D01*
X226042Y466607D01*
X228728Y465494D01*
X231610Y465115D01*
X234492Y465494D01*
X237178Y466607D01*
X239484Y468376D01*
X241253Y470682D01*
X242366Y473368D01*
X242745Y476250D01*
X242366Y479132D01*
X241253Y481818D01*
X239484Y484124D01*
X237178Y485893D01*
X234492Y487006D01*
X231610Y487385D01*
D02*
G37*
G36*
X110028Y574510D02*
X100330D01*
Y564812D01*
X101942Y565024D01*
X104628Y566137D01*
X106934Y567906D01*
X108703Y570212D01*
X109816Y572898D01*
X110028Y574510D01*
D02*
G37*
G36*
X753110Y578658D02*
X751498Y578446D01*
X748812Y577333D01*
X746506Y575564D01*
X744737Y573258D01*
X743624Y570572D01*
X743412Y568960D01*
X753110D01*
Y578658D01*
D02*
G37*
G36*
X765348Y566420D02*
X755650D01*
Y556722D01*
X757262Y556934D01*
X759948Y558047D01*
X762254Y559816D01*
X764023Y562122D01*
X765136Y564808D01*
X765348Y566420D01*
D02*
G37*
G36*
X97790Y574510D02*
X88092D01*
X88304Y572898D01*
X89417Y570212D01*
X91186Y567906D01*
X93492Y566137D01*
X96178Y565024D01*
X97790Y564812D01*
Y574510D01*
D02*
G37*
G36*
X573240Y578658D02*
X571628Y578446D01*
X568942Y577333D01*
X566636Y575564D01*
X564867Y573258D01*
X563754Y570572D01*
X563542Y568960D01*
X573240D01*
Y578658D01*
D02*
G37*
G36*
X97790Y586748D02*
X96178Y586536D01*
X93492Y585423D01*
X91186Y583654D01*
X89417Y581348D01*
X88304Y578662D01*
X88092Y577050D01*
X97790D01*
Y586748D01*
D02*
G37*
G36*
X100330D02*
Y577050D01*
X110028D01*
X109816Y578662D01*
X108703Y581348D01*
X106934Y583654D01*
X104628Y585423D01*
X101942Y586536D01*
X100330Y586748D01*
D02*
G37*
G36*
X575780Y578658D02*
Y568960D01*
X585478D01*
X585266Y570572D01*
X584153Y573258D01*
X582384Y575564D01*
X580078Y577333D01*
X577392Y578446D01*
X575780Y578658D01*
D02*
G37*
G36*
X755650D02*
Y568960D01*
X765348D01*
X765136Y570572D01*
X764023Y573258D01*
X762254Y575564D01*
X759948Y577333D01*
X757262Y578446D01*
X755650Y578658D01*
D02*
G37*
G36*
X585478Y566420D02*
X575780D01*
Y556722D01*
X577392Y556934D01*
X580078Y558047D01*
X582384Y559816D01*
X584153Y562122D01*
X585266Y564808D01*
X585478Y566420D01*
D02*
G37*
G36*
X434960Y538447D02*
X432339Y538102D01*
X429897Y537090D01*
X427799Y535481D01*
X426190Y533383D01*
X425178Y530941D01*
X424833Y528320D01*
X425178Y525699D01*
X426190Y523257D01*
X427799Y521159D01*
X429897Y519550D01*
X432339Y518538D01*
X434960Y518193D01*
X437581Y518538D01*
X440023Y519550D01*
X442121Y521159D01*
X443730Y523257D01*
X444742Y525699D01*
X445087Y528320D01*
X444742Y530941D01*
X443730Y533383D01*
X442121Y535481D01*
X440023Y537090D01*
X437581Y538102D01*
X434960Y538447D01*
D02*
G37*
G36*
X293900Y538360D02*
X273820D01*
Y518280D01*
X293900D01*
Y538360D01*
D02*
G37*
G36*
X792480Y533819D02*
X790318Y533389D01*
X788486Y532164D01*
X787261Y530332D01*
X786832Y528170D01*
Y504170D01*
X787261Y502008D01*
X788486Y500176D01*
X790318Y498951D01*
X792480Y498521D01*
X794642Y498951D01*
X796474Y500176D01*
X797699Y502008D01*
X798129Y504170D01*
Y528170D01*
X797699Y530332D01*
X796474Y532164D01*
X794642Y533389D01*
X792480Y533819D01*
D02*
G37*
G36*
X38210Y538590D02*
X15130D01*
Y515510D01*
X38210D01*
Y538590D01*
D02*
G37*
G36*
X1010220Y574610D02*
X981140D01*
Y545530D01*
X1010220D01*
Y574610D01*
D02*
G37*
G36*
X753110Y566420D02*
X743412D01*
X743624Y564808D01*
X744737Y562122D01*
X746506Y559816D01*
X748812Y558047D01*
X751498Y556934D01*
X753110Y556722D01*
Y566420D01*
D02*
G37*
G36*
X573240D02*
X563542D01*
X563754Y564808D01*
X564867Y562122D01*
X566636Y559816D01*
X568942Y558047D01*
X571628Y556934D01*
X573240Y556722D01*
Y566420D01*
D02*
G37*
G36*
X885660Y593336D02*
X796290D01*
X794583Y593112D01*
X792992Y592453D01*
X791626Y591404D01*
X775116Y574894D01*
X774067Y573528D01*
X773408Y571937D01*
X773184Y570230D01*
Y537210D01*
X773408Y535503D01*
X774067Y533912D01*
X774131Y533828D01*
Y528170D01*
Y516170D01*
Y504170D01*
X774561Y502008D01*
X775786Y500176D01*
X777618Y498951D01*
X779780Y498521D01*
X781942Y498951D01*
X783774Y500176D01*
X784999Y502008D01*
X785428Y504170D01*
Y528170D01*
Y533828D01*
X785493Y533912D01*
X786152Y535503D01*
X786376Y537210D01*
Y567498D01*
X799022Y580144D01*
X882928D01*
X893403Y569669D01*
X893749Y569307D01*
X894218Y568768D01*
X894614Y568259D01*
X894942Y567782D01*
X895203Y567340D01*
X895400Y566938D01*
X895539Y566577D01*
X895627Y566258D01*
X895674Y565979D01*
X895679Y565879D01*
X895645Y565620D01*
X896024Y562738D01*
X897137Y560052D01*
X898906Y557746D01*
X901212Y555977D01*
X903898Y554864D01*
X906780Y554485D01*
X909662Y554864D01*
X912348Y555977D01*
X914654Y557746D01*
X916423Y560052D01*
X917536Y562738D01*
X917915Y565620D01*
X917536Y568502D01*
X916423Y571188D01*
X914654Y573494D01*
X912348Y575263D01*
X909662Y576376D01*
X906780Y576755D01*
X906521Y576721D01*
X906421Y576726D01*
X906142Y576773D01*
X905823Y576861D01*
X905462Y577000D01*
X905060Y577197D01*
X904618Y577458D01*
X904170Y577765D01*
X903069Y578674D01*
X902731Y578997D01*
X890324Y591404D01*
X888958Y592453D01*
X887367Y593112D01*
X885660Y593336D01*
D02*
G37*
G36*
X474510Y578825D02*
X471628Y578446D01*
X468942Y577333D01*
X466636Y575564D01*
X464867Y573258D01*
X463754Y570572D01*
X463375Y567690D01*
X463754Y564808D01*
X464867Y562122D01*
X466636Y559816D01*
X468942Y558047D01*
X471628Y556934D01*
X474510Y556555D01*
X477392Y556934D01*
X480078Y558047D01*
X482384Y559816D01*
X484153Y562122D01*
X485266Y564808D01*
X485645Y567690D01*
X485266Y570572D01*
X484153Y573258D01*
X482384Y575564D01*
X480078Y577333D01*
X477392Y578446D01*
X474510Y578825D01*
D02*
G37*
G36*
X854710Y381000D02*
X845012D01*
X845224Y379388D01*
X846337Y376702D01*
X848106Y374396D01*
X850412Y372627D01*
X853098Y371514D01*
X854710Y371302D01*
Y381000D01*
D02*
G37*
G36*
X866948D02*
X857250D01*
Y371302D01*
X858862Y371514D01*
X861548Y372627D01*
X863854Y374396D01*
X865623Y376702D01*
X866736Y379388D01*
X866948Y381000D01*
D02*
G37*
G36*
X805180Y443819D02*
X803018Y443388D01*
X801186Y442164D01*
X799961Y440332D01*
X799531Y438170D01*
Y426170D01*
Y414170D01*
Y394404D01*
X799500Y394128D01*
X799393Y393575D01*
X799244Y393047D01*
X799055Y392541D01*
X798823Y392050D01*
X798546Y391572D01*
X798222Y391104D01*
X797846Y390643D01*
X797546Y390328D01*
X797306Y390144D01*
X795537Y387838D01*
X794424Y385152D01*
X794045Y382270D01*
X794424Y379388D01*
X795537Y376702D01*
X797306Y374396D01*
X799612Y372627D01*
X802298Y371514D01*
X805180Y371135D01*
X808062Y371514D01*
X810748Y372627D01*
X813054Y374396D01*
X814823Y376702D01*
X815936Y379388D01*
X816315Y382270D01*
X815936Y385152D01*
X814823Y387838D01*
X813054Y390144D01*
X812814Y390328D01*
X812514Y390644D01*
X812138Y391104D01*
X811814Y391572D01*
X811537Y392050D01*
X811305Y392540D01*
X811116Y393047D01*
X810967Y393575D01*
X810860Y394128D01*
X810828Y394404D01*
Y426170D01*
Y438170D01*
X810399Y440332D01*
X809174Y442164D01*
X807342Y443388D01*
X805180Y443819D01*
D02*
G37*
G36*
X282590Y374650D02*
X273901D01*
X274078Y373299D01*
X275090Y370857D01*
X276699Y368759D01*
X278797Y367150D01*
X281239Y366138D01*
X282590Y365961D01*
Y374650D01*
D02*
G37*
G36*
X293819D02*
X285130D01*
Y365961D01*
X286481Y366138D01*
X288923Y367150D01*
X291021Y368759D01*
X292630Y370857D01*
X293642Y373299D01*
X293819Y374650D01*
D02*
G37*
G36*
X285130Y385879D02*
Y377190D01*
X293819D01*
X293642Y378541D01*
X292630Y380983D01*
X291021Y383081D01*
X288923Y384690D01*
X286481Y385702D01*
X285130Y385879D01*
D02*
G37*
G36*
X854710Y393238D02*
X853098Y393026D01*
X850412Y391913D01*
X848106Y390144D01*
X846337Y387838D01*
X845224Y385152D01*
X845012Y383540D01*
X854710D01*
Y393238D01*
D02*
G37*
G36*
X282590Y385879D02*
X281239Y385702D01*
X278797Y384690D01*
X276699Y383081D01*
X275090Y380983D01*
X274078Y378541D01*
X273901Y377190D01*
X282590D01*
Y385879D01*
D02*
G37*
G36*
X25400Y386122D02*
X23658Y385893D01*
X20850Y384730D01*
X18440Y382880D01*
X16590Y380470D01*
X15427Y377663D01*
X15198Y375920D01*
X25400D01*
Y386122D01*
D02*
G37*
G36*
X27940D02*
Y375920D01*
X38142D01*
X37913Y377663D01*
X36750Y380470D01*
X34900Y382880D01*
X32490Y384730D01*
X29683Y385893D01*
X27940Y386122D01*
D02*
G37*
G36*
X26670Y360890D02*
X23658Y360493D01*
X20850Y359330D01*
X18440Y357480D01*
X16590Y355070D01*
X15427Y352262D01*
X15030Y349250D01*
X15427Y346237D01*
X16590Y343430D01*
X18440Y341020D01*
X20850Y339170D01*
X23658Y338007D01*
X26670Y337610D01*
X29683Y338007D01*
X32490Y339170D01*
X34900Y341020D01*
X36750Y343430D01*
X37913Y346237D01*
X38310Y349250D01*
X37913Y352262D01*
X36750Y355070D01*
X34900Y357480D01*
X32490Y359330D01*
X29683Y360493D01*
X26670Y360890D01*
D02*
G37*
G36*
X434960Y360647D02*
X432339Y360302D01*
X429897Y359290D01*
X427799Y357681D01*
X426190Y355583D01*
X425178Y353141D01*
X424833Y350520D01*
X425178Y347899D01*
X426190Y345457D01*
X427799Y343359D01*
X429897Y341750D01*
X432339Y340738D01*
X434960Y340393D01*
X437581Y340738D01*
X440023Y341750D01*
X442121Y343359D01*
X443730Y345457D01*
X444742Y347899D01*
X445087Y350520D01*
X444742Y353141D01*
X443730Y355583D01*
X442121Y357681D01*
X440023Y359290D01*
X437581Y360302D01*
X434960Y360647D01*
D02*
G37*
G36*
X283860D02*
X281239Y360302D01*
X278797Y359290D01*
X276699Y357681D01*
X275090Y355583D01*
X274078Y353141D01*
X273869Y351548D01*
X271504Y348919D01*
X242975Y320390D01*
X241898Y321110D01*
X242366Y322238D01*
X242745Y325120D01*
X242366Y328002D01*
X241253Y330688D01*
X239484Y332994D01*
X237178Y334763D01*
X234492Y335876D01*
X231610Y336255D01*
X228728Y335876D01*
X226042Y334763D01*
X223736Y332994D01*
X221967Y330688D01*
X220854Y328002D01*
X220475Y325120D01*
X220854Y322238D01*
X221967Y319552D01*
X223736Y317246D01*
X226042Y315477D01*
X228728Y314364D01*
X231610Y313985D01*
X234492Y314364D01*
X237178Y315477D01*
X239259Y317073D01*
X240244Y316497D01*
X240351Y316392D01*
X240304Y316278D01*
X240045Y314310D01*
Y157306D01*
X240000Y155382D01*
X239977Y155083D01*
X238880Y153653D01*
X237868Y151211D01*
X237523Y148590D01*
X237868Y145969D01*
X238880Y143527D01*
X240489Y141429D01*
X242587Y139820D01*
X245029Y138808D01*
X247650Y138463D01*
X250271Y138808D01*
X252713Y139820D01*
X254811Y141429D01*
X256420Y143527D01*
X257432Y145969D01*
X257777Y148590D01*
X257432Y151211D01*
X256420Y153653D01*
X255441Y154929D01*
X255255Y158458D01*
Y311160D01*
X273317Y329222D01*
X274394Y328503D01*
X274078Y327741D01*
X273733Y325120D01*
X274078Y322499D01*
X275090Y320057D01*
X276699Y317959D01*
X278797Y316350D01*
X281239Y315338D01*
X283860Y314993D01*
X286481Y315338D01*
X288923Y316350D01*
X291021Y317959D01*
X292630Y320057D01*
X293642Y322499D01*
X293987Y325120D01*
X293642Y327741D01*
X292630Y330183D01*
X291021Y332281D01*
X288923Y333890D01*
X286481Y334902D01*
X283860Y335247D01*
X281239Y334902D01*
X280477Y334586D01*
X279758Y335663D01*
X283074Y338979D01*
X284467Y340308D01*
X284695Y340503D01*
X286481Y340738D01*
X288923Y341750D01*
X291021Y343359D01*
X292630Y345457D01*
X293642Y347899D01*
X293987Y350520D01*
X293642Y353141D01*
X292630Y355583D01*
X291021Y357681D01*
X288923Y359290D01*
X286481Y360302D01*
X283860Y360647D01*
D02*
G37*
G36*
X131610Y336255D02*
X128728Y335876D01*
X126042Y334763D01*
X123736Y332994D01*
X121967Y330688D01*
X120854Y328002D01*
X120475Y325120D01*
X120854Y322238D01*
X121967Y319552D01*
X123736Y317246D01*
X126042Y315477D01*
X128728Y314364D01*
X131610Y313985D01*
X134492Y314364D01*
X137178Y315477D01*
X139484Y317246D01*
X141253Y319552D01*
X142366Y322238D01*
X142745Y325120D01*
X142366Y328002D01*
X141253Y330688D01*
X139484Y332994D01*
X137178Y334763D01*
X134492Y335876D01*
X131610Y336255D01*
D02*
G37*
G36*
X434960Y335247D02*
X432339Y334902D01*
X429897Y333890D01*
X427799Y332281D01*
X426190Y330183D01*
X425178Y327741D01*
X424833Y325120D01*
X425178Y322499D01*
X426190Y320057D01*
X427799Y317959D01*
X429897Y316350D01*
X432339Y315338D01*
X434960Y314993D01*
X437581Y315338D01*
X440023Y316350D01*
X442121Y317959D01*
X443730Y320057D01*
X444742Y322499D01*
X445087Y325120D01*
X444742Y327741D01*
X443730Y330183D01*
X442121Y332281D01*
X440023Y333890D01*
X437581Y334902D01*
X434960Y335247D01*
D02*
G37*
G36*
X580000Y387560D02*
X576987Y387163D01*
X574180Y386000D01*
X571770Y384150D01*
X569920Y381740D01*
X568757Y378932D01*
X568360Y375920D01*
X568757Y372907D01*
X569920Y370100D01*
X571770Y367690D01*
X574180Y365840D01*
X576987Y364677D01*
X580000Y364280D01*
X583013Y364677D01*
X585820Y365840D01*
X588230Y367690D01*
X590080Y370100D01*
X591243Y372907D01*
X591640Y375920D01*
X591243Y378932D01*
X590080Y381740D01*
X588230Y384150D01*
X585820Y386000D01*
X583013Y387163D01*
X580000Y387560D01*
D02*
G37*
G36*
X434960Y386047D02*
X432339Y385702D01*
X429897Y384690D01*
X427799Y383081D01*
X426190Y380983D01*
X425178Y378541D01*
X424833Y375920D01*
X425178Y373299D01*
X426190Y370857D01*
X427799Y368759D01*
X429897Y367150D01*
X432339Y366138D01*
X434960Y365793D01*
X437581Y366138D01*
X440023Y367150D01*
X442121Y368759D01*
X443730Y370857D01*
X444742Y373299D01*
X445087Y375920D01*
X444742Y378541D01*
X443730Y380983D01*
X442121Y383081D01*
X440023Y384690D01*
X437581Y385702D01*
X434960Y386047D01*
D02*
G37*
G36*
X38142Y373380D02*
X27940D01*
Y363178D01*
X29683Y363407D01*
X32490Y364570D01*
X34900Y366420D01*
X36750Y368830D01*
X37913Y371637D01*
X38142Y373380D01*
D02*
G37*
G36*
X637070Y491195D02*
X634188Y490816D01*
X631502Y489703D01*
X629196Y487934D01*
X627427Y485628D01*
X626314Y482942D01*
X625935Y480060D01*
X626314Y477178D01*
X627427Y474492D01*
X629139Y472261D01*
X629201Y472026D01*
X629261Y471707D01*
X629465Y469019D01*
Y384070D01*
X592416Y347021D01*
X591570Y347372D01*
X591264Y347665D01*
X591640Y350520D01*
X591243Y353532D01*
X590080Y356340D01*
X588230Y358750D01*
X585820Y360600D01*
X583013Y361763D01*
X580000Y362160D01*
X576987Y361763D01*
X574180Y360600D01*
X571770Y358750D01*
X569920Y356340D01*
X568757Y353532D01*
X568360Y350520D01*
X568757Y347508D01*
X569920Y344700D01*
X571770Y342290D01*
X574180Y340440D01*
X576987Y339277D01*
X580000Y338880D01*
X581788Y339116D01*
X582874Y337978D01*
X582804Y337592D01*
X582438Y337316D01*
X582005Y337028D01*
X581648Y336828D01*
X581383Y336709D01*
X581226Y336659D01*
X581193Y336653D01*
X581015Y336655D01*
X580923Y336638D01*
X580000Y336760D01*
X576987Y336363D01*
X574180Y335200D01*
X571770Y333350D01*
X569920Y330940D01*
X568757Y328133D01*
X568360Y325120D01*
X568757Y322108D01*
X569920Y319300D01*
X571770Y316890D01*
X574180Y315040D01*
X576987Y313877D01*
X580000Y313480D01*
X583013Y313877D01*
X585820Y315040D01*
X588230Y316890D01*
X590080Y319300D01*
X591243Y322108D01*
X591451Y323687D01*
X591508Y323828D01*
X591534Y323966D01*
X591553Y324018D01*
X591646Y324210D01*
X591825Y324508D01*
X592047Y324831D01*
X593949Y327044D01*
X642448Y375542D01*
X643656Y377118D01*
X643971Y377877D01*
X644416Y378952D01*
X644675Y380920D01*
Y468795D01*
X644696Y469789D01*
X644799Y471145D01*
X644865Y471632D01*
X644939Y472026D01*
X645001Y472261D01*
X646713Y474492D01*
X647826Y477178D01*
X648205Y480060D01*
X647826Y482942D01*
X646713Y485628D01*
X644944Y487934D01*
X642638Y489703D01*
X639952Y490816D01*
X637070Y491195D01*
D02*
G37*
G36*
X25400Y373380D02*
X15198D01*
X15427Y371637D01*
X16590Y368830D01*
X18440Y366420D01*
X20850Y364570D01*
X23658Y363407D01*
X25400Y363178D01*
Y373380D01*
D02*
G37*
G36*
X283860Y436847D02*
X281239Y436502D01*
X278797Y435490D01*
X276699Y433881D01*
X275090Y431783D01*
X274078Y429341D01*
X273733Y426720D01*
X274078Y424099D01*
X275090Y421657D01*
X276699Y419559D01*
X278797Y417950D01*
X281239Y416938D01*
X283860Y416593D01*
X286481Y416938D01*
X288923Y417950D01*
X291021Y419559D01*
X292630Y421657D01*
X293642Y424099D01*
X293987Y426720D01*
X293642Y429341D01*
X292630Y431783D01*
X291021Y433881D01*
X288923Y435490D01*
X286481Y436502D01*
X283860Y436847D01*
D02*
G37*
G36*
X434960D02*
X432339Y436502D01*
X429897Y435490D01*
X427799Y433881D01*
X426190Y431783D01*
X425178Y429341D01*
X424833Y426720D01*
X425178Y424099D01*
X426190Y421657D01*
X427799Y419559D01*
X429897Y417950D01*
X432339Y416938D01*
X434960Y416593D01*
X437581Y416938D01*
X440023Y417950D01*
X442121Y419559D01*
X443730Y421657D01*
X444742Y424099D01*
X445087Y426720D01*
X444742Y429341D01*
X443730Y431783D01*
X442121Y433881D01*
X440023Y435490D01*
X437581Y436502D01*
X434960Y436847D01*
D02*
G37*
G36*
X26670Y437090D02*
X23658Y436693D01*
X20850Y435530D01*
X18440Y433680D01*
X16590Y431270D01*
X15427Y428462D01*
X15030Y425450D01*
X15427Y422438D01*
X16590Y419630D01*
X18440Y417220D01*
X20850Y415370D01*
X23658Y414207D01*
X26670Y413811D01*
X29683Y414207D01*
X32490Y415370D01*
X34900Y417220D01*
X36750Y419630D01*
X37913Y422438D01*
X38310Y425450D01*
X37913Y428462D01*
X36750Y431270D01*
X34900Y433680D01*
X32490Y435530D01*
X29683Y436693D01*
X26670Y437090D01*
D02*
G37*
G36*
X580000Y438359D02*
X576987Y437963D01*
X574180Y436800D01*
X571770Y434950D01*
X569920Y432540D01*
X568757Y429733D01*
X568360Y426720D01*
X568757Y423708D01*
X569920Y420900D01*
X571770Y418490D01*
X574180Y416640D01*
X576987Y415477D01*
X580000Y415080D01*
X583013Y415477D01*
X585820Y416640D01*
X588230Y418490D01*
X590080Y420900D01*
X591243Y423708D01*
X591640Y426720D01*
X591243Y429733D01*
X590080Y432540D01*
X588230Y434950D01*
X585820Y436800D01*
X583013Y437963D01*
X580000Y438359D01*
D02*
G37*
G36*
X26670Y462490D02*
X23658Y462093D01*
X20850Y460930D01*
X18440Y459080D01*
X16590Y456670D01*
X15427Y453862D01*
X15030Y450850D01*
X15427Y447837D01*
X16590Y445030D01*
X18440Y442620D01*
X20850Y440770D01*
X23658Y439607D01*
X26670Y439210D01*
X29683Y439607D01*
X32490Y440770D01*
X34900Y442620D01*
X36750Y445030D01*
X37913Y447837D01*
X38310Y450850D01*
X37913Y453862D01*
X36750Y456670D01*
X34900Y459080D01*
X32490Y460930D01*
X29683Y462093D01*
X26670Y462490D01*
D02*
G37*
G36*
X580000Y463759D02*
X576987Y463363D01*
X574180Y462200D01*
X571770Y460350D01*
X569920Y457940D01*
X568757Y455132D01*
X568360Y452120D01*
X568757Y449108D01*
X569920Y446300D01*
X571770Y443890D01*
X574180Y442040D01*
X576987Y440877D01*
X580000Y440480D01*
X583013Y440877D01*
X585820Y442040D01*
X588230Y443890D01*
X590080Y446300D01*
X591243Y449108D01*
X591640Y452120D01*
X591243Y455132D01*
X590080Y457940D01*
X588230Y460350D01*
X585820Y462200D01*
X583013Y463363D01*
X580000Y463759D01*
D02*
G37*
G36*
X816610Y443566D02*
X815718Y443388D01*
X813886Y442164D01*
X812661Y440332D01*
X812232Y438170D01*
Y427440D01*
X816610D01*
Y443566D01*
D02*
G37*
G36*
X819150D02*
Y427440D01*
X823529D01*
Y438170D01*
X823099Y440332D01*
X821874Y442164D01*
X820042Y443388D01*
X819150Y443566D01*
D02*
G37*
G36*
X823529Y424900D02*
X819150D01*
Y408774D01*
X820042Y408951D01*
X821874Y410176D01*
X823099Y412008D01*
X823529Y414170D01*
Y424900D01*
D02*
G37*
G36*
X283860Y411447D02*
X281239Y411102D01*
X278797Y410090D01*
X276699Y408481D01*
X275090Y406383D01*
X274078Y403941D01*
X273733Y401320D01*
X274078Y398699D01*
X275090Y396257D01*
X276699Y394159D01*
X278797Y392550D01*
X281239Y391538D01*
X283860Y391193D01*
X286481Y391538D01*
X288923Y392550D01*
X291021Y394159D01*
X292630Y396257D01*
X293642Y398699D01*
X293987Y401320D01*
X293642Y403941D01*
X292630Y406383D01*
X291021Y408481D01*
X288923Y410090D01*
X286481Y411102D01*
X283860Y411447D01*
D02*
G37*
G36*
X26670Y411689D02*
X23658Y411293D01*
X20850Y410130D01*
X18440Y408280D01*
X16590Y405870D01*
X15427Y403063D01*
X15030Y400050D01*
X15427Y397038D01*
X16590Y394230D01*
X18440Y391820D01*
X20850Y389970D01*
X23658Y388807D01*
X26670Y388410D01*
X29683Y388807D01*
X32490Y389970D01*
X34900Y391820D01*
X36750Y394230D01*
X37913Y397038D01*
X38310Y400050D01*
X37913Y403063D01*
X36750Y405870D01*
X34900Y408280D01*
X32490Y410130D01*
X29683Y411293D01*
X26670Y411689D01*
D02*
G37*
G36*
X580000Y412960D02*
X576987Y412563D01*
X574180Y411400D01*
X571770Y409550D01*
X569920Y407140D01*
X568757Y404333D01*
X568360Y401320D01*
X568757Y398307D01*
X569920Y395500D01*
X571770Y393090D01*
X574180Y391240D01*
X576987Y390077D01*
X580000Y389680D01*
X583013Y390077D01*
X585820Y391240D01*
X588230Y393090D01*
X590080Y395500D01*
X591243Y398307D01*
X591640Y401320D01*
X591243Y404333D01*
X590080Y407140D01*
X588230Y409550D01*
X585820Y411400D01*
X583013Y412563D01*
X580000Y412960D01*
D02*
G37*
G36*
X434960Y411447D02*
X432339Y411102D01*
X429897Y410090D01*
X427799Y408481D01*
X426190Y406383D01*
X425178Y403941D01*
X424833Y401320D01*
X425178Y398699D01*
X426190Y396257D01*
X427799Y394159D01*
X429897Y392550D01*
X432339Y391538D01*
X434960Y391193D01*
X437581Y391538D01*
X440023Y392550D01*
X442121Y394159D01*
X443730Y396257D01*
X444742Y398699D01*
X445087Y401320D01*
X444742Y403941D01*
X443730Y406383D01*
X442121Y408481D01*
X440023Y410090D01*
X437581Y411102D01*
X434960Y411447D01*
D02*
G37*
G36*
X857250Y393238D02*
Y383540D01*
X866948D01*
X866736Y385152D01*
X865623Y387838D01*
X863854Y390144D01*
X861548Y391913D01*
X858862Y393026D01*
X857250Y393238D01*
D02*
G37*
G36*
X816610Y424900D02*
X812232D01*
Y414170D01*
X812661Y412008D01*
X813886Y410176D01*
X815718Y408951D01*
X816610Y408774D01*
Y424900D01*
D02*
G37*
%LPD*%
G36*
X810570Y561030D02*
X810068Y560415D01*
X809625Y559777D01*
X809242Y559115D01*
X808917Y558428D01*
X808652Y557718D01*
X808446Y556984D01*
X808298Y556226D01*
X808210Y555443D01*
X808180Y554637D01*
X802180D01*
X802150Y555443D01*
X802062Y556226D01*
X801915Y556984D01*
X801708Y557718D01*
X801442Y558428D01*
X801118Y559115D01*
X800734Y559777D01*
X800292Y560415D01*
X799790Y561030D01*
X799230Y561620D01*
X811130D01*
X810570Y561030D01*
D02*
G37*
G36*
X306000Y155400D02*
X306239Y154810D01*
X306639Y154290D01*
X307199Y153839D01*
X307920Y153457D01*
X308799Y153145D01*
X309839Y152902D01*
X311040Y152729D01*
X312400Y152625D01*
X313920Y152590D01*
Y144590D01*
X312400Y144555D01*
X311040Y144451D01*
X309839Y144278D01*
X308799Y144035D01*
X307920Y143723D01*
X307199Y143341D01*
X306639Y142890D01*
X306239Y142369D01*
X306000Y141780D01*
X305919Y141121D01*
Y156060D01*
X306000Y155400D01*
D02*
G37*
G36*
X900710Y459670D02*
X900300Y460041D01*
X899837Y460372D01*
X899319Y460664D01*
X898748Y460918D01*
X898122Y461133D01*
X897442Y461308D01*
X896707Y461445D01*
X895919Y461542D01*
X895077Y461600D01*
X894180Y461620D01*
Y469620D01*
X895077Y469640D01*
X896707Y469795D01*
X897442Y469932D01*
X898122Y470107D01*
X898748Y470322D01*
X899319Y470575D01*
X899837Y470868D01*
X900300Y471199D01*
X900710Y471570D01*
Y459670D01*
D02*
G37*
G36*
X901347Y576738D02*
X902610Y575695D01*
X903226Y575272D01*
X903831Y574916D01*
X904425Y574625D01*
X905009Y574400D01*
X905581Y574240D01*
X906144Y574147D01*
X906695Y574120D01*
X898280Y565705D01*
X898253Y566256D01*
X898160Y566819D01*
X898000Y567391D01*
X897775Y567975D01*
X897485Y568569D01*
X897128Y569174D01*
X896705Y569790D01*
X896217Y570416D01*
X895662Y571053D01*
X895042Y571701D01*
X900699Y577358D01*
X901347Y576738D01*
D02*
G37*
G36*
X808210Y394517D02*
X808298Y393735D01*
X808446Y392976D01*
X808652Y392242D01*
X808917Y391532D01*
X809242Y390845D01*
X809625Y390183D01*
X810068Y389545D01*
X810570Y388931D01*
X811130Y388340D01*
X799230D01*
X799790Y388931D01*
X800292Y389545D01*
X800734Y390183D01*
X801118Y390845D01*
X801442Y391532D01*
X801708Y392242D01*
X801915Y392976D01*
X802062Y393735D01*
X802150Y394517D01*
X802180Y395323D01*
X808180D01*
X808210Y394517D01*
D02*
G37*
G36*
X252900Y153946D02*
X242400D01*
X242447Y154038D01*
X242490Y154214D01*
X242528Y154475D01*
X242588Y155252D01*
X242647Y157825D01*
X242650Y158680D01*
X252650D01*
X252900Y153946D01*
D02*
G37*
G36*
X283785Y343020D02*
X283687Y342989D01*
X283532Y342895D01*
X283321Y342737D01*
X282729Y342229D01*
X280867Y340453D01*
X280261Y339850D01*
X273190Y346921D01*
X276360Y350445D01*
X283785Y343020D01*
D02*
G37*
G36*
X592796Y329575D02*
X592093Y328858D01*
X589993Y326414D01*
X589645Y325909D01*
X589368Y325446D01*
X589162Y325025D01*
X589027Y324647D01*
X588964Y324312D01*
X580988Y334066D01*
X581393Y334061D01*
X581833Y334134D01*
X582307Y334285D01*
X582815Y334513D01*
X583358Y334818D01*
X583934Y335200D01*
X584545Y335660D01*
X585869Y336812D01*
X586582Y337503D01*
X592796Y329575D01*
D02*
G37*
G36*
X642840Y473763D02*
X642678Y473456D01*
X642535Y473067D01*
X642412Y472598D01*
X642308Y472048D01*
X642222Y471418D01*
X642108Y469913D01*
X642070Y468086D01*
X632070D01*
X632061Y469040D01*
X631833Y472048D01*
X631728Y472598D01*
X631604Y473067D01*
X631462Y473456D01*
X631301Y473763D01*
X631120Y473990D01*
X643020D01*
X642840Y473763D01*
D02*
G37*
D10*
X73269Y52020D02*
G03*
X73269Y52020I-7279J0D01*
G01*
X83440Y52144D02*
G03*
X48084Y52210I-17700J-11777D01*
G01*
X47423Y52653D02*
G03*
X83959Y52489I18317J10796D01*
G01*
D11*
X779780Y426170D02*
D03*
X792480D02*
D03*
X805180D02*
D03*
X817880D02*
D03*
X779780Y516170D02*
D03*
X792480D02*
D03*
X805180D02*
D03*
D12*
X817880D02*
D03*
D13*
X581270Y325120D02*
X637070Y380920D01*
Y481800D01*
X247650Y314310D02*
X283860Y350520D01*
X247650Y148590D02*
Y314310D01*
D14*
X65790Y84320D02*
X95740Y32770D01*
X35740D02*
X65790Y84320D01*
X35740Y32770D02*
X95740D01*
D15*
X779780Y516170D02*
Y537210D01*
Y426170D02*
Y444500D01*
X817880Y500380D02*
Y516170D01*
X805180Y382270D02*
Y426170D01*
Y516170D02*
Y567690D01*
D16*
X885660Y586740D02*
X906780Y565620D01*
X796290Y586740D02*
X885660D01*
X779780Y570230D02*
X796290Y586740D01*
X800900Y465620D02*
X906780D01*
X779780Y444500D02*
X800900Y465620D01*
X621030Y148590D02*
X758190Y285750D01*
X298450Y148590D02*
X621030D01*
X758190Y440690D02*
X817880Y500380D01*
X758190Y285750D02*
Y440690D01*
X779780Y537210D02*
Y570230D01*
D17*
X0Y0D02*
Y600000D01*
Y0D02*
X1050000D01*
Y600000D01*
X0D02*
X1050000D01*
D18*
X993140Y102870D02*
D03*
X995680Y509270D02*
D03*
D19*
X993140Y153670D02*
D03*
X995680Y560070D02*
D03*
D20*
X740410Y178270D02*
D03*
Y78270D02*
D03*
X299250Y40640D02*
D03*
X399250D02*
D03*
X805980Y243840D02*
D03*
X905980D02*
D03*
X474510Y567690D02*
D03*
X574510D02*
D03*
X637070Y480060D02*
D03*
X737070D02*
D03*
X815340Y178270D02*
D03*
Y78270D02*
D03*
X891540Y178270D02*
D03*
Y78270D02*
D03*
X100330Y224320D02*
D03*
Y324320D02*
D03*
X99060Y575780D02*
D03*
Y475780D02*
D03*
X231610Y325120D02*
D03*
X131610D02*
D03*
X231610Y476250D02*
D03*
X131610D02*
D03*
X906780Y465620D02*
D03*
Y565620D02*
D03*
X855980Y382270D02*
D03*
X805180D02*
D03*
X754380Y567690D02*
D03*
X805180D02*
D03*
D21*
X298450Y148590D02*
D03*
D22*
X273050D02*
D03*
X247650D02*
D03*
X222250D02*
D03*
X196850D02*
D03*
X171450D02*
D03*
X146050D02*
D03*
X298450Y72390D02*
D03*
X273050D02*
D03*
X247650D02*
D03*
X222250D02*
D03*
X196850D02*
D03*
X171450D02*
D03*
X146050D02*
D03*
X434960Y325120D02*
D03*
Y299720D02*
D03*
Y274320D02*
D03*
Y248920D02*
D03*
Y426720D02*
D03*
Y401320D02*
D03*
Y375920D02*
D03*
Y350520D02*
D03*
X283860Y325120D02*
D03*
Y299720D02*
D03*
Y274320D02*
D03*
Y248920D02*
D03*
X434960Y452120D02*
D03*
Y477520D02*
D03*
Y502920D02*
D03*
Y528320D02*
D03*
X283860Y350520D02*
D03*
Y375920D02*
D03*
Y401320D02*
D03*
Y426720D02*
D03*
Y452120D02*
D03*
Y477520D02*
D03*
Y502920D02*
D03*
D23*
X26670Y273050D02*
D03*
Y298450D02*
D03*
Y323850D02*
D03*
Y349250D02*
D03*
Y374650D02*
D03*
Y400050D02*
D03*
Y425450D02*
D03*
Y450850D02*
D03*
Y476250D02*
D03*
Y501650D02*
D03*
Y247650D02*
D03*
X580000Y248920D02*
D03*
Y274320D02*
D03*
Y299720D02*
D03*
Y325120D02*
D03*
Y350520D02*
D03*
Y375920D02*
D03*
Y401320D02*
D03*
Y426720D02*
D03*
Y452120D02*
D03*
Y477520D02*
D03*
Y223520D02*
D03*
D24*
X26670Y527050D02*
D03*
X580000Y502920D02*
D03*
D25*
X283860Y528320D02*
D03*
M02*
