G04 Layer_Color=8388736*
%FSLAX44Y44*%
%MOMM*%
G71*
G01*
G75*
%ADD10C,0.3000*%
%ADD17C,0.1000*%
%ADD33C,0.5500*%
%ADD34O,0.8032X3.2032*%
%ADD35R,0.8032X3.2032*%
%ADD36C,2.6032*%
%ADD37R,2.6032X2.6032*%
%ADD38C,1.9032*%
%ADD39R,1.7032X1.7032*%
%ADD40C,1.7032*%
%ADD41C,2.0032*%
%ADD42R,2.0032X2.0032*%
%ADD43R,1.7032X1.7032*%
D10*
X47473Y52403D02*
G03*
X84009Y52239I18317J10796D01*
G01*
X83490Y51894D02*
G03*
X48134Y51960I-17700J-11777D01*
G01*
X73319Y51770D02*
G03*
X73319Y51770I-7279J0D01*
G01*
D17*
X0Y0D02*
Y600000D01*
Y0D02*
X1050000D01*
Y600000D01*
X0D02*
X1050000D01*
D33*
X35790Y32520D02*
X95790D01*
X35790D02*
X65840Y84070D01*
X95790Y32520D01*
D34*
X779780Y426170D02*
D03*
X792480D02*
D03*
X805180D02*
D03*
X817880D02*
D03*
X779780Y516170D02*
D03*
X792480D02*
D03*
X805180D02*
D03*
D35*
X817880D02*
D03*
D36*
X993140Y102870D02*
D03*
X995680Y509270D02*
D03*
D37*
X993140Y153670D02*
D03*
X995680Y560070D02*
D03*
D38*
X740410Y178270D02*
D03*
Y78270D02*
D03*
X299250Y40640D02*
D03*
X399250D02*
D03*
X805980Y243840D02*
D03*
X905980D02*
D03*
X474510Y567690D02*
D03*
X574510D02*
D03*
X637070Y480060D02*
D03*
X737070D02*
D03*
X815340Y178270D02*
D03*
Y78270D02*
D03*
X891540Y178270D02*
D03*
Y78270D02*
D03*
X100330Y224320D02*
D03*
Y324320D02*
D03*
X99060Y575780D02*
D03*
Y475780D02*
D03*
X231610Y325120D02*
D03*
X131610D02*
D03*
X231610Y476250D02*
D03*
X131610D02*
D03*
X906780Y465620D02*
D03*
Y565620D02*
D03*
X855980Y382270D02*
D03*
X805180D02*
D03*
X754380Y567690D02*
D03*
X805180D02*
D03*
D39*
X298450Y148590D02*
D03*
D40*
X273050D02*
D03*
X247650D02*
D03*
X222250D02*
D03*
X196850D02*
D03*
X171450D02*
D03*
X146050D02*
D03*
X298450Y72390D02*
D03*
X273050D02*
D03*
X247650D02*
D03*
X222250D02*
D03*
X196850D02*
D03*
X171450D02*
D03*
X146050D02*
D03*
X434960Y325120D02*
D03*
Y299720D02*
D03*
Y274320D02*
D03*
Y248920D02*
D03*
Y426720D02*
D03*
Y401320D02*
D03*
Y375920D02*
D03*
Y350520D02*
D03*
X283860Y325120D02*
D03*
Y299720D02*
D03*
Y274320D02*
D03*
Y248920D02*
D03*
X434960Y452120D02*
D03*
Y477520D02*
D03*
Y502920D02*
D03*
Y528320D02*
D03*
X283860Y350520D02*
D03*
Y375920D02*
D03*
Y401320D02*
D03*
Y426720D02*
D03*
Y452120D02*
D03*
Y477520D02*
D03*
Y502920D02*
D03*
D41*
X26670Y273050D02*
D03*
Y298450D02*
D03*
Y323850D02*
D03*
Y349250D02*
D03*
Y374650D02*
D03*
Y400050D02*
D03*
Y425450D02*
D03*
Y450850D02*
D03*
Y476250D02*
D03*
Y501650D02*
D03*
Y247650D02*
D03*
X580000Y248920D02*
D03*
Y274320D02*
D03*
Y299720D02*
D03*
Y325120D02*
D03*
Y350520D02*
D03*
Y375920D02*
D03*
Y401320D02*
D03*
Y426720D02*
D03*
Y452120D02*
D03*
Y477520D02*
D03*
Y223520D02*
D03*
D42*
X26670Y527050D02*
D03*
X580000Y502920D02*
D03*
D43*
X283860Y528320D02*
D03*
M02*
