M48
;Layer_Color=9474304
;FILE_FORMAT=4:4
METRIC,LZ
;TYPE=PLATED
T1F00S00C0.7110
T2F00S00C0.9000
T3F00S00C1.4000
%
T01
X0031877Y0019812
X0033528Y0035052
T02
X0025226Y0002032
Y0005715
X0035226
Y0002032
X0057959Y0024638
X0047959
X0043434Y0025066
X004445Y0031195
X0040052Y0032893
Y0028829
X0030052
Y0032893
X0031289Y0037592
Y0041783
X0021289
X0017399Y0041957
X0012573
Y0031957
X0017399
X0021289Y0037592
X0021637Y0026035
Y0020447
X0027131Y0017653
Y0013589
X0025226Y0009525
X0035226
X0037131Y0013589
Y0017653
X0043434Y0015066
X004445Y0041195
X0011637Y0026035
Y0020447
X001135Y0014605
X0007239Y0018876
X0003175Y0021416
X000135Y0014605
X0003175Y0031416
X0007239Y0028876
T03
X0004699Y0005207
X0009779
X0055Y003646
Y004154
X0005
Y003646
M30
