G04 Layer_Physical_Order=1*
G04 Layer_Color=6759642*
%FSLAX44Y44*%
%MOMM*%
G71*
G01*
G75*
%ADD10C,0.3000*%
%ADD11R,1.7000X0.6000*%
%ADD12O,1.7000X0.6000*%
%ADD13C,0.5000*%
%ADD14C,0.8000*%
%ADD15C,2.4000*%
%ADD16R,2.4000X2.4000*%
%ADD17C,1.7000*%
%ADD18R,2.4000X2.4000*%
%ADD19C,1.2700*%
G36*
X54525Y352580D02*
X54100Y352430D01*
X53725Y352180D01*
X53400Y351830D01*
X53125Y351381D01*
X52900Y350830D01*
X52725Y350181D01*
X52600Y349431D01*
X52525Y348581D01*
X52500Y347631D01*
X47500D01*
X47475Y348581D01*
X47400Y349431D01*
X47275Y350181D01*
X47100Y350830D01*
X46875Y351381D01*
X46600Y351830D01*
X46275Y352180D01*
X45900Y352430D01*
X45475Y352580D01*
X45000Y352631D01*
X55000D01*
X54525Y352580D01*
D02*
G37*
G36*
X453027Y411314D02*
X453120Y410751D01*
X453280Y410179D01*
X453505Y409595D01*
X453796Y409001D01*
X454152Y408396D01*
X454575Y407780D01*
X455063Y407154D01*
X455618Y406517D01*
X456238Y405869D01*
X450581Y400212D01*
X449933Y400832D01*
X448670Y401875D01*
X448054Y402298D01*
X447449Y402654D01*
X446855Y402945D01*
X446271Y403170D01*
X445699Y403330D01*
X445136Y403423D01*
X444585Y403450D01*
X453000Y411865D01*
X453027Y411314D01*
D02*
G37*
G36*
X94355Y70908D02*
X97528Y68185D01*
X99028Y67079D01*
X100471Y66142D01*
X101857Y65375D01*
X103185Y64779D01*
X104455Y64352D01*
X105668Y64096D01*
X106824Y64009D01*
X85821Y64040D01*
X85804Y64822D01*
X85674Y66243D01*
X85561Y66880D01*
X85414Y67470D01*
X85236Y68012D01*
X85025Y68505D01*
X84781Y68951D01*
X84505Y69348D01*
X84197Y69696D01*
X92682Y72525D01*
X94355Y70908D01*
D02*
G37*
G36*
X596900Y6350D02*
X479599D01*
X479238Y7221D01*
X479153Y7620D01*
X479296Y7834D01*
X479555Y8063D01*
X479848Y8660D01*
X480218Y9214D01*
X480285Y9553D01*
X480437Y9864D01*
X480479Y10527D01*
X480609Y11180D01*
X480541Y11519D01*
X480563Y11865D01*
X480347Y12494D01*
X480218Y13147D01*
X480025Y13434D01*
X479913Y13762D01*
X449963Y65311D01*
X449751Y65553D01*
X449610Y65841D01*
X449093Y66298D01*
X448637Y66815D01*
X448349Y66957D01*
X448108Y67169D01*
X447456Y67394D01*
X446836Y67697D01*
X446516Y67717D01*
X446212Y67822D01*
X445524Y67780D01*
X444835Y67823D01*
X444531Y67719D01*
X444211Y67699D01*
X443591Y67397D01*
X442938Y67173D01*
X442697Y66961D01*
X442409Y66820D01*
X441952Y66303D01*
X441435Y65847D01*
X441293Y65559D01*
X441081Y65318D01*
X411031Y13768D01*
X410917Y13437D01*
X410722Y13147D01*
X410593Y12498D01*
X410378Y11872D01*
X410400Y11523D01*
X410331Y11180D01*
X410460Y10531D01*
X410501Y9871D01*
X410654Y9556D01*
X410722Y9214D01*
X411090Y8663D01*
X411380Y8069D01*
X411642Y7837D01*
X411787Y7620D01*
X411702Y7221D01*
X411341Y6350D01*
X6350D01*
Y136185D01*
X7489Y136747D01*
X7932Y136407D01*
X10618Y135294D01*
X13500Y134915D01*
X13759Y134949D01*
X13859Y134944D01*
X14138Y134897D01*
X14457Y134809D01*
X14818Y134670D01*
X15220Y134473D01*
X15662Y134212D01*
X16110Y133905D01*
X17211Y132996D01*
X17549Y132673D01*
X82381Y67840D01*
X82465Y67745D01*
X82576Y67586D01*
X82693Y67372D01*
X82811Y67095D01*
X82924Y66752D01*
X83026Y66341D01*
X83105Y65897D01*
X83217Y64677D01*
X83231Y63986D01*
X83250Y63901D01*
Y37530D01*
X98349D01*
X98446Y37511D01*
X98543Y37530D01*
X101967D01*
X102492Y37230D01*
X103598Y36460D01*
X106381Y34106D01*
X107671Y32861D01*
X124876Y15656D01*
X126242Y14607D01*
X127833Y13948D01*
X129540Y13724D01*
X239939D01*
X240439Y13713D01*
X241150Y13663D01*
X241792Y13584D01*
X242360Y13478D01*
X242857Y13350D01*
X243281Y13205D01*
X243635Y13048D01*
X243923Y12885D01*
X244153Y12721D01*
X244227Y12653D01*
X244386Y12446D01*
X246692Y10677D01*
X249378Y9564D01*
X252260Y9185D01*
X255142Y9564D01*
X257828Y10677D01*
X260134Y12446D01*
X261903Y14752D01*
X263016Y17438D01*
X263395Y20320D01*
X263016Y23202D01*
X261903Y25888D01*
X260134Y28194D01*
X257828Y29963D01*
X255142Y31076D01*
X252260Y31455D01*
X249378Y31076D01*
X246692Y29963D01*
X244386Y28194D01*
X244227Y27987D01*
X244153Y27919D01*
X243923Y27755D01*
X243635Y27592D01*
X243281Y27435D01*
X242857Y27290D01*
X242360Y27162D01*
X241827Y27063D01*
X240405Y26927D01*
X239939Y26916D01*
X132272D01*
X117159Y42030D01*
X114438Y44961D01*
X113420Y46233D01*
X112630Y47368D01*
X112330Y47893D01*
Y51317D01*
X112349Y51414D01*
X112330Y51511D01*
Y66610D01*
X106772D01*
X106035Y66665D01*
X105138Y66855D01*
X104130Y67193D01*
X103016Y67694D01*
X101805Y68364D01*
X100503Y69209D01*
X99142Y70213D01*
X96100Y72824D01*
X94778Y74100D01*
X26877Y142001D01*
X26531Y142363D01*
X26063Y142902D01*
X25666Y143411D01*
X25338Y143888D01*
X25077Y144330D01*
X24880Y144732D01*
X24741Y145093D01*
X24653Y145412D01*
X24606Y145691D01*
X24601Y145791D01*
X24635Y146050D01*
X24256Y148932D01*
X23143Y151618D01*
X21374Y153924D01*
X20848Y154327D01*
X20806Y154388D01*
X20521Y154663D01*
X20357Y154866D01*
X20195Y155122D01*
X20037Y155443D01*
X19888Y155837D01*
X19756Y156306D01*
X19653Y156813D01*
X19508Y158208D01*
X19496Y158687D01*
Y212924D01*
X20766Y213008D01*
X20994Y211278D01*
X22107Y208592D01*
X23876Y206286D01*
X26182Y204517D01*
X28868Y203404D01*
X31750Y203025D01*
X34632Y203404D01*
X37318Y204517D01*
X39624Y206286D01*
X39816Y206537D01*
X40241Y206946D01*
X40803Y207425D01*
X41355Y207836D01*
X41895Y208180D01*
X42424Y208462D01*
X42942Y208686D01*
X43451Y208855D01*
X43956Y208974D01*
X44299Y209021D01*
X44861D01*
X59883Y194000D01*
X60091Y193724D01*
X60365Y193283D01*
X60605Y192803D01*
X60813Y192279D01*
X60988Y191705D01*
X61126Y191080D01*
X61226Y190399D01*
X61285Y189663D01*
X61296Y189073D01*
X61255Y188760D01*
X61634Y185878D01*
X62747Y183192D01*
X64516Y180886D01*
X66822Y179117D01*
X69508Y178004D01*
X72390Y177625D01*
X75272Y178004D01*
X77958Y179117D01*
X80264Y180886D01*
X82033Y183192D01*
X83146Y185878D01*
X83525Y188760D01*
X83146Y191642D01*
X82033Y194328D01*
X80264Y196634D01*
X77958Y198403D01*
X75272Y199516D01*
X72390Y199895D01*
X72077Y199854D01*
X71487Y199865D01*
X70751Y199924D01*
X70070Y200024D01*
X69445Y200162D01*
X68871Y200337D01*
X68347Y200545D01*
X67867Y200785D01*
X67426Y201059D01*
X67150Y201267D01*
X50624Y217794D01*
X48956Y218908D01*
X46990Y219299D01*
X44299D01*
X43956Y219347D01*
X43451Y219465D01*
X42942Y219634D01*
X42424Y219858D01*
X41895Y220140D01*
X41355Y220484D01*
X40803Y220895D01*
X40241Y221374D01*
X39816Y221783D01*
X39624Y222034D01*
X37318Y223803D01*
X34632Y224916D01*
X31750Y225295D01*
X28868Y224916D01*
X26182Y223803D01*
X23876Y222034D01*
X22107Y219728D01*
X20994Y217042D01*
X20766Y215312D01*
X19496Y215396D01*
Y312924D01*
X20766Y313008D01*
X20994Y311278D01*
X22107Y308592D01*
X23876Y306286D01*
X26182Y304517D01*
X28868Y303404D01*
X31750Y303025D01*
X34632Y303404D01*
X37318Y304517D01*
X39624Y306286D01*
X41393Y308592D01*
X42506Y311278D01*
X42885Y314160D01*
X42844Y314473D01*
X42855Y315063D01*
X42914Y315799D01*
X43014Y316480D01*
X43152Y317105D01*
X43327Y317679D01*
X43535Y318203D01*
X43775Y318683D01*
X44049Y319124D01*
X44257Y319400D01*
X53634Y328776D01*
X54748Y330443D01*
X55139Y332410D01*
Y348738D01*
X55171Y349103D01*
X55259Y349630D01*
X55359Y350000D01*
X55383Y350060D01*
X64540D01*
Y379140D01*
X35460D01*
Y350060D01*
X44617D01*
X44641Y350000D01*
X44741Y349630D01*
X44829Y349103D01*
X44861Y348738D01*
Y334538D01*
X36990Y326667D01*
X36714Y326459D01*
X36273Y326185D01*
X35793Y325945D01*
X35269Y325737D01*
X34695Y325562D01*
X34070Y325424D01*
X33389Y325324D01*
X32653Y325265D01*
X32063Y325254D01*
X31750Y325295D01*
X28868Y324916D01*
X26182Y323803D01*
X23876Y322034D01*
X22107Y319728D01*
X20994Y317042D01*
X20766Y315312D01*
X19496Y315396D01*
Y421648D01*
X31942Y434094D01*
X413028D01*
X431123Y415999D01*
X431469Y415637D01*
X431937Y415098D01*
X432335Y414589D01*
X432662Y414112D01*
X432923Y413670D01*
X433120Y413268D01*
X433259Y412907D01*
X433347Y412588D01*
X433394Y412309D01*
X433399Y412209D01*
X433365Y411950D01*
X433406Y411637D01*
X433395Y411047D01*
X433336Y410311D01*
X433236Y409630D01*
X433098Y409005D01*
X432923Y408431D01*
X432715Y407907D01*
X432475Y407427D01*
X432201Y406986D01*
X431993Y406710D01*
X419041Y393759D01*
X418361D01*
X418242Y393839D01*
X416080Y394268D01*
X405080D01*
X402918Y393839D01*
X401086Y392614D01*
X399861Y390782D01*
X399431Y388620D01*
X399861Y386458D01*
X401086Y384626D01*
X402918Y383401D01*
X405080Y382971D01*
X416080D01*
X418242Y383401D01*
X418361Y383481D01*
X421170D01*
X423136Y383872D01*
X424804Y384986D01*
X439260Y399443D01*
X439536Y399651D01*
X439977Y399925D01*
X440457Y400165D01*
X440981Y400373D01*
X441555Y400548D01*
X442180Y400686D01*
X442861Y400786D01*
X443597Y400845D01*
X444187Y400856D01*
X444500Y400815D01*
X444759Y400849D01*
X444859Y400844D01*
X445138Y400797D01*
X445457Y400709D01*
X445818Y400570D01*
X446220Y400373D01*
X446662Y400112D01*
X447110Y399805D01*
X448211Y398896D01*
X448549Y398573D01*
X462034Y385088D01*
Y287682D01*
X438389Y264037D01*
X438027Y263691D01*
X437488Y263223D01*
X436979Y262826D01*
X436502Y262498D01*
X436060Y262237D01*
X435658Y262040D01*
X435297Y261901D01*
X434978Y261813D01*
X434699Y261766D01*
X434599Y261761D01*
X434340Y261795D01*
X431458Y261416D01*
X428772Y260303D01*
X426466Y258534D01*
X424697Y256228D01*
X423584Y253542D01*
X423205Y250660D01*
X423246Y250347D01*
X423235Y249757D01*
X423176Y249021D01*
X423076Y248340D01*
X422938Y247715D01*
X422763Y247141D01*
X422555Y246617D01*
X422315Y246137D01*
X422041Y245696D01*
X421833Y245420D01*
X413961Y237549D01*
X408671D01*
X407532Y237593D01*
X406665Y237674D01*
X406433Y237710D01*
X406332Y237732D01*
X406227Y237766D01*
X405967Y237796D01*
X404650Y238058D01*
X393650D01*
X391488Y237629D01*
X389656Y236404D01*
X388432Y234572D01*
X388002Y232410D01*
X388432Y230248D01*
X389656Y228416D01*
X391488Y227191D01*
X393650Y226761D01*
X404650D01*
X405968Y227024D01*
X406227Y227055D01*
X406320Y227085D01*
X409609Y227271D01*
X416090D01*
X418056Y227662D01*
X419724Y228776D01*
X429100Y238153D01*
X429376Y238361D01*
X429817Y238635D01*
X430297Y238875D01*
X430821Y239083D01*
X431395Y239258D01*
X432020Y239396D01*
X432701Y239496D01*
X433437Y239555D01*
X434027Y239566D01*
X434340Y239525D01*
X437222Y239904D01*
X439908Y241017D01*
X442214Y242786D01*
X443983Y245092D01*
X445096Y247778D01*
X445475Y250660D01*
X445441Y250919D01*
X445446Y251019D01*
X445493Y251298D01*
X445581Y251617D01*
X445720Y251978D01*
X445917Y252380D01*
X446178Y252822D01*
X446485Y253270D01*
X447394Y254371D01*
X447717Y254709D01*
X473294Y280286D01*
X474343Y281652D01*
X475002Y283243D01*
X475226Y284950D01*
Y387820D01*
X475002Y389527D01*
X474343Y391118D01*
X473294Y392484D01*
X457877Y407901D01*
X457531Y408263D01*
X457062Y408802D01*
X456665Y409311D01*
X456338Y409788D01*
X456077Y410230D01*
X455880Y410632D01*
X455741Y410993D01*
X455653Y411312D01*
X455606Y411591D01*
X455601Y411691D01*
X455635Y411950D01*
X455256Y414832D01*
X454143Y417518D01*
X452374Y419824D01*
X450068Y421593D01*
X447382Y422706D01*
X444500Y423085D01*
X444241Y423051D01*
X444141Y423056D01*
X443862Y423103D01*
X443543Y423191D01*
X443182Y423330D01*
X442780Y423527D01*
X442338Y423788D01*
X441890Y424095D01*
X440789Y425004D01*
X440451Y425327D01*
X422452Y443327D01*
X422938Y444500D01*
X596900D01*
Y6350D01*
D02*
G37*
G36*
X109307Y50792D02*
X109081Y50057D01*
Y49208D01*
X109307Y48246D01*
X109760Y47172D01*
X110438Y45984D01*
X111343Y44682D01*
X112475Y43268D01*
X115416Y40100D01*
X109760Y34444D01*
X108119Y36028D01*
X105177Y38517D01*
X103876Y39422D01*
X102688Y40100D01*
X101614Y40553D01*
X100652Y40779D01*
X99803D01*
X99068Y40553D01*
X98446Y40100D01*
X109760Y51414D01*
X109307Y50792D01*
D02*
G37*
G36*
X38500Y219454D02*
X39188Y218868D01*
X39884Y218351D01*
X40588Y217902D01*
X41300Y217523D01*
X42019Y217212D01*
X42746Y216971D01*
X43481Y216798D01*
X44223Y216695D01*
X44974Y216660D01*
Y211660D01*
X44223Y211625D01*
X43481Y211522D01*
X42746Y211350D01*
X42019Y211108D01*
X41300Y210798D01*
X40588Y210418D01*
X39884Y209970D01*
X39188Y209452D01*
X38500Y208866D01*
X37820Y208210D01*
Y220110D01*
X38500Y219454D01*
D02*
G37*
G36*
X446078Y256741D02*
X445458Y256093D01*
X444415Y254830D01*
X443992Y254214D01*
X443635Y253609D01*
X443345Y253015D01*
X443120Y252431D01*
X442960Y251859D01*
X442867Y251296D01*
X442840Y250745D01*
X434425Y259160D01*
X434976Y259187D01*
X435539Y259280D01*
X436111Y259440D01*
X436695Y259665D01*
X437289Y259956D01*
X437894Y260312D01*
X438510Y260735D01*
X439136Y261223D01*
X439773Y261778D01*
X440421Y262398D01*
X446078Y256741D01*
D02*
G37*
G36*
X434342Y246660D02*
X434197Y246604D01*
X433949Y246435D01*
X433597Y246153D01*
X431922Y244632D01*
X431852Y244563D01*
X434255Y242160D01*
X433311Y242143D01*
X432409Y242071D01*
X431551Y241945D01*
X430737Y241765D01*
X429965Y241530D01*
X429237Y241241D01*
X428552Y240897D01*
X427910Y240500D01*
X427312Y240048D01*
X426757Y239541D01*
X423221Y243077D01*
X423728Y243632D01*
X424180Y244230D01*
X424577Y244872D01*
X424921Y245557D01*
X425210Y246285D01*
X425445Y247057D01*
X425625Y247871D01*
X425751Y248729D01*
X425823Y249631D01*
X425840Y250575D01*
X428138Y248278D01*
X430340Y250662D01*
X434342Y246660D01*
D02*
G37*
G36*
X444502Y407950D02*
X444357Y407894D01*
X444109Y407725D01*
X443757Y407443D01*
X442082Y405922D01*
X442012Y405853D01*
X444415Y403450D01*
X443470Y403433D01*
X442569Y403361D01*
X441711Y403235D01*
X440897Y403055D01*
X440125Y402820D01*
X439397Y402531D01*
X438712Y402187D01*
X438070Y401790D01*
X437472Y401338D01*
X436917Y400831D01*
X433381Y404367D01*
X433888Y404922D01*
X434340Y405520D01*
X434737Y406162D01*
X435081Y406847D01*
X435370Y407575D01*
X435605Y408347D01*
X435785Y409161D01*
X435911Y410019D01*
X435983Y410920D01*
X436000Y411865D01*
X438298Y409568D01*
X440500Y411953D01*
X444502Y407950D01*
D02*
G37*
G36*
X42869Y321743D02*
X42362Y321188D01*
X41910Y320590D01*
X41513Y319948D01*
X41169Y319263D01*
X40880Y318535D01*
X40645Y317763D01*
X40465Y316949D01*
X40339Y316091D01*
X40267Y315189D01*
X40250Y314245D01*
X31835Y322660D01*
X32780Y322677D01*
X33681Y322749D01*
X34539Y322875D01*
X35353Y323055D01*
X36125Y323290D01*
X36853Y323579D01*
X37538Y323923D01*
X38180Y324320D01*
X38778Y324772D01*
X39333Y325279D01*
X42869Y321743D01*
D02*
G37*
G36*
X65362Y199372D02*
X65960Y198920D01*
X66602Y198523D01*
X67287Y198179D01*
X68015Y197890D01*
X68787Y197655D01*
X69601Y197475D01*
X70459Y197349D01*
X71361Y197277D01*
X72305Y197260D01*
X63890Y188845D01*
X63873Y189790D01*
X63801Y190691D01*
X63675Y191549D01*
X63495Y192363D01*
X63260Y193135D01*
X62971Y193863D01*
X62627Y194548D01*
X62230Y195190D01*
X61778Y195788D01*
X61271Y196343D01*
X64807Y199879D01*
X65362Y199372D01*
D02*
G37*
G36*
X405654Y235228D02*
X405963Y235162D01*
X406350Y235103D01*
X407361Y235008D01*
X409469Y234926D01*
X411270Y234910D01*
Y229910D01*
X410330Y229906D01*
X405963Y229658D01*
X405654Y229592D01*
X405425Y229517D01*
Y235303D01*
X405654Y235228D01*
D02*
G37*
G36*
X16921Y158044D02*
X17090Y156421D01*
X17237Y155695D01*
X17427Y155025D01*
X17658Y154411D01*
X17932Y153855D01*
X18248Y153355D01*
X18606Y152912D01*
X19007Y152525D01*
X7136Y151685D01*
X7472Y152110D01*
X7771Y152587D01*
X8036Y153117D01*
X8265Y153699D01*
X8459Y154334D01*
X8618Y155022D01*
X8741Y155762D01*
X8829Y156554D01*
X8900Y158298D01*
X16900Y158940D01*
X16921Y158044D01*
D02*
G37*
G36*
X22027Y145414D02*
X22120Y144851D01*
X22280Y144279D01*
X22505Y143695D01*
X22796Y143101D01*
X23152Y142496D01*
X23575Y141880D01*
X24063Y141254D01*
X24618Y140617D01*
X25238Y139969D01*
X19581Y134312D01*
X18933Y134932D01*
X17670Y135975D01*
X17054Y136398D01*
X16449Y136755D01*
X15855Y137045D01*
X15271Y137270D01*
X14699Y137430D01*
X14136Y137523D01*
X13585Y137550D01*
X22000Y145965D01*
X22027Y145414D01*
D02*
G37*
G36*
X246190Y14370D02*
X245780Y14741D01*
X245317Y15072D01*
X244799Y15365D01*
X244228Y15618D01*
X243602Y15833D01*
X242922Y16008D01*
X242187Y16144D01*
X241399Y16242D01*
X240557Y16300D01*
X239660Y16320D01*
Y24320D01*
X240557Y24339D01*
X242187Y24495D01*
X242922Y24632D01*
X243602Y24808D01*
X244228Y25022D01*
X244799Y25275D01*
X245317Y25568D01*
X245780Y25900D01*
X246190Y26270D01*
Y14370D01*
D02*
G37*
G36*
X439067Y423068D02*
X440330Y422025D01*
X440946Y421602D01*
X441551Y421245D01*
X442145Y420955D01*
X442729Y420730D01*
X443301Y420570D01*
X443864Y420477D01*
X444415Y420450D01*
X436000Y412035D01*
X435973Y412586D01*
X435880Y413149D01*
X435720Y413721D01*
X435495Y414305D01*
X435205Y414899D01*
X434848Y415504D01*
X434425Y416120D01*
X433937Y416746D01*
X433382Y417383D01*
X432762Y418031D01*
X438419Y423688D01*
X439067Y423068D01*
D02*
G37*
%LPC*%
G36*
X404650Y250758D02*
X393650D01*
X391488Y250329D01*
X389656Y249104D01*
X388432Y247272D01*
X388002Y245110D01*
X388432Y242948D01*
X389656Y241116D01*
X391488Y239891D01*
X393650Y239461D01*
X404650D01*
X406812Y239891D01*
X408644Y241116D01*
X409869Y242948D01*
X410299Y245110D01*
X409869Y247272D01*
X408644Y249104D01*
X406812Y250329D01*
X404650Y250758D01*
D02*
G37*
G36*
X253530Y106218D02*
Y96520D01*
X263228D01*
X263016Y98132D01*
X261903Y100818D01*
X260134Y103124D01*
X257828Y104893D01*
X255142Y106006D01*
X253530Y106218D01*
D02*
G37*
G36*
X250990D02*
X249378Y106006D01*
X246692Y104893D01*
X244386Y103124D01*
X242617Y100818D01*
X241504Y98132D01*
X241292Y96520D01*
X250990D01*
Y106218D01*
D02*
G37*
G36*
X579590Y257515D02*
X576708Y257136D01*
X574022Y256023D01*
X571716Y254254D01*
X569947Y251948D01*
X568834Y249262D01*
X568455Y246380D01*
X568834Y243498D01*
X569947Y240812D01*
X571716Y238506D01*
X574022Y236737D01*
X576708Y235624D01*
X579590Y235245D01*
X582472Y235624D01*
X585158Y236737D01*
X587464Y238506D01*
X589233Y240812D01*
X590346Y243498D01*
X590725Y246380D01*
X590346Y249262D01*
X589233Y251948D01*
X587464Y254254D01*
X585158Y256023D01*
X582472Y257136D01*
X579590Y257515D01*
D02*
G37*
G36*
X361190Y250650D02*
X339110D01*
Y239570D01*
X361190D01*
Y250650D01*
D02*
G37*
G36*
X455468Y310680D02*
X445770D01*
Y300982D01*
X447382Y301194D01*
X450068Y302307D01*
X452374Y304076D01*
X454143Y306382D01*
X455256Y309068D01*
X455468Y310680D01*
D02*
G37*
G36*
X443230Y322918D02*
X441618Y322706D01*
X438932Y321593D01*
X436626Y319824D01*
X434857Y317518D01*
X433744Y314832D01*
X433532Y313220D01*
X443230D01*
Y322918D01*
D02*
G37*
G36*
X445770D02*
Y313220D01*
X455468D01*
X455256Y314832D01*
X454143Y317518D01*
X452374Y319824D01*
X450068Y321593D01*
X447382Y322706D01*
X445770Y322918D01*
D02*
G37*
G36*
X443230Y310680D02*
X433532D01*
X433744Y309068D01*
X434857Y306382D01*
X436626Y304076D01*
X438932Y302307D01*
X441618Y301194D01*
X443230Y300982D01*
Y310680D01*
D02*
G37*
G36*
X263228Y93980D02*
X253530D01*
Y84282D01*
X255142Y84494D01*
X257828Y85607D01*
X260134Y87376D01*
X261903Y89682D01*
X263016Y92368D01*
X263228Y93980D01*
D02*
G37*
G36*
X250990D02*
X241292D01*
X241504Y92368D01*
X242617Y89682D01*
X244386Y87376D01*
X246692Y85607D01*
X249378Y84494D01*
X250990Y84282D01*
Y93980D01*
D02*
G37*
G36*
X72390Y299895D02*
X69508Y299516D01*
X66822Y298403D01*
X64516Y296634D01*
X62747Y294328D01*
X61634Y291642D01*
X61255Y288760D01*
X61634Y285878D01*
X62747Y283192D01*
X64516Y280886D01*
X66822Y279117D01*
X69508Y278004D01*
X72390Y277625D01*
X75272Y278004D01*
X77958Y279117D01*
X80264Y280886D01*
X82033Y283192D01*
X83146Y285878D01*
X83525Y288760D01*
X83146Y291642D01*
X82033Y294328D01*
X80264Y296634D01*
X77958Y298403D01*
X75272Y299516D01*
X72390Y299895D01*
D02*
G37*
G36*
X479590Y257515D02*
X476708Y257136D01*
X474022Y256023D01*
X471716Y254254D01*
X469947Y251948D01*
X468834Y249262D01*
X468455Y246380D01*
X468496Y246067D01*
X468485Y245477D01*
X468426Y244741D01*
X468326Y244060D01*
X468188Y243435D01*
X468013Y242861D01*
X467805Y242337D01*
X467565Y241857D01*
X467291Y241416D01*
X467083Y241140D01*
X450792Y224849D01*
X408671D01*
X407532Y224893D01*
X406665Y224974D01*
X406433Y225010D01*
X406332Y225032D01*
X406227Y225065D01*
X405967Y225096D01*
X404650Y225359D01*
X393650D01*
X391488Y224929D01*
X391369Y224849D01*
X388620D01*
X386654Y224458D01*
X384986Y223344D01*
X374826Y213184D01*
X373712Y211516D01*
X373321Y209550D01*
Y196439D01*
X367676Y190794D01*
X366562Y189126D01*
X366171Y187160D01*
Y186351D01*
X365742Y186173D01*
X363436Y184404D01*
X361667Y182098D01*
X360554Y179412D01*
X360175Y176530D01*
X360554Y173648D01*
X361667Y170962D01*
X363436Y168656D01*
X363687Y168464D01*
X364096Y168039D01*
X364575Y167477D01*
X364986Y166925D01*
X365330Y166385D01*
X365612Y165856D01*
X365836Y165338D01*
X366005Y164829D01*
X366124Y164324D01*
X366171Y163981D01*
Y148439D01*
X366124Y148097D01*
X366005Y147591D01*
X365836Y147082D01*
X365612Y146564D01*
X365330Y146035D01*
X364986Y145495D01*
X364575Y144943D01*
X364096Y144381D01*
X363687Y143956D01*
X363436Y143764D01*
X361667Y141458D01*
X360554Y138772D01*
X360175Y135890D01*
X360554Y133008D01*
X361667Y130322D01*
X363436Y128016D01*
X365742Y126247D01*
X368428Y125134D01*
X371310Y124755D01*
X374192Y125134D01*
X376878Y126247D01*
X379184Y128016D01*
X380953Y130322D01*
X382066Y133008D01*
X382445Y135890D01*
X382066Y138772D01*
X380953Y141458D01*
X379184Y143764D01*
X378933Y143956D01*
X378524Y144381D01*
X378045Y144943D01*
X377634Y145495D01*
X377290Y146035D01*
X377008Y146564D01*
X376784Y147082D01*
X376615Y147591D01*
X376497Y148096D01*
X376449Y148439D01*
Y163981D01*
X376497Y164324D01*
X376615Y164829D01*
X376784Y165338D01*
X377008Y165856D01*
X377290Y166385D01*
X377634Y166925D01*
X378045Y167477D01*
X378524Y168039D01*
X378933Y168464D01*
X379184Y168656D01*
X380953Y170962D01*
X382066Y173648D01*
X382445Y176530D01*
X382066Y179412D01*
X380953Y182098D01*
X379184Y184404D01*
X378045Y185278D01*
X377962Y186545D01*
X382094Y190676D01*
X383208Y192344D01*
X383599Y194310D01*
Y207421D01*
X390748Y214571D01*
X391369D01*
X391488Y214491D01*
X393650Y214062D01*
X404650D01*
X405968Y214324D01*
X406227Y214354D01*
X406320Y214385D01*
X409609Y214571D01*
X452920D01*
X454887Y214962D01*
X456554Y216076D01*
X474350Y233873D01*
X474626Y234081D01*
X475067Y234355D01*
X475547Y234595D01*
X476071Y234803D01*
X476645Y234978D01*
X477270Y235116D01*
X477951Y235216D01*
X478687Y235275D01*
X479277Y235286D01*
X479590Y235245D01*
X482472Y235624D01*
X485158Y236737D01*
X487464Y238506D01*
X489233Y240812D01*
X490346Y243498D01*
X490725Y246380D01*
X490346Y249262D01*
X489233Y251948D01*
X487464Y254254D01*
X485158Y256023D01*
X482472Y257136D01*
X479590Y257515D01*
D02*
G37*
G36*
X116370Y271485D02*
X113488Y271106D01*
X110802Y269993D01*
X108496Y268224D01*
X106727Y265918D01*
X105614Y263232D01*
X105235Y260350D01*
X105614Y257468D01*
X106727Y254782D01*
X108496Y252476D01*
X108747Y252284D01*
X109156Y251859D01*
X109635Y251297D01*
X110046Y250745D01*
X110390Y250205D01*
X110672Y249676D01*
X110896Y249158D01*
X111065Y248649D01*
X111184Y248144D01*
X111231Y247801D01*
Y217019D01*
X111184Y216677D01*
X111065Y216171D01*
X110896Y215662D01*
X110672Y215144D01*
X110390Y214615D01*
X110046Y214075D01*
X109635Y213523D01*
X109156Y212960D01*
X108747Y212536D01*
X108496Y212344D01*
X106727Y210038D01*
X105614Y207352D01*
X105235Y204470D01*
X105614Y201588D01*
X106727Y198902D01*
X108496Y196596D01*
X110802Y194827D01*
X113488Y193714D01*
X116370Y193335D01*
X119252Y193714D01*
X121938Y194827D01*
X124244Y196596D01*
X126013Y198902D01*
X127126Y201588D01*
X127505Y204470D01*
X127126Y207352D01*
X126013Y210038D01*
X124244Y212344D01*
X123993Y212536D01*
X123584Y212960D01*
X123105Y213523D01*
X122694Y214075D01*
X122350Y214615D01*
X122068Y215144D01*
X121844Y215662D01*
X121675Y216171D01*
X121557Y216676D01*
X121509Y217019D01*
Y247801D01*
X121557Y248144D01*
X121675Y248649D01*
X121844Y249158D01*
X122068Y249676D01*
X122350Y250205D01*
X122694Y250745D01*
X123105Y251297D01*
X123584Y251859D01*
X123993Y252284D01*
X124244Y252476D01*
X126013Y254782D01*
X127126Y257468D01*
X127505Y260350D01*
X127126Y263232D01*
X126013Y265918D01*
X124244Y268224D01*
X121938Y269993D01*
X119252Y271106D01*
X116370Y271485D01*
D02*
G37*
G36*
X327570Y196850D02*
X320040D01*
Y189321D01*
X321091Y189459D01*
X323253Y190355D01*
X325110Y191780D01*
X326535Y193637D01*
X327431Y195799D01*
X327570Y196850D01*
D02*
G37*
G36*
X320040Y203263D02*
Y199390D01*
X323913D01*
X320040Y203263D01*
D02*
G37*
G36*
X317500Y206919D02*
X316449Y206781D01*
X314287Y205885D01*
X312430Y204460D01*
X311005Y202603D01*
X310109Y200441D01*
X309970Y199390D01*
X317500D01*
Y206919D01*
D02*
G37*
G36*
Y196850D02*
X309970D01*
X310109Y195799D01*
X311005Y193637D01*
X312430Y191780D01*
X314287Y190355D01*
X316449Y189459D01*
X317500Y189321D01*
Y196850D01*
D02*
G37*
G36*
X435610Y161628D02*
Y151930D01*
X445308D01*
X445096Y153542D01*
X443983Y156228D01*
X442214Y158534D01*
X439908Y160303D01*
X437222Y161416D01*
X435610Y161628D01*
D02*
G37*
G36*
X433070D02*
X431458Y161416D01*
X428772Y160303D01*
X426466Y158534D01*
X424697Y156228D01*
X423584Y153542D01*
X423372Y151930D01*
X433070D01*
Y161628D01*
D02*
G37*
G36*
X112230Y157018D02*
X110618Y156806D01*
X107932Y155693D01*
X105626Y153924D01*
X103857Y151618D01*
X102744Y148932D01*
X102532Y147320D01*
X112230D01*
Y157018D01*
D02*
G37*
G36*
X114770D02*
Y147320D01*
X124468D01*
X124256Y148932D01*
X123143Y151618D01*
X121374Y153924D01*
X119068Y155693D01*
X116382Y156806D01*
X114770Y157018D01*
D02*
G37*
G36*
X433070Y149390D02*
X423372D01*
X423584Y147778D01*
X424697Y145092D01*
X426466Y142786D01*
X428772Y141017D01*
X431458Y139904D01*
X433070Y139692D01*
Y149390D01*
D02*
G37*
G36*
X445308D02*
X435610D01*
Y139692D01*
X437222Y139904D01*
X439908Y141017D01*
X442214Y142786D01*
X443983Y145092D01*
X445096Y147778D01*
X445308Y149390D01*
D02*
G37*
G36*
X112230Y144780D02*
X102532D01*
X102744Y143168D01*
X103857Y140482D01*
X105626Y138176D01*
X107932Y136407D01*
X110618Y135294D01*
X112230Y135082D01*
Y144780D01*
D02*
G37*
G36*
X124468D02*
X114770D01*
Y135082D01*
X116382Y135294D01*
X119068Y136407D01*
X121374Y138176D01*
X123143Y140482D01*
X124256Y143168D01*
X124468Y144780D01*
D02*
G37*
G36*
X348880Y212659D02*
X344650D01*
X342488Y212229D01*
X340656Y211004D01*
X339687Y209555D01*
X343337Y209762D01*
X343646Y209828D01*
X343875Y209903D01*
Y208280D01*
X348880D01*
Y212659D01*
D02*
G37*
G36*
X404650D02*
X393650D01*
X391488Y212229D01*
X389656Y211004D01*
X388432Y209172D01*
X388002Y207010D01*
X388432Y204848D01*
X389656Y203016D01*
X391488Y201791D01*
X393650Y201362D01*
X404650D01*
X406812Y201791D01*
X408644Y203016D01*
X409869Y204848D01*
X410299Y207010D01*
X409869Y209172D01*
X408644Y211004D01*
X406812Y212229D01*
X404650Y212659D01*
D02*
G37*
G36*
X326636Y202360D02*
X326544Y202249D01*
X326206Y201773D01*
X325913Y201287D01*
X325666Y200793D01*
X325465Y200289D01*
X325310Y199776D01*
X325229Y199390D01*
X327570D01*
X327431Y200441D01*
X326636Y202360D01*
D02*
G37*
G36*
X320040Y206919D02*
Y204579D01*
X320426Y204660D01*
X320939Y204815D01*
X321443Y205016D01*
X321937Y205263D01*
X322423Y205556D01*
X322899Y205894D01*
X323010Y205986D01*
X321091Y206781D01*
X320040Y206919D01*
D02*
G37*
G36*
X348880Y205740D02*
X343875D01*
Y204117D01*
X343646Y204192D01*
X343337Y204258D01*
X342950Y204317D01*
X341939Y204412D01*
X339831Y204494D01*
X339667Y204496D01*
X340656Y203016D01*
X342488Y201791D01*
X344650Y201362D01*
X348880D01*
Y205740D01*
D02*
G37*
G36*
X416080Y406968D02*
X405080D01*
X402918Y406539D01*
X401086Y405314D01*
X399861Y403482D01*
X399431Y401320D01*
X399861Y399158D01*
X401086Y397326D01*
X402918Y396101D01*
X405080Y395672D01*
X416080D01*
X418242Y396101D01*
X420074Y397326D01*
X421298Y399158D01*
X421729Y401320D01*
X421298Y403482D01*
X420074Y405314D01*
X418242Y406539D01*
X416080Y406968D01*
D02*
G37*
G36*
X45720Y50800D02*
X32492D01*
X32824Y48274D01*
X34289Y44737D01*
X36620Y41700D01*
X39657Y39369D01*
X43194Y37904D01*
X45720Y37572D01*
Y50800D01*
D02*
G37*
G36*
X372620Y406860D02*
X350540D01*
Y395780D01*
X372620D01*
Y406860D01*
D02*
G37*
G36*
X564540Y414130D02*
X551270D01*
Y400860D01*
X564540D01*
Y414130D01*
D02*
G37*
G36*
X548730D02*
X535460D01*
Y400860D01*
X548730D01*
Y414130D01*
D02*
G37*
G36*
X367080Y368868D02*
X362850D01*
Y364490D01*
X372476D01*
X372299Y365382D01*
X371074Y367214D01*
X369242Y368439D01*
X367080Y368868D01*
D02*
G37*
G36*
X360310D02*
X356080D01*
X353918Y368439D01*
X352086Y367214D01*
X351117Y365765D01*
X354767Y365972D01*
X355075Y366038D01*
X355305Y366113D01*
Y364490D01*
X360310D01*
Y368868D01*
D02*
G37*
G36*
X250990Y55880D02*
X241292D01*
X241504Y54268D01*
X242617Y51582D01*
X244386Y49276D01*
X246692Y47507D01*
X249378Y46394D01*
X250990Y46182D01*
Y55880D01*
D02*
G37*
G36*
X61488Y50800D02*
X48260D01*
Y37572D01*
X50786Y37904D01*
X54323Y39369D01*
X57360Y41700D01*
X59691Y44737D01*
X61156Y48274D01*
X61488Y50800D01*
D02*
G37*
G36*
X312890Y387055D02*
X310008Y386676D01*
X307322Y385563D01*
X305016Y383794D01*
X303247Y381488D01*
X302134Y378802D01*
X301755Y375920D01*
X302134Y373038D01*
X303247Y370352D01*
X305016Y368046D01*
X307322Y366277D01*
X310008Y365164D01*
X312890Y364785D01*
X315772Y365164D01*
X318458Y366277D01*
X320764Y368046D01*
X320956Y368297D01*
X321381Y368706D01*
X321943Y369185D01*
X322495Y369596D01*
X323035Y369940D01*
X323564Y370222D01*
X324082Y370446D01*
X324591Y370615D01*
X325096Y370733D01*
X325439Y370781D01*
X352059D01*
X353198Y370737D01*
X354064Y370656D01*
X354297Y370620D01*
X354398Y370598D01*
X354503Y370564D01*
X354762Y370533D01*
X356080Y370271D01*
X367080D01*
X369242Y370701D01*
X371074Y371926D01*
X372299Y373758D01*
X372729Y375920D01*
X372299Y378082D01*
X371074Y379914D01*
X369242Y381139D01*
X367080Y381568D01*
X356080D01*
X354762Y381306D01*
X354503Y381275D01*
X354410Y381245D01*
X351121Y381059D01*
X325439D01*
X325097Y381106D01*
X324591Y381225D01*
X324082Y381394D01*
X323564Y381618D01*
X323036Y381900D01*
X322495Y382244D01*
X321943Y382655D01*
X321381Y383134D01*
X320956Y383543D01*
X320764Y383794D01*
X318458Y385563D01*
X315772Y386676D01*
X312890Y387055D01*
D02*
G37*
G36*
X564540Y429940D02*
X551270D01*
Y416670D01*
X564540D01*
Y429940D01*
D02*
G37*
G36*
X548730D02*
X535460D01*
Y416670D01*
X548730D01*
Y429940D01*
D02*
G37*
G36*
X48730Y429898D02*
X46204Y429566D01*
X42667Y428101D01*
X39630Y425770D01*
X37299Y422733D01*
X35834Y419196D01*
X35502Y416670D01*
X48730D01*
Y429898D01*
D02*
G37*
G36*
X173990Y430705D02*
X171108Y430326D01*
X168422Y429213D01*
X166116Y427444D01*
X165924Y427193D01*
X165499Y426784D01*
X164937Y426305D01*
X164385Y425894D01*
X163845Y425550D01*
X163316Y425268D01*
X162798Y425044D01*
X162289Y424875D01*
X161784Y424757D01*
X161441Y424709D01*
X138279D01*
X137936Y424757D01*
X137431Y424875D01*
X136922Y425044D01*
X136404Y425268D01*
X135876Y425550D01*
X135335Y425894D01*
X134783Y426305D01*
X134221Y426784D01*
X133796Y427193D01*
X133604Y427444D01*
X131298Y429213D01*
X128612Y430326D01*
X125730Y430705D01*
X122848Y430326D01*
X120162Y429213D01*
X117856Y427444D01*
X116087Y425138D01*
X114974Y422452D01*
X114595Y419570D01*
X114974Y416688D01*
X116087Y414002D01*
X117856Y411696D01*
X120162Y409927D01*
X122848Y408814D01*
X125730Y408435D01*
X128612Y408814D01*
X131298Y409927D01*
X133604Y411696D01*
X133796Y411947D01*
X134221Y412356D01*
X134783Y412835D01*
X135335Y413246D01*
X135875Y413590D01*
X136404Y413872D01*
X136922Y414096D01*
X137431Y414265D01*
X137936Y414384D01*
X138279Y414431D01*
X161441D01*
X161784Y414384D01*
X162289Y414265D01*
X162798Y414096D01*
X163316Y413872D01*
X163845Y413590D01*
X164385Y413246D01*
X164937Y412835D01*
X165499Y412356D01*
X165924Y411947D01*
X166116Y411696D01*
X168422Y409927D01*
X171108Y408814D01*
X173990Y408435D01*
X174303Y408476D01*
X174893Y408465D01*
X175629Y408406D01*
X176310Y408306D01*
X176935Y408168D01*
X177509Y407993D01*
X178033Y407785D01*
X178513Y407545D01*
X178954Y407271D01*
X179230Y407063D01*
X193686Y392606D01*
X195354Y391492D01*
X197320Y391101D01*
X321721D01*
X327836Y384986D01*
X329504Y383872D01*
X331470Y383481D01*
X352059D01*
X353198Y383437D01*
X354064Y383356D01*
X354297Y383320D01*
X354398Y383298D01*
X354503Y383265D01*
X354762Y383233D01*
X356080Y382971D01*
X367080D01*
X368398Y383233D01*
X368657Y383265D01*
X368750Y383295D01*
X372039Y383481D01*
X373792D01*
X377131Y380141D01*
Y251049D01*
X365712Y239629D01*
X365248Y239258D01*
X364638Y238843D01*
X364011Y238488D01*
X363366Y238188D01*
X362699Y237944D01*
X362005Y237753D01*
X361280Y237614D01*
X360689Y237549D01*
X359671D01*
X358532Y237593D01*
X357665Y237674D01*
X357433Y237710D01*
X357332Y237732D01*
X357227Y237766D01*
X356968Y237796D01*
X355650Y238058D01*
X344650D01*
X342488Y237629D01*
X340656Y236404D01*
X339431Y234572D01*
X339002Y232410D01*
X339431Y230248D01*
X340656Y228416D01*
X342488Y227191D01*
X344650Y226761D01*
X355650D01*
X356968Y227024D01*
X357227Y227055D01*
X357320Y227085D01*
X359374Y227201D01*
X359422Y227193D01*
X359779Y227074D01*
X360013Y226948D01*
X360170Y226820D01*
X360298Y226663D01*
X360424Y226429D01*
X360543Y226072D01*
X360621Y225627D01*
Y224354D01*
X359351Y223900D01*
X357812Y224929D01*
X355650Y225359D01*
X344650D01*
X343332Y225096D01*
X343073Y225065D01*
X342980Y225035D01*
X339691Y224849D01*
X333599D01*
X305659Y252789D01*
Y275741D01*
X305707Y276084D01*
X305825Y276589D01*
X305994Y277098D01*
X306218Y277616D01*
X306500Y278144D01*
X306844Y278685D01*
X307255Y279237D01*
X307734Y279799D01*
X308143Y280224D01*
X308394Y280416D01*
X310163Y282722D01*
X311276Y285408D01*
X311655Y288290D01*
X311276Y291172D01*
X310163Y293858D01*
X308394Y296164D01*
X308143Y296356D01*
X307734Y296780D01*
X307255Y297343D01*
X306844Y297895D01*
X306500Y298435D01*
X306218Y298964D01*
X305994Y299482D01*
X305825Y299991D01*
X305707Y300496D01*
X305659Y300839D01*
Y316381D01*
X305707Y316723D01*
X305825Y317229D01*
X305994Y317738D01*
X306218Y318256D01*
X306500Y318785D01*
X306844Y319325D01*
X307255Y319877D01*
X307734Y320439D01*
X308143Y320864D01*
X308394Y321056D01*
X310163Y323362D01*
X311276Y326048D01*
X311655Y328930D01*
X311276Y331812D01*
X310163Y334498D01*
X308394Y336804D01*
X306088Y338573D01*
X303402Y339686D01*
X300520Y340065D01*
X297638Y339686D01*
X294952Y338573D01*
X292646Y336804D01*
X290877Y334498D01*
X289764Y331812D01*
X289385Y328930D01*
X289764Y326048D01*
X290877Y323362D01*
X292646Y321056D01*
X292897Y320864D01*
X293306Y320439D01*
X293785Y319877D01*
X294196Y319325D01*
X294540Y318785D01*
X294822Y318256D01*
X295046Y317738D01*
X295215Y317229D01*
X295333Y316724D01*
X295381Y316381D01*
Y300839D01*
X295333Y300497D01*
X295215Y299991D01*
X295046Y299482D01*
X294822Y298964D01*
X294540Y298435D01*
X294196Y297895D01*
X293785Y297343D01*
X293306Y296780D01*
X292897Y296356D01*
X292646Y296164D01*
X290877Y293858D01*
X289764Y291172D01*
X289385Y288290D01*
X289764Y285408D01*
X290877Y282722D01*
X292646Y280416D01*
X292897Y280224D01*
X293306Y279799D01*
X293785Y279237D01*
X294196Y278685D01*
X294540Y278145D01*
X294822Y277616D01*
X295046Y277098D01*
X295215Y276589D01*
X295333Y276084D01*
X295381Y275741D01*
Y250660D01*
X295772Y248694D01*
X296886Y247026D01*
X327836Y216076D01*
X329504Y214962D01*
X331470Y214571D01*
X340629D01*
X341768Y214527D01*
X342635Y214446D01*
X342867Y214410D01*
X342968Y214388D01*
X343073Y214354D01*
X343332Y214324D01*
X344650Y214062D01*
X355650D01*
X357812Y214491D01*
X359351Y215520D01*
X360621Y215066D01*
Y211654D01*
X359351Y211200D01*
X357812Y212229D01*
X355650Y212659D01*
X351420D01*
Y207010D01*
Y201362D01*
X355650D01*
X357812Y201791D01*
X358843Y202481D01*
X360167Y201929D01*
X360277Y201175D01*
X340771Y181669D01*
X283859D01*
X283517Y181716D01*
X283011Y181835D01*
X282502Y182004D01*
X281984Y182228D01*
X281455Y182510D01*
X280915Y182854D01*
X280363Y183265D01*
X279800Y183744D01*
X279376Y184153D01*
X279184Y184404D01*
X276878Y186173D01*
X274192Y187286D01*
X271310Y187665D01*
X268428Y187286D01*
X265742Y186173D01*
X263436Y184404D01*
X261667Y182098D01*
X260554Y179412D01*
X260175Y176530D01*
X260554Y173648D01*
X261667Y170962D01*
X263436Y168656D01*
X263687Y168464D01*
X264096Y168039D01*
X264575Y167477D01*
X264986Y166925D01*
X265330Y166385D01*
X265612Y165856D01*
X265836Y165338D01*
X266005Y164829D01*
X266124Y164324D01*
X266171Y163981D01*
Y148439D01*
X266124Y148097D01*
X266005Y147591D01*
X265836Y147082D01*
X265612Y146564D01*
X265330Y146035D01*
X264986Y145495D01*
X264575Y144943D01*
X264096Y144381D01*
X263687Y143956D01*
X263436Y143764D01*
X261667Y141458D01*
X260554Y138772D01*
X260175Y135890D01*
X260554Y133008D01*
X261667Y130322D01*
X263436Y128016D01*
X265742Y126247D01*
X268428Y125134D01*
X271310Y124755D01*
X274192Y125134D01*
X276878Y126247D01*
X279184Y128016D01*
X280953Y130322D01*
X282066Y133008D01*
X282445Y135890D01*
X282066Y138772D01*
X280953Y141458D01*
X279184Y143764D01*
X278933Y143956D01*
X278524Y144381D01*
X278045Y144943D01*
X277634Y145495D01*
X277290Y146035D01*
X277008Y146564D01*
X276784Y147082D01*
X276615Y147591D01*
X276497Y148096D01*
X276449Y148439D01*
Y163981D01*
X276497Y164324D01*
X276615Y164829D01*
X276784Y165338D01*
X277008Y165856D01*
X277290Y166385D01*
X277634Y166925D01*
X278045Y167477D01*
X278524Y168039D01*
X278933Y168464D01*
X279184Y168656D01*
X279376Y168907D01*
X279800Y169316D01*
X280363Y169795D01*
X280915Y170206D01*
X281455Y170550D01*
X281984Y170832D01*
X282502Y171056D01*
X283011Y171225D01*
X283516Y171343D01*
X283859Y171391D01*
X342900D01*
X344866Y171782D01*
X346534Y172896D01*
X369394Y195756D01*
X370508Y197423D01*
X370899Y199390D01*
Y227339D01*
X370964Y227930D01*
X371103Y228655D01*
X371294Y229349D01*
X371538Y230016D01*
X371838Y230661D01*
X372193Y231288D01*
X372608Y231898D01*
X372979Y232362D01*
X385904Y245286D01*
X387018Y246954D01*
X387409Y248920D01*
Y382270D01*
X387018Y384236D01*
X385904Y385904D01*
X379554Y392254D01*
X377887Y393368D01*
X375920Y393759D01*
X371101D01*
X369962Y393803D01*
X369095Y393884D01*
X368863Y393920D01*
X368762Y393942D01*
X368657Y393975D01*
X368397Y394007D01*
X367080Y394268D01*
X356080D01*
X354762Y394007D01*
X354503Y393975D01*
X354410Y393945D01*
X351121Y393759D01*
X333599D01*
X327484Y399874D01*
X325816Y400988D01*
X323850Y401379D01*
X199449D01*
X186497Y414330D01*
X186289Y414606D01*
X186015Y415047D01*
X185775Y415527D01*
X185567Y416051D01*
X185392Y416625D01*
X185254Y417250D01*
X185154Y417931D01*
X185095Y418667D01*
X185084Y419257D01*
X185125Y419570D01*
X184746Y422452D01*
X183633Y425138D01*
X181864Y427444D01*
X179558Y429213D01*
X176872Y430326D01*
X173990Y430705D01*
D02*
G37*
G36*
X51270Y429898D02*
Y416670D01*
X64498D01*
X64166Y419196D01*
X62701Y422733D01*
X60370Y425770D01*
X57333Y428101D01*
X53796Y429566D01*
X51270Y429898D01*
D02*
G37*
G36*
X48730Y414130D02*
X35502D01*
X35834Y411604D01*
X37299Y408067D01*
X39630Y405030D01*
X42667Y402699D01*
X46204Y401234D01*
X48730Y400902D01*
Y414130D01*
D02*
G37*
G36*
X64498D02*
X51270D01*
Y400902D01*
X53796Y401234D01*
X57333Y402699D01*
X60370Y405030D01*
X62701Y408067D01*
X64166Y411604D01*
X64498Y414130D01*
D02*
G37*
G36*
X212890Y428965D02*
X210008Y428586D01*
X207322Y427473D01*
X205016Y425704D01*
X203247Y423398D01*
X202134Y420712D01*
X201755Y417830D01*
X202134Y414948D01*
X203247Y412262D01*
X205016Y409956D01*
X207322Y408187D01*
X210008Y407074D01*
X212890Y406695D01*
X215772Y407074D01*
X218458Y408187D01*
X220764Y409956D01*
X222533Y412262D01*
X223646Y414948D01*
X224025Y417830D01*
X223646Y420712D01*
X222533Y423398D01*
X220764Y425704D01*
X218458Y427473D01*
X215772Y428586D01*
X212890Y428965D01*
D02*
G37*
G36*
Y387055D02*
X210008Y386676D01*
X207322Y385563D01*
X205016Y383794D01*
X203247Y381488D01*
X202134Y378802D01*
X201755Y375920D01*
X202134Y373038D01*
X203247Y370352D01*
X205016Y368046D01*
X205267Y367854D01*
X205676Y367430D01*
X206155Y366867D01*
X206566Y366315D01*
X206910Y365775D01*
X207192Y365246D01*
X207416Y364728D01*
X207585Y364219D01*
X207703Y363714D01*
X207751Y363371D01*
Y338290D01*
X208142Y336324D01*
X209256Y334656D01*
X211231Y332682D01*
Y272899D01*
X211183Y272556D01*
X211065Y272051D01*
X210896Y271542D01*
X210672Y271024D01*
X210390Y270495D01*
X210046Y269955D01*
X209635Y269403D01*
X209156Y268841D01*
X208747Y268416D01*
X208496Y268224D01*
X206727Y265918D01*
X205614Y263232D01*
X205235Y260350D01*
X205614Y257468D01*
X206727Y254782D01*
X208496Y252476D01*
X208747Y252284D01*
X209156Y251859D01*
X209635Y251297D01*
X210046Y250745D01*
X210390Y250205D01*
X210672Y249676D01*
X210896Y249158D01*
X211065Y248649D01*
X211183Y248144D01*
X211231Y247801D01*
Y217019D01*
X211183Y216677D01*
X211065Y216171D01*
X210896Y215662D01*
X210672Y215144D01*
X210390Y214615D01*
X210046Y214075D01*
X209635Y213523D01*
X209156Y212960D01*
X208747Y212536D01*
X208496Y212344D01*
X206727Y210038D01*
X205614Y207352D01*
X205235Y204470D01*
X205614Y201588D01*
X206727Y198902D01*
X208496Y196596D01*
X208747Y196404D01*
X209156Y195979D01*
X209635Y195417D01*
X210046Y194865D01*
X210390Y194325D01*
X210672Y193796D01*
X210896Y193278D01*
X211065Y192769D01*
X211183Y192264D01*
X211231Y191921D01*
Y160820D01*
X211622Y158854D01*
X212736Y157186D01*
X278306Y91616D01*
X279974Y90502D01*
X281940Y90111D01*
X339711D01*
X340053Y90063D01*
X340559Y89945D01*
X341068Y89776D01*
X341586Y89552D01*
X342114Y89270D01*
X342655Y88926D01*
X343207Y88515D01*
X343769Y88036D01*
X344194Y87627D01*
X344386Y87376D01*
X344637Y87184D01*
X345046Y86760D01*
X345525Y86197D01*
X345936Y85645D01*
X346280Y85105D01*
X346562Y84576D01*
X346786Y84058D01*
X346955Y83549D01*
X347074Y83044D01*
X347121Y82701D01*
Y69699D01*
X347074Y69356D01*
X346955Y68851D01*
X346786Y68342D01*
X346562Y67824D01*
X346280Y67295D01*
X345936Y66755D01*
X345525Y66203D01*
X345046Y65641D01*
X344637Y65216D01*
X344386Y65024D01*
X342617Y62718D01*
X341504Y60032D01*
X341125Y57150D01*
X341504Y54268D01*
X342617Y51582D01*
X344386Y49276D01*
X344637Y49084D01*
X345046Y48660D01*
X345525Y48097D01*
X345936Y47545D01*
X346280Y47005D01*
X346562Y46476D01*
X346786Y45958D01*
X346955Y45449D01*
X347074Y44944D01*
X347121Y44601D01*
Y32869D01*
X347074Y32527D01*
X346955Y32021D01*
X346786Y31512D01*
X346562Y30994D01*
X346280Y30466D01*
X345936Y29925D01*
X345525Y29373D01*
X345046Y28811D01*
X344637Y28386D01*
X344386Y28194D01*
X342617Y25888D01*
X341504Y23202D01*
X341125Y20320D01*
X341504Y17438D01*
X342617Y14752D01*
X344386Y12446D01*
X346692Y10677D01*
X349378Y9564D01*
X352260Y9185D01*
X355142Y9564D01*
X357828Y10677D01*
X360134Y12446D01*
X361903Y14752D01*
X363016Y17438D01*
X363395Y20320D01*
X363016Y23202D01*
X361903Y25888D01*
X360134Y28194D01*
X359883Y28386D01*
X359474Y28811D01*
X358995Y29373D01*
X358584Y29925D01*
X358240Y30465D01*
X357958Y30994D01*
X357734Y31512D01*
X357565Y32021D01*
X357447Y32526D01*
X357399Y32869D01*
Y44601D01*
X357447Y44943D01*
X357565Y45449D01*
X357734Y45958D01*
X357958Y46476D01*
X358240Y47004D01*
X358584Y47545D01*
X358995Y48097D01*
X359474Y48660D01*
X359883Y49084D01*
X360134Y49276D01*
X361903Y51582D01*
X363016Y54268D01*
X363395Y57150D01*
X363016Y60032D01*
X361903Y62718D01*
X360134Y65024D01*
X359883Y65216D01*
X359474Y65641D01*
X358995Y66203D01*
X358584Y66755D01*
X358240Y67295D01*
X357958Y67824D01*
X357734Y68342D01*
X357565Y68851D01*
X357447Y69356D01*
X357399Y69699D01*
Y82701D01*
X357447Y83043D01*
X357565Y83549D01*
X357734Y84058D01*
X357958Y84576D01*
X358240Y85105D01*
X358584Y85645D01*
X358995Y86197D01*
X359474Y86760D01*
X359883Y87184D01*
X360134Y87376D01*
X361903Y89682D01*
X363016Y92368D01*
X363395Y95250D01*
X363016Y98132D01*
X361903Y100818D01*
X360134Y103124D01*
X357828Y104893D01*
X355142Y106006D01*
X352260Y106385D01*
X349378Y106006D01*
X346692Y104893D01*
X344386Y103124D01*
X344194Y102873D01*
X343769Y102464D01*
X343207Y101985D01*
X342655Y101574D01*
X342115Y101230D01*
X341586Y100948D01*
X341068Y100724D01*
X340559Y100555D01*
X340054Y100436D01*
X339711Y100389D01*
X284069D01*
X221509Y162948D01*
Y191921D01*
X221556Y192264D01*
X221675Y192769D01*
X221844Y193278D01*
X222068Y193796D01*
X222350Y194324D01*
X222694Y194865D01*
X223105Y195417D01*
X223584Y195979D01*
X223993Y196404D01*
X224244Y196596D01*
X226013Y198902D01*
X227126Y201588D01*
X227505Y204470D01*
X227126Y207352D01*
X226013Y210038D01*
X224244Y212344D01*
X223993Y212536D01*
X223584Y212960D01*
X223105Y213523D01*
X222694Y214075D01*
X222350Y214615D01*
X222068Y215144D01*
X221844Y215662D01*
X221675Y216171D01*
X221556Y216676D01*
X221509Y217019D01*
Y247801D01*
X221556Y248144D01*
X221675Y248649D01*
X221844Y249158D01*
X222068Y249676D01*
X222350Y250205D01*
X222694Y250745D01*
X223105Y251297D01*
X223584Y251859D01*
X223993Y252284D01*
X224244Y252476D01*
X226013Y254782D01*
X227126Y257468D01*
X227505Y260350D01*
X227126Y263232D01*
X226013Y265918D01*
X224244Y268224D01*
X223993Y268416D01*
X223584Y268841D01*
X223105Y269403D01*
X222694Y269955D01*
X222350Y270495D01*
X222068Y271024D01*
X221844Y271542D01*
X221675Y272051D01*
X221556Y272556D01*
X221509Y272899D01*
Y334810D01*
X221118Y336777D01*
X220004Y338444D01*
X218029Y340419D01*
Y363371D01*
X218076Y363713D01*
X218195Y364219D01*
X218364Y364728D01*
X218588Y365246D01*
X218870Y365774D01*
X219214Y366315D01*
X219625Y366867D01*
X220104Y367430D01*
X220513Y367854D01*
X220764Y368046D01*
X222533Y370352D01*
X223646Y373038D01*
X224025Y375920D01*
X223646Y378802D01*
X222533Y381488D01*
X220764Y383794D01*
X218458Y385563D01*
X215772Y386676D01*
X212890Y387055D01*
D02*
G37*
G36*
X312890Y428965D02*
X310008Y428586D01*
X307322Y427473D01*
X305016Y425704D01*
X303247Y423398D01*
X302134Y420712D01*
X301755Y417830D01*
X302134Y414948D01*
X303247Y412262D01*
X305016Y409956D01*
X307322Y408187D01*
X310008Y407074D01*
X312890Y406695D01*
X315772Y407074D01*
X318458Y408187D01*
X320764Y409956D01*
X322533Y412262D01*
X323646Y414948D01*
X324025Y417830D01*
X323646Y420712D01*
X322533Y423398D01*
X320764Y425704D01*
X318458Y427473D01*
X315772Y428586D01*
X312890Y428965D01*
D02*
G37*
G36*
X334010Y349250D02*
X326480D01*
X326619Y348199D01*
X327515Y346037D01*
X328940Y344180D01*
X330797Y342755D01*
X332959Y341859D01*
X334010Y341721D01*
Y349250D01*
D02*
G37*
G36*
X416080Y381568D02*
X405080D01*
X402918Y381139D01*
X401086Y379914D01*
X399861Y378082D01*
X399431Y375920D01*
X399861Y373758D01*
X401086Y371926D01*
X402918Y370701D01*
X405080Y370271D01*
X416080D01*
X417398Y370533D01*
X417657Y370564D01*
X417750Y370595D01*
X421039Y370781D01*
X422052D01*
X427931Y364902D01*
Y343759D01*
X418242Y334069D01*
X413069D01*
X412727Y334117D01*
X412221Y334235D01*
X411712Y334404D01*
X411194Y334628D01*
X410666Y334910D01*
X410125Y335254D01*
X409573Y335665D01*
X409011Y336144D01*
X408586Y336553D01*
X408394Y336804D01*
X406088Y338573D01*
X403402Y339686D01*
X400520Y340065D01*
X397638Y339686D01*
X394952Y338573D01*
X392646Y336804D01*
X390877Y334498D01*
X389764Y331812D01*
X389385Y328930D01*
X389764Y326048D01*
X390877Y323362D01*
X392646Y321056D01*
X392897Y320864D01*
X393306Y320439D01*
X393785Y319877D01*
X394196Y319325D01*
X394540Y318785D01*
X394822Y318256D01*
X395046Y317738D01*
X395215Y317229D01*
X395334Y316724D01*
X395381Y316381D01*
Y300839D01*
X395334Y300497D01*
X395215Y299991D01*
X395046Y299482D01*
X394822Y298964D01*
X394540Y298435D01*
X394196Y297895D01*
X393785Y297343D01*
X393306Y296780D01*
X392897Y296356D01*
X392646Y296164D01*
X390877Y293858D01*
X389764Y291172D01*
X389385Y288290D01*
X389764Y285408D01*
X390877Y282722D01*
X392646Y280416D01*
X394952Y278647D01*
X397638Y277534D01*
X400520Y277155D01*
X403402Y277534D01*
X406088Y278647D01*
X408394Y280416D01*
X410163Y282722D01*
X411276Y285408D01*
X411655Y288290D01*
X411276Y291172D01*
X410163Y293858D01*
X408394Y296164D01*
X408143Y296356D01*
X407734Y296780D01*
X407255Y297343D01*
X406844Y297895D01*
X406500Y298435D01*
X406218Y298964D01*
X405994Y299482D01*
X405825Y299991D01*
X405706Y300496D01*
X405659Y300839D01*
Y316381D01*
X405706Y316723D01*
X405825Y317229D01*
X405994Y317738D01*
X406218Y318256D01*
X406500Y318785D01*
X406844Y319325D01*
X407255Y319877D01*
X407734Y320439D01*
X408143Y320864D01*
X408394Y321056D01*
X408586Y321307D01*
X409011Y321716D01*
X409573Y322195D01*
X410125Y322606D01*
X410665Y322950D01*
X411194Y323232D01*
X411712Y323456D01*
X412221Y323625D01*
X412726Y323744D01*
X413069Y323791D01*
X420370D01*
X422337Y324182D01*
X424004Y325296D01*
X436704Y337996D01*
X437818Y339664D01*
X438209Y341630D01*
Y367030D01*
X437818Y368997D01*
X436704Y370664D01*
X427814Y379554D01*
X426147Y380668D01*
X424180Y381059D01*
X420101D01*
X418962Y381103D01*
X418096Y381184D01*
X417863Y381220D01*
X417762Y381242D01*
X417657Y381275D01*
X417397Y381306D01*
X416080Y381568D01*
D02*
G37*
G36*
X550000Y379266D02*
X546204Y378766D01*
X542667Y377301D01*
X539630Y374970D01*
X537299Y371933D01*
X535834Y368396D01*
X535335Y364600D01*
X535834Y360804D01*
X537299Y357267D01*
X539630Y354230D01*
X542667Y351899D01*
X546204Y350434D01*
X550000Y349935D01*
X553796Y350434D01*
X557333Y351899D01*
X560370Y354230D01*
X562701Y357267D01*
X564166Y360804D01*
X564665Y364600D01*
X564166Y368396D01*
X562701Y371933D01*
X560370Y374970D01*
X557333Y377301D01*
X553796Y378766D01*
X550000Y379266D01*
D02*
G37*
G36*
X344080Y349250D02*
X336550D01*
Y341721D01*
X337601Y341859D01*
X339763Y342755D01*
X341620Y344180D01*
X343045Y346037D01*
X343941Y348199D01*
X344080Y349250D01*
D02*
G37*
G36*
X173990Y330705D02*
X171108Y330326D01*
X168422Y329213D01*
X166116Y327444D01*
X165924Y327193D01*
X165499Y326784D01*
X164937Y326305D01*
X164385Y325894D01*
X163845Y325550D01*
X163316Y325268D01*
X162798Y325044D01*
X162289Y324875D01*
X161784Y324757D01*
X161441Y324709D01*
X138279D01*
X137936Y324757D01*
X137431Y324875D01*
X136922Y325044D01*
X136404Y325268D01*
X135876Y325550D01*
X135335Y325894D01*
X134783Y326305D01*
X134221Y326784D01*
X133796Y327193D01*
X133604Y327444D01*
X131298Y329213D01*
X128612Y330326D01*
X125730Y330705D01*
X122848Y330326D01*
X120162Y329213D01*
X117856Y327444D01*
X116087Y325138D01*
X114974Y322452D01*
X114595Y319570D01*
X114974Y316688D01*
X116087Y314002D01*
X117856Y311696D01*
X120162Y309927D01*
X122848Y308814D01*
X125730Y308435D01*
X128612Y308814D01*
X131298Y309927D01*
X133604Y311696D01*
X133796Y311947D01*
X134221Y312356D01*
X134783Y312835D01*
X135335Y313246D01*
X135875Y313590D01*
X136404Y313872D01*
X136922Y314096D01*
X137431Y314265D01*
X137936Y314384D01*
X138279Y314431D01*
X161441D01*
X161784Y314384D01*
X162289Y314265D01*
X162798Y314096D01*
X163316Y313872D01*
X163845Y313590D01*
X164385Y313246D01*
X164937Y312835D01*
X165499Y312356D01*
X165924Y311947D01*
X166116Y311696D01*
X168422Y309927D01*
X171108Y308814D01*
X173990Y308435D01*
X176872Y308814D01*
X179558Y309927D01*
X181864Y311696D01*
X183633Y314002D01*
X184746Y316688D01*
X185125Y319570D01*
X184746Y322452D01*
X183633Y325138D01*
X181864Y327444D01*
X179558Y329213D01*
X176872Y330326D01*
X173990Y330705D01*
D02*
G37*
G36*
X250990Y68118D02*
X249378Y67906D01*
X246692Y66793D01*
X244386Y65024D01*
X242617Y62718D01*
X241504Y60032D01*
X241292Y58420D01*
X250990D01*
Y68118D01*
D02*
G37*
G36*
X253530D02*
Y58420D01*
X263228D01*
X263016Y60032D01*
X261903Y62718D01*
X260134Y65024D01*
X257828Y66793D01*
X255142Y67906D01*
X253530Y68118D01*
D02*
G37*
G36*
X45720Y66568D02*
X43194Y66236D01*
X39657Y64771D01*
X36620Y62440D01*
X34289Y59403D01*
X32824Y55866D01*
X32492Y53340D01*
X45720D01*
Y66568D01*
D02*
G37*
G36*
X48260D02*
Y53340D01*
X61488D01*
X61156Y55866D01*
X59691Y59403D01*
X57360Y62440D01*
X54323Y64771D01*
X50786Y66236D01*
X48260Y66568D01*
D02*
G37*
G36*
X334010Y359319D02*
X332959Y359181D01*
X330797Y358285D01*
X328940Y356860D01*
X327515Y355003D01*
X326619Y352841D01*
X326480Y351790D01*
X334010D01*
Y359319D01*
D02*
G37*
G36*
X360310Y361950D02*
X355305D01*
Y360327D01*
X355075Y360402D01*
X354767Y360468D01*
X354380Y360527D01*
X353369Y360622D01*
X351260Y360704D01*
X351097Y360706D01*
X352086Y359226D01*
X353918Y358001D01*
X356080Y357571D01*
X360310D01*
Y361950D01*
D02*
G37*
G36*
X263228Y55880D02*
X253530D01*
Y46182D01*
X255142Y46394D01*
X257828Y47507D01*
X260134Y49276D01*
X261903Y51582D01*
X263016Y54268D01*
X263228Y55880D01*
D02*
G37*
G36*
X372476Y361950D02*
X362850D01*
Y357571D01*
X367080D01*
X369242Y358001D01*
X371074Y359226D01*
X372299Y361058D01*
X372476Y361950D01*
D02*
G37*
G36*
X416080Y368868D02*
X405080D01*
X402918Y368439D01*
X401086Y367214D01*
X399861Y365382D01*
X399431Y363220D01*
X399861Y361058D01*
X401086Y359226D01*
X402918Y358001D01*
X405080Y357571D01*
X416080D01*
X418242Y358001D01*
X420074Y359226D01*
X421298Y361058D01*
X421729Y363220D01*
X421298Y365382D01*
X420074Y367214D01*
X418242Y368439D01*
X416080Y368868D01*
D02*
G37*
G36*
X336550Y355663D02*
Y351790D01*
X340423D01*
X336550Y355663D01*
D02*
G37*
G36*
X343146Y354760D02*
X343054Y354649D01*
X342716Y354173D01*
X342423Y353687D01*
X342176Y353193D01*
X341975Y352689D01*
X341820Y352177D01*
X341739Y351790D01*
X344080D01*
X343941Y352841D01*
X343146Y354760D01*
D02*
G37*
G36*
X336550Y359319D02*
Y356979D01*
X336936Y357060D01*
X337449Y357215D01*
X337953Y357416D01*
X338447Y357663D01*
X338933Y357956D01*
X339409Y358294D01*
X339520Y358386D01*
X337601Y359181D01*
X336550Y359319D01*
D02*
G37*
%LPD*%
G36*
X373844Y148364D02*
X373948Y147621D01*
X374120Y146886D01*
X374362Y146159D01*
X374673Y145440D01*
X375052Y144728D01*
X375500Y144024D01*
X376018Y143329D01*
X376604Y142640D01*
X377260Y141960D01*
X365360D01*
X366016Y142640D01*
X366602Y143329D01*
X367119Y144024D01*
X367568Y144728D01*
X367948Y145440D01*
X368258Y146159D01*
X368499Y146886D01*
X368672Y147621D01*
X368775Y148364D01*
X368810Y149114D01*
X373810D01*
X373844Y148364D01*
D02*
G37*
G36*
X376604Y169779D02*
X376018Y169091D01*
X375500Y168396D01*
X375052Y167692D01*
X374673Y166980D01*
X374362Y166261D01*
X374120Y165534D01*
X373948Y164799D01*
X373844Y164056D01*
X373810Y163306D01*
X368810D01*
X368775Y164056D01*
X368672Y164799D01*
X368499Y165534D01*
X368258Y166261D01*
X367948Y166980D01*
X367568Y167692D01*
X367119Y168396D01*
X366602Y169091D01*
X366016Y169779D01*
X365360Y170460D01*
X377260D01*
X376604Y169779D01*
D02*
G37*
G36*
X405654Y222528D02*
X405963Y222462D01*
X406350Y222403D01*
X407361Y222308D01*
X409469Y222226D01*
X411270Y222210D01*
Y217210D01*
X410330Y217206D01*
X405963Y216958D01*
X405654Y216892D01*
X405425Y216817D01*
Y222603D01*
X405654Y222528D01*
D02*
G37*
G36*
X479505Y237880D02*
X478560Y237863D01*
X477659Y237791D01*
X476801Y237665D01*
X475987Y237485D01*
X475215Y237250D01*
X474487Y236961D01*
X473802Y236617D01*
X473160Y236220D01*
X472562Y235768D01*
X472007Y235261D01*
X468471Y238797D01*
X468978Y239352D01*
X469430Y239950D01*
X469827Y240592D01*
X470171Y241277D01*
X470460Y242005D01*
X470695Y242777D01*
X470875Y243591D01*
X471001Y244449D01*
X471073Y245350D01*
X471090Y246295D01*
X479505Y237880D01*
D02*
G37*
G36*
X118904Y216943D02*
X119008Y216201D01*
X119180Y215466D01*
X119422Y214739D01*
X119733Y214020D01*
X120112Y213308D01*
X120561Y212604D01*
X121078Y211908D01*
X121664Y211220D01*
X122320Y210540D01*
X110420D01*
X111075Y211220D01*
X111662Y211908D01*
X112179Y212604D01*
X112628Y213308D01*
X113007Y214020D01*
X113318Y214739D01*
X113560Y215466D01*
X113732Y216201D01*
X113835Y216943D01*
X113870Y217694D01*
X118870D01*
X118904Y216943D01*
D02*
G37*
G36*
X121664Y253599D02*
X121078Y252911D01*
X120561Y252216D01*
X120112Y251512D01*
X119733Y250800D01*
X119422Y250081D01*
X119180Y249354D01*
X119008Y248619D01*
X118904Y247876D01*
X118870Y247126D01*
X113870D01*
X113835Y247876D01*
X113732Y248619D01*
X113560Y249354D01*
X113318Y250081D01*
X113007Y250800D01*
X112628Y251512D01*
X112179Y252216D01*
X111662Y252911D01*
X111075Y253599D01*
X110420Y254280D01*
X122320D01*
X121664Y253599D01*
D02*
G37*
G36*
X319641Y381214D02*
X320328Y380628D01*
X321024Y380111D01*
X321728Y379662D01*
X322439Y379282D01*
X323159Y378972D01*
X323886Y378731D01*
X324621Y378558D01*
X325364Y378455D01*
X326114Y378420D01*
Y373420D01*
X325364Y373386D01*
X324621Y373282D01*
X323886Y373110D01*
X323159Y372868D01*
X322439Y372557D01*
X321728Y372178D01*
X321024Y371730D01*
X320328Y371212D01*
X319641Y370625D01*
X318960Y369970D01*
Y381870D01*
X319641Y381214D01*
D02*
G37*
G36*
X355305Y373027D02*
X355075Y373102D01*
X354767Y373168D01*
X354380Y373227D01*
X353369Y373322D01*
X351260Y373404D01*
X349460Y373420D01*
Y378420D01*
X350400Y378424D01*
X354767Y378672D01*
X355075Y378738D01*
X355305Y378813D01*
Y373027D01*
D02*
G37*
G36*
X273845Y148364D02*
X273948Y147621D01*
X274121Y146886D01*
X274362Y146159D01*
X274673Y145440D01*
X275052Y144728D01*
X275501Y144024D01*
X276018Y143329D01*
X276604Y142640D01*
X277260Y141960D01*
X265360D01*
X266015Y142640D01*
X266602Y143329D01*
X267120Y144024D01*
X267568Y144728D01*
X267948Y145440D01*
X268258Y146159D01*
X268500Y146886D01*
X268672Y147621D01*
X268776Y148364D01*
X268810Y149114D01*
X273810D01*
X273845Y148364D01*
D02*
G37*
G36*
X305814Y322179D02*
X305228Y321492D01*
X304711Y320796D01*
X304262Y320092D01*
X303883Y319380D01*
X303572Y318661D01*
X303330Y317934D01*
X303158Y317199D01*
X303055Y316457D01*
X303020Y315706D01*
X298020D01*
X297985Y316457D01*
X297882Y317199D01*
X297710Y317934D01*
X297468Y318661D01*
X297157Y319380D01*
X296778Y320092D01*
X296329Y320796D01*
X295812Y321492D01*
X295226Y322179D01*
X294570Y322860D01*
X306470D01*
X305814Y322179D01*
D02*
G37*
G36*
X182507Y418540D02*
X182579Y417639D01*
X182705Y416781D01*
X182885Y415967D01*
X183120Y415195D01*
X183409Y414467D01*
X183753Y413782D01*
X184150Y413140D01*
X184602Y412542D01*
X185109Y411987D01*
X181573Y408451D01*
X181018Y408958D01*
X180420Y409410D01*
X179778Y409807D01*
X179093Y410151D01*
X178365Y410440D01*
X177593Y410675D01*
X176779Y410855D01*
X175921Y410981D01*
X175019Y411053D01*
X174075Y411070D01*
X182490Y419485D01*
X182507Y418540D01*
D02*
G37*
G36*
X132480Y424865D02*
X133168Y424278D01*
X133864Y423760D01*
X134568Y423312D01*
X135280Y422933D01*
X135999Y422622D01*
X136726Y422380D01*
X137461Y422208D01*
X138203Y422104D01*
X138954Y422070D01*
Y417070D01*
X138203Y417035D01*
X137461Y416932D01*
X136726Y416759D01*
X135999Y416518D01*
X135280Y416208D01*
X134568Y415828D01*
X133864Y415379D01*
X133168Y414862D01*
X132480Y414276D01*
X131800Y413620D01*
Y425520D01*
X132480Y424865D01*
D02*
G37*
G36*
X167920Y413620D02*
X167239Y414276D01*
X166551Y414862D01*
X165856Y415379D01*
X165152Y415828D01*
X164440Y416208D01*
X163721Y416518D01*
X162994Y416759D01*
X162259Y416932D01*
X161516Y417035D01*
X160766Y417070D01*
Y422070D01*
X161516Y422104D01*
X162259Y422208D01*
X162994Y422380D01*
X163721Y422622D01*
X164440Y422933D01*
X165152Y423312D01*
X165856Y423760D01*
X166551Y424278D01*
X167239Y424865D01*
X167920Y425520D01*
Y413620D01*
D02*
G37*
G36*
X368084Y391438D02*
X368393Y391372D01*
X368780Y391313D01*
X369791Y391218D01*
X371899Y391136D01*
X373700Y391120D01*
Y386120D01*
X372760Y386116D01*
X368393Y385868D01*
X368084Y385802D01*
X367855Y385727D01*
Y391513D01*
X368084Y391438D01*
D02*
G37*
G36*
X355305Y385727D02*
X355075Y385802D01*
X354767Y385868D01*
X354380Y385927D01*
X353369Y386022D01*
X351260Y386104D01*
X349460Y386120D01*
Y391120D01*
X350400Y391124D01*
X354767Y391372D01*
X355075Y391438D01*
X355305Y391513D01*
Y385727D01*
D02*
G37*
G36*
X343875Y216817D02*
X343646Y216892D01*
X343337Y216958D01*
X342950Y217017D01*
X341939Y217112D01*
X339831Y217194D01*
X338030Y217210D01*
Y222210D01*
X338970Y222214D01*
X343337Y222462D01*
X343646Y222528D01*
X343875Y222603D01*
Y216817D01*
D02*
G37*
G36*
X276604Y169779D02*
X276018Y169091D01*
X275501Y168396D01*
X275052Y167692D01*
X274673Y166980D01*
X274362Y166261D01*
X274121Y165534D01*
X273948Y164799D01*
X273845Y164056D01*
X273810Y163306D01*
X268810D01*
X268776Y164056D01*
X268672Y164799D01*
X268500Y165534D01*
X268258Y166261D01*
X267948Y166980D01*
X267568Y167692D01*
X267120Y168396D01*
X266602Y169091D01*
X266015Y169779D01*
X265360Y170460D01*
X277260D01*
X276604Y169779D01*
D02*
G37*
G36*
X278060Y181824D02*
X278748Y181238D01*
X279444Y180721D01*
X280148Y180272D01*
X280860Y179893D01*
X281579Y179582D01*
X282306Y179340D01*
X283041Y179168D01*
X283783Y179065D01*
X284534Y179030D01*
Y174030D01*
X283783Y173995D01*
X283041Y173892D01*
X282306Y173720D01*
X281579Y173478D01*
X280860Y173167D01*
X280148Y172788D01*
X279444Y172339D01*
X278748Y171822D01*
X278060Y171236D01*
X277380Y170580D01*
Y182480D01*
X278060Y181824D01*
D02*
G37*
G36*
X305814Y281539D02*
X305228Y280851D01*
X304711Y280156D01*
X304262Y279452D01*
X303883Y278741D01*
X303572Y278021D01*
X303330Y277294D01*
X303158Y276559D01*
X303055Y275816D01*
X303020Y275066D01*
X298020D01*
X297985Y275816D01*
X297882Y276559D01*
X297710Y277294D01*
X297468Y278021D01*
X297157Y278741D01*
X296778Y279452D01*
X296329Y280156D01*
X295812Y280851D01*
X295226Y281539D01*
X294570Y282220D01*
X306470D01*
X305814Y281539D01*
D02*
G37*
G36*
X303055Y300763D02*
X303158Y300021D01*
X303330Y299286D01*
X303572Y298559D01*
X303883Y297840D01*
X304262Y297128D01*
X304711Y296424D01*
X305228Y295728D01*
X305814Y295040D01*
X306470Y294360D01*
X294570D01*
X295226Y295040D01*
X295812Y295728D01*
X296329Y296424D01*
X296778Y297128D01*
X297157Y297840D01*
X297468Y298559D01*
X297710Y299286D01*
X297882Y300021D01*
X297985Y300763D01*
X298020Y301514D01*
X303020D01*
X303055Y300763D01*
D02*
G37*
G36*
X371796Y234910D02*
X371124Y234188D01*
X370523Y233437D01*
X369992Y232657D01*
X369533Y231847D01*
X369144Y231008D01*
X368826Y230140D01*
X368578Y229243D01*
X368401Y228316D01*
X368295Y227360D01*
X368260Y226374D01*
X363260Y224910D01*
X363210Y225860D01*
X363060Y226710D01*
X362810Y227460D01*
X362460Y228110D01*
X362010Y228660D01*
X361460Y229110D01*
X360810Y229460D01*
X360060Y229710D01*
X359528Y229804D01*
X356963Y229658D01*
X356655Y229592D01*
X356425Y229517D01*
Y235303D01*
X356655Y235228D01*
X356963Y235162D01*
X357350Y235103D01*
X358361Y235008D01*
X360323Y234932D01*
X360710Y234945D01*
X361666Y235051D01*
X362593Y235228D01*
X363490Y235476D01*
X364358Y235794D01*
X365197Y236183D01*
X366007Y236642D01*
X366787Y237173D01*
X367538Y237774D01*
X368260Y238445D01*
X371796Y234910D01*
D02*
G37*
G36*
X354795Y69623D02*
X354898Y68881D01*
X355070Y68146D01*
X355312Y67419D01*
X355622Y66700D01*
X356002Y65988D01*
X356451Y65284D01*
X356968Y64588D01*
X357555Y63900D01*
X358210Y63220D01*
X346310D01*
X346965Y63900D01*
X347552Y64588D01*
X348069Y65284D01*
X348518Y65988D01*
X348898Y66700D01*
X349208Y67419D01*
X349450Y68146D01*
X349622Y68881D01*
X349725Y69623D01*
X349760Y70374D01*
X354760D01*
X354795Y69623D01*
D02*
G37*
G36*
X346190Y89300D02*
X345509Y89956D01*
X344822Y90542D01*
X344126Y91060D01*
X343422Y91508D01*
X342710Y91888D01*
X341991Y92198D01*
X341264Y92439D01*
X340529Y92612D01*
X339786Y92716D01*
X339036Y92750D01*
Y97750D01*
X339786Y97785D01*
X340529Y97888D01*
X341264Y98061D01*
X341991Y98302D01*
X342710Y98612D01*
X343422Y98992D01*
X344126Y99440D01*
X344822Y99958D01*
X345509Y100545D01*
X346190Y101200D01*
Y89300D01*
D02*
G37*
G36*
X357555Y50399D02*
X356968Y49711D01*
X356451Y49016D01*
X356002Y48312D01*
X355622Y47600D01*
X355312Y46881D01*
X355070Y46154D01*
X354898Y45419D01*
X354795Y44676D01*
X354760Y43926D01*
X349760D01*
X349725Y44676D01*
X349622Y45419D01*
X349450Y46154D01*
X349208Y46881D01*
X348898Y47600D01*
X348518Y48312D01*
X348069Y49016D01*
X347552Y49711D01*
X346965Y50399D01*
X346310Y51080D01*
X358210D01*
X357555Y50399D01*
D02*
G37*
G36*
Y88499D02*
X356968Y87811D01*
X356451Y87116D01*
X356002Y86412D01*
X355622Y85701D01*
X355312Y84981D01*
X355070Y84254D01*
X354898Y83519D01*
X354795Y82776D01*
X354760Y82026D01*
X349760D01*
X349725Y82776D01*
X349622Y83519D01*
X349450Y84254D01*
X349208Y84981D01*
X348898Y85701D01*
X348518Y86412D01*
X348069Y87116D01*
X347552Y87811D01*
X346965Y88499D01*
X346310Y89180D01*
X358210D01*
X357555Y88499D01*
D02*
G37*
G36*
X354795Y32794D02*
X354898Y32051D01*
X355070Y31316D01*
X355312Y30589D01*
X355622Y29869D01*
X356002Y29158D01*
X356451Y28454D01*
X356968Y27759D01*
X357555Y27071D01*
X358210Y26390D01*
X346310D01*
X346965Y27071D01*
X347552Y27759D01*
X348069Y28454D01*
X348518Y29158D01*
X348898Y29869D01*
X349208Y30589D01*
X349450Y31316D01*
X349622Y32051D01*
X349725Y32794D01*
X349760Y33544D01*
X354760D01*
X354795Y32794D01*
D02*
G37*
G36*
X218185Y369170D02*
X217598Y368481D01*
X217080Y367786D01*
X216632Y367082D01*
X216252Y366371D01*
X215942Y365651D01*
X215700Y364924D01*
X215528Y364189D01*
X215424Y363447D01*
X215390Y362696D01*
X210390D01*
X210355Y363447D01*
X210252Y364189D01*
X210079Y364924D01*
X209838Y365651D01*
X209527Y366371D01*
X209148Y367082D01*
X208699Y367786D01*
X208182Y368481D01*
X207596Y369170D01*
X206940Y369850D01*
X218840D01*
X218185Y369170D01*
D02*
G37*
G36*
X218904Y216943D02*
X219008Y216201D01*
X219181Y215466D01*
X219422Y214739D01*
X219732Y214020D01*
X220112Y213308D01*
X220560Y212604D01*
X221078Y211908D01*
X221665Y211220D01*
X222320Y210540D01*
X210420D01*
X211075Y211220D01*
X211662Y211908D01*
X212180Y212604D01*
X212628Y213308D01*
X213008Y214020D01*
X213318Y214739D01*
X213559Y215466D01*
X213732Y216201D01*
X213836Y216943D01*
X213870Y217694D01*
X218870D01*
X218904Y216943D01*
D02*
G37*
G36*
X221665Y197719D02*
X221078Y197031D01*
X220560Y196336D01*
X220112Y195632D01*
X219732Y194921D01*
X219422Y194201D01*
X219181Y193474D01*
X219008Y192739D01*
X218904Y191996D01*
X218870Y191246D01*
X213870D01*
X213836Y191996D01*
X213732Y192739D01*
X213559Y193474D01*
X213318Y194201D01*
X213008Y194921D01*
X212628Y195632D01*
X212180Y196336D01*
X211662Y197031D01*
X211075Y197719D01*
X210420Y198400D01*
X222320D01*
X221665Y197719D01*
D02*
G37*
G36*
X218904Y272824D02*
X219008Y272081D01*
X219181Y271346D01*
X219422Y270619D01*
X219732Y269900D01*
X220112Y269188D01*
X220560Y268484D01*
X221078Y267789D01*
X221665Y267101D01*
X222320Y266420D01*
X210420D01*
X211075Y267101D01*
X211662Y267789D01*
X212180Y268484D01*
X212628Y269188D01*
X213008Y269900D01*
X213318Y270619D01*
X213559Y271346D01*
X213732Y272081D01*
X213836Y272824D01*
X213870Y273574D01*
X218870D01*
X218904Y272824D01*
D02*
G37*
G36*
X221665Y253599D02*
X221078Y252911D01*
X220560Y252216D01*
X220112Y251512D01*
X219732Y250800D01*
X219422Y250081D01*
X219181Y249354D01*
X219008Y248619D01*
X218904Y247876D01*
X218870Y247126D01*
X213870D01*
X213836Y247876D01*
X213732Y248619D01*
X213559Y249354D01*
X213318Y250081D01*
X213008Y250800D01*
X212628Y251512D01*
X212180Y252216D01*
X211662Y252911D01*
X211075Y253599D01*
X210420Y254280D01*
X222320D01*
X221665Y253599D01*
D02*
G37*
G36*
X405815Y322179D02*
X405228Y321492D01*
X404711Y320796D01*
X404262Y320092D01*
X403882Y319380D01*
X403572Y318661D01*
X403330Y317934D01*
X403158Y317199D01*
X403055Y316457D01*
X403020Y315706D01*
X398020D01*
X397985Y316457D01*
X397882Y317199D01*
X397710Y317934D01*
X397468Y318661D01*
X397158Y319380D01*
X396778Y320092D01*
X396329Y320796D01*
X395812Y321492D01*
X395225Y322179D01*
X394570Y322860D01*
X406470D01*
X405815Y322179D01*
D02*
G37*
G36*
X407271Y334225D02*
X407958Y333638D01*
X408654Y333120D01*
X409358Y332672D01*
X410070Y332293D01*
X410789Y331982D01*
X411516Y331740D01*
X412251Y331568D01*
X412994Y331465D01*
X413744Y331430D01*
Y326430D01*
X412994Y326395D01*
X412251Y326292D01*
X411516Y326119D01*
X410789Y325878D01*
X410070Y325568D01*
X409358Y325188D01*
X408654Y324739D01*
X407958Y324222D01*
X407271Y323635D01*
X406590Y322980D01*
Y334880D01*
X407271Y334225D01*
D02*
G37*
G36*
X403055Y300763D02*
X403158Y300021D01*
X403330Y299286D01*
X403572Y298559D01*
X403882Y297840D01*
X404262Y297128D01*
X404711Y296424D01*
X405228Y295728D01*
X405815Y295040D01*
X406470Y294360D01*
X394570D01*
X395225Y295040D01*
X395812Y295728D01*
X396329Y296424D01*
X396778Y297128D01*
X397158Y297840D01*
X397468Y298559D01*
X397710Y299286D01*
X397882Y300021D01*
X397985Y300763D01*
X398020Y301514D01*
X403020D01*
X403055Y300763D01*
D02*
G37*
G36*
X417085Y378738D02*
X417393Y378672D01*
X417780Y378613D01*
X418791Y378518D01*
X420900Y378436D01*
X422700Y378420D01*
Y373420D01*
X421760Y373416D01*
X417393Y373168D01*
X417085Y373102D01*
X416855Y373027D01*
Y378813D01*
X417085Y378738D01*
D02*
G37*
G36*
X132480Y324865D02*
X133168Y324278D01*
X133864Y323760D01*
X134568Y323312D01*
X135280Y322933D01*
X135999Y322622D01*
X136726Y322380D01*
X137461Y322208D01*
X138203Y322104D01*
X138954Y322070D01*
Y317070D01*
X138203Y317036D01*
X137461Y316932D01*
X136726Y316759D01*
X135999Y316518D01*
X135280Y316208D01*
X134568Y315828D01*
X133864Y315380D01*
X133168Y314862D01*
X132480Y314275D01*
X131800Y313620D01*
Y325520D01*
X132480Y324865D01*
D02*
G37*
G36*
X167920Y313620D02*
X167239Y314275D01*
X166551Y314862D01*
X165856Y315380D01*
X165152Y315828D01*
X164440Y316208D01*
X163721Y316518D01*
X162994Y316759D01*
X162259Y316932D01*
X161516Y317036D01*
X160766Y317070D01*
Y322070D01*
X161516Y322104D01*
X162259Y322208D01*
X162994Y322380D01*
X163721Y322622D01*
X164440Y322933D01*
X165152Y323312D01*
X165856Y323760D01*
X166551Y324278D01*
X167239Y324865D01*
X167920Y325520D01*
Y313620D01*
D02*
G37*
D10*
X452999Y30430D02*
G03*
X452999Y30430I-7279J0D01*
G01*
X463170Y30554D02*
G03*
X427814Y30620I-17700J-11777D01*
G01*
X427153Y31063D02*
G03*
X463689Y30899I18317J10796D01*
G01*
D11*
X361580Y401320D02*
D03*
X350150Y245110D02*
D03*
D12*
X361580Y388620D02*
D03*
Y375920D02*
D03*
Y363220D02*
D03*
X410580Y401320D02*
D03*
Y388620D02*
D03*
Y375920D02*
D03*
Y363220D02*
D03*
X350150Y232410D02*
D03*
Y219710D02*
D03*
Y207010D02*
D03*
X399150Y245110D02*
D03*
Y232410D02*
D03*
Y219710D02*
D03*
Y207010D02*
D03*
D13*
X445520Y62730D02*
X475470Y11180D01*
X415470D02*
X445520Y62730D01*
X415470Y11180D02*
X475470D01*
X46990Y214160D02*
X72390Y188760D01*
X216370Y204470D02*
Y260350D01*
Y334810D01*
X212890Y338290D02*
X216370Y334810D01*
X212890Y338290D02*
Y375920D01*
X300520Y288290D02*
Y328930D01*
X318770Y198120D02*
X327660Y207010D01*
X350150D01*
X352260Y57150D02*
Y95250D01*
Y20320D02*
Y57150D01*
X216370Y160820D02*
Y204470D01*
Y160820D02*
X281940Y95250D01*
X352260D01*
X271310Y135890D02*
Y176530D01*
X116370Y204470D02*
Y260350D01*
X31750Y214160D02*
X46990D01*
X125730Y319570D02*
X173990D01*
X125730Y419570D02*
X173990D01*
X400520Y288290D02*
Y328930D01*
X335280Y350520D02*
X347980Y363220D01*
X361580D01*
X300520Y250660D02*
Y288290D01*
Y250660D02*
X331470Y219710D01*
X173990Y419570D02*
X197320Y396240D01*
X323850D01*
X331470Y388620D01*
X361580D01*
X400520Y328930D02*
X420370D01*
X433070Y341630D01*
Y367030D01*
X424180Y375920D02*
X433070Y367030D01*
X410580Y375920D02*
X424180D01*
X312890D02*
X361580D01*
X388620Y219710D02*
X399150D01*
X378460Y209550D02*
X388620Y219710D01*
X378460Y194310D02*
Y209550D01*
X371310Y187160D02*
X378460Y194310D01*
X371310Y176530D02*
Y187160D01*
Y135890D02*
Y176530D01*
X271310D02*
X342900D01*
X365760Y199390D01*
Y232410D01*
X331470Y219710D02*
X350150D01*
Y232410D02*
X365760D01*
X382270Y248920D01*
Y382270D01*
X375920Y388620D02*
X382270Y382270D01*
X361580Y388620D02*
X375920D01*
X31750Y314160D02*
X50000Y332410D01*
Y364600D01*
X452920Y219710D02*
X479590Y246380D01*
X399150Y219710D02*
X452920D01*
X421170Y388620D02*
X444500Y411950D01*
X410580Y388620D02*
X421170D01*
X416090Y232410D02*
X434340Y250660D01*
X399150Y232410D02*
X416090D01*
X0Y450000D02*
X600000D01*
Y0D02*
Y450000D01*
X0Y0D02*
X600000D01*
X0D02*
Y450000D01*
D14*
X97790Y52070D02*
X129540Y20320D01*
X252260D01*
X97790Y52070D02*
Y61760D01*
X13500Y146050D02*
X97790Y61760D01*
X12900Y146050D02*
Y424380D01*
X29210Y440690D01*
X415760D01*
X444500Y411950D01*
X434340Y250660D02*
X468630Y284950D01*
Y387820D01*
X444500Y411950D02*
X468630Y387820D01*
D15*
X50000Y415400D02*
D03*
X46990Y52070D02*
D03*
X550000Y364600D02*
D03*
D16*
X50000D02*
D03*
X550000Y415400D02*
D03*
D17*
X116370Y260350D02*
D03*
X216370D02*
D03*
X434340Y250660D02*
D03*
Y150660D02*
D03*
X13500Y146050D02*
D03*
X113500D02*
D03*
X444500Y411950D02*
D03*
Y311950D02*
D03*
X252260Y57150D02*
D03*
X352260D02*
D03*
Y95250D02*
D03*
X252260D02*
D03*
X352260Y20320D02*
D03*
X252260D02*
D03*
X116370Y204470D02*
D03*
X216370D02*
D03*
X72390Y288760D02*
D03*
Y188760D02*
D03*
X31750Y314160D02*
D03*
Y214160D02*
D03*
X479590Y246380D02*
D03*
X579590D02*
D03*
X400520Y328930D02*
D03*
X300520D02*
D03*
X400520Y288290D02*
D03*
X300520D02*
D03*
X271310Y176530D02*
D03*
X371310D02*
D03*
X125730Y319570D02*
D03*
Y419570D02*
D03*
X271310Y135890D02*
D03*
X371310D02*
D03*
X173990Y319570D02*
D03*
Y419570D02*
D03*
X212890Y375920D02*
D03*
X312890D02*
D03*
X212890Y417830D02*
D03*
X312890D02*
D03*
D18*
X97790Y52070D02*
D03*
D19*
X318770Y198120D02*
D03*
X335280Y350520D02*
D03*
M02*
