G04 Layer_Color=65535*
%FSLAX44Y44*%
%MOMM*%
G71*
G01*
G75*
%ADD12C,0.5000*%
%ADD18C,0.2500*%
%ADD19C,0.1524*%
%ADD20C,0.2000*%
%ADD21C,0.0500*%
%ADD22C,0.2540*%
%ADD23C,0.3000*%
%ADD24C,0.1500*%
%ADD25R,11.6840X3.3020*%
D12*
X0Y450000D02*
X600000D01*
Y0D02*
Y450000D01*
X0Y0D02*
X600000D01*
X0D02*
Y450000D01*
D18*
X206620Y351400D02*
G03*
X206620Y351400I-1250J0D01*
G01*
X447920Y285360D02*
G03*
X447920Y285360I-1250J0D01*
G01*
D19*
X48260Y171450D02*
G03*
X50800Y168910I2540J0D01*
G01*
Y189230D02*
G03*
X48260Y186690I0J-2540D01*
G01*
X99060D02*
G03*
X96520Y189230I-2540J0D01*
G01*
Y168910D02*
G03*
X99060Y171450I0J2540D01*
G01*
X394970Y325120D02*
G03*
X397510Y322580I2540J0D01*
G01*
Y342900D02*
G03*
X394970Y340360I0J-2540D01*
G01*
X445770D02*
G03*
X443230Y342900I-2540J0D01*
G01*
Y322580D02*
G03*
X445770Y325120I0J2540D01*
G01*
X416560Y198120D02*
G03*
X419100Y200660I0J2540D01*
G01*
X398780D02*
G03*
X401320Y198120I2540J0D01*
G01*
Y248920D02*
G03*
X398780Y246380I0J-2540D01*
G01*
X419100D02*
G03*
X416560Y248920I-2540J0D01*
G01*
X182880Y167640D02*
G03*
X185420Y170180I0J2540D01*
G01*
X165100D02*
G03*
X167640Y167640I2540J0D01*
G01*
Y218440D02*
G03*
X165100Y215900I0J-2540D01*
G01*
X185420D02*
G03*
X182880Y218440I-2540J0D01*
G01*
Y309880D02*
G03*
X185420Y312420I0J2540D01*
G01*
X165100D02*
G03*
X167640Y309880I2540J0D01*
G01*
Y360680D02*
G03*
X165100Y358140I0J-2540D01*
G01*
X185420D02*
G03*
X182880Y360680I-2540J0D01*
G01*
X210820Y99060D02*
G03*
X213360Y96520I2540J0D01*
G01*
Y116840D02*
G03*
X210820Y114300I0J-2540D01*
G01*
X261620D02*
G03*
X259080Y116840I-2540J0D01*
G01*
Y96520D02*
G03*
X261620Y99060I0J2540D01*
G01*
Y73660D02*
G03*
X259080Y76200I-2540J0D01*
G01*
Y55880D02*
G03*
X261620Y58420I0J2540D01*
G01*
X210820D02*
G03*
X213360Y55880I2540J0D01*
G01*
Y76200D02*
G03*
X210820Y73660I0J-2540D01*
G01*
X331470Y327660D02*
G03*
X328930Y325120I0J-2540D01*
G01*
X349250D02*
G03*
X346710Y327660I-2540J0D01*
G01*
Y276860D02*
G03*
X349250Y279400I0J2540D01*
G01*
X328930D02*
G03*
X331470Y276860I2540J0D01*
G01*
X229870Y378460D02*
G03*
X232410Y375920I2540J0D01*
G01*
Y396240D02*
G03*
X229870Y393700I0J-2540D01*
G01*
X280670D02*
G03*
X278130Y396240I-2540J0D01*
G01*
Y375920D02*
G03*
X280670Y378460I0J2540D01*
G01*
X135890Y328930D02*
G03*
X133350Y326390I0J-2540D01*
G01*
X153670D02*
G03*
X151130Y328930I-2540J0D01*
G01*
Y278130D02*
G03*
X153670Y280670I0J2540D01*
G01*
X133350D02*
G03*
X135890Y278130I2540J0D01*
G01*
X76200Y233680D02*
G03*
X78740Y236220I0J2540D01*
G01*
X58420D02*
G03*
X60960Y233680I2540J0D01*
G01*
Y284480D02*
G03*
X58420Y281940I0J-2540D01*
G01*
X78740D02*
G03*
X76200Y284480I-2540J0D01*
G01*
X48260Y171450D02*
Y186690D01*
X50800Y189230D02*
X54610D01*
X50800Y168910D02*
X54610D01*
X55880Y187960D02*
X91440D01*
X54610Y189230D02*
X55880Y187960D01*
Y170180D02*
X91440D01*
X54610Y168910D02*
X55880Y170180D01*
X91440Y187960D02*
X92710Y189230D01*
X96520D01*
X91440Y170180D02*
X92710Y168910D01*
X96520D01*
X99060Y171450D02*
Y186690D01*
X394970Y325120D02*
Y340360D01*
X397510Y342900D02*
X401320D01*
X397510Y322580D02*
X401320D01*
X402590Y341630D02*
X438150D01*
X401320Y342900D02*
X402590Y341630D01*
Y323850D02*
X438150D01*
X401320Y322580D02*
X402590Y323850D01*
X438150Y341630D02*
X439420Y342900D01*
X443230D01*
X438150Y323850D02*
X439420Y322580D01*
X443230D01*
X445770Y325120D02*
Y340360D01*
X401320Y198120D02*
X416560D01*
X398780Y200660D02*
Y204470D01*
X419100Y200660D02*
Y204470D01*
X400050Y205740D02*
Y241300D01*
X398780Y204470D02*
X400050Y205740D01*
X417830D02*
Y241300D01*
Y205740D02*
X419100Y204470D01*
X398780Y242570D02*
X400050Y241300D01*
X398780Y242570D02*
Y246380D01*
X417830Y241300D02*
X419100Y242570D01*
Y246380D01*
X401320Y248920D02*
X416560D01*
X167640Y167640D02*
X182880D01*
X165100Y170180D02*
Y173990D01*
X185420Y170180D02*
Y173990D01*
X166370Y175260D02*
Y210820D01*
X165100Y173990D02*
X166370Y175260D01*
X184150D02*
Y210820D01*
Y175260D02*
X185420Y173990D01*
X165100Y212090D02*
X166370Y210820D01*
X165100Y212090D02*
Y215900D01*
X184150Y210820D02*
X185420Y212090D01*
Y215900D01*
X167640Y218440D02*
X182880D01*
X167640Y309880D02*
X182880D01*
X165100Y312420D02*
Y316230D01*
X185420Y312420D02*
Y316230D01*
X166370Y317500D02*
Y353060D01*
X165100Y316230D02*
X166370Y317500D01*
X184150D02*
Y353060D01*
Y317500D02*
X185420Y316230D01*
X165100Y354330D02*
X166370Y353060D01*
X165100Y354330D02*
Y358140D01*
X184150Y353060D02*
X185420Y354330D01*
Y358140D01*
X167640Y360680D02*
X182880D01*
X210820Y99060D02*
Y114300D01*
X213360Y116840D02*
X217170D01*
X213360Y96520D02*
X217170D01*
X218440Y115570D02*
X254000D01*
X217170Y116840D02*
X218440Y115570D01*
Y97790D02*
X254000D01*
X217170Y96520D02*
X218440Y97790D01*
X254000Y115570D02*
X255270Y116840D01*
X259080D01*
X254000Y97790D02*
X255270Y96520D01*
X259080D01*
X261620Y99060D02*
Y114300D01*
Y58420D02*
Y73660D01*
X255270Y55880D02*
X259080D01*
X255270Y76200D02*
X259080D01*
X218440Y57150D02*
X254000D01*
X255270Y55880D01*
X218440Y74930D02*
X254000D01*
X255270Y76200D01*
X217170Y55880D02*
X218440Y57150D01*
X213360Y55880D02*
X217170D01*
Y76200D02*
X218440Y74930D01*
X213360Y76200D02*
X217170D01*
X210820Y58420D02*
Y73660D01*
X331470Y327660D02*
X346710D01*
X349250Y321310D02*
Y325120D01*
X328930Y321310D02*
Y325120D01*
X347980Y284480D02*
Y320040D01*
X349250Y321310D01*
X330200Y284480D02*
Y320040D01*
X328930Y321310D02*
X330200Y320040D01*
X347980Y284480D02*
X349250Y283210D01*
Y279400D02*
Y283210D01*
X328930D02*
X330200Y284480D01*
X328930Y279400D02*
Y283210D01*
X331470Y276860D02*
X346710D01*
X229870Y378460D02*
Y393700D01*
X232410Y396240D02*
X236220D01*
X232410Y375920D02*
X236220D01*
X237490Y394970D02*
X273050D01*
X236220Y396240D02*
X237490Y394970D01*
Y377190D02*
X273050D01*
X236220Y375920D02*
X237490Y377190D01*
X273050Y394970D02*
X274320Y396240D01*
X278130D01*
X273050Y377190D02*
X274320Y375920D01*
X278130D01*
X280670Y378460D02*
Y393700D01*
X135890Y328930D02*
X151130D01*
X153670Y322580D02*
Y326390D01*
X133350Y322580D02*
Y326390D01*
X152400Y285750D02*
Y321310D01*
X153670Y322580D01*
X134620Y285750D02*
Y321310D01*
X133350Y322580D02*
X134620Y321310D01*
X152400Y285750D02*
X153670Y284480D01*
Y280670D02*
Y284480D01*
X133350D02*
X134620Y285750D01*
X133350Y280670D02*
Y284480D01*
X135890Y278130D02*
X151130D01*
X60960Y233680D02*
X76200D01*
X58420Y236220D02*
Y240030D01*
X78740Y236220D02*
Y240030D01*
X59690Y241300D02*
Y276860D01*
X58420Y240030D02*
X59690Y241300D01*
X77470D02*
Y276860D01*
Y241300D02*
X78740Y240030D01*
X58420Y278130D02*
X59690Y276860D01*
X58420Y278130D02*
Y281940D01*
X77470Y276860D02*
X78740Y278130D01*
Y281940D01*
X60960Y284480D02*
X76200D01*
D20*
X310050Y279298D02*
G03*
X270692Y278611I-19284J-22981D01*
G01*
X548810Y211988D02*
G03*
X509452Y211301I-19284J-22981D01*
G01*
X83718Y110320D02*
G03*
X83031Y149678I-22981J19284D01*
G01*
X43350Y248818D02*
G03*
X3992Y248131I-19284J-22981D01*
G01*
X246482Y44620D02*
G03*
X247169Y5262I22981J-19284D01*
G01*
X549740Y259182D02*
G03*
X589098Y259869I19284J22981D01*
G01*
X430632Y396410D02*
G03*
X431319Y357052I22981J-19284D01*
G01*
X358310Y151028D02*
G03*
X318952Y150341I-19284J-22981D01*
G01*
X128440Y246278D02*
G03*
X89082Y245591I-19284J-22981D01*
G01*
X221082Y447210D02*
G03*
X221769Y407852I22981J-19284D01*
G01*
X217870Y298850D02*
X241870D01*
X217870Y348850D02*
X241870D01*
Y298850D02*
Y348850D01*
X217870Y298850D02*
Y348850D01*
X459170Y232810D02*
X483170D01*
X459170Y282810D02*
X483170D01*
Y232810D02*
Y282810D01*
X459170Y232810D02*
Y282810D01*
X290830Y292060D02*
Y328310D01*
Y251060D02*
Y286060D01*
X270830Y292060D02*
X310830D01*
X529590Y224750D02*
Y261000D01*
Y183750D02*
Y218750D01*
X509590Y224750D02*
X549590D01*
X96480Y129540D02*
X132730D01*
X55480D02*
X90480D01*
X96480Y109540D02*
Y149540D01*
X24130Y261580D02*
Y297830D01*
Y220580D02*
Y255580D01*
X4130Y261580D02*
X44130D01*
X197470Y25400D02*
X233720D01*
X239720D02*
X274720D01*
X233720Y5400D02*
Y45400D01*
X568960Y210170D02*
Y246420D01*
Y252420D02*
Y287420D01*
X548960Y246420D02*
X588960D01*
X381620Y377190D02*
X417870D01*
X423870D02*
X458870D01*
X417870Y357190D02*
Y397190D01*
X339090Y163790D02*
Y200040D01*
Y122790D02*
Y157790D01*
X319090Y163790D02*
X359090D01*
X109220Y259040D02*
Y295290D01*
Y218040D02*
Y253040D01*
X89220Y259040D02*
X129220D01*
X172070Y427990D02*
X208320D01*
X214320D02*
X249320D01*
X208320Y407990D02*
Y447990D01*
X11430Y154940D02*
Y164937D01*
X16428D01*
X18095Y163271D01*
Y159938D01*
X16428Y158272D01*
X11430D01*
X14762D02*
X18095Y154940D01*
X21427D02*
X24759D01*
X23093D01*
Y164937D01*
X21427Y163271D01*
X29757Y154940D02*
X33090D01*
X31424D01*
Y164937D01*
X29757Y163271D01*
X487680Y322580D02*
Y332577D01*
X492678D01*
X494344Y330911D01*
Y327578D01*
X492678Y325912D01*
X487680D01*
X491012D02*
X494344Y322580D01*
X497677D02*
X501009D01*
X499343D01*
Y332577D01*
X497677Y330911D01*
X506007D02*
X507674Y332577D01*
X511006D01*
X512672Y330911D01*
Y324246D01*
X511006Y322580D01*
X507674D01*
X506007Y324246D01*
Y330911D01*
X400050Y290830D02*
Y300827D01*
X405048D01*
X406715Y299161D01*
Y295828D01*
X405048Y294162D01*
X400050D01*
X403382D02*
X406715Y290830D01*
X410047Y292496D02*
X411713Y290830D01*
X415045D01*
X416711Y292496D01*
Y299161D01*
X415045Y300827D01*
X411713D01*
X410047Y299161D01*
Y297495D01*
X411713Y295828D01*
X416711D01*
X168910Y257810D02*
Y267807D01*
X173908D01*
X175574Y266141D01*
Y262808D01*
X173908Y261142D01*
X168910D01*
X172242D02*
X175574Y257810D01*
X178907Y266141D02*
X180573Y267807D01*
X183905D01*
X185571Y266141D01*
Y264475D01*
X183905Y262808D01*
X185571Y261142D01*
Y259476D01*
X183905Y257810D01*
X180573D01*
X178907Y259476D01*
Y261142D01*
X180573Y262808D01*
X178907Y264475D01*
Y266141D01*
X180573Y262808D02*
X183905D01*
X162560Y401320D02*
Y411317D01*
X167558D01*
X169224Y409651D01*
Y406318D01*
X167558Y404652D01*
X162560D01*
X165892D02*
X169224Y401320D01*
X172557Y411317D02*
X179221D01*
Y409651D01*
X172557Y402986D01*
Y401320D01*
X304800Y102870D02*
Y112867D01*
X309798D01*
X311465Y111201D01*
Y107868D01*
X309798Y106202D01*
X304800D01*
X308132D02*
X311465Y102870D01*
X321461Y112867D02*
X318129Y111201D01*
X314797Y107868D01*
Y104536D01*
X316463Y102870D01*
X319795D01*
X321461Y104536D01*
Y106202D01*
X319795Y107868D01*
X314797D01*
X308610Y53340D02*
Y63337D01*
X313608D01*
X315275Y61671D01*
Y58338D01*
X313608Y56672D01*
X308610D01*
X311942D02*
X315275Y53340D01*
X325271Y63337D02*
X318607D01*
Y58338D01*
X321939Y60005D01*
X323605D01*
X325271Y58338D01*
Y55006D01*
X323605Y53340D01*
X320273D01*
X318607Y55006D01*
X332740Y367030D02*
Y377027D01*
X337738D01*
X339404Y375361D01*
Y372028D01*
X337738Y370362D01*
X332740D01*
X336072D02*
X339404Y367030D01*
X347735D02*
Y377027D01*
X342737Y372028D01*
X349401D01*
X318770Y387350D02*
Y397347D01*
X323768D01*
X325434Y395681D01*
Y392348D01*
X323768Y390682D01*
X318770D01*
X322102D02*
X325434Y387350D01*
X328767Y395681D02*
X330433Y397347D01*
X333765D01*
X335431Y395681D01*
Y394015D01*
X333765Y392348D01*
X332099D01*
X333765D01*
X335431Y390682D01*
Y389016D01*
X333765Y387350D01*
X330433D01*
X328767Y389016D01*
X134620Y368300D02*
Y378297D01*
X139618D01*
X141285Y376631D01*
Y373298D01*
X139618Y371632D01*
X134620D01*
X137952D02*
X141285Y368300D01*
X151281D02*
X144617D01*
X151281Y374964D01*
Y376631D01*
X149615Y378297D01*
X146283D01*
X144617Y376631D01*
X63500Y323850D02*
Y333847D01*
X68498D01*
X70164Y332181D01*
Y328848D01*
X68498Y327182D01*
X63500D01*
X66832D02*
X70164Y323850D01*
X73497D02*
X76829D01*
X75163D01*
Y333847D01*
X73497Y332181D01*
X282255Y367741D02*
X280588Y369407D01*
X277256D01*
X275590Y367741D01*
Y361076D01*
X277256Y359410D01*
X280588D01*
X282255Y361076D01*
X287253Y359410D02*
Y367741D01*
Y364408D01*
X285587D01*
X288919D01*
X287253D01*
Y367741D01*
X288919Y369407D01*
X293917Y367741D02*
X295584Y369407D01*
X298916D01*
X300582Y367741D01*
Y366074D01*
X298916Y364408D01*
X297250D01*
X298916D01*
X300582Y362742D01*
Y361076D01*
X298916Y359410D01*
X295584D01*
X293917Y361076D01*
X522285Y299161D02*
X520618Y300827D01*
X517286D01*
X515620Y299161D01*
Y292496D01*
X517286Y290830D01*
X520618D01*
X522285Y292496D01*
X527283Y290830D02*
Y299161D01*
Y295828D01*
X525617D01*
X528949D01*
X527283D01*
Y299161D01*
X528949Y300827D01*
X540612Y290830D02*
X533947D01*
X540612Y297495D01*
Y299161D01*
X538946Y300827D01*
X535614D01*
X533947Y299161D01*
X15554Y132791D02*
X13888Y134457D01*
X10556D01*
X8890Y132791D01*
Y126126D01*
X10556Y124460D01*
X13888D01*
X15554Y126126D01*
X20553Y124460D02*
Y132791D01*
Y129458D01*
X18887D01*
X22219D01*
X20553D01*
Y132791D01*
X22219Y134457D01*
X27217Y124460D02*
X30550D01*
X28884D01*
Y134457D01*
X27217Y132791D01*
X24444Y333451D02*
X22778Y335117D01*
X19446D01*
X17780Y333451D01*
Y326786D01*
X19446Y325120D01*
X22778D01*
X24444Y326786D01*
X27777Y335117D02*
X34441D01*
Y333451D01*
X27777Y326786D01*
Y325120D01*
X314004Y27381D02*
X312338Y29047D01*
X309006D01*
X307340Y27381D01*
Y20716D01*
X309006Y19050D01*
X312338D01*
X314004Y20716D01*
X324001Y29047D02*
X320669Y27381D01*
X317337Y24048D01*
Y20716D01*
X319003Y19050D01*
X322335D01*
X324001Y20716D01*
Y22382D01*
X322335Y24048D01*
X317337D01*
X557210Y324434D02*
X555543Y326100D01*
X552211D01*
X550545Y324434D01*
Y317769D01*
X552211Y316103D01*
X555543D01*
X557210Y317769D01*
X567206Y326100D02*
X560542D01*
Y321101D01*
X563874Y322767D01*
X565540D01*
X567206Y321101D01*
Y317769D01*
X565540Y316103D01*
X562208D01*
X560542Y317769D01*
X419414Y419811D02*
X417748Y421477D01*
X414416D01*
X412750Y419811D01*
Y413146D01*
X414416Y411480D01*
X417748D01*
X419414Y413146D01*
X427745Y411480D02*
Y421477D01*
X422747Y416478D01*
X429411D01*
X369884Y126441D02*
X368218Y128107D01*
X364886D01*
X363220Y126441D01*
Y119776D01*
X364886Y118110D01*
X368218D01*
X369884Y119776D01*
X373217Y126441D02*
X374883Y128107D01*
X378215D01*
X379881Y126441D01*
Y124775D01*
X378215Y123108D01*
X376549D01*
X378215D01*
X379881Y121442D01*
Y119776D01*
X378215Y118110D01*
X374883D01*
X373217Y119776D01*
X286064Y442671D02*
X284398Y444337D01*
X281066D01*
X279400Y442671D01*
Y436006D01*
X281066Y434340D01*
X284398D01*
X286064Y436006D01*
X296061Y434340D02*
X289397D01*
X296061Y441004D01*
Y442671D01*
X294395Y444337D01*
X291063D01*
X289397Y442671D01*
X109535Y332181D02*
X107868Y333847D01*
X104536D01*
X102870Y332181D01*
Y325516D01*
X104536Y323850D01*
X107868D01*
X109535Y325516D01*
X112867Y323850D02*
X116199D01*
X114533D01*
Y333847D01*
X112867Y332181D01*
D21*
X99340Y339400D02*
Y440600D01*
X7340D02*
X99340D01*
X7340Y339400D02*
Y440600D01*
Y339400D02*
X99340D01*
X498830D02*
Y440600D01*
Y339400D02*
X590830D01*
Y440600D01*
X498830D02*
X590830D01*
X49730Y95530D02*
X150930D01*
X49730Y3530D02*
Y95530D01*
Y3530D02*
X150930D01*
Y95530D01*
D22*
X124460Y115565D02*
Y105408D01*
X129538Y100330D01*
X134617Y105408D01*
Y115565D01*
X149852Y113026D02*
X147313Y115565D01*
X142234D01*
X139695Y113026D01*
Y102869D01*
X142234Y100330D01*
X147313D01*
X149852Y102869D01*
X165087Y113026D02*
X162548Y115565D01*
X157469D01*
X154930Y113026D01*
Y102869D01*
X157469Y100330D01*
X162548D01*
X165087Y102869D01*
X434340Y307335D02*
Y294639D01*
X436879Y292100D01*
X441958D01*
X444497Y294639D01*
Y307335D01*
X459732Y292100D02*
X449575D01*
X459732Y302257D01*
Y304796D01*
X457193Y307335D01*
X452114D01*
X449575Y304796D01*
X208280Y373375D02*
Y360679D01*
X210819Y358140D01*
X215898D01*
X218437Y360679D01*
Y373375D01*
X223515Y358140D02*
X228593D01*
X226054D01*
Y373375D01*
X223515Y370836D01*
X447038Y438145D02*
X441959D01*
X439420Y435606D01*
Y425449D01*
X441959Y422910D01*
X447038D01*
X449577Y425449D01*
Y435606D01*
X447038Y438145D01*
X454655D02*
Y425449D01*
X457194Y422910D01*
X462273D01*
X464812Y425449D01*
Y438145D01*
X469890D02*
X480047D01*
X474968D01*
Y422910D01*
X115570Y439415D02*
X120648D01*
X118109D01*
Y424180D01*
X115570D01*
X120648D01*
X128266D02*
Y439415D01*
X138423Y424180D01*
Y439415D01*
D23*
X447040Y129295D02*
X457037D01*
X452038D01*
Y114300D01*
X462035Y129295D02*
Y114300D01*
X469533D01*
X472032Y116799D01*
Y126796D01*
X469533Y129295D01*
X462035D01*
X487027D02*
X477030D01*
Y114300D01*
X487027D01*
X477030Y121798D02*
X482029D01*
X517017Y126796D02*
X514518Y129295D01*
X509520D01*
X507021Y126796D01*
Y116799D01*
X509520Y114300D01*
X514518D01*
X517017Y116799D01*
Y121798D01*
X512019D01*
X522016Y124297D02*
Y114300D01*
Y119298D01*
X524515Y121798D01*
X527014Y124297D01*
X529513D01*
X539510Y114300D02*
X544508D01*
X547008Y116799D01*
Y121798D01*
X544508Y124297D01*
X539510D01*
X537011Y121798D01*
Y116799D01*
X539510Y114300D01*
X552006Y124297D02*
Y116799D01*
X554505Y114300D01*
X562003D01*
Y124297D01*
X567001Y109302D02*
Y124297D01*
X574499D01*
X576998Y121798D01*
Y116799D01*
X574499Y114300D01*
X567001D01*
D24*
X494030Y102707D02*
Y92710D01*
X499028D01*
X500695Y94376D01*
Y101041D01*
X499028Y102707D01*
X494030D01*
X504027D02*
Y96042D01*
X507359Y92710D01*
X510691Y96042D01*
Y102707D01*
X514024D02*
X520688D01*
X517356D01*
Y92710D01*
X534017Y102707D02*
Y92710D01*
X540682D01*
X544014D02*
Y102707D01*
X549012D01*
X550678Y101041D01*
Y97708D01*
X549012Y96042D01*
X544014D01*
X560675Y102707D02*
X554011D01*
Y97708D01*
X557343D01*
X554011D01*
Y92710D01*
X492760Y73660D02*
Y83657D01*
X497758D01*
X499425Y81991D01*
Y78658D01*
X497758Y76992D01*
X492760D01*
X502757Y73660D02*
Y83657D01*
X509421Y73660D01*
Y83657D01*
X512754Y73660D02*
X516086D01*
X514420D01*
Y83657D01*
X512754Y81991D01*
X521084D02*
X522750Y83657D01*
X526083D01*
X527749Y81991D01*
Y75326D01*
X526083Y73660D01*
X522750D01*
X521084Y75326D01*
Y81991D01*
X531081D02*
X532747Y83657D01*
X536079D01*
X537746Y81991D01*
Y75326D01*
X536079Y73660D01*
X532747D01*
X531081Y75326D01*
Y81991D01*
X546076Y73660D02*
Y83657D01*
X541078Y78658D01*
X547742D01*
X557739Y83657D02*
X554407Y81991D01*
X551074Y78658D01*
Y75326D01*
X552741Y73660D01*
X556073D01*
X557739Y75326D01*
Y76992D01*
X556073Y78658D01*
X551074D01*
D25*
X528320Y39370D02*
D03*
M02*
