M48
;Layer_Color=9474304
;FILE_FORMAT=4:4
METRIC,LZ
;TYPE=PLATED
T1F00S00C0.7110
T2F00S00C0.9000
T3F00S00C1.4000
%
T01
X0044704Y0021971
X0019812Y0028702
T02
X0052959Y0017225
X0056896Y0019892
X0040894Y0017352
X0033909Y0021129
X0029083Y0023956
X0017526Y0024304
Y0014304
X0014398Y0012954
X0018622Y0010668
Y0006604
Y000254
X0028622
Y0006604
Y0010668
X0033909Y0011129
X0012366Y0017907
X0010922Y0020654
X0006858Y0020908
X0002413
X0002366Y0017907
X0004398Y0012954
X0002413Y0030908
X0006858
X0010922Y0030654
X0014351Y0035353
X0017526Y0038528
X0020527Y0038608
X0016082Y0042799
X0026082
X0030527Y0038608
X0029083Y0033956
X0033909Y0035226
X0037037Y0033274
Y0037719
X0047037
Y0033274
X0040894Y0027352
X0033909Y0025226
X0017526Y0028528
X0014351Y0025353
X0052959Y0027225
X0056896Y0029892
T03
X0012573Y0004953
X0007493
X0005334Y003646
Y004154
X0054483
Y003646
M30
