G04 Layer_Color=8388736*
%FSLAX44Y44*%
%MOMM*%
G71*
G01*
G75*
%ADD17C,0.3000*%
%ADD38O,3.2032X0.8532*%
%ADD39R,3.2032X0.8532*%
%ADD40C,2.7032*%
%ADD41R,2.6032X2.6032*%
%ADD42C,2.6032*%
%ADD43C,2.0032*%
%ADD44R,2.0032X2.0032*%
%ADD45R,2.0032X2.0032*%
%ADD46C,1.7032*%
%ADD47R,1.7032X1.7032*%
%ADD48C,1.7032*%
%ADD49R,1.7032X1.7032*%
%ADD50R,2.6032X2.6032*%
%ADD51C,1.9032*%
%ADD52C,1.4732*%
G36*
X871261Y444072D02*
X871912Y443992D01*
X872679Y443830D01*
X873335Y443620D01*
X874117Y443269D01*
X874908Y442785D01*
X875676Y442153D01*
X876440Y441282D01*
X876928Y440499D01*
X877281Y439688D01*
X877533Y438741D01*
X877681Y437462D01*
X877694Y436629D01*
X877636Y435700D01*
X877446Y434595D01*
X877198Y433781D01*
X876838Y432978D01*
X876346Y432163D01*
X875880Y431522D01*
X875330Y430863D01*
X874700Y430244D01*
X874075Y429774D01*
X873343Y429336D01*
X872849Y429070D01*
X873435Y428896D01*
X873944Y428750D01*
X874361Y428571D01*
X874629Y428427D01*
X875019Y428184D01*
X875275Y428017D01*
X875603Y427830D01*
X875882Y427718D01*
X876103Y427662D01*
X876329Y427627D01*
X876560Y427612D01*
X876715Y427612D01*
X877023Y427640D01*
X877247Y427686D01*
X877532Y427785D01*
X877857Y427971D01*
X878094Y428160D01*
X878374Y428426D01*
X878590Y428648D01*
X878908Y428980D01*
X879217Y429314D01*
X879512Y429657D01*
X879699Y429893D01*
X879963Y430261D01*
X880166Y430580D01*
X880357Y430909D01*
X880501Y431178D01*
X880603Y431383D01*
X880766Y431730D01*
X880858Y431940D01*
X880978Y432222D01*
X881097Y432504D01*
X881218Y432784D01*
X881375Y433129D01*
X881545Y433467D01*
X881771Y433857D01*
X882031Y434226D01*
X882317Y434580D01*
X882562Y434872D01*
X882852Y435228D01*
X883041Y435468D01*
X883325Y435829D01*
X883516Y436066D01*
X883711Y436299D01*
X884015Y436635D01*
X884284Y436898D01*
X884630Y437189D01*
X885001Y437451D01*
X885593Y437797D01*
X886006Y437999D01*
X886356Y438154D01*
X886783Y438322D01*
X887215Y438469D01*
X887654Y438595D01*
X888248Y438727D01*
X888699Y438798D01*
X889232Y438846D01*
X889538Y438857D01*
X889999Y438849D01*
X890305Y438827D01*
X890533Y438802D01*
X890760Y438768D01*
X891134Y438694D01*
X891574Y438574D01*
X891931Y438448D01*
X892416Y438233D01*
X892819Y438020D01*
X893082Y437867D01*
X893343Y437708D01*
X893729Y437462D01*
X894046Y437250D01*
X894357Y437031D01*
X894659Y436802D01*
X894952Y436562D01*
X895231Y436307D01*
X895497Y436038D01*
X895800Y435698D01*
X896041Y435403D01*
X896318Y435040D01*
X896627Y434606D01*
X897039Y433969D01*
X897230Y433642D01*
X897515Y433106D01*
X897710Y432695D01*
X897891Y432276D01*
X898084Y431780D01*
X898235Y431350D01*
X898416Y430770D01*
X898498Y430477D01*
X898575Y430184D01*
X898682Y429741D01*
X898808Y429147D01*
X898877Y428773D01*
X898951Y428324D01*
X898996Y428023D01*
X899037Y427721D01*
X899074Y427419D01*
X899115Y427041D01*
X899158Y426586D01*
X899203Y425978D01*
X899227Y425522D01*
X899241Y425066D01*
X899247Y424610D01*
X899245Y424306D01*
X899238Y424002D01*
X899219Y423547D01*
X899188Y423092D01*
X899129Y422488D01*
X899070Y422037D01*
X898997Y421587D01*
X898911Y421139D01*
X898811Y420695D01*
X898695Y420253D01*
X898565Y419816D01*
X898392Y419312D01*
X898227Y418886D01*
X898077Y418536D01*
X897915Y418190D01*
X897778Y417918D01*
X897634Y417649D01*
X897364Y417188D01*
X897116Y416804D01*
X896715Y416248D01*
X896573Y416069D01*
X896125Y415550D01*
X895862Y415274D01*
X895191Y414651D01*
X894776Y414314D01*
X894218Y413910D01*
X892476Y412943D01*
X892050Y412765D01*
X891618Y412607D01*
X891252Y412492D01*
X890957Y412413D01*
X890511Y412316D01*
X889985Y412239D01*
X889531Y412207D01*
X889152Y412206D01*
X888393Y412273D01*
X887941Y412355D01*
X887568Y412447D01*
X886836Y412691D01*
X886479Y412843D01*
X886050Y413030D01*
X885527Y413364D01*
X884488Y414173D01*
X884107Y414555D01*
X883709Y415022D01*
X883527Y415267D01*
X883277Y415648D01*
X883054Y416043D01*
X882803Y416588D01*
X882646Y417011D01*
X882456Y417663D01*
X882324Y418257D01*
X882219Y418863D01*
X882170Y419216D01*
X882175Y419169D01*
X882155Y419323D01*
X882170Y419216D01*
X882044Y420329D01*
X881992Y420950D01*
X881962Y421490D01*
X881952Y422023D01*
X881969Y422580D01*
X882002Y422984D01*
X882050Y423341D01*
X882222Y424057D01*
X882330Y424359D01*
X882469Y424673D01*
X882623Y424842D01*
X882773Y424854D01*
X882917Y424697D01*
X882922Y424075D01*
X882916Y423482D01*
X882978Y423047D01*
X883125Y422577D01*
X883315Y422068D01*
X883511Y421618D01*
X883816Y421110D01*
X884201Y420658D01*
X884536Y420370D01*
X884860Y420147D01*
X885288Y419899D01*
X885595Y419737D01*
X885997Y419548D01*
X886412Y419398D01*
X886891Y419297D01*
X887531Y419236D01*
X888470Y419200D01*
X889207Y419230D01*
X889742Y419302D01*
X890693Y419564D01*
X891324Y419842D01*
X891877Y420161D01*
X892207Y420378D01*
X892690Y420723D01*
X893083Y421024D01*
X893312Y421213D01*
X893462Y421342D01*
X893752Y421608D01*
X893994Y421852D01*
X894350Y422259D01*
X894644Y422653D01*
X894961Y423153D01*
X895195Y423588D01*
X895365Y423945D01*
X895795Y425102D01*
X896062Y426252D01*
X896147Y426885D01*
X896192Y427425D01*
X896217Y427917D01*
X896229Y428410D01*
X896231Y428656D01*
X896226Y429001D01*
X896195Y429590D01*
X896160Y429932D01*
X896097Y430370D01*
X895981Y430950D01*
X895858Y431428D01*
X895742Y431806D01*
X895553Y432314D01*
X895345Y432761D01*
X895042Y433268D01*
X894742Y433659D01*
X894505Y433910D01*
X894246Y434140D01*
X893966Y434342D01*
X893755Y434469D01*
X892971Y434764D01*
X892680Y434815D01*
X892286Y434839D01*
X891844Y434812D01*
X891264Y434697D01*
X890888Y434574D01*
X890265Y434276D01*
X889716Y433863D01*
X889473Y433621D01*
X889208Y433326D01*
X888884Y432952D01*
X888693Y432726D01*
X888507Y432496D01*
X888220Y432099D01*
X887993Y431721D01*
X887810Y431372D01*
X887591Y430931D01*
X887315Y430407D01*
X887095Y430023D01*
X886865Y429645D01*
X886680Y429355D01*
X886436Y428985D01*
X886127Y428541D01*
X885831Y428148D01*
X885548Y427806D01*
X885183Y427405D01*
X884869Y427092D01*
X884503Y426764D01*
X884160Y426488D01*
X883537Y426090D01*
X883074Y425881D01*
X882731Y425762D01*
X882235Y425624D01*
X881572Y425479D01*
X881196Y425402D01*
X880637Y425307D01*
X880270Y425288D01*
X879765Y425318D01*
X879315Y425380D01*
X878932Y425450D01*
X878588Y425520D01*
X878115Y425624D01*
X877900Y425675D01*
X878122Y425345D01*
X878363Y424882D01*
X878663Y424271D01*
X878879Y423793D01*
X879040Y423404D01*
X879153Y423110D01*
X879225Y422913D01*
X879391Y422416D01*
X879481Y422115D01*
X879658Y421406D01*
X879778Y420741D01*
X879847Y420174D01*
X879886Y419655D01*
X879903Y418924D01*
X879866Y417977D01*
X879808Y417343D01*
X879701Y416548D01*
X879568Y415807D01*
X879367Y414971D01*
X879158Y414312D01*
X878924Y413725D01*
X878645Y413167D01*
X878404Y412770D01*
X878133Y412394D01*
X877688Y411893D01*
X877424Y411642D01*
X877065Y411337D01*
X876857Y411176D01*
X876556Y410960D01*
X876292Y410783D01*
X876021Y410612D01*
X875700Y410420D01*
X875328Y410211D01*
X875046Y410061D01*
X874714Y409893D01*
X874283Y409691D01*
X873700Y409449D01*
X873158Y409258D01*
X872708Y409127D01*
X872406Y409053D01*
X871897Y408955D01*
X871433Y408895D01*
X870966Y408860D01*
X870600Y408848D01*
X869865Y408863D01*
X869024Y408931D01*
X868604Y408983D01*
X867925Y409087D01*
X867097Y409249D01*
X866586Y409370D01*
X866181Y409479D01*
X865680Y409631D01*
X865088Y409836D01*
X864507Y410069D01*
X863475Y410568D01*
X862579Y411104D01*
X861768Y411683D01*
X861041Y412292D01*
X860393Y412920D01*
X859786Y413596D01*
X859351Y414144D01*
X858971Y414673D01*
X858730Y415037D01*
X858442Y415502D01*
X858063Y416173D01*
X857859Y416566D01*
X857570Y417164D01*
X857366Y417621D01*
X857051Y418393D01*
X856766Y419176D01*
X856559Y419808D01*
X856256Y420866D01*
X856162Y421236D01*
X855773Y423119D01*
X855657Y423886D01*
X855543Y424883D01*
X855481Y425701D01*
X855448Y426665D01*
X855456Y427331D01*
X855545Y428427D01*
X855660Y429208D01*
X855726Y429583D01*
X855832Y430127D01*
X855963Y430471D01*
X856094Y429958D01*
X856133Y429008D01*
X856236Y428090D01*
X856437Y427049D01*
X856669Y426176D01*
X856901Y425446D01*
X857277Y424401D01*
X857661Y423439D01*
X857798Y423120D01*
X858390Y421856D01*
X858802Y421083D01*
X859089Y420590D01*
X859512Y419921D01*
X859967Y419271D01*
X860344Y418781D01*
X860979Y418045D01*
X861223Y417790D01*
X861667Y417363D01*
X862133Y416964D01*
X862409Y416749D01*
X862764Y416497D01*
X863130Y416263D01*
X863584Y416009D01*
X863895Y415857D01*
X864294Y415685D01*
X864620Y415563D01*
X865035Y415428D01*
X865457Y415312D01*
X865885Y415214D01*
X866318Y415135D01*
X866754Y415072D01*
X867192Y415025D01*
X867588Y414997D01*
X868072Y414978D01*
X868511Y414977D01*
X868861Y414987D01*
X869210Y415008D01*
X869644Y415048D01*
X869990Y415094D01*
X870505Y415184D01*
X871142Y415337D01*
X871478Y415438D01*
X871853Y415568D01*
X872265Y415733D01*
X872589Y415882D01*
X872906Y416045D01*
X873364Y416317D01*
X873797Y416622D01*
X874068Y416845D01*
X874385Y417144D01*
X874673Y417467D01*
X875001Y417922D01*
X875329Y418533D01*
X875462Y418856D01*
X875649Y419445D01*
X875729Y419793D01*
X875790Y420147D01*
X875845Y420643D01*
X875862Y421189D01*
X875831Y421731D01*
X875737Y422304D01*
X875559Y422891D01*
X875339Y423359D01*
X875078Y423752D01*
X874667Y424196D01*
X874220Y424553D01*
X873566Y424941D01*
X872863Y425244D01*
X872143Y425463D01*
X871036Y425642D01*
X870602Y425663D01*
X870073Y425653D01*
X869028Y425526D01*
X868544Y425393D01*
X868216Y425256D01*
X867852Y425024D01*
X867755Y424940D01*
X867636Y424816D01*
X867581Y424749D01*
X865353Y432298D01*
X865710Y432163D01*
X866146Y432015D01*
X866440Y431928D01*
X866960Y431798D01*
X867336Y431724D01*
X867789Y431659D01*
X868144Y431626D01*
X868601Y431606D01*
X869110Y431612D01*
X869519Y431634D01*
X869875Y431666D01*
X870256Y431714D01*
X870784Y431806D01*
X871379Y431950D01*
X871599Y432014D01*
X872104Y432189D01*
X872524Y432368D01*
X872798Y432502D01*
X873132Y432688D01*
X873519Y432941D01*
X873686Y433063D01*
X873946Y433277D01*
X874288Y433654D01*
X874467Y433985D01*
X874573Y434352D01*
X874621Y434845D01*
X874608Y435211D01*
X874584Y435443D01*
X874540Y435694D01*
X874472Y435964D01*
X874294Y436414D01*
X874142Y436683D01*
X873929Y436971D01*
X873638Y437256D01*
X873497Y437365D01*
X873217Y437542D01*
X872895Y437702D01*
X872533Y437842D01*
X872188Y437949D01*
X871939Y438011D01*
X871713Y438058D01*
X871106Y438139D01*
X870699Y438159D01*
X870496Y438159D01*
X870014Y438134D01*
X869609Y438086D01*
X869057Y437985D01*
X868462Y437835D01*
X868022Y437698D01*
X867254Y437415D01*
X866949Y437287D01*
X866393Y437031D01*
X865939Y436800D01*
X865316Y436453D01*
X864967Y436242D01*
X864688Y436065D01*
X864391Y435870D01*
X864013Y435611D01*
X863764Y435435D01*
X863433Y435197D01*
X863126Y434972D01*
X862921Y434821D01*
X862737Y434684D01*
X862696Y434654D01*
X859869Y440389D01*
X860422Y440863D01*
X861103Y441329D01*
X861737Y441741D01*
X862381Y442132D01*
X863242Y442597D01*
X863981Y442936D01*
X864619Y443182D01*
X865459Y443451D01*
X866030Y443602D01*
X866901Y443788D01*
X867685Y443916D01*
X868179Y443980D01*
X868775Y444040D01*
X869607Y444096D01*
X870271Y444112D01*
X871261Y444072D01*
D02*
G37*
G36*
X874750Y449930D02*
X875000Y449180D01*
X875450Y448380D01*
X876050Y447480D01*
X876700Y446680D01*
X877250Y446080D01*
X877950Y445480D01*
X878650Y445030D01*
X879500Y444630D01*
X880500Y444280D01*
X881550Y444030D01*
X882500Y443880D01*
X884300D01*
X885200Y444080D01*
X886350Y444430D01*
X887550Y445080D01*
X888400Y445580D01*
X889200Y446130D01*
X890200Y446930D01*
X890850Y447630D01*
X891400Y448280D01*
X895100Y443880D01*
X894500Y443330D01*
X892950Y442080D01*
X891850Y441380D01*
X890150Y440580D01*
X888150Y439880D01*
X886400Y439480D01*
X885100Y439330D01*
X884000Y439280D01*
X883100Y439330D01*
X881850Y439530D01*
X880750Y439880D01*
X879700Y440330D01*
X879000Y440780D01*
X878100Y441530D01*
X877200Y442330D01*
X876200Y443580D01*
X875350Y444780D01*
X874650Y446380D01*
X874200Y448280D01*
Y449830D01*
X874450Y450730D01*
X874750Y449930D01*
D02*
G37*
G36*
X886700Y448930D02*
X882750Y444980D01*
X878850Y448880D01*
X882550Y453080D01*
X886700Y448930D01*
D02*
G37*
D17*
X-31750Y-38100D02*
X918250D01*
X-31750D02*
Y461900D01*
X918250Y-38100D02*
Y461900D01*
X-31750D02*
X918250D01*
D38*
X607530Y130810D02*
D03*
X507530D02*
D03*
Y219710D02*
D03*
Y207010D02*
D03*
Y194310D02*
D03*
Y181610D02*
D03*
Y168910D02*
D03*
Y156210D02*
D03*
Y143510D02*
D03*
X607530Y232410D02*
D03*
Y219710D02*
D03*
Y207010D02*
D03*
Y194310D02*
D03*
Y181610D02*
D03*
Y168910D02*
D03*
Y156210D02*
D03*
Y143510D02*
D03*
X507530Y80010D02*
D03*
Y92710D02*
D03*
Y105410D02*
D03*
Y118110D02*
D03*
Y67310D02*
D03*
X607530D02*
D03*
Y118110D02*
D03*
Y105410D02*
D03*
Y92710D02*
D03*
Y80010D02*
D03*
D39*
X507530Y232410D02*
D03*
D40*
X0Y0D02*
D03*
D41*
X95250Y11900D02*
D03*
X356870D02*
D03*
X528320Y396240D02*
D03*
D42*
X44450Y11900D02*
D03*
X306070D02*
D03*
X579120Y396240D02*
D03*
X859790Y110490D02*
D03*
D43*
X-10160Y123190D02*
D03*
Y148590D02*
D03*
Y173990D02*
D03*
Y199390D02*
D03*
Y224790D02*
D03*
Y250190D02*
D03*
Y275590D02*
D03*
X196850Y128270D02*
D03*
X250190Y156210D02*
D03*
X322580Y220980D02*
D03*
Y182880D02*
D03*
D44*
X-10160Y300990D02*
D03*
D45*
X222250Y128270D02*
D03*
X275590Y156210D02*
D03*
X347980Y220980D02*
D03*
Y182880D02*
D03*
D46*
X151130Y224790D02*
D03*
X125730D02*
D03*
X252730Y274320D02*
D03*
X227330D02*
D03*
D47*
X100330Y224790D02*
D03*
X201930Y274320D02*
D03*
D48*
X252730Y403860D02*
D03*
X227330D02*
D03*
X201930D02*
D03*
X176530D02*
D03*
X151130D02*
D03*
X125730D02*
D03*
X100330D02*
D03*
X252730Y327660D02*
D03*
X227330D02*
D03*
X201930D02*
D03*
X176530D02*
D03*
X151130D02*
D03*
X125730D02*
D03*
D49*
X100330D02*
D03*
D50*
X859790Y161290D02*
D03*
D51*
X54610Y429730D02*
D03*
Y329730D02*
D03*
X387350Y321780D02*
D03*
Y221780D02*
D03*
X199860Y440690D02*
D03*
X99860D02*
D03*
X668020Y-4280D02*
D03*
Y95720D02*
D03*
X263690Y83820D02*
D03*
X363690D02*
D03*
X397040Y38100D02*
D03*
X497040D02*
D03*
X-4280Y85090D02*
D03*
X95720D02*
D03*
X469900Y69380D02*
D03*
Y169380D02*
D03*
X430530Y230340D02*
D03*
Y130340D02*
D03*
X467360Y324320D02*
D03*
Y224320D02*
D03*
X690880Y80810D02*
D03*
Y180810D02*
D03*
X657860Y217640D02*
D03*
Y117640D02*
D03*
X157480Y85560D02*
D03*
Y-14440D02*
D03*
X735330Y182080D02*
D03*
Y82080D02*
D03*
X779780D02*
D03*
Y182080D02*
D03*
X760260Y271780D02*
D03*
X860260D02*
D03*
X760260Y231140D02*
D03*
X860260D02*
D03*
X760260Y-5080D02*
D03*
X860260D02*
D03*
X760260Y35560D02*
D03*
X860260D02*
D03*
X630390Y20320D02*
D03*
X530390D02*
D03*
X641820Y275590D02*
D03*
X541820D02*
D03*
D52*
X125730Y148590D02*
D03*
X476250Y146050D02*
D03*
X635000Y143510D02*
D03*
X648970Y156210D02*
D03*
X167640Y250190D02*
D03*
M02*
