G04 Layer_Color=16711935*
%FSLAX44Y44*%
%MOMM*%
G71*
G01*
G75*
%ADD17C,0.3000*%
%ADD40C,2.7032*%
%ADD41R,2.6032X2.6032*%
%ADD42C,2.6032*%
%ADD43C,2.0032*%
%ADD44R,2.0032X2.0032*%
%ADD45R,2.0032X2.0032*%
%ADD46C,1.7032*%
%ADD47R,1.7032X1.7032*%
%ADD48C,1.7032*%
%ADD49R,1.7032X1.7032*%
%ADD50R,2.6032X2.6032*%
%ADD51C,1.9032*%
%ADD52C,1.4732*%
G36*
X885533Y441557D02*
X886365Y441500D01*
X886961Y441440D01*
X887455Y441376D01*
X888239Y441248D01*
X889110Y441062D01*
X889681Y440911D01*
X890521Y440643D01*
X891159Y440396D01*
X891898Y440057D01*
X892759Y439592D01*
X893403Y439201D01*
X894037Y438789D01*
X894718Y438323D01*
X895271Y437849D01*
X892444Y432114D01*
X892403Y432144D01*
X892219Y432281D01*
X892014Y432432D01*
X891707Y432657D01*
X891376Y432895D01*
X891127Y433071D01*
X890749Y433330D01*
X890452Y433525D01*
X890173Y433702D01*
X889824Y433913D01*
X889201Y434260D01*
X888747Y434491D01*
X888191Y434747D01*
X887886Y434875D01*
X887118Y435158D01*
X886678Y435294D01*
X886083Y435445D01*
X885531Y435546D01*
X885126Y435594D01*
X884644Y435619D01*
X884441Y435619D01*
X884034Y435599D01*
X883427Y435518D01*
X883201Y435471D01*
X882952Y435409D01*
X882607Y435303D01*
X882245Y435162D01*
X881923Y435003D01*
X881643Y434825D01*
X881502Y434716D01*
X881211Y434431D01*
X880998Y434142D01*
X880846Y433874D01*
X880668Y433424D01*
X880600Y433154D01*
X880556Y432902D01*
X880532Y432671D01*
X880519Y432305D01*
X880567Y431812D01*
X880673Y431445D01*
X880852Y431114D01*
X881194Y430737D01*
X881454Y430523D01*
X881621Y430401D01*
X882008Y430148D01*
X882342Y429962D01*
X882616Y429828D01*
X883036Y429649D01*
X883541Y429474D01*
X883761Y429409D01*
X884356Y429266D01*
X884884Y429174D01*
X885265Y429126D01*
X885621Y429094D01*
X886030Y429072D01*
X886539Y429066D01*
X886996Y429086D01*
X887351Y429119D01*
X887804Y429184D01*
X888180Y429258D01*
X888700Y429388D01*
X888994Y429475D01*
X889430Y429622D01*
X889787Y429758D01*
X887559Y422209D01*
X887504Y422276D01*
X887385Y422400D01*
X887288Y422484D01*
X886924Y422716D01*
X886596Y422854D01*
X886112Y422985D01*
X885067Y423113D01*
X884538Y423123D01*
X884104Y423102D01*
X882997Y422923D01*
X882277Y422704D01*
X881574Y422402D01*
X880920Y422013D01*
X880473Y421656D01*
X880062Y421212D01*
X879801Y420819D01*
X879581Y420351D01*
X879403Y419764D01*
X879309Y419191D01*
X879278Y418649D01*
X879295Y418103D01*
X879350Y417607D01*
X879411Y417253D01*
X879491Y416905D01*
X879678Y416316D01*
X879811Y415993D01*
X880139Y415382D01*
X880467Y414927D01*
X880755Y414604D01*
X881072Y414305D01*
X881343Y414082D01*
X881776Y413777D01*
X882234Y413505D01*
X882551Y413341D01*
X882875Y413193D01*
X883287Y413028D01*
X883662Y412898D01*
X883998Y412797D01*
X884635Y412644D01*
X885150Y412554D01*
X885496Y412509D01*
X885930Y412468D01*
X886279Y412447D01*
X886629Y412437D01*
X887068Y412439D01*
X887552Y412457D01*
X887948Y412485D01*
X888386Y412532D01*
X888822Y412594D01*
X889255Y412674D01*
X889683Y412772D01*
X890105Y412887D01*
X890520Y413023D01*
X890846Y413145D01*
X891245Y413316D01*
X891556Y413469D01*
X892010Y413723D01*
X892376Y413957D01*
X892731Y414209D01*
X893007Y414424D01*
X893473Y414823D01*
X893917Y415250D01*
X894161Y415505D01*
X894796Y416241D01*
X895173Y416731D01*
X895628Y417381D01*
X896051Y418050D01*
X896338Y418543D01*
X896750Y419316D01*
X897342Y420580D01*
X897479Y420899D01*
X897863Y421861D01*
X898239Y422906D01*
X898471Y423637D01*
X898703Y424509D01*
X898904Y425550D01*
X899007Y426469D01*
X899046Y427418D01*
X899177Y427931D01*
X899308Y427587D01*
X899414Y427043D01*
X899480Y426668D01*
X899595Y425887D01*
X899684Y424791D01*
X899692Y424125D01*
X899659Y423161D01*
X899597Y422343D01*
X899483Y421347D01*
X899367Y420579D01*
X898978Y418695D01*
X898884Y418326D01*
X898581Y417268D01*
X898374Y416636D01*
X898089Y415853D01*
X897774Y415081D01*
X897570Y414624D01*
X897281Y414025D01*
X897077Y413633D01*
X896698Y412962D01*
X896410Y412497D01*
X896169Y412133D01*
X895789Y411604D01*
X895354Y411056D01*
X894747Y410380D01*
X894099Y409752D01*
X893372Y409143D01*
X892561Y408564D01*
X891665Y408028D01*
X890633Y407529D01*
X890052Y407296D01*
X889460Y407091D01*
X888959Y406939D01*
X888554Y406830D01*
X888043Y406708D01*
X887215Y406547D01*
X886536Y406443D01*
X886116Y406391D01*
X885275Y406323D01*
X884540Y406309D01*
X884174Y406320D01*
X883707Y406355D01*
X883243Y406415D01*
X882734Y406513D01*
X882432Y406587D01*
X881982Y406718D01*
X881440Y406909D01*
X880857Y407151D01*
X880426Y407353D01*
X880094Y407520D01*
X879812Y407671D01*
X879440Y407880D01*
X879119Y408072D01*
X878848Y408242D01*
X878584Y408420D01*
X878283Y408636D01*
X878075Y408797D01*
X877716Y409102D01*
X877452Y409353D01*
X877007Y409854D01*
X876736Y410230D01*
X876495Y410627D01*
X876216Y411185D01*
X875982Y411772D01*
X875773Y412431D01*
X875572Y413267D01*
X875439Y414008D01*
X875332Y414803D01*
X875274Y415437D01*
X875237Y416384D01*
X875254Y417115D01*
X875293Y417634D01*
X875362Y418201D01*
X875482Y418866D01*
X875659Y419575D01*
X875749Y419876D01*
X875915Y420373D01*
X875987Y420570D01*
X876100Y420864D01*
X876261Y421253D01*
X876477Y421731D01*
X876777Y422342D01*
X877018Y422805D01*
X877240Y423135D01*
X877025Y423084D01*
X876552Y422980D01*
X876208Y422910D01*
X875825Y422840D01*
X875375Y422778D01*
X874870Y422748D01*
X874503Y422767D01*
X873944Y422862D01*
X873568Y422938D01*
X872905Y423084D01*
X872409Y423222D01*
X872066Y423341D01*
X871603Y423550D01*
X870980Y423948D01*
X870637Y424224D01*
X870271Y424552D01*
X869957Y424865D01*
X869592Y425266D01*
X869309Y425608D01*
X869013Y426001D01*
X868704Y426445D01*
X868460Y426815D01*
X868275Y427105D01*
X868045Y427483D01*
X867825Y427867D01*
X867549Y428391D01*
X867330Y428833D01*
X867147Y429181D01*
X866920Y429559D01*
X866633Y429956D01*
X866447Y430186D01*
X866256Y430412D01*
X865932Y430787D01*
X865667Y431081D01*
X865424Y431324D01*
X864875Y431736D01*
X864252Y432034D01*
X863876Y432157D01*
X863296Y432272D01*
X862854Y432299D01*
X862460Y432275D01*
X862169Y432224D01*
X861385Y431929D01*
X861174Y431802D01*
X860894Y431600D01*
X860635Y431371D01*
X860398Y431119D01*
X860098Y430728D01*
X859795Y430221D01*
X859587Y429775D01*
X859398Y429266D01*
X859282Y428888D01*
X859159Y428410D01*
X859043Y427830D01*
X858980Y427392D01*
X858945Y427050D01*
X858914Y426461D01*
X858909Y426116D01*
X858911Y425870D01*
X858923Y425377D01*
X858948Y424885D01*
X858993Y424346D01*
X859078Y423712D01*
X859345Y422562D01*
X859775Y421405D01*
X859945Y421048D01*
X860179Y420612D01*
X860496Y420113D01*
X860790Y419719D01*
X861146Y419313D01*
X861388Y419068D01*
X861678Y418801D01*
X861828Y418672D01*
X862057Y418484D01*
X862450Y418183D01*
X862933Y417838D01*
X863263Y417621D01*
X863816Y417302D01*
X864447Y417024D01*
X865398Y416762D01*
X865933Y416690D01*
X866670Y416660D01*
X867609Y416696D01*
X868249Y416757D01*
X868728Y416858D01*
X869143Y417007D01*
X869545Y417197D01*
X869852Y417359D01*
X870280Y417607D01*
X870604Y417830D01*
X870939Y418118D01*
X871324Y418570D01*
X871629Y419078D01*
X871825Y419528D01*
X872015Y420037D01*
X872162Y420507D01*
X872224Y420942D01*
X872218Y421535D01*
X872223Y422157D01*
X872367Y422314D01*
X872517Y422302D01*
X872671Y422133D01*
X872810Y421819D01*
X872918Y421517D01*
X873090Y420801D01*
X873138Y420444D01*
X873171Y420040D01*
X873188Y419483D01*
X873178Y418950D01*
X873148Y418410D01*
X873096Y417789D01*
X872970Y416675D01*
X872985Y416783D01*
X872965Y416629D01*
X872970Y416675D01*
X872921Y416323D01*
X872816Y415717D01*
X872684Y415122D01*
X872494Y414471D01*
X872337Y414048D01*
X872086Y413503D01*
X871863Y413108D01*
X871613Y412728D01*
X871431Y412482D01*
X871033Y412015D01*
X870652Y411633D01*
X869613Y410824D01*
X869090Y410490D01*
X868661Y410303D01*
X868304Y410151D01*
X867572Y409907D01*
X867199Y409815D01*
X866747Y409733D01*
X865988Y409666D01*
X865609Y409668D01*
X865155Y409699D01*
X864629Y409776D01*
X864183Y409873D01*
X863888Y409952D01*
X863522Y410067D01*
X863090Y410225D01*
X862664Y410403D01*
X860922Y411370D01*
X860364Y411774D01*
X859949Y412111D01*
X859278Y412734D01*
X859015Y413009D01*
X858567Y413529D01*
X858425Y413708D01*
X858024Y414264D01*
X857776Y414648D01*
X857506Y415109D01*
X857362Y415378D01*
X857225Y415650D01*
X857063Y415996D01*
X856913Y416346D01*
X856748Y416772D01*
X856575Y417276D01*
X856445Y417713D01*
X856329Y418154D01*
X856229Y418599D01*
X856143Y419047D01*
X856070Y419496D01*
X856011Y419948D01*
X855952Y420552D01*
X855921Y421007D01*
X855902Y421462D01*
X855895Y421766D01*
X855893Y422070D01*
X855899Y422526D01*
X855913Y422982D01*
X855937Y423438D01*
X855982Y424046D01*
X856025Y424501D01*
X856066Y424879D01*
X856103Y425181D01*
X856144Y425483D01*
X856189Y425784D01*
X856263Y426233D01*
X856332Y426607D01*
X856458Y427201D01*
X856565Y427644D01*
X856642Y427937D01*
X856724Y428230D01*
X856905Y428810D01*
X857056Y429240D01*
X857249Y429736D01*
X857430Y430155D01*
X857625Y430566D01*
X857910Y431102D01*
X858101Y431429D01*
X858513Y432066D01*
X858822Y432500D01*
X859099Y432863D01*
X859340Y433158D01*
X859643Y433498D01*
X859909Y433767D01*
X860188Y434022D01*
X860481Y434262D01*
X860783Y434491D01*
X861094Y434710D01*
X861411Y434922D01*
X861797Y435168D01*
X862058Y435327D01*
X862321Y435480D01*
X862724Y435693D01*
X863209Y435908D01*
X863566Y436034D01*
X864006Y436154D01*
X864380Y436228D01*
X864607Y436262D01*
X864835Y436287D01*
X865141Y436309D01*
X865602Y436317D01*
X865908Y436306D01*
X866441Y436258D01*
X866892Y436188D01*
X867486Y436055D01*
X867925Y435929D01*
X868357Y435782D01*
X868784Y435614D01*
X869134Y435459D01*
X869547Y435257D01*
X870139Y434911D01*
X870510Y434649D01*
X870856Y434358D01*
X871125Y434095D01*
X871429Y433759D01*
X871624Y433526D01*
X871815Y433289D01*
X872099Y432928D01*
X872288Y432688D01*
X872578Y432332D01*
X872823Y432040D01*
X873109Y431686D01*
X873369Y431317D01*
X873595Y430927D01*
X873765Y430589D01*
X873922Y430244D01*
X874043Y429963D01*
X874162Y429682D01*
X874282Y429400D01*
X874374Y429190D01*
X874537Y428843D01*
X874639Y428638D01*
X874783Y428369D01*
X874974Y428040D01*
X875177Y427721D01*
X875441Y427353D01*
X875628Y427117D01*
X875923Y426774D01*
X876232Y426440D01*
X876550Y426108D01*
X876766Y425886D01*
X877046Y425620D01*
X877283Y425431D01*
X877608Y425244D01*
X877893Y425145D01*
X878117Y425100D01*
X878425Y425072D01*
X878580Y425072D01*
X878811Y425087D01*
X879037Y425122D01*
X879258Y425178D01*
X879537Y425290D01*
X879865Y425477D01*
X880121Y425644D01*
X880511Y425887D01*
X880779Y426031D01*
X881196Y426210D01*
X881705Y426356D01*
X882291Y426530D01*
X881797Y426796D01*
X881065Y427234D01*
X880440Y427704D01*
X879810Y428323D01*
X879260Y428982D01*
X878794Y429623D01*
X878302Y430438D01*
X877942Y431241D01*
X877694Y432055D01*
X877504Y433160D01*
X877446Y434090D01*
X877459Y434922D01*
X877607Y436200D01*
X877859Y437148D01*
X878212Y437959D01*
X878700Y438742D01*
X879464Y439613D01*
X880232Y440245D01*
X881023Y440729D01*
X881805Y441080D01*
X882461Y441290D01*
X883228Y441452D01*
X883879Y441532D01*
X884869Y441572D01*
X885533Y441557D01*
D02*
G37*
G36*
X880940Y447290D02*
Y445740D01*
X880490Y443840D01*
X879790Y442240D01*
X878940Y441040D01*
X877940Y439790D01*
X877040Y438990D01*
X876140Y438240D01*
X875440Y437790D01*
X874390Y437340D01*
X873290Y436990D01*
X872040Y436790D01*
X871140Y436740D01*
X870040Y436790D01*
X868740Y436940D01*
X866990Y437340D01*
X864990Y438040D01*
X863290Y438840D01*
X862190Y439540D01*
X860640Y440790D01*
X860040Y441340D01*
X863740Y445740D01*
X864290Y445090D01*
X864940Y444390D01*
X865940Y443590D01*
X866740Y443040D01*
X867590Y442540D01*
X868790Y441890D01*
X869940Y441540D01*
X870840Y441340D01*
X872640D01*
X873590Y441490D01*
X874640Y441740D01*
X875640Y442090D01*
X876490Y442490D01*
X877190Y442940D01*
X877890Y443540D01*
X878440Y444140D01*
X879090Y444940D01*
X879690Y445840D01*
X880140Y446640D01*
X880390Y447390D01*
X880690Y448190D01*
X880940Y447290D01*
D02*
G37*
G36*
X876290Y446340D02*
X872390Y442440D01*
X868440Y446390D01*
X872590Y450540D01*
X876290Y446340D01*
D02*
G37*
D17*
X-31750Y-38100D02*
X918250D01*
X-31750D02*
Y461900D01*
X918250Y-38100D02*
Y461900D01*
X-31750D02*
X918250D01*
D40*
X0Y0D02*
D03*
D41*
X95250Y11900D02*
D03*
X356870D02*
D03*
X528320Y396240D02*
D03*
D42*
X44450Y11900D02*
D03*
X306070D02*
D03*
X579120Y396240D02*
D03*
X859790Y110490D02*
D03*
D43*
X-10160Y123190D02*
D03*
Y148590D02*
D03*
Y173990D02*
D03*
Y199390D02*
D03*
Y224790D02*
D03*
Y250190D02*
D03*
Y275590D02*
D03*
X196850Y128270D02*
D03*
X250190Y156210D02*
D03*
X322580Y220980D02*
D03*
Y182880D02*
D03*
D44*
X-10160Y300990D02*
D03*
D45*
X222250Y128270D02*
D03*
X275590Y156210D02*
D03*
X347980Y220980D02*
D03*
Y182880D02*
D03*
D46*
X151130Y224790D02*
D03*
X125730D02*
D03*
X252730Y274320D02*
D03*
X227330D02*
D03*
D47*
X100330Y224790D02*
D03*
X201930Y274320D02*
D03*
D48*
X252730Y403860D02*
D03*
X227330D02*
D03*
X201930D02*
D03*
X176530D02*
D03*
X151130D02*
D03*
X125730D02*
D03*
X100330D02*
D03*
X252730Y327660D02*
D03*
X227330D02*
D03*
X201930D02*
D03*
X176530D02*
D03*
X151130D02*
D03*
X125730D02*
D03*
D49*
X100330D02*
D03*
D50*
X859790Y161290D02*
D03*
D51*
X54610Y429730D02*
D03*
Y329730D02*
D03*
X387350Y321780D02*
D03*
Y221780D02*
D03*
X199860Y440690D02*
D03*
X99860D02*
D03*
X668020Y-4280D02*
D03*
Y95720D02*
D03*
X263690Y83820D02*
D03*
X363690D02*
D03*
X397040Y38100D02*
D03*
X497040D02*
D03*
X-4280Y85090D02*
D03*
X95720D02*
D03*
X469900Y69380D02*
D03*
Y169380D02*
D03*
X430530Y230340D02*
D03*
Y130340D02*
D03*
X467360Y324320D02*
D03*
Y224320D02*
D03*
X690880Y80810D02*
D03*
Y180810D02*
D03*
X657860Y217640D02*
D03*
Y117640D02*
D03*
X157480Y85560D02*
D03*
Y-14440D02*
D03*
X735330Y182080D02*
D03*
Y82080D02*
D03*
X779780D02*
D03*
Y182080D02*
D03*
X760260Y271780D02*
D03*
X860260D02*
D03*
X760260Y231140D02*
D03*
X860260D02*
D03*
X760260Y-5080D02*
D03*
X860260D02*
D03*
X760260Y35560D02*
D03*
X860260D02*
D03*
X630390Y20320D02*
D03*
X530390D02*
D03*
X641820Y275590D02*
D03*
X541820D02*
D03*
D52*
X125730Y148590D02*
D03*
X476250Y146050D02*
D03*
X635000Y143510D02*
D03*
X648970Y156210D02*
D03*
X167640Y250190D02*
D03*
M02*
