%FSLAX44Y44*%
%MOMM*%
G71*
G01*
G75*
G04 Layer_Color=8388736*
%ADD10R,1.6002X1.8034*%
%ADD11R,1.8034X1.6002*%
%ADD12R,1.3208X1.5240*%
%ADD13R,1.5240X1.3208*%
%ADD14R,2.5400X1.2700*%
%ADD15C,0.4064*%
%ADD16C,0.2540*%
%ADD17C,0.3048*%
%ADD18C,0.0508*%
G04:AMPARAMS|DCode=19|XSize=1.9812mm|YSize=1.9812mm|CornerRadius=0mm|HoleSize=0mm|Usage=FLASHONLY|Rotation=180.000|XOffset=0mm|YOffset=0mm|HoleType=Round|Shape=Octagon|*
%AMOCTAGOND19*
4,1,8,-0.9906,0.4953,-0.9906,-0.4953,-0.4953,-0.9906,0.4953,-0.9906,0.9906,-0.4953,0.9906,0.4953,0.4953,0.9906,-0.4953,0.9906,-0.9906,0.4953,0.0*
%
%ADD19OCTAGOND19*%

%ADD20C,1.2700*%
G04:AMPARAMS|DCode=21|XSize=1.27mm|YSize=1.27mm|CornerRadius=0mm|HoleSize=0mm|Usage=FLASHONLY|Rotation=180.000|XOffset=0mm|YOffset=0mm|HoleType=Round|Shape=Octagon|*
%AMOCTAGOND21*
4,1,8,-0.6350,0.3175,-0.6350,-0.3175,-0.3175,-0.6350,0.3175,-0.6350,0.6350,-0.3175,0.6350,0.3175,0.3175,0.6350,-0.3175,0.6350,-0.6350,0.3175,0.0*
%
%ADD21OCTAGOND21*%

%ADD22O,3.6576X1.8288*%
G04:AMPARAMS|DCode=23|XSize=1.0668mm|YSize=1.0668mm|CornerRadius=0mm|HoleSize=0mm|Usage=FLASHONLY|Rotation=90.000|XOffset=0mm|YOffset=0mm|HoleType=Round|Shape=Octagon|*
%AMOCTAGOND23*
4,1,8,0.2667,0.5334,-0.2667,0.5334,-0.5334,0.2667,-0.5334,-0.2667,-0.2667,-0.5334,0.2667,-0.5334,0.5334,-0.2667,0.5334,0.2667,0.2667,0.5334,0.0*
%
%ADD23OCTAGOND23*%

%ADD24O,3.0480X1.5240*%
%ADD25O,2.7432X1.3716*%
%ADD26O,1.3716X2.7432*%
%ADD27O,1.5240X0.7620*%
%ADD28O,0.7620X1.5240*%
G04:AMPARAMS|DCode=29|XSize=1.524mm|YSize=1.524mm|CornerRadius=0mm|HoleSize=0mm|Usage=FLASHONLY|Rotation=270.000|XOffset=0mm|YOffset=0mm|HoleType=Round|Shape=Octagon|*
%AMOCTAGOND29*
4,1,8,-0.3810,-0.7620,0.3810,-0.7620,0.7620,-0.3810,0.7620,0.3810,0.3810,0.7620,-0.3810,0.7620,-0.7620,0.3810,-0.7620,-0.3810,-0.3810,-0.7620,0.0*
%
%ADD29OCTAGOND29*%

%ADD30O,2.4384X1.2192*%
%ADD31O,1.7780X3.5560*%
%ADD32R,1.8288X1.8288*%
G04:AMPARAMS|DCode=33|XSize=1.2192mm|YSize=1.2192mm|CornerRadius=0mm|HoleSize=0mm|Usage=FLASHONLY|Rotation=0.000|XOffset=0mm|YOffset=0mm|HoleType=Round|Shape=Octagon|*
%AMOCTAGOND33*
4,1,8,0.6096,-0.3048,0.6096,0.3048,0.3048,0.6096,-0.3048,0.6096,-0.6096,0.3048,-0.6096,-0.3048,-0.3048,-0.6096,0.3048,-0.6096,0.6096,-0.3048,0.0*
%
%ADD33OCTAGOND33*%

G04:AMPARAMS|DCode=34|XSize=1.524mm|YSize=1.524mm|CornerRadius=0mm|HoleSize=0mm|Usage=FLASHONLY|Rotation=180.000|XOffset=0mm|YOffset=0mm|HoleType=Round|Shape=Octagon|*
%AMOCTAGOND34*
4,1,8,-0.7620,0.3810,-0.7620,-0.3810,-0.3810,-0.7620,0.3810,-0.7620,0.7620,-0.3810,0.7620,0.3810,0.3810,0.7620,-0.3810,0.7620,-0.7620,0.3810,0.0*
%
%ADD34OCTAGOND34*%

G04:AMPARAMS|DCode=35|XSize=1.6002mm|YSize=1.6002mm|CornerRadius=0mm|HoleSize=0mm|Usage=FLASHONLY|Rotation=0.000|XOffset=0mm|YOffset=0mm|HoleType=Round|Shape=Octagon|*
%AMOCTAGOND35*
4,1,8,0.8001,-0.4001,0.8001,0.4001,0.4001,0.8001,-0.4001,0.8001,-0.8001,0.4001,-0.8001,-0.4001,-0.4001,-0.8001,0.4001,-0.8001,0.8001,-0.4001,0.0*
%
%ADD35OCTAGOND35*%

%ADD36R,1.2192X1.2192*%
G04:AMPARAMS|DCode=37|XSize=1.3716mm|YSize=1.3716mm|CornerRadius=0mm|HoleSize=0mm|Usage=FLASHONLY|Rotation=90.000|XOffset=0mm|YOffset=0mm|HoleType=Round|Shape=Octagon|*
%AMOCTAGOND37*
4,1,8,0.3429,0.6858,-0.3429,0.6858,-0.6858,0.3429,-0.6858,-0.3429,-0.3429,-0.6858,0.3429,-0.6858,0.6858,-0.3429,0.6858,0.3429,0.3429,0.6858,0.0*
%
%ADD37OCTAGOND37*%

G04:AMPARAMS|DCode=38|XSize=1.3716mm|YSize=1.3716mm|CornerRadius=0mm|HoleSize=0mm|Usage=FLASHONLY|Rotation=180.000|XOffset=0mm|YOffset=0mm|HoleType=Round|Shape=Octagon|*
%AMOCTAGOND38*
4,1,8,-0.6858,0.3429,-0.6858,-0.3429,-0.3429,-0.6858,0.3429,-0.6858,0.6858,-0.3429,0.6858,0.3429,0.3429,0.6858,-0.3429,0.6858,-0.6858,0.3429,0.0*
%
%ADD38OCTAGOND38*%

%ADD39C,4.5212*%
%ADD40C,0.9096*%
%ADD41C,1.0160*%
%ADD42C,0.1524*%
%ADD43C,0.1270*%
%ADD44C,0.0000*%
%ADD45R,0.2540X2.5400*%
%ADD46R,0.3810X0.5080*%
%ADD47R,1.7502X1.9534*%
%ADD48R,1.9534X1.7502*%
%ADD49R,1.4708X1.6740*%
%ADD50R,1.6740X1.4708*%
%ADD51R,2.6900X1.4200*%
G04:AMPARAMS|DCode=52|XSize=2.1312mm|YSize=2.1312mm|CornerRadius=0mm|HoleSize=0mm|Usage=FLASHONLY|Rotation=180.000|XOffset=0mm|YOffset=0mm|HoleType=Round|Shape=Octagon|*
%AMOCTAGOND52*
4,1,8,-1.0656,0.5328,-1.0656,-0.5328,-0.5328,-1.0656,0.5328,-1.0656,1.0656,-0.5328,1.0656,0.5328,0.5328,1.0656,-0.5328,1.0656,-1.0656,0.5328,0.0*
%
%ADD52OCTAGOND52*%

%ADD53C,1.4200*%
G04:AMPARAMS|DCode=54|XSize=1.42mm|YSize=1.42mm|CornerRadius=0mm|HoleSize=0mm|Usage=FLASHONLY|Rotation=180.000|XOffset=0mm|YOffset=0mm|HoleType=Round|Shape=Octagon|*
%AMOCTAGOND54*
4,1,8,-0.7100,0.3550,-0.7100,-0.3550,-0.3550,-0.7100,0.3550,-0.7100,0.7100,-0.3550,0.7100,0.3550,0.3550,0.7100,-0.3550,0.7100,-0.7100,0.3550,0.0*
%
%ADD54OCTAGOND54*%

%ADD55O,3.8076X1.9788*%
G04:AMPARAMS|DCode=56|XSize=1.2168mm|YSize=1.2168mm|CornerRadius=0mm|HoleSize=0mm|Usage=FLASHONLY|Rotation=90.000|XOffset=0mm|YOffset=0mm|HoleType=Round|Shape=Octagon|*
%AMOCTAGOND56*
4,1,8,0.3042,0.6084,-0.3042,0.6084,-0.6084,0.3042,-0.6084,-0.3042,-0.3042,-0.6084,0.3042,-0.6084,0.6084,-0.3042,0.6084,0.3042,0.3042,0.6084,0.0*
%
%ADD56OCTAGOND56*%

%ADD57O,3.1980X1.6740*%
%ADD58O,2.8932X1.5216*%
%ADD59O,1.5216X2.8932*%
%ADD60O,1.6740X0.9120*%
%ADD61O,0.9120X1.6740*%
G04:AMPARAMS|DCode=62|XSize=1.674mm|YSize=1.674mm|CornerRadius=0mm|HoleSize=0mm|Usage=FLASHONLY|Rotation=270.000|XOffset=0mm|YOffset=0mm|HoleType=Round|Shape=Octagon|*
%AMOCTAGOND62*
4,1,8,-0.4185,-0.8370,0.4185,-0.8370,0.8370,-0.4185,0.8370,0.4185,0.4185,0.8370,-0.4185,0.8370,-0.8370,0.4185,-0.8370,-0.4185,-0.4185,-0.8370,0.0*
%
%ADD62OCTAGOND62*%

%ADD63O,2.5884X1.3692*%
%ADD64O,1.9280X3.7060*%
%ADD65R,1.9788X1.9788*%
G04:AMPARAMS|DCode=66|XSize=1.3692mm|YSize=1.3692mm|CornerRadius=0mm|HoleSize=0mm|Usage=FLASHONLY|Rotation=0.000|XOffset=0mm|YOffset=0mm|HoleType=Round|Shape=Octagon|*
%AMOCTAGOND66*
4,1,8,0.6846,-0.3423,0.6846,0.3423,0.3423,0.6846,-0.3423,0.6846,-0.6846,0.3423,-0.6846,-0.3423,-0.3423,-0.6846,0.3423,-0.6846,0.6846,-0.3423,0.0*
%
%ADD66OCTAGOND66*%

G04:AMPARAMS|DCode=67|XSize=1.674mm|YSize=1.674mm|CornerRadius=0mm|HoleSize=0mm|Usage=FLASHONLY|Rotation=180.000|XOffset=0mm|YOffset=0mm|HoleType=Round|Shape=Octagon|*
%AMOCTAGOND67*
4,1,8,-0.8370,0.4185,-0.8370,-0.4185,-0.4185,-0.8370,0.4185,-0.8370,0.8370,-0.4185,0.8370,0.4185,0.4185,0.8370,-0.4185,0.8370,-0.8370,0.4185,0.0*
%
%ADD67OCTAGOND67*%

G04:AMPARAMS|DCode=68|XSize=1.7502mm|YSize=1.7502mm|CornerRadius=0mm|HoleSize=0mm|Usage=FLASHONLY|Rotation=0.000|XOffset=0mm|YOffset=0mm|HoleType=Round|Shape=Octagon|*
%AMOCTAGOND68*
4,1,8,0.8751,-0.4375,0.8751,0.4375,0.4375,0.8751,-0.4375,0.8751,-0.8751,0.4375,-0.8751,-0.4375,-0.4375,-0.8751,0.4375,-0.8751,0.8751,-0.4375,0.0*
%
%ADD68OCTAGOND68*%

%ADD69R,1.3692X1.3692*%
G04:AMPARAMS|DCode=70|XSize=1.5216mm|YSize=1.5216mm|CornerRadius=0mm|HoleSize=0mm|Usage=FLASHONLY|Rotation=90.000|XOffset=0mm|YOffset=0mm|HoleType=Round|Shape=Octagon|*
%AMOCTAGOND70*
4,1,8,0.3804,0.7608,-0.3804,0.7608,-0.7608,0.3804,-0.7608,-0.3804,-0.3804,-0.7608,0.3804,-0.7608,0.7608,-0.3804,0.7608,0.3804,0.3804,0.7608,0.0*
%
%ADD70OCTAGOND70*%

G04:AMPARAMS|DCode=71|XSize=1.5216mm|YSize=1.5216mm|CornerRadius=0mm|HoleSize=0mm|Usage=FLASHONLY|Rotation=180.000|XOffset=0mm|YOffset=0mm|HoleType=Round|Shape=Octagon|*
%AMOCTAGOND71*
4,1,8,-0.7608,0.3804,-0.7608,-0.3804,-0.3804,-0.7608,0.3804,-0.7608,0.7608,-0.3804,0.7608,0.3804,0.3804,0.7608,-0.3804,0.7608,-0.7608,0.3804,0.0*
%
%ADD71OCTAGOND71*%

%ADD72C,4.6712*%
%ADD73C,1.0596*%
D18*
X1380582Y755396D02*
Y775132D01*
X1330960D02*
X1380582D01*
X1330960Y755396D02*
Y775132D01*
Y755396D02*
X1380582D01*
X1212596Y718220D02*
X1232332D01*
Y767842D01*
X1212596D02*
X1232332D01*
X1212596Y718220D02*
Y767842D01*
X1394622Y472770D02*
Y492506D01*
Y472770D02*
X1444244D01*
Y492506D01*
X1394622D02*
X1444244D01*
X1528064Y472770D02*
Y492506D01*
X1488522Y472770D02*
Y492506D01*
Y472770D02*
X1528064D01*
X1488522Y492506D02*
X1528064D01*
X1209370Y466182D02*
X1229106D01*
X1209370Y416560D02*
Y466182D01*
Y416560D02*
X1229106D01*
Y466182D01*
X1228182Y304546D02*
Y324282D01*
X1178560D02*
X1228182D01*
X1178560Y304546D02*
Y324282D01*
Y304546D02*
X1228182D01*
X1394622Y441020D02*
Y460756D01*
Y441020D02*
X1444244D01*
Y460756D01*
X1394622D02*
X1444244D01*
X1394622Y396570D02*
Y416306D01*
Y396570D02*
X1444244D01*
Y416306D01*
X1394622D02*
X1444244D01*
X1394622Y371170D02*
Y390906D01*
Y371170D02*
X1444244D01*
Y390906D01*
X1394622D02*
X1444244D01*
X1394622Y345770D02*
Y365506D01*
Y345770D02*
X1444244D01*
Y365506D01*
X1394622D02*
X1444244D01*
X1394622Y320370D02*
Y340106D01*
Y320370D02*
X1444244D01*
Y340106D01*
X1394622D02*
X1444244D01*
X1528064Y342722D02*
Y362458D01*
X1488522Y342722D02*
Y362458D01*
Y342722D02*
X1528064D01*
X1488522Y362458D02*
X1528064D01*
Y371170D02*
Y390906D01*
X1488522Y371170D02*
Y390906D01*
Y371170D02*
X1528064D01*
X1488522Y390906D02*
X1528064D01*
Y396570D02*
Y416306D01*
X1488522Y396570D02*
Y416306D01*
Y396570D02*
X1528064D01*
X1488522Y416306D02*
X1528064D01*
Y320370D02*
Y340106D01*
X1488522Y320370D02*
Y340106D01*
Y320370D02*
X1528064D01*
X1488522Y340106D02*
X1528064D01*
X1364996Y648370D02*
X1384732D01*
Y697992D01*
X1364996D02*
X1384732D01*
X1364996Y648370D02*
Y697992D01*
X1377280Y304546D02*
Y324282D01*
X1327658D02*
X1377280D01*
X1327658Y304546D02*
Y324282D01*
Y304546D02*
X1377280D01*
X1317082D02*
Y324282D01*
X1267460D02*
X1317082D01*
X1267460Y304546D02*
Y324282D01*
Y304546D02*
X1317082D01*
X1609344Y483270D02*
X1629080D01*
Y532892D01*
X1609344D02*
X1629080D01*
X1609344Y483270D02*
Y532892D01*
X1574622Y532730D02*
X1594358D01*
X1574622Y483108D02*
Y532730D01*
Y483108D02*
X1594358D01*
Y532730D01*
X1602832Y352044D02*
Y371780D01*
X1553210D02*
X1602832D01*
X1553210Y352044D02*
Y371780D01*
Y352044D02*
X1602832D01*
X1528064Y447370D02*
Y467106D01*
X1488522Y447370D02*
Y467106D01*
Y447370D02*
X1528064D01*
X1488522Y467106D02*
X1528064D01*
X1324864Y755472D02*
Y775208D01*
X1285322Y755472D02*
Y775208D01*
Y755472D02*
X1324864D01*
X1285322Y775208D02*
X1324864D01*
X1488440Y421894D02*
Y441630D01*
X1527982Y421894D02*
Y441630D01*
X1488440D02*
X1527982D01*
X1488440Y421894D02*
X1527982D01*
X1549146Y518414D02*
X1568882D01*
X1549146Y478872D02*
X1568882D01*
Y518414D01*
X1549146Y478872D02*
Y518414D01*
X1212596Y689864D02*
X1232332D01*
X1212596Y650322D02*
X1232332D01*
Y689864D01*
X1212596Y650322D02*
Y689864D01*
X1333246Y692912D02*
X1352982D01*
X1333246Y653370D02*
X1352982D01*
Y692912D01*
X1333246Y653370D02*
Y692912D01*
X1291920Y440690D02*
X1311656D01*
X1291920Y480232D02*
X1311656D01*
X1291920Y440690D02*
Y480232D01*
X1311656Y440690D02*
Y480232D01*
X1247394Y464312D02*
X1267130D01*
X1247394Y424770D02*
X1267130D01*
Y464312D01*
X1247394Y424770D02*
Y464312D01*
X1460246Y732882D02*
X1479982D01*
Y683260D02*
Y732882D01*
X1460246Y683260D02*
X1479982D01*
X1460246D02*
Y732882D01*
X1533144Y634238D02*
X1552880D01*
X1533144Y673780D02*
X1552880D01*
Y634238D02*
Y673780D01*
X1533144Y634238D02*
Y673780D01*
D47*
X1370072Y765302D02*
D03*
X1341628D02*
D03*
X1405132Y482600D02*
D03*
X1433576D02*
D03*
X1217672Y314452D02*
D03*
X1189228D02*
D03*
X1405132Y450850D02*
D03*
X1433576D02*
D03*
X1405132Y406400D02*
D03*
X1433576D02*
D03*
X1405132Y381000D02*
D03*
X1433576D02*
D03*
X1405132Y355600D02*
D03*
X1433576D02*
D03*
X1405132Y330200D02*
D03*
X1433576D02*
D03*
X1366770Y314452D02*
D03*
X1338326D02*
D03*
X1306572D02*
D03*
X1278128D02*
D03*
X1592322Y361950D02*
D03*
X1563878D02*
D03*
D48*
X1222502Y728730D02*
D03*
Y757174D02*
D03*
X1219200Y455672D02*
D03*
Y427228D02*
D03*
X1374902Y658880D02*
D03*
Y687324D02*
D03*
X1619250Y493780D02*
D03*
Y522224D02*
D03*
X1584452Y522220D02*
D03*
Y493776D02*
D03*
D49*
X1516888Y482600D02*
D03*
X1499752D02*
D03*
X1516888Y352552D02*
D03*
X1499752D02*
D03*
X1516888Y381000D02*
D03*
X1499752D02*
D03*
X1516888Y406400D02*
D03*
X1499752D02*
D03*
X1516888Y330200D02*
D03*
X1499752D02*
D03*
X1517904Y457200D02*
D03*
X1498752D02*
D03*
X1313688Y765302D02*
D03*
X1296552D02*
D03*
X1498600Y431800D02*
D03*
X1517752D02*
D03*
D50*
X1559052Y508254D02*
D03*
Y489102D02*
D03*
X1222502Y679704D02*
D03*
Y660552D02*
D03*
X1343152Y681736D02*
D03*
Y664600D02*
D03*
X1301750Y451866D02*
D03*
Y469002D02*
D03*
X1257300Y453136D02*
D03*
Y436000D02*
D03*
D51*
X958850Y577850D02*
D03*
X1085850Y501650D02*
D03*
Y527050D02*
D03*
Y552450D02*
D03*
Y577850D02*
D03*
X958850Y552450D02*
D03*
Y527050D02*
D03*
Y501650D02*
D03*
D52*
X412750Y746252D02*
D03*
X488950D02*
D03*
X742950D02*
D03*
X666750D02*
D03*
X590550D02*
D03*
D53*
X1521460Y527050D02*
D03*
X1054862Y285750D02*
D03*
X1527810D02*
D03*
X1054862Y342900D02*
D03*
D54*
X1501140Y527050D02*
D03*
X1034542Y285750D02*
D03*
X1507490D02*
D03*
X1034542Y342900D02*
D03*
D55*
X1092200Y349250D02*
D03*
Y323850D02*
D03*
Y298450D02*
D03*
Y273050D02*
D03*
D56*
X1602232Y412242D02*
D03*
X1588262Y400812D02*
D03*
X1569212D02*
D03*
X1555242Y410972D02*
D03*
X1548892Y428752D02*
D03*
X1555242Y446532D02*
D03*
X1569212Y456692D02*
D03*
X1588262D02*
D03*
X1600962Y446532D02*
D03*
X1607312Y428752D02*
D03*
D57*
X1085850Y450850D02*
D03*
Y425450D02*
D03*
Y400050D02*
D03*
D58*
X1136650Y508254D02*
D03*
Y482854D02*
D03*
Y457454D02*
D03*
Y432054D02*
D03*
Y406527D02*
D03*
Y381127D02*
D03*
Y355727D02*
D03*
Y330327D02*
D03*
X1466850Y508254D02*
D03*
Y482854D02*
D03*
Y457454D02*
D03*
Y432054D02*
D03*
Y406527D02*
D03*
Y381127D02*
D03*
Y355727D02*
D03*
Y330327D02*
D03*
D59*
X1136650Y559054D02*
D03*
X1162050D02*
D03*
X1187450D02*
D03*
X1212850D02*
D03*
X1238250D02*
D03*
X1263650D02*
D03*
X1289050D02*
D03*
X1314450D02*
D03*
X1339850D02*
D03*
X1365250D02*
D03*
X1390650D02*
D03*
X1416050D02*
D03*
X1441450D02*
D03*
X1466850D02*
D03*
X1162050Y279527D02*
D03*
X1187450D02*
D03*
X1212850D02*
D03*
X1238250D02*
D03*
X1263650D02*
D03*
X1289050D02*
D03*
X1314450D02*
D03*
X1339850D02*
D03*
X1365250D02*
D03*
X1390650D02*
D03*
X1416050D02*
D03*
X1441450D02*
D03*
D60*
X1419352Y704850D02*
D03*
Y717550D02*
D03*
Y730250D02*
D03*
Y742950D02*
D03*
Y755650D02*
D03*
Y768350D02*
D03*
D61*
X1120902Y800100D02*
D03*
X1133602D02*
D03*
X1146302D02*
D03*
X1159002D02*
D03*
X1171702D02*
D03*
X1184402D02*
D03*
X1197102D02*
D03*
X1209802D02*
D03*
X1222502D02*
D03*
X1235202D02*
D03*
X1247902D02*
D03*
X1260602D02*
D03*
X1273302D02*
D03*
X1286002D02*
D03*
X1298702D02*
D03*
X1311402D02*
D03*
X1324102D02*
D03*
X1336802D02*
D03*
X1349502D02*
D03*
X1362202D02*
D03*
X1374902D02*
D03*
X1387602D02*
D03*
X1400302D02*
D03*
X1413002D02*
D03*
X1425702D02*
D03*
D62*
X908050Y504952D02*
D03*
Y631952D02*
D03*
X869950Y504952D02*
D03*
Y631952D02*
D03*
D63*
X1565402Y330200D02*
D03*
Y304800D02*
D03*
Y279400D02*
D03*
D64*
X828802Y781050D02*
D03*
X879602D02*
D03*
D65*
X450850Y552450D02*
D03*
X425450D02*
D03*
X400050D02*
D03*
X450850Y628650D02*
D03*
X425450D02*
D03*
X400050D02*
D03*
X374650D02*
D03*
X349250D02*
D03*
X374650Y552450D02*
D03*
X349250D02*
D03*
X647700D02*
D03*
X622300D02*
D03*
X596900D02*
D03*
X647700Y628650D02*
D03*
X622300D02*
D03*
X596900D02*
D03*
X571500D02*
D03*
X546100D02*
D03*
X571500Y552450D02*
D03*
X546100D02*
D03*
X838200D02*
D03*
X812800D02*
D03*
X787400D02*
D03*
X838200Y628650D02*
D03*
X812800D02*
D03*
X787400D02*
D03*
X762000D02*
D03*
X736600D02*
D03*
X762000Y552450D02*
D03*
X736600D02*
D03*
D66*
X1533652Y565150D02*
D03*
X1508252D02*
D03*
X816102Y501650D02*
D03*
X739902D02*
D03*
D67*
X839470Y685800D02*
D03*
X989330D02*
D03*
D68*
X1000252Y365252D02*
D03*
X974852D02*
D03*
D69*
X949452Y401320D02*
D03*
X1025652D02*
D03*
Y454660D02*
D03*
X949452D02*
D03*
D70*
X1546352Y704850D02*
D03*
X1470152Y781050D02*
D03*
Y628650D02*
D03*
X857250Y298450D02*
D03*
X806450D02*
D03*
X901700Y444500D02*
D03*
X762000D02*
D03*
D71*
X431800Y279400D02*
D03*
X400050D02*
D03*
X463550D02*
D03*
X400050Y488950D02*
D03*
X463550D02*
D03*
X679450D02*
D03*
D72*
X971550Y304800D02*
D03*
Y774700D02*
D03*
D73*
X1219200Y397002D02*
D03*
Y342900D02*
D03*
X1327150Y482600D02*
D03*
X1250950Y304800D02*
D03*
X1631950Y381000D02*
D03*
X1377950Y355600D02*
D03*
X1276350Y692150D02*
D03*
X1257300Y409702D02*
D03*
X1346200Y381000D02*
D03*
X1355852Y524002D02*
D03*
X1054100Y400050D02*
D03*
X1143000Y679450D02*
D03*
M02*
