%FSLAX44Y44*%
%MOMM*%
G71*
G01*
G75*
G04 Layer_Physical_Order=2*
G04 Layer_Color=16711680*
%ADD10R,1.6002X1.8034*%
%ADD11R,1.8034X1.6002*%
%ADD12R,1.3208X1.5240*%
%ADD13R,1.5240X1.3208*%
%ADD14R,2.5400X1.2700*%
%ADD15C,0.4064*%
%ADD16C,0.2540*%
%ADD17C,0.3048*%
%ADD18C,0.0508*%
G04:AMPARAMS|DCode=19|XSize=1.9812mm|YSize=1.9812mm|CornerRadius=0mm|HoleSize=0mm|Usage=FLASHONLY|Rotation=180.000|XOffset=0mm|YOffset=0mm|HoleType=Round|Shape=Octagon|*
%AMOCTAGOND19*
4,1,8,-0.9906,0.4953,-0.9906,-0.4953,-0.4953,-0.9906,0.4953,-0.9906,0.9906,-0.4953,0.9906,0.4953,0.4953,0.9906,-0.4953,0.9906,-0.9906,0.4953,0.0*
%
%ADD19OCTAGOND19*%

%ADD20C,1.2700*%
G04:AMPARAMS|DCode=21|XSize=1.27mm|YSize=1.27mm|CornerRadius=0mm|HoleSize=0mm|Usage=FLASHONLY|Rotation=180.000|XOffset=0mm|YOffset=0mm|HoleType=Round|Shape=Octagon|*
%AMOCTAGOND21*
4,1,8,-0.6350,0.3175,-0.6350,-0.3175,-0.3175,-0.6350,0.3175,-0.6350,0.6350,-0.3175,0.6350,0.3175,0.3175,0.6350,-0.3175,0.6350,-0.6350,0.3175,0.0*
%
%ADD21OCTAGOND21*%

%ADD22O,3.6576X1.8288*%
G04:AMPARAMS|DCode=23|XSize=1.0668mm|YSize=1.0668mm|CornerRadius=0mm|HoleSize=0mm|Usage=FLASHONLY|Rotation=90.000|XOffset=0mm|YOffset=0mm|HoleType=Round|Shape=Octagon|*
%AMOCTAGOND23*
4,1,8,0.2667,0.5334,-0.2667,0.5334,-0.5334,0.2667,-0.5334,-0.2667,-0.2667,-0.5334,0.2667,-0.5334,0.5334,-0.2667,0.5334,0.2667,0.2667,0.5334,0.0*
%
%ADD23OCTAGOND23*%

%ADD24O,3.0480X1.5240*%
%ADD25O,2.7432X1.3716*%
%ADD26O,1.3716X2.7432*%
%ADD27O,1.5240X0.7620*%
%ADD28O,0.7620X1.5240*%
G04:AMPARAMS|DCode=29|XSize=1.524mm|YSize=1.524mm|CornerRadius=0mm|HoleSize=0mm|Usage=FLASHONLY|Rotation=270.000|XOffset=0mm|YOffset=0mm|HoleType=Round|Shape=Octagon|*
%AMOCTAGOND29*
4,1,8,-0.3810,-0.7620,0.3810,-0.7620,0.7620,-0.3810,0.7620,0.3810,0.3810,0.7620,-0.3810,0.7620,-0.7620,0.3810,-0.7620,-0.3810,-0.3810,-0.7620,0.0*
%
%ADD29OCTAGOND29*%

%ADD30O,2.4384X1.2192*%
%ADD31O,1.7780X3.5560*%
%ADD32R,1.8288X1.8288*%
G04:AMPARAMS|DCode=33|XSize=1.2192mm|YSize=1.2192mm|CornerRadius=0mm|HoleSize=0mm|Usage=FLASHONLY|Rotation=0.000|XOffset=0mm|YOffset=0mm|HoleType=Round|Shape=Octagon|*
%AMOCTAGOND33*
4,1,8,0.6096,-0.3048,0.6096,0.3048,0.3048,0.6096,-0.3048,0.6096,-0.6096,0.3048,-0.6096,-0.3048,-0.3048,-0.6096,0.3048,-0.6096,0.6096,-0.3048,0.0*
%
%ADD33OCTAGOND33*%

G04:AMPARAMS|DCode=34|XSize=1.524mm|YSize=1.524mm|CornerRadius=0mm|HoleSize=0mm|Usage=FLASHONLY|Rotation=180.000|XOffset=0mm|YOffset=0mm|HoleType=Round|Shape=Octagon|*
%AMOCTAGOND34*
4,1,8,-0.7620,0.3810,-0.7620,-0.3810,-0.3810,-0.7620,0.3810,-0.7620,0.7620,-0.3810,0.7620,0.3810,0.3810,0.7620,-0.3810,0.7620,-0.7620,0.3810,0.0*
%
%ADD34OCTAGOND34*%

G04:AMPARAMS|DCode=35|XSize=1.6002mm|YSize=1.6002mm|CornerRadius=0mm|HoleSize=0mm|Usage=FLASHONLY|Rotation=0.000|XOffset=0mm|YOffset=0mm|HoleType=Round|Shape=Octagon|*
%AMOCTAGOND35*
4,1,8,0.8001,-0.4001,0.8001,0.4001,0.4001,0.8001,-0.4001,0.8001,-0.8001,0.4001,-0.8001,-0.4001,-0.4001,-0.8001,0.4001,-0.8001,0.8001,-0.4001,0.0*
%
%ADD35OCTAGOND35*%

%ADD36R,1.2192X1.2192*%
G04:AMPARAMS|DCode=37|XSize=1.3716mm|YSize=1.3716mm|CornerRadius=0mm|HoleSize=0mm|Usage=FLASHONLY|Rotation=90.000|XOffset=0mm|YOffset=0mm|HoleType=Round|Shape=Octagon|*
%AMOCTAGOND37*
4,1,8,0.3429,0.6858,-0.3429,0.6858,-0.6858,0.3429,-0.6858,-0.3429,-0.3429,-0.6858,0.3429,-0.6858,0.6858,-0.3429,0.6858,0.3429,0.3429,0.6858,0.0*
%
%ADD37OCTAGOND37*%

G04:AMPARAMS|DCode=38|XSize=1.3716mm|YSize=1.3716mm|CornerRadius=0mm|HoleSize=0mm|Usage=FLASHONLY|Rotation=180.000|XOffset=0mm|YOffset=0mm|HoleType=Round|Shape=Octagon|*
%AMOCTAGOND38*
4,1,8,-0.6858,0.3429,-0.6858,-0.3429,-0.3429,-0.6858,0.3429,-0.6858,0.6858,-0.3429,0.6858,0.3429,0.3429,0.6858,-0.3429,0.6858,-0.6858,0.3429,0.0*
%
%ADD38OCTAGOND38*%

%ADD39C,4.5212*%
%ADD40C,0.9096*%
%ADD41C,1.0160*%
G36*
X536396Y447474D02*
X536724Y447438D01*
X537033Y447383D01*
X537325Y447292D01*
X537598Y447201D01*
X537853Y447092D01*
X538090Y446983D01*
X538290Y446855D01*
X538490Y446746D01*
X538654Y446618D01*
X538800Y446509D01*
X538909Y446418D01*
X539000Y446327D01*
X539073Y446273D01*
X539109Y446236D01*
X539128Y446218D01*
X539328Y445963D01*
X539510Y445690D01*
X539674Y445416D01*
X539820Y445125D01*
X539929Y444815D01*
X540020Y444524D01*
X540166Y443941D01*
X540220Y443686D01*
X540257Y443431D01*
X540275Y443213D01*
X540293Y443013D01*
X540311Y442849D01*
Y442739D01*
Y442648D01*
Y442630D01*
X540293Y442229D01*
X540257Y441847D01*
X540202Y441483D01*
X540129Y441155D01*
X540038Y440845D01*
X539947Y440554D01*
X539838Y440299D01*
X539729Y440062D01*
X539619Y439862D01*
X539510Y439680D01*
X539419Y439534D01*
X539328Y439407D01*
X539255Y439297D01*
X539201Y439225D01*
X539164Y439188D01*
X539146Y439170D01*
X538909Y438951D01*
X538672Y438769D01*
X538417Y438605D01*
X538144Y438460D01*
X537889Y438350D01*
X537616Y438241D01*
X537106Y438095D01*
X536869Y438059D01*
X536651Y438022D01*
X536451Y437986D01*
X536287Y437968D01*
X536159Y437950D01*
X535959D01*
X535394Y437986D01*
X534884Y438077D01*
X534429Y438186D01*
X534247Y438259D01*
X534065Y438332D01*
X533901Y438405D01*
X533755Y438478D01*
X533646Y438532D01*
X533537Y438587D01*
X533464Y438642D01*
X533409Y438678D01*
X533373Y438715D01*
X533354D01*
X532990Y439042D01*
X532699Y439388D01*
X532444Y439753D01*
X532262Y440099D01*
X532116Y440408D01*
X532061Y440554D01*
X532007Y440663D01*
X531970Y440773D01*
X531952Y440845D01*
X531934Y440882D01*
Y440900D01*
X533537Y441100D01*
X533682Y440754D01*
X533846Y440463D01*
X534010Y440208D01*
X534156Y440008D01*
X534283Y439862D01*
X534393Y439753D01*
X534484Y439680D01*
X534502Y439662D01*
X534739Y439516D01*
X534975Y439407D01*
X535230Y439334D01*
X535449Y439279D01*
X535649Y439243D01*
X535813Y439225D01*
X535959D01*
X536177Y439243D01*
X536378Y439261D01*
X536742Y439352D01*
X537070Y439479D01*
X537361Y439625D01*
X537580Y439753D01*
X537743Y439880D01*
X537853Y439971D01*
X537871Y440008D01*
X537889D01*
X538144Y440335D01*
X538344Y440700D01*
X538490Y441100D01*
X538600Y441465D01*
X538654Y441792D01*
X538690Y441938D01*
X538709Y442066D01*
Y442175D01*
X538727Y442248D01*
Y442302D01*
Y442321D01*
X531898D01*
X531879Y442503D01*
Y442630D01*
Y442703D01*
Y442721D01*
X531898Y443140D01*
X531934Y443522D01*
X531989Y443887D01*
X532061Y444233D01*
X532152Y444542D01*
X532244Y444834D01*
X532353Y445089D01*
X532462Y445325D01*
X532571Y445544D01*
X532681Y445726D01*
X532772Y445872D01*
X532863Y445999D01*
X532936Y446109D01*
X532990Y446181D01*
X533027Y446218D01*
X533045Y446236D01*
X533263Y446455D01*
X533500Y446655D01*
X533755Y446819D01*
X534010Y446964D01*
X534265Y447092D01*
X534502Y447183D01*
X534757Y447274D01*
X534975Y447329D01*
X535212Y447383D01*
X535412Y447420D01*
X535594Y447456D01*
X535740Y447474D01*
X535868Y447493D01*
X536050D01*
X536396Y447474D01*
D02*
G37*
G36*
X1573784Y800942D02*
Y556594D01*
X1585294Y545084D01*
X1623394D01*
X1637284Y531194D01*
Y387064D01*
X1636014Y386401D01*
X1635551Y386724D01*
Y460502D01*
X1635277Y461880D01*
X1634496Y463048D01*
X1621796Y475748D01*
X1620628Y476529D01*
X1619250Y476803D01*
X1581150D01*
X1579772Y476529D01*
X1578604Y475748D01*
X1566381Y463526D01*
X1565795D01*
X1562378Y460109D01*
Y453275D01*
X1565795Y449858D01*
X1572629D01*
X1576046Y453275D01*
Y460109D01*
X1575233Y460922D01*
Y462192D01*
X1582642Y469601D01*
X1617758D01*
X1628349Y459010D01*
Y385868D01*
X1627590Y385360D01*
X1626253Y383360D01*
X1625784Y381000D01*
X1626253Y378640D01*
X1627590Y376640D01*
X1629590Y375303D01*
X1631950Y374833D01*
X1634310Y375303D01*
X1636014Y376442D01*
X1637284Y375985D01*
Y358060D01*
X1626442Y347218D01*
X1588342D01*
X1586484Y345360D01*
Y265858D01*
X1578944Y258318D01*
X1455814D01*
X1455327Y259491D01*
X1500097Y304501D01*
X1551684D01*
X1551906Y302817D01*
X1552671Y300969D01*
X1553889Y299382D01*
X1555475Y298165D01*
X1557323Y297400D01*
X1559306Y297138D01*
X1571498D01*
X1573481Y297400D01*
X1575329Y298165D01*
X1576915Y299382D01*
X1578133Y300969D01*
X1578898Y302817D01*
X1579160Y304800D01*
X1578898Y306783D01*
X1578133Y308631D01*
X1576915Y310217D01*
X1575329Y311435D01*
X1573481Y312201D01*
X1571498Y312462D01*
X1559306D01*
X1557323Y312201D01*
X1556122Y311703D01*
X1498600D01*
X1498595Y311702D01*
X1498590Y311703D01*
X1497903Y311565D01*
X1497222Y311429D01*
X1497218Y311426D01*
X1497213Y311425D01*
X1496632Y311035D01*
X1496054Y310648D01*
X1496051Y310644D01*
X1496047Y310642D01*
X1449605Y263951D01*
X1445562D01*
X1445310Y265221D01*
X1445665Y265368D01*
X1447411Y266708D01*
X1448751Y268454D01*
X1449593Y270487D01*
X1449880Y272669D01*
Y286385D01*
X1449593Y288567D01*
X1448751Y290600D01*
X1447411Y292346D01*
X1445665Y293686D01*
X1443632Y294528D01*
X1441450Y294815D01*
X1439268Y294528D01*
X1437235Y293686D01*
X1435489Y292346D01*
X1434149Y290600D01*
X1433307Y288567D01*
X1433020Y286385D01*
Y272669D01*
X1433307Y270487D01*
X1434149Y268454D01*
X1435489Y266708D01*
X1437235Y265368D01*
X1437590Y265221D01*
X1437337Y263951D01*
X1420163D01*
X1419910Y265221D01*
X1420265Y265368D01*
X1422011Y266708D01*
X1423351Y268454D01*
X1424193Y270487D01*
X1424480Y272669D01*
Y286385D01*
X1424193Y288567D01*
X1423351Y290600D01*
X1422011Y292346D01*
X1420265Y293686D01*
X1418232Y294528D01*
X1416050Y294815D01*
X1413868Y294528D01*
X1411835Y293686D01*
X1410089Y292346D01*
X1408749Y290600D01*
X1407907Y288567D01*
X1407620Y286385D01*
Y272669D01*
X1407907Y270487D01*
X1408749Y268454D01*
X1410089Y266708D01*
X1411835Y265368D01*
X1412190Y265221D01*
X1411938Y263951D01*
X1394763D01*
X1394510Y265221D01*
X1394865Y265368D01*
X1396611Y266708D01*
X1397951Y268454D01*
X1398793Y270487D01*
X1399080Y272669D01*
Y286385D01*
X1398793Y288567D01*
X1397951Y290600D01*
X1396611Y292346D01*
X1394865Y293686D01*
X1392832Y294528D01*
X1390650Y294815D01*
X1388468Y294528D01*
X1386435Y293686D01*
X1384689Y292346D01*
X1383349Y290600D01*
X1382507Y288567D01*
X1382220Y286385D01*
Y272669D01*
X1382507Y270487D01*
X1383349Y268454D01*
X1384689Y266708D01*
X1386435Y265368D01*
X1386790Y265221D01*
X1386537Y263951D01*
X1369362D01*
X1369110Y265221D01*
X1369465Y265368D01*
X1371211Y266708D01*
X1372551Y268454D01*
X1373393Y270487D01*
X1373680Y272669D01*
Y286385D01*
X1373393Y288567D01*
X1372551Y290600D01*
X1371211Y292346D01*
X1369465Y293686D01*
X1367432Y294528D01*
X1365250Y294815D01*
X1363068Y294528D01*
X1361035Y293686D01*
X1359289Y292346D01*
X1357949Y290600D01*
X1357107Y288567D01*
X1356820Y286385D01*
Y272669D01*
X1357107Y270487D01*
X1357949Y268454D01*
X1359289Y266708D01*
X1361035Y265368D01*
X1361390Y265221D01*
X1361138Y263951D01*
X1343963D01*
X1343710Y265221D01*
X1344065Y265368D01*
X1345811Y266708D01*
X1347151Y268454D01*
X1347993Y270487D01*
X1348280Y272669D01*
Y286385D01*
X1347993Y288567D01*
X1347151Y290600D01*
X1345811Y292346D01*
X1344065Y293686D01*
X1342032Y294528D01*
X1339850Y294815D01*
X1337668Y294528D01*
X1335635Y293686D01*
X1333889Y292346D01*
X1332549Y290600D01*
X1332021Y289325D01*
X1330751Y289578D01*
Y295402D01*
X1330477Y296780D01*
X1329696Y297948D01*
X1327703Y299942D01*
Y357410D01*
X1345305Y375012D01*
X1346200Y374833D01*
X1348560Y375303D01*
X1350560Y376640D01*
X1351897Y378640D01*
X1352366Y381000D01*
X1351897Y383360D01*
X1350560Y385360D01*
X1348560Y386697D01*
X1346753Y387057D01*
Y509810D01*
X1354957Y518014D01*
X1355852Y517836D01*
X1358212Y518305D01*
X1360212Y519642D01*
X1361549Y521642D01*
X1362018Y524002D01*
X1361840Y524897D01*
X1370044Y533101D01*
X1428750D01*
X1430128Y533375D01*
X1431296Y534156D01*
X1432077Y535324D01*
X1432351Y536702D01*
Y546530D01*
X1433621Y546961D01*
X1434747Y545493D01*
X1436711Y543987D01*
X1438997Y543040D01*
X1440180Y542884D01*
Y559054D01*
Y575224D01*
X1438997Y575068D01*
X1436711Y574121D01*
X1434747Y572615D01*
X1433621Y571147D01*
X1432351Y571578D01*
Y584200D01*
X1432216Y584881D01*
X1432081Y585568D01*
X1432078Y585573D01*
X1432077Y585578D01*
X1431691Y586156D01*
X1431304Y586739D01*
X1391203Y627087D01*
Y792310D01*
X1391430Y792462D01*
X1392604Y794218D01*
X1392774Y795075D01*
X1394069D01*
X1394320Y793812D01*
X1395724Y791712D01*
X1397824Y790308D01*
X1399032Y790068D01*
Y800100D01*
Y810132D01*
X1397824Y809892D01*
X1395724Y808488D01*
X1394320Y806388D01*
X1394069Y805125D01*
X1392774D01*
X1392604Y805982D01*
X1391430Y807738D01*
X1389674Y808912D01*
X1387602Y809324D01*
X1385530Y808912D01*
X1383774Y807738D01*
X1382600Y805982D01*
X1382188Y803910D01*
Y796290D01*
X1382600Y794218D01*
X1383774Y792462D01*
X1384001Y792310D01*
Y625602D01*
X1384137Y624917D01*
X1384271Y624234D01*
X1384274Y624229D01*
X1384275Y624224D01*
X1384661Y623646D01*
X1385048Y623063D01*
X1425149Y582715D01*
Y569105D01*
X1423879Y568852D01*
X1423351Y570127D01*
X1422011Y571873D01*
X1420265Y573213D01*
X1418232Y574055D01*
X1416050Y574342D01*
X1415345Y574249D01*
X1238803Y750792D01*
Y792310D01*
X1239030Y792462D01*
X1240204Y794218D01*
X1240616Y796290D01*
Y803910D01*
X1240204Y805982D01*
X1239030Y807738D01*
X1237274Y808912D01*
X1235202Y809324D01*
X1233130Y808912D01*
X1231374Y807738D01*
X1230200Y805982D01*
X1229788Y803910D01*
Y796290D01*
X1230200Y794218D01*
X1231374Y792462D01*
X1231601Y792310D01*
Y749300D01*
X1231875Y747922D01*
X1232656Y746754D01*
X1408981Y570429D01*
X1408749Y570127D01*
X1407907Y568094D01*
X1407620Y565912D01*
Y552196D01*
X1407907Y550014D01*
X1408749Y547981D01*
X1410089Y546235D01*
X1411835Y544895D01*
X1413868Y544053D01*
X1416050Y543766D01*
X1418232Y544053D01*
X1420265Y544895D01*
X1422011Y546235D01*
X1423351Y547981D01*
X1423879Y549256D01*
X1425149Y549003D01*
Y540303D01*
X1368552D01*
X1367174Y540029D01*
X1366006Y539248D01*
X1356747Y529990D01*
X1355852Y530168D01*
X1353492Y529699D01*
X1351492Y528362D01*
X1350155Y526362D01*
X1349686Y524002D01*
X1349864Y523106D01*
X1340606Y513848D01*
X1339825Y512680D01*
X1339551Y511302D01*
Y384302D01*
X1339674Y383682D01*
X1339772Y383058D01*
X1339811Y382996D01*
X1339825Y382924D01*
X1340176Y382398D01*
X1340278Y382231D01*
X1340034Y381000D01*
X1340212Y380104D01*
X1321556Y361448D01*
X1320775Y360280D01*
X1320501Y358902D01*
Y298450D01*
X1320775Y297072D01*
X1321556Y295904D01*
X1323549Y293910D01*
Y289578D01*
X1322279Y289325D01*
X1321751Y290600D01*
X1320411Y292346D01*
X1318665Y293686D01*
X1316632Y294528D01*
X1314450Y294815D01*
X1312268Y294528D01*
X1310235Y293686D01*
X1308489Y292346D01*
X1307149Y290600D01*
X1306307Y288567D01*
X1306020Y286385D01*
Y272669D01*
X1306307Y270487D01*
X1307149Y268454D01*
X1308489Y266708D01*
X1310235Y265368D01*
X1312268Y264526D01*
X1314450Y264239D01*
X1316632Y264526D01*
X1318665Y265368D01*
X1320411Y266708D01*
X1321751Y268454D01*
X1322279Y269729D01*
X1323549Y269476D01*
Y260350D01*
X1323700Y259588D01*
X1322849Y258318D01*
X1015158D01*
X1007618Y265858D01*
Y335756D01*
X1005712Y337820D01*
X943944D01*
X935482Y329358D01*
Y269176D01*
X924910Y258318D01*
X370760D01*
X356870Y272208D01*
Y407242D01*
X364410Y414782D01*
X815244D01*
X824642Y424434D01*
X923210D01*
X937768Y438992D01*
Y461344D01*
X958008Y481584D01*
X999410D01*
X1020318Y502492D01*
Y540592D01*
X1037510Y557784D01*
X1040558D01*
X1052068Y569294D01*
Y791549D01*
X1081966Y821182D01*
X1553544D01*
X1573784Y800942D01*
D02*
G37*
G36*
X580468Y447474D02*
X580796Y447438D01*
X581106Y447383D01*
X581397Y447292D01*
X581670Y447201D01*
X581925Y447092D01*
X582162Y446983D01*
X582362Y446855D01*
X582563Y446746D01*
X582727Y446618D01*
X582872Y446509D01*
X582982Y446418D01*
X583073Y446327D01*
X583145Y446273D01*
X583182Y446236D01*
X583200Y446218D01*
X583400Y445963D01*
X583583Y445690D01*
X583746Y445416D01*
X583892Y445125D01*
X584002Y444815D01*
X584093Y444524D01*
X584238Y443941D01*
X584293Y443686D01*
X584329Y443431D01*
X584347Y443213D01*
X584366Y443013D01*
X584384Y442849D01*
Y442739D01*
Y442648D01*
Y442630D01*
X584366Y442229D01*
X584329Y441847D01*
X584275Y441483D01*
X584202Y441155D01*
X584111Y440845D01*
X584020Y440554D01*
X583910Y440299D01*
X583801Y440062D01*
X583692Y439862D01*
X583583Y439680D01*
X583492Y439534D01*
X583400Y439407D01*
X583328Y439297D01*
X583273Y439225D01*
X583237Y439188D01*
X583218Y439170D01*
X582982Y438951D01*
X582745Y438769D01*
X582490Y438605D01*
X582217Y438460D01*
X581962Y438350D01*
X581689Y438241D01*
X581179Y438095D01*
X580942Y438059D01*
X580723Y438022D01*
X580523Y437986D01*
X580359Y437968D01*
X580232Y437950D01*
X580031D01*
X579467Y437986D01*
X578957Y438077D01*
X578502Y438186D01*
X578319Y438259D01*
X578137Y438332D01*
X577973Y438405D01*
X577828Y438478D01*
X577718Y438532D01*
X577609Y438587D01*
X577536Y438642D01*
X577482Y438678D01*
X577445Y438715D01*
X577427D01*
X577063Y439042D01*
X576771Y439388D01*
X576516Y439753D01*
X576334Y440099D01*
X576189Y440408D01*
X576134Y440554D01*
X576079Y440663D01*
X576043Y440773D01*
X576025Y440845D01*
X576007Y440882D01*
Y440900D01*
X577609Y441100D01*
X577755Y440754D01*
X577919Y440463D01*
X578083Y440208D01*
X578228Y440008D01*
X578356Y439862D01*
X578465Y439753D01*
X578556Y439680D01*
X578574Y439662D01*
X578811Y439516D01*
X579048Y439407D01*
X579303Y439334D01*
X579521Y439279D01*
X579722Y439243D01*
X579886Y439225D01*
X580031D01*
X580250Y439243D01*
X580450Y439261D01*
X580814Y439352D01*
X581142Y439479D01*
X581434Y439625D01*
X581652Y439753D01*
X581816Y439880D01*
X581925Y439971D01*
X581944Y440008D01*
X581962D01*
X582217Y440335D01*
X582417Y440700D01*
X582563Y441100D01*
X582672Y441465D01*
X582727Y441792D01*
X582763Y441938D01*
X582781Y442066D01*
Y442175D01*
X582799Y442248D01*
Y442302D01*
Y442321D01*
X575970D01*
X575952Y442503D01*
Y442630D01*
Y442703D01*
Y442721D01*
X575970Y443140D01*
X576007Y443522D01*
X576061Y443887D01*
X576134Y444233D01*
X576225Y444542D01*
X576316Y444834D01*
X576425Y445089D01*
X576535Y445325D01*
X576644Y445544D01*
X576753Y445726D01*
X576844Y445872D01*
X576935Y445999D01*
X577008Y446109D01*
X577063Y446181D01*
X577099Y446218D01*
X577117Y446236D01*
X577336Y446455D01*
X577573Y446655D01*
X577828Y446819D01*
X578083Y446964D01*
X578338Y447092D01*
X578574Y447183D01*
X578829Y447274D01*
X579048Y447329D01*
X579285Y447383D01*
X579485Y447420D01*
X579667Y447456D01*
X579813Y447474D01*
X579940Y447493D01*
X580122D01*
X580468Y447474D01*
D02*
G37*
G36*
X647269Y438150D02*
X642735D01*
X642316Y438168D01*
X641933Y438186D01*
X641587Y438223D01*
X641296Y438259D01*
X641041Y438296D01*
X640859Y438314D01*
X640804Y438332D01*
X640750Y438350D01*
X640713D01*
X640385Y438441D01*
X640094Y438551D01*
X639839Y438642D01*
X639620Y438751D01*
X639438Y438842D01*
X639311Y438915D01*
X639238Y438969D01*
X639202Y438988D01*
X638965Y439152D01*
X638764Y439352D01*
X638564Y439534D01*
X638400Y439716D01*
X638255Y439880D01*
X638145Y440008D01*
X638072Y440099D01*
X638054Y440135D01*
X637872Y440426D01*
X637690Y440736D01*
X637544Y441027D01*
X637435Y441319D01*
X637326Y441574D01*
X637253Y441774D01*
X637235Y441847D01*
X637216Y441902D01*
X637198Y441938D01*
Y441956D01*
X637089Y442393D01*
X636998Y442830D01*
X636943Y443249D01*
X636889Y443650D01*
X636870Y443996D01*
Y444142D01*
X636852Y444269D01*
Y444360D01*
Y444451D01*
Y444488D01*
Y444506D01*
X636870Y445125D01*
X636925Y445690D01*
X637016Y446200D01*
X637052Y446436D01*
X637107Y446637D01*
X637162Y446837D01*
X637198Y447001D01*
X637235Y447147D01*
X637289Y447274D01*
X637307Y447383D01*
X637344Y447456D01*
X637362Y447493D01*
Y447511D01*
X637562Y447984D01*
X637799Y448403D01*
X638054Y448768D01*
X638291Y449077D01*
X638509Y449332D01*
X638691Y449514D01*
X638764Y449569D01*
X638819Y449623D01*
X638837Y449642D01*
X638855Y449660D01*
X639147Y449897D01*
X639456Y450079D01*
X639766Y450243D01*
X640057Y450370D01*
X640312Y450461D01*
X640513Y450516D01*
X640586Y450552D01*
X640640D01*
X640677Y450570D01*
X640695D01*
X641004Y450625D01*
X641369Y450680D01*
X641733Y450716D01*
X642097Y450734D01*
X642425Y450753D01*
X647269D01*
Y438150D01*
D02*
G37*
G36*
X660400D02*
X658633D01*
X657268Y441974D01*
X651986D01*
X650511Y438150D01*
X648617D01*
X653771Y450753D01*
X655592D01*
X660400Y438150D01*
D02*
G37*
G36*
X487424Y447474D02*
X487752Y447438D01*
X488062Y447383D01*
X488353Y447292D01*
X488626Y447201D01*
X488881Y447092D01*
X489118Y446983D01*
X489318Y446855D01*
X489519Y446746D01*
X489683Y446618D01*
X489828Y446509D01*
X489938Y446418D01*
X490029Y446327D01*
X490102Y446273D01*
X490138Y446236D01*
X490156Y446218D01*
X490356Y445963D01*
X490538Y445690D01*
X490702Y445416D01*
X490848Y445125D01*
X490957Y444815D01*
X491049Y444524D01*
X491194Y443941D01*
X491249Y443686D01*
X491285Y443431D01*
X491303Y443213D01*
X491322Y443013D01*
X491340Y442849D01*
Y442739D01*
Y442648D01*
Y442630D01*
X491322Y442229D01*
X491285Y441847D01*
X491231Y441483D01*
X491158Y441155D01*
X491067Y440845D01*
X490976Y440554D01*
X490866Y440299D01*
X490757Y440062D01*
X490648Y439862D01*
X490538Y439680D01*
X490448Y439534D01*
X490356Y439407D01*
X490284Y439297D01*
X490229Y439225D01*
X490192Y439188D01*
X490174Y439170D01*
X489938Y438951D01*
X489701Y438769D01*
X489446Y438605D01*
X489173Y438460D01*
X488918Y438350D01*
X488644Y438241D01*
X488135Y438095D01*
X487898Y438059D01*
X487679Y438022D01*
X487479Y437986D01*
X487315Y437968D01*
X487188Y437950D01*
X486987D01*
X486423Y437986D01*
X485913Y438077D01*
X485457Y438186D01*
X485275Y438259D01*
X485093Y438332D01*
X484929Y438405D01*
X484784Y438478D01*
X484674Y438532D01*
X484565Y438587D01*
X484492Y438642D01*
X484438Y438678D01*
X484401Y438715D01*
X484383D01*
X484019Y439042D01*
X483727Y439388D01*
X483472Y439753D01*
X483290Y440099D01*
X483145Y440408D01*
X483090Y440554D01*
X483035Y440663D01*
X482999Y440773D01*
X482981Y440845D01*
X482962Y440882D01*
Y440900D01*
X484565Y441100D01*
X484711Y440754D01*
X484875Y440463D01*
X485039Y440208D01*
X485184Y440008D01*
X485312Y439862D01*
X485421Y439753D01*
X485512Y439680D01*
X485530Y439662D01*
X485767Y439516D01*
X486004Y439407D01*
X486259Y439334D01*
X486477Y439279D01*
X486678Y439243D01*
X486842Y439225D01*
X486987D01*
X487206Y439243D01*
X487406Y439261D01*
X487770Y439352D01*
X488098Y439479D01*
X488390Y439625D01*
X488608Y439753D01*
X488772Y439880D01*
X488881Y439971D01*
X488899Y440008D01*
X488918D01*
X489173Y440335D01*
X489373Y440700D01*
X489519Y441100D01*
X489628Y441465D01*
X489683Y441792D01*
X489719Y441938D01*
X489737Y442066D01*
Y442175D01*
X489755Y442248D01*
Y442302D01*
Y442321D01*
X482926D01*
X482908Y442503D01*
Y442630D01*
Y442703D01*
Y442721D01*
X482926Y443140D01*
X482962Y443522D01*
X483017Y443887D01*
X483090Y444233D01*
X483181Y444542D01*
X483272Y444834D01*
X483381Y445089D01*
X483491Y445325D01*
X483600Y445544D01*
X483709Y445726D01*
X483800Y445872D01*
X483891Y445999D01*
X483964Y446109D01*
X484019Y446181D01*
X484055Y446218D01*
X484073Y446236D01*
X484292Y446455D01*
X484529Y446655D01*
X484784Y446819D01*
X485039Y446964D01*
X485294Y447092D01*
X485530Y447183D01*
X485785Y447274D01*
X486004Y447329D01*
X486241Y447383D01*
X486441Y447420D01*
X486623Y447456D01*
X486769Y447474D01*
X486896Y447493D01*
X487078D01*
X487424Y447474D01*
D02*
G37*
G36*
X524941Y438150D02*
X523338D01*
Y448877D01*
X519696Y438150D01*
X518202D01*
X514524Y448695D01*
Y438150D01*
X512921D01*
Y450753D01*
X515161D01*
X518184Y441974D01*
X518348Y441501D01*
X518475Y441100D01*
X518603Y440754D01*
X518694Y440463D01*
X518767Y440244D01*
X518821Y440080D01*
X518840Y439989D01*
X518858Y439953D01*
X518931Y440208D01*
X519022Y440499D01*
X519131Y440809D01*
X519222Y441119D01*
X519313Y441392D01*
X519386Y441610D01*
X519422Y441701D01*
X519441Y441756D01*
X519459Y441792D01*
Y441811D01*
X522446Y450753D01*
X524941D01*
Y438150D01*
D02*
G37*
G36*
X404142Y450789D02*
X404451Y450771D01*
X404743Y450716D01*
X405016Y450662D01*
X405271Y450589D01*
X405508Y450516D01*
X405726Y450425D01*
X405927Y450334D01*
X406109Y450243D01*
X406254Y450152D01*
X406382Y450079D01*
X406491Y450006D01*
X406582Y449951D01*
X406637Y449897D01*
X406673Y449878D01*
X406691Y449860D01*
X406874Y449678D01*
X407037Y449478D01*
X407201Y449259D01*
X407329Y449041D01*
X407547Y448604D01*
X407693Y448167D01*
X407748Y447966D01*
X407802Y447766D01*
X407839Y447602D01*
X407875Y447456D01*
X407893Y447329D01*
Y447238D01*
X407912Y447183D01*
Y447165D01*
X406327Y447001D01*
X406291Y447420D01*
X406218Y447784D01*
X406109Y448112D01*
X405981Y448367D01*
X405872Y448585D01*
X405763Y448731D01*
X405690Y448822D01*
X405653Y448858D01*
X405380Y449077D01*
X405089Y449241D01*
X404779Y449369D01*
X404506Y449441D01*
X404251Y449496D01*
X404033Y449514D01*
X403960Y449532D01*
X403850D01*
X403468Y449514D01*
X403122Y449441D01*
X402831Y449332D01*
X402575Y449223D01*
X402375Y449095D01*
X402248Y449004D01*
X402157Y448931D01*
X402120Y448895D01*
X401902Y448640D01*
X401738Y448385D01*
X401610Y448130D01*
X401538Y447875D01*
X401483Y447675D01*
X401465Y447493D01*
X401446Y447383D01*
Y447365D01*
Y447347D01*
X401483Y447019D01*
X401556Y446673D01*
X401683Y446363D01*
X401811Y446072D01*
X401956Y445835D01*
X402084Y445635D01*
X402120Y445562D01*
X402157Y445508D01*
X402193Y445489D01*
Y445471D01*
X402339Y445271D01*
X402521Y445070D01*
X402721Y444852D01*
X402940Y444633D01*
X403395Y444196D01*
X403850Y443759D01*
X404087Y443559D01*
X404287Y443377D01*
X404488Y443213D01*
X404652Y443067D01*
X404779Y442958D01*
X404888Y442867D01*
X404961Y442812D01*
X404980Y442794D01*
X405435Y442412D01*
X405854Y442047D01*
X406200Y441720D01*
X406473Y441446D01*
X406710Y441210D01*
X406874Y441046D01*
X406965Y440936D01*
X407001Y440918D01*
Y440900D01*
X407256Y440590D01*
X407456Y440299D01*
X407638Y440008D01*
X407784Y439753D01*
X407893Y439534D01*
X407966Y439370D01*
X408003Y439261D01*
X408021Y439243D01*
Y439225D01*
X408094Y439024D01*
X408130Y438842D01*
X408167Y438660D01*
X408185Y438496D01*
X408203Y438350D01*
Y438241D01*
Y438168D01*
Y438150D01*
X399844D01*
Y439643D01*
X406054D01*
X405835Y439953D01*
X405726Y440080D01*
X405635Y440208D01*
X405544Y440317D01*
X405471Y440390D01*
X405417Y440445D01*
X405398Y440463D01*
X405307Y440554D01*
X405198Y440645D01*
X404943Y440882D01*
X404652Y441155D01*
X404342Y441428D01*
X404051Y441665D01*
X403923Y441774D01*
X403814Y441883D01*
X403723Y441956D01*
X403650Y442011D01*
X403614Y442047D01*
X403595Y442066D01*
X403304Y442321D01*
X403013Y442557D01*
X402758Y442794D01*
X402521Y442994D01*
X402302Y443195D01*
X402120Y443377D01*
X401938Y443541D01*
X401792Y443686D01*
X401647Y443832D01*
X401538Y443941D01*
X401446Y444032D01*
X401355Y444123D01*
X401264Y444233D01*
X401228Y444269D01*
X400973Y444579D01*
X400754Y444852D01*
X400572Y445125D01*
X400427Y445344D01*
X400317Y445544D01*
X400244Y445690D01*
X400208Y445781D01*
X400190Y445817D01*
X400080Y446090D01*
X400008Y446363D01*
X399935Y446618D01*
X399898Y446837D01*
X399880Y447037D01*
X399862Y447183D01*
Y447274D01*
Y447310D01*
X399880Y447584D01*
X399917Y447839D01*
X399953Y448094D01*
X400026Y448312D01*
X400208Y448749D01*
X400390Y449095D01*
X400499Y449259D01*
X400591Y449387D01*
X400681Y449514D01*
X400773Y449605D01*
X400845Y449678D01*
X400882Y449751D01*
X400918Y449769D01*
X400937Y449787D01*
X401137Y449969D01*
X401355Y450133D01*
X401592Y450261D01*
X401829Y450370D01*
X402302Y450552D01*
X402776Y450680D01*
X402976Y450716D01*
X403176Y450753D01*
X403359Y450771D01*
X403504Y450789D01*
X403632Y450807D01*
X403814D01*
X404142Y450789D01*
D02*
G37*
G36*
X433536D02*
X433845Y450771D01*
X434137Y450716D01*
X434410Y450662D01*
X434665Y450589D01*
X434902Y450516D01*
X435120Y450425D01*
X435320Y450334D01*
X435503Y450243D01*
X435648Y450152D01*
X435776Y450079D01*
X435885Y450006D01*
X435976Y449951D01*
X436031Y449897D01*
X436067Y449878D01*
X436085Y449860D01*
X436267Y449678D01*
X436431Y449478D01*
X436595Y449259D01*
X436723Y449041D01*
X436941Y448604D01*
X437087Y448167D01*
X437141Y447966D01*
X437196Y447766D01*
X437233Y447602D01*
X437269Y447456D01*
X437287Y447329D01*
Y447238D01*
X437305Y447183D01*
Y447165D01*
X435721Y447001D01*
X435685Y447420D01*
X435612Y447784D01*
X435503Y448112D01*
X435375Y448367D01*
X435266Y448585D01*
X435157Y448731D01*
X435084Y448822D01*
X435047Y448858D01*
X434774Y449077D01*
X434483Y449241D01*
X434173Y449369D01*
X433900Y449441D01*
X433645Y449496D01*
X433426Y449514D01*
X433354Y449532D01*
X433244D01*
X432862Y449514D01*
X432516Y449441D01*
X432224Y449332D01*
X431969Y449223D01*
X431769Y449095D01*
X431642Y449004D01*
X431550Y448931D01*
X431514Y448895D01*
X431296Y448640D01*
X431132Y448385D01*
X431004Y448130D01*
X430931Y447875D01*
X430877Y447675D01*
X430858Y447493D01*
X430840Y447383D01*
Y447365D01*
Y447347D01*
X430877Y447019D01*
X430950Y446673D01*
X431077Y446363D01*
X431204Y446072D01*
X431350Y445835D01*
X431478Y445635D01*
X431514Y445562D01*
X431550Y445508D01*
X431587Y445489D01*
Y445471D01*
X431733Y445271D01*
X431915Y445070D01*
X432115Y444852D01*
X432334Y444633D01*
X432789Y444196D01*
X433244Y443759D01*
X433481Y443559D01*
X433681Y443377D01*
X433882Y443213D01*
X434045Y443067D01*
X434173Y442958D01*
X434282Y442867D01*
X434355Y442812D01*
X434373Y442794D01*
X434829Y442412D01*
X435247Y442047D01*
X435593Y441720D01*
X435867Y441446D01*
X436104Y441210D01*
X436267Y441046D01*
X436358Y440936D01*
X436395Y440918D01*
Y440900D01*
X436650Y440590D01*
X436850Y440299D01*
X437032Y440008D01*
X437178Y439753D01*
X437287Y439534D01*
X437360Y439370D01*
X437397Y439261D01*
X437415Y439243D01*
Y439225D01*
X437488Y439024D01*
X437524Y438842D01*
X437560Y438660D01*
X437579Y438496D01*
X437597Y438350D01*
Y438241D01*
Y438168D01*
Y438150D01*
X429238D01*
Y439643D01*
X435448D01*
X435229Y439953D01*
X435120Y440080D01*
X435029Y440208D01*
X434938Y440317D01*
X434865Y440390D01*
X434810Y440445D01*
X434792Y440463D01*
X434701Y440554D01*
X434592Y440645D01*
X434337Y440882D01*
X434045Y441155D01*
X433736Y441428D01*
X433445Y441665D01*
X433317Y441774D01*
X433208Y441883D01*
X433117Y441956D01*
X433044Y442011D01*
X433008Y442047D01*
X432989Y442066D01*
X432698Y442321D01*
X432407Y442557D01*
X432151Y442794D01*
X431915Y442994D01*
X431696Y443195D01*
X431514Y443377D01*
X431332Y443541D01*
X431186Y443686D01*
X431041Y443832D01*
X430931Y443941D01*
X430840Y444032D01*
X430749Y444123D01*
X430658Y444233D01*
X430622Y444269D01*
X430367Y444579D01*
X430148Y444852D01*
X429966Y445125D01*
X429820Y445344D01*
X429711Y445544D01*
X429638Y445690D01*
X429602Y445781D01*
X429584Y445817D01*
X429474Y446090D01*
X429402Y446363D01*
X429329Y446618D01*
X429292Y446837D01*
X429274Y447037D01*
X429256Y447183D01*
Y447274D01*
Y447310D01*
X429274Y447584D01*
X429310Y447839D01*
X429347Y448094D01*
X429420Y448312D01*
X429602Y448749D01*
X429784Y449095D01*
X429893Y449259D01*
X429984Y449387D01*
X430075Y449514D01*
X430166Y449605D01*
X430239Y449678D01*
X430276Y449751D01*
X430312Y449769D01*
X430330Y449787D01*
X430531Y449969D01*
X430749Y450133D01*
X430986Y450261D01*
X431223Y450370D01*
X431696Y450552D01*
X432170Y450680D01*
X432370Y450716D01*
X432570Y450753D01*
X432752Y450771D01*
X432898Y450789D01*
X433026Y450807D01*
X433208D01*
X433536Y450789D01*
D02*
G37*
G36*
X553497Y448986D02*
X551949D01*
Y450753D01*
X553497D01*
Y448986D01*
D02*
G37*
G36*
X594929Y438150D02*
X593289D01*
X591450Y445180D01*
X591086Y443614D01*
X589629Y438150D01*
X588045D01*
X585167Y447292D01*
X586679D01*
X588245Y441993D01*
X588773Y440226D01*
X589228Y441974D01*
X590594Y447292D01*
X592179D01*
X593635Y441920D01*
X593708Y441610D01*
X593781Y441337D01*
X593836Y441100D01*
X593890Y440900D01*
X593945Y440718D01*
X593982Y440572D01*
X594018Y440445D01*
X594036Y440335D01*
X594054Y440244D01*
X594073Y440190D01*
X594091Y440099D01*
X594109Y440062D01*
Y440044D01*
X594619Y442011D01*
X596076Y447292D01*
X597697D01*
X594929Y438150D01*
D02*
G37*
G36*
X477207Y447474D02*
X477517Y447420D01*
X477790Y447365D01*
X478027Y447292D01*
X478227Y447201D01*
X478373Y447147D01*
X478464Y447092D01*
X478501Y447074D01*
X478755Y446910D01*
X478974Y446728D01*
X479174Y446546D01*
X479338Y446363D01*
X479466Y446218D01*
X479575Y446090D01*
X479630Y446017D01*
X479648Y445981D01*
Y447292D01*
X481032D01*
Y438150D01*
X479484D01*
Y442885D01*
X479466Y443322D01*
X479448Y443705D01*
X479411Y444032D01*
X479356Y444306D01*
X479302Y444506D01*
X479265Y444652D01*
X479247Y444743D01*
X479229Y444779D01*
X479120Y445016D01*
X478992Y445216D01*
X478865Y445398D01*
X478737Y445544D01*
X478610Y445653D01*
X478519Y445726D01*
X478446Y445781D01*
X478428Y445799D01*
X478209Y445908D01*
X478009Y445999D01*
X477790Y446054D01*
X477608Y446109D01*
X477463Y446127D01*
X477335Y446145D01*
X477226D01*
X476916Y446127D01*
X476661Y446072D01*
X476443Y445981D01*
X476279Y445890D01*
X476151Y445781D01*
X476060Y445708D01*
X476006Y445635D01*
X475987Y445617D01*
X475860Y445398D01*
X475769Y445162D01*
X475696Y444907D01*
X475659Y444652D01*
X475623Y444433D01*
X475605Y444233D01*
Y444160D01*
Y444123D01*
Y444087D01*
Y444069D01*
Y438150D01*
X474057D01*
Y443450D01*
X474020Y443941D01*
X473948Y444360D01*
X473857Y444706D01*
X473729Y444998D01*
X473620Y445216D01*
X473511Y445362D01*
X473438Y445453D01*
X473419Y445489D01*
X473164Y445708D01*
X472891Y445872D01*
X472618Y445981D01*
X472363Y446072D01*
X472145Y446109D01*
X471963Y446127D01*
X471890Y446145D01*
X471799D01*
X471598Y446127D01*
X471434Y446109D01*
X471270Y446072D01*
X471143Y446017D01*
X471016Y445963D01*
X470943Y445926D01*
X470888Y445908D01*
X470870Y445890D01*
X470724Y445781D01*
X470615Y445672D01*
X470524Y445562D01*
X470451Y445453D01*
X470396Y445362D01*
X470360Y445289D01*
X470323Y445234D01*
Y445216D01*
X470269Y445052D01*
X470232Y444834D01*
X470214Y444615D01*
X470196Y444397D01*
X470178Y444196D01*
Y444032D01*
Y443923D01*
Y443905D01*
Y443887D01*
Y438150D01*
X468630D01*
Y444415D01*
Y444706D01*
X468666Y444961D01*
X468703Y445216D01*
X468739Y445435D01*
X468794Y445653D01*
X468867Y445835D01*
X468921Y445999D01*
X468994Y446163D01*
X469067Y446291D01*
X469122Y446418D01*
X469249Y446582D01*
X469322Y446691D01*
X469358Y446728D01*
X469650Y446983D01*
X469996Y447165D01*
X470342Y447310D01*
X470670Y447402D01*
X470979Y447456D01*
X471107Y447474D01*
X471234D01*
X471325Y447493D01*
X471453D01*
X471780Y447474D01*
X472072Y447420D01*
X472363Y447347D01*
X472636Y447238D01*
X472891Y447110D01*
X473128Y446983D01*
X473328Y446837D01*
X473529Y446691D01*
X473711Y446527D01*
X473857Y446382D01*
X473984Y446254D01*
X474093Y446127D01*
X474184Y446017D01*
X474239Y445945D01*
X474275Y445890D01*
X474294Y445872D01*
X474403Y446145D01*
X474549Y446382D01*
X474712Y446582D01*
X474858Y446746D01*
X475004Y446892D01*
X475113Y446983D01*
X475186Y447037D01*
X475222Y447056D01*
X475477Y447201D01*
X475751Y447310D01*
X476024Y447383D01*
X476297Y447438D01*
X476516Y447474D01*
X476716Y447493D01*
X476880D01*
X477207Y447474D01*
D02*
G37*
G36*
X413138Y450498D02*
X413339Y450206D01*
X413576Y449915D01*
X413794Y449660D01*
X414013Y449441D01*
X414176Y449259D01*
X414249Y449205D01*
X414304Y449150D01*
X414322Y449132D01*
X414340Y449114D01*
X414723Y448804D01*
X415105Y448512D01*
X415470Y448257D01*
X415834Y448057D01*
X416143Y447875D01*
X416271Y447802D01*
X416380Y447748D01*
X416471Y447693D01*
X416544Y447675D01*
X416580Y447638D01*
X416599D01*
Y446145D01*
X416325Y446254D01*
X416052Y446382D01*
X415779Y446509D01*
X415524Y446637D01*
X415306Y446746D01*
X415123Y446837D01*
X415014Y446910D01*
X414996Y446928D01*
X414978D01*
X414650Y447128D01*
X414359Y447329D01*
X414104Y447511D01*
X413903Y447675D01*
X413721Y447802D01*
X413612Y447911D01*
X413521Y447984D01*
X413503Y448003D01*
Y438150D01*
X411955D01*
Y450807D01*
X412956D01*
X413138Y450498D01*
D02*
G37*
G36*
X602978Y447474D02*
X603270Y447456D01*
X603834Y447329D01*
X604326Y447165D01*
X604544Y447074D01*
X604745Y446983D01*
X604927Y446892D01*
X605073Y446801D01*
X605218Y446710D01*
X605327Y446637D01*
X605419Y446564D01*
X605491Y446509D01*
X605528Y446491D01*
X605546Y446473D01*
X605801Y446236D01*
X606001Y445963D01*
X606202Y445672D01*
X606347Y445380D01*
X606493Y445070D01*
X606602Y444743D01*
X606693Y444433D01*
X606766Y444142D01*
X606839Y443850D01*
X606875Y443595D01*
X606912Y443340D01*
X606930Y443140D01*
Y442958D01*
X606948Y442830D01*
Y442758D01*
Y442721D01*
X606930Y442302D01*
X606894Y441902D01*
X606839Y441537D01*
X606766Y441191D01*
X606675Y440882D01*
X606584Y440590D01*
X606475Y440317D01*
X606366Y440080D01*
X606256Y439862D01*
X606147Y439680D01*
X606056Y439534D01*
X605965Y439407D01*
X605892Y439297D01*
X605837Y439225D01*
X605801Y439188D01*
X605783Y439170D01*
X605546Y438951D01*
X605309Y438769D01*
X605054Y438605D01*
X604799Y438460D01*
X604544Y438350D01*
X604271Y438241D01*
X603779Y438095D01*
X603561Y438059D01*
X603342Y438022D01*
X603160Y437986D01*
X602996Y437968D01*
X602851Y437950D01*
X602669D01*
X602231Y437968D01*
X601831Y438041D01*
X601448Y438132D01*
X601139Y438223D01*
X600866Y438332D01*
X600756Y438368D01*
X600665Y438405D01*
X600574Y438441D01*
X600520Y438478D01*
X600501Y438496D01*
X600483D01*
X600119Y438733D01*
X599809Y438988D01*
X599536Y439243D01*
X599318Y439498D01*
X599154Y439716D01*
X599026Y439898D01*
X598990Y439971D01*
X598953Y440026D01*
X598935Y440044D01*
Y440062D01*
X598753Y440481D01*
X598626Y440936D01*
X598516Y441392D01*
X598462Y441847D01*
X598425Y442047D01*
Y442229D01*
X598407Y442412D01*
X598389Y442557D01*
Y442685D01*
Y442776D01*
Y442830D01*
Y442849D01*
X598407Y443249D01*
X598443Y443614D01*
X598498Y443960D01*
X598571Y444287D01*
X598662Y444597D01*
X598771Y444870D01*
X598881Y445143D01*
X598990Y445362D01*
X599099Y445562D01*
X599208Y445744D01*
X599318Y445908D01*
X599409Y446036D01*
X599482Y446127D01*
X599536Y446200D01*
X599573Y446236D01*
X599591Y446254D01*
X599828Y446473D01*
X600064Y446655D01*
X600319Y446837D01*
X600574Y446964D01*
X600829Y447092D01*
X601084Y447183D01*
X601576Y447347D01*
X601813Y447383D01*
X602013Y447420D01*
X602195Y447456D01*
X602359Y447474D01*
X602486Y447493D01*
X602669D01*
X602978Y447474D01*
D02*
G37*
G36*
X507020D02*
X507312Y447456D01*
X507876Y447329D01*
X508368Y447165D01*
X508586Y447074D01*
X508787Y446983D01*
X508969Y446892D01*
X509115Y446801D01*
X509260Y446710D01*
X509370Y446637D01*
X509461Y446564D01*
X509533Y446509D01*
X509570Y446491D01*
X509588Y446473D01*
X509843Y446236D01*
X510043Y445963D01*
X510244Y445672D01*
X510389Y445380D01*
X510535Y445070D01*
X510644Y444743D01*
X510735Y444433D01*
X510808Y444142D01*
X510881Y443850D01*
X510918Y443595D01*
X510954Y443340D01*
X510972Y443140D01*
Y442958D01*
X510990Y442830D01*
Y442758D01*
Y442721D01*
X510972Y442302D01*
X510936Y441902D01*
X510881Y441537D01*
X510808Y441191D01*
X510717Y440882D01*
X510626Y440590D01*
X510517Y440317D01*
X510408Y440080D01*
X510298Y439862D01*
X510189Y439680D01*
X510098Y439534D01*
X510007Y439407D01*
X509934Y439297D01*
X509879Y439225D01*
X509843Y439188D01*
X509825Y439170D01*
X509588Y438951D01*
X509351Y438769D01*
X509096Y438605D01*
X508841Y438460D01*
X508586Y438350D01*
X508313Y438241D01*
X507822Y438095D01*
X507603Y438059D01*
X507384Y438022D01*
X507202Y437986D01*
X507038Y437968D01*
X506893Y437950D01*
X506711D01*
X506273Y437968D01*
X505873Y438041D01*
X505490Y438132D01*
X505181Y438223D01*
X504908Y438332D01*
X504798Y438368D01*
X504707Y438405D01*
X504616Y438441D01*
X504562Y438478D01*
X504543Y438496D01*
X504525D01*
X504161Y438733D01*
X503851Y438988D01*
X503578Y439243D01*
X503360Y439498D01*
X503196Y439716D01*
X503068Y439898D01*
X503032Y439971D01*
X502995Y440026D01*
X502977Y440044D01*
Y440062D01*
X502795Y440481D01*
X502668Y440936D01*
X502558Y441392D01*
X502504Y441847D01*
X502467Y442047D01*
Y442229D01*
X502449Y442412D01*
X502431Y442557D01*
Y442685D01*
Y442776D01*
Y442830D01*
Y442849D01*
X502449Y443249D01*
X502486Y443614D01*
X502540Y443960D01*
X502613Y444287D01*
X502704Y444597D01*
X502813Y444870D01*
X502923Y445143D01*
X503032Y445362D01*
X503141Y445562D01*
X503250Y445744D01*
X503360Y445908D01*
X503451Y446036D01*
X503524Y446127D01*
X503578Y446200D01*
X503615Y446236D01*
X503633Y446254D01*
X503870Y446473D01*
X504106Y446655D01*
X504361Y446837D01*
X504616Y446964D01*
X504871Y447092D01*
X505126Y447183D01*
X505618Y447347D01*
X505855Y447383D01*
X506055Y447420D01*
X506237Y447456D01*
X506401Y447474D01*
X506529Y447493D01*
X506711D01*
X507020Y447474D01*
D02*
G37*
G36*
X452603Y442594D02*
Y441173D01*
X447122D01*
Y438150D01*
X445574D01*
Y441173D01*
X443862D01*
Y442594D01*
X445574D01*
Y450753D01*
X446830D01*
X452603Y442594D01*
D02*
G37*
G36*
X423956Y450771D02*
X424412Y450698D01*
X424794Y450570D01*
X425122Y450443D01*
X425395Y450297D01*
X425504Y450243D01*
X425595Y450170D01*
X425668Y450133D01*
X425723Y450097D01*
X425741Y450061D01*
X425759D01*
X426087Y449769D01*
X426360Y449423D01*
X426597Y449077D01*
X426779Y448749D01*
X426925Y448440D01*
X426998Y448312D01*
X427034Y448185D01*
X427070Y448094D01*
X427107Y448021D01*
X427125Y447984D01*
Y447966D01*
X427198Y447693D01*
X427271Y447420D01*
X427380Y446819D01*
X427471Y446218D01*
X427526Y445653D01*
X427544Y445380D01*
X427562Y445143D01*
Y444925D01*
X427580Y444725D01*
Y444579D01*
Y444451D01*
Y444378D01*
Y444360D01*
X427562Y443723D01*
X427526Y443122D01*
X427471Y442575D01*
X427380Y442066D01*
X427289Y441592D01*
X427180Y441173D01*
X427070Y440791D01*
X426961Y440463D01*
X426852Y440172D01*
X426724Y439916D01*
X426633Y439698D01*
X426542Y439534D01*
X426451Y439388D01*
X426397Y439297D01*
X426360Y439243D01*
X426342Y439225D01*
X426142Y439006D01*
X425923Y438806D01*
X425686Y438624D01*
X425450Y438478D01*
X425213Y438350D01*
X424976Y438241D01*
X424739Y438168D01*
X424521Y438095D01*
X424302Y438041D01*
X424102Y438004D01*
X423920Y437968D01*
X423774Y437950D01*
X423647Y437932D01*
X423465D01*
X422973Y437968D01*
X422518Y438041D01*
X422135Y438168D01*
X421807Y438296D01*
X421534Y438423D01*
X421443Y438496D01*
X421352Y438551D01*
X421279Y438587D01*
X421224Y438624D01*
X421206Y438660D01*
X421188D01*
X420860Y438969D01*
X420587Y439297D01*
X420350Y439662D01*
X420168Y439989D01*
X420023Y440299D01*
X419950Y440426D01*
X419913Y440554D01*
X419877Y440645D01*
X419840Y440718D01*
X419822Y440754D01*
Y440773D01*
X419731Y441046D01*
X419658Y441319D01*
X419549Y441902D01*
X419458Y442503D01*
X419403Y443085D01*
X419385Y443340D01*
X419367Y443577D01*
Y443796D01*
X419349Y443996D01*
Y444142D01*
Y444269D01*
Y444342D01*
Y444360D01*
Y444706D01*
X419367Y445034D01*
Y445325D01*
X419385Y445617D01*
X419422Y445872D01*
X419440Y446127D01*
X419458Y446345D01*
X419494Y446546D01*
X419512Y446728D01*
X419549Y446892D01*
X419567Y447019D01*
X419585Y447128D01*
X419604Y447220D01*
X419622Y447274D01*
X419640Y447310D01*
Y447329D01*
X419749Y447729D01*
X419877Y448094D01*
X420023Y448403D01*
X420132Y448676D01*
X420259Y448913D01*
X420332Y449077D01*
X420405Y449168D01*
X420423Y449205D01*
X420623Y449478D01*
X420824Y449715D01*
X421042Y449915D01*
X421243Y450097D01*
X421425Y450224D01*
X421571Y450316D01*
X421661Y450370D01*
X421680Y450388D01*
X421698D01*
X421989Y450534D01*
X422299Y450625D01*
X422590Y450698D01*
X422864Y450753D01*
X423100Y450789D01*
X423301Y450807D01*
X423465D01*
X423956Y450771D01*
D02*
G37*
G36*
X630697Y450953D02*
X631115Y450898D01*
X631516Y450825D01*
X631862Y450753D01*
X632135Y450680D01*
X632263Y450643D01*
X632354Y450607D01*
X632427Y450570D01*
X632481Y450552D01*
X632518Y450534D01*
X632536D01*
X632900Y450352D01*
X633228Y450152D01*
X633501Y449933D01*
X633720Y449733D01*
X633884Y449551D01*
X634011Y449405D01*
X634102Y449296D01*
X634120Y449277D01*
Y449259D01*
X634302Y448950D01*
X634430Y448640D01*
X634521Y448330D01*
X634576Y448057D01*
X634612Y447821D01*
X634649Y447638D01*
Y447565D01*
Y447511D01*
Y447493D01*
Y447474D01*
X634630Y447165D01*
X634576Y446874D01*
X634503Y446600D01*
X634430Y446363D01*
X634357Y446181D01*
X634284Y446036D01*
X634230Y445945D01*
X634211Y445908D01*
X634029Y445653D01*
X633811Y445416D01*
X633592Y445216D01*
X633374Y445052D01*
X633192Y444907D01*
X633028Y444815D01*
X632918Y444743D01*
X632900Y444725D01*
X632882D01*
X632736Y444652D01*
X632572Y444579D01*
X632208Y444451D01*
X631789Y444324D01*
X631389Y444196D01*
X631024Y444087D01*
X630860Y444051D01*
X630715Y444014D01*
X630606Y443978D01*
X630514Y443960D01*
X630460Y443941D01*
X630442D01*
X630132Y443868D01*
X629841Y443796D01*
X629586Y443723D01*
X629367Y443668D01*
X629149Y443614D01*
X628966Y443559D01*
X628802Y443522D01*
X628675Y443468D01*
X628548Y443431D01*
X628456Y443413D01*
X628311Y443359D01*
X628220Y443340D01*
X628201Y443322D01*
X627928Y443213D01*
X627692Y443085D01*
X627491Y442958D01*
X627346Y442849D01*
X627218Y442739D01*
X627145Y442667D01*
X627091Y442612D01*
X627072Y442594D01*
X626945Y442430D01*
X626854Y442248D01*
X626799Y442066D01*
X626745Y441920D01*
X626726Y441774D01*
X626708Y441665D01*
Y441574D01*
Y441556D01*
X626726Y441337D01*
X626763Y441137D01*
X626817Y440955D01*
X626890Y440809D01*
X626963Y440663D01*
X627018Y440572D01*
X627054Y440499D01*
X627072Y440481D01*
X627218Y440299D01*
X627400Y440153D01*
X627582Y440026D01*
X627746Y439898D01*
X627910Y439826D01*
X628038Y439753D01*
X628129Y439716D01*
X628165Y439698D01*
X628438Y439607D01*
X628730Y439534D01*
X629021Y439498D01*
X629276Y439461D01*
X629495Y439443D01*
X629677Y439425D01*
X629841D01*
X630241Y439443D01*
X630606Y439479D01*
X630933Y439534D01*
X631225Y439607D01*
X631461Y439680D01*
X631644Y439734D01*
X631698Y439753D01*
X631753Y439771D01*
X631771Y439789D01*
X631789D01*
X632081Y439935D01*
X632354Y440099D01*
X632554Y440263D01*
X632736Y440426D01*
X632882Y440554D01*
X632973Y440681D01*
X633028Y440754D01*
X633046Y440773D01*
X633173Y441009D01*
X633301Y441264D01*
X633374Y441537D01*
X633447Y441774D01*
X633501Y442011D01*
X633538Y442175D01*
Y442248D01*
X633556Y442302D01*
Y442321D01*
Y442339D01*
X635122Y442193D01*
X635086Y441738D01*
X635013Y441301D01*
X634903Y440918D01*
X634776Y440572D01*
X634649Y440299D01*
X634594Y440190D01*
X634557Y440099D01*
X634503Y440026D01*
X634485Y439971D01*
X634448Y439935D01*
Y439916D01*
X634175Y439571D01*
X633884Y439261D01*
X633574Y439006D01*
X633283Y438787D01*
X633028Y438624D01*
X632809Y438514D01*
X632736Y438478D01*
X632682Y438441D01*
X632645Y438423D01*
X632627D01*
X632172Y438259D01*
X631698Y438132D01*
X631225Y438059D01*
X630769Y437986D01*
X630551Y437968D01*
X630369Y437950D01*
X630205D01*
X630059Y437932D01*
X629768D01*
X629276Y437950D01*
X628821Y438004D01*
X628402Y438095D01*
X628056Y438186D01*
X627765Y438259D01*
X627637Y438314D01*
X627528Y438350D01*
X627455Y438387D01*
X627400Y438405D01*
X627364Y438423D01*
X627346D01*
X626963Y438624D01*
X626635Y438842D01*
X626344Y439079D01*
X626107Y439297D01*
X625925Y439479D01*
X625798Y439643D01*
X625706Y439753D01*
X625688Y439771D01*
Y439789D01*
X625488Y440135D01*
X625342Y440463D01*
X625251Y440773D01*
X625178Y441064D01*
X625142Y441319D01*
X625106Y441519D01*
Y441592D01*
Y441647D01*
Y441665D01*
Y441683D01*
X625124Y442047D01*
X625178Y442393D01*
X625269Y442703D01*
X625360Y442958D01*
X625470Y443176D01*
X625543Y443340D01*
X625616Y443431D01*
X625634Y443468D01*
X625852Y443741D01*
X626107Y443996D01*
X626380Y444215D01*
X626654Y444415D01*
X626890Y444561D01*
X627091Y444670D01*
X627164Y444706D01*
X627218Y444743D01*
X627254Y444761D01*
X627273D01*
X627418Y444834D01*
X627601Y444888D01*
X627801Y444961D01*
X628019Y445034D01*
X628475Y445162D01*
X628948Y445289D01*
X629167Y445344D01*
X629367Y445398D01*
X629567Y445453D01*
X629731Y445489D01*
X629859Y445526D01*
X629968Y445544D01*
X630041Y445562D01*
X630059D01*
X630423Y445653D01*
X630751Y445726D01*
X631043Y445817D01*
X631297Y445890D01*
X631534Y445981D01*
X631735Y446054D01*
X631917Y446127D01*
X632081Y446181D01*
X632208Y446254D01*
X632317Y446309D01*
X632390Y446345D01*
X632463Y446400D01*
X632554Y446455D01*
X632572Y446473D01*
X632736Y446655D01*
X632845Y446837D01*
X632937Y447019D01*
X632991Y447201D01*
X633028Y447347D01*
X633046Y447474D01*
Y447547D01*
Y447584D01*
X633009Y447875D01*
X632937Y448130D01*
X632827Y448349D01*
X632700Y448549D01*
X632591Y448695D01*
X632481Y448822D01*
X632408Y448895D01*
X632372Y448913D01*
X632226Y449004D01*
X632081Y449095D01*
X631735Y449241D01*
X631370Y449332D01*
X631006Y449405D01*
X630678Y449441D01*
X630533Y449459D01*
X630423Y449478D01*
X630168D01*
X629659Y449459D01*
X629203Y449387D01*
X628839Y449277D01*
X628529Y449168D01*
X628293Y449059D01*
X628111Y448950D01*
X628019Y448877D01*
X627983Y448858D01*
X627728Y448604D01*
X627528Y448330D01*
X627364Y448039D01*
X627254Y447748D01*
X627182Y447474D01*
X627127Y447274D01*
X627109Y447183D01*
X627091Y447128D01*
Y447092D01*
Y447074D01*
X625488Y447201D01*
X625524Y447602D01*
X625616Y447966D01*
X625706Y448312D01*
X625834Y448604D01*
X625943Y448840D01*
X626034Y449022D01*
X626071Y449077D01*
X626107Y449132D01*
X626125Y449150D01*
Y449168D01*
X626362Y449478D01*
X626617Y449751D01*
X626890Y449988D01*
X627164Y450170D01*
X627400Y450334D01*
X627582Y450425D01*
X627655Y450461D01*
X627710Y450498D01*
X627746Y450516D01*
X627765D01*
X628165Y450662D01*
X628602Y450771D01*
X629003Y450862D01*
X629385Y450916D01*
X629731Y450953D01*
X629859D01*
X629986Y450971D01*
X630223D01*
X630697Y450953D01*
D02*
G37*
G36*
X494818Y446236D02*
X494982Y446436D01*
X495164Y446600D01*
X495328Y446764D01*
X495510Y446892D01*
X495656Y446983D01*
X495765Y447074D01*
X495838Y447110D01*
X495875Y447128D01*
X496111Y447256D01*
X496366Y447347D01*
X496621Y447402D01*
X496858Y447456D01*
X497058Y447474D01*
X497204Y447493D01*
X497350D01*
X497750Y447474D01*
X498133Y447402D01*
X498479Y447310D01*
X498770Y447201D01*
X499025Y447074D01*
X499207Y446983D01*
X499280Y446946D01*
X499335Y446910D01*
X499353Y446892D01*
X499371D01*
X499699Y446655D01*
X499972Y446363D01*
X500209Y446090D01*
X500391Y445817D01*
X500537Y445562D01*
X500646Y445362D01*
X500682Y445289D01*
X500719Y445234D01*
X500737Y445198D01*
Y445180D01*
X500883Y444761D01*
X500992Y444324D01*
X501083Y443905D01*
X501138Y443522D01*
X501174Y443195D01*
Y443049D01*
X501192Y442940D01*
Y442830D01*
Y442758D01*
Y442721D01*
Y442703D01*
X501174Y442193D01*
X501120Y441720D01*
X501029Y441301D01*
X500938Y440936D01*
X500901Y440773D01*
X500865Y440645D01*
X500810Y440518D01*
X500774Y440408D01*
X500737Y440335D01*
X500719Y440281D01*
X500701Y440244D01*
Y440226D01*
X500500Y439844D01*
X500264Y439516D01*
X500027Y439225D01*
X499790Y438988D01*
X499590Y438806D01*
X499426Y438660D01*
X499317Y438587D01*
X499298Y438551D01*
X499280D01*
X498934Y438350D01*
X498588Y438205D01*
X498242Y438095D01*
X497933Y438022D01*
X497678Y437986D01*
X497459Y437968D01*
X497386Y437950D01*
X497277D01*
X496967Y437968D01*
X496676Y438004D01*
X496403Y438077D01*
X496166Y438168D01*
X495929Y438259D01*
X495711Y438368D01*
X495529Y438496D01*
X495365Y438624D01*
X495201Y438751D01*
X495073Y438879D01*
X494964Y438988D01*
X494873Y439079D01*
X494800Y439170D01*
X494745Y439243D01*
X494727Y439279D01*
X494709Y439297D01*
Y438150D01*
X493270D01*
Y450753D01*
X494818D01*
Y446236D01*
D02*
G37*
G36*
X443006Y437932D02*
X441767D01*
X438107Y450971D01*
X439345D01*
X443006Y437932D01*
D02*
G37*
G36*
X458249Y450771D02*
X458704Y450698D01*
X459087Y450570D01*
X459415Y450443D01*
X459688Y450297D01*
X459797Y450243D01*
X459888Y450170D01*
X459961Y450133D01*
X460016Y450097D01*
X460034Y450061D01*
X460052D01*
X460380Y449769D01*
X460653Y449423D01*
X460890Y449077D01*
X461072Y448749D01*
X461217Y448440D01*
X461290Y448312D01*
X461327Y448185D01*
X461363Y448094D01*
X461400Y448021D01*
X461418Y447984D01*
Y447966D01*
X461491Y447693D01*
X461564Y447420D01*
X461673Y446819D01*
X461764Y446218D01*
X461819Y445653D01*
X461837Y445380D01*
X461855Y445143D01*
Y444925D01*
X461873Y444725D01*
Y444579D01*
Y444451D01*
Y444378D01*
Y444360D01*
X461855Y443723D01*
X461819Y443122D01*
X461764Y442575D01*
X461673Y442066D01*
X461582Y441592D01*
X461473Y441173D01*
X461363Y440791D01*
X461254Y440463D01*
X461145Y440172D01*
X461017Y439916D01*
X460926Y439698D01*
X460835Y439534D01*
X460744Y439388D01*
X460689Y439297D01*
X460653Y439243D01*
X460635Y439225D01*
X460434Y439006D01*
X460216Y438806D01*
X459979Y438624D01*
X459742Y438478D01*
X459506Y438350D01*
X459269Y438241D01*
X459032Y438168D01*
X458814Y438095D01*
X458595Y438041D01*
X458395Y438004D01*
X458213Y437968D01*
X458067Y437950D01*
X457939Y437932D01*
X457757D01*
X457266Y437968D01*
X456810Y438041D01*
X456428Y438168D01*
X456100Y438296D01*
X455827Y438423D01*
X455736Y438496D01*
X455645Y438551D01*
X455572Y438587D01*
X455517Y438624D01*
X455499Y438660D01*
X455481D01*
X455153Y438969D01*
X454880Y439297D01*
X454643Y439662D01*
X454461Y439989D01*
X454315Y440299D01*
X454242Y440426D01*
X454206Y440554D01*
X454170Y440645D01*
X454133Y440718D01*
X454115Y440754D01*
Y440773D01*
X454024Y441046D01*
X453951Y441319D01*
X453842Y441902D01*
X453751Y442503D01*
X453696Y443085D01*
X453678Y443340D01*
X453660Y443577D01*
Y443796D01*
X453641Y443996D01*
Y444142D01*
Y444269D01*
Y444342D01*
Y444360D01*
Y444706D01*
X453660Y445034D01*
Y445325D01*
X453678Y445617D01*
X453714Y445872D01*
X453732Y446127D01*
X453751Y446345D01*
X453787Y446546D01*
X453805Y446728D01*
X453842Y446892D01*
X453860Y447019D01*
X453878Y447128D01*
X453896Y447220D01*
X453915Y447274D01*
X453933Y447310D01*
Y447329D01*
X454042Y447729D01*
X454170Y448094D01*
X454315Y448403D01*
X454425Y448676D01*
X454552Y448913D01*
X454625Y449077D01*
X454698Y449168D01*
X454716Y449205D01*
X454916Y449478D01*
X455117Y449715D01*
X455335Y449915D01*
X455536Y450097D01*
X455718Y450224D01*
X455863Y450316D01*
X455954Y450370D01*
X455973Y450388D01*
X455991D01*
X456282Y450534D01*
X456592Y450625D01*
X456883Y450698D01*
X457156Y450753D01*
X457393Y450789D01*
X457593Y450807D01*
X457757D01*
X458249Y450771D01*
D02*
G37*
G36*
X545647Y447474D02*
X545975Y447420D01*
X546267Y447347D01*
X546558Y447256D01*
X546813Y447147D01*
X547050Y447019D01*
X547268Y446874D01*
X547450Y446746D01*
X547632Y446600D01*
X547778Y446455D01*
X547906Y446327D01*
X548015Y446218D01*
X548088Y446127D01*
X548143Y446054D01*
X548179Y445999D01*
X548197Y445981D01*
Y447292D01*
X549581D01*
Y438150D01*
X548033D01*
Y443122D01*
Y443431D01*
X547997Y443741D01*
X547960Y443996D01*
X547924Y444233D01*
X547869Y444451D01*
X547815Y444652D01*
X547742Y444834D01*
X547669Y444979D01*
X547614Y445107D01*
X547542Y445216D01*
X547487Y445307D01*
X547432Y445380D01*
X547359Y445471D01*
X547323Y445508D01*
X547050Y445726D01*
X546758Y445872D01*
X546467Y445981D01*
X546212Y446072D01*
X545975Y446109D01*
X545793Y446127D01*
X545720Y446145D01*
X545629D01*
X545411Y446127D01*
X545192Y446109D01*
X545010Y446054D01*
X544864Y445999D01*
X544737Y445945D01*
X544628Y445908D01*
X544573Y445872D01*
X544555Y445854D01*
X544391Y445744D01*
X544245Y445617D01*
X544136Y445489D01*
X544045Y445380D01*
X543990Y445271D01*
X543936Y445180D01*
X543899Y445125D01*
Y445107D01*
X543844Y444907D01*
X543790Y444688D01*
X543753Y444451D01*
X543735Y444215D01*
X543717Y444014D01*
Y443850D01*
Y443723D01*
Y443705D01*
Y443686D01*
Y438150D01*
X542169D01*
Y443759D01*
Y444142D01*
X542187Y444451D01*
X542205Y444706D01*
Y444925D01*
X542224Y445070D01*
X542242Y445180D01*
X542260Y445253D01*
Y445271D01*
X542315Y445508D01*
X542406Y445726D01*
X542479Y445908D01*
X542551Y446090D01*
X542643Y446218D01*
X542697Y446309D01*
X542734Y446382D01*
X542752Y446400D01*
X542897Y446582D01*
X543061Y446728D01*
X543225Y446874D01*
X543407Y446983D01*
X543553Y447074D01*
X543681Y447128D01*
X543753Y447165D01*
X543790Y447183D01*
X544045Y447292D01*
X544318Y447365D01*
X544573Y447420D01*
X544810Y447456D01*
X545010Y447474D01*
X545156Y447493D01*
X545301D01*
X545647Y447474D01*
D02*
G37*
G36*
X563167Y438150D02*
X555281D01*
Y439643D01*
X561492D01*
Y450753D01*
X563167D01*
Y438150D01*
D02*
G37*
G36*
X570907Y447474D02*
X571089Y447438D01*
X571272Y447383D01*
X571417Y447329D01*
X571526Y447274D01*
X571636Y447220D01*
X571690Y447183D01*
X571708Y447165D01*
X571872Y447019D01*
X572036Y446837D01*
X572200Y446618D01*
X572346Y446418D01*
X572492Y446218D01*
X572583Y446054D01*
X572655Y445926D01*
X572674Y445908D01*
Y447292D01*
X574076D01*
Y438150D01*
X572528D01*
Y442921D01*
X572510Y443286D01*
X572492Y443614D01*
X572455Y443923D01*
X572401Y444196D01*
X572346Y444415D01*
X572309Y444579D01*
X572291Y444688D01*
X572273Y444725D01*
X572200Y444925D01*
X572109Y445089D01*
X572018Y445234D01*
X571927Y445362D01*
X571836Y445453D01*
X571781Y445526D01*
X571727Y445562D01*
X571708Y445580D01*
X571563Y445690D01*
X571399Y445762D01*
X571235Y445817D01*
X571107Y445854D01*
X570980Y445872D01*
X570889Y445890D01*
X570798D01*
X570598Y445872D01*
X570397Y445835D01*
X570197Y445781D01*
X570033Y445726D01*
X569887Y445672D01*
X569778Y445617D01*
X569705Y445580D01*
X569687Y445562D01*
X569123Y446983D01*
X569432Y447147D01*
X569723Y447274D01*
X569978Y447365D01*
X570215Y447438D01*
X570415Y447474D01*
X570579Y447493D01*
X570707D01*
X570907Y447474D01*
D02*
G37*
G36*
X617912Y438150D02*
X616236D01*
Y443268D01*
X613013D01*
X612539Y443286D01*
X612084Y443322D01*
X611683Y443377D01*
X611319Y443450D01*
X610973Y443522D01*
X610682Y443614D01*
X610409Y443723D01*
X610172Y443832D01*
X609972Y443923D01*
X609789Y444032D01*
X609644Y444123D01*
X609534Y444215D01*
X609443Y444269D01*
X609389Y444324D01*
X609352Y444360D01*
X609334Y444378D01*
X609152Y444597D01*
X608988Y444815D01*
X608861Y445034D01*
X608733Y445271D01*
X608624Y445508D01*
X608551Y445726D01*
X608424Y446145D01*
X608387Y446345D01*
X608351Y446527D01*
X608332Y446691D01*
X608314Y446819D01*
X608296Y446946D01*
Y447019D01*
Y447074D01*
Y447092D01*
X608314Y447438D01*
X608351Y447766D01*
X608424Y448057D01*
X608478Y448312D01*
X608551Y448531D01*
X608624Y448695D01*
X608660Y448786D01*
X608679Y448822D01*
X608824Y449095D01*
X609006Y449332D01*
X609170Y449551D01*
X609334Y449715D01*
X609480Y449842D01*
X609589Y449951D01*
X609662Y450006D01*
X609698Y450024D01*
X609935Y450170D01*
X610208Y450297D01*
X610463Y450406D01*
X610700Y450498D01*
X610919Y450552D01*
X611082Y450589D01*
X611210Y450625D01*
X611246D01*
X611520Y450662D01*
X611829Y450698D01*
X612157Y450716D01*
X612467Y450734D01*
X612740Y450753D01*
X617912D01*
Y438150D01*
D02*
G37*
G36*
X553497D02*
X551949D01*
Y447292D01*
X553497D01*
Y438150D01*
D02*
G37*
%LPC*%
G36*
X1033272Y341630D02*
X1025652D01*
Y338455D01*
X1030097Y334010D01*
X1033272D01*
Y341630D01*
D02*
G37*
G36*
X1571498Y337862D02*
X1559306D01*
X1557323Y337601D01*
X1555475Y336835D01*
X1553889Y335617D01*
X1552671Y334031D01*
X1551906Y332183D01*
X1551644Y330200D01*
X1551906Y328217D01*
X1552671Y326369D01*
X1553889Y324782D01*
X1555475Y323565D01*
X1557323Y322799D01*
X1559306Y322538D01*
X1571498D01*
X1573481Y322799D01*
X1575329Y323565D01*
X1576915Y324782D01*
X1578133Y326369D01*
X1578898Y328217D01*
X1579160Y330200D01*
X1578898Y332183D01*
X1578133Y334031D01*
X1576915Y335617D01*
X1575329Y336835D01*
X1573481Y337601D01*
X1571498Y337862D01*
D02*
G37*
G36*
X1038987Y351790D02*
X1035812D01*
Y344170D01*
X1043432D01*
Y347345D01*
X1038987Y351790D01*
D02*
G37*
G36*
X1219200Y403168D02*
X1216840Y402699D01*
X1214840Y401362D01*
X1213503Y399362D01*
X1213034Y397002D01*
X1213503Y394642D01*
X1214840Y392642D01*
X1215599Y392134D01*
Y347768D01*
X1214840Y347260D01*
X1213503Y345260D01*
X1213034Y342900D01*
X1213503Y340540D01*
X1214840Y338540D01*
X1216840Y337203D01*
X1219200Y336734D01*
X1221560Y337203D01*
X1223560Y338540D01*
X1224897Y340540D01*
X1225367Y342900D01*
X1224897Y345260D01*
X1223560Y347260D01*
X1222801Y347768D01*
Y392134D01*
X1223560Y392642D01*
X1224897Y394642D01*
X1225367Y397002D01*
X1224897Y399362D01*
X1223560Y401362D01*
X1221560Y402699D01*
X1219200Y403168D01*
D02*
G37*
G36*
X1043432Y341630D02*
X1035812D01*
Y334010D01*
X1038987D01*
X1043432Y338455D01*
Y341630D01*
D02*
G37*
G36*
X1033272Y351790D02*
X1030097D01*
X1025652Y347345D01*
Y344170D01*
X1033272D01*
Y351790D01*
D02*
G37*
G36*
Y294640D02*
X1030097D01*
X1025652Y290195D01*
Y287020D01*
X1033272D01*
Y294640D01*
D02*
G37*
G36*
X1038987D02*
X1035812D01*
Y287020D01*
X1043432D01*
Y290195D01*
X1038987Y294640D01*
D02*
G37*
G36*
X1571498Y288111D02*
X1566672D01*
Y280670D01*
X1580041D01*
X1579912Y281654D01*
X1579041Y283755D01*
X1577657Y285559D01*
X1575853Y286943D01*
X1573752Y287814D01*
X1571498Y288111D01*
D02*
G37*
G36*
X436499Y288798D02*
X433070D01*
Y280670D01*
X441198D01*
Y284099D01*
X436499Y288798D01*
D02*
G37*
G36*
X1564132Y288111D02*
X1559306D01*
X1557052Y287814D01*
X1554951Y286943D01*
X1553147Y285559D01*
X1551763Y283755D01*
X1550892Y281654D01*
X1550763Y280670D01*
X1564132D01*
Y288111D01*
D02*
G37*
G36*
X1506220Y294640D02*
X1503045D01*
X1498600Y290195D01*
Y287020D01*
X1506220D01*
Y294640D01*
D02*
G37*
G36*
X1605649Y419076D02*
X1598815D01*
X1595398Y415659D01*
Y408825D01*
X1598815Y405408D01*
X1599901D01*
Y398494D01*
X1589310Y387903D01*
X1549400D01*
X1548022Y387629D01*
X1546854Y386848D01*
X1534154Y374148D01*
X1533373Y372980D01*
X1533099Y371602D01*
Y325342D01*
X1528858Y321101D01*
X1476594D01*
X1476341Y322371D01*
X1477923Y323026D01*
X1479669Y324366D01*
X1481009Y326112D01*
X1481851Y328145D01*
X1482138Y330327D01*
X1481851Y332509D01*
X1481009Y334542D01*
X1479669Y336288D01*
X1477923Y337628D01*
X1475890Y338470D01*
X1473708Y338757D01*
X1459992D01*
X1457810Y338470D01*
X1455777Y337628D01*
X1454031Y336288D01*
X1452691Y334542D01*
X1451849Y332509D01*
X1451562Y330327D01*
X1451849Y328145D01*
X1452691Y326112D01*
X1454031Y324366D01*
X1455777Y323026D01*
X1457359Y322371D01*
X1457106Y321101D01*
X1389094D01*
X1381551Y328644D01*
Y350732D01*
X1382310Y351240D01*
X1383647Y353240D01*
X1384117Y355600D01*
X1383647Y357960D01*
X1382310Y359960D01*
X1380310Y361297D01*
X1377950Y361767D01*
X1375590Y361297D01*
X1373590Y359960D01*
X1372253Y357960D01*
X1371783Y355600D01*
X1372253Y353240D01*
X1373590Y351240D01*
X1374349Y350732D01*
Y327152D01*
X1374623Y325774D01*
X1375404Y324606D01*
X1385056Y314954D01*
X1386224Y314173D01*
X1387602Y313899D01*
X1530350D01*
X1531728Y314173D01*
X1532896Y314954D01*
X1539246Y321304D01*
X1540027Y322472D01*
X1540301Y323850D01*
Y370110D01*
X1550892Y380701D01*
X1590802D01*
X1592180Y380975D01*
X1593348Y381756D01*
X1606048Y394456D01*
X1606829Y395624D01*
X1607103Y397002D01*
Y406862D01*
X1609066Y408825D01*
Y415659D01*
X1605649Y419076D01*
D02*
G37*
G36*
X1143508Y338757D02*
X1129792D01*
X1127610Y338470D01*
X1125577Y337628D01*
X1123831Y336288D01*
X1122491Y334542D01*
X1121649Y332509D01*
X1121362Y330327D01*
X1121649Y328145D01*
X1122491Y326112D01*
X1123831Y324366D01*
X1125577Y323026D01*
X1127610Y322184D01*
X1129792Y321897D01*
X1143508D01*
X1145690Y322184D01*
X1147723Y323026D01*
X1149469Y324366D01*
X1150809Y326112D01*
X1151651Y328145D01*
X1151938Y330327D01*
X1151651Y332509D01*
X1150809Y334542D01*
X1149469Y336288D01*
X1147723Y337628D01*
X1145690Y338470D01*
X1143508Y338757D01*
D02*
G37*
G36*
X1101344Y334586D02*
X1083056D01*
X1080277Y334220D01*
X1077688Y333148D01*
X1075465Y331441D01*
X1073758Y329218D01*
X1072686Y326629D01*
X1072320Y323850D01*
X1072686Y321071D01*
X1073758Y318482D01*
X1075465Y316259D01*
X1077688Y314552D01*
X1080277Y313480D01*
X1083056Y313114D01*
X1101344D01*
X1104123Y313480D01*
X1106712Y314552D01*
X1108935Y316259D01*
X1110641Y318482D01*
X1111714Y321071D01*
X1112080Y323850D01*
X1111714Y326629D01*
X1110641Y329218D01*
X1108935Y331441D01*
X1106712Y333148D01*
X1104123Y334220D01*
X1101344Y334586D01*
D02*
G37*
G36*
X1511935Y294640D02*
X1508760D01*
Y287020D01*
X1516380D01*
Y290195D01*
X1511935Y294640D01*
D02*
G37*
G36*
X1101344Y309186D02*
X1083056D01*
X1080277Y308820D01*
X1077688Y307747D01*
X1075465Y306041D01*
X1073758Y303818D01*
X1072686Y301229D01*
X1072320Y298450D01*
X1072686Y295671D01*
X1073758Y293082D01*
X1075465Y290859D01*
X1077688Y289153D01*
X1080277Y288080D01*
X1083056Y287714D01*
X1101344D01*
X1104123Y288080D01*
X1106712Y289153D01*
X1108935Y290859D01*
X1110641Y293082D01*
X1111714Y295671D01*
X1112080Y298450D01*
X1111714Y301229D01*
X1110641Y303818D01*
X1108935Y306041D01*
X1106712Y307747D01*
X1104123Y308820D01*
X1101344Y309186D01*
D02*
G37*
G36*
X1143508Y364157D02*
X1129792D01*
X1127610Y363870D01*
X1125577Y363028D01*
X1123831Y361688D01*
X1122491Y359942D01*
X1121649Y357909D01*
X1121362Y355727D01*
X1121649Y353545D01*
X1122491Y351512D01*
X1123831Y349766D01*
X1125577Y348426D01*
X1127610Y347584D01*
X1129792Y347297D01*
X1143508D01*
X1145690Y347584D01*
X1147723Y348426D01*
X1149469Y349766D01*
X1150809Y351512D01*
X1151651Y353545D01*
X1151938Y355727D01*
X1151651Y357909D01*
X1150809Y359942D01*
X1149469Y361688D01*
X1147723Y363028D01*
X1145690Y363870D01*
X1143508Y364157D01*
D02*
G37*
G36*
X1473708Y414957D02*
X1459992D01*
X1457810Y414670D01*
X1455777Y413828D01*
X1454031Y412488D01*
X1452691Y410742D01*
X1451849Y408709D01*
X1451562Y406527D01*
X1451849Y404345D01*
X1452691Y402312D01*
X1454031Y400566D01*
X1455777Y399226D01*
X1457810Y398384D01*
X1459992Y398097D01*
X1473708D01*
X1475890Y398384D01*
X1477923Y399226D01*
X1479669Y400566D01*
X1481009Y402312D01*
X1481851Y404345D01*
X1482138Y406527D01*
X1481851Y408709D01*
X1481009Y410742D01*
X1479669Y412488D01*
X1477923Y413828D01*
X1475890Y414670D01*
X1473708Y414957D01*
D02*
G37*
G36*
X1553972Y409702D02*
X1547368D01*
Y407035D01*
X1551305Y403098D01*
X1553972D01*
Y409702D01*
D02*
G37*
G36*
X1572629Y407646D02*
X1565795D01*
X1562378Y404229D01*
Y397395D01*
X1565795Y393978D01*
X1572629D01*
X1576046Y397395D01*
Y404229D01*
X1572629Y407646D01*
D02*
G37*
G36*
X1591679D02*
X1584845D01*
X1581428Y404229D01*
Y397395D01*
X1584845Y393978D01*
X1591679D01*
X1595096Y397395D01*
Y404229D01*
X1591679Y407646D01*
D02*
G37*
G36*
X1559179Y418846D02*
X1556512D01*
Y412242D01*
X1563116D01*
Y414909D01*
X1559179Y418846D01*
D02*
G37*
G36*
X1257300Y415868D02*
X1254940Y415399D01*
X1252940Y414062D01*
X1252432Y413303D01*
X1193800D01*
X1193786Y413300D01*
X1193771Y413303D01*
X1193096Y413163D01*
X1192422Y413029D01*
X1192410Y413021D01*
X1192395Y413018D01*
X1191825Y412630D01*
X1191254Y412248D01*
X1191245Y412236D01*
X1191233Y412228D01*
X1176543Y397301D01*
X1146394D01*
X1146141Y398571D01*
X1147723Y399226D01*
X1149469Y400566D01*
X1150809Y402312D01*
X1151651Y404345D01*
X1151938Y406527D01*
X1151651Y408709D01*
X1150809Y410742D01*
X1149469Y412488D01*
X1147723Y413828D01*
X1145690Y414670D01*
X1143508Y414957D01*
X1129792D01*
X1127610Y414670D01*
X1125577Y413828D01*
X1123831Y412488D01*
X1122491Y410742D01*
X1121649Y408709D01*
X1121362Y406527D01*
X1121649Y404345D01*
X1122491Y402312D01*
X1123831Y400566D01*
X1125577Y399226D01*
X1127159Y398571D01*
X1126906Y397301D01*
X1103498D01*
X1102474Y398571D01*
X1102669Y400050D01*
X1102355Y402431D01*
X1101436Y404649D01*
X1099975Y406554D01*
X1098069Y408016D01*
X1095851Y408935D01*
X1093470Y409249D01*
X1078230D01*
X1075849Y408935D01*
X1073631Y408016D01*
X1071725Y406554D01*
X1070264Y404649D01*
X1069345Y402431D01*
X1069031Y400050D01*
X1069345Y397669D01*
X1070264Y395451D01*
X1071725Y393545D01*
X1072391Y393035D01*
X1072475Y391767D01*
X1068610Y387903D01*
X962152D01*
X960774Y387629D01*
X959606Y386848D01*
X915156Y342398D01*
X914375Y341230D01*
X914101Y339852D01*
Y280892D01*
X909860Y276651D01*
X760444D01*
X755148Y281946D01*
X753980Y282727D01*
X752602Y283001D01*
X471908D01*
Y283579D01*
X467729Y287758D01*
X459371D01*
X455192Y283579D01*
Y275221D01*
X459371Y271042D01*
X467729D01*
X471908Y275221D01*
Y275799D01*
X751110D01*
X756406Y270504D01*
X757574Y269723D01*
X758952Y269449D01*
X911352D01*
X912730Y269723D01*
X913898Y270504D01*
X920248Y276854D01*
X921029Y278022D01*
X921303Y279400D01*
Y338360D01*
X963644Y380701D01*
X1070102D01*
X1071480Y380975D01*
X1072648Y381756D01*
X1081744Y390851D01*
X1088599D01*
Y359986D01*
X1083056D01*
X1080277Y359620D01*
X1077688Y358548D01*
X1075465Y356841D01*
X1073758Y354618D01*
X1072686Y352029D01*
X1072320Y349250D01*
X1072686Y346471D01*
X1073758Y343882D01*
X1075465Y341659D01*
X1077688Y339953D01*
X1080277Y338880D01*
X1083056Y338514D01*
X1101344D01*
X1104123Y338880D01*
X1106712Y339953D01*
X1108935Y341659D01*
X1110641Y343882D01*
X1111714Y346471D01*
X1112080Y349250D01*
X1111714Y352029D01*
X1110641Y354618D01*
X1108935Y356841D01*
X1106712Y358548D01*
X1104123Y359620D01*
X1101344Y359986D01*
X1095801D01*
Y390099D01*
X1126293D01*
X1126545Y388829D01*
X1125577Y388428D01*
X1123831Y387088D01*
X1122491Y385342D01*
X1121649Y383309D01*
X1121362Y381127D01*
X1121649Y378945D01*
X1122491Y376912D01*
X1123831Y375166D01*
X1125577Y373826D01*
X1127610Y372984D01*
X1129792Y372697D01*
X1143508D01*
X1145690Y372984D01*
X1147723Y373826D01*
X1149469Y375166D01*
X1150809Y376912D01*
X1151651Y378945D01*
X1151938Y381127D01*
X1151651Y383309D01*
X1150809Y385342D01*
X1149469Y387088D01*
X1147723Y388428D01*
X1146755Y388829D01*
X1147007Y390099D01*
X1178052D01*
X1178066Y390102D01*
X1178081Y390099D01*
X1178755Y390239D01*
X1179430Y390373D01*
X1179442Y390381D01*
X1179457Y390384D01*
X1180026Y390771D01*
X1180598Y391154D01*
X1180607Y391166D01*
X1180619Y391174D01*
X1195309Y406101D01*
X1252432D01*
X1252940Y405342D01*
X1254940Y404005D01*
X1257300Y403535D01*
X1259660Y404005D01*
X1261660Y405342D01*
X1262997Y407342D01*
X1263466Y409702D01*
X1262997Y412062D01*
X1261660Y414062D01*
X1259660Y415399D01*
X1257300Y415868D01*
D02*
G37*
G36*
X1563116Y409702D02*
X1556512D01*
Y403098D01*
X1559179D01*
X1563116Y407035D01*
Y409702D01*
D02*
G37*
G36*
X1553972Y418846D02*
X1551305D01*
X1547368Y414909D01*
Y412242D01*
X1553972D01*
Y418846D01*
D02*
G37*
G36*
X1033248Y408916D02*
X1018056D01*
Y393724D01*
X1033248D01*
Y408916D01*
D02*
G37*
G36*
X985393Y363982D02*
X976122D01*
Y354711D01*
X980123D01*
X985393Y359981D01*
Y363982D01*
D02*
G37*
G36*
X1005003Y374753D02*
X995501D01*
X990751Y370003D01*
Y360502D01*
X995501Y355751D01*
X1005003D01*
X1009753Y360502D01*
Y370003D01*
X1005003Y374753D01*
D02*
G37*
G36*
X1473708Y364157D02*
X1459992D01*
X1457810Y363870D01*
X1455777Y363028D01*
X1454031Y361688D01*
X1452691Y359942D01*
X1451849Y357909D01*
X1451562Y355727D01*
X1451849Y353545D01*
X1452691Y351512D01*
X1454031Y349766D01*
X1455777Y348426D01*
X1457810Y347584D01*
X1459992Y347297D01*
X1473708D01*
X1475890Y347584D01*
X1477923Y348426D01*
X1479669Y349766D01*
X1481009Y351512D01*
X1481851Y353545D01*
X1482138Y355727D01*
X1481851Y357909D01*
X1481009Y359942D01*
X1479669Y361688D01*
X1477923Y363028D01*
X1475890Y363870D01*
X1473708Y364157D01*
D02*
G37*
G36*
X973582Y363982D02*
X964311D01*
Y359981D01*
X969582Y354711D01*
X973582D01*
Y363982D01*
D02*
G37*
G36*
X1473708Y389557D02*
X1459992D01*
X1457810Y389270D01*
X1455777Y388428D01*
X1454031Y387088D01*
X1452691Y385342D01*
X1451849Y383309D01*
X1451562Y381127D01*
X1451849Y378945D01*
X1452691Y376912D01*
X1454031Y375166D01*
X1455777Y373826D01*
X1457810Y372984D01*
X1459992Y372697D01*
X1473708D01*
X1475890Y372984D01*
X1477923Y373826D01*
X1479669Y375166D01*
X1481009Y376912D01*
X1481851Y378945D01*
X1482138Y381127D01*
X1481851Y383309D01*
X1481009Y385342D01*
X1479669Y387088D01*
X1477923Y388428D01*
X1475890Y389270D01*
X1473708Y389557D01*
D02*
G37*
G36*
X957048Y408916D02*
X941856D01*
Y403651D01*
X869950D01*
X868572Y403377D01*
X867404Y402596D01*
X803904Y339096D01*
X803123Y337928D01*
X802849Y336550D01*
Y306808D01*
X802271D01*
X798092Y302629D01*
Y294271D01*
X802271Y290092D01*
X810629D01*
X814808Y294271D01*
Y302629D01*
X810629Y306808D01*
X810051D01*
Y335058D01*
X871442Y396449D01*
X941856D01*
Y393724D01*
X957048D01*
Y408916D01*
D02*
G37*
G36*
X973582Y375793D02*
X969582D01*
X964311Y370522D01*
Y366522D01*
X973582D01*
Y375793D01*
D02*
G37*
G36*
X980123D02*
X976122D01*
Y366522D01*
X985393D01*
Y370522D01*
X980123Y375793D01*
D02*
G37*
G36*
X616236Y449259D02*
X612630D01*
X612303Y449241D01*
X612029Y449223D01*
X611811Y449205D01*
X611665Y449168D01*
X611556Y449150D01*
X611483Y449132D01*
X611465D01*
X611228Y449041D01*
X611028Y448931D01*
X610846Y448822D01*
X610682Y448695D01*
X610573Y448567D01*
X610481Y448476D01*
X610427Y448403D01*
X610409Y448385D01*
X610281Y448167D01*
X610172Y447948D01*
X610099Y447711D01*
X610063Y447511D01*
X610026Y447329D01*
X610008Y447165D01*
Y447074D01*
Y447056D01*
Y447037D01*
X610044Y446655D01*
X610117Y446327D01*
X610227Y446036D01*
X610354Y445799D01*
X610481Y445617D01*
X610591Y445471D01*
X610664Y445398D01*
X610700Y445362D01*
X610827Y445253D01*
X610991Y445162D01*
X611337Y445016D01*
X611720Y444907D01*
X612102Y444834D01*
X612448Y444797D01*
X612594Y444779D01*
X612721D01*
X612849Y444761D01*
X616236D01*
Y449259D01*
D02*
G37*
G36*
X1090930Y271780D02*
X1071438D01*
X1071673Y270000D01*
X1072850Y267158D01*
X1074723Y264717D01*
X1077164Y262844D01*
X1080006Y261667D01*
X1083056Y261265D01*
X1090930D01*
Y271780D01*
D02*
G37*
G36*
X536141Y446218D02*
X536032D01*
X535813Y446200D01*
X535613Y446181D01*
X535230Y446072D01*
X534902Y445926D01*
X534629Y445762D01*
X534411Y445599D01*
X534247Y445453D01*
X534156Y445344D01*
X534119Y445325D01*
Y445307D01*
X533955Y445070D01*
X533810Y444797D01*
X533719Y444524D01*
X533628Y444233D01*
X533573Y443996D01*
X533537Y443777D01*
Y443705D01*
X533518Y443650D01*
Y443614D01*
Y443595D01*
X538636D01*
X538581Y444014D01*
X538472Y444397D01*
X538344Y444725D01*
X538199Y444979D01*
X538071Y445198D01*
X537944Y445362D01*
X537871Y445453D01*
X537835Y445489D01*
X537543Y445726D01*
X537252Y445908D01*
X536942Y446036D01*
X536651Y446127D01*
X536414Y446181D01*
X536214Y446200D01*
X536141Y446218D01*
D02*
G37*
G36*
X580213D02*
X580104D01*
X579886Y446200D01*
X579685Y446181D01*
X579303Y446072D01*
X578975Y445926D01*
X578702Y445762D01*
X578483Y445599D01*
X578319Y445453D01*
X578228Y445344D01*
X578192Y445325D01*
Y445307D01*
X578028Y445070D01*
X577882Y444797D01*
X577791Y444524D01*
X577700Y444233D01*
X577646Y443996D01*
X577609Y443777D01*
Y443705D01*
X577591Y443650D01*
Y443614D01*
Y443595D01*
X582709D01*
X582654Y444014D01*
X582545Y444397D01*
X582417Y444725D01*
X582271Y444979D01*
X582144Y445198D01*
X582016Y445362D01*
X581944Y445453D01*
X581907Y445489D01*
X581616Y445726D01*
X581324Y445908D01*
X581015Y446036D01*
X580723Y446127D01*
X580487Y446181D01*
X580286Y446200D01*
X580213Y446218D01*
D02*
G37*
G36*
X1187450Y294815D02*
X1185268Y294528D01*
X1183235Y293686D01*
X1181489Y292346D01*
X1180149Y290600D01*
X1179307Y288567D01*
X1179020Y286385D01*
Y272669D01*
X1179307Y270487D01*
X1180149Y268454D01*
X1181489Y266708D01*
X1183235Y265368D01*
X1185268Y264526D01*
X1187450Y264239D01*
X1189632Y264526D01*
X1191665Y265368D01*
X1193411Y266708D01*
X1194751Y268454D01*
X1195593Y270487D01*
X1195880Y272669D01*
Y286385D01*
X1195593Y288567D01*
X1194751Y290600D01*
X1193411Y292346D01*
X1191665Y293686D01*
X1189632Y294528D01*
X1187450Y294815D01*
D02*
G37*
G36*
X1212850D02*
X1210668Y294528D01*
X1208635Y293686D01*
X1206889Y292346D01*
X1205549Y290600D01*
X1204707Y288567D01*
X1204420Y286385D01*
Y272669D01*
X1204707Y270487D01*
X1205549Y268454D01*
X1206889Y266708D01*
X1208635Y265368D01*
X1210668Y264526D01*
X1212850Y264239D01*
X1215032Y264526D01*
X1217065Y265368D01*
X1218811Y266708D01*
X1220151Y268454D01*
X1220993Y270487D01*
X1221280Y272669D01*
Y286385D01*
X1220993Y288567D01*
X1220151Y290600D01*
X1218811Y292346D01*
X1217065Y293686D01*
X1215032Y294528D01*
X1212850Y294815D01*
D02*
G37*
G36*
X1112962Y271780D02*
X1093470D01*
Y261265D01*
X1101344D01*
X1104394Y261667D01*
X1107236Y262844D01*
X1109677Y264717D01*
X1111550Y267158D01*
X1112727Y270000D01*
X1112962Y271780D01*
D02*
G37*
G36*
X1162050Y294815D02*
X1159868Y294528D01*
X1157835Y293686D01*
X1156089Y292346D01*
X1154749Y290600D01*
X1153907Y288567D01*
X1153620Y286385D01*
Y272669D01*
X1153907Y270487D01*
X1154749Y268454D01*
X1156089Y266708D01*
X1157835Y265368D01*
X1159868Y264526D01*
X1162050Y264239D01*
X1164232Y264526D01*
X1166265Y265368D01*
X1168011Y266708D01*
X1169351Y268454D01*
X1170193Y270487D01*
X1170480Y272669D01*
Y286385D01*
X1170193Y288567D01*
X1169351Y290600D01*
X1168011Y292346D01*
X1166265Y293686D01*
X1164232Y294528D01*
X1162050Y294815D01*
D02*
G37*
G36*
X487169Y446218D02*
X487060D01*
X486842Y446200D01*
X486641Y446181D01*
X486259Y446072D01*
X485931Y445926D01*
X485658Y445762D01*
X485439Y445599D01*
X485275Y445453D01*
X485184Y445344D01*
X485148Y445325D01*
Y445307D01*
X484984Y445070D01*
X484838Y444797D01*
X484747Y444524D01*
X484656Y444233D01*
X484602Y443996D01*
X484565Y443777D01*
Y443705D01*
X484547Y443650D01*
Y443614D01*
Y443595D01*
X489664D01*
X489610Y444014D01*
X489501Y444397D01*
X489373Y444725D01*
X489227Y444979D01*
X489100Y445198D01*
X488972Y445362D01*
X488899Y445453D01*
X488863Y445489D01*
X488572Y445726D01*
X488280Y445908D01*
X487971Y446036D01*
X487679Y446127D01*
X487443Y446181D01*
X487242Y446200D01*
X487169Y446218D01*
D02*
G37*
G36*
X497277D02*
X497186D01*
X496986Y446200D01*
X496803Y446181D01*
X496457Y446072D01*
X496148Y445945D01*
X495893Y445781D01*
X495692Y445617D01*
X495529Y445471D01*
X495438Y445362D01*
X495401Y445344D01*
Y445325D01*
X495274Y445143D01*
X495164Y444961D01*
X494982Y444524D01*
X494855Y444069D01*
X494764Y443632D01*
X494727Y443413D01*
X494709Y443213D01*
X494691Y443031D01*
Y442885D01*
X494673Y442758D01*
Y442667D01*
Y442594D01*
Y442575D01*
Y442266D01*
X494709Y441974D01*
X494745Y441720D01*
X494782Y441465D01*
X494837Y441246D01*
X494909Y441027D01*
X494964Y440845D01*
X495037Y440681D01*
X495110Y440536D01*
X495164Y440390D01*
X495237Y440299D01*
X495292Y440208D01*
X495328Y440135D01*
X495365Y440080D01*
X495401Y440062D01*
Y440044D01*
X495529Y439898D01*
X495674Y439771D01*
X495966Y439571D01*
X496257Y439425D01*
X496530Y439334D01*
X496767Y439261D01*
X496967Y439243D01*
X497040Y439225D01*
X497131D01*
X497313Y439243D01*
X497495Y439261D01*
X497823Y439352D01*
X498133Y439498D01*
X498388Y439662D01*
X498588Y439807D01*
X498752Y439953D01*
X498843Y440044D01*
X498861Y440080D01*
X498880D01*
X499007Y440263D01*
X499116Y440445D01*
X499298Y440864D01*
X499426Y441301D01*
X499517Y441720D01*
X499572Y442102D01*
X499590Y442266D01*
Y442412D01*
X499608Y442539D01*
Y442630D01*
Y442685D01*
Y442703D01*
Y443031D01*
X499572Y443340D01*
X499535Y443632D01*
X499499Y443887D01*
X499444Y444123D01*
X499389Y444342D01*
X499335Y444542D01*
X499262Y444725D01*
X499189Y444870D01*
X499134Y444998D01*
X499080Y445107D01*
X499025Y445198D01*
X498971Y445271D01*
X498952Y445325D01*
X498916Y445344D01*
Y445362D01*
X498788Y445508D01*
X498643Y445653D01*
X498351Y445854D01*
X498060Y446017D01*
X497787Y446109D01*
X497550Y446181D01*
X497350Y446200D01*
X497277Y446218D01*
D02*
G37*
G36*
X506820D02*
X506711D01*
X506492Y446200D01*
X506292Y446181D01*
X505928Y446090D01*
X505600Y445945D01*
X505326Y445781D01*
X505108Y445617D01*
X504944Y445489D01*
X504835Y445380D01*
X504798Y445362D01*
Y445344D01*
X504653Y445180D01*
X504543Y444979D01*
X504343Y444579D01*
X504197Y444142D01*
X504106Y443741D01*
X504052Y443359D01*
X504034Y443195D01*
Y443049D01*
X504015Y442940D01*
Y442849D01*
Y442794D01*
Y442776D01*
Y442448D01*
X504052Y442138D01*
X504088Y441865D01*
X504143Y441592D01*
X504197Y441355D01*
X504270Y441137D01*
X504325Y440936D01*
X504398Y440754D01*
X504471Y440609D01*
X504543Y440463D01*
X504616Y440354D01*
X504671Y440263D01*
X504725Y440190D01*
X504762Y440135D01*
X504780Y440117D01*
X504798Y440099D01*
X504944Y439953D01*
X505108Y439807D01*
X505418Y439589D01*
X505745Y439443D01*
X506037Y439334D01*
X506310Y439279D01*
X506510Y439243D01*
X506601Y439225D01*
X506711D01*
X506929Y439243D01*
X507130Y439261D01*
X507512Y439352D01*
X507840Y439498D01*
X508113Y439662D01*
X508331Y439807D01*
X508495Y439953D01*
X508605Y440044D01*
X508623Y440080D01*
X508641D01*
X508769Y440263D01*
X508896Y440445D01*
X509078Y440864D01*
X509224Y441301D01*
X509315Y441738D01*
X509370Y442120D01*
X509388Y442284D01*
Y442430D01*
X509406Y442557D01*
Y442648D01*
Y442703D01*
Y442721D01*
X509388Y443031D01*
X509370Y443340D01*
X509333Y443614D01*
X509278Y443868D01*
X509224Y444105D01*
X509169Y444324D01*
X509096Y444506D01*
X509024Y444688D01*
X508951Y444834D01*
X508878Y444979D01*
X508823Y445089D01*
X508769Y445180D01*
X508714Y445253D01*
X508677Y445307D01*
X508641Y445325D01*
Y445344D01*
X508495Y445489D01*
X508331Y445635D01*
X508022Y445854D01*
X507694Y445999D01*
X507384Y446109D01*
X507111Y446181D01*
X506911Y446200D01*
X506820Y446218D01*
D02*
G37*
G36*
X423592Y449532D02*
X423483D01*
X423282Y449514D01*
X423082Y449496D01*
X422900Y449441D01*
X422736Y449369D01*
X422426Y449205D01*
X422153Y449022D01*
X421953Y448822D01*
X421789Y448658D01*
X421734Y448585D01*
X421698Y448531D01*
X421661Y448512D01*
Y448494D01*
X421534Y448276D01*
X421425Y448021D01*
X421315Y447729D01*
X421243Y447420D01*
X421170Y447092D01*
X421115Y446746D01*
X421024Y446054D01*
X420988Y445708D01*
X420970Y445398D01*
X420951Y445107D01*
Y444870D01*
X420933Y444652D01*
Y444488D01*
Y444397D01*
Y444378D01*
Y444360D01*
Y443796D01*
X420970Y443286D01*
X421006Y442830D01*
X421042Y442393D01*
X421097Y442029D01*
X421170Y441683D01*
X421243Y441392D01*
X421297Y441119D01*
X421370Y440900D01*
X421443Y440718D01*
X421498Y440554D01*
X421571Y440426D01*
X421607Y440335D01*
X421643Y440281D01*
X421680Y440244D01*
Y440226D01*
X421825Y440044D01*
X421971Y439898D01*
X422117Y439753D01*
X422262Y439643D01*
X422572Y439461D01*
X422845Y439334D01*
X423100Y439261D01*
X423282Y439225D01*
X423355Y439206D01*
X423465D01*
X423665Y439225D01*
X423847Y439243D01*
X424193Y439370D01*
X424503Y439534D01*
X424776Y439716D01*
X424976Y439898D01*
X425140Y440062D01*
X425231Y440190D01*
X425267Y440208D01*
Y440226D01*
X425395Y440445D01*
X425504Y440700D01*
X425614Y440991D01*
X425686Y441301D01*
X425759Y441628D01*
X425814Y441974D01*
X425905Y442685D01*
X425941Y443013D01*
X425960Y443322D01*
X425978Y443614D01*
Y443850D01*
X425996Y444069D01*
Y444233D01*
Y444324D01*
Y444360D01*
X425978Y444925D01*
X425960Y445435D01*
X425923Y445908D01*
X425868Y446345D01*
X425814Y446728D01*
X425741Y447074D01*
X425668Y447383D01*
X425595Y447657D01*
X425522Y447893D01*
X425468Y448094D01*
X425395Y448257D01*
X425340Y448403D01*
X425286Y448494D01*
X425249Y448567D01*
X425213Y448604D01*
Y448622D01*
X425085Y448786D01*
X424958Y448931D01*
X424812Y449041D01*
X424666Y449150D01*
X424375Y449314D01*
X424102Y449423D01*
X423865Y449478D01*
X423665Y449514D01*
X423592Y449532D01*
D02*
G37*
G36*
X457885D02*
X457775D01*
X457575Y449514D01*
X457375Y449496D01*
X457193Y449441D01*
X457029Y449369D01*
X456719Y449205D01*
X456446Y449022D01*
X456246Y448822D01*
X456082Y448658D01*
X456027Y448585D01*
X455991Y448531D01*
X455954Y448512D01*
Y448494D01*
X455827Y448276D01*
X455718Y448021D01*
X455608Y447729D01*
X455536Y447420D01*
X455463Y447092D01*
X455408Y446746D01*
X455317Y446054D01*
X455280Y445708D01*
X455262Y445398D01*
X455244Y445107D01*
Y444870D01*
X455226Y444652D01*
Y444488D01*
Y444397D01*
Y444378D01*
Y444360D01*
Y443796D01*
X455262Y443286D01*
X455299Y442830D01*
X455335Y442393D01*
X455390Y442029D01*
X455463Y441683D01*
X455536Y441392D01*
X455590Y441119D01*
X455663Y440900D01*
X455736Y440718D01*
X455790Y440554D01*
X455863Y440426D01*
X455900Y440335D01*
X455936Y440281D01*
X455973Y440244D01*
Y440226D01*
X456118Y440044D01*
X456264Y439898D01*
X456410Y439753D01*
X456555Y439643D01*
X456865Y439461D01*
X457138Y439334D01*
X457393Y439261D01*
X457575Y439225D01*
X457648Y439206D01*
X457757D01*
X457958Y439225D01*
X458140Y439243D01*
X458486Y439370D01*
X458795Y439534D01*
X459069Y439716D01*
X459269Y439898D01*
X459433Y440062D01*
X459524Y440190D01*
X459560Y440208D01*
Y440226D01*
X459688Y440445D01*
X459797Y440700D01*
X459906Y440991D01*
X459979Y441301D01*
X460052Y441628D01*
X460107Y441974D01*
X460198Y442685D01*
X460234Y443013D01*
X460252Y443322D01*
X460271Y443614D01*
Y443850D01*
X460289Y444069D01*
Y444233D01*
Y444324D01*
Y444360D01*
X460271Y444925D01*
X460252Y445435D01*
X460216Y445908D01*
X460161Y446345D01*
X460107Y446728D01*
X460034Y447074D01*
X459961Y447383D01*
X459888Y447657D01*
X459815Y447893D01*
X459761Y448094D01*
X459688Y448257D01*
X459633Y448403D01*
X459579Y448494D01*
X459542Y448567D01*
X459506Y448604D01*
Y448622D01*
X459378Y448786D01*
X459251Y448931D01*
X459105Y449041D01*
X458959Y449150D01*
X458668Y449314D01*
X458395Y449423D01*
X458158Y449478D01*
X457958Y449514D01*
X457885Y449532D01*
D02*
G37*
G36*
X447122Y448239D02*
Y442594D01*
X451092D01*
X447122Y448239D01*
D02*
G37*
G36*
X654718Y449441D02*
X654590Y449022D01*
X654445Y448585D01*
X654299Y448148D01*
X654153Y447729D01*
X654081Y447547D01*
X654026Y447365D01*
X653971Y447201D01*
X653917Y447074D01*
X653880Y446964D01*
X653844Y446874D01*
X653826Y446819D01*
Y446801D01*
X652514Y443340D01*
X656776D01*
X655410Y447019D01*
X655246Y447474D01*
X655119Y447911D01*
X654991Y448312D01*
X654900Y448676D01*
X654827Y448986D01*
X654791Y449114D01*
X654773Y449241D01*
X654736Y449314D01*
Y449387D01*
X654718Y449423D01*
Y449441D01*
D02*
G37*
G36*
X602778Y446218D02*
X602669D01*
X602450Y446200D01*
X602250Y446181D01*
X601885Y446090D01*
X601558Y445945D01*
X601284Y445781D01*
X601066Y445617D01*
X600902Y445489D01*
X600793Y445380D01*
X600756Y445362D01*
Y445344D01*
X600611Y445180D01*
X600501Y444979D01*
X600301Y444579D01*
X600155Y444142D01*
X600064Y443741D01*
X600010Y443359D01*
X599991Y443195D01*
Y443049D01*
X599973Y442940D01*
Y442849D01*
Y442794D01*
Y442776D01*
Y442448D01*
X600010Y442138D01*
X600046Y441865D01*
X600101Y441592D01*
X600155Y441355D01*
X600228Y441137D01*
X600283Y440936D01*
X600356Y440754D01*
X600429Y440609D01*
X600501Y440463D01*
X600574Y440354D01*
X600629Y440263D01*
X600684Y440190D01*
X600720Y440135D01*
X600738Y440117D01*
X600756Y440099D01*
X600902Y439953D01*
X601066Y439807D01*
X601376Y439589D01*
X601703Y439443D01*
X601995Y439334D01*
X602268Y439279D01*
X602468Y439243D01*
X602559Y439225D01*
X602669D01*
X602887Y439243D01*
X603088Y439261D01*
X603470Y439352D01*
X603798Y439498D01*
X604071Y439662D01*
X604289Y439807D01*
X604453Y439953D01*
X604563Y440044D01*
X604581Y440080D01*
X604599D01*
X604726Y440263D01*
X604854Y440445D01*
X605036Y440864D01*
X605182Y441301D01*
X605273Y441738D01*
X605327Y442120D01*
X605346Y442284D01*
Y442430D01*
X605364Y442557D01*
Y442648D01*
Y442703D01*
Y442721D01*
X605346Y443031D01*
X605327Y443340D01*
X605291Y443614D01*
X605237Y443868D01*
X605182Y444105D01*
X605127Y444324D01*
X605054Y444506D01*
X604981Y444688D01*
X604909Y444834D01*
X604836Y444979D01*
X604781Y445089D01*
X604726Y445180D01*
X604672Y445253D01*
X604636Y445307D01*
X604599Y445325D01*
Y445344D01*
X604453Y445489D01*
X604289Y445635D01*
X603980Y445854D01*
X603652Y445999D01*
X603342Y446109D01*
X603069Y446181D01*
X602869Y446200D01*
X602778Y446218D01*
D02*
G37*
G36*
X645594Y449259D02*
X642680D01*
X642443Y449241D01*
X642206D01*
X641988Y449223D01*
X641624Y449168D01*
X641332Y449132D01*
X641096Y449077D01*
X640932Y449022D01*
X640841Y449004D01*
X640804Y448986D01*
X640476Y448822D01*
X640167Y448622D01*
X639893Y448385D01*
X639657Y448148D01*
X639475Y447930D01*
X639329Y447748D01*
X639292Y447675D01*
X639256Y447620D01*
X639220Y447584D01*
Y447565D01*
X639110Y447365D01*
X639001Y447128D01*
X638837Y446655D01*
X638728Y446145D01*
X638637Y445653D01*
X638619Y445435D01*
X638601Y445216D01*
X638582Y445034D01*
Y444870D01*
X638564Y444725D01*
Y444633D01*
Y444561D01*
Y444542D01*
X638582Y444032D01*
X638619Y443559D01*
X638673Y443140D01*
X638728Y442776D01*
X638764Y442630D01*
X638801Y442503D01*
X638837Y442375D01*
X638855Y442284D01*
X638874Y442211D01*
X638892Y442157D01*
X638910Y442120D01*
Y442102D01*
X639038Y441756D01*
X639183Y441446D01*
X639347Y441173D01*
X639493Y440936D01*
X639620Y440754D01*
X639730Y440627D01*
X639803Y440554D01*
X639821Y440518D01*
X640003Y440372D01*
X640185Y440244D01*
X640367Y440135D01*
X640549Y440026D01*
X640713Y439953D01*
X640841Y439898D01*
X640932Y439880D01*
X640968Y439862D01*
X641241Y439789D01*
X641569Y439734D01*
X641897Y439698D01*
X642206Y439680D01*
X642480Y439662D01*
X642607Y439643D01*
X645594D01*
Y449259D01*
D02*
G37*
G36*
X1238250Y294815D02*
X1236068Y294528D01*
X1234035Y293686D01*
X1232289Y292346D01*
X1230949Y290600D01*
X1230107Y288567D01*
X1229820Y286385D01*
Y272669D01*
X1230107Y270487D01*
X1230949Y268454D01*
X1232289Y266708D01*
X1234035Y265368D01*
X1236068Y264526D01*
X1238250Y264239D01*
X1240432Y264526D01*
X1242465Y265368D01*
X1244211Y266708D01*
X1245551Y268454D01*
X1246393Y270487D01*
X1246680Y272669D01*
Y286385D01*
X1246393Y288567D01*
X1245551Y290600D01*
X1244211Y292346D01*
X1242465Y293686D01*
X1240432Y294528D01*
X1238250Y294815D01*
D02*
G37*
G36*
X1506220Y284480D02*
X1498600D01*
Y281305D01*
X1503045Y276860D01*
X1506220D01*
Y284480D01*
D02*
G37*
G36*
X1516380D02*
X1508760D01*
Y276860D01*
X1511935D01*
X1516380Y281305D01*
Y284480D01*
D02*
G37*
G36*
X1033272D02*
X1025652D01*
Y281305D01*
X1030097Y276860D01*
X1033272D01*
Y284480D01*
D02*
G37*
G36*
X1043432D02*
X1035812D01*
Y276860D01*
X1038987D01*
X1043432Y281305D01*
Y284480D01*
D02*
G37*
G36*
X957048Y462256D02*
X941856D01*
Y447064D01*
X945851D01*
Y439642D01*
X928910Y422701D01*
X844550D01*
X843172Y422427D01*
X842004Y421646D01*
X762756Y342398D01*
X761975Y341230D01*
X761701Y339852D01*
Y301752D01*
X761975Y300374D01*
X762756Y299206D01*
X781806Y280156D01*
X782974Y279375D01*
X784352Y279101D01*
X841502D01*
X842880Y279375D01*
X844048Y280156D01*
X853985Y290092D01*
X861429D01*
X865608Y294271D01*
Y302629D01*
X861429Y306808D01*
X853071D01*
X848892Y302629D01*
Y295185D01*
X840010Y286303D01*
X785844D01*
X768903Y303244D01*
Y338360D01*
X846042Y415499D01*
X930402D01*
X931780Y415773D01*
X932948Y416554D01*
X951998Y435604D01*
X952779Y436772D01*
X953053Y438150D01*
Y447064D01*
X957048D01*
Y462256D01*
D02*
G37*
G36*
X430530Y288798D02*
X427101D01*
X422402Y284099D01*
Y280670D01*
X430530D01*
Y288798D01*
D02*
G37*
G36*
X1054862Y350818D02*
X1052813Y350548D01*
X1050903Y349757D01*
X1049263Y348499D01*
X1048005Y346859D01*
X1047214Y344949D01*
X1046944Y342900D01*
X1047214Y340851D01*
X1048005Y338941D01*
X1049263Y337301D01*
X1050903Y336043D01*
X1051261Y335895D01*
Y292755D01*
X1050903Y292607D01*
X1049263Y291349D01*
X1048005Y289709D01*
X1047214Y287799D01*
X1046944Y285750D01*
X1047214Y283701D01*
X1048005Y281791D01*
X1049263Y280151D01*
X1050903Y278893D01*
X1052813Y278102D01*
X1054862Y277832D01*
X1056911Y278102D01*
X1058821Y278893D01*
X1060461Y280151D01*
X1061719Y281791D01*
X1062510Y283701D01*
X1062780Y285750D01*
X1062510Y287799D01*
X1061719Y289709D01*
X1060461Y291349D01*
X1058821Y292607D01*
X1058463Y292755D01*
Y335895D01*
X1058821Y336043D01*
X1060461Y337301D01*
X1061719Y338941D01*
X1062510Y340851D01*
X1062780Y342900D01*
X1062510Y344949D01*
X1061719Y346859D01*
X1060461Y348499D01*
X1058821Y349757D01*
X1056911Y350548D01*
X1054862Y350818D01*
D02*
G37*
G36*
X1527810Y293668D02*
X1525761Y293398D01*
X1523851Y292607D01*
X1522211Y291349D01*
X1520953Y289709D01*
X1520162Y287799D01*
X1519892Y285750D01*
X1520162Y283701D01*
X1520953Y281791D01*
X1522211Y280151D01*
X1523851Y278893D01*
X1525761Y278102D01*
X1527810Y277832D01*
X1529859Y278102D01*
X1531769Y278893D01*
X1533409Y280151D01*
X1534667Y281791D01*
X1535458Y283701D01*
X1535728Y285750D01*
X1535458Y287799D01*
X1534667Y289709D01*
X1533409Y291349D01*
X1531769Y292607D01*
X1529859Y293398D01*
X1527810Y293668D01*
D02*
G37*
G36*
X1101344Y284835D02*
X1093470D01*
Y274320D01*
X1112962D01*
X1112727Y276100D01*
X1111550Y278942D01*
X1109677Y281383D01*
X1107236Y283256D01*
X1104394Y284433D01*
X1101344Y284835D01*
D02*
G37*
G36*
X430530Y278130D02*
X422402D01*
Y274701D01*
X427101Y270002D01*
X430530D01*
Y278130D01*
D02*
G37*
G36*
X441198D02*
X433070D01*
Y270002D01*
X436499D01*
X441198Y274701D01*
Y278130D01*
D02*
G37*
G36*
X1263650Y294815D02*
X1261468Y294528D01*
X1259435Y293686D01*
X1257689Y292346D01*
X1256349Y290600D01*
X1255507Y288567D01*
X1255220Y286385D01*
Y272669D01*
X1255507Y270487D01*
X1256349Y268454D01*
X1257689Y266708D01*
X1259435Y265368D01*
X1261468Y264526D01*
X1263650Y264239D01*
X1265832Y264526D01*
X1267865Y265368D01*
X1269611Y266708D01*
X1270951Y268454D01*
X1271793Y270487D01*
X1272080Y272669D01*
Y286385D01*
X1271793Y288567D01*
X1270951Y290600D01*
X1269611Y292346D01*
X1267865Y293686D01*
X1265832Y294528D01*
X1263650Y294815D01*
D02*
G37*
G36*
X1289050D02*
X1286868Y294528D01*
X1284835Y293686D01*
X1283089Y292346D01*
X1281749Y290600D01*
X1280907Y288567D01*
X1280620Y286385D01*
Y272669D01*
X1280907Y270487D01*
X1281749Y268454D01*
X1283089Y266708D01*
X1284835Y265368D01*
X1286868Y264526D01*
X1289050Y264239D01*
X1291232Y264526D01*
X1293265Y265368D01*
X1295011Y266708D01*
X1296351Y268454D01*
X1297193Y270487D01*
X1297480Y272669D01*
Y286385D01*
X1297193Y288567D01*
X1296351Y290600D01*
X1295011Y292346D01*
X1293265Y293686D01*
X1291232Y294528D01*
X1289050Y294815D01*
D02*
G37*
G36*
X404229Y287758D02*
X395871D01*
X391692Y283579D01*
Y275221D01*
X395871Y271042D01*
X404229D01*
X408408Y275221D01*
Y283579D01*
X404229Y287758D01*
D02*
G37*
G36*
X1090930Y284835D02*
X1083056D01*
X1080006Y284433D01*
X1077164Y283256D01*
X1074723Y281383D01*
X1072850Y278942D01*
X1071673Y276100D01*
X1071438Y274320D01*
X1090930D01*
Y284835D01*
D02*
G37*
G36*
X1564132Y278130D02*
X1550763D01*
X1550892Y277146D01*
X1551763Y275045D01*
X1553147Y273241D01*
X1554951Y271856D01*
X1557052Y270986D01*
X1559306Y270690D01*
X1564132D01*
Y278130D01*
D02*
G37*
G36*
X1580041D02*
X1566672D01*
Y270690D01*
X1571498D01*
X1573752Y270986D01*
X1575853Y271856D01*
X1577657Y273241D01*
X1579041Y275045D01*
X1579912Y277146D01*
X1580041Y278130D01*
D02*
G37*
G36*
X1084580Y424180D02*
X1068149D01*
X1068332Y422798D01*
X1069355Y420326D01*
X1070984Y418204D01*
X1073106Y416575D01*
X1075578Y415551D01*
X1078230Y415202D01*
X1084580D01*
Y424180D01*
D02*
G37*
G36*
X1468882Y692658D02*
X1458595D01*
Y683387D01*
X1468882D01*
Y692658D01*
D02*
G37*
G36*
X1481709D02*
X1471422D01*
Y683387D01*
X1481709D01*
Y692658D01*
D02*
G37*
G36*
X1120902Y809324D02*
X1118830Y808912D01*
X1117074Y807738D01*
X1115900Y805982D01*
X1115488Y803910D01*
Y796290D01*
X1115900Y794218D01*
X1117074Y792462D01*
X1117301Y792310D01*
Y698500D01*
X1117575Y697122D01*
X1118356Y695954D01*
X1137406Y676904D01*
X1137445Y676877D01*
X1138640Y675090D01*
X1140640Y673753D01*
X1143000Y673283D01*
X1145360Y673753D01*
X1147360Y675090D01*
X1148697Y677090D01*
X1149166Y679450D01*
X1148697Y681810D01*
X1147360Y683810D01*
X1145360Y685147D01*
X1143000Y685617D01*
X1140640Y685147D01*
X1139865Y684629D01*
X1124503Y699992D01*
Y792310D01*
X1124730Y792462D01*
X1125904Y794218D01*
X1126316Y796290D01*
Y803910D01*
X1125904Y805982D01*
X1124730Y807738D01*
X1122974Y808912D01*
X1120902Y809324D01*
D02*
G37*
G36*
X1474851Y638048D02*
X1471422D01*
Y629920D01*
X1479550D01*
Y633349D01*
X1474851Y638048D01*
D02*
G37*
G36*
X1474331Y789408D02*
X1465973D01*
X1461794Y785229D01*
Y776871D01*
X1465973Y772692D01*
X1466551D01*
Y731873D01*
X1459635D01*
Y712871D01*
X1480669D01*
Y717251D01*
X1487705D01*
X1533930Y670808D01*
Y655446D01*
X1552170D01*
Y671654D01*
X1543250D01*
X1491754Y723392D01*
X1491751Y723395D01*
X1491748Y723398D01*
X1491172Y723784D01*
X1490588Y724176D01*
X1490584Y724177D01*
X1490580Y724179D01*
X1489899Y724315D01*
X1489211Y724453D01*
X1489206Y724452D01*
X1489202Y724453D01*
X1480669D01*
Y731873D01*
X1473753D01*
Y772692D01*
X1474331D01*
X1478510Y776871D01*
Y785229D01*
X1474331Y789408D01*
D02*
G37*
G36*
X1468882Y704469D02*
X1458595D01*
Y695198D01*
X1468882D01*
Y704469D01*
D02*
G37*
G36*
X1423162Y722964D02*
X1415542D01*
X1413470Y722552D01*
X1411714Y721378D01*
X1410540Y719622D01*
X1410128Y717550D01*
X1410540Y715478D01*
X1411714Y713722D01*
X1413470Y712548D01*
X1415542Y712136D01*
X1423162D01*
X1425234Y712548D01*
X1426990Y713722D01*
X1428164Y715478D01*
X1428576Y717550D01*
X1428164Y719622D01*
X1426990Y721378D01*
X1425234Y722552D01*
X1423162Y722964D01*
D02*
G37*
G36*
Y735664D02*
X1415542D01*
X1413470Y735252D01*
X1411714Y734078D01*
X1410540Y732322D01*
X1410128Y730250D01*
X1410540Y728178D01*
X1411714Y726422D01*
X1413470Y725248D01*
X1415542Y724836D01*
X1423162D01*
X1425234Y725248D01*
X1426990Y726422D01*
X1428164Y728178D01*
X1428576Y730250D01*
X1428164Y732322D01*
X1426990Y734078D01*
X1425234Y735252D01*
X1423162Y735664D01*
D02*
G37*
G36*
Y710264D02*
X1415542D01*
X1413470Y709852D01*
X1411714Y708678D01*
X1410540Y706922D01*
X1410128Y704850D01*
X1410540Y702778D01*
X1411714Y701022D01*
X1413470Y699848D01*
X1415542Y699436D01*
X1423162D01*
X1425234Y699848D01*
X1426990Y701022D01*
X1428164Y702778D01*
X1428576Y704850D01*
X1428164Y706922D01*
X1426990Y708678D01*
X1425234Y709852D01*
X1423162Y710264D01*
D02*
G37*
G36*
X1481709Y704469D02*
X1471422D01*
Y695198D01*
X1481709D01*
Y704469D01*
D02*
G37*
G36*
X1550531Y713208D02*
X1542173D01*
X1537994Y709029D01*
Y700671D01*
X1542173Y696492D01*
X1550531D01*
X1554710Y700671D01*
Y709029D01*
X1550531Y713208D01*
D02*
G37*
G36*
X1468882Y638048D02*
X1465453D01*
X1460754Y633349D01*
Y629920D01*
X1468882D01*
Y638048D01*
D02*
G37*
G36*
X1512050Y572746D02*
X1504454D01*
X1500656Y568948D01*
Y561352D01*
X1504454Y557554D01*
X1512050D01*
X1515848Y561352D01*
Y568948D01*
X1512050Y572746D01*
D02*
G37*
G36*
X1442720Y575224D02*
Y560324D01*
X1450929D01*
Y565912D01*
X1450606Y568365D01*
X1449659Y570652D01*
X1448153Y572615D01*
X1446190Y574121D01*
X1443903Y575068D01*
X1442720Y575224D01*
D02*
G37*
G36*
X1542288Y563880D02*
X1534922D01*
Y556514D01*
X1537970D01*
X1542288Y560832D01*
Y563880D01*
D02*
G37*
G36*
X1276350Y698316D02*
X1273990Y697847D01*
X1271990Y696510D01*
X1270653Y694510D01*
X1270183Y692150D01*
X1270653Y689790D01*
X1271990Y687790D01*
X1273990Y686453D01*
X1276350Y685984D01*
X1277245Y686162D01*
X1387049Y576358D01*
Y573467D01*
X1386435Y573213D01*
X1384689Y571873D01*
X1383349Y570127D01*
X1382507Y568094D01*
X1382220Y565912D01*
Y552196D01*
X1382507Y550014D01*
X1383349Y547981D01*
X1384689Y546235D01*
X1386435Y544895D01*
X1388468Y544053D01*
X1390650Y543766D01*
X1392832Y544053D01*
X1394865Y544895D01*
X1396611Y546235D01*
X1397951Y547981D01*
X1398793Y550014D01*
X1399080Y552196D01*
Y565912D01*
X1398793Y568094D01*
X1397951Y570127D01*
X1396611Y571873D01*
X1394865Y573213D01*
X1394251Y573467D01*
Y577850D01*
X1393977Y579228D01*
X1393196Y580396D01*
X1282338Y691255D01*
X1282516Y692150D01*
X1282047Y694510D01*
X1280710Y696510D01*
X1278710Y697847D01*
X1276350Y698316D01*
D02*
G37*
G36*
X1532382Y563880D02*
X1525016D01*
Y560832D01*
X1529334Y556514D01*
X1532382D01*
Y563880D01*
D02*
G37*
G36*
X1465580Y575224D02*
X1464397Y575068D01*
X1462110Y574121D01*
X1460147Y572615D01*
X1458641Y570652D01*
X1457694Y568365D01*
X1457371Y565912D01*
Y560324D01*
X1465580D01*
Y575224D01*
D02*
G37*
G36*
X1468882Y627380D02*
X1460754D01*
Y623951D01*
X1465453Y619252D01*
X1468882D01*
Y627380D01*
D02*
G37*
G36*
X1479550D02*
X1471422D01*
Y619252D01*
X1474851D01*
X1479550Y623951D01*
Y627380D01*
D02*
G37*
G36*
X1537970Y573786D02*
X1534922D01*
Y566420D01*
X1542288D01*
Y569468D01*
X1537970Y573786D01*
D02*
G37*
G36*
X1468120Y575224D02*
Y560324D01*
X1476329D01*
Y565912D01*
X1476006Y568365D01*
X1475059Y570652D01*
X1473553Y572615D01*
X1471590Y574121D01*
X1469303Y575068D01*
X1468120Y575224D01*
D02*
G37*
G36*
X1532382Y573786D02*
X1529334D01*
X1525016Y569468D01*
Y566420D01*
X1532382D01*
Y573786D01*
D02*
G37*
G36*
X1423162Y748364D02*
X1415542D01*
X1413470Y747952D01*
X1411714Y746778D01*
X1410540Y745022D01*
X1410128Y742950D01*
X1410540Y740878D01*
X1411714Y739122D01*
X1413470Y737948D01*
X1415542Y737536D01*
X1423162D01*
X1425234Y737948D01*
X1426990Y739122D01*
X1428164Y740878D01*
X1428576Y742950D01*
X1428164Y745022D01*
X1426990Y746778D01*
X1425234Y747952D01*
X1423162Y748364D01*
D02*
G37*
G36*
X1311402Y809324D02*
X1309330Y808912D01*
X1307574Y807738D01*
X1306400Y805982D01*
X1305988Y803910D01*
Y796290D01*
X1306400Y794218D01*
X1307574Y792462D01*
X1309330Y791288D01*
X1311402Y790876D01*
X1313474Y791288D01*
X1315230Y792462D01*
X1316404Y794218D01*
X1316816Y796290D01*
Y803910D01*
X1316404Y805982D01*
X1315230Y807738D01*
X1313474Y808912D01*
X1311402Y809324D01*
D02*
G37*
G36*
X1324102D02*
X1322030Y808912D01*
X1320274Y807738D01*
X1319100Y805982D01*
X1318688Y803910D01*
Y796290D01*
X1319100Y794218D01*
X1320274Y792462D01*
X1322030Y791288D01*
X1324102Y790876D01*
X1326174Y791288D01*
X1327930Y792462D01*
X1329104Y794218D01*
X1329516Y796290D01*
Y803910D01*
X1329104Y805982D01*
X1327930Y807738D01*
X1326174Y808912D01*
X1324102Y809324D01*
D02*
G37*
G36*
X1298702D02*
X1296630Y808912D01*
X1294874Y807738D01*
X1293700Y805982D01*
X1293288Y803910D01*
Y796290D01*
X1293700Y794218D01*
X1294874Y792462D01*
X1296630Y791288D01*
X1298702Y790876D01*
X1300774Y791288D01*
X1302530Y792462D01*
X1303704Y794218D01*
X1304116Y796290D01*
Y803910D01*
X1303704Y805982D01*
X1302530Y807738D01*
X1300774Y808912D01*
X1298702Y809324D01*
D02*
G37*
G36*
X1273302D02*
X1271230Y808912D01*
X1269474Y807738D01*
X1268300Y805982D01*
X1267888Y803910D01*
Y796290D01*
X1268300Y794218D01*
X1269474Y792462D01*
X1271230Y791288D01*
X1273302Y790876D01*
X1275374Y791288D01*
X1277130Y792462D01*
X1278304Y794218D01*
X1278716Y796290D01*
Y803910D01*
X1278304Y805982D01*
X1277130Y807738D01*
X1275374Y808912D01*
X1273302Y809324D01*
D02*
G37*
G36*
X1286002D02*
X1283930Y808912D01*
X1282174Y807738D01*
X1281000Y805982D01*
X1280588Y803910D01*
Y796290D01*
X1281000Y794218D01*
X1282174Y792462D01*
X1283930Y791288D01*
X1286002Y790876D01*
X1288074Y791288D01*
X1289830Y792462D01*
X1291004Y794218D01*
X1291416Y796290D01*
Y803910D01*
X1291004Y805982D01*
X1289830Y807738D01*
X1288074Y808912D01*
X1286002Y809324D01*
D02*
G37*
G36*
X1336802D02*
X1334730Y808912D01*
X1332974Y807738D01*
X1331800Y805982D01*
X1331388Y803910D01*
Y796290D01*
X1331800Y794218D01*
X1332974Y792462D01*
X1334730Y791288D01*
X1336802Y790876D01*
X1338874Y791288D01*
X1340630Y792462D01*
X1341804Y794218D01*
X1342216Y796290D01*
Y803910D01*
X1341804Y805982D01*
X1340630Y807738D01*
X1338874Y808912D01*
X1336802Y809324D01*
D02*
G37*
G36*
X1414272Y810132D02*
Y800100D01*
Y790068D01*
X1415480Y790308D01*
X1417580Y791712D01*
X1418984Y793812D01*
X1419235Y795075D01*
X1420530D01*
X1420700Y794218D01*
X1421874Y792462D01*
X1423630Y791288D01*
X1425702Y790876D01*
X1427774Y791288D01*
X1429530Y792462D01*
X1430704Y794218D01*
X1431116Y796290D01*
Y803910D01*
X1430704Y805982D01*
X1429530Y807738D01*
X1427774Y808912D01*
X1425702Y809324D01*
X1423630Y808912D01*
X1421874Y807738D01*
X1420700Y805982D01*
X1420530Y805125D01*
X1419235D01*
X1418984Y806388D01*
X1417580Y808488D01*
X1415480Y809892D01*
X1414272Y810132D01*
D02*
G37*
G36*
X1411732D02*
X1410524Y809892D01*
X1408424Y808488D01*
X1407375Y806917D01*
X1405930D01*
X1404880Y808488D01*
X1402780Y809892D01*
X1401572Y810132D01*
Y800100D01*
Y790068D01*
X1402780Y790308D01*
X1404880Y791712D01*
X1405930Y793282D01*
X1407375D01*
X1408424Y791712D01*
X1410524Y790308D01*
X1411732Y790068D01*
Y800100D01*
Y810132D01*
D02*
G37*
G36*
X1374902Y809324D02*
X1372830Y808912D01*
X1371074Y807738D01*
X1369900Y805982D01*
X1369488Y803910D01*
Y796290D01*
X1369900Y794218D01*
X1371074Y792462D01*
X1372830Y791288D01*
X1374902Y790876D01*
X1376974Y791288D01*
X1378730Y792462D01*
X1379904Y794218D01*
X1380316Y796290D01*
Y803910D01*
X1379904Y805982D01*
X1378730Y807738D01*
X1376974Y808912D01*
X1374902Y809324D01*
D02*
G37*
G36*
X1349502D02*
X1347430Y808912D01*
X1345674Y807738D01*
X1344500Y805982D01*
X1344088Y803910D01*
Y796290D01*
X1344500Y794218D01*
X1345674Y792462D01*
X1347430Y791288D01*
X1349502Y790876D01*
X1351574Y791288D01*
X1353330Y792462D01*
X1354504Y794218D01*
X1354916Y796290D01*
Y803910D01*
X1354504Y805982D01*
X1353330Y807738D01*
X1351574Y808912D01*
X1349502Y809324D01*
D02*
G37*
G36*
X1362202D02*
X1360130Y808912D01*
X1358374Y807738D01*
X1357200Y805982D01*
X1356788Y803910D01*
Y796290D01*
X1357200Y794218D01*
X1358374Y792462D01*
X1360130Y791288D01*
X1362202Y790876D01*
X1364274Y791288D01*
X1366030Y792462D01*
X1367204Y794218D01*
X1367616Y796290D01*
Y803910D01*
X1367204Y805982D01*
X1366030Y807738D01*
X1364274Y808912D01*
X1362202Y809324D01*
D02*
G37*
G36*
X1260602D02*
X1258530Y808912D01*
X1256774Y807738D01*
X1255600Y805982D01*
X1255188Y803910D01*
Y796290D01*
X1255600Y794218D01*
X1256774Y792462D01*
X1258530Y791288D01*
X1260602Y790876D01*
X1262674Y791288D01*
X1264430Y792462D01*
X1265604Y794218D01*
X1266016Y796290D01*
Y803910D01*
X1265604Y805982D01*
X1264430Y807738D01*
X1262674Y808912D01*
X1260602Y809324D01*
D02*
G37*
G36*
X1146302D02*
X1144230Y808912D01*
X1142474Y807738D01*
X1141300Y805982D01*
X1140888Y803910D01*
Y796290D01*
X1141300Y794218D01*
X1142474Y792462D01*
X1144230Y791288D01*
X1146302Y790876D01*
X1148374Y791288D01*
X1150130Y792462D01*
X1151304Y794218D01*
X1151716Y796290D01*
Y803910D01*
X1151304Y805982D01*
X1150130Y807738D01*
X1148374Y808912D01*
X1146302Y809324D01*
D02*
G37*
G36*
X1159002D02*
X1156930Y808912D01*
X1155174Y807738D01*
X1154000Y805982D01*
X1153588Y803910D01*
Y796290D01*
X1154000Y794218D01*
X1155174Y792462D01*
X1156930Y791288D01*
X1159002Y790876D01*
X1161074Y791288D01*
X1162830Y792462D01*
X1164004Y794218D01*
X1164416Y796290D01*
Y803910D01*
X1164004Y805982D01*
X1162830Y807738D01*
X1161074Y808912D01*
X1159002Y809324D01*
D02*
G37*
G36*
X1133602D02*
X1131530Y808912D01*
X1129774Y807738D01*
X1128600Y805982D01*
X1128188Y803910D01*
Y796290D01*
X1128600Y794218D01*
X1129774Y792462D01*
X1131530Y791288D01*
X1133602Y790876D01*
X1135674Y791288D01*
X1137430Y792462D01*
X1138604Y794218D01*
X1139016Y796290D01*
Y803910D01*
X1138604Y805982D01*
X1137430Y807738D01*
X1135674Y808912D01*
X1133602Y809324D01*
D02*
G37*
G36*
X1423162Y761064D02*
X1415542D01*
X1413470Y760652D01*
X1411714Y759478D01*
X1410540Y757722D01*
X1410128Y755650D01*
X1410540Y753578D01*
X1411714Y751822D01*
X1413470Y750648D01*
X1415542Y750236D01*
X1423162D01*
X1425234Y750648D01*
X1426990Y751822D01*
X1428164Y753578D01*
X1428576Y755650D01*
X1428164Y757722D01*
X1426990Y759478D01*
X1425234Y760652D01*
X1423162Y761064D01*
D02*
G37*
G36*
Y773764D02*
X1415542D01*
X1413470Y773352D01*
X1411714Y772178D01*
X1410540Y770422D01*
X1410128Y768350D01*
X1410540Y766278D01*
X1411714Y764522D01*
X1413470Y763348D01*
X1415542Y762936D01*
X1423162D01*
X1425234Y763348D01*
X1426990Y764522D01*
X1428164Y766278D01*
X1428576Y768350D01*
X1428164Y770422D01*
X1426990Y772178D01*
X1425234Y773352D01*
X1423162Y773764D01*
D02*
G37*
G36*
X1171702Y809324D02*
X1169630Y808912D01*
X1167874Y807738D01*
X1166700Y805982D01*
X1166288Y803910D01*
Y796290D01*
X1166700Y794218D01*
X1167874Y792462D01*
X1169630Y791288D01*
X1171702Y790876D01*
X1173774Y791288D01*
X1175530Y792462D01*
X1176704Y794218D01*
X1177116Y796290D01*
Y803910D01*
X1176704Y805982D01*
X1175530Y807738D01*
X1173774Y808912D01*
X1171702Y809324D01*
D02*
G37*
G36*
X1222502D02*
X1220430Y808912D01*
X1218674Y807738D01*
X1217500Y805982D01*
X1217088Y803910D01*
Y796290D01*
X1217500Y794218D01*
X1218674Y792462D01*
X1220430Y791288D01*
X1222502Y790876D01*
X1224574Y791288D01*
X1226330Y792462D01*
X1227504Y794218D01*
X1227916Y796290D01*
Y803910D01*
X1227504Y805982D01*
X1226330Y807738D01*
X1224574Y808912D01*
X1222502Y809324D01*
D02*
G37*
G36*
X1247902D02*
X1245830Y808912D01*
X1244074Y807738D01*
X1242900Y805982D01*
X1242488Y803910D01*
Y796290D01*
X1242900Y794218D01*
X1244074Y792462D01*
X1245830Y791288D01*
X1247902Y790876D01*
X1249974Y791288D01*
X1251730Y792462D01*
X1252904Y794218D01*
X1253316Y796290D01*
Y803910D01*
X1252904Y805982D01*
X1251730Y807738D01*
X1249974Y808912D01*
X1247902Y809324D01*
D02*
G37*
G36*
X1209802D02*
X1207730Y808912D01*
X1205974Y807738D01*
X1204800Y805982D01*
X1204388Y803910D01*
Y796290D01*
X1204800Y794218D01*
X1205974Y792462D01*
X1207730Y791288D01*
X1209802Y790876D01*
X1211874Y791288D01*
X1213630Y792462D01*
X1214804Y794218D01*
X1215216Y796290D01*
Y803910D01*
X1214804Y805982D01*
X1213630Y807738D01*
X1211874Y808912D01*
X1209802Y809324D01*
D02*
G37*
G36*
X1184402D02*
X1182330Y808912D01*
X1180574Y807738D01*
X1179400Y805982D01*
X1178988Y803910D01*
Y796290D01*
X1179400Y794218D01*
X1180574Y792462D01*
X1182330Y791288D01*
X1184402Y790876D01*
X1186474Y791288D01*
X1188230Y792462D01*
X1189404Y794218D01*
X1189816Y796290D01*
Y803910D01*
X1189404Y805982D01*
X1188230Y807738D01*
X1186474Y808912D01*
X1184402Y809324D01*
D02*
G37*
G36*
X1197102D02*
X1195030Y808912D01*
X1193274Y807738D01*
X1192100Y805982D01*
X1191688Y803910D01*
Y796290D01*
X1192100Y794218D01*
X1193274Y792462D01*
X1195030Y791288D01*
X1197102Y790876D01*
X1199174Y791288D01*
X1200930Y792462D01*
X1202104Y794218D01*
X1202516Y796290D01*
Y803910D01*
X1202104Y805982D01*
X1200930Y807738D01*
X1199174Y808912D01*
X1197102Y809324D01*
D02*
G37*
G36*
X1365250Y574342D02*
X1363068Y574055D01*
X1361035Y573213D01*
X1359289Y571873D01*
X1357949Y570127D01*
X1357107Y568094D01*
X1356820Y565912D01*
Y552196D01*
X1357107Y550014D01*
X1357949Y547981D01*
X1359289Y546235D01*
X1361035Y544895D01*
X1363068Y544053D01*
X1365250Y543766D01*
X1367432Y544053D01*
X1369465Y544895D01*
X1371211Y546235D01*
X1372551Y547981D01*
X1373393Y550014D01*
X1373680Y552196D01*
Y565912D01*
X1373393Y568094D01*
X1372551Y570127D01*
X1371211Y571873D01*
X1369465Y573213D01*
X1367432Y574055D01*
X1365250Y574342D01*
D02*
G37*
G36*
X1473708Y465884D02*
X1459992D01*
X1457810Y465597D01*
X1455777Y464755D01*
X1454031Y463415D01*
X1452691Y461669D01*
X1451849Y459636D01*
X1451562Y457454D01*
X1451849Y455272D01*
X1452691Y453239D01*
X1454031Y451493D01*
X1455777Y450153D01*
X1457810Y449311D01*
X1459992Y449024D01*
X1473708D01*
X1475890Y449311D01*
X1477923Y450153D01*
X1479669Y451493D01*
X1481009Y453239D01*
X1481851Y455272D01*
X1482138Y457454D01*
X1481851Y459636D01*
X1481009Y461669D01*
X1479669Y463415D01*
X1477923Y464755D01*
X1475890Y465597D01*
X1473708Y465884D01*
D02*
G37*
G36*
X1024382Y463296D02*
X1017016D01*
Y455930D01*
X1024382D01*
Y463296D01*
D02*
G37*
G36*
X1586992Y455422D02*
X1580388D01*
Y452755D01*
X1584325Y448818D01*
X1586992D01*
Y455422D01*
D02*
G37*
G36*
X1135380Y456184D02*
X1120480D01*
X1120636Y455001D01*
X1121583Y452715D01*
X1123089Y450751D01*
X1125052Y449245D01*
X1127339Y448298D01*
X1129792Y447975D01*
X1135380D01*
Y456184D01*
D02*
G37*
G36*
X1152820D02*
X1137920D01*
Y447975D01*
X1143508D01*
X1145961Y448298D01*
X1148248Y449245D01*
X1150211Y450751D01*
X1151717Y452715D01*
X1152664Y455001D01*
X1152820Y456184D01*
D02*
G37*
G36*
X1034288Y463296D02*
X1026922D01*
Y455930D01*
X1034288D01*
Y463296D01*
D02*
G37*
G36*
X1143508Y466933D02*
X1137920D01*
Y458724D01*
X1152820D01*
X1152664Y459907D01*
X1151717Y462193D01*
X1150211Y464157D01*
X1148248Y465663D01*
X1145961Y466610D01*
X1143508Y466933D01*
D02*
G37*
G36*
Y491284D02*
X1129792D01*
X1127610Y490997D01*
X1125577Y490155D01*
X1123831Y488815D01*
X1122491Y487069D01*
X1121649Y485036D01*
X1121362Y482854D01*
X1121649Y480672D01*
X1122491Y478639D01*
X1123831Y476893D01*
X1125577Y475553D01*
X1127610Y474711D01*
X1129792Y474424D01*
X1143508D01*
X1145690Y474711D01*
X1147723Y475553D01*
X1149469Y476893D01*
X1150809Y478639D01*
X1151651Y480672D01*
X1151938Y482854D01*
X1151651Y485036D01*
X1150809Y487069D01*
X1149469Y488815D01*
X1147723Y490155D01*
X1145690Y490997D01*
X1143508Y491284D01*
D02*
G37*
G36*
X1135380Y466933D02*
X1129792D01*
X1127339Y466610D01*
X1125052Y465663D01*
X1123089Y464157D01*
X1121583Y462193D01*
X1120636Y459907D01*
X1120480Y458724D01*
X1135380D01*
Y466933D01*
D02*
G37*
G36*
X1586992Y464566D02*
X1584325D01*
X1580388Y460629D01*
Y457962D01*
X1586992D01*
Y464566D01*
D02*
G37*
G36*
X1592199D02*
X1589532D01*
Y457962D01*
X1596136D01*
Y460629D01*
X1592199Y464566D01*
D02*
G37*
G36*
X1034288Y453390D02*
X1026922D01*
Y446024D01*
X1034288D01*
Y453390D01*
D02*
G37*
G36*
X1143508Y440484D02*
X1129792D01*
X1127610Y440197D01*
X1125577Y439355D01*
X1123831Y438015D01*
X1122491Y436269D01*
X1121649Y434236D01*
X1121362Y432054D01*
X1121649Y429872D01*
X1122491Y427839D01*
X1123831Y426093D01*
X1125577Y424753D01*
X1127610Y423911D01*
X1129792Y423624D01*
X1143508D01*
X1145690Y423911D01*
X1147723Y424753D01*
X1149469Y426093D01*
X1150809Y427839D01*
X1151651Y429872D01*
X1151938Y432054D01*
X1151651Y434236D01*
X1150809Y436269D01*
X1149469Y438015D01*
X1147723Y439355D01*
X1145690Y440197D01*
X1143508Y440484D01*
D02*
G37*
G36*
X1473708D02*
X1459992D01*
X1457810Y440197D01*
X1455777Y439355D01*
X1454031Y438015D01*
X1452691Y436269D01*
X1451849Y434236D01*
X1451562Y432054D01*
X1451849Y429872D01*
X1452691Y427839D01*
X1454031Y426093D01*
X1455777Y424753D01*
X1457810Y423911D01*
X1459992Y423624D01*
X1473708D01*
X1475890Y423911D01*
X1477923Y424753D01*
X1479669Y426093D01*
X1481009Y427839D01*
X1481851Y429872D01*
X1482138Y432054D01*
X1481851Y434236D01*
X1481009Y436269D01*
X1479669Y438015D01*
X1477923Y439355D01*
X1475890Y440197D01*
X1473708Y440484D01*
D02*
G37*
G36*
X1610729Y435586D02*
X1603895D01*
X1600478Y432169D01*
Y425335D01*
X1603895Y421918D01*
X1610729D01*
X1614146Y425335D01*
Y432169D01*
X1610729Y435586D01*
D02*
G37*
G36*
X1103550Y424180D02*
X1087120D01*
Y415202D01*
X1093470D01*
X1096122Y415551D01*
X1098594Y416575D01*
X1100716Y418204D01*
X1102345Y420326D01*
X1103369Y422798D01*
X1103550Y424180D01*
D02*
G37*
G36*
X1552170Y652502D02*
X1533930D01*
Y636294D01*
X1546315D01*
X1552149Y630460D01*
Y560292D01*
X1534154Y542296D01*
X1533373Y541128D01*
X1533099Y539750D01*
Y438150D01*
X1533104Y438126D01*
X1533099Y438102D01*
X1533241Y437437D01*
X1533373Y436772D01*
X1533387Y436752D01*
X1533392Y436728D01*
X1533777Y436168D01*
X1534154Y435604D01*
X1534174Y435590D01*
X1534188Y435570D01*
X1542058Y427907D01*
Y425335D01*
X1545475Y421918D01*
X1552309D01*
X1555726Y425335D01*
Y432169D01*
X1552309Y435586D01*
X1545475D01*
X1544992Y435103D01*
X1540301Y439670D01*
Y538258D01*
X1558296Y556254D01*
X1559077Y557422D01*
X1559351Y558800D01*
Y631952D01*
X1559077Y633330D01*
X1558296Y634498D01*
X1552170Y640625D01*
Y652502D01*
D02*
G37*
G36*
X1084580Y435698D02*
X1078230D01*
X1075578Y435349D01*
X1073106Y434325D01*
X1070984Y432696D01*
X1069355Y430574D01*
X1068332Y428102D01*
X1068149Y426720D01*
X1084580D01*
Y435698D01*
D02*
G37*
G36*
X1093470Y460049D02*
X1078230D01*
X1075849Y459735D01*
X1073631Y458816D01*
X1071725Y457355D01*
X1070264Y455449D01*
X1069345Y453231D01*
X1069104Y451403D01*
X1057402D01*
X1056024Y451129D01*
X1054856Y450348D01*
X1051554Y447046D01*
X1050773Y445878D01*
X1050499Y444500D01*
Y404918D01*
X1049740Y404410D01*
X1048403Y402410D01*
X1047934Y400050D01*
X1048403Y397690D01*
X1049740Y395690D01*
X1051740Y394353D01*
X1054100Y393884D01*
X1056460Y394353D01*
X1058460Y395690D01*
X1059797Y397690D01*
X1060266Y400050D01*
X1059797Y402410D01*
X1058460Y404410D01*
X1057701Y404918D01*
Y443008D01*
X1058894Y444201D01*
X1071914D01*
X1073631Y442884D01*
X1075849Y441965D01*
X1078230Y441651D01*
X1093470D01*
X1095851Y441965D01*
X1098069Y442884D01*
X1099975Y444346D01*
X1101436Y446251D01*
X1102355Y448469D01*
X1102669Y450850D01*
X1102355Y453231D01*
X1101436Y455449D01*
X1099975Y457355D01*
X1098069Y458816D01*
X1095851Y459735D01*
X1093470Y460049D01*
D02*
G37*
G36*
X1024382Y453390D02*
X1017016D01*
Y446024D01*
X1024382D01*
Y453390D01*
D02*
G37*
G36*
X1596136Y455422D02*
X1589532D01*
Y448818D01*
X1592199D01*
X1592858Y449477D01*
X1594128Y448951D01*
Y443115D01*
X1597545Y439698D01*
X1604379D01*
X1607796Y443115D01*
Y449949D01*
X1604379Y453366D01*
X1597545D01*
X1597406Y453227D01*
X1596136Y453753D01*
Y455422D01*
D02*
G37*
G36*
X1093470Y435698D02*
X1087120D01*
Y426720D01*
X1103550D01*
X1103369Y428102D01*
X1102345Y430574D01*
X1100716Y432696D01*
X1098594Y434325D01*
X1096122Y435349D01*
X1093470Y435698D01*
D02*
G37*
G36*
X1558659Y453366D02*
X1551825D01*
X1548408Y449949D01*
Y443115D01*
X1551825Y439698D01*
X1558659D01*
X1562076Y443115D01*
Y449949D01*
X1558659Y453366D01*
D02*
G37*
G36*
X1473708Y491284D02*
X1459992D01*
X1457810Y490997D01*
X1455777Y490155D01*
X1454031Y488815D01*
X1452691Y487069D01*
X1451849Y485036D01*
X1451562Y482854D01*
X1451849Y480672D01*
X1452691Y478639D01*
X1454031Y476893D01*
X1455777Y475553D01*
X1457810Y474711D01*
X1459992Y474424D01*
X1473708D01*
X1475890Y474711D01*
X1477923Y475553D01*
X1479669Y476893D01*
X1481009Y478639D01*
X1481851Y480672D01*
X1482138Y482854D01*
X1481851Y485036D01*
X1481009Y487069D01*
X1479669Y488815D01*
X1477923Y490155D01*
X1475890Y490997D01*
X1473708Y491284D01*
D02*
G37*
G36*
X1162050Y574342D02*
X1159868Y574055D01*
X1157835Y573213D01*
X1156089Y571873D01*
X1154749Y570127D01*
X1153907Y568094D01*
X1153620Y565912D01*
Y552196D01*
X1153907Y550014D01*
X1154749Y547981D01*
X1156089Y546235D01*
X1157835Y544895D01*
X1159868Y544053D01*
X1162050Y543766D01*
X1164232Y544053D01*
X1166265Y544895D01*
X1168011Y546235D01*
X1169351Y547981D01*
X1170193Y550014D01*
X1170480Y552196D01*
Y565912D01*
X1170193Y568094D01*
X1169351Y570127D01*
X1168011Y571873D01*
X1166265Y573213D01*
X1164232Y574055D01*
X1162050Y574342D01*
D02*
G37*
G36*
X1187450D02*
X1185268Y574055D01*
X1183235Y573213D01*
X1181489Y571873D01*
X1180149Y570127D01*
X1179307Y568094D01*
X1179020Y565912D01*
Y552196D01*
X1179307Y550014D01*
X1180149Y547981D01*
X1181489Y546235D01*
X1183235Y544895D01*
X1185268Y544053D01*
X1187450Y543766D01*
X1189632Y544053D01*
X1191665Y544895D01*
X1193411Y546235D01*
X1194751Y547981D01*
X1195593Y550014D01*
X1195880Y552196D01*
Y565912D01*
X1195593Y568094D01*
X1194751Y570127D01*
X1193411Y571873D01*
X1191665Y573213D01*
X1189632Y574055D01*
X1187450Y574342D01*
D02*
G37*
G36*
X1136650D02*
X1134468Y574055D01*
X1132435Y573213D01*
X1130689Y571873D01*
X1129349Y570127D01*
X1128507Y568094D01*
X1128220Y565912D01*
Y552196D01*
X1128507Y550014D01*
X1129349Y547981D01*
X1130689Y546235D01*
X1132435Y544895D01*
X1134468Y544053D01*
X1136650Y543766D01*
X1138832Y544053D01*
X1140865Y544895D01*
X1142611Y546235D01*
X1143951Y547981D01*
X1144793Y550014D01*
X1145080Y552196D01*
Y565912D01*
X1144793Y568094D01*
X1143951Y570127D01*
X1142611Y571873D01*
X1140865Y573213D01*
X1138832Y574055D01*
X1136650Y574342D01*
D02*
G37*
G36*
X1465580Y557784D02*
X1457371D01*
Y552196D01*
X1457694Y549743D01*
X1458641Y547457D01*
X1460147Y545493D01*
X1462110Y543987D01*
X1464397Y543040D01*
X1465580Y542884D01*
Y557784D01*
D02*
G37*
G36*
X1476329D02*
X1468120D01*
Y542884D01*
X1469303Y543040D01*
X1471590Y543987D01*
X1473553Y545493D01*
X1475059Y547457D01*
X1476006Y549743D01*
X1476329Y552196D01*
Y557784D01*
D02*
G37*
G36*
X1212850Y574342D02*
X1210668Y574055D01*
X1208635Y573213D01*
X1206889Y571873D01*
X1205549Y570127D01*
X1204707Y568094D01*
X1204420Y565912D01*
Y552196D01*
X1204707Y550014D01*
X1205549Y547981D01*
X1206889Y546235D01*
X1208635Y544895D01*
X1210668Y544053D01*
X1212850Y543766D01*
X1215032Y544053D01*
X1217065Y544895D01*
X1218811Y546235D01*
X1220151Y547981D01*
X1220993Y550014D01*
X1221280Y552196D01*
Y565912D01*
X1220993Y568094D01*
X1220151Y570127D01*
X1218811Y571873D01*
X1217065Y573213D01*
X1215032Y574055D01*
X1212850Y574342D01*
D02*
G37*
G36*
X1314450D02*
X1312268Y574055D01*
X1310235Y573213D01*
X1308489Y571873D01*
X1307149Y570127D01*
X1306307Y568094D01*
X1306020Y565912D01*
Y552196D01*
X1306307Y550014D01*
X1307149Y547981D01*
X1308489Y546235D01*
X1310235Y544895D01*
X1312268Y544053D01*
X1314450Y543766D01*
X1316632Y544053D01*
X1318665Y544895D01*
X1320411Y546235D01*
X1321751Y547981D01*
X1322593Y550014D01*
X1322880Y552196D01*
Y565912D01*
X1322593Y568094D01*
X1321751Y570127D01*
X1320411Y571873D01*
X1318665Y573213D01*
X1316632Y574055D01*
X1314450Y574342D01*
D02*
G37*
G36*
X1339850D02*
X1337668Y574055D01*
X1335635Y573213D01*
X1333889Y571873D01*
X1332549Y570127D01*
X1331707Y568094D01*
X1331420Y565912D01*
Y552196D01*
X1331707Y550014D01*
X1332549Y547981D01*
X1333889Y546235D01*
X1335635Y544895D01*
X1337668Y544053D01*
X1339850Y543766D01*
X1342032Y544053D01*
X1344065Y544895D01*
X1345811Y546235D01*
X1347151Y547981D01*
X1347993Y550014D01*
X1348280Y552196D01*
Y565912D01*
X1347993Y568094D01*
X1347151Y570127D01*
X1345811Y571873D01*
X1344065Y573213D01*
X1342032Y574055D01*
X1339850Y574342D01*
D02*
G37*
G36*
X1289050D02*
X1286868Y574055D01*
X1284835Y573213D01*
X1283089Y571873D01*
X1281749Y570127D01*
X1280907Y568094D01*
X1280620Y565912D01*
Y552196D01*
X1280907Y550014D01*
X1281749Y547981D01*
X1283089Y546235D01*
X1284835Y544895D01*
X1286868Y544053D01*
X1289050Y543766D01*
X1291232Y544053D01*
X1293265Y544895D01*
X1295011Y546235D01*
X1296351Y547981D01*
X1297193Y550014D01*
X1297480Y552196D01*
Y565912D01*
X1297193Y568094D01*
X1296351Y570127D01*
X1295011Y571873D01*
X1293265Y573213D01*
X1291232Y574055D01*
X1289050Y574342D01*
D02*
G37*
G36*
X1238250D02*
X1236068Y574055D01*
X1234035Y573213D01*
X1232289Y571873D01*
X1230949Y570127D01*
X1230107Y568094D01*
X1229820Y565912D01*
Y552196D01*
X1230107Y550014D01*
X1230949Y547981D01*
X1232289Y546235D01*
X1234035Y544895D01*
X1236068Y544053D01*
X1238250Y543766D01*
X1240432Y544053D01*
X1242465Y544895D01*
X1244211Y546235D01*
X1245551Y547981D01*
X1246393Y550014D01*
X1246680Y552196D01*
Y565912D01*
X1246393Y568094D01*
X1245551Y570127D01*
X1244211Y571873D01*
X1242465Y573213D01*
X1240432Y574055D01*
X1238250Y574342D01*
D02*
G37*
G36*
X1263650D02*
X1261468Y574055D01*
X1259435Y573213D01*
X1257689Y571873D01*
X1256349Y570127D01*
X1255507Y568094D01*
X1255220Y565912D01*
Y552196D01*
X1255507Y550014D01*
X1256349Y547981D01*
X1257689Y546235D01*
X1259435Y544895D01*
X1261468Y544053D01*
X1263650Y543766D01*
X1265832Y544053D01*
X1267865Y544895D01*
X1269611Y546235D01*
X1270951Y547981D01*
X1271793Y550014D01*
X1272080Y552196D01*
Y565912D01*
X1271793Y568094D01*
X1270951Y570127D01*
X1269611Y571873D01*
X1267865Y573213D01*
X1265832Y574055D01*
X1263650Y574342D01*
D02*
G37*
G36*
X1450929Y557784D02*
X1442720D01*
Y542884D01*
X1443903Y543040D01*
X1446190Y543987D01*
X1448153Y545493D01*
X1449659Y547457D01*
X1450606Y549743D01*
X1450929Y552196D01*
Y557784D01*
D02*
G37*
G36*
X1143508Y516684D02*
X1129792D01*
X1127610Y516397D01*
X1125577Y515555D01*
X1123831Y514215D01*
X1122491Y512469D01*
X1121649Y510436D01*
X1121362Y508254D01*
X1121649Y506072D01*
X1122491Y504039D01*
X1123831Y502293D01*
X1125577Y500953D01*
X1127610Y500111D01*
X1129792Y499824D01*
X1143508D01*
X1145690Y500111D01*
X1147723Y500953D01*
X1149469Y502293D01*
X1150809Y504039D01*
X1151651Y506072D01*
X1151938Y508254D01*
X1151651Y510436D01*
X1150809Y512469D01*
X1149469Y514215D01*
X1147723Y515555D01*
X1145690Y516397D01*
X1143508Y516684D01*
D02*
G37*
G36*
X1465580Y517733D02*
X1459992D01*
X1457539Y517410D01*
X1455253Y516463D01*
X1453289Y514957D01*
X1451783Y512994D01*
X1450836Y510707D01*
X1450680Y509524D01*
X1465580D01*
Y517733D01*
D02*
G37*
G36*
X1483020Y506984D02*
X1468120D01*
Y498775D01*
X1473708D01*
X1476161Y499098D01*
X1478448Y500045D01*
X1480411Y501551D01*
X1481917Y503515D01*
X1482864Y505801D01*
X1483020Y506984D01*
D02*
G37*
G36*
X1327150Y488767D02*
X1324790Y488297D01*
X1322790Y486960D01*
X1321453Y484960D01*
X1320983Y482600D01*
X1321162Y481704D01*
X1315206Y475748D01*
X1314425Y474580D01*
X1314151Y473202D01*
Y392144D01*
X1248404Y326396D01*
X1247623Y325228D01*
X1247349Y323850D01*
Y309668D01*
X1246590Y309160D01*
X1245253Y307160D01*
X1244783Y304800D01*
X1245253Y302440D01*
X1246590Y300440D01*
X1248590Y299103D01*
X1250950Y298633D01*
X1253310Y299103D01*
X1255310Y300440D01*
X1256647Y302440D01*
X1257116Y304800D01*
X1256647Y307160D01*
X1255310Y309160D01*
X1254551Y309668D01*
Y322358D01*
X1320298Y388106D01*
X1321079Y389274D01*
X1321353Y390652D01*
Y471710D01*
X1326254Y476612D01*
X1327150Y476433D01*
X1329510Y476903D01*
X1331510Y478240D01*
X1332847Y480240D01*
X1333316Y482600D01*
X1332847Y484960D01*
X1331510Y486960D01*
X1329510Y488297D01*
X1327150Y488767D01*
D02*
G37*
G36*
X1465580Y506984D02*
X1450680D01*
X1450836Y505801D01*
X1451783Y503515D01*
X1453289Y501551D01*
X1455253Y500045D01*
X1457539Y499098D01*
X1459992Y498775D01*
X1465580D01*
Y506984D01*
D02*
G37*
G36*
X1473708Y517733D02*
X1468120D01*
Y509524D01*
X1483020D01*
X1482864Y510707D01*
X1481917Y512994D01*
X1480411Y514957D01*
X1478448Y516463D01*
X1476161Y517410D01*
X1473708Y517733D01*
D02*
G37*
G36*
X1499870Y535940D02*
X1496695D01*
X1492250Y531495D01*
Y528320D01*
X1499870D01*
Y535940D01*
D02*
G37*
G36*
X1505585D02*
X1502410D01*
Y528320D01*
X1510030D01*
Y531495D01*
X1505585Y535940D01*
D02*
G37*
G36*
X1521460Y534968D02*
X1519411Y534698D01*
X1517501Y533907D01*
X1515861Y532649D01*
X1514603Y531009D01*
X1513812Y529099D01*
X1513542Y527050D01*
X1513812Y525001D01*
X1514603Y523091D01*
X1515861Y521451D01*
X1517501Y520193D01*
X1519411Y519402D01*
X1521460Y519132D01*
X1523509Y519402D01*
X1525419Y520193D01*
X1527059Y521451D01*
X1528317Y523091D01*
X1529108Y525001D01*
X1529378Y527050D01*
X1529108Y529099D01*
X1528317Y531009D01*
X1527059Y532649D01*
X1525419Y533907D01*
X1523509Y534698D01*
X1521460Y534968D01*
D02*
G37*
G36*
X1499870Y525780D02*
X1492250D01*
Y522605D01*
X1496695Y518160D01*
X1499870D01*
Y525780D01*
D02*
G37*
G36*
X1510030D02*
X1502410D01*
Y518160D01*
X1505585D01*
X1510030Y522605D01*
Y525780D01*
D02*
G37*
%LPD*%
D11*
X1470152Y722372D02*
D03*
Y693928D02*
D03*
D13*
X1543050Y644398D02*
D03*
Y663550D02*
D03*
D15*
X869950Y539750D02*
X873252Y536702D01*
X914400D01*
X927100Y524002D01*
Y482600D02*
Y524002D01*
X901700Y457200D02*
X927100Y482600D01*
X901700Y444500D02*
Y457200D01*
X816102Y498602D02*
X819150Y501650D01*
X831850D01*
X869950Y539750D01*
Y631952D01*
X742950Y746252D02*
X778002Y781050D01*
X828802D01*
X839470Y770382D01*
Y685800D02*
Y770382D01*
Y685800D02*
X869950Y655320D01*
Y631952D02*
Y655320D01*
X488950Y746252D02*
X511302D01*
Y488950D02*
Y746252D01*
X463550Y488950D02*
X511302D01*
X412750Y708152D02*
Y746252D01*
Y708152D02*
X482600D01*
Y514350D02*
Y708152D01*
X400050Y514350D02*
X482600D01*
X400050Y488950D02*
Y514350D01*
X869950Y504952D02*
X908050D01*
X844550Y479552D02*
X869950Y504952D01*
X762000Y479552D02*
X844550D01*
X762000Y444500D02*
Y479552D01*
X739902Y501650D02*
X762000Y479552D01*
X698500Y501650D02*
X739902D01*
X647700Y552450D02*
X698500Y501650D01*
X622300Y552450D02*
X647700D01*
X596900D02*
X622300D01*
X571500D02*
X596900D01*
X546100D02*
X571500D01*
X666750Y647700D02*
Y746252D01*
X647700Y628650D02*
X666750Y647700D01*
X622300Y628650D02*
X647700D01*
X596900D02*
X622300D01*
X571500D02*
X596900D01*
X546100D02*
X571500D01*
X1219200Y342900D02*
Y397002D01*
X1317752Y473202D02*
X1327150Y482600D01*
X1317752Y390652D02*
Y473202D01*
X1250950Y323850D02*
X1317752Y390652D01*
X1250950Y304800D02*
Y323850D01*
X948182Y400050D02*
X949452Y401320D01*
X869950Y400050D02*
X948182D01*
X806450Y336550D02*
X869950Y400050D01*
X806450Y298450D02*
Y336550D01*
X765302Y301752D02*
Y339852D01*
Y301752D02*
X784352Y282702D01*
X841502D01*
X857250Y298450D01*
X949452Y438150D02*
Y454660D01*
X930402Y419100D02*
X949452Y438150D01*
X844550Y419100D02*
X930402D01*
X765302Y339852D02*
X844550Y419100D01*
X1568450Y455930D02*
X1569212Y456692D01*
X1568450Y454152D02*
Y455930D01*
Y460502D01*
X1581150Y473202D01*
X1619250D01*
X1631950Y460502D01*
Y381000D02*
Y460502D01*
X1543050Y644652D02*
X1555750Y631952D01*
Y558800D02*
Y631952D01*
X1536700Y539750D02*
X1555750Y558800D01*
X1536700Y438150D02*
Y539750D01*
Y438150D02*
X1546352Y428752D01*
X1548892D01*
X708152Y657352D02*
X736600Y628650D01*
X708152Y657352D02*
Y755650D01*
X762000Y809752D01*
X863600D01*
X879602Y793750D01*
Y781050D02*
Y793750D01*
X736600Y628650D02*
X762000D01*
X787400D01*
X812800D01*
X838200D01*
Y552450D02*
Y628650D01*
X812800Y552450D02*
X838200D01*
X787400D02*
X812800D01*
X762000D02*
X787400D01*
X736600D02*
X762000D01*
X1603502Y397002D02*
Y412750D01*
X1590802Y384302D02*
X1603502Y397002D01*
X1549400Y384302D02*
X1590802D01*
X1536700Y371602D02*
X1549400Y384302D01*
X1536700Y323850D02*
Y371602D01*
X1530350Y317500D02*
X1536700Y323850D01*
X1387602Y317500D02*
X1530350D01*
X1377950Y327152D02*
X1387602Y317500D01*
X1377950Y327152D02*
Y355600D01*
X1235202Y749300D02*
Y800100D01*
Y749300D02*
X1416050Y568452D01*
Y558800D02*
Y568452D01*
X1390650Y558800D02*
Y577850D01*
X1276350Y692150D02*
X1390650Y577850D01*
X1193800Y409702D02*
X1257300D01*
X1178052Y393700D02*
X1193800Y409702D01*
X1092200Y393700D02*
X1178052D01*
X1092200Y349250D02*
Y393700D01*
X1085850Y400050D02*
X1092200Y393700D01*
X1070102Y384302D02*
X1085850Y400050D01*
X962152Y384302D02*
X1070102D01*
X917702Y339852D02*
X962152Y384302D01*
X917702Y279400D02*
Y339852D01*
X911352Y273050D02*
X917702Y279400D01*
X758952Y273050D02*
X911352D01*
X752602Y279400D02*
X758952Y273050D01*
X463550Y279400D02*
X752602D01*
X1355852Y524002D02*
X1368552Y536702D01*
X1428750D01*
Y584200D01*
X1387602Y625602D02*
X1428750Y584200D01*
X1387602Y625602D02*
Y800100D01*
X1324102Y358902D02*
X1346200Y381000D01*
X1324102Y298450D02*
Y358902D01*
Y298450D02*
X1327150Y295402D01*
Y260350D02*
Y295402D01*
Y260350D02*
X1451102D01*
X1498600Y308102D01*
X1562100D01*
X1343152Y384302D02*
X1346200Y381000D01*
X1343152Y384302D02*
Y511302D01*
X1355852Y524002D01*
X1562100Y308102D02*
X1565402Y304800D01*
X1082802Y447802D02*
X1085850Y450850D01*
X1057402Y447802D02*
X1082802D01*
X1054100Y444500D02*
X1057402Y447802D01*
X1054100Y400050D02*
Y444500D01*
X1139952Y679450D02*
X1143000D01*
X1120902Y698500D02*
X1139952Y679450D01*
X1120902Y698500D02*
Y800100D01*
X1054862Y285750D02*
Y342900D01*
X908050Y631952D02*
X935482D01*
X989330Y685800D01*
X1543050Y663702D02*
Y666750D01*
X1489202Y720852D02*
X1543050Y666750D01*
X1471676Y720852D02*
X1489202D01*
X1470152Y722376D02*
X1471676Y720852D01*
X1470152D02*
Y722376D01*
Y781050D01*
X1028700Y349250D02*
X1035050Y342900D01*
X981202Y349250D02*
X1028700D01*
X974852Y355600D02*
X981202Y349250D01*
X974852Y355600D02*
Y365252D01*
X1587500Y457200D02*
X1588262Y456692D01*
X1507490Y285750D02*
X1508252Y285242D01*
Y276352D02*
Y285242D01*
Y276352D02*
X1514602Y270002D01*
X1546352D01*
X1555750Y279400D02*
X1565402D01*
X1546352Y270002D02*
X1555750Y279400D01*
X1587500Y443230D02*
Y457200D01*
X1555242Y410972D02*
X1587500Y443230D01*
X1400302Y800100D02*
X1413002D01*
Y787400D02*
Y800100D01*
Y787400D02*
X1416050Y784352D01*
X1435100D01*
X1441450Y778002D01*
Y722630D02*
Y778002D01*
Y722630D02*
X1470152Y693928D01*
X1501140Y527050D02*
X1501902Y527812D01*
Y536702D01*
X1530350Y565150D01*
X1533652D01*
X1470152Y524002D02*
X1473200Y527050D01*
X1501140D01*
X1466850Y508000D02*
X1470152Y511302D01*
Y524002D01*
Y562102D01*
X1441450Y558800D02*
X1466850D01*
X1470152Y562102D01*
Y628650D01*
Y693928D01*
X1117600Y457200D02*
X1136650D01*
X1114552Y454152D02*
X1117600Y457200D01*
X1114552Y441452D02*
Y454152D01*
X1098550Y425450D02*
X1114552Y441452D01*
X1085850Y425450D02*
X1098550D01*
X1047242Y273050D02*
X1092200D01*
X1034542Y285750D02*
X1047242Y273050D01*
X1034542Y285750D02*
Y342900D01*
X1035050D01*
X974852Y365252D02*
X977900D01*
X958850D02*
X974852D01*
X927100Y333502D02*
X958850Y365252D01*
X927100Y273050D02*
Y333502D01*
X917702Y263652D02*
X927100Y273050D01*
X447802Y263652D02*
X917702D01*
X431800Y279400D02*
X447802Y263652D01*
D18*
X1380582Y755396D02*
Y775132D01*
X1330960D02*
X1380582D01*
X1330960Y755396D02*
Y775132D01*
Y755396D02*
X1380582D01*
X1212596Y718220D02*
X1232332D01*
Y767842D01*
X1212596D02*
X1232332D01*
X1212596Y718220D02*
Y767842D01*
X1394622Y472770D02*
Y492506D01*
Y472770D02*
X1444244D01*
Y492506D01*
X1394622D02*
X1444244D01*
X1528064Y472770D02*
Y492506D01*
X1488522Y472770D02*
Y492506D01*
Y472770D02*
X1528064D01*
X1488522Y492506D02*
X1528064D01*
X1209370Y466182D02*
X1229106D01*
X1209370Y416560D02*
Y466182D01*
Y416560D02*
X1229106D01*
Y466182D01*
X1228182Y304546D02*
Y324282D01*
X1178560D02*
X1228182D01*
X1178560Y304546D02*
Y324282D01*
Y304546D02*
X1228182D01*
X1394622Y441020D02*
Y460756D01*
Y441020D02*
X1444244D01*
Y460756D01*
X1394622D02*
X1444244D01*
X1394622Y396570D02*
Y416306D01*
Y396570D02*
X1444244D01*
Y416306D01*
X1394622D02*
X1444244D01*
X1394622Y371170D02*
Y390906D01*
Y371170D02*
X1444244D01*
Y390906D01*
X1394622D02*
X1444244D01*
X1394622Y345770D02*
Y365506D01*
Y345770D02*
X1444244D01*
Y365506D01*
X1394622D02*
X1444244D01*
X1394622Y320370D02*
Y340106D01*
Y320370D02*
X1444244D01*
Y340106D01*
X1394622D02*
X1444244D01*
X1528064Y342722D02*
Y362458D01*
X1488522Y342722D02*
Y362458D01*
Y342722D02*
X1528064D01*
X1488522Y362458D02*
X1528064D01*
Y371170D02*
Y390906D01*
X1488522Y371170D02*
Y390906D01*
Y371170D02*
X1528064D01*
X1488522Y390906D02*
X1528064D01*
Y396570D02*
Y416306D01*
X1488522Y396570D02*
Y416306D01*
Y396570D02*
X1528064D01*
X1488522Y416306D02*
X1528064D01*
Y320370D02*
Y340106D01*
X1488522Y320370D02*
Y340106D01*
Y320370D02*
X1528064D01*
X1488522Y340106D02*
X1528064D01*
X1364996Y648370D02*
X1384732D01*
Y697992D01*
X1364996D02*
X1384732D01*
X1364996Y648370D02*
Y697992D01*
X1377280Y304546D02*
Y324282D01*
X1327658D02*
X1377280D01*
X1327658Y304546D02*
Y324282D01*
Y304546D02*
X1377280D01*
X1317082D02*
Y324282D01*
X1267460D02*
X1317082D01*
X1267460Y304546D02*
Y324282D01*
Y304546D02*
X1317082D01*
X1609344Y483270D02*
X1629080D01*
Y532892D01*
X1609344D02*
X1629080D01*
X1609344Y483270D02*
Y532892D01*
X1574622Y532730D02*
X1594358D01*
X1574622Y483108D02*
Y532730D01*
Y483108D02*
X1594358D01*
Y532730D01*
X1602832Y352044D02*
Y371780D01*
X1553210D02*
X1602832D01*
X1553210Y352044D02*
Y371780D01*
Y352044D02*
X1602832D01*
X1528064Y447370D02*
Y467106D01*
X1488522Y447370D02*
Y467106D01*
Y447370D02*
X1528064D01*
X1488522Y467106D02*
X1528064D01*
X1324864Y755472D02*
Y775208D01*
X1285322Y755472D02*
Y775208D01*
Y755472D02*
X1324864D01*
X1285322Y775208D02*
X1324864D01*
X1488440Y421894D02*
Y441630D01*
X1527982Y421894D02*
Y441630D01*
X1488440D02*
X1527982D01*
X1488440Y421894D02*
X1527982D01*
X1549146Y518414D02*
X1568882D01*
X1549146Y478872D02*
X1568882D01*
Y518414D01*
X1549146Y478872D02*
Y518414D01*
X1212596Y689864D02*
X1232332D01*
X1212596Y650322D02*
X1232332D01*
Y689864D01*
X1212596Y650322D02*
Y689864D01*
X1333246Y692912D02*
X1352982D01*
X1333246Y653370D02*
X1352982D01*
Y692912D01*
X1333246Y653370D02*
Y692912D01*
X1291920Y440690D02*
X1311656D01*
X1291920Y480232D02*
X1311656D01*
X1291920Y440690D02*
Y480232D01*
X1311656Y440690D02*
Y480232D01*
X1247394Y464312D02*
X1267130D01*
X1247394Y424770D02*
X1267130D01*
Y464312D01*
X1247394Y424770D02*
Y464312D01*
X1460246Y732882D02*
X1479982D01*
Y683260D02*
Y732882D01*
X1460246Y683260D02*
X1479982D01*
X1460246D02*
Y732882D01*
X1533144Y634238D02*
X1552880D01*
X1533144Y673780D02*
X1552880D01*
Y634238D02*
Y673780D01*
X1533144Y634238D02*
Y673780D01*
D19*
X412750Y746252D02*
D03*
X488950D02*
D03*
X742950D02*
D03*
X666750D02*
D03*
X590550D02*
D03*
D20*
X1521460Y527050D02*
D03*
X1054862Y285750D02*
D03*
X1527810D02*
D03*
X1054862Y342900D02*
D03*
D21*
X1501140Y527050D02*
D03*
X1034542Y285750D02*
D03*
X1507490D02*
D03*
X1034542Y342900D02*
D03*
D22*
X1092200Y349250D02*
D03*
Y323850D02*
D03*
Y298450D02*
D03*
Y273050D02*
D03*
D23*
X1602232Y412242D02*
D03*
X1588262Y400812D02*
D03*
X1569212D02*
D03*
X1555242Y410972D02*
D03*
X1548892Y428752D02*
D03*
X1555242Y446532D02*
D03*
X1569212Y456692D02*
D03*
X1588262D02*
D03*
X1600962Y446532D02*
D03*
X1607312Y428752D02*
D03*
D24*
X1085850Y450850D02*
D03*
Y425450D02*
D03*
Y400050D02*
D03*
D25*
X1136650Y508254D02*
D03*
Y482854D02*
D03*
Y457454D02*
D03*
Y432054D02*
D03*
Y406527D02*
D03*
Y381127D02*
D03*
Y355727D02*
D03*
Y330327D02*
D03*
X1466850Y508254D02*
D03*
Y482854D02*
D03*
Y457454D02*
D03*
Y432054D02*
D03*
Y406527D02*
D03*
Y381127D02*
D03*
Y355727D02*
D03*
Y330327D02*
D03*
D26*
X1136650Y559054D02*
D03*
X1162050D02*
D03*
X1187450D02*
D03*
X1212850D02*
D03*
X1238250D02*
D03*
X1263650D02*
D03*
X1289050D02*
D03*
X1314450D02*
D03*
X1339850D02*
D03*
X1365250D02*
D03*
X1390650D02*
D03*
X1416050D02*
D03*
X1441450D02*
D03*
X1466850D02*
D03*
X1162050Y279527D02*
D03*
X1187450D02*
D03*
X1212850D02*
D03*
X1238250D02*
D03*
X1263650D02*
D03*
X1289050D02*
D03*
X1314450D02*
D03*
X1339850D02*
D03*
X1365250D02*
D03*
X1390650D02*
D03*
X1416050D02*
D03*
X1441450D02*
D03*
D27*
X1419352Y704850D02*
D03*
Y717550D02*
D03*
Y730250D02*
D03*
Y742950D02*
D03*
Y755650D02*
D03*
Y768350D02*
D03*
D28*
X1120902Y800100D02*
D03*
X1133602D02*
D03*
X1146302D02*
D03*
X1159002D02*
D03*
X1171702D02*
D03*
X1184402D02*
D03*
X1197102D02*
D03*
X1209802D02*
D03*
X1222502D02*
D03*
X1235202D02*
D03*
X1247902D02*
D03*
X1260602D02*
D03*
X1273302D02*
D03*
X1286002D02*
D03*
X1298702D02*
D03*
X1311402D02*
D03*
X1324102D02*
D03*
X1336802D02*
D03*
X1349502D02*
D03*
X1362202D02*
D03*
X1374902D02*
D03*
X1387602D02*
D03*
X1400302D02*
D03*
X1413002D02*
D03*
X1425702D02*
D03*
D29*
X908050Y504952D02*
D03*
Y631952D02*
D03*
X869950Y504952D02*
D03*
Y631952D02*
D03*
D30*
X1565402Y330200D02*
D03*
Y304800D02*
D03*
Y279400D02*
D03*
D31*
X828802Y781050D02*
D03*
X879602D02*
D03*
D32*
X450850Y552450D02*
D03*
X425450D02*
D03*
X400050D02*
D03*
X450850Y628650D02*
D03*
X425450D02*
D03*
X400050D02*
D03*
X374650D02*
D03*
X349250D02*
D03*
X374650Y552450D02*
D03*
X349250D02*
D03*
X647700D02*
D03*
X622300D02*
D03*
X596900D02*
D03*
X647700Y628650D02*
D03*
X622300D02*
D03*
X596900D02*
D03*
X571500D02*
D03*
X546100D02*
D03*
X571500Y552450D02*
D03*
X546100D02*
D03*
X838200D02*
D03*
X812800D02*
D03*
X787400D02*
D03*
X838200Y628650D02*
D03*
X812800D02*
D03*
X787400D02*
D03*
X762000D02*
D03*
X736600D02*
D03*
X762000Y552450D02*
D03*
X736600D02*
D03*
D33*
X1533652Y565150D02*
D03*
X1508252D02*
D03*
X816102Y501650D02*
D03*
X739902D02*
D03*
D34*
X839470Y685800D02*
D03*
X989330D02*
D03*
D35*
X1000252Y365252D02*
D03*
X974852D02*
D03*
D36*
X949452Y401320D02*
D03*
X1025652D02*
D03*
Y454660D02*
D03*
X949452D02*
D03*
D37*
X1546352Y704850D02*
D03*
X1470152Y781050D02*
D03*
Y628650D02*
D03*
X857250Y298450D02*
D03*
X806450D02*
D03*
X901700Y444500D02*
D03*
X762000D02*
D03*
D38*
X431800Y279400D02*
D03*
X400050D02*
D03*
X463550D02*
D03*
X400050Y488950D02*
D03*
X463550D02*
D03*
X679450D02*
D03*
D39*
X971550Y304800D02*
D03*
Y774700D02*
D03*
D40*
X1219200Y397002D02*
D03*
Y342900D02*
D03*
X1327150Y482600D02*
D03*
X1250950Y304800D02*
D03*
X1631950Y381000D02*
D03*
X1377950Y355600D02*
D03*
X1276350Y692150D02*
D03*
X1257300Y409702D02*
D03*
X1346200Y381000D02*
D03*
X1355852Y524002D02*
D03*
X1054100Y400050D02*
D03*
X1143000Y679450D02*
D03*
D41*
X549402Y787400D02*
X590550Y746252D01*
X403352Y787400D02*
X549402D01*
X371602Y755650D02*
X403352Y787400D01*
X371602Y711200D02*
Y755650D01*
X349250Y689102D02*
X371602Y711200D01*
X349250Y625602D02*
Y689102D01*
Y625602D02*
X352552Y628650D01*
X374650D01*
X400050D01*
X425450D01*
X454152D01*
M02*
