G04 Layer_Color=8388736*
%FSLAX44Y44*%
%MOMM*%
G71*
G01*
G75*
%ADD12C,0.5000*%
%ADD26O,1.9032X0.8032*%
%ADD27R,1.9032X0.8032*%
%ADD28R,2.6032X2.6032*%
%ADD29C,2.6032*%
%ADD30R,2.6032X2.6032*%
%ADD31C,1.9032*%
%ADD32C,1.4732*%
G36*
X405171Y61802D02*
X405822Y61722D01*
X406589Y61560D01*
X407245Y61350D01*
X408027Y60999D01*
X408818Y60515D01*
X409586Y59883D01*
X410350Y59012D01*
X410838Y58229D01*
X411191Y57418D01*
X411443Y56470D01*
X411591Y55192D01*
X411604Y54359D01*
X411546Y53430D01*
X411356Y52325D01*
X411109Y51511D01*
X410748Y50708D01*
X410256Y49893D01*
X409790Y49252D01*
X409240Y48593D01*
X408610Y47974D01*
X407985Y47504D01*
X407253Y47066D01*
X406759Y46800D01*
X407345Y46626D01*
X407854Y46480D01*
X408271Y46301D01*
X408539Y46157D01*
X408929Y45914D01*
X409185Y45747D01*
X409513Y45560D01*
X409792Y45448D01*
X410013Y45392D01*
X410239Y45357D01*
X410470Y45342D01*
X410625Y45342D01*
X410933Y45370D01*
X411157Y45416D01*
X411442Y45514D01*
X411767Y45701D01*
X412005Y45890D01*
X412284Y46156D01*
X412500Y46378D01*
X412818Y46710D01*
X413127Y47044D01*
X413422Y47387D01*
X413609Y47623D01*
X413873Y47991D01*
X414076Y48310D01*
X414267Y48639D01*
X414411Y48908D01*
X414513Y49113D01*
X414675Y49460D01*
X414768Y49670D01*
X414888Y49952D01*
X415008Y50233D01*
X415128Y50514D01*
X415285Y50859D01*
X415455Y51197D01*
X415681Y51587D01*
X415941Y51956D01*
X416227Y52310D01*
X416472Y52602D01*
X416762Y52958D01*
X416951Y53198D01*
X417234Y53559D01*
X417426Y53796D01*
X417621Y54029D01*
X417925Y54365D01*
X418194Y54628D01*
X418540Y54919D01*
X418910Y55181D01*
X419503Y55526D01*
X419916Y55729D01*
X420266Y55884D01*
X420693Y56052D01*
X421125Y56199D01*
X421564Y56325D01*
X422158Y56458D01*
X422609Y56528D01*
X423142Y56576D01*
X423448Y56587D01*
X423909Y56579D01*
X424215Y56557D01*
X424443Y56532D01*
X424670Y56498D01*
X425044Y56424D01*
X425484Y56304D01*
X425841Y56178D01*
X426326Y55963D01*
X426729Y55750D01*
X426992Y55597D01*
X427253Y55438D01*
X427639Y55192D01*
X427956Y54980D01*
X428267Y54761D01*
X428569Y54532D01*
X428862Y54292D01*
X429141Y54037D01*
X429407Y53768D01*
X429710Y53428D01*
X429951Y53133D01*
X430228Y52770D01*
X430537Y52336D01*
X430949Y51699D01*
X431140Y51372D01*
X431425Y50836D01*
X431620Y50425D01*
X431801Y50006D01*
X431994Y49510D01*
X432145Y49080D01*
X432326Y48500D01*
X432408Y48207D01*
X432485Y47914D01*
X432592Y47471D01*
X432718Y46877D01*
X432787Y46504D01*
X432861Y46054D01*
X432906Y45753D01*
X432947Y45451D01*
X432984Y45149D01*
X433025Y44771D01*
X433068Y44316D01*
X433113Y43708D01*
X433137Y43252D01*
X433152Y42796D01*
X433157Y42340D01*
X433155Y42036D01*
X433148Y41732D01*
X433129Y41277D01*
X433098Y40822D01*
X433039Y40218D01*
X432980Y39766D01*
X432907Y39317D01*
X432821Y38869D01*
X432721Y38424D01*
X432605Y37983D01*
X432475Y37546D01*
X432302Y37042D01*
X432137Y36616D01*
X431987Y36266D01*
X431825Y35921D01*
X431688Y35648D01*
X431544Y35379D01*
X431274Y34918D01*
X431026Y34534D01*
X430625Y33978D01*
X430483Y33799D01*
X430035Y33280D01*
X429772Y33004D01*
X429101Y32381D01*
X428686Y32044D01*
X428128Y31640D01*
X426386Y30673D01*
X425960Y30495D01*
X425528Y30337D01*
X425162Y30222D01*
X424867Y30143D01*
X424421Y30046D01*
X423895Y29969D01*
X423441Y29938D01*
X423062Y29936D01*
X422303Y30003D01*
X421851Y30085D01*
X421478Y30177D01*
X420746Y30421D01*
X420390Y30573D01*
X419960Y30760D01*
X419437Y31094D01*
X418398Y31903D01*
X418017Y32285D01*
X417620Y32752D01*
X417437Y32998D01*
X417187Y33378D01*
X416964Y33772D01*
X416713Y34318D01*
X416556Y34741D01*
X416366Y35392D01*
X416233Y35987D01*
X416129Y36593D01*
X416080Y36946D01*
X416085Y36899D01*
X416065Y37053D01*
X416080Y36946D01*
X415954Y38059D01*
X415902Y38680D01*
X415872Y39220D01*
X415862Y39753D01*
X415879Y40310D01*
X415912Y40714D01*
X415960Y41071D01*
X416132Y41787D01*
X416240Y42089D01*
X416379Y42403D01*
X416533Y42572D01*
X416683Y42584D01*
X416827Y42427D01*
X416832Y41805D01*
X416827Y41212D01*
X416888Y40777D01*
X417035Y40307D01*
X417225Y39798D01*
X417421Y39348D01*
X417726Y38840D01*
X418111Y38388D01*
X418446Y38100D01*
X418770Y37877D01*
X419198Y37629D01*
X419505Y37467D01*
X419907Y37278D01*
X420322Y37128D01*
X420801Y37027D01*
X421441Y36966D01*
X422380Y36930D01*
X423117Y36960D01*
X423652Y37032D01*
X424603Y37294D01*
X425234Y37572D01*
X425787Y37891D01*
X426117Y38108D01*
X426600Y38453D01*
X426993Y38754D01*
X427222Y38942D01*
X427372Y39072D01*
X427662Y39338D01*
X427904Y39583D01*
X428260Y39989D01*
X428554Y40383D01*
X428871Y40883D01*
X429105Y41318D01*
X429275Y41675D01*
X429705Y42832D01*
X429972Y43982D01*
X430057Y44616D01*
X430102Y45155D01*
X430127Y45647D01*
X430139Y46140D01*
X430141Y46386D01*
X430136Y46731D01*
X430105Y47320D01*
X430070Y47662D01*
X430007Y48100D01*
X429891Y48680D01*
X429768Y49158D01*
X429652Y49536D01*
X429463Y50044D01*
X429255Y50491D01*
X428952Y50998D01*
X428652Y51389D01*
X428415Y51641D01*
X428156Y51870D01*
X427876Y52073D01*
X427664Y52199D01*
X426881Y52494D01*
X426590Y52545D01*
X426196Y52569D01*
X425754Y52542D01*
X425174Y52427D01*
X424798Y52304D01*
X424174Y52006D01*
X423626Y51593D01*
X423383Y51351D01*
X423118Y51056D01*
X422794Y50682D01*
X422603Y50456D01*
X422417Y50226D01*
X422130Y49829D01*
X421903Y49451D01*
X421720Y49103D01*
X421501Y48661D01*
X421225Y48137D01*
X421005Y47753D01*
X420775Y47375D01*
X420590Y47085D01*
X420346Y46715D01*
X420037Y46271D01*
X419740Y45878D01*
X419458Y45536D01*
X419093Y45135D01*
X418779Y44822D01*
X418414Y44494D01*
X418070Y44218D01*
X417447Y43820D01*
X416984Y43611D01*
X416641Y43492D01*
X416145Y43354D01*
X415482Y43208D01*
X415106Y43132D01*
X414547Y43037D01*
X414180Y43018D01*
X413675Y43048D01*
X413225Y43110D01*
X412842Y43180D01*
X412498Y43250D01*
X412025Y43354D01*
X411810Y43405D01*
X412032Y43075D01*
X412273Y42612D01*
X412574Y42001D01*
X412789Y41523D01*
X412950Y41134D01*
X413063Y40840D01*
X413135Y40643D01*
X413302Y40146D01*
X413391Y39845D01*
X413568Y39136D01*
X413688Y38471D01*
X413757Y37904D01*
X413796Y37385D01*
X413813Y36654D01*
X413776Y35707D01*
X413718Y35073D01*
X413611Y34278D01*
X413478Y33537D01*
X413277Y32701D01*
X413068Y32042D01*
X412834Y31455D01*
X412555Y30897D01*
X412314Y30500D01*
X412043Y30124D01*
X411598Y29623D01*
X411334Y29372D01*
X410975Y29067D01*
X410767Y28906D01*
X410466Y28690D01*
X410201Y28512D01*
X409931Y28342D01*
X409610Y28150D01*
X409238Y27941D01*
X408956Y27791D01*
X408624Y27623D01*
X408193Y27421D01*
X407610Y27179D01*
X407068Y26988D01*
X406618Y26857D01*
X406316Y26783D01*
X405807Y26685D01*
X405343Y26625D01*
X404876Y26590D01*
X404510Y26579D01*
X403775Y26593D01*
X402934Y26661D01*
X402514Y26713D01*
X401835Y26817D01*
X401007Y26978D01*
X400496Y27100D01*
X400091Y27209D01*
X399590Y27361D01*
X398998Y27566D01*
X398417Y27799D01*
X397385Y28298D01*
X396489Y28834D01*
X395678Y29413D01*
X394951Y30022D01*
X394303Y30650D01*
X393696Y31326D01*
X393261Y31874D01*
X392881Y32403D01*
X392640Y32767D01*
X392352Y33232D01*
X391973Y33903D01*
X391769Y34295D01*
X391480Y34894D01*
X391276Y35351D01*
X390961Y36123D01*
X390676Y36906D01*
X390469Y37538D01*
X390166Y38595D01*
X390072Y38965D01*
X389683Y40849D01*
X389567Y41617D01*
X389453Y42613D01*
X389391Y43431D01*
X389358Y44395D01*
X389366Y45061D01*
X389455Y46157D01*
X389570Y46938D01*
X389636Y47313D01*
X389742Y47857D01*
X389873Y48201D01*
X390004Y47688D01*
X390043Y46739D01*
X390146Y45820D01*
X390347Y44779D01*
X390579Y43906D01*
X390811Y43176D01*
X391187Y42131D01*
X391571Y41169D01*
X391708Y40850D01*
X392300Y39586D01*
X392712Y38813D01*
X392999Y38320D01*
X393422Y37651D01*
X393877Y37001D01*
X394254Y36511D01*
X394889Y35775D01*
X395133Y35520D01*
X395578Y35093D01*
X396043Y34694D01*
X396319Y34479D01*
X396674Y34227D01*
X397040Y33993D01*
X397494Y33739D01*
X397805Y33586D01*
X398204Y33415D01*
X398530Y33293D01*
X398945Y33157D01*
X399367Y33042D01*
X399795Y32944D01*
X400228Y32864D01*
X400664Y32802D01*
X401102Y32755D01*
X401498Y32727D01*
X401982Y32708D01*
X402421Y32707D01*
X402771Y32717D01*
X403120Y32738D01*
X403554Y32778D01*
X403900Y32824D01*
X404415Y32914D01*
X405052Y33067D01*
X405388Y33168D01*
X405763Y33298D01*
X406175Y33463D01*
X406499Y33612D01*
X406816Y33775D01*
X407274Y34047D01*
X407707Y34352D01*
X407978Y34575D01*
X408295Y34874D01*
X408583Y35197D01*
X408911Y35652D01*
X409239Y36263D01*
X409372Y36586D01*
X409559Y37175D01*
X409639Y37523D01*
X409700Y37877D01*
X409755Y38373D01*
X409772Y38919D01*
X409741Y39461D01*
X409647Y40034D01*
X409469Y40621D01*
X409249Y41089D01*
X408988Y41482D01*
X408577Y41926D01*
X408130Y42283D01*
X407476Y42671D01*
X406773Y42974D01*
X406054Y43193D01*
X404946Y43372D01*
X404512Y43393D01*
X403983Y43383D01*
X402938Y43256D01*
X402454Y43123D01*
X402126Y42986D01*
X401762Y42754D01*
X401665Y42670D01*
X401546Y42546D01*
X401491Y42479D01*
X399263Y50028D01*
X399620Y49893D01*
X400056Y49745D01*
X400350Y49658D01*
X400870Y49528D01*
X401246Y49454D01*
X401699Y49389D01*
X402054Y49356D01*
X402511Y49336D01*
X403021Y49342D01*
X403428Y49364D01*
X403785Y49396D01*
X404166Y49444D01*
X404694Y49536D01*
X405289Y49679D01*
X405509Y49744D01*
X406013Y49919D01*
X406434Y50098D01*
X406708Y50232D01*
X407042Y50418D01*
X407429Y50671D01*
X407596Y50793D01*
X407856Y51007D01*
X408199Y51384D01*
X408377Y51715D01*
X408483Y52082D01*
X408531Y52575D01*
X408518Y52941D01*
X408494Y53172D01*
X408451Y53424D01*
X408382Y53694D01*
X408204Y54144D01*
X408052Y54412D01*
X407839Y54701D01*
X407548Y54986D01*
X407407Y55095D01*
X407127Y55272D01*
X406805Y55432D01*
X406443Y55573D01*
X406098Y55679D01*
X405849Y55741D01*
X405623Y55788D01*
X405016Y55869D01*
X404609Y55889D01*
X404406Y55889D01*
X403923Y55864D01*
X403519Y55816D01*
X402967Y55715D01*
X402372Y55564D01*
X401932Y55428D01*
X401164Y55145D01*
X400859Y55017D01*
X400303Y54761D01*
X399849Y54531D01*
X399226Y54183D01*
X398877Y53972D01*
X398598Y53795D01*
X398301Y53600D01*
X397923Y53341D01*
X397674Y53165D01*
X397343Y52927D01*
X397035Y52702D01*
X396831Y52551D01*
X396647Y52414D01*
X396606Y52384D01*
X393779Y58119D01*
X394332Y58593D01*
X395013Y59059D01*
X395647Y59471D01*
X396291Y59862D01*
X397151Y60327D01*
X397891Y60666D01*
X398529Y60912D01*
X399369Y61181D01*
X399940Y61332D01*
X400811Y61518D01*
X401595Y61646D01*
X402089Y61710D01*
X402686Y61770D01*
X403517Y61827D01*
X404181Y61842D01*
X405171Y61802D01*
D02*
G37*
G36*
X408660Y67660D02*
X408910Y66910D01*
X409360Y66110D01*
X409960Y65210D01*
X410610Y64410D01*
X411160Y63810D01*
X411860Y63210D01*
X412560Y62760D01*
X413410Y62360D01*
X414410Y62010D01*
X415460Y61760D01*
X416410Y61610D01*
X418210D01*
X419110Y61810D01*
X420260Y62160D01*
X421460Y62810D01*
X422310Y63310D01*
X423110Y63860D01*
X424110Y64660D01*
X424760Y65360D01*
X425310Y66010D01*
X429010Y61610D01*
X428410Y61060D01*
X426860Y59810D01*
X425760Y59110D01*
X424060Y58310D01*
X422060Y57610D01*
X420310Y57210D01*
X419010Y57060D01*
X417910Y57010D01*
X417010Y57060D01*
X415760Y57260D01*
X414660Y57610D01*
X413610Y58060D01*
X412910Y58510D01*
X412010Y59260D01*
X411110Y60060D01*
X410110Y61310D01*
X409260Y62510D01*
X408560Y64110D01*
X408110Y66010D01*
Y67560D01*
X408360Y68460D01*
X408660Y67660D01*
D02*
G37*
G36*
X420610Y66660D02*
X416660Y62710D01*
X412760Y66610D01*
X416460Y70810D01*
X420610Y66660D01*
D02*
G37*
D12*
X0Y450000D02*
X600000D01*
Y0D02*
Y450000D01*
X0Y0D02*
X600000D01*
X0D02*
Y450000D01*
D26*
X254370Y304800D02*
D03*
Y317500D02*
D03*
Y330200D02*
D03*
Y342900D02*
D03*
X205370Y304800D02*
D03*
Y317500D02*
D03*
Y330200D02*
D03*
X495670Y238760D02*
D03*
Y251460D02*
D03*
Y264160D02*
D03*
Y276860D02*
D03*
X446670Y238760D02*
D03*
Y251460D02*
D03*
Y264160D02*
D03*
D27*
X205370Y342900D02*
D03*
X446670Y276860D02*
D03*
D28*
X53340Y364600D02*
D03*
X544830Y415400D02*
D03*
D29*
X53340D02*
D03*
X544830Y364600D02*
D03*
X74930Y49530D02*
D03*
D30*
X125730D02*
D03*
D31*
X23660Y179070D02*
D03*
X123660D02*
D03*
X370370Y332740D02*
D03*
X470370D02*
D03*
X408940Y173520D02*
D03*
Y273520D02*
D03*
X175260Y143040D02*
D03*
Y243040D02*
D03*
Y285280D02*
D03*
Y385280D02*
D03*
X186220Y106680D02*
D03*
X286220D02*
D03*
Y66040D02*
D03*
X186220D02*
D03*
X339090Y352260D02*
D03*
Y252260D02*
D03*
X205270Y386080D02*
D03*
X305270D02*
D03*
X143510Y353530D02*
D03*
Y253530D02*
D03*
X68580Y209080D02*
D03*
Y309080D02*
D03*
X290830Y239560D02*
D03*
Y339560D02*
D03*
X529590Y172250D02*
D03*
Y272250D02*
D03*
X43980Y129540D02*
D03*
X143980D02*
D03*
X24130Y209080D02*
D03*
Y309080D02*
D03*
X286220Y25400D02*
D03*
X186220D02*
D03*
X568960Y298920D02*
D03*
Y198920D02*
D03*
X470370Y377190D02*
D03*
X370370D02*
D03*
X339090Y111290D02*
D03*
Y211290D02*
D03*
X109220Y206540D02*
D03*
Y306540D02*
D03*
X260820Y427990D02*
D03*
X160820D02*
D03*
D32*
X198120Y287020D02*
D03*
X447040Y219710D02*
D03*
M02*
