G04 Layer_Physical_Order=1*
G04 Layer_Color=6759642*
%FSLAX44Y44*%
%MOMM*%
G71*
G01*
G75*
%ADD10O,1.7000X0.6000*%
%ADD11R,1.7000X0.6000*%
%ADD12C,0.5000*%
%ADD13R,2.4000X2.4000*%
%ADD14C,2.4000*%
%ADD15R,2.4000X2.4000*%
%ADD16C,1.7000*%
%ADD17C,1.2700*%
G36*
X596900Y6350D02*
X6350D01*
Y444500D01*
X596900D01*
Y6350D01*
D02*
G37*
%LPC*%
G36*
X528320Y183218D02*
X526708Y183006D01*
X524032Y181897D01*
X524487Y181669D01*
X525215Y181380D01*
X525987Y181145D01*
X526801Y180965D01*
X527659Y180839D01*
X528320Y180786D01*
Y183218D01*
D02*
G37*
G36*
X530860D02*
Y173520D01*
X540558D01*
X540346Y175132D01*
X539233Y177818D01*
X537464Y180124D01*
X535158Y181893D01*
X532472Y183006D01*
X530860Y183218D01*
D02*
G37*
G36*
X528320Y179565D02*
X522275Y173520D01*
X528320D01*
Y179565D01*
D02*
G37*
G36*
X501170Y257108D02*
X490170D01*
X488008Y256679D01*
X486176Y255454D01*
X484952Y253622D01*
X484521Y251460D01*
X484952Y249298D01*
X486176Y247466D01*
X488008Y246241D01*
X490170Y245812D01*
X501170D01*
X502488Y246073D01*
X502747Y246105D01*
X502840Y246135D01*
X506129Y246321D01*
X514291D01*
X556453Y204160D01*
X556661Y203884D01*
X556935Y203443D01*
X557175Y202963D01*
X557383Y202439D01*
X557558Y201865D01*
X557696Y201240D01*
X557796Y200559D01*
X557855Y199823D01*
X557866Y199233D01*
X557825Y198920D01*
X558204Y196038D01*
X559317Y193352D01*
X561086Y191046D01*
X563392Y189277D01*
X566078Y188164D01*
X568960Y187785D01*
X571842Y188164D01*
X574528Y189277D01*
X576834Y191046D01*
X578603Y193352D01*
X579716Y196038D01*
X580095Y198920D01*
X579716Y201802D01*
X578603Y204488D01*
X576834Y206794D01*
X574528Y208563D01*
X571842Y209676D01*
X568960Y210055D01*
X568647Y210014D01*
X568057Y210025D01*
X567321Y210084D01*
X566640Y210184D01*
X566015Y210322D01*
X565441Y210497D01*
X564917Y210705D01*
X564437Y210945D01*
X563996Y211219D01*
X563720Y211427D01*
X520054Y255094D01*
X518386Y256208D01*
X516420Y256599D01*
X505191D01*
X504052Y256643D01*
X503186Y256724D01*
X502953Y256760D01*
X502852Y256782D01*
X502747Y256815D01*
X502487Y256847D01*
X501170Y257108D01*
D02*
G37*
G36*
X68580Y220215D02*
X65698Y219836D01*
X63012Y218723D01*
X60706Y216954D01*
X58937Y214648D01*
X57824Y211962D01*
X57445Y209080D01*
X57824Y206198D01*
X58937Y203512D01*
X60706Y201206D01*
X63012Y199437D01*
X65698Y198324D01*
X68580Y197945D01*
X71462Y198324D01*
X74148Y199437D01*
X76454Y201206D01*
X78223Y203512D01*
X79336Y206198D01*
X79715Y209080D01*
X79336Y211962D01*
X78223Y214648D01*
X76454Y216954D01*
X74148Y218723D01*
X71462Y219836D01*
X68580Y220215D01*
D02*
G37*
G36*
X24130D02*
X21248Y219836D01*
X18562Y218723D01*
X16256Y216954D01*
X14487Y214648D01*
X13374Y211962D01*
X12995Y209080D01*
X13374Y206198D01*
X14487Y203512D01*
X16256Y201206D01*
X18562Y199437D01*
X21248Y198324D01*
X24130Y197945D01*
X27012Y198324D01*
X29698Y199437D01*
X32004Y201206D01*
X33773Y203512D01*
X34886Y206198D01*
X35265Y209080D01*
X34886Y211962D01*
X33773Y214648D01*
X32004Y216954D01*
X29698Y218723D01*
X27012Y219836D01*
X24130Y220215D01*
D02*
G37*
G36*
X109220Y217675D02*
X106338Y217296D01*
X103652Y216183D01*
X101346Y214414D01*
X99577Y212108D01*
X98464Y209422D01*
X98085Y206540D01*
X98464Y203658D01*
X99577Y200972D01*
X101346Y198666D01*
X103652Y196897D01*
X106338Y195784D01*
X109220Y195405D01*
X112102Y195784D01*
X114788Y196897D01*
X117094Y198666D01*
X118863Y200972D01*
X119976Y203658D01*
X120355Y206540D01*
X119976Y209422D01*
X118863Y212108D01*
X117094Y214414D01*
X114788Y216183D01*
X112102Y217296D01*
X109220Y217675D01*
D02*
G37*
G36*
X519943Y177808D02*
X518834Y175132D01*
X518622Y173520D01*
X521054D01*
X521001Y174181D01*
X520875Y175039D01*
X520695Y175853D01*
X520460Y176625D01*
X520171Y177353D01*
X519943Y177808D01*
D02*
G37*
G36*
X528320Y170980D02*
X518622D01*
X518834Y169368D01*
X519947Y166682D01*
X521716Y164376D01*
X524022Y162607D01*
X526708Y161494D01*
X528320Y161282D01*
Y170980D01*
D02*
G37*
G36*
X45250Y140508D02*
Y138076D01*
X45911Y138129D01*
X46769Y138255D01*
X47583Y138435D01*
X48355Y138670D01*
X49083Y138959D01*
X49538Y139187D01*
X46862Y140296D01*
X45250Y140508D01*
D02*
G37*
G36*
X175260Y154175D02*
X172378Y153796D01*
X169692Y152683D01*
X167386Y150914D01*
X165617Y148608D01*
X164504Y145922D01*
X164125Y143040D01*
X164504Y140158D01*
X165617Y137472D01*
X167386Y135166D01*
X169692Y133397D01*
X172378Y132284D01*
X175260Y131905D01*
X178142Y132284D01*
X180828Y133397D01*
X183134Y135166D01*
X184903Y137472D01*
X186016Y140158D01*
X186395Y143040D01*
X186016Y145922D01*
X184903Y148608D01*
X183134Y150914D01*
X180828Y152683D01*
X178142Y153796D01*
X175260Y154175D01*
D02*
G37*
G36*
X540558Y170980D02*
X530860D01*
Y161282D01*
X532472Y161494D01*
X535158Y162607D01*
X537464Y164376D01*
X539233Y166682D01*
X540346Y169368D01*
X540558Y170980D01*
D02*
G37*
G36*
X123660Y190205D02*
X120778Y189826D01*
X118092Y188713D01*
X115786Y186944D01*
X114017Y184638D01*
X112904Y181952D01*
X112525Y179070D01*
X112904Y176188D01*
X114017Y173502D01*
X115786Y171196D01*
X118092Y169427D01*
X120778Y168314D01*
X123660Y167935D01*
X126542Y168314D01*
X129228Y169427D01*
X131534Y171196D01*
X133303Y173502D01*
X134416Y176188D01*
X134795Y179070D01*
X134416Y181952D01*
X133303Y184638D01*
X131534Y186944D01*
X129228Y188713D01*
X126542Y189826D01*
X123660Y190205D01*
D02*
G37*
G36*
X23660D02*
X20778Y189826D01*
X18092Y188713D01*
X15786Y186944D01*
X14017Y184638D01*
X12904Y181952D01*
X12525Y179070D01*
X12904Y176188D01*
X14017Y173502D01*
X15786Y171196D01*
X18092Y169427D01*
X20778Y168314D01*
X23660Y167935D01*
X26542Y168314D01*
X29228Y169427D01*
X31534Y171196D01*
X33303Y173502D01*
X34416Y176188D01*
X34795Y179070D01*
X34416Y181952D01*
X33303Y184638D01*
X31534Y186944D01*
X29228Y188713D01*
X26542Y189826D01*
X23660Y190205D01*
D02*
G37*
G36*
X408940Y184655D02*
X406058Y184276D01*
X403372Y183163D01*
X401066Y181394D01*
X399297Y179088D01*
X398184Y176402D01*
X397805Y173520D01*
X398184Y170638D01*
X399297Y167952D01*
X401066Y165646D01*
X403372Y163877D01*
X406058Y162764D01*
X408940Y162385D01*
X411822Y162764D01*
X414508Y163877D01*
X416814Y165646D01*
X418583Y167952D01*
X419696Y170638D01*
X420075Y173520D01*
X419696Y176402D01*
X418583Y179088D01*
X416814Y181394D01*
X414508Y183163D01*
X411822Y184276D01*
X408940Y184655D01*
D02*
G37*
G36*
X445400Y244408D02*
X441170D01*
X439008Y243979D01*
X437176Y242754D01*
X435951Y240922D01*
X435774Y240030D01*
X445400D01*
Y244408D01*
D02*
G37*
G36*
X501170D02*
X490170D01*
X488008Y243979D01*
X486176Y242754D01*
X484952Y240922D01*
X484521Y238760D01*
X484952Y236598D01*
X486176Y234766D01*
X488008Y233541D01*
X490170Y233111D01*
X501170D01*
X503332Y233541D01*
X505164Y234766D01*
X506389Y236598D01*
X506819Y238760D01*
X506389Y240922D01*
X505164Y242754D01*
X503332Y243979D01*
X501170Y244408D01*
D02*
G37*
G36*
X457566Y237490D02*
X447940D01*
Y235795D01*
X452040D01*
X451565Y235745D01*
X451140Y235594D01*
X450765Y235343D01*
X450440Y234991D01*
X450165Y234538D01*
X449940Y233984D01*
X449765Y233330D01*
X449729Y233111D01*
X452170D01*
X454332Y233541D01*
X456164Y234766D01*
X457388Y236598D01*
X457566Y237490D01*
D02*
G37*
G36*
X452170Y244408D02*
X447940D01*
Y240030D01*
X457566D01*
X457388Y240922D01*
X456164Y242754D01*
X454332Y243979D01*
X452170Y244408D01*
D02*
G37*
G36*
X339090Y263395D02*
X336208Y263016D01*
X333522Y261903D01*
X331216Y260134D01*
X329447Y257828D01*
X328334Y255142D01*
X327955Y252260D01*
X328334Y249378D01*
X329447Y246692D01*
X331216Y244386D01*
X333522Y242617D01*
X336208Y241504D01*
X339090Y241125D01*
X341972Y241504D01*
X344658Y242617D01*
X345991Y243640D01*
X346195Y243746D01*
X346898Y244311D01*
X347537Y244772D01*
X348159Y245169D01*
X348763Y245504D01*
X349348Y245779D01*
X349914Y245998D01*
X350462Y246163D01*
X350994Y246278D01*
X351326Y246321D01*
X437149D01*
X438288Y246277D01*
X439155Y246196D01*
X439387Y246160D01*
X439488Y246138D01*
X439593Y246105D01*
X439852Y246073D01*
X441170Y245812D01*
X452170D01*
X454332Y246241D01*
X456164Y247466D01*
X457388Y249298D01*
X457818Y251460D01*
X457388Y253622D01*
X456164Y255454D01*
X454332Y256679D01*
X452170Y257108D01*
X441170D01*
X439852Y256847D01*
X439593Y256815D01*
X439500Y256785D01*
X436211Y256599D01*
X351859D01*
X351513Y256649D01*
X351037Y256769D01*
X350568Y256938D01*
X350102Y257160D01*
X349632Y257440D01*
X349157Y257784D01*
X348677Y258197D01*
X348192Y258683D01*
X347651Y259308D01*
X347519Y259410D01*
X346964Y260134D01*
X344658Y261903D01*
X341972Y263016D01*
X339090Y263395D01*
D02*
G37*
G36*
X292100Y250528D02*
Y240830D01*
X296900D01*
Y245510D01*
X297581Y244855D01*
X298269Y244268D01*
X298964Y243750D01*
X299668Y243302D01*
X300380Y242922D01*
X301099Y242612D01*
X301582Y242451D01*
X300473Y245128D01*
X298704Y247434D01*
X296398Y249203D01*
X293712Y250316D01*
X292100Y250528D01*
D02*
G37*
G36*
X289560D02*
X287948Y250316D01*
X285262Y249203D01*
X282956Y247434D01*
X281187Y245128D01*
X280074Y242442D01*
X279862Y240830D01*
X289560D01*
Y250528D01*
D02*
G37*
G36*
X445400Y237490D02*
X435774D01*
X435951Y236598D01*
X437176Y234766D01*
X439008Y233541D01*
X441170Y233111D01*
X444351D01*
X444315Y233330D01*
X444140Y233984D01*
X443915Y234538D01*
X443640Y234991D01*
X443315Y235343D01*
X442940Y235594D01*
X442515Y235745D01*
X442040Y235795D01*
X445400D01*
Y237490D01*
D02*
G37*
G36*
X445770Y218440D02*
X442505D01*
Y215265D01*
X442111Y215634D01*
X441691Y215965D01*
X441244Y216257D01*
X440772Y216510D01*
X440274Y216724D01*
X439750Y216899D01*
X439199Y217035D01*
X438623Y217132D01*
X438479Y217146D01*
X439275Y215227D01*
X440700Y213370D01*
X442557Y211945D01*
X444719Y211049D01*
X445770Y210910D01*
Y218440D01*
D02*
G37*
G36*
X451575D02*
X448310D01*
Y210910D01*
X449361Y211049D01*
X451523Y211945D01*
X453380Y213370D01*
X454805Y215227D01*
X455601Y217146D01*
X455457Y217132D01*
X454881Y217035D01*
X454330Y216899D01*
X453806Y216724D01*
X453308Y216510D01*
X452836Y216257D01*
X452389Y215965D01*
X451969Y215634D01*
X451575Y215265D01*
Y218440D01*
D02*
G37*
G36*
X339090Y222425D02*
X336208Y222046D01*
X333522Y220933D01*
X331216Y219164D01*
X329447Y216858D01*
X328334Y214172D01*
X327955Y211290D01*
X328334Y208408D01*
X329447Y205722D01*
X331216Y203416D01*
X333522Y201647D01*
X336208Y200534D01*
X339090Y200155D01*
X341972Y200534D01*
X344658Y201647D01*
X346964Y203416D01*
X348733Y205722D01*
X349846Y208408D01*
X350225Y211290D01*
X349846Y214172D01*
X348733Y216858D01*
X346964Y219164D01*
X344658Y220933D01*
X341972Y222046D01*
X339090Y222425D01*
D02*
G37*
G36*
X444476Y228270D02*
X442557Y227475D01*
X440700Y226050D01*
X439275Y224193D01*
X438479Y222274D01*
X438623Y222288D01*
X439199Y222385D01*
X439750Y222521D01*
X440274Y222696D01*
X440772Y222910D01*
X441244Y223163D01*
X441691Y223455D01*
X442111Y223785D01*
X442505Y224155D01*
Y220980D01*
X445770D01*
Y224245D01*
X442595D01*
X442965Y224639D01*
X443295Y225059D01*
X443587Y225506D01*
X443840Y225978D01*
X444054Y226476D01*
X444229Y227000D01*
X444365Y227551D01*
X444462Y228127D01*
X444476Y228270D01*
D02*
G37*
G36*
X296900Y238290D02*
X292100D01*
Y228592D01*
X293712Y228804D01*
X296398Y229917D01*
X298704Y231686D01*
X300473Y233992D01*
X301582Y236668D01*
X301099Y236508D01*
X300380Y236197D01*
X299668Y235818D01*
X298964Y235369D01*
X298269Y234852D01*
X297581Y234265D01*
X296900Y233610D01*
Y238290D01*
D02*
G37*
G36*
X289560D02*
X279862D01*
X280074Y236678D01*
X281187Y233992D01*
X282956Y231686D01*
X285262Y229917D01*
X287948Y228804D01*
X289560Y228592D01*
Y238290D01*
D02*
G37*
G36*
X449604Y228270D02*
X449618Y228127D01*
X449715Y227551D01*
X449851Y227000D01*
X450026Y226476D01*
X450240Y225978D01*
X450493Y225506D01*
X450785Y225059D01*
X451115Y224639D01*
X451485Y224245D01*
X448310D01*
Y220980D01*
X451575D01*
Y224155D01*
X451969Y223785D01*
X452389Y223455D01*
X452836Y223163D01*
X453308Y222910D01*
X453806Y222696D01*
X454330Y222521D01*
X454881Y222385D01*
X455457Y222288D01*
X455601Y222274D01*
X454805Y224193D01*
X453380Y226050D01*
X451523Y227475D01*
X449604Y228270D01*
D02*
G37*
G36*
X85779Y48260D02*
X76200D01*
Y38681D01*
X85779Y48260D01*
D02*
G37*
G36*
X76200Y37494D02*
Y35032D01*
X78726Y35364D01*
X82109Y36766D01*
X82056Y36782D01*
X80856Y37065D01*
X79555Y37281D01*
X78154Y37431D01*
X76200Y37494D01*
D02*
G37*
G36*
X73660Y48260D02*
X60432D01*
X60764Y45734D01*
X62229Y42197D01*
X64560Y39160D01*
X67597Y36829D01*
X71134Y35364D01*
X73660Y35032D01*
Y48260D01*
D02*
G37*
G36*
X89428D02*
X86941D01*
X86946Y47808D01*
X87179Y44905D01*
X87395Y43604D01*
X87678Y42404D01*
X87694Y42351D01*
X89096Y45734D01*
X89428Y48260D01*
D02*
G37*
G36*
X76200Y64028D02*
Y50800D01*
X89428D01*
X89096Y53326D01*
X87631Y56863D01*
X85300Y59900D01*
X82263Y62231D01*
X78726Y63696D01*
X76200Y64028D01*
D02*
G37*
G36*
X73660Y60379D02*
X64081Y50800D01*
X73660D01*
Y60379D01*
D02*
G37*
G36*
X62166Y56709D02*
X60764Y53326D01*
X60432Y50800D01*
X62919D01*
X62914Y51252D01*
X62681Y54155D01*
X62465Y55456D01*
X62182Y56656D01*
X62166Y56709D01*
D02*
G37*
G36*
X140270Y64070D02*
X111190D01*
Y34990D01*
X140270D01*
Y64070D01*
D02*
G37*
G36*
X297188Y24130D02*
X287490D01*
Y14432D01*
X289102Y14644D01*
X291788Y15757D01*
X294094Y17526D01*
X295863Y19832D01*
X296976Y22518D01*
X297188Y24130D01*
D02*
G37*
G36*
X284950Y16864D02*
X284289Y16811D01*
X283431Y16685D01*
X282617Y16505D01*
X281845Y16270D01*
X281117Y15981D01*
X280662Y15753D01*
X283338Y14644D01*
X284950Y14432D01*
Y16864D01*
D02*
G37*
G36*
X186220Y36535D02*
X183338Y36156D01*
X180652Y35043D01*
X178346Y33274D01*
X176577Y30968D01*
X175464Y28282D01*
X175085Y25400D01*
X175464Y22518D01*
X176577Y19832D01*
X178346Y17526D01*
X180652Y15757D01*
X183338Y14644D01*
X186220Y14265D01*
X189102Y14644D01*
X191788Y15757D01*
X194094Y17526D01*
X195863Y19832D01*
X196976Y22518D01*
X197355Y25400D01*
X196976Y28282D01*
X195863Y30968D01*
X194094Y33274D01*
X191788Y35043D01*
X189102Y36156D01*
X186220Y36535D01*
D02*
G37*
G36*
X284950Y24130D02*
X278905D01*
X284950Y18085D01*
Y24130D01*
D02*
G37*
G36*
X287490Y36368D02*
Y26670D01*
X297188D01*
X296976Y28282D01*
X295863Y30968D01*
X294094Y33274D01*
X291788Y35043D01*
X289102Y36156D01*
X287490Y36368D01*
D02*
G37*
G36*
X284950D02*
X283338Y36156D01*
X280652Y35043D01*
X278346Y33274D01*
X276577Y30968D01*
X275464Y28282D01*
X275252Y26670D01*
X284950D01*
Y36368D01*
D02*
G37*
G36*
X277684Y24130D02*
X275252D01*
X275464Y22518D01*
X276573Y19842D01*
X276801Y20297D01*
X277090Y21025D01*
X277325Y21797D01*
X277505Y22611D01*
X277631Y23469D01*
X277684Y24130D01*
D02*
G37*
G36*
X42710Y128270D02*
X33012D01*
X33224Y126658D01*
X34337Y123972D01*
X36106Y121666D01*
X38412Y119897D01*
X41089Y118788D01*
X40928Y119271D01*
X40617Y119991D01*
X40238Y120702D01*
X39790Y121406D01*
X39272Y122101D01*
X38686Y122789D01*
X38030Y123470D01*
X42710D01*
Y128270D01*
D02*
G37*
G36*
X143980Y140675D02*
X141098Y140296D01*
X138412Y139183D01*
X136106Y137414D01*
X134337Y135108D01*
X133224Y132422D01*
X132845Y129540D01*
X133224Y126658D01*
X134337Y123972D01*
X136106Y121666D01*
X138412Y119897D01*
X141098Y118784D01*
X143980Y118405D01*
X146862Y118784D01*
X149548Y119897D01*
X151854Y121666D01*
X153623Y123972D01*
X154736Y126658D01*
X155115Y129540D01*
X154736Y132422D01*
X153623Y135108D01*
X151854Y137414D01*
X149548Y139183D01*
X146862Y140296D01*
X143980Y140675D01*
D02*
G37*
G36*
X287490Y117648D02*
Y107950D01*
X292290D01*
Y112630D01*
X292971Y111974D01*
X293659Y111388D01*
X294354Y110871D01*
X295058Y110422D01*
X295770Y110042D01*
X296489Y109732D01*
X296972Y109572D01*
X295863Y112248D01*
X294094Y114554D01*
X291788Y116323D01*
X289102Y117436D01*
X287490Y117648D01*
D02*
G37*
G36*
X54948Y128270D02*
X45250D01*
Y123470D01*
X49930D01*
X49275Y122789D01*
X48688Y122101D01*
X48170Y121406D01*
X47722Y120702D01*
X47343Y119991D01*
X47032Y119271D01*
X46872Y118788D01*
X49548Y119897D01*
X51854Y121666D01*
X53623Y123972D01*
X54736Y126658D01*
X54948Y128270D01*
D02*
G37*
G36*
X53627Y135098D02*
X53399Y134643D01*
X53110Y133915D01*
X52875Y133143D01*
X52695Y132329D01*
X52569Y131471D01*
X52516Y130810D01*
X54948D01*
X54736Y132422D01*
X53627Y135098D01*
D02*
G37*
G36*
X45250Y136855D02*
Y130810D01*
X51295D01*
X45250Y136855D01*
D02*
G37*
G36*
X42710Y140508D02*
X41098Y140296D01*
X38412Y139183D01*
X36106Y137414D01*
X34337Y135108D01*
X33224Y132422D01*
X33012Y130810D01*
X42710D01*
Y140508D01*
D02*
G37*
G36*
X284950Y117648D02*
X283338Y117436D01*
X280652Y116323D01*
X278346Y114554D01*
X276577Y112248D01*
X275464Y109562D01*
X275252Y107950D01*
X284950D01*
Y117648D01*
D02*
G37*
G36*
X73660Y64028D02*
X71134Y63696D01*
X67751Y62294D01*
X67804Y62278D01*
X69004Y61995D01*
X70305Y61779D01*
X71706Y61629D01*
X73660Y61566D01*
Y64028D01*
D02*
G37*
G36*
X286220Y77175D02*
X283338Y76796D01*
X280652Y75683D01*
X278346Y73914D01*
X276577Y71608D01*
X275464Y68922D01*
X275085Y66040D01*
X275464Y63158D01*
X276577Y60472D01*
X278346Y58166D01*
X280652Y56397D01*
X283338Y55284D01*
X286220Y54905D01*
X289102Y55284D01*
X291788Y56397D01*
X294094Y58166D01*
X295863Y60472D01*
X296976Y63158D01*
X297355Y66040D01*
X296976Y68922D01*
X295863Y71608D01*
X294094Y73914D01*
X291788Y75683D01*
X289102Y76796D01*
X286220Y77175D01*
D02*
G37*
G36*
X186220D02*
X183338Y76796D01*
X180652Y75683D01*
X178346Y73914D01*
X176577Y71608D01*
X175464Y68922D01*
X175085Y66040D01*
X175464Y63158D01*
X176577Y60472D01*
X178346Y58166D01*
X180652Y56397D01*
X183338Y55284D01*
X186220Y54905D01*
X189102Y55284D01*
X191788Y56397D01*
X194094Y58166D01*
X195863Y60472D01*
X196976Y63158D01*
X197355Y66040D01*
X196976Y68922D01*
X195863Y71608D01*
X194094Y73914D01*
X191788Y75683D01*
X189102Y76796D01*
X186220Y77175D01*
D02*
G37*
G36*
X416460Y73450D02*
X416379Y73434D01*
X416296Y73445D01*
X415886Y73335D01*
X415469Y73253D01*
X415400Y73207D01*
X415320Y73185D01*
X414982Y72927D01*
X414629Y72691D01*
X414583Y72622D01*
X414517Y72572D01*
X411937Y69644D01*
X411450Y69623D01*
X411086Y69693D01*
X410493Y69926D01*
X410414Y70017D01*
X410252Y70278D01*
X410088Y70396D01*
X409955Y70550D01*
X409681Y70689D01*
X409432Y70868D01*
X409234Y70914D01*
X409053Y71005D01*
X408747Y71028D01*
X408448Y71098D01*
X408248Y71066D01*
X408046Y71081D01*
X407754Y70985D01*
X407451Y70935D01*
X407278Y70828D01*
X407086Y70765D01*
X406853Y70564D01*
X406592Y70402D01*
X406474Y70238D01*
X406320Y70105D01*
X406182Y69831D01*
X406002Y69582D01*
X405956Y69384D01*
X405865Y69203D01*
X405615Y68303D01*
X405589Y67954D01*
X405520Y67610D01*
Y66060D01*
X405579Y65764D01*
X405582Y65672D01*
X405544Y65516D01*
X405429Y65314D01*
X404520Y64470D01*
X404287Y64480D01*
X404203Y64467D01*
X404120Y64481D01*
X403455Y64465D01*
X403399Y64453D01*
X403342Y64460D01*
X402511Y64404D01*
X402468Y64393D01*
X402424Y64397D01*
X401828Y64336D01*
X401794Y64326D01*
X401759Y64328D01*
X401265Y64265D01*
X401222Y64251D01*
X401177Y64252D01*
X400393Y64124D01*
X400333Y64102D01*
X400269Y64101D01*
X399398Y63914D01*
X399342Y63890D01*
X399280Y63886D01*
X398708Y63735D01*
X398647Y63706D01*
X398580Y63698D01*
X397740Y63429D01*
X397672Y63391D01*
X397594Y63378D01*
X396956Y63131D01*
X396889Y63088D01*
X396811Y63070D01*
X396072Y62731D01*
X396002Y62680D01*
X395920Y62655D01*
X395060Y62190D01*
X395009Y62148D01*
X394948Y62126D01*
X394304Y61736D01*
X394273Y61707D01*
X394235Y61692D01*
X393601Y61279D01*
X393580Y61259D01*
X393553Y61247D01*
X392871Y60782D01*
X392770Y60679D01*
X392645Y60608D01*
X392092Y60134D01*
X391979Y59989D01*
X391832Y59877D01*
X391670Y59595D01*
X391469Y59339D01*
X391419Y59162D01*
X391327Y59002D01*
X391284Y58680D01*
X391197Y58366D01*
X391219Y58183D01*
X391195Y58000D01*
X391279Y57686D01*
X391318Y57363D01*
X391409Y57202D01*
X391456Y57024D01*
X394283Y51289D01*
X394425Y51103D01*
X394526Y50891D01*
X394730Y50706D01*
X394898Y50487D01*
X395101Y50370D01*
X395274Y50213D01*
X395534Y50120D01*
X395773Y49982D01*
X396005Y49951D01*
X396226Y49872D01*
X396501Y49886D01*
X396708Y49858D01*
X396749Y49678D01*
X396779Y49345D01*
X399007Y41796D01*
X399130Y41562D01*
X399207Y41308D01*
X399363Y41118D01*
X399477Y40902D01*
X399680Y40732D01*
X399849Y40527D01*
X400065Y40412D01*
X400253Y40255D01*
X400506Y40176D01*
X400740Y40051D01*
X400984Y40027D01*
X401218Y39954D01*
X401482Y39978D01*
X401746Y39952D01*
X401980Y40023D01*
X402224Y40045D01*
X402459Y40169D01*
X402713Y40246D01*
X402902Y40401D01*
X403119Y40515D01*
X403265Y40691D01*
X403319Y40725D01*
X403438Y40757D01*
X404164Y40846D01*
X404475Y40852D01*
X404677Y40842D01*
X405467Y40714D01*
X405881Y40588D01*
X406298Y40409D01*
X406653Y40198D01*
X406809Y40074D01*
X406947Y39925D01*
X406987Y39864D01*
X407045Y39740D01*
X407118Y39497D01*
X407163Y39226D01*
X407180Y38935D01*
X407169Y38605D01*
X407135Y38290D01*
X407099Y38086D01*
X407058Y37908D01*
X406937Y37523D01*
X406895Y37423D01*
X406709Y37076D01*
X406561Y36870D01*
X406436Y36731D01*
X406266Y36570D01*
X406137Y36464D01*
X405864Y36271D01*
X405561Y36091D01*
X405366Y35991D01*
X405152Y35893D01*
X404857Y35775D01*
X404593Y35683D01*
X404378Y35619D01*
X403888Y35501D01*
X403506Y35434D01*
X403265Y35402D01*
X402923Y35370D01*
X402658Y35355D01*
X402388Y35347D01*
X402035Y35348D01*
X401641Y35363D01*
X401331Y35385D01*
X400985Y35422D01*
X400646Y35471D01*
X400317Y35531D01*
X399997Y35604D01*
X399689Y35689D01*
X399387Y35787D01*
X399171Y35868D01*
X398886Y35991D01*
X398697Y36084D01*
X398371Y36266D01*
X398122Y36425D01*
X397865Y36608D01*
X397681Y36750D01*
X397319Y37061D01*
X396967Y37399D01*
X396806Y37568D01*
X396262Y38198D01*
X395965Y38584D01*
X395578Y39137D01*
X395214Y39713D01*
X394975Y40123D01*
X394617Y40795D01*
X394071Y41959D01*
X393965Y42208D01*
X393609Y43100D01*
X393264Y44058D01*
X393066Y44682D01*
X392873Y45407D01*
X392709Y46261D01*
X392627Y46987D01*
X392592Y47844D01*
X392528Y48109D01*
X392513Y48380D01*
X392382Y48893D01*
X392285Y49095D01*
X392235Y49313D01*
X392069Y49546D01*
X391945Y49804D01*
X391778Y49954D01*
X391648Y50136D01*
X391406Y50288D01*
X391193Y50479D01*
X390982Y50553D01*
X390792Y50672D01*
X390509Y50720D01*
X390239Y50815D01*
X390016Y50802D01*
X389795Y50840D01*
X389516Y50775D01*
X389230Y50760D01*
X389029Y50663D01*
X388811Y50613D01*
X388577Y50447D01*
X388319Y50323D01*
X388170Y50157D01*
X387988Y50027D01*
X387836Y49784D01*
X387645Y49571D01*
X387570Y49360D01*
X387452Y49170D01*
X387321Y48826D01*
X387284Y48608D01*
X387200Y48402D01*
X387094Y47857D01*
X387094Y47834D01*
X387086Y47813D01*
X387020Y47438D01*
X387020Y47400D01*
X387008Y47364D01*
X386893Y46583D01*
X386897Y46498D01*
X386874Y46416D01*
X386785Y45320D01*
X386796Y45231D01*
X386777Y45143D01*
X386769Y44477D01*
X386780Y44417D01*
X386770Y44357D01*
X386803Y43393D01*
X386815Y43340D01*
X386809Y43286D01*
X386870Y42468D01*
X386884Y42419D01*
X386880Y42368D01*
X386994Y41371D01*
X387009Y41326D01*
X387007Y41279D01*
X387123Y40512D01*
X387147Y40446D01*
X387147Y40376D01*
X387536Y38492D01*
X387559Y38437D01*
X387562Y38377D01*
X387656Y38007D01*
X387673Y37971D01*
X387677Y37932D01*
X387980Y36874D01*
X388002Y36831D01*
X388008Y36783D01*
X388214Y36151D01*
X388236Y36114D01*
X388242Y36071D01*
X388527Y35288D01*
X388554Y35244D01*
X388563Y35195D01*
X388878Y34422D01*
X388902Y34387D01*
X388911Y34345D01*
X389115Y33888D01*
X389138Y33856D01*
X389148Y33818D01*
X389437Y33219D01*
X389461Y33188D01*
X389472Y33150D01*
X389676Y32758D01*
X389704Y32723D01*
X389719Y32679D01*
X390098Y32009D01*
X390132Y31969D01*
X390150Y31920D01*
X390438Y31454D01*
X390466Y31424D01*
X390482Y31386D01*
X390723Y31022D01*
X390757Y30988D01*
X390777Y30944D01*
X391156Y30415D01*
X391203Y30372D01*
X391231Y30315D01*
X391667Y29766D01*
X391728Y29714D01*
X391769Y29645D01*
X392376Y28969D01*
X392449Y28914D01*
X392501Y28839D01*
X393149Y28212D01*
X393229Y28160D01*
X393288Y28087D01*
X394016Y27478D01*
X394104Y27429D01*
X394173Y27356D01*
X394983Y26777D01*
X395080Y26733D01*
X395160Y26662D01*
X396056Y26126D01*
X396165Y26087D01*
X396257Y26017D01*
X397289Y25518D01*
X397378Y25495D01*
X397455Y25445D01*
X398036Y25212D01*
X398096Y25201D01*
X398148Y25170D01*
X398740Y24964D01*
X398793Y24957D01*
X398839Y24932D01*
X399340Y24780D01*
X399381Y24776D01*
X399418Y24758D01*
X399823Y24649D01*
X399862Y24647D01*
X399897Y24630D01*
X400409Y24509D01*
X400461Y24507D01*
X400510Y24487D01*
X401337Y24325D01*
X401392Y24325D01*
X401443Y24307D01*
X402122Y24203D01*
X402161Y24204D01*
X402199Y24192D01*
X402619Y24141D01*
X402672Y24145D01*
X402724Y24130D01*
X403565Y24062D01*
X403646Y24071D01*
X403725Y24053D01*
X404460Y24039D01*
X404526Y24051D01*
X404592Y24040D01*
X404957Y24051D01*
X405013Y24064D01*
X405070Y24058D01*
X405537Y24093D01*
X405606Y24112D01*
X405676Y24107D01*
X406139Y24167D01*
X406216Y24193D01*
X406296Y24192D01*
X406805Y24290D01*
X406866Y24315D01*
X406932Y24318D01*
X407235Y24392D01*
X407287Y24416D01*
X407345Y24421D01*
X407794Y24553D01*
X407857Y24585D01*
X407926Y24595D01*
X408469Y24786D01*
X408531Y24823D01*
X408602Y24837D01*
X409185Y25079D01*
X409234Y25111D01*
X409291Y25126D01*
X409722Y25327D01*
X409754Y25351D01*
X409793Y25362D01*
X410124Y25529D01*
X410147Y25547D01*
X410176Y25556D01*
X410457Y25707D01*
X410480Y25725D01*
X410507Y25734D01*
X410879Y25943D01*
X410905Y25965D01*
X410936Y25976D01*
X411257Y26167D01*
X411282Y26190D01*
X411314Y26202D01*
X411584Y26373D01*
X411610Y26397D01*
X411643Y26411D01*
X411908Y26589D01*
X411939Y26620D01*
X411979Y26638D01*
X412280Y26854D01*
X412311Y26887D01*
X412351Y26908D01*
X412560Y27069D01*
X412598Y27113D01*
X412650Y27142D01*
X413010Y27447D01*
X413057Y27506D01*
X413121Y27547D01*
X413384Y27798D01*
X413447Y27887D01*
X413534Y27953D01*
X413979Y28454D01*
X414046Y28568D01*
X414143Y28658D01*
X414414Y29034D01*
X414457Y29128D01*
X414527Y29205D01*
X414769Y29602D01*
X414806Y29704D01*
X414873Y29790D01*
X414962Y29969D01*
X415329Y30203D01*
X416061Y30319D01*
X416089Y30317D01*
X416475Y30214D01*
X416565Y30123D01*
X416701Y30033D01*
X416807Y29910D01*
X417846Y29101D01*
X417955Y29046D01*
X418043Y28962D01*
X418566Y28628D01*
X418756Y28553D01*
X418924Y28436D01*
X419354Y28249D01*
X419366Y28246D01*
X419377Y28239D01*
X419733Y28088D01*
X419835Y28066D01*
X419926Y28015D01*
X420657Y27771D01*
X420763Y27757D01*
X420859Y27712D01*
X421232Y27620D01*
X421313Y27617D01*
X421388Y27587D01*
X421840Y27505D01*
X421961Y27507D01*
X422077Y27473D01*
X422836Y27407D01*
X422953Y27420D01*
X423068Y27397D01*
X423448Y27398D01*
X423535Y27415D01*
X423622Y27404D01*
X424076Y27436D01*
X424171Y27462D01*
X424269Y27457D01*
X424795Y27533D01*
X424880Y27564D01*
X424970Y27565D01*
X425417Y27662D01*
X425476Y27688D01*
X425540Y27692D01*
X425835Y27771D01*
X425883Y27795D01*
X425937Y27801D01*
X426302Y27915D01*
X426355Y27945D01*
X426416Y27954D01*
X426848Y28112D01*
X426900Y28144D01*
X426960Y28156D01*
X427385Y28334D01*
X427505Y28414D01*
X427643Y28459D01*
X429385Y29426D01*
X429504Y29527D01*
X429646Y29592D01*
X430204Y29996D01*
X430253Y30049D01*
X430318Y30083D01*
X430733Y30420D01*
X430789Y30487D01*
X430863Y30533D01*
X431534Y31156D01*
X431580Y31220D01*
X431645Y31265D01*
X431908Y31541D01*
X431944Y31597D01*
X431996Y31638D01*
X432444Y32157D01*
X432472Y32207D01*
X432516Y32244D01*
X432658Y32424D01*
X432683Y32474D01*
X432724Y32512D01*
X433126Y33068D01*
X433154Y33130D01*
X433202Y33180D01*
X433450Y33564D01*
X433471Y33618D01*
X433510Y33661D01*
X433779Y34122D01*
X433795Y34167D01*
X433826Y34205D01*
X433970Y34474D01*
X433980Y34506D01*
X434001Y34534D01*
X434139Y34806D01*
X434149Y34843D01*
X434171Y34874D01*
X434333Y35220D01*
X434343Y35260D01*
X434367Y35295D01*
X434517Y35646D01*
X434527Y35691D01*
X434551Y35729D01*
X434717Y36155D01*
X434726Y36208D01*
X434753Y36254D01*
X434925Y36758D01*
X434932Y36809D01*
X434956Y36855D01*
X435087Y37292D01*
X435091Y37337D01*
X435111Y37379D01*
X435226Y37820D01*
X435229Y37864D01*
X435247Y37904D01*
X435347Y38348D01*
X435348Y38390D01*
X435364Y38429D01*
X435450Y38877D01*
X435450Y38917D01*
X435464Y38955D01*
X435537Y39404D01*
X435535Y39443D01*
X435548Y39480D01*
X435607Y39931D01*
X435604Y39974D01*
X435616Y40015D01*
X435676Y40619D01*
X435672Y40659D01*
X435682Y40699D01*
X435713Y41153D01*
X435709Y41186D01*
X435717Y41218D01*
X435736Y41673D01*
X435732Y41699D01*
X435737Y41725D01*
X435744Y42029D01*
X435741Y42049D01*
X435745Y42068D01*
X435747Y42372D01*
X435742Y42396D01*
X435746Y42420D01*
X435741Y42876D01*
X435735Y42903D01*
X435740Y42930D01*
X435725Y43387D01*
X435719Y43412D01*
X435723Y43438D01*
X435699Y43894D01*
X435692Y43921D01*
X435695Y43949D01*
X435650Y44557D01*
X435644Y44582D01*
X435646Y44608D01*
X435603Y45063D01*
X435598Y45083D01*
X435599Y45103D01*
X435558Y45481D01*
X435553Y45497D01*
X435554Y45514D01*
X435517Y45816D01*
X435512Y45832D01*
X435513Y45848D01*
X435472Y46150D01*
X435467Y46165D01*
X435468Y46182D01*
X435423Y46483D01*
X435416Y46504D01*
X435416Y46526D01*
X435342Y46976D01*
X435333Y47000D01*
X435333Y47026D01*
X435264Y47400D01*
X435252Y47430D01*
X435251Y47462D01*
X435126Y48056D01*
X435111Y48090D01*
X435110Y48127D01*
X435003Y48570D01*
X434992Y48595D01*
X434990Y48623D01*
X434913Y48917D01*
X434902Y48938D01*
X434901Y48961D01*
X434818Y49253D01*
X434802Y49285D01*
X434798Y49321D01*
X434617Y49902D01*
X434595Y49941D01*
X434589Y49985D01*
X434438Y50416D01*
X434415Y50455D01*
X434408Y50499D01*
X434215Y50995D01*
X434189Y51035D01*
X434179Y51083D01*
X433998Y51501D01*
X433971Y51540D01*
X433960Y51586D01*
X433764Y51997D01*
X433729Y52045D01*
X433712Y52101D01*
X433427Y52637D01*
X433393Y52679D01*
X433374Y52731D01*
X433183Y53059D01*
X433145Y53102D01*
X433123Y53155D01*
X432711Y53792D01*
X432671Y53834D01*
X432646Y53888D01*
X432338Y54321D01*
X432307Y54351D01*
X432288Y54389D01*
X432011Y54752D01*
X431977Y54782D01*
X431956Y54822D01*
X431716Y55117D01*
X431672Y55153D01*
X431643Y55201D01*
X431340Y55541D01*
X431287Y55582D01*
X431250Y55638D01*
X430984Y55907D01*
X430926Y55946D01*
X430885Y56002D01*
X430605Y56257D01*
X430549Y56290D01*
X430508Y56341D01*
X430215Y56582D01*
X430167Y56607D01*
X430131Y56648D01*
X429828Y56877D01*
X429789Y56896D01*
X429758Y56928D01*
X429553Y57073D01*
X429385Y57404D01*
X429355Y58305D01*
X429480Y58646D01*
X430036Y59094D01*
X430089Y59158D01*
X430160Y59201D01*
X430760Y59751D01*
X431027Y60115D01*
X431308Y60467D01*
X431324Y60521D01*
X431357Y60566D01*
X431465Y61004D01*
X431590Y61437D01*
X431584Y61493D01*
X431597Y61547D01*
X431529Y61993D01*
X431479Y62441D01*
X431452Y62491D01*
X431443Y62546D01*
X431209Y62932D01*
X430992Y63327D01*
X427292Y67727D01*
X427120Y67864D01*
X426983Y68037D01*
X426729Y68177D01*
X426503Y68358D01*
X426292Y68420D01*
X426099Y68527D01*
X425811Y68559D01*
X425533Y68640D01*
X425314Y68616D01*
X425095Y68641D01*
X424817Y68561D01*
X424529Y68529D01*
X424336Y68423D01*
X424124Y68362D01*
X424075Y68323D01*
X423142Y68238D01*
X422561Y68465D01*
X422452Y68534D01*
X422407Y68576D01*
X418291Y72691D01*
X418222Y72737D01*
X418172Y72803D01*
X417804Y73017D01*
X417451Y73253D01*
X417370Y73269D01*
X417298Y73310D01*
X416877Y73367D01*
X416460Y73450D01*
D02*
G37*
G36*
X323380Y132139D02*
X262890D01*
X260924Y131748D01*
X259256Y130634D01*
X240441Y111819D01*
X198769D01*
X198426Y111867D01*
X197921Y111985D01*
X197412Y112154D01*
X196894Y112378D01*
X196366Y112660D01*
X195825Y113004D01*
X195273Y113415D01*
X194711Y113894D01*
X194286Y114303D01*
X194094Y114554D01*
X191788Y116323D01*
X189102Y117436D01*
X186220Y117815D01*
X183338Y117436D01*
X180652Y116323D01*
X178346Y114554D01*
X176577Y112248D01*
X175464Y109562D01*
X175085Y106680D01*
X175464Y103798D01*
X176577Y101112D01*
X178346Y98806D01*
X180652Y97037D01*
X183338Y95924D01*
X186220Y95545D01*
X189102Y95924D01*
X191788Y97037D01*
X194094Y98806D01*
X194286Y99057D01*
X194711Y99466D01*
X195273Y99945D01*
X195825Y100356D01*
X196365Y100700D01*
X196894Y100982D01*
X197412Y101206D01*
X197921Y101375D01*
X198426Y101494D01*
X198769Y101541D01*
X242570D01*
X244536Y101932D01*
X246204Y103046D01*
X265019Y121861D01*
X321251D01*
X326583Y116530D01*
X326791Y116254D01*
X327065Y115813D01*
X327305Y115333D01*
X327513Y114809D01*
X327688Y114235D01*
X327826Y113610D01*
X327926Y112929D01*
X327985Y112193D01*
X327996Y111603D01*
X327955Y111290D01*
X328334Y108408D01*
X329447Y105722D01*
X331216Y103416D01*
X333522Y101647D01*
X336208Y100534D01*
X339090Y100155D01*
X341972Y100534D01*
X344658Y101647D01*
X346964Y103416D01*
X348733Y105722D01*
X349846Y108408D01*
X350225Y111290D01*
X349846Y114172D01*
X348733Y116858D01*
X346964Y119164D01*
X344658Y120933D01*
X341972Y122046D01*
X339090Y122425D01*
X338777Y122384D01*
X338187Y122395D01*
X337451Y122454D01*
X336770Y122554D01*
X336145Y122692D01*
X335571Y122867D01*
X335047Y123075D01*
X334567Y123315D01*
X334126Y123589D01*
X333850Y123797D01*
X327014Y130634D01*
X325346Y131748D01*
X323380Y132139D01*
D02*
G37*
G36*
X292290Y105410D02*
X287490D01*
Y95712D01*
X289102Y95924D01*
X291788Y97037D01*
X294094Y98806D01*
X295863Y101112D01*
X296972Y103788D01*
X296489Y103628D01*
X295770Y103317D01*
X295058Y102938D01*
X294354Y102490D01*
X293659Y101972D01*
X292971Y101385D01*
X292290Y100730D01*
Y105410D01*
D02*
G37*
G36*
X284950D02*
X275252D01*
X275464Y103798D01*
X276577Y101112D01*
X278346Y98806D01*
X280652Y97037D01*
X283338Y95924D01*
X284950Y95712D01*
Y105410D01*
D02*
G37*
G36*
X52070Y414130D02*
X38842D01*
X39174Y411604D01*
X40639Y408067D01*
X42970Y405030D01*
X46007Y402699D01*
X49544Y401234D01*
X52070Y400902D01*
Y414130D01*
D02*
G37*
G36*
X210870Y310448D02*
X206640D01*
Y306070D01*
X216266D01*
X216089Y306962D01*
X214864Y308794D01*
X213032Y310019D01*
X210870Y310448D01*
D02*
G37*
G36*
X559370Y414130D02*
X546100D01*
Y400860D01*
X559370D01*
Y414130D01*
D02*
G37*
G36*
X210870Y323148D02*
X199870D01*
X198552Y322887D01*
X198293Y322855D01*
X198200Y322825D01*
X194911Y322639D01*
X120180D01*
X118214Y322248D01*
X116546Y321134D01*
X114460Y319047D01*
X114184Y318839D01*
X113743Y318565D01*
X113263Y318325D01*
X112739Y318117D01*
X112165Y317942D01*
X111540Y317804D01*
X110859Y317704D01*
X110123Y317645D01*
X109533Y317634D01*
X109220Y317675D01*
X106338Y317296D01*
X103652Y316183D01*
X101346Y314414D01*
X99577Y312108D01*
X98464Y309422D01*
X98085Y306540D01*
X98464Y303658D01*
X99577Y300972D01*
X101346Y298666D01*
X103652Y296897D01*
X106338Y295784D01*
X109220Y295405D01*
X112102Y295784D01*
X114788Y296897D01*
X117094Y298666D01*
X118863Y300972D01*
X119976Y303658D01*
X120355Y306540D01*
X120314Y306853D01*
X120325Y307443D01*
X120384Y308179D01*
X120484Y308860D01*
X120622Y309485D01*
X120797Y310059D01*
X121005Y310583D01*
X121245Y311063D01*
X121519Y311504D01*
X121727Y311780D01*
X122309Y312361D01*
X136727D01*
X137172Y312283D01*
X137529Y312164D01*
X137763Y312038D01*
X137920Y311910D01*
X138048Y311753D01*
X138174Y311519D01*
X138293Y311162D01*
X138371Y310717D01*
Y266079D01*
X138323Y265737D01*
X138205Y265231D01*
X138036Y264722D01*
X137812Y264204D01*
X137530Y263675D01*
X137186Y263135D01*
X136775Y262583D01*
X136296Y262020D01*
X135887Y261596D01*
X135636Y261404D01*
X133867Y259098D01*
X132754Y256412D01*
X132375Y253530D01*
X132754Y250648D01*
X133867Y247962D01*
X135636Y245656D01*
X137942Y243887D01*
X140628Y242774D01*
X143510Y242395D01*
X146392Y242774D01*
X149078Y243887D01*
X151384Y245656D01*
X153153Y247962D01*
X154266Y250648D01*
X154645Y253530D01*
X154266Y256412D01*
X153153Y259098D01*
X151384Y261404D01*
X151133Y261596D01*
X150724Y262020D01*
X150245Y262583D01*
X149834Y263135D01*
X149490Y263675D01*
X149208Y264204D01*
X148984Y264722D01*
X148815Y265231D01*
X148696Y265736D01*
X148649Y266079D01*
Y310717D01*
X148727Y311162D01*
X148846Y311519D01*
X148972Y311753D01*
X149100Y311910D01*
X149257Y312038D01*
X149491Y312164D01*
X149848Y312283D01*
X150293Y312361D01*
X195849D01*
X196988Y312317D01*
X197854Y312236D01*
X198087Y312200D01*
X198188Y312178D01*
X198293Y312145D01*
X198552Y312113D01*
X199870Y311852D01*
X210870D01*
X213032Y312281D01*
X214864Y313506D01*
X216089Y315338D01*
X216518Y317500D01*
X216089Y319662D01*
X214864Y321494D01*
X213032Y322719D01*
X210870Y323148D01*
D02*
G37*
G36*
X260820Y439125D02*
X257938Y438746D01*
X255252Y437633D01*
X252946Y435864D01*
X251177Y433558D01*
X250064Y430872D01*
X249685Y427990D01*
X250064Y425108D01*
X251177Y422422D01*
X252946Y420116D01*
X253197Y419924D01*
X253606Y419500D01*
X254085Y418937D01*
X254496Y418385D01*
X254840Y417845D01*
X255122Y417316D01*
X255346Y416798D01*
X255515Y416289D01*
X255634Y415784D01*
X255681Y415441D01*
Y391219D01*
X217819D01*
X217477Y391267D01*
X216971Y391385D01*
X216462Y391554D01*
X215944Y391778D01*
X215415Y392060D01*
X214875Y392404D01*
X214323Y392815D01*
X213761Y393294D01*
X213336Y393703D01*
X213144Y393954D01*
X210838Y395723D01*
X208152Y396836D01*
X205270Y397215D01*
X202388Y396836D01*
X199702Y395723D01*
X197396Y393954D01*
X195627Y391648D01*
X194514Y388962D01*
X194135Y386080D01*
X194514Y383198D01*
X195627Y380512D01*
X197396Y378206D01*
X199702Y376437D01*
X202388Y375324D01*
X205270Y374945D01*
X208152Y375324D01*
X210838Y376437D01*
X213144Y378206D01*
X213336Y378457D01*
X213761Y378866D01*
X214323Y379345D01*
X214875Y379756D01*
X215415Y380100D01*
X215944Y380382D01*
X216462Y380606D01*
X216971Y380775D01*
X217476Y380894D01*
X217819Y380941D01*
X277271D01*
X300931Y357281D01*
Y346617D01*
X299661Y346186D01*
X298704Y347434D01*
X296398Y349203D01*
X293712Y350316D01*
X290830Y350695D01*
X287948Y350316D01*
X285262Y349203D01*
X282956Y347434D01*
X281187Y345128D01*
X280074Y342442D01*
X279695Y339560D01*
X279775Y338949D01*
X279766Y338901D01*
X279775Y338853D01*
X279768Y338805D01*
X279793Y338130D01*
X279767Y337590D01*
X279697Y337077D01*
X279584Y336585D01*
X279427Y336109D01*
X279224Y335643D01*
X279057Y335339D01*
X263891D01*
X262752Y335383D01*
X261886Y335464D01*
X261653Y335500D01*
X261552Y335522D01*
X261447Y335555D01*
X261187Y335587D01*
X259870Y335849D01*
X248870D01*
X246708Y335419D01*
X244876Y334194D01*
X243652Y332362D01*
X243221Y330200D01*
X243652Y328038D01*
X244876Y326206D01*
X246708Y324981D01*
X248870Y324552D01*
X259870D01*
X261188Y324813D01*
X261447Y324845D01*
X261540Y324875D01*
X264829Y325061D01*
X281470D01*
X283437Y325452D01*
X285104Y326566D01*
X285702Y327164D01*
X285994Y327397D01*
X286453Y327702D01*
X286913Y327954D01*
X287379Y328157D01*
X287855Y328314D01*
X288347Y328427D01*
X288860Y328497D01*
X289400Y328523D01*
X290075Y328498D01*
X290123Y328505D01*
X290171Y328496D01*
X290219Y328505D01*
X290830Y328425D01*
X293712Y328804D01*
X296398Y329917D01*
X298704Y331686D01*
X299661Y332934D01*
X300931Y332503D01*
Y329789D01*
X293782Y322639D01*
X263891D01*
X262752Y322683D01*
X261886Y322764D01*
X261653Y322800D01*
X261552Y322822D01*
X261447Y322855D01*
X261187Y322887D01*
X259870Y323148D01*
X248870D01*
X246708Y322719D01*
X244876Y321494D01*
X243652Y319662D01*
X243221Y317500D01*
X243652Y315338D01*
X244876Y313506D01*
X246708Y312281D01*
X248870Y311852D01*
X259870D01*
X261188Y312113D01*
X261447Y312145D01*
X261540Y312175D01*
X264829Y312361D01*
X295910D01*
X297876Y312752D01*
X299544Y313866D01*
X309704Y324026D01*
X310818Y325694D01*
X311209Y327660D01*
Y359410D01*
X310818Y361376D01*
X309704Y363044D01*
X283034Y389714D01*
X281367Y390828D01*
X279400Y391219D01*
X265959D01*
Y415441D01*
X266007Y415784D01*
X266125Y416289D01*
X266294Y416798D01*
X266518Y417316D01*
X266800Y417845D01*
X267144Y418385D01*
X267555Y418937D01*
X268034Y419500D01*
X268443Y419924D01*
X268694Y420116D01*
X270463Y422422D01*
X271576Y425108D01*
X271955Y427990D01*
X271576Y430872D01*
X270463Y433558D01*
X268694Y435864D01*
X266388Y437633D01*
X263702Y438746D01*
X260820Y439125D01*
D02*
G37*
G36*
X204100Y310448D02*
X199870D01*
X197708Y310019D01*
X195876Y308794D01*
X194652Y306962D01*
X194474Y306070D01*
X204100D01*
Y310448D01*
D02*
G37*
G36*
X259870D02*
X248870D01*
X246708Y310019D01*
X244876Y308794D01*
X243652Y306962D01*
X243221Y304800D01*
X243652Y302638D01*
X244876Y300806D01*
X246708Y299581D01*
X248870Y299151D01*
X259870D01*
X262032Y299581D01*
X263864Y300806D01*
X265089Y302638D01*
X265518Y304800D01*
X265089Y306962D01*
X263864Y308794D01*
X262032Y310019D01*
X259870Y310448D01*
D02*
G37*
G36*
X204100Y299818D02*
X203943Y299697D01*
X203311Y299151D01*
X204100D01*
Y299818D01*
D02*
G37*
G36*
X197687Y303530D02*
X194474D01*
X194652Y302638D01*
X195876Y300806D01*
X197033Y300033D01*
X197059Y300059D01*
X197626Y300732D01*
X198055Y301337D01*
X198344Y301873D01*
X198495Y302340D01*
X198507Y302739D01*
X198380Y303070D01*
X198114Y303332D01*
X197709Y303525D01*
X197687Y303530D01*
D02*
G37*
G36*
X204100D02*
X197976D01*
X204100Y302625D01*
Y303530D01*
D02*
G37*
G36*
X216266D02*
X206640D01*
Y302250D01*
X209446Y301835D01*
X208825Y301881D01*
X208186Y301837D01*
X207527Y301704D01*
X206849Y301481D01*
X206640Y301388D01*
Y299151D01*
X210870D01*
X213032Y299581D01*
X214864Y300806D01*
X216089Y302638D01*
X216266Y303530D01*
D02*
G37*
G36*
X370370Y343875D02*
X367488Y343496D01*
X364802Y342383D01*
X362496Y340614D01*
X360727Y338308D01*
X359614Y335622D01*
X359235Y332740D01*
X359614Y329858D01*
X360727Y327172D01*
X362496Y324866D01*
X364802Y323097D01*
X367488Y321984D01*
X370370Y321605D01*
X373252Y321984D01*
X375938Y323097D01*
X378244Y324866D01*
X380013Y327172D01*
X381126Y329858D01*
X381505Y332740D01*
X381126Y335622D01*
X380013Y338308D01*
X378244Y340614D01*
X375938Y342383D01*
X373252Y343496D01*
X370370Y343875D01*
D02*
G37*
G36*
X143510Y364665D02*
X140628Y364286D01*
X137942Y363173D01*
X135636Y361404D01*
X133867Y359098D01*
X132754Y356412D01*
X132375Y353530D01*
X132754Y350648D01*
X133867Y347962D01*
X135636Y345656D01*
X137942Y343887D01*
X140628Y342774D01*
X143510Y342395D01*
X146392Y342774D01*
X149078Y343887D01*
X151384Y345656D01*
X153153Y347962D01*
X154266Y350648D01*
X154645Y353530D01*
X154266Y356412D01*
X153153Y359098D01*
X151384Y361404D01*
X149078Y363173D01*
X146392Y364286D01*
X143510Y364665D01*
D02*
G37*
G36*
X339090Y363395D02*
X336208Y363016D01*
X333522Y361903D01*
X331216Y360134D01*
X329447Y357828D01*
X328334Y355142D01*
X327955Y352260D01*
X328334Y349378D01*
X329447Y346692D01*
X331216Y344386D01*
X333522Y342617D01*
X336208Y341504D01*
X339090Y341125D01*
X341972Y341504D01*
X344658Y342617D01*
X346964Y344386D01*
X348733Y346692D01*
X349846Y349378D01*
X350225Y352260D01*
X349846Y355142D01*
X348733Y357828D01*
X346964Y360134D01*
X344658Y361903D01*
X341972Y363016D01*
X339090Y363395D01*
D02*
G37*
G36*
X544830Y379266D02*
X541034Y378766D01*
X537497Y377301D01*
X534460Y374970D01*
X532129Y371933D01*
X530664Y368396D01*
X530164Y364600D01*
X530664Y360804D01*
X532129Y357267D01*
X534460Y354230D01*
X537497Y351899D01*
X541034Y350434D01*
X544830Y349935D01*
X548626Y350434D01*
X552163Y351899D01*
X555200Y354230D01*
X557531Y357267D01*
X558996Y360804D01*
X559496Y364600D01*
X558996Y368396D01*
X557531Y371933D01*
X555200Y374970D01*
X552163Y377301D01*
X548626Y378766D01*
X544830Y379266D01*
D02*
G37*
G36*
X67880Y379140D02*
X38800D01*
Y350060D01*
X67880D01*
Y379140D01*
D02*
G37*
G36*
X370370Y388325D02*
X367488Y387946D01*
X364802Y386833D01*
X362496Y385064D01*
X360727Y382758D01*
X359614Y380072D01*
X359235Y377190D01*
X359614Y374308D01*
X360727Y371622D01*
X362496Y369316D01*
X364802Y367547D01*
X367488Y366434D01*
X370370Y366055D01*
X373252Y366434D01*
X375938Y367547D01*
X378244Y369316D01*
X380013Y371622D01*
X381126Y374308D01*
X381505Y377190D01*
X381126Y380072D01*
X380013Y382758D01*
X378244Y385064D01*
X375938Y386833D01*
X373252Y387946D01*
X370370Y388325D01*
D02*
G37*
G36*
X216410Y348440D02*
X194330D01*
Y337360D01*
X216410D01*
Y348440D01*
D02*
G37*
G36*
X305270Y397215D02*
X302388Y396836D01*
X299702Y395723D01*
X297396Y393954D01*
X295627Y391648D01*
X294514Y388962D01*
X294135Y386080D01*
X294514Y383198D01*
X295627Y380512D01*
X297396Y378206D01*
X299702Y376437D01*
X302388Y375324D01*
X305270Y374945D01*
X308152Y375324D01*
X310838Y376437D01*
X313144Y378206D01*
X314913Y380512D01*
X316026Y383198D01*
X316405Y386080D01*
X316026Y388962D01*
X314913Y391648D01*
X313144Y393954D01*
X310838Y395723D01*
X308152Y396836D01*
X305270Y397215D01*
D02*
G37*
G36*
X470370Y343875D02*
X467488Y343496D01*
X464802Y342383D01*
X462496Y340614D01*
X460727Y338308D01*
X459614Y335622D01*
X459235Y332740D01*
X459614Y329858D01*
X460727Y327172D01*
X462496Y324866D01*
X464802Y323097D01*
X467488Y321984D01*
X470370Y321605D01*
X473252Y321984D01*
X475938Y323097D01*
X478244Y324866D01*
X480013Y327172D01*
X481126Y329858D01*
X481505Y332740D01*
X481126Y335622D01*
X480013Y338308D01*
X478244Y340614D01*
X475938Y342383D01*
X473252Y343496D01*
X470370Y343875D01*
D02*
G37*
G36*
X175260Y396415D02*
X172378Y396036D01*
X169692Y394923D01*
X167386Y393154D01*
X165617Y390848D01*
X164504Y388162D01*
X164125Y385280D01*
X164504Y382398D01*
X165617Y379712D01*
X167386Y377406D01*
X169692Y375637D01*
X172378Y374524D01*
X175260Y374145D01*
X178142Y374524D01*
X180828Y375637D01*
X183134Y377406D01*
X184903Y379712D01*
X186016Y382398D01*
X186395Y385280D01*
X186016Y388162D01*
X184903Y390848D01*
X183134Y393154D01*
X180828Y394923D01*
X178142Y396036D01*
X175260Y396415D01*
D02*
G37*
G36*
X470370Y388325D02*
X467488Y387946D01*
X464802Y386833D01*
X462496Y385064D01*
X460727Y382758D01*
X459614Y380072D01*
X459235Y377190D01*
X459614Y374308D01*
X460727Y371622D01*
X462496Y369316D01*
X464802Y367547D01*
X467488Y366434D01*
X470370Y366055D01*
X473252Y366434D01*
X475938Y367547D01*
X478244Y369316D01*
X480013Y371622D01*
X481126Y374308D01*
X481505Y377190D01*
X481126Y380072D01*
X480013Y382758D01*
X478244Y385064D01*
X475938Y386833D01*
X473252Y387946D01*
X470370Y388325D01*
D02*
G37*
G36*
X259870Y348549D02*
X248870D01*
X246708Y348119D01*
X244876Y346894D01*
X243652Y345062D01*
X243221Y342900D01*
X243652Y340738D01*
X244876Y338906D01*
X246708Y337681D01*
X248870Y337252D01*
X259870D01*
X262032Y337681D01*
X263864Y338906D01*
X265089Y340738D01*
X265518Y342900D01*
X265089Y345062D01*
X263864Y346894D01*
X262032Y348119D01*
X259870Y348549D01*
D02*
G37*
G36*
X68580Y320215D02*
X65698Y319836D01*
X63012Y318723D01*
X60706Y316954D01*
X58937Y314648D01*
X57824Y311962D01*
X57445Y309080D01*
X57824Y306198D01*
X58937Y303512D01*
X60706Y301206D01*
X63012Y299437D01*
X65698Y298324D01*
X68580Y297945D01*
X71462Y298324D01*
X74148Y299437D01*
X76454Y301206D01*
X78223Y303512D01*
X79336Y306198D01*
X79715Y309080D01*
X79336Y311962D01*
X78223Y314648D01*
X76454Y316954D01*
X74148Y318723D01*
X71462Y319836D01*
X68580Y320215D01*
D02*
G37*
G36*
X543560Y429940D02*
X530290D01*
Y418102D01*
X530426Y418125D01*
X531080Y418300D01*
X531633Y418525D01*
X532086Y418800D01*
X532438Y419125D01*
X532690Y419500D01*
X532841Y419925D01*
X532891Y420400D01*
Y416670D01*
X543560D01*
Y429940D01*
D02*
G37*
G36*
X52070Y429898D02*
X49544Y429566D01*
X46007Y428101D01*
X42970Y425770D01*
X40639Y422733D01*
X39174Y419196D01*
X38842Y416670D01*
X52070D01*
Y429898D01*
D02*
G37*
G36*
X543560Y414130D02*
X532891D01*
Y410400D01*
X532841Y410875D01*
X532690Y411300D01*
X532438Y411675D01*
X532086Y412000D01*
X531633Y412275D01*
X531080Y412500D01*
X530426Y412675D01*
X530290Y412697D01*
Y400860D01*
X543560D01*
Y414130D01*
D02*
G37*
G36*
X501170Y282509D02*
X490170D01*
X488008Y282079D01*
X486176Y280854D01*
X484952Y279022D01*
X484521Y276860D01*
X484952Y274698D01*
X486176Y272866D01*
X488008Y271641D01*
X490170Y271211D01*
X501170D01*
X503332Y271641D01*
X505164Y272866D01*
X506389Y274698D01*
X506819Y276860D01*
X506389Y279022D01*
X505164Y280854D01*
X503332Y282079D01*
X501170Y282509D01*
D02*
G37*
G36*
X529590Y283385D02*
X526708Y283006D01*
X524022Y281893D01*
X521716Y280124D01*
X519947Y277818D01*
X518834Y275132D01*
X518455Y272250D01*
X518676Y270569D01*
X517562Y269299D01*
X505191D01*
X504052Y269343D01*
X503186Y269424D01*
X502953Y269460D01*
X502852Y269482D01*
X502747Y269515D01*
X502487Y269547D01*
X501170Y269809D01*
X490170D01*
X488008Y269379D01*
X486176Y268154D01*
X484952Y266322D01*
X484521Y264160D01*
X484952Y261998D01*
X486176Y260166D01*
X488008Y258941D01*
X490170Y258512D01*
X501170D01*
X502488Y258773D01*
X502747Y258804D01*
X502840Y258835D01*
X506129Y259021D01*
X521500D01*
X523466Y259412D01*
X525134Y260526D01*
X525914Y261307D01*
X526154Y261516D01*
X526333Y261649D01*
X526708Y261494D01*
X529590Y261115D01*
X532472Y261494D01*
X535158Y262607D01*
X537464Y264376D01*
X539233Y266682D01*
X540346Y269368D01*
X540725Y272250D01*
X540346Y275132D01*
X539233Y277818D01*
X537464Y280124D01*
X535158Y281893D01*
X532472Y283006D01*
X529590Y283385D01*
D02*
G37*
G36*
X54610Y426249D02*
Y416670D01*
X64190D01*
X54610Y426249D01*
D02*
G37*
G36*
X160820Y439125D02*
X157938Y438746D01*
X155252Y437633D01*
X152946Y435864D01*
X151177Y433558D01*
X150064Y430872D01*
X149685Y427990D01*
X150064Y425108D01*
X151177Y422422D01*
X152946Y420116D01*
X155252Y418347D01*
X157938Y417234D01*
X160820Y416855D01*
X163702Y417234D01*
X166388Y418347D01*
X168694Y420116D01*
X170463Y422422D01*
X171576Y425108D01*
X171955Y427990D01*
X171576Y430872D01*
X170463Y433558D01*
X168694Y435864D01*
X166388Y437633D01*
X163702Y438746D01*
X160820Y439125D01*
D02*
G37*
G36*
X54610Y429898D02*
Y427411D01*
X55062Y427416D01*
X57965Y427649D01*
X59266Y427865D01*
X60466Y428148D01*
X60519Y428164D01*
X57136Y429566D01*
X54610Y429898D01*
D02*
G37*
G36*
X66104Y422579D02*
X66088Y422526D01*
X65805Y421326D01*
X65589Y420025D01*
X65439Y418624D01*
X65376Y416670D01*
X67838D01*
X67506Y419196D01*
X66104Y422579D01*
D02*
G37*
G36*
X408940Y284655D02*
X406058Y284276D01*
X403372Y283163D01*
X401066Y281394D01*
X399297Y279088D01*
X398184Y276402D01*
X397805Y273520D01*
X398184Y270638D01*
X399297Y267952D01*
X401066Y265646D01*
X403372Y263877D01*
X406058Y262764D01*
X408940Y262385D01*
X411224Y262686D01*
X411295Y262685D01*
X411478Y262719D01*
X411822Y262764D01*
X411906Y262799D01*
X412057Y262827D01*
X412670Y262890D01*
X413227Y262897D01*
X413736Y262853D01*
X414201Y262764D01*
X414632Y262630D01*
X415040Y262452D01*
X415434Y262224D01*
X415713Y262019D01*
X417206Y260526D01*
X418873Y259412D01*
X420840Y259021D01*
X437149D01*
X438288Y258977D01*
X439155Y258896D01*
X439387Y258860D01*
X439488Y258838D01*
X439593Y258804D01*
X439852Y258773D01*
X441170Y258512D01*
X452170D01*
X454332Y258941D01*
X456164Y260166D01*
X457388Y261998D01*
X457818Y264160D01*
X457388Y266322D01*
X456164Y268154D01*
X454332Y269379D01*
X452170Y269809D01*
X441170D01*
X439852Y269547D01*
X439593Y269515D01*
X439500Y269485D01*
X436211Y269299D01*
X422968D01*
X422114Y270153D01*
X421925Y270392D01*
X421604Y270864D01*
X421295Y271390D01*
X421000Y271974D01*
X420721Y272613D01*
X420471Y273284D01*
X419994Y274911D01*
X419792Y275804D01*
X419767Y275858D01*
X419696Y276402D01*
X418583Y279088D01*
X416814Y281394D01*
X414508Y283163D01*
X411822Y284276D01*
X408940Y284655D01*
D02*
G37*
G36*
X559370Y429940D02*
X546100D01*
Y416670D01*
X559370D01*
Y429940D01*
D02*
G37*
G36*
X457710Y282400D02*
X435630D01*
Y271320D01*
X457710D01*
Y282400D01*
D02*
G37*
G36*
X568960Y310055D02*
X566078Y309676D01*
X563392Y308563D01*
X561086Y306794D01*
X559317Y304488D01*
X558204Y301802D01*
X557825Y298920D01*
X558204Y296038D01*
X559317Y293352D01*
X561086Y291046D01*
X563392Y289277D01*
X566078Y288164D01*
X568960Y287785D01*
X571842Y288164D01*
X574528Y289277D01*
X576834Y291046D01*
X578603Y293352D01*
X579716Y296038D01*
X580095Y298920D01*
X579716Y301802D01*
X578603Y304488D01*
X576834Y306794D01*
X574528Y308563D01*
X571842Y309676D01*
X568960Y310055D01*
D02*
G37*
G36*
X191661Y285750D02*
X189321D01*
X189459Y284699D01*
X190254Y282780D01*
X190346Y282891D01*
X190684Y283367D01*
X190977Y283853D01*
X191224Y284347D01*
X191425Y284851D01*
X191580Y285364D01*
X191661Y285750D01*
D02*
G37*
G36*
X67838Y414130D02*
X54610D01*
Y400902D01*
X57136Y401234D01*
X60673Y402699D01*
X63710Y405030D01*
X66041Y408067D01*
X67506Y411604D01*
X67838Y414130D01*
D02*
G37*
G36*
X24130Y320215D02*
X21248Y319836D01*
X18562Y318723D01*
X16256Y316954D01*
X14487Y314648D01*
X13374Y311962D01*
X12995Y309080D01*
X13374Y306198D01*
X14487Y303512D01*
X16256Y301206D01*
X18562Y299437D01*
X21248Y298324D01*
X24130Y297945D01*
X27012Y298324D01*
X29698Y299437D01*
X32004Y301206D01*
X33773Y303512D01*
X34886Y306198D01*
X35265Y309080D01*
X34886Y311962D01*
X33773Y314648D01*
X32004Y316954D01*
X29698Y318723D01*
X27012Y319836D01*
X24130Y320215D01*
D02*
G37*
G36*
X200684Y295581D02*
X200698Y295437D01*
X200795Y294861D01*
X200931Y294310D01*
X201106Y293786D01*
X201320Y293288D01*
X201573Y292816D01*
X201865Y292369D01*
X202195Y291949D01*
X202565Y291555D01*
X199390D01*
Y288290D01*
X206919D01*
X206781Y289341D01*
X205885Y291503D01*
X204460Y293360D01*
X202603Y294785D01*
X200684Y295581D01*
D02*
G37*
G36*
X195556D02*
X193637Y294785D01*
X191780Y293360D01*
X190355Y291503D01*
X189459Y289341D01*
X189321Y288290D01*
X196850D01*
Y291555D01*
X193675D01*
X194044Y291949D01*
X194375Y292369D01*
X194667Y292816D01*
X194920Y293288D01*
X195134Y293786D01*
X195309Y294310D01*
X195445Y294861D01*
X195542Y295437D01*
X195556Y295581D01*
D02*
G37*
G36*
X210870Y335849D02*
X199870D01*
X197708Y335419D01*
X195876Y334194D01*
X194652Y332362D01*
X194221Y330200D01*
X194652Y328038D01*
X195876Y326206D01*
X197708Y324981D01*
X199870Y324552D01*
X210870D01*
X213032Y324981D01*
X213151Y325061D01*
X213771D01*
X222191Y316642D01*
Y297239D01*
X207098Y282145D01*
X206021Y282864D01*
X206781Y284699D01*
X206919Y285750D01*
X199390D01*
Y278221D01*
X200441Y278359D01*
X202276Y279119D01*
X202995Y278042D01*
X180500Y255547D01*
X180224Y255339D01*
X179783Y255065D01*
X179303Y254825D01*
X178779Y254617D01*
X178205Y254442D01*
X177580Y254304D01*
X176899Y254204D01*
X176163Y254145D01*
X175573Y254134D01*
X175260Y254175D01*
X172378Y253796D01*
X169692Y252683D01*
X167386Y250914D01*
X165617Y248608D01*
X164504Y245922D01*
X164125Y243040D01*
X164504Y240158D01*
X165617Y237472D01*
X167386Y235166D01*
X169692Y233397D01*
X172378Y232284D01*
X175260Y231905D01*
X178142Y232284D01*
X180828Y233397D01*
X183134Y235166D01*
X184903Y237472D01*
X186016Y240158D01*
X186395Y243040D01*
X186354Y243353D01*
X186365Y243943D01*
X186424Y244679D01*
X186524Y245360D01*
X186662Y245985D01*
X186837Y246559D01*
X187045Y247083D01*
X187285Y247563D01*
X187559Y248004D01*
X187767Y248280D01*
X230964Y291476D01*
X232078Y293144D01*
X232469Y295110D01*
Y318770D01*
X232078Y320737D01*
X230964Y322404D01*
X219534Y333834D01*
X217866Y334948D01*
X215900Y335339D01*
X213151D01*
X213032Y335419D01*
X210870Y335849D01*
D02*
G37*
G36*
X196850Y280561D02*
X196464Y280480D01*
X195951Y280325D01*
X195447Y280124D01*
X194953Y279877D01*
X194467Y279584D01*
X193991Y279246D01*
X193880Y279154D01*
X195799Y278359D01*
X196850Y278221D01*
Y280561D01*
D02*
G37*
G36*
X175260Y296415D02*
X172378Y296036D01*
X169692Y294923D01*
X167386Y293154D01*
X165617Y290848D01*
X164504Y288162D01*
X164125Y285280D01*
X164504Y282398D01*
X165617Y279712D01*
X167386Y277406D01*
X169692Y275637D01*
X172378Y274524D01*
X175260Y274145D01*
X178142Y274524D01*
X180828Y275637D01*
X183134Y277406D01*
X184903Y279712D01*
X186016Y282398D01*
X186395Y285280D01*
X186016Y288162D01*
X184903Y290848D01*
X183134Y293154D01*
X180828Y294923D01*
X178142Y296036D01*
X175260Y296415D01*
D02*
G37*
G36*
X196850Y285750D02*
X192977D01*
X196850Y281877D01*
Y285750D01*
D02*
G37*
%LPD*%
G36*
X502174Y254278D02*
X502483Y254212D01*
X502870Y254153D01*
X503881Y254058D01*
X505989Y253976D01*
X507790Y253960D01*
Y248960D01*
X506850Y248956D01*
X502483Y248708D01*
X502174Y248642D01*
X501945Y248567D01*
Y254353D01*
X502174Y254278D01*
D02*
G37*
G36*
X561932Y209532D02*
X562530Y209080D01*
X563172Y208683D01*
X563857Y208339D01*
X564585Y208050D01*
X565357Y207815D01*
X566171Y207635D01*
X567029Y207509D01*
X567930Y207437D01*
X568875Y207420D01*
X560460Y199005D01*
X560443Y199949D01*
X560371Y200851D01*
X560245Y201709D01*
X560065Y202523D01*
X559830Y203295D01*
X559541Y204023D01*
X559197Y204708D01*
X558800Y205350D01*
X558348Y205948D01*
X557841Y206503D01*
X561377Y210039D01*
X561932Y209532D01*
D02*
G37*
G36*
X346294Y256918D02*
X346914Y256297D01*
X347551Y255750D01*
X348206Y255275D01*
X348880Y254873D01*
X349571Y254544D01*
X350281Y254289D01*
X351009Y254106D01*
X351754Y253997D01*
X352518Y253960D01*
X352023Y248960D01*
X351289Y248928D01*
X350552Y248832D01*
X349813Y248673D01*
X349072Y248449D01*
X348328Y248161D01*
X347582Y247810D01*
X346833Y247395D01*
X346082Y246915D01*
X345329Y246372D01*
X344573Y245765D01*
X345693Y257612D01*
X346294Y256918D01*
D02*
G37*
G36*
X440395Y248567D02*
X440165Y248642D01*
X439857Y248708D01*
X439470Y248767D01*
X438459Y248862D01*
X436351Y248944D01*
X434550Y248960D01*
Y253960D01*
X435490Y253964D01*
X439857Y254212D01*
X440165Y254278D01*
X440395Y254353D01*
Y248567D01*
D02*
G37*
G36*
X405171Y61852D02*
X405822Y61772D01*
X406589Y61610D01*
X407245Y61400D01*
X408027Y61049D01*
X408818Y60565D01*
X409586Y59933D01*
X410350Y59062D01*
X410838Y58279D01*
X411191Y57468D01*
X411443Y56521D01*
X411591Y55242D01*
X411604Y54409D01*
X411546Y53480D01*
X411356Y52375D01*
X411109Y51561D01*
X410748Y50758D01*
X410256Y49943D01*
X409790Y49302D01*
X409240Y48643D01*
X408610Y48024D01*
X407985Y47554D01*
X407253Y47116D01*
X406759Y46850D01*
X407345Y46676D01*
X407854Y46530D01*
X408271Y46351D01*
X408539Y46207D01*
X408929Y45964D01*
X409185Y45797D01*
X409513Y45610D01*
X409792Y45498D01*
X410013Y45442D01*
X410239Y45407D01*
X410470Y45392D01*
X410625Y45392D01*
X410933Y45420D01*
X411157Y45465D01*
X411442Y45564D01*
X411767Y45751D01*
X412005Y45940D01*
X412284Y46206D01*
X412500Y46428D01*
X412818Y46760D01*
X413127Y47094D01*
X413422Y47437D01*
X413609Y47673D01*
X413873Y48041D01*
X414076Y48360D01*
X414267Y48689D01*
X414411Y48958D01*
X414513Y49163D01*
X414675Y49510D01*
X414768Y49720D01*
X414888Y50002D01*
X415008Y50283D01*
X415128Y50564D01*
X415285Y50909D01*
X415455Y51247D01*
X415681Y51637D01*
X415941Y52006D01*
X416227Y52360D01*
X416472Y52652D01*
X416762Y53008D01*
X416951Y53248D01*
X417234Y53609D01*
X417426Y53846D01*
X417621Y54079D01*
X417925Y54415D01*
X418194Y54678D01*
X418540Y54969D01*
X418910Y55231D01*
X419503Y55576D01*
X419916Y55779D01*
X420266Y55934D01*
X420693Y56102D01*
X421125Y56249D01*
X421564Y56375D01*
X422158Y56508D01*
X422609Y56578D01*
X423142Y56626D01*
X423448Y56637D01*
X423909Y56629D01*
X424215Y56607D01*
X424443Y56582D01*
X424670Y56548D01*
X425044Y56474D01*
X425484Y56354D01*
X425841Y56228D01*
X426326Y56013D01*
X426729Y55800D01*
X426992Y55647D01*
X427253Y55488D01*
X427639Y55242D01*
X427956Y55030D01*
X428267Y54811D01*
X428569Y54582D01*
X428862Y54342D01*
X429141Y54087D01*
X429407Y53818D01*
X429710Y53478D01*
X429951Y53183D01*
X430228Y52820D01*
X430537Y52386D01*
X430949Y51749D01*
X431140Y51422D01*
X431425Y50886D01*
X431620Y50475D01*
X431801Y50056D01*
X431994Y49560D01*
X432145Y49130D01*
X432326Y48550D01*
X432408Y48257D01*
X432485Y47964D01*
X432592Y47521D01*
X432718Y46927D01*
X432787Y46554D01*
X432861Y46104D01*
X432906Y45803D01*
X432947Y45501D01*
X432984Y45199D01*
X433025Y44821D01*
X433068Y44366D01*
X433113Y43758D01*
X433137Y43302D01*
X433152Y42846D01*
X433157Y42390D01*
X433155Y42086D01*
X433148Y41782D01*
X433129Y41327D01*
X433098Y40872D01*
X433039Y40268D01*
X432980Y39817D01*
X432907Y39367D01*
X432821Y38919D01*
X432721Y38475D01*
X432605Y38033D01*
X432475Y37596D01*
X432302Y37092D01*
X432137Y36666D01*
X431987Y36316D01*
X431825Y35970D01*
X431688Y35698D01*
X431544Y35429D01*
X431274Y34968D01*
X431026Y34584D01*
X430625Y34028D01*
X430483Y33849D01*
X430035Y33329D01*
X429772Y33054D01*
X429101Y32431D01*
X428686Y32094D01*
X428128Y31690D01*
X426386Y30723D01*
X425960Y30545D01*
X425528Y30387D01*
X425162Y30272D01*
X424867Y30193D01*
X424421Y30096D01*
X423895Y30019D01*
X423441Y29987D01*
X423062Y29987D01*
X422303Y30053D01*
X421851Y30135D01*
X421478Y30227D01*
X420746Y30471D01*
X420390Y30623D01*
X419960Y30810D01*
X419437Y31144D01*
X418398Y31953D01*
X418017Y32335D01*
X417620Y32802D01*
X417437Y33047D01*
X417187Y33428D01*
X416964Y33823D01*
X416713Y34368D01*
X416556Y34791D01*
X416366Y35443D01*
X416233Y36037D01*
X416129Y36643D01*
X416080Y36995D01*
X416085Y36949D01*
X416065Y37103D01*
X416080Y36995D01*
X415954Y38109D01*
X415902Y38730D01*
X415872Y39270D01*
X415862Y39803D01*
X415879Y40360D01*
X415912Y40764D01*
X415960Y41121D01*
X416132Y41837D01*
X416240Y42139D01*
X416379Y42453D01*
X416533Y42622D01*
X416683Y42634D01*
X416827Y42477D01*
X416832Y41855D01*
X416827Y41262D01*
X416888Y40827D01*
X417035Y40357D01*
X417225Y39848D01*
X417421Y39398D01*
X417726Y38890D01*
X418111Y38438D01*
X418446Y38150D01*
X418770Y37927D01*
X419198Y37679D01*
X419505Y37517D01*
X419907Y37327D01*
X420322Y37178D01*
X420801Y37077D01*
X421441Y37016D01*
X422380Y36980D01*
X423117Y37010D01*
X423652Y37082D01*
X424603Y37344D01*
X425234Y37622D01*
X425787Y37941D01*
X426117Y38158D01*
X426600Y38503D01*
X426993Y38804D01*
X427222Y38993D01*
X427372Y39121D01*
X427662Y39388D01*
X427904Y39632D01*
X428260Y40039D01*
X428554Y40433D01*
X428871Y40932D01*
X429105Y41368D01*
X429275Y41725D01*
X429705Y42882D01*
X429972Y44032D01*
X430057Y44665D01*
X430102Y45205D01*
X430127Y45697D01*
X430139Y46190D01*
X430141Y46436D01*
X430136Y46781D01*
X430105Y47370D01*
X430070Y47712D01*
X430007Y48150D01*
X429891Y48730D01*
X429768Y49208D01*
X429652Y49586D01*
X429463Y50094D01*
X429255Y50541D01*
X428952Y51048D01*
X428652Y51439D01*
X428415Y51690D01*
X428156Y51920D01*
X427876Y52123D01*
X427664Y52249D01*
X426881Y52544D01*
X426590Y52595D01*
X426196Y52619D01*
X425754Y52592D01*
X425174Y52477D01*
X424798Y52354D01*
X424174Y52056D01*
X423626Y51644D01*
X423383Y51401D01*
X423118Y51107D01*
X422794Y50732D01*
X422603Y50506D01*
X422417Y50276D01*
X422130Y49879D01*
X421903Y49501D01*
X421720Y49152D01*
X421501Y48711D01*
X421225Y48187D01*
X421005Y47803D01*
X420775Y47425D01*
X420590Y47135D01*
X420346Y46765D01*
X420037Y46321D01*
X419740Y45928D01*
X419458Y45586D01*
X419093Y45185D01*
X418779Y44872D01*
X418414Y44544D01*
X418070Y44268D01*
X417447Y43870D01*
X416984Y43661D01*
X416641Y43542D01*
X416145Y43404D01*
X415482Y43259D01*
X415106Y43182D01*
X414547Y43087D01*
X414180Y43068D01*
X413675Y43098D01*
X413225Y43160D01*
X412842Y43230D01*
X412498Y43300D01*
X412025Y43404D01*
X411810Y43455D01*
X412032Y43125D01*
X412273Y42662D01*
X412574Y42051D01*
X412789Y41573D01*
X412950Y41184D01*
X413063Y40890D01*
X413135Y40693D01*
X413302Y40196D01*
X413391Y39895D01*
X413568Y39186D01*
X413688Y38521D01*
X413757Y37954D01*
X413796Y37435D01*
X413813Y36704D01*
X413776Y35757D01*
X413718Y35123D01*
X413611Y34328D01*
X413478Y33587D01*
X413277Y32751D01*
X413068Y32092D01*
X412834Y31505D01*
X412555Y30947D01*
X412314Y30549D01*
X412043Y30174D01*
X411598Y29673D01*
X411334Y29422D01*
X410975Y29117D01*
X410767Y28956D01*
X410466Y28740D01*
X410201Y28563D01*
X409931Y28392D01*
X409610Y28200D01*
X409238Y27991D01*
X408956Y27840D01*
X408624Y27673D01*
X408193Y27471D01*
X407610Y27229D01*
X407068Y27039D01*
X406618Y26907D01*
X406316Y26833D01*
X405807Y26735D01*
X405343Y26675D01*
X404876Y26640D01*
X404510Y26628D01*
X403775Y26643D01*
X402934Y26711D01*
X402514Y26763D01*
X401835Y26867D01*
X401007Y27028D01*
X400496Y27150D01*
X400091Y27259D01*
X399590Y27411D01*
X398998Y27616D01*
X398417Y27849D01*
X397385Y28348D01*
X396489Y28884D01*
X395678Y29463D01*
X394951Y30072D01*
X394303Y30700D01*
X393696Y31376D01*
X393261Y31924D01*
X392881Y32453D01*
X392640Y32817D01*
X392352Y33282D01*
X391973Y33953D01*
X391769Y34346D01*
X391480Y34945D01*
X391276Y35401D01*
X390961Y36173D01*
X390676Y36956D01*
X390469Y37588D01*
X390166Y38646D01*
X390072Y39016D01*
X389683Y40899D01*
X389567Y41666D01*
X389453Y42663D01*
X389391Y43481D01*
X389358Y44445D01*
X389366Y45111D01*
X389455Y46207D01*
X389570Y46988D01*
X389636Y47363D01*
X389742Y47907D01*
X389873Y48251D01*
X390004Y47738D01*
X390043Y46789D01*
X390146Y45870D01*
X390347Y44829D01*
X390579Y43956D01*
X390811Y43226D01*
X391187Y42181D01*
X391571Y41219D01*
X391708Y40900D01*
X392300Y39636D01*
X392712Y38863D01*
X392999Y38370D01*
X393422Y37701D01*
X393877Y37051D01*
X394254Y36561D01*
X394889Y35825D01*
X395133Y35570D01*
X395578Y35143D01*
X396043Y34744D01*
X396319Y34529D01*
X396674Y34277D01*
X397040Y34043D01*
X397494Y33789D01*
X397805Y33637D01*
X398204Y33465D01*
X398530Y33343D01*
X398945Y33207D01*
X399367Y33092D01*
X399795Y32994D01*
X400228Y32915D01*
X400664Y32852D01*
X401102Y32805D01*
X401498Y32777D01*
X401982Y32759D01*
X402421Y32757D01*
X402771Y32767D01*
X403120Y32788D01*
X403554Y32829D01*
X403900Y32874D01*
X404415Y32964D01*
X405052Y33117D01*
X405388Y33218D01*
X405763Y33348D01*
X406175Y33513D01*
X406499Y33661D01*
X406816Y33825D01*
X407274Y34097D01*
X407707Y34402D01*
X407978Y34625D01*
X408295Y34924D01*
X408583Y35247D01*
X408911Y35702D01*
X409239Y36313D01*
X409372Y36636D01*
X409559Y37225D01*
X409639Y37573D01*
X409700Y37927D01*
X409755Y38423D01*
X409772Y38969D01*
X409741Y39511D01*
X409647Y40084D01*
X409469Y40671D01*
X409249Y41139D01*
X408988Y41532D01*
X408577Y41976D01*
X408130Y42333D01*
X407476Y42722D01*
X406773Y43024D01*
X406054Y43243D01*
X404946Y43422D01*
X404512Y43443D01*
X403983Y43433D01*
X402938Y43306D01*
X402454Y43173D01*
X402126Y43036D01*
X401762Y42804D01*
X401665Y42720D01*
X401546Y42596D01*
X401491Y42529D01*
X399263Y50078D01*
X399620Y49942D01*
X400056Y49795D01*
X400350Y49708D01*
X400870Y49578D01*
X401246Y49504D01*
X401699Y49439D01*
X402054Y49406D01*
X402511Y49386D01*
X403021Y49392D01*
X403428Y49414D01*
X403785Y49446D01*
X404166Y49494D01*
X404694Y49586D01*
X405289Y49729D01*
X405509Y49794D01*
X406013Y49969D01*
X406434Y50148D01*
X406708Y50282D01*
X407042Y50468D01*
X407429Y50721D01*
X407596Y50843D01*
X407856Y51057D01*
X408199Y51434D01*
X408377Y51765D01*
X408483Y52132D01*
X408531Y52625D01*
X408518Y52991D01*
X408494Y53222D01*
X408451Y53474D01*
X408382Y53744D01*
X408204Y54194D01*
X408052Y54462D01*
X407839Y54751D01*
X407548Y55036D01*
X407407Y55145D01*
X407127Y55322D01*
X406805Y55482D01*
X406443Y55623D01*
X406098Y55729D01*
X405849Y55791D01*
X405623Y55838D01*
X405016Y55919D01*
X404609Y55939D01*
X404406Y55939D01*
X403923Y55914D01*
X403519Y55866D01*
X402967Y55765D01*
X402372Y55615D01*
X401932Y55478D01*
X401164Y55195D01*
X400859Y55067D01*
X400303Y54811D01*
X399849Y54580D01*
X399226Y54233D01*
X398877Y54022D01*
X398598Y53845D01*
X398301Y53650D01*
X397923Y53391D01*
X397674Y53215D01*
X397343Y52977D01*
X397035Y52752D01*
X396831Y52601D01*
X396647Y52464D01*
X396606Y52434D01*
X393779Y58169D01*
X394332Y58643D01*
X395013Y59109D01*
X395647Y59521D01*
X396291Y59912D01*
X397151Y60377D01*
X397891Y60716D01*
X398529Y60963D01*
X399369Y61231D01*
X399940Y61382D01*
X400811Y61568D01*
X401595Y61696D01*
X402089Y61760D01*
X402686Y61820D01*
X403517Y61877D01*
X404181Y61892D01*
X405171Y61852D01*
D02*
G37*
G36*
X408660Y67710D02*
X408910Y66960D01*
X409360Y66160D01*
X409960Y65260D01*
X410610Y64460D01*
X411160Y63860D01*
X411860Y63260D01*
X412560Y62810D01*
X413410Y62410D01*
X414410Y62060D01*
X415460Y61810D01*
X416410Y61660D01*
X418210D01*
X419110Y61860D01*
X420260Y62210D01*
X421460Y62860D01*
X422310Y63360D01*
X423110Y63910D01*
X424110Y64710D01*
X424760Y65410D01*
X425310Y66060D01*
X429010Y61660D01*
X428410Y61110D01*
X426860Y59860D01*
X425760Y59160D01*
X424060Y58360D01*
X422060Y57660D01*
X420310Y57260D01*
X419010Y57110D01*
X417910Y57060D01*
X417010Y57110D01*
X415760Y57310D01*
X414660Y57660D01*
X413610Y58110D01*
X412910Y58560D01*
X412010Y59310D01*
X411110Y60110D01*
X410110Y61360D01*
X409260Y62560D01*
X408560Y64160D01*
X408110Y66060D01*
Y67610D01*
X408360Y68510D01*
X408660Y67710D01*
D02*
G37*
G36*
X420610Y66710D02*
X416660Y62760D01*
X412760Y66660D01*
X416460Y70860D01*
X420610Y66710D01*
D02*
G37*
G36*
X332062Y121902D02*
X332660Y121450D01*
X333302Y121053D01*
X333987Y120709D01*
X334715Y120420D01*
X335487Y120185D01*
X336301Y120005D01*
X337159Y119879D01*
X338060Y119807D01*
X339005Y119790D01*
X330590Y111375D01*
X330573Y112319D01*
X330501Y113221D01*
X330375Y114079D01*
X330195Y114893D01*
X329960Y115665D01*
X329671Y116393D01*
X329327Y117078D01*
X328930Y117720D01*
X328478Y118318D01*
X327971Y118873D01*
X331507Y122409D01*
X332062Y121902D01*
D02*
G37*
G36*
X192971Y111974D02*
X193659Y111388D01*
X194354Y110871D01*
X195058Y110422D01*
X195770Y110042D01*
X196489Y109732D01*
X197216Y109490D01*
X197951Y109318D01*
X198694Y109214D01*
X199444Y109180D01*
Y104180D01*
X198694Y104145D01*
X197951Y104042D01*
X197216Y103869D01*
X196489Y103628D01*
X195770Y103317D01*
X195058Y102938D01*
X194354Y102490D01*
X193659Y101972D01*
X192971Y101385D01*
X192290Y100730D01*
Y112630D01*
X192971Y111974D01*
D02*
G37*
G36*
X146045Y266003D02*
X146148Y265261D01*
X146320Y264526D01*
X146562Y263799D01*
X146873Y263079D01*
X147252Y262368D01*
X147701Y261664D01*
X148218Y260968D01*
X148805Y260280D01*
X149460Y259600D01*
X137560D01*
X138216Y260280D01*
X138802Y260968D01*
X139319Y261664D01*
X139768Y262368D01*
X140147Y263079D01*
X140458Y263799D01*
X140700Y264526D01*
X140872Y265261D01*
X140976Y266003D01*
X141010Y266754D01*
X146010D01*
X146045Y266003D01*
D02*
G37*
G36*
X151010Y315000D02*
X150060Y314950D01*
X149210Y314800D01*
X148460Y314550D01*
X147810Y314200D01*
X147260Y313750D01*
X146810Y313200D01*
X146460Y312550D01*
X146210Y311800D01*
X146060Y310950D01*
X146010Y310000D01*
X141010D01*
X140960Y310950D01*
X140810Y311800D01*
X140560Y312550D01*
X140210Y313200D01*
X139760Y313750D01*
X139210Y314200D01*
X138560Y314550D01*
X137810Y314800D01*
X136960Y314950D01*
X136010Y315000D01*
X143510Y320000D01*
X151010Y315000D01*
D02*
G37*
G36*
X120339Y314123D02*
X119832Y313568D01*
X119380Y312970D01*
X118983Y312328D01*
X118639Y311643D01*
X118350Y310915D01*
X118115Y310143D01*
X117935Y309329D01*
X117809Y308471D01*
X117737Y307570D01*
X117720Y306625D01*
X109305Y315040D01*
X110250Y315057D01*
X111151Y315129D01*
X112009Y315255D01*
X112823Y315435D01*
X113595Y315670D01*
X114323Y315959D01*
X115008Y316303D01*
X115650Y316700D01*
X116248Y317152D01*
X116803Y317659D01*
X120339Y314123D01*
D02*
G37*
G36*
X199095Y314607D02*
X198866Y314682D01*
X198557Y314748D01*
X198170Y314807D01*
X197159Y314902D01*
X195051Y314984D01*
X193250Y315000D01*
Y320000D01*
X194190Y320004D01*
X198557Y320252D01*
X198866Y320318D01*
X199095Y320393D01*
Y314607D01*
D02*
G37*
G36*
X212020Y391375D02*
X212708Y390788D01*
X213404Y390271D01*
X214108Y389822D01*
X214820Y389442D01*
X215539Y389132D01*
X216266Y388890D01*
X217001Y388718D01*
X217743Y388615D01*
X218494Y388580D01*
Y383580D01*
X217743Y383545D01*
X217001Y383442D01*
X216266Y383270D01*
X215539Y383028D01*
X214820Y382718D01*
X214108Y382338D01*
X213404Y381889D01*
X212708Y381372D01*
X212020Y380785D01*
X211340Y380130D01*
Y392030D01*
X212020Y391375D01*
D02*
G37*
G36*
X266115Y421240D02*
X265528Y420551D01*
X265011Y419856D01*
X264562Y419152D01*
X264182Y418441D01*
X263872Y417721D01*
X263631Y416994D01*
X263458Y416259D01*
X263354Y415517D01*
X263320Y414766D01*
X258320D01*
X258286Y415517D01*
X258182Y416259D01*
X258009Y416994D01*
X257768Y417721D01*
X257458Y418441D01*
X257078Y419152D01*
X256630Y419856D01*
X256112Y420551D01*
X255525Y421240D01*
X254870Y421920D01*
X266770D01*
X266115Y421240D01*
D02*
G37*
G36*
X290171Y331086D02*
X289387Y331115D01*
X288624Y331079D01*
X287880Y330977D01*
X287157Y330811D01*
X286455Y330579D01*
X285772Y330282D01*
X285110Y329920D01*
X284469Y329492D01*
X283848Y328999D01*
X283247Y328441D01*
X279711Y331977D01*
X280269Y332578D01*
X280762Y333199D01*
X281190Y333840D01*
X281552Y334502D01*
X281849Y335185D01*
X282081Y335887D01*
X282247Y336610D01*
X282349Y337354D01*
X282385Y338117D01*
X282356Y338901D01*
X290171Y331086D01*
D02*
G37*
G36*
X260875Y333018D02*
X261183Y332952D01*
X261570Y332893D01*
X262581Y332798D01*
X264690Y332716D01*
X266490Y332700D01*
Y327700D01*
X265550Y327696D01*
X261183Y327448D01*
X260875Y327382D01*
X260645Y327307D01*
Y333093D01*
X260875Y333018D01*
D02*
G37*
G36*
Y320318D02*
X261183Y320252D01*
X261570Y320193D01*
X262581Y320098D01*
X264690Y320016D01*
X266490Y320000D01*
Y315000D01*
X265550Y314996D01*
X261183Y314748D01*
X260875Y314682D01*
X260645Y314607D01*
Y320393D01*
X260875Y320318D01*
D02*
G37*
G36*
X502174Y266978D02*
X502483Y266912D01*
X502870Y266853D01*
X503881Y266758D01*
X505989Y266676D01*
X507790Y266660D01*
Y261660D01*
X506850Y261656D01*
X502483Y261408D01*
X502174Y261342D01*
X501945Y261267D01*
Y267053D01*
X502174Y266978D01*
D02*
G37*
G36*
X526517Y264325D02*
X526314Y264372D01*
X526084Y264365D01*
X525826Y264305D01*
X525542Y264192D01*
X525230Y264026D01*
X524892Y263806D01*
X524526Y263532D01*
X523714Y262826D01*
X523268Y262392D01*
X519732Y265928D01*
X520166Y266374D01*
X520872Y267186D01*
X521146Y267552D01*
X521366Y267890D01*
X521532Y268202D01*
X521645Y268486D01*
X521705Y268744D01*
X521712Y268974D01*
X521665Y269177D01*
X526517Y264325D01*
D02*
G37*
G36*
X440395Y261267D02*
X440165Y261342D01*
X439857Y261408D01*
X439470Y261467D01*
X438459Y261562D01*
X436351Y261644D01*
X434550Y261660D01*
Y266660D01*
X435490Y266664D01*
X439857Y266912D01*
X440165Y266978D01*
X440395Y267053D01*
Y261267D01*
D02*
G37*
G36*
X417485Y274260D02*
X418012Y272465D01*
X418319Y271643D01*
X418655Y270871D01*
X419020Y270150D01*
X419414Y269478D01*
X419837Y268857D01*
X420289Y268286D01*
X420770Y267765D01*
X418038Y263426D01*
X417461Y263949D01*
X416852Y264396D01*
X416211Y264767D01*
X415537Y265061D01*
X414831Y265280D01*
X414093Y265422D01*
X413323Y265488D01*
X412520Y265478D01*
X411686Y265392D01*
X410819Y265230D01*
X417266Y275233D01*
X417485Y274260D01*
D02*
G37*
G36*
X186379Y250623D02*
X185872Y250068D01*
X185420Y249470D01*
X185023Y248828D01*
X184679Y248143D01*
X184390Y247415D01*
X184155Y246643D01*
X183975Y245829D01*
X183849Y244971D01*
X183777Y244069D01*
X183760Y243125D01*
X175345Y251540D01*
X176290Y251557D01*
X177191Y251629D01*
X178049Y251755D01*
X178863Y251935D01*
X179635Y252170D01*
X180363Y252459D01*
X181048Y252803D01*
X181690Y253200D01*
X182288Y253652D01*
X182843Y254159D01*
X186379Y250623D01*
D02*
G37*
D10*
X254370Y304800D02*
D03*
Y317500D02*
D03*
Y330200D02*
D03*
Y342900D02*
D03*
X205370Y304800D02*
D03*
Y317500D02*
D03*
Y330200D02*
D03*
X495670Y238760D02*
D03*
Y251460D02*
D03*
Y264160D02*
D03*
Y276860D02*
D03*
X446670Y238760D02*
D03*
Y251460D02*
D03*
Y264160D02*
D03*
D11*
X205370Y342900D02*
D03*
X446670Y276860D02*
D03*
D12*
X254370Y330200D02*
X281470D01*
X290830Y339560D01*
X254370Y317500D02*
X295910D01*
X306070Y327660D01*
Y359410D01*
X279400Y386080D02*
X306070Y359410D01*
X260820Y386880D02*
Y427990D01*
X205270Y386080D02*
X279400D01*
X109220Y306540D02*
X120180Y317500D01*
X205370Y330200D02*
X215900D01*
X227330Y318770D01*
Y295110D02*
Y318770D01*
X175260Y243040D02*
X227330Y295110D01*
X198120Y297550D02*
X205370Y304800D01*
X198120Y287020D02*
Y297550D01*
X420840Y264160D02*
X446670D01*
X411480Y273520D02*
X420840Y264160D01*
X339890Y251460D02*
X446670D01*
X339090Y252260D02*
X339890Y251460D01*
X495670Y264160D02*
X521500D01*
X529590Y272250D01*
X495670Y251460D02*
X516420D01*
X568960Y198920D01*
X446670Y238760D02*
X447040Y238390D01*
Y219710D02*
Y238390D01*
X186220Y106680D02*
X242570D01*
X262890Y127000D01*
X323380D01*
X339090Y111290D01*
X43980Y80480D02*
X74930Y49530D01*
X43980Y80480D02*
Y129540D01*
X74930Y49530D02*
X114300Y10160D01*
X270980D01*
X286220Y25400D01*
X328498Y239560D02*
X344538Y223520D01*
X419100D02*
X422910Y219710D01*
X447040D01*
X482130D02*
X529590Y172250D01*
X447040Y219710D02*
X482130D01*
X318660Y415400D02*
X544830D01*
X53340D02*
X79900Y441960D01*
X292100D01*
X318660Y415400D01*
X143510Y253530D02*
Y317500D01*
X120180D02*
X143510D01*
X205370D01*
X286220Y106680D02*
X304800D01*
X334010Y77470D01*
X365760D01*
X383540Y95250D01*
Y223520D01*
X344538D02*
X383540D01*
X419100D01*
X318660Y239560D02*
Y415400D01*
X290830Y239560D02*
X328498D01*
X154940Y243840D02*
X198120Y287020D01*
X154940Y184150D02*
Y243840D01*
X129540Y158750D02*
X154940Y184150D01*
X73190Y158750D02*
X129540D01*
X43980Y129540D02*
X73190Y158750D01*
X0Y450000D02*
X600000D01*
Y0D02*
Y450000D01*
X0Y0D02*
X600000D01*
X0D02*
Y450000D01*
D13*
X53340Y364600D02*
D03*
X544830Y415400D02*
D03*
D14*
X53340D02*
D03*
X544830Y364600D02*
D03*
X74930Y49530D02*
D03*
D15*
X125730D02*
D03*
D16*
X23660Y179070D02*
D03*
X123660D02*
D03*
X370370Y332740D02*
D03*
X470370D02*
D03*
X408940Y173520D02*
D03*
Y273520D02*
D03*
X175260Y143040D02*
D03*
Y243040D02*
D03*
Y285280D02*
D03*
Y385280D02*
D03*
X186220Y106680D02*
D03*
X286220D02*
D03*
Y66040D02*
D03*
X186220D02*
D03*
X339090Y352260D02*
D03*
Y252260D02*
D03*
X205270Y386080D02*
D03*
X305270D02*
D03*
X143510Y353530D02*
D03*
Y253530D02*
D03*
X68580Y209080D02*
D03*
Y309080D02*
D03*
X290830Y239560D02*
D03*
Y339560D02*
D03*
X529590Y172250D02*
D03*
Y272250D02*
D03*
X43980Y129540D02*
D03*
X143980D02*
D03*
X24130Y209080D02*
D03*
Y309080D02*
D03*
X286220Y25400D02*
D03*
X186220D02*
D03*
X568960Y298920D02*
D03*
Y198920D02*
D03*
X470370Y377190D02*
D03*
X370370D02*
D03*
X339090Y111290D02*
D03*
Y211290D02*
D03*
X109220Y206540D02*
D03*
Y306540D02*
D03*
X260820Y427990D02*
D03*
X160820D02*
D03*
D17*
X198120Y287020D02*
D03*
X447040Y219710D02*
D03*
M02*
