G04 Layer_Physical_Order=1*
G04 Layer_Color=6759642*
%FSLAX44Y44*%
%MOMM*%
G71*
G01*
G75*
%ADD10C,0.4000*%
%ADD11C,0.2540*%
%ADD12R,1.5000X1.5000*%
%ADD13C,1.5000*%
%ADD14R,1.5000X1.5000*%
%ADD15R,1.8000X1.8000*%
%ADD16C,1.8000*%
%ADD17C,2.4000*%
%ADD18R,2.4000X2.4000*%
%ADD19C,1.7000*%
%ADD20C,3.0000*%
%ADD21C,1.2700*%
G36*
X514350Y6350D02*
X6350D01*
Y514350D01*
X514350D01*
Y6350D01*
D02*
G37*
%LPC*%
G36*
X491490Y297685D02*
X488608Y297306D01*
X485922Y296193D01*
X483616Y294424D01*
X481847Y292118D01*
X480734Y289432D01*
X480355Y286550D01*
X480734Y283668D01*
X481847Y280982D01*
X483616Y278676D01*
X483876Y278477D01*
X484392Y277948D01*
X484973Y277289D01*
X485471Y276658D01*
X485886Y276056D01*
X486222Y275489D01*
X486483Y274957D01*
X486674Y274464D01*
X486801Y274007D01*
X486861Y273657D01*
Y238137D01*
X460363Y211639D01*
X410857D01*
X393494Y229002D01*
X393330Y229225D01*
X393121Y229578D01*
X392931Y229978D01*
X392763Y230431D01*
X392620Y230940D01*
X392505Y231510D01*
X392421Y232140D01*
X392372Y232830D01*
X392363Y233421D01*
X392397Y233680D01*
X392052Y236301D01*
X391040Y238743D01*
X389431Y240841D01*
X388244Y241751D01*
X388675Y243021D01*
X400050D01*
X400050Y243021D01*
X401821Y243373D01*
X403323Y244377D01*
X413397Y254451D01*
X447226D01*
X447499Y254409D01*
X447897Y254308D01*
X448313Y254159D01*
X448752Y253958D01*
X449214Y253698D01*
X449698Y253378D01*
X450203Y252991D01*
X450726Y252538D01*
X451151Y252127D01*
X451309Y251919D01*
X453407Y250310D01*
X455849Y249298D01*
X458470Y248953D01*
X461091Y249298D01*
X463533Y250310D01*
X465631Y251919D01*
X467240Y254017D01*
X468252Y256459D01*
X468597Y259080D01*
X468252Y261701D01*
X467240Y264143D01*
X465631Y266241D01*
X463533Y267850D01*
X461091Y268862D01*
X458470Y269207D01*
X455849Y268862D01*
X453407Y267850D01*
X451309Y266241D01*
X451151Y266034D01*
X450726Y265622D01*
X450203Y265168D01*
X449698Y264783D01*
X449214Y264461D01*
X448752Y264202D01*
X448313Y264001D01*
X447897Y263852D01*
X447499Y263751D01*
X447226Y263709D01*
X411480D01*
X411480Y263709D01*
X409709Y263357D01*
X408207Y262353D01*
X408207Y262353D01*
X398133Y252279D01*
X391142D01*
X390580Y253418D01*
X391040Y254017D01*
X392052Y256459D01*
X392397Y259080D01*
X392052Y261701D01*
X391040Y264143D01*
X389431Y266241D01*
X387333Y267850D01*
X384891Y268862D01*
X382270Y269207D01*
X379649Y268862D01*
X377207Y267850D01*
X375109Y266241D01*
X373500Y264143D01*
X372488Y261701D01*
X372143Y259080D01*
X372488Y256459D01*
X373500Y254017D01*
X373960Y253418D01*
X373398Y252279D01*
X325120D01*
X325120Y252279D01*
X323349Y251927D01*
X321847Y250923D01*
X315872Y244948D01*
X315275Y245034D01*
X315071Y245299D01*
X314769Y246389D01*
X316110Y248137D01*
X317122Y250579D01*
X317467Y253200D01*
X317122Y255821D01*
X316110Y258263D01*
X314501Y260361D01*
X312403Y261970D01*
X309961Y262982D01*
X307340Y263327D01*
X304719Y262982D01*
X302277Y261970D01*
X300179Y260361D01*
X298570Y258263D01*
X297558Y255821D01*
X297213Y253200D01*
X297558Y250579D01*
X298570Y248137D01*
X300179Y246039D01*
X300411Y245862D01*
X300003Y244659D01*
X238477D01*
X238069Y245862D01*
X238301Y246039D01*
X239910Y248137D01*
X240922Y250579D01*
X241267Y253200D01*
X240922Y255821D01*
X239910Y258263D01*
X238301Y260361D01*
X236203Y261970D01*
X233761Y262982D01*
X231140Y263327D01*
X228519Y262982D01*
X226077Y261970D01*
X223979Y260361D01*
X222370Y258263D01*
X221358Y255821D01*
X221013Y253200D01*
X221358Y250579D01*
X222370Y248137D01*
X223979Y246039D01*
X224211Y245862D01*
X223803Y244659D01*
X190995D01*
X190912Y245929D01*
X191310Y245981D01*
X193382Y246254D01*
X196068Y247367D01*
X198374Y249136D01*
X200143Y251442D01*
X201256Y254128D01*
X201468Y255740D01*
X190500D01*
X179532D01*
X179744Y254128D01*
X180857Y251442D01*
X182626Y249136D01*
X184932Y247367D01*
X187618Y246254D01*
X189690Y245981D01*
X190088Y245929D01*
X190005Y244659D01*
X184797D01*
X154403Y275053D01*
X152901Y276057D01*
X151462Y276343D01*
X151264Y276588D01*
X151025Y277139D01*
X150947Y277679D01*
X152280Y279417D01*
X153292Y281859D01*
X153637Y284480D01*
X153292Y287101D01*
X152280Y289543D01*
X150671Y291641D01*
X148573Y293250D01*
X146131Y294262D01*
X143510Y294607D01*
X140889Y294262D01*
X138447Y293250D01*
X136349Y291641D01*
X134740Y289543D01*
X133728Y287101D01*
X133383Y284480D01*
X133728Y281859D01*
X134740Y279417D01*
X136074Y277679D01*
X135580Y276409D01*
X96944D01*
X96770Y276432D01*
X96437Y276505D01*
X96105Y276609D01*
X95773Y276745D01*
X95436Y276918D01*
X95092Y277131D01*
X94740Y277386D01*
X94380Y277688D01*
X94083Y277973D01*
X93970Y278120D01*
X92113Y279545D01*
X89951Y280441D01*
X87630Y280747D01*
X85309Y280441D01*
X83147Y279545D01*
X81290Y278120D01*
X79865Y276263D01*
X78969Y274101D01*
X78663Y271780D01*
X78969Y269459D01*
X79865Y267297D01*
X81290Y265440D01*
X83147Y264015D01*
X85309Y263119D01*
X87630Y262813D01*
X89951Y263119D01*
X92113Y264015D01*
X93970Y265440D01*
X94083Y265586D01*
X94380Y265872D01*
X94740Y266174D01*
X95092Y266429D01*
X95436Y266642D01*
X95773Y266814D01*
X96105Y266951D01*
X96437Y267055D01*
X96770Y267129D01*
X96944Y267151D01*
X135580D01*
X136074Y265881D01*
X134740Y264143D01*
X133728Y261701D01*
X133383Y259080D01*
X133728Y256459D01*
X134740Y254017D01*
X136349Y251919D01*
X138447Y250310D01*
X140889Y249298D01*
X143510Y248953D01*
X146131Y249298D01*
X148573Y250310D01*
X150671Y251919D01*
X152280Y254017D01*
X153292Y256459D01*
X153637Y259080D01*
X153356Y261212D01*
X154559Y261805D01*
X179607Y236757D01*
X181109Y235753D01*
X182880Y235401D01*
X182880Y235401D01*
X222717D01*
X223343Y234131D01*
X222370Y232863D01*
X221358Y230421D01*
X221013Y227800D01*
X221358Y225179D01*
X222370Y222737D01*
X223979Y220639D01*
X226077Y219030D01*
X228519Y218018D01*
X231140Y217673D01*
X233761Y218018D01*
X236203Y219030D01*
X238301Y220639D01*
X239910Y222737D01*
X240922Y225179D01*
X241267Y227800D01*
X240922Y230421D01*
X239910Y232863D01*
X238937Y234131D01*
X239564Y235401D01*
X298916D01*
X299543Y234131D01*
X298570Y232863D01*
X297558Y230421D01*
X297213Y227800D01*
X297558Y225179D01*
X298570Y222737D01*
X300179Y220639D01*
X302277Y219030D01*
X304719Y218018D01*
X307340Y217673D01*
X309961Y218018D01*
X312403Y219030D01*
X314501Y220639D01*
X316110Y222737D01*
X317122Y225179D01*
X317467Y227800D01*
X317122Y230421D01*
X316110Y232863D01*
X315137Y234131D01*
X315763Y235401D01*
X317500D01*
X317500Y235401D01*
X319271Y235753D01*
X320773Y236757D01*
X327037Y243021D01*
X375865D01*
X376296Y241751D01*
X375109Y240841D01*
X373500Y238743D01*
X372488Y236301D01*
X372143Y233680D01*
X372488Y231059D01*
X373500Y228617D01*
X375109Y226519D01*
X377207Y224910D01*
X379649Y223898D01*
X382270Y223553D01*
X382529Y223587D01*
X383120Y223578D01*
X383810Y223529D01*
X384440Y223445D01*
X385010Y223330D01*
X385519Y223186D01*
X385972Y223019D01*
X386372Y222829D01*
X386725Y222620D01*
X386948Y222456D01*
X405667Y203737D01*
X405667Y203737D01*
X407169Y202733D01*
X408940Y202381D01*
X462280D01*
X462280Y202381D01*
X464051Y202733D01*
X465553Y203737D01*
X494763Y232947D01*
X494763Y232947D01*
X495767Y234449D01*
X496119Y236220D01*
X496119Y236220D01*
Y273657D01*
X496179Y274007D01*
X496306Y274464D01*
X496497Y274957D01*
X496758Y275489D01*
X497094Y276057D01*
X497489Y276628D01*
X498613Y277973D01*
X499104Y278477D01*
X499364Y278676D01*
X501133Y280982D01*
X502246Y283668D01*
X502625Y286550D01*
X502246Y289432D01*
X501133Y292118D01*
X499364Y294424D01*
X497058Y296193D01*
X494372Y297306D01*
X491490Y297685D01*
D02*
G37*
G36*
X279400Y119347D02*
X276779Y119002D01*
X274337Y117990D01*
X272239Y116381D01*
X270630Y114283D01*
X269618Y111841D01*
X269273Y109220D01*
X269618Y106599D01*
X270630Y104157D01*
X272239Y102059D01*
X274337Y100450D01*
X276779Y99438D01*
X279400Y99093D01*
X282021Y99438D01*
X284463Y100450D01*
X286561Y102059D01*
X288170Y104157D01*
X289182Y106599D01*
X289527Y109220D01*
X289182Y111841D01*
X288170Y114283D01*
X286561Y116381D01*
X284463Y117990D01*
X282021Y119002D01*
X279400Y119347D01*
D02*
G37*
G36*
X77269Y257810D02*
X68580D01*
Y249121D01*
X69931Y249298D01*
X72373Y250310D01*
X74471Y251919D01*
X76080Y254017D01*
X77092Y256459D01*
X77269Y257810D01*
D02*
G37*
G36*
X189230Y267978D02*
X187618Y267766D01*
X184932Y266653D01*
X182626Y264884D01*
X180857Y262578D01*
X179744Y259892D01*
X179532Y258280D01*
X189230D01*
Y267978D01*
D02*
G37*
G36*
X254000Y119347D02*
X251379Y119002D01*
X248937Y117990D01*
X246839Y116381D01*
X245230Y114283D01*
X244218Y111841D01*
X243873Y109220D01*
X244218Y106599D01*
X245230Y104157D01*
X246839Y102059D01*
X248937Y100450D01*
X251379Y99438D01*
X254000Y99093D01*
X256621Y99438D01*
X259063Y100450D01*
X261161Y102059D01*
X262770Y104157D01*
X263782Y106599D01*
X264127Y109220D01*
X263782Y111841D01*
X262770Y114283D01*
X261161Y116381D01*
X259063Y117990D01*
X256621Y119002D01*
X254000Y119347D01*
D02*
G37*
G36*
X66040Y257810D02*
X61954D01*
Y253830D01*
X61317Y254447D01*
X60680Y255000D01*
X60043Y255487D01*
X59405Y255910D01*
X58768Y256268D01*
X58131Y256560D01*
X57494Y256787D01*
X57485Y256790D01*
X57528Y256459D01*
X58540Y254017D01*
X60149Y251919D01*
X62247Y250310D01*
X64689Y249298D01*
X66040Y249121D01*
Y257810D01*
D02*
G37*
G36*
X465970Y243770D02*
X450970D01*
X449979Y243573D01*
X449139Y243011D01*
X448577Y242171D01*
X448380Y241180D01*
Y226180D01*
X448577Y225189D01*
X449139Y224349D01*
X449979Y223787D01*
X450970Y223590D01*
X465970D01*
X466961Y223787D01*
X467801Y224349D01*
X468363Y225189D01*
X468560Y226180D01*
Y241180D01*
X468363Y242171D01*
X467801Y243011D01*
X466961Y243573D01*
X465970Y243770D01*
D02*
G37*
G36*
X241099Y201130D02*
X232410D01*
Y197044D01*
X236390D01*
X235772Y196407D01*
X235220Y195770D01*
X234732Y195133D01*
X234310Y194495D01*
X233953Y193858D01*
X233660Y193221D01*
X233433Y192584D01*
X233430Y192575D01*
X233761Y192618D01*
X236203Y193630D01*
X238301Y195239D01*
X239910Y197337D01*
X240922Y199779D01*
X241099Y201130D01*
D02*
G37*
G36*
X229870D02*
X221181D01*
X221358Y199779D01*
X222370Y197337D01*
X223979Y195239D01*
X226077Y193630D01*
X228519Y192618D01*
X228850Y192575D01*
X228848Y192584D01*
X228620Y193221D01*
X228328Y193858D01*
X227970Y194495D01*
X227547Y195133D01*
X227060Y195770D01*
X226507Y196407D01*
X225890Y197044D01*
X229870D01*
Y201130D01*
D02*
G37*
G36*
X307340Y212527D02*
X304719Y212182D01*
X302277Y211170D01*
X300179Y209561D01*
X298570Y207463D01*
X297558Y205021D01*
X297213Y202400D01*
X297558Y199779D01*
X298570Y197337D01*
X300179Y195239D01*
X302277Y193630D01*
X304719Y192618D01*
X307340Y192273D01*
X309961Y192618D01*
X312403Y193630D01*
X314501Y195239D01*
X316110Y197337D01*
X317122Y199779D01*
X317467Y202400D01*
X317122Y205021D01*
X316110Y207463D01*
X314501Y209561D01*
X312403Y211170D01*
X309961Y212182D01*
X307340Y212527D01*
D02*
G37*
G36*
X232410Y212359D02*
Y203670D01*
X241099D01*
X240922Y205021D01*
X239910Y207463D01*
X238301Y209561D01*
X236203Y211170D01*
X233761Y212182D01*
X232410Y212359D01*
D02*
G37*
G36*
X229870D02*
X228519Y212182D01*
X226077Y211170D01*
X223979Y209561D01*
X222370Y207463D01*
X221358Y205021D01*
X221181Y203670D01*
X229870D01*
Y212359D01*
D02*
G37*
G36*
X356870Y225295D02*
X353988Y224916D01*
X351302Y223803D01*
X348996Y222034D01*
X347227Y219728D01*
X346114Y217042D01*
X345735Y214160D01*
X346114Y211278D01*
X347227Y208592D01*
X348996Y206286D01*
X351302Y204517D01*
X353988Y203404D01*
X356870Y203025D01*
X359752Y203404D01*
X362438Y204517D01*
X364744Y206286D01*
X366513Y208592D01*
X367626Y211278D01*
X368005Y214160D01*
X367626Y217042D01*
X366513Y219728D01*
X364744Y222034D01*
X362438Y223803D01*
X359752Y224916D01*
X356870Y225295D01*
D02*
G37*
G36*
X231140Y314127D02*
X228519Y313782D01*
X226077Y312770D01*
X223979Y311161D01*
X222370Y309063D01*
X221358Y306621D01*
X221013Y304000D01*
X221358Y301379D01*
X222370Y298937D01*
X223979Y296839D01*
X226077Y295230D01*
X228519Y294218D01*
X231140Y293873D01*
X233761Y294218D01*
X236203Y295230D01*
X238301Y296839D01*
X239910Y298937D01*
X240922Y301379D01*
X241267Y304000D01*
X240922Y306621D01*
X239910Y309063D01*
X238301Y311161D01*
X236203Y312770D01*
X233761Y313782D01*
X231140Y314127D01*
D02*
G37*
G36*
X30000Y47662D02*
X29874Y47637D01*
X29746Y47650D01*
X26806Y47360D01*
X26562Y47286D01*
X26308Y47261D01*
X23480Y46403D01*
X23255Y46283D01*
X23011Y46209D01*
X20405Y44816D01*
X20208Y44654D01*
X19983Y44534D01*
X17699Y42660D01*
X17537Y42463D01*
X17340Y42301D01*
X15466Y40017D01*
X15345Y39792D01*
X15184Y39595D01*
X13791Y36989D01*
X13717Y36745D01*
X13597Y36520D01*
X12739Y33692D01*
X12714Y33438D01*
X12640Y33194D01*
X12350Y30254D01*
X12375Y30000D01*
X12350Y29746D01*
X12640Y26806D01*
X12714Y26562D01*
X12739Y26308D01*
X13597Y23480D01*
X13717Y23255D01*
X13791Y23011D01*
X15184Y20405D01*
X15345Y20208D01*
X15466Y19983D01*
X17340Y17699D01*
X17537Y17537D01*
X17699Y17340D01*
X19983Y15466D01*
X20208Y15345D01*
X20405Y15184D01*
X23011Y13791D01*
X23255Y13717D01*
X23480Y13597D01*
X26308Y12739D01*
X26562Y12714D01*
X26806Y12640D01*
X29746Y12350D01*
X29874Y12363D01*
X30000Y12338D01*
X30126Y12363D01*
X30254Y12350D01*
X33194Y12640D01*
X33438Y12714D01*
X33692Y12739D01*
X36520Y13597D01*
X36745Y13717D01*
X36989Y13791D01*
X39595Y15184D01*
X39792Y15345D01*
X40017Y15466D01*
X42301Y17340D01*
X42463Y17537D01*
X42660Y17699D01*
X44534Y19983D01*
X44654Y20208D01*
X44816Y20405D01*
X46209Y23011D01*
X46283Y23255D01*
X46403Y23480D01*
X47261Y26308D01*
X47286Y26562D01*
X47360Y26806D01*
X47650Y29746D01*
X47625Y30000D01*
X47650Y30254D01*
X47360Y33194D01*
X47286Y33438D01*
X47261Y33692D01*
X46403Y36520D01*
X46283Y36745D01*
X46209Y36989D01*
X44816Y39595D01*
X44654Y39792D01*
X44534Y40017D01*
X42660Y42301D01*
X42463Y42463D01*
X42301Y42660D01*
X40017Y44534D01*
X39792Y44654D01*
X39595Y44816D01*
X36989Y46209D01*
X36745Y46283D01*
X36520Y46403D01*
X33692Y47261D01*
X33438Y47286D01*
X33194Y47360D01*
X30254Y47650D01*
X30126Y47637D01*
X30000Y47662D01*
D02*
G37*
G36*
X458470Y294607D02*
X455849Y294262D01*
X453407Y293250D01*
X451309Y291641D01*
X449700Y289543D01*
X448688Y287101D01*
X448343Y284480D01*
X448688Y281859D01*
X449700Y279417D01*
X451309Y277319D01*
X453407Y275710D01*
X455849Y274698D01*
X458470Y274353D01*
X461091Y274698D01*
X463533Y275710D01*
X465631Y277319D01*
X467240Y279417D01*
X468252Y281859D01*
X468597Y284480D01*
X468252Y287101D01*
X467240Y289543D01*
X465631Y291641D01*
X463533Y293250D01*
X461091Y294262D01*
X458470Y294607D01*
D02*
G37*
G36*
X357890Y42845D02*
X357892Y42836D01*
X358120Y42199D01*
X358413Y41562D01*
X358770Y40925D01*
X359193Y40287D01*
X359680Y39650D01*
X360233Y39013D01*
X360850Y38376D01*
X356870D01*
Y34290D01*
X365559D01*
X365382Y35641D01*
X364370Y38083D01*
X362761Y40181D01*
X360663Y41790D01*
X358221Y42802D01*
X357890Y42845D01*
D02*
G37*
G36*
X127000Y67815D02*
X124118Y67436D01*
X121432Y66323D01*
X119126Y64554D01*
X117357Y62248D01*
X116244Y59562D01*
X115865Y56680D01*
X116244Y53798D01*
X117357Y51112D01*
X119126Y48806D01*
X121432Y47037D01*
X124118Y45924D01*
X127000Y45545D01*
X129882Y45924D01*
X132568Y47037D01*
X134874Y48806D01*
X136643Y51112D01*
X137756Y53798D01*
X138135Y56680D01*
X137756Y59562D01*
X136643Y62248D01*
X134874Y64554D01*
X132568Y66323D01*
X129882Y67436D01*
X127000Y67815D01*
D02*
G37*
G36*
X458470Y320007D02*
X455849Y319662D01*
X453407Y318650D01*
X451309Y317041D01*
X449700Y314943D01*
X448688Y312501D01*
X448343Y309880D01*
X448688Y307259D01*
X449700Y304817D01*
X451309Y302719D01*
X453407Y301110D01*
X455849Y300098D01*
X458470Y299753D01*
X461091Y300098D01*
X463533Y301110D01*
X465631Y302719D01*
X467240Y304817D01*
X468252Y307259D01*
X468597Y309880D01*
X468252Y312501D01*
X467240Y314943D01*
X465631Y317041D01*
X463533Y318650D01*
X461091Y319662D01*
X458470Y320007D01*
D02*
G37*
G36*
X382270Y294607D02*
X379649Y294262D01*
X377207Y293250D01*
X375109Y291641D01*
X373500Y289543D01*
X372488Y287101D01*
X372143Y284480D01*
X372488Y281859D01*
X373500Y279417D01*
X375109Y277319D01*
X377207Y275710D01*
X379649Y274698D01*
X382270Y274353D01*
X384891Y274698D01*
X387333Y275710D01*
X389431Y277319D01*
X391040Y279417D01*
X392052Y281859D01*
X392397Y284480D01*
X392052Y287101D01*
X391040Y289543D01*
X389431Y291641D01*
X387333Y293250D01*
X384891Y294262D01*
X382270Y294607D01*
D02*
G37*
G36*
X68580Y269039D02*
Y260350D01*
X77269D01*
X77092Y261701D01*
X76080Y264143D01*
X74471Y266241D01*
X72373Y267850D01*
X69931Y268862D01*
X68580Y269039D01*
D02*
G37*
G36*
X66040D02*
X64689Y268862D01*
X62247Y267850D01*
X60149Y266241D01*
X58540Y264143D01*
X57528Y261701D01*
X57485Y261370D01*
X57494Y261373D01*
X58131Y261600D01*
X58768Y261893D01*
X59405Y262250D01*
X60043Y262673D01*
X60680Y263160D01*
X61317Y263713D01*
X61954Y264330D01*
Y260350D01*
X66040D01*
Y269039D01*
D02*
G37*
G36*
X191770Y267978D02*
Y258280D01*
X201468D01*
X201256Y259892D01*
X200143Y262578D01*
X198374Y264884D01*
X196068Y266653D01*
X193382Y267766D01*
X191770Y267978D01*
D02*
G37*
G36*
X490000Y47662D02*
X489874Y47637D01*
X489746Y47650D01*
X486806Y47360D01*
X486562Y47286D01*
X486308Y47261D01*
X483480Y46403D01*
X483255Y46283D01*
X483011Y46209D01*
X480405Y44816D01*
X480208Y44654D01*
X479983Y44534D01*
X477699Y42660D01*
X477537Y42463D01*
X477340Y42301D01*
X475466Y40017D01*
X475345Y39792D01*
X475184Y39595D01*
X473791Y36989D01*
X473717Y36745D01*
X473596Y36520D01*
X472739Y33692D01*
X472714Y33438D01*
X472640Y33194D01*
X472350Y30254D01*
X472375Y30000D01*
X472350Y29746D01*
X472640Y26806D01*
X472714Y26562D01*
X472739Y26308D01*
X473596Y23480D01*
X473717Y23255D01*
X473791Y23011D01*
X475184Y20405D01*
X475345Y20208D01*
X475466Y19983D01*
X477340Y17699D01*
X477537Y17537D01*
X477699Y17340D01*
X479983Y15466D01*
X480208Y15345D01*
X480405Y15184D01*
X483011Y13791D01*
X483255Y13717D01*
X483480Y13597D01*
X486308Y12739D01*
X486562Y12714D01*
X486806Y12640D01*
X489746Y12350D01*
X489874Y12363D01*
X490000Y12338D01*
X490126Y12363D01*
X490254Y12350D01*
X493194Y12640D01*
X493438Y12714D01*
X493692Y12739D01*
X496520Y13597D01*
X496745Y13717D01*
X496989Y13791D01*
X499595Y15184D01*
X499792Y15345D01*
X500017Y15466D01*
X502301Y17340D01*
X502463Y17537D01*
X502660Y17699D01*
X504534Y19983D01*
X504655Y20208D01*
X504816Y20405D01*
X506209Y23011D01*
X506283Y23255D01*
X506404Y23480D01*
X507261Y26308D01*
X507286Y26562D01*
X507360Y26806D01*
X507650Y29746D01*
X507625Y30000D01*
X507650Y30254D01*
X507360Y33194D01*
X507286Y33438D01*
X507261Y33692D01*
X506404Y36520D01*
X506283Y36745D01*
X506209Y36989D01*
X504816Y39595D01*
X504655Y39792D01*
X504534Y40017D01*
X502660Y42301D01*
X502463Y42463D01*
X502301Y42660D01*
X500017Y44534D01*
X499792Y44654D01*
X499595Y44816D01*
X496989Y46209D01*
X496745Y46283D01*
X496520Y46403D01*
X493692Y47261D01*
X493438Y47286D01*
X493194Y47360D01*
X490254Y47650D01*
X490126Y47637D01*
X490000Y47662D01*
D02*
G37*
G36*
X203200Y119347D02*
X200579Y119002D01*
X198137Y117990D01*
X196039Y116381D01*
X194430Y114283D01*
X193418Y111841D01*
X193073Y109220D01*
X193418Y106599D01*
X194430Y104157D01*
X196039Y102059D01*
X198137Y100450D01*
X200579Y99438D01*
X203200Y99093D01*
X205821Y99438D01*
X208263Y100450D01*
X210361Y102059D01*
X211970Y104157D01*
X212982Y106599D01*
X213327Y109220D01*
X212982Y111841D01*
X211970Y114283D01*
X210361Y116381D01*
X208263Y117990D01*
X205821Y119002D01*
X203200Y119347D01*
D02*
G37*
G36*
X228600D02*
X225979Y119002D01*
X223537Y117990D01*
X221439Y116381D01*
X219830Y114283D01*
X218818Y111841D01*
X218473Y109220D01*
X218818Y106599D01*
X219830Y104157D01*
X221439Y102059D01*
X223537Y100450D01*
X225979Y99438D01*
X228600Y99093D01*
X231221Y99438D01*
X233663Y100450D01*
X235761Y102059D01*
X237370Y104157D01*
X238382Y106599D01*
X238727Y109220D01*
X238382Y111841D01*
X237370Y114283D01*
X235761Y116381D01*
X233663Y117990D01*
X231221Y119002D01*
X228600Y119347D01*
D02*
G37*
G36*
X137968Y155410D02*
X128270D01*
Y150610D01*
X132950D01*
X132199Y149840D01*
X130935Y148327D01*
X130422Y147585D01*
X129987Y146851D01*
X129632Y146126D01*
X129536Y145879D01*
X129882Y145924D01*
X132568Y147037D01*
X134874Y148806D01*
X136643Y151112D01*
X137756Y153798D01*
X137968Y155410D01*
D02*
G37*
G36*
X125730D02*
X116032D01*
X116244Y153798D01*
X117357Y151112D01*
X119126Y148806D01*
X121432Y147037D01*
X124118Y145924D01*
X124464Y145879D01*
X124368Y146126D01*
X124012Y146851D01*
X123578Y147585D01*
X123064Y148327D01*
X122472Y149079D01*
X121800Y149840D01*
X121050Y150610D01*
X125730D01*
Y155410D01*
D02*
G37*
G36*
X190500Y168145D02*
X187618Y167766D01*
X184932Y166653D01*
X182626Y164884D01*
X180857Y162578D01*
X179744Y159892D01*
X179365Y157010D01*
X179744Y154128D01*
X180857Y151442D01*
X182626Y149136D01*
X184932Y147367D01*
X187618Y146254D01*
X190500Y145875D01*
X193382Y146254D01*
X196068Y147367D01*
X198374Y149136D01*
X200143Y151442D01*
X201256Y154128D01*
X201635Y157010D01*
X201256Y159892D01*
X200143Y162578D01*
X198374Y164884D01*
X196068Y166653D01*
X193382Y167766D01*
X190500Y168145D01*
D02*
G37*
G36*
X359410Y161367D02*
X357089Y161061D01*
X354927Y160165D01*
X353070Y158740D01*
X352957Y158594D01*
X352660Y158308D01*
X352300Y158006D01*
X351948Y157751D01*
X351604Y157538D01*
X351267Y157366D01*
X350935Y157229D01*
X350603Y157125D01*
X350270Y157051D01*
X350096Y157029D01*
X281094D01*
X280921Y157051D01*
X280587Y157125D01*
X280255Y157229D01*
X279923Y157366D01*
X279586Y157538D01*
X279242Y157751D01*
X278890Y158006D01*
X278530Y158308D01*
X278233Y158593D01*
X278120Y158740D01*
X276263Y160165D01*
X274101Y161061D01*
X271780Y161367D01*
X269459Y161061D01*
X267297Y160165D01*
X265440Y158740D01*
X264015Y156883D01*
X263119Y154721D01*
X262813Y152400D01*
X263119Y150079D01*
X264015Y147917D01*
X265440Y146060D01*
X267297Y144635D01*
X269459Y143739D01*
X271780Y143433D01*
X274101Y143739D01*
X276263Y144635D01*
X278120Y146060D01*
X278233Y146207D01*
X278530Y146492D01*
X278890Y146794D01*
X279242Y147049D01*
X279586Y147262D01*
X279923Y147435D01*
X280255Y147571D01*
X280587Y147675D01*
X280921Y147748D01*
X281094Y147771D01*
X350096D01*
X350270Y147748D01*
X350603Y147675D01*
X350935Y147571D01*
X351267Y147435D01*
X351604Y147262D01*
X351948Y147049D01*
X352300Y146794D01*
X352660Y146492D01*
X352957Y146207D01*
X353070Y146060D01*
X354927Y144635D01*
X357089Y143739D01*
X359410Y143433D01*
X361731Y143739D01*
X363893Y144635D01*
X365750Y146060D01*
X367175Y147917D01*
X368071Y150079D01*
X368377Y152400D01*
X368071Y154721D01*
X367175Y156883D01*
X365750Y158740D01*
X363893Y160165D01*
X361731Y161061D01*
X359410Y161367D01*
D02*
G37*
G36*
X328930Y107950D02*
X320241D01*
X320418Y106599D01*
X321430Y104157D01*
X323039Y102059D01*
X325137Y100450D01*
X327579Y99438D01*
X328930Y99261D01*
Y107950D01*
D02*
G37*
G36*
X331470Y101685D02*
Y99261D01*
X332821Y99438D01*
X335263Y100450D01*
X335528Y100653D01*
X335520Y100658D01*
X334909Y100947D01*
X334251Y101191D01*
X333548Y101389D01*
X332799Y101541D01*
X332003Y101647D01*
X331470Y101685D01*
D02*
G37*
G36*
X328930Y119179D02*
X327579Y119002D01*
X325137Y117990D01*
X324872Y117787D01*
X324880Y117782D01*
X325491Y117493D01*
X326149Y117249D01*
X326852Y117051D01*
X327601Y116899D01*
X328397Y116793D01*
X328930Y116755D01*
Y119179D01*
D02*
G37*
G36*
X64070Y137780D02*
X40070D01*
X39079Y137583D01*
X38239Y137021D01*
X37677Y136181D01*
X37480Y135190D01*
Y111190D01*
X37677Y110199D01*
X38239Y109359D01*
X39079Y108797D01*
X40070Y108600D01*
X64070D01*
X65061Y108797D01*
X65901Y109359D01*
X66463Y110199D01*
X66660Y111190D01*
Y135190D01*
X66463Y136181D01*
X65901Y137021D01*
X65061Y137583D01*
X64070Y137780D01*
D02*
G37*
G36*
X340159Y107950D02*
X337735D01*
X337773Y107417D01*
X337879Y106621D01*
X338031Y105872D01*
X338229Y105169D01*
X338473Y104511D01*
X338762Y103900D01*
X338767Y103892D01*
X338970Y104157D01*
X339982Y106599D01*
X340159Y107950D01*
D02*
G37*
G36*
X336505D02*
X331470D01*
Y102915D01*
X336505Y107950D01*
D02*
G37*
G36*
X331470Y119179D02*
Y110490D01*
X340159D01*
X339982Y111841D01*
X338970Y114283D01*
X337361Y116381D01*
X335263Y117990D01*
X332821Y119002D01*
X331470Y119179D01*
D02*
G37*
G36*
X328930Y115525D02*
X323895Y110490D01*
X328930D01*
Y115525D01*
D02*
G37*
G36*
X321633Y114548D02*
X321430Y114283D01*
X320418Y111841D01*
X320241Y110490D01*
X322665D01*
X322627Y111023D01*
X322521Y111819D01*
X322369Y112568D01*
X322171Y113271D01*
X321927Y113929D01*
X321638Y114540D01*
X321633Y114548D01*
D02*
G37*
G36*
X50800Y184839D02*
X41221Y175260D01*
X50800D01*
Y184839D01*
D02*
G37*
G36*
X39432Y181404D02*
X39369Y181323D01*
X37904Y177786D01*
X37572Y175260D01*
X40062D01*
X40058Y175842D01*
X39850Y178947D01*
X39654Y180319D01*
X39432Y181404D01*
D02*
G37*
G36*
X304800Y119347D02*
X302179Y119002D01*
X299737Y117990D01*
X297639Y116381D01*
X296030Y114283D01*
X295018Y111841D01*
X294673Y109220D01*
X295018Y106599D01*
X296030Y104157D01*
X297639Y102059D01*
X299737Y100450D01*
X302179Y99438D01*
X304800Y99093D01*
X307421Y99438D01*
X309863Y100450D01*
X311961Y102059D01*
X313570Y104157D01*
X314582Y106599D01*
X314927Y109220D01*
X314582Y111841D01*
X313570Y114283D01*
X311961Y116381D01*
X309863Y117990D01*
X307421Y119002D01*
X304800Y119347D01*
D02*
G37*
G36*
X50800Y188488D02*
X48274Y188156D01*
X44737Y186691D01*
X44656Y186628D01*
X45741Y186406D01*
X47113Y186210D01*
X50218Y186002D01*
X50800Y185998D01*
Y188488D01*
D02*
G37*
G36*
X440690Y184227D02*
X438369Y183921D01*
X436207Y183025D01*
X434350Y181600D01*
X434237Y181453D01*
X433940Y181168D01*
X433580Y180866D01*
X433228Y180611D01*
X432884Y180398D01*
X432547Y180226D01*
X432215Y180089D01*
X431883Y179985D01*
X431549Y179911D01*
X431376Y179889D01*
X330624D01*
X330451Y179911D01*
X330117Y179985D01*
X329785Y180089D01*
X329453Y180226D01*
X329116Y180398D01*
X328772Y180611D01*
X328420Y180866D01*
X328060Y181168D01*
X327763Y181453D01*
X327650Y181600D01*
X325793Y183025D01*
X323631Y183921D01*
X321310Y184227D01*
X318989Y183921D01*
X316827Y183025D01*
X314970Y181600D01*
X313545Y179743D01*
X312649Y177581D01*
X312343Y175260D01*
X312649Y172939D01*
X313545Y170777D01*
X314970Y168920D01*
X316827Y167495D01*
X318989Y166599D01*
X321310Y166293D01*
X323631Y166599D01*
X325793Y167495D01*
X327650Y168920D01*
X327763Y169067D01*
X328060Y169352D01*
X328420Y169654D01*
X328772Y169909D01*
X329116Y170122D01*
X329453Y170294D01*
X329785Y170431D01*
X330117Y170535D01*
X330451Y170609D01*
X330624Y170631D01*
X431376D01*
X431549Y170609D01*
X431883Y170535D01*
X432215Y170431D01*
X432547Y170294D01*
X432884Y170122D01*
X433228Y169909D01*
X433580Y169654D01*
X433940Y169352D01*
X434237Y169067D01*
X434350Y168920D01*
X436207Y167495D01*
X438369Y166599D01*
X440690Y166293D01*
X443011Y166599D01*
X445173Y167495D01*
X447030Y168920D01*
X448455Y170777D01*
X449351Y172939D01*
X449657Y175260D01*
X449351Y177581D01*
X448455Y179743D01*
X447030Y181600D01*
X445173Y183025D01*
X443011Y183921D01*
X440690Y184227D01*
D02*
G37*
G36*
X53340Y188488D02*
Y175260D01*
X66568D01*
X66236Y177786D01*
X64771Y181323D01*
X62440Y184360D01*
X59403Y186691D01*
X55866Y188156D01*
X53340Y188488D01*
D02*
G37*
G36*
X355600Y119347D02*
X352979Y119002D01*
X350537Y117990D01*
X348439Y116381D01*
X346830Y114283D01*
X345818Y111841D01*
X345473Y109220D01*
X345818Y106599D01*
X346830Y104157D01*
X348439Y102059D01*
X350537Y100450D01*
X352979Y99438D01*
X355600Y99093D01*
X358221Y99438D01*
X360663Y100450D01*
X362761Y102059D01*
X364370Y104157D01*
X365382Y106599D01*
X365727Y109220D01*
X365382Y111841D01*
X364370Y114283D01*
X362761Y116381D01*
X360663Y117990D01*
X358221Y119002D01*
X355600Y119347D01*
D02*
G37*
G36*
X50800Y172720D02*
X37572D01*
X37904Y170194D01*
X39369Y166657D01*
X41700Y163620D01*
X44737Y161289D01*
X48274Y159824D01*
X50800Y159492D01*
Y172720D01*
D02*
G37*
G36*
X128270Y167648D02*
Y157950D01*
X137968D01*
X137756Y159562D01*
X136643Y162248D01*
X134874Y164554D01*
X132568Y166323D01*
X129882Y167436D01*
X128270Y167648D01*
D02*
G37*
G36*
X125730D02*
X124118Y167436D01*
X121432Y166323D01*
X119126Y164554D01*
X117357Y162248D01*
X116244Y159562D01*
X116032Y157950D01*
X125730D01*
Y167648D01*
D02*
G37*
G36*
X66568Y172720D02*
X64078D01*
X64082Y172138D01*
X64290Y169033D01*
X64486Y167661D01*
X64708Y166576D01*
X64771Y166657D01*
X66236Y170194D01*
X66568Y172720D01*
D02*
G37*
G36*
X62919D02*
X53340D01*
Y163141D01*
X62919Y172720D01*
D02*
G37*
G36*
X53340Y161982D02*
Y159492D01*
X55866Y159824D01*
X59403Y161289D01*
X59484Y161352D01*
X58399Y161574D01*
X57027Y161770D01*
X53922Y161978D01*
X53340Y161982D01*
D02*
G37*
G36*
X231140Y339527D02*
X228519Y339182D01*
X226077Y338170D01*
X223979Y336561D01*
X222370Y334463D01*
X221358Y332021D01*
X221013Y329400D01*
X221047Y329141D01*
X221038Y328550D01*
X220989Y327860D01*
X220905Y327230D01*
X220790Y326660D01*
X220646Y326151D01*
X220479Y325698D01*
X220289Y325298D01*
X220080Y324945D01*
X219916Y324722D01*
X209703Y314509D01*
X154754D01*
X154481Y314551D01*
X154083Y314652D01*
X153667Y314801D01*
X153228Y315002D01*
X152766Y315262D01*
X152282Y315582D01*
X151777Y315969D01*
X151254Y316422D01*
X150829Y316833D01*
X150671Y317041D01*
X148573Y318650D01*
X146131Y319662D01*
X143510Y320007D01*
X140889Y319662D01*
X138447Y318650D01*
X136349Y317041D01*
X134740Y314943D01*
X133728Y312501D01*
X133383Y309880D01*
X133728Y307259D01*
X134740Y304817D01*
X136349Y302719D01*
X138447Y301110D01*
X140889Y300098D01*
X143510Y299753D01*
X146131Y300098D01*
X148573Y301110D01*
X150671Y302719D01*
X150829Y302926D01*
X151254Y303338D01*
X151777Y303792D01*
X152282Y304177D01*
X152766Y304499D01*
X153228Y304758D01*
X153667Y304959D01*
X154083Y305108D01*
X154481Y305209D01*
X154754Y305251D01*
X211620D01*
X211620Y305251D01*
X213391Y305603D01*
X214893Y306607D01*
X226462Y318176D01*
X226685Y318340D01*
X227038Y318549D01*
X227438Y318739D01*
X227891Y318907D01*
X228400Y319050D01*
X228970Y319165D01*
X229600Y319249D01*
X230290Y319298D01*
X230881Y319307D01*
X231140Y319273D01*
X233761Y319618D01*
X236203Y320630D01*
X238301Y322239D01*
X239910Y324337D01*
X240922Y326779D01*
X241267Y329400D01*
X240922Y332021D01*
X239910Y334463D01*
X238301Y336561D01*
X236203Y338170D01*
X233761Y339182D01*
X231140Y339527D01*
D02*
G37*
G36*
X41440Y457200D02*
X31742D01*
X31954Y455588D01*
X33067Y452902D01*
X34836Y450596D01*
X37142Y448827D01*
X39828Y447714D01*
X41440Y447502D01*
Y457200D01*
D02*
G37*
G36*
X143510Y421607D02*
X140889Y421262D01*
X138447Y420250D01*
X136349Y418641D01*
X136191Y418434D01*
X135766Y418022D01*
X135243Y417569D01*
X134738Y417183D01*
X134254Y416861D01*
X133792Y416602D01*
X133353Y416401D01*
X132937Y416252D01*
X132539Y416151D01*
X132266Y416109D01*
X77905D01*
X77651Y416131D01*
X77400Y416173D01*
Y418980D01*
X77203Y419971D01*
X76641Y420811D01*
X75801Y421373D01*
X74810Y421570D01*
X59810D01*
X58819Y421373D01*
X57979Y420811D01*
X57417Y419971D01*
X57220Y418980D01*
Y408207D01*
X56995Y407883D01*
X56048Y406765D01*
X44987Y395703D01*
X43983Y394201D01*
X43631Y392430D01*
X43631Y392430D01*
Y328930D01*
X43631Y328930D01*
X43983Y327159D01*
X44987Y325657D01*
X56086Y314558D01*
X56250Y314335D01*
X56459Y313982D01*
X56649Y313582D01*
X56817Y313129D01*
X56960Y312620D01*
X57075Y312050D01*
X57159Y311420D01*
X57208Y310730D01*
X57217Y310139D01*
X57183Y309880D01*
X57528Y307259D01*
X58540Y304817D01*
X60149Y302719D01*
X62247Y301110D01*
X64689Y300098D01*
X67310Y299753D01*
X69931Y300098D01*
X72373Y301110D01*
X74471Y302719D01*
X76080Y304817D01*
X77092Y307259D01*
X77437Y309880D01*
X77092Y312501D01*
X76080Y314943D01*
X74471Y317041D01*
X72373Y318650D01*
X69931Y319662D01*
X67310Y320007D01*
X67051Y319973D01*
X66460Y319982D01*
X65770Y320031D01*
X65140Y320115D01*
X64570Y320230D01*
X64061Y320373D01*
X63608Y320541D01*
X63208Y320731D01*
X62855Y320940D01*
X62632Y321104D01*
X52889Y330847D01*
Y390513D01*
X62417Y400040D01*
X63119Y400693D01*
X63684Y401145D01*
X64037Y401390D01*
X74810D01*
X75801Y401587D01*
X76641Y402149D01*
X77203Y402989D01*
X77400Y403980D01*
Y406787D01*
X77651Y406829D01*
X77905Y406851D01*
X132266D01*
X132539Y406809D01*
X132937Y406708D01*
X133353Y406559D01*
X133792Y406358D01*
X134254Y406098D01*
X134738Y405778D01*
X135243Y405391D01*
X135766Y404938D01*
X136033Y404679D01*
X135931Y404051D01*
X135580Y403409D01*
X125730D01*
X125730Y403409D01*
X123959Y403057D01*
X122457Y402053D01*
X122457Y402053D01*
X111113Y390709D01*
X78554D01*
X78281Y390751D01*
X77883Y390852D01*
X77467Y391001D01*
X77028Y391202D01*
X76566Y391462D01*
X76082Y391782D01*
X75577Y392169D01*
X75054Y392622D01*
X74630Y393033D01*
X74471Y393241D01*
X72373Y394850D01*
X69931Y395862D01*
X67310Y396207D01*
X64689Y395862D01*
X62247Y394850D01*
X60149Y393241D01*
X58540Y391143D01*
X57528Y388701D01*
X57183Y386080D01*
X57528Y383459D01*
X58540Y381017D01*
X60149Y378919D01*
X62247Y377310D01*
X64689Y376298D01*
X67310Y375953D01*
X69931Y376298D01*
X72373Y377310D01*
X74471Y378919D01*
X74630Y379126D01*
X75054Y379538D01*
X75577Y379991D01*
X76082Y380377D01*
X76566Y380699D01*
X77028Y380958D01*
X77467Y381159D01*
X77883Y381308D01*
X78281Y381409D01*
X78554Y381451D01*
X113030D01*
X113030Y381451D01*
X114801Y381803D01*
X116303Y382807D01*
X127647Y394151D01*
X135580D01*
X136074Y392881D01*
X134740Y391143D01*
X133728Y388701D01*
X133383Y386080D01*
X133417Y385821D01*
X133408Y385230D01*
X133359Y384540D01*
X133275Y383910D01*
X133160Y383340D01*
X133017Y382831D01*
X132849Y382378D01*
X132659Y381978D01*
X132450Y381625D01*
X132286Y381402D01*
X98327Y347443D01*
X97323Y345941D01*
X96971Y344170D01*
X96971Y344170D01*
Y320687D01*
X71988Y295704D01*
X71765Y295540D01*
X71412Y295331D01*
X71012Y295141D01*
X70559Y294974D01*
X70050Y294830D01*
X69480Y294715D01*
X68850Y294631D01*
X68160Y294582D01*
X67569Y294573D01*
X67310Y294607D01*
X64689Y294262D01*
X62247Y293250D01*
X60149Y291641D01*
X58540Y289543D01*
X57528Y287101D01*
X57183Y284480D01*
X57528Y281859D01*
X58540Y279417D01*
X60149Y277319D01*
X62247Y275710D01*
X64689Y274698D01*
X67310Y274353D01*
X69931Y274698D01*
X72373Y275710D01*
X74471Y277319D01*
X76080Y279417D01*
X77092Y281859D01*
X77437Y284480D01*
X77403Y284739D01*
X77412Y285330D01*
X77461Y286020D01*
X77545Y286650D01*
X77660Y287220D01*
X77804Y287729D01*
X77971Y288182D01*
X78161Y288582D01*
X78370Y288935D01*
X78534Y289158D01*
X104873Y315497D01*
X104873Y315497D01*
X105877Y316999D01*
X106229Y318770D01*
Y342253D01*
X138832Y374856D01*
X139055Y375020D01*
X139408Y375229D01*
X139808Y375419D01*
X140261Y375587D01*
X140770Y375730D01*
X141340Y375845D01*
X141970Y375929D01*
X142660Y375978D01*
X143251Y375988D01*
X143510Y375953D01*
X146131Y376298D01*
X148573Y377310D01*
X150671Y378919D01*
X152280Y381017D01*
X153292Y383459D01*
X153637Y386080D01*
X153292Y388701D01*
X152280Y391143D01*
X150947Y392881D01*
X151440Y394151D01*
X243416D01*
X243589Y394128D01*
X243923Y394055D01*
X244255Y393951D01*
X244587Y393815D01*
X244924Y393642D01*
X245268Y393429D01*
X245620Y393174D01*
X245980Y392872D01*
X246277Y392587D01*
X246390Y392440D01*
X248247Y391015D01*
X250409Y390119D01*
X252730Y389813D01*
X255051Y390119D01*
X257213Y391015D01*
X259070Y392440D01*
X260495Y394297D01*
X261391Y396459D01*
X261697Y398780D01*
X261391Y401101D01*
X260495Y403263D01*
X259070Y405120D01*
X257213Y406545D01*
X255051Y407441D01*
X252730Y407747D01*
X250409Y407441D01*
X248247Y406545D01*
X246390Y405120D01*
X246277Y404973D01*
X245980Y404688D01*
X245620Y404386D01*
X245268Y404131D01*
X244924Y403918D01*
X244587Y403745D01*
X244255Y403609D01*
X243923Y403505D01*
X243589Y403432D01*
X243416Y403409D01*
X215245D01*
X214814Y404679D01*
X215684Y405346D01*
X217453Y407652D01*
X218566Y410338D01*
X218778Y411950D01*
X207810D01*
X196842D01*
X197054Y410338D01*
X198167Y407652D01*
X199936Y405346D01*
X200806Y404679D01*
X200375Y403409D01*
X151440D01*
X150947Y404679D01*
X152280Y406417D01*
X153292Y408859D01*
X153637Y411480D01*
X153292Y414101D01*
X152280Y416543D01*
X150671Y418641D01*
X148573Y420250D01*
X146131Y421262D01*
X143510Y421607D01*
D02*
G37*
G36*
X210346Y424021D02*
X210442Y423773D01*
X210798Y423049D01*
X211232Y422315D01*
X211745Y421573D01*
X212338Y420821D01*
X213009Y420060D01*
X213760Y419290D01*
X209080D01*
Y414490D01*
X218778D01*
X218566Y416102D01*
X217453Y418788D01*
X215684Y421094D01*
X213378Y422863D01*
X210692Y423976D01*
X210346Y424021D01*
D02*
G37*
G36*
X43980Y469438D02*
Y459740D01*
X48780D01*
Y464420D01*
X49550Y463670D01*
X51063Y462406D01*
X51805Y461892D01*
X52539Y461457D01*
X53264Y461102D01*
X53511Y461006D01*
X53466Y461352D01*
X52353Y464038D01*
X50584Y466344D01*
X48278Y468113D01*
X45592Y469226D01*
X43980Y469438D01*
D02*
G37*
G36*
X41440D02*
X39828Y469226D01*
X37142Y468113D01*
X34836Y466344D01*
X33067Y464038D01*
X31954Y461352D01*
X31742Y459740D01*
X41440D01*
Y469438D01*
D02*
G37*
G36*
X48780Y457200D02*
X43980D01*
Y447502D01*
X45592Y447714D01*
X48278Y448827D01*
X50584Y450596D01*
X52353Y452902D01*
X53466Y455588D01*
X53511Y455934D01*
X53264Y455838D01*
X52539Y455482D01*
X51805Y455048D01*
X51063Y454534D01*
X50311Y453942D01*
X49550Y453270D01*
X48780Y452520D01*
Y457200D01*
D02*
G37*
G36*
X205274Y424021D02*
X204928Y423976D01*
X202242Y422863D01*
X199936Y421094D01*
X198167Y418788D01*
X197054Y416102D01*
X196842Y414490D01*
X206540D01*
Y419290D01*
X201860D01*
X202610Y420060D01*
X203874Y421573D01*
X204388Y422315D01*
X204823Y423049D01*
X205178Y423773D01*
X205274Y424021D01*
D02*
G37*
G36*
X307810Y424355D02*
X304928Y423976D01*
X302242Y422863D01*
X299936Y421094D01*
X298167Y418788D01*
X297054Y416102D01*
X296675Y413220D01*
X297054Y410338D01*
X298167Y407652D01*
X299936Y405346D01*
X302242Y403577D01*
X304928Y402464D01*
X307810Y402085D01*
X310692Y402464D01*
X313378Y403577D01*
X315684Y405346D01*
X317453Y407652D01*
X318566Y410338D01*
X318945Y413220D01*
X318566Y416102D01*
X317453Y418788D01*
X315684Y421094D01*
X313378Y422863D01*
X310692Y423976D01*
X307810Y424355D01*
D02*
G37*
G36*
X330200Y43147D02*
X327579Y42802D01*
X325137Y41790D01*
X323039Y40181D01*
X321430Y38083D01*
X320418Y35641D01*
X320073Y33020D01*
X320418Y30399D01*
X321430Y27957D01*
X323039Y25859D01*
X325137Y24250D01*
X327579Y23238D01*
X330200Y22893D01*
X332821Y23238D01*
X335263Y24250D01*
X337361Y25859D01*
X338970Y27957D01*
X339982Y30399D01*
X340327Y33020D01*
X339982Y35641D01*
X338970Y38083D01*
X337361Y40181D01*
X335263Y41790D01*
X332821Y42802D01*
X330200Y43147D01*
D02*
G37*
G36*
X457200Y396039D02*
X455849Y395862D01*
X453407Y394850D01*
X453142Y394647D01*
X453150Y394642D01*
X453761Y394353D01*
X454419Y394109D01*
X455122Y393911D01*
X455871Y393759D01*
X456667Y393653D01*
X457200Y393615D01*
Y396039D01*
D02*
G37*
G36*
X254000Y43147D02*
X251379Y42802D01*
X248937Y41790D01*
X246839Y40181D01*
X245230Y38083D01*
X244218Y35641D01*
X243873Y33020D01*
X244218Y30399D01*
X245230Y27957D01*
X246839Y25859D01*
X248937Y24250D01*
X251379Y23238D01*
X254000Y22893D01*
X256621Y23238D01*
X259063Y24250D01*
X261161Y25859D01*
X262770Y27957D01*
X263782Y30399D01*
X264127Y33020D01*
X263782Y35641D01*
X262770Y38083D01*
X261161Y40181D01*
X259063Y41790D01*
X256621Y42802D01*
X254000Y43147D01*
D02*
G37*
G36*
X279400D02*
X276779Y42802D01*
X274337Y41790D01*
X272239Y40181D01*
X270630Y38083D01*
X269618Y35641D01*
X269273Y33020D01*
X269618Y30399D01*
X270630Y27957D01*
X272239Y25859D01*
X274337Y24250D01*
X276779Y23238D01*
X279400Y22893D01*
X282021Y23238D01*
X284463Y24250D01*
X286561Y25859D01*
X288170Y27957D01*
X289182Y30399D01*
X289527Y33020D01*
X289182Y35641D01*
X288170Y38083D01*
X286561Y40181D01*
X284463Y41790D01*
X282021Y42802D01*
X279400Y43147D01*
D02*
G37*
G36*
X304800D02*
X302179Y42802D01*
X299737Y41790D01*
X297639Y40181D01*
X296030Y38083D01*
X295018Y35641D01*
X294673Y33020D01*
X295018Y30399D01*
X296030Y27957D01*
X297639Y25859D01*
X299737Y24250D01*
X302179Y23238D01*
X304800Y22893D01*
X307421Y23238D01*
X309863Y24250D01*
X311961Y25859D01*
X313570Y27957D01*
X314582Y30399D01*
X314927Y33020D01*
X314582Y35641D01*
X313570Y38083D01*
X311961Y40181D01*
X309863Y41790D01*
X307421Y42802D01*
X304800Y43147D01*
D02*
G37*
G36*
X327660Y484382D02*
X325918Y484153D01*
X323110Y482990D01*
X320700Y481140D01*
X318850Y478730D01*
X317687Y475923D01*
X317458Y474180D01*
X327660D01*
Y484382D01*
D02*
G37*
G36*
X228600Y43147D02*
X225979Y42802D01*
X223537Y41790D01*
X221439Y40181D01*
X219830Y38083D01*
X218818Y35641D01*
X218473Y33020D01*
X218818Y30399D01*
X219830Y27957D01*
X221439Y25859D01*
X223537Y24250D01*
X225979Y23238D01*
X228600Y22893D01*
X231221Y23238D01*
X233663Y24250D01*
X235761Y25859D01*
X237370Y27957D01*
X238382Y30399D01*
X238727Y33020D01*
X238382Y35641D01*
X237370Y38083D01*
X235761Y40181D01*
X233663Y41790D01*
X231221Y42802D01*
X228600Y43147D01*
D02*
G37*
G36*
X340402Y471640D02*
X330200D01*
Y466483D01*
X335230D01*
X334413Y465647D01*
X333037Y464015D01*
X332478Y463220D01*
X332005Y462438D01*
X331618Y461670D01*
X331599Y461622D01*
X331942Y461667D01*
X334750Y462830D01*
X337160Y464680D01*
X339010Y467090D01*
X340173Y469897D01*
X340402Y471640D01*
D02*
G37*
G36*
X490000Y507662D02*
X489874Y507637D01*
X489746Y507650D01*
X486806Y507360D01*
X486562Y507286D01*
X486308Y507261D01*
X483480Y506404D01*
X483255Y506283D01*
X483011Y506209D01*
X480405Y504816D01*
X480208Y504655D01*
X479983Y504534D01*
X477699Y502660D01*
X477537Y502463D01*
X477340Y502301D01*
X475466Y500017D01*
X475345Y499792D01*
X475184Y499595D01*
X473791Y496989D01*
X473717Y496745D01*
X473596Y496520D01*
X472739Y493692D01*
X472714Y493438D01*
X472640Y493194D01*
X472350Y490254D01*
X472375Y490000D01*
X472350Y489746D01*
X472640Y486806D01*
X472714Y486562D01*
X472739Y486308D01*
X473596Y483480D01*
X473717Y483255D01*
X473791Y483011D01*
X475184Y480405D01*
X475345Y480208D01*
X475466Y479983D01*
X477340Y477699D01*
X477537Y477537D01*
X477699Y477340D01*
X479983Y475466D01*
X480208Y475345D01*
X480405Y475184D01*
X483011Y473791D01*
X483255Y473717D01*
X483480Y473596D01*
X486308Y472739D01*
X486562Y472714D01*
X486806Y472640D01*
X489746Y472350D01*
X489874Y472363D01*
X490000Y472338D01*
X490126Y472363D01*
X490254Y472350D01*
X493194Y472640D01*
X493438Y472714D01*
X493692Y472739D01*
X496520Y473596D01*
X496745Y473717D01*
X496989Y473791D01*
X499595Y475184D01*
X499792Y475345D01*
X500017Y475466D01*
X502301Y477340D01*
X502463Y477537D01*
X502660Y477699D01*
X504534Y479983D01*
X504655Y480208D01*
X504816Y480405D01*
X506209Y483011D01*
X506283Y483255D01*
X506404Y483480D01*
X507261Y486308D01*
X507286Y486562D01*
X507360Y486806D01*
X507650Y489746D01*
X507625Y490000D01*
X507650Y490254D01*
X507360Y493194D01*
X507286Y493438D01*
X507261Y493692D01*
X506404Y496520D01*
X506283Y496745D01*
X506209Y496989D01*
X504816Y499595D01*
X504655Y499792D01*
X504534Y500017D01*
X502660Y502301D01*
X502463Y502463D01*
X502301Y502660D01*
X500017Y504534D01*
X499792Y504655D01*
X499595Y504816D01*
X496989Y506209D01*
X496745Y506283D01*
X496520Y506404D01*
X493692Y507261D01*
X493438Y507286D01*
X493194Y507360D01*
X490254Y507650D01*
X490126Y507637D01*
X490000Y507662D01*
D02*
G37*
G36*
X236330Y484500D02*
X218330D01*
X217339Y484303D01*
X216499Y483741D01*
X215937Y482901D01*
X215740Y481910D01*
Y477603D01*
X215489Y477561D01*
X215235Y477539D01*
X95477D01*
X95307Y477560D01*
X94953Y477633D01*
X94595Y477737D01*
X94230Y477874D01*
X93857Y478047D01*
X93474Y478260D01*
X93080Y478514D01*
X92676Y478811D01*
X92209Y479200D01*
X92021Y479302D01*
X90843Y480205D01*
X88681Y481101D01*
X86360Y481407D01*
X84039Y481101D01*
X81877Y480205D01*
X80020Y478780D01*
X78595Y476923D01*
X77699Y474761D01*
X77393Y472440D01*
X77699Y470119D01*
X78595Y467957D01*
X80020Y466100D01*
X81877Y464675D01*
X84039Y463779D01*
X86360Y463473D01*
X88681Y463779D01*
X90843Y464675D01*
X92700Y466100D01*
X93031Y466530D01*
X93132Y466605D01*
X93509Y467023D01*
X93824Y467323D01*
X94134Y467575D01*
X94437Y467783D01*
X94737Y467950D01*
X95036Y468083D01*
X95338Y468185D01*
X95652Y468257D01*
X95826Y468281D01*
X135275D01*
X135706Y467011D01*
X134836Y466344D01*
X133067Y464038D01*
X131954Y461352D01*
X131575Y458470D01*
X131954Y455588D01*
X133067Y452902D01*
X134836Y450596D01*
X137142Y448827D01*
X139828Y447714D01*
X142710Y447335D01*
X145592Y447714D01*
X148278Y448827D01*
X150584Y450596D01*
X152353Y452902D01*
X153466Y455588D01*
X153845Y458470D01*
X153466Y461352D01*
X152353Y464038D01*
X150584Y466344D01*
X149714Y467011D01*
X150145Y468281D01*
X215235D01*
X215489Y468259D01*
X215740Y468217D01*
Y463910D01*
X215937Y462919D01*
X216499Y462079D01*
X217339Y461517D01*
X218330Y461320D01*
X236330D01*
X237321Y461517D01*
X238161Y462079D01*
X238723Y462919D01*
X238920Y463910D01*
Y481910D01*
X238723Y482901D01*
X238161Y483741D01*
X237321Y484303D01*
X236330Y484500D01*
D02*
G37*
G36*
X330200Y484382D02*
Y474180D01*
X340402D01*
X340173Y475923D01*
X339010Y478730D01*
X337160Y481140D01*
X334750Y482990D01*
X331942Y484153D01*
X330200Y484382D01*
D02*
G37*
G36*
X327660Y471640D02*
X317458D01*
X317687Y469897D01*
X318850Y467090D01*
X320700Y464680D01*
X323110Y462830D01*
X325918Y461667D01*
X326261Y461622D01*
X326242Y461670D01*
X325855Y462438D01*
X325382Y463220D01*
X324823Y464015D01*
X324178Y464824D01*
X323447Y465647D01*
X322630Y466483D01*
X327660D01*
Y471640D01*
D02*
G37*
G36*
X303530Y484550D02*
X300518Y484153D01*
X297710Y482990D01*
X295300Y481140D01*
X293450Y478730D01*
X292287Y475923D01*
X291891Y472910D01*
X292287Y469897D01*
X293450Y467090D01*
X295300Y464680D01*
X297710Y462830D01*
X300518Y461667D01*
X303530Y461270D01*
X306542Y461667D01*
X309350Y462830D01*
X311760Y464680D01*
X313610Y467090D01*
X314773Y469897D01*
X315170Y472910D01*
X314773Y475923D01*
X313610Y478730D01*
X311760Y481140D01*
X309350Y482990D01*
X306542Y484153D01*
X303530Y484550D01*
D02*
G37*
G36*
X278130D02*
X275117Y484153D01*
X272310Y482990D01*
X269900Y481140D01*
X268050Y478730D01*
X266887Y475923D01*
X266490Y472910D01*
X266887Y469897D01*
X268050Y467090D01*
X269900Y464680D01*
X272310Y462830D01*
X275117Y461667D01*
X278130Y461270D01*
X281143Y461667D01*
X283950Y462830D01*
X286360Y464680D01*
X288210Y467090D01*
X289373Y469897D01*
X289770Y472910D01*
X289373Y475923D01*
X288210Y478730D01*
X286360Y481140D01*
X283950Y482990D01*
X281143Y484153D01*
X278130Y484550D01*
D02*
G37*
G36*
X252730D02*
X249718Y484153D01*
X246910Y482990D01*
X244500Y481140D01*
X242650Y478730D01*
X241487Y475923D01*
X241090Y472910D01*
X241487Y469897D01*
X242650Y467090D01*
X244500Y464680D01*
X246910Y462830D01*
X249718Y461667D01*
X252730Y461270D01*
X255742Y461667D01*
X258550Y462830D01*
X260960Y464680D01*
X262810Y467090D01*
X263973Y469897D01*
X264370Y472910D01*
X263973Y475923D01*
X262810Y478730D01*
X260960Y481140D01*
X258550Y482990D01*
X255742Y484153D01*
X252730Y484550D01*
D02*
G37*
G36*
X405130D02*
X402118Y484153D01*
X399310Y482990D01*
X396900Y481140D01*
X395050Y478730D01*
X393887Y475923D01*
X393490Y472910D01*
X393887Y469897D01*
X395050Y467090D01*
X396900Y464680D01*
X399310Y462830D01*
X402118Y461667D01*
X405130Y461270D01*
X408143Y461667D01*
X410950Y462830D01*
X413360Y464680D01*
X415210Y467090D01*
X416373Y469897D01*
X416769Y472910D01*
X416373Y475923D01*
X415210Y478730D01*
X413360Y481140D01*
X410950Y482990D01*
X408143Y484153D01*
X405130Y484550D01*
D02*
G37*
G36*
X379730D02*
X376717Y484153D01*
X373910Y482990D01*
X371500Y481140D01*
X369650Y478730D01*
X368487Y475923D01*
X368090Y472910D01*
X368487Y469897D01*
X369650Y467090D01*
X371500Y464680D01*
X373910Y462830D01*
X376717Y461667D01*
X379730Y461270D01*
X382743Y461667D01*
X385550Y462830D01*
X387960Y464680D01*
X389810Y467090D01*
X390973Y469897D01*
X391370Y472910D01*
X390973Y475923D01*
X389810Y478730D01*
X387960Y481140D01*
X385550Y482990D01*
X382743Y484153D01*
X379730Y484550D01*
D02*
G37*
G36*
X354330D02*
X351317Y484153D01*
X348510Y482990D01*
X346100Y481140D01*
X344250Y478730D01*
X343087Y475923D01*
X342690Y472910D01*
X343087Y469897D01*
X344250Y467090D01*
X346100Y464680D01*
X348510Y462830D01*
X351317Y461667D01*
X354330Y461270D01*
X357342Y461667D01*
X360150Y462830D01*
X362560Y464680D01*
X364410Y467090D01*
X365573Y469897D01*
X365970Y472910D01*
X365573Y475923D01*
X364410Y478730D01*
X362560Y481140D01*
X360150Y482990D01*
X357342Y484153D01*
X354330Y484550D01*
D02*
G37*
G36*
X238640Y364890D02*
X223640D01*
X222649Y364693D01*
X221809Y364131D01*
X221247Y363291D01*
X221050Y362300D01*
Y347300D01*
X221247Y346309D01*
X221809Y345469D01*
X222649Y344907D01*
X223640Y344710D01*
X238640D01*
X239631Y344907D01*
X240471Y345469D01*
X241033Y346309D01*
X241230Y347300D01*
Y362300D01*
X241033Y363291D01*
X240471Y364131D01*
X239631Y364693D01*
X238640Y364890D01*
D02*
G37*
G36*
X307340Y364927D02*
X304719Y364582D01*
X302277Y363570D01*
X300179Y361961D01*
X298570Y359863D01*
X297558Y357421D01*
X297213Y354800D01*
X297558Y352179D01*
X298570Y349737D01*
X300179Y347639D01*
X302277Y346030D01*
X304719Y345018D01*
X307340Y344673D01*
X309961Y345018D01*
X312403Y346030D01*
X314501Y347639D01*
X316110Y349737D01*
X317122Y352179D01*
X317467Y354800D01*
X317122Y357421D01*
X316110Y359863D01*
X314501Y361961D01*
X312403Y363570D01*
X309961Y364582D01*
X307340Y364927D01*
D02*
G37*
G36*
X365559Y31750D02*
X356870D01*
Y23061D01*
X358221Y23238D01*
X360663Y24250D01*
X362761Y25859D01*
X364370Y27957D01*
X365382Y30399D01*
X365559Y31750D01*
D02*
G37*
G36*
X382270Y370807D02*
X379649Y370462D01*
X377207Y369450D01*
X375109Y367841D01*
X373500Y365743D01*
X372488Y363301D01*
X372143Y360680D01*
X372488Y358059D01*
X373500Y355617D01*
X375109Y353519D01*
X377207Y351910D01*
X379649Y350898D01*
X382270Y350553D01*
X384891Y350898D01*
X387333Y351910D01*
X389431Y353519D01*
X391040Y355617D01*
X392052Y358059D01*
X392397Y360680D01*
X392052Y363301D01*
X391040Y365743D01*
X389431Y367841D01*
X387333Y369450D01*
X384891Y370462D01*
X382270Y370807D01*
D02*
G37*
G36*
X143510D02*
X140889Y370462D01*
X138447Y369450D01*
X136349Y367841D01*
X134740Y365743D01*
X133728Y363301D01*
X133383Y360680D01*
X133728Y358059D01*
X134740Y355617D01*
X136349Y353519D01*
X138447Y351910D01*
X140889Y350898D01*
X143510Y350553D01*
X146131Y350898D01*
X148573Y351910D01*
X150671Y353519D01*
X152280Y355617D01*
X153292Y358059D01*
X153637Y360680D01*
X153292Y363301D01*
X152280Y365743D01*
X150671Y367841D01*
X148573Y369450D01*
X146131Y370462D01*
X143510Y370807D01*
D02*
G37*
G36*
X67310D02*
X64689Y370462D01*
X62247Y369450D01*
X60149Y367841D01*
X58540Y365743D01*
X57528Y363301D01*
X57183Y360680D01*
X57528Y358059D01*
X58540Y355617D01*
X60149Y353519D01*
X62247Y351910D01*
X64689Y350898D01*
X67310Y350553D01*
X69931Y350898D01*
X72373Y351910D01*
X74471Y353519D01*
X76080Y355617D01*
X77092Y358059D01*
X77437Y360680D01*
X77092Y363301D01*
X76080Y365743D01*
X74471Y367841D01*
X72373Y369450D01*
X69931Y370462D01*
X67310Y370807D01*
D02*
G37*
G36*
X458470Y345407D02*
X455849Y345062D01*
X453407Y344050D01*
X451309Y342441D01*
X449700Y340343D01*
X448688Y337901D01*
X448343Y335280D01*
X448688Y332659D01*
X449700Y330217D01*
X451309Y328119D01*
X453407Y326510D01*
X455849Y325498D01*
X458470Y325153D01*
X461091Y325498D01*
X463533Y326510D01*
X465631Y328119D01*
X467240Y330217D01*
X468252Y332659D01*
X468597Y335280D01*
X468252Y337901D01*
X467240Y340343D01*
X465631Y342441D01*
X463533Y344050D01*
X461091Y345062D01*
X458470Y345407D01*
D02*
G37*
G36*
X353310Y42845D02*
X352979Y42802D01*
X350537Y41790D01*
X348439Y40181D01*
X346830Y38083D01*
X345818Y35641D01*
X345641Y34290D01*
X354330D01*
Y38376D01*
X350350D01*
X350967Y39013D01*
X351520Y39650D01*
X352007Y40287D01*
X352430Y40925D01*
X352788Y41562D01*
X353080Y42199D01*
X353307Y42836D01*
X353310Y42845D01*
D02*
G37*
G36*
X307340Y339527D02*
X304719Y339182D01*
X302277Y338170D01*
X300179Y336561D01*
X298570Y334463D01*
X297558Y332021D01*
X297213Y329400D01*
X297558Y326779D01*
X298570Y324337D01*
X300179Y322239D01*
X302277Y320630D01*
X304719Y319618D01*
X307340Y319273D01*
X309961Y319618D01*
X312403Y320630D01*
X314501Y322239D01*
X316110Y324337D01*
X317122Y326779D01*
X317467Y329400D01*
X317122Y332021D01*
X316110Y334463D01*
X314501Y336561D01*
X312403Y338170D01*
X309961Y339182D01*
X307340Y339527D01*
D02*
G37*
G36*
X354334Y324961D02*
X353988Y324916D01*
X351302Y323803D01*
X348996Y322034D01*
X347227Y319728D01*
X346114Y317042D01*
X345902Y315430D01*
X355600D01*
Y320230D01*
X350920D01*
X351670Y321000D01*
X352934Y322513D01*
X353448Y323255D01*
X353882Y323989D01*
X354238Y324714D01*
X354334Y324961D01*
D02*
G37*
G36*
X382270Y345407D02*
X379649Y345062D01*
X377207Y344050D01*
X375109Y342441D01*
X373500Y340343D01*
X372488Y337901D01*
X372143Y335280D01*
X372177Y335021D01*
X372168Y334430D01*
X372119Y333740D01*
X372035Y333110D01*
X371920Y332540D01*
X371777Y332031D01*
X371609Y331578D01*
X371419Y331178D01*
X371210Y330825D01*
X371046Y330602D01*
X366297Y325853D01*
X365293Y324351D01*
X365097Y323364D01*
X363697Y322837D01*
X362438Y323803D01*
X359752Y324916D01*
X359406Y324961D01*
X359502Y324714D01*
X359857Y323989D01*
X360292Y323255D01*
X360806Y322513D01*
X361398Y321761D01*
X362070Y321000D01*
X362820Y320230D01*
X358140D01*
Y314160D01*
X356870D01*
Y312890D01*
X345902D01*
X346114Y311278D01*
X347227Y308592D01*
X348996Y306286D01*
X351302Y304517D01*
X353988Y303404D01*
X356870Y303025D01*
X357029Y303046D01*
X357590Y301907D01*
X351143Y295459D01*
X314677D01*
X314269Y296662D01*
X314501Y296839D01*
X316110Y298937D01*
X317122Y301379D01*
X317467Y304000D01*
X317122Y306621D01*
X316110Y309063D01*
X314501Y311161D01*
X312403Y312770D01*
X309961Y313782D01*
X307340Y314127D01*
X304719Y313782D01*
X302277Y312770D01*
X300179Y311161D01*
X298570Y309063D01*
X297558Y306621D01*
X297213Y304000D01*
X297558Y301379D01*
X298570Y298937D01*
X300179Y296839D01*
X300411Y296662D01*
X300003Y295459D01*
X260350D01*
X260350Y295459D01*
X258579Y295107D01*
X257077Y294103D01*
X257077Y294103D01*
X246203Y283229D01*
X242384D01*
X242111Y283271D01*
X241713Y283372D01*
X241297Y283521D01*
X240858Y283722D01*
X240396Y283982D01*
X239912Y284302D01*
X239407Y284689D01*
X238884Y285142D01*
X238459Y285553D01*
X238301Y285761D01*
X236203Y287370D01*
X233761Y288382D01*
X231140Y288727D01*
X228519Y288382D01*
X226077Y287370D01*
X223979Y285761D01*
X222370Y283663D01*
X221358Y281221D01*
X221013Y278600D01*
X221358Y275979D01*
X222370Y273537D01*
X223979Y271439D01*
X226077Y269830D01*
X228519Y268818D01*
X231140Y268473D01*
X233761Y268818D01*
X236203Y269830D01*
X238301Y271439D01*
X238459Y271646D01*
X238884Y272058D01*
X239407Y272512D01*
X239912Y272897D01*
X240396Y273218D01*
X240858Y273478D01*
X241297Y273679D01*
X241713Y273828D01*
X242111Y273929D01*
X242384Y273971D01*
X248120D01*
X248120Y273971D01*
X249891Y274323D01*
X251393Y275327D01*
X262267Y286201D01*
X298916D01*
X299543Y284931D01*
X298570Y283663D01*
X297558Y281221D01*
X297213Y278600D01*
X297558Y275979D01*
X298570Y273537D01*
X300179Y271439D01*
X302277Y269830D01*
X304719Y268818D01*
X307340Y268473D01*
X309961Y268818D01*
X312403Y269830D01*
X314501Y271439D01*
X316110Y273537D01*
X317122Y275979D01*
X317467Y278600D01*
X317122Y281221D01*
X316110Y283663D01*
X315137Y284931D01*
X315763Y286201D01*
X353060D01*
X353060Y286201D01*
X354831Y286553D01*
X356333Y287557D01*
X372635Y303858D01*
X373526Y303966D01*
X374233Y303861D01*
X375109Y302719D01*
X377207Y301110D01*
X379649Y300098D01*
X382270Y299753D01*
X384891Y300098D01*
X387333Y301110D01*
X389431Y302719D01*
X391040Y304817D01*
X392052Y307259D01*
X392397Y309880D01*
X392052Y312501D01*
X391040Y314943D01*
X389431Y317041D01*
X387333Y318650D01*
X384891Y319662D01*
X382270Y320007D01*
X379649Y319662D01*
X377207Y318650D01*
X375469Y317316D01*
X374199Y317810D01*
Y320663D01*
X377592Y324056D01*
X377815Y324220D01*
X378168Y324429D01*
X378568Y324619D01*
X379021Y324786D01*
X379530Y324930D01*
X380100Y325045D01*
X380730Y325129D01*
X381420Y325178D01*
X382011Y325187D01*
X382270Y325153D01*
X384891Y325498D01*
X387333Y326510D01*
X389431Y328119D01*
X391040Y330217D01*
X392052Y332659D01*
X392397Y335280D01*
X392052Y337901D01*
X391040Y340343D01*
X389431Y342441D01*
X387333Y344050D01*
X384891Y345062D01*
X382270Y345407D01*
D02*
G37*
G36*
X143510D02*
X140889Y345062D01*
X138447Y344050D01*
X136349Y342441D01*
X134740Y340343D01*
X133728Y337901D01*
X133383Y335280D01*
X133728Y332659D01*
X134740Y330217D01*
X136349Y328119D01*
X138447Y326510D01*
X140889Y325498D01*
X143510Y325153D01*
X146131Y325498D01*
X148573Y326510D01*
X150671Y328119D01*
X152280Y330217D01*
X153292Y332659D01*
X153637Y335280D01*
X153292Y337901D01*
X152280Y340343D01*
X150671Y342441D01*
X148573Y344050D01*
X146131Y345062D01*
X143510Y345407D01*
D02*
G37*
G36*
X67310D02*
X64689Y345062D01*
X62247Y344050D01*
X60149Y342441D01*
X58540Y340343D01*
X57528Y337901D01*
X57183Y335280D01*
X57528Y332659D01*
X58540Y330217D01*
X60149Y328119D01*
X62247Y326510D01*
X64689Y325498D01*
X67310Y325153D01*
X69931Y325498D01*
X72373Y326510D01*
X74471Y328119D01*
X76080Y330217D01*
X77092Y332659D01*
X77437Y335280D01*
X77092Y337901D01*
X76080Y340343D01*
X74471Y342441D01*
X72373Y344050D01*
X69931Y345062D01*
X67310Y345407D01*
D02*
G37*
G36*
X457200Y392385D02*
X452165Y387350D01*
X457200D01*
Y392385D01*
D02*
G37*
G36*
X449903Y391408D02*
X449700Y391143D01*
X448688Y388701D01*
X448511Y387350D01*
X450935D01*
X450897Y387883D01*
X450791Y388679D01*
X450639Y389428D01*
X450441Y390131D01*
X450197Y390789D01*
X449908Y391400D01*
X449903Y391408D01*
D02*
G37*
G36*
X210700Y43110D02*
X195700D01*
X194709Y42913D01*
X193869Y42351D01*
X193307Y41511D01*
X193110Y40520D01*
Y25520D01*
X193307Y24529D01*
X193869Y23689D01*
X194709Y23127D01*
X195700Y22930D01*
X210700D01*
X211691Y23127D01*
X212531Y23689D01*
X213093Y24529D01*
X213290Y25520D01*
Y40520D01*
X213093Y41511D01*
X212531Y42351D01*
X211691Y42913D01*
X210700Y43110D01*
D02*
G37*
G36*
X492760Y397518D02*
Y387820D01*
X502458D01*
X502246Y389432D01*
X501133Y392118D01*
X499364Y394424D01*
X497058Y396193D01*
X494372Y397306D01*
X492760Y397518D01*
D02*
G37*
G36*
X490220D02*
X488608Y397306D01*
X485922Y396193D01*
X483616Y394424D01*
X481847Y392118D01*
X480734Y389432D01*
X480522Y387820D01*
X490220D01*
Y397518D01*
D02*
G37*
G36*
X459740Y396039D02*
Y387350D01*
X468429D01*
X468252Y388701D01*
X467240Y391143D01*
X465631Y393241D01*
X463533Y394850D01*
X461091Y395862D01*
X459740Y396039D01*
D02*
G37*
G36*
X354330Y31750D02*
X345641D01*
X345818Y30399D01*
X346830Y27957D01*
X348439Y25859D01*
X350537Y24250D01*
X352979Y23238D01*
X354330Y23061D01*
Y31750D01*
D02*
G37*
G36*
X502458Y385280D02*
X492760D01*
Y375582D01*
X494372Y375794D01*
X497058Y376907D01*
X499364Y378676D01*
X501133Y380982D01*
X502246Y383668D01*
X502458Y385280D01*
D02*
G37*
G36*
X490220D02*
X480522D01*
X480734Y383668D01*
X481847Y380982D01*
X483616Y378676D01*
X485922Y376907D01*
X488608Y375794D01*
X490220Y375582D01*
Y385280D01*
D02*
G37*
G36*
X458470Y370807D02*
X455849Y370462D01*
X453407Y369450D01*
X451309Y367841D01*
X449700Y365743D01*
X448688Y363301D01*
X448343Y360680D01*
X448688Y358059D01*
X449700Y355617D01*
X451309Y353519D01*
X453407Y351910D01*
X455849Y350898D01*
X458470Y350553D01*
X461091Y350898D01*
X463533Y351910D01*
X465631Y353519D01*
X467240Y355617D01*
X468252Y358059D01*
X468597Y360680D01*
X468252Y363301D01*
X467240Y365743D01*
X465631Y367841D01*
X463533Y369450D01*
X461091Y370462D01*
X458470Y370807D01*
D02*
G37*
G36*
X468429Y384810D02*
X459740D01*
Y376121D01*
X461091Y376298D01*
X463533Y377310D01*
X465631Y378919D01*
X467240Y381017D01*
X468252Y383459D01*
X468429Y384810D01*
D02*
G37*
G36*
X457200D02*
X448511D01*
X448688Y383459D01*
X449700Y381017D01*
X451309Y378919D01*
X453407Y377310D01*
X455849Y376298D01*
X457200Y376121D01*
Y384810D01*
D02*
G37*
G36*
X382270Y396207D02*
X379649Y395862D01*
X377207Y394850D01*
X375109Y393241D01*
X373500Y391143D01*
X372488Y388701D01*
X372143Y386080D01*
X372488Y383459D01*
X373500Y381017D01*
X375109Y378919D01*
X377207Y377310D01*
X379649Y376298D01*
X382270Y375953D01*
X384891Y376298D01*
X387333Y377310D01*
X389431Y378919D01*
X391040Y381017D01*
X392052Y383459D01*
X392397Y386080D01*
X392052Y388701D01*
X391040Y391143D01*
X389431Y393241D01*
X387333Y394850D01*
X384891Y395862D01*
X382270Y396207D01*
D02*
G37*
%LPD*%
G36*
X389784Y232718D02*
X389843Y231877D01*
X389949Y231081D01*
X390101Y230332D01*
X390299Y229629D01*
X390543Y228971D01*
X390832Y228360D01*
X391168Y227794D01*
X391550Y227275D01*
X391977Y226801D01*
X389149Y223973D01*
X388675Y224400D01*
X388156Y224782D01*
X387590Y225118D01*
X386979Y225407D01*
X386321Y225651D01*
X385618Y225849D01*
X384869Y226001D01*
X384073Y226107D01*
X383232Y226166D01*
X382345Y226180D01*
X389770Y233605D01*
X389784Y232718D01*
D02*
G37*
G36*
X453114Y253830D02*
X452477Y254447D01*
X451840Y255000D01*
X451203Y255487D01*
X450565Y255910D01*
X449928Y256268D01*
X449291Y256560D01*
X448653Y256787D01*
X448016Y256950D01*
X447379Y257048D01*
X446742Y257080D01*
Y261080D01*
X447379Y261112D01*
X448016Y261210D01*
X448653Y261373D01*
X449291Y261600D01*
X449928Y261893D01*
X450565Y262250D01*
X451203Y262673D01*
X451840Y263160D01*
X452477Y263713D01*
X453114Y264330D01*
Y253830D01*
D02*
G37*
G36*
X92649Y275760D02*
X93144Y275345D01*
X93649Y274978D01*
X94164Y274660D01*
X94689Y274391D01*
X95224Y274171D01*
X95769Y274000D01*
X96325Y273878D01*
X96891Y273804D01*
X97467Y273780D01*
Y269780D01*
X96891Y269755D01*
X96325Y269682D01*
X95769Y269560D01*
X95224Y269389D01*
X94689Y269169D01*
X94164Y268900D01*
X93649Y268582D01*
X93144Y268215D01*
X92649Y267799D01*
X92165Y267335D01*
Y276225D01*
X92649Y275760D01*
D02*
G37*
G36*
X496689Y279710D02*
X495425Y278197D01*
X494912Y277455D01*
X494478Y276721D01*
X494122Y275996D01*
X493845Y275281D01*
X493648Y274575D01*
X493530Y273877D01*
X493490Y273189D01*
X489490D01*
X489450Y273877D01*
X489332Y274575D01*
X489134Y275281D01*
X488858Y275996D01*
X488503Y276721D01*
X488068Y277455D01*
X487555Y278197D01*
X486962Y278949D01*
X486291Y279710D01*
X485540Y280480D01*
X497440D01*
X496689Y279710D01*
D02*
G37*
G36*
X276799Y156381D02*
X277294Y155965D01*
X277799Y155598D01*
X278314Y155280D01*
X278839Y155011D01*
X279374Y154791D01*
X279919Y154620D01*
X280475Y154498D01*
X281041Y154424D01*
X281617Y154400D01*
Y150400D01*
X281041Y150375D01*
X280475Y150302D01*
X279919Y150180D01*
X279374Y150009D01*
X278839Y149789D01*
X278314Y149520D01*
X277799Y149202D01*
X277294Y148835D01*
X276799Y148420D01*
X276315Y147955D01*
Y156845D01*
X276799Y156381D01*
D02*
G37*
G36*
X354875Y147955D02*
X354391Y148420D01*
X353896Y148835D01*
X353391Y149202D01*
X352877Y149520D01*
X352351Y149789D01*
X351816Y150009D01*
X351271Y150180D01*
X350715Y150302D01*
X350149Y150375D01*
X349573Y150400D01*
Y154400D01*
X350149Y154424D01*
X350715Y154498D01*
X351271Y154620D01*
X351816Y154791D01*
X352351Y155011D01*
X352877Y155280D01*
X353391Y155598D01*
X353896Y155965D01*
X354391Y156381D01*
X354875Y156845D01*
Y147955D01*
D02*
G37*
G36*
X436155Y170815D02*
X435671Y171280D01*
X435176Y171695D01*
X434671Y172062D01*
X434156Y172380D01*
X433631Y172649D01*
X433096Y172869D01*
X432551Y173040D01*
X431995Y173162D01*
X431429Y173235D01*
X430853Y173260D01*
Y177260D01*
X431429Y177285D01*
X431995Y177358D01*
X432551Y177480D01*
X433096Y177651D01*
X433631Y177871D01*
X434156Y178140D01*
X434671Y178458D01*
X435176Y178825D01*
X435671Y179240D01*
X436155Y179705D01*
Y170815D01*
D02*
G37*
G36*
X326329Y179240D02*
X326824Y178825D01*
X327329Y178458D01*
X327844Y178140D01*
X328369Y177871D01*
X328904Y177651D01*
X329449Y177480D01*
X330005Y177358D01*
X330571Y177285D01*
X331147Y177260D01*
Y173260D01*
X330571Y173235D01*
X330005Y173162D01*
X329449Y173040D01*
X328904Y172869D01*
X328369Y172649D01*
X327844Y172380D01*
X327329Y172062D01*
X326824Y171695D01*
X326329Y171280D01*
X325845Y170815D01*
Y179705D01*
X326329Y179240D01*
D02*
G37*
G36*
X231065Y321900D02*
X230178Y321886D01*
X229337Y321827D01*
X228541Y321721D01*
X227792Y321569D01*
X227089Y321371D01*
X226431Y321127D01*
X225820Y320838D01*
X225254Y320502D01*
X224735Y320120D01*
X224261Y319693D01*
X221433Y322521D01*
X221860Y322995D01*
X222242Y323514D01*
X222578Y324080D01*
X222867Y324691D01*
X223111Y325349D01*
X223309Y326052D01*
X223461Y326801D01*
X223567Y327597D01*
X223626Y328438D01*
X223640Y329325D01*
X231065Y321900D01*
D02*
G37*
G36*
X149503Y314513D02*
X150140Y313960D01*
X150778Y313472D01*
X151415Y313050D01*
X152052Y312693D01*
X152689Y312400D01*
X153327Y312173D01*
X153964Y312010D01*
X154601Y311912D01*
X155238Y311880D01*
Y307880D01*
X154601Y307847D01*
X153964Y307750D01*
X153327Y307588D01*
X152689Y307360D01*
X152052Y307068D01*
X151415Y306710D01*
X150778Y306287D01*
X150140Y305800D01*
X149503Y305247D01*
X148866Y304630D01*
Y315130D01*
X149503Y314513D01*
D02*
G37*
G36*
X143435Y378580D02*
X142548Y378567D01*
X141707Y378507D01*
X140911Y378401D01*
X140162Y378249D01*
X139459Y378051D01*
X138801Y377807D01*
X138190Y377518D01*
X137624Y377182D01*
X137105Y376800D01*
X136631Y376373D01*
X133803Y379201D01*
X134230Y379675D01*
X134612Y380194D01*
X134948Y380760D01*
X135237Y381371D01*
X135481Y382029D01*
X135679Y382732D01*
X135831Y383481D01*
X135937Y384277D01*
X135997Y385118D01*
X136010Y386005D01*
X143435Y378580D01*
D02*
G37*
G36*
X73303Y390713D02*
X73940Y390160D01*
X74577Y389673D01*
X75215Y389250D01*
X75852Y388893D01*
X76489Y388600D01*
X77126Y388372D01*
X77764Y388210D01*
X78401Y388112D01*
X79038Y388080D01*
Y384080D01*
X78401Y384048D01*
X77764Y383950D01*
X77126Y383787D01*
X76489Y383560D01*
X75852Y383268D01*
X75215Y382910D01*
X74577Y382487D01*
X73940Y382000D01*
X73303Y381447D01*
X72666Y380830D01*
Y391330D01*
X73303Y390713D01*
D02*
G37*
G36*
X60905Y319160D02*
X61424Y318778D01*
X61990Y318442D01*
X62601Y318153D01*
X63259Y317909D01*
X63962Y317711D01*
X64711Y317559D01*
X65507Y317453D01*
X66348Y317393D01*
X67235Y317380D01*
X59810Y309955D01*
X59797Y310842D01*
X59737Y311683D01*
X59631Y312479D01*
X59479Y313228D01*
X59281Y313931D01*
X59037Y314589D01*
X58748Y315200D01*
X58412Y315766D01*
X58030Y316285D01*
X57603Y316759D01*
X60431Y319587D01*
X60905Y319160D01*
D02*
G37*
G36*
X248195Y394335D02*
X247711Y394799D01*
X247216Y395215D01*
X246711Y395582D01*
X246196Y395900D01*
X245671Y396169D01*
X245136Y396389D01*
X244591Y396560D01*
X244035Y396682D01*
X243469Y396755D01*
X242893Y396780D01*
Y400780D01*
X243469Y400804D01*
X244035Y400878D01*
X244591Y401000D01*
X245136Y401171D01*
X245671Y401391D01*
X246196Y401660D01*
X246711Y401978D01*
X247216Y402345D01*
X247711Y402761D01*
X248195Y403225D01*
Y394335D01*
D02*
G37*
G36*
X74787Y415100D02*
X74908Y414760D01*
X75109Y414460D01*
X75391Y414200D01*
X75754Y413980D01*
X76198Y413800D01*
X76721Y413660D01*
X77326Y413560D01*
X78011Y413500D01*
X78777Y413480D01*
Y409480D01*
X78011Y409460D01*
X77326Y409400D01*
X76721Y409300D01*
X76198Y409160D01*
X75754Y408980D01*
X75391Y408760D01*
X75109Y408500D01*
X74908Y408200D01*
X74787Y407860D01*
X74746Y407480D01*
Y415480D01*
X74787Y415100D01*
D02*
G37*
G36*
X65500Y404013D02*
X65189Y404239D01*
X64821Y404352D01*
X64397D01*
X63916Y404239D01*
X63379Y404013D01*
X62785Y403674D01*
X62134Y403221D01*
X61427Y402655D01*
X59843Y401185D01*
X57015Y404013D01*
X57807Y404833D01*
X59051Y406304D01*
X59504Y406955D01*
X59843Y407548D01*
X60069Y408086D01*
X60182Y408567D01*
Y408991D01*
X60069Y409359D01*
X59843Y409670D01*
X65500Y404013D01*
D02*
G37*
G36*
X138154Y406230D02*
X137517Y406847D01*
X136880Y407400D01*
X136243Y407887D01*
X135605Y408310D01*
X134968Y408667D01*
X134331Y408960D01*
X133694Y409188D01*
X133056Y409350D01*
X132419Y409448D01*
X131782Y409480D01*
Y413480D01*
X132419Y413512D01*
X133056Y413610D01*
X133694Y413773D01*
X134331Y414000D01*
X134968Y414292D01*
X135605Y414650D01*
X136243Y415073D01*
X136880Y415560D01*
X137517Y416113D01*
X138154Y416730D01*
Y406230D01*
D02*
G37*
G36*
X77017Y291359D02*
X76590Y290885D01*
X76208Y290366D01*
X75872Y289800D01*
X75583Y289189D01*
X75339Y288531D01*
X75141Y287828D01*
X74989Y287079D01*
X74883Y286283D01*
X74823Y285442D01*
X74810Y284555D01*
X67385Y291980D01*
X68272Y291994D01*
X69113Y292053D01*
X69909Y292159D01*
X70658Y292311D01*
X71361Y292509D01*
X72019Y292753D01*
X72630Y293042D01*
X73196Y293378D01*
X73715Y293760D01*
X74189Y294187D01*
X77017Y291359D01*
D02*
G37*
G36*
X91079Y476772D02*
X91608Y476381D01*
X92143Y476036D01*
X92683Y475737D01*
X93227Y475485D01*
X93776Y475278D01*
X94330Y475117D01*
X94888Y475002D01*
X95452Y474933D01*
X96020Y474910D01*
X96333Y470910D01*
X95750Y470884D01*
X95183Y470807D01*
X94632Y470679D01*
X94096Y470499D01*
X93576Y470268D01*
X93071Y469986D01*
X92583Y469652D01*
X92110Y469267D01*
X91653Y468831D01*
X91211Y468343D01*
X90553Y477208D01*
X91079Y476772D01*
D02*
G37*
G36*
X218393Y468910D02*
X218353Y469290D01*
X218232Y469630D01*
X218031Y469930D01*
X217749Y470190D01*
X217386Y470410D01*
X216943Y470590D01*
X216419Y470730D01*
X215814Y470830D01*
X215129Y470890D01*
X214363Y470910D01*
Y474910D01*
X215129Y474930D01*
X215814Y474990D01*
X216419Y475090D01*
X216943Y475230D01*
X217386Y475410D01*
X217749Y475630D01*
X218031Y475890D01*
X218232Y476190D01*
X218353Y476530D01*
X218393Y476910D01*
Y468910D01*
D02*
G37*
G36*
X382195Y327780D02*
X381308Y327766D01*
X380467Y327707D01*
X379671Y327601D01*
X378922Y327449D01*
X378219Y327251D01*
X377561Y327007D01*
X376950Y326718D01*
X376384Y326382D01*
X375865Y326000D01*
X375391Y325573D01*
X372563Y328401D01*
X372990Y328875D01*
X373372Y329394D01*
X373708Y329960D01*
X373997Y330571D01*
X374241Y331229D01*
X374439Y331932D01*
X374591Y332681D01*
X374697Y333477D01*
X374757Y334318D01*
X374770Y335205D01*
X382195Y327780D01*
D02*
G37*
G36*
X237133Y283232D02*
X237770Y282680D01*
X238407Y282192D01*
X239045Y281770D01*
X239682Y281413D01*
X240319Y281120D01*
X240956Y280893D01*
X241594Y280730D01*
X242231Y280632D01*
X242868Y280600D01*
Y276600D01*
X242231Y276567D01*
X241594Y276470D01*
X240956Y276308D01*
X240319Y276080D01*
X239682Y275788D01*
X239045Y275430D01*
X238407Y275007D01*
X237770Y274520D01*
X237133Y273967D01*
X236496Y273350D01*
Y283850D01*
X237133Y283232D01*
D02*
G37*
D10*
X231140Y278600D02*
X248120D01*
X143510Y309880D02*
X211620D01*
X231140Y329400D01*
X67310Y386080D02*
X113030D01*
X125730Y398780D01*
X252730D01*
X86830Y472910D02*
X227330D01*
X67310Y284480D02*
X101600Y318770D01*
Y344170D01*
X143510Y386080D01*
X271780Y152400D02*
X359410D01*
X411480Y259080D02*
X458470D01*
X400050Y247650D02*
X411480Y259080D01*
X325120Y247650D02*
X400050D01*
X321310Y175260D02*
X440690D01*
X182880Y240030D02*
X317500D01*
X325120Y247650D01*
X151130Y271780D02*
X182880Y240030D01*
X87630Y271780D02*
X151130D01*
X67310Y411480D02*
X143510D01*
X48260Y328930D02*
X67310Y309880D01*
X48260Y328930D02*
Y392430D01*
X67310Y411480D01*
X42710Y458470D02*
X107950D01*
X130810Y435610D01*
X355600Y33020D02*
Y83820D01*
X330200Y109220D02*
X355600Y83820D01*
X316230Y123190D02*
X330200Y109220D01*
X231140Y123190D02*
Y202400D01*
Y123190D02*
X316230D01*
X207810Y413220D02*
Y434810D01*
X408940Y435610D02*
X458470Y386080D01*
X328930Y435610D02*
Y472910D01*
X130810Y435610D02*
X328930D01*
X356870Y314160D02*
Y435610D01*
X328930D02*
X356870D01*
X408940D01*
X260350Y290830D02*
X353060D01*
X248120Y278600D02*
X260350Y290830D01*
X353060D02*
X369570Y307340D01*
Y322580D01*
X382270Y335280D01*
Y233680D02*
X408940Y207010D01*
X462280D01*
X491490Y236220D01*
Y286550D01*
X35560Y451320D02*
X42710Y458470D01*
X35560Y190500D02*
X52070Y173990D01*
X35560Y259080D02*
X67310D01*
X35560Y190500D02*
Y259080D01*
Y451320D01*
X52070Y173990D02*
X102870Y123190D01*
X127000D02*
Y156680D01*
X102870Y123190D02*
X127000D01*
X231140D01*
D11*
X0Y520000D02*
X520000D01*
Y0D02*
Y520000D01*
X0Y0D02*
X520000D01*
X0D02*
Y520000D01*
D12*
X231140Y354800D02*
D03*
X458470Y233680D02*
D03*
X67310Y411480D02*
D03*
D13*
X231140Y329400D02*
D03*
Y304000D02*
D03*
Y278600D02*
D03*
Y253200D02*
D03*
Y227800D02*
D03*
Y202400D02*
D03*
X307340Y354800D02*
D03*
Y329400D02*
D03*
Y304000D02*
D03*
Y278600D02*
D03*
Y253200D02*
D03*
Y227800D02*
D03*
Y202400D02*
D03*
X228600Y33020D02*
D03*
X254000D02*
D03*
X279400D02*
D03*
X304800D02*
D03*
X330200D02*
D03*
X355600D02*
D03*
X203200Y109220D02*
D03*
X228600D02*
D03*
X254000D02*
D03*
X279400D02*
D03*
X304800D02*
D03*
X330200D02*
D03*
X355600D02*
D03*
X458470Y259080D02*
D03*
Y284480D02*
D03*
Y309880D02*
D03*
Y335280D02*
D03*
Y360680D02*
D03*
Y386080D02*
D03*
X382270Y233680D02*
D03*
Y259080D02*
D03*
Y284480D02*
D03*
Y309880D02*
D03*
Y335280D02*
D03*
Y360680D02*
D03*
Y386080D02*
D03*
X67310D02*
D03*
Y360680D02*
D03*
Y335280D02*
D03*
Y309880D02*
D03*
Y284480D02*
D03*
Y259080D02*
D03*
X143510Y411480D02*
D03*
Y386080D02*
D03*
Y360680D02*
D03*
Y335280D02*
D03*
Y309880D02*
D03*
Y284480D02*
D03*
Y259080D02*
D03*
D14*
X203200Y33020D02*
D03*
D15*
X227330Y472910D02*
D03*
D16*
X252730D02*
D03*
X278130D02*
D03*
X303530D02*
D03*
X328930D02*
D03*
X354330D02*
D03*
X379730D02*
D03*
X405130D02*
D03*
D17*
X52070Y173990D02*
D03*
D18*
Y123190D02*
D03*
D19*
X491490Y286550D02*
D03*
Y386550D02*
D03*
X127000Y56680D02*
D03*
Y156680D02*
D03*
X190500Y157010D02*
D03*
Y257010D02*
D03*
X356870Y214160D02*
D03*
Y314160D02*
D03*
X307810Y413220D02*
D03*
X207810D02*
D03*
X142710Y458470D02*
D03*
X42710D02*
D03*
D20*
X30000Y30000D02*
D03*
X490000D02*
D03*
Y490000D02*
D03*
D21*
X252730Y398780D02*
D03*
X359410Y152400D02*
D03*
X271780D02*
D03*
X440690Y175260D02*
D03*
X321310D02*
D03*
X86360Y472440D02*
D03*
X87630Y271780D02*
D03*
M02*
