G04 Layer_Color=32768*
%FSLAX44Y44*%
%MOMM*%
G71*
G01*
G75*
%ADD11C,0.2540*%
%ADD36C,0.1524*%
D11*
X523810Y520000D02*
X581660D01*
X523810Y0D02*
X581660D01*
X579120Y295548D02*
Y520000D01*
Y0D02*
Y216324D01*
X574040Y504760D02*
X579120Y520000D01*
X584200Y504760D01*
X579120Y0D02*
X584200Y15240D01*
X574040D02*
X579120Y0D01*
X520000Y-43180D02*
Y-3810D01*
X0Y-43180D02*
Y-3810D01*
X292331Y-40640D02*
X520000D01*
X0D02*
X213106D01*
X504760Y-35560D02*
X520000Y-40640D01*
X504760Y-45720D02*
X520000Y-40640D01*
X0D02*
X15240Y-45720D01*
X0Y-40640D02*
X15240Y-35560D01*
X0Y520000D02*
X520000D01*
Y0D02*
Y520000D01*
X0Y0D02*
X520000D01*
X0D02*
Y520000D01*
D36*
X575566Y230544D02*
Y220387D01*
X583183D01*
X580644Y225466D01*
Y228005D01*
X583183Y230544D01*
X588261D01*
X590801Y228005D01*
Y222927D01*
X588261Y220387D01*
X590801Y245779D02*
Y235623D01*
X580644Y245779D01*
X578105D01*
X575566Y243240D01*
Y238162D01*
X578105Y235623D01*
X593340Y253397D02*
X590801Y255936D01*
X588261D01*
Y253397D01*
X590801D01*
Y255936D01*
X593340Y253397D01*
X595879Y250858D01*
X578105Y266093D02*
X575566Y268632D01*
Y273710D01*
X578105Y276249D01*
X588261D01*
X590801Y273710D01*
Y268632D01*
X588261Y266093D01*
X578105D01*
Y281328D02*
X575566Y283867D01*
Y288945D01*
X578105Y291485D01*
X588261D01*
X590801Y288945D01*
Y283867D01*
X588261Y281328D01*
X578105D01*
X227327Y-43185D02*
X217170D01*
Y-50802D01*
X222248Y-48263D01*
X224788D01*
X227327Y-50802D01*
Y-55881D01*
X224788Y-58420D01*
X219709D01*
X217170Y-55881D01*
X242562Y-58420D02*
X232405D01*
X242562Y-48263D01*
Y-45724D01*
X240023Y-43185D01*
X234944D01*
X232405Y-45724D01*
X250179Y-60959D02*
X252719Y-58420D01*
Y-55881D01*
X250179D01*
Y-58420D01*
X252719D01*
X250179Y-60959D01*
X247640Y-63498D01*
X262875Y-45724D02*
X265414Y-43185D01*
X270493D01*
X273032Y-45724D01*
Y-55881D01*
X270493Y-58420D01*
X265414D01*
X262875Y-55881D01*
Y-45724D01*
X278110D02*
X280650Y-43185D01*
X285728D01*
X288267Y-45724D01*
Y-55881D01*
X285728Y-58420D01*
X280650D01*
X278110Y-55881D01*
Y-45724D01*
M02*
