M48
;Layer_Color=9474304
;FILE_FORMAT=4:4
METRIC,LZ
;TYPE=PLATED
T2F00S00C0.7110
T3F00S00C0.9000
T4F00S00C1.2000
T5F00S00C1.4000
;TYPE=NON_PLATED
T1F00S00C3.0000
%
T02
X0027178Y001524
X0032131Y0017526
X0035941Y001524
X0044069Y0017526
X0025273Y0039878
X0008636Y0047244
X0008763Y0027178
T03
X00127Y0005668
X002032Y0003302
X002286
X00254
X002794
X003048
X003302
X003556
Y0010922
X003302
X003048
X002794
X00254
X002286
X002032
X001905Y0015701
X0023114Y002024
Y002278
Y002532
Y002786
Y00304
Y003294
Y003548
X0030734
Y003294
Y00304
Y002786
Y002532
Y002278
Y002024
X0035687Y0021416
X0038227Y0023368
Y0025908
Y0028448
Y0030988
Y0033528
Y0036068
Y0038608
X0045847
Y0036068
Y0033528
Y0030988
Y0028448
Y0025908
Y0023368
X0049149Y0028655
Y0038655
X0035687Y0031416
X0030781Y0041322
X0020781
X001905Y0025701
X0014351Y0025908
Y0028448
Y0030988
Y0033528
Y0036068
Y0038608
Y0041148
X0014271Y0045847
X0004271
X0006731Y0041148
Y0038608
Y0036068
Y0033528
Y0030988
Y0028448
Y0025908
X00127Y0015668
T04
X0022733Y0047291
X0025273
X0027813
X0030353
X0032893
X0035433
X0037973
X0040513
T05
X0005207Y0012319
Y0017399
T01
X0003Y0003
X0049
Y0049
M30
