G04 Layer_Physical_Order=1*
G04 Layer_Color=6759642*
%FSLAX44Y44*%
%MOMM*%
G71*
G01*
G75*
%ADD10R,1.5000X0.3000*%
%ADD11O,1.5000X0.3000*%
G04:AMPARAMS|DCode=12|XSize=2.5mm|YSize=2.5mm|CornerRadius=0.125mm|HoleSize=0mm|Usage=FLASHONLY|Rotation=90.000|XOffset=0mm|YOffset=0mm|HoleType=Round|Shape=RoundedRectangle|*
%AMROUNDEDRECTD12*
21,1,2.5000,2.2500,0,0,90.0*
21,1,2.2500,2.5000,0,0,90.0*
1,1,0.2500,1.1250,1.1250*
1,1,0.2500,1.1250,-1.1250*
1,1,0.2500,-1.1250,-1.1250*
1,1,0.2500,-1.1250,1.1250*
%
%ADD12ROUNDEDRECTD12*%
G04:AMPARAMS|DCode=13|XSize=1.5mm|YSize=2mm|CornerRadius=0.075mm|HoleSize=0mm|Usage=FLASHONLY|Rotation=0.000|XOffset=0mm|YOffset=0mm|HoleType=Round|Shape=RoundedRectangle|*
%AMROUNDEDRECTD13*
21,1,1.5000,1.8500,0,0,0.0*
21,1,1.3500,2.0000,0,0,0.0*
1,1,0.1500,0.6750,-0.9250*
1,1,0.1500,-0.6750,-0.9250*
1,1,0.1500,-0.6750,0.9250*
1,1,0.1500,0.6750,0.9250*
%
%ADD13ROUNDEDRECTD13*%
%ADD14C,0.6000*%
%ADD15C,0.2540*%
%ADD16C,0.3000*%
%ADD17C,2.0000*%
%ADD18C,0.1000*%
%ADD19C,3.0000*%
%ADD20R,1.8000X1.8000*%
%ADD21C,1.8000*%
%ADD22C,2.4000*%
%ADD23R,2.4000X2.4000*%
%ADD24C,1.5000*%
%ADD25R,1.5000X1.5000*%
%ADD26R,2.4000X2.4000*%
%ADD27C,1.7000*%
%ADD28R,1.5000X1.5000*%
%ADD29C,1.5000*%
%ADD30C,1.2700*%
G36*
X648335Y2041D02*
X647437Y1143D01*
X1270Y1270D01*
Y447675D01*
X648335D01*
Y2041D01*
D02*
G37*
%LPC*%
G36*
X467360Y239992D02*
X457662D01*
X457874Y238380D01*
X458987Y235694D01*
X460756Y233388D01*
X463062Y231619D01*
X465748Y230506D01*
X467360Y230294D01*
Y239992D01*
D02*
G37*
G36*
X417830D02*
X408132D01*
X408344Y238380D01*
X409457Y235694D01*
X411226Y233388D01*
X413532Y231619D01*
X416218Y230506D01*
X417830Y230294D01*
Y239992D01*
D02*
G37*
G36*
X381808D02*
X372110D01*
Y230294D01*
X373722Y230506D01*
X376408Y231619D01*
X378714Y233388D01*
X380483Y235694D01*
X381596Y238380D01*
X381808Y239992D01*
D02*
G37*
G36*
X336088D02*
X326390D01*
Y230294D01*
X328002Y230506D01*
X330688Y231619D01*
X332994Y233388D01*
X334763Y235694D01*
X335876Y238380D01*
X336088Y239992D01*
D02*
G37*
G36*
X369570D02*
X359872D01*
X360084Y238380D01*
X361197Y235694D01*
X362966Y233388D01*
X365272Y231619D01*
X367958Y230506D01*
X369570Y230294D01*
Y239992D01*
D02*
G37*
G36*
X252920Y224897D02*
X247440D01*
X246156Y224641D01*
X245068Y223914D01*
X244341Y222826D01*
X244086Y221542D01*
Y213562D01*
X252920D01*
Y224897D01*
D02*
G37*
G36*
X156510Y233282D02*
X133430D01*
Y210202D01*
X156510D01*
Y233282D01*
D02*
G37*
G36*
X323850Y239992D02*
X314152D01*
X314364Y238380D01*
X315477Y235694D01*
X317246Y233388D01*
X319552Y231619D01*
X322238Y230506D01*
X323850Y230294D01*
Y239992D01*
D02*
G37*
G36*
X260940Y224897D02*
X255460D01*
Y213562D01*
X264294D01*
Y221542D01*
X264039Y222826D01*
X263312Y223914D01*
X262224Y224641D01*
X260940Y224897D01*
D02*
G37*
G36*
X326390Y252230D02*
Y242532D01*
X336088D01*
X335876Y244144D01*
X334763Y246830D01*
X332994Y249136D01*
X330688Y250905D01*
X328002Y252018D01*
X326390Y252230D01*
D02*
G37*
G36*
X467360D02*
X465748Y252018D01*
X463062Y250905D01*
X460756Y249136D01*
X458987Y246830D01*
X457874Y244144D01*
X457662Y242532D01*
X467360D01*
Y252230D01*
D02*
G37*
G36*
X420370D02*
Y242532D01*
X430068D01*
X429856Y244144D01*
X428743Y246830D01*
X426974Y249136D01*
X424668Y250905D01*
X421982Y252018D01*
X420370Y252230D01*
D02*
G37*
G36*
X372110D02*
Y242532D01*
X381808D01*
X381596Y244144D01*
X380483Y246830D01*
X378714Y249136D01*
X376408Y250905D01*
X373722Y252018D01*
X372110Y252230D01*
D02*
G37*
G36*
X417830D02*
X416218Y252018D01*
X413532Y250905D01*
X411226Y249136D01*
X409457Y246830D01*
X408344Y244144D01*
X408132Y242532D01*
X417830D01*
Y252230D01*
D02*
G37*
G36*
X479598Y239992D02*
X469900D01*
Y230294D01*
X471512Y230506D01*
X474198Y231619D01*
X476504Y233388D01*
X478273Y235694D01*
X479386Y238380D01*
X479598Y239992D01*
D02*
G37*
G36*
X430068D02*
X420370D01*
Y230294D01*
X421982Y230506D01*
X424668Y231619D01*
X426974Y233388D01*
X428743Y235694D01*
X429856Y238380D01*
X430068Y239992D01*
D02*
G37*
G36*
X369570Y252230D02*
X367958Y252018D01*
X365272Y250905D01*
X362966Y249136D01*
X361197Y246830D01*
X360084Y244144D01*
X359872Y242532D01*
X369570D01*
Y252230D01*
D02*
G37*
G36*
X323850D02*
X322238Y252018D01*
X319552Y250905D01*
X317246Y249136D01*
X315477Y246830D01*
X314364Y244144D01*
X314152Y242532D01*
X323850D01*
Y252230D01*
D02*
G37*
G36*
X225870Y64460D02*
Y51232D01*
X239098D01*
X238766Y53758D01*
X237301Y57295D01*
X234970Y60332D01*
X231933Y62663D01*
X228396Y64128D01*
X225870Y64460D01*
D02*
G37*
G36*
X223330D02*
X220804Y64128D01*
X217267Y62663D01*
X214230Y60332D01*
X211899Y57295D01*
X210434Y53758D01*
X210102Y51232D01*
X223330D01*
Y64460D01*
D02*
G37*
G36*
X170370Y233382D02*
X167358Y232985D01*
X164550Y231822D01*
X162140Y229972D01*
X160290Y227562D01*
X159127Y224755D01*
X158730Y221742D01*
X159127Y218729D01*
X160290Y215922D01*
X162140Y213512D01*
X164550Y211662D01*
X167358Y210499D01*
X170370Y210102D01*
X170740Y210151D01*
X171735Y210146D01*
X173997Y210011D01*
X174898Y209894D01*
X175701Y209744D01*
X176376Y209570D01*
X176917Y209381D01*
X177322Y209193D01*
X177593Y209023D01*
X177604Y209015D01*
X207700Y178918D01*
X207317Y177505D01*
X206358Y176864D01*
X171254Y141759D01*
X171243Y141751D01*
X170972Y141581D01*
X170567Y141393D01*
X170026Y141204D01*
X169351Y141030D01*
X168548Y140880D01*
X167647Y140763D01*
X165385Y140628D01*
X164390Y140623D01*
X164020Y140672D01*
X161007Y140275D01*
X158200Y139112D01*
X155790Y137262D01*
X153940Y134852D01*
X152777Y132044D01*
X152380Y129032D01*
X152777Y126019D01*
X153940Y123212D01*
X155790Y120802D01*
X158200Y118952D01*
X161007Y117789D01*
X164020Y117393D01*
X167033Y117789D01*
X169840Y118952D01*
X172250Y120802D01*
X174100Y123212D01*
X175263Y126019D01*
X175660Y129032D01*
X175611Y129402D01*
X175616Y130396D01*
X175751Y132659D01*
X175868Y133560D01*
X176018Y134363D01*
X176192Y135038D01*
X176381Y135579D01*
X176569Y135984D01*
X176739Y136255D01*
X176747Y136266D01*
X210714Y170232D01*
X219567D01*
X220309Y168962D01*
X220071Y167767D01*
X220384Y166191D01*
X221277Y164854D01*
Y164330D01*
X220384Y162993D01*
X220071Y161417D01*
X220384Y159841D01*
X221277Y158504D01*
Y157955D01*
X220384Y156618D01*
X220071Y155042D01*
X220384Y153466D01*
X221277Y152129D01*
X222614Y151236D01*
X224190Y150923D01*
X236190D01*
X236947Y151073D01*
X238939Y151157D01*
X241910D01*
X242815Y151337D01*
X243962Y150583D01*
X244086Y150394D01*
Y143562D01*
X252920D01*
Y154896D01*
X249054D01*
X248528Y156166D01*
X253911Y161549D01*
X254018Y161641D01*
X254251Y161817D01*
X254463Y161956D01*
X254651Y162061D01*
X254814Y162136D01*
X254931Y162178D01*
X265440D01*
X266919Y162472D01*
X266996Y162524D01*
X268139Y161760D01*
X268071Y161417D01*
X268384Y159841D01*
X269277Y158504D01*
Y157955D01*
X268384Y156618D01*
X268071Y155042D01*
X268384Y153466D01*
X269277Y152129D01*
X270614Y151236D01*
X272190Y150923D01*
X283305D01*
X283337Y150901D01*
X284101Y150255D01*
X292500Y141856D01*
X292602Y141713D01*
X292744Y141461D01*
X292880Y141154D01*
X293006Y140788D01*
X293116Y140358D01*
X293200Y139902D01*
X293312Y138654D01*
X293319Y138115D01*
X293293Y137922D01*
X293599Y135601D01*
X294495Y133439D01*
X295920Y131582D01*
X297777Y130157D01*
X299939Y129261D01*
X302260Y128955D01*
X304581Y129261D01*
X306743Y130157D01*
X308600Y131582D01*
X310025Y133439D01*
X310921Y135601D01*
X311227Y137922D01*
X310921Y140243D01*
X310025Y142405D01*
X308600Y144262D01*
X306743Y145687D01*
X304581Y146583D01*
X302260Y146889D01*
X302067Y146863D01*
X301492Y146871D01*
X300874Y146909D01*
X300317Y146976D01*
X299824Y147066D01*
X299394Y147176D01*
X299028Y147302D01*
X298721Y147438D01*
X298469Y147580D01*
X298326Y147682D01*
X288053Y157955D01*
X287497Y158326D01*
X287344Y158465D01*
X287841Y159610D01*
X287996Y159841D01*
X288309Y161417D01*
X288176Y162085D01*
X288192Y162121D01*
X289277Y163062D01*
X290830Y162754D01*
X295640D01*
X301946Y156447D01*
X304863Y153387D01*
X308398Y149181D01*
X309734Y147360D01*
X310812Y145698D01*
X311617Y144231D01*
X312153Y142983D01*
X312438Y141986D01*
X312496Y141443D01*
X312472Y141262D01*
X312903Y137988D01*
X314166Y134938D01*
X316176Y132318D01*
X318796Y130308D01*
X321846Y129045D01*
X325120Y128614D01*
X468630D01*
X471904Y129045D01*
X474954Y130308D01*
X477574Y132318D01*
X479584Y134938D01*
X480847Y137988D01*
X481278Y141262D01*
X480847Y144536D01*
X479584Y147586D01*
X477574Y150206D01*
X474954Y152216D01*
X471904Y153479D01*
X468630Y153910D01*
X325120D01*
X324939Y153886D01*
X324397Y153944D01*
X323400Y154228D01*
X322151Y154765D01*
X320684Y155570D01*
X319022Y156648D01*
X317220Y157971D01*
X310849Y163521D01*
X301974Y172396D01*
X300142Y173621D01*
X298367Y173974D01*
X298290Y175186D01*
Y176257D01*
X297994Y177744D01*
X297152Y179004D01*
X292942Y183214D01*
X291682Y184056D01*
X290195Y184352D01*
X288813D01*
X288071Y185622D01*
X288309Y186817D01*
X287996Y188393D01*
X287103Y189730D01*
Y190254D01*
X287996Y191591D01*
X288057Y191897D01*
X278190D01*
Y194437D01*
X288057D01*
X287996Y194743D01*
X287103Y196080D01*
Y196629D01*
X287996Y197966D01*
X288057Y198272D01*
X278190D01*
X268323D01*
X268384Y197966D01*
X269277Y196629D01*
Y196080D01*
X268384Y194743D01*
X268071Y193167D01*
X268139Y192824D01*
X266996Y192060D01*
X266919Y192112D01*
X265440Y192406D01*
X251311D01*
X251194Y192448D01*
X251031Y192523D01*
X250843Y192628D01*
X250631Y192767D01*
X250398Y192943D01*
X250291Y193035D01*
X241037Y202289D01*
X240230Y202828D01*
Y203582D01*
X220150D01*
Y195502D01*
X220150Y195502D01*
X220283Y194232D01*
X220071Y193167D01*
X220384Y191591D01*
X220814Y190948D01*
X221178Y189992D01*
X220814Y189036D01*
X220384Y188393D01*
X220071Y186817D01*
X220309Y185622D01*
X219567Y184352D01*
X213254D01*
X183097Y214508D01*
X183089Y214519D01*
X182919Y214790D01*
X182731Y215195D01*
X182542Y215736D01*
X182368Y216411D01*
X182218Y217214D01*
X182101Y218115D01*
X181966Y220378D01*
X181961Y221372D01*
X182010Y221742D01*
X181613Y224755D01*
X180450Y227562D01*
X178600Y229972D01*
X176190Y231822D01*
X173382Y232985D01*
X170370Y233382D01*
D02*
G37*
G36*
X150160Y140572D02*
X127080D01*
Y117492D01*
X150160D01*
Y140572D01*
D02*
G37*
G36*
X239098Y48692D02*
X225870D01*
Y35464D01*
X228396Y35796D01*
X231933Y37261D01*
X234970Y39592D01*
X237301Y42629D01*
X238766Y46166D01*
X239098Y48692D01*
D02*
G37*
G36*
X600000Y67625D02*
X596562Y67286D01*
X593255Y66283D01*
X590208Y64654D01*
X587537Y62463D01*
X585345Y59792D01*
X583717Y56745D01*
X582714Y53439D01*
X582375Y50000D01*
X582714Y46562D01*
X583717Y43255D01*
X585345Y40208D01*
X587537Y37537D01*
X590208Y35345D01*
X593255Y33717D01*
X596562Y32714D01*
X600000Y32375D01*
X603438Y32714D01*
X606745Y33717D01*
X609792Y35345D01*
X612463Y37537D01*
X614655Y40208D01*
X616283Y43255D01*
X617286Y46562D01*
X617625Y50000D01*
X617286Y53439D01*
X616283Y56745D01*
X614655Y59792D01*
X612463Y62463D01*
X609792Y64654D01*
X606745Y66283D01*
X603438Y67286D01*
X600000Y67625D01*
D02*
G37*
G36*
X50000D02*
X46562Y67286D01*
X43255Y66283D01*
X40208Y64654D01*
X37537Y62463D01*
X35345Y59792D01*
X33717Y56745D01*
X32714Y53439D01*
X32375Y50000D01*
X32714Y46562D01*
X33717Y43255D01*
X35345Y40208D01*
X37537Y37537D01*
X40208Y35345D01*
X43255Y33717D01*
X46562Y32714D01*
X50000Y32375D01*
X53439Y32714D01*
X56745Y33717D01*
X59792Y35345D01*
X62463Y37537D01*
X64654Y40208D01*
X66283Y43255D01*
X67286Y46562D01*
X67625Y50000D01*
X67286Y53439D01*
X66283Y56745D01*
X64654Y59792D01*
X62463Y62463D01*
X59792Y64654D01*
X56745Y66283D01*
X53439Y67286D01*
X50000Y67625D01*
D02*
G37*
G36*
X223330Y48692D02*
X210102D01*
X210434Y46166D01*
X211899Y42629D01*
X214230Y39592D01*
X217267Y37261D01*
X220804Y35796D01*
X223330Y35464D01*
Y48692D01*
D02*
G37*
G36*
X289940Y64502D02*
X260860D01*
Y35422D01*
X289940D01*
Y64502D01*
D02*
G37*
G36*
X264294Y211022D02*
X255460D01*
Y199688D01*
X260940D01*
X262224Y199943D01*
X263312Y200670D01*
X264039Y201758D01*
X264294Y203042D01*
Y211022D01*
D02*
G37*
G36*
X252920D02*
X244086D01*
Y203042D01*
X244341Y201758D01*
X245068Y200670D01*
X246156Y199943D01*
X247440Y199688D01*
X252920D01*
Y211022D01*
D02*
G37*
G36*
X284190Y203661D02*
X279460D01*
Y200812D01*
X288057D01*
X287996Y201118D01*
X287103Y202455D01*
X285766Y203348D01*
X284190Y203661D01*
D02*
G37*
G36*
X276920D02*
X272190D01*
X270614Y203348D01*
X269277Y202455D01*
X268384Y201118D01*
X268323Y200812D01*
X276920D01*
Y203661D01*
D02*
G37*
G36*
X50000Y222437D02*
X46204Y221938D01*
X42667Y220473D01*
X39630Y218142D01*
X37299Y215105D01*
X35834Y211568D01*
X35334Y207772D01*
X35834Y203976D01*
X37299Y200439D01*
X39630Y197402D01*
X42667Y195071D01*
X46204Y193606D01*
X50000Y193106D01*
X53796Y193606D01*
X57333Y195071D01*
X60370Y197402D01*
X62701Y200439D01*
X64166Y203976D01*
X64665Y207772D01*
X64166Y211568D01*
X62701Y215105D01*
X60370Y218142D01*
X57333Y220473D01*
X53796Y221938D01*
X50000Y222437D01*
D02*
G37*
G36*
X264294Y141022D02*
X255460D01*
Y129688D01*
X260940D01*
X262224Y129943D01*
X263312Y130670D01*
X264039Y131758D01*
X264294Y133042D01*
Y141022D01*
D02*
G37*
G36*
X252920D02*
X244086D01*
Y133042D01*
X244341Y131758D01*
X245068Y130670D01*
X246156Y129943D01*
X247440Y129688D01*
X252920D01*
Y141022D01*
D02*
G37*
G36*
X260940Y154896D02*
X255460D01*
Y143562D01*
X264294D01*
Y151542D01*
X264039Y152826D01*
X263312Y153914D01*
X262224Y154641D01*
X260940Y154896D01*
D02*
G37*
G36*
X64540Y171512D02*
X35460D01*
Y142432D01*
X64540D01*
Y171512D01*
D02*
G37*
G36*
X420370Y440149D02*
X417749Y439804D01*
X415307Y438792D01*
X413209Y437183D01*
X411600Y435085D01*
X410588Y432643D01*
X410243Y430022D01*
X410588Y427401D01*
X411600Y424959D01*
X413209Y422861D01*
X415307Y421252D01*
X417749Y420240D01*
X420370Y419895D01*
X422991Y420240D01*
X425433Y421252D01*
X427531Y422861D01*
X429140Y424959D01*
X430152Y427401D01*
X430497Y430022D01*
X430152Y432643D01*
X429140Y435085D01*
X427531Y437183D01*
X425433Y438792D01*
X422991Y439804D01*
X420370Y440149D01*
D02*
G37*
G36*
X445770D02*
X443149Y439804D01*
X440707Y438792D01*
X438609Y437183D01*
X437000Y435085D01*
X435988Y432643D01*
X435643Y430022D01*
X435988Y427401D01*
X437000Y424959D01*
X438609Y422861D01*
X440707Y421252D01*
X443149Y420240D01*
X445770Y419895D01*
X448391Y420240D01*
X450833Y421252D01*
X452931Y422861D01*
X454540Y424959D01*
X455552Y427401D01*
X455897Y430022D01*
X455552Y432643D01*
X454540Y435085D01*
X452931Y437183D01*
X450833Y438792D01*
X448391Y439804D01*
X445770Y440149D01*
D02*
G37*
G36*
X369570D02*
X366949Y439804D01*
X364507Y438792D01*
X362409Y437183D01*
X360800Y435085D01*
X359788Y432643D01*
X359443Y430022D01*
X359788Y427401D01*
X360800Y424959D01*
X362409Y422861D01*
X364507Y421252D01*
X366949Y420240D01*
X369570Y419895D01*
X372191Y420240D01*
X374633Y421252D01*
X376731Y422861D01*
X378340Y424959D01*
X379352Y427401D01*
X379697Y430022D01*
X379352Y432643D01*
X378340Y435085D01*
X376731Y437183D01*
X374633Y438792D01*
X372191Y439804D01*
X369570Y440149D01*
D02*
G37*
G36*
X394970D02*
X392349Y439804D01*
X389907Y438792D01*
X387809Y437183D01*
X386200Y435085D01*
X385188Y432643D01*
X384843Y430022D01*
X385188Y427401D01*
X386200Y424959D01*
X387809Y422861D01*
X389907Y421252D01*
X392349Y420240D01*
X394970Y419895D01*
X397591Y420240D01*
X400033Y421252D01*
X402131Y422861D01*
X403740Y424959D01*
X404752Y427401D01*
X405097Y430022D01*
X404752Y432643D01*
X403740Y435085D01*
X402131Y437183D01*
X400033Y438792D01*
X397591Y439804D01*
X394970Y440149D01*
D02*
G37*
G36*
X472440Y363781D02*
Y355092D01*
X481129D01*
X480952Y356443D01*
X479940Y358885D01*
X478331Y360983D01*
X476233Y362592D01*
X473791Y363604D01*
X472440Y363781D01*
D02*
G37*
G36*
X469900Y352552D02*
X461211D01*
X461388Y351201D01*
X462400Y348759D01*
X464009Y346661D01*
X466107Y345052D01*
X468549Y344040D01*
X469900Y343863D01*
Y352552D01*
D02*
G37*
G36*
X328810Y363862D02*
X308730D01*
Y343782D01*
X328810D01*
Y363862D01*
D02*
G37*
G36*
X469900Y363781D02*
X468549Y363604D01*
X466107Y362592D01*
X464009Y360983D01*
X462400Y358885D01*
X461388Y356443D01*
X461211Y355092D01*
X469900D01*
Y363781D01*
D02*
G37*
G36*
X481129Y352552D02*
X472440D01*
Y343863D01*
X473791Y344040D01*
X476233Y345052D01*
X478331Y346661D01*
X479940Y348759D01*
X480952Y351201D01*
X481129Y352552D01*
D02*
G37*
G36*
X268440Y400517D02*
X265558Y400138D01*
X262872Y399025D01*
X260566Y397256D01*
X258797Y394950D01*
X257684Y392264D01*
X257305Y389382D01*
X257684Y386500D01*
X258797Y383814D01*
X260566Y381508D01*
X262872Y379739D01*
X265558Y378626D01*
X268440Y378247D01*
X271322Y378626D01*
X274008Y379739D01*
X276314Y381508D01*
X278083Y383814D01*
X279196Y386500D01*
X279575Y389382D01*
X279196Y392264D01*
X278083Y394950D01*
X276314Y397256D01*
X274008Y399025D01*
X271322Y400138D01*
X268440Y400517D01*
D02*
G37*
G36*
X611440Y392492D02*
X582360D01*
Y363412D01*
X611440D01*
Y392492D01*
D02*
G37*
G36*
X167170Y388112D02*
X157472D01*
X157684Y386500D01*
X158797Y383814D01*
X160566Y381508D01*
X162872Y379739D01*
X165558Y378626D01*
X167170Y378414D01*
Y388112D01*
D02*
G37*
G36*
X179408D02*
X169710D01*
Y378414D01*
X171322Y378626D01*
X174008Y379739D01*
X176314Y381508D01*
X178083Y383814D01*
X179196Y386500D01*
X179408Y388112D01*
D02*
G37*
G36*
X50000Y417625D02*
X46562Y417286D01*
X43255Y416283D01*
X40208Y414655D01*
X37537Y412463D01*
X35345Y409792D01*
X33717Y406745D01*
X32714Y403438D01*
X32375Y400000D01*
X32714Y396562D01*
X33717Y393255D01*
X35345Y390208D01*
X37537Y387537D01*
X40208Y385345D01*
X43255Y383717D01*
X46562Y382714D01*
X50000Y382375D01*
X53439Y382714D01*
X56745Y383717D01*
X59792Y385345D01*
X62463Y387537D01*
X64654Y390208D01*
X66283Y393255D01*
X67286Y396562D01*
X67625Y400000D01*
X67286Y403438D01*
X66283Y406745D01*
X64654Y409792D01*
X62463Y412463D01*
X59792Y414655D01*
X56745Y416283D01*
X53439Y417286D01*
X50000Y417625D01*
D02*
G37*
G36*
X318770Y440149D02*
X316149Y439804D01*
X313707Y438792D01*
X311609Y437183D01*
X310000Y435085D01*
X308988Y432643D01*
X308643Y430022D01*
X308988Y427401D01*
X310000Y424959D01*
X311609Y422861D01*
X313707Y421252D01*
X316149Y420240D01*
X318770Y419895D01*
X321391Y420240D01*
X323833Y421252D01*
X325931Y422861D01*
X327540Y424959D01*
X328552Y427401D01*
X328897Y430022D01*
X328552Y432643D01*
X327540Y435085D01*
X325931Y437183D01*
X323833Y438792D01*
X321391Y439804D01*
X318770Y440149D01*
D02*
G37*
G36*
X344170D02*
X341549Y439804D01*
X339107Y438792D01*
X337009Y437183D01*
X335400Y435085D01*
X334388Y432643D01*
X334043Y430022D01*
X334388Y427401D01*
X335400Y424959D01*
X337009Y422861D01*
X339107Y421252D01*
X341549Y420240D01*
X344170Y419895D01*
X346791Y420240D01*
X349233Y421252D01*
X351331Y422861D01*
X352940Y424959D01*
X353952Y427401D01*
X354297Y430022D01*
X353952Y432643D01*
X352940Y435085D01*
X351331Y437183D01*
X349233Y438792D01*
X346791Y439804D01*
X344170Y440149D01*
D02*
G37*
G36*
X167170Y400350D02*
X165558Y400138D01*
X162872Y399025D01*
X160566Y397256D01*
X158797Y394950D01*
X157684Y392264D01*
X157472Y390652D01*
X167170D01*
Y400350D01*
D02*
G37*
G36*
X169710D02*
Y390652D01*
X179408D01*
X179196Y392264D01*
X178083Y394950D01*
X176314Y397256D01*
X174008Y399025D01*
X171322Y400138D01*
X169710Y400350D01*
D02*
G37*
G36*
X445770Y363949D02*
X443149Y363604D01*
X440707Y362592D01*
X438609Y360983D01*
X437000Y358885D01*
X435988Y356443D01*
X435643Y353822D01*
X435988Y351201D01*
X437000Y348759D01*
X438609Y346661D01*
X440707Y345052D01*
X443149Y344040D01*
X445770Y343695D01*
X448391Y344040D01*
X450833Y345052D01*
X452931Y346661D01*
X454540Y348759D01*
X455552Y351201D01*
X455897Y353822D01*
X455552Y356443D01*
X454540Y358885D01*
X452931Y360983D01*
X450833Y362592D01*
X448391Y363604D01*
X445770Y363949D01*
D02*
G37*
G36*
X268440Y345907D02*
X265558Y345528D01*
X262872Y344415D01*
X260566Y342646D01*
X258797Y340340D01*
X257684Y337654D01*
X257305Y334772D01*
X257684Y331890D01*
X258797Y329204D01*
X260566Y326898D01*
X262872Y325129D01*
X265558Y324016D01*
X268440Y323637D01*
X271322Y324016D01*
X274008Y325129D01*
X276314Y326898D01*
X278083Y329204D01*
X279196Y331890D01*
X279575Y334772D01*
X279196Y337654D01*
X278083Y340340D01*
X276314Y342646D01*
X274008Y344415D01*
X271322Y345528D01*
X268440Y345907D01*
D02*
G37*
G36*
X611398Y325882D02*
X598170D01*
Y312654D01*
X600696Y312986D01*
X604233Y314451D01*
X607270Y316782D01*
X609601Y319819D01*
X611066Y323356D01*
X611398Y325882D01*
D02*
G37*
G36*
X179408Y333502D02*
X169710D01*
Y323804D01*
X171322Y324016D01*
X174008Y325129D01*
X176314Y326898D01*
X178083Y329204D01*
X179196Y331890D01*
X179408Y333502D01*
D02*
G37*
G36*
X167170D02*
X157472D01*
X157684Y331890D01*
X158797Y329204D01*
X160566Y326898D01*
X162872Y325129D01*
X165558Y324016D01*
X167170Y323804D01*
Y333502D01*
D02*
G37*
G36*
X595630Y325882D02*
X582402D01*
X582734Y323356D01*
X584199Y319819D01*
X586530Y316782D01*
X589567Y314451D01*
X593104Y312986D01*
X595630Y312654D01*
Y325882D01*
D02*
G37*
G36*
X365760Y316959D02*
X363139Y316614D01*
X360697Y315602D01*
X358599Y313993D01*
X356990Y311895D01*
X355978Y309453D01*
X355633Y306832D01*
X355978Y304211D01*
X356990Y301769D01*
X358599Y299671D01*
X360697Y298062D01*
X363139Y297050D01*
X365760Y296705D01*
X368381Y297050D01*
X370823Y298062D01*
X372921Y299671D01*
X374530Y301769D01*
X375542Y304211D01*
X375887Y306832D01*
X375542Y309453D01*
X374530Y311895D01*
X372921Y313993D01*
X370823Y315602D01*
X368381Y316614D01*
X365760Y316959D01*
D02*
G37*
G36*
X469900Y252230D02*
Y242532D01*
X479598D01*
X479386Y244144D01*
X478273Y246830D01*
X476504Y249136D01*
X474198Y250905D01*
X471512Y252018D01*
X469900Y252230D01*
D02*
G37*
G36*
X426600Y316872D02*
X406520D01*
Y296792D01*
X426600D01*
Y316872D01*
D02*
G37*
G36*
X391160Y316959D02*
X388539Y316614D01*
X386097Y315602D01*
X383999Y313993D01*
X382390Y311895D01*
X381378Y309453D01*
X381033Y306832D01*
X381378Y304211D01*
X382390Y301769D01*
X383999Y299671D01*
X386097Y298062D01*
X388539Y297050D01*
X391160Y296705D01*
X393781Y297050D01*
X396223Y298062D01*
X398321Y299671D01*
X399930Y301769D01*
X400942Y304211D01*
X401287Y306832D01*
X400942Y309453D01*
X399930Y311895D01*
X398321Y313993D01*
X396223Y315602D01*
X393781Y316614D01*
X391160Y316959D01*
D02*
G37*
G36*
X394970Y363949D02*
X392349Y363604D01*
X389907Y362592D01*
X387809Y360983D01*
X386200Y358885D01*
X385188Y356443D01*
X384843Y353822D01*
X385188Y351201D01*
X386200Y348759D01*
X387809Y346661D01*
X389907Y345052D01*
X392349Y344040D01*
X394970Y343695D01*
X397591Y344040D01*
X400033Y345052D01*
X402131Y346661D01*
X403740Y348759D01*
X404752Y351201D01*
X405097Y353822D01*
X404752Y356443D01*
X403740Y358885D01*
X402131Y360983D01*
X400033Y362592D01*
X397591Y363604D01*
X394970Y363949D01*
D02*
G37*
G36*
X369570D02*
X366949Y363604D01*
X364507Y362592D01*
X362409Y360983D01*
X360800Y358885D01*
X359788Y356443D01*
X359443Y353822D01*
X359788Y351201D01*
X360800Y348759D01*
X362409Y346661D01*
X364507Y345052D01*
X366949Y344040D01*
X369570Y343695D01*
X372191Y344040D01*
X374633Y345052D01*
X376731Y346661D01*
X378340Y348759D01*
X379352Y351201D01*
X379697Y353822D01*
X379352Y356443D01*
X378340Y358885D01*
X376731Y360983D01*
X374633Y362592D01*
X372191Y363604D01*
X369570Y363949D01*
D02*
G37*
G36*
X471170Y440149D02*
X468549Y439804D01*
X466107Y438792D01*
X464009Y437183D01*
X462400Y435085D01*
X461388Y432643D01*
X461043Y430022D01*
X461388Y427401D01*
X462400Y424959D01*
X464009Y422861D01*
X466107Y421252D01*
X468549Y420240D01*
X471170Y419895D01*
X473791Y420240D01*
X476233Y421252D01*
X478331Y422861D01*
X479940Y424959D01*
X480952Y427401D01*
X481297Y430022D01*
X480952Y432643D01*
X479940Y435085D01*
X478331Y437183D01*
X476233Y438792D01*
X473791Y439804D01*
X471170Y440149D01*
D02*
G37*
G36*
X420370Y363949D02*
X417749Y363604D01*
X415307Y362592D01*
X413209Y360983D01*
X411600Y358885D01*
X410588Y356443D01*
X410243Y353822D01*
X410588Y351201D01*
X411600Y348759D01*
X413209Y346661D01*
X415307Y345052D01*
X417749Y344040D01*
X420370Y343695D01*
X422991Y344040D01*
X425433Y345052D01*
X427531Y346661D01*
X429140Y348759D01*
X430152Y351201D01*
X430497Y353822D01*
X430152Y356443D01*
X429140Y358885D01*
X427531Y360983D01*
X425433Y362592D01*
X422991Y363604D01*
X420370Y363949D01*
D02*
G37*
G36*
X344170D02*
X341549Y363604D01*
X339107Y362592D01*
X337009Y360983D01*
X335400Y358885D01*
X334388Y356443D01*
X334043Y353822D01*
X334388Y351201D01*
X335400Y348759D01*
X337009Y346661D01*
X339107Y345052D01*
X341549Y344040D01*
X344170Y343695D01*
X346791Y344040D01*
X349233Y345052D01*
X351331Y346661D01*
X352940Y348759D01*
X353952Y351201D01*
X354297Y353822D01*
X353952Y356443D01*
X352940Y358885D01*
X351331Y360983D01*
X349233Y362592D01*
X346791Y363604D01*
X344170Y363949D01*
D02*
G37*
G36*
X598170Y341650D02*
Y328422D01*
X611398D01*
X611066Y330948D01*
X609601Y334485D01*
X607270Y337522D01*
X604233Y339853D01*
X600696Y341318D01*
X598170Y341650D01*
D02*
G37*
G36*
X595630D02*
X593104Y341318D01*
X589567Y339853D01*
X586530Y337522D01*
X584199Y334485D01*
X582734Y330948D01*
X582402Y328422D01*
X595630D01*
Y341650D01*
D02*
G37*
G36*
X167170Y345740D02*
X165558Y345528D01*
X162872Y344415D01*
X160566Y342646D01*
X158797Y340340D01*
X157684Y337654D01*
X157472Y336042D01*
X167170D01*
Y345740D01*
D02*
G37*
G36*
X169710D02*
Y336042D01*
X179408D01*
X179196Y337654D01*
X178083Y340340D01*
X176314Y342646D01*
X174008Y344415D01*
X171322Y345528D01*
X169710Y345740D01*
D02*
G37*
%LPD*%
G36*
X175037Y138253D02*
X174641Y137786D01*
X174288Y137219D01*
X173978Y136554D01*
X173712Y135790D01*
X173489Y134926D01*
X173309Y133964D01*
X173172Y132902D01*
X173027Y130481D01*
X173020Y129122D01*
X164110Y138032D01*
X165469Y138039D01*
X167890Y138183D01*
X168952Y138321D01*
X169914Y138501D01*
X170778Y138724D01*
X171542Y138990D01*
X172207Y139300D01*
X172773Y139653D01*
X173241Y140049D01*
X175037Y138253D01*
D02*
G37*
G36*
X266679Y182766D02*
X266756Y182550D01*
X266884Y182359D01*
X267064Y182194D01*
X267296Y182055D01*
X267578Y181940D01*
X267913Y181851D01*
X268298Y181788D01*
X268735Y181750D01*
X269027Y181742D01*
X271617Y181851D01*
Y179083D01*
X271559Y179104D01*
X271453Y179124D01*
X271301Y179141D01*
X270559Y179179D01*
X269129Y179195D01*
X268735Y179184D01*
X268298Y179146D01*
X267913Y179083D01*
X267578Y178994D01*
X267296Y178880D01*
X267064Y178740D01*
X266884Y178575D01*
X266756Y178384D01*
X266679Y178168D01*
X266653Y177927D01*
Y183007D01*
X266679Y182766D01*
D02*
G37*
G36*
X223617Y179083D02*
X223559Y179104D01*
X223454Y179124D01*
X223301Y179141D01*
X222559Y179179D01*
X220906Y179197D01*
Y181737D01*
X223617Y181851D01*
Y179083D01*
D02*
G37*
G36*
Y172733D02*
X223559Y172754D01*
X223454Y172774D01*
X223301Y172791D01*
X222559Y172829D01*
X220906Y172847D01*
Y175387D01*
X223617Y175501D01*
Y172733D01*
D02*
G37*
G36*
X179377Y220293D02*
X179522Y217872D01*
X179659Y216810D01*
X179839Y215848D01*
X180062Y214984D01*
X180328Y214220D01*
X180638Y213555D01*
X180991Y212988D01*
X181387Y212521D01*
X179591Y210725D01*
X179123Y211121D01*
X178557Y211474D01*
X177892Y211784D01*
X177128Y212050D01*
X176264Y212273D01*
X175302Y212453D01*
X174240Y212591D01*
X171819Y212735D01*
X170460Y212742D01*
X179370Y221652D01*
X179377Y220293D01*
D02*
G37*
G36*
X248411Y191234D02*
X248775Y190924D01*
X249137Y190650D01*
X249498Y190413D01*
X249858Y190212D01*
X250217Y190047D01*
X250574Y189919D01*
X250930Y189828D01*
X251285Y189773D01*
X251639Y189755D01*
X244454D01*
X244783Y189773D01*
X245039Y189828D01*
X245222Y189919D01*
X245331Y190047D01*
X245368Y190212D01*
X245331Y190413D01*
X245222Y190650D01*
X245039Y190924D01*
X244783Y191234D01*
X244454Y191581D01*
X248047D01*
X248411Y191234D01*
D02*
G37*
G36*
X284821Y181829D02*
X284926Y181810D01*
X285079Y181793D01*
X285821Y181755D01*
X287474Y181737D01*
Y179197D01*
X284763Y179083D01*
Y181851D01*
X284821Y181829D01*
D02*
G37*
G36*
X295685Y175341D02*
X295831Y173032D01*
X295919Y172409D01*
X296027Y171859D01*
X296154Y171382D01*
X296301Y170977D01*
X296467Y170647D01*
X296653Y170389D01*
X292157D01*
X292343Y170647D01*
X292509Y170977D01*
X292656Y171382D01*
X292783Y171859D01*
X292890Y172409D01*
X292979Y173032D01*
X293096Y174499D01*
X293135Y176257D01*
X295675D01*
X295685Y175341D01*
D02*
G37*
G36*
X284894Y157067D02*
X285173Y156892D01*
X285600Y156551D01*
X286895Y155370D01*
X288779Y153524D01*
X286584Y151477D01*
X285988Y152052D01*
X284914Y152959D01*
X284436Y153290D01*
X283997Y153541D01*
X283598Y153710D01*
X283238Y153798D01*
X282918Y153805D01*
X282637Y153730D01*
X282396Y153574D01*
X285249Y156102D01*
X284939Y156592D01*
X284777Y156917D01*
X284762Y157075D01*
X284894Y157067D01*
D02*
G37*
G36*
X308883Y161800D02*
X315600Y155947D01*
X317549Y154516D01*
X319354Y153345D01*
X321015Y152434D01*
X322530Y151784D01*
X323900Y151393D01*
X325126Y151262D01*
X323700Y149835D01*
X324221Y149783D01*
X325035Y149762D01*
X316620Y141347D01*
X316599Y142161D01*
X316547Y142682D01*
X315120Y141256D01*
X314989Y142482D01*
X314599Y143852D01*
X313948Y145367D01*
X313037Y147028D01*
X311866Y148833D01*
X310435Y150782D01*
X306793Y155116D01*
X302111Y160028D01*
X306354Y164271D01*
X308883Y161800D01*
D02*
G37*
G36*
X296649Y145696D02*
X297080Y145390D01*
X297557Y145121D01*
X298081Y144888D01*
X298651Y144693D01*
X299268Y144535D01*
X299931Y144413D01*
X300640Y144329D01*
X301395Y144282D01*
X302197Y144272D01*
X295910Y137985D01*
X295900Y138787D01*
X295769Y140251D01*
X295647Y140914D01*
X295489Y141531D01*
X295294Y142101D01*
X295061Y142625D01*
X294792Y143102D01*
X294486Y143533D01*
X294142Y143919D01*
X296264Y146040D01*
X296649Y145696D01*
D02*
G37*
G36*
X284821Y169130D02*
X284926Y169110D01*
X285079Y169093D01*
X285821Y169055D01*
X287474Y169037D01*
Y166497D01*
X284763Y166383D01*
Y169151D01*
X284821Y169130D01*
D02*
G37*
G36*
X254905Y164811D02*
X254550Y164756D01*
X254194Y164665D01*
X253836Y164537D01*
X253478Y164372D01*
X253118Y164172D01*
X252757Y163934D01*
X252395Y163660D01*
X252031Y163350D01*
X251667Y163002D01*
X248074D01*
X248403Y163350D01*
X248659Y163660D01*
X248842Y163934D01*
X248951Y164172D01*
X248988Y164372D01*
X248951Y164537D01*
X248842Y164665D01*
X248659Y164756D01*
X248403Y164811D01*
X248074Y164829D01*
X255259D01*
X254905Y164811D01*
D02*
G37*
G36*
X236821Y156404D02*
X236926Y156385D01*
X237079Y156368D01*
X237821Y156330D01*
X239474Y156312D01*
Y153772D01*
X236763Y153658D01*
Y156426D01*
X236821Y156404D01*
D02*
G37*
D10*
X230190Y199542D02*
D03*
D11*
Y193167D02*
D03*
Y186817D02*
D03*
Y180467D02*
D03*
Y174117D02*
D03*
Y167767D02*
D03*
Y161417D02*
D03*
Y155042D02*
D03*
X278190Y199542D02*
D03*
Y193167D02*
D03*
Y186817D02*
D03*
Y180467D02*
D03*
Y174117D02*
D03*
Y167767D02*
D03*
Y161417D02*
D03*
Y155042D02*
D03*
D12*
X254190Y177292D02*
D03*
D13*
Y212292D02*
D03*
Y142292D02*
D03*
D14*
X290830Y168402D02*
X294405D01*
X297980D01*
X325120Y141262D01*
D15*
X294405Y168402D02*
Y176257D01*
X290195Y180467D02*
X294405Y176257D01*
X278190Y180467D02*
X290195D01*
Y167767D02*
X290830Y168402D01*
X278190Y167767D02*
X290195D01*
X164020Y129032D02*
X209105Y174117D01*
X230190D01*
X170370Y221742D02*
X211645Y180467D01*
X230190D01*
X254190Y167322D02*
Y177292D01*
X241910Y155042D02*
X254190Y167322D01*
X230190Y155042D02*
X241910D01*
X238290Y199542D02*
X257365Y180467D01*
X230190Y199542D02*
X238290D01*
X257365Y180467D02*
X278190D01*
D16*
X285140Y155042D02*
X302260Y137922D01*
X278190Y155042D02*
X285140D01*
D17*
X419100Y141262D02*
X468630D01*
X370840D02*
X419100D01*
X325120D02*
X370840D01*
D18*
X0Y-38D02*
Y449962D01*
Y-38D02*
X650000D01*
Y449962D01*
X0D02*
X650000D01*
D19*
X50000Y400000D02*
D03*
X600000Y50000D02*
D03*
X50000D02*
D03*
D20*
X138620Y129032D02*
D03*
X144970Y221742D02*
D03*
D21*
X164020Y129032D02*
D03*
X170370Y221742D02*
D03*
D22*
X50000Y207772D02*
D03*
X596900Y327152D02*
D03*
X224600Y49962D02*
D03*
D23*
X50000Y156972D02*
D03*
X596900Y377952D02*
D03*
D24*
X391160Y306832D02*
D03*
X365760D02*
D03*
D25*
X416560D02*
D03*
D26*
X275400Y49962D02*
D03*
D27*
X468630Y141262D02*
D03*
Y241262D02*
D03*
X268440Y334772D02*
D03*
X168440D02*
D03*
X419100Y141262D02*
D03*
Y241262D02*
D03*
X268440Y389382D02*
D03*
X168440D02*
D03*
X370840Y141262D02*
D03*
Y241262D02*
D03*
X325120Y141262D02*
D03*
Y241262D02*
D03*
D28*
X318770Y353822D02*
D03*
D29*
X344170D02*
D03*
X369570D02*
D03*
X394970D02*
D03*
X420370D02*
D03*
X445770D02*
D03*
X471170D02*
D03*
X318770Y430022D02*
D03*
X344170D02*
D03*
X369570D02*
D03*
X394970D02*
D03*
X420370D02*
D03*
X445770D02*
D03*
X471170D02*
D03*
D30*
X302260Y137922D02*
D03*
M02*
