G04 Layer_Color=32768*
%FSLAX44Y44*%
%MOMM*%
G71*
G01*
G75*
%ADD15C,0.2540*%
%ADD18C,0.1000*%
%ADD52C,0.1524*%
D15*
X650000Y-28575D02*
Y-3078D01*
X0Y-28575D02*
Y-3078D01*
X360549Y-26035D02*
X650000D01*
X0D02*
X281324D01*
X634760Y-20955D02*
X650000Y-26035D01*
X634760Y-31115D02*
X650000Y-26035D01*
X0D02*
X15240Y-31115D01*
X0Y-26035D02*
X15240Y-20955D01*
X-34163Y449962D02*
X-3040D01*
X-34163Y-38D02*
X-3040D01*
X-31623Y260511D02*
Y449962D01*
Y-38D02*
Y181285D01*
X-36703Y434722D02*
X-31623Y449962D01*
X-26543Y434722D01*
X-31623Y-38D02*
X-26543Y15202D01*
X-36703D02*
X-31623Y-38D01*
D18*
X0D02*
Y449962D01*
Y-38D02*
X650000D01*
Y449962D01*
X0D02*
X650000D01*
D52*
X295544Y-22481D02*
X290466Y-25020D01*
X285387Y-30098D01*
Y-35176D01*
X287927Y-37716D01*
X293005D01*
X295544Y-35176D01*
Y-32637D01*
X293005Y-30098D01*
X285387D01*
X310779Y-22481D02*
X300623D01*
Y-30098D01*
X305701Y-27559D01*
X308240D01*
X310779Y-30098D01*
Y-35176D01*
X308240Y-37716D01*
X303162D01*
X300623Y-35176D01*
X318397Y-40255D02*
X320936Y-37716D01*
Y-35176D01*
X318397D01*
Y-37716D01*
X320936D01*
X318397Y-40255D01*
X315858Y-42794D01*
X331093Y-25020D02*
X333632Y-22481D01*
X338710D01*
X341249Y-25020D01*
Y-35176D01*
X338710Y-37716D01*
X333632D01*
X331093Y-35176D01*
Y-25020D01*
X346328D02*
X348867Y-22481D01*
X353945D01*
X356484Y-25020D01*
Y-35176D01*
X353945Y-37716D01*
X348867D01*
X346328Y-35176D01*
Y-25020D01*
X-19942Y192967D02*
X-35177D01*
X-27560Y185350D01*
Y195506D01*
X-35177Y210741D02*
Y200585D01*
X-27560D01*
X-30099Y205663D01*
Y208202D01*
X-27560Y210741D01*
X-22482D01*
X-19942Y208202D01*
Y203124D01*
X-22482Y200585D01*
X-17403Y218359D02*
X-19942Y220898D01*
X-22482D01*
Y218359D01*
X-19942D01*
Y220898D01*
X-17403Y218359D01*
X-14864Y215820D01*
X-32638Y231055D02*
X-35177Y233594D01*
Y238672D01*
X-32638Y241211D01*
X-22482D01*
X-19942Y238672D01*
Y233594D01*
X-22482Y231055D01*
X-32638D01*
Y246290D02*
X-35177Y248829D01*
Y253907D01*
X-32638Y256446D01*
X-22482D01*
X-19942Y253907D01*
Y248829D01*
X-22482Y246290D01*
X-32638D01*
M02*
