G04 Layer_Color=16711935*
%FSLAX44Y44*%
%MOMM*%
G71*
G01*
G75*
%ADD18C,0.1000*%
%ADD40C,3.2032*%
%ADD41R,2.0032X2.0032*%
%ADD42C,2.0032*%
%ADD43C,2.6032*%
%ADD44R,2.6032X2.6032*%
%ADD45C,1.7032*%
%ADD46R,1.7032X1.7032*%
%ADD47R,2.6032X2.6032*%
%ADD48C,1.9032*%
%ADD49R,1.7032X1.7032*%
%ADD50C,1.7032*%
%ADD51C,1.4732*%
D18*
X0Y-38D02*
Y449962D01*
Y-38D02*
X650000D01*
Y449962D01*
X0D02*
X650000D01*
D40*
X50000Y400000D02*
D03*
X600000Y50000D02*
D03*
X50000D02*
D03*
D41*
X138620Y129032D02*
D03*
X144970Y221742D02*
D03*
D42*
X164020Y129032D02*
D03*
X170370Y221742D02*
D03*
D43*
X50000Y207772D02*
D03*
X596900Y327152D02*
D03*
X224600Y49962D02*
D03*
D44*
X50000Y156972D02*
D03*
X596900Y377952D02*
D03*
D45*
X391160Y306832D02*
D03*
X365760D02*
D03*
D46*
X416560D02*
D03*
D47*
X275400Y49962D02*
D03*
D48*
X468630Y141262D02*
D03*
Y241262D02*
D03*
X268440Y334772D02*
D03*
X168440D02*
D03*
X419100Y141262D02*
D03*
Y241262D02*
D03*
X268440Y389382D02*
D03*
X168440D02*
D03*
X370840Y141262D02*
D03*
Y241262D02*
D03*
X325120Y141262D02*
D03*
Y241262D02*
D03*
D49*
X318770Y353822D02*
D03*
D50*
X344170D02*
D03*
X369570D02*
D03*
X394970D02*
D03*
X420370D02*
D03*
X445770D02*
D03*
X471170D02*
D03*
X318770Y430022D02*
D03*
X344170D02*
D03*
X369570D02*
D03*
X394970D02*
D03*
X420370D02*
D03*
X445770D02*
D03*
X471170D02*
D03*
D51*
X302260Y137922D02*
D03*
M02*
