G04 Layer_Color=65535*
%FSLAX44Y44*%
%MOMM*%
G71*
G01*
G75*
%ADD15C,0.2540*%
%ADD16C,0.3000*%
%ADD18C,0.1000*%
%ADD32C,0.2000*%
%ADD33C,0.2500*%
%ADD34C,0.0500*%
%ADD35C,0.1500*%
D15*
X127190Y89662D02*
Y104897D01*
X134808D01*
X137347Y102358D01*
Y97280D01*
X134808Y94740D01*
X127190D01*
X132268D02*
X137347Y89662D01*
X142425Y104897D02*
X152582Y89662D01*
Y104897D02*
X142425Y89662D01*
X157660Y97280D02*
X167817D01*
X137350Y247142D02*
Y262377D01*
X144967D01*
X147507Y259838D01*
Y254760D01*
X144967Y252220D01*
X137350D01*
X142428D02*
X147507Y247142D01*
X152585Y262377D02*
X162742Y247142D01*
Y262377D02*
X152585Y247142D01*
X167820Y254760D02*
X177977D01*
X172899Y259838D02*
Y249681D01*
X574038Y437637D02*
X568959D01*
X566420Y435098D01*
Y424941D01*
X568959Y422402D01*
X574038D01*
X576577Y424941D01*
Y435098D01*
X574038Y437637D01*
X581655D02*
Y424941D01*
X584194Y422402D01*
X589273D01*
X591812Y424941D01*
Y437637D01*
X596890D02*
X607047D01*
X601968D01*
Y422402D01*
X393697Y285237D02*
X388618D01*
X391157D01*
Y272541D01*
X388618Y270002D01*
X386079D01*
X383540Y272541D01*
X398775Y270002D02*
X403853D01*
X401314D01*
Y285237D01*
X398775Y282698D01*
X36030Y272537D02*
X41108D01*
X38569D01*
Y257302D01*
X36030D01*
X41108D01*
X48726D02*
Y272537D01*
X58883Y257302D01*
Y272537D01*
X63961Y257302D02*
Y272537D01*
X71578D01*
X74118Y269998D01*
Y264919D01*
X71578Y262380D01*
X63961D01*
X79196Y272537D02*
Y259841D01*
X81735Y257302D01*
X86814D01*
X89353Y259841D01*
Y272537D01*
X94431D02*
X104588D01*
X99509D01*
Y257302D01*
X319847Y55037D02*
X309690D01*
Y47420D01*
X314768Y49959D01*
X317307D01*
X319847Y47420D01*
Y42341D01*
X317307Y39802D01*
X312229D01*
X309690Y42341D01*
X324925Y55037D02*
Y44880D01*
X330003Y39802D01*
X335082Y44880D01*
Y55037D01*
X350317Y49959D02*
X342699D01*
X340160Y47420D01*
Y42341D01*
X342699Y39802D01*
X350317D01*
X365552Y49959D02*
X357934D01*
X355395Y47420D01*
Y42341D01*
X357934Y39802D01*
X365552D01*
X462277Y122678D02*
X459738Y125217D01*
X454659D01*
X452120Y122678D01*
Y112521D01*
X454659Y109982D01*
X459738D01*
X462277Y112521D01*
X477512Y125217D02*
X472433Y122678D01*
X467355Y117599D01*
Y112521D01*
X469894Y109982D01*
X474973D01*
X477512Y112521D01*
Y115060D01*
X474973Y117599D01*
X467355D01*
X181607Y315718D02*
X179067Y318257D01*
X173989D01*
X171450Y315718D01*
Y305561D01*
X173989Y303022D01*
X179067D01*
X181607Y305561D01*
X196842Y318257D02*
X186685D01*
Y310639D01*
X191763Y313179D01*
X194303D01*
X196842Y310639D01*
Y305561D01*
X194303Y303022D01*
X189224D01*
X186685Y305561D01*
X416557Y121408D02*
X414017Y123947D01*
X408939D01*
X406400Y121408D01*
Y111251D01*
X408939Y108712D01*
X414017D01*
X416557Y111251D01*
X429253Y108712D02*
Y123947D01*
X421635Y116329D01*
X431792D01*
X163827Y426208D02*
X161287Y428747D01*
X156209D01*
X153670Y426208D01*
Y416051D01*
X156209Y413512D01*
X161287D01*
X163827Y416051D01*
X168905Y426208D02*
X171444Y428747D01*
X176523D01*
X179062Y426208D01*
Y423669D01*
X176523Y421129D01*
X173983D01*
X176523D01*
X179062Y418590D01*
Y416051D01*
X176523Y413512D01*
X171444D01*
X168905Y416051D01*
X364487Y120138D02*
X361948Y122677D01*
X356869D01*
X354330Y120138D01*
Y109981D01*
X356869Y107442D01*
X361948D01*
X364487Y109981D01*
X379722Y107442D02*
X369565D01*
X379722Y117599D01*
Y120138D01*
X377183Y122677D01*
X372104D01*
X369565Y120138D01*
X325117Y122678D02*
X322578Y125217D01*
X317499D01*
X314960Y122678D01*
Y112521D01*
X317499Y109982D01*
X322578D01*
X325117Y112521D01*
X330195Y109982D02*
X335273D01*
X332734D01*
Y125217D01*
X330195Y122678D01*
X285750Y341117D02*
Y328421D01*
X288289Y325882D01*
X293368D01*
X295907Y328421D01*
Y341117D01*
X311142Y325882D02*
X300985D01*
X311142Y336039D01*
Y338578D01*
X308603Y341117D01*
X303524D01*
X300985Y338578D01*
X217995Y249296D02*
Y236600D01*
X220534Y234061D01*
X225613D01*
X228152Y236600D01*
Y249296D01*
X233230Y234061D02*
X238308D01*
X235769D01*
Y249296D01*
X233230Y246757D01*
D16*
X498348Y249421D02*
X509011D01*
X503680D01*
Y233426D01*
X514343Y249421D02*
Y233426D01*
X522340D01*
X525006Y236092D01*
Y246755D01*
X522340Y249421D01*
X514343D01*
X541001D02*
X530338D01*
Y233426D01*
X541001D01*
X530338Y241423D02*
X535669D01*
X572990Y246755D02*
X570325Y249421D01*
X564993D01*
X562327Y246755D01*
Y236092D01*
X564993Y233426D01*
X570325D01*
X572990Y236092D01*
Y241423D01*
X567659D01*
X578322Y244089D02*
Y233426D01*
Y238758D01*
X580988Y241423D01*
X583654Y244089D01*
X586320D01*
X596983Y233426D02*
X602314D01*
X604980Y236092D01*
Y241423D01*
X602314Y244089D01*
X596983D01*
X594317Y241423D01*
Y236092D01*
X596983Y233426D01*
X610312Y244089D02*
Y236092D01*
X612977Y233426D01*
X620975D01*
Y244089D01*
X626306Y228094D02*
Y244089D01*
X634304D01*
X636970Y241423D01*
Y236092D01*
X634304Y233426D01*
X626306D01*
X137979Y60603D02*
X134647Y63936D01*
X127982D01*
X124650Y60603D01*
Y47274D01*
X127982Y43942D01*
X134647D01*
X137979Y47274D01*
Y53939D01*
X131314D01*
X144644Y43942D02*
Y63936D01*
X157973Y43942D01*
Y63936D01*
X164637D02*
Y43942D01*
X174634D01*
X177966Y47274D01*
Y60603D01*
X174634Y63936D01*
X164637D01*
D18*
X0Y-38D02*
Y449962D01*
Y-38D02*
X650000D01*
Y449962D01*
X0D02*
X650000D01*
D32*
X449410Y201524D02*
G03*
X488768Y202211I19284J22981D01*
G01*
X208178Y315552D02*
G03*
X207491Y354910I-22981J19284D01*
G01*
X399880Y201524D02*
G03*
X439238Y202211I19284J22981D01*
G01*
X208178Y370162D02*
G03*
X207491Y409520I-22981J19284D01*
G01*
X351620Y201524D02*
G03*
X390978Y202211I19284J22981D01*
G01*
X305900Y201524D02*
G03*
X345258Y202211I19284J22981D01*
G01*
X293970Y385572D02*
G03*
X293970Y398272I0J6350D01*
G01*
X176720Y116332D02*
Y141732D01*
X125920Y116332D02*
X176720D01*
X125920D02*
Y141732D01*
X176720D01*
X183070Y209042D02*
Y234442D01*
X132270Y209042D02*
X183070D01*
X132270D02*
Y234442D01*
X183070D01*
X353060Y294132D02*
X429260D01*
Y319532D01*
X353060D02*
X429260D01*
X353060Y294132D02*
Y319532D01*
X448630Y188762D02*
X488630D01*
X468630Y194762D02*
Y229762D01*
Y152512D02*
Y188762D01*
X220940Y314772D02*
Y354772D01*
X179940Y334772D02*
X214940D01*
X220940D02*
X257190D01*
X399100Y188762D02*
X439100D01*
X419100Y194762D02*
Y229762D01*
Y152512D02*
Y188762D01*
X220940Y369382D02*
Y409382D01*
X179940Y389382D02*
X214940D01*
X220940D02*
X257190D01*
X350840Y188762D02*
X390840D01*
X370840Y194762D02*
Y229762D01*
Y152512D02*
Y188762D01*
X305120D02*
X345120D01*
X325120Y194762D02*
Y229762D01*
Y152512D02*
Y188762D01*
X216440Y128742D02*
Y225392D01*
X292240Y128742D02*
Y225392D01*
X216440D02*
X292240D01*
X216440Y128742D02*
X292240D01*
X293970Y365422D02*
Y385572D01*
Y398272D02*
Y418422D01*
X495970Y365422D02*
Y418422D01*
X293970Y365422D02*
X495970D01*
X293970Y418422D02*
X495970D01*
D33*
X228890Y206292D02*
G03*
X228890Y206292I-1250J0D01*
G01*
D34*
X4000Y131772D02*
X96000D01*
X4000D02*
Y232972D01*
X96000D01*
Y131772D02*
Y232972D01*
X550900Y403152D02*
X642900D01*
Y301952D02*
Y403152D01*
X550900Y301952D02*
X642900D01*
X550900D02*
Y403152D01*
X300600Y3962D02*
Y95962D01*
X199400Y3962D02*
X300600D01*
X199400D02*
Y95962D01*
X300600D01*
D35*
X531495Y192532D02*
Y202529D01*
X536493D01*
X538159Y200863D01*
Y197530D01*
X536493Y195864D01*
X531495D01*
X541492Y192532D02*
Y202529D01*
X548156Y192532D01*
Y202529D01*
X551489Y192532D02*
X554821D01*
X553155D01*
Y202529D01*
X551489Y200863D01*
X559819D02*
X561485Y202529D01*
X564818D01*
X566484Y200863D01*
Y194198D01*
X564818Y192532D01*
X561485D01*
X559819Y194198D01*
Y200863D01*
X569816D02*
X571482Y202529D01*
X574814D01*
X576480Y200863D01*
Y194198D01*
X574814Y192532D01*
X571482D01*
X569816Y194198D01*
Y200863D01*
X586477Y202529D02*
X579813D01*
Y197530D01*
X583145Y199196D01*
X584811D01*
X586477Y197530D01*
Y194198D01*
X584811Y192532D01*
X581479D01*
X579813Y194198D01*
X589809Y200863D02*
X591476Y202529D01*
X594808D01*
X596474Y200863D01*
Y194198D01*
X594808Y192532D01*
X591476D01*
X589809Y194198D01*
Y200863D01*
X528574Y222976D02*
Y212979D01*
X533572D01*
X535238Y214645D01*
Y221310D01*
X533572Y222976D01*
X528574D01*
X538571D02*
Y216311D01*
X541903Y212979D01*
X545235Y216311D01*
Y222976D01*
X548568D02*
X555232D01*
X551900D01*
Y212979D01*
X558564Y222976D02*
Y216311D01*
X561897Y212979D01*
X565229Y216311D01*
Y222976D01*
X570227Y212979D02*
X573559D01*
X575226Y214645D01*
Y217977D01*
X573559Y219643D01*
X570227D01*
X568561Y217977D01*
Y214645D01*
X570227Y212979D01*
X578558D02*
X581890D01*
X580224D01*
Y222976D01*
X578558D01*
X590221Y209647D02*
X591887D01*
X593553Y211313D01*
Y219643D01*
X588555D01*
X586889Y217977D01*
Y214645D01*
X588555Y212979D01*
X593553D01*
X598551Y219643D02*
X601884D01*
X603550Y217977D01*
Y212979D01*
X598551D01*
X596885Y214645D01*
X598551Y216311D01*
X603550D01*
M02*
