G04 Layer_Color=8388736*
%FSLAX44Y44*%
%MOMM*%
G71*
G01*
G75*
%ADD18C,0.1000*%
%ADD36R,1.7032X0.5032*%
%ADD37O,1.7032X0.5032*%
G04:AMPARAMS|DCode=38|XSize=2.7032mm|YSize=2.7032mm|CornerRadius=0.2266mm|HoleSize=0mm|Usage=FLASHONLY|Rotation=90.000|XOffset=0mm|YOffset=0mm|HoleType=Round|Shape=RoundedRectangle|*
%AMROUNDEDRECTD38*
21,1,2.7032,2.2500,0,0,90.0*
21,1,2.2500,2.7032,0,0,90.0*
1,1,0.4532,1.1250,1.1250*
1,1,0.4532,1.1250,-1.1250*
1,1,0.4532,-1.1250,-1.1250*
1,1,0.4532,-1.1250,1.1250*
%
%ADD38ROUNDEDRECTD38*%
G04:AMPARAMS|DCode=39|XSize=1.7032mm|YSize=2.2032mm|CornerRadius=0.1766mm|HoleSize=0mm|Usage=FLASHONLY|Rotation=0.000|XOffset=0mm|YOffset=0mm|HoleType=Round|Shape=RoundedRectangle|*
%AMROUNDEDRECTD39*
21,1,1.7032,1.8500,0,0,0.0*
21,1,1.3500,2.2032,0,0,0.0*
1,1,0.3532,0.6750,-0.9250*
1,1,0.3532,-0.6750,-0.9250*
1,1,0.3532,-0.6750,0.9250*
1,1,0.3532,0.6750,0.9250*
%
%ADD39ROUNDEDRECTD39*%
%ADD40C,3.2032*%
%ADD41R,2.0032X2.0032*%
%ADD42C,2.0032*%
%ADD43C,2.6032*%
%ADD44R,2.6032X2.6032*%
%ADD45C,1.7032*%
%ADD46R,1.7032X1.7032*%
%ADD47R,2.6032X2.6032*%
%ADD48C,1.9032*%
%ADD49R,1.7032X1.7032*%
%ADD50C,1.7032*%
%ADD51C,1.4732*%
D18*
X0Y-38D02*
Y449962D01*
Y-38D02*
X650000D01*
Y449962D01*
X0D02*
X650000D01*
D36*
X230190Y199542D02*
D03*
D37*
Y193167D02*
D03*
Y186817D02*
D03*
Y180467D02*
D03*
Y174117D02*
D03*
Y167767D02*
D03*
Y161417D02*
D03*
Y155042D02*
D03*
X278190Y199542D02*
D03*
Y193167D02*
D03*
Y186817D02*
D03*
Y180467D02*
D03*
Y174117D02*
D03*
Y167767D02*
D03*
Y161417D02*
D03*
Y155042D02*
D03*
D38*
X254190Y177292D02*
D03*
D39*
Y212292D02*
D03*
Y142292D02*
D03*
D40*
X50000Y400000D02*
D03*
X600000Y50000D02*
D03*
X50000D02*
D03*
D41*
X138620Y129032D02*
D03*
X144970Y221742D02*
D03*
D42*
X164020Y129032D02*
D03*
X170370Y221742D02*
D03*
D43*
X50000Y207772D02*
D03*
X596900Y327152D02*
D03*
X224600Y49962D02*
D03*
D44*
X50000Y156972D02*
D03*
X596900Y377952D02*
D03*
D45*
X391160Y306832D02*
D03*
X365760D02*
D03*
D46*
X416560D02*
D03*
D47*
X275400Y49962D02*
D03*
D48*
X468630Y141262D02*
D03*
Y241262D02*
D03*
X268440Y334772D02*
D03*
X168440D02*
D03*
X419100Y141262D02*
D03*
Y241262D02*
D03*
X268440Y389382D02*
D03*
X168440D02*
D03*
X370840Y141262D02*
D03*
Y241262D02*
D03*
X325120Y141262D02*
D03*
Y241262D02*
D03*
D49*
X318770Y353822D02*
D03*
D50*
X344170D02*
D03*
X369570D02*
D03*
X394970D02*
D03*
X420370D02*
D03*
X445770D02*
D03*
X471170D02*
D03*
X318770Y430022D02*
D03*
X344170D02*
D03*
X369570D02*
D03*
X394970D02*
D03*
X420370D02*
D03*
X445770D02*
D03*
X471170D02*
D03*
D51*
X302260Y137922D02*
D03*
M02*
