M48
;Layer_Color=9474304
;FILE_FORMAT=4:4
METRIC,LZ
;TYPE=PLATED
T1F00S00C0.7112
T2F00S00C0.7620
T3F00S00C0.9000
%
T01
X0010795Y0005969
X000889Y0008509
X0006858Y0033655
X000762Y0037338
X0009906
Y0039624
X000762
Y0042037
X0009906
X0012192Y003937
X0015494Y0039878
Y0037592
Y0035179
Y0032893
X0018034
Y0035179
X0020447
X0022352
X002413
Y0032893
X0022352
X0020447
Y0037592
X0022352
X002413
Y0039878
X0022352
X0020447
Y0042291
X0022352
X002413
Y004445
X0022352
X0020447
X0018034
Y0042291
Y0039878
Y0037592
X0015494Y0042291
Y004445
X0020955Y0048133
Y0050673
Y0052959
Y0055118
X0023622
Y0052959
Y0050673
Y0048133
X002921
X0031623
Y0050673
Y0052959
Y0055118
X002921
Y0052959
Y0050673
X0005588Y0046482
X0003327Y0054
T02
X0026289Y0002159
Y0004699
Y0007239
Y0009779
Y0012319
Y0014859
Y0045339
Y0047879
Y0050419
Y0052959
T03
X0006071Y0005969
Y0008509
Y0050089
Y0052629
M30
