%FSLAX44Y44*%
%MOMM*%
G71*
G01*
G75*
G04 Layer_Color=2752767*
%ADD10C,0.8500*%
%ADD11R,1.0000X1.0000*%
%ADD12C,1.6000*%
%ADD13R,1.4000X6.0000*%
%ADD14R,2.6000X1.1000*%
%ADD15R,2.5000X7.5000*%
%ADD16R,1.8000X1.7000*%
%ADD17C,0.6000*%
%ADD18C,0.2000*%
%ADD19C,0.2540*%
%ADD20C,1.6500*%
%ADD21R,1.6500X1.6500*%
%ADD22C,1.5000*%
%ADD23R,1.5000X1.5000*%
%ADD24C,1.2700*%
%ADD25C,0.0500*%
%ADD26C,0.1270*%
%ADD27C,0.1400*%
%ADD28C,2.0000*%
%ADD29R,1.2032X1.2032*%
%ADD30C,1.8032*%
%ADD31R,1.6032X6.2032*%
%ADD32R,2.8032X1.3032*%
%ADD33R,2.7032X7.7032*%
%ADD34R,2.0032X1.9032*%
%ADD35C,1.8532*%
%ADD36R,1.8532X1.8532*%
%ADD37C,1.7032*%
%ADD38R,1.7032X1.7032*%
%ADD39C,1.4732*%
%ADD40C,0.1693*%
D19*
X0Y0D02*
X335026D01*
Y68580D01*
X415036D01*
Y498602D01*
X335026D02*
X415036D01*
X335026D02*
Y567182D01*
X0Y0D02*
Y567182D01*
X335026D01*
D26*
X257810Y524510D02*
Y534670D01*
X267970D01*
Y524510D01*
X257810D01*
Y448310D02*
Y458470D01*
X267970D01*
Y448310D01*
X257810D01*
Y499110D02*
Y509270D01*
X267970D01*
Y499110D01*
X257810D01*
Y473710D02*
Y483870D01*
X267970D01*
Y473710D01*
X257810D01*
Y143510D02*
Y153670D01*
X267970D01*
Y143510D01*
X257810D01*
Y118110D02*
Y128270D01*
X267970D01*
Y118110D01*
X257810D01*
Y67310D02*
Y77470D01*
X267970D01*
Y67310D01*
X257810D01*
Y92710D02*
Y102870D01*
X267970D01*
Y92710D01*
X257810D01*
Y41910D02*
Y52070D01*
X267970D01*
Y41910D01*
X257810D01*
Y16510D02*
Y26670D01*
X267970D01*
Y16510D01*
X257810D01*
X33270Y534920D02*
X28190Y545080D01*
X38350D01*
X33270Y534920D01*
X180340Y323850D02*
X175260Y334010D01*
X185420D01*
X180340Y323850D01*
Y346710D02*
X175260Y356870D01*
X185420D01*
X180340Y346710D01*
X241300Y439420D02*
X236220Y449580D01*
X246380D01*
X241300Y439420D01*
Y417830D02*
X236220Y427990D01*
X246380D01*
X241300Y417830D01*
Y393700D02*
X236220Y403860D01*
X246380D01*
X241300Y393700D01*
Y346710D02*
X236220Y356870D01*
X246380D01*
X241300Y346710D01*
X204470Y439420D02*
X199390Y449580D01*
X209550D01*
X204470Y439420D01*
Y417830D02*
X199390Y427990D01*
X209550D01*
X204470Y417830D01*
X241300Y370840D02*
X236220Y381000D01*
X246380D01*
X241300Y370840D01*
Y323850D02*
X236220Y334010D01*
X246380D01*
X241300Y323850D01*
X204470Y393700D02*
X199390Y403860D01*
X209550D01*
X204470Y393700D01*
X180340Y439420D02*
X175260Y449580D01*
X185420D01*
X180340Y439420D01*
X204470Y370840D02*
X199390Y381000D01*
X209550D01*
X204470Y370840D01*
Y346710D02*
X199390Y356870D01*
X209550D01*
X204470Y346710D01*
X180340Y370840D02*
X175260Y381000D01*
X185420D01*
X180340Y370840D01*
Y417830D02*
X175260Y427990D01*
X185420D01*
X180340Y417830D01*
Y393700D02*
X175260Y403860D01*
X185420D01*
X180340Y393700D01*
X204470Y323850D02*
X199390Y334010D01*
X209550D01*
X204470Y323850D01*
X209550Y546100D02*
X204470Y556260D01*
X214630D01*
X209550Y546100D01*
Y524510D02*
X204470Y534670D01*
X214630D01*
X209550Y524510D01*
Y476250D02*
X204470Y486410D01*
X214630D01*
X209550Y476250D01*
X236220Y546100D02*
X231140Y556260D01*
X241300D01*
X236220Y546100D01*
Y524510D02*
X231140Y534670D01*
X241300D01*
X236220Y524510D01*
X209550Y501650D02*
X204470Y511810D01*
X214630D01*
X209550Y501650D01*
X316230Y524510D02*
X311150Y534670D01*
X321310D01*
X316230Y524510D01*
Y501650D02*
X311150Y511810D01*
X321310D01*
X316230Y501650D01*
Y476250D02*
X311150Y486410D01*
X321310D01*
X316230Y476250D01*
Y546100D02*
X311150Y556260D01*
X321310D01*
X316230Y546100D01*
X292100D02*
X287020Y556260D01*
X297180D01*
X292100Y546100D01*
Y524510D02*
X287020Y534670D01*
X297180D01*
X292100Y524510D01*
Y501650D02*
X287020Y511810D01*
X297180D01*
X292100Y501650D01*
Y476250D02*
X287020Y486410D01*
X297180D01*
X292100Y476250D01*
X236220Y501650D02*
X231140Y511810D01*
X241300D01*
X236220Y501650D01*
Y476250D02*
X231140Y486410D01*
X241300D01*
X236220Y476250D01*
X55880Y459740D02*
X50800Y469900D01*
X60960D01*
X55880Y459740D01*
X121920Y388620D02*
X116840Y398780D01*
X127000D01*
X121920Y388620D01*
X68580Y331470D02*
X63500Y341630D01*
X73660D01*
X68580Y331470D01*
X154940Y370840D02*
X149860Y381000D01*
X160020D01*
X154940Y370840D01*
Y346710D02*
X149860Y356870D01*
X160020D01*
X154940Y346710D01*
X223520Y323850D02*
X218440Y334010D01*
X228600D01*
X223520Y323850D01*
Y370840D02*
X218440Y381000D01*
X228600D01*
X223520Y370840D01*
Y346710D02*
X218440Y356870D01*
X228600D01*
X223520Y346710D01*
Y393700D02*
X218440Y403860D01*
X228600D01*
X223520Y393700D01*
Y439420D02*
X218440Y449580D01*
X228600D01*
X223520Y439420D01*
Y417830D02*
X218440Y427990D01*
X228600D01*
X223520Y417830D01*
X154940Y439420D02*
X149860Y449580D01*
X160020D01*
X154940Y439420D01*
Y393700D02*
X149860Y403860D01*
X160020D01*
X154940Y393700D01*
Y417830D02*
X149860Y427990D01*
X160020D01*
X154940Y417830D01*
Y323850D02*
X149860Y334010D01*
X160020D01*
X154940Y323850D01*
X99060Y368300D02*
X93980Y378460D01*
X104140D01*
X99060Y368300D01*
Y391160D02*
X93980Y401320D01*
X104140D01*
X99060Y391160D01*
Y415290D02*
X93980Y425450D01*
X104140D01*
X99060Y415290D01*
X76200Y368300D02*
X71120Y378460D01*
X81280D01*
X76200Y368300D01*
Y391160D02*
X71120Y401320D01*
X81280D01*
X76200Y391160D01*
Y415290D02*
X71120Y425450D01*
X81280D01*
X76200Y415290D01*
X88900Y80010D02*
X83820Y90170D01*
X93980D01*
X88900Y80010D01*
X107950Y54610D02*
X102870Y64770D01*
X113030D01*
X107950Y54610D01*
D40*
X65790Y59690D02*
G03*
X65790Y59690I-5080J0D01*
G01*
Y85090D02*
G03*
X65790Y85090I-5080J0D01*
G01*
Y526290D02*
G03*
X65790Y526290I-5080J0D01*
G01*
Y500890D02*
G03*
X65790Y500890I-5080J0D01*
G01*
M02*
