%FSLAX44Y44*%
%MOMM*%
G71*
G01*
G75*
%ADD10C,0.8500*%
%ADD11R,1.0000X1.0000*%
%ADD12C,1.6000*%
%ADD13R,1.4000X6.0000*%
%ADD14R,2.6000X1.1000*%
%ADD15R,2.5000X7.5000*%
%ADD16R,1.8000X1.7000*%
%ADD17C,0.6000*%
%ADD18C,0.2000*%
%ADD19C,0.2540*%
%ADD20C,1.6500*%
%ADD21R,1.6500X1.6500*%
%ADD22C,1.5000*%
%ADD23R,1.5000X1.5000*%
%ADD24C,1.2700*%
%ADD25C,0.0500*%
%ADD26C,0.1270*%
%ADD27C,0.1400*%
%ADD28C,2.0000*%
%ADD29R,1.2032X1.2032*%
%ADD30C,1.8032*%
%ADD31R,1.6032X6.2032*%
%ADD32R,2.8032X1.3032*%
%ADD33R,2.7032X7.7032*%
%ADD34R,2.0032X1.9032*%
%ADD35C,1.8532*%
%ADD36R,1.8532X1.8532*%
%ADD37C,1.7032*%
%ADD38R,1.7032X1.7032*%
%ADD39C,1.4732*%
%ADD40C,0.1693*%
D19*
X0Y0D02*
X335026D01*
Y68580D01*
X415036D01*
Y498602D01*
X335026D02*
X415036D01*
X335026D02*
Y567182D01*
X0Y0D02*
Y567182D01*
X335026D01*
D26*
X259080Y529590D02*
X266700D01*
X262890Y525780D02*
Y533400D01*
X259080Y453390D02*
X266700D01*
X262890Y449580D02*
Y457200D01*
X259080Y504190D02*
X266700D01*
X262890Y500380D02*
Y508000D01*
X259080Y478790D02*
X266700D01*
X262890Y474980D02*
Y482600D01*
X259080Y148590D02*
X266700D01*
X262890Y144780D02*
Y152400D01*
X259080Y123190D02*
X266700D01*
X262890Y119380D02*
Y127000D01*
X259080Y72390D02*
X266700D01*
X262890Y68580D02*
Y76200D01*
X259080Y97790D02*
X266700D01*
X262890Y93980D02*
Y101600D01*
X259080Y46990D02*
X266700D01*
X262890Y43180D02*
Y50800D01*
X259080Y21590D02*
X266700D01*
X262890Y17780D02*
Y25400D01*
X56210Y59690D02*
X65210D01*
X60710Y55190D02*
Y64190D01*
X56210Y85090D02*
X65210D01*
X60710Y80590D02*
Y89590D01*
X56210Y526290D02*
X65210D01*
X60710Y521790D02*
Y530790D01*
X56210Y500890D02*
X65210D01*
X60710Y496390D02*
Y505390D01*
X29714Y540000D02*
X36826D01*
X33270Y536444D02*
Y543556D01*
X176784Y328930D02*
X183896D01*
X180340Y325374D02*
Y332486D01*
X176784Y351790D02*
X183896D01*
X180340Y348234D02*
Y355346D01*
X237744Y444500D02*
X244856D01*
X241300Y440944D02*
Y448056D01*
X237744Y422910D02*
X244856D01*
X241300Y419354D02*
Y426466D01*
X237744Y398780D02*
X244856D01*
X241300Y395224D02*
Y402336D01*
X237744Y351790D02*
X244856D01*
X241300Y348234D02*
Y355346D01*
X200914Y444500D02*
X208026D01*
X204470Y440944D02*
Y448056D01*
X200914Y422910D02*
X208026D01*
X204470Y419354D02*
Y426466D01*
X237744Y375920D02*
X244856D01*
X241300Y372364D02*
Y379476D01*
X237744Y328930D02*
X244856D01*
X241300Y325374D02*
Y332486D01*
X200914Y398780D02*
X208026D01*
X204470Y395224D02*
Y402336D01*
X176784Y444500D02*
X183896D01*
X180340Y440944D02*
Y448056D01*
X200914Y375920D02*
X208026D01*
X204470Y372364D02*
Y379476D01*
X200914Y351790D02*
X208026D01*
X204470Y348234D02*
Y355346D01*
X176784Y375920D02*
X183896D01*
X180340Y372364D02*
Y379476D01*
X176784Y422910D02*
X183896D01*
X180340Y419354D02*
Y426466D01*
X176784Y398780D02*
X183896D01*
X180340Y395224D02*
Y402336D01*
X200914Y328930D02*
X208026D01*
X204470Y325374D02*
Y332486D01*
X205994Y551180D02*
X213106D01*
X209550Y547624D02*
Y554736D01*
X205994Y529590D02*
X213106D01*
X209550Y526034D02*
Y533146D01*
X205994Y481330D02*
X213106D01*
X209550Y477774D02*
Y484886D01*
X232664Y551180D02*
X239776D01*
X236220Y547624D02*
Y554736D01*
X232664Y529590D02*
X239776D01*
X236220Y526034D02*
Y533146D01*
X205994Y506730D02*
X213106D01*
X209550Y503174D02*
Y510286D01*
X312674Y529590D02*
X319786D01*
X316230Y526034D02*
Y533146D01*
X312674Y506730D02*
X319786D01*
X316230Y503174D02*
Y510286D01*
X312674Y481330D02*
X319786D01*
X316230Y477774D02*
Y484886D01*
X312674Y551180D02*
X319786D01*
X316230Y547624D02*
Y554736D01*
X288544Y551180D02*
X295656D01*
X292100Y547624D02*
Y554736D01*
X288544Y529590D02*
X295656D01*
X292100Y526034D02*
Y533146D01*
X288544Y506730D02*
X295656D01*
X292100Y503174D02*
Y510286D01*
X288544Y481330D02*
X295656D01*
X292100Y477774D02*
Y484886D01*
X232664Y506730D02*
X239776D01*
X236220Y503174D02*
Y510286D01*
X232664Y481330D02*
X239776D01*
X236220Y477774D02*
Y484886D01*
X52324Y464820D02*
X59436D01*
X55880Y461264D02*
Y468376D01*
X118364Y393700D02*
X125476D01*
X121920Y390144D02*
Y397256D01*
X65024Y336550D02*
X72136D01*
X68580Y332994D02*
Y340106D01*
X151384Y375920D02*
X158496D01*
X154940Y372364D02*
Y379476D01*
X151384Y351790D02*
X158496D01*
X154940Y348234D02*
Y355346D01*
X219964Y328930D02*
X227076D01*
X223520Y325374D02*
Y332486D01*
X219964Y375920D02*
X227076D01*
X223520Y372364D02*
Y379476D01*
X219964Y351790D02*
X227076D01*
X223520Y348234D02*
Y355346D01*
X219964Y398780D02*
X227076D01*
X223520Y395224D02*
Y402336D01*
X219964Y444500D02*
X227076D01*
X223520Y440944D02*
Y448056D01*
X219964Y422910D02*
X227076D01*
X223520Y419354D02*
Y426466D01*
X151384Y444500D02*
X158496D01*
X154940Y440944D02*
Y448056D01*
X151384Y398780D02*
X158496D01*
X154940Y395224D02*
Y402336D01*
X151384Y422910D02*
X158496D01*
X154940Y419354D02*
Y426466D01*
X151384Y328930D02*
X158496D01*
X154940Y325374D02*
Y332486D01*
X95504Y373380D02*
X102616D01*
X99060Y369824D02*
Y376936D01*
X95504Y396240D02*
X102616D01*
X99060Y392684D02*
Y399796D01*
X95504Y420370D02*
X102616D01*
X99060Y416814D02*
Y423926D01*
X72644Y373380D02*
X79756D01*
X76200Y369824D02*
Y376936D01*
X72644Y396240D02*
X79756D01*
X76200Y392684D02*
Y399796D01*
X72644Y420370D02*
X79756D01*
X76200Y416814D02*
Y423926D01*
X85344Y85090D02*
X92456D01*
X88900Y81534D02*
Y88646D01*
X104394Y59690D02*
X111506D01*
X107950Y56134D02*
Y63246D01*
M02*
