G04 Layer_Physical_Order=2*
G04 Layer_Color=13278208*
%FSLAX44Y44*%
%MOMM*%
G71*
G01*
G75*
%ADD10C,0.3000*%
%ADD12C,0.5000*%
%ADD13C,1.0000*%
%ADD14C,4.0000*%
%ADD15C,0.1000*%
%ADD16C,1.5000*%
%ADD17R,1.5000X1.5000*%
%ADD18R,2.4000X2.4000*%
%ADD19C,2.4000*%
%ADD20R,2.4000X2.4000*%
%ADD21C,1.7000*%
%ADD22R,1.7000X1.7000*%
%ADD23C,1.8000*%
%ADD24R,1.8000X1.8000*%
%ADD25C,1.2700*%
G36*
X306017Y700929D02*
X306324Y700768D01*
X306713Y700626D01*
X307182Y700502D01*
X307732Y700397D01*
X308363Y700312D01*
X309867Y700198D01*
X311694Y700160D01*
Y690160D01*
X310740Y690151D01*
X307732Y689922D01*
X307182Y689818D01*
X306713Y689695D01*
X306324Y689552D01*
X306017Y689390D01*
X305790Y689210D01*
Y701110D01*
X306017Y700929D01*
D02*
G37*
G36*
X428394Y561996D02*
X428182Y561767D01*
X427993Y561459D01*
X427826Y561070D01*
X427681Y560601D01*
X427558Y560051D01*
X427458Y559422D01*
X427324Y557921D01*
X427280Y556099D01*
X417280Y557022D01*
X417272Y557980D01*
X417009Y561529D01*
X416911Y561991D01*
X416798Y562369D01*
X416670Y562665D01*
X416526Y562878D01*
X428394Y561996D01*
D02*
G37*
G36*
X357700Y610304D02*
X359988Y608339D01*
X360451Y608024D01*
X360870Y607779D01*
X361245Y607605D01*
X361577Y607502D01*
X361865Y607470D01*
X353450Y599055D01*
X353418Y599343D01*
X353315Y599674D01*
X353141Y600050D01*
X352896Y600469D01*
X352581Y600932D01*
X352196Y601438D01*
X351213Y602582D01*
X349948Y603901D01*
X357019Y610972D01*
X357700Y610304D01*
D02*
G37*
G36*
X366959Y542350D02*
X367188Y539342D01*
X367292Y538792D01*
X367416Y538323D01*
X367558Y537934D01*
X367719Y537627D01*
X367900Y537400D01*
X356000D01*
X356180Y537627D01*
X356342Y537934D01*
X356484Y538323D01*
X356608Y538792D01*
X356712Y539342D01*
X356798Y539972D01*
X356912Y541477D01*
X356950Y543304D01*
X366950D01*
X366959Y542350D01*
D02*
G37*
G36*
X1041400Y6350D02*
X6350D01*
Y895350D01*
X130853D01*
X131171Y894080D01*
X128387Y892592D01*
X124955Y889775D01*
X124955Y889775D01*
X66818Y831639D01*
X54610D01*
X50191Y831204D01*
X45943Y829915D01*
X42027Y827822D01*
X38595Y825005D01*
X35778Y821573D01*
X33685Y817657D01*
X32396Y813409D01*
X31961Y808990D01*
X32396Y804571D01*
X33685Y800323D01*
X35778Y796407D01*
X38595Y792975D01*
X42027Y790158D01*
X45943Y788065D01*
X50191Y786776D01*
X54610Y786341D01*
X76200D01*
X76200Y786341D01*
X80619Y786776D01*
X84867Y788065D01*
X88783Y790158D01*
X92215Y792975D01*
X150351Y851111D01*
X301119D01*
X304105Y851072D01*
X321862Y849592D01*
X325991Y848747D01*
X329302Y847736D01*
X330912Y846988D01*
X331804Y843220D01*
X332593Y838625D01*
X333950Y821222D01*
X334025Y815541D01*
Y702765D01*
X310985D01*
X309991Y702786D01*
X308635Y702889D01*
X308148Y702955D01*
X307754Y703029D01*
X307519Y703091D01*
X305288Y704803D01*
X302602Y705916D01*
X299720Y706295D01*
X296838Y705916D01*
X294152Y704803D01*
X291846Y703034D01*
X290077Y700728D01*
X288964Y698042D01*
X288585Y695160D01*
X288964Y692278D01*
X290077Y689592D01*
X291846Y687286D01*
X294152Y685517D01*
X296838Y684404D01*
X299720Y684025D01*
X302602Y684404D01*
X305288Y685517D01*
X307519Y687229D01*
X307754Y687291D01*
X308072Y687351D01*
X310761Y687555D01*
X334025D01*
Y619290D01*
X334284Y617322D01*
X335044Y615488D01*
X336252Y613912D01*
X348607Y601558D01*
X349295Y600841D01*
X350182Y599809D01*
X350479Y599418D01*
X350705Y599086D01*
X350827Y598877D01*
X351194Y596088D01*
X352307Y593402D01*
X354019Y591171D01*
X354081Y590936D01*
X354141Y590617D01*
X354345Y587929D01*
Y542595D01*
X354324Y541601D01*
X354221Y540245D01*
X354156Y539758D01*
X354081Y539364D01*
X354019Y539129D01*
X352307Y536898D01*
X351194Y534212D01*
X350815Y531330D01*
X351194Y528448D01*
X351867Y526825D01*
X350790Y526105D01*
X307325Y569570D01*
Y583895D01*
X307346Y584889D01*
X307449Y586245D01*
X307514Y586732D01*
X307589Y587126D01*
X307651Y587361D01*
X309363Y589592D01*
X310476Y592278D01*
X310855Y595160D01*
X310476Y598042D01*
X309363Y600728D01*
X307594Y603034D01*
X305288Y604803D01*
X302602Y605916D01*
X299720Y606295D01*
X296838Y605916D01*
X294152Y604803D01*
X291921Y603091D01*
X291686Y603029D01*
X291367Y602969D01*
X288679Y602765D01*
X257645D01*
X256651Y602786D01*
X255295Y602889D01*
X254808Y602954D01*
X254414Y603029D01*
X254179Y603091D01*
X251948Y604803D01*
X249262Y605916D01*
X246380Y606295D01*
X243498Y605916D01*
X240812Y604803D01*
X238506Y603034D01*
X236737Y600728D01*
X235624Y598042D01*
X235245Y595160D01*
X235624Y592278D01*
X236737Y589592D01*
X238506Y587286D01*
X240812Y585517D01*
X243498Y584404D01*
X246380Y584025D01*
X249262Y584404D01*
X251948Y585517D01*
X254179Y587229D01*
X254414Y587291D01*
X254732Y587351D01*
X257421Y587555D01*
X288455D01*
X289449Y587534D01*
X290805Y587431D01*
X291292Y587365D01*
X291686Y587291D01*
X291816Y587256D01*
X291851Y587126D01*
X291911Y586808D01*
X292115Y584119D01*
Y566420D01*
X292374Y564452D01*
X292819Y563377D01*
X293134Y562617D01*
X294342Y561042D01*
X362922Y492462D01*
X364497Y491254D01*
X366332Y490494D01*
X368300Y490235D01*
X413564D01*
X415488Y490190D01*
X415787Y490167D01*
X417217Y489070D01*
X419659Y488058D01*
X422280Y487713D01*
X424901Y488058D01*
X427343Y489070D01*
X429441Y490679D01*
X431050Y492777D01*
X432062Y495219D01*
X432407Y497840D01*
X432062Y500461D01*
X431050Y502903D01*
X429441Y505001D01*
X427343Y506610D01*
X424901Y507622D01*
X422280Y507967D01*
X419659Y507622D01*
X417217Y506610D01*
X415942Y505631D01*
X412412Y505445D01*
X371450D01*
X356725Y520170D01*
X357445Y521247D01*
X359068Y520574D01*
X361950Y520195D01*
X364832Y520574D01*
X367518Y521687D01*
X369824Y523456D01*
X371593Y525762D01*
X372706Y528448D01*
X373085Y531330D01*
X372706Y534212D01*
X371593Y536898D01*
X369881Y539129D01*
X369819Y539364D01*
X369759Y539683D01*
X369555Y542371D01*
Y587705D01*
X369576Y588699D01*
X369679Y590055D01*
X369744Y590542D01*
X369819Y590936D01*
X369854Y591066D01*
X369984Y591101D01*
X370303Y591161D01*
X372991Y591365D01*
X388020D01*
X409420Y569965D01*
X410699Y568627D01*
X411471Y567720D01*
X411717Y567398D01*
X411885Y567152D01*
X411955Y567029D01*
X411972Y566991D01*
X412154Y565608D01*
X413267Y562922D01*
X414339Y561525D01*
X414368Y561456D01*
X414399Y561350D01*
X414439Y561163D01*
X414675Y557989D01*
Y539549D01*
X414667Y538906D01*
X414478Y535860D01*
X414329Y534737D01*
X414148Y533842D01*
X413979Y533280D01*
X412240D01*
Y530806D01*
X412221Y530709D01*
X412240Y530613D01*
Y513200D01*
X432320D01*
Y530613D01*
X432339Y530709D01*
X432320Y530806D01*
Y533280D01*
X430581D01*
X430412Y533841D01*
X430244Y534674D01*
X429893Y538933D01*
X429885Y539549D01*
Y556693D01*
X429911Y557775D01*
X430030Y559103D01*
X430103Y559565D01*
X430186Y559936D01*
X430260Y560174D01*
X430279Y560220D01*
X430293Y560235D01*
X430298Y560244D01*
X430784Y560616D01*
X432553Y562922D01*
X433666Y565608D01*
X434045Y568490D01*
X433666Y571372D01*
X432553Y574058D01*
X430784Y576364D01*
X428478Y578133D01*
X425792Y579246D01*
X422910Y579625D01*
X422025Y579509D01*
X421954Y579524D01*
X421938Y579524D01*
X421907Y579535D01*
X421694Y579644D01*
X421380Y579838D01*
X421026Y580090D01*
X419428Y581467D01*
X396548Y604348D01*
X394972Y605556D01*
X393138Y606316D01*
X391170Y606575D01*
X373215D01*
X372221Y606596D01*
X370865Y606699D01*
X370378Y606764D01*
X369984Y606839D01*
X369749Y606901D01*
X367518Y608613D01*
X364832Y609726D01*
X362043Y610093D01*
X361834Y610215D01*
X361566Y610398D01*
X359520Y612155D01*
X349235Y622440D01*
Y815541D01*
X349310Y821267D01*
X349580Y827565D01*
X350662Y838599D01*
X351456Y843220D01*
X352348Y846988D01*
X353958Y847736D01*
X357269Y848747D01*
X361463Y849605D01*
X366484Y850281D01*
X379128Y851071D01*
X382141Y851111D01*
X714988D01*
X761466Y804633D01*
X762218Y803227D01*
X765035Y799795D01*
X820915Y743915D01*
X824347Y741098D01*
X828263Y739005D01*
X832511Y737716D01*
X836930Y737281D01*
X837641Y737351D01*
X979150D01*
X983569Y737786D01*
X987817Y739075D01*
X991733Y741168D01*
X995165Y743985D01*
X997982Y747417D01*
X1000075Y751333D01*
X1001364Y755581D01*
X1001799Y760000D01*
X1001364Y764419D01*
X1000075Y768667D01*
X997982Y772583D01*
X995165Y776015D01*
X991733Y778832D01*
X987817Y780925D01*
X983569Y782214D01*
X979150Y782649D01*
X846242D01*
X800634Y828257D01*
X799882Y829663D01*
X797065Y833095D01*
X740385Y889775D01*
X736953Y892592D01*
X734169Y894080D01*
X734487Y895350D01*
X1041400D01*
Y6350D01*
D02*
G37*
G36*
X416924Y492590D02*
X416833Y492637D01*
X416656Y492680D01*
X416395Y492718D01*
X415618Y492777D01*
X413045Y492837D01*
X412190Y492840D01*
Y502840D01*
X416924Y503090D01*
Y492590D01*
D02*
G37*
G36*
X427305Y538810D02*
X427675Y534310D01*
X427897Y533209D01*
X428169Y532309D01*
X428490Y531609D01*
X428861Y531110D01*
X429280Y530810D01*
X429749Y530709D01*
X414810D01*
X415280Y530810D01*
X415700Y531110D01*
X416070Y531609D01*
X416391Y532309D01*
X416663Y533209D01*
X416885Y534310D01*
X417058Y535610D01*
X417255Y538810D01*
X417280Y540709D01*
X427280D01*
X427305Y538810D01*
D02*
G37*
G36*
X252677Y600929D02*
X252984Y600768D01*
X253373Y600625D01*
X253842Y600502D01*
X254392Y600397D01*
X255023Y600312D01*
X256527Y600198D01*
X258354Y600160D01*
Y590160D01*
X257400Y590150D01*
X254392Y589922D01*
X253842Y589818D01*
X253373Y589695D01*
X252984Y589552D01*
X252677Y589390D01*
X252450Y589210D01*
Y601110D01*
X252677Y600929D01*
D02*
G37*
G36*
X367719Y592673D02*
X367558Y592366D01*
X367416Y591977D01*
X367292Y591508D01*
X367188Y590958D01*
X367102Y590327D01*
X366988Y588824D01*
X366950Y586996D01*
X356950D01*
X356940Y587950D01*
X356712Y590958D01*
X356608Y591508D01*
X356484Y591977D01*
X356342Y592366D01*
X356180Y592673D01*
X356000Y592900D01*
X367900D01*
X367719Y592673D01*
D02*
G37*
G36*
X305490Y588863D02*
X305328Y588556D01*
X305186Y588167D01*
X305062Y587698D01*
X304958Y587148D01*
X304872Y586517D01*
X304758Y585014D01*
X304720Y583186D01*
X294720D01*
X294711Y584140D01*
X294482Y587148D01*
X294378Y587698D01*
X294254Y588167D01*
X294112Y588556D01*
X293951Y588863D01*
X293770Y589090D01*
X305670D01*
X305490Y588863D01*
D02*
G37*
G36*
X417628Y579600D02*
X419426Y578050D01*
X419945Y577680D01*
X420424Y577384D01*
X420862Y577161D01*
X421260Y577012D01*
X421617Y576936D01*
X421935Y576934D01*
X414448Y567684D01*
X414394Y567916D01*
X414271Y568198D01*
X414079Y568531D01*
X413818Y568913D01*
X413488Y569346D01*
X412622Y570363D01*
X410805Y572263D01*
X416948Y580263D01*
X417628Y579600D01*
D02*
G37*
G36*
X368247Y604739D02*
X368554Y604578D01*
X368943Y604436D01*
X369412Y604312D01*
X369962Y604207D01*
X370592Y604122D01*
X372096Y604008D01*
X373924Y603970D01*
Y593970D01*
X372970Y593960D01*
X369962Y593732D01*
X369412Y593628D01*
X368943Y593504D01*
X368554Y593362D01*
X368247Y593200D01*
X368020Y593020D01*
Y604920D01*
X368247Y604739D01*
D02*
G37*
G36*
X386630Y853760D02*
X379030Y853660D01*
X366230Y852860D01*
X361030Y852160D01*
X356630Y851260D01*
X353030Y850160D01*
X350230Y848860D01*
X350194Y848833D01*
X349924Y847992D01*
X348918Y843738D01*
X348094Y838945D01*
X346996Y827747D01*
X346721Y821340D01*
X346630Y814395D01*
X336630D01*
X336539Y821340D01*
X335166Y838945D01*
X334342Y843738D01*
X333336Y847992D01*
X333066Y848833D01*
X333030Y848860D01*
X330230Y850160D01*
X326630Y851260D01*
X322230Y852160D01*
X304230Y853660D01*
X296630Y853760D01*
X341630Y893760D01*
X386630Y853760D01*
D02*
G37*
G36*
X293650Y589210D02*
X293423Y589390D01*
X293116Y589552D01*
X292727Y589695D01*
X292258Y589818D01*
X291708Y589922D01*
X291077Y590008D01*
X289573Y590122D01*
X287746Y590160D01*
Y600160D01*
X288700Y600169D01*
X291708Y600397D01*
X292258Y600502D01*
X292727Y600625D01*
X293116Y600768D01*
X293423Y600929D01*
X293650Y601110D01*
Y589210D01*
D02*
G37*
%LPC*%
G36*
X615950Y479765D02*
X613068Y479386D01*
X610382Y478273D01*
X608076Y476504D01*
X606307Y474198D01*
X605194Y471512D01*
X604815Y468630D01*
X605194Y465748D01*
X606307Y463062D01*
X608019Y460831D01*
X608081Y460596D01*
X608141Y460277D01*
X608345Y457589D01*
Y436417D01*
X608272Y435034D01*
X608033Y433678D01*
X607664Y432571D01*
X607188Y431687D01*
X606610Y430980D01*
X605903Y430402D01*
X605019Y429926D01*
X603912Y429557D01*
X602556Y429318D01*
X601173Y429245D01*
X510996D01*
X509072Y429290D01*
X508773Y429313D01*
X507343Y430410D01*
X504901Y431422D01*
X502280Y431767D01*
X499659Y431422D01*
X497217Y430410D01*
X495119Y428801D01*
X493510Y426703D01*
X492498Y424261D01*
X492153Y421640D01*
X492498Y419019D01*
X493510Y416577D01*
X495119Y414479D01*
X497217Y412870D01*
X499659Y411858D01*
X502280Y411513D01*
X504901Y411858D01*
X507343Y412870D01*
X508619Y413848D01*
X512148Y414035D01*
X601173D01*
X602556Y413962D01*
X603912Y413723D01*
X605019Y413354D01*
X605903Y412878D01*
X606610Y412300D01*
X607188Y411593D01*
X607664Y410709D01*
X608033Y409602D01*
X608192Y408699D01*
X608156Y408428D01*
X608081Y408034D01*
X608019Y407799D01*
X606307Y405568D01*
X605194Y402882D01*
X604815Y400000D01*
X605194Y397118D01*
X606307Y394432D01*
X608076Y392126D01*
X610382Y390357D01*
X613068Y389244D01*
X615950Y388865D01*
X618832Y389244D01*
X621518Y390357D01*
X623824Y392126D01*
X625593Y394432D01*
X626706Y397118D01*
X627085Y400000D01*
X626706Y402882D01*
X625593Y405568D01*
X623881Y407799D01*
X623819Y408034D01*
X623759Y408353D01*
X623555Y411041D01*
Y457365D01*
X623576Y458359D01*
X623679Y459715D01*
X623745Y460202D01*
X623819Y460596D01*
X623881Y460831D01*
X625593Y463062D01*
X626706Y465748D01*
X627085Y468630D01*
X626706Y471512D01*
X625593Y474198D01*
X623824Y476504D01*
X621518Y478273D01*
X618832Y479386D01*
X615950Y479765D01*
D02*
G37*
G36*
X563880Y458645D02*
X560998Y458266D01*
X558312Y457153D01*
X556006Y455384D01*
X555731Y455026D01*
X555696Y455011D01*
X555450Y454938D01*
X555074Y454857D01*
X554628Y454788D01*
X552519Y454645D01*
X510996D01*
X509072Y454690D01*
X508773Y454713D01*
X507343Y455810D01*
X504901Y456822D01*
X502280Y457167D01*
X499659Y456822D01*
X497217Y455810D01*
X495119Y454201D01*
X493510Y452103D01*
X492498Y449661D01*
X492153Y447040D01*
X492498Y444419D01*
X493510Y441977D01*
X495119Y439879D01*
X497217Y438270D01*
X499659Y437258D01*
X502280Y436913D01*
X504901Y437258D01*
X507343Y438270D01*
X508619Y439249D01*
X512148Y439435D01*
X553368D01*
X554724Y439383D01*
X555906Y439269D01*
X556291Y439206D01*
X556571Y439143D01*
X556659Y439115D01*
X556721Y439087D01*
X558312Y437867D01*
X560998Y436754D01*
X563880Y436375D01*
X566762Y436754D01*
X569448Y437867D01*
X571754Y439636D01*
X573523Y441942D01*
X574636Y444628D01*
X575015Y447510D01*
X574636Y450392D01*
X573523Y453078D01*
X571754Y455384D01*
X569448Y457153D01*
X566762Y458266D01*
X563880Y458645D01*
D02*
G37*
G36*
X422280Y457167D02*
X419659Y456822D01*
X417217Y455810D01*
X415942Y454832D01*
X412412Y454645D01*
X377660D01*
X375692Y454386D01*
X373857Y453626D01*
X372282Y452418D01*
X364538Y444673D01*
X363821Y443985D01*
X362789Y443098D01*
X362398Y442801D01*
X362066Y442575D01*
X361857Y442453D01*
X359068Y442086D01*
X356382Y440973D01*
X354076Y439204D01*
X352307Y436898D01*
X351194Y434212D01*
X350815Y431330D01*
X351194Y428448D01*
X352307Y425762D01*
X354076Y423456D01*
X356382Y421687D01*
X359068Y420574D01*
X361950Y420195D01*
X364832Y420574D01*
X367518Y421687D01*
X369824Y423456D01*
X371593Y425762D01*
X372706Y428448D01*
X373073Y431237D01*
X373195Y431446D01*
X373378Y431714D01*
X375135Y433760D01*
X380810Y439435D01*
X413564D01*
X415488Y439390D01*
X415787Y439367D01*
X417217Y438270D01*
X419659Y437258D01*
X422280Y436913D01*
X424901Y437258D01*
X427343Y438270D01*
X429441Y439879D01*
X431050Y441977D01*
X432062Y444419D01*
X432407Y447040D01*
X432062Y449661D01*
X431050Y452103D01*
X429441Y454201D01*
X427343Y455810D01*
X424901Y456822D01*
X422280Y457167D01*
D02*
G37*
G36*
X314960Y470370D02*
X310160D01*
Y465690D01*
X309933Y465871D01*
X309626Y466032D01*
X309237Y466175D01*
X308768Y466298D01*
X308218Y466403D01*
X307588Y466488D01*
X306376Y466580D01*
X306587Y466072D01*
X308356Y463766D01*
X310662Y461997D01*
X311131Y461802D01*
X310993Y463628D01*
X310888Y464178D01*
X310765Y464647D01*
X310622Y465036D01*
X310460Y465343D01*
X310280Y465570D01*
X314960D01*
Y470370D01*
D02*
G37*
G36*
X314160Y534375D02*
X311278Y533996D01*
X308592Y532883D01*
X306286Y531114D01*
X304517Y528808D01*
X303404Y526122D01*
X303025Y523240D01*
X303404Y520358D01*
X304517Y517672D01*
X306286Y515366D01*
X308592Y513597D01*
X311278Y512484D01*
X314067Y512117D01*
X314276Y511995D01*
X314544Y511812D01*
X316590Y510055D01*
X359582Y467062D01*
X361157Y465854D01*
X361917Y465539D01*
X362992Y465094D01*
X364960Y464835D01*
X413564D01*
X415488Y464790D01*
X415787Y464767D01*
X417217Y463670D01*
X419659Y462658D01*
X422280Y462313D01*
X424901Y462658D01*
X427343Y463670D01*
X429441Y465279D01*
X431050Y467377D01*
X432062Y469819D01*
X432407Y472440D01*
X432062Y475061D01*
X431050Y477503D01*
X429441Y479601D01*
X427343Y481210D01*
X424901Y482222D01*
X422280Y482567D01*
X419659Y482222D01*
X417217Y481210D01*
X415942Y480232D01*
X412412Y480045D01*
X368110D01*
X327503Y520652D01*
X326815Y521369D01*
X325928Y522401D01*
X325631Y522792D01*
X325405Y523124D01*
X325283Y523333D01*
X324916Y526122D01*
X323803Y528808D01*
X322034Y531114D01*
X319728Y532883D01*
X317042Y533996D01*
X314160Y534375D01*
D02*
G37*
G36*
X327198Y470370D02*
X317500D01*
Y465570D01*
X322180D01*
X322000Y465343D01*
X321838Y465036D01*
X321696Y464647D01*
X321572Y464178D01*
X321468Y463628D01*
X321382Y462998D01*
X321290Y461786D01*
X321798Y461997D01*
X324104Y463766D01*
X325873Y466072D01*
X326986Y468758D01*
X327198Y470370D01*
D02*
G37*
G36*
X501010Y380799D02*
X499659Y380622D01*
X497217Y379610D01*
X495119Y378001D01*
X493510Y375903D01*
X492498Y373461D01*
X492321Y372110D01*
X501010D01*
Y380799D01*
D02*
G37*
G36*
X503550D02*
Y372110D01*
X512239D01*
X512062Y373461D01*
X511050Y375903D01*
X509441Y378001D01*
X507343Y379610D01*
X504901Y380622D01*
X503550Y380799D01*
D02*
G37*
G36*
X512239Y369570D02*
X503550D01*
Y365484D01*
X507530D01*
X507482Y365392D01*
X507440Y365216D01*
X507402Y364955D01*
X507342Y364178D01*
X507293Y362049D01*
X507343Y362070D01*
X509441Y363679D01*
X511050Y365777D01*
X512062Y368219D01*
X512239Y369570D01*
D02*
G37*
G36*
X501010D02*
X492321D01*
X492498Y368219D01*
X493510Y365777D01*
X495119Y363679D01*
X497210Y362075D01*
X497030Y365484D01*
X501010D01*
Y369570D01*
D02*
G37*
G36*
X422280Y431767D02*
X419659Y431422D01*
X417217Y430410D01*
X415119Y428801D01*
X413510Y426703D01*
X412498Y424261D01*
X412289Y422668D01*
X409924Y420039D01*
X370070Y380185D01*
X326338D01*
X325658Y380195D01*
X324284Y380266D01*
X323292Y380376D01*
X323023Y380425D01*
X322886Y380461D01*
X322852Y380474D01*
X321798Y381283D01*
X319112Y382396D01*
X316230Y382775D01*
X313348Y382396D01*
X310662Y381283D01*
X308356Y379514D01*
X306587Y377208D01*
X305474Y374522D01*
X305095Y371640D01*
X305474Y368758D01*
X306587Y366072D01*
X308356Y363766D01*
X310662Y361997D01*
X313348Y360884D01*
X316230Y360505D01*
X319112Y360884D01*
X321798Y361997D01*
X324104Y363766D01*
X324680Y364518D01*
X324749Y364563D01*
X324759Y364574D01*
X324787Y364586D01*
X325011Y364660D01*
X325369Y364745D01*
X325795Y364817D01*
X327898Y364975D01*
X373220D01*
X375188Y365234D01*
X377023Y365994D01*
X378598Y367202D01*
X411737Y400342D01*
X412814Y399623D01*
X412498Y398861D01*
X412321Y397510D01*
X421010D01*
Y406199D01*
X419659Y406022D01*
X418897Y405706D01*
X418178Y406783D01*
X421494Y410099D01*
X422887Y411428D01*
X423115Y411623D01*
X424901Y411858D01*
X427343Y412870D01*
X429441Y414479D01*
X431050Y416577D01*
X432062Y419019D01*
X432407Y421640D01*
X432062Y424261D01*
X431050Y426703D01*
X429441Y428801D01*
X427343Y430410D01*
X424901Y431422D01*
X422280Y431767D01*
D02*
G37*
G36*
X423550Y406199D02*
Y397510D01*
X432239D01*
X432062Y398861D01*
X431050Y401303D01*
X429441Y403401D01*
X427343Y405010D01*
X424901Y406022D01*
X423550Y406199D01*
D02*
G37*
G36*
X421010Y394970D02*
X412321D01*
X412498Y393619D01*
X413510Y391177D01*
X415119Y389079D01*
X417217Y387470D01*
X419659Y386458D01*
X421010Y386281D01*
Y394970D01*
D02*
G37*
G36*
X432239D02*
X423550D01*
Y386281D01*
X424901Y386458D01*
X427343Y387470D01*
X429441Y389079D01*
X431050Y391177D01*
X432062Y393619D01*
X432239Y394970D01*
D02*
G37*
G36*
X314960Y482608D02*
X313348Y482396D01*
X310662Y481283D01*
X308356Y479514D01*
X306587Y477208D01*
X306392Y476739D01*
X308218Y476878D01*
X308768Y476982D01*
X309237Y477105D01*
X309626Y477248D01*
X309933Y477410D01*
X310160Y477590D01*
Y472910D01*
X314960D01*
Y482608D01*
D02*
G37*
G36*
X613410Y846879D02*
X608991Y846444D01*
X604743Y845155D01*
X600827Y843062D01*
X597395Y840245D01*
X594578Y836813D01*
X592485Y832897D01*
X591196Y828649D01*
X590761Y824230D01*
Y761200D01*
X590761Y761200D01*
X591196Y756781D01*
X592485Y752533D01*
X594578Y748617D01*
X597395Y745185D01*
X622511Y720069D01*
Y670090D01*
X622946Y665671D01*
X624235Y661423D01*
X626328Y657507D01*
X629145Y654075D01*
X632577Y651258D01*
X636493Y649165D01*
X640741Y647876D01*
X645160Y647441D01*
X700218D01*
X741375Y606285D01*
X741375Y606285D01*
X761411Y586249D01*
Y551180D01*
X761846Y546761D01*
X763135Y542513D01*
X765228Y538597D01*
X768045Y535165D01*
X771477Y532348D01*
X775393Y530255D01*
X779641Y528966D01*
X784060Y528531D01*
X788479Y528966D01*
X792727Y530255D01*
X796643Y532348D01*
X800075Y535165D01*
X802892Y538597D01*
X804985Y542513D01*
X806274Y546761D01*
X806709Y551180D01*
Y595630D01*
X806274Y600049D01*
X804985Y604297D01*
X802892Y608213D01*
X800075Y611645D01*
X800075Y611645D01*
X773405Y638315D01*
X773405Y638315D01*
X725615Y686105D01*
X722183Y688922D01*
X718267Y691015D01*
X714019Y692304D01*
X709600Y692739D01*
X709600Y692739D01*
X667809D01*
Y729450D01*
X667809Y729450D01*
X667374Y733869D01*
X666085Y738117D01*
X663992Y742033D01*
X661175Y745465D01*
X660375Y746265D01*
X660375Y746265D01*
X636059Y770582D01*
Y824230D01*
X635624Y828649D01*
X634335Y832897D01*
X632242Y836813D01*
X629425Y840245D01*
X625993Y843062D01*
X622077Y845155D01*
X617829Y846444D01*
X613410Y846879D01*
D02*
G37*
G36*
X219259Y533078D02*
X219398Y531252D01*
X219502Y530702D01*
X219625Y530233D01*
X219768Y529844D01*
X219930Y529537D01*
X220110Y529310D01*
X215430D01*
Y524510D01*
X225128D01*
X224916Y526122D01*
X223803Y528808D01*
X222034Y531114D01*
X219728Y532883D01*
X219259Y533078D01*
D02*
G37*
G36*
X209100Y533094D02*
X208592Y532883D01*
X206286Y531114D01*
X204517Y528808D01*
X203404Y526122D01*
X203192Y524510D01*
X212890D01*
Y529310D01*
X208210D01*
X208391Y529537D01*
X208552Y529844D01*
X208694Y530233D01*
X208818Y530702D01*
X208923Y531252D01*
X209008Y531883D01*
X209100Y533094D01*
D02*
G37*
G36*
X682790Y549910D02*
X673092D01*
X673304Y548298D01*
X674417Y545612D01*
X676186Y543306D01*
X678492Y541537D01*
X681178Y540424D01*
X682790Y540212D01*
Y549910D01*
D02*
G37*
G36*
X689159Y561017D02*
X689297Y559192D01*
X689402Y558642D01*
X689526Y558173D01*
X689668Y557784D01*
X689829Y557477D01*
X690010Y557250D01*
X685330D01*
Y552450D01*
X695028D01*
X694816Y554062D01*
X693703Y556748D01*
X691934Y559054D01*
X689628Y560823D01*
X689159Y561017D01*
D02*
G37*
G36*
X679000Y561034D02*
X678492Y560823D01*
X676186Y559054D01*
X674417Y556748D01*
X673304Y554062D01*
X673092Y552450D01*
X682790D01*
Y557250D01*
X678110D01*
X678290Y557477D01*
X678452Y557784D01*
X678595Y558173D01*
X678718Y558642D01*
X678822Y559192D01*
X678908Y559823D01*
X679000Y561034D01*
D02*
G37*
G36*
X695028Y549910D02*
X685330D01*
Y540212D01*
X686942Y540424D01*
X689628Y541537D01*
X691934Y543306D01*
X693703Y545612D01*
X694816Y548298D01*
X695028Y549910D01*
D02*
G37*
G36*
X225128Y521970D02*
X223080D01*
X223214Y521741D01*
X223529Y521278D01*
X223914Y520772D01*
X224706Y519851D01*
X224916Y520358D01*
X225128Y521970D01*
D02*
G37*
G36*
X502280Y507967D02*
X499659Y507622D01*
X497217Y506610D01*
X495119Y505001D01*
X493510Y502903D01*
X492498Y500461D01*
X492153Y497840D01*
X492498Y495219D01*
X493510Y492777D01*
X495119Y490679D01*
X497217Y489070D01*
X499659Y488058D01*
X502280Y487713D01*
X504901Y488058D01*
X507343Y489070D01*
X509441Y490679D01*
X511050Y492777D01*
X512062Y495219D01*
X512407Y497840D01*
X512062Y500461D01*
X511050Y502903D01*
X509441Y505001D01*
X507343Y506610D01*
X504901Y507622D01*
X502280Y507967D01*
D02*
G37*
G36*
X626990Y530470D02*
X604910D01*
Y521377D01*
X604357Y520411D01*
X603369Y518989D01*
X600434Y515515D01*
X599160Y514196D01*
X571548Y486583D01*
X570831Y485895D01*
X569799Y485009D01*
X569408Y484711D01*
X569076Y484485D01*
X568867Y484363D01*
X566078Y483996D01*
X563392Y482883D01*
X561086Y481114D01*
X560604Y480485D01*
X560559Y480456D01*
X560546Y480444D01*
X560510Y480428D01*
X560279Y480354D01*
X559915Y480270D01*
X559484Y480199D01*
X557378Y480045D01*
X510996D01*
X509072Y480090D01*
X508773Y480113D01*
X507343Y481210D01*
X504901Y482222D01*
X502280Y482567D01*
X499659Y482222D01*
X497217Y481210D01*
X495119Y479601D01*
X493510Y477503D01*
X492498Y475061D01*
X492153Y472440D01*
X492498Y469819D01*
X493510Y467377D01*
X495119Y465279D01*
X497217Y463670D01*
X499659Y462658D01*
X502280Y462313D01*
X504901Y462658D01*
X507343Y463670D01*
X508619Y464649D01*
X512148Y464835D01*
X558259D01*
X560136Y464790D01*
X561319Y464692D01*
X561716Y464635D01*
X562007Y464578D01*
X562135Y464542D01*
X562182Y464524D01*
X562186Y464523D01*
X563392Y463597D01*
X566078Y462484D01*
X568960Y462105D01*
X571842Y462484D01*
X574528Y463597D01*
X576834Y465366D01*
X578603Y467672D01*
X579716Y470358D01*
X580083Y473147D01*
X580205Y473356D01*
X580388Y473624D01*
X582145Y475670D01*
X608788Y502313D01*
X612404Y505676D01*
X614053Y507001D01*
X615527Y508032D01*
X616151Y508390D01*
X626990D01*
Y530470D01*
D02*
G37*
G36*
X317500Y482608D02*
Y472910D01*
X327198D01*
X326986Y474522D01*
X325873Y477208D01*
X324104Y479514D01*
X321798Y481283D01*
X319112Y482396D01*
X317500Y482608D01*
D02*
G37*
G36*
X568960Y584375D02*
X566078Y583996D01*
X563392Y582883D01*
X561086Y581114D01*
X559317Y578808D01*
X558204Y576122D01*
X557837Y573333D01*
X557715Y573124D01*
X557532Y572856D01*
X555775Y570810D01*
X515810Y530845D01*
X510996D01*
X509072Y530890D01*
X508773Y530913D01*
X507343Y532010D01*
X504901Y533022D01*
X502280Y533367D01*
X499659Y533022D01*
X497217Y532010D01*
X495119Y530401D01*
X493510Y528303D01*
X492498Y525861D01*
X492153Y523240D01*
X492498Y520619D01*
X493510Y518177D01*
X495119Y516079D01*
X497217Y514470D01*
X499659Y513458D01*
X502280Y513113D01*
X504901Y513458D01*
X507343Y514470D01*
X508619Y515448D01*
X512148Y515635D01*
X518960D01*
X520928Y515894D01*
X522762Y516654D01*
X524338Y517862D01*
X566372Y559897D01*
X567089Y560585D01*
X568121Y561471D01*
X568512Y561769D01*
X568844Y561995D01*
X569053Y562117D01*
X571842Y562484D01*
X574528Y563597D01*
X576759Y565309D01*
X576994Y565371D01*
X577313Y565431D01*
X580001Y565635D01*
X626300D01*
X688042Y503892D01*
X689617Y502684D01*
X691452Y501924D01*
X693420Y501665D01*
X905898D01*
X906107Y501505D01*
X908269Y500609D01*
X910590Y500303D01*
X912911Y500609D01*
X915073Y501505D01*
X916930Y502930D01*
X918355Y504787D01*
X919251Y506949D01*
X919557Y509270D01*
X919251Y511591D01*
X918355Y513753D01*
X916930Y515610D01*
X915073Y517035D01*
X912911Y517931D01*
X910590Y518237D01*
X908269Y517931D01*
X906107Y517035D01*
X905898Y516875D01*
X696570D01*
X634828Y578618D01*
X633252Y579826D01*
X631418Y580586D01*
X629450Y580845D01*
X580225D01*
X579231Y580866D01*
X577875Y580969D01*
X577388Y581035D01*
X576994Y581109D01*
X576759Y581171D01*
X574528Y582883D01*
X571842Y583996D01*
X568960Y584375D01*
D02*
G37*
G36*
X221475Y521970D02*
X215430D01*
Y515925D01*
X221475Y521970D01*
D02*
G37*
G36*
X215430Y514320D02*
Y512272D01*
X217042Y512484D01*
X217511Y512678D01*
X216122Y513871D01*
X215659Y514186D01*
X215430Y514320D01*
D02*
G37*
G36*
X212890Y521970D02*
X203192D01*
X203404Y520358D01*
X204517Y517672D01*
X206286Y515366D01*
X208592Y513597D01*
X211278Y512484D01*
X212890Y512272D01*
Y521970D01*
D02*
G37*
G36*
X566420Y192570D02*
X556722D01*
X556934Y190958D01*
X558047Y188272D01*
X559816Y185966D01*
X562122Y184197D01*
X564808Y183084D01*
X566420Y182872D01*
Y192570D01*
D02*
G37*
G36*
X573760D02*
X568960D01*
Y182872D01*
X570572Y183084D01*
X573258Y184197D01*
X575564Y185966D01*
X577333Y188272D01*
X577528Y188741D01*
X575702Y188603D01*
X575152Y188498D01*
X574683Y188375D01*
X574294Y188232D01*
X573987Y188071D01*
X573760Y187890D01*
Y192570D01*
D02*
G37*
G36*
X617220Y184538D02*
Y182838D01*
X618963Y183067D01*
X619023Y183092D01*
X618088Y183914D01*
X617534Y184329D01*
X617220Y184538D01*
D02*
G37*
G36*
X489420Y242275D02*
X486538Y241896D01*
X483852Y240783D01*
X481546Y239014D01*
X479777Y236708D01*
X478664Y234022D01*
X478285Y231140D01*
X478664Y228258D01*
X479777Y225572D01*
X481489Y223341D01*
X481551Y223106D01*
X481611Y222787D01*
X481815Y220099D01*
Y208890D01*
X466608Y193683D01*
X465891Y192995D01*
X464859Y192108D01*
X464468Y191811D01*
X464136Y191585D01*
X463927Y191463D01*
X461138Y191096D01*
X458452Y189983D01*
X456146Y188214D01*
X454377Y185908D01*
X453264Y183222D01*
X452885Y180340D01*
X453264Y177458D01*
X454377Y174772D01*
X456146Y172466D01*
X458452Y170697D01*
X461138Y169584D01*
X464020Y169205D01*
X466902Y169584D01*
X469588Y170697D01*
X471894Y172466D01*
X473663Y174772D01*
X474776Y177458D01*
X475143Y180247D01*
X475265Y180456D01*
X475448Y180724D01*
X477205Y182770D01*
X494798Y200362D01*
X496006Y201938D01*
X496766Y203772D01*
X497025Y205740D01*
Y219875D01*
X497046Y220869D01*
X497149Y222225D01*
X497215Y222712D01*
X497289Y223106D01*
X497351Y223341D01*
X499063Y225572D01*
X500176Y228258D01*
X500555Y231140D01*
X500176Y234022D01*
X499063Y236708D01*
X497294Y239014D01*
X494988Y240783D01*
X492302Y241896D01*
X489420Y242275D01*
D02*
G37*
G36*
X502280Y406367D02*
X499659Y406022D01*
X497217Y405010D01*
X495119Y403401D01*
X493510Y401303D01*
X492498Y398861D01*
X492153Y396240D01*
X492498Y393619D01*
X493510Y391177D01*
X495119Y389079D01*
X497217Y387470D01*
X499659Y386458D01*
X502280Y386113D01*
X504901Y386458D01*
X507343Y387470D01*
X508619Y388448D01*
X512148Y388635D01*
X578510D01*
X625812Y341332D01*
X627388Y340124D01*
X629222Y339364D01*
X631190Y339105D01*
X819290D01*
X958527Y199868D01*
X961831Y196312D01*
X963135Y194684D01*
X964154Y193221D01*
X964610Y192426D01*
Y175460D01*
X993690D01*
Y204540D01*
X976724D01*
X975929Y204996D01*
X974495Y205995D01*
X970972Y208979D01*
X969627Y210278D01*
X827818Y352088D01*
X826243Y353296D01*
X824408Y354056D01*
X822440Y354315D01*
X634340D01*
X587038Y401618D01*
X585462Y402826D01*
X583628Y403586D01*
X581660Y403845D01*
X510996D01*
X509072Y403890D01*
X508773Y403913D01*
X507343Y405010D01*
X504901Y406022D01*
X502280Y406367D01*
D02*
G37*
G36*
X566420Y204808D02*
X564808Y204596D01*
X562122Y203483D01*
X559816Y201714D01*
X558047Y199408D01*
X556934Y196722D01*
X556722Y195110D01*
X566420D01*
Y204808D01*
D02*
G37*
G36*
X614680Y205782D02*
X612938Y205553D01*
X610130Y204390D01*
X607720Y202540D01*
X605870Y200130D01*
X605399Y198993D01*
X606284Y199068D01*
X606966Y199196D01*
X607570Y199353D01*
X608095Y199539D01*
X608543Y199753D01*
X608912Y199995D01*
X609202Y200266D01*
X609448Y195580D01*
X614680D01*
Y205782D01*
D02*
G37*
G36*
X627422Y193040D02*
X624946D01*
X625006Y192718D01*
X625165Y192247D01*
X625400Y191741D01*
X625711Y191201D01*
X626098Y190626D01*
X626562Y190017D01*
X626630Y189939D01*
X627193Y191297D01*
X627422Y193040D01*
D02*
G37*
G36*
X624320D02*
X617220D01*
Y186919D01*
X624320Y193040D01*
D02*
G37*
G36*
X614680D02*
X609580D01*
X609860Y187683D01*
X609569Y187903D01*
X609199Y188099D01*
X608750Y188273D01*
X608223Y188423D01*
X607617Y188551D01*
X606931Y188655D01*
X605760Y188756D01*
X605870Y188490D01*
X607720Y186080D01*
X610130Y184230D01*
X612938Y183067D01*
X614680Y182838D01*
Y193040D01*
D02*
G37*
G36*
X979150Y154665D02*
X975354Y154166D01*
X971817Y152701D01*
X968780Y150370D01*
X966449Y147333D01*
X964984Y143796D01*
X964484Y140000D01*
X964984Y136204D01*
X966449Y132667D01*
X968780Y129630D01*
X971817Y127299D01*
X975354Y125834D01*
X979150Y125335D01*
X982946Y125834D01*
X986483Y127299D01*
X989520Y129630D01*
X991851Y132667D01*
X993316Y136204D01*
X993816Y140000D01*
X993316Y143796D01*
X991851Y147333D01*
X989520Y150370D01*
X986483Y152701D01*
X982946Y154166D01*
X979150Y154665D01*
D02*
G37*
G36*
X455160Y73430D02*
X441890D01*
Y60160D01*
X455160D01*
Y73430D01*
D02*
G37*
G36*
X729780Y88730D02*
X720082D01*
X720294Y87118D01*
X721407Y84432D01*
X723176Y82126D01*
X725482Y80357D01*
X728168Y79244D01*
X729780Y79032D01*
Y88730D01*
D02*
G37*
G36*
X439350Y73430D02*
X426080D01*
Y60160D01*
X439350D01*
Y73430D01*
D02*
G37*
G36*
Y57620D02*
X426080D01*
Y44350D01*
X439350D01*
Y57620D01*
D02*
G37*
G36*
X455160D02*
X441890D01*
Y44350D01*
X455160D01*
Y57620D01*
D02*
G37*
G36*
X221915Y99573D02*
X221226Y99530D01*
X220538Y99572D01*
X220234Y99467D01*
X219914Y99447D01*
X219294Y99144D01*
X218642Y98919D01*
X218401Y98707D01*
X218113Y98565D01*
X217657Y98048D01*
X217140Y97591D01*
X216999Y97303D01*
X216787Y97062D01*
X186837Y45511D01*
X186725Y45184D01*
X186532Y44896D01*
X186403Y44244D01*
X186187Y43615D01*
X186209Y43269D01*
X186141Y42930D01*
X186271Y42277D01*
X186313Y41614D01*
X186465Y41303D01*
X186532Y40964D01*
X186902Y40410D01*
X187195Y39813D01*
X187454Y39584D01*
X187646Y39296D01*
X188200Y38927D01*
X188699Y38487D01*
X189026Y38375D01*
X189314Y38182D01*
X189966Y38053D01*
X190595Y37837D01*
X190941Y37859D01*
X191280Y37791D01*
X251280D01*
X251623Y37859D01*
X251972Y37838D01*
X252598Y38053D01*
X253246Y38182D01*
X253537Y38377D01*
X253868Y38491D01*
X254364Y38929D01*
X254914Y39296D01*
X255108Y39587D01*
X255370Y39819D01*
X255660Y40413D01*
X256028Y40964D01*
X256096Y41307D01*
X256249Y41621D01*
X256290Y42281D01*
X256419Y42930D01*
X256350Y43273D01*
X256372Y43622D01*
X256157Y44248D01*
X256028Y44896D01*
X255833Y45187D01*
X255720Y45518D01*
X225669Y97068D01*
X225457Y97309D01*
X225315Y97597D01*
X224798Y98053D01*
X224341Y98570D01*
X224053Y98711D01*
X223811Y98923D01*
X223159Y99147D01*
X222539Y99449D01*
X222219Y99469D01*
X221915Y99573D01*
D02*
G37*
G36*
X364020Y191475D02*
X361138Y191096D01*
X358452Y189983D01*
X356146Y188214D01*
X354377Y185908D01*
X353264Y183222D01*
X352897Y180433D01*
X352775Y180224D01*
X352592Y179956D01*
X350835Y177910D01*
X324822Y151898D01*
X323614Y150323D01*
X322854Y148488D01*
X322595Y146520D01*
Y142875D01*
X322574Y141881D01*
X322471Y140525D01*
X322406Y140038D01*
X322331Y139644D01*
X322269Y139409D01*
X320557Y137178D01*
X319444Y134492D01*
X319065Y131610D01*
X319444Y128728D01*
X320557Y126042D01*
X322326Y123736D01*
X324632Y121967D01*
X327318Y120854D01*
X330200Y120475D01*
X333082Y120854D01*
X335768Y121967D01*
X338074Y123736D01*
X339843Y126042D01*
X340956Y128728D01*
X341335Y131610D01*
X340956Y134492D01*
X339843Y137178D01*
X338131Y139409D01*
X338069Y139644D01*
X338009Y139963D01*
X337805Y142651D01*
Y143370D01*
X361432Y166997D01*
X362149Y167685D01*
X363181Y168571D01*
X363572Y168869D01*
X363904Y169095D01*
X364113Y169217D01*
X366902Y169584D01*
X369588Y170697D01*
X371894Y172466D01*
X373663Y174772D01*
X374776Y177458D01*
X375155Y180340D01*
X374776Y183222D01*
X373663Y185908D01*
X371894Y188214D01*
X369588Y189983D01*
X366902Y191096D01*
X364020Y191475D01*
D02*
G37*
G36*
X732320Y100968D02*
Y91270D01*
X742018D01*
X741806Y92882D01*
X740693Y95568D01*
X738924Y97874D01*
X736618Y99643D01*
X733932Y100756D01*
X732320Y100968D01*
D02*
G37*
G36*
X742018Y88730D02*
X732320D01*
Y79032D01*
X733932Y79244D01*
X736618Y80357D01*
X738924Y82126D01*
X740693Y84432D01*
X741806Y87118D01*
X742018Y88730D01*
D02*
G37*
G36*
X729780Y100968D02*
X728168Y100756D01*
X725482Y99643D01*
X723176Y97874D01*
X721407Y95568D01*
X720294Y92882D01*
X720082Y91270D01*
X729780D01*
Y100968D01*
D02*
G37*
G36*
X571195Y346240D02*
X565150D01*
Y340195D01*
X571195Y346240D01*
D02*
G37*
G36*
X562610D02*
X557940D01*
X559441Y340261D01*
X559335Y340295D01*
X559133Y340325D01*
X558834Y340352D01*
X556682Y340424D01*
X555396Y340432D01*
X556006Y339636D01*
X558312Y337867D01*
X560998Y336754D01*
X562610Y336542D01*
Y346240D01*
D02*
G37*
G36*
X565150Y338590D02*
Y336542D01*
X566762Y336754D01*
X567230Y336948D01*
X565842Y338141D01*
X565379Y338456D01*
X565150Y338590D01*
D02*
G37*
G36*
X501010Y344170D02*
X492321D01*
X492498Y342819D01*
X493510Y340377D01*
X495119Y338279D01*
X497217Y336670D01*
X499659Y335658D01*
X501010Y335481D01*
Y344170D01*
D02*
G37*
G36*
X507636D02*
X503550D01*
Y335481D01*
X504901Y335658D01*
X507343Y336670D01*
X509441Y338279D01*
X511045Y340370D01*
X507636Y340190D01*
Y344170D01*
D02*
G37*
G36*
X565150Y358478D02*
Y348780D01*
X574848D01*
X574636Y350392D01*
X573523Y353078D01*
X571754Y355384D01*
X569448Y357153D01*
X566762Y358266D01*
X565150Y358478D01*
D02*
G37*
G36*
X507350Y354205D02*
X507530Y350796D01*
X503550D01*
Y346710D01*
X507636D01*
Y350690D01*
X507728Y350643D01*
X507904Y350600D01*
X508165Y350563D01*
X508942Y350503D01*
X511071Y350453D01*
X511050Y350503D01*
X509441Y352601D01*
X507350Y354205D01*
D02*
G37*
G36*
X562610Y358478D02*
X560998Y358266D01*
X558312Y357153D01*
X556006Y355384D01*
X554237Y353078D01*
X553202Y350580D01*
X554094Y350658D01*
X554709Y350781D01*
X555242Y350930D01*
X555692Y351108D01*
X556059Y351312D01*
X556343Y351544D01*
X556544Y351803D01*
X557303Y348780D01*
X562610D01*
Y358478D01*
D02*
G37*
G36*
X574848Y346240D02*
X572800D01*
X572934Y346011D01*
X573249Y345548D01*
X573634Y345042D01*
X574426Y344121D01*
X574636Y344628D01*
X574848Y346240D01*
D02*
G37*
G36*
X497267Y354231D02*
X497217Y354210D01*
X495119Y352601D01*
X493510Y350503D01*
X492498Y348061D01*
X492321Y346710D01*
X501010D01*
Y350796D01*
X497030D01*
X497077Y350887D01*
X497120Y351064D01*
X497158Y351325D01*
X497217Y352102D01*
X497267Y354231D01*
D02*
G37*
G36*
X273869Y328607D02*
X274007Y326782D01*
X274112Y326232D01*
X274235Y325763D01*
X274378Y325374D01*
X274540Y325067D01*
X274720Y324840D01*
X270040D01*
Y320040D01*
X279738D01*
X279526Y321652D01*
X278413Y324338D01*
X276644Y326644D01*
X274338Y328413D01*
X273869Y328607D01*
D02*
G37*
G36*
X614680Y310968D02*
X613068Y310756D01*
X610382Y309643D01*
X609597Y309041D01*
X609637Y309005D01*
X610192Y308591D01*
X610706Y308260D01*
X611178Y308010D01*
X611608Y307842D01*
X611996Y307757D01*
X612342Y307753D01*
X612647Y307832D01*
X609901Y301270D01*
X614680D01*
Y310968D01*
D02*
G37*
G36*
X617220D02*
Y301270D01*
X626918D01*
X626706Y302882D01*
X625593Y305568D01*
X623824Y307874D01*
X621518Y309643D01*
X618832Y310756D01*
X617220Y310968D01*
D02*
G37*
G36*
X626918Y298730D02*
X617220D01*
Y289032D01*
X618832Y289244D01*
X621518Y290357D01*
X623824Y292126D01*
X625593Y294432D01*
X626706Y297118D01*
X626918Y298730D01*
D02*
G37*
G36*
X617220Y205782D02*
Y195580D01*
X627422D01*
X627193Y197323D01*
X626030Y200130D01*
X624180Y202540D01*
X621770Y204390D01*
X618963Y205553D01*
X617220Y205782D01*
D02*
G37*
G36*
X568960Y204808D02*
Y195110D01*
X573760D01*
Y199790D01*
X573987Y199610D01*
X574294Y199448D01*
X574683Y199305D01*
X575152Y199182D01*
X575702Y199077D01*
X576333Y198992D01*
X577544Y198900D01*
X577333Y199408D01*
X575564Y201714D01*
X573258Y203483D01*
X570572Y204596D01*
X568960Y204808D01*
D02*
G37*
G36*
X496570Y593595D02*
X493688Y593216D01*
X491002Y592103D01*
X488696Y590334D01*
X486927Y588028D01*
X485814Y585342D01*
X485447Y582553D01*
X485325Y582344D01*
X485142Y582076D01*
X483385Y580030D01*
X454362Y551008D01*
X453154Y549432D01*
X452394Y547598D01*
X452135Y545630D01*
Y335250D01*
X432823Y315938D01*
X431746Y316657D01*
X432062Y317419D01*
X432407Y320040D01*
X432062Y322661D01*
X431050Y325103D01*
X429441Y327201D01*
X427343Y328810D01*
X424901Y329822D01*
X422280Y330167D01*
X419659Y329822D01*
X418897Y329506D01*
X418178Y330583D01*
X421495Y333900D01*
X422887Y335228D01*
X423115Y335423D01*
X424901Y335658D01*
X427343Y336670D01*
X429441Y338279D01*
X431050Y340377D01*
X432062Y342819D01*
X432407Y345440D01*
X432062Y348061D01*
X431050Y350503D01*
X429441Y352601D01*
X427343Y354210D01*
X424901Y355222D01*
X422280Y355567D01*
X419659Y355222D01*
X418897Y354906D01*
X418178Y355983D01*
X421494Y359299D01*
X422887Y360628D01*
X423115Y360823D01*
X424901Y361058D01*
X427343Y362070D01*
X429441Y363679D01*
X431050Y365777D01*
X432062Y368219D01*
X432407Y370840D01*
X432062Y373461D01*
X431050Y375903D01*
X429441Y378001D01*
X427343Y379610D01*
X424901Y380622D01*
X422280Y380967D01*
X419659Y380622D01*
X417217Y379610D01*
X415119Y378001D01*
X413510Y375903D01*
X412498Y373461D01*
X412289Y371867D01*
X409924Y369240D01*
X372338Y331654D01*
X371849Y331203D01*
X370818Y330353D01*
X370447Y330091D01*
X370136Y329900D01*
X369927Y329796D01*
X369904Y329788D01*
X369891Y329788D01*
X369797Y329770D01*
X368770Y329905D01*
X365888Y329526D01*
X363202Y328413D01*
X360896Y326644D01*
X359127Y324338D01*
X358014Y321652D01*
X357635Y318770D01*
X358014Y315888D01*
X359127Y313202D01*
X360896Y310896D01*
X363202Y309127D01*
X365888Y308014D01*
X368770Y307635D01*
X371652Y308014D01*
X374338Y309127D01*
X376644Y310896D01*
X378413Y313202D01*
X379526Y315888D01*
X379686Y317103D01*
X379696Y317125D01*
X379769Y317248D01*
X379894Y317426D01*
X381989Y319793D01*
X411737Y349542D01*
X412814Y348823D01*
X412498Y348061D01*
X412289Y346468D01*
X409925Y343840D01*
X384442Y318358D01*
X383234Y316782D01*
X382474Y314948D01*
X382215Y312980D01*
Y242758D01*
X382190Y241703D01*
X382077Y240365D01*
X382006Y239893D01*
X381926Y239514D01*
X381853Y239265D01*
X381844Y239242D01*
X381621Y239071D01*
X381386Y239009D01*
X381068Y238949D01*
X378379Y238745D01*
X341874D01*
X340811Y238770D01*
X339475Y238885D01*
X339006Y238957D01*
X338630Y239038D01*
X338384Y239111D01*
X338349Y239126D01*
X338074Y239484D01*
X335768Y241253D01*
X333082Y242366D01*
X330200Y242745D01*
X327318Y242366D01*
X324632Y241253D01*
X322326Y239484D01*
X320557Y237178D01*
X319444Y234492D01*
X319065Y231610D01*
X319444Y228728D01*
X320557Y226042D01*
X322326Y223736D01*
X324632Y221967D01*
X327318Y220854D01*
X330200Y220475D01*
X333082Y220854D01*
X335768Y221967D01*
X337359Y223187D01*
X337421Y223215D01*
X337509Y223243D01*
X337789Y223306D01*
X338134Y223362D01*
X340820Y223535D01*
X378155D01*
X379149Y223514D01*
X380505Y223411D01*
X380992Y223346D01*
X381386Y223271D01*
X381621Y223209D01*
X381844Y223038D01*
X381853Y223015D01*
X381926Y222766D01*
X382006Y222387D01*
X382077Y221915D01*
X382190Y220577D01*
X382215Y219522D01*
Y76489D01*
X382199Y75937D01*
X382112Y74944D01*
X381969Y74021D01*
X381774Y73168D01*
X381529Y72383D01*
X381237Y71660D01*
X380900Y70998D01*
X380517Y70389D01*
X380086Y69829D01*
X379825Y69548D01*
X379450Y69260D01*
X377119Y66223D01*
X375654Y62686D01*
X375154Y58890D01*
X375654Y55094D01*
X377119Y51557D01*
X379450Y48520D01*
X382487Y46189D01*
X386024Y44724D01*
X389820Y44225D01*
X390289Y44286D01*
X390672Y44272D01*
X391373Y44180D01*
X392074Y44021D01*
X392781Y43791D01*
X393498Y43487D01*
X394226Y43104D01*
X394968Y42639D01*
X395721Y42088D01*
X396485Y41448D01*
X396888Y41067D01*
X421742Y16212D01*
X423317Y15004D01*
X424077Y14689D01*
X425152Y14244D01*
X427120Y13985D01*
X543320D01*
X545288Y14244D01*
X547122Y15004D01*
X548698Y16212D01*
X570751Y38265D01*
X574303Y41564D01*
X575928Y42864D01*
X577389Y43880D01*
X578211Y44350D01*
X582696D01*
X582793Y44331D01*
X582890Y44350D01*
X595160D01*
Y73430D01*
X566080D01*
Y61160D01*
X566061Y61063D01*
X566080Y60966D01*
Y56481D01*
X565610Y55659D01*
X564614Y54227D01*
X561637Y50709D01*
X560337Y49362D01*
X540170Y29195D01*
X430270D01*
X407642Y51823D01*
X407262Y52225D01*
X406622Y52989D01*
X406071Y53742D01*
X405606Y54483D01*
X405223Y55212D01*
X404919Y55929D01*
X404689Y56636D01*
X404530Y57337D01*
X404438Y58038D01*
X404424Y58421D01*
X404486Y58890D01*
X403986Y62686D01*
X402521Y66223D01*
X400190Y69260D01*
X399815Y69548D01*
X399554Y69829D01*
X399124Y70389D01*
X398740Y70998D01*
X398403Y71660D01*
X398111Y72383D01*
X397866Y73168D01*
X397671Y74021D01*
X397528Y74944D01*
X397441Y75937D01*
X397425Y76489D01*
Y220452D01*
X397603Y223141D01*
X397660Y223481D01*
X397724Y223759D01*
X397752Y223845D01*
X397753Y223847D01*
X397773Y223891D01*
X399063Y225572D01*
X400176Y228258D01*
X400555Y231140D01*
X400176Y234022D01*
X399063Y236708D01*
X397773Y238389D01*
X397753Y238433D01*
X397752Y238435D01*
X397724Y238521D01*
X397660Y238799D01*
X397603Y239139D01*
X397425Y241828D01*
Y309830D01*
X411737Y324142D01*
X412814Y323423D01*
X412498Y322661D01*
X412153Y320040D01*
X412498Y317419D01*
X413510Y314977D01*
X415119Y312879D01*
X417217Y311270D01*
X419659Y310258D01*
X422280Y309913D01*
X424901Y310258D01*
X425663Y310574D01*
X426382Y309497D01*
X423065Y306181D01*
X421673Y304852D01*
X421445Y304657D01*
X419659Y304422D01*
X417217Y303410D01*
X415119Y301801D01*
X413510Y299703D01*
X412498Y297261D01*
X412153Y294640D01*
X412498Y292019D01*
X413510Y289577D01*
X414488Y288302D01*
X414675Y284771D01*
Y166430D01*
X414934Y164462D01*
X415694Y162628D01*
X416902Y161052D01*
X511998Y65957D01*
X512378Y65555D01*
X513018Y64791D01*
X513569Y64038D01*
X514034Y63296D01*
X514417Y62568D01*
X514721Y61851D01*
X514951Y61144D01*
X515110Y60443D01*
X515202Y59742D01*
X515216Y59359D01*
X515154Y58890D01*
X515654Y55094D01*
X517119Y51557D01*
X519450Y48520D01*
X522487Y46189D01*
X526024Y44724D01*
X529820Y44225D01*
X533616Y44724D01*
X537153Y46189D01*
X540190Y48520D01*
X542521Y51557D01*
X543986Y55094D01*
X544486Y58890D01*
X543986Y62686D01*
X542521Y66223D01*
X540190Y69260D01*
X537153Y71591D01*
X533616Y73056D01*
X529820Y73555D01*
X529351Y73494D01*
X528968Y73508D01*
X528267Y73600D01*
X527566Y73759D01*
X526859Y73989D01*
X526142Y74293D01*
X525414Y74676D01*
X524672Y75141D01*
X523919Y75692D01*
X523155Y76332D01*
X522753Y76712D01*
X429885Y169580D01*
Y285924D01*
X429930Y287848D01*
X429953Y288147D01*
X431050Y289577D01*
X432062Y292019D01*
X432271Y293612D01*
X434636Y296241D01*
X465118Y326722D01*
X466326Y328298D01*
X467086Y330132D01*
X467345Y332100D01*
Y542480D01*
X493982Y569117D01*
X494699Y569804D01*
X495731Y570691D01*
X496122Y570989D01*
X496454Y571215D01*
X496663Y571337D01*
X499452Y571704D01*
X502138Y572817D01*
X504444Y574586D01*
X506213Y576892D01*
X507326Y579578D01*
X507705Y582460D01*
X507326Y585342D01*
X506213Y588028D01*
X504444Y590334D01*
X502138Y592103D01*
X499452Y593216D01*
X496570Y593595D01*
D02*
G37*
G36*
X263710Y328624D02*
X263202Y328413D01*
X260896Y326644D01*
X259127Y324338D01*
X258014Y321652D01*
X257802Y320040D01*
X267500D01*
Y324840D01*
X262820D01*
X263001Y325067D01*
X263162Y325374D01*
X263305Y325763D01*
X263428Y326232D01*
X263533Y326782D01*
X263618Y327412D01*
X263710Y328624D01*
D02*
G37*
G36*
X279738Y317500D02*
X270040D01*
Y307802D01*
X271652Y308014D01*
X274338Y309127D01*
X276644Y310896D01*
X278413Y313202D01*
X279526Y315888D01*
X279738Y317500D01*
D02*
G37*
G36*
X502280Y330167D02*
X499659Y329822D01*
X497217Y328810D01*
X495119Y327201D01*
X493510Y325103D01*
X492498Y322661D01*
X492153Y320040D01*
X492498Y317419D01*
X493510Y314977D01*
X495119Y312879D01*
X497217Y311270D01*
X499659Y310258D01*
X502280Y309913D01*
X504901Y310258D01*
X507343Y311270D01*
X508619Y312248D01*
X512148Y312435D01*
X564540D01*
X571310Y305665D01*
X570591Y304588D01*
X570572Y304596D01*
X567690Y304975D01*
X564808Y304596D01*
X562122Y303483D01*
X560916Y302558D01*
X560911Y302556D01*
X560865Y302538D01*
X560737Y302502D01*
X560538Y302463D01*
X557369Y302245D01*
X510996D01*
X509072Y302290D01*
X508773Y302313D01*
X507343Y303410D01*
X504901Y304422D01*
X502280Y304767D01*
X499659Y304422D01*
X497217Y303410D01*
X495119Y301801D01*
X493510Y299703D01*
X492498Y297261D01*
X492153Y294640D01*
X492498Y292019D01*
X493510Y289577D01*
X495119Y287479D01*
X497217Y285870D01*
X499659Y284858D01*
X502280Y284513D01*
X504901Y284858D01*
X507343Y285870D01*
X508619Y286849D01*
X512148Y287035D01*
X555772D01*
X556868Y287007D01*
X558189Y286885D01*
X558645Y286810D01*
X559009Y286726D01*
X559240Y286652D01*
X559276Y286636D01*
X559289Y286624D01*
X559334Y286595D01*
X559816Y285966D01*
X562122Y284197D01*
X564808Y283084D01*
X567597Y282717D01*
X567806Y282595D01*
X568074Y282412D01*
X570120Y280655D01*
X608345Y242430D01*
Y237974D01*
X608322Y236897D01*
X608213Y235340D01*
X608039Y234021D01*
X607810Y232952D01*
X607550Y232149D01*
X607295Y231624D01*
X607103Y231364D01*
X607024Y231298D01*
X606664Y231250D01*
X604410D01*
Y228776D01*
X604391Y228680D01*
X604410Y228583D01*
Y208170D01*
X627490D01*
Y228583D01*
X627509Y228680D01*
X627490Y228776D01*
Y231250D01*
X625236D01*
X624876Y231298D01*
X624797Y231364D01*
X624605Y231624D01*
X624350Y232149D01*
X624090Y232952D01*
X623870Y233979D01*
X623577Y236935D01*
X623555Y237974D01*
Y245580D01*
X623296Y247548D01*
X622536Y249382D01*
X621328Y250958D01*
X581033Y291252D01*
X580345Y291969D01*
X579459Y293001D01*
X579161Y293392D01*
X578935Y293724D01*
X578813Y293933D01*
X578446Y296722D01*
X578438Y296741D01*
X579515Y297460D01*
X792352Y84622D01*
X793928Y83414D01*
X794687Y83099D01*
X795762Y82654D01*
X797506Y82424D01*
X797529Y82418D01*
X797592Y82413D01*
X797730Y82395D01*
X797825D01*
X798772Y82321D01*
X800052Y82052D01*
X801520Y81586D01*
X805236Y79928D01*
X807269Y78816D01*
X814724Y73959D01*
X817520Y71911D01*
X817617Y71865D01*
X818467Y71168D01*
X822383Y69075D01*
X826631Y67786D01*
X831050Y67351D01*
X979150D01*
X983569Y67786D01*
X987817Y69075D01*
X991733Y71168D01*
X995165Y73985D01*
X997982Y77417D01*
X1000075Y81333D01*
X1001364Y85581D01*
X1001799Y90000D01*
X1001364Y94419D01*
X1000075Y98667D01*
X997982Y102583D01*
X995165Y106015D01*
X991733Y108832D01*
X987817Y110925D01*
X983569Y112214D01*
X979150Y112649D01*
X831050D01*
X826631Y112214D01*
X822383Y110925D01*
X818467Y108832D01*
X817632Y108147D01*
X817545Y108108D01*
X812044Y104180D01*
X809617Y102599D01*
X805176Y100041D01*
X803283Y99128D01*
X801561Y98427D01*
X800421Y98065D01*
X607576Y290909D01*
X608415Y291866D01*
X608715Y291636D01*
X610382Y290357D01*
X613068Y289244D01*
X614680Y289032D01*
Y298730D01*
X608838D01*
X608054Y296854D01*
X606008Y298730D01*
X604982D01*
X605194Y297118D01*
X606307Y294432D01*
X607586Y292765D01*
X607816Y292465D01*
X606859Y291626D01*
X573068Y325418D01*
X571493Y326626D01*
X569658Y327386D01*
X567690Y327645D01*
X510996D01*
X509072Y327690D01*
X508773Y327713D01*
X507343Y328810D01*
X504901Y329822D01*
X502280Y330167D01*
D02*
G37*
G36*
X267500Y317500D02*
X257802D01*
X258014Y315888D01*
X259127Y313202D01*
X260896Y310896D01*
X263202Y309127D01*
X265888Y308014D01*
X267500Y307802D01*
Y317500D01*
D02*
G37*
G36*
X555328Y728980D02*
X545630D01*
Y724180D01*
X550310D01*
X550130Y723953D01*
X549968Y723646D01*
X549826Y723257D01*
X549702Y722788D01*
X549598Y722238D01*
X549512Y721608D01*
X549420Y720396D01*
X549928Y720607D01*
X552234Y722376D01*
X554003Y724682D01*
X555116Y727368D01*
X555328Y728980D01*
D02*
G37*
G36*
X543090D02*
X533392D01*
X533604Y727368D01*
X534717Y724682D01*
X536486Y722376D01*
X538792Y720607D01*
X539261Y720413D01*
X539123Y722238D01*
X539018Y722788D01*
X538895Y723257D01*
X538752Y723646D01*
X538591Y723953D01*
X538410Y724180D01*
X543090D01*
Y728980D01*
D02*
G37*
G36*
X782320Y728048D02*
Y718350D01*
X792018D01*
X791806Y719962D01*
X790693Y722648D01*
X788924Y724954D01*
X786618Y726723D01*
X783932Y727836D01*
X782320Y728048D01*
D02*
G37*
G36*
X792018Y715810D02*
X789495D01*
X789495Y715780D01*
X789571Y715422D01*
X789720Y715024D01*
X789942Y714586D01*
X790238Y714107D01*
X790608Y713588D01*
X791238Y712828D01*
X791806Y714198D01*
X792018Y715810D01*
D02*
G37*
G36*
X770229Y719466D02*
X770082Y718350D01*
X771208D01*
X770229Y719466D01*
D02*
G37*
G36*
X779780Y728048D02*
X778168Y727836D01*
X776798Y727268D01*
X777559Y726638D01*
X778077Y726268D01*
X778556Y725973D01*
X778994Y725750D01*
X779392Y725601D01*
X779750Y725525D01*
X779780Y725525D01*
Y728048D01*
D02*
G37*
G36*
X545630Y741218D02*
Y739170D01*
X545859Y739304D01*
X546322Y739619D01*
X546828Y740004D01*
X547749Y740796D01*
X547242Y741006D01*
X545630Y741218D01*
D02*
G37*
G36*
X703580Y768820D02*
X693882D01*
X694094Y767208D01*
X695207Y764522D01*
X696976Y762216D01*
X699282Y760447D01*
X701968Y759334D01*
X703580Y759122D01*
Y768820D01*
D02*
G37*
G36*
X554922Y733600D02*
X553729Y732212D01*
X553414Y731749D01*
X553280Y731520D01*
X555328D01*
X555116Y733132D01*
X554922Y733600D01*
D02*
G37*
G36*
X543090Y741218D02*
X541478Y741006D01*
X538792Y739893D01*
X536486Y738124D01*
X534717Y735818D01*
X533604Y733132D01*
X533392Y731520D01*
X543090D01*
Y741218D01*
D02*
G37*
G36*
X545630Y737565D02*
Y731520D01*
X551675D01*
X545630Y737565D01*
D02*
G37*
G36*
X782320Y707238D02*
Y706112D01*
X783436Y706259D01*
X782320Y707238D01*
D02*
G37*
G36*
X360680Y697700D02*
X350982D01*
X351194Y696088D01*
X352307Y693402D01*
X354076Y691096D01*
X356382Y689327D01*
X359068Y688214D01*
X360680Y688002D01*
Y697700D01*
D02*
G37*
G36*
X368020D02*
X363220D01*
Y688002D01*
X364832Y688214D01*
X367518Y689327D01*
X369824Y691096D01*
X371593Y693402D01*
X371787Y693871D01*
X369962Y693733D01*
X369412Y693628D01*
X368943Y693504D01*
X368554Y693362D01*
X368247Y693201D01*
X368020Y693020D01*
Y697700D01*
D02*
G37*
G36*
X497840Y693428D02*
Y683730D01*
X502640D01*
Y688410D01*
X502867Y688230D01*
X503174Y688068D01*
X503563Y687925D01*
X504032Y687802D01*
X504582Y687698D01*
X505213Y687612D01*
X506424Y687520D01*
X506213Y688028D01*
X504444Y690334D01*
X502138Y692103D01*
X499452Y693216D01*
X497840Y693428D01*
D02*
G37*
G36*
X245110Y693890D02*
X235412D01*
X235624Y692278D01*
X236737Y689592D01*
X238506Y687286D01*
X240812Y685517D01*
X243498Y684404D01*
X245110Y684192D01*
Y693890D01*
D02*
G37*
G36*
X257348D02*
X247650D01*
Y684192D01*
X249262Y684404D01*
X251948Y685517D01*
X254254Y687286D01*
X256023Y689592D01*
X257136Y692278D01*
X257348Y693890D01*
D02*
G37*
G36*
X979150Y724666D02*
X975354Y724166D01*
X971817Y722701D01*
X968780Y720370D01*
X966449Y717333D01*
X964984Y713796D01*
X964484Y710000D01*
X964984Y706204D01*
X966449Y702667D01*
X968780Y699630D01*
X971817Y697299D01*
X975354Y695834D01*
X979150Y695334D01*
X982946Y695834D01*
X986483Y697299D01*
X989520Y699630D01*
X991851Y702667D01*
X993316Y706204D01*
X993816Y710000D01*
X993316Y713796D01*
X991851Y717333D01*
X989520Y720370D01*
X986483Y722701D01*
X982946Y724166D01*
X979150Y724666D01*
D02*
G37*
G36*
X363220Y709938D02*
Y700240D01*
X368020D01*
Y704920D01*
X368247Y704740D01*
X368554Y704578D01*
X368943Y704436D01*
X369412Y704312D01*
X369962Y704208D01*
X370592Y704122D01*
X371804Y704030D01*
X371593Y704538D01*
X369824Y706844D01*
X367518Y708613D01*
X364832Y709726D01*
X363220Y709938D01*
D02*
G37*
G36*
X779780Y715810D02*
X770082D01*
X770294Y714198D01*
X771407Y711512D01*
X773176Y709206D01*
X775482Y707437D01*
X778168Y706324D01*
X779780Y706112D01*
Y715810D01*
D02*
G37*
G36*
X360680Y709938D02*
X359068Y709726D01*
X356382Y708613D01*
X354076Y706844D01*
X352307Y704538D01*
X351194Y701852D01*
X350982Y700240D01*
X360680D01*
Y709938D01*
D02*
G37*
G36*
X245110Y706128D02*
X243498Y705916D01*
X240812Y704803D01*
X238506Y703034D01*
X236737Y700728D01*
X235624Y698042D01*
X235412Y696430D01*
X245110D01*
Y706128D01*
D02*
G37*
G36*
X247650D02*
Y696430D01*
X257348D01*
X257136Y698042D01*
X256023Y700728D01*
X254254Y703034D01*
X251948Y704803D01*
X249262Y705916D01*
X247650Y706128D01*
D02*
G37*
G36*
X710920Y768820D02*
X706120D01*
Y759122D01*
X707732Y759334D01*
X710418Y760447D01*
X712724Y762216D01*
X714493Y764522D01*
X714688Y764991D01*
X712862Y764853D01*
X712312Y764748D01*
X711843Y764624D01*
X711454Y764482D01*
X711147Y764321D01*
X710920Y764140D01*
Y768820D01*
D02*
G37*
G36*
X561340Y822960D02*
X548070D01*
Y809690D01*
X556389D01*
X556360Y809761D01*
X555810Y810660D01*
X555160Y811360D01*
X554410Y811861D01*
X553560Y812160D01*
X552610Y812261D01*
X561340D01*
Y822960D01*
D02*
G37*
G36*
X577150D02*
X563880D01*
Y812261D01*
X572610D01*
X571660Y812160D01*
X570810Y811861D01*
X570060Y811360D01*
X569410Y810660D01*
X568860Y809761D01*
X568831Y809690D01*
X577150D01*
Y822960D01*
D02*
G37*
G36*
X993690Y824540D02*
X964610D01*
Y795460D01*
X993690D01*
Y824540D01*
D02*
G37*
G36*
X176530Y786468D02*
X174918Y786256D01*
X172232Y785143D01*
X169926Y783374D01*
X168157Y781068D01*
X167044Y778382D01*
X166832Y776770D01*
X176530D01*
Y786468D01*
D02*
G37*
G36*
X179070D02*
Y776770D01*
X188768D01*
X188556Y778382D01*
X187443Y781068D01*
X185674Y783374D01*
X183368Y785143D01*
X180682Y786256D01*
X179070Y786468D01*
D02*
G37*
G36*
X561340Y838770D02*
X548070D01*
Y825500D01*
X561340D01*
Y838770D01*
D02*
G37*
G36*
X53340Y874288D02*
X50814Y873956D01*
X47277Y872491D01*
X44240Y870160D01*
X41909Y867123D01*
X40444Y863586D01*
X40112Y861060D01*
X53340D01*
Y874288D01*
D02*
G37*
G36*
X55880D02*
Y861060D01*
X69108D01*
X68776Y863586D01*
X67311Y867123D01*
X64980Y870160D01*
X61943Y872491D01*
X58406Y873956D01*
X55880Y874288D01*
D02*
G37*
G36*
X69108Y858520D02*
X55880D01*
Y845292D01*
X58406Y845624D01*
X61943Y847089D01*
X64980Y849420D01*
X67311Y852457D01*
X68776Y855994D01*
X69108Y858520D01*
D02*
G37*
G36*
X577150Y838770D02*
X563880D01*
Y825500D01*
X577150D01*
Y838770D01*
D02*
G37*
G36*
X53340Y858520D02*
X40112D01*
X40444Y855994D01*
X41909Y852457D01*
X44240Y849420D01*
X47277Y847089D01*
X50814Y845624D01*
X53340Y845292D01*
Y858520D01*
D02*
G37*
G36*
X435610Y785198D02*
Y775500D01*
X445308D01*
X445096Y777112D01*
X443983Y779798D01*
X442214Y782104D01*
X439908Y783873D01*
X437222Y784986D01*
X435610Y785198D01*
D02*
G37*
G36*
X445308Y772960D02*
X435610D01*
Y763262D01*
X437222Y763474D01*
X439908Y764587D01*
X442214Y766356D01*
X443983Y768662D01*
X445096Y771348D01*
X445308Y772960D01*
D02*
G37*
G36*
X176530Y774230D02*
X166832D01*
X167044Y772618D01*
X168157Y769932D01*
X169926Y767626D01*
X172232Y765857D01*
X174918Y764744D01*
X176530Y764532D01*
Y774230D01*
D02*
G37*
G36*
X433070Y772960D02*
X423372D01*
X423584Y771348D01*
X424697Y768662D01*
X426466Y766356D01*
X428772Y764587D01*
X431458Y763474D01*
X433070Y763262D01*
Y772960D01*
D02*
G37*
G36*
X267970Y771690D02*
X258272D01*
X258484Y770078D01*
X259597Y767392D01*
X261366Y765086D01*
X263672Y763317D01*
X266358Y762204D01*
X267970Y761992D01*
Y771690D01*
D02*
G37*
G36*
X280208D02*
X270510D01*
Y761992D01*
X272122Y762204D01*
X274808Y763317D01*
X277114Y765086D01*
X278883Y767392D01*
X279996Y770078D01*
X280208Y771690D01*
D02*
G37*
G36*
X188768Y774230D02*
X179070D01*
Y764532D01*
X180682Y764744D01*
X183368Y765857D01*
X185674Y767626D01*
X187443Y769932D01*
X188556Y772618D01*
X188768Y774230D01*
D02*
G37*
G36*
X706120Y781058D02*
Y771360D01*
X710920D01*
Y776040D01*
X711147Y775860D01*
X711454Y775698D01*
X711843Y775555D01*
X712312Y775432D01*
X712862Y775328D01*
X713493Y775242D01*
X714704Y775150D01*
X714493Y775658D01*
X712724Y777964D01*
X710418Y779733D01*
X707732Y780846D01*
X706120Y781058D01*
D02*
G37*
G36*
X433070Y785198D02*
X431458Y784986D01*
X428772Y783873D01*
X426466Y782104D01*
X424697Y779798D01*
X423584Y777112D01*
X423372Y775500D01*
X433070D01*
Y785198D01*
D02*
G37*
G36*
X270510Y783928D02*
Y774230D01*
X280208D01*
X279996Y775842D01*
X278883Y778528D01*
X277114Y780834D01*
X274808Y782603D01*
X272122Y783716D01*
X270510Y783928D01*
D02*
G37*
G36*
X703580Y781058D02*
X701968Y780846D01*
X699282Y779733D01*
X696976Y777964D01*
X695207Y775658D01*
X694094Y772972D01*
X693882Y771360D01*
X703580D01*
Y781058D01*
D02*
G37*
G36*
X267970Y783928D02*
X266358Y783716D01*
X263672Y782603D01*
X261366Y780834D01*
X259597Y778528D01*
X258484Y775842D01*
X258272Y774230D01*
X267970D01*
Y783928D01*
D02*
G37*
G36*
X495300Y693428D02*
X493688Y693216D01*
X491002Y692103D01*
X488696Y690334D01*
X486927Y688028D01*
X485814Y685342D01*
X485602Y683730D01*
X495300D01*
Y693428D01*
D02*
G37*
G36*
X421640Y675805D02*
X415595Y669760D01*
X421640D01*
Y675805D01*
D02*
G37*
G36*
X847898Y658660D02*
X838200D01*
Y648962D01*
X839812Y649174D01*
X842498Y650287D01*
X844804Y652056D01*
X846573Y654362D01*
X847686Y657048D01*
X847898Y658660D01*
D02*
G37*
G36*
X421640Y667220D02*
X411942D01*
X412154Y665608D01*
X413267Y662922D01*
X415036Y660616D01*
X417342Y658847D01*
X420028Y657734D01*
X421640Y657522D01*
Y667220D01*
D02*
G37*
G36*
X412364Y671879D02*
X412154Y671372D01*
X411942Y669760D01*
X413990D01*
X413856Y669989D01*
X413541Y670452D01*
X413156Y670958D01*
X412364Y671879D01*
D02*
G37*
G36*
X835660Y658660D02*
X825962D01*
X826174Y657048D01*
X827287Y654362D01*
X829056Y652056D01*
X831362Y650287D01*
X834048Y649174D01*
X835660Y648962D01*
Y658660D01*
D02*
G37*
G36*
X539300Y679144D02*
X538792Y678933D01*
X536486Y677164D01*
X534717Y674858D01*
X533604Y672172D01*
X533392Y670560D01*
X543090D01*
Y675360D01*
X538410D01*
X538591Y675587D01*
X538752Y675894D01*
X538895Y676283D01*
X539018Y676752D01*
X539123Y677302D01*
X539208Y677933D01*
X539300Y679144D01*
D02*
G37*
G36*
X549459Y679128D02*
X549598Y677302D01*
X549702Y676752D01*
X549826Y676283D01*
X549968Y675894D01*
X550130Y675587D01*
X550310Y675360D01*
X545630D01*
Y670560D01*
X555328D01*
X555116Y672172D01*
X554003Y674858D01*
X552234Y677164D01*
X549928Y678933D01*
X549459Y679128D01*
D02*
G37*
G36*
X658660Y633268D02*
Y623570D01*
X668358D01*
X668146Y625182D01*
X667033Y627868D01*
X665264Y630174D01*
X662958Y631943D01*
X660272Y633056D01*
X658660Y633268D01*
D02*
G37*
G36*
X656120D02*
X654508Y633056D01*
X651822Y631943D01*
X649516Y630174D01*
X647747Y627868D01*
X647552Y627399D01*
X649378Y627537D01*
X649928Y627642D01*
X650397Y627766D01*
X650786Y627908D01*
X651093Y628069D01*
X651320Y628250D01*
Y623570D01*
X656120D01*
Y633268D01*
D02*
G37*
G36*
X555328Y668020D02*
X553280D01*
X553414Y667791D01*
X553729Y667328D01*
X554114Y666822D01*
X554906Y665901D01*
X555116Y666408D01*
X555328Y668020D01*
D02*
G37*
G36*
X835660Y667245D02*
X829615Y661200D01*
X835660D01*
Y667245D01*
D02*
G37*
G36*
X838200Y670898D02*
Y661200D01*
X847898D01*
X847686Y662812D01*
X846573Y665498D01*
X844804Y667804D01*
X842498Y669573D01*
X839812Y670686D01*
X838200Y670898D01*
D02*
G37*
G36*
X551675Y668020D02*
X545630D01*
Y661975D01*
X551675Y668020D01*
D02*
G37*
G36*
X826384Y663319D02*
X826174Y662812D01*
X825962Y661200D01*
X828010D01*
X827876Y661429D01*
X827561Y661892D01*
X827176Y662398D01*
X826384Y663319D01*
D02*
G37*
G36*
X428980Y667220D02*
X424180D01*
Y657522D01*
X425792Y657734D01*
X428478Y658847D01*
X430784Y660616D01*
X432553Y662922D01*
X432747Y663391D01*
X430922Y663252D01*
X430372Y663148D01*
X429903Y663025D01*
X429514Y662882D01*
X429207Y662720D01*
X428980Y662540D01*
Y667220D01*
D02*
G37*
G36*
X835660Y670898D02*
X834048Y670686D01*
X833579Y670492D01*
X834968Y669299D01*
X835431Y668984D01*
X835660Y668850D01*
Y670898D01*
D02*
G37*
G36*
X545630Y660370D02*
Y658322D01*
X547242Y658534D01*
X547710Y658728D01*
X546322Y659921D01*
X545859Y660236D01*
X545630Y660370D01*
D02*
G37*
G36*
X543090Y668020D02*
X533392D01*
X533604Y666408D01*
X534717Y663722D01*
X536486Y661416D01*
X538792Y659647D01*
X541478Y658534D01*
X543090Y658322D01*
Y668020D01*
D02*
G37*
G36*
X668358Y621030D02*
X666310D01*
X666444Y620801D01*
X666759Y620338D01*
X667144Y619832D01*
X667936Y618911D01*
X668146Y619418D01*
X668358Y621030D01*
D02*
G37*
G36*
X658660Y613380D02*
Y611332D01*
X660272Y611544D01*
X660741Y611738D01*
X659352Y612931D01*
X658889Y613246D01*
X658660Y613380D01*
D02*
G37*
G36*
X424180Y679458D02*
Y669760D01*
X428980D01*
Y674440D01*
X429207Y674259D01*
X429514Y674098D01*
X429903Y673956D01*
X430372Y673832D01*
X430922Y673727D01*
X431553Y673642D01*
X432764Y673550D01*
X432553Y674058D01*
X430784Y676364D01*
X428478Y678133D01*
X425792Y679246D01*
X424180Y679458D01*
D02*
G37*
G36*
X495300Y681190D02*
X489255D01*
X495300Y675145D01*
Y681190D01*
D02*
G37*
G36*
X487650D02*
X485602D01*
X485814Y679578D01*
X486008Y679109D01*
X487201Y680498D01*
X487516Y680961D01*
X487650Y681190D01*
D02*
G37*
G36*
X421640Y679458D02*
X420028Y679246D01*
X419560Y679052D01*
X420948Y677859D01*
X421411Y677544D01*
X421640Y677410D01*
Y679458D01*
D02*
G37*
G36*
X495300Y673540D02*
X495071Y673406D01*
X494608Y673091D01*
X494102Y672706D01*
X493181Y671914D01*
X493688Y671704D01*
X495300Y671492D01*
Y673540D01*
D02*
G37*
G36*
X502640Y681190D02*
X497840D01*
Y671492D01*
X499452Y671704D01*
X502138Y672817D01*
X504444Y674586D01*
X506213Y676892D01*
X506408Y677361D01*
X504582Y677223D01*
X504032Y677118D01*
X503563Y676994D01*
X503174Y676852D01*
X502867Y676691D01*
X502640Y676510D01*
Y681190D01*
D02*
G37*
G36*
X656120Y621030D02*
X651320D01*
Y616350D01*
X651093Y616530D01*
X650786Y616692D01*
X650397Y616834D01*
X649928Y616958D01*
X649378Y617062D01*
X648747Y617148D01*
X647536Y617240D01*
X647747Y616732D01*
X649516Y614426D01*
X651822Y612657D01*
X654508Y611544D01*
X656120Y611332D01*
Y621030D01*
D02*
G37*
G36*
X664705D02*
X658660D01*
Y614985D01*
X664705Y621030D01*
D02*
G37*
%LPD*%
G36*
X621720Y462333D02*
X621558Y462026D01*
X621415Y461637D01*
X621292Y461168D01*
X621188Y460618D01*
X621102Y459987D01*
X620988Y458484D01*
X620950Y456656D01*
X610950D01*
X610941Y457610D01*
X610713Y460618D01*
X610608Y461168D01*
X610485Y461637D01*
X610342Y462026D01*
X610181Y462333D01*
X610000Y462560D01*
X621900D01*
X621720Y462333D01*
D02*
G37*
G36*
X620950Y421640D02*
X614506Y411974D01*
X620950D01*
X620960Y411020D01*
X621188Y408012D01*
X621292Y407462D01*
X621415Y406993D01*
X621558Y406604D01*
X621720Y406297D01*
X621900Y406070D01*
X610000D01*
X610181Y406297D01*
X610342Y406604D01*
X610485Y406993D01*
X610608Y407462D01*
X610713Y408012D01*
X610798Y408643D01*
X610808Y408777D01*
X610550Y410240D01*
X610050Y411740D01*
X609350Y413040D01*
X608450Y414140D01*
X607350Y415040D01*
X606050Y415740D01*
X604550Y416240D01*
X602850Y416540D01*
X600950Y416640D01*
Y426640D01*
X602850Y426740D01*
X604550Y427040D01*
X606050Y427540D01*
X607350Y428240D01*
X608450Y429140D01*
X609350Y430240D01*
X610050Y431540D01*
X610550Y433040D01*
X610850Y434740D01*
X610950Y436640D01*
X620950Y421640D01*
D02*
G37*
G36*
X507728Y426842D02*
X507904Y426800D01*
X508165Y426763D01*
X508942Y426702D01*
X511515Y426642D01*
X512370Y426640D01*
Y416640D01*
X507636Y416390D01*
Y426890D01*
X507728Y426842D01*
D02*
G37*
G36*
Y452243D02*
X507904Y452200D01*
X508165Y452163D01*
X508942Y452103D01*
X511515Y452043D01*
X512370Y452040D01*
Y442040D01*
X507636Y441790D01*
Y452290D01*
X507728Y452243D01*
D02*
G37*
G36*
X558148Y441233D02*
X557930Y441387D01*
X557631Y441524D01*
X557248Y441645D01*
X556784Y441750D01*
X556238Y441838D01*
X554899Y441967D01*
X553231Y442032D01*
X552274Y442040D01*
X551588Y452040D01*
X552539Y452051D01*
X554912Y452212D01*
X555543Y452309D01*
X556093Y452427D01*
X556563Y452567D01*
X556952Y452728D01*
X557261Y452911D01*
X557490Y453115D01*
X558148Y441233D01*
D02*
G37*
G36*
X416924Y441790D02*
X416833Y441838D01*
X416656Y441880D01*
X416395Y441917D01*
X415618Y441978D01*
X413045Y442038D01*
X412190Y442040D01*
Y452040D01*
X416924Y452290D01*
Y441790D01*
D02*
G37*
G36*
X373952Y436261D02*
X373284Y435580D01*
X371319Y433292D01*
X371004Y432829D01*
X370759Y432410D01*
X370585Y432034D01*
X370482Y431703D01*
X370450Y431415D01*
X362035Y439830D01*
X362323Y439862D01*
X362654Y439965D01*
X363030Y440139D01*
X363449Y440384D01*
X363912Y440699D01*
X364418Y441084D01*
X365562Y442067D01*
X366881Y443332D01*
X373952Y436261D01*
D02*
G37*
G36*
X322692Y522867D02*
X322795Y522536D01*
X322969Y522160D01*
X323214Y521741D01*
X323529Y521278D01*
X323914Y520772D01*
X324897Y519628D01*
X326162Y518309D01*
X319091Y511238D01*
X318410Y511906D01*
X316122Y513871D01*
X315659Y514186D01*
X315240Y514431D01*
X314865Y514605D01*
X314533Y514708D01*
X314245Y514740D01*
X322660Y523155D01*
X322692Y522867D01*
D02*
G37*
G36*
X416924Y467190D02*
X416833Y467238D01*
X416656Y467280D01*
X416395Y467318D01*
X415618Y467378D01*
X413045Y467438D01*
X412190Y467440D01*
Y477440D01*
X416924Y477690D01*
Y467190D01*
D02*
G37*
G36*
X321805Y378102D02*
X322090Y377993D01*
X322459Y377896D01*
X322913Y377812D01*
X324074Y377683D01*
X325573Y377606D01*
X327410Y377580D01*
X328798Y367580D01*
X327848Y367568D01*
X325481Y367391D01*
X324853Y367285D01*
X324306Y367154D01*
X323839Y367001D01*
X323452Y366823D01*
X323147Y366622D01*
X322921Y366398D01*
X321605Y378225D01*
X321805Y378102D01*
D02*
G37*
G36*
X422205Y414140D02*
X422107Y414109D01*
X421952Y414015D01*
X421741Y413857D01*
X421149Y413349D01*
X419287Y411573D01*
X418681Y410970D01*
X411610Y418041D01*
X414780Y421565D01*
X422205Y414140D01*
D02*
G37*
G36*
X563477Y466745D02*
X563270Y466877D01*
X562980Y466995D01*
X562606Y467099D01*
X562149Y467190D01*
X561608Y467266D01*
X560274Y467377D01*
X557646Y467440D01*
X556470Y477440D01*
X557421Y477452D01*
X559789Y477624D01*
X560418Y477728D01*
X560967Y477855D01*
X561435Y478005D01*
X561822Y478177D01*
X562130Y478373D01*
X562357Y478592D01*
X563477Y466745D01*
D02*
G37*
G36*
X620823Y510991D02*
X620084Y511590D01*
X619194Y511897D01*
X618155Y511914D01*
X616966Y511640D01*
X615627Y511076D01*
X614137Y510220D01*
X612498Y509073D01*
X610709Y507636D01*
X606680Y503889D01*
X600409Y511760D01*
X602356Y513778D01*
X605426Y517411D01*
X606548Y519026D01*
X607396Y520507D01*
X607969Y521854D01*
X608267Y523068D01*
X608289Y524147D01*
X608038Y525092D01*
X607511Y525903D01*
X620823Y510991D01*
D02*
G37*
G36*
X580962Y478171D02*
X580294Y477490D01*
X578329Y475202D01*
X578014Y474739D01*
X577769Y474320D01*
X577595Y473945D01*
X577492Y473613D01*
X577460Y473325D01*
X569045Y481740D01*
X569333Y481772D01*
X569664Y481875D01*
X570040Y482049D01*
X570459Y482294D01*
X570922Y482609D01*
X571428Y482994D01*
X572572Y483977D01*
X573891Y485242D01*
X580962Y478171D01*
D02*
G37*
G36*
X507728Y477643D02*
X507904Y477600D01*
X508165Y477562D01*
X508942Y477503D01*
X511515Y477443D01*
X512370Y477440D01*
Y467440D01*
X507636Y467190D01*
Y477690D01*
X507728Y477643D01*
D02*
G37*
G36*
X575257Y579010D02*
X575564Y578848D01*
X575953Y578705D01*
X576422Y578582D01*
X576972Y578478D01*
X577603Y578392D01*
X579106Y578278D01*
X580934Y578240D01*
Y568240D01*
X579980Y568231D01*
X576972Y568003D01*
X576422Y567898D01*
X575953Y567775D01*
X575564Y567632D01*
X575257Y567471D01*
X575030Y567290D01*
Y579190D01*
X575257Y579010D01*
D02*
G37*
G36*
X507728Y528442D02*
X507904Y528400D01*
X508165Y528363D01*
X508942Y528302D01*
X511515Y528242D01*
X512370Y528240D01*
Y518240D01*
X507636Y517990D01*
Y528490D01*
X507728Y528442D01*
D02*
G37*
G36*
X568875Y564740D02*
X568587Y564708D01*
X568256Y564605D01*
X567880Y564431D01*
X567461Y564186D01*
X566998Y563871D01*
X566492Y563486D01*
X565348Y562503D01*
X564029Y561238D01*
X556958Y568309D01*
X557626Y568990D01*
X559591Y571278D01*
X559906Y571741D01*
X560151Y572160D01*
X560325Y572536D01*
X560428Y572867D01*
X560460Y573155D01*
X568875Y564740D01*
D02*
G37*
G36*
X476022Y185271D02*
X475354Y184590D01*
X473389Y182302D01*
X473074Y181839D01*
X472829Y181420D01*
X472655Y181045D01*
X472552Y180713D01*
X472520Y180425D01*
X464105Y188840D01*
X464393Y188872D01*
X464725Y188975D01*
X465100Y189149D01*
X465519Y189394D01*
X465982Y189709D01*
X466488Y190094D01*
X467632Y191077D01*
X468951Y192342D01*
X476022Y185271D01*
D02*
G37*
G36*
X495190Y224843D02*
X495028Y224536D01*
X494885Y224147D01*
X494762Y223678D01*
X494658Y223128D01*
X494572Y222498D01*
X494458Y220993D01*
X494420Y219166D01*
X484420D01*
X484411Y220120D01*
X484183Y223128D01*
X484078Y223678D01*
X483955Y224147D01*
X483812Y224536D01*
X483651Y224843D01*
X483470Y225070D01*
X495370D01*
X495190Y224843D01*
D02*
G37*
G36*
X969234Y207058D02*
X972915Y203940D01*
X974542Y202806D01*
X976027Y201954D01*
X977370Y201386D01*
X978571Y201100D01*
X979631Y201097D01*
X980548Y201376D01*
X981323Y201939D01*
X967211Y187827D01*
X967774Y188602D01*
X968053Y189520D01*
X968050Y190579D01*
X967765Y191780D01*
X967196Y193123D01*
X966344Y194608D01*
X965210Y196236D01*
X963792Y198005D01*
X960109Y201970D01*
X967180Y209041D01*
X969234Y207058D01*
D02*
G37*
G36*
X507728Y401442D02*
X507904Y401400D01*
X508165Y401362D01*
X508942Y401302D01*
X511515Y401242D01*
X512370Y401240D01*
Y391240D01*
X507636Y390990D01*
Y401490D01*
X507728Y401442D01*
D02*
G37*
G36*
X335210Y142630D02*
X335438Y139622D01*
X335542Y139072D01*
X335666Y138603D01*
X335808Y138214D01*
X335970Y137907D01*
X336150Y137680D01*
X324250D01*
X324431Y137907D01*
X324592Y138214D01*
X324734Y138603D01*
X324858Y139072D01*
X324963Y139622D01*
X325048Y140253D01*
X325162Y141756D01*
X325200Y143584D01*
X335200D01*
X335210Y142630D01*
D02*
G37*
G36*
X363935Y171840D02*
X363647Y171808D01*
X363316Y171705D01*
X362940Y171531D01*
X362521Y171286D01*
X362058Y170971D01*
X361552Y170586D01*
X360408Y169603D01*
X359089Y168338D01*
X352018Y175409D01*
X352686Y176090D01*
X354651Y178378D01*
X354966Y178841D01*
X355211Y179260D01*
X355385Y179636D01*
X355488Y179967D01*
X355520Y180255D01*
X363935Y171840D01*
D02*
G37*
G36*
X496485Y573960D02*
X496197Y573928D01*
X495866Y573825D01*
X495490Y573651D01*
X495071Y573406D01*
X494608Y573091D01*
X494102Y572706D01*
X492958Y571723D01*
X491639Y570458D01*
X484568Y577529D01*
X485236Y578210D01*
X487201Y580498D01*
X487516Y580961D01*
X487761Y581380D01*
X487935Y581755D01*
X488038Y582087D01*
X488070Y582375D01*
X496485Y573960D01*
D02*
G37*
G36*
X582793Y46920D02*
X582015Y47486D01*
X581096Y47769D01*
X580035D01*
X578833Y47486D01*
X577489Y46920D01*
X576004Y46072D01*
X574378Y44941D01*
X572610Y43526D01*
X568651Y39849D01*
X561579Y46920D01*
X563559Y48971D01*
X566671Y52648D01*
X567802Y54274D01*
X568651Y55759D01*
X569216Y57103D01*
X569499Y58305D01*
Y59366D01*
X569216Y60285D01*
X568651Y61063D01*
X582793Y46920D01*
D02*
G37*
G36*
X401854Y57822D02*
X401978Y56881D01*
X402190Y55947D01*
X402491Y55021D01*
X402881Y54102D01*
X403359Y53191D01*
X403926Y52287D01*
X404582Y51391D01*
X405327Y50502D01*
X406160Y49621D01*
X399089Y42550D01*
X398208Y43383D01*
X397319Y44128D01*
X396423Y44784D01*
X395519Y45351D01*
X394608Y45829D01*
X393689Y46219D01*
X392763Y46520D01*
X391829Y46732D01*
X390888Y46856D01*
X389940Y46891D01*
X401819Y58770D01*
X401854Y57822D01*
D02*
G37*
G36*
X394854Y75786D02*
X394956Y74631D01*
X395126Y73534D01*
X395364Y72493D01*
X395670Y71511D01*
X396044Y70586D01*
X396486Y69718D01*
X396996Y68908D01*
X397574Y68155D01*
X398220Y67460D01*
X381420D01*
X382066Y68155D01*
X382644Y68908D01*
X383154Y69718D01*
X383596Y70586D01*
X383970Y71511D01*
X384276Y72493D01*
X384514Y73534D01*
X384684Y74631D01*
X384786Y75786D01*
X384820Y76999D01*
X394820D01*
X394854Y75786D01*
D02*
G37*
G36*
X521432Y74397D02*
X522321Y73652D01*
X523217Y72997D01*
X524121Y72429D01*
X525032Y71951D01*
X525951Y71561D01*
X526877Y71260D01*
X527811Y71048D01*
X528752Y70924D01*
X529700Y70889D01*
X517821Y59010D01*
X517786Y59958D01*
X517662Y60899D01*
X517450Y61833D01*
X517149Y62759D01*
X516759Y63678D01*
X516281Y64589D01*
X515714Y65493D01*
X515058Y66389D01*
X514313Y67278D01*
X513480Y68159D01*
X520551Y75230D01*
X521432Y74397D01*
D02*
G37*
G36*
X380876Y322365D02*
X380201Y321681D01*
X377856Y319031D01*
X377593Y318655D01*
X377399Y318331D01*
X377275Y318058D01*
X377219Y317836D01*
X369873Y327198D01*
X370192Y327196D01*
X370552Y327268D01*
X370952Y327413D01*
X371392Y327633D01*
X371871Y327926D01*
X372391Y328293D01*
X373551Y329250D01*
X374191Y329839D01*
X374871Y330502D01*
X380876Y322365D01*
D02*
G37*
G36*
X422205Y337940D02*
X422107Y337909D01*
X421952Y337815D01*
X421741Y337657D01*
X421149Y337150D01*
X419287Y335373D01*
X418681Y334770D01*
X411610Y341841D01*
X414780Y345365D01*
X422205Y337940D01*
D02*
G37*
G36*
Y363340D02*
X422107Y363309D01*
X421952Y363215D01*
X421741Y363056D01*
X421149Y362550D01*
X419287Y360773D01*
X418681Y360170D01*
X411610Y367241D01*
X414780Y370765D01*
X422205Y363340D01*
D02*
G37*
G36*
X336819Y237011D02*
X337128Y236828D01*
X337517Y236667D01*
X337987Y236527D01*
X338537Y236409D01*
X339168Y236312D01*
X340669Y236183D01*
X342492Y236140D01*
X341806Y226140D01*
X340849Y226132D01*
X337842Y225938D01*
X337296Y225850D01*
X336832Y225745D01*
X336450Y225624D01*
X336150Y225487D01*
X335932Y225333D01*
X336590Y237215D01*
X336819Y237011D01*
D02*
G37*
G36*
X383350Y225190D02*
X383123Y225371D01*
X382816Y225532D01*
X382427Y225674D01*
X381958Y225798D01*
X381408Y225903D01*
X380778Y225988D01*
X379273Y226102D01*
X377446Y226140D01*
Y236140D01*
X378400Y236150D01*
X381408Y236378D01*
X381958Y236482D01*
X382427Y236605D01*
X382816Y236748D01*
X383123Y236910D01*
X383350Y237090D01*
Y225190D01*
D02*
G37*
G36*
X394820Y242804D02*
X394828Y241848D01*
X395027Y238840D01*
X395118Y238293D01*
X395226Y237828D01*
X395351Y237444D01*
X395491Y237143D01*
X395649Y236924D01*
X389980Y231140D01*
X395649Y225357D01*
X395491Y225137D01*
X395351Y224835D01*
X395226Y224452D01*
X395118Y223987D01*
X395027Y223440D01*
X394828Y220432D01*
X394820Y219476D01*
X384820Y218892D01*
X384778Y220716D01*
X384651Y222218D01*
X384556Y222849D01*
X384439Y223399D01*
X384302Y223869D01*
X384143Y224258D01*
X383963Y224568D01*
X383762Y224797D01*
X389980Y231140D01*
X383762Y237484D01*
X383963Y237712D01*
X384143Y238022D01*
X384302Y238411D01*
X384439Y238881D01*
X384556Y239431D01*
X384651Y240062D01*
X384778Y241564D01*
X384820Y243388D01*
X394820Y242804D01*
D02*
G37*
G36*
X432950Y298239D02*
X429780Y294715D01*
X422355Y302140D01*
X422453Y302171D01*
X422608Y302265D01*
X422819Y302423D01*
X423411Y302931D01*
X425273Y304707D01*
X425879Y305310D01*
X432950Y298239D01*
D02*
G37*
G36*
X427482Y289193D02*
X427440Y289016D01*
X427402Y288755D01*
X427342Y287978D01*
X427282Y285405D01*
X427280Y284550D01*
X417280D01*
X417030Y289284D01*
X427530D01*
X427482Y289193D01*
D02*
G37*
G36*
X824980Y84050D02*
X824753Y84230D01*
X824446Y84392D01*
X824057Y84535D01*
X823588Y84658D01*
X823038Y84762D01*
X822408Y84848D01*
X820903Y84962D01*
X819076Y85000D01*
Y95000D01*
X820030Y95009D01*
X823038Y95238D01*
X823588Y95342D01*
X824057Y95465D01*
X824446Y95608D01*
X824753Y95770D01*
X824980Y95950D01*
Y84050D01*
D02*
G37*
G36*
X819050Y74000D02*
X816197Y76090D01*
X808599Y81040D01*
X806387Y82250D01*
X802443Y84010D01*
X800712Y84560D01*
X799141Y84890D01*
X797730Y85000D01*
Y95000D01*
X799141Y95110D01*
X800712Y95440D01*
X802443Y95990D01*
X804335Y96760D01*
X806387Y97750D01*
X810971Y100390D01*
X813504Y102040D01*
X819050Y106000D01*
Y74000D01*
D02*
G37*
G36*
X507728Y325243D02*
X507904Y325200D01*
X508165Y325163D01*
X508942Y325103D01*
X511515Y325042D01*
X512370Y325040D01*
Y315040D01*
X507636Y314790D01*
Y325290D01*
X507728Y325243D01*
D02*
G37*
G36*
X620990Y236779D02*
X621307Y233580D01*
X621585Y232279D01*
X621942Y231180D01*
X622379Y230280D01*
X622895Y229580D01*
X623490Y229079D01*
X624165Y228780D01*
X624920Y228680D01*
X606981D01*
X607735Y228780D01*
X608410Y229079D01*
X609005Y229580D01*
X609521Y230280D01*
X609958Y231180D01*
X610315Y232279D01*
X610593Y233580D01*
X610791Y235079D01*
X610910Y236779D01*
X610950Y238680D01*
X620950D01*
X620990Y236779D01*
D02*
G37*
G36*
X576222Y293467D02*
X576325Y293136D01*
X576499Y292760D01*
X576744Y292341D01*
X577059Y291878D01*
X577444Y291372D01*
X578427Y290228D01*
X579692Y288909D01*
X572621Y281838D01*
X571940Y282506D01*
X569652Y284471D01*
X569189Y284786D01*
X568770Y285031D01*
X568395Y285205D01*
X568063Y285308D01*
X567775Y285340D01*
X576190Y293755D01*
X576222Y293467D01*
D02*
G37*
G36*
X561087Y288488D02*
X560860Y288707D01*
X560552Y288902D01*
X560165Y289075D01*
X559697Y289225D01*
X559148Y289352D01*
X558519Y289456D01*
X557020Y289594D01*
X555200Y289640D01*
X556376Y299640D01*
X557336Y299647D01*
X560879Y299890D01*
X561336Y299981D01*
X561710Y300085D01*
X562000Y300203D01*
X562207Y300335D01*
X561087Y288488D01*
D02*
G37*
G36*
X507728Y299842D02*
X507904Y299800D01*
X508165Y299762D01*
X508942Y299702D01*
X511515Y299643D01*
X512370Y299640D01*
Y289640D01*
X507636Y289390D01*
Y299890D01*
X507728Y299842D01*
D02*
G37*
D10*
X228309Y62180D02*
G03*
X228309Y62180I-7279J0D01*
G01*
X238936Y62370D02*
G03*
X203580Y62304I-17656J-11843D01*
G01*
X203061Y62649D02*
G03*
X239597Y62813I18219J10961D01*
G01*
D12*
X191280Y42930D02*
X221230Y94480D01*
X251280Y42930D01*
X191280D02*
X251280D01*
D13*
X219710Y774230D02*
X246380Y747560D01*
Y695160D02*
Y747560D01*
X316230Y431800D02*
Y471640D01*
X268770Y318770D02*
Y384340D01*
X316230Y431800D01*
X265760Y471640D02*
X316230D01*
X214160Y523240D02*
X265760Y471640D01*
X214160Y523240D02*
Y662940D01*
X246380Y695160D01*
X177800Y774230D02*
X219710D01*
X482600Y668490D02*
X496570Y682460D01*
X422910Y668490D02*
X482600D01*
X392430Y698970D02*
X422910Y668490D01*
X361950Y698970D02*
X392430D01*
X341630Y619290D02*
Y873760D01*
X299720Y695160D02*
X341160D01*
X246380Y595160D02*
X299720D01*
Y566420D02*
Y595160D01*
Y566420D02*
X368300Y497840D01*
X422280D01*
X364960Y472440D02*
X422280D01*
X314160Y523240D02*
X364960Y472440D01*
X489420Y205740D02*
Y231140D01*
X464020Y180340D02*
X489420Y205740D01*
X330200Y146520D02*
X364020Y180340D01*
X330200Y131610D02*
Y146520D01*
X389820Y58890D02*
Y312980D01*
X330670Y231140D02*
X389420D01*
X369490Y318050D02*
X422280Y370840D01*
X373220Y372580D02*
X422280Y421640D01*
X320040Y372580D02*
X373220D01*
X361950Y431330D02*
X377660Y447040D01*
X422280D01*
X361950Y531330D02*
Y598970D01*
X341630Y619290D02*
X361950Y598970D01*
X391170D01*
X422280Y567860D01*
Y523240D02*
Y567860D01*
X544360Y669290D02*
Y730250D01*
X496570Y682460D02*
X543560D01*
X726770Y770090D02*
X836930Y659930D01*
X704850Y770090D02*
X726770D01*
X657390Y622300D02*
X684060Y595630D01*
Y551180D02*
Y595630D01*
X544360Y730250D02*
X562610Y748500D01*
Y824230D01*
X591350Y622300D02*
X657390D01*
X544360Y669290D02*
X591350Y622300D01*
X719320Y90000D02*
X731050D01*
X615480Y193840D02*
X719320Y90000D01*
X567690Y193840D02*
X615480D01*
X797730Y90000D02*
X831050D01*
X567690Y320040D02*
X797730Y90000D01*
X502280Y320040D02*
X567690D01*
X502280Y345440D02*
X565950D01*
X502280D02*
Y370840D01*
X565950Y345440D02*
X611390Y300000D01*
X615950D01*
X459740Y545630D02*
X496570Y582460D01*
X422280Y294640D02*
X459740Y332100D01*
Y545630D01*
X422280Y166430D02*
Y294640D01*
Y166430D02*
X529820Y58890D01*
X389820Y312980D02*
X422280Y345440D01*
X693420Y509270D02*
X910590D01*
X629450Y573240D02*
X693420Y509270D01*
X568960Y573240D02*
X629450D01*
X615950Y219710D02*
Y245580D01*
X567690Y293840D02*
X615950Y245580D01*
X566890Y294640D02*
X567690Y293840D01*
X502280Y294640D02*
X566890D01*
X822440Y346710D02*
X979150Y190000D01*
X631190Y346710D02*
X822440D01*
X581660Y396240D02*
X631190Y346710D01*
X502280Y396240D02*
X581660D01*
X615950Y400000D02*
Y468630D01*
X502280Y421640D02*
X615950D01*
X518960Y523240D02*
X568960Y573240D01*
X615150Y519430D02*
X615950D01*
X568960Y473240D02*
X615150Y519430D01*
X568160Y472440D02*
X568960Y473240D01*
X502280Y472440D02*
X568160D01*
X502280Y523240D02*
X518960D01*
X502280Y447040D02*
X563410D01*
X389820Y58890D02*
X427120Y21590D01*
X543320D01*
X580620Y58890D01*
D14*
X341630Y873760D02*
X724370D01*
X140970D02*
X341630D01*
X54610Y808990D02*
X76200D01*
X140970Y873760D01*
X613410Y761200D02*
Y824230D01*
Y761200D02*
X644360Y730250D01*
X645160Y729450D01*
Y670090D02*
Y729450D01*
Y670090D02*
X704850D01*
X709600D01*
X757390Y622300D01*
X784060Y595630D01*
Y551180D02*
Y595630D01*
X724370Y873760D02*
X781050Y817080D01*
Y815810D02*
Y817080D01*
Y815810D02*
X836930Y759930D01*
Y760000D02*
X979150D01*
X831050Y90000D02*
X979150D01*
D15*
X0Y0D02*
Y900000D01*
X1050000D01*
Y0D02*
Y900000D01*
X0Y0D02*
X1050000D01*
D16*
X502280Y523240D02*
D03*
Y497840D02*
D03*
Y472440D02*
D03*
Y447040D02*
D03*
X422280D02*
D03*
Y472440D02*
D03*
Y497840D02*
D03*
Y421640D02*
D03*
Y396240D02*
D03*
Y370840D02*
D03*
Y345440D02*
D03*
Y294640D02*
D03*
Y320040D02*
D03*
X502280Y345440D02*
D03*
Y370840D02*
D03*
Y396240D02*
D03*
Y421640D02*
D03*
Y320040D02*
D03*
Y294640D02*
D03*
D17*
X422280Y523240D02*
D03*
D18*
X54610Y808990D02*
D03*
X979150Y190000D02*
D03*
Y810000D02*
D03*
D19*
X54610Y859790D02*
D03*
X613410Y824230D02*
D03*
X529820Y58890D02*
D03*
X389820D02*
D03*
X979150Y90000D02*
D03*
Y140000D02*
D03*
Y710000D02*
D03*
Y760000D02*
D03*
D20*
X562610Y824230D02*
D03*
X580620Y58890D02*
D03*
X440620D02*
D03*
D21*
X330200Y131610D02*
D03*
Y231610D02*
D03*
X214160Y523240D02*
D03*
X314160D02*
D03*
X489420Y231140D02*
D03*
X389420D02*
D03*
X464020Y180340D02*
D03*
X364020D02*
D03*
X316230Y371640D02*
D03*
Y471640D02*
D03*
X368770Y318770D02*
D03*
X268770D02*
D03*
X563880Y447510D02*
D03*
Y347510D02*
D03*
X644360Y730250D02*
D03*
X544360D02*
D03*
X177800Y875500D02*
D03*
Y775500D02*
D03*
X269240Y872960D02*
D03*
Y772960D02*
D03*
X836930Y759930D02*
D03*
Y659930D02*
D03*
X434340Y874230D02*
D03*
Y774230D02*
D03*
X361950Y598970D02*
D03*
Y698970D02*
D03*
X422910Y568490D02*
D03*
Y668490D02*
D03*
X781050Y817080D02*
D03*
Y717080D02*
D03*
X361950Y531330D02*
D03*
Y431330D02*
D03*
X246380Y695160D02*
D03*
Y595160D02*
D03*
X299720D02*
D03*
Y695160D02*
D03*
X731050Y90000D02*
D03*
X831050D02*
D03*
X567690Y293840D02*
D03*
Y193840D02*
D03*
X568960Y473240D02*
D03*
Y573240D02*
D03*
X615950Y400000D02*
D03*
Y300000D02*
D03*
Y468630D02*
D03*
X757390Y622300D02*
D03*
X657390D02*
D03*
X496570Y582460D02*
D03*
Y682460D02*
D03*
X704850Y670090D02*
D03*
Y770090D02*
D03*
X644360Y669290D02*
D03*
X544360D02*
D03*
X784060Y551180D02*
D03*
X684060D02*
D03*
D22*
X615950Y519430D02*
D03*
D23*
Y194310D02*
D03*
D24*
Y219710D02*
D03*
D25*
X910590Y509270D02*
D03*
M02*
