M48
;Layer_Color=9474304
;FILE_FORMAT=4:4
METRIC,LZ
;TYPE=PLATED
T1F00S00C0.7110
T2F00S00C0.9000
T3F00S00C1.1000
T4F00S00C1.2000
T5F00S00C1.4000
%
T01
X0091059Y0050927
T02
X003302Y0013161
X0036402Y0018034
X0038942Y0023114
X003302Y0023161
X0036877Y0031877
X0042228Y0029464
X0050228
X0056769Y0029384
Y0019384
X0048942Y0023114
X0046402Y0018034
X0026877Y0031877
X0061595Y003
X0073105Y0009
X0083105
X0078406Y0055118
X0075739Y006223
X0065739
X0064436Y0066929
X0070485Y0067009
X0068406Y0055118
X0061595Y004
X0083693Y0065993
X0054436Y0066929
X0049657Y0068246
X0042291Y0066849
X0036195Y0069897
X0029972Y0069516
X0024638
Y0059516
X0029972
X0036195Y0059897
Y0053133
X0031416Y0052324
X0031623Y0047164
X0036195Y0043133
X0042228Y0042164
Y0044704
Y0047244
Y0049784
Y0052324
X0042291Y0056849
X0049657Y0058246
X0050228Y0052324
Y0049784
Y0047244
Y0044704
Y0042164
Y0039624
Y0037084
Y0034544
Y0032004
X0042228
Y0034544
Y0037084
Y0039624
X0031623Y0037164
X0056388Y0034751
Y0044751
X0056896Y0047324
Y0057324
X0021416Y0052324
X001778Y007755
Y008755
X0026924Y0087296
Y0077296
X0043434Y0077423
Y0087423
X0054436Y0073025
X0064436
X0070485Y0077009
X0078105Y0081708
Y0071708
X0083693Y0075993
T03
X0061595Y0046863
Y0051943
T04
X0061595Y0019431
Y0021971
T05
X0038982Y0005889
X0044062
X0052982
X0058062
X0097915Y0009
Y0014
Y0019
Y0071
X0005461Y0080899
Y0085979
X0056261Y0082423
X0061341
X0097915Y0081
Y0076
M30
