G04 Layer_Color=2752767*
%FSLAX44Y44*%
%MOMM*%
G71*
G01*
G75*
%ADD15C,0.1000*%
%ADD45C,0.0508*%
%ADD46C,0.0677*%
D15*
X0Y0D02*
Y900000D01*
X1050000D01*
Y0D02*
Y900000D01*
X0Y0D02*
X1050000D01*
D45*
X500248Y521208D02*
Y525272D01*
X504312D01*
Y521208D01*
X500248D01*
Y495808D02*
Y499872D01*
X504312D01*
Y495808D01*
X500248D01*
Y470408D02*
Y474472D01*
X504312D01*
Y470408D01*
X500248D01*
Y445008D02*
Y449072D01*
X504312D01*
Y445008D01*
X500248D01*
X420248D02*
Y449072D01*
X424312D01*
Y445008D01*
X420248D01*
Y470408D02*
Y474472D01*
X424312D01*
Y470408D01*
X420248D01*
Y495808D02*
Y499872D01*
X424312D01*
Y495808D01*
X420248D01*
Y521208D02*
Y525272D01*
X424312D01*
Y521208D01*
X420248D01*
Y419608D02*
Y423672D01*
X424312D01*
Y419608D01*
X420248D01*
Y394208D02*
Y398272D01*
X424312D01*
Y394208D01*
X420248D01*
Y368808D02*
Y372872D01*
X424312D01*
Y368808D01*
X420248D01*
Y343408D02*
Y347472D01*
X424312D01*
Y343408D01*
X420248D01*
Y292608D02*
Y296672D01*
X424312D01*
Y292608D01*
X420248D01*
Y318008D02*
Y322072D01*
X424312D01*
Y318008D01*
X420248D01*
X500248Y343408D02*
Y347472D01*
X504312D01*
Y343408D01*
X500248D01*
Y368808D02*
Y372872D01*
X504312D01*
Y368808D01*
X500248D01*
Y394208D02*
Y398272D01*
X504312D01*
Y394208D01*
X500248D01*
Y419608D02*
Y423672D01*
X504312D01*
Y419608D01*
X500248D01*
Y318008D02*
Y322072D01*
X504312D01*
Y318008D01*
X500248D01*
Y292608D02*
Y296672D01*
X504312D01*
Y292608D01*
X500248D01*
X328168Y129578D02*
Y133642D01*
X332232D01*
Y129578D01*
X328168D01*
Y229578D02*
Y233642D01*
X332232D01*
Y229578D01*
X328168D01*
X212128Y521208D02*
Y525272D01*
X216192D01*
Y521208D01*
X212128D01*
X312128D02*
Y525272D01*
X316192D01*
Y521208D01*
X312128D01*
X487388Y229108D02*
Y233172D01*
X491452D01*
Y229108D01*
X487388D01*
X387388D02*
Y233172D01*
X391452D01*
Y229108D01*
X387388D01*
X461988Y178308D02*
Y182372D01*
X466052D01*
Y178308D01*
X461988D01*
X361988D02*
Y182372D01*
X366052D01*
Y178308D01*
X361988D01*
X314198Y369608D02*
Y373672D01*
X318262D01*
Y369608D01*
X314198D01*
Y469608D02*
Y473672D01*
X318262D01*
Y469608D01*
X314198D01*
X366738Y316738D02*
Y320802D01*
X370802D01*
Y316738D01*
X366738D01*
X266738D02*
Y320802D01*
X270802D01*
Y316738D01*
X266738D01*
X561848Y445478D02*
Y449542D01*
X565912D01*
Y445478D01*
X561848D01*
Y345478D02*
Y349542D01*
X565912D01*
Y345478D01*
X561848D01*
X642328Y728218D02*
Y732282D01*
X646392D01*
Y728218D01*
X642328D01*
X542328D02*
Y732282D01*
X546392D01*
Y728218D01*
X542328D01*
X175768Y873468D02*
Y877532D01*
X179832D01*
Y873468D01*
X175768D01*
Y773468D02*
Y777532D01*
X179832D01*
Y773468D01*
X175768D01*
X267208Y870928D02*
Y874992D01*
X271272D01*
Y870928D01*
X267208D01*
Y770928D02*
Y774992D01*
X271272D01*
Y770928D01*
X267208D01*
X834898Y757898D02*
Y761962D01*
X838962D01*
Y757898D01*
X834898D01*
Y657898D02*
Y661962D01*
X838962D01*
Y657898D01*
X834898D01*
X432308Y872198D02*
Y876262D01*
X436372D01*
Y872198D01*
X432308D01*
Y772198D02*
Y776262D01*
X436372D01*
Y772198D01*
X432308D01*
X359918Y596938D02*
Y601002D01*
X363982D01*
Y596938D01*
X359918D01*
Y696938D02*
Y701002D01*
X363982D01*
Y696938D01*
X359918D01*
X420878Y566458D02*
Y570522D01*
X424942D01*
Y566458D01*
X420878D01*
Y666458D02*
Y670522D01*
X424942D01*
Y666458D01*
X420878D01*
X779018Y815048D02*
Y819112D01*
X783082D01*
Y815048D01*
X779018D01*
Y715048D02*
Y719112D01*
X783082D01*
Y715048D01*
X779018D01*
X359918Y529298D02*
Y533362D01*
X363982D01*
Y529298D01*
X359918D01*
Y429298D02*
Y433362D01*
X363982D01*
Y429298D01*
X359918D01*
X244348Y693128D02*
Y697192D01*
X248412D01*
Y693128D01*
X244348D01*
Y593128D02*
Y597192D01*
X248412D01*
Y593128D01*
X244348D01*
X297688D02*
Y597192D01*
X301752D01*
Y593128D01*
X297688D01*
Y693128D02*
Y697192D01*
X301752D01*
Y693128D01*
X297688D01*
X729018Y87968D02*
Y92032D01*
X733082D01*
Y87968D01*
X729018D01*
X829018D02*
Y92032D01*
X833082D01*
Y87968D01*
X829018D01*
X565658Y291808D02*
Y295872D01*
X569722D01*
Y291808D01*
X565658D01*
Y191808D02*
Y195872D01*
X569722D01*
Y191808D01*
X565658D01*
X566928Y471208D02*
Y475272D01*
X570992D01*
Y471208D01*
X566928D01*
Y571208D02*
Y575272D01*
X570992D01*
Y571208D01*
X566928D01*
X613918Y397968D02*
Y402032D01*
X617982D01*
Y397968D01*
X613918D01*
Y297968D02*
Y302032D01*
X617982D01*
Y297968D01*
X613918D01*
X615950Y517398D02*
X613918Y521462D01*
X617982D01*
X615950Y517398D01*
Y466598D02*
X613918Y470662D01*
X617982D01*
X615950Y466598D01*
Y192278D02*
X616966Y193294D01*
X617982D01*
X616966Y194310D01*
X617982Y195326D01*
X616966D01*
X615950Y196342D01*
X614934Y195326D01*
X613918D01*
X614934Y194310D01*
X613918Y193294D01*
X614934D01*
X615950Y192278D01*
Y217678D02*
X616966Y218694D01*
X617982D01*
X616966Y219710D01*
X617982Y220726D01*
X616966D01*
X615950Y221742D01*
X614934Y220726D01*
X613918D01*
X614934Y219710D01*
X613918Y218694D01*
X614934D01*
X615950Y217678D01*
X755358Y620268D02*
Y624332D01*
X759422D01*
Y620268D01*
X755358D01*
X655358D02*
Y624332D01*
X659422D01*
Y620268D01*
X655358D01*
X494538Y580428D02*
Y584492D01*
X498602D01*
Y580428D01*
X494538D01*
Y680428D02*
Y684492D01*
X498602D01*
Y680428D01*
X494538D01*
X702818Y668058D02*
Y672122D01*
X706882D01*
Y668058D01*
X702818D01*
Y768058D02*
Y772122D01*
X706882D01*
Y768058D01*
X702818D01*
X642328Y667258D02*
Y671322D01*
X646392D01*
Y667258D01*
X642328D01*
X542328D02*
Y671322D01*
X546392D01*
Y667258D01*
X542328D01*
X782028Y549148D02*
Y553212D01*
X786092D01*
Y549148D01*
X782028D01*
X682028D02*
Y553212D01*
X686092D01*
Y549148D01*
X682028D01*
X908558Y507238D02*
X909574Y509270D01*
X908558Y511302D01*
X910590Y510286D01*
X912622Y511302D01*
X911606Y509270D01*
X912622Y507238D01*
X910590Y508254D01*
X908558Y507238D01*
D46*
X56642Y808990D02*
G03*
X56642Y808990I-2032J0D01*
G01*
Y859790D02*
G03*
X56642Y859790I-2032J0D01*
G01*
X564642Y824230D02*
G03*
X564642Y824230I-2032J0D01*
G01*
X615442D02*
G03*
X615442Y824230I-2032J0D01*
G01*
X531852Y58890D02*
G03*
X531852Y58890I-2032J0D01*
G01*
X582652D02*
G03*
X582652Y58890I-2032J0D01*
G01*
X391852D02*
G03*
X391852Y58890I-2032J0D01*
G01*
X442652D02*
G03*
X442652Y58890I-2032J0D01*
G01*
X981182Y90000D02*
G03*
X981182Y90000I-2032J0D01*
G01*
Y190000D02*
G03*
X981182Y190000I-2032J0D01*
G01*
Y140000D02*
G03*
X981182Y140000I-2032J0D01*
G01*
Y710000D02*
G03*
X981182Y710000I-2032J0D01*
G01*
Y810000D02*
G03*
X981182Y810000I-2032J0D01*
G01*
Y760000D02*
G03*
X981182Y760000I-2032J0D01*
G01*
M02*
