G04 Layer_Color=65535*
%FSLAX44Y44*%
%MOMM*%
G71*
G01*
G75*
%ADD10C,0.3000*%
%ADD15C,0.1000*%
%ADD26C,0.2000*%
%ADD27C,0.1524*%
%ADD28C,0.0500*%
%ADD29C,0.2540*%
%ADD30C,0.4000*%
%ADD31C,0.1500*%
%ADD32C,0.2500*%
D10*
X871220Y138996D02*
Y127000D01*
X877218D01*
X879217Y128999D01*
Y136997D01*
X877218Y138996D01*
X871220D01*
X883216Y127000D02*
Y138996D01*
X889214D01*
X891214Y136997D01*
Y132998D01*
X889214Y130999D01*
X883216D01*
X887215D02*
X891214Y127000D01*
X895212D02*
Y134997D01*
X899211Y138996D01*
X903210Y134997D01*
Y127000D01*
Y132998D01*
X895212D01*
X907208Y138996D02*
X911207D01*
X909208D01*
Y127000D01*
X907208D01*
X911207D01*
X917205D02*
Y138996D01*
X925202Y127000D01*
Y138996D01*
X869950Y762566D02*
Y750570D01*
X875948D01*
X877947Y752569D01*
Y760567D01*
X875948Y762566D01*
X869950D01*
X881946Y750570D02*
Y762566D01*
X887944D01*
X889943Y760567D01*
Y756568D01*
X887944Y754569D01*
X881946D01*
X885945D02*
X889943Y750570D01*
X893942D02*
Y758567D01*
X897941Y762566D01*
X901940Y758567D01*
Y750570D01*
Y756568D01*
X893942D01*
X905938Y762566D02*
X909937D01*
X907938D01*
Y750570D01*
X905938D01*
X909937D01*
X915935D02*
Y762566D01*
X923932Y750570D01*
Y762566D01*
X863977Y88737D02*
X861978Y90736D01*
X857979D01*
X855980Y88737D01*
Y86737D01*
X857979Y84738D01*
X861978D01*
X863977Y82739D01*
Y80739D01*
X861978Y78740D01*
X857979D01*
X855980Y80739D01*
X873974Y90736D02*
X869976D01*
X867976Y88737D01*
Y80739D01*
X869976Y78740D01*
X873974D01*
X875974Y80739D01*
Y88737D01*
X873974Y90736D01*
X879972D02*
Y80739D01*
X881972Y78740D01*
X885970D01*
X887970Y80739D01*
Y90736D01*
X891968Y78740D02*
Y90736D01*
X897966D01*
X899966Y88737D01*
Y84738D01*
X897966Y82739D01*
X891968D01*
X895967D02*
X899966Y78740D01*
X911962Y88737D02*
X909962Y90736D01*
X905964D01*
X903964Y88737D01*
Y80739D01*
X905964Y78740D01*
X909962D01*
X911962Y80739D01*
X923958Y90736D02*
X915961D01*
Y78740D01*
X923958D01*
X915961Y84738D02*
X919959D01*
X862707Y707227D02*
X860708Y709226D01*
X856709D01*
X854710Y707227D01*
Y705227D01*
X856709Y703228D01*
X860708D01*
X862707Y701229D01*
Y699229D01*
X860708Y697230D01*
X856709D01*
X854710Y699229D01*
X872704Y709226D02*
X868706D01*
X866706Y707227D01*
Y699229D01*
X868706Y697230D01*
X872704D01*
X874704Y699229D01*
Y707227D01*
X872704Y709226D01*
X878702D02*
Y699229D01*
X880702Y697230D01*
X884700D01*
X886700Y699229D01*
Y709226D01*
X890698Y697230D02*
Y709226D01*
X896696D01*
X898696Y707227D01*
Y703228D01*
X896696Y701229D01*
X890698D01*
X894697D02*
X898696Y697230D01*
X910692Y707227D02*
X908692Y709226D01*
X904694D01*
X902694Y707227D01*
Y699229D01*
X904694Y697230D01*
X908692D01*
X910692Y699229D01*
X922688Y709226D02*
X914691D01*
Y697230D01*
X922688D01*
X914691Y703228D02*
X918689D01*
X885567Y191607D02*
X883568Y193606D01*
X879569D01*
X877570Y191607D01*
Y183609D01*
X879569Y181610D01*
X883568D01*
X885567Y183609D01*
Y187608D01*
X881569D01*
X889566Y181610D02*
Y189607D01*
X893565Y193606D01*
X897563Y189607D01*
Y181610D01*
Y187608D01*
X889566D01*
X901562Y193606D02*
X909560D01*
X905561D01*
Y181610D01*
X921556Y193606D02*
X913558D01*
Y181610D01*
X921556D01*
X913558Y187608D02*
X917557D01*
X888107Y812637D02*
X886108Y814636D01*
X882109D01*
X880110Y812637D01*
Y804639D01*
X882109Y802640D01*
X886108D01*
X888107Y804639D01*
Y808638D01*
X884109D01*
X892106Y802640D02*
Y810637D01*
X896105Y814636D01*
X900104Y810637D01*
Y802640D01*
Y808638D01*
X892106D01*
X904102Y814636D02*
X912100D01*
X908101D01*
Y802640D01*
X924096Y814636D02*
X916098D01*
Y802640D01*
X924096D01*
X916098Y808638D02*
X920097D01*
D15*
X0Y0D02*
Y900000D01*
X1050000D01*
Y0D02*
Y900000D01*
X0Y0D02*
X1050000D01*
D26*
X455930Y538940D02*
G03*
X468630Y538940I6350J0D01*
G01*
X310980Y191872D02*
G03*
X350338Y192559I19284J22981D01*
G01*
X429158Y211920D02*
G03*
X428471Y251278I-22981J19284D01*
G01*
X297010Y431902D02*
G03*
X336368Y432589I19284J22981D01*
G01*
X308508Y299550D02*
G03*
X307821Y338908I-22981J19284D01*
G01*
X583100Y387248D02*
G03*
X543742Y386561I-19284J-22981D01*
G01*
X584098Y711030D02*
G03*
X583411Y750388I-22981J19284D01*
G01*
X197020Y815238D02*
G03*
X157662Y814551I-19284J-22981D01*
G01*
X288460Y812698D02*
G03*
X249102Y812011I-19284J-22981D01*
G01*
X856150Y699668D02*
G03*
X816792Y698981I-19284J-22981D01*
G01*
X453560Y813968D02*
G03*
X414202Y813281I-19284J-22981D01*
G01*
X342730Y659232D02*
G03*
X382088Y659919I19284J22981D01*
G01*
X403690Y628752D02*
G03*
X443048Y629439I19284J22981D01*
G01*
X800270Y756818D02*
G03*
X760912Y756131I-19284J-22981D01*
G01*
X549740Y533502D02*
G03*
X589098Y534189I19284J22981D01*
G01*
X635170Y339738D02*
G03*
X595812Y339051I-19284J-22981D01*
G01*
X697128Y603080D02*
G03*
X696441Y642438I-22981J19284D01*
G01*
X477350Y642722D02*
G03*
X516708Y643409I19284J22981D01*
G01*
X685630Y730352D02*
G03*
X724988Y731039I19284J22981D01*
G01*
X584098Y650070D02*
G03*
X583411Y689428I-22981J19284D01*
G01*
X723798Y531960D02*
G03*
X723111Y571318I-22981J19284D01*
G01*
X432280Y278940D02*
Y538940D01*
X468830D02*
X492280D01*
X432280D02*
X455830D01*
X432280Y278940D02*
X492280D01*
Y538940D01*
X310200Y179110D02*
X350200D01*
X330200Y185110D02*
Y220110D01*
Y142860D02*
Y179110D01*
X441920Y211140D02*
Y251140D01*
X400920Y231140D02*
X435920D01*
X441920D02*
X478170D01*
X296230Y419140D02*
X336230D01*
X316230Y425140D02*
Y460140D01*
Y382890D02*
Y419140D01*
X321270Y298770D02*
Y338770D01*
X280270Y318770D02*
X315270D01*
X321270D02*
X357520D01*
X543880Y400010D02*
X583880D01*
X563880Y359010D02*
Y394010D01*
Y400010D02*
Y436260D01*
X596860Y710250D02*
Y750250D01*
X555860Y730250D02*
X590860D01*
X596860D02*
X633110D01*
X157800Y828000D02*
X197800D01*
X177800Y787000D02*
Y822000D01*
Y828000D02*
Y864250D01*
X249240Y825460D02*
X289240D01*
X269240Y784460D02*
Y819460D01*
Y825460D02*
Y861710D01*
X816930Y712430D02*
X856930D01*
X836930Y671430D02*
Y706430D01*
Y712430D02*
Y748680D01*
X414340Y826730D02*
X454340D01*
X434340Y785730D02*
Y820730D01*
Y826730D02*
Y862980D01*
X341950Y646470D02*
X381950D01*
X361950Y652470D02*
Y687470D01*
Y610220D02*
Y646470D01*
X402910Y615990D02*
X442910D01*
X422910Y621990D02*
Y656990D01*
Y579740D02*
Y615990D01*
X761050Y769580D02*
X801050D01*
X781050Y728580D02*
Y763580D01*
Y769580D02*
Y805830D01*
X1002150Y210400D02*
X1004250Y212500D01*
X1004350D01*
X1001750Y215100D02*
X1004350Y212500D01*
X1004650D01*
X993050D02*
X1004650D01*
X1002150Y830400D02*
X1004250Y832500D01*
X1004350D01*
X1001750Y835100D02*
X1004350Y832500D01*
X1004650D01*
X993050D02*
X1004650D01*
X548960Y520740D02*
X588960D01*
X568960Y526740D02*
Y561740D01*
Y484490D02*
Y520740D01*
X595950Y352500D02*
X635950D01*
X615950Y311500D02*
Y346500D01*
Y352500D02*
Y388750D01*
X608950Y491030D02*
X624950D01*
X608950D02*
X616950Y499030D01*
X624950Y491030D01*
X609950Y499030D02*
X623950D01*
X616950Y482030D02*
Y505030D01*
X644950Y442030D02*
Y546030D01*
X598950Y442030D02*
X644950D01*
X598950D02*
Y546030D01*
Y546030D02*
X644950D01*
X639950Y442030D02*
Y546030D01*
X628650Y181610D02*
Y232410D01*
X603250D02*
X628650D01*
X603250Y181610D02*
Y232410D01*
Y181610D02*
X628650D01*
X709890Y602300D02*
Y642300D01*
X668890Y622300D02*
X703890D01*
X709890D02*
X746140D01*
X476570Y629960D02*
X516570D01*
X496570Y635960D02*
Y670960D01*
Y593710D02*
Y629960D01*
X684850Y717590D02*
X724850D01*
X704850Y723590D02*
Y758590D01*
Y681340D02*
Y717590D01*
X596860Y649290D02*
Y689290D01*
X555860Y669290D02*
X590860D01*
X596860D02*
X633110D01*
X736560Y531180D02*
Y571180D01*
X695560Y551180D02*
X730560D01*
X736560D02*
X772810D01*
D27*
X241300Y533400D02*
G03*
X238760Y530860I0J-2540D01*
G01*
Y515620D02*
G03*
X241300Y513080I2540J0D01*
G01*
X287020D02*
G03*
X289560Y515620I0J2540D01*
G01*
Y530860D02*
G03*
X287020Y533400I-2540J0D01*
G01*
X436880Y170180D02*
G03*
X439420Y172720I0J2540D01*
G01*
Y187960D02*
G03*
X436880Y190500I-2540J0D01*
G01*
X391160D02*
G03*
X388620Y187960I0J-2540D01*
G01*
Y172720D02*
G03*
X391160Y170180I2540J0D01*
G01*
X372110Y504190D02*
G03*
X369570Y506730I-2540J0D01*
G01*
X354330D02*
G03*
X351790Y504190I0J-2540D01*
G01*
Y458470D02*
G03*
X354330Y455930I2540J0D01*
G01*
X369570D02*
G03*
X372110Y458470I0J2540D01*
G01*
X256540Y668020D02*
G03*
X254000Y670560I-2540J0D01*
G01*
X238760D02*
G03*
X236220Y668020I0J-2540D01*
G01*
Y622300D02*
G03*
X238760Y619760I2540J0D01*
G01*
X254000D02*
G03*
X256540Y622300I0J2540D01*
G01*
X289560D02*
G03*
X292100Y619760I2540J0D01*
G01*
X307340D02*
G03*
X309880Y622300I0J2540D01*
G01*
Y668020D02*
G03*
X307340Y670560I-2540J0D01*
G01*
X292100D02*
G03*
X289560Y668020I0J-2540D01*
G01*
X758190Y100160D02*
G03*
X755650Y97620I0J-2540D01*
G01*
Y82380D02*
G03*
X758190Y79840I2540J0D01*
G01*
X803910D02*
G03*
X806450Y82380I0J2540D01*
G01*
Y97620D02*
G03*
X803910Y100160I-2540J0D01*
G01*
X577850Y266700D02*
G03*
X575310Y269240I-2540J0D01*
G01*
X560070D02*
G03*
X557530Y266700I0J-2540D01*
G01*
Y220980D02*
G03*
X560070Y218440I2540J0D01*
G01*
X575310D02*
G03*
X577850Y220980I0J2540D01*
G01*
X238760Y515620D02*
Y530860D01*
X241300Y533400D02*
X245110D01*
X246380Y532130D01*
X241300Y513080D02*
X245110D01*
X246380Y514350D01*
X281940Y532130D02*
X283210Y533400D01*
X246380Y532130D02*
X281940D01*
Y514350D02*
X283210Y513080D01*
X246380Y514350D02*
X281940D01*
X283210Y533400D02*
X287020D01*
X283210Y513080D02*
X287020D01*
X289560Y515620D02*
Y530860D01*
X439420Y172720D02*
Y187960D01*
X433070Y170180D02*
X436880D01*
X431800Y171450D02*
X433070Y170180D01*
Y190500D02*
X436880D01*
X431800Y189230D02*
X433070Y190500D01*
X394970Y170180D02*
X396240Y171450D01*
X431800D01*
X394970Y190500D02*
X396240Y189230D01*
X431800D01*
X391160Y170180D02*
X394970D01*
X391160Y190500D02*
X394970D01*
X388620Y172720D02*
Y187960D01*
X354330Y506730D02*
X369570D01*
X372110Y500380D02*
Y504190D01*
X370840Y499110D02*
X372110Y500380D01*
X351790D02*
Y504190D01*
Y500380D02*
X353060Y499110D01*
X370840Y463550D02*
X372110Y462280D01*
X370840Y463550D02*
Y499110D01*
X351790Y462280D02*
X353060Y463550D01*
Y499110D01*
X372110Y458470D02*
Y462280D01*
X351790Y458470D02*
Y462280D01*
X354330Y455930D02*
X369570D01*
X238760Y670560D02*
X254000D01*
X256540Y664210D02*
Y668020D01*
X255270Y662940D02*
X256540Y664210D01*
X236220D02*
Y668020D01*
Y664210D02*
X237490Y662940D01*
X255270Y627380D02*
X256540Y626110D01*
X255270Y627380D02*
Y662940D01*
X236220Y626110D02*
X237490Y627380D01*
Y662940D01*
X256540Y622300D02*
Y626110D01*
X236220Y622300D02*
Y626110D01*
X238760Y619760D02*
X254000D01*
X292100D02*
X307340D01*
X289560Y622300D02*
Y626110D01*
X290830Y627380D01*
X309880Y622300D02*
Y626110D01*
X308610Y627380D02*
X309880Y626110D01*
X289560Y664210D02*
X290830Y662940D01*
Y627380D02*
Y662940D01*
X308610D02*
X309880Y664210D01*
X308610Y627380D02*
Y662940D01*
X289560Y664210D02*
Y668020D01*
X309880Y664210D02*
Y668020D01*
X292100Y670560D02*
X307340D01*
X755650Y82380D02*
Y97620D01*
X758190Y100160D02*
X762000D01*
X763270Y98890D01*
X758190Y79840D02*
X762000D01*
X763270Y81110D01*
X798830Y98890D02*
X800100Y100160D01*
X763270Y98890D02*
X798830D01*
Y81110D02*
X800100Y79840D01*
X763270Y81110D02*
X798830D01*
X800100Y100160D02*
X803910D01*
X800100Y79840D02*
X803910D01*
X806450Y82380D02*
Y97620D01*
X560070Y269240D02*
X575310D01*
X577850Y262890D02*
Y266700D01*
X576580Y261620D02*
X577850Y262890D01*
X557530D02*
Y266700D01*
Y262890D02*
X558800Y261620D01*
X576580Y226060D02*
X577850Y224790D01*
X576580Y226060D02*
Y261620D01*
X557530Y224790D02*
X558800Y226060D01*
Y261620D01*
X577850Y220980D02*
Y224790D01*
X557530Y220980D02*
Y224790D01*
X560070Y218440D02*
X575310D01*
D28*
X100610Y783790D02*
Y884990D01*
X8610D02*
X100610D01*
X8610Y783790D02*
Y884990D01*
Y783790D02*
X100610D01*
X537410Y778230D02*
X638610D01*
Y870230D01*
X537410D02*
X638610D01*
X537410Y778230D02*
Y870230D01*
X605820Y12890D02*
Y104890D01*
X504620Y12890D02*
X605820D01*
X504620D02*
Y104890D01*
X605820D01*
X465820Y12890D02*
Y104890D01*
X364620Y12890D02*
X465820D01*
X364620D02*
Y104890D01*
X465820D01*
X935950Y59000D02*
Y221200D01*
Y59000D02*
X1012050D01*
Y221200D01*
X935950D02*
X1012050D01*
X935950Y679000D02*
Y841200D01*
Y679000D02*
X1012050D01*
Y841200D01*
X935950D02*
X1012050D01*
D29*
X1002465Y399935D02*
Y442940D01*
X818465Y399935D02*
Y442940D01*
Y517940D02*
Y560185D01*
X1002215Y517940D02*
Y560185D01*
X818465D02*
X1002215D01*
X818465Y399935D02*
X1002465D01*
X568960Y891535D02*
Y881378D01*
X574038Y876300D01*
X579117Y881378D01*
Y891535D01*
X591813D02*
X586734D01*
X584195Y888996D01*
Y878839D01*
X586734Y876300D01*
X591813D01*
X594352Y878839D01*
Y888996D01*
X591813Y891535D01*
X599430D02*
Y878839D01*
X601969Y876300D01*
X607048D01*
X609587Y878839D01*
Y891535D01*
X614665D02*
X624822D01*
X619744D01*
Y876300D01*
X27940Y767075D02*
Y756918D01*
X33018Y751840D01*
X38097Y756918D01*
Y767075D01*
X43175D02*
X48253D01*
X45714D01*
Y751840D01*
X43175D01*
X48253D01*
X55871D02*
Y767075D01*
X66028Y751840D01*
Y767075D01*
X445770Y579115D02*
Y566419D01*
X448309Y563880D01*
X453387D01*
X455927Y566419D01*
Y579115D01*
X461005Y563880D02*
X466083D01*
X463544D01*
Y579115D01*
X461005Y576576D01*
X254000Y488950D02*
Y504185D01*
X261618D01*
X264157Y501646D01*
Y496567D01*
X261618Y494028D01*
X254000D01*
X259078D02*
X264157Y488950D01*
X276853D02*
Y504185D01*
X269235Y496567D01*
X279392D01*
X289560Y558800D02*
Y574035D01*
X297178D01*
X299717Y571496D01*
Y566418D01*
X297178Y563878D01*
X289560D01*
X294638D02*
X299717Y558800D01*
X304795Y571496D02*
X307334Y574035D01*
X312413D01*
X314952Y571496D01*
Y568957D01*
X312413Y566418D01*
X309873D01*
X312413D01*
X314952Y563878D01*
Y561339D01*
X312413Y558800D01*
X307334D01*
X304795Y561339D01*
X233680Y558800D02*
Y574035D01*
X241297D01*
X243837Y571496D01*
Y566418D01*
X241297Y563878D01*
X233680D01*
X238758D02*
X243837Y558800D01*
X259072D02*
X248915D01*
X259072Y568957D01*
Y571496D01*
X256533Y574035D01*
X251454D01*
X248915Y571496D01*
X356870Y400050D02*
Y415285D01*
X364487D01*
X367027Y412746D01*
Y407668D01*
X364487Y405128D01*
X356870D01*
X361948D02*
X367027Y400050D01*
X372105D02*
X377183D01*
X374644D01*
Y415285D01*
X372105Y412746D01*
X568957Y323846D02*
X566418Y326385D01*
X561339D01*
X558800Y323846D01*
Y313689D01*
X561339Y311150D01*
X566418D01*
X568957Y313689D01*
X574035Y311150D02*
X579113D01*
X576574D01*
Y326385D01*
X574035Y323846D01*
X311147Y504186D02*
X308608Y506725D01*
X303529D01*
X300990Y504186D01*
Y494029D01*
X303529Y491490D01*
X308608D01*
X311147Y494029D01*
X326382Y491490D02*
X316225D01*
X326382Y501647D01*
Y504186D01*
X323843Y506725D01*
X318764D01*
X316225Y504186D01*
X279397Y356866D02*
X276857Y359405D01*
X271779D01*
X269240Y356866D01*
Y346709D01*
X271779Y344170D01*
X276857D01*
X279397Y346709D01*
X284475Y356866D02*
X287014Y359405D01*
X292093D01*
X294632Y356866D01*
Y354327D01*
X292093Y351787D01*
X289553D01*
X292093D01*
X294632Y349248D01*
Y346709D01*
X292093Y344170D01*
X287014D01*
X284475Y346709D01*
X330197Y105406D02*
X327658Y107945D01*
X322579D01*
X320040Y105406D01*
Y95249D01*
X322579Y92710D01*
X327658D01*
X330197Y95249D01*
X342893Y92710D02*
Y107945D01*
X335275Y100328D01*
X345432D01*
X382200Y117310D02*
Y132545D01*
X389818D01*
X392357Y130006D01*
Y124928D01*
X389818Y122388D01*
X382200D01*
X387278D02*
X392357Y117310D01*
X397435Y124928D02*
X407592D01*
X422827Y132545D02*
X412670D01*
Y124928D01*
X417748D01*
X412670D01*
Y117310D01*
X427905Y132545D02*
Y117310D01*
X435523D01*
X438062Y119849D01*
Y122388D01*
X435523Y124928D01*
X427905D01*
X435523D01*
X438062Y127467D01*
Y130006D01*
X435523Y132545D01*
X427905D01*
X443140Y117310D02*
X448219D01*
X445680D01*
Y132545D01*
X443140Y130006D01*
X509500Y119850D02*
Y135085D01*
X517118D01*
X519657Y132546D01*
Y127467D01*
X517118Y124928D01*
X509500D01*
X514578D02*
X519657Y119850D01*
X524735Y127467D02*
X534892D01*
X550127Y135085D02*
X539970D01*
Y127467D01*
X545048D01*
X539970D01*
Y119850D01*
X555205Y135085D02*
Y119850D01*
X562823D01*
X565362Y122389D01*
Y124928D01*
X562823Y127467D01*
X555205D01*
X562823D01*
X565362Y130007D01*
Y132546D01*
X562823Y135085D01*
X555205D01*
X580597Y119850D02*
X570440D01*
X580597Y130007D01*
Y132546D01*
X578058Y135085D01*
X572980D01*
X570440Y132546D01*
X516887Y234946D02*
X514347Y237485D01*
X509269D01*
X506730Y234946D01*
Y224789D01*
X509269Y222250D01*
X514347D01*
X516887Y224789D01*
X532122Y237485D02*
X521965D01*
Y229867D01*
X527043Y232407D01*
X529583D01*
X532122Y229867D01*
Y224789D01*
X529583Y222250D01*
X524504D01*
X521965Y224789D01*
X488950Y173990D02*
Y189225D01*
X496567D01*
X499107Y186686D01*
Y181607D01*
X496567Y179068D01*
X488950D01*
X494028D02*
X499107Y173990D01*
X514342Y189225D02*
X504185D01*
Y181607D01*
X509263Y184147D01*
X511803D01*
X514342Y181607D01*
Y176529D01*
X511803Y173990D01*
X506724D01*
X504185Y176529D01*
X466087Y822956D02*
X463548Y825495D01*
X458469D01*
X455930Y822956D01*
Y812799D01*
X458469Y810260D01*
X463548D01*
X466087Y812799D01*
X471165Y810260D02*
X476243D01*
X473704D01*
Y820417D01*
X471165D01*
X483861Y810260D02*
Y820417D01*
X491479D01*
X494018Y817878D01*
Y810260D01*
X499096D02*
X504174D01*
X501635D01*
Y825495D01*
X499096Y822956D01*
X511792Y807721D02*
X521949D01*
X527027Y810260D02*
X532105D01*
X529566D01*
Y825495D01*
X527027Y822956D01*
X330197Y737866D02*
X327658Y740405D01*
X322579D01*
X320040Y737866D01*
Y727709D01*
X322579Y725170D01*
X327658D01*
X330197Y727709D01*
X335275Y725170D02*
X340353D01*
X337814D01*
Y735327D01*
X335275D01*
X347971Y725170D02*
Y735327D01*
X355588D01*
X358128Y732787D01*
Y725170D01*
X363206D02*
X368284D01*
X365745D01*
Y740405D01*
X363206Y737866D01*
X375902Y722631D02*
X386059D01*
X401294Y725170D02*
X391137D01*
X401294Y735327D01*
Y737866D01*
X398755Y740405D01*
X393676D01*
X391137Y737866D01*
X397507Y703576D02*
X394967Y706115D01*
X389889D01*
X387350Y703576D01*
Y693419D01*
X389889Y690880D01*
X394967D01*
X397507Y693419D01*
X402585Y690880D02*
X407663D01*
X405124D01*
Y701037D01*
X402585D01*
X415281Y690880D02*
Y701037D01*
X422898D01*
X425438Y698497D01*
Y690880D01*
X430516D02*
X435594D01*
X433055D01*
Y706115D01*
X430516Y703576D01*
X443212Y688341D02*
X453369D01*
X458447Y703576D02*
X460986Y706115D01*
X466064D01*
X468604Y703576D01*
Y701037D01*
X466064Y698497D01*
X463525D01*
X466064D01*
X468604Y695958D01*
Y693419D01*
X466064Y690880D01*
X460986D01*
X458447Y693419D01*
X744217Y864866D02*
X741677Y867405D01*
X736599D01*
X734060Y864866D01*
Y854709D01*
X736599Y852170D01*
X741677D01*
X744217Y854709D01*
X749295Y852170D02*
X754373D01*
X751834D01*
Y862327D01*
X749295D01*
X761991Y852170D02*
Y862327D01*
X769609D01*
X772148Y859788D01*
Y852170D01*
X777226D02*
X782304D01*
X779765D01*
Y867405D01*
X777226Y864866D01*
X789922Y849631D02*
X800079D01*
X812775Y852170D02*
Y867405D01*
X805157Y859788D01*
X815314D01*
X163827Y751836D02*
X161287Y754375D01*
X156209D01*
X153670Y751836D01*
Y741679D01*
X156209Y739140D01*
X161287D01*
X163827Y741679D01*
X168905Y739140D02*
X173983D01*
X171444D01*
Y749297D01*
X168905D01*
X181601Y739140D02*
Y749297D01*
X189219D01*
X191758Y746758D01*
Y739140D01*
X196836D02*
X201914D01*
X199375D01*
Y754375D01*
X196836Y751836D01*
X250187Y746756D02*
X247647Y749295D01*
X242569D01*
X240030Y746756D01*
Y736599D01*
X242569Y734060D01*
X247647D01*
X250187Y736599D01*
X255265Y734060D02*
X260343D01*
X257804D01*
Y744217D01*
X255265D01*
X267961Y734060D02*
Y744217D01*
X275578D01*
X278118Y741677D01*
Y734060D01*
X293353D02*
X283196D01*
X293353Y744217D01*
Y746756D01*
X290814Y749295D01*
X285735D01*
X283196Y746756D01*
X828037Y637536D02*
X825498Y640075D01*
X820419D01*
X817880Y637536D01*
Y627379D01*
X820419Y624840D01*
X825498D01*
X828037Y627379D01*
X833115Y624840D02*
X838193D01*
X835654D01*
Y634997D01*
X833115D01*
X845811Y624840D02*
Y634997D01*
X853428D01*
X855968Y632458D01*
Y624840D01*
X861046Y637536D02*
X863585Y640075D01*
X868664D01*
X871203Y637536D01*
Y634997D01*
X868664Y632458D01*
X866124D01*
X868664D01*
X871203Y629918D01*
Y627379D01*
X868664Y624840D01*
X863585D01*
X861046Y627379D01*
X520697Y761996D02*
X518158Y764535D01*
X513079D01*
X510540Y761996D01*
Y751839D01*
X513079Y749300D01*
X518158D01*
X520697Y751839D01*
X528314Y749300D02*
X533393D01*
X535932Y751839D01*
Y756917D01*
X533393Y759457D01*
X528314D01*
X525775Y756917D01*
Y751839D01*
X528314Y749300D01*
X541010Y759457D02*
Y751839D01*
X543549Y749300D01*
X551167D01*
Y759457D01*
X558784Y761996D02*
Y759457D01*
X556245D01*
X561324D01*
X558784D01*
Y751839D01*
X561324Y749300D01*
X568941D02*
X574020D01*
X571480D01*
Y764535D01*
X568941Y761996D01*
X725170Y40640D02*
Y55875D01*
X730248Y50797D01*
X735327Y55875D01*
Y40640D01*
X748023D02*
X742944D01*
X740405Y43179D01*
Y48257D01*
X742944Y50797D01*
X748023D01*
X750562Y48257D01*
Y45718D01*
X740405D01*
X758179Y50797D02*
X763258D01*
X765797Y48257D01*
Y40640D01*
X758179D01*
X755640Y43179D01*
X758179Y45718D01*
X765797D01*
X770875Y40640D02*
X778493D01*
X781032Y43179D01*
X778493Y45718D01*
X773414D01*
X770875Y48257D01*
X773414Y50797D01*
X781032D01*
X786110D02*
Y43179D01*
X788650Y40640D01*
X796267D01*
Y50797D01*
X801345D02*
Y40640D01*
Y45718D01*
X803885Y48257D01*
X806424Y50797D01*
X808963D01*
X816580Y40640D02*
X821659D01*
X819120D01*
Y50797D01*
X816580D01*
X829276Y40640D02*
Y50797D01*
X836894D01*
X839433Y48257D01*
Y40640D01*
X849590Y35562D02*
X852129D01*
X854668Y38101D01*
Y50797D01*
X847051D01*
X844511Y48257D01*
Y43179D01*
X847051Y40640D01*
X854668D01*
X974087Y873759D02*
Y883916D01*
X971547Y886455D01*
X966469D01*
X963930Y883916D01*
Y873759D01*
X966469Y871220D01*
X971547D01*
X969008Y876298D02*
X974087Y871220D01*
X971547D02*
X974087Y873759D01*
X979165Y871220D02*
X984243D01*
X981704D01*
Y886455D01*
X979165Y883916D01*
X976627Y247649D02*
Y257806D01*
X974088Y260345D01*
X969009D01*
X966470Y257806D01*
Y247649D01*
X969009Y245110D01*
X974088D01*
X971548Y250188D02*
X976627Y245110D01*
X974088D02*
X976627Y247649D01*
X991862Y245110D02*
X981705D01*
X991862Y255267D01*
Y257806D01*
X989323Y260345D01*
X984244D01*
X981705Y257806D01*
X554990Y153670D02*
Y168905D01*
X562607D01*
X565147Y166366D01*
Y161287D01*
X562607Y158748D01*
X554990D01*
X560068D02*
X565147Y153670D01*
X580382Y168905D02*
X575303Y166366D01*
X570225Y161287D01*
Y156209D01*
X572764Y153670D01*
X577843D01*
X580382Y156209D01*
Y158748D01*
X577843Y161287D01*
X570225D01*
X563877Y605786D02*
X561338Y608325D01*
X556259D01*
X553720Y605786D01*
Y595629D01*
X556259Y593090D01*
X561338D01*
X563877Y595629D01*
X579112Y608325D02*
X574033Y605786D01*
X568955Y600708D01*
Y595629D01*
X571494Y593090D01*
X576573D01*
X579112Y595629D01*
Y598168D01*
X576573Y600708D01*
X568955D01*
X613407Y278876D02*
X610868Y281415D01*
X605789D01*
X603250Y278876D01*
Y268719D01*
X605789Y266180D01*
X610868D01*
X613407Y268719D01*
X618485Y281415D02*
X628642D01*
Y278876D01*
X618485Y268719D01*
Y266180D01*
X618490Y575305D02*
Y560070D01*
X626107D01*
X628647Y562609D01*
Y572766D01*
X626107Y575305D01*
X618490D01*
X633725Y560070D02*
X638803D01*
X636264D01*
Y575305D01*
X633725Y572766D01*
X614677Y166365D02*
X609598D01*
X612137D01*
Y153669D01*
X609598Y151130D01*
X607059D01*
X604520Y153669D01*
X619755Y151130D02*
X624833D01*
X622294D01*
Y166365D01*
X619755Y163826D01*
X652777Y594356D02*
X650238Y596895D01*
X645159D01*
X642620Y594356D01*
Y584199D01*
X645159Y581660D01*
X650238D01*
X652777Y584199D01*
X660394Y581660D02*
X665473D01*
X668012Y584199D01*
Y589277D01*
X665473Y591817D01*
X660394D01*
X657855Y589277D01*
Y584199D01*
X660394Y581660D01*
X673090Y591817D02*
Y584199D01*
X675629Y581660D01*
X683247D01*
Y591817D01*
X690864Y594356D02*
Y591817D01*
X688325D01*
X693404D01*
X690864D01*
Y584199D01*
X693404Y581660D01*
X701021D02*
X706099D01*
X703560D01*
Y596895D01*
X701021Y594356D01*
X713717Y579121D02*
X723874D01*
X728952Y581660D02*
X734030D01*
X731491D01*
Y596895D01*
X728952Y594356D01*
X492757Y709926D02*
X490218Y712465D01*
X485139D01*
X482600Y709926D01*
Y699769D01*
X485139Y697230D01*
X490218D01*
X492757Y699769D01*
X500374Y697230D02*
X505453D01*
X507992Y699769D01*
Y704847D01*
X505453Y707387D01*
X500374D01*
X497835Y704847D01*
Y699769D01*
X500374Y697230D01*
X513070Y707387D02*
Y699769D01*
X515609Y697230D01*
X523227D01*
Y707387D01*
X530844Y709926D02*
Y707387D01*
X528305D01*
X533384D01*
X530844D01*
Y699769D01*
X533384Y697230D01*
X541001D02*
X546079D01*
X543540D01*
Y712465D01*
X541001Y709926D01*
X553697Y694691D02*
X563854D01*
X579089Y697230D02*
X568932D01*
X579089Y707387D01*
Y709926D01*
X576550Y712465D01*
X571471D01*
X568932Y709926D01*
X673097Y801366D02*
X670557Y803905D01*
X665479D01*
X662940Y801366D01*
Y791209D01*
X665479Y788670D01*
X670557D01*
X673097Y791209D01*
X680714Y788670D02*
X685793D01*
X688332Y791209D01*
Y796288D01*
X685793Y798827D01*
X680714D01*
X678175Y796288D01*
Y791209D01*
X680714Y788670D01*
X693410Y798827D02*
Y791209D01*
X695949Y788670D01*
X703567D01*
Y798827D01*
X711184Y801366D02*
Y798827D01*
X708645D01*
X713724D01*
X711184D01*
Y791209D01*
X713724Y788670D01*
X721341D02*
X726420D01*
X723880D01*
Y803905D01*
X721341Y801366D01*
X734037Y786131D02*
X744194D01*
X749272Y801366D02*
X751811Y803905D01*
X756890D01*
X759429Y801366D01*
Y798827D01*
X756890Y796288D01*
X754350D01*
X756890D01*
X759429Y793748D01*
Y791209D01*
X756890Y788670D01*
X751811D01*
X749272Y791209D01*
X702307Y518156D02*
X699768Y520695D01*
X694689D01*
X692150Y518156D01*
Y507999D01*
X694689Y505460D01*
X699768D01*
X702307Y507999D01*
X709924Y505460D02*
X715003D01*
X717542Y507999D01*
Y513078D01*
X715003Y515617D01*
X709924D01*
X707385Y513078D01*
Y507999D01*
X709924Y505460D01*
X722620Y515617D02*
Y507999D01*
X725159Y505460D01*
X732777D01*
Y515617D01*
X740394Y518156D02*
Y515617D01*
X737855D01*
X742934D01*
X740394D01*
Y507999D01*
X742934Y505460D01*
X760708D02*
X750551D01*
X760708Y515617D01*
Y518156D01*
X758169Y520695D01*
X753090D01*
X750551Y518156D01*
X626107Y701036D02*
X623568Y703575D01*
X618489D01*
X615950Y701036D01*
Y690879D01*
X618489Y688340D01*
X623568D01*
X626107Y690879D01*
X633724Y688340D02*
X638803D01*
X641342Y690879D01*
Y695957D01*
X638803Y698497D01*
X633724D01*
X631185Y695957D01*
Y690879D01*
X633724Y688340D01*
X646420Y698497D02*
Y690879D01*
X648959Y688340D01*
X656577D01*
Y698497D01*
X664194Y701036D02*
Y698497D01*
X661655D01*
X666734D01*
X664194D01*
Y690879D01*
X666734Y688340D01*
X674351Y701036D02*
X676890Y703575D01*
X681969D01*
X684508Y701036D01*
Y698497D01*
X681969Y695957D01*
X679429D01*
X681969D01*
X684508Y693418D01*
Y690879D01*
X681969Y688340D01*
X676890D01*
X674351Y690879D01*
X835660Y589275D02*
Y574040D01*
X845817D01*
X850895D02*
X855973D01*
X853434D01*
Y589275D01*
X850895Y586736D01*
D30*
X762000Y357084D02*
X773996D01*
X767998D01*
Y339090D01*
X779994Y357084D02*
Y339090D01*
X788991D01*
X791990Y342089D01*
Y354085D01*
X788991Y357084D01*
X779994D01*
X809985D02*
X797988D01*
Y339090D01*
X809985D01*
X797988Y348087D02*
X803986D01*
X845973Y354085D02*
X842974Y357084D01*
X836976D01*
X833977Y354085D01*
Y342089D01*
X836976Y339090D01*
X842974D01*
X845973Y342089D01*
Y348087D01*
X839975D01*
X851971Y351086D02*
Y339090D01*
Y345088D01*
X854970Y348087D01*
X857969Y351086D01*
X860968D01*
X872964Y339090D02*
X878962D01*
X881961Y342089D01*
Y348087D01*
X878962Y351086D01*
X872964D01*
X869965Y348087D01*
Y342089D01*
X872964Y339090D01*
X887959Y351086D02*
Y342089D01*
X890958Y339090D01*
X899955D01*
Y351086D01*
X905953Y333092D02*
Y351086D01*
X914950D01*
X917950Y348087D01*
Y342089D01*
X914950Y339090D01*
X905953D01*
X96658Y53340D02*
X112653D01*
X120650Y61337D01*
X112653Y69335D01*
X96658D01*
X120650Y81331D02*
Y89328D01*
X116651Y93327D01*
X108654D01*
X104655Y89328D01*
Y81331D01*
X108654Y77332D01*
X116651D01*
X120650Y81331D01*
X104655Y101325D02*
X116651D01*
X120650Y105323D01*
Y117319D01*
X104655D01*
X100656Y129316D02*
X104655D01*
Y125317D01*
Y133314D01*
Y129316D01*
X116651D01*
X120650Y133314D01*
X112653Y145310D02*
Y161305D01*
X104655Y145310D02*
Y161305D01*
X120650Y193295D02*
Y201292D01*
Y197293D01*
X96658D01*
X100656Y193295D01*
X120650Y213288D02*
X116651D01*
Y217287D01*
X120650D01*
Y213288D01*
Y249277D02*
Y233282D01*
X104655Y249277D01*
X100656D01*
X96658Y245278D01*
Y237281D01*
X100656Y233282D01*
X104655Y281266D02*
X120650Y297261D01*
X112653Y289264D01*
X104655Y297261D01*
X120650Y281266D01*
Y337248D02*
X112653Y329251D01*
X104655D01*
X96658Y337248D01*
X120650Y349244D02*
Y357242D01*
Y353243D01*
X96658D01*
X100656Y349244D01*
X108654Y393230D02*
Y409225D01*
X100656Y401228D02*
X116651D01*
X120650Y441215D02*
X96658D01*
Y453211D01*
X100656Y457210D01*
X108654D01*
X112653Y453211D01*
Y441215D01*
Y449212D02*
X120650Y457210D01*
X108654Y465207D02*
Y481202D01*
X96658Y505194D02*
Y489199D01*
X108654D01*
Y497197D01*
Y489199D01*
X120650D01*
X96658Y513191D02*
X120650D01*
Y525188D01*
X116651Y529186D01*
X112653D01*
X108654Y525188D01*
Y513191D01*
Y525188D01*
X104655Y529186D01*
X100656D01*
X96658Y525188D01*
Y513191D01*
X120650Y553179D02*
Y537184D01*
X104655Y553179D01*
X100656D01*
X96658Y549180D01*
Y541183D01*
X100656Y537184D01*
X120650Y561176D02*
X104655Y577171D01*
X120650Y585168D02*
X96658D01*
Y597164D01*
X100656Y601163D01*
X108654D01*
X112653Y597164D01*
Y585168D01*
Y593166D02*
X120650Y601163D01*
X108654Y609160D02*
Y625155D01*
X96658Y649148D02*
Y633153D01*
X108654D01*
Y641150D01*
Y633153D01*
X120650D01*
X96658Y657145D02*
X120650D01*
Y669141D01*
X116651Y673140D01*
X112653D01*
X108654Y669141D01*
Y657145D01*
Y669141D01*
X104655Y673140D01*
X100656D01*
X96658Y669141D01*
Y657145D01*
X120650Y681137D02*
Y689135D01*
Y685136D01*
X96658D01*
X100656Y681137D01*
X120650Y701131D02*
X112653Y709128D01*
X104655D01*
X96658Y701131D01*
D31*
X773430Y326227D02*
Y316230D01*
X778428D01*
X780095Y317896D01*
Y324561D01*
X778428Y326227D01*
X773430D01*
X783427D02*
Y319562D01*
X786759Y316230D01*
X790091Y319562D01*
Y326227D01*
X793424D02*
X800088D01*
X796756D01*
Y316230D01*
X813417D02*
Y326227D01*
X818416D01*
X820082Y324561D01*
Y321228D01*
X818416Y319562D01*
X813417D01*
X830078Y324561D02*
X828412Y326227D01*
X825080D01*
X823414Y324561D01*
Y322895D01*
X825080Y321228D01*
X828412D01*
X830078Y319562D01*
Y317896D01*
X828412Y316230D01*
X825080D01*
X823414Y317896D01*
X833411Y326227D02*
Y317896D01*
X835077Y316230D01*
X838409D01*
X840075Y317896D01*
Y326227D01*
X853404D02*
Y316230D01*
X860069D01*
X863401D02*
Y326227D01*
X866733Y322895D01*
X870066Y326227D01*
Y316230D01*
X880062Y326227D02*
X873398D01*
Y321228D01*
X876730Y322895D01*
X878396D01*
X880062Y321228D01*
Y317896D01*
X878396Y316230D01*
X875064D01*
X873398Y317896D01*
X883395Y316230D02*
X886727D01*
X885061D01*
Y326227D01*
X883395Y324561D01*
X891725Y316230D02*
X895058D01*
X893391D01*
Y326227D01*
X891725Y324561D01*
X906720Y326227D02*
X903388Y324561D01*
X900056Y321228D01*
Y317896D01*
X901722Y316230D01*
X905054D01*
X906720Y317896D01*
Y319562D01*
X905054Y321228D01*
X900056D01*
X910053D02*
X916717D01*
X920049Y326227D02*
Y316230D01*
Y321228D01*
X926714D01*
Y326227D01*
Y316230D01*
X930046Y326227D02*
X936711D01*
X933378D01*
Y316230D01*
X810260Y300990D02*
Y310987D01*
X815258D01*
X816925Y309321D01*
Y305988D01*
X815258Y304322D01*
X810260D01*
X820257Y300990D02*
Y310987D01*
X826921Y300990D01*
Y310987D01*
X830254Y300990D02*
X833586D01*
X831920D01*
Y310987D01*
X830254Y309321D01*
X838584D02*
X840250Y310987D01*
X843583D01*
X845249Y309321D01*
Y302656D01*
X843583Y300990D01*
X840250D01*
X838584Y302656D01*
Y309321D01*
X848581D02*
X850247Y310987D01*
X853579D01*
X855246Y309321D01*
Y302656D01*
X853579Y300990D01*
X850247D01*
X848581Y302656D01*
Y309321D01*
X863576Y300990D02*
Y310987D01*
X858578Y305988D01*
X865242D01*
X868575Y309321D02*
X870241Y310987D01*
X873573D01*
X875239Y309321D01*
Y307654D01*
X873573Y305988D01*
X875239Y304322D01*
Y302656D01*
X873573Y300990D01*
X870241D01*
X868575Y302656D01*
Y304322D01*
X870241Y305988D01*
X868575Y307654D01*
Y309321D01*
X870241Y305988D02*
X873573D01*
D32*
X42425Y70353D02*
Y59690D01*
X58420D01*
Y70353D01*
X50423Y59690D02*
Y65022D01*
X63752Y86348D02*
X47757D01*
Y78351D01*
X50423Y75685D01*
X55754D01*
X58420Y78351D01*
Y86348D01*
X47757Y91680D02*
X55754D01*
X58420Y94345D01*
Y102343D01*
X47757D01*
Y110340D02*
Y115672D01*
X50423Y118338D01*
X58420D01*
Y110340D01*
X55754Y107674D01*
X53088Y110340D01*
Y118338D01*
X45091Y126335D02*
X47757D01*
Y123669D01*
Y129001D01*
Y126335D01*
X55754D01*
X58420Y129001D01*
Y136998D02*
Y142330D01*
Y139664D01*
X47757D01*
Y136998D01*
X58420Y152993D02*
Y158325D01*
X55754Y160991D01*
X50423D01*
X47757Y158325D01*
Y152993D01*
X50423Y150327D01*
X55754D01*
X58420Y152993D01*
Y166322D02*
X47757D01*
Y174319D01*
X50423Y176985D01*
X58420D01*
Y198312D02*
Y203643D01*
Y200977D01*
X47757D01*
Y198312D01*
X58420Y211641D02*
X47757D01*
Y219638D01*
X50423Y222304D01*
X58420D01*
Y246296D02*
Y251628D01*
X55754Y254293D01*
X50423D01*
X47757Y251628D01*
Y246296D01*
X50423Y243630D01*
X55754D01*
X58420Y246296D01*
X47757Y259625D02*
X58420D01*
X53088D01*
X50423Y262291D01*
X47757Y264957D01*
Y267623D01*
X42425Y286283D02*
X58420D01*
Y278286D01*
X55754Y275620D01*
X50423D01*
X47757Y278286D01*
Y286283D01*
X58420Y299612D02*
Y294281D01*
X55754Y291615D01*
X50423D01*
X47757Y294281D01*
Y299612D01*
X50423Y302278D01*
X53088D01*
Y291615D01*
X47757Y307610D02*
X58420D01*
X53088D01*
X50423Y310275D01*
X47757Y312941D01*
Y315607D01*
X45091Y342265D02*
X47757D01*
Y339599D01*
Y344931D01*
Y342265D01*
X55754D01*
X58420Y344931D01*
Y355594D02*
Y360926D01*
X55754Y363591D01*
X50423D01*
X47757Y360926D01*
Y355594D01*
X50423Y352928D01*
X55754D01*
X58420Y355594D01*
X47757Y387584D02*
Y392915D01*
X50423Y395581D01*
X58420D01*
Y387584D01*
X55754Y384918D01*
X53088Y387584D01*
Y395581D01*
X42425Y411576D02*
X58420D01*
Y403578D01*
X55754Y400913D01*
X50423D01*
X47757Y403578D01*
Y411576D01*
X63752Y416907D02*
Y419573D01*
X61086Y422239D01*
X47757D01*
Y432902D02*
X55754D01*
X58420Y435568D01*
Y443565D01*
X47757D01*
X58420Y448897D02*
Y456894D01*
X55754Y459560D01*
X53088Y456894D01*
Y451563D01*
X50423Y448897D01*
X47757Y451563D01*
Y459560D01*
X45091Y467558D02*
X47757D01*
Y464892D01*
Y470224D01*
Y467558D01*
X55754D01*
X58420Y470224D01*
Y496881D02*
Y502213D01*
X55754Y504879D01*
X50423D01*
X47757Y502213D01*
Y496881D01*
X50423Y494216D01*
X55754D01*
X58420Y496881D01*
X47757Y510210D02*
X55754D01*
X58420Y512876D01*
Y520874D01*
X47757D01*
X45091Y528871D02*
X47757D01*
Y526205D01*
Y531537D01*
Y528871D01*
X55754D01*
X58420Y531537D01*
X63752Y539534D02*
X47757D01*
Y547532D01*
X50423Y550198D01*
X55754D01*
X58420Y547532D01*
Y539534D01*
X47757Y555529D02*
X55754D01*
X58420Y558195D01*
Y566192D01*
X47757D01*
X45091Y574190D02*
X47757D01*
Y571524D01*
Y576856D01*
Y574190D01*
X55754D01*
X58420Y576856D01*
X47757Y600848D02*
X58420Y606179D01*
X47757Y611511D01*
X58420Y619508D02*
Y624840D01*
X55754Y627506D01*
X50423D01*
X47757Y624840D01*
Y619508D01*
X50423Y616843D01*
X55754D01*
X58420Y619508D01*
Y632837D02*
Y638169D01*
Y635503D01*
X42425D01*
Y632837D01*
X45091Y648832D02*
X47757D01*
Y646166D01*
Y651498D01*
Y648832D01*
X55754D01*
X58420Y651498D01*
X47757Y662161D02*
Y667493D01*
X50423Y670159D01*
X58420D01*
Y662161D01*
X55754Y659495D01*
X53088Y662161D01*
Y670159D01*
X63752Y680822D02*
Y683488D01*
X61086Y686153D01*
X47757D01*
Y678156D01*
X50423Y675490D01*
X55754D01*
X58420Y678156D01*
Y686153D01*
Y699482D02*
Y694151D01*
X55754Y691485D01*
X50423D01*
X47757Y694151D01*
Y699482D01*
X50423Y702148D01*
X53088D01*
Y691485D01*
X47757Y707480D02*
Y710146D01*
X50423D01*
Y707480D01*
X47757D01*
X55754D02*
Y710146D01*
X58420D01*
Y707480D01*
X55754D01*
X703580Y101600D02*
Y107598D01*
X701581Y109597D01*
X699581Y107598D01*
Y103599D01*
X697582Y101600D01*
X695583Y103599D01*
Y109597D01*
Y113596D02*
X701581D01*
X703580Y115596D01*
Y121594D01*
X705579D01*
X707579Y119594D01*
Y117595D01*
X703580Y121594D02*
X695583D01*
X703580Y125592D02*
X695583D01*
Y131590D01*
X697582Y133590D01*
X703580D01*
X695583Y145586D02*
Y139588D01*
X697582Y137588D01*
X701581D01*
X703580Y139588D01*
Y145586D01*
X691584Y149585D02*
X703580D01*
X697582D01*
X695583Y151584D01*
Y155583D01*
X697582Y157582D01*
X703580D01*
X695583Y161581D02*
X703580D01*
X699581D01*
X697582Y163580D01*
X695583Y165579D01*
Y167579D01*
X703580Y175576D02*
Y179575D01*
X701581Y181574D01*
X697582D01*
X695583Y179575D01*
Y175576D01*
X697582Y173577D01*
X701581D01*
X703580Y175576D01*
Y185573D02*
X695583D01*
Y191571D01*
X697582Y193570D01*
X703580D01*
Y199568D02*
Y203567D01*
X701581Y205566D01*
X697582D01*
X695583Y203567D01*
Y199568D01*
X697582Y197569D01*
X701581D01*
X703580Y199568D01*
X695583Y209565D02*
X701581D01*
X703580Y211564D01*
Y217563D01*
X695583D01*
X703580Y221561D02*
Y227559D01*
X701581Y229559D01*
X699581Y227559D01*
Y223561D01*
X697582Y221561D01*
X695583Y223561D01*
Y229559D01*
X703580Y247553D02*
Y251551D01*
X701581Y253551D01*
X697582D01*
X695583Y251551D01*
Y247553D01*
X697582Y245553D01*
X701581D01*
X703580Y247553D01*
X707579Y257549D02*
X695583D01*
Y263548D01*
X697582Y265547D01*
X701581D01*
X703580Y263548D01*
Y257549D01*
Y275544D02*
Y271545D01*
X701581Y269546D01*
X697582D01*
X695583Y271545D01*
Y275544D01*
X697582Y277543D01*
X699581D01*
Y269546D01*
X695583Y281542D02*
X703580D01*
X699581D01*
X697582Y283541D01*
X695583Y285540D01*
Y287540D01*
Y295537D02*
Y299536D01*
X697582Y301535D01*
X703580D01*
Y295537D01*
X701581Y293538D01*
X699581Y295537D01*
Y301535D01*
X693583Y307533D02*
X695583D01*
Y305534D01*
Y309533D01*
Y307533D01*
X701581D01*
X703580Y309533D01*
Y315531D02*
Y319529D01*
Y317530D01*
X695583D01*
Y315531D01*
X703580Y327527D02*
Y331526D01*
X701581Y333525D01*
X697582D01*
X695583Y331526D01*
Y327527D01*
X697582Y325527D01*
X701581D01*
X703580Y327527D01*
Y337524D02*
X695583D01*
Y343522D01*
X697582Y345521D01*
X703580D01*
X669290Y107950D02*
Y111949D01*
Y109949D01*
X657294D01*
Y107950D01*
X669290Y123945D02*
Y119946D01*
X667291Y117947D01*
X663292D01*
X661293Y119946D01*
Y123945D01*
X663292Y125944D01*
X665291D01*
Y117947D01*
X659293Y131942D02*
X661293D01*
Y129943D01*
Y133942D01*
Y131942D01*
X667291D01*
X669290Y133942D01*
X657294Y171929D02*
Y167931D01*
Y169930D01*
X667291D01*
X669290Y167931D01*
Y165931D01*
X667291Y163932D01*
X669290Y175928D02*
Y179927D01*
Y177927D01*
X657294D01*
X659293Y175928D01*
X669290Y199920D02*
Y203919D01*
X667291Y205918D01*
X663292D01*
X661293Y203919D01*
Y199920D01*
X663292Y197921D01*
X667291D01*
X669290Y199920D01*
X673289Y209917D02*
X661293D01*
Y215915D01*
X663292Y217914D01*
X667291D01*
X669290Y215915D01*
Y209917D01*
Y227911D02*
Y223913D01*
X667291Y221913D01*
X663292D01*
X661293Y223913D01*
Y227911D01*
X663292Y229911D01*
X665291D01*
Y221913D01*
X669290Y233909D02*
X661293D01*
Y239907D01*
X663292Y241907D01*
X669290D01*
Y259901D02*
X659293D01*
X663292D01*
Y257901D01*
Y261900D01*
Y259901D01*
X659293D01*
X657294Y261900D01*
X669290Y269898D02*
Y273896D01*
X667291Y275896D01*
X663292D01*
X661293Y273896D01*
Y269898D01*
X663292Y267898D01*
X667291D01*
X669290Y269898D01*
X661293Y279894D02*
X669290D01*
X665291D01*
X663292Y281894D01*
X661293Y283893D01*
Y285892D01*
X669290Y305886D02*
X659293D01*
X663292D01*
Y303887D01*
Y307885D01*
Y305886D01*
X659293D01*
X657294Y307885D01*
X661293Y313883D02*
X667291D01*
X669290Y315883D01*
Y321881D01*
X661293D01*
X669290Y325880D02*
Y329878D01*
Y327879D01*
X657294D01*
Y325880D01*
X669290Y335876D02*
Y339875D01*
Y337876D01*
X657294D01*
Y335876D01*
X661293Y345873D02*
X667291D01*
X669290Y347872D01*
Y353871D01*
X671289D01*
X673289Y351871D01*
Y349872D01*
X669290Y353871D02*
X661293D01*
M02*
