G04 Layer_Color=128*
%FSLAX44Y44*%
%MOMM*%
G71*
G01*
G75*
%ADD13C,0.5000*%
%ADD35C,0.0508*%
D13*
X0Y450000D02*
X600000D01*
Y0D02*
Y450000D01*
X0Y0D02*
X600000D01*
X0D02*
Y450000D01*
D35*
X43000Y415400D02*
X57000D01*
X50000Y408400D02*
Y422400D01*
X43000Y364600D02*
X57000D01*
X50000Y357600D02*
Y371600D01*
X111870Y260350D02*
X120870D01*
X116370Y255850D02*
Y264850D01*
X211870Y260350D02*
X220870D01*
X216370Y255850D02*
Y264850D01*
X39990Y52070D02*
X53990D01*
X46990Y45070D02*
Y59070D01*
X90790Y52070D02*
X104790D01*
X97790Y45070D02*
Y59070D01*
X543000Y364600D02*
X557000D01*
X550000Y357600D02*
Y371600D01*
X543000Y415400D02*
X557000D01*
X550000Y408400D02*
Y422400D01*
X429840Y250660D02*
X438840D01*
X434340Y246160D02*
Y255160D01*
X429840Y150660D02*
X438840D01*
X434340Y146160D02*
Y155160D01*
X9000Y146050D02*
X18000D01*
X13500Y141550D02*
Y150550D01*
X109000Y146050D02*
X118000D01*
X113500Y141550D02*
Y150550D01*
X440000Y411950D02*
X449000D01*
X444500Y407450D02*
Y416450D01*
X440000Y311950D02*
X449000D01*
X444500Y307450D02*
Y316450D01*
X247760Y57150D02*
X256760D01*
X252260Y52650D02*
Y61650D01*
X347760Y57150D02*
X356760D01*
X352260Y52650D02*
Y61650D01*
X347760Y95250D02*
X356760D01*
X352260Y90750D02*
Y99750D01*
X247760Y95250D02*
X256760D01*
X252260Y90750D02*
Y99750D01*
X347760Y20320D02*
X356760D01*
X352260Y15820D02*
Y24820D01*
X247760Y20320D02*
X256760D01*
X252260Y15820D02*
Y24820D01*
X111870Y204470D02*
X120870D01*
X116370Y199970D02*
Y208970D01*
X211870Y204470D02*
X220870D01*
X216370Y199970D02*
Y208970D01*
X67890Y288760D02*
X76890D01*
X72390Y284260D02*
Y293260D01*
X67890Y188760D02*
X76890D01*
X72390Y184260D02*
Y193260D01*
X27250Y314160D02*
X36250D01*
X31750Y309660D02*
Y318660D01*
X27250Y214160D02*
X36250D01*
X31750Y209660D02*
Y218660D01*
X475090Y246380D02*
X484090D01*
X479590Y241880D02*
Y250880D01*
X575090Y246380D02*
X584090D01*
X579590Y241880D02*
Y250880D01*
X396020Y328930D02*
X405020D01*
X400520Y324430D02*
Y333430D01*
X296020Y328930D02*
X305020D01*
X300520Y324430D02*
Y333430D01*
X396020Y288290D02*
X405020D01*
X400520Y283790D02*
Y292790D01*
X296020Y288290D02*
X305020D01*
X300520Y283790D02*
Y292790D01*
X266810Y176530D02*
X275810D01*
X271310Y172030D02*
Y181030D01*
X366810Y176530D02*
X375810D01*
X371310Y172030D02*
Y181030D01*
X121230Y319570D02*
X130230D01*
X125730Y315070D02*
Y324070D01*
X121230Y419570D02*
X130230D01*
X125730Y415070D02*
Y424070D01*
X266810Y135890D02*
X275810D01*
X271310Y131390D02*
Y140390D01*
X366810Y135890D02*
X375810D01*
X371310Y131390D02*
Y140390D01*
X169490Y319570D02*
X178490D01*
X173990Y315070D02*
Y324070D01*
X169490Y419570D02*
X178490D01*
X173990Y415070D02*
Y424070D01*
X208390Y375920D02*
X217390D01*
X212890Y371420D02*
Y380420D01*
X308390Y375920D02*
X317390D01*
X312890Y371420D02*
Y380420D01*
X208390Y417830D02*
X217390D01*
X212890Y413330D02*
Y422330D01*
X308390Y417830D02*
X317390D01*
X312890Y413330D02*
Y422330D01*
X315215Y198120D02*
X322325D01*
X318770Y194565D02*
Y201675D01*
X331725Y350520D02*
X338835D01*
X335280Y346965D02*
Y354075D01*
M02*
