G04 Layer_Color=65535*
%FSLAX44Y44*%
%MOMM*%
G71*
G01*
G75*
%ADD10C,0.3000*%
%ADD13C,0.5000*%
%ADD20C,0.2500*%
%ADD21C,0.2000*%
%ADD22C,0.1524*%
%ADD23C,0.0500*%
%ADD24C,0.2540*%
%ADD25C,0.1500*%
%ADD26R,11.0490X3.3020*%
D10*
X462280Y103895D02*
X472277D01*
X467278D01*
Y88900D01*
X477275Y103895D02*
Y88900D01*
X484773D01*
X487272Y91399D01*
Y101396D01*
X484773Y103895D01*
X477275D01*
X502267D02*
X492270D01*
Y88900D01*
X502267D01*
X492270Y96398D02*
X497269D01*
X532257Y101396D02*
X529758Y103895D01*
X524760D01*
X522261Y101396D01*
Y91399D01*
X524760Y88900D01*
X529758D01*
X532257Y91399D01*
Y96398D01*
X527259D01*
X537256Y98897D02*
Y88900D01*
Y93898D01*
X539755Y96398D01*
X542254Y98897D01*
X544753D01*
X554750Y88900D02*
X559748D01*
X562248Y91399D01*
Y96398D01*
X559748Y98897D01*
X554750D01*
X552251Y96398D01*
Y91399D01*
X554750Y88900D01*
X567246Y98897D02*
Y91399D01*
X569745Y88900D01*
X577243D01*
Y98897D01*
X582241Y83902D02*
Y98897D01*
X589739D01*
X592238Y96398D01*
Y91399D01*
X589739Y88900D01*
X582241D01*
D13*
X0Y450000D02*
X600000D01*
Y0D02*
Y450000D01*
X0Y0D02*
X600000D01*
X0D02*
Y450000D01*
D20*
X362830Y409820D02*
G03*
X362830Y409820I-1250J0D01*
G01*
X351400Y253610D02*
G03*
X351400Y253610I-1250J0D01*
G01*
D21*
X176632Y279570D02*
G03*
X177319Y240212I22981J-19284D01*
G01*
X453560Y190398D02*
G03*
X414202Y189711I-19284J-22981D01*
G01*
X73762Y165270D02*
G03*
X74449Y125912I22981J-19284D01*
G01*
X463720Y351688D02*
G03*
X424362Y351001I-19284J-22981D01*
G01*
X291998Y76030D02*
G03*
X291311Y115388I-22981J19284D01*
G01*
X176632Y223690D02*
G03*
X177319Y184332I22981J-19284D01*
G01*
X50970Y253898D02*
G03*
X11612Y253211I-19284J-22981D01*
G01*
X539852Y265600D02*
G03*
X540539Y226242I22981J-19284D01*
G01*
X106510Y379832D02*
G03*
X145868Y380519I19284J22981D01*
G01*
X154770Y379832D02*
G03*
X194128Y380519I19284J22981D01*
G01*
X374080Y357270D02*
Y407270D01*
X398080Y357270D02*
Y407270D01*
X374080D02*
X398080D01*
X374080Y357270D02*
X398080D01*
X163870Y240350D02*
Y280350D01*
X169870Y260350D02*
X204870D01*
X127620D02*
X163870D01*
X414340Y203160D02*
X454340D01*
X434340Y162160D02*
Y197160D01*
Y203160D02*
Y239410D01*
X61000Y126050D02*
Y166050D01*
X67000Y146050D02*
X102000D01*
X24750D02*
X61000D01*
X424500Y364450D02*
X464500D01*
X444500Y323450D02*
Y358450D01*
Y364450D02*
Y400700D01*
X304760Y75250D02*
Y115250D01*
X263760Y95250D02*
X298760D01*
X304760D02*
X341010D01*
X163870Y184470D02*
Y224470D01*
X169870Y204470D02*
X204870D01*
X127620D02*
X163870D01*
X11750Y266660D02*
X51750D01*
X31750Y225660D02*
Y260660D01*
Y266660D02*
Y302910D01*
X527090Y226380D02*
Y266380D01*
X533090Y246380D02*
X568090D01*
X490840D02*
X527090D01*
X362650Y201060D02*
Y251060D01*
X386650Y201060D02*
Y251060D01*
X362650D02*
X386650D01*
X362650Y201060D02*
X386650D01*
X105730Y367070D02*
X145730D01*
X125730Y373070D02*
Y408070D01*
Y330820D02*
Y367070D01*
X153990D02*
X193990D01*
X173990Y373070D02*
Y408070D01*
Y330820D02*
Y367070D01*
X354330Y429097D02*
Y420766D01*
X355996Y419100D01*
X359328D01*
X360994Y420766D01*
Y429097D01*
X364327Y419100D02*
X367659D01*
X365993D01*
Y429097D01*
X364327Y427431D01*
X242885Y264871D02*
X241218Y266537D01*
X237886D01*
X236220Y264871D01*
Y258206D01*
X237886Y256540D01*
X241218D01*
X242885Y258206D01*
X246217Y256540D02*
X249549D01*
X247883D01*
Y266537D01*
X246217Y264871D01*
X254547Y254874D02*
X261212D01*
X264544Y256540D02*
X267876D01*
X266210D01*
Y266537D01*
X264544Y264871D01*
X240345Y206451D02*
X238678Y208117D01*
X235346D01*
X233680Y206451D01*
Y199786D01*
X235346Y198120D01*
X238678D01*
X240345Y199786D01*
X243677Y198120D02*
X247009D01*
X245343D01*
Y208117D01*
X243677Y206451D01*
X119694Y299161D02*
X118028Y300827D01*
X114696D01*
X113030Y299161D01*
Y292496D01*
X114696Y290830D01*
X118028D01*
X119694Y292496D01*
X123027Y299161D02*
X124693Y300827D01*
X128025D01*
X129691Y299161D01*
Y297495D01*
X128025Y295828D01*
X126359D01*
X128025D01*
X129691Y294162D01*
Y292496D01*
X128025Y290830D01*
X124693D01*
X123027Y292496D01*
X133024Y289164D02*
X139688D01*
X143020Y290830D02*
X146353D01*
X144686D01*
Y300827D01*
X143020Y299161D01*
X173034Y300431D02*
X171368Y302097D01*
X168036D01*
X166370Y300431D01*
Y293766D01*
X168036Y292100D01*
X171368D01*
X173034Y293766D01*
X176367Y300431D02*
X178033Y302097D01*
X181365D01*
X183031Y300431D01*
Y298764D01*
X181365Y297098D01*
X179699D01*
X181365D01*
X183031Y295432D01*
Y293766D01*
X181365Y292100D01*
X178033D01*
X176367Y293766D01*
X34604Y189941D02*
X32938Y191607D01*
X29606D01*
X27940Y189941D01*
Y183276D01*
X29606Y181610D01*
X32938D01*
X34604Y183276D01*
X42935Y181610D02*
Y191607D01*
X37937Y186608D01*
X44601D01*
X536255Y211531D02*
X534588Y213197D01*
X531256D01*
X529590Y211531D01*
Y204866D01*
X531256Y203200D01*
X534588D01*
X536255Y204866D01*
X546251Y213197D02*
X539587D01*
Y208198D01*
X542919Y209865D01*
X544585D01*
X546251Y208198D01*
Y204866D01*
X544585Y203200D01*
X541253D01*
X539587Y204866D01*
X439734Y435051D02*
X438068Y436717D01*
X434736D01*
X433070Y435051D01*
Y428386D01*
X434736Y426720D01*
X438068D01*
X439734Y428386D01*
X444733Y426720D02*
Y435051D01*
Y431718D01*
X443067D01*
X446399D01*
X444733D01*
Y435051D01*
X446399Y436717D01*
X451397Y426720D02*
X454730D01*
X453064D01*
Y436717D01*
X451397Y435051D01*
X428304Y278841D02*
X426638Y280507D01*
X423306D01*
X421640Y278841D01*
Y272176D01*
X423306Y270510D01*
X426638D01*
X428304Y272176D01*
X433303Y270510D02*
Y278841D01*
Y275508D01*
X431637D01*
X434969D01*
X433303D01*
Y278841D01*
X434969Y280507D01*
X446632Y270510D02*
X439967D01*
X446632Y277174D01*
Y278841D01*
X444966Y280507D01*
X441634D01*
X439967Y278841D01*
X114614Y126441D02*
X112948Y128107D01*
X109616D01*
X107950Y126441D01*
Y119776D01*
X109616Y118110D01*
X112948D01*
X114614Y119776D01*
X119613Y118110D02*
Y126441D01*
Y123108D01*
X117947D01*
X121279D01*
X119613D01*
Y126441D01*
X121279Y128107D01*
X126277Y126441D02*
X127944Y128107D01*
X131276D01*
X132942Y126441D01*
Y124775D01*
X131276Y123108D01*
X129610D01*
X131276D01*
X132942Y121442D01*
Y119776D01*
X131276Y118110D01*
X127944D01*
X126277Y119776D01*
X377505Y98501D02*
X375838Y100167D01*
X372506D01*
X370840Y98501D01*
Y91836D01*
X372506Y90170D01*
X375838D01*
X377505Y91836D01*
X380837Y96834D02*
Y90170D01*
Y93502D01*
X382503Y95168D01*
X384169Y96834D01*
X385835D01*
X395832Y90170D02*
X392500D01*
X390834Y91836D01*
Y95168D01*
X392500Y96834D01*
X395832D01*
X397498Y95168D01*
Y93502D01*
X390834D01*
X402496Y90170D02*
Y98501D01*
Y95168D01*
X400830D01*
X404163D01*
X402496D01*
Y98501D01*
X404163Y100167D01*
X90170Y287020D02*
Y297017D01*
X95168D01*
X96834Y295351D01*
Y292018D01*
X95168Y290352D01*
X90170D01*
X93502D02*
X96834Y287020D01*
X100167D02*
X103499D01*
X101833D01*
Y297017D01*
X100167Y295351D01*
X252730Y287020D02*
Y297017D01*
X257728D01*
X259394Y295351D01*
Y292018D01*
X257728Y290352D01*
X252730D01*
X256062D02*
X259394Y287020D01*
X269391D02*
X262727D01*
X269391Y293685D01*
Y295351D01*
X267725Y297017D01*
X264393D01*
X262727Y295351D01*
X272724Y285354D02*
X279388D01*
X282720Y287020D02*
X286053D01*
X284387D01*
Y297017D01*
X282720Y295351D01*
X265430Y325120D02*
Y335117D01*
X270428D01*
X272094Y333451D01*
Y330118D01*
X270428Y328452D01*
X265430D01*
X268762D02*
X272094Y325120D01*
X282091D02*
X275427D01*
X282091Y331785D01*
Y333451D01*
X280425Y335117D01*
X277093D01*
X275427Y333451D01*
X327660Y412750D02*
Y422747D01*
X332658D01*
X334324Y421081D01*
Y417748D01*
X332658Y416082D01*
X327660D01*
X330992D02*
X334324Y412750D01*
X337657Y421081D02*
X339323Y422747D01*
X342655D01*
X344321Y421081D01*
Y419414D01*
X342655Y417748D01*
X340989D01*
X342655D01*
X344321Y416082D01*
Y414416D01*
X342655Y412750D01*
X339323D01*
X337657Y414416D01*
X330200Y375920D02*
Y385917D01*
X335198D01*
X336865Y384251D01*
Y380918D01*
X335198Y379252D01*
X330200D01*
X333532D02*
X336865Y375920D01*
X345195D02*
Y385917D01*
X340197Y380918D01*
X346861D01*
X213360Y130810D02*
Y140807D01*
X218358D01*
X220025Y139141D01*
Y135808D01*
X218358Y134142D01*
X213360D01*
X216692D02*
X220025Y130810D01*
X230021Y140807D02*
X223357D01*
Y135808D01*
X226689Y137474D01*
X228355D01*
X230021Y135808D01*
Y132476D01*
X228355Y130810D01*
X225023D01*
X223357Y132476D01*
X233354Y129144D02*
X240018D01*
X243350Y130810D02*
X246683D01*
X245016D01*
Y140807D01*
X243350Y139141D01*
X234950Y171450D02*
Y181447D01*
X239948D01*
X241614Y179781D01*
Y176448D01*
X239948Y174782D01*
X234950D01*
X238282D02*
X241614Y171450D01*
X251611Y181447D02*
X244947D01*
Y176448D01*
X248279Y178114D01*
X249945D01*
X251611Y176448D01*
Y173116D01*
X249945Y171450D01*
X246613D01*
X244947Y173116D01*
X365760Y13970D02*
Y23967D01*
X370758D01*
X372425Y22301D01*
Y18968D01*
X370758Y17302D01*
X365760D01*
X369092D02*
X372425Y13970D01*
X375757Y20635D02*
Y13970D01*
Y17302D01*
X377423Y18968D01*
X379089Y20635D01*
X380755D01*
X390752Y13970D02*
X387420D01*
X385754Y15636D01*
Y18968D01*
X387420Y20635D01*
X390752D01*
X392418Y18968D01*
Y17302D01*
X385754D01*
X397416Y13970D02*
Y22301D01*
Y18968D01*
X395750D01*
X399083D01*
X397416D01*
Y22301D01*
X399083Y23967D01*
X404081Y13970D02*
X407413D01*
X405747D01*
Y23967D01*
X404081Y22301D01*
X367030Y52070D02*
Y62067D01*
X372028D01*
X373694Y60401D01*
Y57068D01*
X372028Y55402D01*
X367030D01*
X370362D02*
X373694Y52070D01*
X377027Y58734D02*
Y52070D01*
Y55402D01*
X378693Y57068D01*
X380359Y58734D01*
X382025D01*
X392022Y52070D02*
X388690D01*
X387024Y53736D01*
Y57068D01*
X388690Y58734D01*
X392022D01*
X393688Y57068D01*
Y55402D01*
X387024D01*
X398686Y52070D02*
Y60401D01*
Y57068D01*
X397020D01*
X400353D01*
X398686D01*
Y60401D01*
X400353Y62067D01*
X412015Y52070D02*
X405351D01*
X412015Y58734D01*
Y60401D01*
X410349Y62067D01*
X407017D01*
X405351Y60401D01*
X339090Y271617D02*
Y263286D01*
X340756Y261620D01*
X344088D01*
X345755Y263286D01*
Y271617D01*
X355751Y261620D02*
X349087D01*
X355751Y268284D01*
Y269951D01*
X354085Y271617D01*
X350753D01*
X349087Y269951D01*
D22*
X279400Y67310D02*
G03*
X276860Y64770I0J-2540D01*
G01*
Y49530D02*
G03*
X279400Y46990I2540J0D01*
G01*
X325120D02*
G03*
X327660Y49530I0J2540D01*
G01*
Y64770D02*
G03*
X325120Y67310I-2540J0D01*
G01*
Y10160D02*
G03*
X327660Y12700I0J2540D01*
G01*
Y27940D02*
G03*
X325120Y30480I-2540J0D01*
G01*
X279400D02*
G03*
X276860Y27940I0J-2540D01*
G01*
Y12700D02*
G03*
X279400Y10160I2540J0D01*
G01*
X82550Y261620D02*
G03*
X80010Y264160I-2540J0D01*
G01*
X64770D02*
G03*
X62230Y261620I0J-2540D01*
G01*
Y215900D02*
G03*
X64770Y213360I2540J0D01*
G01*
X80010D02*
G03*
X82550Y215900I0J2540D01*
G01*
X373380Y318770D02*
G03*
X375920Y321310I0J2540D01*
G01*
Y336550D02*
G03*
X373380Y339090I-2540J0D01*
G01*
X327660D02*
G03*
X325120Y336550I0J-2540D01*
G01*
Y321310D02*
G03*
X327660Y318770I2540J0D01*
G01*
X373380Y278130D02*
G03*
X375920Y280670I0J2540D01*
G01*
Y295910D02*
G03*
X373380Y298450I-2540J0D01*
G01*
X327660D02*
G03*
X325120Y295910I0J-2540D01*
G01*
Y280670D02*
G03*
X327660Y278130I2540J0D01*
G01*
X298450Y186690D02*
G03*
X295910Y184150I0J-2540D01*
G01*
Y168910D02*
G03*
X298450Y166370I2540J0D01*
G01*
X344170D02*
G03*
X346710Y168910I0J2540D01*
G01*
Y184150D02*
G03*
X344170Y186690I-2540J0D01*
G01*
X298450Y146050D02*
G03*
X295910Y143510I0J-2540D01*
G01*
Y128270D02*
G03*
X298450Y125730I2540J0D01*
G01*
X344170D02*
G03*
X346710Y128270I0J2540D01*
G01*
Y143510D02*
G03*
X344170Y146050I-2540J0D01*
G01*
X240030Y386080D02*
G03*
X237490Y383540I0J-2540D01*
G01*
Y368300D02*
G03*
X240030Y365760I2540J0D01*
G01*
X285750D02*
G03*
X288290Y368300I0J2540D01*
G01*
Y383540D02*
G03*
X285750Y386080I-2540J0D01*
G01*
X240030Y427990D02*
G03*
X237490Y425450I0J-2540D01*
G01*
Y410210D02*
G03*
X240030Y407670I2540J0D01*
G01*
X285750D02*
G03*
X288290Y410210I0J2540D01*
G01*
Y425450D02*
G03*
X285750Y427990I-2540J0D01*
G01*
X276860Y49530D02*
Y64770D01*
X279400Y67310D02*
X283210D01*
X284480Y66040D01*
X279400Y46990D02*
X283210D01*
X284480Y48260D01*
X320040Y66040D02*
X321310Y67310D01*
X284480Y66040D02*
X320040D01*
Y48260D02*
X321310Y46990D01*
X284480Y48260D02*
X320040D01*
X321310Y67310D02*
X325120D01*
X321310Y46990D02*
X325120D01*
X327660Y49530D02*
Y64770D01*
Y12700D02*
Y27940D01*
X321310Y10160D02*
X325120D01*
X320040Y11430D02*
X321310Y10160D01*
Y30480D02*
X325120D01*
X320040Y29210D02*
X321310Y30480D01*
X283210Y10160D02*
X284480Y11430D01*
X320040D01*
X283210Y30480D02*
X284480Y29210D01*
X320040D01*
X279400Y10160D02*
X283210D01*
X279400Y30480D02*
X283210D01*
X276860Y12700D02*
Y27940D01*
X64770Y264160D02*
X80010D01*
X82550Y257810D02*
Y261620D01*
X81280Y256540D02*
X82550Y257810D01*
X62230D02*
Y261620D01*
Y257810D02*
X63500Y256540D01*
X81280Y220980D02*
X82550Y219710D01*
X81280Y220980D02*
Y256540D01*
X62230Y219710D02*
X63500Y220980D01*
Y256540D01*
X82550Y215900D02*
Y219710D01*
X62230Y215900D02*
Y219710D01*
X64770Y213360D02*
X80010D01*
X375920Y321310D02*
Y336550D01*
X369570Y318770D02*
X373380D01*
X368300Y320040D02*
X369570Y318770D01*
Y339090D02*
X373380D01*
X368300Y337820D02*
X369570Y339090D01*
X331470Y318770D02*
X332740Y320040D01*
X368300D01*
X331470Y339090D02*
X332740Y337820D01*
X368300D01*
X327660Y318770D02*
X331470D01*
X327660Y339090D02*
X331470D01*
X325120Y321310D02*
Y336550D01*
X375920Y280670D02*
Y295910D01*
X369570Y278130D02*
X373380D01*
X368300Y279400D02*
X369570Y278130D01*
Y298450D02*
X373380D01*
X368300Y297180D02*
X369570Y298450D01*
X331470Y278130D02*
X332740Y279400D01*
X368300D01*
X331470Y298450D02*
X332740Y297180D01*
X368300D01*
X327660Y278130D02*
X331470D01*
X327660Y298450D02*
X331470D01*
X325120Y280670D02*
Y295910D01*
X295910Y168910D02*
Y184150D01*
X298450Y186690D02*
X302260D01*
X303530Y185420D01*
X298450Y166370D02*
X302260D01*
X303530Y167640D01*
X339090Y185420D02*
X340360Y186690D01*
X303530Y185420D02*
X339090D01*
Y167640D02*
X340360Y166370D01*
X303530Y167640D02*
X339090D01*
X340360Y186690D02*
X344170D01*
X340360Y166370D02*
X344170D01*
X346710Y168910D02*
Y184150D01*
X295910Y128270D02*
Y143510D01*
X298450Y146050D02*
X302260D01*
X303530Y144780D01*
X298450Y125730D02*
X302260D01*
X303530Y127000D01*
X339090Y144780D02*
X340360Y146050D01*
X303530Y144780D02*
X339090D01*
Y127000D02*
X340360Y125730D01*
X303530Y127000D02*
X339090D01*
X340360Y146050D02*
X344170D01*
X340360Y125730D02*
X344170D01*
X346710Y128270D02*
Y143510D01*
X237490Y368300D02*
Y383540D01*
X240030Y386080D02*
X243840D01*
X245110Y384810D01*
X240030Y365760D02*
X243840D01*
X245110Y367030D01*
X280670Y384810D02*
X281940Y386080D01*
X245110Y384810D02*
X280670D01*
Y367030D02*
X281940Y365760D01*
X245110Y367030D02*
X280670D01*
X281940Y386080D02*
X285750D01*
X281940Y365760D02*
X285750D01*
X288290Y368300D02*
Y383540D01*
X237490Y410210D02*
Y425450D01*
X240030Y427990D02*
X243840D01*
X245110Y426720D01*
X240030Y407670D02*
X243840D01*
X245110Y408940D01*
X280670Y426720D02*
X281940Y427990D01*
X245110Y426720D02*
X280670D01*
Y408940D02*
X281940Y407670D01*
X245110Y408940D02*
X280670D01*
X281940Y427990D02*
X285750D01*
X281940Y407670D02*
X285750D01*
X288290Y410210D02*
Y425450D01*
D23*
X4000Y339400D02*
X96000D01*
X4000D02*
Y440600D01*
X96000D01*
Y339400D02*
Y440600D01*
X122990Y6070D02*
Y98070D01*
X21790Y6070D02*
X122990D01*
X21790D02*
Y98070D01*
X122990D01*
X504000Y440600D02*
X596000D01*
Y339400D02*
Y440600D01*
X504000Y339400D02*
X596000D01*
X504000D02*
Y440600D01*
D24*
X64770Y331465D02*
X69848D01*
X67309D01*
Y316230D01*
X64770D01*
X69848D01*
X77466D02*
Y331465D01*
X87623Y316230D01*
Y331465D01*
X520698Y321305D02*
X515619D01*
X513080Y318766D01*
Y308609D01*
X515619Y306070D01*
X520698D01*
X523237Y308609D01*
Y318766D01*
X520698Y321305D01*
X528315D02*
Y308609D01*
X530854Y306070D01*
X535933D01*
X538472Y308609D01*
Y321305D01*
X543550D02*
X553707D01*
X548629D01*
Y306070D01*
X135890Y54605D02*
Y44448D01*
X140968Y39370D01*
X146047Y44448D01*
Y54605D01*
X161282Y52066D02*
X158743Y54605D01*
X153664D01*
X151125Y52066D01*
Y41909D01*
X153664Y39370D01*
X158743D01*
X161282Y41909D01*
X176517Y52066D02*
X173978Y54605D01*
X168899D01*
X166360Y52066D01*
Y41909D01*
X168899Y39370D01*
X173978D01*
X176517Y41909D01*
D25*
X494030Y82387D02*
Y72390D01*
X499028D01*
X500695Y74056D01*
Y80721D01*
X499028Y82387D01*
X494030D01*
X504027D02*
Y75722D01*
X507359Y72390D01*
X510691Y75722D01*
Y82387D01*
X514024D02*
X520688D01*
X517356D01*
Y72390D01*
X534017D02*
Y82387D01*
X540682Y72390D01*
Y82387D01*
X545680Y72390D02*
X549012D01*
X550678Y74056D01*
Y77388D01*
X549012Y79054D01*
X545680D01*
X544014Y77388D01*
Y74056D01*
X545680Y72390D01*
X555677Y80721D02*
Y79054D01*
X554011D01*
X557343D01*
X555677D01*
Y74056D01*
X557343Y72390D01*
X569006Y79054D02*
X564007D01*
X562341Y77388D01*
Y74056D01*
X564007Y72390D01*
X569006D01*
X572338Y82387D02*
Y72390D01*
Y77388D01*
X574004Y79054D01*
X577337D01*
X579003Y77388D01*
Y72390D01*
X501650Y54610D02*
Y64607D01*
X506648D01*
X508315Y62941D01*
Y59608D01*
X506648Y57942D01*
X501650D01*
X511647Y54610D02*
Y64607D01*
X518311Y54610D01*
Y64607D01*
X521644Y54610D02*
X524976D01*
X523310D01*
Y64607D01*
X521644Y62941D01*
X529974D02*
X531640Y64607D01*
X534973D01*
X536639Y62941D01*
Y56276D01*
X534973Y54610D01*
X531640D01*
X529974Y56276D01*
Y62941D01*
X539971D02*
X541637Y64607D01*
X544969D01*
X546636Y62941D01*
Y56276D01*
X544969Y54610D01*
X541637D01*
X539971Y56276D01*
Y62941D01*
X554966Y54610D02*
Y64607D01*
X549968Y59608D01*
X556632D01*
X559964Y64607D02*
X566629D01*
Y62941D01*
X559964Y56276D01*
Y54610D01*
D26*
X537845Y29210D02*
D03*
M02*
